<svg width="378" height="716" fill="none" xmlns="http://www.w3.org/2000/svg"><g clip-path="url(#a)"><path d="M34.766 595.045s9.18-89.39 8.106-98.169c-1.075-8.78-33.106-29.006-8.985-83.244-31.543-37.687-37.696-57.75-29.85-66.075 7.845-8.324 33.268-22.762 75.684-15.38 49.057-34.111 110.516-57.035 192.516-37.428 21.842-14.275 52.735-18.372 69.304-11.348 16.569 7.024 16.96 28.16 11.784 51.182l-5.013 23.054s17.285 40.354 16.895 64.222c-.391 23.867-20.443 60.221-20.443 60.221s27.116 34.989 27.246 49.101c.13 14.113 4.004 38.371 2.344 40.224-1.66 1.853-113.185 51.54-186.428 49.036-73.243-2.504-153.16-25.396-153.16-25.396Z" fill="#F5FCFF"/><path d="M26.302 445.108c.847 1.269 3.418 21.397 23.568 30.827 20.15 9.43 39.063 17.136 39.063 17.136l15.43 44.093s-9.765 21.006-12.012 36.842a237.146 237.146 0 0 0-1.692 32.973s-56.61-9.755-57.456-18.405c-.846-8.65-2.148-71.31 9.766-91.763 5.404-9.333-14.844-18.73-16.569-31.152a129.933 129.933 0 0 1-.098-20.551Zm338.286-15.738s-1.823 22.762-19.987 28.648c-18.164 5.885-29.753 10.275-29.753 10.275s-39.877 32.517-39.063 37.688c.814 5.17-.846 9.755 1.725 11.348 2.572 1.593 26.693 28.062 30.274 47.735 3.581 19.673 4.883 29.981 4.883 29.981s26.726-8.455 38.347-13.365a76.199 76.199 0 0 0 23.47-15.348s-16.276-78.041-24.935-81.032c-8.659-2.992 12.403-25.591 14.128-31.997 1.725-6.406.911-23.933.911-23.933Zm-176.89-51.084c7.617-.39 56.446-24.225 93.035-19.673 36.589 4.552 81.186 32.517 82.814 31.412 1.041-.618-10.678-42.273-45.313-71.538-20.509-17.104-50.847-26.827-86.395-28.81-95.607-5.301-143.231 33.46-174.481 60.319a84.091 84.091 0 0 0-21.484 29.359 84.01 84.01 0 0 0-7.065 35.675s46.973-41.459 83.432-43.995c36.459-2.537 75.457 7.251 75.457 7.251Z" fill="#B5E3FF"/><path d="M76.889 392.593c-2.116 7.447 9.017 17.397 22.299 14.47 13.281-2.926 20.703-5.918 19.987-14.47-.716-8.552-14.421-11.511-23.406-10.243-8.984 1.269-17.155 4.228-18.88 10.243Zm175.002-12.519c1.27 6.504 14.617 8.845 27.963 4.52 13.9-4.52 19.792-16.258 8.203-20.063a35.16 35.16 0 0 0-30.013 2.211c-9.082 5.301-6.153 13.332-6.153 13.332Z" fill="#FFDCD9"/><path d="M166.213 499.965a46.679 46.679 0 0 1 27.475-10.763 50.663 50.663 0 0 1 30.924 6.243c3.028 1.853 5.795-2.927 2.767-4.78a55.39 55.39 0 0 0-34.277-6.926 52.538 52.538 0 0 0-30.795 12.291c-2.637 2.439 1.302 6.504 3.906 3.935Zm17.058-21.689a28.31 28.31 0 0 1 19.694-2.731 2.776 2.776 0 0 0 2.102-.264 2.767 2.767 0 0 0 1.036-3.771 2.764 2.764 0 0 0-1.673-1.298 34.08 34.08 0 0 0-23.959 3.251 2.77 2.77 0 1 0 2.8 4.78v.033Z" fill="#76C1FF"/><path d="M33.17 415.29s-24.12-51.019-19.53-64.286c4.59-13.267 66.895-17.592 66.895-17.592s-6.51 15.901-18.067 24.388c-5.208 3.87-18.88 1.626-18.522 4.585a84.472 84.472 0 0 0 6.348 20.713L33.17 415.29Zm232.752-117.256c15.267-4.488 61.849-14.275 71.615-8.032 7.487 4.877 15.886 73.489 4.785 79.797-6.25-2.211-16.927-16.064-21.354-29.591-2.018-6.145-.456-25.753-3.255-26.339-9.31-1.918-21.876 6.862-21.876 6.862s-38.9-20.031-29.915-22.697ZM54.59 509.395c0 1.3 6.023 18.437 16.733 23.997 10.71 5.561 28.646 5.431 33.008 3.837 8.138-2.926 18.718-36.061 19.173-41.199a42.67 42.67 0 0 1 4.297-12.519l13.835-1.04s1.107 0 .684-2.634c-.424-2.634-13.021-11.934-20.346-11.219-7.324.716-26.497 12.552-35.091 17.592-8.594 5.04-32.292 23.185-32.292 23.185Zm197.236-42.11c.261-2.601 4.883-10.503 28.874-6.243 14.324 2.536 41.342 7.771 56.447 27.379 3.255 4.097-10.385 16.812-18.946 23.217-8.561 6.406-28.484 5.658-28.484 5.658s-13.899-28.842-16.276-37.004c-2.376-8.162-6.51-11.348-11.523-12.779-5.013-1.431-9.506 5.072-11.654 3.251-2.149-1.82 1.562-3.479 1.562-3.479ZM112.664 358.743c-9.017-3.252-6.217-18.47 1.302-25.331 7.52-6.861 18.262-14.6 27.898-9.462 9.635 5.137 3.874 22.762-2.767 28.322-6.641 5.561-19.532 8.942-26.433 6.471Zm104.006-45.621c5.892-8.52 22.298-4.13 33.008 4.91 10.71 9.039 13.021 17.136 4.297 22.534s-22.299 6.178-30.014 0-15.006-16.291-7.291-27.444Z" fill="#1EA6F9"/><path d="M26.856 408.852a133.18 133.18 0 0 0-4.07 37.102 95.737 95.737 0 0 0 7.227 36.159 69.779 69.779 0 0 0 10.417 17.202l-.52-4.195c-13.022 22.762-13.9 49.296-11.882 74.789.586 7.349 1.4 14.698 2.278 22.014a3.541 3.541 0 0 0 1.038 2.41 3.552 3.552 0 0 0 2.413 1.037 3.481 3.481 0 0 0 3.45-3.447c-2.864-24.42-5.826-50.076.782-74.139a82.623 82.623 0 0 1 7.878-19.055 3.572 3.572 0 0 0-.521-4.162c-14.974-18.047-17.416-43.248-15.17-65.717a115.743 115.743 0 0 1 3.256-18.275 3.456 3.456 0 0 0-2.41-4.259 3.462 3.462 0 0 0-4.264 2.406l.098.13Zm244.632-116.574a234.63 234.63 0 0 0-78.126-6.081 218.04 218.04 0 0 0-75.913 19.511 185.859 185.859 0 0 0-38.574 24.322 3.478 3.478 0 0 0 0 4.911 3.552 3.552 0 0 0 4.883 0 187.096 187.096 0 0 1 67.969-34.599 235.408 235.408 0 0 1 78.745-7.511 199.185 199.185 0 0 1 39.063 6.113 3.451 3.451 0 0 0 3.602-2.49 3.446 3.446 0 0 0-1.747-4.013l.098-.163ZM378 566.332c-2.051-16.258-3.255-32.322-8.366-47.897-4.199-13.007-9.766-25.039-19.532-34.696l.521 4.195A130.617 130.617 0 0 0 364.1 387.878a149.522 149.522 0 0 0-11.914-30.045c-2.084-3.935-8.073-.456-5.99 3.479a132.94 132.94 0 0 1 14.518 44.093 126.469 126.469 0 0 1-4.622 53.133 116.535 116.535 0 0 1-11.426 26.014 3.536 3.536 0 0 0 .521 4.194c9.18 8.975 14.063 20.226 17.936 32.29 4.753 14.763 5.99 30.078 7.911 45.524a3.55 3.55 0 0 0 3.45 3.447 3.513 3.513 0 0 0 3.483-3.447l.033-.228Z" fill="#070707"/><path d="M266.931 302.553a213.22 213.22 0 0 1 34.343-15.738c10.97-3.544 24.089-5.95 35.319-1.983 9.538 3.251 12.826 14.307 13.77 23.444a114.684 114.684 0 0 1-2.018 35.119 122.012 122.012 0 0 1-14.844 37.98 3.474 3.474 0 0 0 1.425 4.436 3.486 3.486 0 0 0 4.564-.957 127.13 127.13 0 0 0 17.937-75.147c-.912-10.73-3.972-22.437-13.444-28.81a35.204 35.204 0 0 0-18.458-4.878 72.36 72.36 0 0 0-19.759 2.277c-14.974 3.739-28.809 11.056-42.318 18.242-4.004 2.243-.521 8.097 3.483 6.015Z" fill="#070707"/><path d="M300.525 324.795a62.274 62.274 0 0 1 9.538-5.073c.944-.422 2.539-1.04 3.776-1.463l1.79-.585.847-.26h.748l-1.725-.455a1.917 1.917 0 0 1-.781-1.366v1.983l-.261 3.252-.52 6.503-1.042 13.007c0 .918.362 1.798 1.008 2.449a3.487 3.487 0 0 0 2.442 1.031 3.516 3.516 0 0 0 3.451-3.48L321 325.445l.586-7.218a7.375 7.375 0 0 0-1.432-6.504 6.322 6.322 0 0 0-6.51-.422c-1.563.487-3.256 1.073-4.655 1.723a68.991 68.991 0 0 0-11.654 5.951 3.542 3.542 0 0 0-1.237 4.747 3.518 3.518 0 0 0 4.72 1.236l-.293-.163Zm-212.633 5.528a136.206 136.206 0 0 0-37.208-2.992 118.343 118.343 0 0 0-35.905 7.219 25.62 25.62 0 0 0-11.882 8.13 19.103 19.103 0 0 0-1.725 17.006 152.733 152.733 0 0 0 13.77 32.517 168.52 168.52 0 0 0 23.665 32.517c3.028 3.252 7.943-1.626 4.883-4.877a159.497 159.497 0 0 1-33.724-56.027c-1.563-4.52-4.265-10.471-2.442-15.316a14.736 14.736 0 0 1 8.692-7.316 88.886 88.886 0 0 1 14.811-4.292 125.324 125.324 0 0 1 17.123-2.342 129.839 129.839 0 0 1 38.021 2.569c4.33.943 6.185-5.723 1.823-6.666l.098-.13Z" fill="#070707"/><path d="M63.347 359.361a40.732 40.732 0 0 0-15.593-1.171 12.153 12.153 0 0 0-7.715 2.537c-2.115 2.341-.78 5.365.228 7.869a59.154 59.154 0 0 0 15.788 22.762 3.617 3.617 0 0 0 4.916 0 3.542 3.542 0 0 0 0-4.91 51.19 51.19 0 0 1-9.278-10.568 53.34 53.34 0 0 1-3.548-6.244 39.084 39.084 0 0 1-1.204-2.731c-.358-.911-.489-1.236-.717-1.821a8.343 8.343 0 0 1-.26-.846 1.816 1.816 0 0 1 0-.39v.358l-.879 1.528s-.683.163-.293 0a4.79 4.79 0 0 0 1.14-.26c.78-.163 1.595-.325 2.408-.423a31.18 31.18 0 0 1 4.265-.26c3.058.003 6.103.418 9.05 1.236a3.467 3.467 0 0 0 4.264-2.406 3.458 3.458 0 0 0-2.41-4.26h-.162Zm-8.496 150.457a492.808 492.808 0 0 1 37.989-27.965 543.797 543.797 0 0 1 19.922-12.649 22.787 22.787 0 0 1 9.766-4 12.837 12.837 0 0 1 7.454 1.886 41.297 41.297 0 0 1 13.021 15.023l1.237-4.715a11.112 11.112 0 0 1-7.65 2.114c-3.255-.358-5.761-1.756-8.919 0-4.85 2.471-7.682 8.942-9.05 13.917-2.897 10.373-1.106 22.112-6.054 31.932a40.173 40.173 0 0 1-13.282 14.372c-3.613 2.504-.163 8.487 3.516 5.951a52.621 52.621 0 0 0 13.021-12.422 37.304 37.304 0 0 0 6.283-15.738c.944-5.463 1.171-10.991 1.953-16.454a27.23 27.23 0 0 1 5.306-14.047c1.237-1.431 1.692-1.561 3.45-1.073 1.643.457 3.341.686 5.046.683a17.69 17.69 0 0 0 9.766-3.089 3.508 3.508 0 0 0 1.237-4.748c-6.804-11.381-17.839-24.81-32.781-18.925a69.233 69.233 0 0 0-10.775 5.886 346.162 346.162 0 0 0-10.97 6.926 396.515 396.515 0 0 0-21.29 14.698 565.292 565.292 0 0 0-23.079 17.722 3.447 3.447 0 0 0-.749 3.758c.174.419.428.799.75 1.119a3.548 3.548 0 0 0 4.882 0v-.162Zm237.926 5.755-22.135-43.28a13.598 13.598 0 0 0-6.153-7.349 11.18 11.18 0 0 0-7.552 0 22.822 22.822 0 0 1-5.859 1.691v-.716a7.087 7.087 0 0 1 1.399-3.609c3.776-5.528 11.264-6.016 17.318-5.463 5.987.643 11.917 1.73 17.741 3.252a82.07 82.07 0 0 1 27.996 12.129 68.297 68.297 0 0 1 21.875 27.444c.229.393.533.737.894 1.013a3.474 3.474 0 0 0 3.842.239 3.456 3.456 0 0 0 1.254-4.731 75.038 75.038 0 0 0-21.257-27.607 84.461 84.461 0 0 0-30.6-14.6 152.723 152.723 0 0 0-18.685-3.642c-7.715-1.041-15.951-.813-22.331 4.162-4.85 3.804-10.026 13.56-3.027 18.014a8.93 8.93 0 0 0 7.519.488 20.953 20.953 0 0 1 6.511-1.886c.255.084.496.204.716.358a5.988 5.988 0 0 1 1.27 1.918c1.074 2.049 2.116 4.163 3.255 6.244l6.51 12.844 13.542 26.469c2.019 3.967 8.008.488 5.957-3.479v.097ZM182.294 386.578c-.325 0-10.059-1.626-10.352-9.463-.293-7.836 7.748-8.162 13.575-9.43 5.827-1.268 11.654 1.366 11.654 7.479 0 6.113-7.39 11.414-7.39 11.414l.326 6.015s16.276 2.894 21.354 0c5.078-2.894 13.021-7.446 14.258-4.877 1.237 2.569-13.281 26.859-34.668 26.209-21.387-.651-43.067-12.389-40.138-17.885 2.93-5.495 12.631 2.602 19.532.976a91.523 91.523 0 0 0 11.654-3.577l.195-6.861Z" fill="#070707"/><path d="M171.324 405.112s.781 25.201 16.895 24.258c16.113-.943 16.276-28.16 16.276-28.16" fill="#FF729E"/><path d="M187.307 432.85a15.345 15.345 0 0 1-10.645-4c-8.203-7.479-8.789-22.762-8.821-23.51a3.514 3.514 0 0 1 3.255-3.577 3.582 3.582 0 0 1 3.581 3.252c0 3.642 1.53 14.08 6.51 18.665a8.7 8.7 0 0 0 6.511 2.243c12.663-.748 13.021-24.452 13.021-24.68a3.452 3.452 0 0 1 3.45-3.447 3.483 3.483 0 0 1 3.484 3.447c0 1.236-.228 30.436-19.532 31.607h-.814Z" fill="#9C1633"/><path d="M187.828 417.111a3.484 3.484 0 0 1-3.451-3.251l-.651-8.292a3.461 3.461 0 0 1 6.902-.553l.651 8.292a3.421 3.421 0 0 1-.836 2.547 3.4 3.4 0 0 1-1.091.827 3.442 3.442 0 0 1-1.329.333l-.195.097Z" fill="#9C1633"/><path d="M200.719 402.056s-4.623 3.252-16.927 3.609c-9.766.26-13.77-1.431-14.063-3.252-.488-2.959 12.337-7.511 19.206-7.511 26.921-.065 11.784 7.154 11.784 7.154Z" fill="#070707"/><path d="M240.172 361.409c.881 0 1.596-.612 1.596-1.366 0-.754-.715-1.365-1.596-1.365-.88 0-1.595.611-1.595 1.365s.715 1.366 1.595 1.366Z" fill="#fff"/><path d="M187.437 374.351c2.507-.357 3.256.748 3.256 1.496s-1.302.78-2.279 1.398c-.977.618 0 2.244-2.181 2.244s-2.767-.163-2.897-1.431c-.13-1.268 1.855-.553 2.571-1.138.717-.585-.358-2.309 1.53-2.569Z" fill="#383838"/><path d="M130.015 384.887c5.825 0 10.547-4.717 10.547-10.536 0-5.818-4.722-10.535-10.547-10.535s-10.547 4.717-10.547 10.535c0 5.819 4.722 10.536 10.547 10.536Z" fill="#070707"/><path d="M133.726 373.994a2.277 2.277 0 1 0 0-4.553 2.277 2.277 0 1 0 0 4.553Z" fill="#fff"/><path d="M236.592 375.945c5.825 0 10.547-4.717 10.547-10.536s-4.722-10.536-10.547-10.536-10.547 4.717-10.547 10.536 4.722 10.536 10.547 10.536Z" fill="#070707"/><path d="M240.303 365.084a2.277 2.277 0 1 0 0-4.553 2.277 2.277 0 1 0 0 4.553Z" fill="#fff"/><path d="M4.768 146.169c-5.405 48.335 70.507 70.638 114.718 74.993 61.833 6.914 79.613 3.611 95.103 2.698l39.401 21.159-4.363-27.823c21.188-4.685 114.035-11.499 112.012-65.955-2.197-59.149-130.114-70.983-174.795-72.452-44.68-1.469-174.912 3.308-182.076 67.38Z" stroke="#6ABDEC" stroke-width="3" stroke-linecap="round" stroke-dasharray="6 12"/><path d="M51.17 133.107c-.259 0-.526-.173-.802-.52-.275-.33-.413-.746-.413-1.249 0-.399.095-.789.284-1.17.345-.729.69-1.318 1.034-1.769a2.64 2.64 0 0 0 .259-.442c.069-.122.112-.286.129-.495.241-.312.56-.875.956-1.69.673-1.093 1.63-2.775 2.87-5.047.172-.312.508-.927 1.008-1.846.517-.919.862-1.466 1.034-1.639l.13-.182c-.052.087.034-.113.258-.598.241-.486.491-.92.75-1.301.275-.399.517-.598.724-.598.224 0 .482.095.775.286.293.173.543.442.75.806.224.347.336.763.336 1.249 0 .208-.009.373-.026.494l-.259 1.769-.129.572c-.224 1.145-.56 2.714-1.008 4.708-.396 1.769-.595 2.835-.595 3.2 0 .104.018.19.052.26.035.052.078.078.13.078.034 0 .12-.052.258-.156.138-.122.258-.295.362-.521l.336-.52.44-.65a51.222 51.222 0 0 0 1.783-2.731c.707-1.162 1.853-3.148 3.438-5.957.328-.486.595-.91.802-1.275.275-.45.543-.875.801-1.274s.457-.65.595-.754a.997.997 0 0 1 .646-.209c.258.018.525.113.801.287.293.173.534.416.724.728.207.312.31.65.31 1.014 0 .417-.129 1.18-.387 2.289a36.808 36.808 0 0 1-.853 3.226c-.07.364-.285 1.222-.647 2.575a68.578 68.578 0 0 0-.62 2.393c-.12.59-.181 1.066-.181 1.431v.208c-.259.468-.388 1.404-.388 2.809-.069.572-.198 1.014-.388 1.327-.19.329-.344.494-.465.494l-.078-.026a.409.409 0 0 0-.258.104c-.07.087-.172.13-.31.13-.431 0-.716-.156-.853-.468-.121-.312-.181-.737-.181-1.275 0-.312.008-.572.025-.78.052-.451.604-2.801 1.655-7.049.827-3.33 1.24-5.073 1.24-5.229l-.361.625c-.345.659-.776 1.43-1.293 2.315l-1.81 3.407a7.775 7.775 0 0 0-.568.911 8.416 8.416 0 0 0-.233.52c-.206.416-.62 1.014-1.24 1.795-.207.26-.328.424-.362.494-.087.191-.362.529-.828 1.014-.465.468-.956.902-1.473 1.301-.517.381-.948.572-1.293.572-.465 0-.887-.225-1.267-.676-.361-.451-.542-.997-.542-1.639 0-.468.086-1.249.258-2.341.276-1.197.569-2.41.88-3.642.31-1.231.525-2.037.645-2.419.052-.156.078-.329.078-.52 0-.121-.017-.199-.052-.234-.017 0-.043.017-.077.052a1.246 1.246 0 0 1-.078.13c-.258.416-.663 1.145-1.215 2.185a67.178 67.178 0 0 0-1.784 3.668c-2.464 4.56-3.877 7.049-4.24 7.465Zm23.098-.494a3.142 3.142 0 0 1-1.24-.39c-.414-.226-.793-.46-1.138-.703-.345-.243-.577-.407-.698-.494a3.38 3.38 0 0 1-.672-.936c-.155-.347-.284-.798-.388-1.353a3.391 3.391 0 0 1-.052-.546c0-.52.087-1.153.259-1.899.19-.763.379-1.353.569-1.769.379-.919 1.215-2.393 2.507-4.422l.13-.13c.034-.035.043-.052.025-.052v-.026c0-.121.25-.659.75-1.613.293-.312.44-.581.44-.806a.469.469 0 0 0-.078-.286c-.052-.07.017-.217.207-.442.19-.243.448-.503.775-.781a6.465 6.465 0 0 1 1.086-.754c.465-.364.922-.546 1.37-.546.138 0 .25.026.336.078.104.034.164.095.181.182 0 .104.345.069 1.034-.104.31-.07.534-.113.672-.13.07-.087.242-.156.517-.208.293-.07.698-.139 1.215-.208.276.017.612.017 1.009 0a11.1 11.1 0 0 0 .801-.052c.12-.035.293.043.517.234.241.19.43.433.569.728a.828.828 0 0 1 .051.234c0 .26-.163.486-.49.676-.328.174-.802.295-1.423.365a38.858 38.858 0 0 0-3.49.624l-.542.104c-.535.087-.931.199-1.19.338-.258.139-.534.442-.827.91-.12.087-.276.313-.465.677-.19.347-.38.711-.569 1.092l-.517.703c-.396.537-.646.893-.75 1.066-.086.156-.103.269-.051.338.069.017.19.043.362.078.19.035.344.061.465.078.155-.086.37-.147.646-.182a4.39 4.39 0 0 0 .595-.104l.569-.156a171.29 171.29 0 0 1 2.352-.598c.5-.122.87-.2 1.112-.234a.475.475 0 0 1 .31-.104c.19 0 .37.095.543.286.19.173.327.381.413.624.07.243.104.399.104.468 0 .295-.173.52-.517.677-.345.138-1.034.329-2.068.572-1.5.364-2.439.598-2.818.702-1.12.33-1.948.494-2.482.494-.448 0-.663-.147-.646-.442-.155-.087-.336.069-.543.468-.207.399-.388.893-.543 1.483-.138.59-.207 1.101-.207 1.535 0 .225.026.416.078.572.155.416.388.772.698 1.066.31.278.74.495 1.292.651a7.292 7.292 0 0 0 1.086.078c.345 0 .69-.07 1.034-.208 1.344-.226 2.292-.538 2.844-.937a.564.564 0 0 0 .233-.182c.086-.087.163-.13.232-.13l-.026.052c0 .017.052-.017.155-.104a5.99 5.99 0 0 1 .337-.312c.482-.416 1.016-.624 1.602-.624.207 0 .38.034.517.104.155.052.242.104.259.156.103.173.052.451-.155.832-.207.382-.535.78-.983 1.197-.43.416-.913.78-1.447 1.092-.845.451-1.793.78-2.844.989a15.453 15.453 0 0 1-2.999.364Zm13.046 1.378a8.024 8.024 0 0 0-.388-.078 1.526 1.526 0 0 0-.465-.026c-.293-.052-.578-.199-.853-.442-.259-.243-.362-.494-.31-.754.051-.052.094-.191.129-.416.034-.209.051-.399.051-.573.07-.19.147-.468.233-.832.103-.78.37-2.072.802-3.876.448-1.821.732-2.792.853-2.913l-.026-.286a2.042 2.042 0 0 1 .258-.833c.07-.208.12-.407.155-.598.052-.208.078-.364.078-.468.034-.052.155-.364.362-.936l.258-.729c.104-.329.242-.719.414-1.17l.336-.885v-.13c.069-.086.259-.546.569-1.378.155-.347.301-.703.44-1.067.154-.381.31-.754.465-1.118.051-.104.129-.252.232-.443.104-.19.155-.32.155-.39.07-.138.242-.208.517-.208.224 0 .448.052.672.156.224.104.38.243.466.416l.594.417-.879 1.898c-.224.451-.43.894-.62 1.327-.172.416-.258.659-.258.728-.035.122-.112.373-.233.755-.12.381-.25.815-.388 1.3-.069.243-.241.755-.517 1.535-.12.295-.18.46-.18.494 0-.069.93-.139 2.791-.208.31-.017.879-.043 1.706-.078.845-.052 1.37-.104 1.577-.156l1.319-.182.62-2.315c.207-.85.543-2.046 1.008-3.59.224-.745.491-1.318.802-1.716.31-.417.577-.625.801-.625.431 0 .784.312 1.06.937.207.173.31.373.31.598 0 .225-.129.564-.388 1.014-.224.417-.491 1.11-.801 2.081a6.031 6.031 0 0 1-.259.807v.104c0 .329-.077.572-.232.728-.052.052-.164.295-.336.728-.155.434-.233.685-.233.755.017.121 0 .277-.052.468-.051.173-.112.295-.18.364-.018.069-.182.763-.492 2.081s-.62 2.376-.93 3.173c.017.087-.018.243-.104.469-.069.225-.103.381-.103.468-.259.832-.38 1.3-.362 1.404-.086.399-.25 1.119-.491 2.159a41.81 41.81 0 0 0-.233 1.067c-.017.035-.095.052-.233.052a2.43 2.43 0 0 1-.879-.182 1.656 1.656 0 0 1-.62-.572 1.264 1.264 0 0 1-.233-.729c0-.225.043-.425.13-.598.069-.121.198-.642.387-1.561l.259-1.118c.086-.278.18-.685.284-1.223.12-.555.207-.945.259-1.17.155-.902.258-1.379.31-1.431v-.26c-.052-.052-.362-.078-.93-.078-.587 0-1.276.035-2.069.104-.793.052-1.5.13-2.12.234l-.723.026a5.65 5.65 0 0 0-.698.026c-.173 0-.32.009-.44.026h-.233c-.069.156-.267.902-.594 2.237-.328 1.335-.517 2.194-.569 2.575a77.702 77.702 0 0 1-.543 2.549c-.19.919-.344 1.613-.465 2.081Zm20.728-1.092c-.81 0-1.473-.052-1.99-.156a2.957 2.957 0 0 1-1.344-.598c-.828-.625-1.241-1.553-1.241-2.784 0-.52.095-1.162.284-1.925.086-.45.181-.832.284-1.144.121-.33.224-.494.311-.494l.181-.963c.017-.104.051-.243.103-.416.052-.191.095-.329.129-.416a.693.693 0 0 1 .155-.234c.069-.052.173-.286.311-.703a1.652 1.652 0 0 1 .155-.65c.258-.433.387-.719.387-.858.018-.052.087-.156.207-.312.121-.156.216-.338.285-.547l.336-.598c.517-.919.887-1.587 1.111-2.003.224-.433.362-.789.414-1.066.052-.122.121-.338.207-.65.103-.313.215-.529.336-.651-.052-.104.12-.234.517-.39.413-.156.913-.303 1.499-.442a10.741 10.741 0 0 1 1.603-.26c.103-.07.336-.122.698-.156a12.73 12.73 0 0 1 1.215-.052c.31 0 .741.017 1.293.052.275 0 .508.034.698.104.206.052.387.121.542.208.156.069.268.121.336.156l.337.338c.206.173.31.356.31.546 0 .174-.112.321-.336.442-.052.052-.336.096-.853.131-.5.034-1.043.052-1.629.052-.62 0-1.301.078-2.042.234a3.273 3.273 0 0 1-.595.078 3.046 3.046 0 0 1-.775.13c-.293.017-.483.026-.569.026-.069 0-.31.329-.724.988-.396.659-.603 1.049-.62 1.171a.972.972 0 0 1-.155.494 14.46 14.46 0 0 1-.543.806c-.224.312-.336.607-.336.885 0 .173.051.277.155.312a30.192 30.192 0 0 1 1.99-.234c.793-.087 1.37-.13 1.732-.13.19-.052.345-.078.466-.078.241 0 .465.06.672.182.275.052.413.234.413.546a.774.774 0 0 1-.103.39c-.052.122-.121.2-.207.234-.155.156-.689.356-1.603.598-.896.243-1.835.469-2.817.677-.983.191-1.534.269-1.655.234-.052-.121-.103-.182-.155-.182-.172 0-.388.572-.646 1.717-.311.693-.5 1.153-.569 1.378-.069.208-.172.702-.31 1.483-.069.312-.104.529-.104.65 0 .676.397 1.197 1.189 1.561.293.052.595.078.905.078.569 0 1.258-.104 2.068-.312.069-.035.595-.33 1.577-.885.052 0 .181-.034.388-.104.224-.086.353-.13.388-.13.138-.191.31-.286.517-.286.052 0 .164.087.336.26.172.174.327.382.465.624.138.226.207.46.207.703 0 .173-.258.39-.775.65-.5.243-1.25.564-2.25.963-.723.312-1.232.511-1.525.598-.293.086-.706.13-1.241.13Zm22.483.884c-.172.07-.301.104-.387.104a.77.77 0 0 1-.414-.13c-.5 0-.853-.034-1.06-.104l.155.104c-.896-.173-1.766-.667-2.611-1.482-.827-.815-1.361-1.674-1.603-2.576a7.802 7.802 0 0 1-.103-.494c-.034-.208-.043-.355-.026-.442a1.36 1.36 0 0 1 .595-.91 1.778 1.778 0 0 1 1.085-.365c.156 0 .311.026.466.078.12.243.181.443.181.599 0 .104-.026.251-.078.442.259.884.741 1.578 1.448 2.081.706.503 1.516.754 2.43.754a4.01 4.01 0 0 0 2.094-.572 3.604 3.604 0 0 0 1.448-1.639c.068-.156.12-.338.155-.546.051-.225.103-.416.155-.572a.548.548 0 0 1 .103-.182c.017-.104.026-.269.026-.495 0-.589-.121-1.153-.362-1.69-.224-.538-.551-.893-.982-1.067a7.178 7.178 0 0 1-.698-.13c-.379-.104-.672-.156-.879-.156-.155 0-.267.009-.336.026l-.414-.156a6.942 6.942 0 0 1-.724-.884 1.79 1.79 0 0 1-.232-.885c0-.243.051-.503.155-.78.12 0 .275-.026.465-.078.207-.052.362-.078.465-.078.862 0 1.62-.217 2.275-.65a4.246 4.246 0 0 0 1.5-1.717 5.03 5.03 0 0 0 .543-2.315 7.19 7.19 0 0 0-.052-.677c-.362-.312-.827-.468-1.396-.468-.638 0-1.319.165-2.042.494-.707.313-1.241.685-1.603 1.119-.328-.017-.655-.13-.983-.338a2.652 2.652 0 0 1-.749-.833 1.56 1.56 0 0 1-.181-.988c.482-.624 1.12-1.101 1.913-1.431a6.448 6.448 0 0 1 2.559-.52c.879 0 1.698.165 2.456.494.776.33 1.396.815 1.861 1.457.483.642.724 1.413.724 2.315 0 .347-.034.685-.103 1.014-.155.781-.509 1.561-1.06 2.341-.552.763-1.172 1.379-1.862 1.847a4.508 4.508 0 0 1 1.862 1.951c.431.833.646 1.734.646 2.705 0 .763-.224 1.622-.672 2.576-.431.953-.931 1.69-1.499 2.211a1.696 1.696 0 0 1-.362.26 5.165 5.165 0 0 0-.388.234l-.336.234c-.724.329-1.336.563-1.836.702-.499.156-1.077.226-1.732.208Zm12.217-.312c-.448-.277-.784-.572-1.008-.884-.224-.295-.336-.581-.336-.859 0-.364.181-.659.543-.884a.637.637 0 0 1 .284-.052c.173 0 .354.035.543.104.207.052.362.13.465.234.449.416.983.624 1.603.624.276 0 .672-.06 1.189-.182.673-.208 1.198-.468 1.577-.78.397-.312.862-.798 1.396-1.457.328-.433.569-.867.724-1.3.172-.451.259-.859.259-1.223 0-.399-.095-.711-.285-.936-.344-.468-.732-.815-1.163-1.041-.414-.243-.905-.364-1.474-.364-.499 0-.991.069-1.473.208l-1.499.312a2.666 2.666 0 0 1-.285.052c-.103 0-.258.252-.465.755-.207.503-.56 1.456-1.06 2.861-.362 1.023-.664 1.76-.905 2.211-.241.433-.457.65-.646.65-.207 0-.431-.191-.672-.572-.052-.087-.164-.26-.336-.52-.155-.26-.233-.512-.233-.755 0-.121.043-.268.129-.442.086-.156.155-.312.207-.468.069-.156.138-.373.207-.65.224-.677.87-2.359 1.939-5.047 1.086-2.687 1.93-4.716 2.533-6.086.431-.989.56-1.509.388-1.561a.599.599 0 0 0-.078-.234c-.051-.104-.069-.182-.051-.234 0-.104.301-.26.904-.468.621-.208 1.043-.295 1.267-.26h.155c.224 0 .336-.044.336-.131.035 0 .19-.017.466-.052a4.25 4.25 0 0 1 .93 0c1.224.105 2.189.46 2.896 1.067.706.59 1.051 1.465 1.034 2.627-.035.451-.285 1.067-.75 1.847s-.974 1.422-1.525 1.925c-.276.243-.595.503-.957.78-.344.26-.568.425-.672.494l.646.234c.81.313 1.44.694 1.888 1.145.448.451.767 1.066.956 1.847.035.173.052.329.052.468 0 .381-.069.815-.207 1.301-.121.485-.258.91-.414 1.274a1.62 1.62 0 0 0-.258.338c-.069.122-.112.2-.129.234-.018.07-.173.339-.466.807a13.32 13.32 0 0 1-.775 1.092c-1.138.971-2.077 1.596-2.818 1.873-.724.33-1.586.494-2.585.494-.896 0-1.56-.138-1.991-.416Zm1.862-10.795 1.034-.208c.517-.121.887-.225 1.111-.312l.31-.156c.19-.104.38-.251.569-.442 1.086-1.023 1.844-1.942 2.275-2.757.431-.711.646-1.214.646-1.509 0-.208-.094-.408-.284-.598-.327-.382-.87-.573-1.629-.573-.327 0-.603.035-.827.104-.241.07-.422.157-.543.261-.103.086-.155.225-.155.416 0 .138-.043.295-.129.468a1.753 1.753 0 0 1-.284.39.666.666 0 0 1-.156.312c-.069.104-.12.174-.155.208 0 .035-.12.269-.362.703-.224.433-.439.919-.646 1.456-.517 1.232-.775 1.977-.775 2.237Zm18.768-9.104a3.02 3.02 0 0 1 1.629.468c.517.295.922.72 1.215 1.275.31.538.465 1.153.465 1.847 0 .971-.06 2.246-.181 3.824a79.575 79.575 0 0 1-.465 4.448c-.207 1.456-.388 3.329-.543 5.618-.104 1.214-.19 2.046-.259 2.497-.051.468-.155.737-.31.806l.026.053c0 .069-.06.13-.181.182a1.108 1.108 0 0 1-.439.078c-.311 0-.621-.061-.931-.182-.31-.122-.465-.382-.465-.781 0-.225.043-.771.129-1.639.189-1.63.301-2.965.336-4.005l.155-1.145h-.646c-.293.087-.716.13-1.267.13l-1.629-.026c-.465 0-.784.018-.956.052a.493.493 0 0 0-.362.208c-.086.104-.19.321-.31.651-.086.277-.267.702-.543 1.274-.603 1.474-1.138 2.523-1.603 3.148-.465.624-.922.936-1.37.936-.121 0-.319-.052-.595-.156-.258-.104-.387-.243-.387-.416 0-.243.181-.746.542-1.509.38-.763.664-1.274.854-1.535.017 0 .017-.008 0-.026a.348.348 0 0 1-.026-.156c0-.381.224-1.014.672-1.899.069-.208.138-.407.207-.598.086-.208.129-.338.129-.39l.491-.962c0-.104.06-.321.181-.651.138-.346.302-.719.491-1.118 0-.26.052-.512.155-.755a6.35 6.35 0 0 1 .414-.832c.19-.347.284-.572.284-.676 0-.035.018-.113.052-.234a14.1 14.1 0 0 1 .284-.599c-.034 0-.051-.008-.051-.026 0-.017.069-.112.207-.286 0-.156.06-.329.18-.52.138-.208.362-.78.673-1.717l.517-1.118c.137-.226.318-.65.542-1.275l.207-.546.207-.572c.052-.07.129-.2.233-.39.103-.191.267-.347.491-.469.224-.121.526-.19.905-.208a2.64 2.64 0 0 1 .646-.078Zm.543 9.937c0-.191.06-.893.181-2.107.241-2.497.37-4.032.388-4.604 0-.26-.009-.408-.026-.443 0-.156-.138-.303-.414-.442-.276-.138-.474-.208-.594-.208-.156 0-.285.087-.388.26-.104.174-.207.39-.31.651a7.145 7.145 0 0 0-.207.52l-.233.598c-.293.728-.638 1.621-1.034 2.679-.396 1.041-.62 1.665-.672 1.873-.103.104-.284.434-.543.989-.241.537-.362.875-.362 1.014 0 .434.216.65.646.65.069 0 .207-.008.414-.026.224-.034.465-.095.724-.182h.362c.276 0 .551-.043.827-.13.448-.069.741-.121.879-.156.155-.035.25-.113.284-.234.052-.121.078-.356.078-.702Zm10.449 9.182c-.069.069-.138.104-.207.104-.086 0-.233-.052-.439-.156a1.606 1.606 0 0 1-.776-.442 1.002 1.002 0 0 1-.31-.729c0-.069.034-.208.103-.416.155-.295.552-1.743 1.189-4.344l.44-1.717c0-.017.034-.286.103-.806.052-.26.13-.737.233-1.431.207-.399.345-.832.414-1.3.086-.486.137-.763.155-.833.12-.485.206-.789.258-.91l.233-.91.155-.599c.121-.433.181-.711.181-.832v-.416h-.957l-.413.026c-.276 0-.491-.009-.646-.026l-.905-.026c-.81-.035-1.353-.113-1.629-.234-.276-.139-.422-.399-.439-.781-.069-.347.103-.615.517-.806.413-.208 1.258-.295 2.533-.26.241-.018.569-.026.982-.026.414 0 .75.008 1.009.026.258.017.405.026.439.026a.605.605 0 0 0 .129-.208c.035-.087.061-.156.078-.208 0-.295.095-.477.284-.547.104-.225.319-.338.647-.338.189 0 .379.044.568.13.19.087.336.208.44.364.034.087.051.243.051.469 0 .225.052.39.156.494.068-.069.293-.113.672-.13.379-.017.646-.035.801-.052.328 0 .664-.009 1.008-.026.345-.035.578-.052.698-.052.155-.087.397-.13.724-.13.155 0 .371.017.646.052.345 0 .595.078.75.234.155.139.293.303.414.494 0 .191.043.33.129.416.069.052.103.104.103.156 0 .035-.034.113-.103.234-.121.157-.431.235-.931.235l-.543.026c-.379.034-.654.052-.827.052-.758.156-1.637.251-2.637.286-.706 0-1.06.069-1.06.208-.103 0-.301.563-.594 1.691-.104.416-.216.797-.336 1.144-.104.33-.19.555-.259.676.052.07.078.148.078.234 0 .087-.052.278-.155.573-.052.19-.112.381-.181.572a1.204 1.204 0 0 0-.104.416c-.017.07-.069.243-.155.52-.069.26-.129.555-.181.885-.086.832-.198 1.318-.336 1.456a2.5 2.5 0 0 1-.129.209.743.743 0 0 0-.078.338c0 .242-.06.676-.181 1.3-.12.607-.215.937-.284.989.052 0 .078.052.078.156 0 .121-.052.303-.155.546 0 .139-.026.303-.078.494a1.837 1.837 0 0 0-.078.39 38 38 0 0 1-.723 1.847c-.311.746-.5 1.153-.569 1.223Zm24.365-18.989c.379-.034.689.087.931.364.258.278.388.599.388.963 0 .156-.026.303-.078.442-.224.451-.724 1.674-1.499 3.668a718.047 718.047 0 0 0-2.249 5.8l-1.862 5.411c-.086.242-.267.693-.543 1.352a4.18 4.18 0 0 0-.465 1.353 1.673 1.673 0 0 1-.414.728c-.189.208-.387.312-.594.312a.417.417 0 0 1-.259-.078c-.792-.294-1.189-.763-1.189-1.404 0-.052.017-.165.052-.338-.035.225.207-.304.724-1.587.534-1.301.965-2.393 1.292-3.278 1.276-3.208 1.913-4.872 1.913-4.994.207-.537.345-.919.414-1.144.207-.677.414-1.214.62-1.613l.44-1.171-9.126 10.613c-.12.104-.456.408-1.008.911-.465.468-.827.797-1.086.988-.12.087-.327.243-.62.468a7.043 7.043 0 0 1-.75.546c-.224.157-.405.235-.543.235-.982-.174-1.473-.573-1.473-1.197 0-.277.069-.59.207-.936.138-.365.224-.599.258-.703.207-.659.336-1.188.388-1.586a44.46 44.46 0 0 1 .801-2.81c.035-.138.121-.459.259-.962.155-.52.25-.997.284-1.431.241-.468.569-1.231.983-2.289l.361-.936c.069-.139.224-.564.466-1.275.155-.537.319-.988.491-1.352l.258-.495c.328-.641.578-1.161.75-1.56.19-.416.293-.763.31-1.041 0-.225.078-.39.233-.494a.897.897 0 0 1 .569-.182c.293 0 .56.087.801.26.241.156.397.364.465.624.069.191.104.408.104.651 0 .225-.035.433-.104.624l-2.145 5.488-2.353 6.243-.62 1.561 5.222-5.254a20.166 20.166 0 0 0 1.654-1.951c.448-.59.879-1.11 1.293-1.561.414-.451.922-.98 1.525-1.587l.595-.624 3.283-3.512c.224-.173.439-.26.646-.26Zm-7.781 18.547v.026-.026Zm18.2.364a2.192 2.192 0 0 1-.543.104.908.908 0 0 1-.75-.364c-.189-.243-.284-.607-.284-1.093 0-.694.207-1.595.62-2.705l.285-.858c.861-2.532 1.421-3.989 1.68-4.37.086-.209.129-.425.129-.651 0-.086.043-.216.13-.39l.206-.416c.207-.382.311-.668.311-.858 0-.07.103-.417.31-1.041.207-.642.413-1.127.62-1.457.104-.26.224-.511.362-.754.138-.26.207-.425.207-.494 0-.035-.19-.052-.569-.052-.534 0-1.198.026-1.99.078-.776.052-1.293.113-1.551.182-.362.087-.578.121-.647.104-.086-.035-.215-.199-.388-.494-.172-.312-.258-.59-.258-.833 0-.208.069-.346.207-.416.276-.173.551-.286.827-.338.293-.052.698-.095 1.215-.13.534-.035.905-.069 1.112-.104.362 0 .698-.017 1.008-.052.327-.052.517-.078.569-.078.137 0 .31-.026.517-.078.482-.087.81-.13.982-.13.241 0 .483-.026.724-.078.276-.035.457-.052.543-.052h1.602c.224 0 .535-.035.931-.104.396-.07.75-.139 1.06-.208a5.857 5.857 0 0 1 1.267-.156c.448 0 .818.086 1.111.26.293.156.474.39.543.702.155.867-1.146 1.379-3.903 1.535-.155.017-.457.043-.905.078-.431.034-.715.078-.853.13-.121.052-.181.13-.181.234 0 .104-.052.208-.155.312a1.52 1.52 0 0 0-.181.208c-.138.052-.371.486-.698 1.301-.328.797-.491 1.292-.491 1.482l-.104.208a.6.6 0 0 0-.077.235c-.121.312-.311.711-.569 1.196a114.94 114.94 0 0 1-.982 2.549l-.285.703c-.379 1.265-.655 2.124-.827 2.575a.908.908 0 0 1-.207.234.387.387 0 0 0-.103.286c0 .087-.25.78-.75 2.081-.5 1.3-.776 1.959-.827 1.977Zm15.33.286c-.81 0-1.473-.052-1.99-.156a2.965 2.965 0 0 1-1.345-.598c-.827-.625-1.24-1.553-1.24-2.784 0-.52.094-1.162.284-1.925.086-.45.181-.832.284-1.144.121-.33.224-.494.31-.494l.181-.963a3.71 3.71 0 0 1 .104-.416c.052-.191.095-.329.129-.416a.693.693 0 0 1 .155-.234c.069-.052.173-.286.31-.703 0-.034.009-.112.026-.234.018-.121.061-.26.13-.416.258-.433.387-.719.387-.858.018-.052.086-.156.207-.312s.216-.338.284-.547l.337-.598c.517-.919.887-1.587 1.111-2.003.224-.433.362-.789.414-1.066.051-.122.12-.338.207-.65.103-.313.215-.529.336-.651-.052-.104.12-.234.517-.39.413-.156.913-.303 1.499-.442a10.741 10.741 0 0 1 1.603-.26c.103-.07.336-.122.698-.156a12.73 12.73 0 0 1 1.215-.052c.31 0 .741.017 1.292.052.276 0 .509.034.698.104.207.052.388.121.543.208.155.069.267.121.336.156l.336.338c.207.173.311.356.311.546 0 .174-.112.321-.336.442-.052.052-.337.096-.854.131-.499.034-1.042.052-1.628.052-.621 0-1.301.078-2.042.234a3.273 3.273 0 0 1-.595.078 3.046 3.046 0 0 1-.776.13c-.293.017-.482.026-.568.026-.069 0-.311.329-.724.988-.397.659-.603 1.049-.621 1.171a.962.962 0 0 1-.155.494c-.103.173-.284.442-.543.806-.224.312-.336.607-.336.885 0 .173.052.277.155.312a30.313 30.313 0 0 1 1.991-.234c.793-.087 1.37-.13 1.732-.13.19-.052.345-.078.465-.078.242 0 .466.06.673.182.275.052.413.234.413.546a.774.774 0 0 1-.103.39c-.052.122-.121.2-.207.234-.155.156-.689.356-1.603.598a51.5 51.5 0 0 1-2.818.677c-.982.191-1.533.269-1.654.234-.052-.121-.104-.182-.155-.182-.173 0-.388.572-.646 1.717-.311.693-.5 1.153-.569 1.378-.069.208-.173.702-.31 1.483-.069.312-.104.529-.104.65 0 .676.397 1.197 1.189 1.561.293.052.595.078.905.078.569 0 1.258-.104 2.068-.312.069-.035.595-.33 1.577-.885.052 0 .181-.034.388-.104.224-.086.353-.13.388-.13.138-.191.31-.286.517-.286.051 0 .163.087.336.26.172.174.327.382.465.624.138.226.207.46.207.703 0 .173-.259.39-.776.65-.499.243-1.249.564-2.249.963-.724.312-1.232.511-1.525.598-.293.086-.707.13-1.241.13Zm25.813-16.7c.017.07.026.191.026.365 0 .693-.371 2.393-1.112 5.098l-.284 1.118-.336 1.405a11.899 11.899 0 0 1-.44 1.977 69.68 69.68 0 0 1-.878 2.627 34.708 34.708 0 0 0-.724 2.211c-.052.087-.13.269-.233.546-.103.278-.224.477-.362.599-.327.294-.638.442-.931.442-.103 0-.224-.026-.361-.078-.293-.122-.517-.269-.673-.443a.873.873 0 0 1-.206-.598c0-.121.008-.217.025-.286.069-.121.293-.685.673-1.691.379-1.005.655-1.768.827-2.289.103-.589.233-1.162.388-1.716.155-.555.301-.954.439-1.197l.233-1.197c.051-.26.138-.702.258-1.326.138-.624.267-1.11.388-1.457l.905-4.136c-1.637.07-2.482.13-2.534.182-.017.191-.224.755-.62 1.691-.379.937-.672 1.613-.879 2.029a18.97 18.97 0 0 0-.517 1.067c-.138.294-.25.537-.336.728l-.31.728c-.155.486-.552 1.344-1.189 2.575-.638 1.232-1.198 2.229-1.681 2.992-.637.919-1.37 1.89-2.197 2.913a7.965 7.965 0 0 1-1.06 1.119c-.396.381-.715.624-.957.728a1.09 1.09 0 0 1-.491.13c-.379 0-.724-.156-1.034-.468-.293-.295-.448-.668-.465-1.119.086-.225.215-.399.388-.52.189-.139.396-.208.62-.208.017 0 .241-.217.672-.65.431-.451.707-.746.827-.885.449-.503 1.052-1.274 1.81-2.315.396-.572.965-1.448 1.706-2.627l.466-.65 1.189-3.278 1.499-3.329a7.408 7.408 0 0 0-.827.39c-1.12.538-1.913.806-2.378.806-.293 0-.509-.095-.647-.286a1.467 1.467 0 0 1-.284-.884c0-.295.077-.564.233-.807.155-.26.353-.433.594-.52l2.947-1.066c.983-.278 1.758-.529 2.327-.755.293-.017.715-.06 1.267-.13.551-.086.904-.156 1.059-.208 1.672-.052 2.732.833 3.18 2.653Zm6.494 16.492c-.586-.139-1.267-.39-2.042-.755-.776-.346-1.189-.633-1.241-.858a.25.25 0 0 0-.103-.208.323.323 0 0 0-.233-.104v-.39c0-.122-.035-.2-.104-.234-.086-.174-.129-.425-.129-.755 0-.537.086-1.214.259-2.029.189-.815.396-1.543.62-2.185 0-.121.026-.277.078-.468.069-.191.103-.312.103-.364.138-.399.414-1.032.827-1.899.414-.867.759-1.474 1.034-1.821 0-.052.061-.164.181-.338a1.78 1.78 0 0 0 .285-.572c.275-.277.646-.815 1.111-1.613.604-.503.853-.953.75-1.352.017-.364.164-.625.439-.781.293-.173.81-.347 1.552-.52a6.791 6.791 0 0 1 1.654-.416c.569-.087 1.318-.147 2.249-.182a4.473 4.473 0 0 1 .879-.13c.052-.052.31-.026.776.078.482.087.913.234 1.292.442.397.191.586.408.569.65-.017.139-.405.321-1.163.547-.741.208-1.422.346-2.043.416l-.646.078c-1 .104-1.723.217-2.171.338a2.822 2.822 0 0 0-1.19.624c-.362.312-.775.833-1.24 1.561-.621.971-.931 1.63-.931 1.977 0 .225.121.338.362.338.155 0 .388-.017.698-.052.327-.052.56-.078.698-.078.086-.035.284-.104.594-.208.328-.104.69-.182 1.086-.234l1.138-.234c.344-.087.603-.131.775-.131.603 0 .905.209.905.625 0 .225-.112.468-.336.728a1.97 1.97 0 0 1-.827.598 15.1 15.1 0 0 1-1.06.365c-.397.121-.647.182-.75.182a1.097 1.097 0 0 1-.259.052c-.12.017-.275.026-.465.026l-1.163.156-.853.104a68.65 68.65 0 0 0-.983.26c-.517.139-.853.295-1.008.468-.155.156-.301.416-.439.78a9.069 9.069 0 0 0-.543 1.847c-.138.711-.207 1.335-.207 1.873s.078.884.233 1.041c.379.433.973.65 1.783.65.431 0 .871-.061 1.319-.182.465-.139.87-.321 1.215-.547.327-.26.689-.459 1.086-.598.155-.104.284-.156.387-.156.087 0 .181.035.285.104.103.052.198.113.284.182.104.07.19.13.259.182.138.191.206.391.206.599 0 .572-.723 1.161-2.171 1.768-.81.278-1.456.477-1.939.599a5.461 5.461 0 0 1-1.318.182l-.414-.026Zm23.628.182c-.069.069-.25.104-.543.104-.38 0-.733-.095-1.06-.286-.31-.174-.466-.477-.466-.911 0-.242.061-.511.181-.806.586-1.526 1.396-3.85 2.43-6.971a51.75 51.75 0 0 1 .673-2.055c0 .035.189-.564.568-1.795.276-.815.483-1.491.621-2.029.155-.555.275-1.127.362-1.716a3.496 3.496 0 0 0-.75-.079h-.465c-.311 0-.543-.017-.698-.052-.173-.034-.466-.052-.879-.052a17.085 17.085 0 0 0-1.655.078c-.138.018-.301.035-.491.052a6.59 6.59 0 0 1-.62.027l-.207.104-.388.936c-.086.208-.198.468-.336.78s-.284.677-.44 1.093a8.94 8.94 0 0 1-.31.702l-.232.52-.336.677-.388.988-.414.989c-.189.45-.413.962-.672 1.534-.414.971-.715 1.7-.905 2.185-.637 1.665-1.103 2.983-1.396 3.954-.034.121-.086.338-.155.65s-.146.546-.233.703a.916.916 0 0 1-.413.468 1.129 1.129 0 0 1-.595.156c-.293 0-.551-.061-.775-.182-.259-.139-.448-.278-.569-.416a.765.765 0 0 1-.181-.521c0-.173.035-.364.103-.572.81-2.688 1.732-5.09 2.767-7.205.137-.278.284-.607.439-.989.155-.381.267-.667.336-.858.328-.902.586-1.526.776-1.873a23.196 23.196 0 0 0 1.447-3.407c-.086.069-.232.104-.439.104-.155 0-.362-.018-.621-.052a2.87 2.87 0 0 0-.568-.078 1.944 1.944 0 0 1-.492-.651 2.267 2.267 0 0 1-.18-.858c0-.243.051-.451.155-.624.086-.156.172-.26.258-.312a.679.679 0 0 1 .388-.104h1.99c.156 0 .319-.07.492-.209a1.9 1.9 0 0 1 .181-.13.732.732 0 0 1 .413-.104c.069 0 .19.018.362.052.259.087.552.13.879.13.276 0 .646-.043 1.112-.13.275-.069.655-.104 1.137-.104l.982.026c.19.018.44.026.75.026.121 0 .267.018.44.052.189.035.344.061.465.078.138.018.379.026.724.026.586.018 1.086.061 1.499.13.414.052.733.165.957.339.155.121.301.286.439.494.138.191.207.364.207.52 0 .139-.276 1.171-.827 3.095-.535 1.908-.862 2.983-.983 3.226-.327.85-.81 2.298-1.447 4.344l-.828 2.549c-.086.243-.18.538-.284.884-.207.642-.439 1.31-.698 2.003-.241.694-.439 1.145-.594 1.353Zm8.482-.26a3.138 3.138 0 0 1-1.241-.39c-.414-.226-.793-.46-1.138-.703-.344-.243-.577-.407-.698-.494a3.375 3.375 0 0 1-.672-.936c-.155-.347-.284-.798-.388-1.353a3.44 3.44 0 0 1-.051-.546c0-.52.086-1.153.258-1.899.19-.763.379-1.353.569-1.769.379-.919 1.215-2.393 2.507-4.422l.13-.13c.034-.035.043-.052.026-.052v-.026c0-.121.249-.659.749-1.613.293-.312.44-.581.44-.806a.467.467 0 0 0-.078-.286c-.051-.07.017-.217.207-.442.19-.243.448-.503.776-.781a6.44 6.44 0 0 1 1.085-.754c.466-.364.922-.546 1.37-.546.138 0 .25.026.336.078.104.034.164.095.181.182 0 .104.345.069 1.035-.104.31-.07.534-.113.672-.13.069-.087.241-.156.517-.208.293-.07.698-.139 1.215-.208.275.017.611.017 1.008 0 .413-.018.681-.035.801-.052.121-.035.293.043.517.234.242.19.431.433.569.728a.814.814 0 0 1 .052.234c0 .26-.164.486-.491.676-.328.174-.802.295-1.422.365-.638.086-1.198.173-1.681.26-.482.086-1.085.208-1.809.364l-.543.104c-.534.087-.931.199-1.189.338-.259.139-.535.442-.827.91-.121.087-.276.313-.466.677-.189.347-.379.711-.569 1.092l-.517.703c-.396.537-.646.893-.749 1.066-.086.156-.104.269-.052.338.069.017.19.043.362.078.19.035.345.061.465.078.155-.086.371-.147.647-.182.275-.035.474-.069.594-.104l.569-.156c1.068-.277 1.853-.477 2.352-.598.5-.122.871-.2 1.112-.234a.476.476 0 0 1 .31-.104c.19 0 .371.095.543.286.19.173.327.381.414.624.069.243.103.399.103.468 0 .295-.172.52-.517.677-.345.138-1.034.329-2.068.572-1.499.364-2.439.598-2.818.702-1.12.33-1.947.494-2.482.494-.448 0-.663-.147-.646-.442-.155-.087-.336.069-.543.468-.207.399-.388.893-.543 1.483-.137.59-.206 1.101-.206 1.535 0 .225.025.416.077.572.155.416.388.772.698 1.066.31.278.741.495 1.293.651a7.298 7.298 0 0 0 1.085.078c.345 0 .69-.07 1.034-.208 1.345-.226 2.293-.538 2.844-.937a.566.566 0 0 0 .233-.182c.086-.087.164-.13.232-.13l-.025.052c0 .017.051-.017.155-.104.103-.104.215-.208.336-.312.482-.416 1.017-.624 1.603-.624.206 0 .379.034.517.104.155.052.241.104.258.156.104.173.052.451-.155.832-.207.382-.534.78-.982 1.197-.431.416-.914.78-1.448 1.092-.845.451-1.792.78-2.844.989a15.447 15.447 0 0 1-2.998.364Zm24.523-14.905c-.034.902-.138 1.561-.31 1.977-.172.416-.414.633-.724.65a37.031 37.031 0 0 0-.569-.104 2.82 2.82 0 0 1-.853-.364c-.258-.173-.387-.407-.387-.702 0-.122.06-.408.18-.859.19-.763.285-1.231.285-1.404 0-.538-.233-.885-.698-1.041-.534 0-1.215.416-2.042 1.249-.828.832-1.646 1.864-2.456 3.095s-1.448 2.402-1.913 3.512c-.845 2.445-1.319 4.092-1.422 4.942.034.139.052.338.052.598 0 .122-.026.182-.078.182.052.382.207.763.465 1.145.276.364.595.546.957.546s.801-.061 1.318-.182c.535-.139.922-.295 1.164-.468.137 0 .353-.061.646-.182.31-.139.517-.234.62-.286a14.82 14.82 0 0 1 1.345-.547 2.843 2.843 0 0 1 1.008-.208c.12 0 .353.035.698.104-.017.07-.043.208-.078.416a4.309 4.309 0 0 1-.155.599c-.293.416-.56.711-.801.884-.224.174-.543.356-.957.546-.327.122-.62.269-.879.443-1.241.763-2.473 1.144-3.696 1.144-.552 0-1.155-.121-1.81-.364-.638-.226-1.163-.512-1.577-.858-.138-.226-.319-.694-.543-1.405-.224-.711-.336-1.162-.336-1.353 0-.052.017-.13.052-.234a.84.84 0 0 0 .051-.234v-.26a.999.999 0 0 1-.051-.312c.017-.538.232-1.422.646-2.653.431-1.249 1-2.645 1.706-4.188.431-.937 1.052-1.977 1.862-3.122a24.503 24.503 0 0 1 2.559-3.069c.896-.884 1.637-1.439 2.223-1.665.362-.121.655-.182.879-.182.62 0 1.206.156 1.758.468.551.295.999.763 1.344 1.405.345.624.517 1.405.517 2.341Zm-.943 16.127c-.362 0-.62-.147-.775-.442a.56.56 0 0 1 .103-.312c.069-.104.164-.208.285-.312.413-.399.87-1.075 1.37-2.029.086-.26.224-.772.413-1.535 0-.347.043-.563.13-.65.31-.26.551-.39.723-.39.397 0 .673.468.828 1.404.034.243.051.417.051.521 0 .45-.163 1.005-.491 1.664-.069.174-.31.503-.724.989-.396.485-.629.728-.698.728-.069 0-.146.035-.232.104-.086.07-.138.113-.155.13-.052.052-.155.087-.311.104a4.519 4.519 0 0 1-.517.026ZM36.517 165.751a1.854 1.854 0 0 1-.414-.286.525.525 0 0 1-.103-.338c0-.173.069-.416.207-.728.155-.33.413-.841.775-1.535.104-.225.302-.624.595-1.196.741-1.422 1.111-2.471 1.111-3.148a.36.36 0 0 1-.025-.156c0-.173.138-.329.413-.468a9.55 9.55 0 0 1 .543-.442c.328-.243.586-.52.776-.833.224-.52.508-1.092.853-1.716.345-.642.94-1.682 1.784-3.122a32.709 32.709 0 0 1 2.636-4.136c.173-.242.362-.433.57-.572.223-.139.413-.208.568-.208.534 0 1.077.208 1.629.624.568.417.939.833 1.111 1.249.069.121.104.381.104.78 0 .538-.06 1.448-.181 2.731-.035.226-.07.581-.104 1.067a50.07 50.07 0 0 1-.233 2.497c-.19 1.942-.327 3.46-.413 4.552a39.215 39.215 0 0 0-.13 3.069c0 .486.01.841.026 1.067v.182l-.025.598c-.104.104-.31.156-.62.156-.346 0-.69-.06-1.035-.182-.345-.104-.534-.234-.569-.39a.302.302 0 0 0-.077-.052c-.035-.017-.052-.095-.052-.234l.026-.572.078-1.457.129-3.98-.336.026c-.345 0-1.077.07-2.198.208-1.103.139-1.8.252-2.094.339-.155 0-.344.104-.568.312a2.96 2.96 0 0 0-.595.806c-.052.173-.172.425-.362.754-.19.312-.284.495-.284.547a1.1 1.1 0 0 0-.285.286 2.479 2.479 0 0 0-.129.208c0 .191-.172.685-.517 1.482-.327.781-.655 1.422-.982 1.925l-.698.989-.905-.703Zm6.178-8.948.724-.104c.362-.069.681-.112.957-.13.827-.208 1.396-.312 1.706-.312.172 0 .293.018.362.052.052.07.103.122.155.156a.707.707 0 0 0 .13.026c.034-.138.172-1.083.413-2.835.241-1.751.362-2.827.362-3.225a8.03 8.03 0 0 0-.026-.703 2.313 2.313 0 0 0-.052-.39c-.155 0-.508.416-1.06 1.249a24.08 24.08 0 0 0-1.602 2.783c-.397.711-.672 1.066-.828 1.066-.12.122-.379.529-.775 1.223-.397.694-.552 1.075-.465 1.144Zm16.104 9.026a4.545 4.545 0 0 1-.776-.754c-.206-.277-.31-.529-.31-.754 0-.33.285-.564.853-.703 1.776-.433 3.766-2.176 5.972-5.228-.758-.416-1.327-.85-1.706-1.3-.38-.469-.655-1.11-.827-1.925a5.024 5.024 0 0 1-.13-1.041c.087-.121.13-.303.13-.546.017-.243.043-.416.077-.52l.569-1.691c.569-1.647 2.154-2.922 4.756-3.824.845-.346 1.465-.494 1.862-.442l.336-.026c.155-.052.31-.078.465-.078.12 0 .207.009.259.026a.791.791 0 0 1 .232-.026c.293 0 .62.095.983.286.379.174.698.399.956.677.276.277.414.554.414.832a.68.68 0 0 1-.026.208 45.07 45.07 0 0 1-.336.962c-.276.867-.5 1.509-.672 1.925-.466 1.145-1.008 2.775-1.629 4.89-.603 2.116-.948 3.659-1.034 4.631-.138.381-.258 1.014-.362 1.898-.017.156-.052.382-.103.677a5.17 5.17 0 0 1-.13.728c-.051.225-.206.425-.465.598-.258.174-.517.26-.775.26a.796.796 0 0 1-.362-.078 2.423 2.423 0 0 1-.543-.39c-.19-.173-.37-.347-.543-.52.052-.191.112-.477.18-.858.07-.469.165-.85.285-1.145.035-.364.112-.858.233-1.483a4.44 4.44 0 0 0 .103-.546c.104-.555.207-.962.31-1.222l.052-.417c-.241.399-.904 1.206-1.99 2.419a27.51 27.51 0 0 1-3.438 3.252c-1.19.936-2.146 1.353-2.87 1.248Zm8.867-9.338c.81-2.583 1.5-4.881 2.068-6.893a6.788 6.788 0 0 0-2.326.703 5.877 5.877 0 0 0-1.913 1.508 3.92 3.92 0 0 0-.905 2.107 2.928 2.928 0 0 1-.13.624.754.754 0 0 0-.077.339c0 .346.138.685.413 1.014.293.33.595.494.905.494.207 0 .423-.069.647-.208.224-.139.353-.217.387-.234l.931.546Zm20.348-6.997a.523.523 0 0 1-.13.468c-.103.122-.344.287-.724.495-.775.381-1.215.667-1.318.858a19.7 19.7 0 0 1-.594.442c-.294.226-.664.503-1.112.833-.672.45-1.258.875-1.758 1.274-.483.399-.801.702-.957.911a.44.44 0 0 0-.206.078c-.07.052-.13.069-.181.052a2.343 2.343 0 0 0-.233.156c-.12.086-.207.164-.258.234a1.373 1.373 0 0 1-.259.416.423.423 0 0 1-.388.156c-.258.139-.706.46-1.344.962.155 1.214.483 2.281.982 3.2.5 1.11 1.009 1.925 1.526 2.445a6.8 6.8 0 0 0 1.008.936c.327.226.577.339.75.339.155.052.37.173.646.364.276.19.422.347.44.468.017.035.025.139.025.312 0 .225-.043.451-.13.676a.92.92 0 0 1-.387.547.644.644 0 0 1-.465.208c-.173 0-.457-.087-.853-.26-.276.017-.75-.243-1.422-.781-.672-.537-1.19-1.032-1.551-1.482a48.077 48.077 0 0 1-1.215-1.847 7.096 7.096 0 0 1-.75-1.821 10.252 10.252 0 0 0-.414-1.405 8.334 8.334 0 0 1-.18-.624l-.078.208a45.6 45.6 0 0 1-.336.859c-.19.52-.465 1.439-.827 2.757-.31 1.023-.586 1.899-.828 2.627-.24.711-.44 1.188-.594 1.431-.138.26-.276.39-.414.39-.138 0-.31-.078-.517-.234-.551-.313-.827-.659-.827-1.041 0-.069.017-.173.052-.312-.018-.225 0-.442.051-.65.052-.208.078-.33.078-.364.12 0 .18-.139.18-.417 0-.138.078-.442.234-.91l.232-.806.31-.755c.19-.485.285-.745.285-.78 0-.225.112-.512.336-.858.069-.209.13-.434.18-.677a2.99 2.99 0 0 0 .078-.598c.035-.087.13-.286.285-.598.155-.312.267-.625.336-.937.017-.086.043-.182.077-.286.052-.104.104-.234.155-.39l.853-2.341.388-.884c.035-.087.147-.356.336-.807.207-.451.345-.676.414-.676v-.286c0-.07.095-.295.284-.677l.31-.624a3.15 3.15 0 0 0 .31-.65 5.21 5.21 0 0 0 .156-.442c.017-.035.052-.096.103-.182a1.19 1.19 0 0 1 .181-.234 1.8 1.8 0 0 1 .517-.261c.224-.086.422-.13.595-.13.293 0 .491.113.594.339.207.416.31.763.31 1.04a.92.92 0 0 1-.154.52 111.4 111.4 0 0 0-1.293 2.783c-.5 1.093-.87 1.96-1.112 2.602l.181-.13c.448-.451 1.164-1.05 2.146-1.795l3.18-2.601c.482-.243 1.05-.625 1.706-1.145.172-.104.31-.199.413-.286.104-.087.19-.147.259-.182.103-.087.31-.234.62-.442.31-.226.509-.33.595-.312.12-.052.276.017.465.208.19.19.345.424.466.702.138.277.198.485.18.624Zm23.111 0c0 .226-.061.52-.181.885a14.44 14.44 0 0 0-.414 1.664 8.636 8.636 0 0 0-.129 1.301l.026.26c-.104.225-.19.572-.259 1.041a6.066 6.066 0 0 1-.103.572.425.425 0 0 1-.181.26c0 .069.008.182.026.338.034.156.051.286.051.39v.312c-.327 1.891-.491 3.564-.491 5.021 0 .763.052 1.361.155 1.794.121.434.276.668.466.703.034 0 .06.008.077.026.017.017.026.06.026.13 0 .225-.06.433-.181.624a2.755 2.755 0 0 1-.362.52 4.716 4.716 0 0 1-.31.364 6.135 6.135 0 0 1-.129.183c-.035.069-.095.104-.181.104-.121 0-.336-.044-.647-.131-.051-.104-.215-.234-.491-.39-.276-.138-.5-.433-.672-.884-.172-.451-.258-1.214-.258-2.289 0-.295.008-.529.025-.702v-.078a2.65 2.65 0 0 1-.025-.443c0-.797.086-1.803.258-3.017.19-1.231.388-2.341.595-3.329.138-.59.319-1.318.543-2.185.224-.902.336-1.388.336-1.457l-.026-.026c.034.052-.345.754-1.138 2.107-.792 1.335-1.275 2.124-1.447 2.367-.087.121-.25.433-.492.936l-.723 1.509c-1.414 2.116-2.499 3.173-3.258 3.173-.723 0-1.197-.26-1.421-.78-.207-.52-.32-.98-.337-1.379a25.884 25.884 0 0 1-.025-.728 3.85 3.85 0 0 0 .051-.676v-.286c0-.052.018-.191.052-.416.052-.243.095-.512.129-.807 0-.104.086-.641.259-1.613.241-1.179.362-1.933.362-2.263 0-.069-.009-.112-.026-.13v.052c0 .052-.104.243-.31.573-.259.329-.56.815-.905 1.456-.328.642-.802 1.604-1.422 2.888-.12.225-.302.598-.543 1.118-.051.538-.413 1.517-1.086 2.939l-.232.599c-.517 1.3-.93 2.254-1.241 2.861-.293.59-.517.876-.672.858-.086 0-.267-.086-.543-.26a3.31 3.31 0 0 1-.75-.65c-.224-.26-.336-.52-.336-.78 0-.035.147-.347.44-.937.482-.988.75-1.578.801-1.769.017-.069.035-.164.052-.286.034-.121.224-.433.568-.936 0-.104.078-.364.233-.781.172-.433.397-.927.672-1.482.138-.208.207-.408.207-.598.155-.191.353-.616.595-1.275.086-.243.172-.477.258-.702.103-.226.207-.399.31-.521.052-.034.138-.156.259-.364a52.871 52.871 0 0 1 1.603-2.757l.31-.572c.069-.191.13-.295.18-.312.07-.018.354-.495.854-1.431.775-1.092 1.224-1.639 1.344-1.639.104 0 .285.061.543.182a3 3 0 0 1 .724.443c.224.173.336.329.336.468 0 .052.009.199.026.442s.026.503.026.78c0 .677-.285 2.931-.853 6.763l-.13.833c.018.052.043.156.078.312.034.139.052.295.052.468.224-.347.422-.624.594-.832.448-.659.767-1.18.957-1.561a.5.5 0 0 1 .077-.26c.069-.087.138-.182.207-.286.138-.174.241-.33.31-.468a.829.829 0 0 0 .129-.443 37.3 37.3 0 0 0 1.293-1.977c1.448-2.271 2.344-3.563 2.689-3.875.12-.104.301-.191.542-.26.259-.07.5-.104.724-.104.483 0 .853.147 1.112.442.258.277.388.633.388 1.066Zm6.515 16.127c-.258 0-.655-.104-1.189-.312a7.988 7.988 0 0 1-1.473-.78c-.466-.312-.767-.624-.905-.937l-.052-.104a3.616 3.616 0 0 1-.388-2.679l.129-.546c.156-.538.233-.98.233-1.327.086-.104.216-.277.388-.52.19-.26.302-.425.336-.494a.656.656 0 0 0 .052-.234v-.39c0-.122.043-.243.129-.364a1.698 1.698 0 0 1 .465-.443l.104.026c.034 0 .163-.251.387-.754.224-.52.44-1.066.647-1.639.861-1.595 1.827-2.922 2.895-3.979 1.069-1.076 2.016-1.795 2.844-2.159.069-.018.198-.035.387-.052l.543-.052c.328.017.724.095 1.19.234.465.138.715.242.749.312 0 .069.017.112.052.13a.442.442 0 0 0 .103.026c.155-.018.431.234.828.754.413.503.715.98.904 1.431.207.329.311.884.311 1.665 0 .658-.095 1.482-.285 2.471-.189.971-.379 1.664-.569 2.081a36.95 36.95 0 0 1-1.706 3.953c-.689 1.388-1.318 2.099-1.887 2.133-.017 0-.034.018-.052.052-.017.018-.025.052-.025.104s-.233.278-.698.677c-.448.398-.845.728-1.19.988l-.491.182a7.323 7.323 0 0 1-1.422.364 9.626 9.626 0 0 1-1.344.182Zm.026-2.367c.741 0 1.275-.017 1.603-.052a2.868 2.868 0 0 0 1.034-.338c.379-.208.784-.563 1.215-1.066.172-.312.31-.521.413-.625.018-.034.156-.277.414-.728.259-.451.5-.676.724-.676 0-.087.069-.321.207-.703.138-.398.241-.624.31-.676.034-.017.121-.208.258-.572.138-.382.268-.798.388-1.249.121-.451.181-.823.181-1.118.31-.33.448-.512.414-.546a.446.446 0 0 1-.026-.104v-.261c0-.502.034-.763.103-.78.087-.035.13-.061.13-.078a.3.3 0 0 0-.104-.104c-.034-.035-.051-.069-.051-.104 0-.017.025-.052.077-.104a.28.28 0 0 0 .078-.208c-.035-.434-.276-1.188-.724-2.263a1.56 1.56 0 0 1-.207-.182.631.631 0 0 0-.284-.208.593.593 0 0 0-.311-.078c-.069 0-.189.017-.361.052-.069-.07-.138-.104-.207-.104a.549.549 0 0 0-.181.026l-.13.052c-.361.086-.646.208-.853.364-.189.156-.465.433-.827.832l-.439.468c-.138.469-.423.876-.853 1.223-.069.052-.173.182-.311.39a3.618 3.618 0 0 1-.31.39l-.155.312c-.379.625-.784 1.457-1.215 2.498a43.163 43.163 0 0 0-1.112 2.913c-.31.919-.465 1.5-.465 1.743 0 .485.155.875.465 1.17.328.295.698.46 1.112.494Zm31.527 3.408c-1.31-.902-2.361-1.83-3.154-2.783a15.476 15.476 0 0 1-1.887-2.966c-.465-1.005-1.034-2.41-1.706-4.214l-.233-.39c.035.07.052.182.052.338a.832.832 0 0 1-.104.417c-.241.398-.655 1.63-1.241 3.693-.585 2.064-.861 3.269-.827 3.616a1.907 1.907 0 0 0-.181.728 8.659 8.659 0 0 1-.051.598c-.156.174-.405.417-.75.729a1.1 1.1 0 0 1-.259.026 1.1 1.1 0 0 1-.542-.13 2.948 2.948 0 0 1-.518-.364 2.259 2.259 0 0 0-.439-.365c.086-.884.241-1.751.465-2.601.242-.867.552-1.89.931-3.069l.646-2.055a1.15 1.15 0 0 1-.258-.312 10.257 10.257 0 0 0-.155-.39 1.177 1.177 0 0 1-.104-.208.817.817 0 0 0-.129-.287c-.81 1.145-2.284 2.697-4.421 4.656l-.853.703c-.482.381-.827.676-1.034.884-.138.139-.31.295-.517.468-.207.174-.37.304-.491.391-.362.277-.646.502-.853.676-.276.243-.638.52-1.086.832-.551.382-.948.694-1.189.937-.276-.052-.483-.13-.62-.234a2.315 2.315 0 0 1-.414-.417 1.908 1.908 0 0 0-.569-.546c0-.468.043-.806.13-1.014.086-.208.31-.382.672-.521.482-.173 1.473-.858 2.973-2.054a60.616 60.616 0 0 0 4.239-3.72c1.327-1.266 2.06-2.142 2.198-2.627.086-.434.301-.703.646-.807a29.974 29.974 0 0 0-1.474-2.835c-.568-.971-1.137-1.795-1.706-2.471a4.083 4.083 0 0 0-.388-.39 11.533 11.533 0 0 1-.465-.494 4.232 4.232 0 0 1-.31-.573l.026-.416c.12-.173.232-.329.336-.468a8.71 8.71 0 0 1 .284-.364c.138-.018.284-.035.44-.052.155-.018.318-.026.491-.026.379 0 .715.147 1.008.442.293.295.732.945 1.318 1.951.586.988.888 1.647.905 1.977a.926.926 0 0 0 .207.442c.138.156.233.286.284.39 1.017 1.908 1.586 3.095 1.706 3.564.052.26.207.043.466-.651.258-.693.655-1.838 1.189-3.433.689-2.168 1.12-3.347 1.293-3.538.241-.034.439-.052.594-.052.689 0 1.146.182 1.37.546a.944.944 0 0 1 .104.469c0 .329-.087.719-.259 1.17-.155.451-.319.789-.491 1.015a2.175 2.175 0 0 0-.026.39.722.722 0 0 1-.077.364v.208c-.328.33-.449.572-.362.728-.121.174-.224.417-.311.729a9.987 9.987 0 0 0-.155.338 1.612 1.612 0 0 1-.181.39c.466.104.828.382 1.086.832 1.172-.797 2.146-1.552 2.921-2.263.776-.728 1.474-1.5 2.094-2.315.638-.832 1.379-1.916 2.223-3.251l.905-.286a.575.575 0 0 0 .233.182c.103.035.207.061.31.078a2.6 2.6 0 0 1 .362.078c.155.329.233.642.233.936 0 .313-.069.599-.207.859-.138.26-.371.615-.698 1.066-1.258 1.648-2.456 3-3.593 4.058-1.121 1.041-2.542 2.09-4.266 3.147.172.815.517 1.7 1.034 2.654a16.19 16.19 0 0 0 1.836 2.653c.706.815 1.404 1.43 2.094 1.847.379.208.68.407.904.598.224.191.397.442.517.754-.086.555-.413 1.015-.982 1.379l-1.189.026Zm6.788.598-.62-.208c-.31-.087-.526-.13-.646-.13a.94.94 0 0 1-.517-.338 1.02 1.02 0 0 1-.181-.598c0-.122.008-.217.026-.287.051-.052.094-.19.129-.416.052-.208.077-.399.077-.572a2.43 2.43 0 0 0 .13-.312c.034-.122.077-.286.129-.494.138-.763.457-2.047.956-3.85.5-1.804.81-2.766.931-2.887v-.286c0-.053.017-.157.052-.313a1.42 1.42 0 0 1 .232-.494c.069-.208.121-.407.156-.598.051-.208.086-.364.103-.468.069-.087.181-.347.336-.781.172-.433.284-.719.336-.858.121-.33.267-.711.44-1.145.189-.45.318-.745.387-.884v-.13c.035-.035.121-.208.259-.52.155-.33.284-.607.388-.833.12-.277.439-.997.956-2.159.035-.069.129-.268.284-.598.156-.329.233-.537.233-.624.172-.191.362-.286.569-.286.258 0 .5.121.724.364.241.225.431.468.568.728l.259.416-.957 1.873c-.258.468-.491.911-.698 1.327-.206.399-.31.633-.31.702-.051.122-.146.373-.284.754l-.414 1.301a19.525 19.525 0 0 1-.594 1.483c-.138.277-.207.442-.207.494 0-.069.956-.104 2.869-.104.293 0 .828-.009 1.603-.026.776-.017 1.267-.043 1.474-.078l1.344-.13.724-2.315c.172-.607.551-1.786 1.137-3.538.242-.728.517-1.266.828-1.613.31-.364.585-.546.827-.546.069 0 .241.104.517.312.293.191.465.356.517.495.189.19.284.39.284.598 0 .243-.138.581-.413 1.014-.207.364-.5 1.049-.879 2.055-.156.468-.25.737-.285.807 0 .364-.086.633-.258.806-.069.069-.19.321-.362.754-.173.416-.259.659-.259.729 0 .138-.026.294-.077.468a.87.87 0 0 1-.181.338l-.181.624c-.603 2.203-1.077 3.729-1.422 4.578 0 .087-.043.243-.129.468-.086.226-.13.382-.13.469-.034.121-.112.364-.232.728-.121.364-.181.581-.181.65a34.837 34.837 0 0 0-.362 1.899 38.27 38.27 0 0 0-.233 1.535c-.293.035-.534.017-.724-.052a2.37 2.37 0 0 1-.542-.286 6.214 6.214 0 0 0-.362-.208c-.414-.226-.621-.538-.621-.937 0-.225.078-.494.233-.806.052-.087.215-.65.491-1.691l.233-.962c.138-.382.258-.746.362-1.093.103-.364.198-.676.284-.936.276-1.006.448-1.544.517-1.613v-.26c-.052-.087-.56-.13-1.525-.13-1.051 0-2.146.069-3.283.208h-2.224c-.086.191-.336.954-.749 2.289-.414 1.318-.647 2.159-.698 2.523-.121.572-.31 1.361-.569 2.367a64.66 64.66 0 0 1-.595 2.237Zm12.7-1.509a1.841 1.841 0 0 1-.414-.286.524.524 0 0 1-.103-.338c0-.173.069-.416.207-.728.155-.33.413-.841.775-1.535.103-.225.302-.624.595-1.196.741-1.422 1.111-2.471 1.111-3.148a.363.363 0 0 1-.026-.156c0-.173.138-.329.414-.468.052-.052.233-.199.543-.442.327-.243.586-.52.775-.833.224-.52.509-1.092.854-1.716.344-.642.939-1.682 1.783-3.122a32.654 32.654 0 0 1 2.637-4.136 2.24 2.24 0 0 1 .569-.572c.224-.139.413-.208.569-.208.534 0 1.077.208 1.628.624.569.417.939.833 1.112 1.249.069.121.103.381.103.78 0 .538-.06 1.448-.181 2.731-.034.226-.069.581-.103 1.067-.052.78-.129 1.613-.233 2.497a264.86 264.86 0 0 0-.413 4.552 38.799 38.799 0 0 0-.13 3.069c0 .486.009.841.026 1.067v.182l-.026.598c-.103.104-.31.156-.62.156-.345 0-.69-.06-1.034-.182-.345-.104-.534-.234-.569-.39a.3.3 0 0 0-.077-.052c-.035-.017-.052-.095-.052-.234l.026-.572.077-1.457.129-3.98-.336.026c-.344 0-1.077.07-2.197.208-1.103.139-1.801.252-2.094.339-.155 0-.345.104-.569.312a2.954 2.954 0 0 0-.594.806c-.052.173-.173.425-.362.754-.19.312-.284.495-.284.547a1.09 1.09 0 0 0-.285.286 2.376 2.376 0 0 0-.129.208c0 .191-.172.685-.517 1.482-.328.781-.655 1.422-.982 1.925l-.698.989-.905-.703Zm6.178-8.948.724-.104c.362-.069.681-.112.957-.13.827-.208 1.395-.312 1.706-.312.172 0 .293.018.362.052.051.07.103.122.155.156a.71.71 0 0 0 .129.026c.034-.138.172-1.083.414-2.835.241-1.751.362-2.827.362-3.225a8.1 8.1 0 0 0-.026-.703 2.405 2.405 0 0 0-.052-.39c-.155 0-.508.416-1.06 1.249a24.153 24.153 0 0 0-1.603 2.783c-.396.711-.672 1.066-.827 1.066-.121.122-.379.529-.775 1.223-.397.694-.552 1.075-.466 1.144Zm19.93 9.833a7.982 7.982 0 0 1-1.5-.13 3.29 3.29 0 0 1-1.189-.494 11.669 11.669 0 0 1-1.706-1.353c-.552-.555-.827-1.041-.827-1.457 0-.277.112-.572.336-.884.241-.312.525-.572.853-.78.345-.209.663-.313.956-.313.362.191.629.373.802.547.172.173.258.364.258.572 0 .277-.198.598-.594.962.241.295.534.521.879.677.362.138.749.208 1.163.208.569 0 1.181-.139 1.835-.416a5.023 5.023 0 0 0 1.655-1.171c.448-.486.672-1.023.672-1.613 0-.745-.172-1.361-.517-1.846-.345-.503-.87-.755-1.577-.755-.138 0-.25.009-.336.026h-.207c-.138 0-.319-.043-.543-.13a.8.8 0 0 1-.31-.13.895.895 0 0 1-.181-.182 6.114 6.114 0 0 1-.543-.754 1.4 1.4 0 0 1-.155-.625c0-.312.19-.572.569-.78.207-.121.396-.182.569-.182a1.4 1.4 0 0 1 .284.052c.121-.052.31-.095.569-.13.275-.035.482-.087.62-.156a12.758 12.758 0 0 0 3.128-2.029c.948-.85 1.422-1.769 1.422-2.757 0-.26-.06-.555-.181-.885a2.484 2.484 0 0 0-1.293-.338c-.723 0-1.439.2-2.145.598-.69.399-1.146.894-1.37 1.483-.259.694-.672 1.171-1.241 1.431a5.515 5.515 0 0 1-.827-.651c-.173-.208-.388-.528-.647-.962a7.961 7.961 0 0 1 1.474-2.471 6.233 6.233 0 0 1 2.275-1.665c.224-.104.577-.199 1.06-.286.499-.104.879-.156 1.137-.156.827 0 1.551.199 2.172.598.62.399 1.103.945 1.447 1.639a4.85 4.85 0 0 1 .517 2.237c0 .954-.172 1.769-.517 2.445a5.32 5.32 0 0 1-1.37 1.717c-.569.468-1.318.997-2.249 1.587.569.468.982.962 1.241 1.482.258.503.388 1.11.388 1.821 0 .815-.061 1.491-.181 2.029-.104.537-.345 1.084-.724 1.639-.241.416-.681.858-1.318 1.326a8.74 8.74 0 0 1-1.939 1.093l-.181-.026c-.104.069-.285.121-.543.156-.293.069-.474.13-.543.182h-.827Zm14.374 0c-.5.087-1 .13-1.499.13-.431 0-.784-.061-1.06-.182a2.097 2.097 0 0 1-.75-.494c-.155-.139-.233-.347-.233-.625 0-.173.035-.294.104-.364.241-.156.491-.277.75-.364.258-.087.697-.156 1.318-.208a7.965 7.965 0 0 0 3.542-.65c1.12-.486 1.895-1.067 2.326-1.743.328-.59.491-1.084.491-1.483 0-.433-.198-.867-.594-1.3a1.422 1.422 0 0 0-.388-.235 1.21 1.21 0 0 0-.414-.104 21.75 21.75 0 0 1-.439-.052c-.31 0-.56.035-.75.104a3.576 3.576 0 0 0-.672.313c-.086.052-.267.156-.543.312a2.61 2.61 0 0 1-.749.26c-.121.156-.319.286-.595.39-.259.087-.508.13-.75.13-.241 0-.405-.043-.491-.13-.103 0-.19.052-.258.156-.069.087-.181.295-.336.624a4.978 4.978 0 0 1-.233.521c-.035.138-.147.433-.336.884-.035.104-.095.26-.181.468a3.388 3.388 0 0 0-.129.468c-.259.642-.474 1.076-.647 1.301-.172.225-.344.338-.517.338a.343.343 0 0 1-.207-.078 2.186 2.186 0 0 1-.232-.208 2.037 2.037 0 0 0-.259-.312c-.12 0-.241-.069-.362-.208a.954.954 0 0 1-.181-.598c0-.174.043-.373.13-.599.086-.19.327-.841.723-1.951.81-2.219 1.241-3.346 1.293-3.381.017-.226.069-.39.155-.494.104-.122.155-.2.155-.234.035-.07.181-.443.44-1.119.258-.676.5-1.127.724-1.353 0-.138.241-.589.723-1.352.052-.122.181-.442.388-.963.069-.208.129-.364.181-.468.052-.121.086-.199.104-.234.155-.173.232-.321.232-.442 0-.069-.043-.147-.129-.234a3.543 3.543 0 0 0-.207-.234c-.034-.035-.069-.156-.103-.364a3.156 3.156 0 0 1-.052-.495c0-.052.284-.225.853-.52.586-.312 1-.52 1.241-.624.241-.104.551-.234.931-.39.396-.156.723-.278.982-.364a3.62 3.62 0 0 1 .801-.183 4.12 4.12 0 0 1 .776-.026c.189-.069.379-.104.569-.104.258 0 .499.061.723.182.276.087.63.313 1.06.677.431.347.673.659.724.936.069.347.104.598.104.754 0 .226-.061.46-.181.703-.035.364-.173.902-.414 1.613s-.431 1.135-.569 1.274c-.241.382-.413.668-.517.858-.413.746-.818 1.336-1.215 1.769-.034.035-.12.13-.258.286-.138.156-.362.417-.672.781.086 0 .258.017.517.052.275.017.474.06.594.13.397.26.75.589 1.06.988.328.382.56.781.698 1.197.104.156.155.364.155.624 0 .347-.086.754-.258 1.223-.155.45-.362.867-.621 1.248-.155.295-.491.72-1.008 1.275-.5.537-.784.806-.853.806a.544.544 0 0 0-.336 0 21.05 21.05 0 0 0-.621.286 2.27 2.27 0 0 1-.439.39c-.138.122-.25.165-.336.13a9.495 9.495 0 0 0-.982.469c-.448.121-1.112.26-1.991.416Zm-.801-8.584c.034.052.258-.009.672-.182.431-.173.887-.399 1.37-.676.5-.278.879-.538 1.137-.781.328-.225.629-.503.905-.832.276-.347.414-.572.414-.676.017-.052.069-.165.155-.339.103-.173.233-.355.388-.546a3.63 3.63 0 0 0 .491-.598c.138-.208.207-.347.207-.416.017-.052.06-.156.129-.312.086-.156.189-.339.31-.547a2.05 2.05 0 0 0 .388-.858c.086-.329.138-.512.155-.546.034-.364-.026-.633-.181-.807-.138-.19-.353-.286-.646-.286l-.233.026-.62.078a4.458 4.458 0 0 0-.75.156c-.207.052-.405.13-.595.235-.43.277-.646.494-.646.65 0 .087.06.13.181.13.086 0 .129.061.129.182 0 .243-.163.633-.491 1.17-.276.486-.836 1.552-1.68 3.2-.827 1.647-1.224 2.506-1.189 2.575Zm16.58 8.142c-.81 0-1.473-.052-1.99-.156a2.967 2.967 0 0 1-1.345-.599c-.827-.624-1.24-1.552-1.24-2.783 0-.52.094-1.162.284-1.925a9.21 9.21 0 0 1 .284-1.144c.121-.33.224-.495.31-.495l.181-.962a3.71 3.71 0 0 1 .104-.416 4.4 4.4 0 0 1 .129-.416.693.693 0 0 1 .155-.234c.069-.052.173-.287.31-.703 0-.034.009-.112.026-.234.018-.121.061-.26.13-.416.258-.434.387-.72.387-.858.018-.052.086-.156.207-.313a1.79 1.79 0 0 0 .284-.546l.337-.598c.517-.919.887-1.587 1.111-2.003.224-.433.362-.789.414-1.066.051-.122.12-.339.207-.651.103-.312.215-.529.336-.65-.052-.104.12-.234.517-.39.413-.156.913-.304 1.499-.442a10.741 10.741 0 0 1 1.603-.26c.103-.07.336-.122.698-.157.362-.034.767-.052 1.215-.052.31 0 .741.018 1.292.052.276 0 .509.035.698.105.207.052.388.121.543.208.155.069.267.121.336.156l.336.338c.207.173.311.355.311.546 0 .173-.112.321-.336.442-.052.052-.337.096-.854.13-.499.035-1.042.052-1.628.052-.621 0-1.301.078-2.042.234a3.273 3.273 0 0 1-.595.078c-.207.07-.465.113-.776.131-.293.017-.482.026-.568.026-.069 0-.31.329-.724.988-.397.659-.603 1.049-.621 1.171 0 .156-.051.32-.155.494-.103.173-.284.442-.543.806-.224.312-.336.607-.336.884 0 .174.052.278.156.313a30.192 30.192 0 0 1 1.99-.234c.793-.087 1.37-.131 1.732-.131.19-.052.345-.078.465-.078.242 0 .466.061.673.182.275.053.413.235.413.547a.777.777 0 0 1-.103.39c-.052.121-.121.199-.207.234-.155.156-.689.356-1.603.598-.896.243-1.835.468-2.818.677-.982.19-1.533.268-1.654.234-.052-.122-.104-.182-.155-.182-.173 0-.388.572-.646 1.716-.311.694-.5 1.154-.569 1.379-.069.208-.173.702-.31 1.483-.069.312-.104.529-.104.65 0 .676.397 1.196 1.189 1.561.293.052.595.078.905.078.569 0 1.258-.104 2.068-.312.069-.035.595-.33 1.577-.885.052 0 .181-.035.388-.104.224-.087.353-.13.388-.13.138-.191.31-.286.517-.286.051 0 .163.087.336.26.172.173.327.382.465.624.138.226.207.46.207.703 0 .173-.259.39-.776.65-.499.243-1.249.563-2.249.962-.724.312-1.232.512-1.525.599-.293.086-.707.13-1.241.13Zm10.121.182a.524.524 0 0 1-.284-.104.753.753 0 0 1-.233-.234 1.443 1.443 0 0 1-.336-.443c-.086-.173-.129-.433-.129-.78 0-.607.19-1.483.569-2.627.12-.486.25-.954.388-1.405.12-.312.181-.546.181-.702 0-.139.017-.295.051-.468.052-.191.078-.321.078-.39.207 0 .396-.356.569-1.067.068-.26.129-.477.18-.65.052-.191.087-.338.104-.442.034-.052.069-.13.103-.235.052-.104.095-.199.13-.286.137-.416.301-.815.491-1.196a46.24 46.24 0 0 1 .724-2.445c.293-.867.534-1.509.723-1.925l.311-.78c.017-.052.051-.148.103-.287.069-.156.103-.268.103-.338 0-.069-.025-.121-.077-.156-.121-.087-.181-.26-.181-.52 0-.434.164-.789.491-1.067.19-.225.44-.381.75-.468a3.856 3.856 0 0 1 1.163-.156c.19 0 .526.018 1.008.052.207.018.759.026 1.655.026.103.052.293.13.568.234.586.243.879.391.879.443 0 .086.026.147.078.182.069.034.164.06.284.078.19 0 .526.234 1.009.702.499.468.844.902 1.034 1.301.155.312.258.554.31.728.069.173.103.39.103.65a10.8 10.8 0 0 1-.181 1.379c-.051.26-.112.425-.181.494-.275.208-.413.39-.413.546 0 .174-.25.659-.75 1.457s-.939 1.378-1.318 1.743c-.449.52-.983.979-1.603 1.378-.724.33-1.543.616-2.456.859-.896.242-1.577.355-2.042.338-.552.087-.897.165-1.034.234-.121.052-.216.191-.285.416l-.258.728c-.069.243-.104.408-.104.495-.103.19-.319.771-.646 1.742-.31.972-.526 1.717-.646 2.237a.887.887 0 0 1-.414.521c-.207.138-.396.208-.569.208Zm3.671-8.688c.035.035.13.052.285.052.448 0 1.034-.139 1.758-.416.62-.208 1.309-.547 2.068-1.015.379-.26.827-.719 1.344-1.378.103-.174.31-.581.62-1.223.138-.243.267-.555.388-.936.138-.382.207-.72.207-1.015 0-.139-.009-.243-.026-.312-.172-.902-.672-1.5-1.499-1.795-.552-.086-.94-.13-1.164-.13-.12 0-.318.018-.594.052-.276.087-.474.208-.595.364-.103.139-.258.469-.465.989-.552 1.058-.914 1.821-1.086 2.289-.327 1.179-.612 2.089-.853 2.731a46.94 46.94 0 0 0-.414 1.093v.104c0 .104-.008.208-.025.312-.018.104 0 .182.051.234Zm13.305 8.298c-.069.069-.137.104-.206.104-.087 0-.233-.052-.44-.156a1.597 1.597 0 0 1-.775-.443 1.001 1.001 0 0 1-.311-.728c0-.069.035-.208.104-.416.155-.295.551-1.743 1.189-4.344l.439-1.717c0-.017.035-.286.104-.806.052-.26.129-.737.232-1.431.207-.399.345-.832.414-1.3.086-.486.138-.763.155-.833.121-.485.207-.789.259-.91l.232-.911.155-.598c.121-.433.181-.711.181-.832v-.416h-.956l-.414.026a6.27 6.27 0 0 1-.646-.026l-.905-.026c-.81-.035-1.353-.113-1.628-.235-.276-.138-.423-.398-.44-.78-.069-.347.104-.616.517-.806.414-.208 1.258-.295 2.534-.26.241-.018.568-.026.982-.026.414 0 .75.008 1.008.026.259.017.405.026.44.026a.637.637 0 0 0 .129-.208 4.22 4.22 0 0 0 .077-.209c0-.294.095-.476.285-.546.103-.225.319-.338.646-.338.19 0 .379.043.569.13.189.087.336.208.439.364.035.087.052.243.052.468 0 .226.052.391.155.495.069-.07.293-.113.672-.13.379-.018.647-.035.802-.052.327 0 .663-.009 1.008-.026.345-.035.577-.052.698-.052.155-.087.396-.13.724-.13.155 0 .37.017.646.052.345 0 .595.078.75.234.155.138.293.303.413.494 0 .191.043.329.129.416.069.052.104.104.104.156 0 .035-.035.113-.104.234-.12.156-.43.234-.93.234l-.543.026c-.379.035-.655.052-.827.052-.759.156-1.638.252-2.637.286-.707 0-1.06.07-1.06.209-.103 0-.302.563-.595 1.69-.103.417-.215.798-.336 1.145-.103.329-.189.555-.258.676.052.07.077.148.077.234 0 .087-.051.278-.155.573a7.12 7.12 0 0 1-.181.572 1.199 1.199 0 0 0-.103.416 13.29 13.29 0 0 1-.155.52c-.069.26-.129.555-.181.885-.086.832-.198 1.317-.336 1.456a2.668 2.668 0 0 1-.129.208.746.746 0 0 0-.078.338c0 .243-.06.677-.181 1.301-.121.607-.215.936-.284.988.051 0 .077.053.077.157 0 .121-.052.303-.155.546 0 .139-.026.303-.077.494a1.837 1.837 0 0 0-.078.39 38.579 38.579 0 0 1-.724 1.847c-.31.746-.5 1.153-.569 1.223Zm16.765-19.119a3.02 3.02 0 0 1 1.629.468c.517.295.922.72 1.215 1.275.31.537.465 1.153.465 1.847 0 .971-.06 2.245-.181 3.823a77.54 77.54 0 0 1-.465 4.448c-.207 1.457-.388 3.33-.543 5.619-.103 1.214-.189 2.046-.258 2.497-.052.468-.155.737-.311.806l.026.052c0 .07-.06.13-.181.182-.12.052-.267.078-.439.078-.31 0-.621-.06-.931-.182-.31-.121-.465-.381-.465-.78 0-.225.043-.772.129-1.639.19-1.63.302-2.965.336-4.006l.155-1.144h-.646c-.293.087-.715.13-1.267.13l-1.628-.026c-.466 0-.784.017-.957.052a.49.49 0 0 0-.362.208c-.086.104-.189.321-.31.65-.086.278-.267.703-.543 1.275-.603 1.474-1.137 2.523-1.603 3.147-.465.625-.922.937-1.37.937-.12 0-.319-.052-.594-.156-.259-.104-.388-.243-.388-.416 0-.243.181-.746.543-1.509.379-.763.663-1.275.853-1.535.017 0 .017-.008 0-.026a.366.366 0 0 1-.026-.156c0-.381.224-1.014.672-1.899.069-.208.138-.407.207-.598.086-.208.129-.338.129-.39l.491-.963c0-.104.061-.32.181-.65.138-.347.302-.72.492-1.118 0-.26.051-.512.155-.755.103-.26.241-.537.413-.832.19-.347.285-.572.285-.676 0-.035.017-.113.051-.234.052-.122.147-.321.285-.599-.035 0-.052-.008-.052-.026 0-.017.069-.112.207-.286 0-.156.06-.329.181-.52.138-.208.362-.78.672-1.717l.517-1.118c.138-.226.319-.651.543-1.275l.207-.546.206-.572c.052-.07.13-.2.233-.391.104-.19.267-.346.491-.468.224-.121.526-.191.905-.208a2.64 2.64 0 0 1 .646-.078Zm.543 9.936c0-.19.061-.893.181-2.106.242-2.498.371-4.032.388-4.605 0-.26-.009-.407-.026-.442 0-.156-.138-.303-.413-.442-.276-.139-.474-.208-.595-.208-.155 0-.284.087-.388.26-.103.174-.207.39-.31.65a8.452 8.452 0 0 0-.207.521l-.233.598a130.65 130.65 0 0 0-1.034 2.679c-.396 1.041-.62 1.665-.672 1.873-.103.104-.284.433-.543.988-.241.538-.362.876-.362 1.015 0 .433.216.65.647.65.069 0 .207-.009.413-.026.224-.035.466-.095.724-.182h.362c.276 0 .552-.043.827-.13.448-.069.741-.121.879-.156.155-.035.25-.113.285-.234.051-.122.077-.356.077-.703Zm9.493 9.105c-.242.069-.422.104-.543.104a.907.907 0 0 1-.75-.365c-.189-.242-.284-.607-.284-1.092 0-.694.207-1.595.62-2.705l.285-.859c.861-2.531 1.421-3.988 1.68-4.37.086-.208.129-.424.129-.65 0-.087.043-.217.129-.39l.207-.416c.207-.382.31-.668.31-.859 0-.069.104-.416.311-1.04.207-.642.413-1.127.62-1.457.104-.26.224-.511.362-.754.138-.26.207-.425.207-.494 0-.035-.19-.052-.569-.052-.534 0-1.198.026-1.99.078-.776.052-1.293.112-1.552.182-.361.086-.577.121-.646.104-.086-.035-.215-.2-.388-.494-.172-.313-.258-.59-.258-.833 0-.208.069-.347.207-.416.275-.173.551-.286.827-.338.293-.052.698-.095 1.215-.13.534-.035.905-.07 1.112-.104.362 0 .698-.018 1.008-.052.327-.052.517-.078.569-.078.137 0 .31-.026.517-.078.482-.087.81-.13.982-.13.241 0 .482-.026.724-.078.275-.035.456-.052.543-.052h1.602c.224 0 .535-.035.931-.104.396-.07.75-.139 1.06-.209a5.85 5.85 0 0 1 1.267-.156c.448 0 .818.087 1.111.261.293.156.474.39.543.702.155.867-1.146 1.378-3.903 1.534-.156.018-.457.044-.905.079-.431.034-.715.078-.853.13-.121.052-.181.13-.181.234 0 .104-.052.208-.155.312a1.452 1.452 0 0 0-.181.208c-.138.052-.371.485-.698 1.301-.328.797-.491 1.291-.491 1.482l-.104.208a.593.593 0 0 0-.077.234c-.121.312-.311.711-.569 1.197a114.94 114.94 0 0 1-.982 2.549l-.285.702c-.379 1.266-.655 2.125-.827 2.575a.896.896 0 0 1-.207.235.386.386 0 0 0-.103.286c0 .086-.25.78-.75 2.081-.5 1.3-.776 1.959-.827 1.977Zm25.852-18.911a1.04 1.04 0 0 1 .93.364 1.37 1.37 0 0 1 .31 1.405c-.224.451-.723 1.673-1.499 3.668a783.63 783.63 0 0 0-2.249 5.8l-1.861 5.411c-.086.242-.267.693-.543 1.352a4.18 4.18 0 0 0-.465 1.353 1.683 1.683 0 0 1-.414.728c-.19.208-.388.312-.595.312a.416.416 0 0 1-.258-.078c-.793-.295-1.189-.763-1.189-1.404 0-.053.017-.165.051-.339-.034.226.207-.303.724-1.586.534-1.301.965-2.393 1.293-3.278 1.275-3.208 1.913-4.873 1.913-4.994.207-.538.344-.919.413-1.145.207-.676.414-1.213.621-1.612l.439-1.171-9.125 10.613c-.121.104-.457.407-1.008.91-.466.469-.828.798-1.086.989-.121.087-.328.243-.621.468a7.08 7.08 0 0 1-.749.546c-.224.156-.405.234-.543.234-.982-.173-1.474-.572-1.474-1.196 0-.278.069-.59.207-.937.138-.364.224-.598.259-.702.206-.659.336-1.188.387-1.587.19-.78.457-1.716.802-2.809.034-.139.12-.459.258-.962.155-.521.25-.997.285-1.431.241-.468.568-1.231.982-2.289l.362-.936c.069-.139.224-.564.465-1.275.155-.537.319-.988.491-1.353l.259-.494a29.36 29.36 0 0 0 .75-1.56c.189-.417.293-.763.31-1.041 0-.225.077-.39.233-.494a.889.889 0 0 1 .568-.182c.293 0 .56.087.802.26.241.156.396.364.465.624.069.191.103.408.103.65 0 .226-.034.434-.103.625l-2.146 5.488-2.352 6.243-.621 1.561 5.222-5.255a20.055 20.055 0 0 0 1.655-1.951c.448-.589.879-1.109 1.292-1.56.414-.451.922-.98 1.526-1.587l.594-.624 3.283-3.512c.224-.173.44-.26.647-.26Zm-7.782 18.546v.026-.026Zm10.854 1.067a6.095 6.095 0 0 1-1.551-.833 3.192 3.192 0 0 1-1.06-1.378c-.276-.781-.414-1.7-.414-2.757 0-1.024.06-1.891.181-2.602a10.96 10.96 0 0 1 .62-2.211l.233-.546c.276-.711.474-1.179.595-1.404.293-.677.81-1.552 1.551-2.628.689-1.04 1.232-1.812 1.628-2.315.414-.52.836-.962 1.267-1.326.431-.382 1.06-.859 1.887-1.431.5-.364 1.112-.546 1.836-.546.568 0 1.085.139 1.551.416.482.278.844.711 1.086 1.301.172.295.258.702.258 1.222 0 .833-.198 1.734-.595 2.705-.396.972-.87 1.709-1.421 2.211-.121.122-.285.183-.491.183-.207 0-.431-.061-.673-.183a2.829 2.829 0 0 1-.646-.442 6.261 6.261 0 0 1-.258-.52c-.018-.052.017-.087.103-.104.155-.191.379-.555.672-1.093.31-.554.517-.988.621-1.3l.155-.728c.103-.451.155-.746.155-.885a.576.576 0 0 0-.181-.416.28.28 0 0 0-.207-.078c-.138 0-.379.087-.724.26-.396.173-.87.529-1.422 1.067a14.954 14.954 0 0 0-1.602 1.872c-.793 1.041-1.405 1.899-1.836 2.576a9.565 9.565 0 0 0-.956 2.054l-.285.677c.017.069-.008.243-.077.52a3.388 3.388 0 0 1-.233.676c-.241 1.006-.362 1.916-.362 2.731 0 .642.06 1.197.181 1.665.138.468.328.815.569 1.041.138.121.336.182.594.182.276 0 .586-.061.931-.182.362-.139.741-.295 1.137-.469.397-.173.673-.294.828-.364a7.35 7.35 0 0 0 1.111-.546c.362-.208.629-.399.802-.572.448-.33.81-.494 1.086-.494.224-.07.396 0 .517.208.137.208.206.494.206.858 0 .243-.163.538-.491.884a5.54 5.54 0 0 1-1.163.885c-.19.191-.612.416-1.267.676a9.743 9.743 0 0 1-1.939 1.067c-.724.312-1.387.468-1.99.468-.138 0-.311-.017-.517-.052Zm11.121-.781a4.542 4.542 0 0 1-.775-.754c-.207-.277-.311-.529-.311-.754 0-.33.285-.564.854-.703 1.775-.433 3.765-2.176 5.971-5.228-.758-.416-1.327-.85-1.706-1.3-.379-.469-.655-1.11-.827-1.925a5.035 5.035 0 0 1-.129-1.041c.086-.121.129-.303.129-.546.017-.243.043-.416.077-.52l.569-1.691c.569-1.647 2.154-2.922 4.757-3.824.844-.346 1.465-.494 1.861-.442l.336-.026c.155-.052.31-.078.465-.078.121 0 .207.009.259.026a.792.792 0 0 1 .233-.026c.293 0 .62.095.982.286.379.174.698.399.956.677.276.277.414.554.414.832a.685.685 0 0 1-.026.208 45.07 45.07 0 0 1-.336.962c-.276.867-.5 1.509-.672 1.925-.465 1.145-1.008 2.775-1.629 4.89-.603 2.116-.948 3.659-1.034 4.631-.138.381-.258 1.014-.362 1.898-.017.156-.051.382-.103.677a5.355 5.355 0 0 1-.129.728c-.052.225-.207.425-.466.598-.258.174-.517.26-.775.26a.795.795 0 0 1-.362-.078 2.442 2.442 0 0 1-.543-.39c-.19-.173-.37-.347-.543-.52.052-.191.112-.477.181-.858.069-.469.164-.85.284-1.145.035-.364.113-.858.233-1.483.035-.121.069-.303.104-.546.103-.555.206-.962.31-1.222l.051-.417c-.241.399-.904 1.206-1.99 2.419a27.556 27.556 0 0 1-3.438 3.252c-1.189.936-2.146 1.353-2.87 1.248Zm8.867-9.338c.81-2.583 1.5-4.881 2.068-6.893a6.788 6.788 0 0 0-2.326.703 5.87 5.87 0 0 0-1.913 1.508 3.92 3.92 0 0 0-.905 2.107 3.007 3.007 0 0 1-.129.624.75.75 0 0 0-.078.339c0 .346.138.685.414 1.014.293.33.594.494.904.494.207 0 .423-.069.647-.208a8.59 8.59 0 0 1 .388-.234l.93.546Zm-189.803 45.026c0-.26.025-.546.077-.858.069-.312.147-.616.233-.91.086-.295.155-.599.207-.911.069-.312.103-.607.103-.884 0-.278.103-.546.31-.807.379-.468.819-.702 1.319-.702l.517.026a.815.815 0 0 0 .413-.104c.741-.485 1.775-2.254 3.102-5.306a158.447 158.447 0 0 0 3.49-8.532l-.103-.104-.905.286a1.32 1.32 0 0 1-.413.078c-.345 0-.621-.156-.828-.468a2.067 2.067 0 0 1-.284-1.093c0-.104.017-.26.052-.468.379-.243.844-.425 1.396-.546a22.989 22.989 0 0 1 2.094-.39c.189-.347.396-.625.62-.833.362.156.664.252.905.286l.232.339a3.2 3.2 0 0 0 .44.052c.155 0 .302-.009.439-.026a3.83 3.83 0 0 1 .44-.026c.258 0 .543.017.853.052.327.034.56.06.698.078.224.034.526.078.905.13.396.034.706.052.93.052.138 0 .224-.009.259-.026.207-.052.396-.078.569-.078.344 0 .655.182.93.546l.44.624c.051.174.077.338.077.494 0 .295-.069.616-.206.963a24.78 24.78 0 0 0-.233.65l-.31.807c-.052.26-.138.537-.259.832a6.946 6.946 0 0 1-.207.52c-.12.33-.25.694-.387 1.093l-.44 1.222a570.747 570.747 0 0 0-1.525 4.292 64.857 64.857 0 0 0-.957 3.173l.776.052c.913.018 1.646.122 2.197.313.569.173.853.572.853 1.196 0 .312-.077.624-.232.937a5.677 5.677 0 0 1-.621.988c-.051.087-.181.286-.388.598-.189.33-.31.59-.361.781a2.055 2.055 0 0 1-.337.676c-.327.329-.62 1.006-.878 2.029a1.173 1.173 0 0 1-.673.234c-.379 0-.698-.199-.956-.598a2.18 2.18 0 0 1-.388-1.249c0-.139.035-.329.104-.572.12-.312.396-.833.827-1.561a8.66 8.66 0 0 0 .62-1.066 3.184 3.184 0 0 0-.724-.234c-.31-.07-.534-.104-.672-.104-.155-.052-.887.008-2.197.182-1.293.156-2.284.286-2.973.39a8.85 8.85 0 0 1-.801.078h-.724c-.569.017-1.301.095-2.198.234-.879.156-1.611.329-2.197.52-.19.416-.345.867-.465 1.353a5.76 5.76 0 0 0-.181 1.326v.339c0 .208-.043.442-.129.702l-.905.416c-.293-.017-.595-.191-.905-.52-.31-.33-.465-.651-.465-.963Zm7.445-5.722a93.56 93.56 0 0 1 1.344-.13c.259 0 .439-.009.543-.026l1.499-.234c.293-.035.888-.13 1.784-.287 0-.398.103-.841.31-1.326a2.82 2.82 0 0 0 .285-1.067c.137-.312.318-.841.542-1.586.173-.555.311-.971.414-1.249a3.36 3.36 0 0 1 .181-.598l.31-.702c.035-.087.078-.182.13-.287.068-.121.129-.26.18-.416a7.91 7.91 0 0 0 .311-.806c.103-.33.181-.572.232-.728l.362-1.067c.086-.243.173-.468.259-.676.362-1.006.62-1.83.775-2.471a6.623 6.623 0 0 0-1.215-.182l-.956-.104-.879-.078c-.224.086-.5.138-.827.156-.328.017-.56.034-.698.052a49.297 49.297 0 0 1-1.112 2.783l-.233.494a9.137 9.137 0 0 0-.284.702c-1.224 3.798-2.628 7.076-4.214 9.833h.957Zm18.561 3.121c-.258 0-.655-.104-1.189-.312a7.988 7.988 0 0 1-1.473-.78c-.466-.312-.767-.625-.905-.937l-.052-.104a3.62 3.62 0 0 1-.388-2.679c.069-.295.112-.477.13-.546.155-.538.232-.98.232-1.327.087-.104.216-.277.388-.52.19-.26.302-.425.336-.494a.635.635 0 0 0 .052-.234v-.391c0-.121.043-.242.129-.364.086-.121.172-.216.259-.286a1.45 1.45 0 0 1 .206-.156l.104.026c.034 0 .164-.251.388-.754.224-.52.439-1.067.646-1.639.862-1.595 1.827-2.922 2.895-3.98 1.069-1.075 2.017-1.794 2.844-2.159.069-.017.198-.034.388-.052.189-.017.37-.034.543-.052.327.018.723.096 1.189.234.465.139.715.243.749.313 0 .069.018.112.052.13a.435.435 0 0 0 .104.026c.155-.018.43.234.827.754.413.503.715.98.905 1.431.206.329.31.884.31 1.664 0 .659-.095 1.483-.285 2.471-.189.972-.379 1.665-.568 2.081a37.077 37.077 0 0 1-1.706 3.954c-.69 1.387-1.319 2.098-1.888 2.133-.017 0-.034.017-.051.052-.018.017-.026.052-.026.104s-.233.278-.698.676a19.63 19.63 0 0 1-1.189.989l-.492.182a7.403 7.403 0 0 1-1.421.364 9.657 9.657 0 0 1-1.345.182Zm.026-2.367c.741 0 1.276-.017 1.603-.052a2.888 2.888 0 0 0 1.034-.338c.379-.208.784-.564 1.215-1.067.172-.312.31-.52.414-.624.017-.034.155-.277.413-.728.259-.451.5-.676.724-.676 0-.087.069-.321.207-.703.138-.399.241-.624.31-.676.035-.017.121-.208.259-.572.138-.382.267-.798.387-1.249.121-.451.181-.824.181-1.118.311-.33.449-.512.414-.547a.435.435 0 0 1-.026-.104v-.26c0-.503.035-.763.104-.78.086-.035.129-.061.129-.078a.292.292 0 0 0-.104-.104c-.034-.035-.051-.07-.051-.104 0-.018.026-.052.077-.104a.282.282 0 0 0 .078-.208c-.035-.434-.276-1.188-.724-2.263a1.56 1.56 0 0 1-.207-.182.642.642 0 0 0-.284-.209.59.59 0 0 0-.31-.078c-.069 0-.19.018-.362.052-.069-.069-.138-.104-.207-.104a.58.58 0 0 0-.181.026l-.129.052c-.362.087-.647.209-.853.365-.19.156-.466.433-.828.832l-.439.468c-.138.468-.422.876-.853 1.223-.069.052-.173.182-.31.39a3.592 3.592 0 0 1-.311.39l-.155.312c-.379.624-.784 1.457-1.215 2.497a42.616 42.616 0 0 0-1.111 2.914c-.311.919-.466 1.5-.466 1.742 0 .486.155.876.466 1.171.327.295.698.459 1.111.494Zm22.2 3.382c-.5.086-1 .13-1.5.13-.431 0-.784-.061-1.06-.182a2.092 2.092 0 0 1-.749-.495c-.155-.138-.233-.346-.233-.624 0-.173.034-.295.103-.364.242-.156.492-.278.75-.364.259-.087.698-.156 1.319-.208a7.947 7.947 0 0 0 3.541-.651c1.12-.485 1.896-1.066 2.327-1.742.327-.59.491-1.084.491-1.483 0-.434-.198-.867-.595-1.301a1.438 1.438 0 0 0-.387-.234 1.223 1.223 0 0 0-.414-.104 21.88 21.88 0 0 1-.44-.052c-.31 0-.56.035-.749.104a3.504 3.504 0 0 0-.672.312c-.086.052-.267.156-.543.313a2.615 2.615 0 0 1-.75.26c-.121.156-.319.286-.594.39a2.35 2.35 0 0 1-.75.13c-.241 0-.405-.043-.491-.13-.104 0-.19.052-.259.156-.069.087-.181.295-.336.624a4.504 4.504 0 0 1-.233.52c-.034.139-.146.434-.336.885-.034.104-.094.26-.181.468a3.388 3.388 0 0 0-.129.468c-.258.642-.474 1.075-.646 1.301-.172.225-.345.338-.517.338a.343.343 0 0 1-.207-.078 2.287 2.287 0 0 1-.233-.208 2.087 2.087 0 0 0-.258-.312c-.121 0-.241-.07-.362-.208-.121-.156-.181-.356-.181-.599 0-.173.043-.373.129-.598.086-.191.328-.841.724-1.951.81-2.219 1.241-3.347 1.293-3.381.017-.226.069-.39.155-.495.103-.121.155-.199.155-.234.034-.069.181-.442.439-1.118.259-.676.5-1.127.724-1.353 0-.138.241-.589.724-1.352.052-.122.181-.443.388-.963.069-.208.129-.364.181-.468.051-.121.086-.199.103-.234.155-.173.233-.321.233-.442 0-.07-.043-.148-.129-.234a4.247 4.247 0 0 0-.207-.234c-.035-.035-.069-.157-.104-.365a3.235 3.235 0 0 1-.051-.494c0-.052.284-.225.853-.52.586-.312.999-.52 1.241-.624.241-.104.551-.234.93-.391.397-.156.724-.277.983-.364.241-.086.508-.147.801-.182a4.11 4.11 0 0 1 .775-.026c.19-.069.38-.104.569-.104.259 0 .5.061.724.182.276.087.629.312 1.06.677.431.346.672.658.724.936.069.347.103.598.103.754 0 .226-.06.46-.181.703-.034.364-.172.901-.413 1.612-.242.711-.431 1.136-.569 1.275-.241.381-.414.668-.517.858-.414.746-.819 1.336-1.215 1.769a9.21 9.21 0 0 0-.259.286c-.138.156-.362.416-.672.781.086 0 .259.017.517.052.276.017.474.06.595.13.396.26.75.589 1.06.988.327.382.56.78.698 1.197.103.156.155.364.155.624 0 .347-.086.754-.259 1.222a5.295 5.295 0 0 1-.62 1.249c-.155.295-.491.72-1.008 1.275-.5.537-.784.806-.853.806a.544.544 0 0 0-.336 0 21.05 21.05 0 0 0-.621.286 2.299 2.299 0 0 1-.439.39c-.138.122-.25.165-.336.13-.052.018-.173.07-.362.156-.19.087-.397.191-.621.312-.448.122-1.111.261-1.99.417Zm-.802-8.584c.035.052.259-.009.672-.182.431-.174.888-.399 1.371-.677.499-.277.878-.537 1.137-.78.327-.225.629-.503.905-.832.276-.347.413-.573.413-.677.018-.052.069-.164.155-.338.104-.173.233-.355.388-.546a3.53 3.53 0 0 0 .491-.598c.138-.208.207-.347.207-.416.017-.052.061-.156.129-.313.087-.156.19-.338.311-.546.189-.243.319-.529.387-.858.087-.33.138-.512.156-.546.034-.365-.026-.633-.181-.807-.138-.191-.354-.286-.647-.286l-.232.026-.621.078a4.467 4.467 0 0 0-.749.156c-.207.052-.405.13-.595.234-.431.278-.646.495-.646.651 0 .086.06.13.181.13.086 0 .129.06.129.182 0 .243-.164.633-.491 1.17-.276.486-.836 1.552-1.681 3.2-.827 1.647-1.223 2.505-1.189 2.575Zm9.446 7.699a1.841 1.841 0 0 1-.414-.286.526.526 0 0 1-.103-.338c0-.173.069-.416.207-.728.155-.33.413-.841.775-1.535.104-.225.302-.624.595-1.197.741-1.422 1.111-2.471 1.111-3.147a.372.372 0 0 1-.025-.156c0-.173.137-.33.413-.468.052-.052.233-.2.543-.442.327-.243.586-.521.776-.833.224-.52.508-1.092.853-1.717.344-.641.939-1.682 1.783-3.121a32.806 32.806 0 0 1 2.637-4.136 2.24 2.24 0 0 1 .569-.572c.224-.139.414-.208.569-.208.534 0 1.077.208 1.628.624.569.416.94.832 1.112 1.249.069.121.103.381.103.78 0 .538-.06 1.448-.181 2.731-.034.226-.069.581-.103 1.067-.052.78-.129 1.612-.233 2.497a263.947 263.947 0 0 0-.413 4.552 39.243 39.243 0 0 0-.13 3.069c0 .486.009.841.026 1.067v.182l-.026.598c-.103.104-.31.156-.62.156-.345 0-.689-.061-1.034-.182-.345-.104-.534-.234-.569-.39a.3.3 0 0 0-.077-.052c-.035-.018-.052-.096-.052-.234l.026-.573.077-1.456.13-3.98-.336.026c-.345 0-1.078.069-2.198.208-1.103.139-1.801.252-2.094.338-.155 0-.344.104-.568.312a2.942 2.942 0 0 0-.595.807c-.052.173-.172.425-.362.754-.19.312-.284.494-.284.546a1.11 1.11 0 0 0-.285.287 2.376 2.376 0 0 0-.129.208c0 .19-.172.685-.517 1.482-.327.781-.655 1.422-.982 1.925l-.698.989-.905-.703Zm6.178-8.948.724-.104c.362-.069.681-.112.957-.13.827-.208 1.396-.312 1.706-.312.172 0 .293.017.362.052a.654.654 0 0 0 .155.156.818.818 0 0 0 .129.026c.035-.139.172-1.084.414-2.835.241-1.752.362-2.827.362-3.226 0-.277-.009-.511-.026-.702a2.29 2.29 0 0 0-.052-.39c-.155 0-.508.416-1.06 1.249a24.153 24.153 0 0 0-1.603 2.783c-.396.711-.672 1.066-.827 1.066-.12.122-.379.529-.775 1.223-.397.693-.552 1.075-.466 1.144Zm10.915 9.807a6.16 6.16 0 0 1-1.551-.833 3.192 3.192 0 0 1-1.06-1.378c-.276-.781-.414-1.7-.414-2.758 0-1.023.061-1.89.181-2.601.121-.728.328-1.465.621-2.211l.232-.546c.276-.711.474-1.179.595-1.405.293-.676.81-1.552 1.551-2.627.689-1.04 1.232-1.812 1.629-2.315.413-.52.836-.962 1.266-1.326.431-.382 1.06-.859 1.888-1.431.499-.364 1.111-.546 1.835-.546.569 0 1.086.138 1.551.416.483.277.845.711 1.086 1.301.172.294.258.702.258 1.222 0 .832-.198 1.734-.594 2.705-.397.971-.87 1.708-1.422 2.211-.121.122-.284.182-.491.182-.207 0-.431-.06-.672-.182a2.845 2.845 0 0 1-.647-.442 6.261 6.261 0 0 1-.258-.52c-.017-.052.017-.087.103-.104.155-.191.379-.555.672-1.093.311-.555.517-.988.621-1.3l.155-.729c.103-.45.155-.745.155-.884a.572.572 0 0 0-.181-.416.28.28 0 0 0-.207-.078c-.138 0-.379.086-.724.26-.396.173-.87.529-1.421 1.066a14.959 14.959 0 0 0-1.603 1.873c-.793 1.041-1.405 1.899-1.836 2.575a9.643 9.643 0 0 0-.956 2.055l-.284.677c.017.069-.009.242-.078.52a3.326 3.326 0 0 1-.233.676c-.241 1.006-.362 1.916-.362 2.731 0 .642.061 1.197.181 1.665.138.468.328.815.569 1.04.138.122.336.183.595.183.275 0 .586-.061.93-.183a25.24 25.24 0 0 0 1.138-.468c.396-.173.672-.295.827-.364a7.409 7.409 0 0 0 1.112-.546c.362-.208.629-.399.801-.572.448-.33.81-.495 1.086-.495.224-.069.396 0 .517.208.138.209.207.495.207.859 0 .243-.164.537-.492.884a5.54 5.54 0 0 1-1.163.885c-.189.19-.612.416-1.267.676a9.733 9.733 0 0 1-1.938 1.066c-.724.313-1.388.469-1.991.469-.138 0-.31-.018-.517-.052Zm13.629-6.477a.758.758 0 0 1-.594-.312 1.19 1.19 0 0 1-.181-.651c0-.017-.018-.086-.052-.208a2.621 2.621 0 0 1-.026-.364c0-.087.009-.156.026-.208 0-.087.077-.303.233-.65.12-.295.206-.512.258-.651.19-.329.474-.711.853-1.144.397-.451.741-.78 1.034-.989l.44-.312c0-.069.12-.199.362-.39.241-.191.448-.329.62-.416.069-.052.19-.139.362-.26.172-.122.336-.252.491-.39.379-.382.664-.737.853-1.067.19-.347.328-.693.414-1.04.086-.347.215-.937.388-1.769.017-.572-.009-.936-.078-1.093-.052-.156-.19-.32-.414-.494a4.351 4.351 0 0 0-.568-.052c-1.155 0-2.051.703-2.689 2.107-.12.312-.181.538-.181.676 0 .087.026.2.078.339 0 .104.017.26.051.468.052.191.078.338.078.442a2.877 2.877 0 0 1-.336.104c-.19.052-.388.078-.595.078-.344 0-.611-.095-.801-.286a3.188 3.188 0 0 0-.207-.26 8.791 8.791 0 0 1-.258-.364.816.816 0 0 1-.13-.312 1.952 1.952 0 0 1-.025-.313c.017-.121.025-.242.025-.364a8.055 8.055 0 0 1 .931-1.951c.414-.641.913-1.109 1.499-1.404.311-.139.612-.286.905-.442.31-.174.509-.287.595-.339h.258c.138-.017.336-.043.595-.078h.284c.173 0 .259.035.259.104h.749c.311.087.698.287 1.164.599.465.294.793.546.982.754.103.329.155.728.155 1.197 0 .867-.164 1.812-.491 2.835-.327 1.006-.75 1.795-1.267 2.367l-.568.52c-.845.763-1.379 1.275-1.603 1.535-.552.312-1.06.789-1.525 1.43a7.727 7.727 0 0 0-1.034 1.977c-.328.694-.767 1.041-1.319 1.041Zm-.594 4.604c-.328.139-.604.208-.828.208-.258 0-.551-.122-.879-.364-.258-.26-.387-.521-.387-.781 0-.433.318-.867.956-1.3.172-.104.328-.191.465-.26a.823.823 0 0 1 .362-.104c.138 0 .371.069.698.208.5.295.75.65.75 1.066 0 .486-.379.928-1.137 1.327Z" fill="#1EA6F9"/></g><defs><clipPath id="a"><path fill="#fff" d="M0 0h378v716H0z"/></clipPath></defs></svg>