<svg width="366" height="326" fill="none" xmlns="http://www.w3.org/2000/svg"><g clip-path="url(#a)"><circle opacity=".1" cx="186.5" cy="156.5" r="141.5" fill="#B5E3FF"/><circle opacity=".4" cx="186.5" cy="156.5" r="109.5" fill="#B5E3FF"/><path opacity=".23" d="M134.048 256.029c-5.519 0-9.286-4.13-11.429-3.463 3.556-6.095 12.405-11.683 17.034-11.683h29.36l41.789 8.797c4.895 0 14.652 1.376 21.217 6.349 3.786.149 11.786 1.207 13.501 4.246 1.714 3.039-5.035 8.996-8.624 11.595-3.187 8.106-12.891 16.534-23.736 22.391 0 0-2.358 15.194-13.93 15.194-11.573 0-15.859-9.937-15.859-9.937-12.784-.372-25.379-3.181-31.931-7.256-12.216-7.597-13.073-26.589-11.787-29.988 1.286-3.398 4.046-6.245-5.605-6.245Z" fill="#070707"/><path d="M133.104 205.604a55.025 55.025 0 0 1-14.747-20.494 49.49 49.49 0 0 1-1.492-33.799c6.249-20.091 20.384-27.428 20.384-27.428s10.847-19.222 18.012-21.582c7.166-2.36 13.085 9.599 13.085 9.599s30.57.599 52.177 10.577a66.266 66.266 0 0 1 30.289 28.418s18.024 3.424 18.697 8.377c.672 4.952-4.341 16.459-9.966 22.145 5.001 15.676-10.92 40.035-31.219 45.647.318 8.744-3.289 9-3.289 9l6.493 12.228 3.669 2.801-2.654 3.668-11.702-.648-2.348 1.957-8.352-3.534s-14.906 1.589-29.898 1.577c-14.991-.012-34.972-5.136-39.496-5.625-4.525-.489-9.954 4.243-14.735 3.84-4.781-.404-6.469-2.177-5.931-5.43.538-3.252 5.063-2.164 5.063-2.164v-4.524s-16.54-2.057-18.851-4.943c-4.29-3.432-12.172-21.996 3.333-31.106 15.505-9.11 16.386-4.891 16.386-4.891l7.092 6.334Z" fill="#F5FCFF"/><path d="M149.147 249.075s-5.148-17.78 1.871-27.856 8.499-14.135 8.499-14.135l-19.272-8.89s-19.43-2.262-22.39-14.258c1.321 4.573 10.529 19.1 15.212 21.668-1.871 4.891.318 20.629.318 20.629l3.424 9.428 2.666 12.803 9.672.611Zm56.079-7.019s2.03 8.058 0 10.198c-2.03 2.14 4.891.257 4.891.257v-1.822l-4.891-8.633Zm49.792-48.864s-8.241-16.52-24.823-25.471c-14.123-7.618-37.907-4.035-37.907-4.035s-12.974-16.129-34.361-19.223c-21.387-3.093-37.32 11.556-38.8 17.976-.073-8.743 5.075-23.882 16.789-32.001 11.715-8.12 24.665-18.66 24.665-18.66s40.267 1.222 58.377 9.611c18.11 8.388 31.854 28.516 31.854 28.516l8.829 14.209-1.223 17.254s1.149 5.38.526 8.193c-.624 2.812.318 4.683-.93 6.236-1.247 1.553-1.602.073-2.996-2.605Z" fill="#B5E3FF"/><path d="M228.018 226.685s-14.674-2.739-23.881 5.381c.929 11.078 7.569 22.573 11.384 23.148 3.815.574 4.451-1.125 4.451-1.125s-4.133-1.651-3.35-5.711c.782-4.06 7.251-15.456 9.134-17.486a9.31 9.31 0 0 0 2.262-4.207Z" fill="#1EA6F9"/><path d="M220.841 253.453s7.117 2.567 11.005 1.222a3.84 3.84 0 0 0 2.813-4.891l-3.167-1.59s-4.292-9.354-7.105-10.149c-2.812-.795-5.111 10.908-5.111 10.908l1.565 4.5Zm-87.419-27.22a13.139 13.139 0 0 1 7.728 12.461c-.391 6.713-.403 9.782-.403 9.782s-9.917 3.913-13.036 3.779c-3.118-.135-6.236-2.776-6.236-2.776-1.137-.599.611-3.95 4.537-2.727.807.257.758-5.943 2.017-8.902 1.639-3.828 3.669-5.148 4.525-6.86.579-1.519.874-3.131.868-4.757Zm6.089-24.689s14.124-14.955 20.36-17.486c6.567-2.653 10.468-1.48 11.715-1.223a2.283 2.283 0 0 1 1.565 1.553s-6.566 4.378-7.581 7.031c-1.015 2.654-4.892 13.574-4.757 14.589.134 1.014-4.891 2.653-11.861 1.638a12.353 12.353 0 0 1-9.441-6.102Zm28.834-78.284c0 4.292 6.212 8.743 11.665 9.049 4.513.269 8.633-.428 10.223-4.329 1.333-3.265-1.443-8.009-7.337-10.027-5.625-1.883-14.515-1.064-14.551 5.307Zm59.514 21.387c4.048-1.455 13.659 5.931 12.644 14.833-1.015 8.902-9.366 7.41-13.451 2.103-4.084-5.307-5.906-14.515.807-16.936Zm-78.052-21.387s-9.99 4.219-12.643 7.178c5.074-13.549 14.074-22.328 17.009-23.148 3.668-1.015 13.28 4.733 14.833 6.212a12.265 12.265 0 0 1 2.152 2.605s-10.932 1.92-12.803 3.668a19.381 19.381 0 0 0-4.524-2.25l-4.024 5.735Zm103.279 47.812s1.798 3.937 1.639 6.273c-.159 2.335 0 6.591 0 6.591s12.008-15.249 11.457-20.397c-.55-5.148-17.009-12.02-17.009-12.02h-3.289s3.913 3.192 4.218 5.613c.198 1.761.275 3.535.233 5.307l7.19 2.03-4.439 6.603Z" fill="#1EA6F9"/><path d="M131.465 203.342s-22.328-4.023-26.62 15.383c-3.669 16.532 20.298 20.714 20.298 20.714s4.366-10.186 7.496-12.521c3.131-2.336-1.1-10.15-1.1-10.15l1.565-11.164-1.639-2.262Z" fill="#1EA6F9"/><path d="M134.975 155.42c0 3.876 4.891 7.728 10.675 7.728 5.784 0 10.479-1.956 10.675-6.481.196-4.524-4.023-7.337-10.455-7.337s-10.908 2.727-10.895 6.09Zm91.943 23.833c-3.607 3.264-.306 10.112 3.522 12.961 4.072 3.045 10.491 4.439 13.059 1.223 2.287-2.861 1.419-7.483-2.604-11.348-4.023-3.864-10.737-5.71-13.977-2.836Z" fill="#FFDCD9"/><path d="M165.545 155.163a6.897 6.897 0 1 0 0-13.794 6.897 6.897 0 0 0 0 13.794Zm56.506 20.139a6.896 6.896 0 1 0 .001-13.793 6.896 6.896 0 0 0-.001 13.793Z" fill="#070707"/><path d="M169.164 147.643a1.48 1.48 0 1 0 0-2.96 1.48 1.48 0 0 0 0 2.96Zm56.323 20.017a1.48 1.48 0 1 0 0-2.96 1.48 1.48 0 0 0 0 2.96Z" fill="#fff"/><path d="M184.535 173.566c2.311-.684 2.971-4.964 2.971-6.212 0-1.247-3.118-4.206-1.516-6.945 1.101-1.895 5.857-1.223 8.205.342 2.348 1.566 3.302 4.354 3.069 5.112-.513 1.65-3.105 2.641-6.701 2.543 0 .122-2.739 4.402-2.812 5.967-.034.451.032.904.192 1.327.161.422.413.805.737 1.119 0 0 .697.844-.232 1.088a8.035 8.035 0 0 1-4.634-.733c-1.81-.869-3.412-2.446-2.63-3.18.783-.733 2.532-.183 3.351-.428Z" fill="#070707"/><path d="M189.5 163.185c.526.404.281.856.868.966.587.11.746.477 1.027.807.281.33 2.861-.134 2.959-.893.098-.758-1.149-.452-1.687-.855-.538-.404 0-.918-.734-.942-.734-.025-1.321.232-1.638 0-.318-.232-.856-.122-.918.22-.024.239.018.481.123.697Z" fill="#4B4B4B"/><path d="M152.082 277.701c.065 1.05.314 2.08.734 3.045.464.464 55.98 5.429 58.45 4.989 2.678-.465 11.813-14.674 12.497-15.799.685-1.125.477-4.329.477-4.329l-13.414 16.961-58.365-4.684-.379-.183Z" fill="#1A1A1A"/><path d="M210.667 286.224c-4.219 0-25.055-1.798-29.458-2.189-12.888-1.125-28.332-2.556-28.736-2.959a7.795 7.795 0 0 1-.819-3.339v-.745l.978.464 58.059 4.659 13.928-17.645.074 1.125c0 .342.195 3.338-.538 4.586-.086.146-9.783 15.48-12.779 16.006a3.911 3.911 0 0 1-.709.037Zm-57.631-5.821c3.326.807 56.066 5.295 58.12 4.891 2.054-.403 10.761-13.157 12.228-15.603a7.336 7.336 0 0 0 .453-2.898l-12.815 16.227-58.439-4.72c.062.717.214 1.424.453 2.103Z" fill="#000"/><path d="M168.786 260.325s55.026 2.446 55.552 4.365c.526 1.92-9.66 17.12-13.61 18.416-3.95 1.296-58.047-3.424-58.622-5.613-.574-2.189 12.718-15.921 16.68-17.168Z" fill="#4B4B4B"/><path d="M207.243 283.779c-12.631 0-51.688-3.791-55.026-5.662a.915.915 0 0 1-.477-.514c-.783-2.726 13.133-16.508 16.972-17.645h.147c.135 0 13.916.636 27.575 1.48 27.941 1.736 28.21 2.653 28.369 3.204.66 2.237-9.929 17.706-13.891 18.953a15.819 15.819 0 0 1-3.669.184Zm-38.396-23.026c-4.133 1.419-16.777 14.931-16.325 16.63 1.81 1.773 53.951 6.616 58.084 5.32 3.815-1.223 13.378-15.983 13.329-17.805-2.238-1.271-34.007-3.179-55.088-4.145Z" fill="#000"/><path d="m202.071 265.009 1.748-1.407-32.563 4.525 4.989.782-11.14 2.911 27.391-3.424 9.905-3.424-.33.037Z" fill="gray"/><path d="M218.567 264.947h-7.411l4.39-1.223-15.53.77-8.559 1.859h.428l-3.669 1.076h3.669s-2.25.734-3.192 1.003c3.18-.428 27.709-2.054 27.709-2.054l2.165-1.431Zm-11.948 6.518h-3.668l2.201-.807-7.765.538-4.304 1.296h.208l-1.798.758h1.798s-1.125.514-1.59.697c1.59-.293 13.855-1.43 13.855-1.43l1.063-1.052Z" fill="gray"/><path d="m202.62 263.993-1.222.159.697-.33-2.556.514-1.37.562-.562.306.599-.086-.501.269c.513-.159 4.536-1.039 4.536-1.039l.379-.355Z" fill="#9E9E9E"/><path d="M262.52 248.272c.409 2.702 2.364 3.547 4.333 3.688 1.041.072 3.81-.442 4.291.797.325.923-1.249 2.708-3.965 1.74-2.716-.968-6.275-2.487-9.448 1.235-3.173 3.721.635 6.31 3.253 6.195 2.619-.115 6.815-.35 9.584.689 2.768 1.039 13.181.93 16.451-7.921 3.269-8.852-2.73-13.45-6.763-15.604-4.034-2.154-10.649-2.714-14.44 1.189-3.791 3.903-3.296 7.992-3.296 7.992Z" fill="#1EA6F9"/><path d="M259.739 262.333a4.879 4.879 0 0 1-3.41-2.431c-.478-.971-.689-2.539.956-4.518 3.313-3.892 7.052-2.492 9.786-1.467l.235.086c1.757.654 2.709-.088 2.954-.333a.91.91 0 0 0 .345-.752c-.212-.58-1.886-.503-2.784-.471a8.348 8.348 0 0 1-1.037.019c-2.768-.199-4.428-1.628-4.814-4.125-.022-.176-.506-4.388 3.416-8.419 3.923-4.031 10.654-3.633 15.053-1.276 7.105 3.8 9.522 9.447 6.971 16.236a12.474 12.474 0 0 1-6.733 7.234c-3.99 1.824-8.528 1.667-10.354.991-2.555-.957-6.464-.787-9.052-.673l-.338.017a5.1 5.1 0 0 1-1.194-.118Zm4.251-8.325a5.558 5.558 0 0 0-5.883 2.056c-1.046 1.22-1.338 2.392-.85 3.387.62 1.284 2.402 1.995 3.68 1.961l.338-.018c2.672-.119 6.708-.298 9.456.729 1.652.625 5.841.745 9.566-.949a11.53 11.53 0 0 0 6.216-6.653c2.356-6.362.182-11.4-6.496-14.968-4.073-2.177-10.307-2.537-13.833 1.095-3.526 3.632-3.157 7.404-3.14 7.571.317 2.014 1.581 3.069 3.865 3.233.308.013.617.008.924-.013 1.403-.06 3.337-.141 3.792 1.152a1.776 1.776 0 0 1-.587 1.83c-.358.356-1.708 1.43-4.037.566l-.241-.088a19.682 19.682 0 0 0-2.77-.891Z" fill="#004FAB"/><path d="M252.459 266.746a3.302 3.302 0 1 0 1.365-6.462 3.302 3.302 0 0 0-1.365 6.462Z" fill="#1EA6F9"/><path d="M252.359 267.252a3.631 3.631 0 0 1-.806-.267 3.744 3.744 0 0 1-1.986-2.136 3.81 3.81 0 0 1 5.161-4.795 3.813 3.813 0 0 1 .156 6.877 3.8 3.8 0 0 1-2.504.326l-.021-.005Zm1.366-6.459a2.788 2.788 0 0 0-2.683.908 2.791 2.791 0 0 0-.5 2.789 2.793 2.793 0 0 0 3.592 1.644 2.784 2.784 0 0 0 1.619-3.582 2.74 2.74 0 0 0-1.453-1.563 2.54 2.54 0 0 0-.589-.199l.014.003Z" fill="#004FAB"/><path d="M264.982 270.198c-.302 1.428-.062 3.323.95 3.796 1.333.615 2.326 1.151 2.078 2.147-.193.64-1.827 1.02-2.914-.614-1.086-1.635-2.521-3.899-5.783-3.084-3.262.814-2.17 3.788-.679 4.762 1.491.975 3.962 2.526 5.093 4.213 1.131 1.686 7.003 5.784 12.372 2.142 5.37-3.641 3.85-8.62 2.446-11.414-1.404-2.795-4.879-5.774-8.559-5.108-3.681.665-4.718 1.787-5.004 3.16Z" fill="#1EA6F9"/><path d="M268.552 285.109a10.532 10.532 0 0 1-5.236-3.359c-1.056-1.535-3.278-2.981-4.757-3.944l-.196-.128a3.705 3.705 0 0 1-1.658-3.44c.102-.638.541-1.789 2.484-2.288 3.516-.875 5.151 1.556 6.234 3.151l.101.145a1.734 1.734 0 0 0 1.547.938.586.586 0 0 0 .238-.038.588.588 0 0 0 .201-.133c.147-.487-.298-.85-1.809-1.557-1.279-.591-1.594-2.692-1.239-4.37.393-1.879 2.021-2.944 5.445-3.566 3.842-.7 7.552 2.282 9.108 5.38 2.501 5.048 1.594 9.233-2.629 12.12a8.822 8.822 0 0 1-6.794 1.343 9.553 9.553 0 0 1-1.04-.254Zm-6.912-12.168a4.075 4.075 0 0 0-2.199.011c-1.019.255-1.597.733-1.715 1.427a2.704 2.704 0 0 0 1.209 2.409l.19.125c1.556 1.01 3.9 2.531 5.05 4.23a9.98 9.98 0 0 0 5.635 3.222 7.74 7.74 0 0 0 6.02-1.22c3.811-2.555 4.56-6.218 2.278-10.782-1.384-2.788-4.663-5.435-8.007-4.827-3.696.669-4.41 1.775-4.632 2.763-.303 1.428.013 2.921.662 3.239 1.219.566 2.725 1.264 2.355 2.74a1.35 1.35 0 0 1-1.145.922 2.747 2.747 0 0 1-2.693-1.368l-.094-.142c-.733-1.118-1.55-2.337-2.914-2.749Z" fill="#004FAB"/><path d="M252.981 277.161a2.269 2.269 0 1 0 1.312-4.344 2.269 2.269 0 0 0-1.312 4.344Z" fill="#1EA6F9"/><path d="M252.834 277.648a2.783 2.783 0 0 1-1.181-4.613 2.782 2.782 0 0 1 3.495-.395 2.786 2.786 0 0 1-1.191 5.112 2.77 2.77 0 0 1-1.123-.104Zm1.312-4.344a1.76 1.76 0 1 0 .007.002l-.007-.002Z" fill="#004FAB"/><path d="M245.606 243.933c.897.584 2.65.396 3.205.19.797-.298 1.889-1.547 2.192-1.112.303.435.366 1.663-1.2 2.13-1.565.467-3.672 1.004-3.842 3.762-.17 2.759 2.427 2.632 3.565 1.693 1.137-.94 2.955-2.475 4.557-2.948 1.601-.472 6.262-4.02 4.737-9.145-1.525-5.125-5.782-5.128-8.34-4.727-2.558.4-5.729 2.388-6.11 5.47-.381 3.082.208 4.022 1.236 4.687Z" fill="#1EA6F9"/><path d="M248.334 251.692a2.666 2.666 0 0 1-1.675-.215c-.499-.247-1.308-.92-1.179-2.587.182-3.034 2.527-3.729 4.072-4.185l.143-.025a1.319 1.319 0 0 0 .947-.722.807.807 0 0 0 .04-.413c-.16.101-.363.254-.52.369a5.138 5.138 0 0 1-1.142.697c-.596.227-2.559.482-3.663-.237-1.419-.923-1.83-2.38-1.467-5.216.408-3.227 3.691-5.425 6.542-5.883 4.621-.716 7.704 1.052 8.915 5.116a7.347 7.347 0 0 1-.608 5.725 8.982 8.982 0 0 1-4.469 4.068c-1.404.417-3.121 1.81-4.232 2.73l-.142.12a3.397 3.397 0 0 1-1.562.658Zm2.329-9.25a.79.79 0 0 1 .57.112.724.724 0 0 1 .208.212 1.776 1.776 0 0 1 .139 1.548 2.247 2.247 0 0 1-1.608 1.337l-.143.024c-1.497.441-3.196.945-3.339 3.256-.052.82.166 1.359.642 1.602a2.128 2.128 0 0 0 2.079-.355l.142-.12c1.189-.941 2.962-2.439 4.597-2.925a8.115 8.115 0 0 0 3.86-3.574 6.26 6.26 0 0 0 .522-4.936c-1.056-3.544-3.668-5.016-7.765-4.383-2.523.432-5.346 2.389-5.683 4.992-.392 3.018.288 3.757 1.015 4.253.871.352 1.835.4 2.738.137.32-.155.621-.345.899-.567a3.036 3.036 0 0 1 1.124-.627l.003.014Z" fill="#004FAB"/><path d="M246.863 255.824a1.862 1.862 0 1 0-.626-3.67 1.862 1.862 0 0 0 .626 3.67Z" fill="#1EA6F9"/><path d="M246.944 256.334a2.376 2.376 0 0 1-2.398-3.626 2.383 2.383 0 0 1 1.489-1.043 2.383 2.383 0 0 1 2.855 2.741 2.363 2.363 0 0 1-.981 1.535 2.37 2.37 0 0 1-.851.373l-.114.02Zm-.627-3.67-.065.011a1.341 1.341 0 0 0-1.038 1.078 1.345 1.345 0 0 0 1.613 1.553 1.331 1.331 0 0 0 1.032-1.6 1.352 1.352 0 0 0-1.535-1.043l-.007.001Z" fill="#004FAB"/><path d="M281.793 257.082a1.871 1.871 0 0 1-.46.266 1.263 1.263 0 0 1-.459.092.78.78 0 0 1-.386-.096.624.624 0 0 1-.252-.269c-.242-.471.188-.974.804-1.45.617-.476 1.17-.723 1.389-.274a.607.607 0 0 1 .171.368 1.06 1.06 0 0 1-.068.488c-.063.171-.163.34-.292.492a1.823 1.823 0 0 1-.447.383Zm-2.976 1.467c-.423.189-.876.066-.94-.084-.065-.15.258-.371.71-.52.452-.149.803-.269.867-.119.064.15-.13.504-.637.723Z" fill="#fff"/><path d="M136.919 131.269a1.337 1.337 0 0 1-.379 0 1.297 1.297 0 0 1-.869-1.614c.318-1.1 8.095-27.024 19.48-28.589 8.278-1.15 16.349 13.121 17.242 14.747a1.324 1.324 0 0 1-.514 1.773 1.289 1.289 0 0 1-1.438-.134 1.302 1.302 0 0 1-.323-.392c-2.189-3.986-9.049-14.184-14.674-13.451-8.082 1.052-15.26 19.663-17.302 26.731a1.3 1.3 0 0 1-1.223.929Z" fill="#070707"/><path d="M149.808 125.18a1.422 1.422 0 0 1-.38 0 1.31 1.31 0 0 1-.868-1.627c.33-1.088 2.128-6.566 5.185-7.251 2.519-.575 4.708 2.874 5.307 3.95a1.293 1.293 0 0 1-.593 1.607 1.294 1.294 0 0 1-1.669-.385c-.832-1.479-2.042-2.726-2.446-2.69-1.003.22-2.519 3.057-3.24 5.466a1.303 1.303 0 0 1-1.296.93Zm105.944 60.052a1.293 1.293 0 0 1-.856-2.262c4.439-3.962 15.616-15.579 14.014-21.766-1.724-6.652-16.851-8.768-22.537-9.012a1.299 1.299 0 0 1-1.223-1.358 1.33 1.33 0 0 1 1.358-1.222c.905 0 22.377 1.1 24.921 11.005 2.286 8.829-13.035 22.793-14.796 24.346-.25.196-.564.291-.881.269Z" fill="#070707"/><path d="M253.086 172.368a1.292 1.292 0 0 1-1.192-.784 1.295 1.295 0 0 1 .251-1.405 30.822 30.822 0 0 0 4.059-5.136 23.584 23.584 0 0 0-5.563-1.308 1.303 1.303 0 1 1 .354-2.58c7.227.966 7.679 2.446 7.863 3.057.183.611.599 2.005-4.891 7.753a1.3 1.3 0 0 1-.881.403Zm-119.982 54.427a1.305 1.305 0 0 1-1.223-.856 36.293 36.293 0 0 1-.281-19.785c-13.683-8.804-21.424-35.217-15.982-55.185 5.405-19.773 22.524-29.189 23.27-29.629a1.295 1.295 0 0 1 1.755.532 1.295 1.295 0 0 1-.532 1.755c-.172.085-16.912 9.354-22.011 28.027-5.282 19.381 2.311 45.06 15.64 52.825l.856.514-.257.966a34.12 34.12 0 0 0 0 19.088 1.295 1.295 0 0 1-.783 1.663 1.128 1.128 0 0 1-.452.085Zm117.708-74.604a1.298 1.298 0 0 1-1.223-.941c0-.135-4.634-14.674-29.641-27.611-23.747-12.289-51.236-10.419-51.517-10.419a1.3 1.3 0 0 1-.947-.322 1.3 1.3 0 0 1-.435-.9 1.221 1.221 0 0 1 1.223-1.382c.281 0 28.492-1.908 52.874 10.724 26.083 13.512 30.718 28.565 30.913 29.188a1.31 1.31 0 0 1-.892 1.615c-.116.033-.235.05-.355.048Zm-32.43 105.15a7.58 7.58 0 0 1-3.044-.77c-5.54-2.519-11.727-10.064-12.51-23.515a1.324 1.324 0 0 1 1.223-1.382 1.31 1.31 0 0 1 1.382 1.223c.758 13.317 6.884 18.734 9.477 20.446 2.03 1.333 3.436 1.455 3.668 1.357.722-.575.722-.575 0-1.895a10.566 10.566 0 0 1-.954-2.263c-.587-1.956.563-4.023 2.446-7.471a75.355 75.355 0 0 0 7.056-16.373l.195-.661.661-.208c33.211-10.626 30.46-42.92 30.325-44.29a1.297 1.297 0 1 1 2.58-.257c0 .355 3.094 35.315-31.463 46.81a78.794 78.794 0 0 1-7.08 16.239c-1.406 2.543-2.519 4.561-2.25 5.466.209.614.483 1.205.82 1.76.746 1.309 1.846 3.277-.722 5.258a2.764 2.764 0 0 1-1.81.526Z" fill="#070707"/><path d="M181.637 255.385a147.2 147.2 0 0 1-33.823-4.268c-2.714-.599-4.891-1.088-6.456-1.296-2.813-.367-5.76.807-8.621 1.944-3.314 1.333-6.444 2.581-9.232 1.309-5.087-2.348-5.026-5.16-4.769-6.261a5.013 5.013 0 0 1 4.585-3.424c.563-9.11 8.707-17.67 9-18a1.308 1.308 0 0 1 2.128.421 1.299 1.299 0 0 1-.281 1.414c-.086.097-8.438 8.865-8.291 17.425v1.369h-1.357c-1.859-.061-3.106.709-3.29 1.48-.183.77.587 2.042 3.326 3.301 1.773.807 4.402-.244 7.178-1.357 3.021-1.223 6.444-2.58 9.929-2.115 1.725.232 3.913.721 6.677 1.345a142.875 142.875 0 0 0 35.131 4.194c20.348-.306 26.303-1.529 26.364-1.541a1.3 1.3 0 1 1 .551 2.544c-.245 0-6.114 1.284-26.902 1.589l-1.847-.073Zm48.497.648h-1.113c-4.794-.306-8.266-.611-8.303-.611a1.304 1.304 0 0 1-1.18-1.413 1.3 1.3 0 0 1 1.412-1.18s3.473.306 8.242.612c4.476.281 4.622-1.333 4.708-2.446 0-.269-1.003-.99-2.703-1.443l-.917-.232v-.954c-.134-2.592-4.267-11.225-5.294-12.583a1.292 1.292 0 0 1-.587-.868 1.295 1.295 0 0 1 1.039-1.504 1.537 1.537 0 0 1 1.149.293c1.223.979 5.356 9.648 6.114 13.586 2.544.856 3.938 2.287 3.803 3.925-.293 3.241-2.372 4.818-6.37 4.818Zm-69.236-47.641h-.11a1.296 1.296 0 0 1-1.222-1.394c1.222-16.642 9.342-21.228 13.218-23.429.485-.252.951-.538 1.394-.856a.836.836 0 0 0-.122-.77c-.232-.318-1.394-1.309-5.906-1.333-15.542 0-27.416 21.13-27.526 21.338a1.304 1.304 0 0 1-2.393-.262 1.28 1.28 0 0 1 .119-.985c.538-.942 12.741-22.671 29.812-22.671h.196c4.072 0 6.627.782 7.813 2.445a3.499 3.499 0 0 1 .477 3.192c-.293.954-1.223 1.467-2.555 2.238-3.485 1.981-10.749 6.114-11.911 21.362a1.295 1.295 0 0 1-1.284 1.125Z" fill="#070707"/><path d="M124.287 241.505c-3.044 0-12.79-.501-19.296-6.493a19.056 19.056 0 0 1-5.98-14.025c-.66-21.51 26.658-22.953 26.903-22.965a1.298 1.298 0 0 1 .11 2.593c-1.027 0-25.031 1.345-24.457 20.298a16.538 16.538 0 0 0 5.136 12.228c6.848 6.31 18.22 5.809 18.342 5.796a1.31 1.31 0 0 1 1.358 1.223 1.295 1.295 0 0 1-1.223 1.37l-.893-.025Z" fill="#070707"/><path d="M81.935 43.16c-3.136 28.046 40.911 40.987 66.564 43.514 35.879 4.012 46.195 2.095 55.183 1.565L207.5 100l16.513-15.627c12.294-2.719 66.168-6.672 64.995-38.27-1.275-34.321-75.499-41.188-101.424-42.04-25.926-.852-101.492 1.92-105.65 39.097Z" fill="#fff"/><path d="M127.101 22.316a.85.85 0 0 1 .511.294.805.805 0 0 1 .217.543.485.485 0 0 1-.015.14.938.938 0 0 1-.124.247.233.233 0 0 1-.171.062c-.103 0-.258-.051-.465-.155-.103.176-.16.29-.17.341-.042.155-.098.32-.171.496-.093.114-.232.445-.418.992-.176.548-.264.904-.264 1.07a12.52 12.52 0 0 0-.232.79c-.104.382-.222.8-.357 1.256a1030.53 1030.53 0 0 0-.883 3.053c-.01.165-.036.366-.078.604-.02.155-.041.377-.062.667.011.02.016.056.016.108a.251.251 0 0 1-.14.233c-.134.113-.32.17-.558.17-.258 0-.439-.067-.542-.201-.155-.269-.217-.476-.186-.62.031-.362.114-.94.248-1.736.062-.3.129-.563.201-.79.073-.238.119-.342.14-.31l.31-1.117c.062-.175.108-.346.139-.511.042-.176.073-.294.093-.356a9.98 9.98 0 0 1 .295-1.1c.145-.342.294-.853.449-1.535.062-.227.145-.486.248-.775.114-.29.186-.44.217-.45a8.583 8.583 0 0 0-.821.124c-.3.062-.599.109-.899.14l-1.054.155a22.09 22.09 0 0 1-.93.124l-1.116 2.588-.79 2.062c-.217.733-.45 1.451-.698 2.154-.031.103-.098.31-.201.62a8.06 8.06 0 0 0-.264.976l-.108.543a.907.907 0 0 1-.248.34.5.5 0 0 1-.341.109c-.32 0-.553-.057-.697-.17-.135-.114-.202-.295-.202-.543a6.62 6.62 0 0 1 .186-.511c.062-.166.109-.316.14-.45.072-.29.144-.547.217-.775l.123-.372c.331-1.136.61-1.983.837-2.541l.419-1.178c.031-.062.088-.212.17-.45l.543-1.612a6.95 6.95 0 0 0 .527-1.348.7.7 0 0 1-.109-.388.64.64 0 0 1 .14-.418.518.518 0 0 1 .403-.17c.072 0 .124.005.155.015.175.052.475.088.899.108.423.01.64.01.651 0 .103-.051.594-.139 1.472-.263.889-.124 1.762-.238 2.619-.341l.171-.016c.093 0 .279.026.558.078Zm1.093 11.283a6.66 6.66 0 0 1-.93-.806c-.217-.237-.331-.465-.341-.682a1.58 1.58 0 0 1-.016-.279c0-.29.026-.65.078-1.085.051-.434.103-.78.155-1.038.041-.041.062-.103.062-.186.01-.083.01-.134 0-.155 0-.031.025-.134.077-.31a8.96 8.96 0 0 0 .264-.961c.279-.847.552-1.524.821-2.03.269-.507.568-.982.899-1.426.703-.723 1.452-1.271 2.247-1.643.403-.238.693-.357.868-.357a.46.46 0 0 1 .14.032c1.271.279 2.03 1.084 2.278 2.417.093.63.139 1.106.139 1.426a4.68 4.68 0 0 1-.279 1.566c-.186.526-.521 1.188-1.007 1.983-.413.827-.883 1.535-1.41 2.124-.517.578-1.039 1.012-1.566 1.302-.516.289-1.002.434-1.457.434-.403 0-.743-.109-1.022-.326Zm1.239-1.023c.248-.03.44-.077.574-.14.145-.061.289-.165.434-.31.155-.154.403-.428.744-.82.434-.497.739-.858.914-1.086.176-.237.336-.532.481-.883.155-.351.325-.858.511-1.519l.093-.356c.062-.217.103-.393.124-.527.031-.145.047-.3.047-.465l-.016-.977a2.75 2.75 0 0 0-.108-.604c-.062-.217-.135-.372-.217-.465a.955.955 0 0 0-.341-.233.874.874 0 0 0-.419-.108c-.103 0-.222.026-.356.077-.197.083-.47.305-.822.667-.351.351-.666.713-.945 1.085-.269.372-.403.62-.403.744 0 .01-.005.041-.016.093a.336.336 0 0 1-.062.14c-.268.288-.542.898-.821 1.828-.269.93-.424 1.741-.465 2.433-.01.3-.01.507 0 .62.021.114.078.243.171.388.072.113.201.222.387.325.196.093.367.124.511.093Zm16.57 1.24c-.228 0-.533-.057-.915-.17-.382-.104-.64-.295-.775-.574l-.263-.294c-.29-.31-.45-.491-.481-.543l-.496-.496a34.93 34.93 0 0 1-.573-.558 4.77 4.77 0 0 1-.403-.511c-.124-.124-.274-.341-.45-.651a2.318 2.318 0 0 0-.201-.31c-.062-.103-.119-.165-.171-.186-.113.083-.196.274-.247.573-.104.217-.217.584-.341 1.1a4.543 4.543 0 0 0-.217.605 15.78 15.78 0 0 1-.109.419c-.103.289-.181.46-.232.511l-.14.605c-.103.526-.258.79-.465.79-.134 0-.325-.108-.573-.325l-.217-.341c-.135-.197-.202-.305-.202-.326.021-.052.057-.155.109-.31l.186-.604.263-.822c.403-1.198.661-2.035.775-2.51a.234.234 0 0 0 .062-.125.896.896 0 0 0 .016-.17c.103-.31.273-.775.511-1.395.238-.63.419-1.044.543-1.24a.678.678 0 0 0 .062-.186.98.98 0 0 0 .015-.124c0-.041.01-.077.031-.108a.23.23 0 0 1 .108-.062c0-.135.026-.233.078-.295.072-.155.227-.578.465-1.27.248-.693.372-1.06.372-1.101a.25.25 0 0 1 .062-.155c.041-.052.067-.083.077-.093.083-.072.223-.108.419-.108.176 0 .351.04.527.123a.83.83 0 0 1 .403.295c0 .072-.021.18-.062.326a2.991 2.991 0 0 1-.14.433l-.294.667a13.87 13.87 0 0 1-.186.542c-.093.28-.212.615-.357 1.008a12.19 12.19 0 0 0-.511 1.147c-.124.33-.165.516-.124.558.072-.052.227-.181.465-.388.248-.217.511-.46.79-.728a14.05 14.05 0 0 1 1.752-1.52 36.444 36.444 0 0 1 1.441-.945c.196-.113.377-.175.542-.186a.458.458 0 0 1 .171-.03c.041 0 .093.02.155.061.062.042.124.078.186.109.031.062.062.17.093.325.041.145.067.243.077.295.011.103-.051.232-.186.387a1.654 1.654 0 0 1-.527.388 40.562 40.562 0 0 0-2.743 1.875c-1.012.744-1.57 1.24-1.674 1.488-.051.062-.062.119-.031.17.031.052.093.124.186.217.104.083.192.155.264.217.134.166.237.3.31.403.082.093.134.155.155.186 0 .062.341.419 1.023 1.07.02.051.124.18.31.387.268.29.454.522.558.698.671.702 1.007 1.219 1.007 1.55 0 .154-.088.232-.263.232Zm7.84.589a.705.705 0 0 1-.232-.062.69.69 0 0 1-.233-.14c-.124-.123-.186-.31-.186-.558 0-.557-.01-.924-.031-1.1l-.015-.93c0-.237.015-.382.046-.434a1.326 1.326 0 0 1-.015-.232c0-.093.005-.202.015-.326.021-.134.031-.237.031-.31l-.062-.418h-.837c-.062.01-.196.015-.403.015-.279 0-.945-.03-1.999-.093l-.201.326a3.8 3.8 0 0 0-.155.201c-.083.124-.171.31-.264.558-.093.248-.217.532-.372.853-.144.32-.279.568-.403.744-.155.289-.299.5-.434.635-.124.134-.217.202-.279.202h-.077a.504.504 0 0 1-.186-.031.634.634 0 0 1-.186-.109c-.279-.124-.419-.31-.419-.558 0-.175.083-.382.248-.62l.202-.325c0-.062.15-.388.449-.977.31-.599.512-.92.605-.96.093-.094.139-.187.139-.28 0-.103-.062-.206-.186-.31a.263.263 0 0 1-.108-.124.623.623 0 0 1-.031-.201c0-.145.051-.269.155-.372.103-.103.263-.15.48-.14a2.04 2.04 0 0 1 .14-.077c.051-.02.088-.036.108-.046.031-.021.047-.047.047-.078 0-.052.082-.238.248-.558.175-.33.33-.579.465-.744.103-.279.191-.48.263-.604.083-.124.134-.212.155-.264.052-.051.155-.222.31-.511.021-.031.088-.145.202-.341.103-.104.206-.222.31-.357.113-.144.186-.237.217-.279.041-.072.103-.16.186-.263a2.12 2.12 0 0 1 .278-.45c.135-.186.217-.3.248-.34.155-.187.341-.336.558-.45.217-.124.419-.186.605-.186.103 0 .191.016.263.047.259.113.486.325.682.635.197.31.31.671.341 1.085.011.072.031.232.062.48.042.248.062.465.062.651a.946.946 0 0 1-.046.326v.682c0 .34.01.594.031.76a2.35 2.35 0 0 0-.047.557l.016.604c0 .155-.005.285-.016.388l-.015.573-.016.574c-.01.258-.015.584-.015.976l.015 1.225c0 .702-.062 1.214-.186 1.534-.113.32-.289.496-.527.527Zm-3.13-5.797a5.563 5.563 0 0 1 1.053-.061c.29-.021.481-.032.574-.032.134 0 .269.006.403.016a.99.99 0 0 0 .248-.015c.196.01.294-.171.294-.543a27.949 27.949 0 0 1-.108-2.356l.015-.48a3.21 3.21 0 0 0-.046-.527 7.83 7.83 0 0 0-.047-.372c-.041-.052-.191.119-.449.511-.248.393-.46.744-.636 1.054a3.206 3.206 0 0 0-.248.434 6.465 6.465 0 0 0-.17.295 3.59 3.59 0 0 1-.201.372c-.507.806-.76 1.322-.76 1.55 0 .072.026.123.078.154Zm6.16 4.882a.767.767 0 0 1-.574-.294c-.155-.176-.243-.351-.263-.527.031-.051.062-.15.093-.294.031-.155.062-.243.093-.264a3.6 3.6 0 0 1 .093-.418c.051-.207.087-.398.108-.574a5.97 5.97 0 0 0 .202-.542c.051-.186.103-.33.155-.434.031-.083.067-.186.108-.31.041-.124.078-.212.109-.264.02-.072.067-.217.139-.434.072-.216.129-.397.171-.542.041-.155.067-.3.077-.434a2.02 2.02 0 0 0 .217-.589l.155-.325a3.18 3.18 0 0 0 .248-.729 66.584 66.584 0 0 1 .635-1.519c.062-.124.124-.273.186-.45l.202-.604c0-.082.108-.32.325-.713.073-.134.15-.253.233-.356.082-.114.139-.176.17-.186.135-.052.253-.078.357-.078.217 0 .398.073.542.218.145.144.217.294.217.449 0 .083-.02.15-.062.201-.041.062-.258.564-.651 1.504l-.387.883a22.66 22.66 0 0 1-.31.79 5.185 5.185 0 0 0-.171.512 2.719 2.719 0 0 0-.294.667 4.079 4.079 0 0 1-.14.449 4.823 4.823 0 0 1-.186.387l-.155.341c0 .27-.041.455-.124.558a2.517 2.517 0 0 1-.093.264l-.062.124c-.01.062-.025.129-.046.201a1.267 1.267 0 0 0-.047.186c-.072.207-.217.693-.434 1.457-.175.662-.325 1.106-.449 1.333-.124.238-.253.357-.387.357Zm6.091-.526c-.021.04-.109.04-.264 0a2.734 2.734 0 0 1-.511-.202 1.845 1.845 0 0 1-.434-.34c-.279-.197-.584-.497-.915-.9a8.294 8.294 0 0 1-.821-1.24l-.171-.356a2.52 2.52 0 0 0-.124-.248c-.041-.072-.088-.109-.139-.109-.104.01-.212-.118-.326-.387a8.67 8.67 0 0 1-.263-.837.745.745 0 0 1 .093-.294c.062-.104.134-.15.217-.14.01-.052.212-.29.604-.713.403-.424.832-.852 1.287-1.286.465-.445.806-.744 1.023-.9.082-.113.165-.211.248-.294l.139-.062a.964.964 0 0 0 .202-.155.698.698 0 0 0 .217-.17 1.1 1.1 0 0 0 .155-.217c.062-.031.149-.088.263-.17.114-.083.243-.166.387-.249a5.81 5.81 0 0 0 .357-.217c.093-.062.15-.103.17-.124.135 0 .274.026.419.078a.717.717 0 0 1 .372.279.494.494 0 0 1 .062.248c0 .093-.021.18-.062.263a.553.553 0 0 1-.14.186.907.907 0 0 1-.248.341c-.093.073-.222.15-.387.233a7.65 7.65 0 0 0-.202.108c-.103.052-.201.13-.294.233-.134.144-.346.31-.635.496-.021.02-.104.077-.248.17a1.449 1.449 0 0 0-.388.326 8.812 8.812 0 0 0-.511.542c-.248.31-.481.548-.698.713a.5.5 0 0 0-.108.047c-.062.02-.166.093-.31.217a5.659 5.659 0 0 0-.558.526l.31.667a31.182 31.182 0 0 0 1.364 1.798c.341.392.651.625.93.697.155.052.284.17.387.357.072.03.108.124.108.279 0 .186-.051.367-.155.542a.474.474 0 0 1-.402.264Zm4.432.526c-.155 0-.393-.061-.713-.185a4.803 4.803 0 0 1-.883-.465c-.279-.186-.46-.372-.543-.558l-.031-.062a2.147 2.147 0 0 1-.232-1.597l.077-.325c.093-.32.14-.584.14-.79.051-.063.129-.166.232-.31a3.28 3.28 0 0 0 .202-.295.395.395 0 0 0 .031-.14v-.232c0-.072.025-.145.077-.217a.85.85 0 0 1 .155-.17.886.886 0 0 1 .124-.093l.062.015c.021 0 .098-.15.233-.45.134-.31.263-.635.387-.976.517-.95 1.095-1.74 1.736-2.371.641-.64 1.209-1.07 1.705-1.286a1.96 1.96 0 0 1 .232-.032l.326-.03c.196.01.434.056.713.139.279.083.428.145.449.186 0 .041.01.067.031.077.031.01.052.016.062.016.093-.01.258.14.496.45.248.299.429.583.543.852.124.196.185.527.185.992 0 .392-.056.883-.17 1.472-.114.579-.227.992-.341 1.24-.269.744-.61 1.53-1.023 2.356-.413.826-.79 1.25-1.131 1.27-.011 0-.021.011-.031.032-.011.01-.016.03-.016.062 0 .03-.139.165-.418.403-.269.237-.507.434-.713.589l-.295.108a4.458 4.458 0 0 1-.852.217c-.32.062-.589.098-.806.109Zm.016-1.41c.444 0 .764-.01.96-.03.197-.021.403-.089.62-.202.228-.124.47-.336.729-.636.103-.186.186-.31.248-.372.01-.02.093-.165.248-.434.155-.268.299-.403.434-.403 0-.051.041-.19.124-.418.082-.238.144-.372.186-.403.02-.01.072-.124.155-.341.082-.227.16-.475.232-.744.072-.269.109-.49.109-.666.186-.197.268-.305.248-.326a.232.232 0 0 1-.016-.062v-.155c0-.3.021-.455.062-.465.052-.02.078-.036.078-.046a.18.18 0 0 0-.062-.062c-.021-.021-.031-.042-.031-.062 0-.01.015-.031.046-.062a.168.168 0 0 0 .047-.124c-.021-.259-.166-.708-.434-1.349a.863.863 0 0 1-.124-.108.385.385 0 0 0-.171-.124.352.352 0 0 0-.186-.047c-.041 0-.113.01-.217.031-.041-.041-.082-.062-.124-.062a.34.34 0 0 0-.108.016l-.078.03a1.384 1.384 0 0 0-.511.218 5.373 5.373 0 0 0-.496.496l-.264.279a1.455 1.455 0 0 1-.511.728 1.1 1.1 0 0 0-.186.233 2.3 2.3 0 0 1-.186.232l-.093.186c-.227.372-.47.868-.728 1.488-.259.61-.481 1.188-.667 1.736-.186.547-.279.894-.279 1.038 0 .29.093.522.279.698.196.175.419.273.667.294Zm5.99 1.876c-.155 0-.315-.104-.48-.31-.165-.197-.248-.445-.248-.744 0-.238.057-.47.171-.698a5.93 5.93 0 0 1 .619-1.054c.073-.103.124-.19.155-.263a.701.701 0 0 0 .078-.295c.145-.186.336-.521.573-1.007.403-.651.977-1.653 1.721-3.007.103-.186.305-.553.604-1.1.31-.548.517-.873.62-.977l.078-.108c-.031.052.02-.067.155-.357.144-.289.294-.547.449-.774.165-.238.31-.357.434-.357.134 0 .289.057.465.17.176.104.325.264.449.48.135.208.202.456.202.745 0 .124-.005.222-.016.294l-.155 1.054-.077.341c-.134.682-.336 1.617-.604 2.805-.238 1.054-.357 1.69-.357 1.907 0 .062.01.113.031.155.021.03.047.046.078.046.02 0 .072-.03.155-.093a.922.922 0 0 0 .216-.31l.202-.31.263-.387c.29-.403.646-.945 1.07-1.628a144.72 144.72 0 0 0 2.061-3.549c.196-.289.357-.542.481-.76.165-.268.325-.52.48-.758.155-.238.274-.388.357-.45a.598.598 0 0 1 .387-.124c.155.01.315.067.48.17.176.104.321.248.434.434.124.186.186.388.186.605 0 .248-.077.703-.232 1.364a21.657 21.657 0 0 1-.512 1.922c-.041.217-.17.728-.387 1.534-.165.6-.289 1.075-.372 1.426a4.452 4.452 0 0 0-.108.852v.124c-.155.28-.233.837-.233 1.674-.041.341-.119.605-.232.79-.114.197-.207.295-.279.295l-.047-.015a.248.248 0 0 0-.155.062c-.041.051-.103.077-.186.077-.258 0-.429-.093-.511-.279-.073-.186-.109-.44-.109-.76 0-.185.005-.34.016-.464.031-.269.361-1.669.992-4.2.496-1.984.744-3.023.744-3.116l-.217.372c-.207.393-.465.853-.775 1.38l-1.085 2.03a4.55 4.55 0 0 0-.341.542 5.557 5.557 0 0 0-.14.31c-.124.248-.372.605-.744 1.07a2.594 2.594 0 0 0-.217.294c-.051.114-.217.315-.496.605a8.931 8.931 0 0 1-.883.775c-.31.227-.568.34-.775.34-.279 0-.532-.134-.759-.402a1.505 1.505 0 0 1-.326-.977c0-.279.052-.744.155-1.395.165-.713.341-1.436.527-2.17.186-.733.315-1.213.388-1.44a.976.976 0 0 0 .046-.31c0-.073-.01-.12-.031-.14-.01 0-.026.01-.046.03a24.69 24.69 0 0 0-.775 1.38 40.33 40.33 0 0 0-1.07 2.185c-1.477 2.718-2.325 4.2-2.542 4.448Zm20.339-11.547c.186.052.341.16.465.326a.843.843 0 0 1 .139.805c-.02.104-.087.274-.201.512l-.589 1.364c-.341.816-.548 1.281-.62 1.395-.258.527-.486.945-.682 1.255a35.983 35.983 0 0 1-1.1 1.798c-.093.145-.29.418-.589.821a18.1 18.1 0 0 1-.605.79 5.367 5.367 0 0 1-.558.698c-.186.207-.454.486-.806.837l-.371.388a3.357 3.357 0 0 1-.434.449.561.561 0 0 1-.465.248.629.629 0 0 1-.341-.108c-.279-.176-.419-.367-.419-.574 0-.062.016-.134.047-.217.031-.072.217-.284.558-.635.341-.362.625-.646.852-.853.413-.475.672-.78.775-.914a6.321 6.321 0 0 1-.635-1.054c-.186-.403-.305-.723-.357-.961l-.263-1.364a.995.995 0 0 0 0-.341 12.016 12.016 0 0 1-.031-.186l-.047-2.743.109-1.364v-.232c0-.135.036-.259.108-.372.072-.114.191-.17.357-.17.206-.032.418.056.635.262.217.197.325.398.325.605 0 .072-.015.14-.046.202a.413.413 0 0 0-.047.186v.185c0 .104-.005.186-.015.248-.021.207-.041.496-.062.868-.01.372-.016.755-.016 1.147 0 .31.006.512.016.605l.139 1.348c.011.217.078.553.202 1.008.134.444.263.826.387 1.146l.202-.263c.155-.176.258-.326.31-.45.072-.165.191-.377.356-.635.124-.186.207-.326.248-.419.114-.206.222-.392.326-.557a6.54 6.54 0 0 0 .294-.496l1.008-1.907c.072-.237.149-.465.232-.682.093-.268.181-.552.264-.852.093-.3.155-.563.186-.79.062-.238.201-.357.418-.357h.14a.657.657 0 0 1 .201 0Zm5.179 12.074a4.261 4.261 0 0 0-.232-.047.9.9 0 0 0-.279-.016 1.06 1.06 0 0 1-.512-.263c-.155-.145-.217-.294-.186-.45.031-.03.057-.113.078-.247.02-.124.031-.238.031-.341.041-.114.087-.28.139-.496.062-.465.222-1.235.481-2.31.268-1.085.439-1.663.511-1.735l-.016-.171a1.222 1.222 0 0 1 .155-.496 2.44 2.44 0 0 0 .093-.356 1.28 1.28 0 0 0 .047-.28c.021-.03.093-.216.217-.557l.155-.434c.062-.197.145-.43.248-.698l.201-.527v-.077c.042-.052.155-.326.341-.822.093-.206.181-.418.264-.635.093-.227.186-.45.279-.666.031-.063.077-.15.139-.264.062-.114.093-.191.093-.232.042-.083.145-.125.31-.125.135 0 .269.032.403.093a.55.55 0 0 1 .279.248l.357.248-.527 1.132a16.39 16.39 0 0 0-.372.79c-.104.248-.155.393-.155.434-.021.073-.067.222-.14.45-.072.227-.15.485-.232.775-.042.144-.145.45-.31.914a1.998 1.998 0 0 0-.109.295c0-.042.558-.083 1.674-.124.186-.01.527-.026 1.023-.047.506-.03.822-.062.946-.093l.79-.108.372-1.38a43.93 43.93 0 0 1 .604-2.139c.135-.444.295-.785.481-1.023.186-.247.346-.372.48-.372.259 0 .47.186.636.559.124.103.186.222.186.356 0 .134-.078.336-.233.604-.134.248-.294.662-.48 1.24a3.644 3.644 0 0 1-.155.48v.063c0 .196-.047.34-.14.434-.031.03-.098.175-.201.434-.093.258-.14.408-.14.45a.703.703 0 0 1-.031.278.53.53 0 0 1-.108.217c-.011.041-.109.455-.295 1.24-.186.785-.372 1.416-.558 1.89.011.052-.01.145-.062.28a1.168 1.168 0 0 0-.062.279c-.155.496-.227.775-.217.837-.051.237-.149.666-.294 1.286-.093.413-.14.625-.14.636-.01.02-.056.03-.139.03-.165 0-.341-.036-.527-.108a.985.985 0 0 1-.372-.34.747.747 0 0 1-.139-.435.78.78 0 0 1 .077-.356c.041-.073.119-.383.233-.93l.155-.667c.051-.165.108-.408.17-.728.072-.33.124-.563.155-.698.093-.537.155-.821.186-.852v-.155c-.031-.031-.217-.047-.558-.047-.351 0-.765.021-1.24.063-.475.03-.899.077-1.271.139l-.434.016a3.34 3.34 0 0 0-.418.015 1.91 1.91 0 0 0-.264.015h-.139c-.041.093-.16.538-.357 1.333-.196.796-.31 1.307-.341 1.535-.093.475-.201.981-.325 1.519-.114.547-.207.96-.279 1.24Zm10.986-1.287a2.19 2.19 0 0 1-1.147-.93c-.279-.454-.418-.992-.418-1.612 0-.248.02-.475.062-.682a4.78 4.78 0 0 1 .186-.945 3.56 3.56 0 0 0 .139-.574c0-.02.01-.056.031-.108.021-.052.026-.093.016-.124.062-.155.149-.372.263-.65.124-.28.202-.435.233-.466.041-.02.062-.046.062-.077a.26.26 0 0 0 .015-.062c0-.135.14-.424.418-.868.29-.445.6-.879.93-1.302.331-.424.527-.636.589-.636.021 0 .047-.02.078-.062.031-.051.052-.077.062-.077.072-.083.361-.233.868-.45.506-.227.909-.377 1.209-.449.206-.072.418-.108.635-.108.527 0 .956.248 1.286.743.331.486.502 1.163.512 2.03a5.815 5.815 0 0 0-.078.683c-.02.237-.036.372-.046.403-.01.31-.078.697-.202 1.162-.113.455-.191.687-.232.698 0 .03-.01.067-.031.108a.245.245 0 0 0-.031.108c.01.093-.124.419-.403.977-.279.548-.439.827-.48.837a.12.12 0 0 0-.047.015c-.01.01-.01.031 0 .062s-.072.124-.248.28c-.165.154-.284.232-.356.232-.011 0-.021.005-.031.015 0 .01.01.031.031.062.02.031-.13.166-.45.403-.31.238-.646.47-1.007.698-.362.217-.636.346-.822.387a.266.266 0 0 1-.139.078.453.453 0 0 1-.078.015c-.072.072-.206.134-.403.186a2.08 2.08 0 0 1-.558.078 1.07 1.07 0 0 1-.418-.078Zm1.565-1.627c.31-.104.62-.269.93-.496.31-.238.496-.455.558-.651.052-.186.124-.315.217-.388.176-.175.408-.578.698-1.208.299-.641.454-1.075.465-1.302 0-.062.015-.16.046-.295a.933.933 0 0 1 .109-.31c.02-.03.025-.098.015-.201a5.848 5.848 0 0 1-.015-.48c0-.27.005-.502.015-.698-.031-.672-.134-1.06-.31-1.163-.083-.062-.222-.093-.418-.093a1.116 1.116 0 0 0-.419.108.74.74 0 0 1-.217.047c-.144.083-.217.176-.217.28a.28.28 0 0 1-.124.232c-.072.062-.15.067-.232.015-.186.01-.305.037-.357.078-.051.041-.119.14-.201.294-.073.145-.14.269-.202.372a2.37 2.37 0 0 0-.589.62c-.134.217-.217.398-.248.543-.32.558-.521.95-.604 1.177a5.215 5.215 0 0 0-.186.9c-.083.154-.15.335-.202.542a1.957 1.957 0 0 1-.108.403 1.367 1.367 0 0 0-.031.325c0 .228.015.465.046.713.031.238.073.398.124.48.083.28.264.42.543.42.227 0 .532-.089.914-.264Zm16.003-7.688c0 .052-.015.088-.046.109-.031.01-.047.02-.047.03 0 .011.021.032.062.063l-.108.511a93.76 93.76 0 0 1-.264 1.302 47.168 47.168 0 0 0-.279 1.581l-.217 1.658c-.093.734-.16 1.297-.201 1.69a15.78 15.78 0 0 0-.046 1.24c0 .496.015.873.046 1.131.041.269.062.424.062.465 0 .062-.072.155-.217.279a.722.722 0 0 1-.48.186.624.624 0 0 1-.589-.341c-.124-.217-.197-.558-.217-1.023 0-.692.051-1.617.155-2.774.031-.072.046-.212.046-.419a.93.93 0 0 0-.031-.279 1.45 1.45 0 0 1 .047-.433c.01-.042.02-.099.031-.171.01-.072.015-.14.015-.201 0-.052.021-.16.062-.326.062-.186.093-.33.093-.434v-.108c.031-.093.062-.207.093-.341a1.57 1.57 0 0 0 .062-.264.93.93 0 0 1-.015-.217.6.6 0 0 0-.031-.232c.062-.176.134-.445.217-.806l.186-.744c-.011 0-.124.206-.341.62-.207.403-.46.81-.76 1.224-.238.382-.47.713-.697.992l-.372.48c-.135.176-.264.341-.388.497a1.95 1.95 0 0 0-.248.433c-.217.538-.47.93-.759 1.178-.279.248-.563.388-.853.419l-.248.03h-.093c-.196 0-.361-.128-.495-.387-.124-.258-.186-.738-.186-1.441l.015-.418.047-.868c.031-.176.056-.465.077-.868.021-.414.036-.688.047-.822-.052.052-.145.243-.279.574-.124.33-.202.542-.233.635l-.139.357c-.052.072-.13.268-.233.588-.083.238-.196.527-.341.868a18.013 18.013 0 0 1-.62 1.767 11.412 11.412 0 0 0-.434 1.07 7.176 7.176 0 0 1-.279.666c-.444 1.002-.816 1.504-1.116 1.504-.165 0-.33-.088-.496-.264a.778.778 0 0 1-.232-.542c0-.145.057-.336.17-.574.114-.248.279-.568.496-.96l.326-.605c0-.052.124-.403.372-1.054l.217-.574.961-2.541.015-.062.093-.233c.031-.083.088-.207.171-.372.144-.33.217-.522.217-.573v-.031c0-.031.01-.052.031-.062a.248.248 0 0 1 .062-.016c.041-.113.113-.29.217-.527.113-.248.201-.434.263-.558l-.015-.062a.56.56 0 0 1 .046-.248c.041-.062.083-.119.124-.17.052-.052.093-.098.124-.14a.53.53 0 0 1 .093-.248c.062-.113.134-.227.217-.34a3.35 3.35 0 0 0 .325-.512.51.51 0 0 1 .481-.294c.155 0 .31.061.465.186.155.123.284.263.387.418.104.145.155.243.155.294 0 .031-.015.052-.046.062-.031.01-.047.037-.047.078v.062a.983.983 0 0 1-.062.558c-.093.361-.139.76-.139 1.193l.015.45c0 .082-.02.144-.062.186a2.673 2.673 0 0 0-.077.108v.031l-.016.124.016.093a.979.979 0 0 1-.078.341 4.502 4.502 0 0 0-.093.388 8.823 8.823 0 0 0-.062 1.053c0 .538.047.832.14.884l1.116-1.658c.95-1.406 1.431-2.124 1.441-2.155a.57.57 0 0 0 .202-.232c-.011 0-.016-.01-.016-.031 0-.052.134-.274.403-.667.269-.403.558-.764.868-1.085.31-.33.563-.495.759-.495.093 0 .217.062.372.186.166.123.31.279.434.464.124.176.186.341.186.496Zm4.468 9.827a6.49 6.49 0 0 1-1.224-.45c-.465-.207-.713-.377-.744-.511a.148.148 0 0 0-.062-.124.193.193 0 0 0-.14-.062v-.233c0-.072-.02-.119-.062-.14-.051-.103-.077-.253-.077-.449 0-.32.052-.723.155-1.209.114-.485.238-.92.372-1.302 0-.072.015-.165.046-.279a.877.877 0 0 0 .062-.216c.083-.238.248-.615.496-1.132.248-.517.455-.878.62-1.085 0-.03.036-.098.109-.201.082-.114.139-.228.17-.341.166-.166.388-.486.667-.961.361-.3.511-.569.449-.806.011-.217.098-.372.264-.465.175-.103.485-.207.93-.31a4.09 4.09 0 0 1 .991-.248 12.24 12.24 0 0 1 1.349-.108 3.047 3.047 0 0 1 .527-.078c.031-.031.186-.015.465.046.289.052.547.14.775.264.237.114.351.243.341.387-.011.083-.243.192-.698.326a7.79 7.79 0 0 1-1.224.248l-.388.046c-.599.062-1.033.13-1.302.202a1.692 1.692 0 0 0-.712.372c-.217.186-.465.496-.744.93-.372.578-.558.971-.558 1.178 0 .134.072.201.217.201.093 0 .232-.01.418-.03.196-.032.336-.047.419-.047.051-.021.17-.062.356-.124a3.78 3.78 0 0 1 .651-.14l.682-.14a2.16 2.16 0 0 1 .465-.077c.362 0 .542.124.542.372 0 .134-.067.28-.201.434a1.18 1.18 0 0 1-.496.357 8.943 8.943 0 0 1-.636.216c-.237.073-.387.109-.449.109a.626.626 0 0 1-.155.031c-.072.01-.165.015-.279.015l-.697.093-.512.063c-.083.02-.279.072-.589.155-.31.082-.511.175-.604.279-.093.093-.181.247-.264.464a5.35 5.35 0 0 0-.325 1.1 5.893 5.893 0 0 0-.124 1.117c0 .32.046.527.139.62.228.258.584.387 1.07.387a2.788 2.788 0 0 0 1.519-.434c.196-.155.413-.274.651-.356a.45.45 0 0 1 .232-.093c.052 0 .108.02.17.062a.975.975 0 0 1 .171.108c.062.041.114.078.155.109a.595.595 0 0 1 .124.356c0 .341-.434.692-1.302 1.054a15.5 15.5 0 0 1-1.162.356 3.26 3.26 0 0 1-.791.109l-.248-.015Zm6.912.232a.315.315 0 0 1-.17-.062.453.453 0 0 1-.14-.14.85.85 0 0 1-.201-.263c-.052-.103-.078-.258-.078-.465 0-.361.114-.883.341-1.565.073-.29.15-.569.233-.837.072-.186.108-.326.108-.419 0-.082.011-.175.031-.279.031-.113.047-.19.047-.232.124 0 .237-.212.341-.636.041-.155.077-.284.108-.387a2.8 2.8 0 0 0 .062-.264.567.567 0 0 0 .062-.139 2.43 2.43 0 0 0 .078-.17c.082-.248.181-.486.294-.713.124-.465.269-.951.434-1.457.176-.517.32-.9.434-1.147l.186-.465c.01-.031.031-.088.062-.17a.593.593 0 0 0 .062-.202.105.105 0 0 0-.046-.093c-.073-.052-.109-.155-.109-.31 0-.258.098-.47.295-.635a.877.877 0 0 1 .449-.28c.196-.061.429-.093.697-.093.114 0 .316.01.605.032.124.01.455.015.992.015.062.031.175.078.341.14.351.144.527.232.527.263 0 .052.015.088.046.109.042.02.098.036.171.046.113 0 .315.14.604.418.3.28.506.538.62.775.093.186.155.331.186.434.041.104.062.233.062.388 0 .062-.01.175-.031.34a6.86 6.86 0 0 1-.077.481c-.031.155-.068.253-.109.295-.165.124-.248.232-.248.325 0 .104-.15.393-.449.868-.3.475-.563.821-.791 1.038a4.38 4.38 0 0 1-.961.822 9.393 9.393 0 0 1-1.472.511c-.537.145-.945.212-1.224.202-.331.052-.538.098-.62.14-.073.03-.13.113-.171.247l-.155.434a1.355 1.355 0 0 0-.062.295c-.062.113-.191.46-.387 1.038a18.756 18.756 0 0 0-.388 1.333.527.527 0 0 1-.248.31.627.627 0 0 1-.341.124Zm2.201-5.176c.021.02.078.03.171.03.268 0 .62-.082 1.053-.247a6.118 6.118 0 0 0 1.24-.605c.228-.155.496-.429.806-.821.062-.104.186-.346.372-.729.083-.145.16-.33.233-.558.082-.227.124-.429.124-.604a.783.783 0 0 0-.016-.186c-.103-.538-.403-.894-.899-1.07a5.268 5.268 0 0 0-.697-.077c-.072 0-.191.01-.357.03-.165.053-.284.125-.356.218-.062.082-.155.279-.279.589-.331.63-.548 1.085-.651 1.364a20.52 20.52 0 0 1-.511 1.627 21.76 21.76 0 0 0-.248.651v.062c0 .062-.006.124-.016.186s0 .109.031.14Zm13.525-6.355c.186.052.341.16.465.326a.843.843 0 0 1 .14.805 2.592 2.592 0 0 1-.202.512l-.589 1.364c-.341.816-.547 1.281-.62 1.395-.258.527-.485.945-.681 1.255a35.39 35.39 0 0 1-1.101 1.798c-.093.145-.289.418-.589.821a18.34 18.34 0 0 1-.604.79 5.541 5.541 0 0 1-.558.698 23.26 23.26 0 0 1-.806.837l-.372.388a3.357 3.357 0 0 1-.434.449.561.561 0 0 1-.465.248.631.631 0 0 1-.341-.108c-.279-.176-.418-.367-.418-.574a.63.63 0 0 1 .046-.217c.031-.072.217-.284.558-.635.341-.362.625-.646.852-.853.414-.475.672-.78.775-.914a6.321 6.321 0 0 1-.635-1.054c-.186-.403-.305-.723-.357-.961l-.263-1.364a.995.995 0 0 0 0-.341l-.031-.186-.047-2.743.109-1.364v-.232c0-.135.036-.259.108-.372.073-.114.192-.17.357-.17.207-.032.418.056.635.262.217.197.326.398.326.605 0 .072-.016.14-.047.202a.412.412 0 0 0-.046.186v.185c0 .104-.005.186-.016.248-.02.207-.041.496-.062.868a42.7 42.7 0 0 0-.015 1.147c0 .31.005.512.015.605l.14 1.348c.01.217.077.553.201 1.008.135.444.264.826.388 1.146l.201-.263a1.75 1.75 0 0 0 .31-.45c.073-.165.191-.377.357-.635.124-.186.206-.326.248-.419.113-.206.222-.392.325-.557.145-.228.243-.393.295-.496l1.007-1.907c.072-.237.15-.465.233-.682.093-.268.18-.552.263-.852.093-.3.155-.563.186-.79.062-.238.201-.357.418-.357h.14a.657.657 0 0 1 .201 0ZM103.962 53.546c-.042.041-.083.062-.124.062-.052 0-.14-.031-.264-.093a.965.965 0 0 1-.465-.264.595.595 0 0 1-.186-.434c0-.041.021-.124.062-.248.093-.175.331-1.038.713-2.588l.264-1.023c0-.01.02-.17.062-.48.031-.155.077-.44.139-.853a2.42 2.42 0 0 0 .248-.775c.052-.289.083-.454.093-.496.072-.289.124-.47.155-.542l.14-.542.093-.357c.072-.258.108-.424.108-.496v-.248h-.573l-.248.016c-.166 0-.295-.006-.388-.016l-.542-.015c-.486-.021-.811-.068-.977-.14-.165-.083-.253-.238-.263-.465-.041-.206.062-.367.31-.48.248-.124.754-.176 1.519-.155.144-.01.341-.016.589-.016.248 0 .449.005.604.016.155.01.243.015.264.015a.368.368 0 0 0 .077-.124 2.55 2.55 0 0 0 .047-.124c0-.175.056-.284.17-.325.062-.135.191-.202.388-.202a.81.81 0 0 1 .34.078.61.61 0 0 1 .264.217.841.841 0 0 1 .031.279c0 .134.031.232.093.294.041-.041.176-.067.403-.077.227-.01.387-.02.48-.031.197 0 .398-.005.605-.016.206-.02.346-.03.418-.03.093-.052.238-.078.434-.078.093 0 .222.01.388.03.206 0 .356.047.449.14.093.083.176.181.248.295 0 .113.026.196.078.248.041.03.062.062.062.093 0 .02-.021.067-.062.14-.073.092-.259.139-.558.139l-.326.015a6.12 6.12 0 0 1-.496.031c-.454.093-.981.15-1.581.17-.423 0-.635.042-.635.125-.062 0-.181.335-.357 1.007a7.915 7.915 0 0 1-.201.682c-.062.196-.114.33-.155.403a.227.227 0 0 1 .047.14c0 .051-.031.165-.093.34a4.484 4.484 0 0 1-.109.341.723.723 0 0 0-.062.248c-.01.042-.041.145-.093.31a5.28 5.28 0 0 0-.108.527c-.052.496-.119.785-.202.868a1.47 1.47 0 0 1-.077.124.444.444 0 0 0-.047.202c0 .144-.036.403-.108.775-.073.361-.13.557-.171.589.031 0 .047.03.047.093 0 .072-.031.18-.093.325 0 .083-.016.18-.047.294a1.078 1.078 0 0 0-.046.233c-.104.29-.248.656-.434 1.1-.186.445-.3.688-.341.729Zm8.299.124c-.485 0-.883-.031-1.193-.093-.3-.052-.568-.17-.806-.357-.496-.372-.744-.924-.744-1.658 0-.31.057-.692.171-1.147.051-.269.108-.496.17-.682.072-.196.134-.294.186-.294l.109-.574c.01-.062.031-.145.062-.248.031-.113.056-.196.077-.248a.423.423 0 0 1 .093-.14c.041-.03.103-.17.186-.418 0-.02.005-.067.016-.14a.956.956 0 0 1 .077-.247c.155-.258.233-.429.233-.512a.85.85 0 0 1 .124-.186c.072-.093.129-.201.17-.325l.202-.357a85 85 0 0 0 .666-1.193c.134-.258.217-.47.248-.635a3.6 3.6 0 0 0 .124-.388c.062-.186.129-.315.201-.387-.031-.062.073-.14.31-.233.248-.093.548-.18.899-.263a6.57 6.57 0 0 1 .961-.155c.062-.042.202-.073.419-.093.217-.02.459-.031.728-.031.186 0 .444.01.775.03.165 0 .305.021.419.063.124.03.232.072.325.124.093.041.16.072.201.093l.202.201c.124.104.186.212.186.326 0 .103-.067.19-.202.263-.031.031-.201.057-.511.078-.3.02-.625.03-.976.03-.372 0-.781.047-1.225.14a1.971 1.971 0 0 1-.356.047 1.81 1.81 0 0 1-.465.077c-.176.01-.29.016-.341.016-.042 0-.186.196-.434.589-.238.392-.362.625-.372.697a.576.576 0 0 1-.093.294 8.267 8.267 0 0 1-.326.48c-.134.187-.201.363-.201.528 0 .103.031.165.093.186.331-.052.728-.098 1.193-.14.476-.051.822-.077 1.039-.077a1.1 1.1 0 0 1 .279-.047c.144 0 .279.037.403.109.165.03.248.14.248.325 0 .083-.021.16-.062.233-.031.072-.073.119-.124.14-.093.092-.414.211-.961.356-.538.144-1.101.279-1.69.403-.589.113-.919.16-.992.14-.031-.073-.062-.11-.093-.11-.103 0-.232.342-.387 1.024-.186.413-.3.687-.341.821-.041.124-.103.419-.186.884a2.165 2.165 0 0 0-.062.387c0 .403.238.713.713.93.176.03.356.046.542.046.341 0 .755-.062 1.24-.186.042-.02.357-.196.946-.526.031 0 .108-.021.232-.063a1.36 1.36 0 0 1 .233-.077.37.37 0 0 1 .31-.17c.031 0 .098.051.201.154.103.104.196.228.279.372a.785.785 0 0 1 .124.419c0 .103-.155.232-.465.387a21.89 21.89 0 0 1-1.348.574 9.721 9.721 0 0 1-.915.356c-.175.052-.423.078-.744.078Zm13.337-7.316c.021-.103.078-.346.171-.728.093-.382.17-.734.232-1.054.062-.33.109-.64.14-.93-.393.01-.832.062-1.318.155l-.124.093a17.898 17.898 0 0 1-.945 2.2c-.341.693-.563 1.174-.667 1.442-.733 1.757-1.766 3.446-3.099 5.068a7.509 7.509 0 0 1-.636.682c-.248.238-.459.388-.635.45a.623.623 0 0 1-.248.046c-.227 0-.45-.093-.667-.279-.206-.186-.32-.392-.341-.62a.798.798 0 0 1 .248-.372.58.58 0 0 1 .403-.155c.104 0 .419-.315.946-.945.527-.64.878-1.09 1.054-1.348a5.65 5.65 0 0 0 .356-.62c.259-.476.491-.817.698-1.023a1.37 1.37 0 0 1 .186-.496l.294-.62c.041-.093.119-.264.233-.512.113-.248.211-.444.294-.589.083-.144.15-.232.202-.263a9.215 9.215 0 0 1 .65-1.674l-.573.28a4.861 4.861 0 0 1-.604.309 1.585 1.585 0 0 1-.558.093c-.135 0-.305-.026-.512-.078-.124-.278-.186-.516-.186-.712 0-.29.104-.502.31-.636.217-.145.548-.29.992-.434l.388-.124c.186-.072.511-.175.976-.31.475-.144.832-.263 1.069-.356.145 0 .388-.02.729-.062.341-.041.553-.083.635-.124.228 0 .481.036.76.108.279.073.459.176.542.31.031.042.072.088.124.14a.355.355 0 0 1 .124.124l.326.248c.02.072.051.196.093.372.051.165.077.31.077.434 0 .217-.067.62-.201 1.209-.124.589-.223.966-.295 1.13a5.144 5.144 0 0 0-.17.76c-.083.476-.166.817-.248 1.023a3.138 3.138 0 0 0-.155.527c-.124.62-.372 1.452-.744 2.495a2.457 2.457 0 0 0-.062.171.678.678 0 0 1-.062.186c-.176.475-.31.899-.403 1.27-.042.052-.093.15-.155.295-.073.166-.135.274-.186.326-.176.175-.367.263-.574.263a.733.733 0 0 1-.511-.217 1.163 1.163 0 0 1-.326-.558c.331-.65.651-1.467.961-2.448.052-.155.088-.29.109-.403.031-.124.057-.222.077-.295.104-.455.202-.796.295-1.023.041-.113.072-.243.093-.387.031-.155.051-.264.062-.326l.077-.387.279-1.1Zm6.199 7.192a6.504 6.504 0 0 1-1.225-.45c-.464-.206-.712-.377-.743-.511a.148.148 0 0 0-.062-.124.194.194 0 0 0-.14-.062v-.233c0-.072-.021-.118-.062-.14-.052-.102-.077-.252-.077-.449 0-.32.051-.723.155-1.208.113-.486.237-.92.372-1.302 0-.073.015-.166.046-.28a.928.928 0 0 0 .062-.216c.083-.238.248-.615.496-1.132.248-.516.455-.878.62-1.085 0-.03.036-.098.108-.201a1.05 1.05 0 0 0 .171-.341c.165-.165.387-.486.666-.961.362-.3.512-.568.45-.806.01-.217.098-.372.263-.465.176-.103.486-.206.93-.31a4.1 4.1 0 0 1 .992-.248c.341-.051.791-.088 1.348-.108a3.112 3.112 0 0 1 .527-.078c.031-.03.186-.015.465.047.29.051.548.14.775.263.238.114.352.243.341.388-.01.082-.243.19-.697.325a7.79 7.79 0 0 1-1.225.248l-.387.047c-.599.062-1.033.129-1.302.201a1.696 1.696 0 0 0-.713.372c-.217.186-.465.496-.744.93-.372.579-.558.971-.558 1.178 0 .134.073.201.217.201.093 0 .233-.01.419-.03.196-.032.336-.047.418-.047a8.87 8.87 0 0 1 .357-.124 3.78 3.78 0 0 1 .651-.14l.682-.14c.206-.05.361-.077.465-.077.361 0 .542.124.542.372 0 .135-.067.28-.202.434a1.183 1.183 0 0 1-.495.357 8.94 8.94 0 0 1-.636.217c-.238.072-.387.108-.449.108a.648.648 0 0 1-.155.031 2.06 2.06 0 0 1-.279.016l-.698.093-.511.062c-.083.02-.279.072-.589.155-.31.082-.512.175-.605.279-.093.093-.18.248-.263.465-.134.31-.243.676-.326 1.1a5.975 5.975 0 0 0-.124 1.116c0 .32.047.527.14.62.227.258.584.387 1.069.387.259 0 .522-.036.791-.108.279-.083.522-.191.728-.326a2.23 2.23 0 0 1 .651-.356.453.453 0 0 1 .233-.093.31.31 0 0 1 .17.062.97.97 0 0 1 .171.108c.062.042.113.078.155.109a.602.602 0 0 1 .124.356c0 .341-.434.693-1.302 1.054a14.99 14.99 0 0 1-1.163.357 3.285 3.285 0 0 1-.79.108l-.248-.015Zm16.769-7.269c.021.33.031.527.031.589 0 .237-.021.444-.062.62-.041.175-.134.537-.279 1.085-.217.413-.356.687-.418.821-.238.455-.46.816-.667 1.085-.207.258-.584.61-1.131 1.054-.238.217-.646.434-1.225.65-.568.218-1.017.326-1.348.326-.093.01-.243.016-.449.016a2.14 2.14 0 0 1-.31-.016c-.011.259-.099.827-.264 1.705-.145.258-.305.388-.48.388a.413.413 0 0 1-.186-.047c-.186-.041-.352-.155-.496-.34-.145-.187-.207-.357-.186-.512.072-.248.149-.584.232-1.008l.078-.325-1.07-.574c-.289-.216-.604-.526-.945-.93-.341-.402-.548-.816-.62-1.24a3.123 3.123 0 0 1-.078-.774c0-.62.124-1.271.372-1.953a6.12 6.12 0 0 1 1.023-1.798 4 4 0 0 1 .481-.465c.165-.134.325-.253.48-.356.155-.114.258-.191.31-.233l.465-.325c.093-.062.253-.145.481-.248a4.69 4.69 0 0 1 .604-.248c.124-.042.243-.067.356-.078a3.03 3.03 0 0 1 .481-.03c.289 0 .553.004.79.015 0-.197.052-.501.155-.915.011-.082.026-.165.047-.248.021-.082.036-.16.046-.232 0-.134.062-.248.186-.341a.419.419 0 0 1 .403-.093c.186.041.362.134.527.279.166.144.248.268.248.372 0 .165-.01.31-.031.434l-.263 1.054c.475.186.94.439 1.395.76.341.237.589.438.744.604.165.165.289.356.372.573.082.217.149.517.201.899Zm-6.618 3.658c.072-.176.222-.605.45-1.287.454-1.322.8-2.257 1.038-2.805l.542-1.286-.232-.016a1.53 1.53 0 0 0-.372.047c-.258.051-.553.186-.883.402a8.962 8.962 0 0 0-.915.651c-.351.28-.609.58-.775.9-.475.888-.713 1.539-.713 1.952a2.46 2.46 0 0 0-.077.543c0 .217.031.408.093.573.062.166.15.326.263.48.145.249.331.45.558.605.238.155.496.29.775.403.031-.196.067-.413.109-.65a3.45 3.45 0 0 1 .139-.512Zm5.332-3.41c.051-.537-.119-.925-.512-1.163a26.944 26.944 0 0 1-.418-.248 4.614 4.614 0 0 0-.527-.278 2.757 2.757 0 0 0-.434-.186 3.959 3.959 0 0 1-.202.573c-.082.176-.18.424-.294.744-.134.31-.377.94-.729 1.89-.351.941-.568 1.55-.651 1.83l-.139.434a4.73 4.73 0 0 0-.217.743l-.108.419.573-.186c.083-.041.196-.078.341-.108.238-.073.413-.135.527-.186a3.317 3.317 0 0 0 1.224-.837c.362-.383.718-.904 1.07-1.566.072-.155.17-.46.294-.914.124-.455.191-.775.202-.961Zm2.719 6.912a6.667 6.667 0 0 1-.93-.806c-.216-.237-.33-.465-.34-.682a1.578 1.578 0 0 1-.016-.279c0-.289.026-.65.078-1.084.051-.434.103-.78.154-1.039.042-.041.062-.103.062-.186.011-.082.011-.134 0-.155 0-.03.026-.134.078-.31.124-.382.212-.702.263-.96.279-.848.553-1.525.822-2.031.269-.506.568-.982.899-1.426.702-.723 1.452-1.27 2.247-1.643.403-.237.692-.356.868-.356.031 0 .078.01.14.03 1.27.28 2.03 1.086 2.278 2.419.093.63.139 1.105.139 1.425a4.68 4.68 0 0 1-.279 1.566c-.186.527-.521 1.188-1.007 1.984a9.625 9.625 0 0 1-1.41 2.123c-.517.578-1.039 1.012-1.566 1.302-.516.29-1.002.434-1.457.434-.403 0-.744-.109-1.023-.326Zm1.24-1.023c.248-.03.439-.077.574-.14.144-.061.289-.164.434-.31.155-.154.403-.428.744-.82.434-.496.738-.858.914-1.085a4.13 4.13 0 0 0 .481-.884c.155-.351.325-.857.511-1.519l.093-.356c.062-.217.103-.393.124-.527.031-.145.046-.3.046-.465l-.015-.977a2.754 2.754 0 0 0-.109-.604c-.062-.217-.134-.372-.217-.465a.941.941 0 0 0-.34-.232.875.875 0 0 0-.419-.109 1.01 1.01 0 0 0-.356.078c-.197.082-.471.304-.822.666-.351.351-.666.713-.945 1.085-.269.372-.403.62-.403.744 0 .01-.005.041-.016.093a.336.336 0 0 1-.062.14c-.268.289-.542.898-.821 1.828-.269.93-.424 1.741-.465 2.434-.01.3-.01.506 0 .62.021.113.077.242.17.387.073.114.202.222.388.325.196.093.367.124.511.093Zm6.585 1.906a4.254 4.254 0 0 0-.232-.046.905.905 0 0 0-.279-.015 1.063 1.063 0 0 1-.512-.264c-.155-.144-.216-.294-.185-.45.03-.03.056-.113.077-.247a2.05 2.05 0 0 0 .031-.341 4.84 4.84 0 0 0 .139-.496c.062-.465.223-1.235.481-2.31.269-1.084.439-1.663.511-1.735l-.015-.17a1.222 1.222 0 0 1 .155-.496c.041-.125.072-.243.093-.357.031-.124.046-.217.046-.28.021-.03.093-.216.217-.557l.155-.434c.062-.196.145-.429.248-.697l.202-.527v-.078c.041-.052.155-.325.341-.821.093-.207.181-.419.263-.636.093-.227.186-.45.279-.666.031-.062.078-.15.14-.264.062-.113.093-.19.093-.232.041-.083.144-.124.31-.124.134 0 .268.03.403.093a.557.557 0 0 1 .279.248l.356.248-.527 1.131c-.134.269-.258.532-.372.79-.103.249-.155.393-.155.434-.02.073-.067.223-.139.45-.073.227-.15.486-.233.775-.041.145-.144.45-.31.914a1.93 1.93 0 0 0-.108.295c0-.041.558-.083 1.674-.124.186-.01.527-.026 1.022-.047.507-.03.822-.062.946-.093l.79-.108.372-1.38c.124-.506.326-1.219.605-2.138.134-.445.294-.786.48-1.023.186-.248.346-.372.481-.372.258 0 .47.186.635.558.124.103.186.222.186.356 0 .134-.077.336-.232.605-.135.248-.295.66-.481 1.24a3.496 3.496 0 0 1-.155.48v.062c0 .196-.046.341-.139.434-.031.031-.098.176-.202.434-.093.258-.139.408-.139.45.01.072 0 .165-.031.278a.516.516 0 0 1-.109.217l-.294 1.24c-.186.785-.372 1.416-.558 1.891.01.052-.011.145-.062.279a1.12 1.12 0 0 0-.062.279c-.155.496-.227.775-.217.837-.052.238-.15.666-.295 1.286-.093.414-.139.625-.139.636-.01.02-.057.03-.14.03-.165 0-.341-.035-.527-.108a.985.985 0 0 1-.372-.34.795.795 0 0 1-.062-.79c.042-.074.119-.383.233-.931l.155-.667c.052-.165.108-.408.17-.728.073-.33.124-.563.155-.697.093-.538.155-.822.186-.853v-.155c-.031-.03-.217-.046-.558-.046-.351 0-.764.02-1.239.062a12.89 12.89 0 0 0-1.271.14l-.434.015c-.217 0-.357.005-.419.015a1.9 1.9 0 0 0-.263.016h-.14c-.041.093-.16.537-.356 1.333-.197.795-.31 1.307-.341 1.534a46.51 46.51 0 0 1-.326 1.519c-.113.547-.206.96-.279 1.24Zm15.249-.077a.7.7 0 0 1-.233-.062.683.683 0 0 1-.232-.14c-.124-.123-.186-.31-.186-.557 0-.558-.011-.925-.031-1.1l-.016-.93c0-.238.016-.383.047-.434a1.216 1.216 0 0 1-.016-.233c0-.093.005-.201.016-.325.02-.135.031-.238.031-.31l-.062-.419h-.837a3.21 3.21 0 0 1-.403.016c-.279 0-.946-.031-2-.093l-.201.325c-.01.01-.062.078-.155.202a2.84 2.84 0 0 0-.264.557c-.093.248-.217.533-.372.853-.144.32-.279.568-.403.744-.155.29-.299.501-.433.635-.124.135-.217.202-.279.202h-.078a.502.502 0 0 1-.186-.031.632.632 0 0 1-.186-.109c-.279-.124-.418-.31-.418-.558 0-.175.082-.382.248-.62l.201-.325c0-.062.15-.387.45-.977.31-.599.511-.919.604-.96.093-.093.139-.186.139-.28 0-.103-.062-.206-.186-.31a.263.263 0 0 1-.108-.123.624.624 0 0 1-.031-.202.51.51 0 0 1 .155-.372c.103-.103.263-.15.48-.14.052-.03.099-.056.14-.077.052-.02.088-.036.108-.046.031-.02.047-.047.047-.078 0-.051.083-.237.248-.558.176-.33.331-.578.465-.744.103-.279.191-.48.263-.604.083-.124.135-.212.155-.264.052-.051.155-.222.31-.511.021-.031.088-.145.202-.341.103-.103.206-.222.31-.356.113-.145.186-.238.217-.28.041-.072.103-.16.186-.263a2.1 2.1 0 0 1 .279-.45l.248-.34c.155-.186.341-.336.558-.45.217-.124.418-.186.604-.186.103 0 .191.016.264.047.258.113.485.325.681.635.197.31.31.672.341 1.085.011.072.031.233.062.48.042.248.062.465.062.651a.947.947 0 0 1-.046.326v.682c0 .34.01.594.031.76a2.35 2.35 0 0 0-.047.557l.016.605c0 .155-.005.284-.016.387l-.015.574-.016.573c-.01.258-.015.584-.015.977l.015 1.224c0 .703-.062 1.214-.186 1.534-.113.32-.289.496-.526.527Zm-3.131-5.796a5.652 5.652 0 0 1 1.054-.062c.289-.02.48-.031.573-.031.134 0 .269.005.403.015a.984.984 0 0 0 .248-.015c.196.01.295-.17.295-.543a27.559 27.559 0 0 1-.109-2.355l.016-.481c0-.165-.016-.34-.047-.527-.021-.186-.036-.31-.046-.372-.042-.051-.192.119-.45.512-.248.392-.46.743-.635 1.053a3.097 3.097 0 0 0-.248.434 5.595 5.595 0 0 0-.171.295 3.4 3.4 0 0 1-.201.372c-.507.806-.76 1.322-.76 1.55 0 .072.026.124.078.155Zm20.406-4.727c0 .051-.016.087-.047.108-.031.01-.046.02-.046.031 0 .01.021.031.062.062l-.109.512c-.041.217-.129.65-.263 1.301a47.17 47.17 0 0 0-.279 1.581l-.217 1.659a82.24 82.24 0 0 0-.201 1.689c-.031.393-.047.806-.047 1.24 0 .496.016.873.047 1.131.041.269.062.424.062.465 0 .062-.073.155-.217.28a.722.722 0 0 1-.481.185.624.624 0 0 1-.589-.34c-.124-.218-.196-.559-.217-1.024 0-.692.052-1.617.155-2.774.031-.072.047-.212.047-.418a.963.963 0 0 0-.031-.28 1.451 1.451 0 0 1 .046-.433 1.769 1.769 0 0 0 .047-.372c0-.052.02-.16.062-.326.062-.186.093-.33.093-.434v-.108c.031-.093.062-.207.093-.341.041-.145.062-.233.062-.264a.856.856 0 0 1-.016-.217.58.58 0 0 0-.031-.232c.062-.176.134-.444.217-.806l.186-.744c-.01 0-.124.207-.341.62-.207.403-.46.811-.759 1.224-.238.383-.47.713-.698.992l-.372.48a26.37 26.37 0 0 1-.387.497c-.114.155-.197.3-.248.434-.217.537-.47.93-.76 1.178-.279.248-.563.387-.852.418l-.248.031h-.093c-.196 0-.362-.13-.496-.387-.124-.259-.186-.74-.186-1.442l.016-.418.046-.868c.031-.176.057-.465.078-.868.02-.413.036-.687.046-.822-.052.052-.145.243-.279.574-.124.33-.201.542-.232.635l-.14.357c-.052.072-.129.269-.232.589a15.15 15.15 0 0 1-.341.868 18.278 18.278 0 0 1-.62 1.767 9.834 9.834 0 0 0-.248.573 7.828 7.828 0 0 0-.186.496 7.848 7.848 0 0 1-.279.666c-.445 1.003-.817 1.504-1.116 1.504-.165 0-.331-.088-.496-.264a.78.78 0 0 1-.233-.542c0-.145.057-.336.171-.574.114-.248.279-.568.496-.96l.325-.605c0-.052.124-.403.372-1.054l.217-.573.961-2.542.016-.062.093-.233a4.5 4.5 0 0 1 .17-.372c.145-.33.217-.521.217-.573v-.031c0-.031.01-.052.031-.062a.259.259 0 0 1 .062-.016c.041-.113.114-.289.217-.526.114-.248.202-.434.264-.558l-.016-.062c0-.104.016-.186.047-.248.041-.062.082-.12.124-.17.051-.052.093-.099.124-.14a.53.53 0 0 1 .093-.248c.062-.114.134-.228.217-.341.165-.228.273-.398.325-.512a.508.508 0 0 1 .48-.294c.155 0 .31.062.465.186.155.124.285.263.388.418.103.145.155.243.155.295 0 .03-.016.051-.047.062-.031.01-.046.036-.046.077v.062a.984.984 0 0 1-.062.558c-.093.362-.14.76-.14 1.194l.016.449c0 .083-.021.145-.062.186a2.892 2.892 0 0 0-.078.108v.031l-.015.124.015.093a.975.975 0 0 1-.077.341 4.492 4.492 0 0 0-.093.388 8.82 8.82 0 0 0-.062 1.054c0 .537.046.831.139.883l1.116-1.658c.951-1.405 1.431-2.123 1.442-2.154a.576.576 0 0 0 .201-.233c-.01 0-.015-.01-.015-.03 0-.053.134-.275.403-.667.268-.403.558-.765.868-1.085.31-.33.563-.496.759-.496.093 0 .217.062.372.186.165.124.31.279.434.465.124.175.186.34.186.496Zm4.84 1.41c.434.114.873.351 1.317.713.455.362.853.811 1.194 1.348.258.414.387.884.387 1.41 0 .414-.072.822-.217 1.225a4.005 4.005 0 0 1-.511 1.008c-.455.61-1.06 1.146-1.814 1.611-.744.465-1.457.698-2.139.698-.196 0-.372-.02-.527-.062-.382-.093-.682-.217-.898-.372-.217-.155-.45-.388-.698-.698 0-.392.109-.97.326-1.735.217-.765.449-1.426.697-1.984a43.98 43.98 0 0 1 1.441-3.58c.176-.403.414-.873.713-1.41l.186-.373c.176-.32.284-.553.326-.697.031-.166.082-.28.155-.341.072-.072.206-.166.403-.28.217.032.372.084.465.156.093.062.242.222.449.48v.233c.01.113 0 .217-.031.31a1.171 1.171 0 0 1-.139.279l-1.085 2.061Zm7.827-1.782a.56.56 0 0 1 .015.155c0 .165-.031.33-.093.496-.062.165-.098.263-.108.294-.176.486-.378.977-.605 1.473l-.325.774a69.078 69.078 0 0 0-.822 2.015 26.604 26.604 0 0 0-.589 1.674c-.124.372-.253.827-.387 1.364a5.257 5.257 0 0 1-.171.62 4.002 4.002 0 0 1-.279.635.792.792 0 0 1-.325.062c-.155 0-.367-.046-.636-.14a1.438 1.438 0 0 1-.217-.294.695.695 0 0 1-.062-.31c0-.051.011-.15.031-.294.104-.455.44-1.498 1.008-3.13.578-1.644.94-2.563 1.085-2.76a.64.64 0 0 0 .093-.263l1.023-2.79a.445.445 0 0 1 .387-.201c.145 0 .305.057.481.17.175.103.341.253.496.45Zm-6.742 6.354c.279-.475.403-.914.372-1.317 0-.33-.037-.584-.109-.76-.062-.186-.207-.408-.434-.666-.083-.104-.232-.212-.449-.326a9.082 9.082 0 0 0-.961-.45l-.992 2.48-.186.59c-.32.95-.548 1.74-.682 2.371.196.031.372.046.527.046.217 0 .429-.036.635-.108a3.71 3.71 0 0 0 .713-.403c.321-.207.631-.444.93-.713.3-.279.512-.527.636-.744Zm11.566 4.216a3.7 3.7 0 0 1-.93-.496 1.906 1.906 0 0 1-.635-.822c-.165-.465-.248-1.012-.248-1.642 0-.61.036-1.127.108-1.55.073-.434.197-.873.372-1.318l.14-.325c.165-.424.284-.703.356-.837.176-.403.486-.925.93-1.566.414-.62.739-1.08.977-1.379.248-.31.501-.573.759-.79a12.5 12.5 0 0 1 1.131-.853c.3-.217.667-.325 1.101-.325.341 0 .651.082.93.248.289.165.506.423.651.775.103.175.155.418.155.728 0 .496-.119 1.033-.357 1.612-.237.579-.522 1.018-.852 1.317a.4.4 0 0 1-.295.109.91.91 0 0 1-.403-.109 1.727 1.727 0 0 1-.387-.263 3.643 3.643 0 0 1-.155-.31c-.01-.031.01-.052.062-.062.093-.114.227-.33.403-.651.186-.33.31-.589.372-.775l.093-.434c.062-.269.093-.444.093-.527a.34.34 0 0 0-.109-.248.167.167 0 0 0-.124-.046c-.082 0-.227.051-.434.155-.237.103-.521.315-.852.635a8.93 8.93 0 0 0-.961 1.116 23.47 23.47 0 0 0-1.1 1.534 5.729 5.729 0 0 0-.574 1.225l-.17.403c.01.041-.005.144-.047.31a2.03 2.03 0 0 1-.139.403 6.979 6.979 0 0 0-.217 1.627c0 .382.036.713.108.992.083.279.197.486.341.62.083.072.202.108.357.108.165 0 .351-.036.558-.108.217-.083.444-.176.682-.28.237-.102.403-.175.496-.216a4.57 4.57 0 0 0 .666-.325c.217-.125.377-.238.48-.342.269-.196.486-.294.651-.294.135-.041.238 0 .31.124.083.124.124.294.124.511 0 .145-.098.32-.294.527a3.325 3.325 0 0 1-.698.527c-.113.114-.366.248-.759.403a5.88 5.88 0 0 1-1.162.636c-.434.186-.832.279-1.194.279-.082 0-.186-.01-.31-.031Zm16.974-10.198c0 .134-.036.31-.108.527-.103.33-.186.66-.248.992-.052.32-.077.578-.077.774l.015.155c-.062.135-.114.341-.155.62a3.547 3.547 0 0 1-.062.341.254.254 0 0 1-.108.155c0 .042.005.109.015.202.021.093.031.17.031.232v.186c-.196 1.127-.294 2.124-.294 2.991 0 .455.031.812.093 1.07.072.258.165.398.279.418.02 0 .036.006.046.016.01.01.016.036.016.077a.682.682 0 0 1-.109.372 1.647 1.647 0 0 1-.217.31 3.097 3.097 0 0 1-.186.217 2.673 2.673 0 0 1-.077.109c-.021.041-.057.062-.109.062-.072 0-.201-.026-.387-.078-.031-.062-.13-.14-.295-.232-.165-.083-.299-.258-.403-.527-.103-.269-.155-.723-.155-1.364 0-.176.005-.315.016-.419v-.046a1.452 1.452 0 0 1-.016-.264c0-.475.052-1.074.155-1.797.114-.734.233-1.395.357-1.984.082-.351.191-.785.325-1.302.134-.537.202-.827.202-.868l-.016-.015c.021.03-.207.449-.682 1.255-.475.796-.764 1.266-.868 1.41-.051.073-.15.259-.294.558l-.434.9c-.847 1.26-1.498 1.89-1.953 1.89-.434 0-.718-.155-.852-.465a2.552 2.552 0 0 1-.202-.821 15.79 15.79 0 0 1-.015-.434 2.35 2.35 0 0 0 .031-.403v-.17c0-.032.01-.114.031-.249a5.32 5.32 0 0 0 .077-.48c0-.062.052-.383.155-.961.145-.703.217-1.152.217-1.349 0-.04-.005-.067-.015-.077v.031c0 .031-.062.145-.186.341a6.295 6.295 0 0 0-.543.868c-.196.382-.48.956-.852 1.72-.073.135-.181.357-.326.667-.031.32-.248.904-.651 1.751l-.139.357c-.31.774-.558 1.343-.744 1.704-.176.352-.31.522-.403.512-.052 0-.16-.052-.326-.155a1.987 1.987 0 0 1-.449-.388c-.134-.155-.202-.31-.202-.465 0-.02.088-.206.264-.558.289-.589.449-.94.48-1.053.011-.042.021-.099.031-.17.021-.073.135-.26.341-.559 0-.062.047-.217.14-.465.103-.258.237-.553.403-.883a.652.652 0 0 0 .124-.357c.093-.113.212-.367.356-.76.052-.144.104-.283.155-.418.062-.134.124-.237.186-.31.031-.02.083-.093.155-.217.073-.134.129-.237.171-.31a31.31 31.31 0 0 1 .79-1.332l.186-.341c.041-.114.078-.176.109-.186.041-.01.211-.295.511-.853.465-.65.734-.976.806-.976.062 0 .17.036.325.108.166.073.31.16.434.264.135.103.202.196.202.279 0 .03.005.118.015.263.011.145.016.3.016.465 0 .403-.171 1.746-.512 4.03l-.077.496c.01.03.026.093.046.186.021.082.031.175.031.279a5.53 5.53 0 0 1 .357-.496 8.5 8.5 0 0 0 .573-.93.3.3 0 0 1 .047-.155c.041-.052.083-.109.124-.17.083-.104.145-.197.186-.28a.486.486 0 0 0 .077-.263c.29-.413.548-.806.775-1.178.868-1.354 1.405-2.123 1.612-2.31a.867.867 0 0 1 .326-.154c.155-.042.299-.062.434-.062.289 0 .511.088.666.263a.892.892 0 0 1 .232.636Zm2.667 9.717a6.667 6.667 0 0 1-.93-.806c-.217-.237-.331-.465-.341-.682a1.685 1.685 0 0 1-.016-.279c0-.289.026-.65.078-1.084.052-.434.103-.78.155-1.039.041-.041.062-.103.062-.186.01-.082.01-.134 0-.155 0-.03.026-.134.077-.31a8.95 8.95 0 0 0 .264-.96c.279-.848.553-1.525.821-2.031.269-.506.569-.982.899-1.426.703-.723 1.452-1.27 2.248-1.643.403-.237.692-.356.867-.356.031 0 .078.01.14.03 1.271.28 2.03 1.086 2.278 2.419.093.63.14 1.105.14 1.425a4.68 4.68 0 0 1-.279 1.566c-.186.527-.522 1.188-1.008 1.984-.413.826-.883 1.534-1.41 2.123-.517.578-1.038 1.012-1.565 1.302-.517.29-1.003.434-1.457.434-.403 0-.744-.109-1.023-.326Zm1.24-1.023a1.94 1.94 0 0 0 .573-.14c.145-.061.29-.164.434-.31.155-.154.403-.428.744-.82.434-.496.739-.858.915-1.085.175-.238.335-.532.48-.884.155-.351.325-.857.511-1.519l.093-.356a4.4 4.4 0 0 0 .124-.527c.031-.145.047-.3.047-.465l-.016-.977a2.749 2.749 0 0 0-.108-.604c-.062-.217-.134-.372-.217-.465a.946.946 0 0 0-.341-.232.872.872 0 0 0-.419-.109 1.01 1.01 0 0 0-.356.078c-.196.082-.47.304-.821.666-.352.351-.667.713-.946 1.085-.268.372-.403.62-.403.744a.8.8 0 0 1-.015.093.35.35 0 0 1-.062.14c-.269.289-.543.898-.822 1.828-.268.93-.423 1.741-.465 2.434-.01.3-.01.506 0 .62.021.113.078.242.171.387.072.114.201.222.387.325.197.093.367.124.512.093Zm18.054 1.535c-.785-.538-1.416-1.09-1.891-1.659a9.23 9.23 0 0 1-1.131-1.766c-.279-.6-.62-1.437-1.023-2.511l-.14-.233a.475.475 0 0 1 .031.202c0 .093-.02.175-.062.248-.144.237-.392.971-.744 2.2-.351 1.23-.516 1.948-.496 2.155a1.112 1.112 0 0 0-.108.434 5.819 5.819 0 0 1-.031.356 6.461 6.461 0 0 1-.45.434.652.652 0 0 1-.155.016.658.658 0 0 1-.325-.078 1.727 1.727 0 0 1-.31-.217 1.33 1.33 0 0 0-.264-.217 9.816 9.816 0 0 1 .279-1.55c.145-.516.331-1.126.558-1.828l.388-1.225a.67.67 0 0 1-.155-.186 5.514 5.514 0 0 0-.093-.232.689.689 0 0 1-.062-.124.473.473 0 0 0-.078-.17c-.485.681-1.369 1.606-2.65 2.774l-.511.418c-.29.227-.496.403-.62.527a4.758 4.758 0 0 1-.31.279c-.124.103-.222.18-.295.232-.217.166-.387.3-.511.403-.165.145-.382.31-.651.496a5.373 5.373 0 0 0-.713.558.907.907 0 0 1-.372-.14 1.398 1.398 0 0 1-.248-.247 1.14 1.14 0 0 0-.341-.326c0-.279.026-.48.078-.604.051-.124.185-.227.402-.31.29-.103.884-.511 1.783-1.224a36.369 36.369 0 0 0 2.542-2.217c.795-.754 1.234-1.276 1.317-1.565.052-.258.181-.419.387-.48a17.808 17.808 0 0 0-.883-1.69 10.667 10.667 0 0 0-1.023-1.472 2.54 2.54 0 0 0-.232-.233 5.93 5.93 0 0 1-.279-.294 2.533 2.533 0 0 1-.186-.341l.015-.248c.073-.103.14-.197.202-.28.062-.082.118-.154.17-.216l.264-.031c.093-.01.191-.016.294-.016.227 0 .429.088.605.264.175.175.439.563.79 1.162.351.59.532.982.542 1.178.011.083.052.17.124.264.083.093.14.17.171.232.61 1.137.95 1.844 1.023 2.123.031.155.124.026.279-.387a74.99 74.99 0 0 0 .713-2.046c.413-1.291.671-1.994.775-2.108.144-.02.263-.03.356-.03.413 0 .687.108.822.325a.562.562 0 0 1 .062.279c0 .196-.052.428-.155.697-.093.269-.192.47-.295.605-.01.051-.015.129-.015.232a.423.423 0 0 1-.047.217v.124c-.196.196-.269.341-.217.434a1.451 1.451 0 0 0-.186.434 4.52 4.52 0 0 0-.093.202.99.99 0 0 1-.108.232.976.976 0 0 1 .651.496 15.642 15.642 0 0 0 1.751-1.349 11.21 11.21 0 0 0 1.255-1.379c.383-.496.827-1.142 1.333-1.937l.543-.17a.337.337 0 0 0 .139.108c.062.02.124.036.186.046.072.01.145.026.217.047.093.196.14.382.14.558 0 .186-.042.356-.124.511a5.933 5.933 0 0 1-.419.636c-.754.981-1.472 1.787-2.154 2.417-.672.62-1.524 1.245-2.557 1.876.103.485.31 1.012.62 1.58a9.549 9.549 0 0 0 1.1 1.581c.424.486.842.853 1.255 1.1.228.125.408.244.543.357.134.114.237.264.31.45-.052.33-.248.604-.589.821l-.713.016Zm6.922-.279c-.486 0-.884-.031-1.194-.093a1.783 1.783 0 0 1-.806-.357c-.496-.372-.744-.924-.744-1.658 0-.31.057-.692.171-1.147.051-.269.108-.496.17-.682.073-.196.135-.294.186-.294l.109-.574c.01-.062.031-.145.062-.248.031-.113.057-.196.077-.248a.423.423 0 0 1 .093-.14c.042-.03.104-.17.186-.418 0-.02.005-.067.016-.14a.956.956 0 0 1 .077-.247c.155-.258.233-.429.233-.512a.85.85 0 0 1 .124-.186c.072-.093.129-.201.17-.325l.202-.357c.31-.547.532-.945.666-1.193.134-.258.217-.47.248-.635a3.6 3.6 0 0 0 .124-.388c.062-.186.129-.315.202-.387-.031-.062.072-.14.309-.233.248-.093.548-.18.899-.263a6.57 6.57 0 0 1 .961-.155c.062-.042.202-.073.419-.093.217-.02.46-.031.728-.031.186 0 .445.01.775.03.165 0 .305.021.419.063.124.03.232.072.325.124.093.041.16.072.202.093l.201.201c.124.104.186.212.186.326 0 .103-.067.19-.201.263-.031.031-.202.057-.512.078-.3.02-.625.03-.976.03-.372 0-.78.047-1.225.14a1.971 1.971 0 0 1-.356.047 1.81 1.81 0 0 1-.465.077c-.176.01-.289.016-.341.016-.041 0-.186.196-.434.589-.238.392-.362.625-.372.697a.576.576 0 0 1-.093.294 8.662 8.662 0 0 1-.325.48c-.135.187-.202.363-.202.528 0 .103.031.165.093.186.331-.052.728-.098 1.193-.14.476-.051.822-.077 1.039-.077a1.1 1.1 0 0 1 .279-.047c.144 0 .279.037.403.109.165.03.248.14.248.325 0 .083-.021.16-.062.233-.031.072-.073.119-.124.14-.093.092-.414.211-.961.356-.537.144-1.101.279-1.69.403-.588.113-.919.16-.991.14-.031-.073-.062-.11-.093-.11-.104 0-.233.342-.388 1.024-.186.413-.3.687-.341.821-.041.124-.103.419-.186.884a2.165 2.165 0 0 0-.062.387c0 .403.238.713.713.93.176.03.357.046.543.046.341 0 .754-.062 1.239-.186.042-.02.357-.196.946-.526.031 0 .108-.021.232-.063a1.36 1.36 0 0 1 .233-.077.37.37 0 0 1 .31-.17c.031 0 .098.051.201.154.104.104.197.228.279.372a.785.785 0 0 1 .124.419c0 .103-.155.232-.465.387a21.89 21.89 0 0 1-1.348.574 9.721 9.721 0 0 1-.915.356c-.175.052-.423.078-.743.078Zm5.587.124c-.155 0-.315-.104-.48-.31-.166-.197-.248-.445-.248-.744 0-.238.056-.47.17-.698a5.92 5.92 0 0 1 .62-1.053c.072-.104.124-.192.155-.264a.733.733 0 0 0 .078-.294c.144-.186.335-.522.573-1.008.403-.65.976-1.653 1.72-3.007.104-.186.305-.552.605-1.1.31-.548.516-.873.62-.976l.077-.109c-.031.052.021-.067.155-.356.145-.29.295-.548.45-.775.165-.238.31-.357.434-.357.134 0 .289.057.465.17.175.104.325.264.449.481.134.207.202.455.202.744 0 .124-.006.222-.016.295l-.155 1.053-.077.342c-.135.681-.336 1.616-.605 2.805-.238 1.054-.356 1.69-.356 1.906 0 .062.01.114.031.155.02.031.046.046.077.046.021 0 .072-.03.155-.093a.909.909 0 0 0 .217-.31l.202-.31.263-.387a30.26 30.26 0 0 0 1.069-1.627c.424-.692 1.111-1.876 2.062-3.55.196-.289.356-.542.48-.759.166-.269.326-.522.481-.76.155-.237.273-.387.356-.449a.601.601 0 0 1 .388-.124c.155.01.315.067.48.17.176.104.32.249.434.435.124.186.186.387.186.604 0 .248-.077.703-.232 1.364a22.018 22.018 0 0 1-.512 1.922c-.041.217-.17.728-.387 1.534-.166.6-.29 1.075-.372 1.426a4.388 4.388 0 0 0-.109.852v.125c-.155.279-.232.837-.232 1.673-.042.341-.119.605-.233.79-.113.197-.206.295-.279.295l-.046-.015a.246.246 0 0 0-.155.062c-.042.051-.104.077-.186.077-.259 0-.429-.093-.512-.279-.072-.186-.108-.439-.108-.76 0-.185.005-.34.015-.464.031-.269.362-1.669.992-4.2.496-1.984.744-3.023.744-3.115l-.217.372a33.8 33.8 0 0 1-.775 1.379l-1.085 2.03a4.682 4.682 0 0 0-.341.543 5.153 5.153 0 0 0-.139.31c-.124.248-.372.604-.744 1.069a2.604 2.604 0 0 0-.217.294c-.052.114-.217.316-.496.605a8.945 8.945 0 0 1-.883.775c-.31.227-.569.34-.775.34-.279 0-.532-.134-.76-.402a1.504 1.504 0 0 1-.325-.977c0-.279.051-.743.155-1.394.165-.713.341-1.437.527-2.17a32.67 32.67 0 0 1 .387-1.442.976.976 0 0 0 .047-.31c0-.072-.011-.118-.031-.139-.011 0-.026.01-.047.031a25.2 25.2 0 0 0-.775 1.38c-.33.62-.687 1.348-1.069 2.185-1.478 2.717-2.325 4.2-2.542 4.448ZM150.539 73.523c-.31.021-.682-.015-1.116-.108a3.145 3.145 0 0 1-1.24-.542c-.382-.27-.625-.651-.728-1.147a5.725 5.725 0 0 1-.109-1.163c0-.857.135-1.772.403-2.743.104-.362.372-.92.806-1.674.444-.754.858-1.369 1.24-1.844.248-.3.635-.667 1.162-1.1.538-.445.894-.703 1.07-.776.144-.072.31-.108.496-.108.124 0 .253.016.387.047.207.02.434.113.682.279.258.165.398.315.419.449 0 .041.02.062.062.062a.967.967 0 0 0 .279-.078.72.72 0 0 1 .31-.185 1.2 1.2 0 0 1 .403-.078c.134 0 .206.031.217.093a.188.188 0 0 0-.031.108c0 .062.02.109.062.14.051-.02.041.14-.031.48-.073.331-.155.579-.248.744l-.047.155v.047c0 .072-.046.155-.139.248-.062.093-.15.377-.264.852-.114.475-.165.765-.155.868.01.041-.015.072-.077.093a.604.604 0 0 1-.217.031 1.51 1.51 0 0 1-.543-.093 1.01 1.01 0 0 1-.356-.201c-.073-.073-.109-.176-.109-.31 0-.124.042-.326.124-.605.166-.558.248-.93.248-1.116 0-.206-.062-.356-.186-.45-.031-.061-.093-.108-.186-.139a.785.785 0 0 0-.279-.046.69.69 0 0 0-.31.077c-.237.093-.589.362-1.054.806a9.403 9.403 0 0 0-1.193 1.333 8.734 8.734 0 0 0-1.147 2.123 6.09 6.09 0 0 0-.372 2.03c0 .517.078 1.003.233 1.458.02.051.082.144.186.279.103.124.186.206.248.248.165.041.377.062.635.062.207 0 .455-.016.744-.047.413-.072.723-.186.93-.34.217-.156.439-.394.666-.714.093-.134.202-.201.326-.201.134 0 .258.072.372.217.113.144.186.315.217.511 0 .093-.093.284-.279.574-.176.279-.31.428-.403.45-.042.01-.067.025-.078.046 0 .01.005.036.016.077 0 .062-.114.15-.341.264a4.679 4.679 0 0 1-.837.34c-.32.114-.61.187-.868.218Zm7.89.249c-.3.051-.6.077-.899.077a1.6 1.6 0 0 1-.636-.109 1.255 1.255 0 0 1-.449-.294c-.093-.083-.14-.207-.14-.372 0-.103.021-.176.062-.217a2.01 2.01 0 0 1 .45-.217c.155-.052.418-.093.79-.124a4.797 4.797 0 0 0 2.124-.387c.671-.29 1.136-.636 1.394-1.039.197-.351.295-.645.295-.883 0-.258-.119-.517-.357-.775a.852.852 0 0 0-.232-.14.724.724 0 0 0-.248-.062l-.263-.03c-.186 0-.336.02-.45.061a2.13 2.13 0 0 0-.403.186c-.052.031-.16.093-.325.186a1.555 1.555 0 0 1-.45.155.79.79 0 0 1-.356.233 1.42 1.42 0 0 1-.45.077c-.144 0-.243-.025-.294-.077-.062 0-.114.03-.155.093a2.297 2.297 0 0 0-.202.372 2.7 2.7 0 0 1-.139.31 4.848 4.848 0 0 1-.202.527 3.88 3.88 0 0 1-.108.279 2.225 2.225 0 0 0-.078.279c-.155.382-.284.64-.387.775-.103.134-.207.201-.31.201a.206.206 0 0 1-.124-.046 1.412 1.412 0 0 1-.14-.124 1.212 1.212 0 0 0-.155-.186c-.072 0-.144-.042-.217-.124a.565.565 0 0 1-.108-.357c0-.103.026-.222.077-.356.052-.114.197-.501.434-1.163.486-1.322.744-1.994.775-2.014.011-.135.042-.233.093-.295.062-.072.093-.119.093-.14.021-.04.109-.263.264-.666.155-.403.299-.671.434-.806 0-.082.144-.351.434-.806a39.7 39.7 0 0 0 .232-.573c.042-.124.078-.217.109-.28.031-.072.051-.118.062-.139.093-.103.139-.19.139-.263 0-.041-.026-.088-.077-.14a2.318 2.318 0 0 0-.124-.14c-.021-.02-.042-.092-.062-.216a1.857 1.857 0 0 1-.031-.295c0-.03.17-.134.511-.31.352-.186.599-.31.744-.372.145-.062.331-.139.558-.232.238-.093.434-.165.589-.217.145-.052.305-.088.48-.108.176-.021.331-.026.465-.016a.997.997 0 0 1 .341-.062.9.9 0 0 1 .434.108c.166.052.378.187.636.404.258.206.403.392.434.557.041.207.062.357.062.45a.926.926 0 0 1-.109.418c-.02.217-.103.538-.248.961-.144.424-.258.677-.341.76-.144.227-.248.397-.31.511-.248.444-.49.796-.728 1.054-.021.02-.072.078-.155.17a35.95 35.95 0 0 0-.403.465c.052 0 .155.01.31.031.165.01.284.037.356.078.238.155.45.351.636.589.196.227.336.465.418.713a.66.66 0 0 1 .093.372c0 .206-.051.45-.155.728a3.133 3.133 0 0 1-.372.744c-.093.176-.294.429-.604.76-.3.32-.47.48-.512.48a.329.329 0 0 0-.201 0c-.072.031-.196.088-.372.17a1.35 1.35 0 0 1-.263.233c-.083.072-.15.098-.202.078a6.069 6.069 0 0 0-.589.279c-.269.072-.666.154-1.193.248Zm-.481-5.115c.021.031.155-.005.403-.108.259-.104.532-.238.822-.404a3.48 3.48 0 0 0 .682-.465c.196-.134.377-.3.542-.495.165-.207.248-.341.248-.403a1.94 1.94 0 0 1 .093-.202c.062-.103.14-.212.232-.325.124-.124.223-.243.295-.357.083-.124.124-.206.124-.248a2.56 2.56 0 0 1 .077-.186c.052-.093.114-.201.186-.325.114-.145.192-.315.233-.512.052-.196.083-.304.093-.325.021-.217-.016-.377-.109-.48-.082-.114-.211-.171-.387-.171l-.14.015-.372.047a2.63 2.63 0 0 0-.449.093 1.488 1.488 0 0 0-.356.14c-.259.165-.388.294-.388.387 0 .052.036.077.109.077.051 0 .077.037.077.109 0 .144-.098.377-.294.697-.166.29-.502.925-1.008 1.907-.496.981-.733 1.493-.713 1.534Zm7.306 5.3a1.486 1.486 0 0 1-.666-.247.89.89 0 0 1-.403-.698c0-.269.108-.563.325-.883.227-.331.47-.626.729-.884.134-.134.268-.294.403-.48.206-.258.33-.408.371-.45.403-.423.75-.775 1.039-1.054.3-.279.61-.527.93-.743a1.157 1.157 0 0 1-.326-.202l-.186-.186a3.22 3.22 0 0 1-.775-1.038 3.13 3.13 0 0 1-.248-1.225c0-.558.13-1.1.388-1.627.072-.165.191-.346.356-.543l.31-.465a4.74 4.74 0 0 1 .806-.573c.248-.145.538-.258.868-.341a1.99 1.99 0 0 1 .388-.093c.155-.031.263-.052.325-.062l.481-.093c.082-.02.217-.031.403-.031.175 0 .341-.02.496-.062.165.052.366.078.604.078.227 0 .398.015.511.046.145-.103.254-.155.326-.155.083 0 .212.057.387.17.114.01.212.047.295.109.082.062.181.16.294.294l.031.31.078.202a25.693 25.693 0 0 0-2.402 6.463l-.295 1.193-.077.341a53.17 53.17 0 0 1-.465 1.845c-.124.495-.223.77-.295.821a.233.233 0 0 1-.186.046h-.17c-.259 0-.496-.051-.713-.154-.217-.093-.326-.233-.326-.419 0-.02.011-.072.031-.155l.186-.542c.052-.155.186-.574.403-1.256.227-.682.367-1.188.419-1.519a.527.527 0 0 1 .046-.14.66.66 0 0 0 .062-.123c.062-.165.134-.48.217-.945-.269.124-.455.227-.558.31a2.392 2.392 0 0 1-.263.17 1.378 1.378 0 0 0-.264.186 5.815 5.815 0 0 1-.465.403 5.04 5.04 0 0 0-.496.45c-.475.516-.966 1.1-1.472 1.75-.506.641-.837 1.173-.992 1.597a.586.586 0 0 0-.046.186 1.55 1.55 0 0 1-.047.248 4.217 4.217 0 0 0-.372.17Zm3.844-6.385c.578 0 1.033-.165 1.364-.496.031-.093.056-.186.077-.279.031-.093.062-.18.093-.263.289-.858.517-1.524.682-2 .176-.475.372-.93.589-1.364l-.186.016c-.238.02-.403.036-.496.046l-.511.062a2.1 2.1 0 0 1-.279.016.712.712 0 0 0-.279.046c-.434.197-.77.378-1.008.543-.237.155-.454.387-.651.697-.351.569-.527 1.08-.527 1.535 0 .289.083.563.248.821.135.196.269.351.403.465a.768.768 0 0 0 .481.155Zm11.2-.589c-.031.052-.114.119-.248.202.176.113.331.237.465.371.145.135.232.254.263.357.3.475.45 1.033.45 1.674 0 .33-.036.661-.109.992-.258.496-.413.785-.465.868-.217.413-.547.77-.992 1.07-.444.299-.852.495-1.224.588a4.532 4.532 0 0 1-1.317.201c-.104 0-.248-.01-.434-.03a3 3 0 0 1-.713-.14 4.36 4.36 0 0 1-.791-.356 2.796 2.796 0 0 1-.806-.651 6.702 6.702 0 0 1-.62-.884.797.797 0 0 1-.124-.45c0-.196.062-.387.186-.573.124-.186.274-.335.45-.45a.738.738 0 0 1 .387-.123c.083 0 .155.015.217.046.073.031.124.052.155.062.197.031.321.135.372.31.052.176.083.269.093.28a3.973 3.973 0 0 1-.17.449.4.4 0 0 1-.171.201c.155.238.346.44.574.605.124.093.299.175.527.248.237.072.403.098.496.077.01-.01.036-.015.077-.015a.41.41 0 0 1 .155.03c.062.011.098.011.109 0a.845.845 0 0 1 .279-.03.93.93 0 0 0 .341-.078c.33-.093.625-.222.883-.387.258-.176.501-.403.728-.682.155-.217.259-.408.31-.574.062-.175.104-.408.124-.697.021-.155 0-.33-.062-.527a8.677 8.677 0 0 1-.124-.418l-.201-.156-.341-.093c-.269-.082-.46-.123-.573-.123-.124 0-.254.02-.388.061a1.59 1.59 0 0 1-.356.078.627.627 0 0 1-.31-.078 1.72 1.72 0 0 0-.155-.108.815.815 0 0 1-.388-.325 1.01 1.01 0 0 1-.155-.512c0-.093.026-.18.078-.263a.616.616 0 0 1 .294-.264.736.736 0 0 1 .45-.077c.041.01.098.015.17.015.145 0 .32-.041.527-.124.124-.041.32-.155.589-.34.269-.187.403-.275.403-.264.341-.434.584-.76.728-.977a3.12 3.12 0 0 0 .372-.744c.114-.206.171-.428.171-.666a.992.992 0 0 0-.078-.388c-.01-.062-.082-.113-.217-.155a1.27 1.27 0 0 0-.372-.062.383.383 0 0 0-.139.016c-.165.01-.408.072-.728.186-.321.103-.512.18-.574.232-.558.476-.894.796-1.007.961a.418.418 0 0 1-.217.17.758.758 0 0 1-.31.063c-.197 0-.326-.052-.388-.155a1.117 1.117 0 0 1-.17-.59c0-.237.088-.464.263-.681a7.09 7.09 0 0 1 .512-.589c.144-.155.315-.29.511-.403l.295-.17a8.26 8.26 0 0 0 .279-.156c.155-.082.299-.144.434-.185.041-.01.16-.052.356-.124a1.957 1.957 0 0 1 .868-.093c.351.03.61.093.775.186.176.093.444.294.806.604.155.103.279.284.372.542.093.259.139.553.139.884 0 .496-.093.945-.279 1.348a3.711 3.711 0 0 0-.17.326c-.021.041-.088.165-.202.372a2.77 2.77 0 0 1-.356.527c-.093.124-.289.367-.589.728Zm1.649 6.262a1.144 1.144 0 0 1-.248-.17.315.315 0 0 1-.062-.202c0-.104.042-.248.124-.434.093-.197.248-.501.465-.915.062-.134.181-.372.357-.713.444-.847.666-1.472.666-1.875a.222.222 0 0 1-.015-.093c0-.103.082-.196.248-.279a5.49 5.49 0 0 1 .325-.263 1.74 1.74 0 0 0 .465-.496c.135-.31.305-.651.512-1.023.206-.383.563-1.003 1.069-1.86.496-.91 1.023-1.73 1.581-2.464a1.33 1.33 0 0 1 .341-.341c.134-.083.248-.124.341-.124.32 0 .646.123.976.371.341.248.563.497.667.744.041.073.062.228.062.465 0 .32-.036.863-.109 1.628a9.35 9.35 0 0 0-.062.635c-.031.465-.077.961-.139 1.488a145.704 145.704 0 0 0-.248 2.712c-.052.651-.078 1.26-.078 1.83 0 .288.005.5.016.635v.108l-.016.357c-.062.062-.186.093-.372.093a1.88 1.88 0 0 1-.62-.109c-.206-.062-.32-.14-.341-.232a.165.165 0 0 0-.046-.031c-.021-.01-.031-.057-.031-.14l.015-.34.047-.869.077-2.371-.201.015c-.207 0-.646.042-1.317.124-.662.083-1.08.15-1.256.202-.093 0-.207.062-.341.186a1.762 1.762 0 0 0-.356.48 2.41 2.41 0 0 1-.217.45c-.114.186-.171.294-.171.325a.655.655 0 0 0-.17.17 1.587 1.587 0 0 0-.078.125c0 .113-.103.408-.31.883a7.218 7.218 0 0 1-.589 1.147l-.418.589-.543-.418Zm3.705-5.332.434-.062c.217-.041.408-.067.573-.078.496-.123.837-.185 1.023-.185.103 0 .176.01.217.03a.392.392 0 0 0 .093.094c.041.01.067.015.077.015.021-.083.104-.646.248-1.69.145-1.043.217-1.684.217-1.921 0-.166-.005-.305-.015-.419a1.484 1.484 0 0 0-.031-.232c-.093 0-.305.248-.636.744-.33.486-.651 1.038-.961 1.658-.237.424-.402.636-.495.636-.073.072-.228.315-.465.728-.238.413-.331.64-.279.682Zm7.915 5.471c-.041.041-.082.062-.124.062-.051 0-.139-.031-.263-.093a.956.956 0 0 1-.465-.263.595.595 0 0 1-.186-.434c0-.042.021-.124.062-.248.093-.176.331-1.039.713-2.589l.263-1.023c0-.01.021-.17.062-.48.031-.155.078-.44.14-.852.124-.238.207-.496.248-.775.052-.29.083-.455.093-.496.072-.29.124-.47.155-.543l.139-.542.093-.357c.073-.258.109-.423.109-.496v-.248h-.574l-.248.016c-.165 0-.294-.005-.387-.016l-.543-.015c-.485-.02-.811-.067-.976-.14-.165-.082-.253-.237-.263-.465-.042-.206.062-.366.31-.48.248-.124.754-.176 1.518-.155.145-.01.341-.016.589-.016.248 0 .45.006.605.016.155.01.243.015.263.015a.37.37 0 0 0 .078-.123c.02-.052.036-.093.046-.124 0-.176.057-.285.171-.326.062-.134.191-.202.387-.202a.81.81 0 0 1 .341.078.611.611 0 0 1 .264.217.87.87 0 0 1 .031.279c0 .134.031.232.093.294.041-.04.175-.067.403-.077.227-.01.387-.02.48-.031.196 0 .398-.005.605-.016a5.14 5.14 0 0 1 .418-.03c.093-.052.238-.078.434-.078.093 0 .222.01.387.031.207 0 .357.047.45.14.093.082.176.18.248.294 0 .114.026.196.077.248.042.03.062.062.062.093 0 .02-.02.067-.062.14-.072.092-.258.139-.558.139l-.325.015a6.006 6.006 0 0 1-.496.031 9.63 9.63 0 0 1-1.581.17c-.424 0-.635.042-.635.125-.062 0-.181.336-.357 1.007a7.913 7.913 0 0 1-.201.682c-.062.197-.114.33-.155.403a.226.226 0 0 1 .046.14c0 .051-.031.165-.093.34a4.475 4.475 0 0 1-.108.342.7.7 0 0 0-.062.248c-.011.04-.042.144-.093.31-.042.154-.078.33-.109.526-.051.496-.119.786-.201.868a1.512 1.512 0 0 1-.078.124.444.444 0 0 0-.046.202c0 .145-.036.403-.109.775-.072.361-.129.558-.17.589.031 0 .046.03.046.093 0 .072-.031.18-.093.325 0 .083-.015.181-.046.295a1.103 1.103 0 0 0-.047.232c-.103.29-.248.656-.434 1.1-.186.445-.299.688-.341.729Zm12.702-8.927c-.021.537-.083.93-.186 1.178-.104.248-.248.377-.434.387l-.341-.062a1.7 1.7 0 0 1-.512-.217.48.48 0 0 1-.232-.418c0-.073.036-.243.108-.512.114-.454.171-.733.171-.837 0-.32-.14-.527-.419-.62-.32 0-.728.248-1.224.744s-.987 1.111-1.472 1.845a12.925 12.925 0 0 0-1.147 2.092c-.507 1.457-.791 2.438-.853 2.945.021.082.031.201.031.356 0 .073-.015.109-.046.109a1.6 1.6 0 0 0 .279.682c.165.217.356.325.573.325.217 0 .481-.036.791-.108.32-.083.552-.176.697-.28.083 0 .212-.035.388-.108.186-.082.31-.14.372-.17.32-.145.589-.254.805-.326.217-.083.419-.124.605-.124.072 0 .212.02.418.062-.01.041-.025.124-.046.248a2.706 2.706 0 0 1-.093.357c-.176.248-.336.423-.481.527a3.029 3.029 0 0 1-.573.325c-.196.072-.372.16-.527.264-.744.454-1.483.681-2.216.681-.331 0-.693-.072-1.085-.217a3.041 3.041 0 0 1-.946-.51c-.082-.135-.191-.414-.325-.838-.134-.423-.202-.692-.202-.806 0-.03.011-.077.031-.14a.48.48 0 0 0 .031-.139v-.155a.604.604 0 0 1-.031-.186c.011-.32.14-.847.388-1.58a27.79 27.79 0 0 1 1.023-2.496c.258-.558.63-1.178 1.116-1.86a14.62 14.62 0 0 1 1.534-1.829c.537-.526.982-.857 1.333-.992a1.77 1.77 0 0 1 .527-.108c.372 0 .723.093 1.054.279.331.176.599.455.806.837.206.372.31.837.31 1.395Zm.907 8.834a2.717 2.717 0 0 1-.465-.45c-.124-.165-.186-.315-.186-.449 0-.196.17-.336.511-.418 1.065-.259 2.258-1.297 3.581-3.116-.455-.248-.796-.506-1.023-.775-.228-.278-.393-.66-.496-1.146a2.956 2.956 0 0 1-.078-.62c.052-.073.078-.181.078-.326.01-.144.026-.248.046-.31l.341-1.007c.341-.982 1.292-1.741 2.852-2.279.506-.206.878-.294 1.116-.263l.201-.015a.878.878 0 0 1 .434-.031.475.475 0 0 1 .14-.016c.175 0 .372.057.589.17.227.104.418.238.573.404.166.165.248.33.248.495a.416.416 0 0 1-.015.124c-.104.3-.171.491-.202.574-.165.516-.299.899-.403 1.147-.279.682-.604 1.653-.976 2.913-.362 1.261-.568 2.18-.62 2.76-.083.227-.155.604-.217 1.13-.01.094-.031.228-.062.404-.021.175-.047.32-.078.434-.031.134-.124.253-.279.356a.834.834 0 0 1-.465.155.481.481 0 0 1-.217-.046 1.495 1.495 0 0 1-.325-.233 8.856 8.856 0 0 1-.325-.31 6.48 6.48 0 0 0 .108-.511c.041-.28.098-.507.171-.682a9.6 9.6 0 0 1 .139-.884 2.6 2.6 0 0 0 .062-.325 4.22 4.22 0 0 1 .186-.729l.031-.248c-.145.238-.542.718-1.193 1.442a16.41 16.41 0 0 1-2.062 1.937c-.713.558-1.286.806-1.72.744Zm5.316-5.564c.486-1.54.899-2.909 1.24-4.107-.475.052-.94.191-1.395.418a3.519 3.519 0 0 0-1.147.9 2.32 2.32 0 0 0-.542 1.255 1.76 1.76 0 0 1-.078.372.444.444 0 0 0-.046.201c0 .207.082.408.248.605.175.196.356.294.542.294a.744.744 0 0 0 .388-.124 5.12 5.12 0 0 1 .232-.14l.558.326Zm9.226 2.17a.452.452 0 0 1-.356-.186.701.701 0 0 1-.109-.388.91.91 0 0 0-.031-.124 1.583 1.583 0 0 1-.015-.217c0-.051.005-.093.015-.124 0-.051.047-.18.14-.387.072-.176.124-.305.155-.388a4.44 4.44 0 0 1 .511-.681c.238-.27.444-.465.62-.59l.264-.185c0-.042.072-.12.216-.233.145-.114.269-.196.372-.248l.217-.155c.104-.072.202-.15.295-.232.227-.228.398-.44.511-.636a2.55 2.55 0 0 0 .248-.62c.052-.206.13-.558.233-1.054.01-.34-.005-.557-.047-.65-.031-.093-.113-.192-.248-.295a2.544 2.544 0 0 0-.341-.031c-.692 0-1.229.419-1.611 1.255-.073.186-.109.32-.109.403a.61.61 0 0 0 .047.202c0 .062.01.155.031.279.031.114.046.201.046.263-.021.01-.088.031-.201.062a1.355 1.355 0 0 1-.357.047c-.207 0-.367-.057-.48-.17a2.013 2.013 0 0 0-.124-.156 4.657 4.657 0 0 1-.155-.217.464.464 0 0 1-.078-.186 1.166 1.166 0 0 1-.015-.186c.01-.072.015-.144.015-.217.124-.392.31-.78.558-1.162.248-.382.548-.661.899-.837a8.55 8.55 0 0 0 .899-.465h.155l.356-.046h.171c.103 0 .155.02.155.062h.449c.186.051.419.17.698.356.279.176.475.326.589.45.062.196.093.434.093.712 0 .517-.098 1.08-.295 1.69-.196.6-.449 1.07-.759 1.41l-.341.31c-.506.455-.827.76-.961.915-.331.186-.636.47-.915.852a4.6 4.6 0 0 0-.619 1.178c-.197.413-.46.62-.791.62Zm-.356 2.743a1.335 1.335 0 0 1-.496.124c-.155 0-.331-.072-.527-.217-.155-.155-.233-.31-.233-.465 0-.258.191-.516.574-.775.103-.062.196-.113.279-.155a.498.498 0 0 1 .217-.062c.082 0 .222.042.418.124.3.176.45.388.45.636 0 .289-.228.553-.682.79Z" fill="#1EA6F9"/></g><defs><clipPath id="a"><path fill="#fff" d="M0 0h366v326H0z"/></clipPath></defs></svg>