<svg width="366" height="326" fill="none" xmlns="http://www.w3.org/2000/svg"><circle opacity=".1" cx="207.974" cy="169" r="123" fill="#B5E3FF"/><circle opacity=".4" cx="207.974" cy="169" r="94.813" fill="#B5E3FF"/><path opacity=".23" d="M168.025 273.486c-5.375-3.51-13.438 1.462-16.797 4.387l52.631-73.763 50.952 21.663 5.879 55.665c-3.173-1.188-10.694-3.565-15.398-3.565-5.879 0-27.715 6.581-38.073 6.581-10.359 0-32.475-6.581-39.194-10.968Z" fill="#070707"/><path d="M188.729 272.042c20.426 5.523 41.477 4.045 57.812-2.038 4.452 4.298 15.321 13.855 16.071 9.842a54.7 54.7 0 0 0-.676-17.953 37.148 37.148 0 0 0 11.566-13.137c10.309-20.847 8.956-42.591-5.487-62.192-1.914-10.37-11.641-32.854-15.933-35.262 12.01-14.257 15.246-34.85-5.541-47.871-20.786-13.021-49.259-4.995-52.864 14.985-3.606 19.981 5.688 23.889 5.688 23.889s-12.688 5.797-16.811 8.997c-4.124 3.2-10.922 8.998-10.922 8.998l-12.465 5.344-5.086 2.217-1.903 2.324s-19.613 12.166-21.336 31.439c-1.724 19.273 5.011 36.962 6.914 38.018 1.904 1.056 13.1 13.423 13.1 13.423l-2.453 5.871-.655 8.343-.148 6.907-.656 2.999 1.956.623 4.293-1.763 6.344-5.397 7.496-5.924a27.561 27.561 0 0 1 6.555 2.112c2.77 1.383 15.141 5.206 15.141 5.206Z" fill="#F5FCFF"/><path d="M185.388 156.023s9.061-5.903 13.11-7.783c4.05-1.88 5.53-2.704 5.53-2.704 2.842.607 5.733.96 8.638 1.056 3.5 0 9.579-1.964 12.825-2.027 4.726-.602 12.825 3.094 20.512 7.688 9.716 5.798 16.916 21.977 18.354 27.901 1.438 5.925 0 2.112 0 2.112s-15.785-18.924-45.612-24.596c-29.826-5.671-34.964-.126-34.964-.126l1.607-1.521Z" fill="#B5E3FF"/><path d="M136.678 224.403s-4.325-18.872 5.72-35.452a60.464 60.464 0 0 1 5.286-7.392c-6.862 23.698 7.845 5.016 12.307 1.467 4.229-3.4 37.618 4.721 4.948-15.186 13.259-6.632 33.421-11.616 59.97-3.823 16.462 4.858 32.607 15.577 40.758 27.511-37.882 6.062-4.609 9.705-2.949 13.729 2.114 5.153 5.381 30.087 11.63 13.422 1.829 13.602-1.205 26.402-8.543 33.794-11.334-16.189-24.836-26.137-65.214-24.564-26.253-19.41-50.422-14.288-63.913-3.506Z" fill="#B5E3FF"/><path d="M254.471 151.302s7.401-11.152 5.699-20.318c-1.554-8.09-7.052-23.762-26.189-28.852-14.157-3.78-33.516 1.542-36.297 23.064-2.02 15.63 14.622 21.798 17.276 21.555 2.654-.243 14.379-2.968 15.859-5.925 4.082.803 21.231 10.476 21.231 10.476h2.421ZM143.455 199.87s8.723-26.686 14.802-28.64c6.08-1.954 15.331 5.502 21.009 9.769-4.229.58-11.017 3.368-12.434 4.52-1.554-1.627-6.756-3.855-6.756-3.855l-2.305 2.112-1.385 6.896a37.86 37.86 0 0 0-6.682 3.633 68.296 68.296 0 0 0-6.249 5.565Zm110.783 6.643s-2.833-4.583-4.387-5.523c-1.555-.94-4.589-3.168-4.589-3.168s21.146-3.844 24.635-.75c3.489 3.094 1.174 29.718 1.174 29.718l-1.481 3.379s-2.802-5.523-3.806-8.015c-1.004-2.493-4.906-7.15-4.906-7.15l2.199-6.738-1.755-3.052h-4.388l-2.696 1.299Zm-100.685 49.308a6.02 6.02 0 0 0-2.295 3.569c-.539 2.429-.877 7.952 0 9.104.878 1.151 1.343 3.168.878 4.108a3.843 3.843 0 0 1-2.168 2.112 1.442 1.442 0 0 0-1.114 1.343c-.008.209.029.418.11.611.328.813 2.696.612 3.235 0 .54-.613 5.847-4.784 7.285-5.999 1.438-1.214 5.636-5.872 7.496-5.924 1.861-.053-2.971-2.577-2.971-2.577l-10.456-6.347Zm93.94 14.056s4.99-2.503 6.249-3.168c1.258-.665 7.686-4.436 7.686-4.436s-3.172 4.341-3.172 7.615c0 3.273.941 6.262 1.586 6.674.645.412 2.432-.201 3.003.507.571.707-.571 2.788-.983 2.788-.413 0-4.409-.401-5.71-2.408-1.3-2.006-5.593-5.101-6.777-5.576-1.184-.475-2.833-1.278-2.833-1.278l.951-.718Zm-70.841-65.549c6.706-2.03 11.02-7.377 9.634-11.943-1.385-4.566-7.944-6.621-14.65-4.592-6.706 2.03-11.02 7.377-9.634 11.943 1.385 4.566 7.944 6.622 14.65 4.592Zm73.403 18.087c3.768-2.932 3.333-9.784-.972-15.306-4.306-5.522-10.851-7.623-14.62-4.691-3.768 2.931-3.333 9.784.972 15.306 4.306 5.522 10.851 7.622 14.62 4.691Z" fill="#1EA6F9"/><path d="M167.811 229.246c.762-3.738-4.038-7.87-10.721-9.229-6.683-1.359-12.718.569-13.48 4.307-.762 3.737 4.038 7.869 10.721 9.229 6.683 1.359 12.718-.569 13.48-4.307Zm91.518 22.033c1.085-3.658-3.337-8.191-9.877-10.126-6.539-1.935-12.72-.538-13.804 3.119-1.085 3.657 3.337 8.191 9.876 10.126 6.54 1.934 12.72.538 13.805-3.119Z" fill="#FFDCD9"/><path d="M214.061 276.562a94.532 94.532 0 0 1-20.913-2.26c-16.652-3.823-70.268-20.424-62.708-73.238 1.85-12.969 8.786-23.656 20.416-31.798a1.133 1.133 0 0 1 1.693 1.129 1.131 1.131 0 0 1-.403.719c-11.186 7.762-17.752 17.953-19.517 30.267-7.285 50.923 44.818 67.018 60.963 70.756 27.68 6.336 73.26.074 83.156-33.731a56.241 56.241 0 0 0-1.332-36.497 1.13 1.13 0 0 1 .65-1.463 1.133 1.133 0 0 1 1.465.65 58.497 58.497 0 0 1 1.395 37.944c-8.024 27.415-38.369 37.522-64.865 37.522Zm57.634-83.567a1.132 1.132 0 0 1-.963-.528c-10.097-16.305-28.462-28.197-51.701-33.54-15.236-3.496-40.759-2.334-60.773 8.512a1.137 1.137 0 0 1-1.429-.515 1.134 1.134 0 0 1 .371-1.471c20.512-11.11 46.701-12.303 62.381-8.723 23.831 5.46 42.693 17.731 53.118 34.555a1.113 1.113 0 0 1 .028 1.135 1.122 1.122 0 0 1-.98.575h-.052Zm-17.996-39.591a1.06 1.06 0 0 1-.729-.275 1.126 1.126 0 0 1-.394-.765 1.127 1.127 0 0 1 .267-.819c.084-.084 8.004-9.431 8.775-19.97.772-10.54-10.361-31.682-34.467-33.583a29.777 29.777 0 0 0-23.134 7.551c-7.401 6.621-10.573 15.577-10.573 18.185-.095 3.369.296 11.776 5.826 17.151 3.637 3.527 8.902 5.132 15.658 4.752 6.756-.38 11.874-2.482 15.13-6.273a17.877 17.877 0 0 0 3.891-12.176 1.134 1.134 0 0 1 .291-.762 1.139 1.139 0 0 1 1.515-.15c.226.168.381.414.435.69a19.853 19.853 0 0 1-4.409 13.845c-3.658 4.224-9.304 6.653-16.758 7.065-7.454.412-13.248-1.405-17.35-5.386-6.174-5.998-6.64-15.176-6.513-18.819.095-3.327 3.616-12.852 11.356-19.791a31.963 31.963 0 0 1 24.814-8.12c25.925 2.111 37.397 24.183 36.53 35.979-.825 11.3-8.966 20.879-9.304 21.28-.107.122-.239.22-.386.288a1.158 1.158 0 0 1-.471.103Z" fill="#070707"/><path d="M171.632 161.419a1.142 1.142 0 0 1-.824-.359 1.128 1.128 0 0 1 .063-1.594 130.989 130.989 0 0 1 13.914-11.036 88.334 88.334 0 0 1 13.935-7.118 1.135 1.135 0 0 1 1.452 1.511 1.134 1.134 0 0 1-.627.601 86.9 86.9 0 0 0-13.534 6.907 133.55 133.55 0 0 0-13.618 10.771 1.045 1.045 0 0 1-.761.317Zm96.372 26.275a1.123 1.123 0 0 1-1.121-1.056c0-.105-.37-10.497-7.697-24.49-7.327-13.993-28.462-20.857-28.673-20.931a1.112 1.112 0 0 1-.756-.53 1.123 1.123 0 0 1-.102-.916 1.126 1.126 0 0 1 1.085-.773c.159.002.316.039.46.107.909.295 22.288 7.318 29.974 21.976 7.591 14.49 7.94 25.04 7.951 25.483a1.132 1.132 0 0 1-1.057 1.151l-.064-.021Zm-118.406 91.244c-2.114 0-3.066-.824-3.489-1.542a2.885 2.885 0 0 1 .222-3.041c.391-.666.307-4.225.254-6.569 0-1.69-.074-3.432 0-4.985.137-4.741 3.172-10.064 3.267-10.286.073-.128.17-.241.287-.331a1.13 1.13 0 0 1 1.578.195 1.123 1.123 0 0 1 .091 1.245s-2.855 5.059-2.971 9.241v4.868c.095 4.224.116 6.717-.624 7.847a.734.734 0 0 0-.159.686c.117.19.667.486 1.978.412 1.522-.095 3.023-1.658 4.609-3.305a21.924 21.924 0 0 1 3.553-3.169 22.048 22.048 0 0 0 2.781-2.312c2.061-1.912 4.409-4.077 7.528-4.077a1.13 1.13 0 0 1 0 2.25c-2.242 0-4.071 1.689-6.006 3.474a23.852 23.852 0 0 1-3.066 2.545 19.725 19.725 0 0 0-3.172 2.862c-1.818 1.891-3.7 3.834-6.09 3.992h-.571Zm111.534 2.461c-1.533 0-3.796-.95-6.238-3.664-2.442-2.715-9.844-6.4-9.918-6.442a1.128 1.128 0 1 1 1.058-1.996c.328.158 7.961 4.055 10.573 6.938 2.357 2.608 4.134 2.989 4.715 2.904a4.223 4.223 0 0 0 .878-2.83c-.529-.391-1.745-1.658-.37-8.311a11.501 11.501 0 0 0-.74-5.439 1.134 1.134 0 0 1-.242-1.387 1.131 1.131 0 0 1 1.299-.546c1.575.571 2.273 5.788 1.85 7.826-.729 3.548-.666 5.734-.38 6.146.719.486.993 1.605.719 3.073-.233 1.194-1.058 3.306-2.464 3.644a2.975 2.975 0 0 1-.74.084Zm-117.677-81.074h-.211a1.131 1.131 0 0 1-.846-1.342c.962-5.037 6.069-30.298 11.905-32.516 11.969-4.562 25.491 12.673 26.062 13.444a1.118 1.118 0 0 1-.211 1.573 1.115 1.115 0 0 1-.832.221 1.126 1.126 0 0 1-.743-.432c-.127-.158-13.047-16.675-23.472-12.673-3.426 1.299-8.205 18.82-10.499 30.838a1.134 1.134 0 0 1-1.153.887Z" fill="#070707"/><path d="M156.989 191.729a1.12 1.12 0 0 1-1.121-1.056c0-1.363-.064-8.28 3.055-9.801 3.352-1.626 7.465 3.38 7.919 3.95a1.123 1.123 0 1 1-1.755 1.405c-1.353-1.701-3.943-3.929-5.17-3.338-1.226.592-1.871 5.006-1.808 7.731a1.12 1.12 0 0 1-1.057 1.151l-.063-.042Zm112.094 40.679a1.187 1.187 0 0 1-.497-.116 1.131 1.131 0 0 1-.507-1.51c.126-.254 12.56-25.684 4.704-35.748-4.736-6.083-21.145.306-27.013 3.274a1.144 1.144 0 0 1-.862.081 1.134 1.134 0 0 1-.747-1.411 1.124 1.124 0 0 1 .551-.666c.941-.475 22.965-11.427 29.805-2.661 8.723 11.183-3.922 37.036-4.461 38.134a1.15 1.15 0 0 1-.973.623Z" fill="#070707"/><path d="M260.878 216.493a1.108 1.108 0 0 1-.945-.479 1.112 1.112 0 0 1-.112-1.052c1.48-3.718 2.115-7.667 1.343-8.269-1.058-.856-4.483.169-6.439 1.13a1.13 1.13 0 0 1-1.507-.512 1.12 1.12 0 0 1 .513-1.505c1.057-.497 6.227-2.905 8.818-.887 2.59 2.017.18 8.839-.635 10.877a1.134 1.134 0 0 1-1.036.697Zm-87.015 8.86c4.21 0 7.623-3.409 7.623-7.614s-3.413-7.614-7.623-7.614c-4.21 0-7.623 3.409-7.623 7.614s3.413 7.614 7.623 7.614Zm58.574 14.289c4.21 0 7.623-3.409 7.623-7.614s-3.413-7.614-7.623-7.614c-4.21 0-7.623 3.409-7.623 7.614s3.413 7.614 7.623 7.614Z" fill="#070707"/><path d="M169.137 219.556c.064-1.753 3.035-2.493 5.065-1.891 2.03.602 3.912 1.553 3.711 2.83-.201 1.278-2.347 2.366-4.377 2.113-2.03-.254-4.462-1.162-4.399-3.052ZM227.7 233.58c.212-1.858 3.257-2.429 5.35-2.112 2.094.317 3.807 1.848 3.606 3.263-.201 1.416-2.517 2.324-4.547 2.06-2.03-.264-4.609-1.341-4.409-3.211Z" fill="#333"/><path d="M177.712 218.141a1.817 1.817 0 1 0 0-3.633 1.817 1.817 0 1 0 0 3.633Zm-3.373.528a1.005 1.005 0 1 0-.001-2.01 1.005 1.005 0 0 0 .001 2.01Zm62.221 13.348a1.817 1.817 0 1 0-1.818-1.817c0 1.004.814 1.817 1.818 1.817Zm-3.372.528a1.003 1.003 0 1 0 .002-2.006 1.003 1.003 0 0 0-.002 2.006Z" fill="#fff"/><path d="M184.996 228.384s2.845 3.168 5.942 3.643a21.11 21.11 0 0 0 9.791-.95c1.882 2.429 4.737 5.396 7.211 6.041 2.474.644 6.756.834 8.638-.264-3.341 15.123-11.514 16.231-17.731 15.408-5.879-.782-14.506-4.51-14.39-15.113a33.423 33.423 0 0 1 .539-8.765Z" fill="#4F172F"/><path d="M201.607 253.571a21.593 21.593 0 0 1-2.908-.2c-7.507-.993-15.479-5.777-15.362-16.232a34.324 34.324 0 0 1 .571-9.019 1.117 1.117 0 0 1 1.428-.807c.196.062.371.177.506.332 0 0 2.601 2.894 5.287 3.263 3.121.44 6.302.136 9.283-.887a1.113 1.113 0 0 1 1.237.37c2.379 3.073 4.853 5.185 6.608 5.639 2.464.634 6.344.708 7.792-.148a1.127 1.127 0 0 1 1.228.094 1.12 1.12 0 0 1 .401 1.163c-2.422 11.015-7.687 16.432-16.071 16.432Zm-15.86-22.916a39.269 39.269 0 0 0-.19 6.442c-.127 11.384 10.245 13.634 13.417 14.056 5.286.697 12.592.085 16.018-12.599-2.466.37-4.981.251-7.401-.348-2.855-.75-5.815-3.96-7.338-5.819a22.102 22.102 0 0 1-9.515.75 10.787 10.787 0 0 1-4.991-2.482Z" fill="#000"/><path d="M197.885 232.028s-3.51-3.369-2.358-6.674c1.152-3.306 5.731-2.366 7.961-1.616 2.231.75 5.604 2.492 4.526 4.647-1.079 2.154-5.541 5.195-5.541 5.195l-2.431-2.291-2.157.739Z" fill="#070707"/><path d="M200.634 228.944a3.765 3.765 0 0 1-1.237-1.478.939.939 0 0 1 .655-1.056 4.231 4.231 0 0 1 2.305.76c.444.296 2.03 1.056 1.501 1.352-.528.296-1.607-.158-1.586.137.022.296.138.856-.317.856-.472-.106-.92-.3-1.321-.571Z" fill="#333"/><path d="M192.355 267.818c4.102.264 7.961-2.292 8.099-9.23.137-6.939 5.128-8.839 5.128-10.318a5.131 5.131 0 0 0-5.403-4.446c-3.436.338-6.746 3.907-6.883 6.336.137-2.492 3.849-5.871 3.849-5.871a3.764 3.764 0 0 0-2.496-2.112c-3.034-.476-9.114 2.83-9.114 10.106s-.539 15.06 6.82 15.535Z" fill="#F87294"/><path d="M192.937 268.958h-.656c-7.94-.507-7.909-8.322-7.877-15.228v-1.394a11.497 11.497 0 0 1 3.923-8.913 8.701 8.701 0 0 1 6.481-2.313 4.636 4.636 0 0 1 3.045 2.196 7.417 7.417 0 0 1 2.21-.58 5.828 5.828 0 0 1 4.546 1.531 6.106 6.106 0 0 1 2.115 4.034c0 .929-.666 1.616-1.523 2.482a10.558 10.558 0 0 0-3.595 7.836c-.074 3.622-1.142 6.484-3.087 8.279a8.005 8.005 0 0 1-5.582 2.07Zm-.508-2.249a6.058 6.058 0 0 0 4.536-1.458c1.491-1.372 2.305-3.675 2.368-6.674a12.675 12.675 0 0 1 4.229-9.399c.32-.295.61-.62.867-.971a4.066 4.066 0 0 0-1.332-2.303 3.544 3.544 0 0 0-2.823-.95 7.659 7.659 0 0 0-2.972 1.197 7.626 7.626 0 0 0-2.219 2.309 4.329 4.329 0 0 0-.677 1.669 1.121 1.121 0 1 1-2.241-.022v-.327c.103-.635.31-1.249.613-1.816a16.23 16.23 0 0 1 2.886-3.834c-.3-.405-.735-.69-1.226-.803a6.475 6.475 0 0 0-4.673 1.785 9.283 9.283 0 0 0-3.172 7.213v1.405c0 7.846.328 12.673 5.773 12.979h.063Z" fill="#A50639"/><path d="M40.705 56.16C37.57 84.206 81.616 97.147 107.27 99.674c35.878 4.012 46.195 2.095 55.183 1.565l9.521 21.261 10.81-25.127c12.294-2.719 66.168-6.672 64.994-38.27-1.275-34.321-75.498-41.188-101.424-42.04-25.925-.852-101.492 1.92-105.649 39.097Z" fill="#fff"/><path d="M85.083 35.721a.842.842 0 0 1 .507.292.8.8 0 0 1 .215.538.467.467 0 0 1-.016.138.9.9 0 0 1-.123.245.228.228 0 0 1-.168.062c-.103 0-.256-.052-.461-.154-.102.174-.159.287-.169.338a4.03 4.03 0 0 1-.169.491c-.092.113-.23.44-.414.983-.174.542-.261.895-.261 1.059a12.18 12.18 0 0 0-.23.783c-.103.379-.22.793-.353 1.243a959.137 959.137 0 0 0-.876 3.025c-.01.163-.035.363-.076.598-.02.154-.041.374-.062.66a.27.27 0 0 1 .016.108.249.249 0 0 1-.046.153.204.204 0 0 1-.093.077c-.133.113-.317.17-.552.17-.256 0-.435-.067-.537-.2-.154-.267-.216-.471-.185-.614a23.9 23.9 0 0 1 .246-1.72 7.87 7.87 0 0 1 .2-.783c.071-.235.117-.338.138-.307l.307-1.105a3.5 3.5 0 0 0 .138-.507c.04-.174.071-.291.092-.353a9.9 9.9 0 0 1 .292-1.09c.143-.338.291-.844.445-1.52.061-.225.143-.48.245-.767.113-.287.185-.435.215-.446a8.4 8.4 0 0 0-.813.123 8.927 8.927 0 0 1-.89.139l-1.045.153c-.573.082-.88.123-.92.123l-1.106 2.564-.783 2.041a43.343 43.343 0 0 1-.69 2.134c-.031.103-.098.307-.2.614-.103.297-.19.62-.261.967l-.108.538a.902.902 0 0 1-.245.337.496.496 0 0 1-.338.108c-.317 0-.548-.056-.691-.169-.133-.112-.2-.292-.2-.537a6.93 6.93 0 0 1 .185-.507c.061-.164.107-.312.138-.445.072-.287.143-.543.215-.768l.123-.368c.327-1.126.603-1.965.829-2.518l.414-1.166c.03-.062.087-.21.169-.446l.537-1.596c.246-.492.42-.937.522-1.336a.7.7 0 0 1-.107-.384c0-.163.046-.302.138-.414a.514.514 0 0 1 .399-.169c.072 0 .123.005.153.015.175.051.471.087.89.108.42.01.636.01.646 0 .102-.051.588-.138 1.458-.261.88-.123 1.745-.235 2.595-.338l.168-.015c.093 0 .277.025.553.076Zm.975 11.023c-.102 0-.256-.051-.46-.154-.205-.102-.307-.21-.307-.322a.95.95 0 0 0-.016-.123.65.65 0 0 0-.061-.184c0-.256.025-.46.077-.614 0-.113.015-.235.046-.368.03-.133.066-.24.107-.323 0-.082.02-.19.061-.322.041-.144.067-.24.077-.292l.092-.322.261-.783a2.26 2.26 0 0 0 .108-.307.951.951 0 0 0 .03-.23 58.671 58.671 0 0 0 .461-1.613c.051-.05.077-.127.077-.23l.138-.43c.072-.235.154-.48.246-.736.153-.45.27-.82.353-1.106.082-.286.123-.486.123-.598a.352.352 0 0 0-.047-.185 1.128 1.128 0 0 0-.046-.123.856.856 0 0 1-.061-.184c0-.04.02-.082.061-.123a.484.484 0 0 0 .093-.122c.03-.052.05-.087.06-.108 0-.04.252-.158.753-.353a14.69 14.69 0 0 1 1.182-.43h.937c.286.041.568.123.844.246s.507.276.69.46c.318.297.605.732.86 1.305 0 .041.01.133.031.277.03.133.046.25.046.353 0 .48-.174 1.033-.522 1.658a5.492 5.492 0 0 1-1.397 1.658c-.337.266-.696.47-1.074.614a2.919 2.919 0 0 1-1.06.215 1.91 1.91 0 0 1-.43-.046.778.778 0 0 1-.398-.307.983.983 0 0 1-.108-.446c0-.133.02-.22.061-.26.041-.01.154-.016.338-.016.184 0 .456-.066.814-.2.266-.092.48-.189.645-.291.48-.307.905-.758 1.274-1.351.204-.328.307-.819.307-1.474.02-.102.03-.179.03-.23 0-.205-.092-.374-.276-.507-.174-.143-.425-.23-.752-.26a1.265 1.265 0 0 0-.23-.016c-.195 0-.4.026-.614.077-.215.05-.369.107-.461.169-.03 0-.056.035-.077.107-.02.072-.046.138-.076.2 0 .081-.036.235-.108.46a7.633 7.633 0 0 1-.2.63l-.2.583a7.605 7.605 0 0 0-.275.798 4.95 4.95 0 0 1-.123.43 3.212 3.212 0 0 1-.108.276c0 .02-.03.113-.092.277a4.863 4.863 0 0 0-.138.414 6.88 6.88 0 0 1-.384 1.32c-.235.768-.353 1.305-.353 1.612 0 .113.016.195.046.246.174.01.297.03.369.061.081.02.122.067.122.139 0 .122-.163.389-.49.798-.093.235-.19.404-.293.506-.102.103-.189.16-.26.17-.072.02-.18.03-.323.03Zm16.998-10.946a.618.618 0 0 1 .552.215.803.803 0 0 1 .184.83c-.133.265-.429.987-.89 2.164a436.924 436.924 0 0 0-1.336 3.423l-1.105 3.193c-.051.144-.159.41-.322.799a2.46 2.46 0 0 0-.277.798.99.99 0 0 1-.245.43c-.113.123-.23.184-.353.184a.249.249 0 0 1-.154-.046c-.47-.174-.706-.45-.706-.83 0-.03.01-.096.03-.199-.02.133.124-.179.43-.936a58.45 58.45 0 0 0 .768-1.934c.757-1.894 1.136-2.876 1.136-2.948.123-.317.205-.542.246-.675.123-.4.245-.717.368-.952l.261-.691-5.419 6.264c-.072.06-.271.24-.599.537-.276.276-.49.47-.644.583a16.33 16.33 0 0 0-.369.276 4.35 4.35 0 0 1-.445.323c-.133.092-.24.138-.322.138-.584-.102-.876-.338-.876-.706 0-.164.041-.348.123-.553.082-.215.133-.353.154-.414.123-.39.2-.701.23-.937.113-.46.271-1.013.476-1.658.02-.082.072-.271.154-.568.092-.307.148-.588.168-.844.144-.276.338-.727.584-1.351l.215-.553c.04-.082.133-.332.276-.752.092-.317.19-.583.292-.798l.153-.292c.195-.379.343-.686.445-.921.113-.246.174-.45.185-.614 0-.133.046-.23.138-.292a.533.533 0 0 1 .338-.107.8.8 0 0 1 .475.153.618.618 0 0 1 .277.369c.04.112.061.24.061.383 0 .134-.02.256-.061.369l-1.274 3.24-1.397 3.684-.369.92 3.101-3.1c.348-.359.676-.742.983-1.152.266-.348.522-.655.767-.92.246-.267.548-.58.906-.937l.353-.369 1.95-2.072a.637.637 0 0 1 .384-.154Zm-4.621 10.946v.015-.015Zm7.719.645a5.233 5.233 0 0 1-.89.076c-.256 0-.466-.035-.63-.107a1.25 1.25 0 0 1-.445-.292c-.092-.082-.138-.204-.138-.368 0-.102.02-.174.061-.215.144-.092.292-.164.445-.215.154-.051.415-.092.783-.123a4.754 4.754 0 0 0 2.104-.384c.665-.286 1.125-.629 1.381-1.028.195-.348.292-.64.292-.875 0-.256-.118-.512-.353-.768a.845.845 0 0 0-.23-.138.723.723 0 0 0-.246-.061 19.63 19.63 0 0 1-.261-.031 1.3 1.3 0 0 0-.445.062 2.07 2.07 0 0 0-.399.184c-.052.03-.159.092-.323.184a1.54 1.54 0 0 1-.445.153.785.785 0 0 1-.353.23 1.407 1.407 0 0 1-.445.077c-.144 0-.241-.025-.292-.076-.061 0-.113.03-.153.092a2.317 2.317 0 0 0-.2.368c-.02.062-.067.164-.138.307a4.827 4.827 0 0 1-.2.522c-.02.062-.056.154-.107.277a1.989 1.989 0 0 0-.077.276c-.153.379-.281.634-.384.767-.102.133-.204.2-.307.2a.205.205 0 0 1-.123-.046 1.316 1.316 0 0 1-.138-.123 1.249 1.249 0 0 0-.153-.184c-.072 0-.144-.041-.215-.123a.556.556 0 0 1-.108-.353c0-.102.026-.22.077-.353.051-.113.195-.496.43-1.151.481-1.31.737-1.976.768-1.996.01-.133.04-.23.092-.292.061-.072.092-.117.092-.138.02-.04.107-.261.261-.66.153-.4.297-.665.43-.798 0-.082.143-.348.429-.799.031-.071.108-.26.231-.568a2.18 2.18 0 0 1 .107-.276c.031-.072.051-.118.062-.138.092-.102.138-.19.138-.261 0-.041-.026-.087-.077-.138a2.042 2.042 0 0 0-.123-.139c-.02-.02-.041-.092-.061-.214a1.822 1.822 0 0 1-.031-.292c0-.03.169-.133.507-.307.348-.184.593-.307.737-.369.143-.061.327-.138.552-.23.236-.092.43-.164.584-.215.143-.05.301-.087.475-.107.174-.02.328-.026.461-.016a.985.985 0 0 1 .338-.061c.153 0 .297.036.43.107.163.052.373.185.629.4.256.204.399.389.43.552.041.205.061.353.061.446a.933.933 0 0 1-.107.414c-.021.215-.103.532-.246.952-.143.42-.256.67-.338.752-.143.225-.245.394-.307.507-.245.44-.486.788-.721 1.044-.021.02-.072.076-.154.168a35.78 35.78 0 0 0-.399.46c.051 0 .154.011.307.032.164.01.282.035.353.076.236.154.446.348.63.584a2.1 2.1 0 0 1 .414.706.65.65 0 0 1 .092.368c0 .205-.051.446-.153.722a3.083 3.083 0 0 1-.369.737c-.092.174-.291.425-.598.752-.297.317-.466.476-.507.476a.33.33 0 0 0-.2 0c-.071.03-.194.087-.368.169a1.367 1.367 0 0 1-.261.23c-.082.072-.148.097-.199.077a6.018 6.018 0 0 0-.584.276c-.266.072-.66.154-1.182.246Zm-.476-5.066c.021.03.154-.005.399-.108a6.6 6.6 0 0 0 .814-.399c.297-.164.522-.317.675-.46.195-.134.374-.297.538-.492.163-.204.245-.337.245-.399a2.55 2.55 0 0 1 .092-.2 2.82 2.82 0 0 1 .231-.322c.123-.123.22-.24.291-.353.082-.123.123-.205.123-.246.01-.03.036-.092.077-.184.051-.092.113-.2.184-.322a1.19 1.19 0 0 0 .23-.507c.052-.194.082-.302.093-.322.02-.215-.016-.374-.108-.476-.082-.113-.21-.169-.384-.169l-.138.016-.368.046c-.164.02-.312.05-.445.092a1.5 1.5 0 0 0-.354.138c-.255.164-.383.291-.383.384 0 .05.035.076.107.076.051 0 .077.036.077.108 0 .143-.097.373-.292.69-.164.287-.496.917-.998 1.889-.491.972-.726 1.479-.706 1.52Zm9.846 4.805c-.481 0-.875-.03-1.182-.092a1.762 1.762 0 0 1-.798-.353c-.491-.369-.737-.916-.737-1.643 0-.307.057-.686.169-1.136.051-.266.108-.491.169-.676.072-.194.133-.291.184-.291l.108-.568c.01-.062.03-.144.061-.246.031-.112.056-.194.077-.245a.401.401 0 0 1 .092-.139c.041-.03.102-.168.184-.414a.98.98 0 0 1 .092-.384c.154-.256.231-.425.231-.506a.884.884 0 0 1 .122-.185c.072-.092.128-.2.169-.322l.2-.353c.307-.543.527-.937.66-1.182.133-.256.215-.466.246-.63.03-.071.071-.2.122-.383.062-.185.128-.313.2-.384-.031-.062.072-.139.307-.23.246-.093.542-.18.89-.261.359-.082.676-.134.952-.154.062-.041.2-.072.415-.092.215-.02.455-.03.721-.03.184 0 .44.01.768.03.163 0 .302.02.414.061.123.03.231.072.323.123.092.041.158.072.199.092l.2.2c.123.102.184.21.184.322 0 .102-.067.19-.2.261-.03.03-.199.056-.506.077-.297.02-.619.03-.967.03-.369 0-.773.047-1.213.139-.154.03-.271.046-.353.046a1.8 1.8 0 0 1-.461.077c-.174.01-.286.015-.338.015-.04 0-.184.194-.429.583-.236.39-.359.62-.369.691 0 .092-.031.19-.092.292a8.14 8.14 0 0 1-.322.476c-.133.184-.2.358-.2.522 0 .102.031.163.092.184a18.43 18.43 0 0 1 1.182-.138c.471-.051.814-.077 1.029-.077a1.13 1.13 0 0 1 .276-.046c.143 0 .277.036.399.107.164.031.246.139.246.323 0 .082-.02.158-.061.23-.031.072-.072.118-.123.138-.092.092-.41.21-.952.353-.532.143-1.09.277-1.673.4-.584.112-.911.158-.983.137-.031-.071-.061-.107-.092-.107-.102 0-.23.338-.384 1.013-.184.41-.297.68-.338.814-.04.123-.102.414-.184.875a2.096 2.096 0 0 0-.061.384c0 .399.235.706.706.92.174.032.353.047.537.047.338 0 .747-.062 1.228-.184.041-.02.354-.195.937-.522.031 0 .107-.02.23-.062.133-.05.21-.076.23-.076a.369.369 0 0 1 .308-.17c.03 0 .097.052.199.154.102.103.195.225.276.369a.78.78 0 0 1 .123.414c0 .102-.153.23-.46.384-.297.143-.742.333-1.336.568a9.65 9.65 0 0 1-.906.353c-.174.051-.419.077-.737.077Zm14.362-9.672c.01.041.016.092.016.154 0 .133-.062.23-.185.291l-.368.123a1.591 1.591 0 0 1-.43.077.597.597 0 0 1-.215-.03.917.917 0 0 0-.368-.2c-.144-.041-.44-.077-.891-.108-.133.02-.25.031-.353.031-.102 0-.184.005-.245.015a4.536 4.536 0 0 1-.307.753 2.442 2.442 0 0 1-.169.522c-.072.204-.103.322-.092.353-.031.04-.128.302-.292.783-.164.47-.317.93-.461 1.381-.102.318-.179.548-.23.691a5.168 5.168 0 0 0-.2.491l-.153.46-.384 1.06c-.082.154-.184.4-.307.737-.112.328-.205.624-.276.89-.113.4-.215.686-.307.86-.082.174-.154.282-.215.322a.472.472 0 0 1-.261.062c-.164 0-.307-.082-.43-.246-.123-.163-.184-.317-.184-.46 0-.226.077-.604.23-1.136.164-.532.317-.957.461-1.275.041-.184.076-.332.107-.445a1.9 1.9 0 0 0 .077-.245c.031-.041.077-.149.138-.323.072-.184.128-.353.169-.506.031-.185.348-1.213.952-3.086l.107-.322c.092-.154.179-.348.261-.584.082-.05.123-.158.123-.322 0-.03.015-.072.046-.123.041-.051.061-.087.061-.107a.064.064 0 0 1 .046-.016c.011 0 .021.005.031.016.021 0 .051-.02.092-.062h-.015l-.752.077-.338.03c-.604.052-.947.088-1.029.108l-.215.015c-.317 0-.542-.061-.675-.184a.459.459 0 0 1-.123-.445.523.523 0 0 1 .23-.322c.133-.082.348-.154.645-.215a9.56 9.56 0 0 1 .538-.092l.414-.077.522-.062a17.64 17.64 0 0 1 1.888-.184c.277-.01.507-.02.691-.03a8.51 8.51 0 0 0 .384-.047c.143.01.373.036.691.077.327.041.563.087.706.138.225.052.409.144.552.277.144.133.241.286.292.46Zm.123 6.433a.469.469 0 0 1-.138.015.582.582 0 0 1-.476-.23c-.113-.164-.169-.41-.169-.737 0-.256.046-.573.138-.952.144-.287.215-.502.215-.645a6.29 6.29 0 0 1 .246-.66c.112-.276.205-.486.276-.63.041 0 .082-.035.123-.107a.37.37 0 0 0 .077-.215.86.86 0 0 1 .046-.276.658.658 0 0 1 .123-.215c0-.03.02-.082.061-.154a.477.477 0 0 0 .061-.168c0-.02.011-.051.031-.092a.259.259 0 0 0 .046-.123c.184-.307.451-.886.799-1.735.347-.85.527-1.34.537-1.474.041-.235.133-.337.276-.307.051-.04.174-.061.369-.061.03.01.087.036.168.077.082.04.154.097.215.168a.414.414 0 0 1 .123.261c.021.103.031.236.031.4a1.5 1.5 0 0 1-.138.506 7.276 7.276 0 0 1-.292.553 8.6 8.6 0 0 0-.23.414l-.2.369c-.164.286-.245.455-.245.506a.72.72 0 0 1-.077.23c-.051.103-.092.19-.123.262a3.551 3.551 0 0 0-.261.552c-.082.236-.123.379-.123.43a2.22 2.22 0 0 0-.046.108.265.265 0 0 1-.077.138c-.03 0-.051.025-.061.076a.428.428 0 0 0-.015.093c0 .05-.026.153-.077.307a3.917 3.917 0 0 1-.215.506c-.348.993-.537 1.7-.568 2.119-.021.215-.072.368-.154.46a.862.862 0 0 1-.276.23Zm-.814 2.38a1.315 1.315 0 0 1-.491.122c-.153 0-.327-.072-.522-.215-.153-.154-.23-.307-.23-.46 0-.256.189-.512.568-.768.225-.143.389-.215.491-.215.072 0 .205.04.399.123.307.194.461.404.461.63 0 .286-.225.547-.676.782Zm15.17-10.778c.236.031.41.092.522.184a.533.533 0 0 1 .215.308c.031.112.061.286.092.522l-.169.414a68.68 68.68 0 0 0-1.105 2.948l-.537 1.826-.185.323-.353 1.627a74.88 74.88 0 0 0-.337 1.504 17.56 17.56 0 0 0-.2 1.044c0 .103-.005.185-.015.246a1.042 1.042 0 0 0-.016.184c-.092.215-.133.353-.122.415 0 .266-.057.44-.169.522-.103.081-.318.123-.645.123a2.239 2.239 0 0 1-.461-.338.964.964 0 0 1-.23-.384c.01-.174.051-.44.123-.798.041-.246.061-.384.061-.415l.185-1.29c.02-.04.056-.102.107-.184a1.82 1.82 0 0 1 .138-.169 6.35 6.35 0 0 0 .108-.506l.076-.338a8.04 8.04 0 0 0 .154-.645c.072-.296.123-.511.153-.644l-.138.153c-.123.225-.353.538-.691.937-.204.266-.348.46-.429.583-.133.205-.968 1.023-2.503 2.456-.256.256-.465.456-.629.599-.174.184-.323.297-.445.338-.113.04-.323.071-.63.092-.368-.297-.552-.573-.552-.83l.061-.214c.02-.082.051-.138.092-.169.041-.04.097-.087.169-.138.133-.082.425-.317.875-.706.461-.4.798-.701 1.013-.906l.798-.798.814-.89a4.656 4.656 0 0 1-.599-.277 1.35 1.35 0 0 1-.399-.307c-.44-.491-.66-1.116-.66-1.873 0-.553.102-1.075.307-1.566.113-.297.22-.517.323-.66.112-.153.266-.327.46-.522.143-.123.246-.225.307-.307a3.22 3.22 0 0 1 .937-.737c.337-.164.916-.384 1.734-.66.051 0 .251-.02.599-.061a8.21 8.21 0 0 1 .952-.062c.102.041.189.077.261.108.082.03.148.056.199.076a.951.951 0 0 1 .169-.122.459.459 0 0 1 .215-.016Zm-1.381 2.902c.04-.164.117-.39.23-.676a8.25 8.25 0 0 0 .138-.353 7.17 7.17 0 0 0 .169-.552.62.62 0 0 0-.169-.016c-.184 0-.43.03-.737.092-.665.123-1.3.4-1.904.83-.603.419-1.008.87-1.212 1.35a4.117 4.117 0 0 0-.215.63 1.85 1.85 0 0 0-.046.537c0 .133.01.24.03.322.021.082.057.184.108.307l.123.353a1.972 1.972 0 0 0 .491.031l.368-.123c.451-.133.788-.27 1.014-.414.184-.092.353-.138.506-.138.133 0 .241.02.323.061l.046-.123.737-2.118Zm15.55-2.672a.842.842 0 0 1 .507.292.8.8 0 0 1 .215.538.438.438 0 0 1-.016.138.932.932 0 0 1-.122.245.23.23 0 0 1-.169.062c-.103 0-.256-.052-.461-.154-.102.174-.159.287-.169.338a3.965 3.965 0 0 1-.169.491c-.092.113-.23.44-.414.983-.174.542-.261.895-.261 1.059-.051.143-.128.404-.23.783-.103.379-.22.793-.353 1.243-.594 2.047-.886 3.055-.876 3.025-.01.163-.035.363-.076.598a11.51 11.51 0 0 0-.062.66.253.253 0 0 1 .016.108.253.253 0 0 1-.046.153.21.21 0 0 1-.092.077c-.134.113-.318.17-.553.17-.256 0-.435-.067-.537-.2-.154-.267-.215-.471-.185-.614.031-.359.113-.932.246-1.72a7.62 7.62 0 0 1 .2-.783c.071-.235.117-.338.138-.307l.307-1.105a3.5 3.5 0 0 0 .138-.507c.041-.174.072-.291.092-.353a9.84 9.84 0 0 1 .292-1.09c.143-.338.291-.844.445-1.52.061-.225.143-.48.245-.767.113-.287.185-.435.215-.446a8.495 8.495 0 0 0-.813.123 8.938 8.938 0 0 1-.891.139l-1.044.153c-.573.082-.88.123-.921.123l-1.105 2.564-.783 2.041a43.027 43.027 0 0 1-.691 2.134c-.03.103-.097.307-.199.614-.103.297-.19.62-.261.967l-.108.538a.896.896 0 0 1-.245.337.497.497 0 0 1-.338.108c-.317 0-.548-.056-.691-.169-.133-.112-.199-.292-.199-.537.04-.133.102-.302.184-.507.061-.164.107-.312.138-.445.072-.287.143-.543.215-.768l.123-.368c.327-1.126.603-1.965.829-2.518l.414-1.166a4.94 4.94 0 0 0 .169-.446l.537-1.596a6.8 6.8 0 0 0 .522-1.336.705.705 0 0 1-.107-.384c0-.163.046-.302.138-.414a.513.513 0 0 1 .399-.169.54.54 0 0 1 .154.015c.174.051.47.087.89.108.42.01.635.01.645 0 .102-.051.588-.138 1.458-.261.88-.123 1.745-.235 2.595-.338l.168-.015c.093 0 .277.025.553.076Zm1.958 10.777a2.166 2.166 0 0 1-1.136-.92c-.277-.451-.415-.983-.415-1.597 0-.246.021-.471.062-.676a4.74 4.74 0 0 1 .184-.936 3.62 3.62 0 0 0 .138-.568c0-.02.01-.056.031-.108.02-.05.025-.092.015-.122.061-.154.148-.369.261-.645.123-.277.2-.43.23-.46.041-.021.062-.047.062-.078a.255.255 0 0 0 .015-.061c0-.133.138-.42.415-.86.286-.44.593-.87.921-1.29.327-.419.522-.629.583-.629.02 0 .046-.02.077-.061.03-.051.051-.077.061-.077.072-.082.358-.23.86-.445.501-.225.901-.373 1.197-.445.205-.072.415-.108.63-.108.522 0 .946.246 1.274.737.327.481.496 1.152.507 2.011a5.541 5.541 0 0 0-.077.676 3.676 3.676 0 0 1-.046.399c-.011.307-.077.69-.2 1.151-.112.45-.189.68-.23.691 0 .03-.01.067-.031.108a.255.255 0 0 0-.031.107c.011.092-.122.414-.399.967-.276.543-.435.819-.476.83a.122.122 0 0 0-.046.014c-.01.01-.01.031 0 .062.011.03-.071.123-.245.276-.164.154-.282.23-.353.23-.011 0-.021.006-.031.016 0 .01.01.03.031.061.02.031-.128.164-.446.4-.307.235-.639.465-.997.69-.359.215-.63.343-.814.384a.268.268 0 0 1-.138.077.463.463 0 0 1-.077.015c-.072.072-.205.133-.399.184a2.058 2.058 0 0 1-.553.077c-.153 0-.291-.025-.414-.077Zm1.55-1.611c.307-.103.614-.267.921-.492.307-.235.492-.45.553-.645.051-.184.123-.312.215-.383.174-.174.404-.573.691-1.198.297-.634.45-1.064.46-1.29 0-.06.016-.158.046-.291a.944.944 0 0 1 .108-.307c.02-.03.025-.097.015-.2a5.74 5.74 0 0 1-.015-.476c0-.266.005-.496.015-.69-.031-.666-.133-1.05-.307-1.152-.082-.061-.22-.092-.414-.092a1.12 1.12 0 0 0-.415.107.734.734 0 0 1-.215.047c-.143.082-.215.174-.215.276a.278.278 0 0 1-.123.23c-.071.062-.148.067-.23.016-.184.01-.302.035-.353.076-.051.041-.118.139-.199.292a5.89 5.89 0 0 1-.2.368c-.256.195-.45.4-.583.615-.133.215-.215.394-.246.537-.317.553-.517.941-.599 1.167a5.153 5.153 0 0 0-.184.89 2.39 2.39 0 0 0-.2.537 1.88 1.88 0 0 1-.107.4c-.02.081-.031.189-.031.322 0 .225.016.46.046.706.031.235.072.394.123.476.082.276.261.414.537.414.226 0 .528-.087.906-.26Zm15.974-7.615c0 .133-.035.307-.107.522a8.82 8.82 0 0 0-.246.983 5.06 5.06 0 0 0-.076.767l.015.154c-.062.133-.113.337-.154.614a3.48 3.48 0 0 1-.061.337.248.248 0 0 1-.108.154c0 .04.006.107.016.2.02.092.031.168.031.23v.184c-.195 1.115-.292 2.103-.292 2.963 0 .45.031.803.092 1.06.072.255.164.393.276.414.021 0 .036.005.046.015.011.01.016.036.016.077a.67.67 0 0 1-.108.368 1.625 1.625 0 0 1-.215.307 2.922 2.922 0 0 1-.184.215c-.02.03-.046.067-.077.108-.02.04-.056.061-.107.061-.072 0-.2-.026-.384-.077-.031-.061-.128-.138-.292-.23-.163-.082-.296-.256-.399-.522-.102-.266-.153-.716-.153-1.35 0-.175.005-.313.015-.415v-.047a1.553 1.553 0 0 1-.015-.26c0-.471.051-1.065.153-1.781.113-.727.231-1.382.353-1.965.082-.348.19-.778.323-1.29.133-.532.199-.819.199-.86l-.015-.015c.02.03-.205.445-.676 1.244-.47.788-.757 1.253-.859 1.397a5.015 5.015 0 0 0-.292.552l-.43.89c-.839 1.25-1.484 1.874-1.934 1.874-.43 0-.711-.154-.844-.461a2.524 2.524 0 0 1-.2-.814 15.5 15.5 0 0 1-.015-.43c.02-.112.03-.245.03-.399v-.169c0-.03.011-.112.031-.245.031-.143.056-.302.077-.476 0-.061.051-.379.153-.952.144-.696.215-1.14.215-1.335 0-.041-.005-.067-.015-.077v.03c0 .031-.061.144-.184.338a6.188 6.188 0 0 0-.538.86c-.194.379-.475.947-.844 1.704-.072.133-.179.353-.322.66-.031.317-.246.896-.645 1.735l-.138.353c-.307.768-.553 1.33-.737 1.689-.174.348-.307.517-.399.506-.051 0-.159-.05-.323-.153a1.98 1.98 0 0 1-.445-.384c-.133-.154-.199-.307-.199-.46 0-.021.087-.205.261-.553.286-.584.445-.932.475-1.044a1.48 1.48 0 0 0 .031-.169c.021-.072.133-.256.338-.553 0-.061.046-.215.138-.46.102-.256.235-.548.399-.875a.64.64 0 0 0 .123-.353c.092-.113.21-.364.353-.753a14.7 14.7 0 0 1 .154-.414c.061-.133.122-.236.184-.307.031-.02.082-.092.153-.215a31.544 31.544 0 0 1 .952-1.627l.184-.338c.041-.113.077-.174.108-.184.041-.01.21-.292.506-.845.461-.644.727-.967.799-.967.061 0 .169.036.322.108.164.071.307.158.43.26.133.103.2.195.2.277 0 .03.005.118.015.261.01.143.015.297.015.46 0 .4-.169 1.73-.506 3.992l-.077.491c.01.03.025.092.046.184.02.082.031.174.031.277.133-.205.25-.369.353-.492.266-.388.455-.696.568-.92 0-.052.015-.103.046-.154.041-.051.082-.108.123-.169.081-.102.143-.194.184-.276a.486.486 0 0 0 .077-.261c.286-.41.542-.799.767-1.167.86-1.34 1.392-2.103 1.597-2.287a.855.855 0 0 1 .322-.154c.154-.04.297-.061.43-.061.287 0 .507.087.66.26.154.164.23.374.23.63Zm3.87 9.518c-.154 0-.389-.061-.707-.184a4.79 4.79 0 0 1-.875-.46c-.276-.185-.455-.37-.537-.553l-.031-.062a2.127 2.127 0 0 1-.23-1.581l.077-.322c.092-.318.138-.579.138-.783a6.11 6.11 0 0 0 .23-.307 3.11 3.11 0 0 0 .2-.292.388.388 0 0 0 .031-.138v-.23c0-.072.025-.144.076-.215a.84.84 0 0 1 .154-.17.835.835 0 0 1 .123-.091l.061.015c.021 0 .097-.148.23-.445.133-.307.261-.63.384-.967.512-.942 1.085-1.725 1.719-2.35.635-.634 1.198-1.058 1.689-1.273.041-.01.118-.02.23-.031l.323-.03c.194.01.43.056.706.137.276.082.425.144.445.185 0 .04.01.066.031.076.031.01.051.016.061.016.092-.01.256.138.492.445.245.297.424.578.537.844.123.195.184.522.184.983 0 .389-.056.875-.169 1.458-.112.573-.225.983-.338 1.228a21.67 21.67 0 0 1-1.013 2.334c-.409.819-.783 1.238-1.12 1.259-.011 0-.021.01-.031.03-.01.01-.015.031-.015.062 0 .03-.139.163-.415.399-.266.235-.501.43-.706.583l-.292.108a4.404 4.404 0 0 1-.844.215 5.785 5.785 0 0 1-.798.107Zm.015-1.397c.44 0 .757-.01.952-.03.194-.021.399-.088.614-.2.225-.123.465-.333.721-.63.103-.184.185-.307.246-.368.01-.02.092-.164.246-.43.153-.266.296-.4.429-.4 0-.05.041-.188.123-.413.082-.236.144-.369.184-.4.021-.01.072-.122.154-.337a8.75 8.75 0 0 0 .23-.737 2.63 2.63 0 0 0 .108-.66c.184-.195.266-.302.245-.323a.256.256 0 0 1-.015-.061v-.154c0-.297.02-.45.061-.46.052-.02.077-.036.077-.046a.175.175 0 0 0-.061-.062c-.021-.02-.031-.04-.031-.061 0-.01.015-.03.046-.062a.165.165 0 0 0 .046-.122c-.02-.256-.164-.701-.43-1.336a1 1 0 0 1-.123-.107.376.376 0 0 0-.168-.123.356.356 0 0 0-.185-.046c-.041 0-.112.01-.215.03-.04-.04-.081-.061-.122-.061a.343.343 0 0 0-.108.015l-.077.031a1.376 1.376 0 0 0-.506.215 5.325 5.325 0 0 0-.491.491l-.261.277a1.445 1.445 0 0 1-.507.721c-.041.03-.102.108-.184.23-.082.113-.143.19-.184.23l-.093.185c-.225.368-.465.86-.721 1.474a24.986 24.986 0 0 0-.66 1.719c-.184.542-.277.885-.277 1.029 0 .286.093.516.277.69.194.174.414.272.66.292Zm7.085 1.551a.715.715 0 0 0-.276-.093l-.261-.046a1.863 1.863 0 0 1-.199-.844c0-.368.112-.87.337-1.504l.138-.446c.072-.204.123-.434.154-.69a8.3 8.3 0 0 1 .046-.246c.021-.102.051-.22.092-.353.082-.287.215-.706.399-1.259l.323-.983a.556.556 0 0 0 .03-.199.507.507 0 0 0-.03-.184.896.896 0 0 0 .23-.369c.235-.757.588-1.704 1.059-2.84a1.24 1.24 0 0 1-.199-.69c0-.134.015-.261.046-.384.102-.123.21-.2.322-.23.113-.031.266-.047.461-.047a.795.795 0 0 0 .107-.153 1.25 1.25 0 0 1 .123-.154c.082.02.194.057.338.108.153.05.271.076.353.076.143-.05.404-.087.783-.107.419-.02.685-.061.798-.123.072 0 .2-.01.384-.03.307-.021.547-.031.721-.031.297 0 .584-.015.86-.046.051-.01.143-.026.276-.046.133-.02.256-.031.369-.031.378 0 .721.072 1.028.215.318.133.476.343.476.63a.97.97 0 0 1-.123.46.591.591 0 0 1-.23.245.617.617 0 0 1-.322.093.624.624 0 0 1-.215-.046c-.154-.052-.425-.077-.814-.077-.317 0-.558.02-.721.061-.103.03-.272.046-.507.046s-.409.01-.522.031h.015a.65.65 0 0 0-.107.015.773.773 0 0 1-.154.016h.016c-.154.01-.384.046-.691.107l-.399.062c-.205.03-.399.046-.584.046a.538.538 0 0 0-.214.046c-.348.818-.758 1.919-1.229 3.3l-.122.338c-.123.317-.215.563-.277.737a3.357 3.357 0 0 0-.138.522c-.031.123-.066.23-.107.322l-.077.23c-.123.287-.195.507-.215.66-.133.86-.368 1.73-.706 2.61a3.428 3.428 0 0 1-.062.43 1.907 1.907 0 0 0-.03.614c-.266.154-.517.23-.753.23Zm16.311-11.13a.853.853 0 0 1 .461.322.834.834 0 0 1 .138.798 2.573 2.573 0 0 1-.2.507c-.03.072-.225.522-.583 1.35-.338.81-.542 1.27-.614 1.383a13.43 13.43 0 0 1-.676 1.243 33.67 33.67 0 0 1-1.09 1.78c-.092.144-.286.415-.583.814-.286.39-.486.65-.599.783a5.49 5.49 0 0 1-.552.691c-.184.205-.451.481-.799.83l-.368.383a3.266 3.266 0 0 1-.43.445.555.555 0 0 1-.46.246.623.623 0 0 1-.338-.108c-.276-.174-.415-.363-.415-.568 0-.061.016-.133.046-.215.031-.071.215-.281.553-.629.338-.358.619-.64.844-.844.41-.471.666-.773.768-.906a6.243 6.243 0 0 1-.629-1.044c-.185-.4-.302-.716-.353-.952l-.261-1.35a.976.976 0 0 0 0-.338l-.031-.185-.046-2.717.107-1.35v-.231a.67.67 0 0 1 .108-.369c.071-.112.189-.169.353-.169.204-.03.414.057.629.261.215.195.323.395.323.6a.45.45 0 0 1-.046.199.406.406 0 0 0-.047.184v.184c0 .102-.005.184-.015.246-.02.204-.041.491-.061.86-.01.368-.016.747-.016 1.136 0 .307.006.506.016.598l.138 1.336c.01.215.077.547.199.998.134.44.261.819.384 1.136l.2-.261c.153-.174.256-.323.307-.445a4.85 4.85 0 0 1 .353-.63c.123-.184.205-.322.246-.414.112-.205.22-.39.322-.553a6.81 6.81 0 0 0 .292-.491l.998-1.889c.071-.235.148-.46.23-.675a13.9 13.9 0 0 0 .261-.844c.092-.297.153-.558.184-.783.061-.236.2-.353.414-.353h.139a.65.65 0 0 1 .199 0ZM64.853 67.116a2.052 2.052 0 0 1-.599-.522c-.133-.174-.199-.343-.199-.507 0-.215.107-.389.322-.522a.395.395 0 0 1 .17-.03c.102 0 .209.02.322.06a.601.601 0 0 1 .276.139c.266.246.583.369.952.369.163 0 .399-.036.706-.108.4-.123.711-.276.936-.46.236-.185.512-.471.83-.86.194-.256.337-.512.43-.768.102-.266.153-.506.153-.721 0-.236-.057-.42-.17-.553a2.04 2.04 0 0 0-.69-.614 1.706 1.706 0 0 0-.875-.215c-.297 0-.588.04-.875.123l-.89.184c-.041.01-.098.02-.17.03-.06 0-.153.15-.276.446-.123.297-.332.86-.63 1.689-.214.603-.393 1.038-.536 1.305-.144.255-.272.383-.384.383-.123 0-.256-.112-.4-.337a9.568 9.568 0 0 0-.199-.307.866.866 0 0 1-.138-.446.61.61 0 0 1 .077-.26 1.63 1.63 0 0 0 .122-.277 2.43 2.43 0 0 0 .123-.384c.133-.399.517-1.392 1.152-2.978a136.452 136.452 0 0 1 1.504-3.592c.256-.584.333-.89.23-.921a.354.354 0 0 0-.046-.139c-.03-.061-.04-.107-.03-.138 0-.061.179-.153.537-.276.368-.123.62-.174.752-.154h.092c.133 0 .2-.025.2-.076.02 0 .112-.01.276-.031.174-.02.358-.02.553 0 .727.061 1.3.271 1.72.63.419.347.624.864.613 1.55-.02.266-.168.63-.445 1.09a4.94 4.94 0 0 1-.906 1.136 11.653 11.653 0 0 1-.967.752l.384.138c.481.184.855.41 1.12.676.267.266.456.63.569 1.09.02.102.03.194.03.276 0 .225-.04.481-.122.768a4.992 4.992 0 0 1-.246.752.942.942 0 0 0-.153.2 3.678 3.678 0 0 0-.077.138c-.01.04-.103.2-.277.476a7.917 7.917 0 0 1-.46.644c-.676.573-1.233.942-1.674 1.106-.43.194-.941.291-1.535.291-.532 0-.926-.082-1.182-.245Zm1.106-6.371.614-.123c.307-.072.527-.133.66-.184l.184-.092a1.54 1.54 0 0 0 .338-.261c.645-.604 1.095-1.147 1.35-1.628.257-.42.385-.716.385-.89 0-.123-.057-.24-.17-.353-.194-.225-.516-.338-.967-.338-.194 0-.358.02-.49.062a.86.86 0 0 0-.323.153c-.062.051-.092.133-.092.246a.63.63 0 0 1-.077.276 1.03 1.03 0 0 1-.169.23.392.392 0 0 1-.092.184.911.911 0 0 1-.092.123c0 .02-.072.159-.215.415a8.595 8.595 0 0 0-.384.86c-.307.726-.46 1.166-.46 1.32Zm5.173 5.772a1.105 1.105 0 0 1-.245-.169.31.31 0 0 1-.062-.2c0-.102.041-.245.123-.43.092-.194.246-.496.46-.905.062-.133.18-.368.354-.706.44-.84.66-1.459.66-1.858a.213.213 0 0 1-.016-.092c0-.102.082-.194.246-.276a5.6 5.6 0 0 1 .323-.261c.194-.143.348-.307.46-.491.133-.307.302-.645.507-1.014.204-.378.558-.992 1.059-1.842a19.26 19.26 0 0 1 1.566-2.44 1.29 1.29 0 0 1 .338-.338c.133-.082.245-.123.337-.123.317 0 .64.123.967.368.338.246.558.491.66.737.041.072.062.225.062.46 0 .318-.036.855-.108 1.612-.02.133-.04.343-.06.63-.032.46-.078.952-.14 1.474a154.53 154.53 0 0 0-.245 2.686 22.959 22.959 0 0 0-.076 1.812c0 .286.005.496.015.63v.106l-.015.354c-.062.061-.185.092-.369.092a1.85 1.85 0 0 1-.614-.108c-.205-.061-.317-.138-.338-.23a.178.178 0 0 0-.046-.03c-.02-.01-.03-.057-.03-.139l.015-.338.046-.86.077-2.348-.2.015c-.205 0-.64.041-1.305.123-.655.082-1.07.148-1.243.2-.092 0-.205.061-.338.184a1.75 1.75 0 0 0-.353.476c-.03.102-.102.25-.215.445-.113.184-.169.292-.169.322a.663.663 0 0 0-.169.17 1.5 1.5 0 0 0-.076.122c0 .113-.103.404-.307.875a7.23 7.23 0 0 1-.584 1.136l-.414.583-.538-.414Zm3.67-5.281.43-.061c.214-.041.403-.067.567-.077.491-.123.83-.184 1.013-.184.103 0 .174.01.215.03a.382.382 0 0 0 .093.092c.04.01.066.016.076.016.02-.082.103-.64.246-1.674.143-1.033.215-1.668.215-1.903 0-.164-.005-.302-.016-.415a1.34 1.34 0 0 0-.03-.23c-.092 0-.302.246-.63.737a14.224 14.224 0 0 0-.951 1.643c-.236.42-.4.629-.492.629-.071.072-.225.312-.46.721-.236.41-.328.635-.277.676Zm15.9-4.314c0 .133-.036.307-.108.522a8.603 8.603 0 0 0-.245.983 5.064 5.064 0 0 0-.077.767l.015.154c-.061.133-.112.337-.153.614a3.51 3.51 0 0 1-.062.337.249.249 0 0 1-.107.154c0 .041.005.107.015.2.02.092.03.169.03.23v.184c-.194 1.116-.29 2.103-.29 2.963 0 .45.03.803.091 1.06.072.255.164.393.277.414.02 0 .036.005.046.015.01.01.015.036.015.077a.673.673 0 0 1-.107.368 1.645 1.645 0 0 1-.215.307 2.89 2.89 0 0 1-.184.215 2.44 2.44 0 0 1-.077.108c-.02.04-.057.061-.108.061-.071 0-.2-.026-.384-.077-.03-.061-.127-.138-.291-.23-.164-.082-.297-.256-.4-.522-.102-.266-.153-.716-.153-1.35 0-.175.005-.313.016-.415v-.046a1.508 1.508 0 0 1-.016-.261c0-.471.051-1.065.154-1.781.112-.727.23-1.382.353-1.965.082-.348.189-.778.322-1.29.133-.532.2-.818.2-.86l-.016-.015c.02.031-.204.445-.675 1.244-.47.788-.757 1.253-.86 1.397a5.053 5.053 0 0 0-.291.552l-.43.89c-.84 1.25-1.484 1.874-1.935 1.874-.43 0-.711-.154-.844-.46a2.534 2.534 0 0 1-.2-.815c-.01-.235-.015-.378-.015-.43.02-.112.03-.245.03-.398v-.17c0-.03.011-.112.032-.245.03-.143.056-.302.076-.476 0-.061.051-.378.154-.952.143-.696.215-1.14.215-1.335 0-.041-.005-.067-.016-.077v.03c0 .031-.061.144-.184.338a6.214 6.214 0 0 0-.537.86c-.195.379-.476.947-.845 1.704-.071.133-.179.353-.322.66-.03.318-.246.896-.645 1.735l-.138.353c-.307.768-.553 1.33-.737 1.689-.174.348-.307.517-.399.506-.051 0-.159-.05-.322-.153a1.973 1.973 0 0 1-.446-.384c-.133-.153-.2-.307-.2-.46 0-.021.088-.205.262-.553.286-.584.445-.931.476-1.044.01-.041.02-.097.03-.169.021-.072.134-.256.338-.553 0-.061.046-.215.138-.46.103-.256.236-.548.4-.875a.64.64 0 0 0 .122-.353c.093-.113.21-.364.354-.753a16 16 0 0 1 .153-.414c.061-.133.123-.235.184-.307.03-.02.082-.092.154-.215a31.017 31.017 0 0 1 .952-1.627l.184-.338c.04-.112.076-.174.107-.184.041-.01.21-.292.507-.845.46-.644.727-.967.798-.967.062 0 .169.036.323.108.163.071.306.158.43.26.132.103.199.195.199.277 0 .03.005.118.015.261.01.143.016.297.016.46 0 .4-.17 1.73-.507 3.992l-.077.491c.01.031.026.092.046.184.02.082.031.175.031.277.133-.205.25-.369.353-.491.266-.39.456-.696.568-.922 0-.05.015-.102.046-.153.041-.051.082-.107.123-.169.082-.102.143-.194.184-.276a.484.484 0 0 0 .077-.261c.287-.41.542-.798.768-1.167.86-1.34 1.391-2.103 1.596-2.287a.86.86 0 0 1 .323-.154 1.67 1.67 0 0 1 .43-.061c.286 0 .506.087.66.26.153.164.23.374.23.63Zm13.175.891c-.021.532-.082.92-.184 1.166-.103.246-.246.374-.43.384l-.338-.061a1.668 1.668 0 0 1-.506-.215.475.475 0 0 1-.231-.415c0-.071.036-.24.108-.506.112-.45.169-.727.169-.83 0-.317-.139-.521-.415-.613-.317 0-.721.245-1.213.736-.491.492-.977 1.1-1.458 1.827-.481.727-.86 1.418-1.136 2.073-.502 1.443-.783 2.415-.844 2.917.02.082.03.2.03.353 0 .071-.015.107-.046.107.03.225.123.45.276.676.164.215.354.322.569.322.214 0 .475-.036.782-.107.318-.082.548-.174.691-.277.082 0 .21-.036.384-.107.184-.082.307-.138.369-.17.317-.142.583-.25.798-.322.215-.081.414-.122.599-.122.071 0 .209.02.414.061a3.74 3.74 0 0 0-.046.246c-.021.112-.051.23-.092.353-.174.245-.333.42-.476.522-.133.102-.322.21-.568.322a2.461 2.461 0 0 0-.522.261c-.737.45-1.469.676-2.195.676-.328 0-.686-.072-1.075-.215a3.006 3.006 0 0 1-.936-.507c-.082-.133-.19-.41-.323-.829-.133-.42-.2-.686-.2-.798 0-.03.01-.077.031-.138a.49.49 0 0 0 .031-.138v-.154a.58.58 0 0 1-.03-.184c.01-.318.137-.84.383-1.566.256-.737.594-1.56 1.013-2.472.256-.552.625-1.166 1.106-1.842.49-.686.998-1.29 1.52-1.811.532-.522.972-.85 1.32-.983a1.73 1.73 0 0 1 .522-.107 2.1 2.1 0 0 1 1.044.276c.327.174.593.45.798.829.205.368.307.829.307 1.382Zm6.213 8.335c-.471-.163-.849-.47-1.136-.92-.276-.45-.414-.983-.414-1.597 0-.246.02-.47.061-.676a4.82 4.82 0 0 1 .184-.936 3.41 3.41 0 0 0 .138-.568.37.37 0 0 1 .031-.108c.02-.05.026-.092.015-.122l.261-.645c.123-.276.2-.43.231-.46.041-.021.061-.047.061-.078a.255.255 0 0 0 .015-.06c0-.134.139-.42.415-.86.286-.44.593-.87.921-1.29.327-.42.522-.63.583-.63.021 0 .046-.02.077-.06.031-.052.051-.078.061-.078.072-.082.359-.23.86-.445.502-.225.901-.373 1.198-.445.204-.072.414-.108.629-.108.522 0 .947.246 1.274.737.328.481.497 1.152.507 2.011a5.75 5.75 0 0 0-.077.676c-.02.235-.036.368-.046.399-.01.307-.077.69-.2 1.151-.112.45-.189.681-.23.691 0 .03-.01.067-.031.108a.252.252 0 0 0-.03.107c.01.092-.123.415-.399.967-.277.543-.435.82-.476.83a.112.112 0 0 0-.046.015c-.011.01-.011.03 0 .061.01.03-.072.123-.246.276-.164.154-.281.23-.353.23a.045.045 0 0 0-.031.016c0 .01.01.03.031.061.02.031-.128.164-.445.4-.307.235-.64.465-.998.69-.358.215-.63.343-.814.384a.268.268 0 0 1-.138.077.444.444 0 0 1-.077.015c-.071.072-.204.133-.399.184a2.051 2.051 0 0 1-.552.077 1.07 1.07 0 0 1-.415-.076Zm1.551-1.611c.307-.103.614-.267.921-.492.307-.235.491-.45.552-.644.051-.185.123-.313.215-.384.174-.174.404-.573.691-1.198.297-.634.45-1.064.461-1.29 0-.06.015-.158.046-.29a.924.924 0 0 1 .107-.308c.021-.03.026-.097.015-.2a5.74 5.74 0 0 1-.015-.475c0-.267.005-.497.015-.691-.03-.665-.133-1.05-.307-1.152-.081-.061-.22-.092-.414-.092a1.14 1.14 0 0 0-.415.108.732.732 0 0 1-.214.046c-.144.082-.215.174-.215.276a.278.278 0 0 1-.123.23c-.072.062-.149.067-.23.016-.185.01-.302.036-.354.077-.051.04-.117.138-.199.291a5.439 5.439 0 0 1-.2.369c-.256.194-.45.399-.583.614-.133.215-.215.394-.246.537-.317.553-.517.942-.598 1.167a5.135 5.135 0 0 0-.185.89 2.339 2.339 0 0 0-.199.538 1.923 1.923 0 0 1-.108.399c-.02.082-.03.189-.03.322 0 .225.015.46.046.706.03.236.071.394.122.476.082.276.261.415.538.415.225 0 .527-.087.906-.261Zm14.991-5.082c.021.328.031.522.031.584a2.7 2.7 0 0 1-.062.614c-.04.174-.133.532-.276 1.074-.215.41-.353.68-.414.814-.236.45-.456.808-.661 1.075-.204.255-.578.603-1.12 1.043-.236.215-.64.43-1.213.645-.563.215-1.008.323-1.336.323-.092.01-.24.015-.445.015-.143 0-.245-.005-.307-.015-.01.255-.097.818-.261 1.688-.143.256-.302.384-.476.384a.411.411 0 0 1-.184-.046c-.184-.041-.348-.154-.491-.338-.143-.184-.205-.353-.184-.506.071-.246.148-.579.23-.998l.077-.323-1.06-.568c-.286-.215-.598-.522-.936-.92-.338-.4-.542-.81-.614-1.229a3.12 3.12 0 0 1-.077-.767c0-.614.123-1.26.369-1.935a6.003 6.003 0 0 1 1.013-1.78c.153-.175.312-.328.476-.461a6.09 6.09 0 0 1 .476-.353c.153-.113.255-.19.307-.23l.46-.323c.092-.061.251-.143.476-.245.235-.113.435-.195.599-.246.123-.041.24-.067.353-.077.123-.02.281-.03.476-.03.286 0 .547.005.783.015 0-.195.051-.497.153-.906a2.12 2.12 0 0 1 .046-.246c.021-.081.036-.158.046-.23 0-.133.062-.245.185-.338a.414.414 0 0 1 .399-.092c.184.041.358.133.522.277.163.143.245.266.245.368 0 .164-.01.307-.03.43l-.261 1.044c.47.184.931.435 1.381.752.338.235.584.435.737.599a1.6 1.6 0 0 1 .369.568c.081.215.148.512.199.89Zm-6.555 3.623c.072-.174.22-.599.445-1.274.451-1.31.793-2.236 1.029-2.779l.537-1.274-.23-.015c-.123 0-.246.015-.369.046-.256.051-.547.184-.875.399-.327.205-.629.42-.905.645-.348.276-.604.573-.768.89-.471.88-.706 1.525-.706 1.934a2.415 2.415 0 0 0-.077.538c0 .215.031.404.092.568.062.163.149.322.261.476.143.245.328.445.553.598.235.154.491.287.767.4.031-.195.067-.41.108-.645.051-.236.097-.404.138-.507Zm5.281-3.377c.051-.532-.118-.916-.507-1.152-.071-.04-.209-.122-.414-.245a4.556 4.556 0 0 0-.522-.276 2.686 2.686 0 0 0-.43-.185 3.81 3.81 0 0 1-.2.568c-.081.174-.179.42-.291.737-.133.307-.374.931-.722 1.873-.348.931-.563 1.535-.644 1.812l-.139.43a4.73 4.73 0 0 0-.215.736l-.107.415.568-.184c.082-.041.194-.077.338-.108a4.79 4.79 0 0 0 .522-.184c.45-.174.854-.45 1.212-.83.359-.378.712-.895 1.06-1.55.071-.153.169-.455.291-.905.123-.45.19-.768.2-.952Zm3.922 6.739c-.153 0-.389-.061-.706-.184a4.752 4.752 0 0 1-.875-.46c-.276-.185-.456-.369-.537-.553l-.031-.062a2.119 2.119 0 0 1-.23-1.58l.076-.323c.092-.317.138-.578.138-.783.052-.062.128-.164.231-.307.112-.154.179-.251.199-.292a.368.368 0 0 0 .031-.138v-.23a.37.37 0 0 1 .077-.215.948.948 0 0 1 .276-.26l.062.014c.02 0 .097-.148.23-.445.133-.307.261-.63.384-.967.511-.942 1.084-1.725 1.719-2.349.635-.635 1.197-1.06 1.689-1.274.041-.01.117-.02.23-.03l.322-.032c.195.01.43.057.707.139.276.081.424.143.445.184 0 .04.01.066.03.077.031.01.052.015.062.015.092-.01.256.138.491.445.246.297.425.578.537.844.123.195.185.522.185.983 0 .389-.057.875-.169 1.458-.113.573-.225.983-.338 1.228a21.872 21.872 0 0 1-1.013 2.334c-.41.819-.783 1.238-1.121 1.259-.01 0-.02.01-.031.03-.01.01-.015.031-.015.062 0 .03-.138.164-.414.399-.267.235-.502.43-.707.583l-.291.108a4.408 4.408 0 0 1-.845.215 5.77 5.77 0 0 1-.798.107Zm.015-1.397c.441 0 .758-.01.952-.03a1.74 1.74 0 0 0 .614-.2c.225-.123.466-.333.722-.63.102-.184.184-.307.245-.368l.246-.43c.154-.266.297-.399.43-.399 0-.051.041-.19.123-.414.082-.236.143-.369.184-.4.02-.01.072-.122.153-.337a9.24 9.24 0 0 0 .231-.737c.071-.266.107-.486.107-.66.184-.195.266-.302.246-.323a.278.278 0 0 1-.016-.061V59.9c0-.296.021-.45.062-.46.051-.02.077-.036.077-.046a.18.18 0 0 0-.062-.062c-.02-.02-.03-.04-.03-.061 0-.01.015-.03.046-.061a.169.169 0 0 0 .046-.123c-.021-.256-.164-.701-.43-1.336a.872.872 0 0 1-.123-.107.373.373 0 0 0-.169-.123.35.35 0 0 0-.184-.046c-.041 0-.113.01-.215.03-.041-.04-.082-.06-.123-.06a.332.332 0 0 0-.107.014l-.077.031a1.374 1.374 0 0 0-.507.215 5.46 5.46 0 0 0-.491.491l-.261.277a1.45 1.45 0 0 1-.506.721c-.041.03-.103.108-.185.23-.082.113-.143.19-.184.23l-.092.185c-.225.368-.466.86-.722 1.474a26.084 26.084 0 0 0-.66 1.72c-.184.541-.276.884-.276 1.028 0 .286.092.516.276.69.195.174.415.272.66.292Zm7.408 1.351c-.102 0-.256-.051-.46-.153-.205-.103-.307-.21-.307-.323a.853.853 0 0 0-.077-.307c0-.256.026-.46.077-.614 0-.112.015-.235.046-.368.03-.133.066-.24.107-.323 0-.082.021-.189.062-.322a4.21 4.21 0 0 0 .076-.292l.093-.322.261-.783c.051-.123.087-.225.107-.307a.977.977 0 0 0 .031-.23c.061-.205.138-.466.23-.783.092-.318.169-.594.23-.83.051-.05.077-.127.077-.23.02-.061.067-.204.138-.43.072-.235.154-.48.246-.736.153-.45.271-.82.353-1.106.082-.286.123-.486.123-.598a.359.359 0 0 0-.046-.185 1.335 1.335 0 0 0-.046-.122.869.869 0 0 1-.062-.185c0-.04.021-.081.062-.122a.517.517 0 0 0 .092-.123c.03-.051.051-.087.061-.108 0-.04.251-.158.752-.353a14.74 14.74 0 0 1 1.182-.43h.937c.286.041.568.123.844.246.277.123.507.276.691.46.317.297.604.732.86 1.305 0 .041.01.133.03.277.031.133.046.25.046.353 0 .48-.174 1.033-.522 1.658a5.487 5.487 0 0 1-1.396 1.658c-.338.266-.696.47-1.075.614a2.923 2.923 0 0 1-1.059.215 1.89 1.89 0 0 1-.43-.046.776.776 0 0 1-.399-.307.98.98 0 0 1-.108-.446c0-.133.021-.22.062-.26a2.05 2.05 0 0 1 .337-.016c.185 0 .456-.066.814-.2a3.23 3.23 0 0 0 .645-.291c.481-.307.905-.757 1.274-1.351.205-.328.307-.819.307-1.474.02-.102.031-.179.031-.23 0-.205-.092-.374-.277-.507-.174-.143-.424-.23-.752-.26a1.263 1.263 0 0 0-.23-.016 2.66 2.66 0 0 0-.614.077c-.215.051-.369.107-.461.169-.031 0-.056.035-.077.107a1.17 1.17 0 0 1-.076.2c0 .082-.036.235-.108.46a7.73 7.73 0 0 1-.199.63l-.2.583a7.606 7.606 0 0 0-.276.798 4.898 4.898 0 0 1-.123.43 2.94 2.94 0 0 1-.108.276c0 .021-.03.113-.092.277a5.127 5.127 0 0 0-.138.414c-.092.481-.22.921-.384 1.32-.235.768-.353 1.305-.353 1.613 0 .112.016.194.046.245.174.01.297.03.369.061.082.021.123.067.123.139 0 .123-.164.389-.492.798-.092.235-.189.404-.291.507-.103.102-.19.158-.261.168-.072.02-.179.031-.323.031Zm17.965-9.472c0 .051-.015.087-.046.108-.031.01-.046.02-.046.03 0 .01.02.031.061.062l-.107.506c-.041.215-.128.645-.261 1.29a48.076 48.076 0 0 0-.277 1.566l-.215 1.642a85.916 85.916 0 0 0-.199 1.674c-.031.389-.046.798-.046 1.228 0 .491.015.865.046 1.12.041.267.061.42.061.461 0 .062-.071.154-.215.276a.714.714 0 0 1-.476.185.618.618 0 0 1-.583-.338c-.123-.215-.194-.553-.215-1.013 0-.686.051-1.602.154-2.748.03-.072.046-.21.046-.415a.912.912 0 0 0-.031-.276 1.46 1.46 0 0 1 .046-.43 1.74 1.74 0 0 0 .046-.368c0-.052.021-.159.062-.323a1.48 1.48 0 0 0 .092-.43v-.107c.03-.092.061-.205.092-.338a1.5 1.5 0 0 0 .061-.26.912.912 0 0 1-.015-.216.57.57 0 0 0-.031-.23 7.76 7.76 0 0 0 .215-.798l.184-.737c-.01 0-.123.205-.337.614a9.395 9.395 0 0 1-.753 1.213 9.463 9.463 0 0 1-.69.982l-.369.476c-.133.174-.261.338-.384.491a1.903 1.903 0 0 0-.245.43c-.215.532-.466.921-.753 1.167-.276.245-.557.384-.844.414l-.246.031h-.092c-.194 0-.358-.128-.491-.384-.123-.255-.184-.731-.184-1.427l.015-.415.046-.86c.031-.174.057-.46.077-.86.02-.409.036-.68.046-.813-.051.051-.143.24-.276.568-.123.328-.2.537-.231.63l-.138.353c-.051.071-.128.266-.23.583-.082.235-.194.522-.338.86a17.95 17.95 0 0 1-.614 1.75 9.715 9.715 0 0 0-.245.568 8.07 8.07 0 0 0-.185.491 7.458 7.458 0 0 1-.276.66c-.44.993-.808 1.49-1.105 1.49-.164 0-.328-.088-.492-.262a.773.773 0 0 1-.23-.537c0-.143.057-.333.169-.568.113-.246.276-.563.491-.952l.323-.599c0-.05.123-.399.368-1.044l.215-.568.952-2.517.015-.062.092-.23c.031-.082.087-.205.169-.368.144-.328.215-.517.215-.568v-.031c0-.03.01-.051.031-.061a.256.256 0 0 1 .061-.016 11.187 11.187 0 0 1 .476-1.074l-.015-.062a.55.55 0 0 1 .046-.245c.041-.062.082-.118.123-.17a1.15 1.15 0 0 0 .122-.137.52.52 0 0 1 .093-.246 3.02 3.02 0 0 1 .215-.338c.163-.225.271-.394.322-.506a.504.504 0 0 1 .476-.292c.153 0 .307.061.46.184.154.123.282.261.384.415.102.143.154.24.154.291 0 .031-.016.052-.046.062-.031.01-.046.035-.046.076v.062a.98.98 0 0 1-.062.553 4.749 4.749 0 0 0-.138 1.182l.015.445c0 .082-.02.143-.061.184a2.717 2.717 0 0 0-.077.108v.03l-.015.123.015.092a.958.958 0 0 1-.077.338 4.618 4.618 0 0 0-.092.384 8.659 8.659 0 0 0-.061 1.044c0 .532.046.823.138.875l1.105-1.643c.942-1.392 1.418-2.103 1.428-2.134a.571.571 0 0 0 .2-.23c-.011 0-.016-.01-.016-.03 0-.052.133-.272.399-.661.267-.4.553-.757.86-1.075.307-.327.558-.49.752-.49.092 0 .215.06.369.183.164.123.307.277.43.46.122.175.184.339.184.492Zm10.977 0c.01.041.015.113.015.215 0 .41-.22 1.412-.66 3.009l-.169.66-.199.83a7.034 7.034 0 0 1-.261 1.166c-.133.43-.307.947-.522 1.55-.195.543-.338.978-.43 1.305a2.302 2.302 0 0 0-.138.323.875.875 0 0 1-.215.353c-.195.174-.379.26-.553.26a.626.626 0 0 1-.215-.045 1.08 1.08 0 0 1-.399-.261.511.511 0 0 1-.123-.353c0-.072.005-.128.016-.17.041-.07.174-.403.399-.997.225-.594.389-1.044.491-1.351.061-.348.138-.686.23-1.013.092-.328.179-.563.261-.706l.138-.707.154-.783c.082-.368.159-.655.23-.86l.538-2.44c-.973.04-1.474.077-1.505.107-.01.113-.133.445-.368.998-.226.553-.399.952-.522 1.198a11.23 11.23 0 0 0-.307.629c-.082.174-.149.317-.2.43l-.184.43c-.092.286-.328.793-.706 1.52a24.65 24.65 0 0 1-.998 1.765 29.74 29.74 0 0 1-1.305 1.72 4.742 4.742 0 0 1-.629.66c-.236.225-.425.368-.568.43a.658.658 0 0 1-.292.076c-.225 0-.43-.092-.614-.276a.953.953 0 0 1-.277-.66.647.647 0 0 1 .599-.43c.01 0 .143-.128.399-.384.256-.266.42-.44.492-.522.266-.297.624-.752 1.074-1.366a44.23 44.23 0 0 0 1.013-1.55l.277-.385.706-1.934.89-1.965a4.622 4.622 0 0 0-.491.23c-.665.318-1.136.476-1.412.476-.174 0-.302-.056-.384-.169a.858.858 0 0 1-.169-.522c0-.174.046-.332.138-.475a.679.679 0 0 1 .353-.308l1.75-.629a15.006 15.006 0 0 0 1.382-.445c.174-.01.425-.036.752-.077.328-.051.538-.092.63-.123.992-.03 1.622.491 1.888 1.566Zm2.843 9.688a1.869 1.869 0 0 1-.737-.231 6.938 6.938 0 0 1-.675-.415l-.415-.291a1.986 1.986 0 0 1-.399-.553 3.581 3.581 0 0 1-.23-.798 1.94 1.94 0 0 1-.031-.323c0-.307.051-.68.154-1.12a6.27 6.27 0 0 1 .337-1.044c.226-.543.722-1.413 1.489-2.61l.077-.077c.021-.02.026-.03.016-.03v-.016c0-.071.148-.389.445-.952.174-.184.261-.343.261-.476a.28.28 0 0 0-.046-.169c-.031-.04.01-.127.123-.26a3.23 3.23 0 0 1 .46-.461c.205-.174.42-.322.645-.445.276-.215.547-.323.813-.323.082 0 .149.016.2.047.061.02.097.056.108.107 0 .061.204.04.614-.062a4.86 4.86 0 0 1 .399-.076c.041-.051.143-.092.307-.123.174-.041.414-.082.721-.123.164.01.364.01.599 0 .246-.01.404-.02.476-.03.072-.021.174.025.307.138.143.112.256.256.338.43.02.06.03.107.03.138 0 .153-.097.286-.291.399-.195.102-.476.174-.845.215a24.46 24.46 0 0 0-.998.153 33.39 33.39 0 0 0-1.074.215l-.323.061c-.317.052-.552.118-.706.2-.153.082-.317.261-.491.537-.072.052-.164.185-.276.4-.113.204-.225.42-.338.644l-.307.415a9.872 9.872 0 0 0-.445.63c-.051.091-.062.158-.031.199a5.667 5.667 0 0 0 .491.092c.092-.051.22-.087.384-.108.164-.02.282-.04.353-.061l.338-.092c.634-.164 1.1-.281 1.397-.353a7.9 7.9 0 0 1 .66-.138.286.286 0 0 1 .184-.062c.113 0 .22.057.323.17a.903.903 0 0 1 .245.368c.041.143.062.235.062.276 0 .174-.103.307-.307.4-.205.08-.614.194-1.228.337a86.92 86.92 0 0 0-1.674.414c-.665.195-1.156.292-1.474.292-.266 0-.394-.087-.383-.261-.092-.051-.2.04-.323.276a4.264 4.264 0 0 0-.445 1.781c0 .133.015.246.046.338.092.246.23.455.415.63.184.163.44.29.767.383a4.311 4.311 0 0 0 .645.046c.205 0 .409-.04.614-.123.798-.133 1.361-.317 1.689-.552a.34.34 0 0 0 .138-.108c.051-.051.097-.077.138-.077l-.015.031c0 .01.03-.01.092-.061.061-.062.128-.123.199-.184a1.43 1.43 0 0 1 .952-.369c.123 0 .225.02.307.062.092.03.143.06.154.092.061.102.03.266-.092.49-.123.226-.318.461-.584.707a4.52 4.52 0 0 1-.859.645 6.1 6.1 0 0 1-1.689.583 9.186 9.186 0 0 1-1.781.215Zm7.747.813a4.51 4.51 0 0 0-.23-.046.895.895 0 0 0-.276-.016 1.052 1.052 0 0 1-.507-.26c-.154-.144-.215-.292-.184-.446.03-.03.056-.112.076-.246a2 2 0 0 0 .031-.337 4.7 4.7 0 0 0 .138-.492c.062-.46.22-1.222.476-2.287.266-1.075.435-1.648.507-1.72l-.015-.168a1.234 1.234 0 0 1 .153-.491c.041-.123.072-.24.092-.353a1.24 1.24 0 0 0 .046-.277c.021-.03.092-.215.215-.553l.154-.43c.061-.194.143-.424.245-.69.103-.266.169-.44.2-.522v-.077c.041-.051.153-.322.338-.813.092-.205.179-.415.261-.63.092-.225.184-.445.276-.66.031-.062.077-.148.138-.261.061-.113.092-.19.092-.23.041-.082.143-.123.307-.123.133 0 .266.03.399.092a.555.555 0 0 1 .277.246l.353.245-.522 1.12a18.17 18.17 0 0 0-.369.784c-.102.246-.153.389-.153.43-.021.071-.067.22-.138.445-.072.225-.149.48-.231.768-.041.143-.143.445-.307.905a1.95 1.95 0 0 0-.107.292c0-.041.553-.082 1.658-.123.184-.01.522-.026 1.013-.046.502-.03.814-.061.937-.092l.782-.107.369-1.367c.123-.501.322-1.208.599-2.118.133-.44.291-.778.476-1.014.184-.245.342-.368.475-.368.256 0 .466.184.63.553a.45.45 0 0 1 .184.353c0 .133-.077.332-.23.599-.133.245-.292.654-.476 1.228a3.562 3.562 0 0 1-.154.476v.06c0 .195-.046.339-.138.43-.031.031-.097.175-.199.43-.092.257-.139.405-.139.446a.705.705 0 0 1-.03.276.522.522 0 0 1-.108.215l-.291 1.228c-.185.778-.369 1.402-.553 1.873.01.051-.01.143-.061.276a1.15 1.15 0 0 0-.062.277c-.153.491-.225.767-.215.829-.051.235-.148.66-.291 1.274-.093.41-.139.62-.139.63-.01.02-.056.03-.138.03-.164 0-.338-.036-.522-.107a.978.978 0 0 1-.368-.338.741.741 0 0 1-.138-.43c0-.133.025-.25.076-.353.041-.072.118-.379.231-.921l.153-.66c.051-.164.108-.405.169-.722.072-.327.123-.558.154-.69.092-.533.153-.814.184-.845v-.154c-.031-.03-.215-.046-.553-.046-.348 0-.757.02-1.228.062-.471.03-.89.077-1.259.138l-.43.015a3.32 3.32 0 0 0-.414.016c-.103 0-.19.005-.261.015h-.138c-.041.092-.159.532-.353 1.32-.195.788-.307 1.295-.338 1.52-.092.47-.2.972-.323 1.505a26.64 26.64 0 0 1-.276 1.228Zm16.409-.523c-.236-.02-.497-.132-.783-.337-.277-.195-.42-.404-.43-.63l.03-.399c.195-.552.4-1.325.615-2.318a13.2 13.2 0 0 0 .153-.66c.061-.245.128-.506.2-.783.174-.655.491-1.714.951-3.178l.261-.844a321.786 321.786 0 0 0-4.513 5.818c-.256.348-.706.886-1.351 1.612-.645.727-1.08 1.167-1.305 1.32a.814.814 0 0 1-.476.139.921.921 0 0 1-.522-.154.562.562 0 0 1-.261-.414l-.015-.17c0-.388.107-.982.322-1.78.226-.808.507-1.75.845-2.825l.276-.875c.297-.972.65-1.929 1.059-2.87a.27.27 0 0 1-.015-.108.34.34 0 0 1 .107-.245c-.01-.041.041-.19.154-.446.123-.266.2-.435.23-.506a6.1 6.1 0 0 0 .215-.476c.072-.236.174-.41.307-.522a.713.713 0 0 1 .445-.169c.215 0 .4.082.553.246a.832.832 0 0 1 .246.614c0 .174-.052.358-.154.552a3.16 3.16 0 0 0-.215.476c-.02.072-.061.18-.123.323a49.31 49.31 0 0 0-1.289 3.33 40.586 40.586 0 0 0-.983 3.163c.256-.317.527-.634.814-.951.553-.635.957-1.116 1.213-1.444a95.983 95.983 0 0 1 3.991-5.05c.184-.225.425-.476.722-.752.307-.277.563-.456.767-.538a.576.576 0 0 1 .261-.061c.236 0 .451.112.645.338.195.215.292.445.292.69 0 .103-.01.18-.031.23l-.338.86c-.634 1.515-.951 2.385-.951 2.61 0 .113-.292 1.182-.876 3.209a109.2 109.2 0 0 0-.291 1.028c-.103.4-.195.84-.277 1.32-.071.471-.138.932-.199 1.382l-.276.246Zm5.967-.245a6.443 6.443 0 0 1-1.213-.445c-.46-.205-.706-.374-.736-.507a.146.146 0 0 0-.062-.123.191.191 0 0 0-.138-.06v-.232c0-.072-.02-.118-.061-.138-.052-.103-.077-.251-.077-.445 0-.318.051-.717.153-1.198.113-.481.236-.91.369-1.29 0-.071.015-.163.046-.276a.89.89 0 0 0 .061-.215c.082-.235.246-.609.492-1.12.245-.512.45-.87.614-1.075 0-.03.035-.097.107-.2a1.05 1.05 0 0 0 .169-.337c.164-.164.384-.481.66-.952.358-.297.507-.563.445-.798.011-.215.097-.369.261-.461.174-.102.481-.205.921-.307a4.08 4.08 0 0 1 .983-.246c.338-.05.783-.087 1.335-.107a3.037 3.037 0 0 1 .522-.077c.031-.03.185-.015.461.046.287.051.542.138.768.261.235.113.348.24.337.384-.01.082-.24.19-.691.322a7.73 7.73 0 0 1-1.212.246l-.384.046c-.594.061-1.024.128-1.29.2a1.677 1.677 0 0 0-.706.368c-.215.184-.46.491-.737.921-.368.573-.552.962-.552 1.167 0 .133.071.2.215.2.092 0 .23-.01.414-.031.194-.031.333-.046.415-.046.051-.02.168-.062.353-.123.194-.062.409-.108.644-.138l.676-.139a2.1 2.1 0 0 1 .46-.076c.359 0 .538.123.538.368 0 .133-.067.276-.2.43a1.167 1.167 0 0 1-.491.353 8.77 8.77 0 0 1-.63.215c-.235.072-.383.108-.445.108a.607.607 0 0 1-.153.03 2.02 2.02 0 0 1-.277.016l-.69.092-.507.061c-.082.02-.276.072-.583.154-.307.081-.507.174-.599.276-.092.092-.179.246-.261.46a5.26 5.26 0 0 0-.322 1.09c-.082.42-.123.789-.123 1.106 0 .317.046.522.138.614.225.256.578.384 1.059.384a2.802 2.802 0 0 0 1.505-.43c.194-.154.409-.271.644-.353a.45.45 0 0 1 .231-.092c.051 0 .107.02.169.061a.91.91 0 0 1 .168.108c.062.04.113.076.154.107a.59.59 0 0 1 .123.353c0 .338-.43.686-1.29 1.044-.481.164-.865.281-1.151.353a3.261 3.261 0 0 1-.783.108l-.246-.016Zm17.47-9.733c0 .051-.015.087-.046.108-.031.01-.046.02-.046.03 0 .01.02.031.061.062l-.107.506c-.041.215-.128.645-.261 1.29a45.088 45.088 0 0 0-.276 1.566l-.215 1.642a87.565 87.565 0 0 0-.2 1.674c-.031.389-.046.798-.046 1.228 0 .491.015.865.046 1.12.041.267.062.42.062.461 0 .062-.072.154-.215.276a.716.716 0 0 1-.476.185.62.62 0 0 1-.584-.338c-.122-.215-.194-.553-.215-1.013 0-.686.052-1.602.154-2.748.031-.072.046-.21.046-.415a.912.912 0 0 0-.031-.276 1.46 1.46 0 0 1 .046-.43 1.48 1.48 0 0 0 .031-.169 1.45 1.45 0 0 0 .015-.2c0-.05.021-.158.062-.322a1.48 1.48 0 0 0 .092-.43v-.107c.031-.092.061-.205.092-.338a1.5 1.5 0 0 0 .061-.26.912.912 0 0 1-.015-.216.57.57 0 0 0-.031-.23 7.76 7.76 0 0 0 .215-.798l.185-.737c-.011 0-.123.205-.338.614a9.495 9.495 0 0 1-.752 1.213 9.615 9.615 0 0 1-.691.982l-.369.476c-.133.174-.261.338-.383.491a1.872 1.872 0 0 0-.246.43c-.215.532-.466.921-.752 1.167-.277.245-.558.384-.845.414l-.245.031h-.092c-.195 0-.359-.128-.492-.384-.122-.255-.184-.731-.184-1.427l.015-.415.047-.86c.03-.174.056-.46.076-.86.021-.409.036-.68.046-.813-.051.051-.143.24-.276.568-.123.328-.2.537-.23.63l-.138.353c-.052.071-.128.266-.231.583-.082.235-.194.522-.337.86-.226.737-.43 1.32-.615 1.75a11.295 11.295 0 0 0-.429 1.059 7.659 7.659 0 0 1-.277.66c-.44.993-.808 1.49-1.105 1.49-.164 0-.328-.088-.491-.262a.77.77 0 0 1-.231-.537c0-.143.057-.333.169-.568.113-.246.277-.563.492-.952l.322-.599c0-.05.123-.399.368-1.044l.215-.568.952-2.517.015-.062.093-.23c.03-.082.087-.205.168-.368.144-.328.215-.517.215-.568v-.031c0-.03.011-.051.031-.061a.256.256 0 0 1 .061-.016 11.187 11.187 0 0 1 .476-1.074l-.015-.062a.55.55 0 0 1 .046-.245c.041-.062.082-.118.123-.17a1.39 1.39 0 0 0 .123-.137c0-.062.03-.144.092-.246a3.02 3.02 0 0 1 .215-.338c.163-.225.271-.394.322-.506a.504.504 0 0 1 .476-.292c.154 0 .307.061.461.184.153.123.281.261.383.415.103.143.154.24.154.291 0 .031-.015.052-.046.062-.031.01-.046.035-.046.076v.062a.966.966 0 0 1-.062.553 4.749 4.749 0 0 0-.138 1.182l.016.445c0 .082-.021.143-.062.184a2.717 2.717 0 0 0-.077.108v.03l-.015.123.015.092a.976.976 0 0 1-.076.338 4.176 4.176 0 0 0-.092.384 8.656 8.656 0 0 0-.062 1.044c0 .532.046.823.138.875l1.106-1.643c.941-1.392 1.417-2.103 1.427-2.134a.571.571 0 0 0 .2-.23c-.01 0-.015-.01-.015-.03 0-.052.133-.272.399-.661.266-.4.552-.757.859-1.075.307-.327.558-.49.753-.49.092 0 .215.06.368.183.164.123.307.277.43.46.123.175.184.339.184.492ZM114.964 79.965c-.03.051-.112.118-.245.2.174.112.327.235.46.368.143.133.23.25.261.353.297.47.445 1.023.445 1.658 0 .328-.035.655-.107.983-.256.49-.409.777-.461.86-.215.409-.542.762-.982 1.058-.44.297-.845.492-1.213.584-.44.133-.875.2-1.305.2a4.05 4.05 0 0 1-.43-.031 2.981 2.981 0 0 1-.706-.138 4.283 4.283 0 0 1-.783-.353 2.768 2.768 0 0 1-.798-.645 6.529 6.529 0 0 1-.614-.875.783.783 0 0 1-.123-.445c0-.195.061-.384.184-.569a1.54 1.54 0 0 1 .445-.445.734.734 0 0 1 .384-.122.47.47 0 0 1 .215.046c.072.03.123.05.154.06.194.032.317.134.368.308.051.174.082.266.092.276a3.772 3.772 0 0 1-.169.445.394.394 0 0 1-.169.2c.154.236.343.435.568.599.123.092.297.174.522.245.236.072.4.098.492.077.01-.01.036-.015.076-.015a.41.41 0 0 1 .154.03c.061.01.097.01.107 0a.853.853 0 0 1 .277-.03.918.918 0 0 0 .338-.077 3.25 3.25 0 0 0 .875-.384c.255-.174.496-.399.721-.675.154-.215.256-.404.307-.568a2.71 2.71 0 0 0 .123-.691c.02-.153 0-.328-.061-.522a7.22 7.22 0 0 1-.123-.415l-.2-.153-.338-.092c-.266-.082-.455-.123-.568-.123a1.3 1.3 0 0 0-.383.061 1.57 1.57 0 0 1-.353.077.626.626 0 0 1-.308-.076 1.555 1.555 0 0 0-.153-.108.81.81 0 0 1-.384-.322 1 1 0 0 1-.153-.507c0-.092.025-.18.076-.26a.613.613 0 0 1 .292-.262.726.726 0 0 1 .445-.077c.041.01.098.016.169.016.143 0 .317-.041.522-.123.123-.041.317-.154.583-.338.267-.184.4-.271.4-.26.337-.43.578-.753.721-.968a3.12 3.12 0 0 0 .369-.737c.112-.205.168-.425.168-.66a.99.99 0 0 0-.076-.384c-.011-.061-.082-.112-.215-.153a1.259 1.259 0 0 0-.369-.062.386.386 0 0 0-.138.016c-.164.01-.404.071-.721.184-.318.102-.507.179-.568.23-.553.47-.886.788-.998.952a.412.412 0 0 1-.215.169.75.75 0 0 1-.307.061c-.195 0-.323-.051-.384-.153a1.098 1.098 0 0 1-.169-.584c0-.235.087-.46.261-.675.195-.246.363-.44.507-.583.143-.154.312-.287.506-.4l.292-.169c.041-.02.133-.071.276-.153.154-.082.297-.143.43-.184.041-.01.159-.051.353-.123a1.942 1.942 0 0 1 .86-.092c.348.03.604.092.768.184.174.092.44.292.798.599.153.102.276.281.368.537.092.256.138.548.138.875 0 .491-.092.937-.276 1.336-.082.143-.138.25-.169.322-.02.041-.087.164-.199.369-.103.194-.22.368-.353.522a26.93 26.93 0 0 1-.584.721Zm1.634 6.202a1.144 1.144 0 0 1-.246-.169.315.315 0 0 1-.061-.2c0-.102.041-.245.123-.43.092-.194.246-.496.46-.905a23.6 23.6 0 0 1 .354-.706c.44-.84.66-1.459.66-1.858a.202.202 0 0 1-.016-.092c0-.102.082-.194.246-.276.031-.03.138-.118.322-.261.195-.143.348-.307.461-.491.133-.307.302-.645.506-1.014.205-.378.558-.992 1.06-1.842.491-.9 1.013-1.714 1.566-2.44.102-.144.215-.257.337-.338.133-.082.246-.123.338-.123.317 0 .64.123.967.368.338.246.558.492.66.737.041.072.062.225.062.46 0 .318-.036.855-.108 1.613-.02.133-.041.342-.061.629-.031.46-.077.952-.138 1.474a148.526 148.526 0 0 0-.246 2.686 23.06 23.06 0 0 0-.077 1.812c0 .286.005.496.016.63v.107l-.016.353c-.061.061-.184.092-.368.092a1.85 1.85 0 0 1-.614-.108c-.205-.061-.317-.138-.338-.23a.166.166 0 0 0-.046-.03c-.02-.01-.031-.057-.031-.139l.016-.338.046-.86.076-2.348-.199.015c-.205 0-.64.041-1.305.123-.655.082-1.069.149-1.243.2-.093 0-.205.061-.338.184a1.74 1.74 0 0 0-.353.476c-.031.102-.103.25-.215.445-.113.184-.169.292-.169.322a.667.667 0 0 0-.169.17 1.794 1.794 0 0 0-.077.122c0 .113-.102.404-.307.875-.194.46-.389.84-.583 1.136l-.415.584-.537-.415Zm3.669-5.28.43-.062a4.57 4.57 0 0 1 .568-.077c.491-.123.829-.184 1.013-.184.103 0 .174.01.215.03a.407.407 0 0 0 .092.093c.041.01.067.015.077.015.02-.082.102-.64.246-1.674.143-1.033.215-1.668.215-1.903a4.77 4.77 0 0 0-.016-.415 1.38 1.38 0 0 0-.03-.23c-.093 0-.302.246-.63.737a14.297 14.297 0 0 0-.952 1.643c-.235.42-.399.63-.491.63-.072.07-.225.311-.461.72-.235.41-.327.635-.276.676Zm12.339 5.526c-.041.04-.148.061-.322.061-.226 0-.435-.056-.63-.169-.184-.102-.276-.281-.276-.537 0-.143.036-.302.107-.476.348-.9.829-2.272 1.443-4.114.082-.277.215-.68.399-1.213 0 .02.113-.333.338-1.06.164-.48.287-.88.369-1.197a8.25 8.25 0 0 0 .215-1.013 2.129 2.129 0 0 0-.446-.046h-.276c-.184 0-.322-.01-.414-.03a3.052 3.052 0 0 0-.522-.031 10.063 10.063 0 0 0-1.275.076c-.112.01-.235.016-.368.016l-.123.061-.23.553c-.051.123-.118.276-.2.46-.082.185-.169.4-.261.645a5.494 5.494 0 0 1-.184.415l-.138.307-.2.399-.23.583-.246.584a34.61 34.61 0 0 1-.399.905 35.725 35.725 0 0 0-1.366 3.623c-.02.072-.051.2-.092.384a1.621 1.621 0 0 1-.138.414.54.54 0 0 1-.246.277.672.672 0 0 1-.353.092.96.96 0 0 1-.461-.108 1.192 1.192 0 0 1-.337-.245.448.448 0 0 1-.108-.307c0-.102.021-.215.062-.338.481-1.586 1.028-3.004 1.642-4.252.082-.164.169-.359.261-.584.092-.225.159-.394.2-.506.194-.532.348-.9.46-1.106.348-.665.635-1.335.86-2.01-.051.04-.138.06-.261.06-.092 0-.215-.01-.368-.03a1.728 1.728 0 0 0-.338-.046 1.147 1.147 0 0 1-.292-.384 1.338 1.338 0 0 1-.107-.506c0-.144.031-.266.092-.369a.484.484 0 0 1 .153-.184.41.41 0 0 1 .231-.061h1.182a.474.474 0 0 0 .291-.123 1.38 1.38 0 0 1 .108-.077.435.435 0 0 1 .246-.061c.04 0 .112.01.214.03.154.052.328.077.522.077.164 0 .384-.025.661-.077a2.9 2.9 0 0 1 .675-.061l.583.015c.113.01.261.016.446.016.071 0 .158.01.261.03.112.02.204.036.276.046.082.01.225.016.43.016.348.01.645.035.89.076.246.031.435.098.568.2.092.072.179.169.261.292a.539.539 0 0 1 .123.307c0 .082-.164.69-.491 1.827-.318 1.125-.512 1.76-.584 1.903-.194.502-.481 1.356-.859 2.564l-.492 1.504c-.051.144-.107.318-.168.522-.123.379-.261.773-.415 1.182-.143.41-.261.676-.353.799Zm3.548.276c-.021-.01-.103-.046-.246-.107a1.313 1.313 0 0 1-.353-.2c-.102-.082-.153-.164-.153-.246-.021-.04-.021-.117 0-.23a7.12 7.12 0 0 1 .153-.599l.092-.337c.092-.297.138-.45.138-.46.011.01.026.014.046.014.093 0 .139-.122.139-.368-.011-.04 0-.108.03-.2a3.55 3.55 0 0 1 .138-.276c0-.072.041-.333.123-.783.225-.747.497-1.438.814-2.072.01-.082.046-.2.107-.353.062-.154.108-.251.139-.292.02-.154.076-.348.168-.583.093-.246.185-.41.277-.492 0-.112.087-.363.261-.752.174-.389.276-.583.307-.583 0-.01.01-.046.03-.108a1.59 1.59 0 0 1 .169-.276c0-.051.011-.118.031-.2a.346.346 0 0 1 .138-.2c.01-.03.026-.091.046-.183a.422.422 0 0 0 .016-.185c0-.03-.011-.05-.031-.061a.484.484 0 0 1-.031-.184c0-.144.092-.22.277-.23.061 0 .133-.088.214-.261.041-.082.154-.154.338-.216.184-.06.451-.127.798-.199l.814-.138a6.171 6.171 0 0 1 1.105.107c.379.184.707.44.983.768.287.317.43.599.43.844 0 .307-.123.804-.369 1.49-.235.685-.44 1.094-.614 1.227.051 0 .031.057-.061.17-.092.112-.21.23-.353.352-.133.123-.236.195-.307.215 0 .02-.041.092-.123.215a.829.829 0 0 1-.292.277 15.3 15.3 0 0 1-.322.2 1.26 1.26 0 0 0-.415.383c0-.051-.015-.077-.046-.077-.041 0-.102.036-.184.108a.946.946 0 0 1-.169.122 2.28 2.28 0 0 1-.537.261 6.825 6.825 0 0 1-.66.139c-.072.061-.256.092-.553.092l-.568-.077-.322.921c-.144.45-.307.921-.491 1.412a19.3 19.3 0 0 0-.215.584c-.103.276-.2.573-.292.89a1.158 1.158 0 0 1-.169.445.658.658 0 0 1-.246.277c-.081.05-.148.056-.199.015Zm2.487-5.726c.46-.041.813-.123 1.059-.246.256-.123.548-.343.875-.66l.476-.476c.287-.276.527-.547.722-.813.276-.41.414-.83.414-1.26 0-.204-.036-.378-.107-.521a.87.87 0 0 0-.753-.4c-.276 0-.573.093-.89.277-.102.04-.312.379-.629 1.013a23.53 23.53 0 0 0-.845 1.934c-.245.655-.353 1.04-.322 1.152Zm7.178 4.836a2.165 2.165 0 0 1-1.136-.922c-.276-.45-.415-.982-.415-1.596 0-.246.021-.47.062-.675a4.82 4.82 0 0 1 .184-.937c.061-.184.107-.373.138-.568 0-.02.01-.056.031-.107.02-.052.025-.093.015-.123l.261-.645c.123-.276.2-.43.23-.46.041-.021.062-.047.062-.077a.256.256 0 0 0 .015-.062c0-.133.138-.42.415-.86.286-.44.593-.87.921-1.289.327-.42.522-.63.583-.63.021 0 .046-.02.077-.06.031-.052.051-.078.061-.078.072-.081.359-.23.86-.445.502-.225.901-.373 1.197-.445.205-.072.415-.107.63-.107.522 0 .947.245 1.274.737.328.48.496 1.15.507 2.01a5.543 5.543 0 0 0-.077.676 3.684 3.684 0 0 1-.046.4c-.01.306-.077.69-.2 1.15-.112.45-.189.681-.23.691a.24.24 0 0 1-.031.108.252.252 0 0 0-.03.107c.01.092-.123.415-.4.967-.276.543-.434.82-.475.83a.111.111 0 0 0-.046.015c-.011.01-.011.03 0 .061.01.03-.072.123-.246.276-.164.154-.282.23-.353.23a.045.045 0 0 0-.031.016c0 .01.01.03.031.062.02.03-.128.163-.445.399-.307.235-.64.465-.998.69-.358.215-.63.343-.814.384a.269.269 0 0 1-.138.077.47.47 0 0 1-.077.015c-.071.072-.204.133-.399.185a2.053 2.053 0 0 1-.553.076c-.153 0-.291-.025-.414-.076Zm1.55-1.612c.307-.103.614-.266.922-.492.307-.235.491-.45.552-.644.051-.184.123-.313.215-.384.174-.174.404-.573.691-1.198.297-.634.45-1.064.46-1.29 0-.06.016-.158.047-.29a.925.925 0 0 1 .107-.308c.02-.03.026-.097.015-.2a5.738 5.738 0 0 1-.015-.475c0-.266.005-.497.015-.691-.03-.665-.133-1.05-.307-1.151-.082-.062-.22-.093-.414-.093a1.122 1.122 0 0 0-.415.108.73.73 0 0 1-.215.046c-.143.082-.215.174-.215.276 0 .092-.04.17-.122.23-.072.062-.149.067-.231.016-.184.01-.302.036-.353.077-.051.04-.117.138-.199.291a5.439 5.439 0 0 1-.2.369c-.256.194-.45.399-.583.614-.133.215-.215.394-.246.537-.317.553-.517.942-.599 1.167a5.149 5.149 0 0 0-.184.89 2.339 2.339 0 0 0-.199.538 1.923 1.923 0 0 1-.108.399 1.4 1.4 0 0 0-.031.322c0 .225.016.46.047.706.03.236.071.394.122.476.082.276.261.415.538.415.225 0 .527-.087.905-.261Zm6.856 2.487a3.627 3.627 0 0 1-.921-.492 1.887 1.887 0 0 1-.63-.813c-.164-.46-.245-1.003-.245-1.627 0-.604.035-1.116.107-1.536a6.44 6.44 0 0 1 .368-1.305l.139-.322c.163-.42.281-.696.353-.829.174-.4.481-.916.921-1.55.409-.615.732-1.07.967-1.367.246-.307.496-.568.752-.783.256-.225.63-.506 1.121-.844.297-.215.66-.322 1.09-.322.338 0 .645.082.921.245.286.164.501.42.645.768.102.174.153.414.153.721 0 .492-.118 1.024-.353 1.597s-.517 1.008-.844 1.305a.395.395 0 0 1-.292.107.898.898 0 0 1-.399-.107 1.705 1.705 0 0 1-.384-.261 3.605 3.605 0 0 1-.153-.307c-.011-.03.01-.051.061-.062.092-.112.225-.327.399-.644a4.93 4.93 0 0 0 .369-.768l.092-.43c.061-.266.092-.44.092-.522a.337.337 0 0 0-.108-.245.163.163 0 0 0-.122-.047c-.082 0-.226.052-.43.154-.236.102-.517.312-.845.63a8.843 8.843 0 0 0-.951 1.105c-.471.614-.835 1.12-1.09 1.52a5.621 5.621 0 0 0-.568 1.212l-.169.4c.01.04-.005.143-.046.307a1.934 1.934 0 0 1-.139.399 6.942 6.942 0 0 0-.214 1.612c0 .378.035.706.107.982.082.276.194.481.338.614.082.072.199.108.353.108.164 0 .348-.036.553-.108.214-.082.44-.174.675-.276l.491-.215c.236-.092.456-.2.66-.322a2.32 2.32 0 0 0 .476-.338c.266-.195.481-.292.645-.292.133-.04.235 0 .307.123.082.123.123.292.123.507 0 .143-.097.317-.292.522a3.296 3.296 0 0 1-.691.522c-.112.112-.363.245-.752.399a5.795 5.795 0 0 1-1.151.629c-.43.184-.824.276-1.182.276-.082 0-.185-.01-.307-.03Zm11.21-11.652c.348 0 .67.092.967.276.307.174.547.425.721.752.185.318.277.68.277 1.09 0 .573-.036 1.326-.108 2.257a46.056 46.056 0 0 1-.276 2.625c-.123.86-.23 1.965-.323 3.316a26.08 26.08 0 0 1-.153 1.474c-.031.276-.092.435-.184.476l.015.03c0 .041-.036.077-.107.108a.664.664 0 0 1-.261.046c-.185 0-.369-.036-.553-.107-.184-.072-.276-.226-.276-.461 0-.133.025-.456.076-.967.113-.962.179-1.75.2-2.364l.092-.676h-.384c-.174.051-.424.077-.752.077l-.967-.015c-.276 0-.466.01-.568.03a.29.29 0 0 0-.215.123c-.051.062-.113.19-.184.384a6.134 6.134 0 0 1-.323.752c-.358.87-.675 1.49-.951 1.858-.277.368-.548.552-.814.552-.072 0-.189-.03-.353-.092-.154-.061-.23-.143-.23-.245 0-.144.107-.44.322-.89.225-.451.394-.753.507-.907.01 0 .01-.005 0-.015a.202.202 0 0 1-.016-.092c0-.225.133-.599.399-1.12.041-.123.082-.241.123-.354a.925.925 0 0 0 .077-.23l.292-.568c0-.061.035-.19.107-.384.082-.204.179-.425.292-.66 0-.153.03-.302.092-.445.061-.154.143-.317.245-.491.113-.205.169-.338.169-.4a.74.74 0 0 1 .031-.138 7.8 7.8 0 0 1 .169-.353c-.021 0-.031-.005-.031-.015 0-.01.041-.067.123-.169a.59.59 0 0 1 .107-.307c.082-.123.215-.46.4-1.013l.307-.66c.082-.133.189-.384.322-.753l.123-.322.123-.338c.03-.04.076-.118.138-.23a.688.688 0 0 1 .292-.276c.133-.072.312-.113.537-.123a1.58 1.58 0 0 1 .384-.046Zm.322 5.864c0-.112.036-.527.107-1.243.144-1.474.22-2.38.231-2.718 0-.153-.005-.24-.016-.26 0-.093-.082-.18-.245-.262-.164-.082-.282-.122-.353-.122-.092 0-.169.05-.231.153-.061.103-.122.23-.184.384a5.234 5.234 0 0 0-.123.307l-.138.353c-.174.43-.378.957-.614 1.581-.235.614-.368.983-.399 1.106-.061.061-.169.255-.322.583-.144.317-.215.517-.215.599 0 .256.128.383.383.383.041 0 .123-.005.246-.015.133-.02.276-.056.43-.107h.215c.164 0 .327-.026.491-.077a7.47 7.47 0 0 0 .522-.092c.092-.02.148-.067.169-.138.031-.072.046-.21.046-.415Zm4.808 2.303a.465.465 0 0 1-.138.015.582.582 0 0 1-.476-.23c-.113-.164-.169-.41-.169-.737 0-.256.046-.573.138-.952.144-.286.215-.501.215-.644a6.3 6.3 0 0 1 .246-.66c.112-.277.205-.487.276-.63.041 0 .082-.036.123-.108a.37.37 0 0 0 .077-.215.86.86 0 0 1 .046-.276.659.659 0 0 1 .123-.215c0-.03.02-.082.061-.153a.478.478 0 0 0 .061-.17c0-.02.011-.05.031-.091a.259.259 0 0 0 .046-.123c.184-.307.45-.885.798-1.735.348-.85.528-1.34.538-1.474.041-.235.133-.337.276-.306.051-.041.174-.062.369-.062.03.01.087.036.168.077a.66.66 0 0 1 .215.169.414.414 0 0 1 .123.26c.021.103.031.236.031.4a1.5 1.5 0 0 1-.138.506 7.296 7.296 0 0 1-.292.553 8.55 8.55 0 0 0-.23.415l-.2.368c-.164.287-.245.455-.245.507a.72.72 0 0 1-.077.23 5.5 5.5 0 0 0-.123.26 3.551 3.551 0 0 0-.261.553c-.082.236-.123.38-.123.43a2.16 2.16 0 0 0-.046.108.266.266 0 0 1-.077.138c-.03 0-.051.026-.061.077a.43.43 0 0 0-.015.092c0 .051-.026.153-.077.307a3.911 3.911 0 0 1-.215.506c-.348.993-.537 1.7-.568 2.119-.021.215-.072.368-.154.46a.862.862 0 0 1-.276.23Zm-.814 2.38a1.315 1.315 0 0 1-.491.122c-.153 0-.327-.072-.522-.215-.153-.153-.23-.307-.23-.46 0-.256.189-.512.568-.768.225-.143.389-.215.491-.215.072 0 .205.041.399.123.307.194.461.404.461.63 0 .286-.225.547-.676.782Z" fill="#1EA6F9"/></svg>