<svg width="378" height="716" fill="none" xmlns="http://www.w3.org/2000/svg"><g clip-path="url(#a)"><path d="M34.766 595.045s9.18-89.39 8.106-98.169c-1.075-8.78-33.106-29.006-8.985-83.244-31.543-37.687-37.696-57.75-29.85-66.075 7.845-8.324 33.268-22.762 75.684-15.38 49.057-34.111 110.516-57.035 192.516-37.428 21.842-14.275 52.735-18.372 69.304-11.348 16.569 7.024 16.96 28.16 11.784 51.182l-5.013 23.054s17.285 40.354 16.895 64.222c-.391 23.867-20.443 60.221-20.443 60.221s27.116 34.989 27.246 49.101c.13 14.113 4.004 38.371 2.344 40.224-1.66 1.853-113.185 51.54-186.428 49.036-73.243-2.504-153.16-25.396-153.16-25.396Z" fill="#F5FCFF"/><path d="M26.302 445.108c.847 1.269 3.419 21.397 23.569 30.827 20.15 9.43 39.062 17.136 39.062 17.136l15.43 44.093s-9.765 21.006-12.011 36.842a237.131 237.131 0 0 0-1.693 32.973s-56.609-9.755-57.455-18.405c-.847-8.65-2.149-71.31 9.765-91.763 5.404-9.333-14.844-18.73-16.569-31.152a129.933 129.933 0 0 1-.098-20.551Zm338.286-15.738s-1.823 22.762-19.987 28.648c-18.164 5.885-29.753 10.275-29.753 10.275s-39.877 32.517-39.063 37.688c.814 5.17-.846 9.755 1.725 11.348 2.572 1.593 26.693 28.062 30.274 47.735 3.581 19.673 4.883 29.981 4.883 29.981s26.726-8.455 38.347-13.365a76.199 76.199 0 0 0 23.47-15.348s-16.276-78.041-24.935-81.032c-8.659-2.992 12.403-25.591 14.128-31.997 1.725-6.406.911-23.933.911-23.933Zm-176.89-51.084c7.617-.39 56.446-24.225 93.035-19.673 36.589 4.552 81.186 32.517 82.814 31.412 1.041-.618-10.678-42.273-45.313-71.538-20.509-17.104-50.848-26.827-86.395-28.81-95.607-5.301-143.231 33.46-174.481 60.319a84.091 84.091 0 0 0-21.484 29.359 84.01 84.01 0 0 0-7.065 35.675s46.973-41.459 83.432-43.995c36.459-2.537 75.457 7.251 75.457 7.251Z" fill="#B5E3FF"/><path d="M76.889 392.593c-2.116 7.447 9.017 17.397 22.299 14.47 13.281-2.926 20.703-5.918 19.987-14.47-.716-8.552-14.421-11.511-23.406-10.243-8.984 1.269-17.155 4.228-18.88 10.243Zm175.002-12.519c1.27 6.504 14.617 8.845 27.963 4.52 13.9-4.52 19.792-16.258 8.203-20.063a35.16 35.16 0 0 0-30.013 2.211c-9.082 5.301-6.153 13.332-6.153 13.332Z" fill="#FFDCD9"/><path d="M166.213 499.965a46.678 46.678 0 0 1 27.474-10.763 50.664 50.664 0 0 1 30.925 6.243c3.028 1.853 5.795-2.927 2.767-4.78a55.392 55.392 0 0 0-34.278-6.926 52.537 52.537 0 0 0-30.794 12.291c-2.637 2.439 1.302 6.504 3.906 3.935Zm17.058-21.689a28.31 28.31 0 0 1 19.694-2.731 2.776 2.776 0 0 0 2.102-.264 2.767 2.767 0 0 0 1.036-3.771 2.764 2.764 0 0 0-1.673-1.298 34.08 34.08 0 0 0-23.959 3.251 2.77 2.77 0 1 0 2.8 4.78v.033Z" fill="#76C1FF"/><path d="M33.17 415.29s-24.12-51.019-19.53-64.286c4.59-13.267 66.895-17.592 66.895-17.592s-6.51 15.901-18.067 24.388c-5.208 3.87-18.88 1.626-18.522 4.585a84.468 84.468 0 0 0 6.348 20.713L33.17 415.29Zm232.752-117.256c15.267-4.488 61.849-14.275 71.615-8.032 7.487 4.877 15.886 73.489 4.785 79.797-6.25-2.211-16.927-16.064-21.354-29.591-2.018-6.145-.456-25.753-3.255-26.339-9.31-1.918-21.876 6.862-21.876 6.862s-38.9-20.031-29.915-22.697ZM54.59 509.395c0 1.3 6.023 18.437 16.733 23.997 10.71 5.561 28.646 5.431 33.008 3.837 8.138-2.926 18.718-36.061 19.173-41.199a42.67 42.67 0 0 1 4.297-12.519l13.835-1.04s1.107 0 .684-2.634c-.424-2.634-13.021-11.934-20.346-11.219-7.324.716-26.497 12.552-35.091 17.592-8.594 5.04-32.292 23.185-32.292 23.185Zm197.236-42.11c.261-2.601 4.883-10.503 28.874-6.243 14.324 2.536 41.342 7.771 56.447 27.379 3.255 4.097-10.385 16.812-18.946 23.217-8.561 6.406-28.484 5.658-28.484 5.658s-13.899-28.842-16.276-37.004c-2.376-8.162-6.51-11.348-11.523-12.779-5.013-1.431-9.506 5.072-11.654 3.251-2.149-1.82 1.562-3.479 1.562-3.479ZM112.664 358.743c-9.017-3.252-6.217-18.47 1.302-25.331 7.52-6.861 18.262-14.6 27.898-9.462 9.635 5.137 3.874 22.762-2.767 28.322-6.641 5.561-19.532 8.942-26.433 6.471Zm104.006-45.621c5.892-8.52 22.298-4.13 33.008 4.91 10.71 9.039 13.021 17.136 4.297 22.534s-22.299 6.178-30.014 0c-7.714-6.178-15.006-16.291-7.291-27.444Z" fill="#1EA6F9"/><path d="M26.856 408.852a133.18 133.18 0 0 0-4.07 37.102 95.735 95.735 0 0 0 7.227 36.159 69.781 69.781 0 0 0 10.417 17.202l-.52-4.195c-13.022 22.762-13.9 49.296-11.882 74.789.586 7.349 1.4 14.698 2.278 22.014a3.541 3.541 0 0 0 1.038 2.41 3.553 3.553 0 0 0 2.413 1.037 3.481 3.481 0 0 0 3.45-3.447c-2.864-24.42-5.826-50.076.782-74.139a82.619 82.619 0 0 1 7.877-19.055 3.573 3.573 0 0 0-.52-4.162C30.37 476.52 27.93 451.319 30.176 428.85a115.743 115.743 0 0 1 3.255-18.275 3.454 3.454 0 0 0-.32-2.628 3.462 3.462 0 0 0-6.352.775l.097.13Zm244.632-116.574a234.63 234.63 0 0 0-78.126-6.081 218.029 218.029 0 0 0-75.912 19.511 185.838 185.838 0 0 0-38.575 24.322 3.478 3.478 0 0 0 0 4.911 3.552 3.552 0 0 0 4.883 0 187.095 187.095 0 0 1 67.969-34.599 235.408 235.408 0 0 1 78.745-7.511 199.185 199.185 0 0 1 39.063 6.113 3.451 3.451 0 0 0 3.602-2.49 3.446 3.446 0 0 0-1.746-4.013l.097-.163ZM378 566.332c-2.051-16.258-3.255-32.322-8.366-47.897-4.199-13.007-9.766-25.039-19.532-34.696l.521 4.195A130.617 130.617 0 0 0 364.1 387.878a149.522 149.522 0 0 0-11.914-30.045c-2.084-3.935-8.073-.456-5.99 3.479a132.94 132.94 0 0 1 14.518 44.093 126.469 126.469 0 0 1-4.622 53.133 116.535 116.535 0 0 1-11.426 26.014 3.536 3.536 0 0 0 .521 4.194c9.18 8.975 14.063 20.226 17.936 32.29 4.753 14.763 5.99 30.078 7.911 45.524a3.55 3.55 0 0 0 3.45 3.447 3.513 3.513 0 0 0 3.483-3.447l.033-.228Z" fill="#070707"/><path d="M266.931 302.553a213.22 213.22 0 0 1 34.343-15.738c10.97-3.544 24.089-5.95 35.319-1.983 9.538 3.251 12.826 14.307 13.77 23.444a114.684 114.684 0 0 1-2.018 35.119 122.012 122.012 0 0 1-14.844 37.98 3.474 3.474 0 0 0 1.425 4.436 3.486 3.486 0 0 0 4.564-.957 127.13 127.13 0 0 0 17.937-75.147c-.912-10.73-3.972-22.437-13.444-28.81a35.204 35.204 0 0 0-18.458-4.878 72.36 72.36 0 0 0-19.759 2.277c-14.974 3.739-28.809 11.056-42.318 18.242-4.004 2.243-.521 8.097 3.483 6.015Z" fill="#070707"/><path d="M300.525 324.795a62.274 62.274 0 0 1 9.538-5.073c.944-.422 2.539-1.04 3.776-1.463l1.79-.585.847-.26h.748l-1.725-.455a1.917 1.917 0 0 1-.781-1.366v1.983l-.261 3.252-.52 6.503-1.042 13.007c0 .918.362 1.798 1.008 2.449a3.487 3.487 0 0 0 2.442 1.031 3.516 3.516 0 0 0 3.451-3.48L321 325.445l.586-7.218a7.375 7.375 0 0 0-1.432-6.504 6.322 6.322 0 0 0-6.51-.422c-1.563.487-3.256 1.073-4.655 1.723a68.991 68.991 0 0 0-11.654 5.951 3.542 3.542 0 0 0-1.237 4.747 3.518 3.518 0 0 0 4.72 1.236l-.293-.163Zm-212.633 5.528a136.206 136.206 0 0 0-37.208-2.992 118.343 118.343 0 0 0-35.905 7.219 25.62 25.62 0 0 0-11.882 8.13 19.103 19.103 0 0 0-1.725 17.006 152.733 152.733 0 0 0 13.77 32.517 168.52 168.52 0 0 0 23.665 32.517c3.028 3.252 7.943-1.626 4.883-4.877a159.497 159.497 0 0 1-33.724-56.027c-1.563-4.52-4.265-10.471-2.442-15.316a14.736 14.736 0 0 1 8.692-7.316 88.886 88.886 0 0 1 14.811-4.292 125.324 125.324 0 0 1 17.123-2.342 129.839 129.839 0 0 1 38.021 2.569c4.33.943 6.185-5.723 1.823-6.666l.098-.13Z" fill="#070707"/><path d="M63.347 359.361a40.732 40.732 0 0 0-15.592-1.171 12.153 12.153 0 0 0-7.715 2.537c-2.116 2.341-.782 5.365.227 7.869a59.154 59.154 0 0 0 15.788 22.762 3.617 3.617 0 0 0 4.916 0 3.542 3.542 0 0 0 0-4.91 51.19 51.19 0 0 1-9.277-10.568 53.339 53.339 0 0 1-3.549-6.244 39.04 39.04 0 0 1-1.204-2.731c-.358-.911-.489-1.236-.716-1.821a8.318 8.318 0 0 1-.26-.846 1.816 1.816 0 0 1 0-.39v.358l-.88 1.528s-.683.163-.293 0a4.79 4.79 0 0 0 1.14-.26c.78-.163 1.595-.325 2.409-.423a31.177 31.177 0 0 1 4.264-.26 33.96 33.96 0 0 1 9.05 1.236 3.467 3.467 0 0 0 4.264-2.406 3.458 3.458 0 0 0-2.409-4.26h-.163ZM54.85 509.818a492.788 492.788 0 0 1 37.99-27.965 543.801 543.801 0 0 1 19.922-12.649 22.787 22.787 0 0 1 9.766-4 12.837 12.837 0 0 1 7.454 1.886 41.297 41.297 0 0 1 13.021 15.023l1.237-4.715a11.112 11.112 0 0 1-7.65 2.114c-3.255-.358-5.762-1.756-8.919 0-4.85 2.471-7.683 8.942-9.05 13.917-2.897 10.373-1.107 22.112-6.054 31.932a40.18 40.18 0 0 1-13.282 14.372c-3.613 2.504-.163 8.487 3.516 5.951a52.621 52.621 0 0 0 13.021-12.422 37.302 37.302 0 0 0 6.282-15.738c.944-5.463 1.172-10.991 1.954-16.454a27.222 27.222 0 0 1 5.306-14.047c1.237-1.431 1.692-1.561 3.45-1.073 1.643.457 3.341.686 5.046.683a17.69 17.69 0 0 0 9.766-3.089 3.513 3.513 0 0 0 1.237-4.748c-6.804-11.381-17.839-24.81-32.781-18.925a69.233 69.233 0 0 0-10.775 5.886 346.167 346.167 0 0 0-10.97 6.926 396.515 396.515 0 0 0-21.29 14.698 565.292 565.292 0 0 0-23.079 17.722 3.447 3.447 0 0 0-.75 3.758c.175.419.43.799.75 1.119a3.548 3.548 0 0 0 4.883 0v-.162Zm237.928 5.755-22.136-43.28a13.598 13.598 0 0 0-6.153-7.349 11.18 11.18 0 0 0-7.552 0 22.822 22.822 0 0 1-5.859 1.691v-.716a7.087 7.087 0 0 1 1.399-3.609c3.777-5.528 11.264-6.016 17.318-5.463 5.987.643 11.917 1.73 17.742 3.252a82.057 82.057 0 0 1 27.995 12.129 68.297 68.297 0 0 1 21.875 27.444c.229.393.533.737.894 1.013a3.474 3.474 0 0 0 3.842.239 3.456 3.456 0 0 0 1.254-4.731 75.027 75.027 0 0 0-21.257-27.607 84.461 84.461 0 0 0-30.6-14.6 152.723 152.723 0 0 0-18.685-3.642c-7.715-1.041-15.95-.813-22.331 4.162-4.85 3.804-10.026 13.56-3.027 18.014a8.934 8.934 0 0 0 7.52.488 20.94 20.94 0 0 1 6.51-1.886c.255.084.496.204.716.358a5.972 5.972 0 0 1 1.27 1.918c1.074 2.049 2.116 4.163 3.255 6.244l6.511 12.844 13.541 26.469c2.019 3.967 8.008.488 5.958-3.479v.097ZM182.294 386.578c-.325 0-10.059-1.626-10.351-9.463-.293-7.836 7.747-8.162 13.574-9.43 5.827-1.268 11.654 1.366 11.654 7.479 0 6.113-7.39 11.414-7.39 11.414l.326 6.015s16.276 2.894 21.354 0c5.078-2.894 13.021-7.446 14.258-4.877 1.237 2.569-13.281 26.859-34.668 26.209-21.387-.651-43.067-12.389-40.137-17.885 2.929-5.495 12.63 2.602 19.531.976a91.523 91.523 0 0 0 11.654-3.577l.195-6.861Z" fill="#070707"/><path d="M171.324 405.112s.781 25.201 16.895 24.258c16.113-.943 16.276-28.16 16.276-28.16" fill="#FF729E"/><path d="M187.307 432.85a15.341 15.341 0 0 1-10.644-4c-8.204-7.479-8.79-22.762-8.822-23.51a3.514 3.514 0 0 1 3.255-3.577 3.582 3.582 0 0 1 3.581 3.252c0 3.642 1.53 14.08 6.51 18.665a8.7 8.7 0 0 0 6.511 2.243c12.663-.748 13.021-24.452 13.021-24.68a3.449 3.449 0 0 1 3.451-3.447 3.482 3.482 0 0 1 3.483 3.447c0 1.236-.228 30.436-19.532 31.607h-.814Z" fill="#9C1633"/><path d="M187.828 417.111a3.484 3.484 0 0 1-3.451-3.251l-.651-8.292a3.461 3.461 0 0 1 6.902-.553l.651 8.292a3.421 3.421 0 0 1-.836 2.547 3.4 3.4 0 0 1-1.091.827 3.442 3.442 0 0 1-1.329.333l-.195.097Z" fill="#9C1633"/><path d="M200.719 402.056s-4.623 3.252-16.927 3.609c-9.766.26-13.77-1.431-14.063-3.252-.488-2.959 12.337-7.511 19.206-7.511 26.921-.065 11.784 7.154 11.784 7.154Z" fill="#070707"/><path d="M240.172 361.409c.881 0 1.596-.612 1.596-1.366 0-.754-.715-1.365-1.596-1.365-.88 0-1.595.611-1.595 1.365s.715 1.366 1.595 1.366Z" fill="#fff"/><path d="M187.437 374.351c2.507-.357 3.256.748 3.256 1.496s-1.303.78-2.279 1.398c-.977.618 0 2.244-2.181 2.244s-2.767-.163-2.897-1.431c-.131-1.268 1.855-.553 2.571-1.138.717-.585-.358-2.309 1.53-2.569Z" fill="#383838"/><path d="M130.015 384.887c5.825 0 10.547-4.717 10.547-10.536 0-5.818-4.722-10.535-10.547-10.535s-10.547 4.717-10.547 10.535c0 5.819 4.722 10.536 10.547 10.536Z" fill="#070707"/><path d="M133.726 373.994a2.277 2.277 0 1 0 0-4.553 2.277 2.277 0 1 0 0 4.553Z" fill="#fff"/><path d="M236.592 375.945c5.825 0 10.547-4.717 10.547-10.536s-4.722-10.536-10.547-10.536-10.547 4.717-10.547 10.536 4.722 10.536 10.547 10.536Z" fill="#070707"/><path d="M240.303 365.084a2.277 2.277 0 1 0 0-4.553 2.277 2.277 0 1 0 0 4.553Z" fill="#fff"/><path d="M4.768 146.169c-5.405 48.335 70.507 70.638 114.718 74.993 61.833 6.914 79.613 3.611 95.103 2.698l39.401 21.159-4.363-27.823c21.188-4.685 114.035-11.499 112.012-65.955-2.197-59.149-130.114-70.983-174.795-72.452-44.68-1.469-174.912 3.308-182.076 67.38Z" stroke="#6ABDEC" stroke-width="3" stroke-linecap="round" stroke-dasharray="6 12"/><path d="M57.228 133.45c-.25 0-.508-.167-.775-.5-.266-.317-.4-.717-.4-1.2 0-.383.092-.758.275-1.125.334-.7.667-1.267 1-1.7.117-.167.2-.308.25-.425.067-.117.109-.275.125-.475.234-.3.542-.842.925-1.625.65-1.05 1.575-2.667 2.775-4.85.167-.3.492-.892.975-1.775.5-.883.834-1.408 1-1.575l.125-.175c-.05.083.034-.108.25-.575.234-.467.475-.883.725-1.25.267-.383.5-.575.7-.575.217 0 .467.092.75.275.284.167.525.425.725.775.217.333.325.733.325 1.2 0 .2-.008.358-.025.475l-.25 1.7-.125.55a170.86 170.86 0 0 1-.975 4.525c-.383 1.7-.575 2.725-.575 3.075 0 .1.017.183.05.25.034.05.075.075.125.075.034 0 .117-.05.25-.15.134-.117.25-.283.35-.5l.325-.5.425-.625a49.06 49.06 0 0 0 1.725-2.625c.684-1.117 1.792-3.025 3.325-5.725.317-.467.575-.875.775-1.225.267-.433.525-.842.775-1.225.25-.383.442-.625.575-.725a.97.97 0 0 1 .625-.2c.25.017.509.108.775.275.284.167.517.4.7.7.2.3.3.625.3.975 0 .4-.125 1.133-.375 2.2a35.08 35.08 0 0 1-.825 3.1c-.066.35-.275 1.175-.625 2.475a66.277 66.277 0 0 0-.6 2.3c-.116.567-.175 1.025-.175 1.375v.2c-.25.45-.375 1.35-.375 2.7-.066.55-.191.975-.375 1.275-.183.317-.333.475-.45.475l-.075-.025a.399.399 0 0 0-.25.1c-.066.083-.166.125-.3.125-.416 0-.691-.15-.825-.45-.116-.3-.175-.708-.175-1.225 0-.3.009-.55.025-.75.05-.433.584-2.692 1.6-6.775.8-3.2 1.2-4.875 1.2-5.025l-.35.6c-.333.633-.75 1.375-1.25 2.225l-1.75 3.275c-.216.3-.4.592-.55.875a8.61 8.61 0 0 0-.225.5c-.2.4-.6.975-1.2 1.725-.2.25-.316.408-.35.475-.083.183-.35.508-.8.975-.45.45-.925.867-1.425 1.25-.5.367-.916.55-1.25.55-.45 0-.858-.217-1.225-.65-.35-.433-.525-.958-.525-1.575 0-.45.084-1.2.25-2.25.267-1.15.55-2.317.85-3.5.3-1.183.509-1.958.625-2.325.05-.15.075-.317.075-.5 0-.117-.016-.192-.05-.225-.016 0-.041.017-.075.05a1.235 1.235 0 0 1-.075.125c-.25.4-.641 1.1-1.175 2.1-.533 1-1.108 2.175-1.725 3.525-2.383 4.383-3.75 6.775-4.1 7.175Zm22.338-.475a3.03 3.03 0 0 1-1.2-.375 11.53 11.53 0 0 1-1.1-.675 130.91 130.91 0 0 1-.675-.475 3.23 3.23 0 0 1-.65-.9c-.15-.333-.275-.767-.375-1.3a3.25 3.25 0 0 1-.05-.525c0-.5.084-1.108.25-1.825.183-.733.367-1.3.55-1.7.367-.883 1.175-2.3 2.425-4.25l.125-.125c.034-.033.042-.05.025-.05v-.025c0-.117.242-.633.725-1.55.284-.3.425-.558.425-.775a.45.45 0 0 0-.075-.275c-.05-.067.017-.208.2-.425.184-.233.434-.483.75-.75a6.234 6.234 0 0 1 1.05-.725c.45-.35.892-.525 1.325-.525.133 0 .242.025.325.075.1.033.159.092.175.175 0 .1.334.067 1-.1.3-.067.517-.108.65-.125.067-.083.233-.15.5-.2.284-.067.675-.133 1.175-.2.267.017.592.017.975 0 .4-.017.659-.033.775-.05.117-.033.284.042.5.225.234.183.417.417.55.7.034.1.05.175.05.225 0 .25-.158.467-.475.65-.317.167-.775.283-1.375.35-.617.083-1.158.167-1.625.25-.466.083-1.05.2-1.75.35l-.525.1c-.516.083-.9.192-1.15.325-.25.133-.517.425-.8.875-.117.083-.267.3-.45.65-.183.333-.367.683-.55 1.05l-.5.675c-.383.517-.625.858-.725 1.025-.083.15-.1.258-.05.325.067.017.183.042.35.075.184.033.334.058.45.075.15-.083.359-.142.625-.175.267-.033.459-.067.575-.1l.55-.15a166.56 166.56 0 0 1 2.275-.575 12.56 12.56 0 0 1 1.075-.225.463.463 0 0 1 .3-.1c.183 0 .358.092.525.275.184.167.317.367.4.6.067.233.1.383.1.45 0 .283-.166.5-.5.65-.333.133-1 .317-2 .55-1.45.35-2.358.575-2.725.675-1.083.317-1.883.475-2.4.475-.433 0-.641-.142-.625-.425-.15-.083-.325.067-.525.45s-.375.858-.525 1.425c-.133.567-.2 1.058-.2 1.475 0 .217.025.4.075.55.15.4.375.742.675 1.025.3.267.717.475 1.25.625a6.85 6.85 0 0 0 1.05.075c.334 0 .667-.067 1-.2 1.3-.217 2.217-.517 2.75-.9a.554.554 0 0 0 .225-.175c.084-.083.159-.125.225-.125l-.025.05c0 .017.05-.017.15-.1.1-.1.209-.2.325-.3.467-.4.984-.6 1.55-.6.2 0 .367.033.5.1.15.05.234.1.25.15.1.167.05.433-.15.8-.2.367-.517.75-.95 1.15-.416.4-.883.75-1.4 1.05a9.927 9.927 0 0 1-2.75.95c-1 .217-1.966.333-2.9.35Zm12.616 1.325a6.397 6.397 0 0 0-.375-.075 1.454 1.454 0 0 0-.45-.025c-.283-.05-.558-.192-.825-.425-.25-.233-.35-.475-.3-.725.05-.05.092-.183.125-.4.034-.2.05-.383.05-.55.067-.183.142-.45.225-.8.1-.75.359-1.992.775-3.725.434-1.75.709-2.683.825-2.8l-.025-.275a1.947 1.947 0 0 1 .25-.8 4.2 4.2 0 0 0 .15-.575c.05-.2.075-.35.075-.45.034-.05.15-.35.35-.9l.25-.7c.1-.317.234-.692.4-1.125.167-.433.275-.717.325-.85v-.125c.067-.083.25-.525.55-1.325.15-.333.292-.675.425-1.025.15-.367.3-.725.45-1.075.05-.1.125-.242.225-.425s.15-.308.15-.375c.067-.133.234-.2.5-.2.217 0 .434.05.65.15.217.1.367.233.45.4l.575.4-.85 1.825a29.89 29.89 0 0 0-.6 1.275c-.166.4-.25.633-.25.7a32.25 32.25 0 0 1-.225.725c-.116.367-.241.783-.375 1.25-.066.233-.233.725-.5 1.475-.116.283-.175.442-.175.475 0-.067.9-.133 2.7-.2.3-.017.85-.042 1.65-.075.817-.05 1.325-.1 1.525-.15l1.275-.175.6-2.225c.2-.817.525-1.967.975-3.45.217-.717.475-1.267.775-1.65.3-.4.559-.6.775-.6.417 0 .759.3 1.025.9.2.167.3.358.3.575 0 .217-.125.542-.375.975-.216.4-.475 1.067-.775 2-.05.217-.133.475-.25.775v.1c0 .317-.075.55-.225.7-.05.05-.158.283-.325.7-.15.417-.225.658-.225.725.017.117 0 .267-.05.45-.05.167-.108.283-.175.35l-.475 2c-.3 1.267-.6 2.283-.9 3.05.017.083-.016.233-.1.45-.066.217-.1.367-.1.45-.25.8-.366 1.25-.35 1.35-.083.383-.241 1.075-.475 2.075-.15.667-.225 1.008-.225 1.025-.016.033-.091.05-.225.05-.266 0-.55-.058-.85-.175a1.587 1.587 0 0 1-.6-.55 1.207 1.207 0 0 1-.225-.7c0-.217.042-.408.125-.575.067-.117.192-.617.375-1.5l.25-1.075c.084-.267.175-.658.275-1.175.117-.533.2-.908.25-1.125.15-.867.25-1.325.3-1.375v-.25c-.05-.05-.35-.075-.9-.075-.566 0-1.233.033-2 .1-.766.05-1.45.125-2.05.225l-.7.025c-.35 0-.575.008-.675.025-.166 0-.308.008-.425.025h-.225c-.066.15-.258.867-.575 2.15-.316 1.283-.5 2.108-.55 2.475-.15.767-.325 1.583-.525 2.45a44.53 44.53 0 0 1-.45 2Zm15.371-1.4a4.448 4.448 0 0 1-.75-.725c-.2-.267-.3-.508-.3-.725 0-.317.275-.542.825-.675 1.717-.417 3.642-2.092 5.775-5.025-.733-.4-1.283-.817-1.65-1.25-.367-.45-.633-1.067-.8-1.85a4.82 4.82 0 0 1-.125-1c.083-.117.125-.292.125-.525.017-.233.042-.4.075-.5l.55-1.625c.55-1.583 2.083-2.808 4.6-3.675.817-.333 1.417-.475 1.8-.425l.325-.025c.15-.05.3-.075.45-.075.117 0 .2.008.25.025a.747.747 0 0 1 .225-.025c.283 0 .6.092.95.275.367.167.675.383.925.65.267.267.4.533.4.8 0 .083-.008.15-.025.2a52.33 52.33 0 0 1-.325.925c-.267.833-.483 1.45-.65 1.85-.45 1.1-.975 2.667-1.575 4.7-.583 2.033-.917 3.517-1 4.45-.133.367-.25.975-.35 1.825-.017.15-.05.367-.1.65a4.868 4.868 0 0 1-.125.7c-.05.217-.2.408-.45.575-.25.167-.5.25-.75.25a.774.774 0 0 1-.35-.075 2.349 2.349 0 0 1-.525-.375 15.878 15.878 0 0 1-.525-.5c.05-.183.108-.458.175-.825.067-.45.158-.817.275-1.1.033-.35.108-.825.225-1.425.033-.117.067-.292.1-.525.1-.533.2-.925.3-1.175l.05-.4c-.233.383-.875 1.158-1.925 2.325a26.504 26.504 0 0 1-3.325 3.125c-1.15.9-2.075 1.3-2.775 1.2Zm8.575-8.975c.783-2.483 1.45-4.692 2-6.625a6.579 6.579 0 0 0-2.25.675 5.69 5.69 0 0 0-1.85 1.45 3.75 3.75 0 0 0-.875 2.025 2.787 2.787 0 0 1-.125.6.716.716 0 0 0-.075.325c0 .333.133.658.4.975.283.317.575.475.875.475.2 0 .408-.067.625-.2.217-.133.342-.208.375-.225l.9.525ZM133.36 134.1a1.12 1.12 0 0 1-.375.1.755.755 0 0 1-.4-.125c-.483 0-.825-.033-1.025-.1l.15.1c-.866-.167-1.708-.642-2.525-1.425-.8-.783-1.316-1.608-1.55-2.475a8.379 8.379 0 0 1-.1-.475c-.033-.2-.041-.342-.025-.425.067-.367.259-.658.575-.875.317-.233.667-.35 1.05-.35.15 0 .3.025.45.075.117.233.175.425.175.575 0 .1-.025.242-.075.425.25.85.717 1.517 1.4 2 .684.483 1.467.725 2.35.725.734 0 1.409-.183 2.025-.55a3.46 3.46 0 0 0 1.4-1.575c.067-.15.117-.325.15-.525.05-.217.1-.4.15-.55a.555.555 0 0 1 .1-.175c.017-.1.025-.258.025-.475 0-.567-.116-1.108-.35-1.625-.216-.517-.533-.858-.95-1.025a6.983 6.983 0 0 1-.675-.125c-.366-.1-.65-.15-.85-.15-.15 0-.258.008-.325.025l-.4-.15c-.3-.317-.533-.6-.7-.85a1.708 1.708 0 0 1-.225-.85c0-.233.05-.483.15-.75.117 0 .267-.025.45-.075.2-.05.35-.075.45-.075.834 0 1.567-.208 2.2-.625a4.08 4.08 0 0 0 1.45-1.65c.35-.683.525-1.425.525-2.225 0-.133-.016-.35-.05-.65-.35-.3-.8-.45-1.35-.45-.616 0-1.275.158-1.975.475-.683.3-1.2.658-1.55 1.075a1.973 1.973 0 0 1-.95-.325 2.566 2.566 0 0 1-.725-.8 1.503 1.503 0 0 1-.175-.95c.467-.6 1.084-1.058 1.85-1.375a6.267 6.267 0 0 1 2.475-.5c.85 0 1.642.158 2.375.475.75.317 1.35.783 1.8 1.4.467.617.7 1.358.7 2.225 0 .333-.033.658-.1.975-.15.75-.491 1.5-1.025 2.25-.533.733-1.133 1.325-1.8 1.775a4.337 4.337 0 0 1 1.8 1.875c.417.8.625 1.667.625 2.6 0 .733-.216 1.558-.65 2.475-.416.917-.9 1.625-1.45 2.125-.083.083-.2.167-.35.25-.15.083-.275.158-.375.225l-.325.225c-.7.317-1.291.542-1.775.675-.483.15-1.041.217-1.675.2Zm13.415-1.4c-.25 0-.633-.1-1.15-.3-.5-.2-.975-.45-1.425-.75-.45-.3-.742-.6-.875-.9l-.05-.1a3.453 3.453 0 0 1-.375-2.575c.067-.283.108-.458.125-.525.15-.517.225-.942.225-1.275.083-.1.208-.267.375-.5.183-.25.292-.408.325-.475a.618.618 0 0 0 .05-.225v-.375c0-.117.042-.233.125-.35.083-.117.167-.208.25-.275.1-.083.167-.133.2-.15l.1.025c.033 0 .158-.242.375-.725.217-.5.425-1.025.625-1.575.833-1.533 1.767-2.808 2.8-3.825 1.033-1.033 1.95-1.725 2.75-2.075.067-.017.192-.033.375-.05s.358-.033.525-.05c.317.017.7.092 1.15.225.45.133.692.233.725.3 0 .067.017.108.05.125a.39.39 0 0 0 .1.025c.15-.017.417.225.8.725.4.483.692.942.875 1.375.2.317.3.85.3 1.6 0 .633-.092 1.425-.275 2.375-.183.933-.367 1.6-.55 2a35.363 35.363 0 0 1-1.65 3.8c-.667 1.333-1.275 2.017-1.825 2.05-.017 0-.033.017-.05.05-.017.017-.025.05-.025.1s-.225.267-.675.65c-.433.383-.817.7-1.15.95l-.475.175c-.4.15-.858.267-1.375.35-.517.1-.95.158-1.3.175Zm.025-2.275c.717 0 1.233-.017 1.55-.05.317-.033.65-.142 1-.325.367-.2.758-.542 1.175-1.025.167-.3.3-.5.4-.6.017-.033.15-.267.4-.7.25-.433.483-.65.7-.65 0-.083.067-.308.2-.675.133-.383.233-.6.3-.65.033-.017.117-.2.25-.55.133-.367.258-.767.375-1.2.117-.433.175-.792.175-1.075.3-.317.433-.492.4-.525a.39.39 0 0 1-.025-.1v-.25c0-.483.033-.733.1-.75.083-.033.125-.058.125-.075a.286.286 0 0 0-.1-.1c-.033-.033-.05-.067-.05-.1 0-.017.025-.05.075-.1a.27.27 0 0 0 .075-.2c-.033-.417-.267-1.142-.7-2.175a1.445 1.445 0 0 1-.2-.175.61.61 0 0 0-.275-.2.57.57 0 0 0-.3-.075c-.067 0-.183.017-.35.05-.067-.067-.133-.1-.2-.1a.543.543 0 0 0-.175.025l-.125.05c-.35.083-.625.2-.825.35-.183.15-.45.417-.8.8l-.425.45c-.133.45-.408.842-.825 1.175-.067.05-.167.175-.3.375a3.522 3.522 0 0 1-.3.375l-.15.3c-.367.6-.758 1.4-1.175 2.4a40.828 40.828 0 0 0-1.075 2.8c-.3.883-.45 1.442-.45 1.675 0 .467.15.842.45 1.125.317.283.675.442 1.075.475Zm12.639 3.375c-.434-.267-.759-.55-.975-.85-.217-.283-.325-.558-.325-.825 0-.35.175-.633.525-.85a.625.625 0 0 1 .275-.05c.166 0 .341.033.525.1.2.05.35.125.45.225.433.4.95.6 1.55.6.266 0 .65-.058 1.15-.175.65-.2 1.158-.45 1.525-.75.383-.3.833-.767 1.35-1.4.316-.417.55-.833.7-1.25.166-.433.25-.825.25-1.175 0-.383-.092-.683-.275-.9-.334-.45-.709-.783-1.125-1-.4-.233-.875-.35-1.425-.35-.484 0-.959.067-1.425.2l-1.45.3a2.923 2.923 0 0 1-.275.05c-.1 0-.25.242-.45.725s-.542 1.4-1.025 2.75c-.35.983-.642 1.692-.875 2.125-.234.417-.442.625-.625.625-.2 0-.417-.183-.65-.55-.05-.083-.159-.25-.325-.5a1.41 1.41 0 0 1-.225-.725c0-.117.041-.258.125-.425.083-.15.15-.3.2-.45.066-.15.133-.358.2-.625.216-.65.841-2.267 1.875-4.85 1.05-2.583 1.866-4.533 2.45-5.85.416-.95.541-1.45.375-1.5a.576.576 0 0 0-.075-.225c-.05-.1-.067-.175-.05-.225 0-.1.291-.25.875-.45.6-.2 1.008-.283 1.225-.25h.15c.216 0 .325-.042.325-.125.033 0 .183-.017.45-.05a4.1 4.1 0 0 1 .9 0c1.183.1 2.116.442 2.8 1.025.683.567 1.016 1.408 1 2.525-.034.433-.275 1.025-.725 1.775-.45.75-.942 1.367-1.475 1.85a20.595 20.595 0 0 1-1.575 1.225l.625.225c.783.3 1.391.667 1.825 1.1.433.433.741 1.025.925 1.775.033.167.05.317.05.45 0 .367-.067.783-.2 1.25-.117.467-.25.875-.4 1.225-.1.1-.184.208-.25.325a5.353 5.353 0 0 0-.125.225c-.017.067-.167.325-.45.775-.284.433-.534.783-.75 1.05-1.1.933-2.009 1.533-2.725 1.8-.7.317-1.534.475-2.5.475-.867 0-1.509-.133-1.925-.4Zm1.8-10.375 1-.2a9.25 9.25 0 0 0 1.075-.3l.3-.15c.183-.1.366-.242.55-.425 1.05-.983 1.783-1.867 2.2-2.65.416-.683.625-1.167.625-1.45 0-.2-.092-.392-.275-.575-.317-.367-.842-.55-1.575-.55-.317 0-.584.033-.8.1-.234.067-.409.15-.525.25-.1.083-.15.217-.15.4 0 .133-.042.283-.125.45-.084.15-.175.275-.275.375-.017.1-.067.2-.15.3-.067.1-.117.167-.15.2 0 .033-.117.258-.35.675-.217.417-.425.883-.625 1.4-.5 1.183-.75 1.9-.75 2.15Zm22.612-8.6c.3.083.55.258.75.525a1.36 1.36 0 0 1 .225 1.3c-.034.167-.142.442-.325.825l-.95 2.2c-.55 1.317-.884 2.067-1 2.25-.417.85-.784 1.525-1.1 2.025-.4.717-.992 1.683-1.775 2.9-.15.233-.467.675-.95 1.325a29.942 29.942 0 0 1-.975 1.275 8.941 8.941 0 0 1-.9 1.125c-.3.333-.734.783-1.3 1.35l-.6.625a5.4 5.4 0 0 1-.7.725c-.2.267-.45.4-.75.4-.184 0-.367-.058-.55-.175-.45-.283-.675-.592-.675-.925 0-.1.025-.217.075-.35.05-.117.35-.458.9-1.025a26.243 26.243 0 0 1 1.375-1.375 45.537 45.537 0 0 0 1.25-1.475 10.116 10.116 0 0 1-1.025-1.7c-.3-.65-.492-1.167-.575-1.55l-.425-2.2a1.09 1.09 0 0 0 .025-.25c0-.117-.009-.217-.025-.3l-.05-.3-.075-4.425.175-2.2v-.375c0-.217.058-.417.175-.6.116-.183.308-.275.575-.275.333-.05.675.092 1.025.425.35.317.525.642.525.975a.716.716 0 0 1-.075.325c-.05.1-.075.2-.075.3v.3c0 .167-.009.3-.025.4-.034.333-.067.8-.1 1.4-.017.6-.025 1.217-.025 1.85 0 .5.008.825.025.975l.225 2.175c.016.35.125.892.325 1.625.216.717.425 1.333.625 1.85l.325-.425c.25-.283.416-.525.5-.725.116-.267.308-.608.575-1.025.2-.3.333-.525.4-.675.183-.333.358-.633.525-.9.233-.367.391-.633.475-.8l1.625-3.075c.116-.383.241-.75.375-1.1.15-.433.291-.892.425-1.375.15-.483.25-.908.3-1.275.1-.383.325-.575.675-.575h.225a1.04 1.04 0 0 1 .325 0Zm4.63 18.225c-.067.067-.133.1-.2.1-.083 0-.225-.05-.425-.15a1.55 1.55 0 0 1-.75-.425c-.2-.2-.3-.433-.3-.7 0-.067.033-.2.1-.4.15-.283.533-1.675 1.15-4.175l.425-1.65c0-.017.033-.275.1-.775.05-.25.125-.708.225-1.375.2-.383.333-.8.4-1.25.083-.467.133-.733.15-.8.117-.467.2-.758.25-.875l.225-.875.15-.575c.117-.417.175-.683.175-.8v-.4h-.925l-.4.025c-.267 0-.475-.008-.625-.025l-.875-.025c-.783-.033-1.308-.108-1.575-.225-.267-.133-.408-.383-.425-.75-.067-.333.1-.592.5-.775.4-.2 1.217-.283 2.45-.25.233-.017.55-.025.95-.025.4 0 .725.008.975.025s.392.025.425.025a.585.585 0 0 0 .125-.2c.033-.083.058-.15.075-.2 0-.283.092-.458.275-.525.1-.217.308-.325.625-.325.183 0 .367.042.55.125.183.083.325.2.425.35.033.083.05.233.05.45s.05.375.15.475c.067-.067.283-.108.65-.125.367-.017.625-.033.775-.05.317 0 .642-.008.975-.025.333-.033.558-.05.675-.05.15-.083.383-.125.7-.125.15 0 .358.017.625.05.333 0 .575.075.725.225.15.133.283.292.4.475 0 .183.042.317.125.4.067.05.1.1.1.15 0 .033-.033.108-.1.225-.117.15-.417.225-.9.225l-.525.025c-.367.033-.633.05-.8.05-.733.15-1.583.242-2.55.275-.683 0-1.025.067-1.025.2-.1 0-.292.542-.575 1.625-.1.4-.208.767-.325 1.1-.1.317-.183.533-.25.65.05.067.075.142.075.225 0 .083-.05.267-.15.55-.05.183-.108.367-.175.55-.067.167-.1.3-.1.4a14.36 14.36 0 0 1-.15.5c-.067.25-.125.533-.175.85-.083.8-.192 1.267-.325 1.4-.017.033-.058.1-.125.2a.716.716 0 0 0-.075.325c0 .233-.058.65-.175 1.25-.117.583-.208.9-.275.95.05 0 .075.05.075.15 0 .117-.05.292-.15.525 0 .133-.025.292-.075.475-.05.183-.075.308-.075.375-.167.467-.4 1.058-.7 1.775-.3.717-.483 1.108-.55 1.175Zm17.592-.075a2.1 2.1 0 0 1-.525.1.879.879 0 0 1-.725-.35c-.183-.233-.275-.583-.275-1.05 0-.667.2-1.533.6-2.6l.275-.825c.834-2.433 1.375-3.833 1.625-4.2.084-.2.125-.408.125-.625 0-.083.042-.208.125-.375l.2-.4c.2-.367.3-.642.3-.825 0-.067.1-.4.3-1 .2-.617.4-1.083.6-1.4.1-.25.217-.492.35-.725.134-.25.2-.408.2-.475 0-.033-.183-.05-.55-.05-.516 0-1.158.025-1.925.075-.75.05-1.25.108-1.5.175-.35.083-.558.117-.625.1-.083-.033-.208-.192-.375-.475-.166-.3-.25-.567-.25-.8 0-.2.067-.333.2-.4.267-.167.534-.275.8-.325.284-.05.675-.092 1.175-.125.517-.033.875-.067 1.075-.1.35 0 .675-.017.975-.05.317-.05.5-.075.55-.075.134 0 .3-.025.5-.075.467-.083.784-.125.95-.125.234 0 .467-.025.7-.075.267-.033.442-.05.525-.05h1.55c.217 0 .517-.033.9-.1.384-.067.725-.133 1.025-.2.45-.1.859-.15 1.225-.15.434 0 .792.083 1.075.25.284.15.459.375.525.675.15.833-1.108 1.325-3.775 1.475-.15.017-.441.042-.875.075-.416.033-.691.075-.825.125-.116.05-.175.125-.175.225s-.05.2-.15.3c-.083.083-.141.15-.175.2-.133.05-.358.467-.675 1.25-.316.767-.475 1.242-.475 1.425l-.1.2a.576.576 0 0 0-.075.225c-.116.3-.3.683-.55 1.15a103 103 0 0 1-.95 2.45l-.275.675c-.366 1.217-.633 2.042-.8 2.475a.844.844 0 0 1-.2.225.374.374 0 0 0-.1.275c0 .083-.241.75-.725 2-.483 1.25-.75 1.883-.8 1.9Zm14.826.275c-.783 0-1.425-.05-1.925-.15a2.864 2.864 0 0 1-1.3-.575c-.8-.6-1.2-1.492-1.2-2.675 0-.5.092-1.117.275-1.85.083-.433.175-.8.275-1.1.117-.317.217-.475.3-.475l.175-.925c.017-.1.05-.233.1-.4.05-.183.092-.317.125-.4a.663.663 0 0 1 .15-.225c.067-.05.167-.275.3-.675 0-.033.008-.108.025-.225s.058-.25.125-.4c.25-.417.375-.692.375-.825.017-.05.083-.15.2-.3s.208-.325.275-.525l.325-.575c.5-.883.858-1.525 1.075-1.925.217-.417.35-.758.4-1.025a5.64 5.64 0 0 0 .2-.625c.1-.3.208-.508.325-.625-.05-.1.117-.225.5-.375.4-.15.883-.292 1.45-.425.583-.133 1.1-.217 1.55-.25.1-.067.325-.117.675-.15.35-.033.742-.05 1.175-.05.3 0 .717.017 1.25.05.267 0 .492.033.675.1.2.05.375.117.525.2.15.067.258.117.325.15l.325.325c.2.167.3.342.3.525 0 .167-.108.308-.325.425-.05.05-.325.092-.825.125-.483.033-1.008.05-1.575.05a9.7 9.7 0 0 0-1.975.225c-.25.05-.442.075-.575.075-.2.067-.45.108-.75.125-.283.017-.467.025-.55.025-.067 0-.3.317-.7.95-.383.633-.583 1.008-.6 1.125a.93.93 0 0 1-.15.475c-.1.167-.275.425-.525.775-.217.3-.325.583-.325.85 0 .167.05.267.15.3a30.276 30.276 0 0 1 1.925-.225c.767-.083 1.325-.125 1.675-.125.183-.05.333-.075.45-.075.233 0 .45.058.65.175.267.05.4.225.4.525a.742.742 0 0 1-.1.375c-.05.117-.117.192-.2.225-.15.15-.667.342-1.55.575-.867.233-1.775.45-2.725.65-.95.183-1.483.258-1.6.225-.05-.117-.1-.175-.15-.175-.167 0-.375.55-.625 1.65-.3.667-.483 1.108-.55 1.325-.067.2-.167.675-.3 1.425-.067.3-.1.508-.1.625 0 .65.383 1.15 1.15 1.5.283.05.575.075.875.075.55 0 1.217-.1 2-.3.067-.033.575-.317 1.525-.85.05 0 .175-.033.375-.1.217-.083.342-.125.375-.125.133-.183.3-.275.5-.275.05 0 .158.083.325.25.167.167.317.367.45.6.133.217.2.442.2.675 0 .167-.25.375-.75.625a35.32 35.32 0 0 1-2.175.925c-.7.3-1.192.492-1.475.575-.283.083-.683.125-1.2.125Zm24.963-16.05c.017.067.025.183.025.35 0 .667-.358 2.3-1.075 4.9l-.275 1.075-.325 1.35a11.45 11.45 0 0 1-.425 1.9c-.217.7-.5 1.542-.85 2.525a33.42 33.42 0 0 0-.7 2.125c-.05.083-.125.258-.225.525s-.217.458-.35.575c-.317.283-.617.425-.9.425-.1 0-.217-.025-.35-.075-.283-.117-.5-.258-.65-.425a.835.835 0 0 1-.2-.575c0-.117.008-.208.025-.275.067-.117.283-.658.65-1.625.367-.967.633-1.7.8-2.2.1-.567.225-1.117.375-1.65.15-.533.292-.917.425-1.15l.225-1.15.25-1.275c.133-.6.258-1.067.375-1.4l.875-3.975c-1.583.067-2.4.125-2.45.175-.017.183-.217.725-.6 1.625-.367.9-.65 1.55-.85 1.95-.2.383-.367.725-.5 1.025-.133.283-.242.517-.325.7l-.3.7c-.15.467-.533 1.292-1.15 2.475-.617 1.183-1.158 2.142-1.625 2.875a48.209 48.209 0 0 1-2.125 2.8 7.637 7.637 0 0 1-1.025 1.075c-.383.367-.692.6-.925.7a1.07 1.07 0 0 1-.475.125c-.367 0-.7-.15-1-.45-.283-.283-.433-.642-.45-1.075.083-.217.208-.383.375-.5a1 1 0 0 1 .6-.2c.017 0 .233-.208.65-.625.417-.433.683-.717.8-.85.433-.483 1.017-1.225 1.75-2.225.383-.55.933-1.392 1.65-2.525l.45-.625 1.15-3.15 1.45-3.2c-.183.067-.45.192-.8.375-1.083.517-1.85.775-2.3.775-.283 0-.492-.092-.625-.275a1.403 1.403 0 0 1-.275-.85c0-.283.075-.542.225-.775.15-.25.342-.417.575-.5l2.85-1.025c.95-.267 1.7-.508 2.25-.725.283-.017.692-.058 1.225-.125.533-.083.875-.15 1.025-.2 1.617-.05 2.642.8 3.075 2.55Zm6.28 15.85c-.567-.133-1.225-.375-1.975-.725-.75-.333-1.15-.608-1.2-.825a.237.237 0 0 0-.1-.2.31.31 0 0 0-.225-.1v-.375c0-.117-.033-.192-.1-.225-.083-.167-.125-.408-.125-.725 0-.517.083-1.167.25-1.95.183-.783.383-1.483.6-2.1 0-.117.025-.267.075-.45.067-.183.1-.3.1-.35.133-.383.4-.992.8-1.825s.733-1.417 1-1.75c0-.05.058-.158.175-.325.133-.183.225-.367.275-.55.267-.267.625-.783 1.075-1.55.583-.483.825-.917.725-1.3.017-.35.158-.6.425-.75.283-.167.783-.333 1.5-.5.517-.2 1.05-.333 1.6-.4.55-.083 1.275-.142 2.175-.175a4.61 4.61 0 0 1 .85-.125c.05-.05.3-.025.75.075.467.083.883.225 1.25.425.383.183.567.392.55.625-.017.133-.392.308-1.125.525-.717.2-1.375.333-1.975.4l-.625.075c-.967.1-1.667.208-2.1.325-.417.1-.8.3-1.15.6-.35.3-.75.8-1.2 1.5-.6.933-.9 1.567-.9 1.9 0 .217.117.325.35.325.15 0 .375-.017.675-.05.317-.05.542-.075.675-.075.083-.033.275-.1.575-.2.317-.1.667-.175 1.05-.225l1.1-.225c.333-.083.583-.125.75-.125.583 0 .875.2.875.6 0 .217-.108.45-.325.7-.2.25-.467.442-.8.575-.3.117-.642.233-1.025.35-.383.117-.625.175-.725.175a1.017 1.017 0 0 1-.25.05 3.247 3.247 0 0 1-.45.025l-1.125.15-.825.1c-.133.033-.45.117-.95.25-.5.133-.825.283-.975.45-.15.15-.292.4-.425.75a8.615 8.615 0 0 0-.525 1.775 9.571 9.571 0 0 0-.2 1.8c0 .517.075.85.225 1 .367.417.942.625 1.725.625.417 0 .842-.058 1.275-.175.45-.133.842-.308 1.175-.525.317-.25.667-.442 1.05-.575.15-.1.275-.15.375-.15.083 0 .175.033.275.1.1.05.192.108.275.175.1.067.183.125.25.175.133.183.2.375.2.575 0 .55-.7 1.117-2.1 1.7-.783.267-1.408.458-1.875.575a5.286 5.286 0 0 1-1.275.175l-.4-.025Zm22.849.175c-.066.067-.241.1-.525.1-.366 0-.708-.092-1.025-.275-.3-.167-.45-.458-.45-.875 0-.233.059-.492.175-.775.567-1.467 1.35-3.7 2.35-6.7.134-.45.35-1.108.65-1.975 0 .033.184-.542.55-1.725a27.52 27.52 0 0 0 .6-1.95c.15-.533.267-1.083.35-1.65a3.449 3.449 0 0 0-.725-.075h-.45c-.3 0-.525-.017-.675-.05-.166-.033-.45-.05-.85-.05a16.033 16.033 0 0 0-1.6.075c-.133.017-.291.033-.475.05a6.525 6.525 0 0 1-.6.025l-.2.1-.375.9c-.083.2-.191.45-.325.75-.133.3-.275.65-.425 1.05-.1.25-.2.475-.3.675l-.225.5-.325.65-.375.95-.4.95c-.183.433-.4.925-.65 1.475-.4.933-.691 1.633-.875 2.1-.616 1.6-1.066 2.867-1.35 3.8-.033.117-.083.325-.15.625-.066.3-.141.525-.225.675a.878.878 0 0 1-.4.45c-.166.1-.358.15-.575.15-.283 0-.533-.058-.75-.175-.25-.133-.433-.267-.55-.4a.735.735 0 0 1-.175-.5c0-.167.034-.35.1-.55.784-2.583 1.675-4.892 2.675-6.925a13.7 13.7 0 0 0 .425-.95c.15-.367.259-.642.325-.825.317-.867.567-1.467.75-1.8a22.113 22.113 0 0 0 1.4-3.275c-.083.067-.225.1-.425.1-.15 0-.35-.017-.6-.05a2.79 2.79 0 0 0-.55-.075 1.885 1.885 0 0 1-.475-.625 2.17 2.17 0 0 1-.175-.825c0-.233.05-.433.15-.6.084-.15.167-.25.25-.3a.66.66 0 0 1 .375-.1h1.925c.15 0 .309-.067.475-.2a1.81 1.81 0 0 1 .175-.125.71.71 0 0 1 .4-.1c.067 0 .184.017.35.05.25.083.534.125.85.125.267 0 .625-.042 1.075-.125.267-.067.634-.1 1.1-.1l.95.025c.184.017.425.025.725.025.117 0 .259.017.425.05.184.033.334.058.45.075.134.017.367.025.7.025.567.017 1.05.058 1.45.125.4.05.709.158.925.325.15.117.292.275.425.475.134.183.2.35.2.5 0 .133-.266 1.125-.8 2.975-.516 1.833-.833 2.867-.95 3.1-.316.817-.783 2.208-1.4 4.175l-.8 2.45c-.083.233-.175.517-.275.85-.2.617-.425 1.258-.675 1.925-.233.667-.425 1.1-.575 1.3Zm8.203-.25a3.03 3.03 0 0 1-1.2-.375c-.4-.217-.767-.442-1.1-.675a130.91 130.91 0 0 1-.675-.475 3.237 3.237 0 0 1-.65-.9c-.15-.333-.275-.767-.375-1.3-.033-.2-.05-.375-.05-.525 0-.5.083-1.108.25-1.825.183-.733.367-1.3.55-1.7.367-.883 1.175-2.3 2.425-4.25l.125-.125c.033-.033.042-.05.025-.05v-.025c0-.117.242-.633.725-1.55.283-.3.425-.558.425-.775a.45.45 0 0 0-.075-.275c-.05-.067.017-.208.2-.425a5.28 5.28 0 0 1 .75-.75 6.21 6.21 0 0 1 1.05-.725c.45-.35.892-.525 1.325-.525.133 0 .242.025.325.075.1.033.158.092.175.175 0 .1.333.067 1-.1.3-.067.517-.108.65-.125.067-.083.233-.15.5-.2.283-.067.675-.133 1.175-.2.267.017.592.017.975 0 .4-.017.658-.033.775-.05.117-.033.283.042.5.225.233.183.417.417.55.7.033.1.05.175.05.225 0 .25-.158.467-.475.65-.317.167-.775.283-1.375.35-.617.083-1.158.167-1.625.25-.467.083-1.05.2-1.75.35l-.525.1c-.517.083-.9.192-1.15.325-.25.133-.517.425-.8.875-.117.083-.267.3-.45.65-.183.333-.367.683-.55 1.05l-.5.675c-.383.517-.625.858-.725 1.025-.083.15-.1.258-.05.325.067.017.183.042.35.075.183.033.333.058.45.075.15-.083.358-.142.625-.175s.458-.067.575-.1l.55-.15a166.56 166.56 0 0 1 2.275-.575 12.56 12.56 0 0 1 1.075-.225.462.462 0 0 1 .3-.1c.183 0 .358.092.525.275.183.167.317.367.4.6.067.233.1.383.1.45 0 .283-.167.5-.5.65-.333.133-1 .317-2 .55-1.45.35-2.358.575-2.725.675-1.083.317-1.883.475-2.4.475-.433 0-.642-.142-.625-.425-.15-.083-.325.067-.525.45s-.375.858-.525 1.425c-.133.567-.2 1.058-.2 1.475 0 .217.025.4.075.55.15.4.375.742.675 1.025.3.267.717.475 1.25.625a6.85 6.85 0 0 0 1.05.075c.333 0 .667-.067 1-.2 1.3-.217 2.217-.517 2.75-.9a.558.558 0 0 0 .225-.175c.083-.083.158-.125.225-.125l-.025.05c0 .017.05-.017.15-.1.1-.1.208-.2.325-.3.467-.4.983-.6 1.55-.6.2 0 .367.033.5.1.15.05.233.1.25.15.1.167.05.433-.15.8-.2.367-.517.75-.95 1.15-.417.4-.883.75-1.4 1.05a9.927 9.927 0 0 1-2.75.95c-1 .217-1.967.333-2.9.35Zm4.5-19.525c-.15-.133-.275-.333-.375-.6-.1-.283-.133-.475-.1-.575.05-.183.142-.417.275-.7.133-.3.308-.542.525-.725.05-.033.117-.1.2-.2a.463.463 0 0 1 .25-.175c.15-.1.292-.15.425-.15.333 0 .642.25.925.75.133.3.2.533.2.7 0 .183-.058.375-.175.575-.1.183-.275.417-.525.7-.35.467-.683.7-1 .7-.217 0-.425-.1-.625-.3Zm3.875 0c-.15-.133-.275-.333-.375-.6-.1-.283-.133-.475-.1-.575.05-.183.142-.417.275-.7.133-.3.308-.542.525-.725.05-.033.117-.1.2-.2a.463.463 0 0 1 .25-.175c.15-.1.292-.15.425-.15.333 0 .642.25.925.75.133.3.2.533.2.7 0 .183-.058.375-.175.575-.1.183-.275.417-.525.7-.35.467-.683.7-1 .7-.217 0-.425-.1-.625-.3Zm5.341 20.2a5.925 5.925 0 0 1-1.5-.8 3.078 3.078 0 0 1-1.025-1.325c-.267-.75-.4-1.633-.4-2.65 0-.983.058-1.817.175-2.5a10.5 10.5 0 0 1 .6-2.125l.225-.525c.267-.683.458-1.133.575-1.35.283-.65.783-1.492 1.5-2.525.667-1 1.192-1.742 1.575-2.225.4-.5.809-.925 1.225-1.275.417-.367 1.025-.825 1.825-1.375.483-.35 1.075-.525 1.775-.525.55 0 1.05.133 1.5.4.467.267.817.683 1.05 1.25.167.283.25.675.25 1.175 0 .8-.192 1.667-.575 2.6-.383.933-.842 1.642-1.375 2.125-.117.117-.275.175-.475.175-.2 0-.417-.058-.65-.175a2.754 2.754 0 0 1-.625-.425 6.15 6.15 0 0 1-.25-.5c-.017-.05.017-.083.1-.1.15-.183.367-.533.65-1.05.3-.533.5-.95.6-1.25l.15-.7c.1-.433.15-.717.15-.85a.55.55 0 0 0-.175-.4.27.27 0 0 0-.2-.075c-.133 0-.367.083-.7.25-.383.167-.842.508-1.375 1.025-.517.5-1.033 1.1-1.55 1.8-.766 1-1.358 1.825-1.775 2.475-.4.65-.708 1.308-.925 1.975l-.275.65c.017.067-.008.233-.075.5a3.275 3.275 0 0 1-.225.65c-.233.967-.35 1.842-.35 2.625 0 .617.058 1.15.175 1.6.133.45.317.783.55 1 .133.117.325.175.575.175.267 0 .567-.058.9-.175a24.8 24.8 0 0 0 1.1-.45c.383-.167.65-.283.8-.35.383-.15.742-.325 1.075-.525.35-.2.608-.383.775-.55.433-.317.784-.475 1.05-.475.217-.067.384 0 .5.2.134.2.2.475.2.825 0 .233-.158.517-.475.85a5.39 5.39 0 0 1-1.125.85c-.183.183-.591.4-1.225.65a9.462 9.462 0 0 1-1.875 1.025c-.7.3-1.342.45-1.925.45-.133 0-.3-.017-.5-.05Zm8.38.5c-.35 0-.6-.142-.75-.425 0-.1.034-.2.1-.3.067-.1.159-.2.275-.3.4-.383.842-1.033 1.325-1.95.084-.25.217-.742.4-1.475 0-.333.042-.542.125-.625.3-.25.534-.375.7-.375.384 0 .65.45.8 1.35.034.233.05.4.05.5 0 .433-.158.967-.475 1.6-.066.167-.3.483-.7.95-.383.467-.608.7-.675.7-.066 0-.141.033-.225.1a2.975 2.975 0 0 0-.15.125c-.05.05-.15.083-.3.1s-.316.025-.5.025ZM38.017 164.825a1.813 1.813 0 0 1-.4-.275.504.504 0 0 1-.1-.325c0-.167.066-.4.2-.7.15-.317.4-.808.75-1.475.1-.217.291-.6.575-1.15.716-1.367 1.075-2.375 1.075-3.025a.346.346 0 0 1-.025-.15c0-.167.133-.317.4-.45.05-.05.225-.192.525-.425.316-.233.566-.5.75-.8.216-.5.491-1.05.825-1.65.333-.617.908-1.617 1.725-3 .8-1.467 1.65-2.792 2.55-3.975.166-.233.35-.417.55-.55.216-.133.4-.2.55-.2.516 0 1.041.2 1.575.6.55.4.908.8 1.075 1.2.066.117.1.367.1.75 0 .517-.059 1.392-.175 2.625a14.09 14.09 0 0 0-.1 1.025c-.05.75-.125 1.55-.225 2.4a250.29 250.29 0 0 0-.4 4.375 37.421 37.421 0 0 0-.125 2.95c0 .467.008.808.025 1.025v.175l-.025.575c-.1.1-.3.15-.6.15-.334 0-.667-.058-1-.175-.334-.1-.517-.225-.55-.375a.292.292 0 0 0-.075-.05c-.034-.017-.05-.092-.05-.225l.025-.55.075-1.4.125-3.825-.325.025c-.334 0-1.042.067-2.125.2-1.067.133-1.742.242-2.025.325-.15 0-.334.1-.55.3-.217.2-.409.458-.575.775-.05.167-.167.408-.35.725-.184.3-.275.475-.275.525a1.07 1.07 0 0 0-.275.275c-.067.1-.109.167-.125.2 0 .183-.167.658-.5 1.425-.317.75-.634 1.367-.95 1.85l-.675.95-.875-.675Zm5.975-8.6.7-.1c.35-.067.658-.108.925-.125.8-.2 1.35-.3 1.65-.3.166 0 .283.017.35.05.05.067.1.117.15.15a.716.716 0 0 0 .125.025c.033-.133.166-1.042.4-2.725.233-1.683.35-2.717.35-3.1a7.62 7.62 0 0 0-.025-.675 2.202 2.202 0 0 0-.05-.375c-.15 0-.492.4-1.025 1.2a23.14 23.14 0 0 0-1.55 2.675c-.384.683-.65 1.025-.8 1.025-.117.117-.367.508-.75 1.175-.384.667-.534 1.033-.45 1.1ZM73.09 149.2a.502.502 0 0 1-.125.45c-.1.117-.334.275-.7.475-.75.367-1.175.642-1.275.825-.084.067-.275.208-.575.425a63.11 63.11 0 0 1-1.075.8c-.65.433-1.217.842-1.7 1.225-.467.383-.775.675-.925.875a.428.428 0 0 0-.2.075c-.067.05-.125.067-.175.05a2.575 2.575 0 0 0-.225.15 1.14 1.14 0 0 0-.25.225c-.05.133-.133.267-.25.4a.407.407 0 0 1-.375.15c-.25.133-.683.442-1.3.925.15 1.167.466 2.192.95 3.075.483 1.067.975 1.85 1.475 2.35.35.383.675.683.975.9.316.217.558.325.725.325.15.05.358.167.625.35.267.183.408.333.425.45.017.033.025.133.025.3 0 .217-.042.433-.125.65a.884.884 0 0 1-.375.525.623.623 0 0 1-.45.2c-.167 0-.442-.083-.825-.25-.267.017-.725-.233-1.375-.75s-1.15-.992-1.5-1.425c-.45-.65-.842-1.242-1.175-1.775a6.798 6.798 0 0 1-.725-1.75 9.75 9.75 0 0 0-.4-1.35 8.217 8.217 0 0 1-.175-.6l-.075.2c-.017.05-.125.325-.325.825-.184.5-.45 1.383-.8 2.65-.3.983-.567 1.825-.8 2.525-.233.683-.425 1.142-.575 1.375-.133.25-.267.375-.4.375s-.3-.075-.5-.225c-.533-.3-.8-.633-.8-1 0-.067.017-.167.05-.3-.017-.217 0-.425.05-.625s.075-.317.075-.35c.117 0 .175-.133.175-.4 0-.133.075-.425.225-.875l.225-.775.3-.725c.183-.467.275-.717.275-.75 0-.217.108-.492.325-.825.067-.2.125-.417.175-.65.05-.233.075-.425.075-.575.033-.083.125-.275.275-.575.15-.3.258-.6.325-.9.017-.083.041-.175.075-.275.05-.1.1-.225.15-.375l.825-2.25.375-.85c.033-.083.141-.342.325-.775.2-.433.333-.65.4-.65v-.275c0-.067.092-.283.275-.65l.3-.6c.133-.217.233-.425.3-.625a4.8 4.8 0 0 0 .15-.425 2.73 2.73 0 0 1 .1-.175 1.17 1.17 0 0 1 .175-.225c.133-.1.3-.183.5-.25a1.64 1.64 0 0 1 .575-.125c.283 0 .475.108.575.325.2.4.3.733.3 1 0 .183-.05.35-.15.5-.35.717-.767 1.608-1.25 2.675a41.398 41.398 0 0 0-1.075 2.5l.175-.125c.433-.433 1.125-1.008 2.075-1.725l3.075-2.5c.466-.233 1.016-.6 1.65-1.1.166-.1.3-.192.4-.275a1.4 1.4 0 0 1 .25-.175c.1-.083.3-.225.6-.425.3-.217.492-.317.575-.3.117-.05.266.017.45.2.183.183.333.408.45.675.133.267.191.467.175.6Zm8.645 16.975c-.083 0-.208-.033-.375-.1a1.123 1.123 0 0 1-.375-.225c-.2-.2-.3-.5-.3-.9 0-.9-.017-1.492-.05-1.775l-.025-1.5c0-.383.025-.617.075-.7a2.063 2.063 0 0 1-.025-.375c0-.15.008-.325.025-.525a3.55 3.55 0 0 0 .05-.5l-.1-.675h-1.35a5.05 5.05 0 0 1-.65.025c-.45 0-1.525-.05-3.225-.15l-.325.525a8.65 8.65 0 0 0-.25.325c-.133.2-.275.5-.425.9-.15.4-.35.858-.6 1.375-.233.517-.45.917-.65 1.2-.25.467-.483.808-.7 1.025-.2.217-.35.325-.45.325h-.125a.814.814 0 0 1-.3-.05 1.031 1.031 0 0 1-.3-.175c-.45-.2-.675-.5-.675-.9 0-.283.133-.617.4-1l.325-.525c0-.1.242-.625.725-1.575.5-.967.825-1.483.975-1.55.15-.15.225-.3.225-.45 0-.167-.1-.333-.3-.5a.421.421 0 0 1-.175-.2 1.03 1.03 0 0 1-.05-.325.82.82 0 0 1 .25-.6c.167-.167.425-.242.775-.225a3.33 3.33 0 0 1 .225-.125c.084-.033.142-.058.175-.075.05-.033.075-.075.075-.125 0-.083.133-.383.4-.9.283-.533.533-.933.75-1.2.167-.45.308-.775.425-.975.133-.2.217-.342.25-.425.084-.083.25-.358.5-.825.034-.05.142-.233.325-.55a5.91 5.91 0 0 0 .5-.575c.183-.233.3-.383.35-.45.067-.117.167-.258.3-.425.084-.2.234-.442.45-.725.217-.3.35-.483.4-.55.25-.3.55-.542.9-.725.35-.2.675-.3.975-.3.167 0 .308.025.425.075.417.183.784.525 1.1 1.025.317.5.5 1.083.55 1.75.017.117.05.375.1.775.067.4.1.75.1 1.05 0 .217-.025.392-.075.525v1.1c0 .55.017.958.05 1.225-.05.183-.075.483-.075.9l.025.975c0 .25-.008.458-.025.625l-.025.925-.025.925c-.017.417-.025.942-.025 1.575l.025 1.975c0 1.133-.1 1.958-.3 2.475-.183.517-.466.8-.85.85Zm-5.05-9.35c.084-.017.292-.042.625-.075a7.536 7.536 0 0 1 1.075-.025c.467-.033.775-.05.925-.05.217 0 .433.008.65.025.234 0 .367-.008.4-.025.317.017.475-.275.475-.875a44.869 44.869 0 0 1-.175-3.8l.025-.775c0-.267-.025-.55-.075-.85-.033-.3-.058-.5-.075-.6-.066-.083-.308.192-.725.825-.4.633-.742 1.2-1.025 1.7-.1.133-.233.367-.4.7a9.353 9.353 0 0 0-.275.475 5.592 5.592 0 0 1-.325.6c-.816 1.3-1.225 2.133-1.225 2.5 0 .117.042.2.125.25Zm20.662 8.4c-.367 0-.859-.092-1.475-.275-.617-.167-1.034-.475-1.25-.925l-.425-.475c-.467-.5-.725-.792-.776-.875l-.8-.8a52.472 52.472 0 0 1-.924-.9 7.693 7.693 0 0 1-.65-.825c-.2-.2-.442-.55-.725-1.05a3.72 3.72 0 0 0-.326-.5c-.1-.167-.191-.267-.274-.3-.184.133-.317.442-.4.925-.167.35-.35.942-.55 1.775-.134.3-.25.625-.35.975-.084.333-.142.558-.175.675-.167.467-.292.742-.376.825l-.224.975c-.167.85-.417 1.275-.75 1.275-.217 0-.526-.175-.925-.525l-.35-.55c-.217-.317-.326-.492-.326-.525.034-.083.092-.25.175-.5.084-.267.184-.592.3-.975l.425-1.325c.65-1.933 1.067-3.283 1.25-4.05a.382.382 0 0 0 .1-.2 1.4 1.4 0 0 0 .025-.275c.167-.5.442-1.25.826-2.25.383-1.017.674-1.683.874-2 .05-.1.084-.2.1-.3.017-.1.026-.167.026-.2 0-.067.016-.125.05-.175a.374.374 0 0 1 .174-.1c0-.217.042-.375.126-.475.116-.25.366-.933.75-2.05.4-1.117.6-1.708.6-1.775a.4.4 0 0 1 .1-.25c.066-.083.108-.133.124-.15.134-.117.359-.175.675-.175.284 0 .567.067.85.2.3.117.517.275.65.475a2.1 2.1 0 0 1-.1.525c-.05.217-.124.45-.225.7l-.475 1.075c-.033.117-.133.408-.3.875-.15.45-.341.992-.575 1.625-.35.7-.624 1.317-.825 1.85-.2.533-.266.833-.2.9.117-.083.367-.292.75-.625.4-.35.825-.742 1.275-1.175.9-.917 1.842-1.733 2.826-2.45 1.233-.833 2.008-1.342 2.325-1.525.316-.183.608-.283.875-.3a.74.74 0 0 1 .275-.05c.066 0 .15.033.25.1s.2.125.3.175c.05.1.1.275.15.525.066.233.108.392.124.475.017.167-.083.375-.3.625-.2.233-.483.442-.85.625-1.3.8-2.775 1.808-4.425 3.025-1.633 1.2-2.533 2-2.7 2.4-.083.1-.1.192-.05.275.05.083.15.2.3.35.167.133.309.25.425.35.217.267.384.483.5.65.134.15.217.25.25.3 0 .1.55.675 1.65 1.725.034.083.2.292.5.625.434.467.734.842.9 1.125 1.084 1.133 1.626 1.967 1.626 2.5 0 .25-.142.375-.425.375Zm26.152-16.025c0 .083-.025.142-.075.175-.05.017-.075.033-.075.05s.033.05.1.1l-.175.825c-.067.35-.209 1.05-.425 2.1-.2 1.05-.35 1.9-.45 2.55l-.35 2.675c-.15 1.183-.259 2.092-.325 2.725-.05.633-.075 1.3-.075 2 0 .8.025 1.408.075 1.825.066.433.1.683.1.75 0 .1-.117.25-.35.45-.234.2-.492.3-.775.3-.434 0-.75-.183-.95-.55-.2-.35-.317-.9-.35-1.65 0-1.117.083-2.608.25-4.475.05-.117.075-.342.075-.675 0-.2-.017-.35-.05-.45-.017-.167.008-.4.075-.7.016-.067.033-.158.05-.275.016-.117.025-.225.025-.325 0-.083.033-.258.1-.525.1-.3.15-.533.15-.7v-.175c.05-.15.1-.333.15-.55.066-.233.1-.375.1-.425a1.436 1.436 0 0 1-.025-.35c0-.183-.017-.308-.05-.375.1-.283.216-.717.35-1.3l.3-1.2c-.017 0-.2.333-.55 1a15.31 15.31 0 0 1-1.225 1.975c-.384.617-.759 1.15-1.125 1.6-.35.45-.55.708-.6.775-.217.283-.425.55-.625.8-.184.25-.317.483-.4.7-.35.867-.759 1.5-1.225 1.9-.45.4-.909.625-1.375.675l-.4.05h-.15c-.317 0-.584-.208-.8-.625-.2-.417-.3-1.192-.3-2.325l.025-.675.075-1.4c.05-.283.091-.75.125-1.4.033-.667.058-1.108.075-1.325-.084.083-.234.392-.45.925-.2.533-.325.875-.375 1.025l-.225.575c-.084.117-.209.433-.375.95-.134.383-.317.85-.55 1.4-.367 1.2-.7 2.15-1 2.85a16.29 16.29 0 0 0-.4.925c-.034.067-.134.333-.3.8-.234.6-.384.958-.45 1.075-.717 1.617-1.317 2.425-1.8 2.425-.267 0-.534-.142-.8-.425-.25-.267-.375-.558-.375-.875 0-.233.091-.542.275-.925.183-.4.45-.917.8-1.55l.525-.975c0-.083.2-.65.6-1.7l.35-.925 1.55-4.1.025-.1.15-.375c.05-.133.141-.333.275-.6.233-.533.35-.842.35-.925v-.05c0-.05.016-.083.05-.1a.39.39 0 0 1 .1-.025c.066-.183.183-.467.35-.85.183-.4.325-.7.425-.9l-.025-.1a.9.9 0 0 1 .075-.4c.066-.1.133-.192.2-.275a2.14 2.14 0 0 0 .2-.225c0-.1.05-.233.15-.4.1-.183.216-.367.35-.55.266-.367.441-.642.525-.825.166-.317.425-.475.775-.475.25 0 .5.1.75.3.25.2.458.425.625.675.166.233.25.392.25.475 0 .05-.025.083-.075.1-.05.017-.075.058-.075.125v.1c.016.05.025.117.025.2 0 .3-.042.533-.125.7a7.721 7.721 0 0 0-.225 1.925l.025.725c0 .133-.034.233-.1.3-.05.067-.092.125-.125.175v.05l-.025.2.025.15c0 .15-.042.333-.125.55-.1.383-.15.592-.15.625-.067.55-.1 1.117-.1 1.7 0 .867.075 1.342.225 1.425l1.8-2.675c1.533-2.267 2.308-3.425 2.325-3.475.116-.067.225-.192.325-.375-.017 0-.025-.017-.025-.05 0-.083.216-.442.65-1.075.433-.65.9-1.233 1.4-1.75.5-.533.908-.8 1.225-.8.15 0 .35.1.6.3.266.2.5.45.7.75.2.283.3.55.3.8Zm6.256 15.5c-.25 0-.633-.1-1.15-.3-.5-.2-.975-.45-1.425-.75-.45-.3-.741-.6-.875-.9l-.05-.1a3.463 3.463 0 0 1-.375-2.575l.125-.525c.15-.517.225-.942.225-1.275.084-.1.209-.267.375-.5a4.7 4.7 0 0 0 .325-.475.598.598 0 0 0 .05-.225v-.375c0-.117.042-.233.125-.35.084-.117.167-.208.25-.275.1-.083.167-.133.2-.15l.1.025c.034 0 .159-.242.375-.725.217-.5.425-1.025.625-1.575.834-1.533 1.767-2.808 2.8-3.825 1.034-1.033 1.95-1.725 2.75-2.075.067-.017.192-.033.375-.05.184-.017.359-.033.525-.05.317.017.7.092 1.15.225.45.133.692.233.725.3 0 .067.017.108.05.125a.4.4 0 0 0 .1.025c.15-.017.417.225.8.725.4.483.692.942.875 1.375.2.317.3.85.3 1.6 0 .633-.091 1.425-.275 2.375-.183.933-.366 1.6-.55 2a35.363 35.363 0 0 1-1.65 3.8c-.666 1.333-1.275 2.017-1.825 2.05-.016 0-.033.017-.05.05-.016.017-.025.05-.025.1s-.225.267-.675.65c-.433.383-.816.7-1.15.95l-.475.175c-.4.15-.858.267-1.375.35-.516.1-.95.158-1.3.175Zm.025-2.275c.717 0 1.234-.017 1.55-.05.317-.033.65-.142 1-.325.367-.2.759-.542 1.175-1.025.167-.3.3-.5.4-.6.017-.033.15-.267.4-.7.25-.433.484-.65.7-.65 0-.083.067-.308.2-.675.134-.383.234-.6.3-.65.034-.017.117-.2.25-.55.134-.367.259-.767.375-1.2.117-.433.175-.792.175-1.075.3-.317.434-.492.4-.525a.44.44 0 0 1-.025-.1v-.25c0-.483.034-.733.1-.75.084-.033.125-.058.125-.075a.277.277 0 0 0-.1-.1c-.033-.033-.05-.067-.05-.1 0-.017.025-.05.075-.1a.27.27 0 0 0 .075-.2c-.033-.417-.266-1.142-.7-2.175a1.506 1.506 0 0 1-.2-.175.61.61 0 0 0-.275-.2.57.57 0 0 0-.3-.075c-.066 0-.183.017-.35.05-.066-.067-.133-.1-.2-.1a.547.547 0 0 0-.175.025l-.125.05c-.35.083-.625.2-.825.35-.183.15-.45.417-.8.8l-.425.45c-.133.45-.408.842-.825 1.175-.066.05-.166.175-.3.375a3.522 3.522 0 0 1-.3.375l-.15.3c-.366.6-.758 1.4-1.175 2.4a41.354 41.354 0 0 0-1.075 2.8c-.3.883-.45 1.442-.45 1.675 0 .467.15.842.45 1.125.317.283.675.442 1.075.475Zm30.039-14.25c.367-.017.667.1.9.35.233.25.392.558.475.925 0 .3-.083.558-.25.775-.167.2-.4.408-.7.625-.4.217-.933.583-1.6 1.1l-.625.475c-.317.2-.8.6-1.45 1.2a54.47 54.47 0 0 0-1.45 1.375l-.5.45c-.05.033-.2.158-.45.375-.233.2-.458.433-.675.7a7.4 7.4 0 0 0 .225.475c.117.233.25.433.4.6l1.825 2.775c.067.15.158.308.275.475.117.15.2.258.25.325.25.283.433.542.55.775.05.033.133.117.25.25.133.117.25.192.35.225a.95.95 0 0 1 .4.375c.117.183.233.425.35.725-.017.367-.125.642-.325.825-.2.2-.592.325-1.175.375-.283-.067-.608-.258-.975-.575-.35-.3-.642-.642-.875-1.025a268.04 268.04 0 0 0-1.55-2.4l-.95-1.5a3.965 3.965 0 0 0-.35-.725c-.15-.3-.25-.45-.3-.45l-.475-.75c-.017.067-.2.542-.55 1.425l-.35.85c-.683 1.717-1.217 3.208-1.6 4.475-.017.05-.042.15-.075.3a.87.87 0 0 1-.175.375.611.611 0 0 1-.275.225c-.217.15-.433.225-.65.225-.117 0-.242-.025-.375-.075a1.308 1.308 0 0 1-.7-.5c-.167-.25-.25-.5-.25-.75 0-.133.025-.233.075-.3l.225-.575c.1-.35.208-.625.325-.825.083-.167.158-.375.225-.625.083-.267.15-.467.2-.6.317-1.017.6-1.783.85-2.3a4.87 4.87 0 0 0 .25-.625 2.61 2.61 0 0 0-.35.375 17.127 17.127 0 0 1-1.725 1.5c-.583.45-1 .792-1.25 1.025-.2.15-.617.433-1.25.85-.617.417-1.133.75-1.55 1-.133.083-.417.275-.85.575-.417.317-.9.617-1.45.9-.283.167-.558.25-.825.25a1.22 1.22 0 0 1-.625-.175 1.228 1.228 0 0 1-.425-.45 1.234 1.234 0 0 1-.2-.65c0-.233.075-.4.225-.5.083-.117.358-.325.825-.625.483-.317.817-.533 1-.65.4-.25.75-.483 1.05-.7l.65-.4c.283-.183.692-.433 1.225-.75.533-.333.817-.517.85-.55.083-.1.35-.317.8-.65l2.675-2.025.775-.65c-.017-.083-.25-.483-.7-1.2-.45-.733-.725-1.15-.825-1.25l-1.325-1.6c0-.017-.1-.167-.3-.45-1.033-1.483-1.567-2.275-1.6-2.375-.283-.317-.458-.567-.525-.75-.067-.2-.1-.475-.1-.825a.845.845 0 0 1 .375-.35c.167-.1.333-.15.5-.15.117 0 .242.033.375.1l.3.15c.15.05.283.125.4.225.133.1.25.225.35.375.033.033.125.117.275.25.167.117.342.35.525.7l3.225 4.55.85 1.45a2.672 2.672 0 0 1 .125-.925c.1-.333.167-.575.2-.725.383-1.083.633-1.917.75-2.5.083-.383.208-.683.375-.9.017-.033.042-.133.075-.3l.075-.425c.117-.633.225-1.067.325-1.3.1-.233.225-.392.375-.475.067-.017.15-.025.25-.025.317 0 .608.108.875.325.267.2.442.425.525.675.067.3.1.508.1.625 0 .217-.067.433-.2.65a98.949 98.949 0 0 1-.95 3.15l-.2.675c-.017.067-.05.192-.1.375a1.745 1.745 0 0 1-.15.475 9.577 9.577 0 0 1-.1.45c-.033.133-.058.25-.075.35l.5-.475c2.233-2.233 3.667-3.575 4.3-4.025a13.323 13.323 0 0 1 1.525-1.325c.5-.367.933-.608 1.3-.725Zm2.83 18.125a6.544 6.544 0 0 0-.375-.075 1.453 1.453 0 0 0-.45-.025c-.283-.05-.558-.192-.825-.425-.25-.233-.35-.475-.3-.725.05-.05.092-.183.125-.4a3.4 3.4 0 0 0 .05-.55c.067-.183.142-.45.225-.8.1-.75.358-1.992.775-3.725.433-1.75.708-2.683.825-2.8l-.025-.275a1.933 1.933 0 0 1 .25-.8c.067-.2.117-.392.15-.575.05-.2.075-.35.075-.45.033-.05.15-.35.35-.9l.25-.7c.1-.317.233-.692.4-1.125.167-.433.275-.717.325-.85v-.125c.067-.083.25-.525.55-1.325.15-.333.292-.675.425-1.025.15-.367.3-.725.45-1.075.05-.1.125-.242.225-.425s.15-.308.15-.375c.067-.133.233-.2.5-.2.217 0 .433.05.65.15.217.1.367.233.45.4l.575.4-.85 1.825c-.217.433-.417.858-.6 1.275-.167.4-.25.633-.25.7-.033.117-.108.358-.225.725s-.242.783-.375 1.25c-.067.233-.233.725-.5 1.475-.117.283-.175.442-.175.475 0-.067.9-.133 2.7-.2.3-.017.85-.042 1.65-.075.817-.05 1.325-.1 1.525-.15l1.275-.175.6-2.225c.2-.817.525-1.967.975-3.45.217-.717.475-1.267.775-1.65.3-.4.558-.6.775-.6.417 0 .758.3 1.025.9.2.167.3.358.3.575 0 .217-.125.542-.375.975-.217.4-.475 1.067-.775 2-.05.217-.133.475-.25.775v.1c0 .317-.075.55-.225.7-.05.05-.158.283-.325.7-.15.417-.225.658-.225.725.017.117 0 .267-.05.45-.05.167-.108.283-.175.35-.017.067-.175.733-.475 2s-.6 2.283-.9 3.05c.017.083-.017.233-.1.45-.067.217-.1.367-.1.45-.25.8-.367 1.25-.35 1.35a168.05 168.05 0 0 1-.475 2.075c-.15.667-.225 1.008-.225 1.025-.017.033-.092.05-.225.05a2.34 2.34 0 0 1-.85-.175 1.59 1.59 0 0 1-.6-.55 1.207 1.207 0 0 1-.225-.7c0-.217.042-.408.125-.575.067-.117.192-.617.375-1.5l.25-1.075c.083-.267.175-.658.275-1.175.117-.533.2-.908.25-1.125.15-.867.25-1.325.3-1.375v-.25c-.05-.05-.35-.075-.9-.075-.567 0-1.233.033-2 .1-.767.05-1.45.125-2.05.225l-.7.025c-.35 0-.575.008-.675.025-.167 0-.308.008-.425.025h-.225c-.067.15-.258.867-.575 2.15-.317 1.283-.5 2.108-.55 2.475-.15.767-.325 1.583-.525 2.45a44.53 44.53 0 0 1-.45 2Zm13.146-1.475a1.813 1.813 0 0 1-.4-.275.502.502 0 0 1-.1-.325c0-.167.067-.4.2-.7.15-.317.4-.808.75-1.475.1-.217.292-.6.575-1.15.717-1.367 1.075-2.375 1.075-3.025a.341.341 0 0 1-.025-.15c0-.167.133-.317.4-.45.05-.05.225-.192.525-.425.317-.233.567-.5.75-.8.217-.5.492-1.05.825-1.65.333-.617.908-1.617 1.725-3 .8-1.467 1.65-2.792 2.55-3.975.167-.233.35-.417.55-.55.217-.133.4-.2.55-.2.517 0 1.042.2 1.575.6.55.4.908.8 1.075 1.2.067.117.1.367.1.75 0 .517-.058 1.392-.175 2.625a14.09 14.09 0 0 0-.1 1.025c-.05.75-.125 1.55-.225 2.4a250.29 250.29 0 0 0-.4 4.375 37.566 37.566 0 0 0-.125 2.95c0 .467.008.808.025 1.025v.175l-.025.575c-.1.1-.3.15-.6.15-.333 0-.667-.058-1-.175-.333-.1-.517-.225-.55-.375a.303.303 0 0 0-.075-.05c-.033-.017-.05-.092-.05-.225l.025-.55.075-1.4.125-3.825-.325.025c-.333 0-1.042.067-2.125.2-1.067.133-1.742.242-2.025.325-.15 0-.333.1-.55.3-.217.2-.408.458-.575.775-.05.167-.167.408-.35.725-.183.3-.275.475-.275.525a1.07 1.07 0 0 0-.275.275c-.067.1-.108.167-.125.2 0 .183-.167.658-.5 1.425-.317.75-.633 1.367-.95 1.85l-.675.95-.875-.675Zm5.975-8.6.7-.1c.35-.067.658-.108.925-.125.8-.2 1.35-.3 1.65-.3.167 0 .283.017.35.05.05.067.1.117.15.15a.716.716 0 0 0 .125.025c.033-.133.167-1.042.4-2.725s.35-2.717.35-3.1c0-.267-.008-.492-.025-.675a2.202 2.202 0 0 0-.05-.375c-.15 0-.492.4-1.025 1.2a23.183 23.183 0 0 0-1.55 2.675c-.383.683-.65 1.025-.8 1.025-.117.117-.367.508-.75 1.175s-.533 1.033-.45 1.1Zm17.923 8c-.766-.267-1.383-.767-1.85-1.5-.45-.733-.675-1.6-.675-2.6 0-.4.034-.767.1-1.1a7.97 7.97 0 0 1 .3-1.525c.1-.3.175-.608.225-.925 0-.033.017-.092.05-.175.034-.083.042-.15.025-.2.1-.25.242-.6.425-1.05.2-.45.325-.7.375-.75.067-.033.1-.075.1-.125a.39.39 0 0 0 .025-.1c0-.217.225-.683.675-1.4a30.23 30.23 0 0 1 1.5-2.1c.534-.683.85-1.025.95-1.025.034 0 .075-.033.125-.1.05-.083.084-.125.1-.125.117-.133.584-.375 1.4-.725.817-.367 1.467-.608 1.95-.725a3.072 3.072 0 0 1 1.025-.175c.85 0 1.542.4 2.075 1.2.534.783.809 1.875.825 3.275-.05.25-.091.617-.125 1.1-.033.383-.058.6-.075.65-.016.5-.125 1.125-.325 1.875-.183.733-.308 1.108-.375 1.125 0 .05-.016.108-.05.175a.409.409 0 0 0-.05.175c.017.15-.2.675-.65 1.575-.45.883-.708 1.333-.775 1.35a.188.188 0 0 0-.075.025c-.017.017-.017.05 0 .1s-.116.2-.4.45c-.266.25-.458.375-.575.375-.016 0-.033.008-.05.025 0 .017.017.05.05.1.034.05-.208.267-.725.65-.5.383-1.041.758-1.625 1.125-.583.35-1.025.558-1.325.625a.43.43 0 0 1-.225.125.699.699 0 0 1-.125.025c-.116.117-.333.217-.65.3-.3.083-.6.125-.9.125-.25 0-.475-.042-.675-.125Zm2.525-2.625c.5-.167 1-.433 1.5-.8.5-.383.8-.733.9-1.05.083-.3.2-.508.35-.625.284-.283.659-.933 1.125-1.95.484-1.033.734-1.733.75-2.1 0-.1.025-.258.075-.475.05-.233.109-.4.175-.5.034-.05.042-.158.025-.325a8.995 8.995 0 0 1-.025-.775c0-.433.008-.808.025-1.125-.05-1.083-.217-1.708-.5-1.875-.133-.1-.358-.15-.675-.15-.083 0-.192.017-.325.05-.083.017-.2.058-.35.125-.15.05-.266.075-.35.075-.233.133-.35.283-.35.45 0 .15-.067.275-.2.375-.117.1-.242.108-.375.025-.3.017-.491.058-.575.125-.083.067-.191.225-.325.475a8.894 8.894 0 0 1-.325.6c-.416.317-.733.65-.95 1-.216.35-.35.642-.4.875-.516.9-.841 1.533-.975 1.9-.116.35-.216.833-.3 1.45-.133.25-.241.542-.325.875-.066.333-.125.55-.175.65a2.25 2.25 0 0 0-.05.525c0 .367.025.75.075 1.15.05.383.117.642.2.775.133.45.425.675.875.675.367 0 .859-.142 1.475-.425Zm8.439 1.025c.15-.267.292-.717.425-1.35.017-.083.042-.225.075-.425.05-.2.108-.375.175-.525.717-2.3 1.4-4.258 2.05-5.875.217-.517.467-1.05.75-1.6.333-.7.575-1.225.725-1.575.183-.45.467-.992.85-1.625.033-.067.158-.283.375-.65.217-.383.383-.758.5-1.125.117-.467.442-.7.975-.7.167 0 .358-.042.575-.125.433-.117.767-.175 1-.175.35 0 .608-.025.775-.075.133-.033.525-.058 1.175-.075a21.57 21.57 0 0 1 1.5 0 .9.9 0 0 1 .4-.075c.433 0 .892.133 1.375.4.483.25.742.533.775.85l.025.325c0 .35-.092.583-.275.7-.167.117-.458.175-.875.175a11.15 11.15 0 0 1-1.35-.075c-.483-.05-.942-.075-1.375-.075-.25 0-.525.025-.825.075l-.6.1c-.667.133-1.167.192-1.5.175-.217.25-.517.825-.9 1.725a26.458 26.458 0 0 0-.8 2.125c.133-.033.325-.05.575-.05.317 0 .633.017.95.05.333.033.55.083.65.15 1.333.217 2.442.75 3.325 1.6.9.833 1.308 1.9 1.225 3.2-.033.617-.308 1.35-.825 2.2-.5.833-1.025 1.475-1.575 1.925-.133.1-.35.283-.65.55-.3.25-.592.45-.875.6-.15.083-.367.208-.65.375-.283.15-.592.258-.925.325l-.425.15c-.317.2-.75.342-1.3.425-.55.083-1.092.125-1.625.125-.433.1-.858.15-1.275.15-.75 0-1.367-.183-1.85-.55-.483-.367-.733-.95-.75-1.75Zm2.725-.3c.283.05.558.075.825.075.667 0 1.35-.108 2.05-.325.7-.233 1.358-.525 1.975-.875.867-.5 1.533-1.017 2-1.55.483-.533.725-1.217.725-2.05 0-.633-.358-1.092-1.075-1.375-.7-.3-1.533-.525-2.5-.675a2.56 2.56 0 0 1-.85-.35c-.3-.2-.467-.417-.5-.65a45.307 45.307 0 0 0-1.675 4.025c-.483 1.383-.808 2.633-.975 3.75Zm12.444 3.1a.503.503 0 0 1-.275-.1.709.709 0 0 1-.225-.225 1.36 1.36 0 0 1-.325-.425c-.084-.167-.125-.417-.125-.75 0-.583.183-1.425.55-2.525.116-.467.241-.917.375-1.35.116-.3.175-.525.175-.675 0-.133.016-.283.05-.45.05-.183.075-.308.075-.375.2 0 .383-.342.55-1.025.066-.25.125-.458.175-.625.05-.183.083-.325.1-.425.033-.05.066-.125.1-.225.05-.1.091-.192.125-.275.133-.4.291-.783.475-1.15.2-.75.433-1.533.7-2.35.283-.833.516-1.45.7-1.85l.3-.75c.016-.05.05-.142.1-.275.066-.15.1-.258.1-.325s-.025-.117-.075-.15c-.117-.083-.175-.25-.175-.5 0-.417.158-.758.475-1.025.183-.217.425-.367.725-.45.316-.1.691-.15 1.125-.15.183 0 .508.017.975.05.2.017.733.025 1.6.025.1.05.283.125.55.225.566.233.85.375.85.425 0 .083.025.142.075.175a.931.931 0 0 0 .275.075c.183 0 .508.225.975.675.483.45.816.867 1 1.25.15.3.25.533.3.7.066.167.1.375.1.625 0 .1-.017.283-.05.55-.034.267-.075.525-.125.775s-.109.408-.175.475c-.267.2-.4.375-.4.525 0 .167-.242.633-.725 1.4-.484.767-.909 1.325-1.275 1.675-.434.5-.95.942-1.55 1.325-.7.317-1.492.592-2.375.825-.867.233-1.525.342-1.975.325-.534.083-.867.158-1 .225-.117.05-.209.183-.275.4l-.25.7c-.067.233-.1.392-.1.475-.1.183-.309.742-.625 1.675-.3.933-.509 1.65-.625 2.15a.853.853 0 0 1-.4.5c-.2.133-.384.2-.55.2Zm3.55-8.35c.033.033.125.05.275.05.433 0 1-.133 1.7-.4.6-.2 1.266-.525 2-.975.366-.25.8-.692 1.3-1.325.1-.167.3-.558.6-1.175.133-.233.258-.533.375-.9.133-.367.2-.692.2-.975 0-.133-.009-.233-.025-.3-.167-.867-.65-1.442-1.45-1.725-.534-.083-.909-.125-1.125-.125a5.35 5.35 0 0 0-.575.05c-.267.083-.459.2-.575.35-.1.133-.25.45-.45.95-.534 1.017-.884 1.75-1.05 2.2-.317 1.133-.592 2.008-.825 2.625-.234.6-.367.95-.4 1.05v.1c0 .1-.009.2-.025.3-.017.1 0 .175.05.225Zm16.867-10.4c.566 0 1.091.15 1.575.45.5.283.891.692 1.175 1.225.3.517.45 1.108.45 1.775 0 .933-.059 2.158-.175 3.675a75.692 75.692 0 0 1-.45 4.275c-.2 1.4-.375 3.2-.525 5.4-.1 1.167-.184 1.967-.25 2.4-.05.45-.15.708-.3.775l.025.05c0 .067-.059.125-.175.175a1.08 1.08 0 0 1-.425.075c-.3 0-.6-.058-.9-.175-.3-.117-.45-.367-.45-.75 0-.217.041-.742.125-1.575.183-1.567.291-2.85.325-3.85l.15-1.1h-.625c-.284.083-.692.125-1.225.125l-1.575-.025c-.45 0-.759.017-.925.05a.474.474 0 0 0-.35.2c-.084.1-.184.308-.3.625-.084.267-.259.675-.525 1.225-.584 1.417-1.1 2.425-1.55 3.025-.45.6-.892.9-1.325.9-.117 0-.309-.05-.575-.15-.25-.1-.375-.233-.375-.4 0-.233.175-.717.525-1.45.366-.733.641-1.225.825-1.475.016 0 .016-.008 0-.025a.341.341 0 0 1-.025-.15c0-.367.216-.975.65-1.825.066-.2.133-.392.2-.575.083-.2.125-.325.125-.375l.475-.925c0-.1.058-.308.175-.625.133-.333.291-.692.475-1.075 0-.25.05-.492.15-.725.1-.25.233-.517.4-.8.183-.333.275-.55.275-.65 0-.033.016-.108.05-.225.05-.117.141-.308.275-.575-.034 0-.05-.008-.05-.025s.066-.108.2-.275c0-.15.058-.317.175-.5.133-.2.35-.75.65-1.65l.5-1.075c.133-.217.308-.625.525-1.225l.2-.525.2-.55c.05-.067.125-.192.225-.375s.258-.333.475-.45c.216-.117.508-.183.875-.2.2-.05.408-.075.625-.075Zm.525 9.55c0-.183.058-.858.175-2.025.233-2.4.358-3.875.375-4.425 0-.25-.009-.392-.025-.425 0-.15-.134-.292-.4-.425-.267-.133-.459-.2-.575-.2-.15 0-.275.083-.375.25-.1.167-.2.375-.3.625-.1.233-.167.4-.2.5l-.225.575c-.284.7-.617 1.558-1 2.575-.384 1-.6 1.6-.65 1.8-.1.1-.275.417-.525.95-.234.517-.35.842-.35.975 0 .417.208.625.625.625.066 0 .2-.008.4-.025.216-.033.45-.092.7-.175h.35c.266 0 .533-.042.8-.125.433-.067.716-.117.85-.15.15-.033.241-.108.275-.225.05-.117.075-.342.075-.675Zm21.179 13.725a2.07 2.07 0 0 1-.175-.775c0-.217.05-.425.15-.625l.5-.95c.484-.867.859-1.592 1.125-2.175.284-.567.567-1.225.85-1.975l-.575.075-.95.1c-.966.067-1.475.125-1.525.175l-.675.05c-.483.033-.983.083-1.5.15-.516.067-.85.142-1 .225a4.975 4.975 0 0 1-.575.075 6.675 6.675 0 0 1-.45.025h-.375c-.133.017-.3.042-.5.075l-1.525.25c-.15.033-.383.042-.7.025h-1.775c-.683 0-1.291-.042-1.825-.125a3.713 3.713 0 0 1-1.35-.475c-.75-.467-1.291-.95-1.625-1.45a3.028 3.028 0 0 1-.475-1.65c0-.367.05-.758.15-1.175.1-.417.25-.917.45-1.5l.275-.85c.267-.8.45-1.325.55-1.575.067-.133.217-.45.45-.95.234-.5.367-.933.4-1.3a4.23 4.23 0 0 0 .25-.55l.225-.525c.167-.533.509-1.317 1.025-2.35.117-.217.275-.542.475-.975.234-.55.4-.892.5-1.025.1-.15.35-.383.75-.7.034.033.209.125.525.275.367.15.634.308.8.475.184.167.275.392.275.675 0 .167-.041.392-.125.675-.2.567-.416 1.008-.65 1.325-.35.617-.783 1.508-1.3 2.675-.033.117-.1.275-.2.475l-.375 1.05c-.05.15-.2.558-.45 1.225-.233.65-.483 1.25-.75 1.8 0 .2-.041.4-.125.6-.133.3-.183.567-.15.8-.266.417-.4.933-.4 1.55 0 .183.017.408.05.675l.125.15c.35.4 1.342.6 2.975.6l1.1-.025c.05-.167.1-.35.15-.55.05-.2.1-.35.15-.45.45-2.067.934-3.725 1.45-4.975.05-.117.15-.333.3-.65.15-.333.267-.642.35-.925.35-1.267.9-2.808 1.65-4.625.084-.217.192-.542.325-.975.1-.383.225-.758.375-1.125.134-.283.242-.467.325-.55.084-.083.225-.125.425-.125l.25.025c.267.017.525.117.775.3.267.167.45.367.55.6.084.117.125.25.125.4 0 .1-.025.225-.075.375-.216.783-.641 1.925-1.275 3.425l-.35.875c-.483 1.2-1.1 2.925-1.85 5.175-.05.15-.141.4-.275.75-.133.35-.225.675-.275.975-.033.417-.15.992-.35 1.725.45-.017 1.109-.108 1.975-.275.934-.167 1.634-.258 2.1-.275l.125-.35c.084-.267.15-.533.2-.8.117-.483.217-.875.3-1.175.1-.3.25-.583.45-.85.117-.483.25-.933.4-1.35a101.4 101.4 0 0 1 1.075-2.5c.234-.65.75-1.942 1.55-3.875l.675-1.6.35-.85c.2-.533.359-.925.475-1.175 0-.35.05-.567.15-.65.117-.1.317-.167.6-.2.234-.033.417-.075.55-.125l1.15.75c.034.233.092.425.175.575l-.025.425c-.266.333-.791 1.433-1.575 3.3a157.544 157.544 0 0 0-2.35 5.9c-.766 2.067-1.25 3.467-1.45 4.2.1-.033.375-.108.825-.225.467-.133.917-.2 1.35-.2.167 0 .292.008.375.025.2.017.4.083.6.2.05.017.109.042.175.075.084.033.184.067.3.1.3.35.45.675.45.975 0 .15-.041.333-.125.55a3.564 3.564 0 0 0-.125.45c-.05.2-.1.358-.15.475l-.95 2.05c-.366.85-.7 1.567-1 2.15-.283.583-.6 1.142-.95 1.675-.133.567-.416.85-.85.85-.266 0-.566-.075-.9-.225-.316-.15-.5-.233-.55-.25Zm8.084-5.125a1.838 1.838 0 0 1-.4-.275.508.508 0 0 1-.1-.325c0-.167.067-.4.2-.7.15-.317.4-.808.75-1.475.1-.217.292-.6.575-1.15.717-1.367 1.075-2.375 1.075-3.025a.356.356 0 0 1-.025-.15c0-.167.134-.317.4-.45.05-.05.225-.192.525-.425.317-.233.567-.5.75-.8.217-.5.492-1.05.825-1.65.334-.617.909-1.617 1.725-3 .8-1.467 1.65-2.792 2.55-3.975.167-.233.35-.417.55-.55.217-.133.4-.2.55-.2.517 0 1.042.2 1.575.6.55.4.909.8 1.075 1.2.067.117.1.367.1.75 0 .517-.058 1.392-.175 2.625-.033.217-.066.558-.1 1.025-.05.75-.125 1.55-.225 2.4a260.59 260.59 0 0 0-.4 4.375 37.566 37.566 0 0 0-.125 2.95c0 .467.009.808.025 1.025v.175l-.025.575c-.1.1-.3.15-.6.15-.333 0-.666-.058-1-.175-.333-.1-.516-.225-.55-.375a.269.269 0 0 0-.075-.05c-.033-.017-.05-.092-.05-.225l.025-.55.075-1.4.125-3.825-.325.025c-.333 0-1.041.067-2.125.2-1.066.133-1.741.242-2.025.325-.15 0-.333.1-.55.3a2.86 2.86 0 0 0-.575.775c-.05.167-.166.408-.35.725-.183.3-.275.475-.275.525-.1.067-.191.158-.275.275-.066.1-.108.167-.125.2 0 .183-.166.658-.5 1.425-.316.75-.633 1.367-.95 1.85l-.675.95-.875-.675Zm5.975-8.6.7-.1a7.55 7.55 0 0 1 .925-.125c.8-.2 1.35-.3 1.65-.3.167 0 .284.017.35.05.05.067.1.117.15.15a.734.734 0 0 0 .125.025c.034-.133.167-1.042.4-2.725.234-1.683.35-2.717.35-3.1 0-.267-.008-.492-.025-.675a2.098 2.098 0 0 0-.05-.375c-.15 0-.491.4-1.025 1.2a23.183 23.183 0 0 0-1.55 2.675c-.383.683-.65 1.025-.8 1.025-.116.117-.366.508-.75 1.175-.383.667-.533 1.033-.45 1.1Zm11.844 8.75c-.234.067-.409.1-.525.1a.878.878 0 0 1-.725-.35c-.184-.233-.275-.583-.275-1.05 0-.667.2-1.533.6-2.6l.275-.825c.833-2.433 1.375-3.833 1.625-4.2.083-.2.125-.408.125-.625 0-.083.041-.208.125-.375l.2-.4c.2-.367.3-.642.3-.825 0-.067.1-.4.3-1 .2-.617.4-1.083.6-1.4.1-.25.216-.492.35-.725.133-.25.2-.408.2-.475 0-.033-.184-.05-.55-.05-.517 0-1.159.025-1.925.075-.75.05-1.25.108-1.5.175-.35.083-.559.117-.625.1-.084-.033-.209-.192-.375-.475-.167-.3-.25-.567-.25-.8 0-.2.066-.333.2-.4.266-.167.533-.275.8-.325.283-.05.675-.092 1.175-.125.516-.033.875-.067 1.075-.1.35 0 .675-.017.975-.05.316-.05.5-.075.55-.075.133 0 .3-.025.5-.075.466-.083.783-.125.95-.125.233 0 .466-.025.7-.075a5.54 5.54 0 0 1 .525-.05h1.55c.216 0 .516-.033.9-.1.383-.067.725-.133 1.025-.2.45-.1.858-.15 1.225-.15.433 0 .791.083 1.075.25.283.15.458.375.525.675.15.833-1.109 1.325-3.775 1.475-.15.017-.442.042-.875.075-.417.033-.692.075-.825.125-.117.05-.175.125-.175.225s-.05.2-.15.3c-.084.083-.142.15-.175.2-.134.05-.359.467-.675 1.25-.317.767-.475 1.242-.475 1.425l-.1.2a.576.576 0 0 0-.075.225c-.117.3-.3.683-.55 1.15-.5 1.317-.817 2.133-.95 2.45l-.275.675c-.367 1.217-.634 2.042-.8 2.475a.862.862 0 0 1-.2.225.37.37 0 0 0-.1.275c0 .083-.242.75-.725 2-.484 1.25-.75 1.883-.8 1.9Zm11.925.675a5.959 5.959 0 0 1-1.5-.8 3.086 3.086 0 0 1-1.025-1.325c-.266-.75-.4-1.633-.4-2.65 0-.983.059-1.817.175-2.5a10.5 10.5 0 0 1 .6-2.125l.225-.525c.267-.683.459-1.133.575-1.35.284-.65.784-1.492 1.5-2.525.667-1 1.192-1.742 1.575-2.225.4-.5.809-.925 1.225-1.275.417-.367 1.025-.825 1.825-1.375.484-.35 1.075-.525 1.775-.525.55 0 1.05.133 1.5.4.467.267.817.683 1.05 1.25.167.283.25.675.25 1.175 0 .8-.191 1.667-.575 2.6-.383.933-.841 1.642-1.375 2.125-.116.117-.275.175-.475.175-.2 0-.416-.058-.65-.175a2.776 2.776 0 0 1-.625-.425 6.15 6.15 0 0 1-.25-.5c-.016-.05.017-.083.1-.1.15-.183.367-.533.65-1.05.3-.533.5-.95.6-1.25l.15-.7c.1-.433.15-.717.15-.85a.55.55 0 0 0-.175-.4.27.27 0 0 0-.2-.075c-.133 0-.366.083-.7.25-.383.167-.841.508-1.375 1.025-.516.5-1.033 1.1-1.55 1.8-.766 1-1.358 1.825-1.775 2.475-.4.65-.708 1.308-.925 1.975l-.275.65c.017.067-.008.233-.075.5a3.152 3.152 0 0 1-.225.65c-.233.967-.35 1.842-.35 2.625 0 .617.059 1.15.175 1.6.134.45.317.783.55 1 .134.117.325.175.575.175.267 0 .567-.058.9-.175a24.8 24.8 0 0 0 1.1-.45c.384-.167.65-.283.8-.35.384-.15.742-.325 1.075-.525.35-.2.609-.383.775-.55.434-.317.784-.475 1.05-.475.217-.067.384 0 .5.2.134.2.2.475.2.825 0 .233-.158.517-.475.85-.316.317-.691.6-1.125.85-.183.183-.591.4-1.225.65a9.462 9.462 0 0 1-1.875 1.025c-.7.3-1.341.45-1.925.45-.133 0-.3-.017-.5-.05Zm10.756-.75a4.374 4.374 0 0 1-.75-.725c-.2-.267-.3-.508-.3-.725 0-.317.275-.542.825-.675 1.716-.417 3.641-2.092 5.775-5.025-.734-.4-1.284-.817-1.65-1.25-.367-.45-.634-1.067-.8-1.85a4.753 4.753 0 0 1-.125-1c.083-.117.125-.292.125-.525.016-.233.041-.4.075-.5l.55-1.625c.55-1.583 2.083-2.808 4.6-3.675.816-.333 1.416-.475 1.8-.425l.325-.025c.15-.05.3-.075.45-.075.116 0 .2.008.25.025a.747.747 0 0 1 .225-.025c.283 0 .6.092.95.275.366.167.675.383.925.65.266.267.4.533.4.8 0 .083-.009.15-.025.2a52.33 52.33 0 0 1-.325.925c-.267.833-.484 1.45-.65 1.85-.45 1.1-.975 2.667-1.575 4.7-.584 2.033-.917 3.517-1 4.45-.134.367-.25.975-.35 1.825-.017.15-.05.367-.1.65a5.012 5.012 0 0 1-.125.7c-.05.217-.2.408-.45.575-.25.167-.5.25-.75.25a.771.771 0 0 1-.35-.075 2.349 2.349 0 0 1-.525-.375 14.114 14.114 0 0 1-.525-.5c.05-.183.108-.458.175-.825.066-.45.158-.817.275-1.1.033-.35.108-.825.225-1.425a4.48 4.48 0 0 0 .1-.525c.1-.533.2-.925.3-1.175l.05-.4c-.234.383-.875 1.158-1.925 2.325a26.573 26.573 0 0 1-3.325 3.125c-1.15.9-2.075 1.3-2.775 1.2Zm8.575-8.975c.783-2.483 1.45-4.692 2-6.625a6.579 6.579 0 0 0-2.25.675 5.68 5.68 0 0 0-1.85 1.45 3.75 3.75 0 0 0-.875 2.025 2.85 2.85 0 0 1-.125.6.716.716 0 0 0-.075.325c0 .333.133.658.4.975.283.317.575.475.875.475.2 0 .408-.067.625-.2.216-.133.341-.208.375-.225l.9.525Zm-167.421 41.3c-.367 0-.858-.092-1.475-.275-.617-.167-1.033-.475-1.25-.925l-.425-.475c-.467-.5-.725-.792-.775-.875l-.8-.8a52.82 52.82 0 0 1-.925-.9 7.693 7.693 0 0 1-.65-.825c-.2-.2-.442-.55-.725-1.05-.1-.183-.208-.35-.325-.5-.1-.167-.192-.267-.275-.3-.183.133-.317.442-.4.925-.167.35-.35.942-.55 1.775-.133.3-.25.625-.35.975-.083.333-.142.558-.175.675-.167.467-.292.742-.375.825l-.225.975c-.167.85-.417 1.275-.75 1.275-.217 0-.525-.175-.925-.525l-.35-.55c-.217-.317-.325-.492-.325-.525.033-.083.092-.25.175-.5l.3-.975.425-1.325c.65-1.933 1.067-3.283 1.25-4.05a.384.384 0 0 0 .1-.2c.017-.083.025-.175.025-.275.167-.5.442-1.25.825-2.25.383-1.017.675-1.683.875-2 .05-.1.083-.2.1-.3.017-.1.025-.167.025-.2a.31.31 0 0 1 .05-.175.372.372 0 0 1 .175-.1c0-.217.042-.375.125-.475.117-.25.367-.933.75-2.05.4-1.117.6-1.708.6-1.775 0-.083.033-.167.1-.25.067-.083.108-.133.125-.15.133-.117.358-.175.675-.175.283 0 .567.067.85.2.3.117.517.275.65.475a2.1 2.1 0 0 1-.1.525c-.05.217-.125.45-.225.7l-.475 1.075c-.033.117-.133.408-.3.875-.15.45-.342.992-.575 1.625-.35.7-.625 1.317-.825 1.85-.2.533-.267.833-.2.9.117-.083.367-.292.75-.625.4-.35.825-.742 1.275-1.175.9-.917 1.842-1.733 2.825-2.45 1.233-.833 2.008-1.342 2.325-1.525.317-.183.608-.283.875-.3a.74.74 0 0 1 .275-.05c.067 0 .15.033.25.1s.2.125.3.175c.05.1.1.275.15.525.067.233.108.392.125.475.017.167-.083.375-.3.625-.2.233-.483.442-.85.625-1.3.8-2.775 1.808-4.425 3.025-1.633 1.2-2.533 2-2.7 2.4-.083.1-.1.192-.05.275.05.083.15.2.3.35.167.133.308.25.425.35.217.267.383.483.5.65.133.15.217.25.25.3 0 .1.55.675 1.65 1.725.033.083.2.292.5.625.433.467.733.842.9 1.125 1.083 1.133 1.625 1.967 1.625 2.5 0 .25-.142.375-.425.375Zm13.577.45a8.553 8.553 0 0 1-1.45.125c-.417 0-.758-.058-1.025-.175a2.022 2.022 0 0 1-.725-.475c-.15-.133-.225-.333-.225-.6 0-.167.033-.283.1-.35.233-.15.475-.267.725-.35.25-.083.675-.15 1.275-.2 1.2.05 2.342-.158 3.425-.625 1.083-.467 1.833-1.025 2.25-1.675.317-.567.475-1.042.475-1.425 0-.417-.192-.833-.575-1.25a1.356 1.356 0 0 0-.375-.225 1.17 1.17 0 0 0-.4-.1c-.15-.017-.292-.033-.425-.05-.3 0-.542.033-.725.1-.167.05-.383.15-.65.3-.083.05-.258.15-.525.3a2.505 2.505 0 0 1-.725.25c-.117.15-.308.275-.575.375a2.3 2.3 0 0 1-.725.125c-.233 0-.392-.042-.475-.125-.1 0-.183.05-.25.15-.067.083-.175.283-.325.6-.033.1-.108.267-.225.5-.033.133-.142.417-.325.85-.033.1-.092.25-.175.45-.067.2-.108.35-.125.45-.25.617-.458 1.033-.625 1.25-.167.217-.333.325-.5.325a.332.332 0 0 1-.2-.075 2.14 2.14 0 0 1-.225-.2c-.067-.1-.15-.2-.25-.3-.117 0-.233-.067-.35-.2a.908.908 0 0 1-.175-.575c0-.167.042-.358.125-.575.083-.183.317-.808.7-1.875.783-2.133 1.2-3.217 1.25-3.25.017-.217.067-.375.15-.475.1-.117.15-.192.15-.225.033-.067.175-.425.425-1.075.25-.65.483-1.083.7-1.3 0-.133.233-.567.7-1.3.05-.117.175-.425.375-.925.067-.2.125-.35.175-.45a4.72 4.72 0 0 1 .1-.225c.15-.167.225-.308.225-.425 0-.067-.042-.142-.125-.225-.083-.1-.15-.175-.2-.225-.033-.033-.067-.15-.1-.35-.033-.2-.05-.358-.05-.475 0-.05.275-.217.825-.5.567-.3.967-.5 1.2-.6.233-.1.533-.225.9-.375.383-.15.7-.267.95-.35.233-.083.492-.142.775-.175a3.92 3.92 0 0 1 .75-.025c.183-.067.367-.1.55-.1.25 0 .483.058.7.175.267.083.608.3 1.025.65.417.333.65.633.7.9.067.333.1.575.1.725a1.5 1.5 0 0 1-.175.675c-.033.35-.167.867-.4 1.55s-.417 1.092-.55 1.225c-.233.367-.4.642-.5.825-.4.717-.792 1.283-1.175 1.7a8.837 8.837 0 0 0-.25.275c-.133.15-.35.4-.65.75.083 0 .25.017.5.05.267.017.458.058.575.125.383.25.725.567 1.025.95.317.367.542.75.675 1.15.1.15.15.35.15.6 0 .333-.083.725-.25 1.175-.15.433-.35.833-.6 1.2-.15.283-.475.692-.975 1.225-.483.517-.758.775-.825.775a.54.54 0 0 0-.325 0c-.117.05-.317.142-.6.275-.133.15-.275.275-.425.375-.133.117-.242.158-.325.125a9.842 9.842 0 0 0-.95.45c-.433.117-1.075.25-1.925.4Zm-.775-8.25c.033.05.25-.008.65-.175.417-.167.858-.383 1.325-.65.483-.267.85-.517 1.1-.75.317-.217.608-.483.875-.8.267-.333.4-.55.4-.65.017-.05.067-.158.15-.325.1-.167.225-.342.375-.525.2-.2.358-.392.475-.575.133-.2.2-.333.2-.4.017-.05.058-.15.125-.3.083-.15.183-.325.3-.525.183-.233.308-.508.375-.825.083-.317.133-.492.15-.525.033-.35-.025-.608-.175-.775-.133-.183-.342-.275-.625-.275l-.225.025-.6.075a4.208 4.208 0 0 0-.725.15c-.2.05-.392.125-.575.225-.417.267-.625.475-.625.625 0 .083.058.125.175.125.083 0 .125.058.125.175 0 .233-.158.608-.475 1.125-.267.467-.808 1.492-1.625 3.075-.8 1.583-1.183 2.408-1.15 2.475Zm18.86-10.75c.566 0 1.091.15 1.575.45.5.283.891.692 1.175 1.225.3.517.45 1.108.45 1.775 0 .933-.059 2.158-.175 3.675a75.692 75.692 0 0 1-.45 4.275c-.2 1.4-.375 3.2-.525 5.4-.1 1.167-.184 1.967-.25 2.4-.05.45-.15.708-.3.775l.025.05c0 .067-.059.125-.175.175a1.08 1.08 0 0 1-.425.075c-.3 0-.6-.058-.9-.175-.3-.117-.45-.367-.45-.75 0-.217.041-.742.125-1.575.183-1.567.291-2.85.325-3.85l.15-1.1h-.625c-.284.083-.692.125-1.225.125l-1.575-.025c-.45 0-.759.017-.925.05a.474.474 0 0 0-.35.2c-.084.1-.184.308-.3.625-.084.267-.259.675-.525 1.225-.584 1.417-1.1 2.425-1.55 3.025-.45.6-.892.9-1.325.9-.117 0-.309-.05-.575-.15-.25-.1-.375-.233-.375-.4 0-.233.175-.717.525-1.45.366-.733.641-1.225.825-1.475.016 0 .016-.008 0-.025a.341.341 0 0 1-.025-.15c0-.367.216-.975.65-1.825.066-.2.133-.392.2-.575.083-.2.125-.325.125-.375l.475-.925c0-.1.058-.308.175-.625.133-.333.291-.692.475-1.075 0-.25.05-.492.15-.725.1-.25.233-.517.4-.8.183-.333.275-.55.275-.65 0-.033.016-.108.05-.225.05-.117.141-.308.275-.575-.034 0-.05-.008-.05-.025s.066-.108.2-.275c0-.15.058-.317.175-.5.133-.2.35-.75.65-1.65l.5-1.075c.133-.217.308-.625.525-1.225l.2-.525.2-.55c.05-.067.125-.192.225-.375s.258-.333.475-.45c.216-.117.508-.183.875-.2.2-.05.408-.075.625-.075Zm.525 9.55c0-.183.058-.858.175-2.025.233-2.4.358-3.875.375-4.425 0-.25-.009-.392-.025-.425 0-.15-.134-.292-.4-.425-.267-.133-.459-.2-.575-.2-.15 0-.275.083-.375.25-.1.167-.2.375-.3.625-.1.233-.167.4-.2.5l-.225.575c-.284.7-.617 1.558-1 2.575-.384 1-.6 1.6-.65 1.8-.1.1-.275.417-.525.95-.234.517-.35.842-.35.975 0 .417.208.625.625.625.066 0 .2-.008.4-.025.216-.033.45-.092.7-.175h.35c.266 0 .533-.042.8-.125.433-.067.716-.117.85-.15.15-.033.241-.108.275-.225.05-.117.075-.342.075-.675Zm4.954 9.225c-.25 0-.508-.167-.775-.5-.266-.317-.4-.717-.4-1.2 0-.383.092-.758.275-1.125.334-.7.667-1.267 1-1.7.117-.167.2-.308.25-.425.067-.117.109-.275.125-.475.234-.3.542-.842.925-1.625.65-1.05 1.575-2.667 2.775-4.85.167-.3.492-.892.975-1.775.5-.883.834-1.408 1-1.575l.125-.175c-.05.083.034-.108.25-.575.234-.467.475-.883.725-1.25.267-.383.5-.575.7-.575.217 0 .467.092.75.275.284.167.525.425.725.775.217.333.325.733.325 1.2 0 .2-.008.358-.025.475l-.25 1.7-.125.55a170.86 170.86 0 0 1-.975 4.525c-.383 1.7-.575 2.725-.575 3.075 0 .1.017.183.05.25.034.05.075.075.125.075.034 0 .117-.05.25-.15.134-.117.25-.283.35-.5l.325-.5.425-.625a48.692 48.692 0 0 0 1.725-2.625c.684-1.117 1.792-3.025 3.325-5.725.317-.467.575-.875.775-1.225.267-.433.525-.842.775-1.225.25-.383.442-.625.575-.725a.971.971 0 0 1 .625-.2c.25.017.509.108.775.275.284.167.517.4.7.7.2.3.3.625.3.975 0 .4-.125 1.133-.375 2.2a34.873 34.873 0 0 1-.825 3.1c-.066.35-.275 1.175-.625 2.475a69.154 69.154 0 0 0-.6 2.3c-.116.567-.175 1.025-.175 1.375v.2c-.25.45-.375 1.35-.375 2.7-.066.55-.191.975-.375 1.275-.183.317-.333.475-.45.475l-.075-.025a.4.4 0 0 0-.25.1c-.066.083-.166.125-.3.125-.416 0-.691-.15-.825-.45-.116-.3-.175-.708-.175-1.225 0-.3.009-.55.025-.75.05-.433.584-2.692 1.6-6.775.8-3.2 1.2-4.875 1.2-5.025l-.35.6c-.333.633-.75 1.375-1.25 2.225l-1.75 3.275c-.216.3-.4.592-.55.875a8.61 8.61 0 0 0-.225.5c-.2.4-.6.975-1.2 1.725-.2.25-.316.408-.35.475-.083.183-.35.508-.8.975-.45.45-.925.867-1.425 1.25-.5.367-.916.55-1.25.55-.45 0-.858-.217-1.225-.65-.35-.433-.525-.958-.525-1.575 0-.45.084-1.2.25-2.25.267-1.15.55-2.317.85-3.5.3-1.183.509-1.958.625-2.325.05-.15.075-.317.075-.5 0-.117-.016-.192-.05-.225-.016 0-.041.017-.075.05a1.044 1.044 0 0 1-.075.125c-.25.4-.641 1.1-1.175 2.1-.533 1-1.108 2.175-1.725 3.525-2.383 4.383-3.75 6.775-4.1 7.175Zm22.538-6.025a.735.735 0 0 1-.575-.3 1.145 1.145 0 0 1-.175-.625c0-.017-.016-.083-.05-.2a2.575 2.575 0 0 1-.025-.35c0-.083.009-.15.025-.2 0-.083.075-.292.225-.625.117-.283.2-.492.25-.625.184-.317.459-.683.825-1.1.384-.433.717-.75 1-.95l.425-.3c0-.067.117-.192.35-.375.234-.183.434-.317.6-.4.067-.05.184-.133.35-.25.167-.117.325-.242.475-.375.367-.367.642-.708.825-1.025.184-.333.317-.667.4-1 .084-.333.209-.9.375-1.7.017-.55-.008-.9-.075-1.05-.05-.15-.183-.308-.4-.475a4.177 4.177 0 0 0-.55-.05c-1.116 0-1.983.675-2.6 2.025-.116.3-.175.517-.175.65 0 .083.025.192.075.325 0 .1.017.25.05.45.05.183.075.325.075.425-.033.017-.141.05-.325.1-.183.05-.375.075-.575.075-.333 0-.591-.092-.775-.275-.033-.05-.1-.133-.2-.25-.1-.133-.183-.25-.25-.35a.785.785 0 0 1-.125-.3c-.016-.1-.025-.2-.025-.3.017-.117.025-.233.025-.35.2-.633.5-1.258.9-1.875s.884-1.067 1.45-1.35c.3-.133.592-.275.875-.425.3-.167.492-.275.575-.325h.25l.575-.075h.275c.167 0 .25.033.25.1h.725c.3.083.675.275 1.125.575.45.283.767.525.95.725.1.317.15.7.15 1.15 0 .833-.158 1.742-.475 2.725-.316.967-.725 1.725-1.225 2.275l-.55.5c-.816.733-1.333 1.225-1.55 1.475-.533.3-1.025.758-1.475 1.375a7.45 7.45 0 0 0-1 1.9c-.316.667-.741 1-1.275 1Zm-.575 4.425c-.316.133-.583.2-.8.2-.25 0-.533-.117-.85-.35-.25-.25-.375-.5-.375-.75 0-.417.309-.833.925-1.25.167-.1.317-.183.45-.25.134-.067.25-.1.35-.1.134 0 .359.067.675.2.484.283.725.625.725 1.025 0 .467-.366.892-1.1 1.275Z" fill="#1EA6F9"/></g><defs><clipPath id="a"><path fill="#fff" d="M0 0h378v716H0z"/></clipPath></defs></svg>