<svg width="378" height="716" fill="none" xmlns="http://www.w3.org/2000/svg"><g clip-path="url(#a)"><path opacity=".23" d="M110.151 582.659c-9.968-6.509-24.92 2.712-31.151 8.136L176.606 454l94.491 40.174L282 597.406c-5.884-2.203-19.833-6.611-28.555-6.611-10.903 0-51.399 12.205-70.609 12.205-19.209 0-60.225-12.205-72.685-20.341Z" fill="#070707"/><path d="M148.547 579.982c37.882 10.243 76.921 7.501 107.214-3.78 8.255 7.971 28.412 25.695 29.804 18.253a101.414 101.414 0 0 0-1.255-33.294 68.893 68.893 0 0 0 21.451-24.364c19.118-38.66 16.608-78.986-10.176-115.335-3.549-19.233-21.588-60.929-29.549-65.394 22.274-26.44 28.274-64.63-10.275-88.779-38.548-24.148-91.352-9.263-98.038 27.791-6.686 37.055 10.549 44.301 10.549 44.301s-23.529 10.753-31.176 16.687c-7.647 5.934-20.255 16.686-20.255 16.686l-23.118 9.91-9.43 4.113-3.53 4.309S44.39 413.647 41.194 449.39c-3.196 35.742 9.294 68.547 12.824 70.505 3.53 1.959 24.294 24.893 24.294 24.893l-4.55 10.889-1.215 15.472-.274 12.809-1.216 5.562 3.627 1.155 7.961-3.27 11.765-10.008 13.902-10.987c4.2.793 8.284 2.109 12.156 3.917 5.137 2.565 28.079 9.655 28.079 9.655Z" fill="#F5FCFF"/><path d="M142.35 364.822s16.804-10.948 24.314-14.434c7.51-3.486 10.255-5.014 10.255-5.014a91.267 91.267 0 0 0 16.019 1.959c6.491 0 17.765-3.643 23.784-3.76 8.765-1.117 23.785 5.738 38.039 14.257 18.02 10.753 31.373 40.757 34.039 51.744 2.667 10.987 0 3.917 0 3.917s-29.274-35.096-84.587-45.613c-55.314-10.518-64.843-.236-64.843-.236l2.98-2.82Z" fill="#B5E3FF"/><path d="M52.018 491.634s-8.02-34.998 10.608-65.746a112.211 112.211 0 0 1 9.803-13.71c-12.725 43.949 14.55 9.303 22.824 2.723 7.843-6.307 69.764 8.754 9.176-28.163 24.588-12.3 61.98-21.544 111.215-7.09 30.529 9.009 60.47 28.888 75.588 51.019-70.255 11.241-8.549 17.998-5.471 25.46 3.922 9.557 9.98 55.797 21.569 24.892 3.392 25.226-2.236 48.963-15.843 62.672-21.02-30.024-46.059-48.473-120.941-45.554-48.686-35.997-93.509-26.499-118.528-6.503Z" fill="#B5E3FF"/><path d="M270.467 356.068s13.725-20.682 10.569-37.682c-2.883-15.002-13.079-44.066-48.569-53.506-26.254-7.011-62.156 2.86-67.313 42.774-3.745 28.986 27.118 40.423 32.039 39.973 4.922-.451 26.667-5.504 29.412-10.987 7.568 1.488 39.372 19.428 39.372 19.428h4.49ZM64.586 446.139s16.177-49.491 27.451-53.115c11.275-3.623 28.431 10.204 38.961 18.116-7.843 1.078-20.432 6.248-23.059 8.383-2.882-3.016-12.53-7.149-12.53-7.149l-4.274 3.917-2.569 12.789a70.156 70.156 0 0 0-12.392 6.737 126.641 126.641 0 0 0-11.588 10.322Zm205.45 12.319s-5.255-8.5-8.137-10.243c-2.883-1.743-8.51-5.876-8.51-5.876s39.215-7.129 45.686-1.39c6.47 5.738 2.176 55.112 2.176 55.112l-2.745 6.267s-5.196-10.243-7.059-14.865c-1.862-4.622-9.098-13.259-9.098-13.259l4.079-12.495-3.255-5.66h-8.137l-5 2.409ZM83.312 549.9a11.159 11.159 0 0 0-4.255 6.619c-1 4.505-1.628 14.748 0 16.882 1.627 2.135 2.49 5.876 1.627 7.619a7.105 7.105 0 0 1-4.02 3.917 2.66 2.66 0 0 0-1.774 1.379 2.663 2.663 0 0 0-.088 2.244c.608 1.508 5 1.136 6 0s10.843-8.872 13.51-11.124c2.666-2.252 10.451-10.889 13.901-10.987 3.451-.098-5.509-4.779-5.509-4.779L83.312 549.9Zm174.214 26.067s9.255-4.642 11.588-5.876c2.334-1.233 14.255-8.225 14.255-8.225s-5.882 8.049-5.882 14.121c0 6.071 1.745 11.613 2.941 12.377 1.196.764 4.51-.372 5.568.94 1.059 1.312-1.058 5.171-1.823 5.171-.765 0-8.177-.745-10.588-4.466-2.412-3.721-10.373-9.459-12.569-10.34-2.196-.882-5.255-2.37-5.255-2.37l1.765-1.332ZM126.151 454.405c12.436-3.765 20.435-13.681 17.866-22.149-2.569-8.467-14.734-12.28-27.17-8.515-12.436 3.764-20.435 13.681-17.866 22.148 2.569 8.468 14.733 12.28 27.17 8.516Zm136.125 33.543c6.989-5.437 6.182-18.145-1.802-28.386-7.985-10.241-20.123-14.136-27.112-8.699-6.989 5.436-6.182 18.145 1.803 28.385 7.984 10.241 20.122 14.136 27.111 8.7Z" fill="#1EA6F9"/><path d="M109.755 500.616c1.413-6.931-7.488-14.594-19.882-17.115-12.394-2.521-23.587 1.055-25 7.986-1.413 6.932 7.488 14.595 19.882 17.116 12.394 2.521 23.587-1.055 25-7.987Zm169.721 40.859c2.012-6.782-6.189-15.19-18.316-18.778-12.128-3.588-23.59-.998-25.601 5.784-2.012 6.783 6.189 15.19 18.316 18.778 12.128 3.588 23.59.999 25.601-5.784Z" fill="#FFDCD9"/><path d="M195.527 588.364a175.299 175.299 0 0 1-38.785-4.191c-30.882-7.09-130.312-37.877-116.293-135.821 3.432-24.05 16.294-43.87 37.863-58.97a2.097 2.097 0 0 1 2.392 3.427c-20.745 14.395-32.921 33.294-36.196 56.13-13.51 94.439 83.117 124.286 113.058 131.219 51.333 11.751 135.862.137 154.215-62.554a104.313 104.313 0 0 0-2.471-67.685 2.098 2.098 0 0 1 2.813-2.672c.51.225.908.644 1.109 1.164a108.5 108.5 0 0 1 2.588 70.368c-14.882 50.842-71.157 69.585-120.293 69.585Zm106.881-154.975a2.097 2.097 0 0 1-1.784-.979c-18.726-30.239-52.784-52.292-95.882-62.202-28.255-6.482-75.588-4.328-112.705 15.786a2.104 2.104 0 0 1-2.649-.955 2.094 2.094 0 0 1 .688-2.727c38.039-20.604 86.608-22.817 115.686-16.178 44.196 10.126 79.176 32.884 98.509 64.082a2.075 2.075 0 0 1-1.765 3.173h-.098Zm-33.372-73.424c-.5.009-.984-.173-1.353-.509a2.062 2.062 0 0 1-.73-1.42 2.067 2.067 0 0 1 .494-1.518c.157-.156 14.844-17.489 16.275-37.035 1.431-19.546-19.216-58.755-63.921-62.28a55.236 55.236 0 0 0-22.951 2.418 55.174 55.174 0 0 0-19.951 11.585c-13.725 12.28-19.608 28.888-19.608 33.726-.176 6.247.549 21.837 10.804 31.805 6.745 6.542 16.51 9.519 29.039 8.814 12.53-.705 22.02-4.603 28.059-11.634a33.154 33.154 0 0 0 7.216-22.581 2.091 2.091 0 0 1 .54-1.412 2.103 2.103 0 0 1 2.809-.278c.419.311.707.767.807 1.279a36.823 36.823 0 0 1-8.176 25.675c-6.784 7.834-17.255 12.339-31.078 13.103-13.824.763-24.569-2.605-32.176-9.989-11.451-11.124-12.314-28.143-12.079-34.9.177-6.169 6.706-23.835 21.059-36.702a59.22 59.22 0 0 1 21.398-12.444 59.278 59.278 0 0 1 24.621-2.617c48.078 3.917 69.353 44.85 67.745 66.726-1.53 20.956-16.628 38.719-17.255 39.464a2.125 2.125 0 0 1-1.588.724Z" fill="#070707"/><path d="M116.841 374.83a2.133 2.133 0 0 1-1.53-.666 2.095 2.095 0 0 1 .118-2.957 243.009 243.009 0 0 1 25.804-20.466 163.816 163.816 0 0 1 25.843-13.201 2.109 2.109 0 0 1 2.725 1.195 2.101 2.101 0 0 1-1.196 2.722 161.116 161.116 0 0 0-25.098 12.809 247.59 247.59 0 0 0-25.255 19.977 1.936 1.936 0 0 1-.646.436 1.951 1.951 0 0 1-.765.151Zm178.724 48.727a2.078 2.078 0 0 1-2.078-1.958c0-.196-.687-19.468-14.275-45.418-13.588-25.95-52.784-38.68-53.176-38.817a2.079 2.079 0 0 1-1.589-2.681 2.071 2.071 0 0 1 1.152-1.264 2.079 2.079 0 0 1 1.712.028c1.686.549 41.333 13.573 55.587 40.756 14.079 26.871 14.726 46.436 14.745 47.259a2.092 2.092 0 0 1-1.96 2.135l-.118-.04ZM75.978 592.771c-3.921 0-5.686-1.528-6.47-2.86a5.34 5.34 0 0 1 .412-5.64c.725-1.234.568-7.834.47-12.182 0-3.133-.137-6.365 0-9.244.255-8.793 5.882-18.664 6.059-19.076a2.073 2.073 0 0 1 1.26-.979c.263-.073.539-.093.81-.06a2.094 2.094 0 0 1 1.389.787 2.083 2.083 0 0 1 .168 2.309s-5.294 9.381-5.51 17.137v9.028c.177 7.834.216 12.456-1.156 14.552a1.37 1.37 0 0 0-.294 1.273c.215.352 1.235.901 3.666.764 2.824-.177 5.608-3.075 8.55-6.13a40.629 40.629 0 0 1 6.588-5.876 40.92 40.92 0 0 0 5.156-4.289c3.824-3.545 8.177-7.56 13.961-7.56a2.1 2.1 0 0 1 1.895 2.086 2.097 2.097 0 0 1-1.895 2.086c-4.157 0-7.549 3.133-11.137 6.443a44.252 44.252 0 0 1-5.686 4.72 36.555 36.555 0 0 0-5.883 5.308c-3.372 3.505-6.862 7.109-11.294 7.403h-1.059Zm206.842 4.563c-2.843 0-7.039-1.762-11.569-6.796-4.529-5.033-18.254-11.868-18.392-11.947a2.093 2.093 0 1 1 1.961-3.701c.608.294 14.765 7.52 19.608 12.867 4.372 4.838 7.667 5.543 8.745 5.386a7.827 7.827 0 0 0 1.627-5.249c-.98-.724-3.235-3.075-.686-15.413a21.315 21.315 0 0 0-1.372-10.086 2.094 2.094 0 0 1 1.96-3.584c2.922 1.057 4.216 10.732 3.432 14.512-1.353 6.581-1.236 10.635-.706 11.399 1.333.9 1.843 2.976 1.333 5.699-.431 2.213-1.961 6.13-4.568 6.757-.45.109-.911.161-1.373.156ZM64.586 446.981h-.392a2.099 2.099 0 0 1-1.568-2.487c1.784-9.342 11.254-56.189 22.078-60.302 22.196-8.461 47.274 23.502 48.333 24.931a2.09 2.09 0 0 1 .409 1.541 2.083 2.083 0 0 1-2.343 1.786 2.085 2.085 0 0 1-1.38-.8c-.235-.294-24.196-30.925-43.529-23.502-6.353 2.409-15.216 34.9-19.47 57.188a2.097 2.097 0 0 1-2.138 1.645Z" fill="#070707"/><path d="M89.684 431.039a2.08 2.08 0 0 1-2.078-1.959c0-2.526-.118-15.354 5.666-18.175 6.216-3.016 13.843 6.268 14.686 7.325a2.084 2.084 0 1 1-3.254 2.605c-2.51-3.153-7.314-7.286-9.589-6.189-2.274 1.097-3.47 9.283-3.352 14.336a2.076 2.076 0 0 1-1.961 2.135l-.118-.078Zm207.881 75.441a2.2 2.2 0 0 1-.922-.216 2.093 2.093 0 0 1-.941-2.8c.236-.47 23.294-47.631 8.726-66.295-8.785-11.281-39.216.568-50.098 6.071a2.095 2.095 0 0 1-2.833-.871 2.09 2.09 0 0 1 .872-2.83c1.745-.882 42.588-21.191 55.274-4.936 16.177 20.741-7.274 68.684-8.274 70.721a2.135 2.135 0 0 1-1.804 1.156Z" fill="#070707"/><path d="M282.349 476.965a2.056 2.056 0 0 1-1.96-2.839c2.745-6.894 3.921-14.219 2.49-15.335-1.961-1.587-8.314.313-11.941 2.095a2.09 2.09 0 0 1-2.794-.95 2.08 2.08 0 0 1 .951-2.791c1.96-.92 11.549-5.385 16.352-1.645 4.804 3.741.334 16.393-1.176 20.173a2.096 2.096 0 0 1-1.922 1.292Zm-161.371 16.432c7.808 0 14.137-6.322 14.137-14.121 0-7.798-6.329-14.12-14.137-14.12-7.808 0-14.137 6.322-14.137 14.12 0 7.799 6.329 14.121 14.137 14.121Zm108.627 26.498c7.807 0 14.137-6.322 14.137-14.12 0-7.799-6.33-14.121-14.137-14.121-7.808 0-14.137 6.322-14.137 14.121 0 7.798 6.329 14.12 14.137 14.12Z" fill="#070707"/><path d="M112.213 482.645c.118-3.251 5.628-4.622 9.393-3.506 3.764 1.117 7.254 2.879 6.882 5.249-.373 2.37-4.353 4.387-8.118 3.917-3.764-.47-8.274-2.154-8.157-5.66Zm108.607 26.009c.393-3.447 6.04-4.505 9.922-3.917 3.882.587 7.059 3.427 6.686 6.051-.372 2.625-4.667 4.309-8.431 3.82-3.765-.49-8.549-2.488-8.177-5.954Z" fill="#333"/><path d="M128.115 480.021a3.371 3.371 0 0 0 3.373-3.369c0-1.86-1.51-3.369-3.373-3.369a3.371 3.371 0 0 0-3.372 3.369c0 1.86 1.51 3.369 3.372 3.369Zm-6.255.979a1.862 1.862 0 1 0 .003-3.719 1.862 1.862 0 0 0-.003 3.719Zm115.392 24.755a3.37 3.37 0 0 0 3.372-3.368 3.37 3.37 0 0 0-3.372-3.369 3.37 3.37 0 0 0-3.373 3.369 3.37 3.37 0 0 0 3.373 3.368Zm-6.255.979a1.86 1.86 0 1 0 0-3.721 1.862 1.862 0 1 0 0 3.721Z" fill="#fff"/><path d="M141.625 499.018s5.274 5.875 11.019 6.757c6.107.85 12.329.246 18.157-1.763 3.49 4.505 8.784 10.008 13.373 11.203 4.588 1.194 12.529 1.547 16.019-.49-6.196 28.046-21.353 30.102-32.882 28.574-10.902-1.449-26.902-8.362-26.686-28.026a61.979 61.979 0 0 1 1-16.255Z" fill="#4F172F"/><path d="M172.429 545.728a40.184 40.184 0 0 1-5.392-.372c-13.922-1.841-28.706-10.713-28.49-30.102a63.672 63.672 0 0 1 1.058-16.726 2.078 2.078 0 0 1 3.589-.881s4.823 5.366 9.803 6.052a37.104 37.104 0 0 0 17.216-1.645 2.06 2.06 0 0 1 2.294.685c4.412 5.699 9 9.616 12.255 10.459 4.569 1.175 11.765 1.312 14.451-.275a2.08 2.08 0 0 1 2.971 1.142c.132.383.149.796.048 1.189-4.49 20.427-14.254 30.474-29.803 30.474Zm-29.412-42.499a72.789 72.789 0 0 0-.353 11.947c-.235 21.112 19 25.284 24.882 26.067 9.804 1.293 23.353.157 29.706-23.365a35.337 35.337 0 0 1-13.725-.646c-5.294-1.391-10.785-7.344-13.608-10.791a40.968 40.968 0 0 1-17.647 1.39 20.006 20.006 0 0 1-9.255-4.602Z" fill="#000"/><path d="M165.527 505.775s-6.51-6.248-4.373-12.378c2.137-6.13 10.628-4.387 14.765-2.996 4.137 1.39 10.392 4.622 8.392 8.617-2 3.995-10.275 9.636-10.275 9.636l-4.509-4.25-4 1.371Z" fill="#070707"/><path d="M170.625 500.056a7.005 7.005 0 0 1-2.294-2.742 1.742 1.742 0 0 1 1.215-1.958 7.848 7.848 0 0 1 4.275 1.41c.823.548 3.764 1.958 2.784 2.507-.98.548-2.98-.294-2.941.254.039.549.255 1.587-.588 1.587a7.182 7.182 0 0 1-2.451-1.058Z" fill="#333"/><path d="M155.272 572.148c7.608.49 14.765-4.25 15.019-17.117.255-12.867 9.51-16.393 9.51-19.135a9.496 9.496 0 0 0-3.382-6.096 9.521 9.521 0 0 0-6.637-2.149c-6.373.627-12.51 7.247-12.765 11.751.255-4.622 7.137-10.889 7.137-10.889a6.992 6.992 0 0 0-4.627-3.917c-5.628-.881-16.902 5.249-16.902 18.743s-1 27.928 12.647 28.809Z" fill="#F87294"/><path d="M156.35 574.263h-1.215c-14.726-.94-14.667-15.433-14.608-28.241v-2.586a21.323 21.323 0 0 1 7.274-16.529 16.174 16.174 0 0 1 12.02-4.289 8.61 8.61 0 0 1 5.647 4.073 13.759 13.759 0 0 1 4.098-1.077 10.808 10.808 0 0 1 8.431 2.84 11.314 11.314 0 0 1 3.922 7.481c0 1.724-1.236 2.997-2.824 4.603a19.59 19.59 0 0 0-4.885 6.556 19.55 19.55 0 0 0-1.781 7.976c-.138 6.717-2.118 12.025-5.726 15.354a14.853 14.853 0 0 1-10.353 3.839Zm-.941-4.172a11.222 11.222 0 0 0 8.412-2.702c2.764-2.546 4.274-6.816 4.392-12.378a23.5 23.5 0 0 1 7.843-17.431 12.501 12.501 0 0 0 1.608-1.801 7.536 7.536 0 0 0-2.471-4.27 6.592 6.592 0 0 0-5.235-1.762 14.16 14.16 0 0 0-9.627 6.502 8.007 8.007 0 0 0-1.255 3.094.715.715 0 0 1 0 .196 2.079 2.079 0 0 1-2.196 1.958 2.08 2.08 0 0 1-1.961-2.193v-.607a10.864 10.864 0 0 1 1.137-3.369 30.115 30.115 0 0 1 5.353-7.109 3.927 3.927 0 0 0-2.274-1.489 12.015 12.015 0 0 0-4.668.783 12.004 12.004 0 0 0-3.999 2.527 17.215 17.215 0 0 0-5.882 13.377v2.605c0 14.551.607 23.501 10.705 24.069h.118Z" fill="#A50639"/><path d="M69.53 97.01c.317.05.593.208.826.474.233.267.35.559.35.875 0 .1-.008.175-.025.225a1.464 1.464 0 0 1-.2.4.371.371 0 0 1-.275.1c-.167 0-.417-.083-.75-.25-.167.284-.258.467-.275.55a6.51 6.51 0 0 1-.275.8c-.15.184-.375.717-.675 1.6-.283.884-.425 1.459-.425 1.725-.084.234-.209.659-.375 1.275a89.82 89.82 0 0 1-.575 2.025c-.967 3.334-1.442 4.975-1.425 4.925a9.171 9.171 0 0 1-.125.975c-.034.25-.067.609-.1 1.075a.432.432 0 0 1 .025.175c0 .1-.025.184-.075.25a.327.327 0 0 1-.15.125c-.217.184-.517.275-.9.275-.417 0-.708-.108-.875-.325-.25-.433-.35-.766-.3-1 .05-.583.183-1.516.4-2.8.1-.483.208-.908.325-1.275.117-.383.191-.55.225-.5l.5-1.8c.1-.283.175-.558.225-.825a8.37 8.37 0 0 1 .15-.575c.133-.633.291-1.225.475-1.775.233-.55.475-1.375.725-2.475.1-.366.233-.783.4-1.25.183-.466.3-.708.35-.725-.584.067-1.025.134-1.325.2-.484.1-.967.175-1.45.225l-1.7.25c-.934.134-1.434.2-1.5.2l-1.8 4.175-1.275 3.325a70.288 70.288 0 0 1-1.125 3.475c-.05.167-.158.5-.325 1a12.74 12.74 0 0 0-.425 1.575l-.175.875c-.117.25-.25.434-.4.55-.134.117-.317.175-.55.175-.517 0-.892-.091-1.125-.275-.217-.183-.325-.475-.325-.875.066-.216.166-.491.3-.825.1-.266.175-.508.225-.725.116-.466.233-.883.35-1.25l.2-.6c.533-1.833.983-3.2 1.35-4.1l.675-1.9c.05-.1.142-.341.275-.725l.875-2.6c.4-.8.683-1.525.85-2.175a1.139 1.139 0 0 1-.175-.625c0-.266.075-.491.225-.675a.838.838 0 0 1 .65-.275c.117 0 .2.009.25.025.283.084.767.142 1.45.175.683.017 1.033.017 1.05 0 .166-.083.958-.225 2.375-.425 1.433-.2 2.841-.383 4.225-.55l.275-.025c.15 0 .45.042.9.125Zm1.589 17.949c-.167 0-.417-.083-.75-.25-.334-.166-.5-.341-.5-.525 0-.033-.009-.1-.025-.2-.017-.1-.05-.2-.1-.3 0-.416.041-.75.125-1 0-.183.025-.383.075-.6.05-.216.108-.391.175-.525 0-.133.033-.308.1-.525a8.01 8.01 0 0 0 .125-.475l.15-.525.425-1.275c.083-.2.141-.366.175-.5.033-.133.05-.258.05-.375.1-.333.225-.758.375-1.275.15-.516.275-.966.375-1.35.083-.083.125-.208.125-.375l.225-.7c.116-.383.25-.783.4-1.2.25-.733.441-1.333.575-1.8.133-.466.2-.791.2-.975a.573.573 0 0 0-.075-.3 1.83 1.83 0 0 0-.075-.2c-.067-.166-.1-.266-.1-.3 0-.066.033-.133.1-.2a.78.78 0 0 0 .15-.2 2.97 2.97 0 0 0 .1-.175c0-.066.408-.258 1.225-.575.833-.333 1.475-.566 1.925-.7h1.525c.466.067.925.2 1.375.4.45.2.825.45 1.125.75.516.484.983 1.192 1.4 2.125 0 .067.016.217.05.45.05.217.075.409.075.575 0 .784-.284 1.684-.85 2.7-.55 1.017-1.309 1.917-2.275 2.7a6.56 6.56 0 0 1-1.75 1c-.6.234-1.175.35-1.725.35-.25 0-.484-.025-.7-.075-.3-.116-.517-.283-.65-.5a1.6 1.6 0 0 1-.175-.725c0-.216.033-.358.1-.425.066-.016.25-.025.55-.025.3 0 .741-.108 1.325-.325a5.23 5.23 0 0 0 1.05-.475c.783-.5 1.475-1.233 2.075-2.2.333-.533.5-1.333.5-2.4.033-.166.05-.291.05-.375 0-.333-.15-.608-.45-.825-.284-.233-.692-.375-1.225-.425a2.077 2.077 0 0 0-.375-.025c-.317 0-.65.042-1 .125-.35.084-.6.175-.75.275-.05 0-.092.059-.125.175a1.867 1.867 0 0 1-.125.325c0 .134-.059.384-.175.75-.1.367-.209.709-.325 1.025l-.325.95c-.217.55-.367.984-.45 1.3-.05.217-.117.45-.2.7a5.04 5.04 0 0 1-.175.45c0 .034-.05.184-.15.45-.1.267-.175.492-.225.675-.15.784-.359 1.5-.625 2.15-.384 1.25-.575 2.125-.575 2.625 0 .184.025.317.075.4.283.017.483.05.6.1.133.034.2.109.2.225 0 .2-.267.634-.8 1.3-.15.384-.309.659-.475.825-.167.167-.309.259-.425.275a2.02 2.02 0 0 1-.525.05Zm27.68-17.825a1.01 1.01 0 0 1 .9.35 1.312 1.312 0 0 1 .3 1.35c-.217.434-.7 1.609-1.45 3.525-.75 1.9-1.475 3.759-2.175 5.575l-1.8 5.2a32.01 32.01 0 0 1-.525 1.3 4.008 4.008 0 0 0-.45 1.3 1.607 1.607 0 0 1-.4.7c-.184.2-.375.3-.575.3a.405.405 0 0 1-.25-.075c-.767-.283-1.15-.733-1.15-1.35 0-.05.016-.158.05-.325-.034.217.2-.291.7-1.525.516-1.25.933-2.3 1.25-3.15 1.233-3.083 1.85-4.683 1.85-4.8.2-.516.333-.883.4-1.1.2-.65.4-1.166.6-1.55l.425-1.125-8.825 10.2c-.117.1-.442.392-.975.875-.45.45-.8.767-1.05.95-.117.084-.317.234-.6.45a6.878 6.878 0 0 1-.725.525c-.217.15-.392.225-.525.225-.95-.166-1.425-.55-1.425-1.15 0-.266.066-.566.2-.9.133-.35.216-.575.25-.675.2-.633.325-1.141.375-1.525.183-.75.441-1.65.775-2.7.033-.133.116-.441.25-.925.15-.5.241-.958.275-1.375.233-.45.55-1.183.95-2.2l.35-.9c.066-.133.216-.541.45-1.225.15-.516.308-.95.475-1.3l.25-.475c.316-.616.558-1.116.725-1.5.183-.4.283-.733.3-1 0-.216.075-.375.225-.475a.869.869 0 0 1 .55-.175c.283 0 .541.084.775.25.233.15.383.35.45.6.066.184.1.392.1.625 0 .217-.034.417-.1.6l-2.075 5.275-2.275 6-.6 1.5 5.05-5.05c.566-.583 1.1-1.208 1.6-1.875.433-.566.85-1.066 1.25-1.5.4-.433.891-.941 1.475-1.525l.575-.6 3.175-3.375c.216-.166.425-.25.625-.25Zm-7.525 17.825v.025-.025Zm12.571 1.05a8.46 8.46 0 0 1-1.45.125c-.417 0-.759-.058-1.025-.175a2.013 2.013 0 0 1-.725-.475c-.15-.133-.225-.333-.225-.6 0-.166.033-.283.1-.35.233-.15.475-.266.725-.35.25-.083.675-.15 1.275-.2a7.73 7.73 0 0 0 3.425-.625c1.083-.466 1.833-1.025 2.25-1.675.316-.566.475-1.041.475-1.425 0-.416-.192-.833-.575-1.25a1.408 1.408 0 0 0-.375-.225c-.1-.05-.234-.083-.4-.1a20.47 20.47 0 0 1-.425-.05c-.3 0-.542.034-.725.1-.167.05-.384.15-.65.3-.084.05-.259.15-.525.3a2.485 2.485 0 0 1-.725.25c-.117.15-.309.275-.575.375-.25.084-.492.125-.725.125-.234 0-.392-.041-.475-.125-.1 0-.184.05-.25.15-.067.084-.175.284-.325.6-.034.1-.109.267-.225.5-.034.134-.142.417-.325.85-.034.1-.092.25-.175.45-.067.2-.109.35-.125.45-.25.617-.459 1.034-.625 1.25-.167.217-.334.325-.5.325a.332.332 0 0 1-.2-.075 2.087 2.087 0 0 1-.225-.2c-.067-.1-.15-.2-.25-.3-.117 0-.234-.066-.35-.2a.907.907 0 0 1-.175-.575c0-.166.041-.358.125-.575.083-.183.316-.808.7-1.875.783-2.133 1.2-3.216 1.25-3.25.016-.216.066-.375.15-.475.1-.116.15-.191.15-.225.033-.066.175-.425.425-1.075.25-.65.483-1.083.7-1.3 0-.133.233-.566.7-1.3.05-.116.175-.425.375-.925.066-.2.125-.35.175-.45.05-.116.083-.191.1-.225.15-.166.225-.308.225-.425 0-.066-.042-.141-.125-.225-.084-.1-.15-.175-.2-.225-.034-.033-.067-.15-.1-.35-.034-.2-.05-.358-.05-.475 0-.05.275-.216.825-.5.566-.3.966-.5 1.2-.6.233-.1.533-.225.9-.375.383-.15.7-.266.95-.35a3.57 3.57 0 0 1 .775-.175c.283-.033.533-.041.75-.025.183-.066.366-.1.55-.1.25 0 .483.059.7.175.266.084.608.3 1.025.65.416.334.65.634.7.9.066.334.1.575.1.725 0 .217-.059.442-.175.675-.034.35-.167.867-.4 1.55-.234.684-.417 1.092-.55 1.225-.234.367-.4.642-.5.825-.4.717-.792 1.284-1.175 1.7a8.73 8.73 0 0 0-.25.275c-.134.15-.35.4-.65.75.083 0 .25.017.5.05.266.017.458.059.575.125.383.25.725.567 1.025.95.316.367.541.75.675 1.15.1.15.15.35.15.6 0 .334-.084.725-.25 1.175-.15.434-.35.834-.6 1.2-.15.284-.475.692-.975 1.225-.484.517-.759.775-.825.775a.54.54 0 0 0-.325 0c-.117.05-.317.142-.6.275-.134.15-.275.275-.425.375-.134.117-.242.159-.325.125-.05.017-.167.067-.35.15a10.46 10.46 0 0 0-.6.3c-.434.117-1.075.25-1.925.4Zm-.775-8.25c.033.05.25-.008.65-.175.416-.166.858-.383 1.325-.65.483-.266.85-.516 1.1-.75.316-.216.608-.483.875-.8.266-.333.4-.55.4-.65.016-.05.066-.158.15-.325.1-.166.225-.341.375-.525.2-.2.358-.391.475-.575.133-.2.2-.333.2-.4.016-.05.058-.15.125-.3.083-.15.183-.325.3-.525.183-.233.308-.508.375-.825.083-.316.133-.491.15-.525.033-.35-.025-.608-.175-.775-.134-.183-.342-.275-.625-.275l-.225.025-.6.075a4.264 4.264 0 0 0-.725.15c-.2.05-.392.125-.575.225-.417.267-.625.475-.625.625 0 .084.058.125.175.125.083 0 .125.059.125.175 0 .234-.159.609-.475 1.125-.267.467-.809 1.492-1.625 3.075-.8 1.584-1.184 2.409-1.15 2.475Zm12.134 7.6c-.116-.166-.316-.283-.6-.35-.266-.05-.7-.058-1.3-.025-.35.05-.708-.008-1.075-.175-.35-.166-.491-.358-.425-.575.017-.216.259-.433.725-.65.484-.233 1.059-.358 1.725-.375l1.05-.025.25-.5c.05-.1.084-.2.1-.3.017-.116.042-.216.075-.3l.225-.9.375-1.2c.5-1.516.825-2.583.975-3.2.084-.2.217-.6.4-1.2.184-.6.325-1.091.425-1.475.767-2.35 1.084-3.541.95-3.575-.166-.016-.608.017-1.325.1-.716.067-1.116.125-1.2.175-.083.117-.225.1-.425-.05-.2-.15-.325-.316-.375-.5a.901.901 0 0 1-.025-.25c0-.233.059-.383.175-.45.167-.15.592-.316 1.275-.5.7-.183 1.35-.316 1.95-.4.284-.033.567-.091.85-.175.3-.1.525-.216.675-.35.35-.116.642-.166.875-.15.117.084.4.125.85.125.384 0 .675-.008.875-.025.434-.033.734-.05.9-.05 1 0 1.6.234 1.8.7.034.167.05.292.05.375a.707.707 0 0 1-.2.525c-.116.134-.283.192-.5.175-.3.084-.858.134-1.675.15-1.1.1-1.691.217-1.775.35-.083.084-.15.159-.2.225a1.243 1.243 0 0 1-.125.2c.017.15-.133.692-.45 1.625l-.45 1.325c-.466 1.45-.766 2.342-.9 2.675a4.08 4.08 0 0 0-.25.875c-.133.45-.258.884-.375 1.3-.1.4-.208.784-.325 1.15l-.975 3.475 1.5-.125c.984-.1 1.575-.15 1.775-.15.167 0 .275.017.325.05.05.034.084.092.1.175a.832.832 0 0 0 .05.15c.15.2.225.392.225.575 0 .3-.2.542-.6.725-.4.184-.95.267-1.65.25-.75.034-1.358.059-1.825.075-.466.034-.758.075-.875.125-.116.05-.175.134-.175.25a.351.351 0 0 1-.15.35.665.665 0 0 1-.45.15c-.316 0-.6-.133-.85-.4Z" fill="#1EA6F9"/><path d="M137.634 99.834c.016.067.025.15.025.25 0 .217-.1.375-.3.475l-.6.2a2.57 2.57 0 0 1-.7.125.958.958 0 0 1-.35-.05 1.505 1.505 0 0 0-.6-.325c-.234-.066-.717-.125-1.45-.175-.217.034-.409.05-.575.05-.167 0-.3.009-.4.025-.134.434-.3.842-.5 1.225-.067.317-.159.6-.275.85-.117.334-.167.525-.15.575-.05.067-.209.492-.475 1.275a87.183 87.183 0 0 0-.75 2.25c-.167.517-.292.892-.375 1.125a8.169 8.169 0 0 0-.325.8l-.25.75-.625 1.725c-.134.25-.3.65-.5 1.2a21.881 21.881 0 0 0-.45 1.45c-.184.65-.35 1.117-.5 1.4-.134.284-.25.459-.35.525-.1.067-.242.1-.425.1-.267 0-.5-.133-.7-.4-.2-.266-.3-.516-.3-.75 0-.366.125-.983.375-1.85.266-.866.516-1.558.75-2.075.066-.3.125-.541.175-.725a3.27 3.27 0 0 0 .125-.4c.05-.066.125-.241.225-.525a8.2 8.2 0 0 0 .275-.825c.05-.3.566-1.975 1.55-5.025l.175-.525c.15-.25.291-.566.425-.95.133-.083.2-.258.2-.525a.43.43 0 0 1 .075-.2c.066-.083.1-.141.1-.175.016-.016.041-.025.075-.025.016 0 .033.009.05.025.033 0 .083-.033.15-.1h-.025l-1.225.125-.55.05c-.984.084-1.542.142-1.675.175l-.35.025c-.517 0-.884-.1-1.1-.3-.2-.216-.267-.458-.2-.725a.846.846 0 0 1 .375-.525c.216-.133.566-.25 1.05-.35.15-.033.441-.083.875-.15l.675-.125.85-.1a28.67 28.67 0 0 1 3.075-.3c.45-.016.825-.033 1.125-.05.316-.033.525-.058.625-.075.233.017.608.059 1.125.125.533.067.916.142 1.15.225.366.084.666.234.9.45.233.217.391.467.475.75Zm.2 10.475a.747.747 0 0 1-.225.025.947.947 0 0 1-.775-.375c-.183-.266-.275-.666-.275-1.2 0-.416.075-.933.225-1.55.233-.466.35-.816.35-1.05.083-.283.217-.641.4-1.075.183-.45.333-.791.45-1.025.067 0 .133-.058.2-.175a.6.6 0 0 0 .125-.35c0-.15.025-.3.075-.45.067-.166.133-.283.2-.35 0-.05.033-.133.1-.25.067-.133.1-.225.1-.275 0-.033.017-.083.05-.15a.426.426 0 0 0 .075-.2c.3-.5.733-1.441 1.3-2.825.567-1.383.858-2.183.875-2.4.067-.383.217-.55.45-.5.083-.066.283-.1.6-.1.05.017.142.059.275.125.133.067.25.159.35.275a.68.68 0 0 1 .2.425c.033.167.05.384.05.65-.017.25-.092.525-.225.825-.133.284-.292.584-.475.9a15.77 15.77 0 0 0-.375.675l-.325.6c-.267.467-.4.742-.4.825 0 .067-.042.192-.125.375-.083.167-.15.309-.2.425a5.876 5.876 0 0 0-.425.9c-.133.384-.2.617-.2.7a2.523 2.523 0 0 0-.075.175.43.43 0 0 1-.125.225c-.05 0-.083.042-.1.125a.67.67 0 0 0-.025.15c0 .084-.042.25-.125.5-.083.25-.2.525-.35.825-.567 1.617-.875 2.767-.925 3.45-.033.35-.117.6-.25.75-.117.15-.267.275-.45.375Zm-1.325 3.875c-.317.134-.583.2-.8.2-.25 0-.533-.116-.85-.35-.25-.25-.375-.5-.375-.75 0-.416.308-.833.925-1.25.367-.233.633-.35.8-.35.117 0 .333.067.65.2.5.317.75.659.75 1.025 0 .467-.367.892-1.1 1.275Zm24.704-17.55c.383.05.666.15.85.3.183.134.3.3.35.5.05.184.1.467.15.85l-.275.675a111.444 111.444 0 0 0-1.8 4.8l-.875 2.975-.3.525-.575 2.65c-.2.85-.384 1.667-.55 2.45-.167.784-.275 1.35-.325 1.7 0 .167-.009.3-.025.4-.017.1-.025.2-.025.3-.15.35-.217.575-.2.675 0 .434-.092.717-.275.85-.167.134-.517.2-1.05.2a3.59 3.59 0 0 1-.75-.55 1.557 1.557 0 0 1-.375-.625c.016-.283.083-.716.2-1.3.066-.4.1-.625.1-.675l.3-2.1c.033-.066.091-.166.175-.3.1-.133.175-.225.225-.275.05-.183.108-.458.175-.825l.125-.55c.066-.216.15-.566.25-1.05.116-.483.2-.833.25-1.05l-.225.25c-.2.367-.575.875-1.125 1.525-.334.434-.567.75-.7.95-.217.334-1.575 1.667-4.075 4-.417.417-.759.742-1.025.975-.284.3-.525.484-.725.55-.184.067-.525.117-1.025.15-.6-.483-.9-.933-.9-1.35l.1-.35c.033-.133.083-.225.15-.275.066-.066.158-.141.275-.225.216-.133.691-.516 1.425-1.15.75-.65 1.3-1.141 1.65-1.475l1.3-1.3 1.325-1.45a7.423 7.423 0 0 1-.975-.45c-.3-.166-.517-.333-.65-.5-.717-.8-1.075-1.816-1.075-3.05 0-.9.166-1.75.5-2.55.183-.483.358-.841.525-1.075.183-.25.433-.533.75-.85.233-.2.4-.366.5-.5.483-.533.991-.933 1.525-1.2.55-.266 1.491-.625 2.825-1.075.083 0 .408-.033.975-.1.566-.066 1.083-.1 1.55-.1.166.067.308.125.425.175.133.05.241.092.325.125.116-.1.208-.166.275-.2a.75.75 0 0 1 .35-.025Zm-2.25 4.725c.066-.266.191-.633.375-1.1.05-.116.125-.308.225-.575.1-.283.191-.583.275-.9a1.01 1.01 0 0 0-.275-.025c-.3 0-.7.05-1.2.15-1.084.2-2.117.65-3.1 1.35-.984.684-1.642 1.417-1.975 2.2-.167.4-.284.742-.35 1.025a3.038 3.038 0 0 0-.075.875c0 .217.016.392.05.525.033.134.091.3.175.5l.2.575c.066.017.191.034.375.05.2.017.341.017.425 0l.6-.2c.733-.216 1.283-.441 1.65-.675.3-.15.575-.225.825-.225.216 0 .391.034.525.1l.075-.2 1.2-3.45Zm24.949 10.075c.333.1.591.292.775.575.183.267.275.559.275.875-.05.75-.267 1.575-.65 2.475-.384.9-.867 1.909-1.45 3.025l-.4.925a.621.621 0 0 1-.45.2c-.367 0-.792-.35-1.275-1.05a2.03 2.03 0 0 1-.05-.375c0-.35.141-.775.425-1.275l.525-.975.35-.7c.183-.333.325-.616.425-.85.1-.25.166-.466.2-.65l-3.4.325-.1-.05a.429.429 0 0 0-.125.025c-.05.017-.109.034-.175.05l-1.575.05h-.275c-.1 0-.175.009-.225.025-.3.067-.617.1-.95.1-.25 0-.467.017-.65.05l-4.125.4-1.1.15c-.234.8-.542 2.025-.925 3.675l-.15.575c-.017.167-.084.284-.2.35-.1.084-.292.167-.575.25h-.45c-.55 0-.825-.316-.825-.95 0-.233.025-.45.075-.65l.55-2.075.425-1.925.35-1.025 1.95-.375c.266-.066.65-.325 1.15-.775.5-.45.941-.941 1.325-1.475.866-1.183 1.541-2.325 2.025-3.425.483-1.1 1.066-2.683 1.75-4.75l.55-1.675.1-.175.25-.825a.937.937 0 0 0-.225-.025.646.646 0 0 1-.2-.025 1.41 1.41 0 0 1-.675-.575 1.707 1.707 0 0 1-.225-.85c0-.183.016-.316.05-.4l.3-.275a.77.77 0 0 1 .325.025c.133.017.258.025.375.025.183 0 .325-.016.425-.05l1.15-.175c.65-.1 1.05-.175 1.2-.225 1.166-.116 2.1-.191 2.8-.225.7-.05 1.458-.075 2.275-.075.333 0 .658.109.975.325.316.217.508.467.575.75.033.584-.309 2-1.025 4.25-.7 2.25-1.384 4.142-2.05 5.675-.184.567-.559 1.559-1.125 2.975l-.475 1.225c.016 0 .233-.075.65-.225a3.43 3.43 0 0 1 1.225-.25c.1 0 .2.017.3.05Zm-4.225.375c.25-1.1.425-1.816.525-2.15.1-.333.275-.775.525-1.325l1.65-4.4.5-1.5c.633-1.833 1.016-3.041 1.15-3.625l-.6-.025c-.7 0-1.425.05-2.175.15-.75.084-1.284.2-1.6.35l-.3.925c-.15.467-.542 1.484-1.175 3.05a63.632 63.632 0 0 1-2.3 5c-.884 1.75-1.767 3.117-2.65 4.1.65-.016 1.858-.1 3.625-.25 1.783-.166 2.725-.266 2.825-.3Zm11.279 2.75c-.767-.266-1.384-.766-1.85-1.5-.45-.733-.675-1.6-.675-2.6 0-.4.033-.766.1-1.1.033-.433.133-.941.3-1.525.1-.3.175-.608.225-.925a.56.56 0 0 1 .05-.175c.033-.083.041-.15.025-.2.1-.25.241-.6.425-1.05.2-.45.325-.7.375-.75.066-.033.1-.075.1-.125a.44.44 0 0 0 .025-.1c0-.216.225-.683.675-1.4a30.04 30.04 0 0 1 1.5-2.1c.533-.683.85-1.025.95-1.025.033 0 .075-.033.125-.1.05-.083.083-.125.1-.125.116-.133.583-.375 1.4-.725.816-.366 1.466-.608 1.95-.725a3.082 3.082 0 0 1 1.025-.175c.85 0 1.541.4 2.075 1.2.533.784.808 1.875.825 3.275-.05.25-.092.617-.125 1.1-.034.384-.059.6-.075.65-.017.5-.125 1.125-.325 1.875-.184.734-.309 1.109-.375 1.125 0 .05-.017.109-.05.175a.395.395 0 0 0-.05.175c.016.15-.2.675-.65 1.575-.45.884-.709 1.334-.775 1.35a.2.2 0 0 0-.075.025c-.017.017-.017.05 0 .1.016.05-.117.2-.4.45-.267.25-.459.375-.575.375-.017 0-.034.009-.05.025 0 .017.016.05.05.1.033.05-.209.267-.725.65-.5.384-1.042.759-1.625 1.125-.584.35-1.025.559-1.325.625a.431.431 0 0 1-.225.125.734.734 0 0 1-.125.025c-.117.117-.334.217-.65.3-.3.084-.6.125-.9.125-.25 0-.475-.041-.675-.125Zm2.525-2.625c.5-.166 1-.433 1.5-.8.5-.383.8-.733.9-1.05.083-.3.2-.508.35-.625.283-.283.658-.933 1.125-1.95.483-1.033.733-1.733.75-2.1 0-.1.025-.258.075-.475.05-.233.108-.4.175-.5.033-.05.041-.158.025-.325a8.979 8.979 0 0 1-.025-.775c0-.433.008-.808.025-1.125-.05-1.083-.217-1.708-.5-1.875-.134-.1-.359-.15-.675-.15a1.879 1.879 0 0 0-.675.175c-.15.05-.267.075-.35.075-.234.134-.35.284-.35.45 0 .15-.067.275-.2.375-.117.1-.242.109-.375.025-.3.017-.492.059-.575.125-.084.067-.192.225-.325.475a8.854 8.854 0 0 1-.325.6c-.417.317-.734.65-.95 1-.217.35-.35.642-.4.875-.517.9-.842 1.534-.975 1.9-.117.35-.217.834-.3 1.45-.134.25-.242.542-.325.875-.067.334-.125.55-.175.65-.034.134-.05.309-.05.525 0 .367.025.75.075 1.15.05.384.116.642.2.775.133.45.425.675.875.675.366 0 .858-.141 1.475-.425Zm20.213 3.625c-.066.067-.241.1-.525.1-.366 0-.708-.091-1.025-.275-.3-.166-.45-.458-.45-.875 0-.233.059-.491.175-.775.567-1.466 1.35-3.7 2.35-6.7.134-.45.35-1.108.65-1.975 0 .034.184-.541.55-1.725a27.52 27.52 0 0 0 .6-1.95c.15-.533.267-1.083.35-1.65a3.449 3.449 0 0 0-.725-.075h-.45c-.3 0-.525-.016-.675-.05-.166-.033-.45-.05-.85-.05a16.383 16.383 0 0 0-1.6.075c-.133.017-.291.034-.475.05a6.633 6.633 0 0 1-.6.025l-.2.1-.375.9c-.083.2-.191.45-.325.75-.133.3-.275.65-.425 1.05-.1.25-.2.475-.3.675l-.225.5-.325.65-.375.95-.4.95c-.183.434-.4.925-.65 1.475-.4.934-.691 1.634-.875 2.1-.616 1.6-1.066 2.867-1.35 3.8-.033.117-.083.325-.15.625-.066.3-.141.525-.225.675a.878.878 0 0 1-.4.45c-.166.1-.358.15-.575.15-.283 0-.533-.058-.75-.175-.25-.133-.433-.266-.55-.4a.735.735 0 0 1-.175-.5c0-.166.034-.35.1-.55.784-2.583 1.675-4.891 2.675-6.925.134-.266.275-.583.425-.95.15-.366.259-.641.325-.825.317-.866.567-1.466.75-1.8a22.113 22.113 0 0 0 1.4-3.275c-.083.067-.225.1-.425.1-.15 0-.35-.016-.6-.05a2.79 2.79 0 0 0-.55-.075 1.882 1.882 0 0 1-.475-.625 2.173 2.173 0 0 1-.175-.825c0-.233.05-.433.15-.6.084-.15.167-.25.25-.3.1-.066.225-.1.375-.1h1.925c.15 0 .309-.066.475-.2a1.83 1.83 0 0 1 .175-.125c.1-.066.234-.1.4-.1.067 0 .184.017.35.05.25.084.534.125.85.125.267 0 .625-.041 1.075-.125.267-.066.634-.1 1.1-.1l.95.025c.184.017.425.025.725.025.117 0 .259.017.425.05.184.034.334.059.45.075.134.017.367.025.7.025.567.017 1.05.059 1.45.125.4.05.709.159.925.325.15.117.292.275.425.475.134.184.2.35.2.5 0 .134-.266 1.125-.8 2.975-.516 1.834-.833 2.867-.95 3.1-.316.817-.783 2.209-1.4 4.175l-.8 2.45c-.083.234-.175.517-.275.85a44.77 44.77 0 0 1-.675 1.925c-.233.667-.425 1.1-.575 1.3Zm8.903-.525c-.25 0-.633-.1-1.15-.3-.5-.2-.975-.45-1.425-.75-.45-.3-.741-.6-.875-.9l-.05-.1a3.463 3.463 0 0 1-.375-2.575l.125-.525c.15-.516.225-.941.225-1.275.083-.1.208-.266.375-.5a4.7 4.7 0 0 0 .325-.475.598.598 0 0 0 .05-.225v-.375c0-.116.042-.233.125-.35.083-.116.167-.208.25-.275.1-.083.167-.133.2-.15l.1.025c.034 0 .159-.241.375-.725.217-.5.425-1.025.625-1.575.833-1.533 1.767-2.808 2.8-3.825 1.034-1.033 1.95-1.725 2.75-2.075.067-.016.192-.033.375-.05.184-.016.358-.033.525-.05.317.017.7.092 1.15.225.45.134.692.234.725.3 0 .067.017.109.05.125a.4.4 0 0 0 .1.025c.15-.016.417.225.8.725.4.484.692.942.875 1.375.2.317.3.85.3 1.6 0 .634-.091 1.425-.275 2.375-.183.934-.366 1.6-.55 2a35.363 35.363 0 0 1-1.65 3.8c-.666 1.334-1.275 2.017-1.825 2.05-.016 0-.033.017-.05.05-.016.017-.025.05-.025.1s-.225.267-.675.65c-.433.384-.817.7-1.15.95l-.475.175c-.4.15-.858.267-1.375.35-.516.1-.95.159-1.3.175Zm.025-2.275c.717 0 1.234-.016 1.55-.05a2.78 2.78 0 0 0 1-.325c.367-.2.759-.541 1.175-1.025.167-.3.3-.5.4-.6.017-.033.15-.266.4-.7.25-.433.484-.65.7-.65 0-.083.067-.308.2-.675.134-.383.234-.6.3-.65.034-.016.117-.2.25-.55.134-.366.259-.766.375-1.2.117-.433.175-.791.175-1.075.3-.316.434-.491.4-.525a.44.44 0 0 1-.025-.1v-.25c0-.483.034-.733.1-.75.083-.033.125-.058.125-.075a.285.285 0 0 0-.1-.1c-.033-.033-.05-.066-.05-.1 0-.016.025-.05.075-.1a.27.27 0 0 0 .075-.2c-.033-.416-.266-1.141-.7-2.175a1.434 1.434 0 0 1-.2-.175.618.618 0 0 0-.275-.2.57.57 0 0 0-.3-.075c-.066 0-.183.017-.35.05-.066-.066-.133-.1-.2-.1a.577.577 0 0 0-.175.025l-.125.05c-.35.084-.625.2-.825.35-.183.15-.45.417-.8.8l-.425.45c-.133.45-.408.842-.825 1.175-.066.05-.166.175-.3.375a3.32 3.32 0 0 1-.3.375l-.15.3c-.366.6-.758 1.4-1.175 2.4a41.027 41.027 0 0 0-1.075 2.8c-.3.884-.45 1.442-.45 1.675 0 .467.15.842.45 1.125.317.284.675.442 1.075.475Zm27.739-13.225c0 .084-.025.142-.075.175-.05.017-.075.034-.075.05 0 .017.033.05.1.1l-.175.825c-.067.35-.208 1.05-.425 2.1-.2 1.05-.35 1.9-.45 2.55l-.35 2.675c-.15 1.184-.258 2.092-.325 2.725-.05.634-.075 1.3-.075 2 0 .8.025 1.409.075 1.825.067.434.1.684.1.75 0 .1-.117.25-.35.45-.233.2-.492.3-.775.3-.433 0-.75-.183-.95-.55-.2-.35-.317-.9-.35-1.65 0-1.116.083-2.608.25-4.475.05-.116.075-.341.075-.675 0-.2-.017-.35-.05-.45-.017-.166.008-.4.075-.7a2.804 2.804 0 0 0 .075-.6c0-.083.033-.258.1-.525.1-.3.15-.533.15-.7v-.175c.05-.15.1-.333.15-.55.067-.233.1-.375.1-.425a1.43 1.43 0 0 1-.025-.35c0-.183-.017-.308-.05-.375.1-.283.217-.716.35-1.3l.3-1.2c-.017 0-.2.334-.55 1-.333.65-.742 1.309-1.225 1.975-.383.617-.758 1.15-1.125 1.6-.35.45-.55.709-.6.775-.217.284-.425.55-.625.8-.183.25-.317.484-.4.7-.35.867-.758 1.5-1.225 1.9-.45.4-.908.625-1.375.675l-.4.05h-.15c-.317 0-.583-.208-.8-.625-.2-.416-.3-1.191-.3-2.325l.025-.675.075-1.4c.05-.283.092-.75.125-1.4.033-.666.058-1.108.075-1.325-.083.084-.234.392-.45.925-.2.534-.325.875-.375 1.025l-.225.575c-.083.117-.208.434-.375.95-.133.384-.317.85-.55 1.4-.367 1.2-.7 2.15-1 2.85-.133.284-.267.592-.4.925-.033.067-.133.334-.3.8-.233.6-.383.959-.45 1.075-.717 1.617-1.317 2.425-1.8 2.425-.267 0-.533-.141-.8-.425-.25-.266-.375-.558-.375-.875 0-.233.092-.541.275-.925.183-.4.45-.916.8-1.55l.525-.975c0-.083.2-.65.6-1.7l.35-.925 1.55-4.1.025-.1.15-.375c.05-.133.142-.333.275-.6.233-.533.35-.841.35-.925v-.05c0-.05.017-.083.05-.1a.44.44 0 0 1 .1-.025c.067-.183.183-.466.35-.85.183-.4.325-.7.425-.9l-.025-.1c0-.166.025-.3.075-.4.067-.1.133-.191.2-.275a2.14 2.14 0 0 0 .2-.225c0-.1.05-.233.15-.4.1-.183.217-.366.35-.55.267-.366.442-.641.525-.825.167-.316.425-.475.775-.475.25 0 .5.1.75.3.25.2.458.425.625.675.167.234.25.392.25.475 0 .05-.025.084-.075.1-.05.017-.075.059-.075.125v.1a.64.64 0 0 1 .025.2c0 .3-.042.534-.125.7a7.727 7.727 0 0 0-.225 1.925l.025.725c0 .134-.033.234-.1.3-.05.067-.092.125-.125.175v.05l-.025.2.025.15c0 .15-.042.334-.125.55-.1.384-.15.592-.15.625-.067.55-.1 1.117-.1 1.7 0 .867.075 1.342.225 1.425l1.8-2.675c1.533-2.266 2.308-3.425 2.325-3.475.117-.066.225-.191.325-.375-.017 0-.025-.016-.025-.05 0-.083.217-.441.65-1.075.433-.65.9-1.233 1.4-1.75.5-.533.908-.8 1.225-.8.15 0 .35.1.6.3.267.2.5.45.7.75.2.284.3.55.3.8Zm4.257 15.675c-.65-.483-1.15-.916-1.5-1.3-.35-.383-.534-.75-.55-1.1a2.644 2.644 0 0 1-.025-.45c0-.466.041-1.05.125-1.75.083-.7.166-1.258.25-1.675.066-.066.1-.166.1-.3.016-.133.016-.216 0-.25 0-.05.041-.216.125-.5.2-.616.341-1.133.425-1.55.45-1.366.891-2.458 1.325-3.275a17.85 17.85 0 0 1 1.45-2.3c1.133-1.166 2.341-2.05 3.625-2.65.65-.383 1.116-.575 1.4-.575.05 0 .125.017.225.05 2.05.45 3.275 1.75 3.675 3.9.15 1.017.225 1.784.225 2.3 0 .834-.15 1.675-.45 2.525-.3.85-.842 1.917-1.625 3.2-.667 1.334-1.425 2.475-2.275 3.425-.834.934-1.675 1.634-2.525 2.1-.834.467-1.617.7-2.35.7-.65 0-1.2-.175-1.65-.525Zm2-1.65c.4-.05.708-.125.925-.225.233-.1.466-.266.7-.5.25-.25.65-.691 1.2-1.325.7-.8 1.191-1.383 1.475-1.75.283-.383.541-.858.775-1.425.25-.566.525-1.383.825-2.45l.15-.575c.1-.35.166-.633.2-.85.05-.233.075-.483.075-.75l-.025-1.575a4.492 4.492 0 0 0-.175-.975c-.1-.35-.217-.6-.35-.75a1.534 1.534 0 0 0-.55-.375 1.412 1.412 0 0 0-.675-.175c-.167 0-.359.042-.575.125-.317.134-.759.492-1.325 1.075a16.36 16.36 0 0 0-1.525 1.75c-.434.6-.65 1-.65 1.2 0 .017-.009.067-.025.15a.546.546 0 0 1-.1.225c-.434.467-.875 1.45-1.325 2.95-.434 1.5-.684 2.809-.75 3.925a9.311 9.311 0 0 0 0 1c.033.184.125.392.275.625.116.184.325.359.625.525.316.15.591.2.825.15ZM285.3 98.51c.366-.017.666.1.9.35.233.25.391.558.475.924 0 .3-.084.559-.25.775-.167.2-.4.409-.7.625-.4.217-.934.584-1.6 1.1l-.625.475c-.317.2-.8.6-1.45 1.2-.65.6-1.134 1.059-1.45 1.375l-.5.45c-.05.034-.2.159-.45.375a5.37 5.37 0 0 0-.675.7c.033.084.108.242.225.475.116.234.25.434.4.6l1.825 2.775c.066.15.158.309.275.475l.25.325c.25.284.433.542.55.775.05.034.133.117.25.25.133.117.25.192.35.225a.95.95 0 0 1 .4.375c.116.184.233.425.35.725-.017.367-.125.642-.325.825-.2.2-.592.325-1.175.375-.284-.066-.609-.258-.975-.575-.35-.3-.642-.641-.875-1.025-.017-.033-.534-.833-1.55-2.4l-.95-1.5a4.064 4.064 0 0 0-.35-.725c-.15-.3-.25-.45-.3-.45l-.475-.75c-.017.067-.2.542-.55 1.425l-.35.85c-.684 1.717-1.217 3.209-1.6 4.475-.017.05-.042.15-.075.3a.881.881 0 0 1-.175.375.617.617 0 0 1-.275.225c-.217.15-.434.225-.65.225-.117 0-.242-.025-.375-.075a1.304 1.304 0 0 1-.7-.5c-.167-.25-.25-.5-.25-.75 0-.133.025-.233.075-.3l.225-.575c.1-.35.208-.625.325-.825.083-.166.158-.375.225-.625.083-.266.15-.466.2-.6.316-1.016.6-1.783.85-2.3.083-.166.166-.375.25-.625-.1.084-.217.209-.35.375a17.127 17.127 0 0 1-1.725 1.5c-.584.45-1 .792-1.25 1.025-.2.15-.617.434-1.25.85-.617.417-1.134.75-1.55 1-.134.084-.417.275-.85.575-.417.317-.9.617-1.45.9-.284.167-.559.25-.825.25a1.22 1.22 0 0 1-.625-.175 1.205 1.205 0 0 1-.425-.45 1.223 1.223 0 0 1-.2-.65c0-.233.075-.4.225-.5.083-.116.358-.325.825-.625.483-.316.816-.533 1-.65.4-.25.75-.483 1.05-.7l.65-.4a40.09 40.09 0 0 1 1.225-.75c.533-.333.816-.516.85-.55.083-.1.35-.316.8-.65l2.675-2.025.775-.65c-.017-.083-.25-.483-.7-1.2-.45-.733-.725-1.15-.825-1.25l-1.325-1.6c0-.016-.1-.166-.3-.45-1.034-1.483-1.567-2.275-1.6-2.375-.284-.316-.459-.566-.525-.75-.067-.2-.1-.475-.1-.825a.847.847 0 0 1 .375-.35c.166-.1.333-.15.5-.15.116 0 .241.034.375.1l.3.15c.15.05.283.125.4.225.133.1.25.225.35.375a8.7 8.7 0 0 0 .275.25c.166.117.341.35.525.7l3.225 4.55.85 1.45a2.675 2.675 0 0 1 .125-.925c.1-.333.166-.575.2-.725.383-1.083.633-1.916.75-2.5.083-.383.208-.683.375-.9.016-.033.041-.133.075-.3l.075-.425c.116-.633.225-1.066.325-1.3.1-.233.225-.391.375-.475.066-.016.15-.025.25-.025.316 0 .608.109.875.325.266.2.441.425.525.675.066.3.1.509.1.625 0 .217-.067.434-.2.65a97.367 97.367 0 0 1-.95 3.15l-.2.675c-.017.067-.05.192-.1.375a1.805 1.805 0 0 1-.15.475c-.034.167-.067.317-.1.45-.034.134-.059.25-.075.35l.5-.475c2.233-2.233 3.666-3.575 4.3-4.025A13.302 13.302 0 0 1 284 99.234c.5-.366.933-.608 1.3-.725Zm4.166 16.599a7.19 7.19 0 0 0-.575-.125c-.266-.05-.5-.125-.7-.225a1.847 1.847 0 0 1-.65-.525 1.322 1.322 0 0 1-.225-.725c0-.4.192-.733.575-1 .234-.016.417-.008.55.025.134.017.35.084.65.2.117.05.284.084.5.1.234 0 .4.017.5.05.334-.05.667-.183 1-.4.334-.233.625-.491.875-.775a.902.902 0 0 0 .125-.175c.067-.083.134-.15.2-.2-.183-.216-.416-.7-.7-1.45-.283-.75-.441-1.266-.475-1.55-.016-.1-.041-.233-.075-.4a2.405 2.405 0 0 0-.075-.45c-.083-.333-.225-.75-.425-1.25a19.293 19.293 0 0 1-.35-1.05 30.256 30.256 0 0 1-.5-2.375c-.166-.95-.25-1.683-.25-2.2 0-.466-.033-.891-.1-1.275a5.63 5.63 0 0 1-.125-1.075c0-.4.067-.766.2-1.1l1.15-.125c.134.1.3.234.5.4.2.167.384.292.55.375 0 .267.017.634.05 1.1.017.15.025.367.025.65 0 .117-.008.267-.025.45 0 .184.009.4.025.65.067.034.109.125.125.275a.85.85 0 0 1 .025.35c-.033.217.034.784.2 1.7.167.917.3 1.45.4 1.6.067.467.25 1.084.55 1.85.3.767.675 1.7 1.125 2.8a21.613 21.613 0 0 0 1.675-2.85c.517-1.016 1.184-2.425 2-4.225.284-.683.609-1.416.975-2.2.084-.166.217-.525.4-1.075.1-.35.225-.7.375-1.05.367-.2.667-.3.9-.3.05 0 .125.017.225.05.3.134.542.342.725.625.2.284.3.584.3.9 0 .067-.016.184-.05.35-.216.817-.5 1.492-.85 2.025l-1.675 3.375c-.25.517-.408.825-.475.925l-.65 1.375c-.266.617-.916 1.659-1.95 3.125a2.23 2.23 0 0 1-.225.3c-.083.117-.158.225-.225.325-.616.917-1.408 1.759-2.375 2.525l-.8.6-.225.225c-.083.084-.175.15-.275.2a.57.57 0 0 1-.3.075c-.2.184-.916.375-2.15.575ZM58.263 148.134c-.433-.266-.758-.55-.975-.85-.217-.283-.325-.558-.325-.825 0-.35.175-.633.525-.85a.629.629 0 0 1 .275-.05c.167 0 .342.034.525.1.2.05.35.125.45.225.433.4.95.6 1.55.6.267 0 .65-.058 1.15-.175.65-.2 1.158-.45 1.525-.75.383-.3.833-.766 1.35-1.4.317-.416.55-.833.7-1.25.167-.433.25-.825.25-1.175 0-.383-.092-.683-.275-.9-.333-.45-.708-.783-1.125-1-.4-.233-.875-.35-1.425-.35-.483 0-.958.067-1.425.2l-1.45.3a2.575 2.575 0 0 1-.275.05c-.1 0-.25.242-.45.725-.2.484-.542 1.4-1.025 2.75-.35.984-.642 1.692-.875 2.125-.233.417-.442.625-.625.625-.2 0-.417-.183-.65-.55-.05-.083-.158-.25-.325-.5-.15-.25-.225-.491-.225-.725a1 1 0 0 1 .125-.425c.083-.15.15-.3.2-.45.067-.15.133-.358.2-.625.217-.65.842-2.266 1.875-4.85 1.05-2.583 1.867-4.533 2.45-5.85.417-.95.542-1.45.375-1.5a.576.576 0 0 0-.075-.225c-.05-.1-.067-.175-.05-.225 0-.1.292-.25.875-.45.6-.2 1.008-.283 1.225-.25h.15c.217 0 .325-.041.325-.125.033 0 .183-.016.45-.05a4.1 4.1 0 0 1 .9 0c1.183.1 2.117.442 2.8 1.025.683.567 1.017 1.409 1 2.525-.033.434-.275 1.025-.725 1.775-.45.75-.942 1.367-1.475 1.85a17.04 17.04 0 0 1-.925.75c-.333.25-.55.409-.65.475l.625.225c.783.3 1.392.667 1.825 1.1.433.434.742 1.025.925 1.775.033.167.05.317.05.45a4.6 4.6 0 0 1-.2 1.25c-.117.467-.25.875-.4 1.225-.1.1-.183.209-.25.325a7.181 7.181 0 0 0-.125.225c-.017.067-.167.325-.45.775-.283.434-.533.784-.75 1.05-1.1.934-2.008 1.534-2.725 1.8-.7.317-1.533.475-2.5.475-.867 0-1.508-.133-1.925-.4Zm1.8-10.375 1-.2c.5-.116.858-.216 1.075-.3l.3-.15c.183-.1.367-.241.55-.425 1.05-.983 1.783-1.866 2.2-2.65.417-.683.625-1.166.625-1.45 0-.2-.092-.391-.275-.575-.317-.366-.842-.55-1.575-.55-.317 0-.583.034-.8.1-.233.067-.408.15-.525.25-.1.084-.15.217-.15.4 0 .134-.042.284-.125.45a1.68 1.68 0 0 1-.275.375c-.017.1-.067.2-.15.3-.067.1-.117.167-.15.2 0 .034-.117.259-.35.675a14.1 14.1 0 0 0-.625 1.4c-.5 1.184-.75 1.9-.75 2.15Zm8.425 9.4a1.782 1.782 0 0 1-.4-.275.503.503 0 0 1-.1-.325c0-.166.067-.4.2-.7.15-.316.4-.808.75-1.475.1-.216.292-.6.575-1.15.717-1.366 1.075-2.375 1.075-3.025a.347.347 0 0 1-.025-.15c0-.166.134-.316.4-.45.05-.05.225-.191.525-.425.317-.233.567-.5.75-.8.217-.5.492-1.05.825-1.65.334-.616.909-1.616 1.725-3 .8-1.466 1.65-2.791 2.55-3.975.167-.233.35-.416.55-.55.217-.133.4-.2.55-.2.517 0 1.042.2 1.575.6.55.4.909.8 1.075 1.2.067.117.1.367.1.75 0 .517-.058 1.392-.175 2.625a14.21 14.21 0 0 0-.1 1.025c-.05.75-.125 1.55-.225 2.4a251.283 251.283 0 0 0-.4 4.375 37.44 37.44 0 0 0-.125 2.95c0 .467.009.809.025 1.025v.175l-.025.575c-.1.1-.3.15-.6.15-.333 0-.666-.058-1-.175-.333-.1-.516-.225-.55-.375a.316.316 0 0 0-.075-.05c-.033-.016-.05-.091-.05-.225l.025-.55.075-1.4.125-3.825-.325.025c-.333 0-1.041.067-2.125.2-1.066.134-1.741.242-2.025.325-.15 0-.333.1-.55.3-.216.2-.408.459-.575.775-.05.167-.166.409-.35.725-.183.3-.275.475-.275.525-.1.067-.191.159-.275.275-.066.1-.108.167-.125.2 0 .184-.166.659-.5 1.425-.316.75-.633 1.367-.95 1.85l-.675.95-.875-.675Zm5.975-8.6.7-.1a7.75 7.75 0 0 1 .925-.125c.8-.2 1.35-.3 1.65-.3.167 0 .284.017.35.05.05.067.1.117.15.15a.718.718 0 0 0 .125.025c.034-.133.167-1.041.4-2.725.234-1.683.35-2.716.35-3.1 0-.266-.008-.491-.025-.675a2.191 2.191 0 0 0-.05-.375c-.15 0-.491.4-1.025 1.2a23.224 23.224 0 0 0-1.55 2.675c-.383.684-.65 1.025-.8 1.025-.116.117-.366.509-.75 1.175-.383.667-.533 1.034-.45 1.1Zm25.894-7.025c0 .217-.058.5-.175.85-.167.534-.3 1.067-.4 1.6a8.248 8.248 0 0 0-.125 1.25l.025.25c-.1.217-.183.55-.25 1a5.666 5.666 0 0 1-.1.55.405.405 0 0 1-.175.25c0 .067.008.175.025.325.033.15.05.275.05.375v.3c-.317 1.817-.475 3.425-.475 4.825 0 .734.05 1.309.15 1.725.117.417.267.642.45.675.033 0 .058.009.075.025.017.017.025.059.025.125 0 .217-.058.417-.175.6-.1.184-.217.35-.35.5a4.519 4.519 0 0 1-.3.35 3.38 3.38 0 0 1-.125.175c-.033.067-.092.1-.175.1-.117 0-.325-.041-.625-.125-.05-.1-.208-.225-.475-.375-.267-.133-.483-.416-.65-.85-.167-.433-.25-1.166-.25-2.2 0-.283.008-.508.025-.675v-.075a2.464 2.464 0 0 1-.025-.425c0-.766.083-1.733.25-2.9a60.97 60.97 0 0 1 .575-3.2c.133-.566.308-1.266.525-2.1.217-.866.325-1.333.325-1.4l-.025-.025c.033.05-.333.725-1.1 2.025-.767 1.284-1.233 2.042-1.4 2.275-.083.117-.242.417-.475.9l-.7 1.45c-1.367 2.034-2.417 3.05-3.15 3.05-.7 0-1.158-.25-1.375-.75-.2-.5-.308-.941-.325-1.325a24.385 24.385 0 0 1-.025-.7c.033-.183.05-.4.05-.65v-.275c0-.05.017-.183.05-.4.05-.233.092-.491.125-.775 0-.1.083-.616.25-1.55.233-1.133.35-1.858.35-2.175 0-.066-.008-.108-.025-.125v.05c0 .05-.1.234-.3.55-.25.317-.542.784-.875 1.4a156.22 156.22 0 0 0-1.375 2.775c-.117.217-.292.575-.525 1.075-.05.517-.4 1.459-1.05 2.825l-.225.575c-.5 1.25-.9 2.167-1.2 2.75-.283.567-.5.842-.65.825-.083 0-.258-.083-.525-.25a3.188 3.188 0 0 1-.725-.625c-.217-.25-.325-.5-.325-.75 0-.033.142-.333.425-.9.467-.95.725-1.516.775-1.7.017-.066.033-.158.05-.275.033-.116.217-.416.55-.9 0-.1.075-.35.225-.75.167-.416.383-.891.65-1.425.133-.2.2-.391.2-.575.15-.183.342-.591.575-1.225.083-.233.167-.458.25-.675.1-.216.2-.383.3-.5.05-.033.133-.15.25-.35a51.269 51.269 0 0 1 1.55-2.65l.3-.55c.067-.183.125-.283.175-.3.067-.016.342-.475.825-1.375.75-1.05 1.183-1.575 1.3-1.575.1 0 .275.059.525.175.267.117.5.259.7.425.217.167.325.317.325.45 0 .05.008.192.025.425.017.234.025.484.025.75 0 .65-.275 2.817-.825 6.5l-.125.8c.017.05.042.15.075.3.033.134.05.284.05.45.217-.333.408-.6.575-.8.433-.633.742-1.133.925-1.5 0-.083.025-.166.075-.25.067-.083.133-.175.2-.275a2.61 2.61 0 0 0 .3-.45.788.788 0 0 0 .125-.425c.467-.666.883-1.3 1.25-1.9 1.4-2.183 2.267-3.425 2.6-3.725.117-.1.292-.183.525-.25.25-.066.483-.1.7-.1.467 0 .825.142 1.075.425.25.267.375.609.375 1.025Zm14.456 16.9c-.167.067-.292.1-.375.1a.741.741 0 0 1-.4-.125c-.484 0-.825-.033-1.025-.1l.15.1c-.867-.166-1.709-.641-2.525-1.425-.8-.783-1.317-1.608-1.55-2.475a6.8 6.8 0 0 1-.1-.475c-.034-.2-.042-.341-.025-.425.066-.366.258-.658.575-.875.316-.233.666-.35 1.05-.35.15 0 .3.025.45.075.116.234.175.425.175.575 0 .1-.025.242-.075.425.25.85.716 1.517 1.4 2 .683.484 1.466.725 2.35.725.733 0 1.408-.183 2.025-.55a3.465 3.465 0 0 0 1.4-1.575c.066-.15.116-.325.15-.525.05-.216.1-.4.15-.55a.53.53 0 0 1 .1-.175c.016-.1.025-.258.025-.475 0-.566-.117-1.108-.35-1.625-.217-.516-.534-.858-.95-1.025a6.682 6.682 0 0 1-.675-.125c-.367-.1-.65-.15-.85-.15-.15 0-.259.009-.325.025l-.4-.15c-.3-.316-.534-.6-.7-.85a1.705 1.705 0 0 1-.225-.85c0-.233.05-.483.15-.75.116 0 .266-.025.45-.075.2-.05.35-.075.45-.075.833 0 1.566-.208 2.2-.625a4.081 4.081 0 0 0 1.45-1.65c.35-.683.525-1.425.525-2.225 0-.133-.017-.35-.05-.65-.35-.3-.8-.45-1.35-.45-.617 0-1.275.159-1.975.475-.684.3-1.2.659-1.55 1.075a1.956 1.956 0 0 1-.95-.325 2.543 2.543 0 0 1-.725-.8 1.495 1.495 0 0 1-.175-.95c.466-.6 1.083-1.058 1.85-1.375a6.26 6.26 0 0 1 2.475-.5c.85 0 1.641.159 2.375.475.75.317 1.35.784 1.8 1.4.466.617.7 1.359.7 2.225 0 .334-.034.659-.1.975-.15.75-.492 1.5-1.025 2.25-.534.734-1.134 1.325-1.8 1.775a4.36 4.36 0 0 1 1.8 1.875c.416.8.625 1.667.625 2.6 0 .734-.217 1.559-.65 2.475-.417.917-.9 1.625-1.45 2.125-.084.084-.2.167-.35.25-.15.084-.275.159-.375.225l-.325.225c-.7.317-1.292.542-1.775.675-.484.15-1.042.217-1.675.2Zm19.144-1.875c-.767-.266-1.383-.766-1.85-1.5-.45-.733-.675-1.6-.675-2.6 0-.4.033-.766.1-1.1.033-.433.133-.941.3-1.525.1-.3.175-.608.225-.925 0-.033.017-.091.05-.175.033-.083.042-.15.025-.2.1-.25.242-.6.425-1.05.2-.45.325-.7.375-.75.067-.033.1-.075.1-.125a.39.39 0 0 0 .025-.1c0-.216.225-.683.675-1.4.467-.716.967-1.416 1.5-2.1.533-.683.85-1.025.95-1.025.033 0 .075-.033.125-.1.05-.083.083-.125.1-.125.117-.133.583-.375 1.4-.725.817-.366 1.467-.608 1.95-.725a3.097 3.097 0 0 1 1.025-.175c.85 0 1.542.4 2.075 1.2.533.784.808 1.875.825 3.275-.05.25-.092.617-.125 1.1-.033.384-.058.6-.075.65-.017.5-.125 1.125-.325 1.875-.183.734-.308 1.109-.375 1.125 0 .05-.017.109-.05.175a.409.409 0 0 0-.05.175c.017.15-.2.675-.65 1.575-.45.884-.708 1.334-.775 1.35a.2.2 0 0 0-.075.025c-.017.017-.017.05 0 .1s-.117.2-.4.45c-.267.25-.458.375-.575.375-.017 0-.033.009-.05.025 0 .017.017.05.05.1s-.208.267-.725.65c-.5.384-1.042.759-1.625 1.125-.583.35-1.025.559-1.325.625a.431.431 0 0 1-.225.125.716.716 0 0 1-.125.025c-.117.117-.333.217-.65.3-.3.084-.6.125-.9.125-.25 0-.475-.041-.675-.125Zm2.525-2.625c.5-.166 1-.433 1.5-.8.5-.383.8-.733.9-1.05.083-.3.2-.508.35-.625.283-.283.658-.933 1.125-1.95.483-1.033.733-1.733.75-2.1 0-.1.025-.258.075-.475.05-.233.108-.4.175-.5.033-.05.042-.158.025-.325a8.979 8.979 0 0 1-.025-.775c0-.433.008-.808.025-1.125-.05-1.083-.217-1.708-.5-1.875-.133-.1-.358-.15-.675-.15a1.904 1.904 0 0 0-.675.175c-.15.05-.267.075-.35.075-.233.134-.35.284-.35.45 0 .15-.067.275-.2.375-.117.1-.242.109-.375.025-.3.017-.492.059-.575.125-.083.067-.192.225-.325.475a8.854 8.854 0 0 1-.325.6c-.417.317-.733.65-.95 1-.217.35-.35.642-.4.875-.517.9-.842 1.534-.975 1.9-.117.35-.217.834-.3 1.45-.133.25-.242.542-.325.875-.067.334-.125.55-.175.65-.033.134-.05.309-.05.525 0 .367.025.75.075 1.15.05.384.117.642.2.775.133.45.425.675.875.675.367 0 .858-.141 1.475-.425Zm24.414-8.275c.033.534.05.85.05.95 0 .384-.034.717-.1 1-.067.284-.217.867-.45 1.75-.35.667-.575 1.109-.675 1.325-.384.734-.742 1.317-1.075 1.75-.334.417-.942.984-1.825 1.7-.384.35-1.042.7-1.975 1.05-.917.35-1.642.525-2.175.525-.15.017-.392.025-.725.025-.234 0-.4-.008-.5-.025-.017.417-.159 1.334-.425 2.75-.234.417-.492.625-.775.625-.1 0-.2-.025-.3-.075-.3-.066-.567-.25-.8-.55-.234-.3-.334-.575-.3-.825.116-.4.241-.941.375-1.625l.125-.525-1.725-.925c-.467-.35-.975-.85-1.525-1.5-.55-.65-.884-1.316-1-2-.084-.316-.125-.733-.125-1.25 0-1 .2-2.05.6-3.15.416-1.116.966-2.083 1.65-2.9.25-.283.508-.533.775-.75.266-.216.525-.408.775-.575.25-.183.416-.308.5-.375l.75-.525c.15-.1.408-.233.775-.4a7.71 7.71 0 0 1 .975-.4 2.6 2.6 0 0 1 .575-.125c.2-.033.458-.05.775-.05.466 0 .891.009 1.275.025 0-.316.083-.808.25-1.475.016-.133.041-.266.075-.4.033-.133.058-.258.075-.375 0-.216.1-.4.3-.55a.678.678 0 0 1 .65-.15c.3.067.583.217.85.45.266.234.4.434.4.6 0 .267-.017.5-.05.7l-.425 1.7c.766.3 1.516.709 2.25 1.225.55.384.95.709 1.2.975.266.267.466.575.6.925.133.35.241.834.325 1.45Zm-10.675 5.9c.116-.283.358-.975.725-2.075.733-2.133 1.291-3.641 1.675-4.525l.875-2.075-.375-.025c-.2 0-.4.025-.6.075-.417.084-.892.3-1.425.65a14.62 14.62 0 0 0-1.475 1.05c-.567.45-.984.934-1.25 1.45-.767 1.434-1.15 2.484-1.15 3.15-.084.35-.125.642-.125.875 0 .35.05.659.15.925.1.267.241.525.425.775.233.4.533.725.9.975.383.25.8.467 1.25.65.05-.316.108-.666.175-1.05.083-.383.158-.658.225-.825Zm8.6-5.5c.083-.866-.192-1.491-.825-1.875a37.41 37.41 0 0 1-.675-.4c-.334-.2-.617-.35-.85-.45a4.565 4.565 0 0 0-.7-.3c-.034.167-.142.475-.325.925-.134.284-.292.684-.475 1.2-.217.5-.609 1.517-1.175 3.05-.567 1.517-.917 2.5-1.05 2.95l-.225.7c-.167.45-.284.85-.35 1.2l-.175.675.925-.3c.133-.066.316-.125.55-.175.383-.116.666-.216.85-.3a5.367 5.367 0 0 0 1.975-1.35c.583-.616 1.158-1.458 1.725-2.525.116-.25.275-.741.475-1.475.2-.733.308-1.25.325-1.55Zm6.387 10.975c-.25 0-.634-.1-1.15-.3-.5-.2-.975-.45-1.425-.75-.45-.3-.742-.6-.875-.9l-.05-.1a3.453 3.453 0 0 1-.375-2.575 37.2 37.2 0 0 1 .125-.525c.15-.516.225-.941.225-1.275.083-.1.208-.266.375-.5a5.1 5.1 0 0 0 .325-.475.618.618 0 0 0 .05-.225v-.375c0-.116.041-.233.125-.35.083-.116.166-.208.25-.275.1-.083.166-.133.2-.15l.1.025c.033 0 .158-.241.375-.725.216-.5.425-1.025.625-1.575.833-1.533 1.766-2.808 2.8-3.825 1.033-1.033 1.95-1.725 2.75-2.075.066-.016.191-.033.375-.05.183-.016.358-.033.525-.05.316.017.7.092 1.15.225.45.134.691.234.725.3 0 .067.016.109.05.125a.39.39 0 0 0 .1.025c.15-.016.416.225.8.725.4.484.691.942.875 1.375.2.317.3.85.3 1.6 0 .634-.092 1.425-.275 2.375-.184.934-.367 1.6-.55 2a35.769 35.769 0 0 1-1.65 3.8c-.667 1.334-1.275 2.017-1.825 2.05-.017 0-.034.017-.05.05-.017.017-.025.05-.025.1s-.225.267-.675.65c-.434.384-.817.7-1.15.95l-.475.175c-.4.15-.859.267-1.375.35-.517.1-.95.159-1.3.175Zm.025-2.275c.716 0 1.233-.016 1.55-.05.316-.033.65-.141 1-.325.366-.2.758-.541 1.175-1.025.166-.3.3-.5.4-.6.016-.033.15-.266.4-.7.25-.433.483-.65.7-.65 0-.083.066-.308.2-.675.133-.383.233-.6.3-.65.033-.016.116-.2.25-.55.133-.366.258-.766.375-1.2.116-.433.175-.791.175-1.075.3-.316.433-.491.4-.525a.39.39 0 0 1-.025-.1v-.25c0-.483.033-.733.1-.75.083-.033.125-.058.125-.075a.294.294 0 0 0-.1-.1c-.034-.033-.05-.066-.05-.1 0-.016.025-.05.075-.1a.27.27 0 0 0 .075-.2c-.034-.416-.267-1.141-.7-2.175a1.379 1.379 0 0 1-.2-.175.624.624 0 0 0-.275-.2.576.576 0 0 0-.3-.075 2.13 2.13 0 0 0-.35.05c-.067-.066-.134-.1-.2-.1a.572.572 0 0 0-.175.025l-.125.05c-.35.084-.625.2-.825.35-.184.15-.45.417-.8.8l-.425.45c-.134.45-.409.842-.825 1.175-.067.05-.167.175-.3.375a3.568 3.568 0 0 1-.3.375l-.15.3c-.367.6-.759 1.4-1.175 2.4a41.027 41.027 0 0 0-1.075 2.8c-.3.884-.45 1.442-.45 1.675 0 .467.15.842.45 1.125.316.284.675.442 1.075.475Zm12.063 2.2c-.166 0-.416-.083-.75-.25-.333-.166-.5-.341-.5-.525 0-.033-.008-.1-.025-.2-.016-.1-.05-.2-.1-.3 0-.416.042-.75.125-1 0-.183.025-.383.075-.6.05-.216.109-.391.175-.525 0-.133.034-.308.1-.525a6.65 6.65 0 0 0 .125-.475l.15-.525.425-1.275c.084-.2.142-.366.175-.5.034-.133.05-.258.05-.375.1-.333.225-.758.375-1.275.15-.516.275-.966.375-1.35.084-.083.125-.208.125-.375.034-.1.109-.333.225-.7.117-.383.25-.783.4-1.2.25-.733.442-1.333.575-1.8.134-.466.2-.791.2-.975a.576.576 0 0 0-.075-.3 1.754 1.754 0 0 0-.075-.2c-.066-.166-.1-.266-.1-.3 0-.066.034-.133.1-.2a.752.752 0 0 0 .15-.2c.05-.083.084-.141.1-.175 0-.066.409-.258 1.225-.575.834-.333 1.475-.566 1.925-.7h1.525c.467.067.925.2 1.375.4.45.2.825.45 1.125.75.517.484.984 1.192 1.4 2.125 0 .067.017.217.05.45.05.217.075.409.075.575 0 .784-.283 1.684-.85 2.7-.55 1.017-1.308 1.917-2.275 2.7a6.555 6.555 0 0 1-1.75 1c-.6.234-1.175.35-1.725.35a3.11 3.11 0 0 1-.7-.075c-.3-.116-.516-.283-.65-.5a1.61 1.61 0 0 1-.175-.725c0-.216.034-.358.1-.425.067-.016.25-.025.55-.025.3 0 .742-.108 1.325-.325.434-.15.784-.308 1.05-.475.784-.5 1.475-1.233 2.075-2.2.334-.533.5-1.333.5-2.4a2.03 2.03 0 0 0 .05-.375c0-.333-.15-.608-.45-.825-.283-.233-.691-.375-1.225-.425a2.13 2.13 0 0 0-.375-.025c-.316 0-.65.042-1 .125-.35.084-.6.175-.75.275-.05 0-.091.059-.125.175a1.843 1.843 0 0 1-.125.325c0 .134-.058.384-.175.75-.1.367-.208.709-.325 1.025l-.325.95c-.216.55-.366.984-.45 1.3-.05.217-.116.45-.2.7a4.734 4.734 0 0 1-.175.45c0 .034-.05.184-.15.45-.1.267-.175.492-.225.675-.15.784-.358 1.5-.625 2.15-.383 1.25-.575 2.125-.575 2.625 0 .184.025.317.075.4.284.017.484.05.6.1.134.034.2.109.2.225 0 .2-.266.634-.8 1.3-.15.384-.308.659-.475.825-.166.167-.308.259-.425.275-.116.034-.291.05-.525.05Zm29.256-15.425c0 .084-.025.142-.075.175-.05.017-.075.034-.075.05 0 .017.033.05.1.1l-.175.825c-.067.35-.209 1.05-.425 2.1-.2 1.05-.35 1.9-.45 2.55l-.35 2.675a135.07 135.07 0 0 0-.325 2.725c-.05.634-.075 1.3-.075 2 0 .8.025 1.409.075 1.825.066.434.1.684.1.75 0 .1-.117.25-.35.45-.234.2-.492.3-.775.3-.434 0-.75-.183-.95-.55-.2-.35-.317-.9-.35-1.65 0-1.116.083-2.608.25-4.475.05-.116.075-.341.075-.675 0-.2-.017-.35-.05-.45-.017-.166.008-.4.075-.7a3.143 3.143 0 0 0 .075-.6c0-.083.033-.258.1-.525.1-.3.15-.533.15-.7v-.175c.05-.15.1-.333.15-.55.066-.233.1-.375.1-.425a1.43 1.43 0 0 1-.025-.35c0-.183-.017-.308-.05-.375.1-.283.216-.716.35-1.3l.3-1.2c-.017 0-.2.334-.55 1-.334.65-.742 1.309-1.225 1.975-.384.617-.759 1.15-1.125 1.6-.35.45-.55.709-.6.775-.217.284-.425.55-.625.8-.184.25-.317.484-.4.7-.35.867-.759 1.5-1.225 1.9-.45.4-.909.625-1.375.675l-.4.05h-.15c-.317 0-.584-.208-.8-.625-.2-.416-.3-1.191-.3-2.325l.025-.675.075-1.4c.05-.283.091-.75.125-1.4.033-.666.058-1.108.075-1.325-.084.084-.234.392-.45.925-.2.534-.325.875-.375 1.025l-.225.575c-.084.117-.209.434-.375.95-.134.384-.317.85-.55 1.4-.367 1.2-.7 2.15-1 2.85-.134.284-.267.592-.4.925-.034.067-.134.334-.3.8-.234.6-.384.959-.45 1.075-.717 1.617-1.317 2.425-1.8 2.425-.267 0-.534-.141-.8-.425-.25-.266-.375-.558-.375-.875 0-.233.091-.541.275-.925.183-.4.45-.916.8-1.55l.525-.975c0-.083.2-.65.6-1.7l.35-.925 1.55-4.1.025-.1.15-.375c.05-.133.141-.333.275-.6.233-.533.35-.841.35-.925v-.05c0-.05.016-.083.05-.1a.44.44 0 0 1 .1-.025c.066-.183.183-.466.35-.85.183-.4.325-.7.425-.9l-.025-.1c0-.166.025-.3.075-.4.066-.1.133-.191.2-.275a2.14 2.14 0 0 0 .2-.225c0-.1.05-.233.15-.4.1-.183.216-.366.35-.55.266-.366.441-.641.525-.825.166-.316.425-.475.775-.475.25 0 .5.1.75.3.25.2.458.425.625.675.166.234.25.392.25.475 0 .05-.025.084-.075.1-.05.017-.075.059-.075.125v.1c.016.05.025.117.025.2 0 .3-.042.534-.125.7a7.727 7.727 0 0 0-.225 1.925l.025.725c0 .134-.034.234-.1.3-.05.067-.092.125-.125.175v.05l-.025.2.025.15c0 .15-.042.334-.125.55-.101.384-.15.592-.15.625-.067.55-.1 1.117-.1 1.7 0 .867.075 1.342.225 1.425l1.8-2.675c1.533-2.266 2.308-3.425 2.325-3.475.116-.066.225-.191.325-.375-.017 0-.025-.016-.025-.05 0-.083.216-.441.65-1.075.433-.65.9-1.233 1.4-1.75.5-.533.908-.8 1.225-.8.15 0 .35.1.6.3.266.2.5.45.7.75.2.284.3.55.3.8Zm17.875 0c.017.067.025.184.025.35 0 .667-.358 2.3-1.075 4.9l-.275 1.075-.325 1.35c-.066.55-.208 1.184-.425 1.9-.216.7-.5 1.542-.85 2.525a34.3 34.3 0 0 0-.7 2.125c-.05.084-.125.259-.225.525-.1.267-.216.459-.35.575-.316.284-.616.425-.9.425-.1 0-.216-.025-.35-.075-.283-.116-.5-.258-.65-.425a.834.834 0 0 1-.2-.575c0-.116.009-.208.025-.275.067-.116.284-.658.65-1.625.367-.966.634-1.7.8-2.2.1-.566.225-1.116.375-1.65.15-.533.292-.916.425-1.15l.225-1.15c.05-.25.134-.675.25-1.275.134-.6.259-1.066.375-1.4l.875-3.975c-1.583.067-2.4.125-2.45.175-.016.184-.216.725-.6 1.625-.366.9-.65 1.55-.85 1.95-.2.384-.366.725-.5 1.025-.133.284-.241.517-.325.7l-.3.7c-.15.467-.533 1.292-1.15 2.475-.616 1.184-1.158 2.142-1.625 2.875a47.43 47.43 0 0 1-2.125 2.8 7.637 7.637 0 0 1-1.025 1.075c-.383.367-.691.6-.925.7a1.053 1.053 0 0 1-.475.125c-.366 0-.7-.15-1-.45-.283-.283-.433-.641-.45-1.075.084-.216.209-.383.375-.5.184-.133.384-.2.6-.2.017 0 .234-.208.65-.625.417-.433.684-.716.8-.85.434-.483 1.017-1.225 1.75-2.225.384-.55.934-1.391 1.65-2.525l.45-.625 1.15-3.15 1.45-3.2c-.183.067-.45.192-.8.375-1.083.517-1.85.775-2.3.775-.283 0-.491-.091-.625-.275a1.403 1.403 0 0 1-.275-.85c0-.283.075-.541.225-.775.15-.25.342-.416.575-.5l2.85-1.025c.95-.266 1.7-.508 2.25-.725.284-.016.692-.058 1.225-.125.534-.083.875-.15 1.025-.2 1.617-.05 2.642.8 3.075 2.55Zm4.631 15.775a3.03 3.03 0 0 1-1.2-.375 11.02 11.02 0 0 1-1.1-.675 59.376 59.376 0 0 1-.675-.475 3.217 3.217 0 0 1-.65-.9c-.15-.333-.275-.766-.375-1.3-.034-.2-.05-.375-.05-.525 0-.5.083-1.108.25-1.825.183-.733.366-1.3.55-1.7.366-.883 1.175-2.3 2.425-4.25l.125-.125c.033-.033.041-.05.025-.05v-.025c0-.116.241-.633.725-1.55.283-.3.425-.558.425-.775a.451.451 0 0 0-.075-.275c-.05-.066.016-.208.2-.425a5.28 5.28 0 0 1 .75-.75 6.21 6.21 0 0 1 1.05-.725c.45-.35.891-.525 1.325-.525.133 0 .241.025.325.075.1.034.158.092.175.175 0 .1.333.067 1-.1.3-.066.516-.108.65-.125.066-.083.233-.15.5-.2.283-.066.675-.133 1.175-.2.266.017.591.017.975 0 .4-.016.658-.033.775-.05.116-.033.283.042.5.225.233.184.416.417.55.7.033.1.05.175.05.225 0 .25-.159.467-.475.65-.317.167-.775.284-1.375.35-.617.084-1.159.167-1.625.25-.467.084-1.05.2-1.75.35l-.525.1c-.517.084-.9.192-1.15.325-.25.134-.517.425-.8.875-.117.084-.267.3-.45.65a29.76 29.76 0 0 0-.55 1.05l-.5.675c-.384.517-.625.859-.725 1.025-.084.15-.1.259-.05.325a9.923 9.923 0 0 0 .8.15c.15-.083.358-.141.625-.175.266-.033.458-.066.575-.1l.55-.15c1.033-.266 1.791-.458 2.275-.575.483-.116.841-.191 1.075-.225a.468.468 0 0 1 .3-.1c.183 0 .358.092.525.275.183.167.316.367.4.6.066.234.1.384.1.45 0 .284-.167.5-.5.65-.334.134-1 .317-2 .55-1.45.35-2.359.575-2.725.675-1.084.317-1.884.475-2.4.475-.434 0-.642-.141-.625-.425-.15-.083-.325.067-.525.45a6.98 6.98 0 0 0-.525 1.425c-.134.567-.2 1.059-.2 1.475 0 .217.025.4.075.55.15.4.375.742.675 1.025.3.267.716.475 1.25.625a6.834 6.834 0 0 0 1.05.075c.333 0 .666-.066 1-.2 1.3-.216 2.216-.516 2.75-.9a.549.549 0 0 0 .225-.175c.083-.083.158-.125.225-.125l-.025.05c0 .017.05-.016.15-.1.1-.1.208-.2.325-.3.466-.4.983-.6 1.55-.6.2 0 .366.034.5.1.15.05.233.1.25.15.1.167.05.434-.15.8-.2.367-.517.75-.95 1.15-.417.4-.884.75-1.4 1.05-.817.434-1.734.75-2.75.95-1 .217-1.967.334-2.9.35Zm12.616 1.325a9.056 9.056 0 0 0-.375-.075 1.488 1.488 0 0 0-.45-.025c-.284-.05-.559-.191-.825-.425-.25-.233-.35-.475-.3-.725.05-.05.091-.183.125-.4a3.4 3.4 0 0 0 .05-.55c.066-.183.141-.45.225-.8.1-.75.358-1.991.775-3.725.433-1.75.708-2.683.825-2.8l-.025-.275a1.947 1.947 0 0 1 .25-.8c.066-.2.116-.391.15-.575.05-.2.075-.35.075-.45.033-.05.15-.35.35-.9l.25-.7a20 20 0 0 1 .4-1.125c.166-.433.275-.716.325-.85v-.125c.066-.083.25-.525.55-1.325.15-.333.291-.675.425-1.025.15-.366.3-.725.45-1.075.05-.1.125-.241.225-.425.1-.183.15-.308.15-.375.066-.133.233-.2.5-.2.216 0 .433.05.65.15.216.1.366.234.45.4l.575.4-.85 1.825a28.65 28.65 0 0 0-.6 1.275c-.167.4-.25.634-.25.7-.034.117-.109.359-.225.725-.117.367-.242.784-.375 1.25-.067.234-.234.725-.5 1.475-.117.284-.175.442-.175.475 0-.066.9-.133 2.7-.2.3-.016.85-.041 1.65-.075.816-.05 1.325-.1 1.525-.15l1.275-.175.6-2.225c.2-.816.525-1.966.975-3.45.216-.716.475-1.266.775-1.65.3-.4.558-.6.775-.6.416 0 .758.3 1.025.9.2.167.3.359.3.575 0 .217-.125.542-.375.975-.217.4-.475 1.067-.775 2-.05.217-.134.475-.25.775v.1c0 .317-.075.55-.225.7-.05.05-.159.284-.325.7-.15.417-.225.659-.225.725.016.117 0 .267-.05.45-.05.167-.109.284-.175.35-.017.067-.175.734-.475 2-.3 1.267-.6 2.284-.9 3.05.016.084-.017.234-.1.45-.067.217-.1.367-.1.45-.25.8-.367 1.25-.35 1.35a184.31 184.31 0 0 1-.475 2.075c-.15.667-.225 1.009-.225 1.025-.017.034-.092.05-.225.05a2.34 2.34 0 0 1-.85-.175 1.581 1.581 0 0 1-.6-.55 1.205 1.205 0 0 1-.225-.7c0-.216.041-.408.125-.575.066-.116.191-.616.375-1.5l.25-1.075c.083-.266.175-.658.275-1.175.116-.533.2-.908.25-1.125.15-.866.25-1.325.3-1.375v-.25c-.05-.05-.35-.075-.9-.075-.567 0-1.234.034-2 .1-.767.05-1.45.125-2.05.225l-.7.025c-.35 0-.575.009-.675.025-.167 0-.309.009-.425.025h-.225c-.067.15-.259.867-.575 2.15-.317 1.284-.5 2.109-.55 2.475-.15.767-.325 1.584-.525 2.45-.184.884-.334 1.55-.45 2Zm24.52.175c-.2-.066-.416-.266-.65-.6a3.928 3.928 0 0 1-.5-.925c.684-2.9 1.217-4.9 1.6-6 .084-.45.125-.7.125-.75a.237.237 0 0 0-.1-.2c-.166-.1-.791-.241-1.875-.425-1.066-.2-1.95-.35-2.65-.45-.15.017-.375-.008-.675-.075a2.876 2.876 0 0 0-.65-.075c-.266 0-.433-.008-.5-.025-.066-.016-.125-.066-.175-.15a.734.734 0 0 0-.025-.125c0-.083-.075.1-.225.55l-.525 1.775c-.466 1.4-.775 2.65-.925 3.75l-.1.525a28.98 28.98 0 0 1-.675 2.1c-.166.484-.308.734-.425.75-.033.067-.158.075-.375.025-.2-.05-.4-.116-.6-.2-.316-.216-.475-.55-.475-1 0-.266.05-.641.15-1.125.1-.5.225-1.066.375-1.7a7.01 7.01 0 0 1 .125-.575c.167-.933.3-1.625.4-2.075.117-.466.234-.741.35-.825.034-.133.125-.516.275-1.15.167-.633.367-1.208.6-1.725.2-.733.525-1.658.975-2.775.45-1.116 1.009-2.433 1.675-3.95l.425-.975c.134-.116.209-.291.225-.525.034-.25.059-.408.075-.475.117-.233.334-.466.65-.7.317-.233.542-.341.675-.325.2.034.409.159.625.375.234.217.409.45.525.7.117.25.142.459.075.625-.1.1-.258.4-.475.9-.2.484-.441 1.092-.725 1.825l-.3.475c-.283.434-.458.742-.525.925a2.235 2.235 0 0 0-.225.55c-.05.217-.1.35-.15.4-.15.317-.325.709-.525 1.175-.2.45-.283.709-.25.775.034.05.3.109.8.175.5.067.817.109.95.125l.6.075c.117-.016.717.042 1.8.175l1.075.15c.484.15.884.259 1.2.325.334.05.517.042.55-.025l.45-1.075.125-.55c.234-1 .4-1.658.5-1.975.45-.766.817-1.908 1.1-3.425.084-.333.2-.616.35-.85.15-.25.292-.458.425-.625.15-.183.25-.308.3-.375.034.017.092.042.175.075.1.034.209.067.325.1.6.117.9.534.9 1.25 0 .567-.166 1.342-.5 2.325l-.4 1.05c-.433.984-.683 1.659-.75 2.025-.033.1-.066.209-.1.325-.033.1-.066.209-.1.325-.25.834-.491 1.509-.725 2.025v.025c0 .117.167.292.5.525a.537.537 0 0 1 .275.475c0 .2-.091.384-.275.55a.787.787 0 0 1-.575.25c-.25 0-.425.05-.525.15-.083.084-.15.317-.2.7-.366.834-.783 2.067-1.25 3.7-.466 1.634-.691 2.667-.675 3.1-.083.25-.175.417-.275.5a.43.43 0 0 1-.35.15 2.11 2.11 0 0 1-.325-.05Zm7.482-1.575a4.41 4.41 0 0 1-.75-.725c-.2-.266-.3-.508-.3-.725 0-.316.275-.541.825-.675 1.717-.416 3.642-2.091 5.775-5.025-.733-.4-1.283-.816-1.65-1.25-.366-.45-.633-1.066-.8-1.85a4.813 4.813 0 0 1-.125-1c.084-.116.125-.291.125-.525.017-.233.042-.4.075-.5l.55-1.625c.55-1.583 2.084-2.808 4.6-3.675.817-.333 1.417-.475 1.8-.425l.325-.025c.15-.05.3-.075.45-.075.117 0 .2.009.25.025a.782.782 0 0 1 .225-.025c.284 0 .6.092.95.275a2.9 2.9 0 0 1 .925.65c.267.267.4.534.4.8 0 .084-.008.15-.025.2-.166.484-.275.792-.325.925-.266.834-.483 1.45-.65 1.85-.45 1.1-.975 2.667-1.575 4.7-.583 2.034-.916 3.517-1 4.45-.133.367-.25.975-.35 1.825-.016.15-.05.367-.1.65a4.843 4.843 0 0 1-.125.7c-.05.217-.2.409-.45.575-.25.167-.5.25-.75.25a.774.774 0 0 1-.35-.075 2.395 2.395 0 0 1-.525-.375 14.9 14.9 0 0 1-.525-.5c.05-.183.109-.458.175-.825a4.85 4.85 0 0 1 .275-1.1c.034-.35.109-.825.225-1.425.034-.116.067-.291.1-.525.1-.533.2-.925.3-1.175l.05-.4c-.233.384-.875 1.159-1.925 2.325a26.43 26.43 0 0 1-3.325 3.125c-1.15.9-2.075 1.3-2.775 1.2Zm8.575-8.975c.784-2.483 1.45-4.691 2-6.625a6.636 6.636 0 0 0-2.25.675 5.69 5.69 0 0 0-1.85 1.45c-.5.6-.791 1.275-.875 2.025a2.787 2.787 0 0 1-.125.6.719.719 0 0 0-.075.325c0 .334.134.659.4.975.284.317.575.475.875.475.2 0 .409-.066.625-.2.217-.133.342-.208.375-.225l.9.525Zm4.503 9.525c-.25 0-.508-.166-.775-.5-.267-.316-.4-.716-.4-1.2 0-.383.092-.758.275-1.125.333-.7.667-1.266 1-1.7.117-.166.2-.308.25-.425.067-.116.108-.275.125-.475.233-.3.542-.841.925-1.625.65-1.05 1.575-2.666 2.775-4.85.167-.3.492-.891.975-1.775.5-.883.833-1.408 1-1.575l.125-.175c-.05.084.033-.108.25-.575.233-.466.475-.883.725-1.25.267-.383.5-.575.7-.575.217 0 .467.092.75.275.283.167.525.425.725.775.217.334.325.734.325 1.2 0 .2-.008.359-.025.475l-.25 1.7-.125.55a178.46 178.46 0 0 1-.975 4.525c-.383 1.7-.575 2.725-.575 3.075 0 .1.017.184.05.25.033.05.075.075.125.075.033 0 .117-.05.25-.15.133-.116.25-.283.35-.5l.325-.5.425-.625a48.692 48.692 0 0 0 1.725-2.625c.683-1.116 1.792-3.025 3.325-5.725.317-.466.575-.875.775-1.225.267-.433.525-.841.775-1.225.25-.383.442-.625.575-.725a.971.971 0 0 1 .625-.2c.25.017.508.109.775.275.283.167.517.4.7.7.2.3.3.625.3.975 0 .4-.125 1.134-.375 2.2a34.873 34.873 0 0 1-.825 3.1c-.067.35-.275 1.175-.625 2.475a65.055 65.055 0 0 0-.6 2.3c-.117.567-.175 1.025-.175 1.375v.2c-.25.45-.375 1.35-.375 2.7-.067.55-.192.975-.375 1.275-.183.317-.333.475-.45.475l-.075-.025a.404.404 0 0 0-.25.1c-.067.084-.167.125-.3.125-.417 0-.692-.15-.825-.45-.117-.3-.175-.708-.175-1.225 0-.3.008-.55.025-.75.05-.433.583-2.691 1.6-6.775.8-3.2 1.2-4.875 1.2-5.025l-.35.6c-.333.634-.75 1.375-1.25 2.225l-1.75 3.275c-.217.3-.4.592-.55.875-.133.284-.208.45-.225.5-.2.4-.6.975-1.2 1.725-.2.25-.317.409-.35.475-.083.184-.35.509-.8.975-.45.45-.925.867-1.425 1.25-.5.367-.917.55-1.25.55-.45 0-.858-.216-1.225-.65-.35-.433-.525-.958-.525-1.575 0-.45.083-1.2.25-2.25.267-1.15.55-2.316.85-3.5.3-1.183.508-1.958.625-2.325.05-.15.075-.316.075-.5 0-.116-.017-.191-.05-.225-.017 0-.042.017-.075.05a1.275 1.275 0 0 1-.075.125c-.25.4-.642 1.1-1.175 2.1s-1.108 2.175-1.725 3.525c-2.383 4.384-3.75 6.775-4.1 7.175Zm-151.123 32.225a7.644 7.644 0 0 1-1.45-.125 3.156 3.156 0 0 1-1.15-.475c-.55-.35-1.1-.783-1.65-1.3-.534-.533-.8-1-.8-1.4 0-.266.108-.55.325-.85a3.2 3.2 0 0 1 .825-.75c.333-.2.641-.3.925-.3.35.184.608.359.775.525.166.167.25.35.25.55 0 .267-.192.575-.575.925.233.284.516.5.85.65.35.134.725.2 1.125.2.55 0 1.141-.133 1.775-.4a4.86 4.86 0 0 0 1.6-1.125c.433-.466.65-.983.65-1.55 0-.716-.167-1.308-.5-1.775-.334-.483-.842-.725-1.525-.725-.134 0-.242.009-.325.025h-.2a1.53 1.53 0 0 1-.525-.125.755.755 0 0 1-.475-.3 5.63 5.63 0 0 1-.525-.725c-.1-.2-.15-.4-.15-.6 0-.3.183-.55.55-.75.2-.116.383-.175.55-.175.05 0 .141.017.275.05.116-.05.3-.091.55-.125.266-.033.466-.083.6-.15 1.1-.5 2.108-1.15 3.025-1.95.916-.816 1.375-1.7 1.375-2.65 0-.25-.059-.533-.175-.85a2.42 2.42 0 0 0-1.25-.325c-.7 0-1.392.192-2.075.575-.667.384-1.109.859-1.325 1.425-.25.667-.65 1.125-1.2 1.375a5.287 5.287 0 0 1-.8-.625 7.708 7.708 0 0 1-.625-.925 7.636 7.636 0 0 1 1.425-2.375 6.031 6.031 0 0 1 2.2-1.6c.216-.1.558-.191 1.025-.275.483-.1.85-.15 1.1-.15.8 0 1.5.192 2.1.575.6.384 1.066.909 1.4 1.575.333.65.5 1.367.5 2.15 0 .917-.167 1.7-.5 2.35-.334.65-.775 1.2-1.325 1.65-.55.45-1.275.959-2.175 1.525.55.45.95.925 1.2 1.425.25.484.375 1.067.375 1.75 0 .784-.059 1.434-.175 1.95-.1.517-.334 1.042-.7 1.575-.234.4-.659.825-1.275 1.275a8.47 8.47 0 0 1-1.875 1.05l-.175-.025c-.1.067-.275.117-.525.15-.284.067-.459.125-.525.175h-.8Zm17.551-19c.566 0 1.091.15 1.575.45.5.284.891.692 1.175 1.225.3.517.45 1.109.45 1.775 0 .934-.059 2.159-.175 3.675a75.692 75.692 0 0 1-.45 4.275c-.2 1.4-.375 3.2-.525 5.4-.1 1.167-.184 1.967-.25 2.4-.05.45-.15.709-.3.775l.025.05c0 .067-.059.125-.175.175a1.08 1.08 0 0 1-.425.075c-.3 0-.6-.058-.9-.175-.3-.116-.45-.366-.45-.75 0-.216.041-.741.125-1.575.183-1.566.291-2.85.325-3.85l.15-1.1h-.625c-.284.084-.692.125-1.225.125l-1.575-.025c-.45 0-.759.017-.925.05a.477.477 0 0 0-.35.2c-.084.1-.184.309-.3.625-.084.267-.259.675-.525 1.225-.584 1.417-1.1 2.425-1.55 3.025-.45.6-.892.9-1.325.9-.117 0-.309-.05-.575-.15-.25-.1-.375-.233-.375-.4 0-.233.175-.716.525-1.45.366-.733.641-1.225.825-1.475.016 0 .016-.008 0-.025a.341.341 0 0 1-.025-.15c0-.366.216-.975.65-1.825.066-.2.133-.391.2-.575.083-.2.125-.325.125-.375l.475-.925c0-.1.058-.308.175-.625.133-.333.291-.691.475-1.075 0-.25.05-.491.15-.725.1-.25.233-.516.4-.8.183-.333.275-.55.275-.65 0-.033.016-.108.05-.225.05-.116.141-.308.275-.575-.034 0-.05-.008-.05-.025 0-.016.066-.108.2-.275 0-.15.058-.316.175-.5.133-.2.35-.75.65-1.65l.5-1.075c.133-.216.308-.625.525-1.225l.2-.525.2-.55c.05-.066.125-.191.225-.375.1-.183.258-.333.475-.45.216-.116.508-.183.875-.2.2-.05.408-.075.625-.075Zm.525 9.55c0-.183.058-.858.175-2.025.233-2.4.358-3.875.375-4.425 0-.25-.009-.391-.025-.425 0-.15-.134-.291-.4-.425-.267-.133-.459-.2-.575-.2-.15 0-.275.084-.375.25-.1.167-.2.375-.3.625-.1.234-.167.4-.2.5l-.225.575c-.284.7-.617 1.559-1 2.575-.384 1-.6 1.6-.65 1.8-.1.1-.275.417-.525.95-.234.517-.35.842-.35.975 0 .417.208.625.625.625.066 0 .2-.008.4-.025.216-.033.45-.091.7-.175h.35c.266 0 .533-.041.8-.125.433-.066.716-.116.85-.15.15-.033.241-.108.275-.225.05-.116.075-.341.075-.675Zm7.58 9.525c-.067.184-.259.275-.575.275-.334 0-.659-.125-.975-.375a1.093 1.093 0 0 1-.475-.925c0-.083.016-.191.05-.325.416-1.716.783-3.191 1.1-4.425a38.221 38.221 0 0 1 1.05-3.45c.05-.15.141-.358.275-.625 0-.183.033-.35.1-.5a8.09 8.09 0 0 1 .125-.275c.016-.05.05-.125.1-.225s.083-.2.1-.3c.05-.416.325-1.2.825-2.35a60.654 60.654 0 0 1 1.4-2.975l-.45-.075c-.45-.083-.675-.366-.675-.85 0-.2.041-.408.125-.625.083-.233.191-.425.325-.575.183-.2.375-.316.575-.35.216-.05.441-.075.675-.075h.55c.15-.283.341-.425.575-.425.183 0 .383.067.6.2.216.117.358.192.425.225l2-.025c.533 0 1.05.025 1.55.075.083.017.183.042.3.075.133.017.233.025.3.025h1.775c1.416 0 2.508.092 3.275.275.416.1.625.35.625.75 0 .334-.109.725-.325 1.175-.217.45-.525 1.009-.925 1.675-.367.634-.567 1.009-.6 1.125a2.36 2.36 0 0 0-.1.475c-.034.217-.117.384-.25.5-.434 1.017-.917 2.392-1.45 4.125-.1.3-.209.642-.325 1.025-.117.384-.259.809-.425 1.275-.65 1.834-1.225 3.9-1.725 6.2-.35 0-.75-.1-1.2-.3-.45-.2-.717-.45-.8-.75-.05-.2-.025-.491.075-.875.116-.4.275-.9.475-1.5.166-.5.266-.825.3-.975.283-1.166.533-2.133.75-2.9.216-.766.475-1.525.775-2.275.483-1.183.975-2.675 1.475-4.475a9.4 9.4 0 0 1 .375-.95c.233-.566.366-.95.4-1.15-.35-.066-.959-.116-1.825-.15a38.372 38.372 0 0 0-2.125-.075c-.167 0-.417.017-.75.05a4.34 4.34 0 0 1-.8.075h-.325a2.553 2.553 0 0 0-.5 0 19.26 19.26 0 0 0-1.025 1.9c-.35.717-.6 1.325-.75 1.825-.084.317-.2.675-.35 1.075l-.25.575c-.15.3-.275.6-.375.9a41.96 41.96 0 0 1-.575 1.7 202.4 202.4 0 0 0-.475 1.4c-.35.967-.567 1.584-.65 1.85-.017.1-.042.267-.075.5-.034.234-.1.425-.2.575-.367 1.95-.734 3.359-1.1 4.225Zm30.873-18.95c.366-.033.666.084.9.35a1.312 1.312 0 0 1 .3 1.35c-.217.434-.7 1.609-1.45 3.525-.75 1.9-1.475 3.759-2.175 5.575l-1.8 5.2a32.01 32.01 0 0 1-.525 1.3 3.994 3.994 0 0 0-.45 1.3 1.616 1.616 0 0 1-.4.7c-.184.2-.375.3-.575.3a.404.404 0 0 1-.25-.075c-.767-.283-1.15-.733-1.15-1.35 0-.05.016-.158.05-.325-.034.217.2-.291.7-1.525.516-1.25.933-2.3 1.25-3.15 1.233-3.083 1.85-4.683 1.85-4.8.2-.516.333-.883.4-1.1.2-.65.4-1.166.6-1.55l.425-1.125-8.825 10.2c-.117.1-.442.392-.975.875-.45.45-.8.767-1.05.95-.117.084-.317.234-.6.45a6.973 6.973 0 0 1-.725.525c-.217.15-.392.225-.525.225-.95-.166-1.425-.55-1.425-1.15 0-.266.066-.566.2-.9.133-.35.216-.575.25-.675.2-.633.325-1.141.375-1.525.183-.75.441-1.65.775-2.7.033-.133.116-.441.25-.925.15-.5.241-.958.275-1.375.233-.45.55-1.183.95-2.2l.35-.9c.066-.133.216-.541.45-1.225.15-.516.308-.95.475-1.3l.25-.475c.316-.616.558-1.116.725-1.5.183-.4.283-.733.3-1 0-.216.075-.375.225-.475a.872.872 0 0 1 .55-.175c.283 0 .541.084.775.25.233.15.383.35.45.6.066.184.1.392.1.625 0 .217-.034.417-.1.6l-2.075 5.275-2.275 6-.6 1.5 5.05-5.05c.566-.583 1.1-1.208 1.6-1.875.433-.566.85-1.066 1.25-1.5.4-.433.891-.941 1.475-1.525l.575-.6 3.175-3.375c.216-.166.425-.25.625-.25Zm-7.525 17.825v.025-.025Zm21.446-15.125c.016.067.025.15.025.25 0 .217-.1.375-.3.475l-.6.2a2.57 2.57 0 0 1-.7.125.958.958 0 0 1-.35-.05 1.505 1.505 0 0 0-.6-.325c-.234-.066-.717-.125-1.45-.175-.217.034-.409.05-.575.05-.167 0-.3.009-.4.025-.134.434-.3.842-.5 1.225-.067.317-.159.6-.275.85-.117.334-.167.525-.15.575-.05.067-.209.492-.475 1.275a87.183 87.183 0 0 0-.75 2.25c-.167.517-.292.892-.375 1.125a8.169 8.169 0 0 0-.325.8l-.25.75-.625 1.725c-.134.25-.3.65-.5 1.2a21.881 21.881 0 0 0-.45 1.45c-.184.65-.35 1.117-.5 1.4-.134.284-.25.459-.35.525-.1.067-.242.1-.425.1-.267 0-.5-.133-.7-.4-.2-.266-.3-.516-.3-.75 0-.366.125-.983.375-1.85.266-.866.516-1.558.75-2.075.066-.3.125-.541.175-.725a3.27 3.27 0 0 0 .125-.4c.05-.066.125-.241.225-.525a8.2 8.2 0 0 0 .275-.825c.05-.3.566-1.975 1.55-5.025l.175-.525c.15-.25.291-.566.425-.95.133-.083.2-.258.2-.525a.43.43 0 0 1 .075-.2c.066-.083.1-.141.1-.175.016-.016.041-.025.075-.025.016 0 .033.009.05.025.033 0 .083-.033.15-.1h-.025l-1.225.125-.55.05c-.984.084-1.542.142-1.675.175l-.35.025c-.517 0-.884-.1-1.1-.3-.2-.216-.267-.458-.2-.725a.849.849 0 0 1 .375-.525c.216-.133.566-.25 1.05-.35.15-.033.441-.083.875-.15l.675-.125.85-.1a28.67 28.67 0 0 1 3.075-.3c.45-.016.825-.033 1.125-.05.316-.033.525-.058.625-.075.233.017.608.059 1.125.125.533.067.916.142 1.15.225.366.084.666.234.9.45.233.217.391.467.475.75Zm.986 15.275a7.19 7.19 0 0 0-.575-.125c-.266-.05-.5-.125-.7-.225a1.847 1.847 0 0 1-.65-.525 1.322 1.322 0 0 1-.225-.725c0-.4.192-.733.575-1 .234-.016.417-.008.55.025.134.017.35.084.65.2.117.05.284.084.5.1.234 0 .4.017.5.05.334-.05.667-.183 1-.4.334-.233.625-.491.875-.775a.902.902 0 0 0 .125-.175c.067-.083.134-.15.2-.2-.183-.216-.416-.7-.7-1.45-.283-.75-.441-1.266-.475-1.55-.016-.1-.041-.233-.075-.4a2.405 2.405 0 0 0-.075-.45c-.083-.333-.225-.75-.425-1.25a19.293 19.293 0 0 1-.35-1.05 30.256 30.256 0 0 1-.5-2.375c-.166-.95-.25-1.683-.25-2.2 0-.466-.033-.891-.1-1.275a5.625 5.625 0 0 1-.125-1.075c0-.4.067-.766.2-1.1l1.15-.125c.134.1.3.234.5.4.2.167.384.292.55.375 0 .267.017.634.05 1.1.017.15.025.367.025.65 0 .117-.008.267-.025.45 0 .184.009.4.025.65.067.034.109.125.125.275a.85.85 0 0 1 .025.35c-.033.217.034.784.2 1.7.167.917.3 1.45.4 1.6.067.467.25 1.084.55 1.85.3.767.675 1.7 1.125 2.8a21.613 21.613 0 0 0 1.675-2.85c.517-1.016 1.184-2.425 2-4.225.284-.683.609-1.416.975-2.2.084-.166.217-.525.4-1.075.1-.35.225-.7.375-1.05.367-.2.667-.3.9-.3.05 0 .125.017.225.05.3.134.542.342.725.625.2.284.3.584.3.9 0 .067-.016.184-.05.35-.216.817-.5 1.492-.85 2.025l-1.675 3.375c-.25.517-.408.825-.475.925l-.65 1.375c-.266.617-.916 1.659-1.95 3.125a2.23 2.23 0 0 1-.225.3c-.083.117-.158.225-.225.325-.616.917-1.408 1.759-2.375 2.525l-.8.6-.225.225c-.083.084-.175.15-.275.2a.57.57 0 0 1-.3.075c-.2.184-.916.375-2.15.575Zm14.478-4.8a.747.747 0 0 1-.225.025.948.948 0 0 1-.775-.375c-.183-.266-.275-.666-.275-1.2 0-.416.075-.933.225-1.55.234-.466.35-.816.35-1.05.084-.283.217-.641.4-1.075.184-.45.334-.791.45-1.025.067 0 .134-.058.2-.175a.593.593 0 0 0 .125-.35c0-.15.025-.3.075-.45.067-.166.134-.283.2-.35 0-.05.034-.133.1-.25.067-.133.1-.225.1-.275 0-.033.017-.083.05-.15a.426.426 0 0 0 .075-.2c.3-.5.734-1.441 1.3-2.825.567-1.383.859-2.183.875-2.4.067-.383.217-.55.45-.5.084-.066.284-.1.6-.1.05.017.142.059.275.125.134.067.25.159.35.275a.676.676 0 0 1 .2.425c.034.167.05.384.05.65-.016.25-.091.525-.225.825-.133.284-.291.584-.475.9a15.77 15.77 0 0 0-.375.675l-.325.6c-.266.467-.4.742-.4.825 0 .067-.041.192-.125.375-.083.167-.15.309-.2.425a5.876 5.876 0 0 0-.425.9c-.133.384-.2.617-.2.7a4.198 4.198 0 0 0-.075.175.424.424 0 0 1-.125.225c-.05 0-.083.042-.1.125a.734.734 0 0 0-.025.15c0 .084-.041.25-.125.5-.083.25-.2.525-.35.825-.566 1.617-.875 2.767-.925 3.45-.033.35-.116.6-.25.75a1.41 1.41 0 0 1-.45.375Zm-1.325 3.875c-.316.134-.583.2-.8.2-.25 0-.533-.116-.85-.35-.25-.25-.375-.5-.375-.75 0-.416.309-.833.925-1.25.367-.233.634-.35.8-.35.117 0 .334.067.65.2.5.317.75.659.75 1.025 0 .467-.366.892-1.1 1.275Z" fill="#1EA6F9"/><path d="M3.49 130.049c-5.213 46.624 68.012 68.138 110.659 72.339 59.645 6.669 76.795 3.483 91.737 2.602l38.007 20.411-4.209-26.839c20.438-4.519 110-11.091 108.049-63.621-2.12-57.055-125.51-68.47-168.61-69.888C136.024 63.638 10.401 68.245 3.49 130.05Z" stroke="#6ABDEC" stroke-width="3" stroke-linecap="round" stroke-dasharray="6 12"/></g><defs><clipPath id="a"><path fill="#fff" d="M0 0h378v716H0z"/></clipPath></defs></svg>