<svg width="636" height="662" fill="none" xmlns="http://www.w3.org/2000/svg"><circle cx="318.5" cy="334.5" r="266.5" fill="#F8F8F8"/><circle cx="318.5" cy="334.5" r="201.566" fill="#F2F1F1"/><path opacity=".23" d="M523.591 441.77c3.271-2.677 5.021-10.44 3.658-13.29-17.719-7.434-54.123-21.188-57.989-16.727-4.833 5.576-55.016 47.209-59.848 50.926-4.833 3.717-49.068 15.241-111.89 15.241-50.257 0-97.763-18.338-115.235-27.508-1.982 2.85-6.096 9.888-6.691 15.241-.594 5.353-16.603 10.408-24.534 12.267 3.098 1.363 10.558 3.271 15.613 0l.186-.12c6.363-4.119 18.065-11.692 21.746-3.226 3.717 8.55 4.461-14.497 14.125-11.895 9.665 2.602 8.922 19.33 14.869 19.33 5.948 0 15.985 4.832 33.084 6.319 17.099 1.487 71.743 5.948 117.465-6.319 36.578-9.814 27.88-2.974 30.854-7.435 2.973-4.46 16.929-4.56 21.879-4.56 8.549 0 25.755 5.676 29.1 4.56 3.346-1.115 7.115-1.832 11.099-2.23 3.717-.372 7.434 1.307 13.754 0 3.593-.743-.272-.349 4.248-3.614 6.691-4.832 8.999-12.06 3.424-15.406-4.28-2.568 3.186-4.098 7.275-8.559 4.089-4.461 29.719.35 33.808-2.995Z" fill="#070707"/><path d="M152.738 474.292c7.632-.308 17.85-8.823 24.805-13.624 6.956-4.801 77.206 16.517 119.574 16.024 42.368-.492 122.693-14.157 122.693-14.157s28.498 11.552 40.562 11.039c12.064-.513 22.569-10.095 23.349-12.906.78-2.81-13.952-2.954-17.727-4.985-3.775-2.031 10.607-10.402 15.326-15.121 4.719-4.719 14.67-5.581 19.369-4.801 4.698.779 20.517 1.744 24.374-5.15 3.857-6.894-5.683-5.889-7.202-8.679-1.518-2.79-1.559-17.501-5.17-18.035-3.611-.533-7.397-43.406-14.082-69.796-6.268-24.74-10.703-27.332-12.139-30.943-1.436-3.611 17.378-22.856 14.219-54.288-3.16-31.433-19.574-53.776-51.683-59.356-32.11-5.581-60.362 12.987-70.6 29.626-10.238 16.64-3.426 26.406-3.426 26.406s-34.018 2.872-57.099 18.999c-23.082 16.126-31.145 22.569-31.145 22.569s-35.741 7.489-45.815 11.571c-10.074 4.083-15.039 7.038-22.569 5.068-7.53-1.969-40.583-4.719-43.784-.574-3.2 4.144-7.714 38.51-1.846 49.733-5.478 7.181-19.881 28.375-19.307 44.748.575 16.373 8.925 41.035 8.925 41.035l-4.719 14.362a62.572 62.572 0 0 0-7.345 15.716c-1.867 7.571 2.462 5.519 2.462 5.519Z" fill="#F5FCFF"/><path d="M164.166 430.057a76.978 76.978 0 0 1-2.051-33.012c2.154-13.398 14.362-37.526 25.584-52.668 3.858-5.211-.246-25.113 2.975-27.39 4.884-3.488 18.117 6.032 27.863-.267 15.326-9.951 41.793-21.215 93.353-19.901 39.721 1.005 77.103 15.51 95.405 26.836 3.795 2.359 19.019-6.155 21.03-4.268 5.129 4.678 0 23.534 6.729 33.279 12.311 17.542 23.554 40.029 21.195 55.499-3.652 24.067-9.746 28.437-9.746 28.437s-18.835-18.26-64.916-15.901c-46.082 2.36-98.585 21.01-98.585 21.01s-28.211-16.66-70.415-18.527c-42.204-1.867-48.421 6.873-48.421 6.873Z" fill="#B5E3FF"/><path d="M431.361 441.854c.164-8.33-9.356-13.787-23.718-13.541-14.362.246-24.108 5.95-24.354 11.674-.246 5.724 10.956 13.336 25.093 13.5 14.136.165 22.856-4.041 22.979-11.633Zm-258.763-4.103c-.184 8.781 10.054 14.547 25.503 14.362 15.449-.185 25.934-6.278 26.18-12.31.246-6.032-11.777-14.137-26.939-14.301-15.162-.164-24.621 4.247-24.744 12.249Z" fill="#FFDCD9"/><path d="M301.5 286s38.428-36.363 90-32c51.572 4.363 102.871 43.076 116.461 125.957.909 33.272-14.457 41.709-14.457 41.709s-8.964-1.2-19.518 9.429A37.925 37.925 0 0 0 463.309 455l-13.301-10.339s14.85-11.767 17.08-39.745c2.231-27.978-12.702-42.97-12.702-42.97S450.473 319.931 445 313.5c-5.473-6.431-4.183-24.943-16.534-20.559-12.351 4.383-29.307 17.308-29.307 17.308s-39.345-18.611-54.215-18.26C330.073 292.341 301.5 286 301.5 286Z" fill="#B5E3FF"/><path d="M175.655 359.15s-2.051-40.337 7.079-48.934c7.037-6.627 52.38 1.518 52.38 1.518a95.636 95.636 0 0 0-13.357 7.653c-5.765 4.104-9.992 6.709-9.992 6.709s-14.567-3.857-15.921-2.421c-1.354 1.437 0 15.06 0 15.06s-9.663 9.623-11.387 12.556a62.453 62.453 0 0 1-8.35 8.905l-.452-1.046Zm215.041-39.763s32.335-23.594 41.117-15.244c8.781 8.351 16.762 30.653 17.419 71.113-10.874-9.951-20.989-26.837-20.989-26.837s-.349-21.871-2.709-22.138c-2.359-.267-13.767 7.468-13.767 7.468s-5.621-7.345-9.684-9.294c-4.062-1.949-11.387-5.068-11.387-5.068ZM507.124 397s8.672 12.997 10.594 18.729c1.922 5.731-.87 7.491 4.69 7.491 5.56 0 7.345 1.264 6.315 4.513-1.03 3.249-6.864 9.68-10.662 9.793-3.798.113-29.242.474-29.242.474s-2.928-21.121 2.288-27.755c5.217-6.634 16.017-13.245 16.017-13.245Zm-57.893 47.665s13.521 11.161 18.609 11.798c5.089.636 16.619 1.436 16.619 1.436l-7.078 9.356s-10.997 4.513-17.809 4.267c-6.812-.246-29.422-4.411-31.33-7.304a13.171 13.171 0 0 1-2.195-5.068l23.184-14.485Zm-281.638-4.062s-.267 15.859-3.426 20.107a127.99 127.99 0 0 0-7.694 12.905l11.469-2.873 10.546-11.592 3.59-8.596-10.259-8.207-4.226-1.744Zm314.241-145.098s11.53-12.043 10.258-36.664c-1.272-24.62-16.803-60.854-53.262-61.038-36.459-.185-49.857 19.573-52.586 25.933a43.922 43.922 0 0 0-2.626 21.256s43.517 8.905 57.633 15.921c15.244 7.612 40.583 34.592 40.583 34.592Z" fill="#1EA6F9"/><path d="M233.268 468.896c3.385 2.318 46.102 6.381 56.709 8.043 10.607 1.661 50.452-.595 50.452-.595s1.026-17.686-4.104-29.812c-5.129-12.125-7.304-14.362-7.304-14.362" fill="#F5FCFF"/><path d="M197.343 421.994c4.698-3.119 27.698-3.386 33.525.287a131.326 131.326 0 0 0 15.9 7.776s-12.105 12.31-13.561 27.062c-1.457 14.752 4.575 14.485 4.575 14.485l102.586 4.637s-1.067-23.985-4.104-29.811c-3.036-5.827-9.827-16.414-9.827-16.414s26.446-3.878 35.617-5.047a43.61 43.61 0 0 1 18.753 2.626s14.362 35.536 15.757 43.086c1.395 7.55 9.151 3.283 9.151 3.283l10.771 5.006-.82 7.365 18.834 8.495s-12.31 13.767-25.051 13.295c-12.741-.472-113.727-5.95-122.795-6.155-9.069-.206-49.775 2.769-57.653 2.769-7.879 0-22.446-2.051-26.057-1.415-3.611.636-21.625 7.201-28.95 6.996-7.325-.205-20.661-3.365-21.256-5.252-.595-1.888-1.723-13.48 0-15.552 1.724-2.073 25.544-4.104 25.544-4.104s-6.155-5.396-3.796-9.15a26.882 26.882 0 0 1 6.935-6.874s8.002-33.073 10.813-37.197a61.074 61.074 0 0 0 5.109-10.197Z" fill="#3A85DD" stroke="#284697" stroke-width="2.052" stroke-miterlimit="10"/><path d="M414.025 492.265c-6.155-2.277 17.316 2.79 12.023 4.986-5.294 2.195-23.102 6.975-29.771 5.293-6.668-1.682 15.942-1.764 18.138-4.268 2.195-2.503 2.051-5.108-.39-6.011Zm-51.232-47.6a3.43 3.43 0 0 0 4.104-.451c.861-.78 1.374-3.283 0-3.611-1.375-.329-3.529-1.17-4.576 0a3.37 3.37 0 0 0 .472 4.062Zm12.925-9.253c-.266-.657.534-2.442 1.313-2.052.78.39 1.826.226 1.047 1.231-.78 1.006-1.108 1.744-1.765 1.56-.656-.185-.595-.739-.595-.739Zm-194.481 61.839c-1.642.287-2.811-1.047-2.052-2.052.759-1.006.267-1.56 2.052-1.231 1.785.328 3.344.759 2.359 1.58-.985.82-.841 1.436-2.359 1.703Zm-21.072-3.057c-4.842 5.785-2.052 10.689 1.354 11.058 3.406.37 11.982.862 13.89.842 1.908-.021-9.048-2.052-10.463-4.104-1.416-2.052-2.934-3.796.123-7.961 1.026-1.374-4.104-4.554-7.51-2.954-3.405 1.6 2.606 3.119 2.606 3.119Z" fill="#fff"/><path d="M181.421 453.18s-5.642 14.587-15.265 18.465c-9.622 3.878-14.074 6.75-17.747 4.699-3.673-2.052-.246-4.596 6.032-15.532 6.278-10.936 6.832-30.653 6.832-30.653m236.789 38.737c32.52-8.002 58.331-23.451 67.112-52.114 6.155-20.209 1.416-41.506-11.777-60.874m-221.544 113.46a303.324 303.324 0 0 0 56.688 6.976c16.804.574 33.525.738 50.945 0" stroke="#070707" stroke-width="5" stroke-miterlimit="10" stroke-linecap="round"/><path d="M172.721 352.912c-13.315 19.143-20.024 38.306-19.963 51.027 0 17.316 10.485 34.14 31.72 47.189" stroke="#070707" stroke-width="5" stroke-miterlimit="10" stroke-linecap="round"/><path d="M379.823 427.697s17.419 32.171 16.886 45.261c8.001 1.58 15.982.39 19.122 4.719 3.139 4.329-.78 9.951-.78 9.951s20.517 3.529 19.902 8.638c-.616 5.109-19.902 11.654-34.695 11.53-14.793-.123-104.637-5.888-122.569-6.155-17.932-.266-51.293 5.478-64.835 2.052-13.541-3.426-28.724 7.119-42.922 6.565-23.923-.923-16.742-9.437-17.193-13.089-.944-7.284-2.236-2.463-2.483-7.079-.246-4.616 29.319-4.719 29.319-4.719s-6.545-2.339-5.231-8.638a6.748 6.748 0 0 1 7.078-5.765" stroke="#284697" stroke-width="4" stroke-linecap="round" stroke-linejoin="round"/><path d="M329.042 433.258s11.141 15.654 11.367 29.339c.225 13.685-1.314 19.409-1.314 19.409m13.993-37.341a29.31 29.31 0 0 1 4.35 16.045 47.469 47.469 0 0 1-2.052 12.905m8.35-45.979a35.385 35.385 0 0 1 8.761 10.156 19.227 19.227 0 0 1 2.483 8.638m-131.105-15.224a58.403 58.403 0 0 0-10.607 23.554 93.632 93.632 0 0 0-1.293 21.584m-49.241-5.602a156.07 156.07 0 0 1 4.104-26.077c3.139-11.12 11.53-22.384 11.53-22.384m24.436 2.729-2.093 3.282m-10.36 2.36s-3.652 5.109-6.545 9.828c-2.893 4.719-5.355 10.074-5.355 10.074" stroke="#284697" stroke-width="4" stroke-linecap="round" stroke-linejoin="round"/><path d="M205.385 457.242a12.123 12.123 0 0 0-.985 4.329" stroke="#284697" stroke-width="5.806" stroke-linecap="round" stroke-linejoin="round"/><path d="M187.616 489.659s4.452-15.059 15.45-15.326c10.997-.267 15.388 15.326 15.388 15.326h-30.838Z" fill="#69B6E6" stroke="#284697" stroke-width="4" stroke-linecap="round" stroke-linejoin="round"/><path d="M271.204 485.392s4.842 3.016 23.554 4.103c7.324.451 23.061-1.764 23.061-1.764" stroke="#284697" stroke-width="4" stroke-linecap="round" stroke-linejoin="round"/><path d="M398.513 310.155a224.235 224.235 0 0 0-90.522-22.898 154.765 154.765 0 0 0-82.869 18.466" stroke="#070707" stroke-width="5" stroke-miterlimit="10" stroke-linecap="round"/><path d="M324.775 435.802a3.653 3.653 0 0 1-2.257-6.504c20.251-15.922 51.888-20.887 53.222-21.092a3.642 3.642 0 0 1 2.714.655 3.635 3.635 0 0 1 .772 5.097 3.623 3.623 0 0 1-2.399 1.429 151.78 151.78 0 0 0-22.446 5.745 129.452 129.452 0 0 1 26.18-.677 3.627 3.627 0 0 1 2.453 1.322 3.63 3.63 0 0 1 .799 2.668 3.633 3.633 0 0 1-3.99 3.252 129.273 129.273 0 0 0-53.714 7.838 3.378 3.378 0 0 1-1.334.267Zm-76.038-2.544a3.724 3.724 0 0 1-1.785-.452c-20.517-11.448-46.779-8.514-47.025-8.473a3.654 3.654 0 0 1-1.415-.11 3.634 3.634 0 0 1-2.627-3.071 3.63 3.63 0 0 1 .753-2.679 3.642 3.642 0 0 1 2.427-1.362 95.713 95.713 0 0 1 15.162-.267 197.452 197.452 0 0 0-5.006-1.539 3.641 3.641 0 0 1-2.166-1.747 3.648 3.648 0 0 1-.296-2.767 3.628 3.628 0 0 1 1.747-2.166 3.648 3.648 0 0 1 2.767-.296c3.365.964 33.032 9.766 40.357 19.04a3.673 3.673 0 0 1 0 4.616 3.632 3.632 0 0 1-2.893 1.273Zm74.027 32.827c-.307-.964-2.051-5.868-6.442-6.976a11.759 11.759 0 0 0-7.714 1.662l-1.231.554-.739-.964c-1.6-2.052-3.796-4.986-7.202-5.109-2.708-.164-5.498 1.662-8.206 3.385a31.337 31.337 0 0 1-3.14 1.929c-.389-.205-1.415-.985-1.415-.985v-8.699s10.053-4.329 10.381-10.259c.329-5.929-5.826-8.432-13.623-8.432-7.796 0-13.623 4.103-13.623 8.699s10.689 10.094 10.689 10.094v4.309a7.226 7.226 0 0 0-3.077-.739c-3.078 0-6.156 2.216-8.7 4.104l-1.21.882a11.556 11.556 0 0 0-5.109-2.975c-4.616-1.169-9.52 3.078-10.915 4.411a3.533 3.533 0 0 0-.789 1.141 3.557 3.557 0 0 0 1.847 4.675 3.559 3.559 0 0 0 3.886-.707 10.815 10.815 0 0 1 4.391-2.708 5.111 5.111 0 0 1 2.216 1.456 6.712 6.712 0 0 0 4.103 2.196c2.052.143 3.55-1.067 5.786-2.708a19.904 19.904 0 0 1 4.473-2.811 15.484 15.484 0 0 1 3.652 2.523l.287.246a11.264 11.264 0 0 0 6.689 3.406 14.151 14.151 0 0 0 7.078-3.098 22.083 22.083 0 0 1 3.919-2.236c.769.7 1.458 1.485 2.052 2.339a7.957 7.957 0 0 0 5.211 3.96 10.262 10.262 0 0 0 5.294-1.478c.954-.5 1.958-.899 2.995-1.19a5.048 5.048 0 0 1 1.559 2.38 3.47 3.47 0 0 0 3.324 2.401 3.48 3.48 0 0 0 3.156-1.949 3.487 3.487 0 0 0 .147-2.729Z" fill="#070707"/><path d="M277.81 441.136c-.924-1.292 3.652-2.482 6.278-2.359 2.626.123 5.888 1.046 5.888 2.359s-3.262.923-3.795 1.703a3.74 3.74 0 0 1-2.688 1.826c-1.108 0-.985-2.052-2.052-2.052a5.348 5.348 0 0 1-3.631-1.477Z" fill="#4B4B4B"/><path d="M390.696 318.361s21.112-24.62 37.547-25.42c16.434-.8 29.77 51.026 21.461 86.377" stroke="#070707" stroke-width="5" stroke-miterlimit="10" stroke-linecap="round"/><path d="M411.377 334.262s9.438-10.074 13.89-8.207c4.452 1.867 1.313 24.621 1.313 24.621m-252.236 10.771s-12.577-47.661 0-58.145c12.577-10.484 60.772 6.545 60.772 6.545" stroke="#070707" stroke-width="5" stroke-miterlimit="10" stroke-linecap="round"/><path d="M196.112 341.833s-5.232-15.039-1.56-17.522c3.673-2.482 17.153 2.955 17.153 2.955m78.273-42.245s62.208-60.751 132.274-32.561c68.486 27.575 78.437 63.993 86.295 145.672 8.391 7.858 7.858 24.108 7.858 24.108s11.531-2.626 12.577 0c1.046 2.626-5.765 12.043-9.951 13.623-4.185 1.58-32.991 0-32.991 0" stroke="#070707" stroke-width="5" stroke-miterlimit="10" stroke-linecap="round"/><path d="M492.318 420.701s-3.673 11.51-11.531 18.076c-7.858 6.565-16.763 14.362-16.763 14.362" stroke="#070707" stroke-width="5" stroke-miterlimit="10" stroke-linecap="round"/><path d="M449.026 443.373s15.203 14.587 23 13.746c7.796-.841 11.715-.862 12.433.78.718 1.641-4.329 13.028-24.744 13.685-20.414.656-37.464-10.69-37.464-10.69m-48.85-216.23s-1.56-34.018 25.42-48.174c26.98-14.157 62.721-11.49 85.762 13.131 23.041 24.62 21.42 49.241 17.234 63.91-4.185 14.67-15.285 29.668-15.285 29.668" stroke="#070707" stroke-width="5" stroke-miterlimit="10" stroke-linecap="round"/><path d="M438.829 222.177s13.582 6.791 13.377 18.322a29.012 29.012 0 0 1-6.606 18.363" stroke="#070707" stroke-width="5" stroke-miterlimit="10" stroke-linecap="round"/><path d="M310.288 419.142c9.315 6.319 27.226 1.867 36.397-10.977 9.172-12.844 7.859-29.893 0-34.346-7.858-4.452-23.656-.266-33.832 12.577-10.177 12.844-9.89 27.76-2.565 32.746Zm-80.672-47.046c11.079-9.397 27.308 3.837 33.792 12.987 5.827 8.207 9.684 26.201 0 32.828-9.684 6.627-24.108 1.887-32.233-9.664-8.125-11.551-9.417-29.483-1.559-36.151Z" fill="#1EA6F9"/><path d="M27.721 179.339c-4.735 41.029 59.662 60.197 97.192 64.029 52.489 6.057 67.597 3.306 80.754 2.577l33.857 19.763-4.083-25.317c18.006-3.915 96.872-9.421 95.319-55.671-1.688-50.235-110.279-60.67-148.217-62.052-37.938-1.382-148.545 2.282-154.822 56.671Z" fill="#fff" stroke="#6ABDEC" stroke-width="2.835" stroke-linecap="round" stroke-dasharray="5.67 11.34"/><path d="m72.634 170.195-.523-.175c-.262-.073-.444-.109-.546-.109a.793.793 0 0 1-.436-.284.85.85 0 0 1-.153-.501c0-.102.007-.182.022-.24.043-.044.08-.16.109-.35.043-.174.065-.334.065-.48.044-.087.08-.174.11-.261.029-.102.065-.24.109-.415.116-.64.385-1.716.807-3.229.422-1.513.683-2.32.785-2.422v-.24c0-.043.015-.131.044-.261.029-.131.094-.27.196-.415.058-.175.102-.342.131-.502.044-.174.073-.305.087-.392.059-.073.153-.291.284-.655.146-.364.24-.604.284-.72.101-.276.225-.596.37-.96.16-.378.27-.625.328-.742v-.109c.029-.029.102-.174.218-.436.13-.277.24-.509.327-.698.102-.233.371-.837.808-1.811.029-.058.109-.226.24-.502.13-.276.196-.451.196-.524.145-.16.305-.24.48-.24.218 0 .422.102.61.306.204.189.364.393.48.611l.219.349-.807 1.571c-.218.392-.415.763-.59 1.112-.174.335-.261.531-.261.589-.044.102-.124.313-.24.633-.102.32-.218.684-.35 1.091a16.1 16.1 0 0 1-.501 1.244c-.117.232-.175.37-.175.414 0-.058.808-.087 2.422-.087.247 0 .698-.007 1.353-.022.654-.014 1.069-.036 1.243-.065l1.135-.109.61-1.942c.146-.509.466-1.498.96-2.967.204-.611.437-1.062.699-1.353.262-.306.495-.458.698-.458.058 0 .204.087.436.261.248.16.393.299.437.415.16.16.24.327.24.502 0 .203-.117.487-.35.851-.174.305-.421.88-.741 1.723a9.65 9.65 0 0 1-.24.677c0 .305-.073.531-.218.676-.058.058-.16.269-.306.633-.145.349-.218.552-.218.611 0 .116-.022.247-.065.392a.728.728 0 0 1-.153.284l-.153.524c-.509 1.847-.909 3.127-1.2 3.839 0 .073-.036.204-.109.393-.073.189-.109.32-.109.393-.029.102-.094.305-.196.611-.102.305-.153.487-.153.545a28.08 28.08 0 0 0-.305 1.593 31.75 31.75 0 0 0-.197 1.287c-.247.029-.45.015-.61-.043a2.038 2.038 0 0 1-.459-.24 5.039 5.039 0 0 0-.305-.175c-.35-.189-.524-.451-.524-.785 0-.19.066-.415.196-.677.044-.073.182-.545.415-1.418l.196-.807c.117-.32.218-.626.306-.917.087-.305.167-.567.24-.785.233-.844.378-1.294.436-1.353v-.218c-.044-.073-.473-.109-1.287-.109-.887 0-1.811.058-2.771.175h-1.876c-.073.16-.284.8-.633 1.92-.35 1.105-.546 1.81-.59 2.116-.1.48-.26 1.142-.48 1.985a55.662 55.662 0 0 1-.5 1.877Zm23.525-16.974a1.2 1.2 0 0 1 .654.458 1.184 1.184 0 0 1 .197 1.134c-.03.146-.124.386-.284.72l-.829 1.92c-.48 1.149-.77 1.804-.873 1.964a19.16 19.16 0 0 1-.96 1.767 50.35 50.35 0 0 1-1.549 2.531c-.13.203-.407.589-.829 1.156-.407.553-.69.924-.85 1.113-.248.363-.51.691-.786.982-.262.291-.64.683-1.135 1.178l-.523.545a4.68 4.68 0 0 1-.611.633c-.175.233-.393.349-.655.349a.887.887 0 0 1-.48-.153c-.392-.247-.589-.516-.589-.807a.88.88 0 0 1 .066-.305c.043-.102.305-.4.785-.895.48-.509.88-.909 1.2-1.2.582-.669.945-1.098 1.091-1.287a8.917 8.917 0 0 1-.894-1.484c-.262-.567-.43-1.018-.502-1.352l-.371-1.92a1.342 1.342 0 0 0 0-.48 89.479 89.479 0 0 0-.044-.262l-.065-3.862.152-1.92v-.327c0-.189.051-.364.153-.524.102-.16.27-.24.502-.24.29-.043.589.08.894.371.306.277.459.56.459.851a.629.629 0 0 1-.066.284.577.577 0 0 0-.065.261v.262c0 .146-.008.262-.022.349-.03.291-.058.699-.087 1.222a58.391 58.391 0 0 0-.022 1.615c0 .436.007.72.022.851l.196 1.898c.015.305.11.778.284 1.418.189.625.37 1.163.545 1.614l.284-.371c.218-.247.363-.458.436-.632a7.01 7.01 0 0 1 .502-.895c.174-.262.29-.458.349-.589.16-.291.313-.553.458-.785a9.11 9.11 0 0 0 .415-.698l1.418-2.684c.102-.335.21-.655.327-.96.13-.378.255-.778.37-1.2a7.04 7.04 0 0 0 .263-1.113c.087-.334.283-.501.589-.501h.196a.898.898 0 0 1 .284 0Zm13.552 16.123a1.063 1.063 0 0 1-.24.022c-.407 0-.771-.16-1.091-.48-.32-.32-.48-.691-.48-1.113l.022-.197a.824.824 0 0 0 .284-.37c.29-.669.705-1.789 1.243-3.36.393-1.208.698-2.058.916-2.553a6.463 6.463 0 0 0-.305.393 2.935 2.935 0 0 1-.349.371.714.714 0 0 1-.327.196c-.248.262-.677.589-1.288.982-.596.393-1.069.589-1.418.589-.887 0-1.651-.327-2.291-.982-.494-.524-.741-1.04-.741-1.549 0-.116.007-.211.021-.284.015-.087.022-.218.022-.392 0-.189.044-.349.131-.48.117-.582.349-1.346.698-2.291.349-.946.677-1.724.982-2.335a.356.356 0 0 1-.043-.196.27.27 0 0 1 .087-.196.983.983 0 0 1 .196-.153c0-.073.022-.146.066-.218.043-.073.072-.131.087-.175.043-.102.116-.269.218-.502.116-.247.24-.451.371-.611a1.13 1.13 0 0 1 .502-.349c.305.146.552.284.742.415.189.116.334.262.436.436a.89.89 0 0 1 .131.502c0 .073-.015.167-.044.284a7.226 7.226 0 0 1-.502 1.2c-.218.407-.356.662-.414.763-.218.422-.458 1.055-.72 1.898l-.175.546a6.039 6.039 0 0 1-.48 1.309c.015.102.008.284-.022.545l-.021.459c0 .203.021.341.065.414.131.044.262.066.393.066.363 0 .756-.117 1.178-.35a6.47 6.47 0 0 0 1.113-.763c.567-.422 1.265-1.229 2.094-2.422.844-1.193 1.469-2.196 1.877-3.011.174-.072.341-.254.501-.545l.328-.546a.895.895 0 0 1 .13-.109l.11-.109.196-.174c.393.116.669.232.829.349.175.116.32.349.436.698.029.058.008.16-.065.305a1.237 1.237 0 0 1-.284.415 4.372 4.372 0 0 0-.174.48c-.058.174-.117.32-.175.436l-.262.611a21.55 21.55 0 0 1-.654 1.418.853.853 0 0 1-.131.218.875.875 0 0 0-.131.219l-.676 1.636c-.553 1.309-.946 2.291-1.178 2.945-.088.248-.153.48-.197.698-.116.466-.24.815-.371 1.048-.232.422-.48 1.28-.742 2.574-.072.189-.109.327-.109.415 0 .087.044.174.131.262a1.427 1.427 0 0 0-.305.414c-.058.146-.102.24-.131.284Zm8.394-.938c-.669-.233-1.207-.67-1.615-1.309-.392-.64-.589-1.397-.589-2.27 0-.349.029-.669.087-.96.03-.378.117-.821.262-1.33.088-.262.153-.531.197-.808 0-.029.014-.08.043-.152.029-.073.037-.131.022-.175.087-.218.211-.524.371-.916.175-.393.284-.611.327-.655.058-.029.088-.065.088-.109a.367.367 0 0 0 .021-.087c0-.189.197-.596.589-1.222a27 27 0 0 1 1.309-1.833c.466-.596.742-.894.83-.894.029 0 .065-.029.109-.087.043-.073.072-.109.087-.109.102-.117.509-.328 1.222-.633.712-.32 1.28-.531 1.701-.633a2.69 2.69 0 0 1 .895-.153c.742 0 1.345.349 1.811 1.048.465.683.705 1.636.72 2.858-.044.218-.08.538-.109.96-.029.334-.051.523-.066.567-.014.436-.109.982-.283 1.636-.16.64-.269.968-.328.982a.35.35 0 0 1-.043.153.353.353 0 0 0-.044.153c.015.13-.174.589-.567 1.374-.393.771-.618 1.164-.676 1.178a.16.16 0 0 0-.066.022c-.014.015-.014.044 0 .087.015.044-.102.175-.349.393-.233.218-.4.327-.502.327-.014 0-.029.008-.043.022 0 .015.014.044.043.087.029.044-.182.233-.633.568-.436.334-.909.661-1.418.981-.509.306-.894.488-1.156.546a.386.386 0 0 1-.196.109.77.77 0 0 1-.109.022c-.102.102-.291.189-.568.262a2.949 2.949 0 0 1-.785.109 1.53 1.53 0 0 1-.589-.109Zm2.203-2.291a4.784 4.784 0 0 0 1.309-.698c.437-.335.699-.64.786-.917.073-.262.174-.443.305-.545.248-.247.575-.815.982-1.702.422-.902.64-1.513.655-1.833 0-.087.021-.225.065-.414.044-.204.095-.349.153-.437.029-.043.036-.138.022-.283a7.784 7.784 0 0 1-.022-.677c0-.378.007-.705.022-.981-.044-.946-.189-1.491-.437-1.637-.116-.087-.312-.131-.589-.131a1.633 1.633 0 0 0-.589.153 1.042 1.042 0 0 1-.305.066c-.204.116-.306.247-.306.392 0 .131-.058.24-.174.328-.102.087-.211.094-.328.021-.261.015-.429.051-.501.109-.073.059-.168.197-.284.415a7.687 7.687 0 0 1-.284.524c-.363.276-.64.567-.829.872-.189.306-.305.56-.349.764-.451.785-.734 1.338-.851 1.658-.102.306-.189.727-.262 1.266-.116.218-.21.472-.283.763-.058.291-.109.48-.153.567a1.96 1.96 0 0 0-.044.459c0 .32.022.654.066 1.003.044.335.102.56.174.677.117.392.371.589.764.589.32 0 .749-.124 1.287-.371Zm22.528-10.822c0 .073-.022.124-.065.153-.044.014-.066.029-.066.044 0 .014.029.043.087.087l-.152.72c-.058.305-.182.916-.371 1.832a65.057 65.057 0 0 0-.393 2.226l-.305 2.334a120.914 120.914 0 0 0-.284 2.378 22.056 22.056 0 0 0-.065 1.746c0 .698.021 1.229.065 1.593.058.378.087.596.087.654 0 .087-.102.218-.305.393a1.019 1.019 0 0 1-.677.262c-.378 0-.654-.16-.829-.48-.174-.306-.276-.786-.305-1.44 0-.975.073-2.277.218-3.906.044-.101.066-.298.066-.589a1.32 1.32 0 0 0-.044-.392c-.015-.146.007-.35.065-.611a2.58 2.58 0 0 0 .066-.524c0-.073.029-.225.087-.458.087-.262.131-.466.131-.611v-.153c.044-.131.087-.291.131-.48.058-.203.087-.327.087-.371a1.285 1.285 0 0 1-.022-.305c0-.16-.014-.269-.043-.327.087-.248.189-.626.305-1.135l.262-1.047c-.015 0-.175.291-.48.873a13.26 13.26 0 0 1-1.069 1.723 13.508 13.508 0 0 1-.982 1.396c-.305.393-.48.619-.523.677-.19.247-.371.48-.546.698-.16.218-.276.422-.349.611-.305.756-.662 1.309-1.069 1.658-.393.349-.793.545-1.2.589l-.349.044h-.131c-.276 0-.509-.182-.698-.546-.175-.363-.262-1.04-.262-2.029l.022-.589.065-1.222c.044-.247.08-.654.109-1.221.029-.582.051-.968.066-1.157-.073.073-.204.342-.393.808-.174.465-.284.763-.327.894l-.196.502c-.073.102-.182.378-.328.829a19.96 19.96 0 0 1-.48 1.222c-.32 1.047-.611 1.876-.872 2.487-.117.247-.233.516-.35.807-.029.058-.116.291-.261.698-.204.524-.335.837-.393.938-.625 1.411-1.149 2.117-1.571 2.117-.233 0-.465-.124-.698-.371-.218-.233-.327-.487-.327-.764 0-.203.08-.472.24-.807.16-.349.392-.8.698-1.353l.458-.851c0-.072.175-.567.524-1.483l.305-.807 1.353-3.578.022-.088.13-.327a6.41 6.41 0 0 1 .24-.524c.204-.465.306-.734.306-.807v-.044c0-.043.014-.072.044-.087a.375.375 0 0 1 .087-.022c.058-.16.16-.407.305-.741.16-.349.284-.611.371-.786l-.022-.087c0-.146.022-.262.066-.349.058-.087.116-.167.174-.24.073-.073.131-.138.175-.197 0-.087.043-.203.131-.349.087-.16.189-.32.305-.48.233-.32.386-.56.458-.72.146-.276.371-.414.677-.414.218 0 .436.087.654.262.218.174.4.371.546.589.145.203.218.342.218.414 0 .044-.022.073-.066.088-.043.014-.065.05-.065.109v.087a.554.554 0 0 1 .022.174c0 .262-.037.466-.109.611a6.734 6.734 0 0 0-.197 1.68l.022.633c0 .116-.029.204-.087.262-.044.058-.08.109-.109.153v.043l-.022.175.022.131c0 .131-.037.291-.109.48a6.017 6.017 0 0 0-.131.545c-.058.48-.087.975-.087 1.484 0 .756.065 1.171.196 1.243l1.571-2.334c1.338-1.978 2.014-2.989 2.029-3.033.102-.058.196-.167.283-.327-.014 0-.021-.015-.021-.044 0-.072.189-.385.567-.938.378-.567.785-1.076 1.222-1.527.436-.466.792-.698 1.069-.698.131 0 .305.087.523.261.233.175.437.393.611.655.175.247.262.48.262.698Zm14.881-2.029c.29.087.567.262.829.524.261.247.392.509.392.785a.653.653 0 0 1-.022.197 25.95 25.95 0 0 1-.48 1.265 24.01 24.01 0 0 0-.501 1.287 4.91 4.91 0 0 0-.197.938c-.16.219-.298.473-.414.764-.102.276-.167.451-.197.524-.087.261-.16.458-.218.589-.291.654-.727 1.483-1.309 2.487s-1.091 1.789-1.527 2.356c-.16.262-.465.698-.916 1.309s-.749.975-.895 1.091a40.46 40.46 0 0 0-2.422 1.92c-.189.16-.421.284-.698.371-.262.087-.414.153-.458.196-.262-.029-.538-.152-.829-.371-.276-.218-.429-.45-.458-.698-.015-.102.065-.269.24-.502.189-.232.349-.385.48-.458.145.015.429-.138.851-.458.436-.32.872-.676 1.309-1.069.436-.393.691-.64.763-.742-.349-.218-.596-.472-.741-.763a6.418 6.418 0 0 1-.35-1.2c-.116-.582-.247-1.011-.392-1.288-.058-.072-.102-.21-.131-.414-.029-.218-.087-.378-.175-.48a31.454 31.454 0 0 0-.523-2.291c-.117-.465-.233-1.12-.349-1.964a7.482 7.482 0 0 1-.088-.567 15.717 15.717 0 0 1-.065-.283 1.957 1.957 0 0 1-.044-.371c0-.088.007-.153.022-.197-.029-.058-.044-.298-.044-.72l.022-1.178c0-.393.204-.589.611-.589.233 0 .473.058.72.175.262.116.458.247.589.392l.349.415c-.116.276-.174.64-.174 1.091 0 .349.029.727.087 1.134.058.393.095.655.109.786a.992.992 0 0 1 0 .305c0 .131.007.233.022.306l.153.829c.087.378.254.974.501 1.789.291.902.466 1.52.524 1.854.102.48.189.851.262 1.113.073.247.153.429.24.545a29.712 29.712 0 0 0 2.792-4.909 45.737 45.737 0 0 0 2.095-5.607l.655-.218Zm17.615 9.556a3.458 3.458 0 0 1-.262.698 31.61 31.61 0 0 1-.284.786c-.131.378-.204.662-.218.851a2.5 2.5 0 0 0-.218.589c-.044.218-.073.356-.088.414-.014.131-.05.291-.109.48h.197c.232-.014.458.022.676.109l.415.131c.334.102.581.299.741.589.16.291.24.655.24 1.091 0 .451-.094.888-.283 1.309-.233.539-.415.924-.546 1.157 0 .029-.043.123-.131.283l-.261.633c-.219.451-.386.822-.502 1.113l-.218.24a2.177 2.177 0 0 1-.459.065.702.702 0 0 1-.436-.131 9.22 9.22 0 0 1-.654-.589.66.66 0 0 1-.044-.283c0-.204.094-.495.284-.873.101-.233.152-.386.152-.458 0-.146.197-.582.589-1.309.204-.379.335-.633.393-.764a.888.888 0 0 0 .109-.393 10.186 10.186 0 0 0-.763-.022c-.611 0-1.004.015-1.179.044a41.51 41.51 0 0 1-2.029.262c-.581.073-1.083.109-1.505.109-.276 0-.487-.007-.633-.022a8.51 8.51 0 0 1-1.832-.196c-.48-.306-.837-.604-1.07-.895-.232-.291-.45-.669-.654-1.134a1.704 1.704 0 0 1-.131-.633c0-.189.044-.356.131-.502.087-.654.298-1.498.633-2.531.334-1.047.611-1.832.829-2.356.16-.393.349-.909.567-1.549.044-.102.131-.334.262-.698a6.34 6.34 0 0 1 .458-1.004c.131-.363.356-.88.676-1.549l.219-.458c.116-.262.174-.436.174-.524 0-.203.073-.363.218-.48a.517.517 0 0 1 .502-.087c.335.073.604.218.807.437.218.218.328.472.328.763 0 .218-.066.437-.197.655-.233.305-.742 1.483-1.527 3.534-.785 2.051-1.331 3.6-1.636 4.647-.16.538-.299 1.098-.415 1.68a2.93 2.93 0 0 0-.044.328c0 .16.051.312.153.458.029.043.211.094.546.152.349.059.647.088.894.088.131 0 .218-.008.262-.022l1.004-.066c.829-.058 1.272-.101 1.33-.13.073-.03.204-.044.393-.044.189-.015.473-.022.851-.022l.131-.502c.058-.276.174-.712.349-1.309.175-.611.327-1.076.458-1.396a47.19 47.19 0 0 0 .611-1.789c.087-.306.175-.567.262-.786.087-.232.182-.421.284-.567.043-.203.109-.407.196-.611.087-.218.182-.422.284-.611l.283-.632c.117-.262.247-.575.393-.939.654-1.527 1.091-2.509 1.309-2.945.233-.451.436-.691.611-.72.218 0 .473.095.763.284.291.174.466.349.524.523.058.146 0 .437-.174.873-.16.422-.473 1.164-.939 2.225a56.375 56.375 0 0 0-1.352 3.033c-.364.858-.597 1.491-.698 1.898Zm6.587 6.24a2.661 2.661 0 0 1-1.048-.327 9.863 9.863 0 0 1-.959-.589c-.291-.204-.488-.342-.59-.415a2.833 2.833 0 0 1-.567-.785c-.131-.291-.24-.669-.327-1.135a2.84 2.84 0 0 1-.044-.458c0-.436.073-.967.218-1.593.16-.64.32-1.134.48-1.483.32-.771 1.026-2.007 2.117-3.709l.109-.109c.029-.029.036-.044.022-.044v-.022c0-.102.211-.552.632-1.352.248-.262.371-.488.371-.677a.395.395 0 0 0-.065-.24c-.044-.058.014-.182.174-.371a4.68 4.68 0 0 1 .655-.654c.291-.247.596-.458.916-.633.393-.305.778-.458 1.157-.458.116 0 .21.022.283.065.087.029.138.08.153.153 0 .087.291.058.873-.087.261-.058.451-.095.567-.109.058-.073.203-.131.436-.175.247-.058.589-.116 1.026-.174.232.014.516.014.851 0 .349-.015.574-.029.676-.044.102-.029.247.036.436.196.204.16.364.364.48.611a.705.705 0 0 1 .044.197c0 .218-.138.407-.415.567-.276.145-.676.247-1.2.305a34.167 34.167 0 0 0-2.945.524l-.458.087c-.451.073-.786.168-1.004.284-.218.116-.451.371-.698.763-.102.073-.233.262-.393.568-.16.291-.32.596-.48.916l-.436.589c-.335.451-.545.749-.633.895-.072.131-.087.225-.043.283a6.575 6.575 0 0 0 .698.131c.131-.073.313-.123.545-.153.233-.029.4-.058.502-.087l.48-.131c.902-.232 1.564-.4 1.985-.501.422-.102.735-.168.939-.197a.405.405 0 0 1 .261-.087c.16 0 .313.08.459.24.16.145.276.32.349.524.058.203.087.334.087.392 0 .247-.146.437-.436.567-.291.117-.873.277-1.746.48-1.265.306-2.058.502-2.378.59-.945.276-1.644.414-2.094.414-.379 0-.56-.124-.546-.371-.131-.073-.284.058-.458.393a6.038 6.038 0 0 0-.458 1.243 5.708 5.708 0 0 0-.175 1.288c0 .189.022.349.066.48.131.349.327.647.589.894.262.233.625.415 1.091.546a5.898 5.898 0 0 0 .916.065c.291 0 .582-.058.873-.174 1.134-.189 1.934-.451 2.4-.786a.483.483 0 0 0 .196-.153c.073-.072.138-.109.196-.109l-.021.044c0 .015.043-.015.13-.087.088-.088.182-.175.284-.262.407-.349.858-.524 1.353-.524a.96.96 0 0 1 .436.088c.131.043.204.087.218.13.088.146.044.379-.131.699-.174.32-.451.654-.829 1.003a6.403 6.403 0 0 1-1.221.917 8.681 8.681 0 0 1-2.4.829 13.02 13.02 0 0 1-2.531.305Zm20.155.262c-.436.029-.96-.022-1.57-.153a4.432 4.432 0 0 1-1.746-.763c-.538-.379-.88-.917-1.025-1.615a8.11 8.11 0 0 1-.153-1.636c0-1.208.189-2.495.567-3.862.146-.509.524-1.294 1.135-2.356.625-1.062 1.207-1.928 1.745-2.597.349-.421.895-.938 1.637-1.549.756-.625 1.258-.989 1.505-1.091a1.55 1.55 0 0 1 .698-.152c.175 0 .356.022.546.065.29.029.61.16.96.393.363.233.56.444.589.633 0 .058.029.087.087.087.073 0 .204-.036.393-.109.087-.102.232-.189.436-.262a1.69 1.69 0 0 1 .567-.109c.189 0 .291.044.306.131a.267.267 0 0 0-.044.153c0 .087.029.152.087.196.073-.029.058.196-.043.676-.102.466-.219.815-.349 1.048l-.066.218v.065c0 .102-.065.218-.196.349-.088.131-.211.531-.371 1.2-.16.669-.233 1.077-.218 1.222.014.058-.022.102-.109.131a.855.855 0 0 1-.306.044 2.16 2.16 0 0 1-.763-.131c-.233-.088-.4-.182-.502-.284-.102-.102-.153-.247-.153-.436 0-.175.058-.459.175-.851.232-.786.349-1.309.349-1.571 0-.291-.088-.502-.262-.633-.044-.087-.131-.153-.262-.196a1.102 1.102 0 0 0-.393-.066.976.976 0 0 0-.436.109c-.335.131-.829.51-1.484 1.135a13.28 13.28 0 0 0-1.68 1.876c-.712.989-1.25 1.986-1.614 2.989-.349.989-.524 1.942-.524 2.858 0 .728.109 1.411.328 2.051.029.073.116.204.261.393.146.175.262.291.349.349a3.8 3.8 0 0 0 .895.087c.291 0 .64-.021 1.047-.065.582-.102 1.018-.262 1.309-.48.306-.218.618-.553.938-1.004.131-.189.284-.283.459-.283.189 0 .363.101.523.305.16.204.262.444.306.72 0 .131-.131.4-.393.807-.247.393-.436.604-.567.633-.059.015-.095.036-.109.065a.69.69 0 0 0 .021.11c0 .087-.16.21-.48.37a6.49 6.49 0 0 1-1.178.48 5.78 5.78 0 0 1-1.222.306Zm9.994-.262a1.848 1.848 0 0 1-.458.087.764.764 0 0 1-.633-.305c-.16-.204-.24-.509-.24-.916 0-.582.175-1.339.524-2.269l.24-.72c.727-2.124 1.2-3.346 1.418-3.666.073-.174.109-.356.109-.545 0-.073.037-.182.109-.328l.175-.349c.174-.32.262-.56.262-.72 0-.058.087-.349.262-.872.174-.538.349-.946.523-1.222.087-.218.189-.429.306-.633.116-.218.174-.356.174-.414 0-.029-.16-.044-.48-.044-.451 0-1.011.022-1.68.066-.654.043-1.091.094-1.309.152-.305.073-.487.102-.545.088-.073-.03-.182-.168-.328-.415-.145-.262-.218-.495-.218-.698 0-.175.058-.291.175-.349.233-.146.465-.24.698-.284.247-.044.589-.08 1.025-.109.451-.029.764-.058.939-.087.305 0 .589-.015.85-.044.277-.044.437-.065.48-.065.117 0 .262-.022.437-.066.407-.073.683-.109.829-.109.203 0 .407-.022.611-.065.232-.029.385-.044.458-.044h1.353c.189 0 .45-.029.785-.087.335-.058.633-.117.895-.175a4.981 4.981 0 0 1 1.069-.131c.378 0 .69.073.938.218.247.131.4.328.458.59.131.727-.967 1.156-3.295 1.287-.13.014-.385.036-.763.065-.364.029-.604.066-.72.109-.102.044-.153.109-.153.197 0 .087-.043.174-.131.262-.072.072-.123.13-.152.174-.117.044-.313.407-.59 1.091-.276.669-.414 1.084-.414 1.244l-.087.174a.5.5 0 0 0-.066.196 9.665 9.665 0 0 1-.48 1.004 92.217 92.217 0 0 1-.829 2.138l-.24.589c-.32 1.062-.553 1.782-.698 2.16a.752.752 0 0 1-.175.197.324.324 0 0 0-.087.24c0 .072-.211.654-.633 1.745-.421 1.091-.654 1.644-.698 1.658Zm16.909 1.047a1 1 0 0 1-.327-.087.986.986 0 0 1-.327-.196c-.175-.175-.262-.437-.262-.786 0-.785-.014-1.302-.044-1.549l-.021-1.309c0-.334.021-.538.065-.611a1.85 1.85 0 0 1-.022-.327c0-.131.008-.284.022-.458.029-.189.044-.335.044-.437l-.088-.589h-1.178a4.354 4.354 0 0 1-.567.022c-.393 0-1.331-.043-2.814-.131l-.284.458c-.015.015-.087.11-.218.284-.117.175-.24.436-.371.786-.131.349-.306.749-.524 1.2-.203.45-.392.8-.567 1.047-.218.407-.422.705-.611.894-.174.189-.305.284-.393.284h-.109a.707.707 0 0 1-.262-.044.862.862 0 0 1-.261-.152c-.393-.175-.589-.437-.589-.786 0-.247.116-.538.349-.873l.283-.458c0-.087.211-.545.633-1.374.436-.844.72-1.295.851-1.353.131-.131.196-.262.196-.393 0-.145-.087-.291-.262-.436a.363.363 0 0 1-.152-.175.888.888 0 0 1-.044-.283c0-.204.073-.378.218-.524.146-.145.371-.211.677-.196.072-.044.138-.08.196-.109.073-.029.124-.051.153-.066.043-.029.065-.065.065-.109 0-.073.117-.334.349-.785.248-.466.466-.815.655-1.047.145-.393.269-.677.371-.851.116-.175.189-.299.218-.371.073-.073.218-.313.436-.72.029-.044.124-.204.284-.48.145-.146.291-.313.436-.502l.306-.393c.058-.102.145-.225.261-.371.073-.174.204-.385.393-.632.189-.262.306-.422.349-.48.218-.262.48-.473.786-.633.305-.175.589-.262.851-.262.145 0 .269.022.37.066.364.16.684.458.96.894.277.436.437.946.48 1.527.015.102.044.328.088.677.058.349.087.654.087.916 0 .189-.022.342-.065.458v.96c0 .48.014.837.043 1.069-.043.16-.065.422-.065.786l.022.851c0 .218-.008.4-.022.545l-.022.807-.022.807c-.014.364-.022.822-.022 1.375l.022 1.724c0 .989-.087 1.709-.262 2.16-.16.45-.407.698-.742.741Zm-4.407-8.159c.073-.015.255-.037.546-.066.291-.029.603-.036.938-.022.407-.029.676-.043.807-.043.189 0 .378.007.567.021.204 0 .32-.007.349-.021.277.014.415-.24.415-.764a39.101 39.101 0 0 1-.153-3.316l.022-.677c0-.232-.022-.48-.065-.741a10.932 10.932 0 0 0-.066-.524c-.058-.073-.269.167-.633.72a36.214 36.214 0 0 0-.894 1.484c-.087.116-.204.32-.349.61a8.106 8.106 0 0 0-.24.415 4.75 4.75 0 0 1-.284.524c-.712 1.134-1.069 1.861-1.069 2.181 0 .102.037.175.109.219Zm21.37-6.655c.014.058.021.16.021.306 0 .581-.312 2.007-.938 4.276l-.24.938-.283 1.178c-.059.48-.182 1.033-.371 1.658a57.476 57.476 0 0 1-.742 2.204c-.276.771-.48 1.389-.611 1.854a3.354 3.354 0 0 0-.196.459c-.088.232-.189.4-.306.501-.276.248-.538.371-.785.371a.91.91 0 0 1-.306-.065 1.547 1.547 0 0 1-.567-.371.729.729 0 0 1-.174-.502c0-.102.007-.182.021-.24.059-.102.248-.574.568-1.418.32-.844.552-1.484.698-1.92.087-.495.196-.974.327-1.44.131-.465.255-.8.371-1.004l.196-1.003c.044-.218.117-.589.219-1.113.116-.523.225-.931.327-1.222l.763-3.469c-1.381.059-2.094.109-2.138.153-.014.16-.189.633-.523 1.418-.32.786-.568 1.353-.742 1.702-.175.335-.32.633-.437.895-.116.247-.21.45-.283.61l-.262.611c-.131.408-.465 1.128-1.004 2.16-.538 1.033-1.01 1.869-1.418 2.509a41.83 41.83 0 0 1-1.854 2.444c-.247.32-.546.633-.895.938-.334.32-.603.524-.807.611a.925.925 0 0 1-.415.109c-.319 0-.61-.131-.872-.393a1.352 1.352 0 0 1-.393-.938.921.921 0 0 1 .327-.436.869.869 0 0 1 .524-.175c.015 0 .204-.182.567-.545.364-.378.597-.626.698-.742.379-.422.888-1.069 1.528-1.942.334-.48.814-1.214 1.44-2.203l.392-.546 1.004-2.749 1.265-2.792c-.16.058-.392.167-.698.327-.945.451-1.614.676-2.007.676-.247 0-.429-.08-.545-.24a1.222 1.222 0 0 1-.24-.742c0-.247.065-.472.196-.676a.96.96 0 0 1 .502-.436l2.487-.895a21.407 21.407 0 0 0 1.963-.633c.248-.014.604-.05 1.07-.109.465-.072.763-.131.894-.174 1.411-.044 2.305.698 2.684 2.225Zm4.651 13.527c-.218 0-.553-.087-1.003-.262a6.712 6.712 0 0 1-1.244-.654c-.393-.262-.647-.524-.764-.786l-.043-.087a3.011 3.011 0 0 1-.328-2.247c.059-.247.095-.4.11-.458.13-.451.196-.822.196-1.113.073-.087.182-.233.327-.436.16-.219.255-.357.284-.415a.536.536 0 0 0 .043-.196v-.328c0-.101.037-.203.11-.305.072-.102.145-.182.218-.24.087-.073.145-.116.174-.131l.088.022c.029 0 .138-.211.327-.633.189-.436.371-.894.545-1.374.727-1.338 1.542-2.451 2.444-3.338.902-.902 1.702-1.506 2.4-1.811a2.53 2.53 0 0 1 .327-.044c.16-.014.313-.029.458-.044.277.015.611.08 1.004.197.393.116.603.203.632.262 0 .058.015.094.044.109a.401.401 0 0 0 .087.022c.131-.015.364.196.699.632.349.422.603.822.763 1.2.175.277.262.742.262 1.397 0 .552-.08 1.243-.24 2.072-.16.815-.32 1.397-.48 1.746a30.983 30.983 0 0 1-1.44 3.316c-.582 1.164-1.113 1.76-1.593 1.789-.014 0-.029.015-.043.044-.015.014-.022.043-.022.087s-.196.233-.589.567c-.378.335-.713.611-1.004.829l-.414.153a6.208 6.208 0 0 1-1.2.305 8.03 8.03 0 0 1-1.135.153Zm.022-1.985c.625 0 1.076-.015 1.353-.044a2.44 2.44 0 0 0 .872-.284c.32-.174.662-.472 1.026-.894.145-.262.262-.436.349-.524.014-.029.131-.232.349-.611.218-.378.422-.567.611-.567 0-.073.058-.269.174-.589.117-.334.204-.524.262-.567.029-.015.102-.175.218-.48.117-.32.226-.669.328-1.047.102-.379.152-.691.152-.939.262-.276.379-.429.349-.458a.356.356 0 0 1-.021-.087v-.218c0-.422.029-.64.087-.655.073-.029.109-.051.109-.065a.255.255 0 0 0-.087-.087c-.029-.03-.044-.059-.044-.088 0-.014.022-.043.066-.087a.24.24 0 0 0 .065-.175c-.029-.363-.233-.996-.611-1.898a1.305 1.305 0 0 1-.174-.152.535.535 0 0 0-.24-.175.497.497 0 0 0-.262-.065c-.058 0-.16.014-.306.043-.058-.058-.116-.087-.174-.087a.475.475 0 0 0-.153.022l-.109.043c-.305.073-.545.175-.72.306-.16.131-.393.364-.698.698l-.371.393c-.116.392-.356.734-.72 1.025-.058.044-.145.153-.262.327-.116.16-.203.27-.262.328l-.131.262c-.32.523-.661 1.221-1.025 2.094a35.634 35.634 0 0 0-.938 2.444c-.262.77-.393 1.258-.393 1.461 0 .408.131.735.393.982.276.247.589.386.938.415Zm14.106 2.487c-.436.029-.96-.022-1.571-.153a4.428 4.428 0 0 1-1.745-.763c-.538-.379-.88-.917-1.026-1.615a8.187 8.187 0 0 1-.152-1.636c0-1.208.189-2.495.567-3.862.145-.509.524-1.294 1.134-2.356.626-1.062 1.208-1.928 1.746-2.597.349-.421.894-.938 1.636-1.549.757-.625 1.258-.989 1.506-1.091.203-.101.436-.152.698-.152.174 0 .356.022.545.065.291.029.611.16.96.393.364.233.56.444.589.633 0 .058.029.087.088.087.072 0 .203-.036.392-.109.088-.102.233-.189.437-.262.203-.073.392-.109.567-.109.189 0 .291.044.305.131a.267.267 0 0 0-.043.153c0 .087.029.152.087.196.073-.029.058.196-.044.676-.101.466-.218.815-.349 1.048l-.065.218v.065c0 .102-.066.218-.197.349-.087.131-.21.531-.37 1.2-.16.669-.233 1.077-.219 1.222.015.058-.021.102-.109.131a.845.845 0 0 1-.305.044c-.277 0-.531-.044-.764-.131-.233-.088-.4-.182-.502-.284-.101-.102-.152-.247-.152-.436 0-.175.058-.459.174-.851.233-.786.349-1.309.349-1.571 0-.291-.087-.502-.262-.633-.043-.087-.13-.153-.261-.196a1.11 1.11 0 0 0-.393-.066.976.976 0 0 0-.436.109c-.335.131-.829.51-1.484 1.135a13.157 13.157 0 0 0-1.68 1.876c-.713.989-1.251 1.986-1.614 2.989-.35.989-.524 1.942-.524 2.858 0 .728.109 1.411.327 2.051.029.073.117.204.262.393.145.175.262.291.349.349a3.8 3.8 0 0 0 .895.087c.291 0 .64-.021 1.047-.065.582-.102 1.018-.262 1.309-.48.305-.218.618-.553.938-1.004.131-.189.284-.283.458-.283.189 0 .364.101.524.305.16.204.262.444.305.72 0 .131-.131.4-.392.807-.248.393-.437.604-.568.633-.058.015-.094.036-.109.065 0 .015.008.051.022.11 0 .087-.16.21-.48.37a6.52 6.52 0 0 1-1.178.48 5.78 5.78 0 0 1-1.222.306Zm18.917-16.56c.335.044.582.131.742.262.16.117.262.262.306.436.043.16.087.408.131.742l-.24.589a97.4 97.4 0 0 0-1.571 4.189l-.764 2.597-.262.458-.502 2.312c-.174.742-.334 1.455-.48 2.139a24.93 24.93 0 0 0-.283 1.483c0 .146-.007.262-.022.349a1.553 1.553 0 0 0-.022.262c-.131.306-.189.502-.174.589 0 .378-.08.626-.24.742-.146.116-.451.175-.917.175a3.185 3.185 0 0 1-.654-.48 1.362 1.362 0 0 1-.327-.546c.014-.247.072-.625.174-1.134.058-.35.087-.546.087-.589l.262-1.833c.029-.058.08-.146.153-.262a2.68 2.68 0 0 1 .196-.24c.044-.16.095-.4.153-.72l.109-.48c.058-.189.131-.494.218-.916.102-.422.175-.728.218-.917l-.196.219c-.175.32-.502.763-.982 1.33-.291.379-.494.655-.611.829-.189.291-1.374 1.455-3.556 3.491-.364.364-.662.648-.894.851-.248.262-.459.422-.633.48-.16.058-.458.102-.895.131-.523-.422-.785-.814-.785-1.178l.087-.306c.029-.116.073-.196.131-.24.058-.058.138-.123.24-.196.189-.116.604-.451 1.244-1.003a47.271 47.271 0 0 0 1.44-1.288l1.134-1.134 1.156-1.266a6.53 6.53 0 0 1-.85-.392c-.262-.146-.451-.291-.568-.437-.625-.698-.938-1.585-.938-2.661 0-.786.146-1.528.436-2.226.161-.422.313-.734.459-.938.16-.218.378-.465.654-.742.204-.174.349-.32.437-.436.421-.466.865-.815 1.33-1.047.48-.233 1.302-.546 2.466-.939.073 0 .356-.029.851-.087a11.68 11.68 0 0 1 1.352-.087c.146.058.27.109.371.153.117.043.211.08.284.109.102-.088.182-.146.24-.175a.66.66 0 0 1 .305-.022Zm-1.963 4.124c.058-.233.167-.553.327-.96a9.446 9.446 0 0 0 .436-1.287.852.852 0 0 0-.24-.022c-.261 0-.61.043-1.047.131-.945.174-1.847.567-2.705 1.178-.858.596-1.433 1.236-1.724 1.92a5.97 5.97 0 0 0-.305.894c-.058.248-.08.502-.066.764 0 .189.015.342.044.458.029.117.08.262.153.436l.174.502c.058.015.167.029.327.044.175.014.299.014.371 0l.524-.175c.64-.189 1.12-.385 1.44-.589.262-.131.502-.196.72-.196.189 0 .342.029.458.087l.066-.174 1.047-3.011Zm-212.11 27.599c-.029.756-.116 1.309-.261 1.658-.146.349-.35.531-.611.546a24.83 24.83 0 0 0-.48-.088 2.39 2.39 0 0 1-.72-.305.675.675 0 0 1-.328-.589c0-.102.051-.342.153-.72.16-.64.24-1.033.24-1.178 0-.451-.196-.742-.589-.873-.45 0-1.025.349-1.724 1.047-.698.699-1.389 1.564-2.072 2.597-.684 1.032-1.222 2.014-1.615 2.945-.712 2.051-1.112 3.433-1.2 4.145.03.117.044.284.044.502 0 .102-.022.153-.066.153.044.32.175.64.393.96.233.305.502.458.807.458.306 0 .677-.051 1.113-.153.451-.116.778-.247.982-.392.116 0 .298-.051.545-.153.262-.116.437-.196.524-.24.45-.204.829-.356 1.135-.458a2.39 2.39 0 0 1 .85-.175c.102 0 .298.029.59.087a5.71 5.71 0 0 0-.066.35c-.03.16-.073.327-.13.501-.248.349-.474.597-.677.742a4.249 4.249 0 0 1-.808.458 3.565 3.565 0 0 0-.741.371c-1.048.64-2.087.96-3.12.96-.466 0-.975-.102-1.528-.305-.538-.189-.981-.429-1.33-.72-.117-.189-.27-.582-.459-1.178-.189-.597-.283-.975-.283-1.135a.66.66 0 0 1 .044-.196.698.698 0 0 0 .043-.197v-.218a.82.82 0 0 1-.044-.262c.015-.451.197-1.192.546-2.225a39.494 39.494 0 0 1 1.44-3.513c.364-.785.887-1.658 1.57-2.618a20.622 20.622 0 0 1 2.16-2.574c.757-.742 1.382-1.207 1.877-1.397.306-.101.553-.152.742-.152.523 0 1.018.131 1.483.392.466.248.844.64 1.135 1.179.29.523.436 1.178.436 1.963Zm9.328 13.549a.995.995 0 0 1-.327-.087.98.98 0 0 1-.327-.197c-.175-.174-.262-.436-.262-.785 0-.786-.015-1.302-.044-1.549l-.022-1.309c0-.335.022-.538.066-.611a1.803 1.803 0 0 1-.022-.327c0-.131.007-.284.022-.459.029-.189.043-.334.043-.436l-.087-.589h-1.178a4.364 4.364 0 0 1-.567.022c-.393 0-1.331-.044-2.815-.131l-.283.458a6.842 6.842 0 0 0-.219.284c-.116.174-.24.436-.37.785-.131.349-.306.749-.524 1.2-.204.451-.393.8-.567 1.047-.219.408-.422.706-.611.895-.175.189-.306.283-.393.283h-.11a.707.707 0 0 1-.26-.043.899.899 0 0 1-.263-.153c-.392-.174-.589-.436-.589-.785 0-.248.117-.538.35-.873l.283-.458c0-.087.21-.546.633-1.375.436-.843.72-1.294.85-1.352.131-.131.197-.262.197-.393 0-.146-.087-.291-.262-.436a.376.376 0 0 1-.153-.175.892.892 0 0 1-.043-.284.71.71 0 0 1 .218-.523c.145-.146.37-.211.676-.197.073-.043.138-.08.197-.109a2.8 2.8 0 0 0 .152-.065c.044-.029.066-.066.066-.109 0-.073.116-.335.349-.786.247-.465.465-.814.654-1.047.146-.393.27-.676.371-.851.117-.174.19-.298.218-.371.073-.072.219-.312.437-.72.029-.043.123-.203.283-.48a5.09 5.09 0 0 0 .437-.501c.16-.204.262-.335.305-.393.058-.102.146-.226.262-.371a3 3 0 0 1 .393-.633c.189-.262.305-.422.349-.48.218-.262.48-.473.785-.633.306-.174.59-.261.851-.261a.93.93 0 0 1 .371.065c.364.16.684.458.96.895.276.436.436.945.48 1.527.014.102.044.327.087.676.058.349.087.655.087.917 0 .189-.021.341-.065.458v.96c0 .48.015.836.044 1.069-.044.16-.066.422-.066.785l.022.851c0 .218-.007.4-.022.546l-.022.807-.021.807c-.015.364-.022.822-.022 1.375l.022 1.723c0 .989-.088 1.709-.262 2.16-.16.451-.407.698-.742.742Zm-4.407-8.16c.073-.014.254-.036.545-.065.291-.029.604-.037.938-.022.408-.029.677-.044.808-.044.189 0 .378.007.567.022.204 0 .32-.007.349-.022.276.015.415-.24.415-.763a39.202 39.202 0 0 1-.153-3.317l.022-.676c0-.233-.022-.48-.066-.742a11.29 11.29 0 0 0-.065-.523c-.058-.073-.27.167-.633.72a36.641 36.641 0 0 0-.894 1.483 4.35 4.35 0 0 0-.35.611 8.12 8.12 0 0 0-.24.415c-.072.16-.167.334-.283.523-.713 1.135-1.07 1.862-1.07 2.182 0 .102.037.174.11.218Zm7.449 7.527c-.218 0-.443-.145-.676-.436-.233-.277-.349-.626-.349-1.047 0-.335.08-.662.24-.982.291-.611.582-1.106.873-1.484.102-.145.174-.269.218-.371a1.01 1.01 0 0 0 .11-.414c.203-.262.472-.735.806-1.418.568-.917 1.375-2.328 2.422-4.233.145-.262.43-.778.851-1.549.436-.771.727-1.229.873-1.375l.109-.152c-.044.072.029-.095.218-.502.204-.407.415-.771.633-1.091.232-.335.436-.502.61-.502.19 0 .408.08.655.24.247.146.458.371.633.677.189.29.283.64.283 1.047 0 .174-.007.313-.021.414l-.219 1.484-.109.48c-.189.96-.472 2.276-.85 3.949-.335 1.484-.502 2.378-.502 2.683 0 .088.014.16.043.219.03.043.066.065.11.065.028 0 .101-.044.218-.131.116-.102.218-.247.305-.436l.284-.437.37-.545c.408-.567.91-1.331 1.506-2.291.596-.974 1.564-2.64 2.902-4.996.276-.407.502-.764.676-1.069.233-.378.458-.735.676-1.069.218-.335.386-.546.502-.633a.847.847 0 0 1 .546-.174c.218.014.443.094.676.24.247.145.45.349.61.61.175.262.263.546.263.851 0 .349-.11.989-.328 1.92a30.665 30.665 0 0 1-.72 2.706c-.058.305-.24 1.025-.545 2.16a56.899 56.899 0 0 0-.524 2.007c-.102.494-.152.894-.152 1.2v.174c-.219.393-.328 1.179-.328 2.357-.058.48-.167.851-.327 1.112-.16.277-.29.415-.393.415l-.065-.022a.35.35 0 0 0-.218.087c-.058.073-.146.109-.262.109-.364 0-.604-.13-.72-.392-.102-.262-.153-.618-.153-1.069 0-.262.008-.48.022-.655.044-.378.51-2.349 1.396-5.912.698-2.793 1.048-4.255 1.048-4.386l-.306.524c-.29.553-.654 1.2-1.09 1.942l-1.528 2.858a6.588 6.588 0 0 0-.48.763 7.24 7.24 0 0 0-.196.437c-.175.349-.524.851-1.047 1.505a3.493 3.493 0 0 0-.306.415c-.073.16-.305.443-.698.851a12.57 12.57 0 0 1-1.244 1.09c-.436.32-.8.48-1.09.48-.393 0-.75-.189-1.07-.567-.305-.378-.458-.836-.458-1.374 0-.393.073-1.048.218-1.964.233-1.004.48-2.022.742-3.054.262-1.033.444-1.709.546-2.029a1.38 1.38 0 0 0 .065-.437c0-.102-.014-.167-.044-.196-.014 0-.036.014-.065.043a1 1 0 0 1-.066.11c-.218.349-.56.96-1.025 1.832a56.376 56.376 0 0 0-1.505 3.077c-2.08 3.825-3.273 5.912-3.579 6.261Zm20.935-.349c-.495-.116-1.069-.327-1.724-.633-.654-.291-1.003-.531-1.047-.72a.207.207 0 0 0-.087-.174.273.273 0 0 0-.197-.087v-.328c0-.101-.029-.167-.087-.196-.073-.145-.109-.356-.109-.633 0-.451.073-1.018.218-1.702.16-.683.335-1.294.524-1.832 0-.102.022-.233.065-.393.058-.16.088-.262.088-.305.116-.335.349-.866.698-1.593s.64-1.236.872-1.527c0-.044.051-.138.153-.284.117-.16.197-.32.24-.48.233-.233.546-.684.938-1.353.509-.421.72-.8.633-1.134.015-.306.138-.524.371-.655.247-.145.684-.291 1.309-.436a5.749 5.749 0 0 1 1.396-.349c.48-.073 1.113-.124 1.898-.153a3.964 3.964 0 0 1 .742-.109c.044-.044.262-.022.655.066.407.072.771.196 1.091.37.334.16.494.342.48.546-.015.116-.342.269-.982.458-.626.175-1.2.291-1.724.349l-.545.066c-.844.087-1.455.181-1.833.283a2.39 2.39 0 0 0-1.003.524c-.306.262-.655.698-1.048 1.309-.523.814-.785 1.367-.785 1.658 0 .189.102.284.305.284.131 0 .328-.015.589-.044.277-.044.473-.065.589-.065.073-.029.24-.088.502-.175.277-.087.582-.153.917-.196l.96-.197c.29-.072.509-.109.654-.109.509 0 .764.175.764.524 0 .189-.095.393-.284.611a1.666 1.666 0 0 1-.698.502c-.262.101-.56.203-.895.305-.334.102-.545.153-.632.153a.9.9 0 0 1-.218.043 2.805 2.805 0 0 1-.393.022l-.982.131-.72.087a67 67 0 0 0-.829.219c-.436.116-.72.247-.851.392-.131.131-.254.349-.371.655a7.532 7.532 0 0 0-.458 1.549 8.365 8.365 0 0 0-.175 1.571c0 .451.066.742.197.872.32.364.822.546 1.505.546a4.26 4.26 0 0 0 1.113-.153 3.894 3.894 0 0 0 1.025-.458 3.15 3.15 0 0 1 .917-.502c.131-.087.24-.131.327-.131.073 0 .153.029.24.088.087.043.167.094.24.152.087.058.16.109.218.153.116.16.175.327.175.502 0 .48-.611.974-1.833 1.483-.684.233-1.229.4-1.636.502a4.62 4.62 0 0 1-1.113.153l-.349-.022Zm19.225.546c-.466 0-.887-.037-1.266-.11a2.75 2.75 0 0 1-1.003-.414 9.849 9.849 0 0 1-1.44-1.135c-.466-.465-.698-.872-.698-1.221 0-.233.094-.48.283-.742a2.82 2.82 0 0 1 .72-.655c.291-.174.56-.262.807-.262.306.16.531.313.677.459a.667.667 0 0 1 .218.48c0 .232-.167.501-.502.807.204.247.451.436.742.567.305.116.633.175.982.175.48 0 .996-.117 1.549-.349a4.25 4.25 0 0 0 1.396-.982c.378-.407.567-.858.567-1.353 0-.625-.145-1.142-.436-1.549-.291-.422-.734-.633-1.331-.633a1.53 1.53 0 0 0-.283.022h-.175c-.116 0-.269-.036-.458-.109a.667.667 0 0 1-.262-.109.725.725 0 0 1-.153-.153 5.154 5.154 0 0 1-.458-.632 1.17 1.17 0 0 1-.131-.524c0-.262.16-.48.48-.655a.978.978 0 0 1 .48-.152c.044 0 .124.014.24.043.102-.043.262-.08.48-.109.233-.029.407-.072.524-.131a10.77 10.77 0 0 0 2.64-1.701c.8-.713 1.2-1.484 1.2-2.313 0-.218-.051-.466-.153-.742a2.106 2.106 0 0 0-1.091-.284c-.611 0-1.214.168-1.811.502-.582.335-.967.749-1.156 1.244-.218.582-.567.982-1.047 1.2a4.676 4.676 0 0 1-.698-.546 6.61 6.61 0 0 1-.546-.807 6.68 6.68 0 0 1 1.244-2.073 5.263 5.263 0 0 1 1.92-1.396c.189-.087.487-.167.894-.24.422-.087.742-.131.96-.131.698 0 1.309.168 1.833.502.523.335.931.793 1.222 1.375.29.567.436 1.192.436 1.876 0 .8-.146 1.483-.436 2.051a4.485 4.485 0 0 1-1.157 1.44c-.48.392-1.112.836-1.898 1.331.48.392.829.807 1.047 1.243.219.422.328.931.328 1.527 0 .684-.051 1.251-.153 1.702-.087.451-.291.909-.611 1.375-.204.349-.574.72-1.113 1.112a7.352 7.352 0 0 1-1.636.917l-.153-.022c-.087.058-.24.102-.458.131-.247.058-.4.109-.458.153h-.698Zm9.448-.568c-.102-.145-.277-.247-.524-.305-.233-.044-.611-.051-1.134-.022a1.661 1.661 0 0 1-.939-.153c-.305-.145-.429-.312-.371-.502.015-.189.226-.378.633-.567.422-.203.924-.312 1.506-.327l.916-.022.218-.436a.897.897 0 0 0 .087-.262c.015-.102.037-.189.066-.262l.196-.785.327-1.048c.437-1.323.72-2.254.851-2.792.073-.175.189-.524.349-1.047.16-.524.284-.953.371-1.288.669-2.051.946-3.09.829-3.12-.145-.014-.531.015-1.156.088-.625.058-.974.109-1.047.152-.073.102-.197.088-.371-.043-.175-.131-.284-.277-.327-.437a.742.742 0 0 1-.022-.218c0-.203.051-.334.153-.392.145-.131.516-.277 1.112-.437.611-.16 1.178-.276 1.702-.349.247-.029.495-.08.742-.153.262-.087.458-.189.589-.305.305-.102.56-.146.764-.131.101.073.349.109.741.109.335 0 .589-.007.764-.022.378-.029.64-.043.785-.043.873 0 1.397.203 1.571.611.029.145.044.254.044.327a.617.617 0 0 1-.175.458c-.101.116-.247.167-.436.153-.262.072-.749.116-1.462.131-.96.087-1.476.189-1.549.305a1.823 1.823 0 0 0-.174.196 1.143 1.143 0 0 1-.109.175c.014.131-.117.604-.393 1.418l-.393 1.156c-.407 1.266-.669 2.044-.785 2.335a3.527 3.527 0 0 0-.219.764c-.116.392-.225.77-.327 1.134-.087.349-.182.684-.283 1.004l-.851 3.032 1.309-.109c.858-.087 1.374-.131 1.549-.131.145 0 .24.015.283.044.044.029.073.08.088.153a.687.687 0 0 0 .043.131c.131.174.197.341.197.501 0 .262-.175.473-.524.633-.349.16-.829.233-1.44.218-.654.029-1.185.051-1.593.066-.407.029-.661.065-.763.109-.102.043-.153.116-.153.218a.305.305 0 0 1-.131.305.58.58 0 0 1-.393.131c-.276 0-.523-.116-.741-.349Zm12.531.371c-.218 0-.444-.145-.676-.436-.233-.277-.349-.626-.349-1.047 0-.335.08-.662.24-.982.29-.611.581-1.106.872-1.484.102-.145.175-.269.218-.371.059-.102.095-.24.11-.414.203-.262.472-.735.807-1.418.567-.917 1.374-2.328 2.422-4.233.145-.262.429-.778.85-1.549.437-.771.728-1.229.873-1.375l.109-.152c-.043.072.029-.095.218-.502.204-.407.415-.771.633-1.091.233-.335.436-.502.611-.502.189 0 .407.08.655.24.247.146.458.371.632.677.189.29.284.64.284 1.047 0 .174-.007.313-.022.414l-.218 1.484-.109.48c-.189.96-.473 2.276-.851 3.949-.335 1.484-.502 2.378-.502 2.683 0 .088.015.16.044.219.029.043.065.065.109.065.029 0 .102-.044.218-.131.116-.102.218-.247.305-.436l.284-.437.371-.545c.407-.567.909-1.331 1.505-2.291.597-.974 1.564-2.64 2.902-4.996.276-.407.502-.764.676-1.069.233-.378.459-.735.677-1.069.218-.335.385-.546.502-.633a.845.845 0 0 1 .545-.174c.218.014.444.094.676.24.248.145.451.349.611.61.175.262.262.546.262.851 0 .349-.109.989-.327 1.92a30.946 30.946 0 0 1-.72 2.706c-.058.305-.24 1.025-.546 2.16a57.51 57.51 0 0 0-.523 2.007c-.102.494-.153.894-.153 1.2v.174c-.218.393-.327 1.179-.327 2.357-.058.48-.167.851-.327 1.112-.16.277-.291.415-.393.415l-.066-.022a.352.352 0 0 0-.218.087c-.058.073-.145.109-.262.109-.363 0-.603-.13-.72-.392-.101-.262-.152-.618-.152-1.069 0-.262.007-.48.021-.655.044-.378.51-2.349 1.397-5.912.698-2.793 1.047-4.255 1.047-4.386l-.305.524c-.291.553-.655 1.2-1.091 1.942l-1.527 2.858c-.19.262-.35.516-.48.763a7.309 7.309 0 0 0-.197.437c-.174.349-.523.851-1.047 1.505a3.587 3.587 0 0 0-.306.415c-.072.16-.305.443-.698.851a12.56 12.56 0 0 1-1.243 1.09c-.437.32-.8.48-1.091.48-.393 0-.749-.189-1.069-.567-.306-.378-.458-.836-.458-1.374 0-.393.072-1.048.218-1.964.232-1.004.48-2.022.742-3.054.261-1.033.443-1.709.545-2.029.044-.131.065-.277.065-.437 0-.102-.014-.167-.043-.196-.015 0-.037.014-.066.043a.928.928 0 0 1-.065.11c-.218.349-.56.96-1.026 1.832a56.543 56.543 0 0 0-1.505 3.077c-2.08 3.825-3.273 5.912-3.578 6.261Zm18.142.742a5.988 5.988 0 0 0-.328-.065c-.16-.03-.29-.037-.392-.022a1.495 1.495 0 0 1-.72-.371c-.218-.204-.306-.415-.262-.633.044-.044.08-.16.109-.349a2.96 2.96 0 0 0 .044-.48c.058-.16.123-.393.196-.698.087-.655.313-1.738.676-3.251.378-1.527.618-2.342.72-2.444l-.022-.24c0-.043.015-.13.044-.261.029-.131.087-.277.175-.437a3.81 3.81 0 0 0 .131-.502c.043-.174.065-.305.065-.392.029-.044.131-.306.305-.786l.219-.611c.087-.276.203-.603.349-.981.145-.379.24-.626.283-.742v-.109c.059-.073.219-.458.48-1.157.131-.29.255-.589.371-.894.131-.32.262-.633.393-.938.044-.088.109-.211.196-.371.088-.16.131-.269.131-.327.058-.117.204-.175.437-.175.189 0 .378.044.567.131.189.087.32.204.393.349l.501.349-.741 1.593c-.19.378-.364.749-.524 1.113-.146.349-.218.552-.218.61-.029.102-.095.313-.197.633-.101.32-.211.684-.327 1.091-.058.204-.203.633-.436 1.287-.102.248-.153.386-.153.415 0-.058.785-.117 2.356-.175.262-.014.742-.036 1.44-.065.713-.044 1.157-.087 1.331-.131l1.113-.153.524-1.942c.174-.712.458-1.716.85-3.01.189-.626.415-1.106.677-1.44.262-.349.487-.524.676-.524.364 0 .662.262.895.785.174.146.261.313.261.502s-.109.473-.327.851c-.189.349-.414.931-.676 1.746a5.243 5.243 0 0 1-.218.676v.087c0 .276-.066.48-.197.611-.043.044-.138.247-.283.611-.131.364-.197.574-.197.633.015.101 0 .232-.043.392a.743.743 0 0 1-.153.306c-.015.058-.153.64-.415 1.745-.261 1.106-.523 1.993-.785 2.662.015.073-.015.204-.087.393-.058.189-.088.32-.088.392-.218.699-.32 1.091-.305 1.179-.073.334-.211.938-.415 1.81-.13.582-.196.88-.196.895-.014.029-.08.044-.196.044-.233 0-.48-.051-.742-.153a1.4 1.4 0 0 1-.524-.48 1.052 1.052 0 0 1-.196-.611c0-.189.036-.356.109-.502.058-.102.167-.538.327-1.309l.218-.938c.073-.233.153-.575.24-1.026.102-.465.175-.792.219-.981.131-.757.218-1.157.261-1.2v-.218c-.043-.044-.305-.066-.785-.066-.494 0-1.076.029-1.745.087-.669.044-1.266.109-1.789.197l-.611.022c-.306 0-.502.007-.589.021a2.76 2.76 0 0 0-.371.022h-.197c-.058.131-.225.757-.501 1.876-.277 1.12-.437 1.84-.48 2.16a64.35 64.35 0 0 1-.459 2.139c-.16.77-.291 1.352-.392 1.745Zm14.221-1.244c-.567-.421-1.003-.8-1.309-1.134-.305-.335-.465-.655-.48-.96a2.407 2.407 0 0 1-.022-.393c0-.407.037-.916.109-1.527a19.61 19.61 0 0 1 .219-1.462c.058-.058.087-.145.087-.262.014-.116.014-.189 0-.218 0-.043.036-.189.109-.436.174-.538.298-.989.371-1.353.393-1.193.778-2.145 1.156-2.858.378-.713.8-1.382 1.266-2.007.989-1.018 2.043-1.789 3.163-2.313.567-.334.975-.502 1.222-.502.044 0 .109.015.196.044 1.789.393 2.858 1.527 3.207 3.404.131.887.197 1.556.197 2.007 0 .727-.131 1.461-.393 2.203-.262.742-.734 1.673-1.418 2.793-.582 1.164-1.244 2.16-1.985 2.989-.728.814-1.462 1.425-2.204 1.833-.727.407-1.411.611-2.051.611-.567 0-1.047-.153-1.44-.459Zm1.746-1.44c.349-.043.618-.109.807-.196a2.01 2.01 0 0 0 .611-.436 25.5 25.5 0 0 0 1.047-1.157 36.812 36.812 0 0 0 1.287-1.527 5.84 5.84 0 0 0 .677-1.243c.218-.495.458-1.208.72-2.139l.13-.501c.088-.306.146-.553.175-.742.044-.204.065-.422.065-.655l-.021-1.374a3.943 3.943 0 0 0-.153-.851c-.087-.306-.189-.524-.306-.655a1.32 1.32 0 0 0-.48-.327 1.223 1.223 0 0 0-.589-.153c-.145 0-.312.037-.501.109-.277.117-.662.43-1.157.939a14.284 14.284 0 0 0-1.331 1.527c-.378.523-.567.873-.567 1.047 0 .015-.007.058-.022.131a.464.464 0 0 1-.087.196c-.378.408-.764 1.266-1.156 2.575-.378 1.309-.597 2.451-.655 3.425a8.62 8.62 0 0 0 0 .873c.029.16.109.342.24.545.102.16.284.313.546.459.276.13.516.174.72.13Zm13.698-2.072a.315.315 0 0 1-.021-.131c0-.058.014-.131.043-.218a3.72 3.72 0 0 0 .066-.262c.014-.146.022-.284.022-.415l.043-.436c.073-.596.24-1.345.502-2.247.044-.146.095-.364.153-.655.072-.349.16-.669.262-.96-.48.044-.931.124-1.353.24-.102.029-.24.095-.415.197a2.428 2.428 0 0 1-.392.196 2.969 2.969 0 0 1-.393.24c-.189.087-.306.182-.349.284l-.96 2.727a3.123 3.123 0 0 0-.175.589c-.043.218-.094.487-.152.807-.088.378-.211.858-.371 1.44-.32 1.076-.488 1.789-.502 2.138a2.482 2.482 0 0 1-.371.524 3.921 3.921 0 0 1-.48.436 3.185 3.185 0 0 1-.72-.393c-.247-.16-.422-.334-.524-.523.015-.233.051-.48.109-.742.073-.262.146-.516.219-.764.116-.378.196-.661.24-.85l.283-1.397c.16-.873.306-1.6.437-2.182a8.936 8.936 0 0 1 .501-1.527c.117-.247.27-.502.459-.763.261-.408.436-.728.523-.96l.175-.415.414-1.113c.524-1.556 1.011-2.843 1.462-3.861.029-.059.095-.24.196-.546.088-.32.168-.538.24-.654l.022-.284c.291-.029.546-.044.764-.044.189 0 .4.015.633.044.421.378.632.764.632 1.156 0 .175-.029.328-.087.459a34.812 34.812 0 0 1-.807 1.941 38.354 38.354 0 0 0-.568 1.309l-.196.48-.153.262c.888-.32 1.739-.523 2.553-.611 1.12-2.385 2.48-3.992 4.08-4.821a1.08 1.08 0 0 1 .48-.131c.16 0 .313.029.458.087.146.058.284.124.415.196.131.073.225.124.283.153v.065c0 .059.015.146.044.262.044.102.058.182.044.24l.85.284c.015.044.044.116.088.218.058.087.123.16.196.218.335.32.589.793.764 1.418.174.611.262 1.2.262 1.768 0 .203-.03.451-.088.741a1.434 1.434 0 0 0-.043.219 1.417 1.417 0 0 0-.022.24c-.058 1.192-.378 2.56-.96 4.101-.582 1.542-1.346 2.895-2.291 4.058-.931 1.164-1.935 1.833-3.011 2.008a.626.626 0 0 1-.371.109.99.99 0 0 1-.262-.044 23.682 23.682 0 0 1-.261-.044 3.787 3.787 0 0 1-1.68-.632 1.965 1.965 0 0 1-.851-1.375l-.088-.589a4.085 4.085 0 0 1-.065-.698c0-.204.022-.393.065-.567Zm6.328-9.796c-.975.8-1.775 2.007-2.4 3.621a29.764 29.764 0 0 0-1.462 5.018 8.447 8.447 0 0 0-.131.829c-.029.364-.044.713-.044 1.048 0 .872.168 1.272.502 1.2.291-.073.626-.284 1.004-.633.102-.102.269-.24.502-.415.567-.465 1.156-1.287 1.767-2.465s1.04-2.218 1.287-3.12c.058-.189.116-.487.175-.894.058-.466.123-.808.196-1.026a.742.742 0 0 1-.022-.218.97.97 0 0 1 .087-.436 6.795 6.795 0 0 1-.021-.611c-.015-.451-.059-.815-.131-1.091-.073-.276-.248-.538-.524-.786-.16.015-.349.066-.567.153l-.218-.174Zm7.31 8.552a.636.636 0 0 1-.502-.262.99.99 0 0 1-.153-.545c0-.015-.015-.073-.044-.175a2.222 2.222 0 0 1-.021-.305c0-.073.007-.131.021-.175 0-.072.066-.254.197-.545.102-.247.174-.429.218-.546.16-.276.4-.596.72-.96.334-.378.625-.654.873-.829l.37-.261c0-.059.102-.168.306-.328.204-.16.378-.276.524-.349.058-.043.16-.116.305-.218s.284-.211.415-.327c.32-.32.56-.618.719-.895.161-.291.277-.582.35-.872.072-.291.181-.786.327-1.484.014-.48-.007-.785-.066-.916-.043-.131-.16-.269-.349-.415a3.617 3.617 0 0 0-.48-.044c-.974 0-1.731.59-2.269 1.768-.102.262-.152.451-.152.567 0 .073.021.167.065.284 0 .087.015.218.044.392.043.16.065.284.065.371a2.25 2.25 0 0 1-.284.087 1.876 1.876 0 0 1-.501.066c-.291 0-.517-.08-.677-.24a2.7 2.7 0 0 0-.174-.218 6.883 6.883 0 0 1-.218-.306.649.649 0 0 1-.109-.261 1.553 1.553 0 0 1-.022-.262 2.25 2.25 0 0 0 .022-.306 6.726 6.726 0 0 1 .785-1.636c.349-.538.771-.931 1.265-1.178.262-.117.517-.24.764-.371.262-.146.429-.24.502-.284h.218c.116-.014.284-.036.502-.065h.24c.145 0 .218.029.218.087h.633c.261.073.589.24.981.502.393.247.67.458.83.633.087.276.13.61.13 1.003 0 .727-.138 1.52-.414 2.378-.276.844-.633 1.506-1.069 1.986l-.48.436c-.713.64-1.164 1.069-1.353 1.287-.465.262-.894.662-1.287 1.2a6.516 6.516 0 0 0-.873 1.658c-.276.582-.647.873-1.112.873Zm-.502 3.862c-.277.116-.509.174-.698.174-.219 0-.466-.101-.742-.305-.218-.218-.328-.436-.328-.655 0-.363.27-.727.808-1.09.145-.088.276-.16.392-.219a.71.71 0 0 1 .306-.087c.116 0 .313.058.589.175.422.247.633.545.633.894 0 .407-.32.778-.96 1.113Zm23.371-12.523c.015.058.022.13.022.218a.433.433 0 0 1-.262.414l-.524.175a2.248 2.248 0 0 1-.611.109.852.852 0 0 1-.305-.044 1.298 1.298 0 0 0-.524-.283c-.203-.059-.625-.109-1.265-.153a3.357 3.357 0 0 1-.502.044c-.145 0-.262.007-.349.021a6.296 6.296 0 0 1-.436 1.069 3.383 3.383 0 0 1-.24.742c-.102.291-.146.458-.131.502-.044.058-.182.429-.415 1.113a77.77 77.77 0 0 0-.654 1.963c-.146.451-.255.778-.327.982a7.128 7.128 0 0 0-.284.698l-.218.655-.546 1.505a8.82 8.82 0 0 0-.436 1.047c-.16.466-.291.888-.393 1.266-.16.567-.305.974-.436 1.222-.117.247-.218.4-.306.458a.666.666 0 0 1-.37.087c-.233 0-.437-.116-.611-.349-.175-.233-.262-.451-.262-.655 0-.32.109-.858.327-1.614.233-.756.451-1.36.655-1.811.058-.262.109-.473.152-.633a2.67 2.67 0 0 0 .109-.349c.044-.058.11-.211.197-.458.102-.262.182-.502.24-.72.043-.262.494-1.723 1.352-4.385l.153-.458c.131-.219.255-.495.371-.829.116-.073.175-.226.175-.459 0-.043.021-.101.065-.174.058-.073.087-.124.087-.153a.094.094 0 0 1 .066-.022c.014 0 .029.008.043.022.03 0 .073-.029.131-.087h-.021l-1.07.109-.48.044c-.858.072-1.345.123-1.461.152l-.306.022c-.451 0-.771-.087-.96-.262-.174-.189-.232-.4-.174-.632a.737.737 0 0 1 .327-.459c.189-.116.495-.218.916-.305.131-.029.386-.073.764-.131l.589-.109.742-.087a25.103 25.103 0 0 1 2.683-.262c.393-.015.72-.029.982-.044.277-.029.458-.051.546-.065.203.014.531.051.981.109.466.058.8.124 1.004.196.32.073.582.204.785.393.204.189.342.407.415.655Zm-3.923 13.374a1.63 1.63 0 0 1-.349-.24.443.443 0 0 1-.087-.284c0-.145.058-.349.174-.611.131-.276.35-.705.655-1.287.087-.189.255-.524.502-1.004.625-1.192.938-2.072.938-2.64a.293.293 0 0 1-.022-.13c0-.146.116-.277.349-.393.044-.044.197-.167.458-.371.277-.204.495-.436.655-.698.189-.437.429-.917.72-1.44.291-.538.793-1.411 1.505-2.618a27.242 27.242 0 0 1 2.226-3.469c.145-.204.305-.364.48-.48.189-.117.349-.175.48-.175.451 0 .909.175 1.374.524.48.349.793.698.938 1.047.059.102.088.32.088.655 0 .45-.051 1.214-.153 2.29-.029.189-.058.488-.087.895a41.316 41.316 0 0 1-.197 2.094c-.16 1.629-.276 2.902-.349 3.818a32.54 32.54 0 0 0-.109 2.575c0 .407.007.705.022.894v.153l-.022.502c-.087.087-.262.131-.524.131-.29 0-.581-.051-.872-.153-.291-.087-.451-.196-.48-.327a.268.268 0 0 0-.066-.044c-.029-.014-.043-.08-.043-.196l.021-.48.066-1.222.109-3.338-.284.022c-.291 0-.909.058-1.854.174-.931.117-1.52.211-1.767.284-.131 0-.291.087-.48.262a2.47 2.47 0 0 0-.502.676c-.044.146-.146.357-.306.633-.16.262-.24.414-.24.458a.942.942 0 0 0-.24.24 2.263 2.263 0 0 0-.109.175c0 .16-.145.574-.436 1.243-.276.655-.553 1.193-.829 1.615l-.589.829-.764-.589Zm5.215-7.506.611-.087c.305-.058.574-.094.807-.109.698-.174 1.178-.262 1.44-.262.145 0 .247.015.305.044a.558.558 0 0 0 .131.131.744.744 0 0 0 .109.022c.029-.117.146-.909.349-2.378.204-1.47.306-2.371.306-2.706 0-.233-.008-.429-.022-.589a1.9 1.9 0 0 0-.044-.327c-.131 0-.429.349-.894 1.047a20.099 20.099 0 0 0-1.353 2.335c-.334.596-.567.894-.698.894-.102.102-.32.444-.655 1.025-.334.582-.465.902-.392.96Zm17.823 7.898c-.436.03-.96-.021-1.571-.152a4.43 4.43 0 0 1-1.745-.764c-.538-.378-.88-.916-1.026-1.614a8.197 8.197 0 0 1-.152-1.637c0-1.207.189-2.494.567-3.861.145-.51.524-1.295 1.134-2.357.626-1.062 1.208-1.927 1.746-2.596.349-.422.894-.938 1.636-1.549.757-.626 1.258-.989 1.506-1.091.203-.102.436-.153.698-.153.174 0 .356.022.545.066.291.029.611.16.96.392.364.233.56.444.589.633 0 .058.029.087.088.087.072 0 .203-.036.392-.109.088-.101.233-.189.437-.261.203-.073.392-.11.567-.11.189 0 .291.044.305.131a.271.271 0 0 0-.043.153c0 .087.029.153.087.196.073-.029.058.197-.044.677-.102.465-.218.814-.349 1.047l-.065.218v.066c0 .102-.066.218-.197.349-.087.131-.211.531-.37 1.2-.16.669-.233 1.076-.219 1.222.015.058-.021.101-.109.13a.823.823 0 0 1-.305.044c-.277 0-.531-.044-.764-.131-.233-.087-.4-.182-.502-.283-.101-.102-.152-.248-.152-.437 0-.174.058-.458.174-.851.233-.785.349-1.309.349-1.571 0-.29-.087-.501-.262-.632-.043-.088-.13-.153-.261-.197a1.133 1.133 0 0 0-.393-.065.96.96 0 0 0-.436.109c-.335.131-.829.509-1.484 1.135a13.103 13.103 0 0 0-1.68 1.876c-.713.989-1.251 1.985-1.614 2.989-.35.989-.524 1.942-.524 2.858 0 .727.109 1.411.327 2.051.029.073.117.203.262.393.145.174.262.29.349.349a3.8 3.8 0 0 0 .895.087c.29 0 .64-.022 1.047-.066.582-.101 1.018-.261 1.309-.48.305-.218.618-.552.938-1.003.131-.189.284-.284.458-.284.189 0 .364.102.524.306.16.203.262.443.305.72 0 .131-.131.4-.392.807-.248.393-.437.603-.568.633-.058.014-.094.036-.109.065 0 .015.007.051.022.109 0 .087-.16.211-.48.371a6.52 6.52 0 0 1-1.178.48c-.451.16-.858.262-1.222.305Zm15.797.786a1 1 0 0 1-.327-.087.987.987 0 0 1-.327-.197c-.175-.174-.262-.436-.262-.785 0-.786-.014-1.302-.044-1.549l-.021-1.309c0-.335.021-.538.065-.611a1.858 1.858 0 0 1-.022-.327c0-.131.008-.284.022-.459.029-.189.044-.334.044-.436l-.088-.589h-1.178a4.354 4.354 0 0 1-.567.022c-.393 0-1.331-.044-2.814-.131l-.284.458a6.55 6.55 0 0 0-.218.284c-.117.174-.24.436-.371.785-.131.349-.306.749-.524 1.2-.203.451-.392.8-.567 1.047-.218.408-.422.706-.611.895-.174.189-.305.283-.393.283h-.109a.708.708 0 0 1-.262-.043.895.895 0 0 1-.261-.153c-.393-.174-.589-.436-.589-.785 0-.248.116-.538.349-.873l.283-.458c0-.087.211-.546.633-1.375.436-.843.72-1.294.851-1.352.131-.131.196-.262.196-.393 0-.146-.087-.291-.262-.436a.373.373 0 0 1-.152-.175.895.895 0 0 1-.044-.284c0-.203.073-.378.218-.523.146-.146.371-.211.677-.197.072-.043.138-.08.196-.109.073-.029.124-.051.153-.065.043-.029.065-.066.065-.109 0-.073.117-.335.349-.786.247-.465.466-.814.655-1.047.145-.393.269-.676.371-.851.116-.174.189-.298.218-.371.073-.072.218-.312.436-.72.029-.043.124-.203.284-.48.145-.145.291-.312.436-.501l.306-.393c.058-.102.145-.226.261-.371a3.02 3.02 0 0 1 .393-.633c.189-.262.306-.422.349-.48.218-.262.48-.473.786-.633.305-.174.589-.261.851-.261.145 0 .269.021.37.065.364.16.684.458.96.895.277.436.437.945.48 1.527.015.102.044.327.088.676.058.349.087.655.087.917 0 .189-.022.341-.066.458v.96c0 .48.015.836.044 1.069-.044.16-.065.422-.065.785l.021.851c0 .218-.007.4-.021.546l-.022.807-.022.807c-.015.364-.022.822-.022 1.375l.022 1.723c0 .989-.087 1.709-.262 2.16-.16.451-.407.698-.742.742Zm-4.407-8.16c.073-.014.255-.036.546-.065.291-.029.603-.037.938-.022.407-.029.676-.044.807-.044.189 0 .378.007.567.022.204 0 .32-.007.349-.022.277.015.415-.24.415-.763a39.124 39.124 0 0 1-.153-3.317l.022-.676c0-.233-.022-.48-.065-.742a10.832 10.832 0 0 0-.066-.523c-.058-.073-.269.167-.633.72a36.237 36.237 0 0 0-.894 1.483 4.37 4.37 0 0 0-.349.611 7.695 7.695 0 0 0-.24.415c-.073.16-.167.334-.284.523-.712 1.135-1.069 1.862-1.069 2.182 0 .102.037.174.109.218Zm23.224-6.654c0 .072-.022.123-.065.152-.044.015-.066.03-.066.044 0 .015.029.044.087.087l-.152.72c-.058.306-.182.917-.371 1.833a64.638 64.638 0 0 0-.393 2.225l-.305 2.335a120.005 120.005 0 0 0-.284 2.378 22.048 22.048 0 0 0-.065 1.745c0 .699.021 1.229.065 1.593.058.378.087.596.087.655 0 .087-.102.218-.305.392a1.013 1.013 0 0 1-.676.262c-.379 0-.655-.16-.83-.48-.174-.305-.276-.785-.305-1.44 0-.974.073-2.276.218-3.905.044-.102.066-.298.066-.589 0-.175-.015-.306-.044-.393-.015-.145.007-.349.065-.611.015-.058.03-.138.044-.24.015-.102.022-.196.022-.283 0-.073.029-.226.087-.459.087-.261.131-.465.131-.611v-.152c.044-.131.087-.291.131-.48.058-.204.087-.327.087-.371a1.302 1.302 0 0 1-.022-.306c0-.16-.014-.269-.043-.327.087-.247.189-.625.305-1.134l.262-1.048c-.014 0-.174.291-.48.873a13.269 13.269 0 0 1-1.069 1.724 13.617 13.617 0 0 1-.982 1.396c-.305.393-.48.618-.523.676-.189.248-.371.48-.546.699-.16.218-.276.421-.349.61-.305.757-.662 1.309-1.069 1.659-.393.349-.793.545-1.2.589l-.349.043h-.131c-.276 0-.509-.182-.698-.545-.175-.364-.262-1.04-.262-2.029l.022-.589.065-1.222c.044-.247.08-.655.109-1.222.03-.582.051-.967.066-1.156-.073.073-.204.342-.393.807-.174.466-.283.764-.327.895l-.196.501c-.073.102-.182.379-.328.829-.116.335-.276.742-.48 1.222-.32 1.048-.611 1.877-.872 2.487-.117.248-.233.517-.349.808-.03.058-.117.291-.262.698-.204.524-.335.836-.393.938-.625 1.411-1.149 2.116-1.571 2.116-.233 0-.465-.123-.698-.371-.218-.232-.327-.487-.327-.763 0-.204.08-.473.24-.807.16-.349.392-.8.698-1.353l.458-.851c0-.073.175-.567.524-1.484l.305-.807 1.353-3.578.022-.087.13-.327c.044-.117.124-.291.24-.524.204-.466.306-.735.306-.807v-.044c0-.044.015-.073.044-.087a.328.328 0 0 1 .087-.022c.058-.16.16-.407.305-.742.16-.349.284-.611.371-.785l-.022-.088c0-.145.022-.261.066-.349.058-.087.116-.167.174-.24.073-.072.131-.138.175-.196 0-.087.044-.204.131-.349.087-.16.189-.32.305-.48.233-.32.386-.56.458-.72.146-.276.371-.415.677-.415.218 0 .436.088.654.262.218.175.4.371.546.589.145.204.218.342.218.415 0 .043-.022.073-.066.087-.043.015-.065.051-.065.109v.087a.557.557 0 0 1 .022.175c0 .262-.037.465-.109.611a6.734 6.734 0 0 0-.197 1.68l.022.633c0 .116-.029.203-.087.261-.044.059-.08.109-.109.153v.044l-.022.174.022.131c0 .131-.037.291-.109.48a6.077 6.077 0 0 0-.131.546c-.058.48-.087.974-.087 1.483 0 .757.065 1.171.196 1.244l1.571-2.335c1.338-1.978 2.014-2.989 2.029-3.032.102-.059.196-.168.283-.328-.014 0-.021-.014-.021-.043 0-.073.189-.386.567-.938.378-.568.785-1.077 1.222-1.528.436-.465.792-.698 1.069-.698.131 0 .305.087.523.262.233.175.437.393.611.655.175.247.262.48.262.698Zm6.29 13.832c-.495-.116-1.07-.327-1.724-.633-.655-.291-1.004-.531-1.047-.72a.205.205 0 0 0-.088-.174.27.27 0 0 0-.196-.087v-.328c0-.101-.029-.167-.087-.196-.073-.145-.109-.356-.109-.633 0-.451.072-1.018.218-1.702.16-.683.334-1.294.524-1.832 0-.102.021-.233.065-.393a1.29 1.29 0 0 0 .087-.305c.117-.335.349-.866.698-1.593.35-.727.64-1.236.873-1.527 0-.044.051-.138.153-.284a1.5 1.5 0 0 0 .24-.48c.233-.233.545-.684.938-1.353.509-.421.72-.8.633-1.134.014-.306.138-.524.371-.655.247-.145.683-.291 1.309-.436a5.749 5.749 0 0 1 1.396-.349c.48-.073 1.113-.124 1.898-.153a4.324 4.324 0 0 1 .742-.109c.044-.044.262-.022.654.066.408.072.771.196 1.091.37.335.16.495.342.48.546-.014.116-.341.269-.981.458-.626.175-1.2.291-1.724.349l-.546.066c-.843.087-1.454.181-1.832.283a2.394 2.394 0 0 0-1.004.524c-.305.262-.654.698-1.047 1.309-.524.814-.785 1.367-.785 1.658 0 .189.101.284.305.284a5.9 5.9 0 0 0 .589-.044c.276-.044.473-.065.589-.065.073-.029.24-.088.502-.175.276-.087.582-.153.916-.196l.96-.197c.291-.072.509-.109.655-.109.509 0 .763.175.763.524 0 .189-.094.393-.283.611a1.679 1.679 0 0 1-.698.502c-.262.101-.56.203-.895.305-.334.102-.545.153-.633.153a.888.888 0 0 1-.218.043 2.805 2.805 0 0 1-.393.022l-.981.131-.72.087c-.117.029-.393.102-.829.219-.437.116-.72.247-.851.392-.131.131-.255.349-.371.655a7.532 7.532 0 0 0-.458 1.549 8.283 8.283 0 0 0-.175 1.571c0 .451.066.742.196.872.32.364.822.546 1.506.546.364 0 .734-.051 1.113-.153a3.909 3.909 0 0 0 1.025-.458c.276-.218.582-.385.916-.502.131-.087.24-.131.328-.131.072 0 .152.029.24.088.087.043.167.094.24.152.087.058.16.109.218.153.116.16.174.327.174.502 0 .48-.611.974-1.832 1.483-.684.233-1.229.4-1.637.502a4.612 4.612 0 0 1-1.112.153l-.349-.022Zm-136.267 18.916c-.043.073-.16.167-.349.284.247.16.466.334.655.523.203.189.327.357.371.502.421.669.632 1.455.632 2.356 0 .466-.051.931-.152 1.397a29.998 29.998 0 0 1-.655 1.221c-.305.582-.771 1.084-1.396 1.506-.626.422-1.2.698-1.724.829a6.387 6.387 0 0 1-1.854.284c-.146 0-.35-.015-.611-.044a4.276 4.276 0 0 1-1.004-.196c-.291-.088-.662-.255-1.113-.502a3.928 3.928 0 0 1-1.134-.917 9.344 9.344 0 0 1-.873-1.243 1.12 1.12 0 0 1-.174-.633c0-.276.087-.545.261-.807.175-.262.386-.473.633-.633.189-.116.371-.174.546-.174.116 0 .218.021.305.065.102.044.175.073.218.087.277.044.451.189.524.437.073.247.116.378.131.392a5.565 5.565 0 0 1-.24.633.572.572 0 0 1-.24.284c.218.334.487.618.807.851.175.131.422.247.742.349.334.102.567.138.698.109.015-.015.051-.022.109-.022.073 0 .145.015.218.044.087.014.138.014.153 0 .073-.029.204-.044.393-.044a1.32 1.32 0 0 0 .48-.109c.465-.131.88-.313 1.243-.546a4.835 4.835 0 0 0 1.026-.96c.218-.305.363-.574.436-.807.087-.247.145-.574.175-.982a1.71 1.71 0 0 0-.088-.741 12.016 12.016 0 0 1-.174-.589l-.284-.219-.48-.131c-.378-.116-.647-.174-.807-.174-.175 0-.356.029-.546.087-.247.073-.414.109-.501.109a.883.883 0 0 1-.437-.109 2.377 2.377 0 0 0-.218-.153c-.204-.072-.385-.225-.545-.458a1.413 1.413 0 0 1-.219-.72c0-.131.037-.254.11-.371a.861.861 0 0 1 .414-.37c.189-.102.4-.139.633-.11.058.015.138.022.24.022.203 0 .451-.058.742-.174.174-.058.451-.218.829-.48.378-.262.567-.386.567-.371.48-.611.822-1.069 1.025-1.375.219-.32.393-.669.524-1.047.16-.291.24-.604.24-.938 0-.189-.036-.371-.109-.546-.015-.087-.116-.16-.306-.218a1.791 1.791 0 0 0-.523-.087.537.537 0 0 0-.197.022c-.232.014-.574.102-1.025.262-.451.145-.72.254-.807.327-.786.669-1.258 1.12-1.418 1.353a.594.594 0 0 1-.306.24 1.064 1.064 0 0 1-.436.087c-.276 0-.458-.073-.546-.218a1.565 1.565 0 0 1-.24-.829c0-.335.124-.655.371-.96a9.97 9.97 0 0 1 .72-.829 3.1 3.1 0 0 1 .72-.568l.415-.24c.058-.029.189-.101.393-.218.218-.116.421-.203.61-.262.059-.014.226-.072.502-.174.291-.102.597-.153.917-.153.13 0 .232.007.305.022.495.044.858.131 1.091.262.247.131.625.414 1.134.851.219.145.393.4.524.763.131.364.196.778.196 1.244 0 .698-.13 1.331-.392 1.898a4.74 4.74 0 0 0-.24.458c-.029.058-.124.233-.284.524a3.924 3.924 0 0 1-.502.742c-.131.174-.407.516-.829 1.025Zm2.322 8.814a1.56 1.56 0 0 1-.349-.24.439.439 0 0 1-.087-.283c0-.146.058-.349.174-.611.131-.277.35-.706.655-1.287.087-.19.254-.524.502-1.004.625-1.193.938-2.073.938-2.64a.297.297 0 0 1-.022-.131c0-.145.116-.276.349-.393.044-.043.197-.167.458-.371.277-.203.495-.436.655-.698.189-.436.429-.916.72-1.44.291-.538.793-1.411 1.505-2.618a27.313 27.313 0 0 1 2.226-3.469c.145-.203.305-.363.48-.48.189-.116.349-.174.48-.174.451 0 .909.174 1.374.523.48.349.793.698.938 1.048.058.101.088.32.088.654 0 .451-.051 1.215-.153 2.291-.029.189-.058.487-.087.894a41.35 41.35 0 0 1-.197 2.095c-.16 1.629-.276 2.902-.349 3.818a32.521 32.521 0 0 0-.109 2.575c0 .407.007.705.022.894v.153l-.022.502c-.087.087-.262.13-.524.13-.29 0-.581-.05-.872-.152-.291-.088-.451-.197-.48-.328a.269.269 0 0 0-.066-.043c-.029-.015-.043-.08-.043-.197l.021-.479.066-1.222.109-3.338-.284.021c-.291 0-.909.059-1.854.175-.931.116-1.52.211-1.767.284-.131 0-.291.087-.48.261-.189.175-.357.4-.502.677-.044.145-.146.356-.306.632-.16.262-.24.415-.24.459a.942.942 0 0 0-.24.24 2.317 2.317 0 0 0-.109.174c0 .16-.145.575-.436 1.244-.276.654-.553 1.192-.829 1.614l-.589.829-.764-.589Zm5.215-7.505.611-.087c.305-.058.574-.095.807-.109.698-.175 1.178-.262 1.44-.262.145 0 .247.014.305.043a.54.54 0 0 0 .131.131.622.622 0 0 0 .109.022c.029-.116.146-.909.349-2.378.204-1.469.306-2.371.306-2.705 0-.233-.008-.429-.022-.589a1.918 1.918 0 0 0-.044-.328c-.131 0-.429.349-.894 1.048a19.998 19.998 0 0 0-1.353 2.334c-.334.596-.567.895-.698.895-.102.101-.32.443-.655 1.025-.334.582-.465.902-.392.96Zm8.743 7.331c-.146 0-.364-.073-.655-.218-.291-.146-.436-.299-.436-.459 0-.029-.007-.087-.022-.174a.897.897 0 0 0-.087-.262c0-.364.036-.654.109-.873 0-.16.022-.334.065-.523a2.12 2.12 0 0 1 .153-.458c0-.117.029-.27.087-.459.059-.203.095-.341.11-.414l.13-.458.371-1.113a3.2 3.2 0 0 0 .153-.436c.029-.117.044-.226.044-.328.087-.291.196-.661.327-1.112.131-.451.24-.844.327-1.178.073-.073.109-.182.109-.328.029-.087.095-.291.197-.611.101-.334.218-.683.349-1.047.218-.64.385-1.164.502-1.571.116-.407.174-.691.174-.851a.503.503 0 0 0-.065-.261 1.424 1.424 0 0 0-.066-.175 1.211 1.211 0 0 1-.087-.262c0-.058.029-.116.087-.174a.706.706 0 0 0 .131-.175c.044-.073.073-.124.087-.153 0-.058.357-.225 1.069-.501a20.945 20.945 0 0 1 1.68-.611h1.331c.408.058.808.174 1.2.349.393.174.72.392.982.654.451.422.858 1.04 1.222 1.855 0 .058.014.189.043.393.044.189.066.356.066.501 0 .684-.247 1.469-.742 2.357-.48.887-1.142 1.672-1.985 2.356-.48.378-.989.669-1.528.873a4.157 4.157 0 0 1-1.505.305c-.218 0-.422-.022-.611-.065-.262-.102-.451-.248-.567-.437a1.392 1.392 0 0 1-.153-.632c0-.19.029-.313.087-.371.059-.015.219-.022.48-.022.262 0 .648-.095 1.157-.284a4.62 4.62 0 0 0 .916-.414c.684-.437 1.287-1.077 1.811-1.92.291-.466.436-1.164.436-2.095.029-.145.044-.254.044-.327 0-.291-.131-.531-.393-.72-.247-.204-.603-.327-1.069-.371a1.858 1.858 0 0 0-.327-.022c-.276 0-.567.037-.873.109-.305.073-.523.153-.654.24-.044 0-.08.051-.109.153a1.627 1.627 0 0 1-.11.284c0 .116-.05.334-.152.654-.087.32-.182.618-.284.895l-.283.829c-.19.48-.32.858-.393 1.134a6.76 6.76 0 0 1-.175.611 4.37 4.37 0 0 1-.152.393c0 .029-.044.16-.131.393a6.743 6.743 0 0 0-.197.589 9.777 9.777 0 0 1-.545 1.876c-.335 1.091-.502 1.855-.502 2.291 0 .16.022.276.065.349.248.015.422.044.524.087.116.029.175.095.175.197 0 .174-.233.552-.699 1.134-.13.335-.269.575-.414.72-.146.146-.269.226-.371.24a1.787 1.787 0 0 1-.458.044Zm19.247 1.352a1 1 0 0 1-.327-.087.97.97 0 0 1-.327-.196c-.175-.175-.262-.437-.262-.786 0-.785-.014-1.301-.044-1.549l-.021-1.309c0-.334.021-.538.065-.611a1.842 1.842 0 0 1-.022-.327c0-.131.008-.284.022-.458.029-.189.044-.335.044-.436l-.088-.589h-1.178a4.626 4.626 0 0 1-.567.021c-.393 0-1.331-.043-2.814-.131l-.284.459a6.133 6.133 0 0 0-.218.283c-.117.175-.24.437-.371.786-.131.349-.306.749-.524 1.2-.203.451-.392.8-.567 1.047-.218.407-.422.705-.611.894-.174.189-.305.284-.393.284h-.109a.707.707 0 0 1-.262-.044.862.862 0 0 1-.261-.152c-.393-.175-.589-.437-.589-.786 0-.247.116-.538.349-.872l.283-.459c0-.087.211-.545.633-1.374.436-.844.72-1.295.851-1.353.131-.131.196-.262.196-.393 0-.145-.087-.29-.262-.436a.365.365 0 0 1-.152-.174.9.9 0 0 1-.044-.284c0-.204.073-.378.218-.524.146-.145.371-.211.677-.196.072-.044.138-.08.196-.109.073-.029.124-.051.153-.066.043-.029.065-.065.065-.109 0-.072.117-.334.349-.785.248-.466.466-.815.655-1.047.145-.393.269-.677.371-.851a2.51 2.51 0 0 0 .218-.371c.073-.073.218-.313.436-.72.029-.044.124-.204.284-.48.145-.146.291-.313.436-.502.16-.204.262-.334.306-.393.058-.101.145-.225.261-.371.073-.174.204-.385.393-.632.189-.262.306-.422.349-.48.218-.262.48-.473.786-.633.305-.175.589-.262.851-.262.145 0 .269.022.37.066.364.16.684.458.96.894.277.437.437.946.48 1.527.015.102.044.328.088.677.058.349.087.654.087.916 0 .189-.022.342-.065.458v.96c0 .48.014.837.043 1.069-.043.16-.065.422-.065.786l.022.851c0 .218-.008.4-.022.545l-.022.807-.022.808c-.014.363-.022.821-.022 1.374l.022 1.724c0 .989-.087 1.709-.262 2.16-.16.451-.407.698-.742.741Zm-4.407-8.159c.073-.015.255-.037.546-.066.291-.029.603-.036.938-.022.407-.029.676-.043.807-.043.189 0 .378.007.567.022.204 0 .32-.008.349-.022.277.014.415-.24.415-.764a39.101 39.101 0 0 1-.153-3.316l.022-.677c0-.232-.022-.479-.065-.741a10.932 10.932 0 0 0-.066-.524c-.058-.073-.269.167-.633.72a36.214 36.214 0 0 0-.894 1.484 4.37 4.37 0 0 0-.349.611 7.631 7.631 0 0 0-.24.414 4.75 4.75 0 0 1-.284.524c-.712 1.134-1.069 1.861-1.069 2.181 0 .102.037.175.109.219Zm13.057 8.094a.989.989 0 0 1-.327.087.649.649 0 0 1-.349-.109c-.422 0-.72-.029-.895-.087l.131.087c-.756-.145-1.491-.56-2.203-1.243-.699-.684-1.149-1.404-1.353-2.16a6.757 6.757 0 0 1-.087-.415c-.029-.174-.037-.298-.022-.371.058-.32.225-.574.502-.763.276-.204.581-.306.916-.306.131 0 .262.022.393.066.101.203.152.37.152.501 0 .088-.021.211-.065.371.218.742.625 1.324 1.222 1.746.596.421 1.28.632 2.051.632.64 0 1.229-.16 1.767-.48a3.02 3.02 0 0 0 1.222-1.374c.058-.131.101-.284.13-.458a5.73 5.73 0 0 1 .131-.48.465.465 0 0 1 .088-.153c.014-.087.021-.225.021-.415 0-.494-.101-.967-.305-1.418-.189-.451-.465-.749-.829-.894a6.298 6.298 0 0 1-.589-.109c-.32-.088-.567-.131-.742-.131-.131 0-.225.007-.284.022l-.349-.131a5.965 5.965 0 0 1-.611-.742 1.5 1.5 0 0 1-.196-.742c0-.203.044-.422.131-.654.102 0 .233-.022.393-.066.174-.043.305-.065.392-.065.728 0 1.368-.182 1.92-.546a3.554 3.554 0 0 0 1.266-1.44 4.199 4.199 0 0 0 .458-1.941c0-.117-.015-.306-.044-.568-.305-.262-.698-.392-1.178-.392-.538 0-1.112.138-1.723.414-.597.262-1.048.575-1.353.938a1.714 1.714 0 0 1-.829-.283 2.226 2.226 0 0 1-.633-.699 1.314 1.314 0 0 1-.153-.829c.408-.523.946-.923 1.615-1.2a5.478 5.478 0 0 1 2.16-.436c.742 0 1.433.138 2.073.415a3.654 3.654 0 0 1 1.57 1.221c.408.539.611 1.186.611 1.942 0 .291-.029.575-.087.851-.131.655-.429 1.309-.894 1.964a6.364 6.364 0 0 1-1.571 1.549 3.797 3.797 0 0 1 1.571 1.636c.363.698.545 1.455.545 2.269 0 .64-.189 1.36-.567 2.16-.364.8-.786 1.418-1.266 1.854a1.36 1.36 0 0 1-.305.219c-.131.072-.24.138-.327.196l-.284.196c-.611.277-1.127.473-1.549.589-.422.131-.909.19-1.462.175Zm9.416-2.967c-.305.102-.538.153-.698.153-.247 0-.494-.095-.742-.284-.218-.218-.327-.436-.327-.655 0-.363.269-.734.807-1.112.291-.189.517-.284.677-.284.116 0 .312.058.589.175.436.29.654.589.654.894 0 .407-.32.778-.96 1.113Zm4.544 0c-.306.102-.539.153-.699.153-.247 0-.494-.095-.741-.284-.219-.218-.328-.436-.328-.655 0-.363.269-.734.808-1.112.291-.189.516-.284.676-.284.116 0 .313.058.589.175.436.29.655.589.655.894 0 .407-.32.778-.96 1.113Z" fill="#1EA6F9"/></svg>