<svg width="366" height="326" fill="none" xmlns="http://www.w3.org/2000/svg"><circle opacity=".1" cx="182.5" cy="148.5" r="141.5" fill="#B5E3FF"/><ellipse opacity=".4" cx="183" cy="148.5" rx="109" ry="109.5" fill="#B5E3FF"/><path d="M110.402 279.21s4.322-42.085 3.816-46.219c-.505-4.133-15.586-13.656-4.23-39.192-14.85-17.744-17.747-27.19-14.054-31.109 3.694-3.919 15.664-10.716 35.633-7.241 23.097-16.06 52.033-26.853 90.639-17.621 10.284-6.721 24.828-8.65 32.629-5.343 7.801 3.307 7.985 13.258 5.548 24.097l-2.36 10.854s8.138 18.999 7.954 30.236c-.184 11.237-9.624 28.353-9.624 28.353s12.766 16.473 12.827 23.118c.062 6.644 1.886 18.065 1.104 18.937-.782.873-30.679 19.465-78.546 21.882-47.867 2.418-81.336-10.752-81.336-10.752Z" fill="#F5FCFF"/><path d="M106.418 209.102c.398.597 1.609 10.073 11.096 14.513a447.198 447.198 0 0 0 18.391 8.068l7.265 20.76s-4.598 9.889-5.656 17.345c-.626 5.15-.095 11.119 0 16.306 0 0-29.906-3.385-27.972-8.703-.399-4.073-.887-34.318 4.723-43.947 2.544-4.394-6.989-8.819-7.801-14.667a61.038 61.038 0 0 1-.046-9.675Zm159.268-7.894s-.858 10.717-9.41 13.488c-8.552 2.771-14.008 4.838-14.008 4.838s-18.775 15.309-18.391 17.744c.383 2.434-.399 4.592.812 5.342 1.211.751 12.567 13.213 14.253 22.475 1.686 9.262 1.63 16.164 1.63 16.164s12.088-4.257 18.034-6.769c5.945-2.512 9.223-4.182 12.427-7.253 0 0-8.351-38.288-12.427-39.696-4.077-1.409 5.839-12.049 6.651-15.065.812-3.016.429-11.268.429-11.268Zm-83.282-24.051c3.586-.183 26.576-11.405 43.802-9.262 17.227 2.144 38.223 15.31 38.99 14.789.49-.291-5.027-19.902-21.334-33.681-9.656-8.052-23.94-12.63-40.676-13.564-45.013-2.495-67.435 15.754-82.148 28.399a39.565 39.565 0 0 0-13.441 30.619s22.116-19.519 39.281-20.714c17.165-1.194 35.526 3.414 35.526 3.414Z" fill="#B5E3FF"/><path d="M130.234 183.893c-.996 3.506 4.245 8.191 10.498 6.813 6.253-1.378 9.748-2.786 9.411-6.813-.338-4.026-6.79-5.419-11.02-4.822-4.23.597-8.077 1.99-8.889 4.822Zm82.393-5.894c.597 3.062 6.881 4.164 13.165 2.128 6.544-2.128 9.318-7.654 3.862-9.446a16.556 16.556 0 0 0-14.131 1.041c-4.276 2.496-2.896 6.277-2.896 6.277Z" fill="#FFDCD9"/><path d="M172.288 234.445a21.973 21.973 0 0 1 12.936-5.067 23.85 23.85 0 0 1 14.559 2.939c1.426.873 2.728-1.378 1.303-2.25a26.078 26.078 0 0 0-16.138-3.261 24.736 24.736 0 0 0-14.499 5.787c-1.241 1.148.613 3.062 1.839 1.852Zm8.031-10.211a13.336 13.336 0 0 1 9.273-1.286 1.294 1.294 0 0 0 .989-.124 1.31 1.31 0 0 0 .612-.787 1.303 1.303 0 0 0-.912-1.6 16.051 16.051 0 0 0-11.28 1.531 1.306 1.306 0 0 0-.467 1.784 1.309 1.309 0 0 0 1.785.467v.015Z" fill="#76C1FF"/><path d="M109.651 194.579s-11.356-24.02-9.195-30.267c2.161-6.246 31.495-8.282 31.495-8.282s-3.066 7.486-8.506 11.482c-2.452 1.822-8.889.766-8.721 2.159a39.784 39.784 0 0 0 2.989 9.752l-8.062 15.156Zm109.582-55.205c7.188-2.113 29.119-6.721 33.717-3.782 3.525 2.297 7.479 34.6 2.253 37.57-2.943-1.041-7.97-7.563-10.054-13.932-.95-2.893-.215-12.125-1.533-12.401-4.383-.903-10.299 3.231-10.299 3.231s-18.314-9.431-14.084-10.686Zm-99.497 99.511c0 .613 2.835 8.681 7.877 11.298 5.043 2.618 13.487 2.557 15.541 1.807 3.832-1.378 8.813-16.978 9.027-19.397a20.098 20.098 0 0 1 2.023-5.894l6.514-.49s.521 0 .322-1.24c-.2-1.24-6.131-5.619-9.579-5.282-3.449.337-12.476 5.91-16.522 8.283-4.046 2.372-15.203 10.915-15.203 10.915Zm92.86-19.826c.123-1.225 2.299-4.945 13.595-2.939 6.743 1.194 19.464 3.659 26.575 12.89 1.533 1.929-4.889 7.915-8.92 10.931-4.03 3.016-13.41 2.664-13.41 2.664s-6.544-13.579-7.663-17.422c-1.119-3.843-3.065-5.343-5.425-6.017-2.361-.673-4.476 2.389-5.487 1.531-1.012-.857.735-1.638.735-1.638Zm-65.519-51.103c-4.245-1.531-2.927-8.696.613-11.926 3.541-3.23 8.598-6.874 13.135-4.455 4.536 2.419 1.824 10.716-1.303 13.334-3.126 2.618-9.195 4.21-12.445 3.047Zm48.967-21.479c2.774-4.011 10.499-1.944 15.541 2.312s6.13 8.068 2.023 10.609c-4.107 2.542-10.498 2.909-14.131 0-3.632-2.908-7.065-7.67-3.433-12.921Z" fill="#1EA6F9"/><path d="M106.678 191.549a62.662 62.662 0 0 0-1.916 17.468 45.064 45.064 0 0 0 3.402 17.024 32.834 32.834 0 0 0 4.905 8.098l-.246-1.975c-6.13 10.717-6.544 23.21-5.594 35.212.276 3.46.659 6.92 1.073 10.365a1.67 1.67 0 0 0 1.625 1.622 1.637 1.637 0 0 0 1.624-1.622c-1.348-11.498-2.743-23.577.368-34.906a38.92 38.92 0 0 1 3.709-8.971 1.683 1.683 0 0 0-.245-1.96c-7.05-8.496-8.2-20.361-7.142-30.94a54.46 54.46 0 0 1 1.532-8.604 1.615 1.615 0 0 0-.151-1.237 1.63 1.63 0 0 0-2.99.364l.046.062Zm115.175-54.885a110.431 110.431 0 0 0-36.782-2.863 102.64 102.64 0 0 0-35.741 9.186 87.477 87.477 0 0 0-18.161 11.451 1.638 1.638 0 0 0 0 2.312 1.671 1.671 0 0 0 2.299 0 88.061 88.061 0 0 1 32.001-16.289 110.806 110.806 0 0 1 37.073-3.537 93.777 93.777 0 0 1 18.392 2.878 1.623 1.623 0 0 0 .873-3.062l.046-.076ZM272 265.692c-.966-7.655-1.533-15.218-3.939-22.551-1.977-6.124-4.598-11.788-9.196-16.335l.246 1.975a61.515 61.515 0 0 0 6.345-47.107 70.366 70.366 0 0 0-5.61-14.146c-.981-1.853-3.801-.215-2.82 1.638a62.603 62.603 0 0 1 6.836 20.759 59.553 59.553 0 0 1-2.177 25.016 54.835 54.835 0 0 1-5.379 12.247 1.663 1.663 0 0 0 .245 1.975c4.322 4.226 6.621 9.523 8.445 15.203 2.237 6.95 2.82 14.161 3.724 21.433a1.671 1.671 0 0 0 1.625 1.623 1.655 1.655 0 0 0 1.64-1.623l.015-.107Z" fill="#070707"/><path d="M219.707 141.502a100.446 100.446 0 0 1 16.17-7.41c5.164-1.669 11.341-2.802 16.628-.934 4.491 1.531 6.039 6.736 6.483 11.038a53.978 53.978 0 0 1-.95 16.534 57.414 57.414 0 0 1-6.989 17.882 1.638 1.638 0 0 0 2.82 1.638 59.85 59.85 0 0 0 8.445-35.38c-.429-5.052-1.87-10.564-6.33-13.564a16.56 16.56 0 0 0-8.69-2.297 34.039 34.039 0 0 0-9.302 1.072c-7.05 1.76-13.564 5.205-19.924 8.588-1.886 1.057-.246 3.812 1.639 2.833Z" fill="#070707"/><path d="M235.524 151.973a29.22 29.22 0 0 1 4.491-2.388c.444-.199 1.195-.49 1.778-.689l.843-.276.398-.122h.353l-.813-.215a.911.911 0 0 1-.368-.643v.934l-.122 1.531-.245 3.062-.491 6.124a1.639 1.639 0 0 0 1.625 1.638 1.655 1.655 0 0 0 1.624-1.638l.567-7.012.276-3.398a3.472 3.472 0 0 0-.674-3.062 2.976 2.976 0 0 0-3.065-.199c-.736.229-1.533.505-2.192.811a32.443 32.443 0 0 0-5.487 2.802 1.669 1.669 0 0 0-.582 2.235 1.658 1.658 0 0 0 2.222.582l-.138-.077Zm-100.11 2.603a64.12 64.12 0 0 0-17.518-1.408 55.693 55.693 0 0 0-16.904 3.398 12.067 12.067 0 0 0-5.594 3.828 8.995 8.995 0 0 0-.813 8.007 71.929 71.929 0 0 0 6.483 15.309 79.401 79.401 0 0 0 11.142 15.31c1.426 1.53 3.74-.766 2.299-2.297a75.094 75.094 0 0 1-15.877-26.378c-.736-2.128-2.008-4.93-1.15-7.211a6.945 6.945 0 0 1 4.092-3.444 41.755 41.755 0 0 1 6.973-2.021 59.027 59.027 0 0 1 8.062-1.103 61.125 61.125 0 0 1 17.901 1.21c2.038.444 2.912-2.695.858-3.138l.046-.062Z" fill="#070707"/><path d="M123.859 168.247a19.186 19.186 0 0 0-7.342-.551 5.72 5.72 0 0 0-3.632 1.194c-.996 1.102-.368 2.526.107 3.705a27.857 27.857 0 0 0 7.434 10.717 1.703 1.703 0 0 0 2.314 0 1.668 1.668 0 0 0 0-2.312 24.094 24.094 0 0 1-4.368-4.976 25.268 25.268 0 0 1-1.671-2.939 18.747 18.747 0 0 1-.567-1.286c-.168-.429-.23-.582-.337-.857a3.798 3.798 0 0 1-.122-.398.809.809 0 0 1 0-.184v.168l-.414.72s-.322.076-.138 0c.183-.019.363-.06.536-.123.368-.076.751-.153 1.134-.199a14.502 14.502 0 0 1 2.008-.122c1.44.001 2.873.197 4.261.582a1.627 1.627 0 0 0 1.856-2.371 1.632 1.632 0 0 0-.983-.768h-.076Zm-4.001 70.837a231.74 231.74 0 0 1 17.885-13.166 255.968 255.968 0 0 1 9.38-5.956 10.747 10.747 0 0 1 4.598-1.883 6.042 6.042 0 0 1 3.509.888 19.446 19.446 0 0 1 6.131 7.073l.582-2.22a5.228 5.228 0 0 1-3.601.995c-1.533-.168-2.713-.826-4.2 0-2.283 1.164-3.617 4.21-4.26 6.553-1.364 4.883-.522 10.41-2.851 15.034a18.914 18.914 0 0 1-6.253 6.766c-1.701 1.179-.077 3.996 1.655 2.802a24.788 24.788 0 0 0 6.131-5.848 17.565 17.565 0 0 0 2.957-7.41c.445-2.572.552-5.175.92-7.747a12.82 12.82 0 0 1 2.498-6.613c.583-.674.797-.735 1.625-.506a8.782 8.782 0 0 0 2.375.322 8.332 8.332 0 0 0 4.598-1.454 1.655 1.655 0 0 0 .583-2.236c-3.204-5.358-8.399-11.681-15.434-8.91a32.64 32.64 0 0 0-5.073 2.771 165.2 165.2 0 0 0-5.165 3.261 186.882 186.882 0 0 0-10.023 6.92 266.42 266.42 0 0 0-10.866 8.344 1.618 1.618 0 0 0 0 2.296 1.671 1.671 0 0 0 2.299 0v-.076Zm112.019 2.71-10.422-20.377a6.404 6.404 0 0 0-2.896-3.46 5.27 5.27 0 0 0-3.556 0c-.88.388-1.808.656-2.759.796v-.336a3.344 3.344 0 0 1 .659-1.7c1.778-2.602 5.303-2.832 8.154-2.572a57.31 57.31 0 0 1 8.352 1.531c4.713 1.063 9.184 3 13.181 5.711a32.146 32.146 0 0 1 10.299 12.921 1.627 1.627 0 0 0 1.628.795 1.614 1.614 0 0 0 1.079-.627 1.628 1.628 0 0 0 .113-1.806 35.316 35.316 0 0 0-10.008-12.998 39.773 39.773 0 0 0-14.406-6.874 72.058 72.058 0 0 0-8.798-1.715c-3.632-.49-7.509-.382-10.513 1.96-2.284 1.791-4.721 6.384-1.426 8.481a4.21 4.21 0 0 0 3.541.23 9.878 9.878 0 0 1 3.065-.888c.12.039.234.096.337.168.256.26.459.567.598.904.506.964.996 1.959 1.532 2.939l3.066 6.047 6.375 12.462c.95 1.868 3.77.23 2.805-1.638v.046Zm-52.017-60.733c-.154 0-4.736-.765-4.874-4.455-.138-3.689 3.647-3.843 6.391-4.44 2.743-.597 5.487.643 5.487 3.522 0 2.878-3.479 5.373-3.479 5.373l.153 2.832s7.663 1.363 10.054 0c2.391-1.362 6.13-3.505 6.713-2.296.582 1.209-6.253 12.646-16.323 12.339-10.069-.306-20.276-5.832-18.897-8.42 1.38-2.587 5.947 1.225 9.196.46a43.12 43.12 0 0 0 5.487-1.685l.092-3.23Z" fill="#070707"/><path d="M174.695 189.788s.368 11.865 7.954 11.421c7.587-.444 7.663-13.258 7.663-13.258" fill="#FF729E"/><path d="M182.22 202.847a7.225 7.225 0 0 1-5.011-1.883c-3.862-3.522-4.138-10.717-4.154-11.069a1.655 1.655 0 0 1 1.533-1.684 1.682 1.682 0 0 1 1.686 1.531c0 1.714.72 6.629 3.065 8.787a4.09 4.09 0 0 0 3.065 1.057c5.962-.352 6.131-11.513 6.131-11.62a1.625 1.625 0 0 1 1.624-1.623 1.638 1.638 0 0 1 1.64 1.623c0 .582-.107 14.329-9.196 14.881h-.383Z" fill="#9C1633"/><path d="M182.465 195.437a1.64 1.64 0 0 1-1.624-1.531l-.307-3.904a1.63 1.63 0 0 1 3.249-.26l.307 3.903a1.618 1.618 0 0 1-.393 1.2 1.62 1.62 0 0 1-1.14.546l-.092.046Z" fill="#9C1633"/><path d="M188.535 188.348s-2.177 1.531-7.97 1.7c-4.598.122-6.483-.674-6.621-1.531-.23-1.393 5.809-3.537 9.043-3.537 12.674-.03 5.548 3.368 5.548 3.368Z" fill="#070707"/><path d="M207.109 169.211c.415 0 .751-.287.751-.642 0-.355-.336-.643-.751-.643-.414 0-.751.288-.751.643 0 .355.337.642.751.642Z" fill="#fff"/><path d="M182.281 175.305c1.18-.169 1.533.352 1.533.704s-.613.368-1.073.658c-.46.291 0 1.057-1.027 1.057s-1.302-.077-1.364-.674c-.061-.597.874-.26 1.211-.536.337-.275-.169-1.087.72-1.209Z" fill="#383838"/><path d="M155.246 180.265a4.963 4.963 0 0 0 4.966-4.96 4.963 4.963 0 0 0-4.966-4.96 4.963 4.963 0 0 0-4.965 4.96 4.963 4.963 0 0 0 4.965 4.96Z" fill="#070707"/><path d="M156.993 175.136a1.071 1.071 0 1 0 0-2.143 1.072 1.072 0 1 0 0 2.143Z" fill="#fff"/><path d="M205.424 176.055a4.964 4.964 0 0 0 4.966-4.96c0-2.74-2.224-4.96-4.966-4.96a4.962 4.962 0 0 0-4.966 4.96 4.963 4.963 0 0 0 4.966 4.96Z" fill="#070707"/><path d="M207.171 170.942a1.073 1.073 0 1 0 0-2.146 1.073 1.073 0 0 0 0 2.146ZM35.066 59.16c-3.136 28.046 40.91 40.987 66.564 43.514 35.879 4.012 46.195 2.095 55.183 1.565l20.331 18.261v-22.127c12.294-2.719 66.168-6.672 64.995-38.27-1.275-34.321-75.499-41.188-101.424-42.04-25.926-.852-101.493 1.92-105.65 39.097Z" fill="#fff"/><path d="M59.04 52.064c-.154 0-.313-.104-.477-.312-.164-.198-.247-.447-.247-.75 0-.238.057-.473.17-.701a5.94 5.94 0 0 1 .616-1.062c.072-.104.123-.192.154-.265a.731.731 0 0 0 .077-.296c.144-.188.334-.526.57-1.015.4-.655.97-1.665 1.71-3.028.103-.187.303-.556.601-1.108.308-.551.514-.879.617-.983l.077-.11c-.031.053.02-.067.154-.358a6.51 6.51 0 0 1 .446-.78c.165-.24.308-.36.432-.36.133 0 .287.058.462.172.175.104.323.265.447.484.133.208.2.458.2.749a2.3 2.3 0 0 1-.015.297l-.154 1.06-.078.344c-.133.687-.333 1.628-.6 2.825-.236 1.061-.355 1.701-.355 1.92 0 .062.01.114.031.156.02.031.046.047.077.047.02 0 .072-.032.154-.094a.92.92 0 0 0 .216-.312l.2-.312.262-.39c.288-.406.642-.953 1.063-1.64.421-.696 1.104-1.888 2.05-3.573.194-.291.353-.546.477-.765.164-.27.323-.525.477-.765.154-.239.273-.39.355-.452a.592.592 0 0 1 .385-.125c.154.01.313.068.478.172.174.104.318.25.43.436.124.188.186.39.186.61 0 .249-.077.707-.231 1.373a22.113 22.113 0 0 1-.509 1.935c-.04.218-.17.733-.385 1.545a41.554 41.554 0 0 0-.37 1.436c-.072.353-.108.64-.108.858v.125c-.154.28-.23.843-.23 1.686-.042.343-.119.608-.232.795-.113.198-.205.297-.277.297l-.046-.015a.245.245 0 0 0-.154.062c-.041.052-.103.078-.185.078-.257 0-.426-.094-.509-.281-.072-.187-.107-.442-.107-.765 0-.187.005-.343.015-.468.03-.27.36-1.68.986-4.23.493-1.997.74-3.043.74-3.136l-.216.374c-.206.395-.462.858-.77 1.39l-1.079 2.044a4.67 4.67 0 0 0-.339.546c-.082.177-.128.28-.139.312-.123.25-.37.609-.74 1.077a2.581 2.581 0 0 0-.215.297c-.051.114-.215.317-.493.608-.277.281-.57.541-.878.78-.308.23-.565.344-.77.344-.278 0-.53-.135-.755-.406a1.528 1.528 0 0 1-.324-.983c0-.281.052-.75.154-1.405.165-.718.34-1.446.524-2.185a32.51 32.51 0 0 1 .385-1.451.996.996 0 0 0 .047-.312c0-.073-.01-.12-.031-.14-.01 0-.026.01-.046.03a25.4 25.4 0 0 0-.77 1.389 40.658 40.658 0 0 0-1.064 2.201c-1.468 2.736-2.31 4.23-2.526 4.48Zm13.766-.296a1.857 1.857 0 0 1-.74-.235 6.935 6.935 0 0 1-.677-.42 64.935 64.935 0 0 1-.416-.297 2.025 2.025 0 0 1-.4-.562 3.702 3.702 0 0 1-.232-.812 2.057 2.057 0 0 1-.03-.328c0-.312.05-.691.154-1.139.113-.458.225-.811.338-1.061.227-.552.725-1.436 1.495-2.653l.077-.078c.02-.021.026-.032.015-.032v-.015c0-.073.15-.396.447-.968.175-.187.262-.348.262-.484a.283.283 0 0 0-.046-.171c-.031-.042.01-.13.123-.266.113-.145.267-.301.462-.468.206-.177.421-.328.647-.452.278-.219.55-.328.817-.328.082 0 .149.015.2.047.062.02.098.057.108.109 0 .062.205.041.616-.063.185-.041.319-.067.4-.078.042-.052.145-.093.309-.124a7.82 7.82 0 0 1 .724-.125c.164.01.365.01.6 0 .247-.01.407-.021.478-.032.072-.02.175.027.309.141.143.114.256.26.339.437.02.062.03.11.03.14 0 .157-.097.292-.292.406-.195.104-.478.177-.848.219-.38.052-.713.104-1.001.156-.288.052-.647.125-1.078.218l-.324.063c-.319.052-.555.12-.709.203-.154.083-.318.265-.493.546-.072.052-.164.187-.277.406a18.78 18.78 0 0 0-.339.655l-.308.422c-.236.322-.385.535-.447.64-.051.093-.062.16-.03.202a5.297 5.297 0 0 0 .492.094 1.1 1.1 0 0 1 .385-.11c.165-.02.283-.04.355-.062l.339-.093a112.29 112.29 0 0 1 1.402-.36c.297-.072.518-.119.662-.14a.284.284 0 0 1 .185-.062c.113 0 .22.057.324.171a.917.917 0 0 1 .246.375c.041.146.062.24.062.28 0 .178-.103.313-.308.407-.206.083-.617.197-1.233.343-.894.219-1.453.359-1.68.421-.667.198-1.16.297-1.478.297-.267 0-.396-.089-.385-.265-.093-.052-.2.041-.324.28a4.374 4.374 0 0 0-.447 1.811c0 .135.016.25.047.343.092.25.23.463.416.64.184.167.441.297.77.39a4.244 4.244 0 0 0 .647.047c.205 0 .41-.041.616-.125.801-.135 1.366-.322 1.695-.561a.341.341 0 0 0 .139-.11c.05-.052.097-.078.138-.078l-.015.031c0 .01.03-.01.092-.062.062-.062.129-.125.2-.187.288-.25.606-.375.956-.375.123 0 .226.021.308.063.092.03.144.062.154.093.061.104.03.27-.093.5a2.907 2.907 0 0 1-.585.718 4.48 4.48 0 0 1-.863.655 6.058 6.058 0 0 1-1.694.593 9.099 9.099 0 0 1-1.788.219Zm7.775.827a4.304 4.304 0 0 0-.231-.047.885.885 0 0 0-.277-.016 1.049 1.049 0 0 1-.509-.265c-.154-.146-.215-.297-.185-.453.031-.03.057-.114.077-.25a2.18 2.18 0 0 0 .031-.343c.041-.114.088-.28.139-.499.061-.468.22-1.243.477-2.325.268-1.093.437-1.676.509-1.748l-.016-.172a1.23 1.23 0 0 1 .154-.5c.042-.124.072-.244.093-.358.03-.125.046-.219.046-.281a6.25 6.25 0 0 0 .216-.562l.154-.437c.061-.198.144-.432.246-.703.103-.27.17-.447.2-.53v-.078c.042-.052.155-.328.34-.827.092-.209.18-.422.261-.64.093-.23.185-.453.278-.671.03-.063.077-.151.138-.266.062-.114.093-.192.093-.234.041-.083.144-.125.308-.125a.94.94 0 0 1 .4.094.554.554 0 0 1 .278.25l.354.25-.523 1.139c-.134.27-.257.535-.37.796-.103.25-.154.395-.154.437-.02.072-.067.223-.139.452-.072.23-.149.49-.231.78a20.18 20.18 0 0 1-.308.921 1.956 1.956 0 0 0-.108.297c0-.042.555-.083 1.664-.125.185-.01.524-.026 1.017-.047.503-.031.816-.062.94-.093l.785-.11.37-1.389c.123-.51.323-1.227.6-2.153.134-.448.294-.791.478-1.03.185-.25.344-.375.478-.375.257 0 .467.187.632.562a.461.461 0 0 1 .184.359c0 .135-.077.338-.23.608-.134.25-.293.666-.478 1.249a3.65 3.65 0 0 1-.154.484v.062c0 .198-.047.344-.139.437-.03.031-.097.177-.2.437-.093.26-.139.411-.139.453a.73.73 0 0 1-.03.28.532.532 0 0 1-.108.22l-.293 1.248c-.185.79-.37 1.425-.555 1.904.01.052-.01.145-.062.28a1.171 1.171 0 0 0-.061.282c-.154.5-.226.78-.216.843-.051.239-.149.67-.293 1.295-.092.416-.138.63-.138.64-.01.02-.057.03-.139.03-.164 0-.339-.035-.524-.108a.984.984 0 0 1-.37-.344.802.802 0 0 1-.062-.796c.042-.072.12-.385.232-.936l.154-.671a7.55 7.55 0 0 0 .17-.734 75.1 75.1 0 0 1 .154-.702c.092-.541.154-.827.184-.858v-.156c-.03-.032-.215-.047-.554-.047-.35 0-.76.02-1.233.062-.472.031-.893.078-1.263.14l-.431.016c-.216 0-.355.005-.416.016-.103 0-.19.005-.262.015h-.139c-.04.094-.16.541-.354 1.343-.195.8-.308 1.316-.34 1.545-.092.478-.2.988-.323 1.53-.113.55-.205.967-.277 1.248Zm12.353-.655c-.482 0-.878-.032-1.186-.094a1.757 1.757 0 0 1-.801-.36c-.493-.374-.74-.93-.74-1.67 0-.311.057-.696.17-1.154.051-.27.108-.5.17-.687.071-.197.133-.296.184-.296l.108-.578c.01-.062.03-.145.062-.25.03-.114.056-.197.077-.25a.415.415 0 0 1 .092-.14c.041-.03.103-.171.185-.421 0-.02.005-.068.016-.14a.972.972 0 0 1 .076-.25c.155-.26.232-.432.232-.515a.903.903 0 0 1 .123-.188c.072-.093.128-.203.17-.327l.2-.36c.308-.55.528-.951.662-1.201.134-.26.216-.473.247-.64.03-.073.072-.203.123-.39.061-.187.128-.317.2-.39-.03-.063.072-.14.308-.234.247-.094.545-.183.894-.266.36-.083.678-.135.955-.156.062-.041.2-.073.416-.093a7.52 7.52 0 0 1 .724-.032c.185 0 .442.01.77.032.165 0 .303.02.416.062.124.031.231.073.324.125.092.041.16.073.2.093l.2.203c.124.105.185.214.185.328 0 .104-.066.193-.2.266-.03.03-.2.057-.508.078-.298.02-.622.03-.971.03a5.9 5.9 0 0 0-1.217.141 1.932 1.932 0 0 1-.354.047 1.78 1.78 0 0 1-.463.078 8.4 8.4 0 0 1-.339.016c-.04 0-.184.197-.43.593-.237.395-.36.63-.37.702a.586.586 0 0 1-.093.297c-.062.104-.17.265-.324.483-.133.188-.2.364-.2.531 0 .104.03.166.093.187.328-.052.724-.099 1.186-.14.472-.052.816-.078 1.032-.078a1.09 1.09 0 0 1 .277-.047c.144 0 .278.036.4.11.165.03.247.14.247.327a.47.47 0 0 1-.061.234c-.031.073-.072.12-.123.14-.093.094-.411.214-.956.36a31.66 31.66 0 0 1-1.679.405c-.585.115-.914.162-.986.14-.03-.072-.062-.108-.092-.108-.103 0-.231.343-.386 1.03a9.378 9.378 0 0 0-.338.827c-.042.125-.103.421-.185.89a2.173 2.173 0 0 0-.062.39c0 .405.236.717.709.936.174.031.354.047.539.047.339 0 .75-.063 1.232-.188.041-.02.355-.197.94-.53.031 0 .108-.021.231-.063a1.29 1.29 0 0 1 .231-.078c.083-.114.185-.171.308-.171.031 0 .098.052.2.156.104.104.196.229.278.374a.8.8 0 0 1 .123.422c0 .104-.154.234-.462.39-.298.146-.745.338-1.34.577a9.634 9.634 0 0 1-.91.36c-.174.051-.42.077-.739.077Zm13.399.53a.683.683 0 0 1-.231.062.456.456 0 0 1-.246-.078c-.298 0-.509-.02-.632-.062l.092.062c-.534-.104-1.052-.4-1.556-.89-.493-.488-.811-1.003-.955-1.544a4.836 4.836 0 0 1-.061-.297.853.853 0 0 1-.016-.265.815.815 0 0 1 .355-.546c.195-.146.41-.219.647-.219.092 0 .184.016.277.047a.861.861 0 0 1 .108.359c0 .062-.016.15-.046.265.154.53.441.947.862 1.249.421.301.904.452 1.448.452.452 0 .868-.114 1.248-.343.391-.24.678-.567.863-.983a1.4 1.4 0 0 0 .093-.328c.03-.135.061-.25.092-.343a.335.335 0 0 1 .062-.11c.01-.062.015-.16.015-.296 0-.354-.072-.692-.216-1.015-.133-.322-.328-.535-.585-.64a4.286 4.286 0 0 1-.416-.078 2.135 2.135 0 0 0-.524-.093.906.906 0 0 0-.2.015l-.247-.093a4.23 4.23 0 0 1-.431-.53 1.082 1.082 0 0 1-.139-.532c0-.145.031-.301.093-.468.072 0 .164-.015.277-.047.123-.03.216-.046.277-.046.514 0 .966-.13 1.356-.39.39-.26.688-.604.894-1.03.215-.427.323-.89.323-1.39 0-.083-.01-.218-.031-.405-.215-.188-.493-.281-.831-.281-.381 0-.786.099-1.218.296-.421.188-.739.411-.955.671a1.2 1.2 0 0 1-.585-.203 1.59 1.59 0 0 1-.447-.499.942.942 0 0 1-.108-.593 2.74 2.74 0 0 1 1.14-.858 3.813 3.813 0 0 1 1.525-.313c.524 0 1.012.1 1.464.297.462.198.832.489 1.109.874.288.385.432.848.432 1.389 0 .208-.021.411-.062.609-.092.468-.303.936-.632 1.404a4.487 4.487 0 0 1-1.109 1.108c.483.27.853.661 1.109 1.17a3.5 3.5 0 0 1 .386 1.624c0 .458-.134.973-.401 1.545-.257.572-.555 1.015-.894 1.327a.973.973 0 0 1-.215.156 3.36 3.36 0 0 0-.231.14l-.201.14a7.724 7.724 0 0 1-1.093.422 3.166 3.166 0 0 1-1.033.125Zm7.281-.187a2.074 2.074 0 0 1-.601-.531c-.133-.177-.2-.349-.2-.515 0-.218.108-.395.324-.53a.376.376 0 0 1 .169-.032.93.93 0 0 1 .324.063.585.585 0 0 1 .277.14c.267.25.585.375.955.375.164 0 .401-.037.709-.11.4-.124.714-.28.939-.468.237-.187.514-.478.832-.874.196-.26.339-.52.432-.78.103-.27.154-.515.154-.734 0-.239-.057-.426-.17-.562a2.05 2.05 0 0 0-.693-.624 1.693 1.693 0 0 0-.878-.218 3.14 3.14 0 0 0-.878.124l-.894.188a1.72 1.72 0 0 1-.169.031c-.062 0-.154.15-.278.453-.123.301-.333.874-.631 1.716-.216.614-.396 1.056-.539 1.327-.144.26-.273.39-.386.39-.123 0-.256-.114-.4-.343a11.802 11.802 0 0 0-.2-.312.883.883 0 0 1-.139-.453.63.63 0 0 1 .077-.265c.051-.094.092-.188.123-.281.041-.094.082-.224.123-.39.134-.406.519-1.415 1.156-3.028.647-1.613 1.15-2.83 1.51-3.652.256-.593.334-.905.231-.937a.376.376 0 0 0-.046-.14c-.031-.062-.041-.11-.031-.14 0-.063.18-.157.539-.281.37-.125.621-.177.755-.157h.092c.134 0 .201-.025.201-.077.02 0 .113-.01.277-.032.175-.02.359-.02.555 0 .729.063 1.304.276 1.725.64.421.354.627.88.616 1.576-.02.271-.169.64-.446 1.109a5.077 5.077 0 0 1-.909 1.154 11.607 11.607 0 0 1-.971.765l.385.14c.483.188.858.417 1.125.687.267.27.457.64.57 1.108.02.105.031.198.031.281 0 .23-.041.49-.124.78a5.075 5.075 0 0 1-.246.766.941.941 0 0 0-.154.202l-.077.14c-.01.042-.103.204-.278.485-.174.27-.328.489-.462.655-.678.583-1.237.957-1.679 1.124-.431.198-.945.296-1.541.296-.534 0-.929-.083-1.186-.25Zm1.109-6.477.617-.125c.308-.073.529-.135.662-.187l.185-.094c.113-.062.226-.15.339-.265.647-.614 1.099-1.166 1.356-1.655.256-.426.385-.728.385-.905 0-.125-.057-.244-.17-.359-.195-.229-.518-.343-.97-.343-.195 0-.36.02-.493.062a.86.86 0 0 0-.324.156c-.061.052-.092.136-.092.25a.651.651 0 0 1-.077.281 1.06 1.06 0 0 1-.17.234.4.4 0 0 1-.092.187.874.874 0 0 1-.093.125c0 .021-.072.162-.215.422-.134.26-.262.551-.385.874-.309.738-.463 1.186-.463 1.342Zm11.186-5.463c.349 0 .672.094.97.281.308.177.55.432.724.765.185.323.278.692.278 1.108 0 .583-.036 1.347-.108 2.294a47.525 47.525 0 0 1-.278 2.67 48.137 48.137 0 0 0-.323 3.37 27.668 27.668 0 0 1-.154 1.498c-.031.281-.093.443-.185.484l.015.031c0 .042-.036.078-.107.11a.66.66 0 0 1-.262.047c-.185 0-.37-.037-.555-.11-.185-.072-.277-.229-.277-.468 0-.135.025-.463.077-.983.113-.978.179-1.78.2-2.404l.092-.686h-.385c-.174.052-.426.078-.755.078l-.97-.016c-.278 0-.468.01-.57.031a.29.29 0 0 0-.216.125c-.051.063-.113.193-.185.39a6.287 6.287 0 0 1-.323.765c-.36.885-.678 1.514-.956 1.889-.277.374-.549.561-.816.561-.072 0-.19-.03-.354-.093-.155-.063-.232-.146-.232-.25 0-.146.108-.447.324-.905.226-.458.395-.765.508-.921.011 0 .011-.005 0-.016a.225.225 0 0 1-.015-.093c0-.23.134-.609.401-1.14.041-.124.082-.244.123-.358a.951.951 0 0 0 .077-.235l.293-.577c0-.063.036-.193.107-.39.083-.208.18-.432.293-.671 0-.156.031-.307.093-.453.061-.156.143-.322.246-.5.113-.207.17-.343.17-.405 0-.02.01-.068.03-.14.031-.073.088-.193.17-.36-.021 0-.031-.005-.031-.015a.99.99 0 0 1 .123-.172.6.6 0 0 1 .108-.312c.082-.125.216-.468.401-1.03l.308-.671c.082-.135.19-.39.323-.765l.124-.328.123-.343a2.19 2.19 0 0 0 .138-.234.708.708 0 0 1 .293-.281c.134-.073.313-.114.539-.125.124-.031.252-.047.386-.047Zm.323 5.962c0-.114.036-.536.108-1.264.144-1.498.221-2.419.231-2.762 0-.157-.005-.245-.015-.266 0-.093-.083-.182-.247-.265-.164-.083-.282-.125-.354-.125-.093 0-.17.052-.231.156a2.663 2.663 0 0 0-.185.39 4.19 4.19 0 0 0-.123.313l-.139.358c-.175.438-.38.973-.616 1.608-.237.624-.37.999-.401 1.124-.062.062-.169.26-.323.593-.144.322-.216.525-.216.608 0 .26.128.39.385.39.041 0 .123-.005.247-.015.133-.02.277-.057.431-.11H125c.164 0 .328-.025.493-.077.267-.042.441-.073.523-.094.093-.02.149-.068.17-.14.031-.073.046-.214.046-.422Zm6.227 5.51c-.041.041-.082.062-.123.062-.051 0-.139-.031-.262-.094a.95.95 0 0 1-.462-.265.604.604 0 0 1-.185-.437c0-.042.021-.125.062-.25.092-.177.328-1.046.708-2.606l.262-1.03c0-.01.021-.172.062-.484.031-.156.077-.442.139-.858.123-.24.205-.5.246-.78.051-.292.082-.459.093-.5.071-.291.123-.474.154-.546l.138-.547.093-.359c.072-.26.108-.426.108-.499v-.25h-.571l-.246.016a3.65 3.65 0 0 1-.385-.016l-.539-.015c-.483-.021-.807-.068-.971-.14-.164-.084-.252-.24-.262-.469-.041-.208.062-.37.308-.484.247-.125.75-.177 1.51-.156a8.9 8.9 0 0 1 .585-.015c.247 0 .447.005.601.015a8.1 8.1 0 0 0 .262.016.355.355 0 0 0 .077-.125c.021-.052.036-.094.046-.125 0-.177.057-.286.17-.328.062-.135.19-.203.385-.203.113 0 .226.026.339.078a.61.61 0 0 1 .262.219c.02.052.031.145.031.28 0 .136.031.235.092.297.041-.041.175-.067.401-.078.226-.01.385-.02.477-.03.196 0 .396-.006.601-.017.206-.02.344-.03.416-.03.093-.053.236-.079.432-.079.092 0 .22.01.385.032.205 0 .354.046.446.14.093.083.175.182.247.296 0 .115.026.198.077.25.041.031.062.063.062.094 0 .02-.021.067-.062.14-.072.094-.257.14-.555.14l-.323.016c-.226.021-.39.032-.493.032a9.54 9.54 0 0 1-1.572.171c-.421 0-.631.042-.631.125-.062 0-.18.338-.355 1.015a7.62 7.62 0 0 1-.2.686 2.344 2.344 0 0 1-.154.406.229.229 0 0 1 .046.14c0 .053-.031.167-.092.344a4.53 4.53 0 0 1-.108.343.731.731 0 0 0-.062.25c-.01.041-.041.146-.092.312a5.39 5.39 0 0 0-.108.53c-.051.5-.118.791-.2.875a1.47 1.47 0 0 1-.077.124.45.45 0 0 0-.046.203c0 .146-.036.406-.108.78-.072.365-.129.563-.17.594.031 0 .046.031.046.093 0 .073-.03.183-.092.328 0 .083-.015.182-.046.297a1.094 1.094 0 0 0-.046.234c-.103.291-.247.66-.432 1.108-.185.447-.298.692-.339.733Zm14.521-11.394a.619.619 0 0 1 .555.219.825.825 0 0 1 .184.843c-.133.27-.431 1.004-.893 2.2a454.018 454.018 0 0 0-1.34 3.48l-1.11 3.247c-.051.146-.159.416-.323.811a2.53 2.53 0 0 0-.278.812 1.005 1.005 0 0 1-.246.437c-.113.125-.231.187-.354.187a.246.246 0 0 1-.154-.047c-.473-.176-.709-.457-.709-.842 0-.032.01-.1.031-.203-.021.135.123-.182.431-.952.318-.78.575-1.436.77-1.967.76-1.925 1.14-2.924 1.14-2.996.124-.323.206-.552.247-.687a5.86 5.86 0 0 1 .37-.968l.262-.702-5.439 6.368c-.072.062-.272.244-.601.546a6.294 6.294 0 0 1-.647.593c-.072.052-.195.146-.369.28a4.43 4.43 0 0 1-.447.329c-.134.093-.242.14-.324.14-.585-.104-.878-.343-.878-.718 0-.166.041-.354.123-.562.082-.218.134-.359.154-.421a5.77 5.77 0 0 0 .231-.952c.113-.468.273-1.03.478-1.686.021-.083.072-.275.154-.577.093-.312.149-.598.17-.858.143-.281.339-.74.585-1.374l.216-.562c.041-.083.133-.338.277-.764.092-.323.19-.594.293-.812l.154-.296c.195-.386.344-.698.447-.937.113-.25.174-.458.184-.624 0-.136.047-.234.139-.297a.533.533 0 0 1 .339-.109c.175 0 .334.052.478.156a.63.63 0 0 1 .277.375c.041.114.062.244.062.39a1.1 1.1 0 0 1-.062.374l-1.279 3.293-1.402 3.746-.369.936 3.112-3.152c.349-.364.677-.754.986-1.17.267-.354.523-.666.77-.937.246-.27.549-.588.909-.952l.354-.375 1.957-2.106a.633.633 0 0 1 .385-.157Zm6.209 11.347a1.299 1.299 0 0 1-.323.062.538.538 0 0 1-.447-.218c-.113-.146-.17-.365-.17-.656 0-.416.124-.957.37-1.623l.17-.515c.513-1.52.847-2.393 1.001-2.622.051-.125.077-.255.077-.39a.61.61 0 0 1 .077-.234l.123-.25c.124-.229.185-.4.185-.515 0-.042.062-.25.185-.624.123-.385.247-.677.37-.874a3.57 3.57 0 0 1 .215-.453c.083-.156.124-.255.124-.297 0-.02-.113-.03-.339-.03-.319 0-.714.015-1.187.046-.462.031-.77.068-.924.11-.216.051-.344.072-.385.062-.051-.021-.128-.12-.231-.297-.103-.187-.154-.354-.154-.5 0-.124.041-.207.123-.249.164-.104.329-.172.493-.203.175-.03.416-.057.724-.078.319-.02.539-.041.663-.062.215 0 .416-.01.6-.031a4.11 4.11 0 0 1 .339-.047c.083 0 .185-.016.309-.047.287-.052.482-.078.585-.078.144 0 .288-.016.431-.047.165-.02.273-.031.324-.031h.955c.134 0 .318-.02.555-.063.236-.041.446-.083.631-.124.278-.063.529-.094.755-.094.267 0 .488.052.663.156a.609.609 0 0 1 .323.421c.093.52-.683.828-2.326.921-.093.01-.272.026-.539.047-.257.02-.427.047-.509.078-.072.031-.108.078-.108.14 0 .063-.03.125-.092.188a.976.976 0 0 0-.108.125c-.082.03-.221.291-.416.78-.195.479-.293.775-.293.89l-.061.124a.358.358 0 0 0-.046.14 6.975 6.975 0 0 1-.339.719 66.01 66.01 0 0 1-.586 1.53l-.169.42c-.226.76-.391 1.275-.493 1.546a.535.535 0 0 1-.123.14.23.23 0 0 0-.062.172c0 .052-.149.468-.447 1.248-.298.78-.462 1.176-.493 1.187Zm9.136.172a6.16 6.16 0 0 1-1.186-.094 1.755 1.755 0 0 1-.801-.36c-.493-.374-.74-.93-.74-1.67 0-.311.057-.696.17-1.154a5.6 5.6 0 0 1 .169-.687c.072-.197.134-.296.185-.296l.108-.578c.01-.062.031-.145.062-.25.031-.114.056-.197.077-.25a.408.408 0 0 1 .092-.14c.041-.03.103-.171.185-.421 0-.02.005-.068.016-.14a.93.93 0 0 1 .077-.25c.154-.26.231-.432.231-.515a.877.877 0 0 1 .123-.188 1.09 1.09 0 0 0 .169-.327l.201-.36c.308-.55.529-.951.662-1.201.134-.26.216-.473.247-.64.03-.073.072-.203.123-.39.061-.187.128-.317.2-.39-.031-.063.072-.14.308-.234.247-.094.545-.183.894-.266.359-.083.678-.135.955-.156.062-.041.2-.073.416-.093a7.52 7.52 0 0 1 .724-.032c.185 0 .442.01.77.032.165 0 .303.02.416.062.124.031.231.073.324.125.092.041.159.073.2.093l.2.203c.124.105.185.214.185.328 0 .104-.066.193-.2.266-.031.03-.2.057-.508.078-.298.02-.622.03-.971.03-.37 0-.775.047-1.217.141a1.932 1.932 0 0 1-.354.047 1.79 1.79 0 0 1-.463.078 8.4 8.4 0 0 1-.339.016c-.041 0-.184.197-.431.593-.236.395-.359.63-.37.702a.58.58 0 0 1-.092.297c-.062.104-.17.265-.324.483-.133.188-.2.364-.2.531 0 .104.031.166.093.187.328-.052.724-.099 1.186-.14.472-.052.816-.078 1.032-.078.113-.031.205-.047.277-.047.144 0 .278.036.401.11.164.03.246.14.246.327a.47.47 0 0 1-.061.234c-.031.073-.072.12-.123.14-.093.094-.411.214-.956.36-.534.145-1.093.28-1.679.405-.585.115-.914.162-.986.14-.031-.072-.062-.108-.092-.108-.103 0-.231.343-.386 1.03a9.499 9.499 0 0 0-.338.827c-.042.125-.103.421-.185.89a2.195 2.195 0 0 0-.062.39c0 .405.236.717.709.936.174.031.354.047.539.047.339 0 .75-.063 1.232-.188.042-.02.355-.197.94-.53.031 0 .108-.021.231-.063a1.32 1.32 0 0 1 .231-.078c.083-.114.185-.171.309-.171.03 0 .097.052.2.156.103.104.195.229.277.374a.802.802 0 0 1 .123.422c0 .104-.154.234-.462.39-.298.146-.744.338-1.34.577a9.557 9.557 0 0 1-.909.36c-.175.051-.421.077-.74.077Zm15.384-10.02c.01.041.015.114.015.218 0 .416-.221 1.436-.662 3.06l-.17.67-.2.843a7.167 7.167 0 0 1-.262 1.186c-.133.437-.308.962-.524 1.576-.195.552-.339.994-.431 1.327a2.461 2.461 0 0 0-.139.328.881.881 0 0 1-.215.359c-.196.177-.38.265-.555.265a.62.62 0 0 1-.216-.047 1.083 1.083 0 0 1-.4-.265.526.526 0 0 1-.124-.36.76.76 0 0 1 .016-.17c.041-.074.174-.412.4-1.015a38.21 38.21 0 0 0 .493-1.374c.062-.353.139-.697.232-1.03.092-.333.179-.572.261-.718l.139-.718.154-.795c.082-.375.159-.666.231-.874l.539-2.482c-.975.042-1.479.078-1.509.11-.011.114-.134.452-.37 1.014a19.64 19.64 0 0 1-.524 1.217c-.123.24-.226.453-.308.64-.082.177-.149.323-.2.437l-.185.437c-.093.291-.329.806-.709 1.545-.38.739-.714 1.337-1.001 1.795a29.97 29.97 0 0 1-1.31 1.748 4.753 4.753 0 0 1-.631.67c-.237.23-.427.375-.571.438a.646.646 0 0 1-.292.078c-.226 0-.432-.094-.617-.281a.973.973 0 0 1-.277-.671.664.664 0 0 1 .231-.312.612.612 0 0 1 .37-.125c.01 0 .144-.13.401-.39.256-.27.421-.448.493-.53a19.92 19.92 0 0 0 1.078-1.39c.236-.343.575-.869 1.017-1.576l.277-.39.709-1.967.893-1.998c-.113.042-.277.12-.493.235-.667.322-1.14.483-1.417.483-.175 0-.303-.057-.385-.171a.883.883 0 0 1-.17-.53c0-.178.047-.34.139-.485a.687.687 0 0 1 .354-.312l1.757-.64a14.913 14.913 0 0 0 1.386-.452c.175-.01.427-.037.755-.078.329-.052.539-.094.632-.125.996-.032 1.628.5 1.895 1.592Zm3.87 9.895a6.408 6.408 0 0 1-1.217-.453c-.462-.208-.709-.38-.74-.515a.149.149 0 0 0-.061-.125.191.191 0 0 0-.139-.063v-.234c0-.072-.02-.12-.062-.14-.051-.104-.077-.255-.077-.453 0-.322.052-.728.154-1.217.113-.489.237-.926.37-1.311 0-.073.016-.166.046-.28a.887.887 0 0 0 .062-.22c.082-.239.247-.619.493-1.139.247-.52.452-.884.616-1.092 0-.031.036-.099.108-.203.082-.114.139-.229.17-.343.164-.167.385-.49.662-.968.36-.302.509-.572.447-.812.01-.218.097-.374.262-.468.174-.104.483-.208.924-.312.319-.125.647-.208.986-.25.339-.052.786-.088 1.341-.109a3.001 3.001 0 0 1 .523-.078c.031-.031.185-.016.463.047.287.052.544.14.77.265.236.115.349.245.339.39-.01.084-.242.193-.693.328a7.666 7.666 0 0 1-1.218.25l-.385.047c-.595.062-1.027.13-1.294.203a1.679 1.679 0 0 0-.709.374c-.215.187-.462.5-.739.937-.37.582-.555.978-.555 1.186 0 .135.072.203.216.203.092 0 .231-.01.416-.032.195-.03.334-.047.416-.047.051-.02.169-.062.354-.124a3.73 3.73 0 0 1 .647-.14l.678-.141c.206-.052.36-.078.462-.078.36 0 .54.124.54.374 0 .136-.067.281-.201.437a1.17 1.17 0 0 1-.493.36 8.884 8.884 0 0 1-.631.218c-.237.072-.385.109-.447.109a.627.627 0 0 1-.154.031 2 2 0 0 1-.277.016l-.694.093-.508.063c-.082.02-.277.073-.586.156-.308.083-.508.177-.6.28-.093.094-.18.25-.262.469a5.412 5.412 0 0 0-.324 1.108 6.048 6.048 0 0 0-.123 1.124c0 .322.046.53.139.624.225.26.58.39 1.063.39.256 0 .518-.036.785-.109.278-.083.519-.192.724-.328.196-.156.411-.275.647-.359a.449.449 0 0 1 .232-.093.31.31 0 0 1 .169.062.92.92 0 0 1 .169.11c.062.041.113.077.155.109a.608.608 0 0 1 .123.359c0 .343-.432.697-1.294 1.06-.483.167-.868.287-1.156.36a3.22 3.22 0 0 1-.786.11l-.246-.017Zm14.081.109c-.041.041-.149.062-.324.062a1.23 1.23 0 0 1-.631-.171c-.185-.105-.278-.287-.278-.547a1.3 1.3 0 0 1 .108-.484c.35-.915.832-2.31 1.449-4.182.082-.281.215-.692.4-1.233 0 .02.113-.338.339-1.077.164-.49.288-.895.37-1.217.092-.333.164-.677.215-1.03a2.089 2.089 0 0 0-.446-.047h-.278c-.184 0-.323-.01-.416-.031a2.995 2.995 0 0 0-.523-.032 9.947 9.947 0 0 0-1.279.078 4.05 4.05 0 0 1-.37.016l-.123.062-.231.562c-.052.125-.118.281-.201.468-.082.188-.169.406-.261.656a6.082 6.082 0 0 1-.185.421l-.139.312-.2.406-.231.593-.247.593c-.113.27-.246.578-.4.921a50.38 50.38 0 0 0-.54 1.311c-.38.999-.657 1.79-.832 2.372-.02.073-.051.203-.092.39a1.622 1.622 0 0 1-.139.422.546.546 0 0 1-.246.28.67.67 0 0 1-.355.094.951.951 0 0 1-.462-.109 1.206 1.206 0 0 1-.339-.25.46.46 0 0 1-.107-.312c0-.104.02-.218.061-.343.483-1.613 1.032-3.054 1.649-4.323a9.2 9.2 0 0 0 .262-.593c.092-.23.159-.4.2-.515.195-.541.349-.916.462-1.124a14.02 14.02 0 0 0 .863-2.044c-.052.041-.139.062-.262.062-.093 0-.216-.01-.37-.031a1.709 1.709 0 0 0-.339-.047 1.18 1.18 0 0 1-.293-.39 1.379 1.379 0 0 1-.107-.515c0-.146.03-.27.092-.375a.49.49 0 0 1 .154-.187.405.405 0 0 1 .231-.063h1.186c.093 0 .19-.041.293-.124a.986.986 0 0 1 .108-.078.436.436 0 0 1 .247-.063c.041 0 .113.01.215.031.154.052.329.078.524.078.164 0 .385-.026.663-.078a2.92 2.92 0 0 1 .677-.062l.586.016c.113.01.262.015.447.015.072 0 .159.01.262.031.112.021.205.037.277.047.082.01.226.016.431.016.349.01.647.036.894.078.246.031.436.099.57.203.092.073.18.171.262.296a.553.553 0 0 1 .123.312c0 .084-.164.703-.493 1.858-.318 1.144-.514 1.79-.585 1.935-.196.51-.483 1.379-.863 2.606l-.493 1.53a10.55 10.55 0 0 0-.17.53 28.18 28.18 0 0 1-.416 1.202c-.143.416-.262.687-.354.812Zm5.055-.156a1.858 1.858 0 0 1-.74-.235 6.932 6.932 0 0 1-.677-.42 38.402 38.402 0 0 1-.416-.297 2.008 2.008 0 0 1-.401-.562 3.741 3.741 0 0 1-.231-.812 2.003 2.003 0 0 1-.031-.328c0-.312.051-.691.154-1.139.113-.458.226-.811.339-1.061.226-.552.724-1.436 1.495-2.653l.077-.078c.02-.021.025-.032.015-.032v-.015c0-.073.149-.396.447-.968.174-.187.262-.348.262-.484a.282.282 0 0 0-.047-.171c-.03-.042.011-.13.124-.266.113-.145.267-.301.462-.468.205-.177.421-.328.647-.452.277-.219.549-.328.816-.328.083 0 .149.015.201.047.061.02.097.057.108.109 0 .062.205.041.616-.063a4.88 4.88 0 0 1 .4-.078c.042-.052.144-.093.309-.124.174-.042.416-.084.724-.125.164.01.364.01.601 0 .246-.01.405-.021.477-.032.072-.02.175.027.308.141.144.114.257.26.339.437a.49.49 0 0 1 .031.14c0 .157-.098.292-.293.406-.195.104-.477.177-.847.219-.38.052-.714.104-1.002.156-.287.052-.647.125-1.078.218l-.323.063c-.319.052-.555.12-.709.203-.154.083-.319.265-.493.546-.072.052-.164.187-.277.406a18.78 18.78 0 0 0-.339.655l-.309.422a9.658 9.658 0 0 0-.446.64c-.052.093-.062.16-.031.202a5.243 5.243 0 0 0 .493.094 1.07 1.07 0 0 1 .385-.11c.164-.02.282-.04.354-.062l.339-.093a117.11 117.11 0 0 1 1.402-.36c.298-.072.519-.119.663-.14a.284.284 0 0 1 .185-.062c.113 0 .22.057.323.171a.923.923 0 0 1 .247.375c.041.146.061.24.061.28 0 .178-.102.313-.308.407-.205.083-.616.197-1.232.343-.894.219-1.454.359-1.68.421-.667.198-1.16.297-1.479.297-.267 0-.395-.089-.385-.265-.092-.052-.2.041-.323.28a4.361 4.361 0 0 0-.447 1.811c0 .135.015.25.046.343.093.25.231.463.416.64.185.167.442.297.77.39a4.252 4.252 0 0 0 .647.047c.206 0 .411-.041.617-.125.801-.135 1.366-.322 1.694-.561a.338.338 0 0 0 .139-.11c.051-.052.098-.078.139-.078l-.016.031c0 .01.031-.01.093-.062a3.36 3.36 0 0 1 .2-.187c.288-.25.606-.375.955-.375.123 0 .226.021.308.063.093.03.144.062.154.093.062.104.031.27-.092.5-.123.229-.318.468-.585.718a4.51 4.51 0 0 1-.863.655 6.051 6.051 0 0 1-1.695.593 9.096 9.096 0 0 1-1.787.219Zm14.615-8.943c-.021.54-.082.936-.185 1.186-.103.25-.246.38-.431.39a22.07 22.07 0 0 0-.339-.062 1.677 1.677 0 0 1-.509-.219.484.484 0 0 1-.231-.421c0-.073.036-.245.108-.515.113-.458.17-.739.17-.843 0-.322-.139-.53-.416-.624-.319 0-.724.25-1.217.749-.493.5-.981 1.118-1.464 1.857a13.053 13.053 0 0 0-1.14 2.107c-.503 1.467-.786 2.456-.847 2.965.02.084.03.203.03.36 0 .072-.015.109-.046.109.031.229.123.457.277.686.165.219.355.328.57.328.216 0 .478-.036.786-.11.319-.083.55-.176.693-.28.083 0 .211-.037.386-.11a9.86 9.86 0 0 0 .369-.171c.319-.146.586-.255.802-.328a1.67 1.67 0 0 1 .6-.125c.072 0 .211.021.416.063a4.72 4.72 0 0 0-.046.25c-.02.114-.051.234-.092.358-.175.25-.334.427-.478.531a2.981 2.981 0 0 1-.57.328c-.195.073-.37.161-.524.265-.739.458-1.474.687-2.203.687a3.1 3.1 0 0 1-1.078-.219 2.999 2.999 0 0 1-.94-.515c-.082-.135-.19-.416-.324-.843-.133-.426-.2-.697-.2-.811 0-.031.01-.078.031-.14a.523.523 0 0 0 .031-.14v-.157a.584.584 0 0 1-.031-.187c.01-.323.139-.853.385-1.592.257-.75.596-1.587 1.017-2.513.257-.562.626-1.186 1.109-1.873a14.753 14.753 0 0 1 1.525-1.841c.534-.531.976-.864 1.325-1 .216-.072.391-.108.524-.108.37 0 .719.093 1.048.28.328.177.595.458.801.843.205.375.308.843.308 1.405Zm-.562 9.676c-.216 0-.37-.088-.462-.265a.34.34 0 0 1 .062-.187.92.92 0 0 1 .169-.188c.247-.239.519-.645.817-1.217.051-.156.133-.463.246-.92 0-.209.026-.339.077-.391.185-.156.329-.234.432-.234.236 0 .4.28.493.843.02.145.03.25.03.312 0 .27-.097.603-.292.999-.041.104-.185.301-.432.593-.236.291-.375.437-.416.437-.041 0-.087.02-.138.062a1.427 1.427 0 0 0-.093.078c-.031.031-.092.052-.185.063-.092.01-.195.015-.308.015ZM50.308 71.65a1.114 1.114 0 0 1-.246-.17.318.318 0 0 1-.062-.204c0-.104.041-.25.123-.437.093-.197.247-.504.462-.92.062-.136.18-.375.355-.718.441-.854.662-1.483.662-1.889a.22.22 0 0 1-.015-.093c0-.104.082-.198.246-.281.031-.032.139-.12.324-.266a1.76 1.76 0 0 0 .462-.5 11.9 11.9 0 0 1 .508-1.03c.206-.384.56-1.008 1.063-1.872a19.611 19.611 0 0 1 1.572-2.482c.103-.145.216-.26.339-.343.133-.083.246-.125.339-.125.318 0 .642.125.97.375.34.25.56.5.663.749.041.073.062.229.062.468 0 .323-.036.869-.108 1.639-.02.135-.041.348-.062.64-.03.468-.077.967-.139 1.498a158.278 158.278 0 0 0-.246 2.731c-.051.656-.077 1.27-.077 1.842 0 .291.005.504.015.64v.109l-.015.359c-.062.062-.185.094-.37.094-.205 0-.41-.037-.616-.11-.206-.062-.319-.14-.34-.234a.177.177 0 0 0-.045-.031c-.02-.01-.031-.057-.031-.14l.015-.344.047-.874.077-2.388-.2.016c-.206 0-.643.042-1.31.125-.658.083-1.074.15-1.248.203-.093 0-.206.062-.34.187a1.775 1.775 0 0 0-.354.484c-.03.104-.102.255-.215.452-.113.188-.17.297-.17.328a.67.67 0 0 0-.17.172 1.541 1.541 0 0 0-.076.125c0 .114-.103.41-.308.89-.195.468-.39.852-.586 1.154l-.416.593-.539-.421Zm3.682-5.368.432-.062a4.41 4.41 0 0 1 .57-.078c.493-.125.832-.188 1.017-.188.102 0 .174.01.215.032a.408.408 0 0 0 .093.093.46.46 0 0 0 .077.016c.02-.083.102-.65.246-1.701.144-1.051.216-1.696.216-1.936 0-.166-.005-.307-.016-.421a1.39 1.39 0 0 0-.03-.234c-.093 0-.303.25-.632.749a14.525 14.525 0 0 0-.955 1.67c-.236.427-.4.64-.493.64-.072.073-.226.317-.462.733-.237.417-.33.645-.278.687Zm9.597 5.416a2.742 2.742 0 0 1-.462-.453c-.123-.166-.185-.317-.185-.453 0-.197.17-.338.509-.42 1.058-.261 2.244-1.307 3.558-3.138-.451-.25-.79-.51-1.016-.78-.226-.281-.39-.666-.493-1.155a3.03 3.03 0 0 1-.077-.624c.051-.073.077-.182.077-.328.01-.146.025-.25.046-.312l.339-1.015c.339-.988 1.284-1.753 2.835-2.294.503-.208.873-.297 1.109-.265l.2-.016a.863.863 0 0 1 .431-.031.462.462 0 0 1 .14-.016c.174 0 .369.057.585.172.226.104.416.24.57.406.164.166.246.333.246.5a.41.41 0 0 1-.015.124c-.103.302-.17.494-.2.578-.165.52-.298.905-.401 1.154-.277.687-.601 1.665-.97 2.934-.36 1.27-.566 2.196-.617 2.778-.082.23-.154.61-.216 1.14-.01.094-.03.229-.061.406-.02.176-.047.322-.077.437-.031.135-.124.254-.278.358a.82.82 0 0 1-.462.157.471.471 0 0 1-.215-.047 1.472 1.472 0 0 1-.324-.234 9.613 9.613 0 0 1-.324-.312c.031-.115.067-.287.108-.516.041-.28.098-.51.17-.686a9.92 9.92 0 0 1 .138-.89 2.67 2.67 0 0 0 .062-.328 4.3 4.3 0 0 1 .185-.733l.03-.25c-.143.24-.538.723-1.186 1.452a16.433 16.433 0 0 1-2.049 1.95c-.708.562-1.278.812-1.71.75Zm5.285-5.603c.482-1.55.893-2.93 1.232-4.136a4.026 4.026 0 0 0-1.386.421c-.452.23-.832.531-1.14.905a2.359 2.359 0 0 0-.54 1.265 1.73 1.73 0 0 1-.077.374.452.452 0 0 0-.046.203c0 .208.082.411.247.609.174.197.354.296.539.296a.73.73 0 0 0 .385-.124c.133-.084.21-.13.231-.14l.555.327Zm12.126-4.198a.317.317 0 0 1-.077.28c-.062.073-.205.172-.431.297-.463.229-.724.4-.786.515-.051.042-.17.13-.354.265a39.09 39.09 0 0 1-.663.5c-.4.27-.75.525-1.048.765-.287.239-.477.42-.57.546a.261.261 0 0 0-.123.047c-.04.03-.077.041-.108.03-.02.011-.066.042-.138.094a.714.714 0 0 0-.154.14.825.825 0 0 1-.155.25.25.25 0 0 1-.23.094c-.155.084-.422.276-.802.578.093.728.288 1.368.586 1.92.298.665.6 1.154.909 1.466.215.24.416.427.6.562.196.136.345.203.447.203.093.031.221.104.386.219.164.114.251.208.261.28a1.137 1.137 0 0 1-.062.593.55.55 0 0 1-.23.328.381.381 0 0 1-.278.125c-.102 0-.272-.052-.508-.156-.164.01-.447-.145-.847-.468-.401-.323-.71-.62-.925-.89a28.593 28.593 0 0 1-.724-1.108 4.28 4.28 0 0 1-.447-1.092 6.144 6.144 0 0 0-.246-.843 5.116 5.116 0 0 1-.108-.375l-.046.125c-.01.032-.077.203-.2.515-.114.313-.278.864-.494 1.655a61.553 61.553 0 0 1-.493 1.576c-.143.426-.261.713-.354.858-.082.156-.164.234-.246.234-.083 0-.185-.046-.309-.14-.328-.187-.493-.395-.493-.624 0-.042.01-.104.031-.188-.01-.135 0-.265.031-.39s.046-.198.046-.218c.072 0 .108-.084.108-.25 0-.083.046-.265.139-.546l.138-.484.185-.453c.113-.291.17-.447.17-.468 0-.135.067-.307.2-.515.041-.125.077-.26.108-.406.03-.145.046-.265.046-.359.02-.052.077-.171.17-.359a2.46 2.46 0 0 0 .2-.561c.01-.052.026-.11.046-.172.031-.063.062-.14.093-.234l.508-1.405.231-.53c.02-.053.087-.214.2-.484.124-.27.206-.406.247-.406v-.172c0-.041.056-.177.17-.406l.184-.374c.082-.135.144-.265.185-.39.051-.136.082-.224.093-.266.01-.02.03-.057.061-.109a.727.727 0 0 1 .108-.14c.082-.063.185-.115.308-.156a.993.993 0 0 1 .355-.078c.174 0 .292.067.354.203.123.25.185.457.185.624a.555.555 0 0 1-.093.312 65.853 65.853 0 0 0-.77 1.67 26.016 26.016 0 0 0-.663 1.56l.108-.078c.267-.27.694-.629 1.28-1.076l1.894-1.561c.288-.146.627-.375 1.017-.687.103-.062.185-.12.246-.171a.86.86 0 0 1 .154-.11c.062-.052.185-.14.37-.265.185-.135.303-.198.355-.187.071-.032.164.01.277.125.113.114.205.255.277.421.082.166.118.291.108.375Zm13.773 0c0 .135-.036.312-.108.53a8.848 8.848 0 0 0-.246.999 5.211 5.211 0 0 0-.077.78l.015.156a2.499 2.499 0 0 0-.154.625 3.62 3.62 0 0 1-.061.343.253.253 0 0 1-.108.156c0 .042.005.11.015.203.02.094.031.172.031.234v.187c-.195 1.135-.293 2.139-.293 3.013 0 .457.031.816.093 1.076.072.26.164.401.277.422.02 0 .036.005.046.015.01.01.016.037.016.079a.69.69 0 0 1-.108.374 1.673 1.673 0 0 1-.216.312 2.965 2.965 0 0 1-.185.219c-.02.03-.046.067-.077.109-.02.041-.056.062-.108.062-.072 0-.2-.026-.385-.078-.03-.062-.128-.14-.293-.234-.164-.083-.297-.26-.4-.53-.103-.271-.154-.729-.154-1.374 0-.177.005-.317.015-.421v-.047a1.569 1.569 0 0 1-.015-.265c0-.479.051-1.082.154-1.81.113-.74.231-1.405.354-1.998.082-.354.19-.791.324-1.312.133-.54.2-.832.2-.873l-.015-.016c.02.031-.206.453-.678 1.264-.473.801-.76 1.275-.863 1.42a5.18 5.18 0 0 0-.293.562l-.431.905c-.842 1.27-1.49 1.904-1.941 1.904-.432 0-.714-.156-.848-.468a2.603 2.603 0 0 1-.2-.827c-.01-.24-.015-.385-.015-.437.02-.114.03-.25.03-.406v-.171c0-.032.01-.115.031-.25.031-.146.057-.307.077-.484 0-.062.052-.385.154-.968.144-.707.216-1.16.216-1.357 0-.042-.005-.068-.015-.078v.03c0 .032-.062.146-.185.344a6.33 6.33 0 0 0-.54.874 97.78 97.78 0 0 0-.847 1.733c-.072.135-.18.358-.323.67-.031.323-.247.911-.647 1.764l-.139.36c-.308.78-.555 1.352-.74 1.716-.174.354-.308.525-.4.515-.051 0-.16-.052-.324-.156a1.982 1.982 0 0 1-.446-.39c-.134-.156-.2-.312-.2-.469 0-.02.087-.208.261-.561.288-.593.447-.947.478-1.062.01-.041.02-.098.03-.171.021-.073.134-.26.34-.562 0-.063.046-.219.138-.468.103-.26.237-.557.4-.89a.657.657 0 0 0 .124-.359c.093-.114.21-.37.354-.765.052-.145.103-.286.154-.421a1.39 1.39 0 0 1 .185-.312c.031-.021.082-.094.154-.219a31.583 31.583 0 0 1 .955-1.654l.186-.343c.04-.115.076-.177.107-.188.041-.01.21-.296.509-.858.462-.656.729-.983.8-.983.063 0 .17.036.324.109.165.073.309.161.432.265.133.104.2.198.2.281 0 .032.005.12.016.266.01.145.015.301.015.468 0 .406-.17 1.758-.509 4.058l-.077.499c.01.031.026.094.047.187.02.084.03.177.03.281a5.36 5.36 0 0 1 .355-.5c.267-.395.457-.707.57-.936 0-.052.015-.104.046-.156a2.43 2.43 0 0 0 .123-.171c.082-.104.144-.198.185-.281a.497.497 0 0 0 .077-.266c.288-.416.545-.811.77-1.186.863-1.363 1.397-2.138 1.603-2.325a.858.858 0 0 1 .323-.156c.154-.042.298-.063.432-.063.287 0 .508.089.662.266.154.166.231.38.231.64Zm3.883 9.676c-.154 0-.39-.063-.708-.188a4.75 4.75 0 0 1-.879-.468c-.277-.187-.457-.374-.539-.561l-.03-.063a2.18 2.18 0 0 1-.232-1.607l.077-.328c.093-.323.139-.588.139-.796.051-.063.128-.167.231-.312.113-.156.18-.255.2-.297a.387.387 0 0 0 .031-.14v-.234c0-.073.026-.146.077-.219a.853.853 0 0 1 .154-.172.897.897 0 0 1 .124-.093l.061.015c.02 0 .098-.15.231-.452a17.8 17.8 0 0 0 .385-.983c.514-.958 1.09-1.754 1.726-2.388.637-.645 1.202-1.077 1.695-1.296.041-.01.118-.02.231-.03l.323-.032c.195.01.432.057.709.14.277.084.426.146.447.188 0 .041.01.067.03.078.031.01.052.015.062.015.093-.01.257.14.493.453.247.302.426.588.539.858.124.198.185.53.185 1 0 .394-.056.889-.169 1.482-.113.582-.226.999-.339 1.248-.267.75-.606 1.54-1.017 2.373-.411.832-.786 1.258-1.125 1.28-.01 0-.02.01-.03.03-.011.011-.016.032-.016.063s-.139.166-.416.406c-.267.24-.503.437-.709.593l-.292.11c-.247.093-.53.166-.848.218a5.737 5.737 0 0 1-.8.109Zm.016-1.42c.441 0 .76-.01.955-.032.195-.02.4-.088.616-.203.226-.124.467-.338.724-.64.103-.187.185-.312.247-.374.01-.02.092-.166.246-.437.154-.27.298-.406.432-.406 0-.052.041-.192.123-.421.082-.24.144-.375.185-.406.02-.01.072-.125.154-.343.082-.23.159-.479.231-.75a2.71 2.71 0 0 0 .108-.67c.185-.198.267-.307.246-.328a.264.264 0 0 1-.015-.063v-.156c0-.302.02-.458.061-.468.052-.02.077-.036.077-.047a.17.17 0 0 0-.061-.062c-.021-.021-.031-.042-.031-.063 0-.01.015-.03.046-.062a.17.17 0 0 0 .046-.125c-.02-.26-.164-.713-.431-1.358a.875.875 0 0 1-.123-.109.381.381 0 0 0-.17-.125.349.349 0 0 0-.185-.047c-.041 0-.112.01-.215.032-.041-.042-.082-.063-.123-.063a.335.335 0 0 0-.108.016l-.077.031a1.373 1.373 0 0 0-.509.219c-.113.093-.277.26-.493.499l-.262.28a1.465 1.465 0 0 1-.508.734c-.041.032-.103.11-.185.234a2.219 2.219 0 0 1-.185.235l-.092.187c-.226.374-.468.874-.724 1.498a25.796 25.796 0 0 0-.663 1.748c-.185.551-.277.9-.277 1.046 0 .291.092.525.277.702.195.177.416.276.663.297Zm18.788 2.044c-.78-.54-1.407-1.098-1.879-1.67a9.364 9.364 0 0 1-1.125-1.779 38.364 38.364 0 0 1-1.017-2.528l-.138-.234c.02.041.03.109.03.202a.5.5 0 0 1-.061.25c-.144.24-.39.978-.74 2.216-.349 1.239-.513 1.962-.493 2.17-.061.125-.097.27-.107.437a5.904 5.904 0 0 1-.031.359 6.69 6.69 0 0 1-.447.437.637.637 0 0 1-.154.015.653.653 0 0 1-.324-.078 1.716 1.716 0 0 1-.308-.218 1.36 1.36 0 0 0-.262-.219c.052-.53.144-1.05.278-1.56.143-.52.328-1.135.554-1.842l.385-1.233a.69.69 0 0 1-.154-.187 4.417 4.417 0 0 0-.092-.234.696.696 0 0 1-.062-.125.493.493 0 0 0-.077-.172c-.482.687-1.361 1.618-2.634 2.794l-.509.421a7.584 7.584 0 0 0-.616.53 4.697 4.697 0 0 1-.308.282 5.177 5.177 0 0 1-.293.234c-.215.166-.385.301-.508.406a7.44 7.44 0 0 1-.647.499 5.353 5.353 0 0 0-.709.562.892.892 0 0 1-.37-.14 1.367 1.367 0 0 1-.246-.25 1.149 1.149 0 0 0-.339-.328c0-.281.026-.484.077-.609.051-.125.185-.229.4-.312.288-.104.879-.515 1.772-1.233a36.136 36.136 0 0 0 2.527-2.232c.791-.76 1.227-1.285 1.309-1.576.052-.26.18-.421.386-.484a18.129 18.129 0 0 0-.879-1.7 10.748 10.748 0 0 0-1.016-1.484 2.537 2.537 0 0 0-.232-.234 6.332 6.332 0 0 1-.277-.296 2.68 2.68 0 0 1-.185-.344l.016-.25a9.945 9.945 0 0 1 .369-.499l.262-.03c.093-.011.19-.017.293-.017.226 0 .426.089.601.266.175.177.436.567.786 1.17.349.593.529.989.539 1.186.01.084.051.172.123.266a1.2 1.2 0 0 1 .17.234c.606 1.144.945 1.857 1.016 2.138.031.156.124.026.278-.39.154-.416.39-1.103.708-2.06.411-1.3.668-2.008.771-2.123.144-.02.262-.031.354-.031.411 0 .683.11.817.328a.569.569 0 0 1 .061.28c0 .198-.051.432-.154.703-.092.27-.19.473-.293.609-.01.052-.015.13-.015.234a.429.429 0 0 1-.046.218v.125c-.195.198-.267.343-.216.437a1.47 1.47 0 0 0-.185.437c-.02.042-.051.11-.092.203a.998.998 0 0 1-.108.234.974.974 0 0 1 .647.5 15.562 15.562 0 0 0 1.741-1.358c.462-.437.878-.9 1.248-1.39.38-.499.822-1.15 1.325-1.95l.539-.172a.338.338 0 0 0 .139.11c.061.02.123.036.185.046.071.01.143.026.215.047.093.198.139.385.139.562 0 .187-.041.359-.123.515-.083.156-.221.37-.416.64-.75.988-1.464 1.8-2.142 2.434-.667.625-1.515 1.254-2.542 1.889.103.489.308 1.02.616 1.592a9.767 9.767 0 0 0 1.094 1.592c.421.489.837.858 1.248 1.108.226.125.406.244.539.359.134.114.237.265.309.452-.052.333-.247.609-.586.828l-.709.015Zm4.046.359-.37-.125a1.713 1.713 0 0 0-.385-.078.56.56 0 0 1-.308-.203.616.616 0 0 1-.108-.359c0-.072.005-.13.016-.171.03-.032.056-.115.077-.25.03-.125.046-.24.046-.343a1.48 1.48 0 0 0 .077-.188c.02-.073.046-.171.077-.296.082-.458.272-1.228.57-2.31.298-1.082.483-1.66.555-1.732v-.172c0-.031.01-.094.03-.187a.86.86 0 0 1 .139-.297 2.72 2.72 0 0 0 .093-.359c.03-.125.051-.218.061-.28.041-.053.108-.209.2-.469.103-.26.17-.432.201-.515.072-.198.159-.427.262-.687.113-.27.19-.447.231-.53v-.078a1.92 1.92 0 0 0 .154-.313l.231-.499c.072-.166.262-.598.57-1.295a36.1 36.1 0 0 0 .169-.36c.093-.197.139-.322.139-.374.103-.114.216-.172.339-.172.154 0 .298.073.431.219.144.135.257.28.339.437l.154.25-.57 1.123c-.154.281-.292.547-.416.796-.123.24-.185.38-.185.422-.03.072-.087.223-.169.452l-.246.78c-.144.396-.262.693-.355.89-.082.167-.123.266-.123.297 0-.042.57-.063 1.71-.063.175 0 .493-.005.955-.015.462-.01.755-.026.878-.047l.801-.078.432-1.39c.103-.363.329-1.07.678-2.122.144-.437.308-.76.493-.967.185-.219.349-.328.493-.328.041 0 .144.062.308.187.174.115.277.214.308.297a.51.51 0 0 1 .169.359c0 .145-.082.348-.246.608-.123.219-.298.63-.524 1.233a6.913 6.913 0 0 1-.169.484c0 .219-.052.38-.154.484-.041.042-.113.193-.216.453-.103.25-.154.395-.154.437 0 .083-.016.176-.046.28a.526.526 0 0 1-.108.203l-.108.375c-.36 1.321-.642 2.237-.847 2.747a.986.986 0 0 1-.077.28.951.951 0 0 0-.077.282c-.021.072-.067.218-.139.437-.072.218-.108.348-.108.39-.072.322-.144.702-.216 1.14-.072.436-.118.743-.138.92a.941.941 0 0 1-.432-.031 1.39 1.39 0 0 1-.323-.172 3.94 3.94 0 0 0-.216-.125c-.246-.135-.37-.322-.37-.562 0-.135.047-.296.139-.483.031-.053.128-.39.293-1.015l.138-.577c.083-.23.154-.448.216-.656.062-.218.118-.406.17-.562.164-.603.267-.926.308-.967v-.157c-.031-.051-.334-.078-.909-.078-.627 0-1.279.042-1.957.125h-1.325c-.051.115-.2.573-.447 1.374-.246.79-.385 1.295-.416 1.514-.071.343-.184.816-.339 1.42a40.688 40.688 0 0 1-.354 1.342Zm7.568-.906a1.099 1.099 0 0 1-.246-.17.318.318 0 0 1-.062-.204c0-.104.041-.25.123-.437.093-.197.247-.504.463-.92a19.8 19.8 0 0 1 .354-.718c.442-.854.662-1.483.662-1.889a.225.225 0 0 1-.015-.093c0-.104.082-.198.247-.281.03-.032.138-.12.323-.266a1.76 1.76 0 0 0 .462-.5c.134-.311.303-.655.509-1.03a64.6 64.6 0 0 1 1.063-1.872 19.689 19.689 0 0 1 1.571-2.482c.103-.145.216-.26.339-.343.134-.083.247-.125.339-.125.318 0 .642.125.971.375.339.25.559.5.662.749.041.073.062.229.062.468 0 .323-.036.869-.108 1.639a8.848 8.848 0 0 0-.062.64 31.28 31.28 0 0 1-.138 1.498 155.232 155.232 0 0 0-.247 2.731c-.051.656-.077 1.27-.077 1.842 0 .291.005.504.016.64v.109l-.016.359c-.062.062-.185.094-.37.094-.205 0-.41-.037-.616-.11-.205-.062-.318-.14-.339-.234a.182.182 0 0 0-.046-.031c-.021-.01-.031-.057-.031-.14l.016-.344.046-.874.077-2.388-.2.016c-.206 0-.642.042-1.31.125-.657.083-1.073.15-1.248.203-.092 0-.205.062-.339.187a1.768 1.768 0 0 0-.354.484 2.418 2.418 0 0 1-.216.452c-.113.188-.169.297-.169.328a.66.66 0 0 0-.17.172 1.482 1.482 0 0 0-.077.125c0 .114-.103.41-.308.89-.195.468-.39.852-.585 1.154l-.416.593-.54-.421Zm3.682-5.368.432-.062c.216-.042.406-.068.57-.078.493-.125.832-.188 1.017-.188.102 0 .174.01.215.032a.395.395 0 0 0 .093.093c.041.01.067.016.077.016.02-.083.103-.65.246-1.701.144-1.051.216-1.696.216-1.936 0-.166-.005-.307-.015-.421a1.503 1.503 0 0 0-.031-.234c-.093 0-.303.25-.632.749a14.585 14.585 0 0 0-.955 1.67c-.236.427-.401.64-.493.64-.072.073-.226.317-.462.733-.236.417-.329.645-.278.687Zm11.878 5.899c-.329 0-.627-.025-.894-.078a1.946 1.946 0 0 1-.709-.296 6.941 6.941 0 0 1-1.016-.812c-.329-.333-.493-.624-.493-.874 0-.166.066-.343.2-.53.144-.188.313-.344.508-.468.206-.125.396-.188.57-.188.216.115.375.224.478.328a.479.479 0 0 1 .154.343c0 .167-.118.36-.354.578.143.177.318.312.523.406.216.083.447.124.694.124.339 0 .703-.083 1.094-.25.39-.176.719-.41.986-.702.267-.29.4-.613.4-.967 0-.448-.103-.817-.308-1.108-.205-.302-.519-.453-.94-.453a.989.989 0 0 0-.2.016h-.123a.953.953 0 0 1-.324-.078.477.477 0 0 1-.185-.078.553.553 0 0 1-.108-.11 3.701 3.701 0 0 1-.323-.452.836.836 0 0 1-.093-.375c0-.187.113-.343.339-.468a.682.682 0 0 1 .339-.11c.031 0 .088.011.17.032a1.4 1.4 0 0 1 .339-.078c.164-.02.287-.052.37-.094a7.617 7.617 0 0 0 1.864-1.217c.565-.51.847-1.061.847-1.654 0-.156-.036-.333-.108-.531a1.47 1.47 0 0 0-.77-.203c-.432 0-.858.12-1.279.36-.411.238-.683.535-.816.889-.154.416-.401.702-.74.858a3.3 3.3 0 0 1-.493-.39 4.824 4.824 0 0 1-.385-.578 4.776 4.776 0 0 1 .878-1.482c.39-.448.842-.78 1.356-1 .133-.062.344-.119.632-.17.297-.063.523-.094.677-.094.493 0 .925.12 1.295.359.369.239.657.567.862.983.206.406.308.853.308 1.342 0 .572-.102 1.061-.308 1.467-.205.406-.477.75-.816 1.03-.339.281-.786.598-1.341.952.339.281.586.578.74.89.154.301.231.666.231 1.092 0 .49-.036.895-.108 1.218-.061.322-.205.65-.431.983-.144.25-.406.515-.786.796-.38.28-.765.5-1.155.655l-.108-.015c-.062.041-.17.072-.324.093-.174.042-.282.078-.323.11h-.493Zm8.566 0a5.189 5.189 0 0 1-.893.079c-.257 0-.468-.037-.632-.11a1.255 1.255 0 0 1-.447-.296c-.092-.084-.138-.208-.138-.375 0-.104.02-.177.061-.218.144-.094.293-.167.447-.219.154-.052.416-.093.786-.125a4.708 4.708 0 0 0 2.11-.39c.668-.291 1.13-.64 1.387-1.046.195-.353.293-.65.293-.89 0-.26-.119-.52-.355-.78a.83.83 0 0 0-.231-.14.708.708 0 0 0-.246-.062l-.262-.031c-.185 0-.334.02-.447.062a2.112 2.112 0 0 0-.401.187c-.051.031-.159.094-.323.188a1.524 1.524 0 0 1-.447.156.787.787 0 0 1-.354.234 1.394 1.394 0 0 1-.447.078c-.144 0-.241-.026-.293-.078-.061 0-.113.03-.154.093a2.361 2.361 0 0 0-.2.375 2.918 2.918 0 0 1-.139.312 4.73 4.73 0 0 1-.2.53 5.225 5.225 0 0 1-.108.281 2.048 2.048 0 0 0-.077.282c-.154.384-.282.644-.385.78-.103.135-.206.203-.308.203a.203.203 0 0 1-.123-.047 1.224 1.224 0 0 1-.139-.125 1.275 1.275 0 0 0-.154-.187c-.072 0-.144-.042-.216-.125a.572.572 0 0 1-.108-.36c0-.103.026-.223.077-.358.052-.114.195-.505.432-1.17.482-1.332.739-2.009.77-2.03a.53.53 0 0 1 .092-.296c.062-.073.093-.12.093-.14.02-.042.108-.266.262-.672.154-.405.298-.676.431-.811 0-.083.144-.354.432-.812l.231-.577a4.045 4.045 0 0 1 .169-.421c.093-.105.139-.193.139-.266 0-.041-.026-.088-.077-.14a2.369 2.369 0 0 0-.124-.14c-.02-.022-.041-.094-.061-.22a1.882 1.882 0 0 1-.031-.296c0-.031.17-.135.508-.312.35-.187.596-.312.74-.374a13.12 13.12 0 0 1 1.14-.453 2.477 2.477 0 0 1 .94-.125.975.975 0 0 1 .339-.062c.154 0 .298.036.431.109.164.052.375.187.632.406.257.208.4.395.431.562.041.208.062.358.062.452a.95.95 0 0 1-.108.422c-.021.218-.103.54-.247.967-.143.427-.256.682-.338.765-.144.229-.247.4-.309.515-.246.447-.487.801-.724 1.061a6.41 6.41 0 0 0-.154.172c-.082.093-.215.25-.4.468.051 0 .154.01.308.031.164.01.282.037.354.078.236.156.447.354.632.593.195.23.334.469.416.718a.678.678 0 0 1 .092.375c0 .208-.051.452-.154.733-.092.27-.216.52-.37.75-.092.176-.292.431-.6.764-.298.323-.468.484-.509.484a.323.323 0 0 0-.2 0 13.8 13.8 0 0 0-.37.172 1.346 1.346 0 0 1-.262.234c-.082.073-.149.099-.2.078a6.304 6.304 0 0 0-.586.28 13.88 13.88 0 0 1-1.186.25Zm-.477-5.15c.02.031.154-.005.4-.109.257-.104.529-.24.817-.406.298-.166.523-.322.678-.468.195-.135.374-.302.539-.5.164-.207.246-.343.246-.405.011-.031.041-.1.093-.203.061-.104.138-.213.231-.328a2.17 2.17 0 0 0 .293-.359c.082-.125.123-.208.123-.25.01-.03.036-.093.077-.187a15.9 15.9 0 0 1 .185-.328 1.23 1.23 0 0 0 .231-.515c.051-.197.082-.306.092-.327.021-.219-.015-.38-.108-.484-.082-.115-.21-.172-.385-.172l-.138.016-.37.047c-.165.02-.313.052-.447.093a1.49 1.49 0 0 0-.354.14c-.257.167-.385.297-.385.39 0 .053.035.079.107.079.052 0 .077.036.077.11 0 .145-.097.379-.292.701-.165.292-.498.932-1.002 1.92-.493.989-.729 1.504-.708 1.545Zm9.881 4.885c-.483 0-.878-.031-1.186-.093a1.753 1.753 0 0 1-.801-.36c-.493-.374-.74-.93-.74-1.67 0-.312.057-.697.169-1.154.052-.27.108-.5.17-.687.072-.198.133-.296.185-.296l.108-.578c.01-.062.03-.146.061-.25a2.97 2.97 0 0 1 .077-.25.427.427 0 0 1 .093-.14c.041-.031.102-.172.185-.421a.966.966 0 0 1 .092-.39c.154-.26.231-.432.231-.515a.919.919 0 0 1 .123-.188c.072-.093.129-.203.17-.328l.2-.358c.308-.552.529-.953.663-1.202.133-.26.215-.474.246-.64.031-.073.072-.203.123-.39.062-.188.129-.318.201-.39-.031-.063.072-.14.308-.234a7.21 7.21 0 0 1 .893-.266 6.43 6.43 0 0 1 .956-.156c.061-.041.2-.073.416-.093.215-.021.457-.032.724-.032.185 0 .441.01.77.032.164 0 .303.02.416.062.123.031.231.073.323.125.093.041.16.073.201.093l.2.203c.123.104.185.214.185.328 0 .104-.067.193-.2.265-.031.032-.201.058-.509.078-.298.021-.621.032-.97.032-.37 0-.776.046-1.217.14a1.95 1.95 0 0 1-.355.047 1.775 1.775 0 0 1-.462.078 7.57 7.57 0 0 1-.339.016c-.041 0-.185.197-.431.593-.237.395-.36.63-.37.702a.582.582 0 0 1-.093.296 7.838 7.838 0 0 1-.323.484c-.134.188-.2.364-.2.53 0 .105.03.167.092.188.329-.052.724-.099 1.186-.14.473-.052.817-.078 1.033-.078.113-.032.205-.047.277-.047a.77.77 0 0 1 .4.11c.165.03.247.14.247.327a.47.47 0 0 1-.062.234c-.03.073-.072.12-.123.14-.092.094-.411.214-.955.36a31.66 31.66 0 0 1-1.679.405c-.586.115-.914.161-.986.14-.031-.072-.062-.109-.093-.109-.103 0-.231.344-.385 1.03a9.28 9.28 0 0 0-.339.828c-.041.124-.103.421-.185.89a2.164 2.164 0 0 0-.061.39c0 .405.236.717.708.936.175.031.355.047.539.047.339 0 .75-.063 1.233-.188.041-.02.354-.197.94-.53.031 0 .108-.021.231-.063.133-.052.21-.078.231-.078a.368.368 0 0 1 .308-.171c.031 0 .098.052.2.156.103.104.196.229.278.374a.802.802 0 0 1 .123.422c0 .104-.154.234-.462.39-.298.145-.745.338-1.341.577a9.557 9.557 0 0 1-.909.36c-.174.051-.421.077-.739.077Zm6.032.109a.31.31 0 0 1-.17-.062.449.449 0 0 1-.138-.14.855.855 0 0 1-.201-.266c-.051-.104-.077-.26-.077-.468 0-.364.113-.89.339-1.576.072-.292.149-.573.231-.843.072-.187.108-.328.108-.421 0-.084.01-.177.031-.281.031-.115.046-.193.046-.234.123 0 .236-.214.339-.64.041-.156.077-.286.108-.39.031-.115.051-.203.062-.266a.618.618 0 0 0 .061-.14c.031-.063.057-.12.077-.172.082-.25.18-.489.293-.718.123-.468.267-.957.431-1.467.175-.52.319-.905.432-1.155l.185-.468c.01-.031.03-.088.061-.172a.6.6 0 0 0 .062-.203.107.107 0 0 0-.046-.093c-.072-.052-.108-.156-.108-.312a.8.8 0 0 1 .293-.64.87.87 0 0 1 .446-.281c.195-.063.427-.094.694-.094.113 0 .313.01.6.031.124.01.452.016.986.016.062.031.175.078.339.14.35.146.524.234.524.266 0 .052.016.088.046.109.042.02.098.036.17.047.113 0 .313.14.601.421.298.281.503.541.616.78.092.188.154.334.185.438.041.104.062.234.062.39 0 .062-.011.177-.031.343a7.606 7.606 0 0 1-.077.484c-.031.156-.067.255-.108.296-.165.125-.247.234-.247.328 0 .104-.149.395-.446.874-.298.479-.56.827-.786 1.046a4.39 4.39 0 0 1-.955.827 9.32 9.32 0 0 1-1.464.515c-.534.146-.94.213-1.217.203-.329.052-.534.099-.616.14-.072.032-.129.115-.17.25l-.154.437a1.352 1.352 0 0 0-.061.297c-.062.114-.191.463-.386 1.045a18.71 18.71 0 0 0-.385 1.342.53.53 0 0 1-.246.313.624.624 0 0 1-.339.124Zm2.187-5.212c.021.02.077.03.17.03.267 0 .616-.082 1.048-.249.369-.125.78-.328 1.232-.608.226-.157.493-.432.801-.828.062-.104.185-.348.37-.733a3 3 0 0 0 .231-.562c.082-.229.123-.432.123-.609a.864.864 0 0 0-.015-.187c-.103-.541-.401-.9-.894-1.077a5.156 5.156 0 0 0-.693-.078c-.072 0-.19.01-.354.031-.165.052-.283.125-.355.219-.061.083-.154.28-.277.593-.329.635-.544 1.092-.647 1.373a20.997 20.997 0 0 1-.508 1.64c-.144.374-.226.592-.247.654v.063c0 .062-.005.125-.015.187-.011.063 0 .11.03.14Zm7.93 4.978c-.041.042-.082.063-.123.063-.052 0-.139-.031-.262-.094a.952.952 0 0 1-.463-.265.603.603 0 0 1-.184-.437c0-.042.02-.125.061-.25.093-.177.329-1.046.709-2.606l.262-1.03c0-.01.02-.172.061-.484.031-.156.077-.442.139-.859.123-.239.205-.499.247-.78.051-.291.082-.458.092-.5.072-.29.123-.473.154-.546l.139-.546.092-.359c.072-.26.108-.426.108-.5v-.249h-.57l-.247.016c-.164 0-.292-.006-.385-.016l-.539-.015c-.483-.021-.806-.068-.971-.14-.164-.084-.251-.24-.261-.47-.042-.207.061-.368.308-.483.246-.125.749-.177 1.51-.156.143-.01.338-.016.585-.016.246 0 .447.006.601.016.154.01.241.016.262.016a.372.372 0 0 0 .077-.125c.02-.052.036-.094.046-.125 0-.177.056-.286.169-.328.062-.135.19-.203.386-.203.113 0 .226.026.339.078.113.052.2.125.261.219a.853.853 0 0 1 .031.28c0 .136.031.235.093.297.041-.041.174-.067.4-.078.226-.01.385-.02.478-.031.195 0 .395-.005.601-.016.205-.02.344-.03.416-.03.092-.053.236-.079.431-.079.092 0 .221.01.385.031.206 0 .355.047.447.14.092.084.175.183.246.297 0 .115.026.198.078.25.041.031.061.063.061.094a.43.43 0 0 1-.061.14c-.072.094-.257.14-.555.14l-.324.016c-.226.021-.39.031-.493.031a9.413 9.413 0 0 1-1.571.172c-.421 0-.632.042-.632.125-.061 0-.179.338-.354 1.014-.062.25-.128.479-.2.687a2.432 2.432 0 0 1-.154.406c.03.041.046.088.046.14 0 .052-.031.167-.093.344-.03.114-.066.229-.108.343a.725.725 0 0 0-.061.25c-.01.041-.041.145-.093.312a5.133 5.133 0 0 0-.107.53c-.052.5-.119.791-.201.874a1.37 1.37 0 0 1-.077.125.45.45 0 0 0-.046.203c0 .146-.036.406-.108.78-.072.365-.128.563-.169.594.031 0 .046.03.046.093a.961.961 0 0 1-.092.328c0 .083-.016.182-.047.297a1.094 1.094 0 0 0-.046.234c-.103.291-.246.66-.431 1.108-.185.447-.298.692-.339.733Zm9.991-11.471c.349 0 .673.094.971.281.308.177.549.432.724.765.185.322.277.692.277 1.108 0 .583-.036 1.347-.108 2.294a47.553 47.553 0 0 1-.277 2.669 48.666 48.666 0 0 0-.324 3.371 26.657 26.657 0 0 1-.154 1.498c-.031.281-.092.443-.185.484l.016.031c0 .042-.036.078-.108.11a.656.656 0 0 1-.262.047c-.185 0-.37-.037-.555-.11-.184-.073-.277-.229-.277-.468 0-.135.026-.463.077-.983.113-.978.18-1.78.2-2.404l.093-.686h-.385c-.175.052-.427.078-.755.078l-.971-.016c-.277 0-.467.01-.57.031a.294.294 0 0 0-.216.125c-.051.063-.113.193-.184.39a6.52 6.52 0 0 1-.324.765c-.359.884-.678 1.514-.955 1.888-.277.375-.55.562-.817.562-.072 0-.19-.03-.354-.093-.154-.063-.231-.146-.231-.25 0-.146.108-.448.323-.905.226-.458.396-.765.509-.921.01 0 .01-.005 0-.016a.223.223 0 0 1-.016-.093c0-.23.134-.609.401-1.14.041-.124.082-.244.123-.359a.906.906 0 0 0 .077-.234l.293-.577c0-.063.036-.193.108-.39.082-.208.18-.432.293-.671 0-.157.03-.307.092-.453a3.86 3.86 0 0 1 .246-.5c.113-.207.17-.343.17-.405 0-.021.01-.068.031-.14.031-.073.087-.193.169-.36-.02 0-.031-.005-.031-.015 0-.01.042-.068.124-.172a.6.6 0 0 1 .108-.312c.082-.125.215-.468.4-1.03l.308-.671c.082-.136.19-.39.324-.765l.123-.328.123-.343a2.33 2.33 0 0 0 .139-.234.701.701 0 0 1 .293-.281c.133-.073.313-.114.539-.125.123-.031.251-.047.385-.047Zm.324 5.962c0-.114.035-.536.107-1.264.144-1.498.221-2.42.231-2.763 0-.156-.005-.244-.015-.265 0-.093-.082-.182-.246-.265-.165-.083-.283-.125-.355-.125-.092 0-.169.052-.231.156a2.89 2.89 0 0 0-.185.39 5.38 5.38 0 0 0-.123.312l-.139.36c-.174.436-.38.972-.616 1.607-.236.624-.37.999-.4 1.124-.062.062-.17.26-.324.593-.144.322-.216.525-.216.608 0 .26.129.39.385.39.042 0 .124-.005.247-.015a2.53 2.53 0 0 0 .431-.11h.216c.164 0 .329-.025.493-.077a7.28 7.28 0 0 0 .524-.094c.092-.02.149-.068.169-.14.031-.073.047-.214.047-.422Zm5.657 5.463a1.296 1.296 0 0 1-.324.062.538.538 0 0 1-.447-.219c-.113-.145-.169-.364-.169-.655 0-.416.123-.957.37-1.623l.169-.515c.514-1.52.847-2.393 1.002-2.622.051-.125.077-.255.077-.39 0-.052.025-.13.077-.234l.123-.25c.123-.23.185-.4.185-.515 0-.042.061-.25.185-.625.123-.384.246-.676.369-.874a3.82 3.82 0 0 1 .216-.452c.082-.156.123-.255.123-.297 0-.02-.113-.03-.339-.03-.318 0-.714.015-1.186.046-.462.031-.77.068-.924.11-.216.051-.344.072-.385.062-.052-.021-.129-.12-.232-.297-.102-.187-.154-.354-.154-.5 0-.124.041-.207.124-.249.164-.104.328-.172.493-.203a7.03 7.03 0 0 1 .724-.078 7.32 7.32 0 0 0 .662-.062c.216 0 .416-.01.601-.032.195-.03.308-.046.339-.046a1.3 1.3 0 0 0 .308-.047c.288-.052.483-.078.586-.078.143 0 .287-.016.431-.047a3.32 3.32 0 0 1 .323-.031h.956c.133 0 .318-.021.554-.063.236-.041.447-.083.632-.124a3.46 3.46 0 0 1 .755-.094c.267 0 .488.052.662.156a.607.607 0 0 1 .324.421c.092.52-.683.828-2.327.921-.092.01-.272.026-.539.047-.257.02-.426.047-.508.078-.072.031-.108.078-.108.14 0 .063-.031.125-.092.188a.83.83 0 0 0-.108.125c-.082.03-.221.29-.416.78-.195.479-.293.775-.293.89l-.062.124a.376.376 0 0 0-.046.14 6.965 6.965 0 0 1-.339.719 67.96 67.96 0 0 1-.585 1.53l-.17.42c-.226.76-.39 1.275-.493 1.546a.517.517 0 0 1-.123.14.235.235 0 0 0-.062.172c0 .052-.148.468-.446 1.248-.298.78-.463 1.176-.493 1.186Zm15.406-11.347a.619.619 0 0 1 .555.219.825.825 0 0 1 .185.843c-.134.27-.431 1.004-.894 2.2a452.426 452.426 0 0 0-1.34 3.48l-1.109 3.247c-.052.145-.159.416-.324.811a2.53 2.53 0 0 0-.277.812 1.016 1.016 0 0 1-.247.437c-.113.125-.231.187-.354.187a.246.246 0 0 1-.154-.047c-.473-.177-.709-.458-.709-.843 0-.03.011-.098.031-.202-.02.135.123-.183.431-.952.319-.78.576-1.436.771-1.967.76-1.925 1.14-2.924 1.14-2.996.123-.323.205-.552.246-.687a6.07 6.07 0 0 1 .37-.968l.262-.702-5.438 6.368c-.072.062-.273.244-.601.546-.278.28-.493.478-.647.593a14.71 14.71 0 0 0-.37.28 4.199 4.199 0 0 1-.447.328c-.133.094-.241.141-.323.141-.586-.104-.879-.343-.879-.718 0-.166.041-.354.124-.562a16.7 16.7 0 0 0 .154-.421c.123-.395.2-.713.231-.952.113-.468.272-1.03.477-1.686.021-.083.072-.275.154-.577.093-.312.149-.598.17-.859.144-.28.339-.738.585-1.373l.216-.562c.041-.083.134-.338.277-.765a5.52 5.52 0 0 1 .293-.811l.154-.297c.195-.385.344-.697.447-.936.113-.25.175-.458.185-.624 0-.136.046-.234.138-.297a.533.533 0 0 1 .339-.11c.175 0 .334.053.478.157a.626.626 0 0 1 .277.374c.041.115.062.245.062.39 0 .136-.021.26-.062.375l-1.278 3.293-1.402 3.746-.37.936 3.112-3.152c.349-.364.678-.754.986-1.17.267-.355.524-.667.77-.937.247-.27.55-.588.909-.952l.355-.375 1.956-2.107c.134-.104.262-.156.385-.156Zm1.831 11.768a3.658 3.658 0 0 1-.924-.5 1.918 1.918 0 0 1-.632-.827c-.164-.468-.246-1.02-.246-1.654 0-.614.036-1.134.107-1.56.072-.438.196-.88.37-1.327l.139-.328a9.26 9.26 0 0 1 .354-.843c.175-.406.483-.931.925-1.576.41-.624.734-1.087.97-1.39a5.6 5.6 0 0 1 .755-.795c.257-.229.632-.515 1.125-.858.298-.219.662-.328 1.094-.328.339 0 .647.083.924.25.288.166.503.426.647.78.103.177.154.421.154.733 0 .5-.118 1.04-.354 1.623s-.519 1.025-.848 1.327a.39.39 0 0 1-.292.11.894.894 0 0 1-.401-.11 1.692 1.692 0 0 1-.385-.265 3.862 3.862 0 0 1-.154-.312c-.01-.032.01-.052.062-.063.092-.114.226-.333.4-.655.185-.333.308-.593.37-.78l.092-.438c.062-.27.093-.447.093-.53a.346.346 0 0 0-.108-.25.166.166 0 0 0-.123-.047c-.082 0-.226.052-.432.156-.236.104-.518.318-.847.64a8.964 8.964 0 0 0-.955 1.124c-.473.624-.837 1.14-1.094 1.545a5.721 5.721 0 0 0-.57 1.233l-.17.406c.011.041-.005.145-.046.312a2.058 2.058 0 0 1-.138.406 7.123 7.123 0 0 0-.216 1.638c0 .385.036.718.108 1 .082.28.195.488.339.623.082.073.2.11.354.11.164 0 .349-.037.555-.11.215-.083.441-.176.677-.28.237-.105.401-.177.493-.219.237-.094.458-.203.663-.328a2.37 2.37 0 0 0 .478-.343c.267-.198.482-.297.647-.297.133-.041.236 0 .308.125.082.125.123.297.123.515 0 .146-.098.323-.293.53a3.315 3.315 0 0 1-.693.532c-.113.114-.365.25-.755.405-.329.24-.714.453-1.155.64-.432.188-.827.281-1.187.281-.082 0-.185-.01-.308-.031Zm6.628-.468a2.744 2.744 0 0 1-.462-.453c-.123-.166-.185-.317-.185-.453 0-.197.17-.338.508-.42 1.058-.261 2.245-1.307 3.559-3.138-.452-.25-.791-.51-1.016-.78-.226-.281-.391-.666-.493-1.155a2.988 2.988 0 0 1-.077-.624c.051-.073.077-.182.077-.328.01-.146.025-.25.046-.312l.339-1.015c.339-.988 1.284-1.753 2.834-2.294.504-.208.873-.297 1.11-.265l.2-.016a.86.86 0 0 1 .431-.031.464.464 0 0 1 .139-.016c.175 0 .37.057.585.172.226.104.416.24.57.406.165.166.247.333.247.5a.421.421 0 0 1-.015.124c-.103.302-.17.494-.201.578-.164.52-.298.905-.4 1.154-.278.687-.601 1.665-.971 2.934-.359 1.27-.565 2.196-.616 2.778-.082.23-.154.61-.216 1.14-.01.094-.031.229-.061.406a3.303 3.303 0 0 1-.077.437c-.031.135-.124.254-.278.358a.82.82 0 0 1-.462.157.474.474 0 0 1-.216-.047 1.487 1.487 0 0 1-.323-.234 9.826 9.826 0 0 1-.324-.312 6.57 6.57 0 0 0 .108-.516c.041-.28.098-.51.17-.686.02-.219.066-.515.138-.89a2.67 2.67 0 0 0 .062-.328c.062-.332.123-.577.185-.733l.031-.25c-.144.24-.54.723-1.187 1.452a16.433 16.433 0 0 1-2.049 1.95c-.708.562-1.278.812-1.71.75Zm5.285-5.603c.482-1.55.893-2.93 1.232-4.136a4.032 4.032 0 0 0-1.387.421 3.55 3.55 0 0 0-1.14.905 2.364 2.364 0 0 0-.539 1.265 1.73 1.73 0 0 1-.077.374.45.45 0 0 0-.046.203c0 .208.082.411.246.609.175.197.355.296.54.296a.731.731 0 0 0 .385-.124c.133-.084.21-.13.231-.14l.555.327ZM110.757 93.11c0-.156.016-.327.046-.515.042-.187.088-.369.139-.546.051-.177.093-.359.123-.546.041-.187.062-.364.062-.53 0-.167.062-.329.185-.485.226-.28.488-.42.786-.42l.308.015a.48.48 0 0 0 .246-.063c.442-.291 1.058-1.352 1.849-3.184a96.597 96.597 0 0 0 2.08-5.119l-.062-.062-.539.172a.783.783 0 0 1-.247.046c-.205 0-.369-.093-.493-.28a1.253 1.253 0 0 1-.169-.656c0-.062.01-.156.031-.28.226-.147.503-.256.832-.329.339-.083.755-.161 1.248-.234a1.99 1.99 0 0 1 .369-.5c.216.094.396.152.54.172l.138.203c.124.021.211.032.262.032.093 0 .18-.006.262-.016.093-.01.18-.016.262-.016.154 0 .324.01.508.032.196.02.334.036.416.046.134.021.314.047.54.078a6.7 6.7 0 0 0 .554.032.443.443 0 0 0 .154-.016 1.4 1.4 0 0 1 .339-.047c.206 0 .391.11.555.328l.262.374c.031.105.046.203.046.297 0 .177-.041.37-.123.578a20.18 20.18 0 0 0-.139.39l-.185.483a2.753 2.753 0 0 1-.154.5c-.061.166-.103.27-.123.312-.072.198-.149.416-.231.656l-.262.733a296.886 296.886 0 0 0-.909 2.575 39.352 39.352 0 0 0-.57 1.904l.462.031c.544.01.981.073 1.31.188.339.104.508.343.508.718 0 .187-.046.374-.139.561a3.398 3.398 0 0 1-.369.594 14.75 14.75 0 0 1-.231.359 2.188 2.188 0 0 0-.216.468c-.031.125-.098.26-.2.406-.196.197-.37.603-.524 1.217a.696.696 0 0 1-.401.14c-.226 0-.416-.12-.57-.359a1.315 1.315 0 0 1-.231-.749c0-.083.021-.197.062-.343.072-.187.236-.5.493-.936.164-.25.287-.464.369-.64a1.9 1.9 0 0 0-.431-.14 2.078 2.078 0 0 0-.4-.063c-.093-.032-.529.005-1.31.109-.77.094-1.361.172-1.772.234-.133.02-.292.036-.477.047h-.432c-.339.01-.775.057-1.309.14a9.855 9.855 0 0 0-1.31.313 4.71 4.71 0 0 0-.277.811 3.485 3.485 0 0 0-.108.796v.203c0 .125-.026.265-.077.421l-.539.25c-.175-.01-.355-.114-.539-.312-.185-.198-.278-.39-.278-.578Zm4.437-3.433c.195-.02.462-.047.801-.078.154 0 .262-.005.324-.016l.893-.14a24.77 24.77 0 0 0 1.064-.172c0-.24.061-.505.184-.796.103-.218.16-.432.17-.64.082-.187.19-.504.323-.952.103-.333.185-.582.247-.749a1.97 1.97 0 0 1 .108-.359l.185-.421c.02-.052.046-.11.077-.172a1.42 1.42 0 0 0 .108-.25 4.82 4.82 0 0 0 .184-.483 33.732 33.732 0 0 1 .355-1.077 7.49 7.49 0 0 1 .154-.406c.215-.604.37-1.098.462-1.483a3.986 3.986 0 0 0-.724-.109l-.57-.062-.524-.047a1.598 1.598 0 0 1-.493.093 5.76 5.76 0 0 0-.416.032c-.154.437-.375.993-.662 1.67l-.139.296a5.437 5.437 0 0 0-.17.422c-.729 2.278-1.566 4.244-2.511 5.899h.57Zm11.062 1.873c-.154 0-.39-.063-.708-.188a4.754 4.754 0 0 1-.879-.468c-.277-.187-.457-.374-.539-.562l-.031-.062a2.181 2.181 0 0 1-.231-1.608l.077-.327c.093-.323.139-.588.139-.796.051-.063.128-.167.231-.312.113-.157.18-.255.2-.297a.38.38 0 0 0 .031-.14v-.235a.38.38 0 0 1 .077-.218.881.881 0 0 1 .154-.172.956.956 0 0 1 .123-.093l.062.015c.021 0 .098-.15.231-.452.134-.313.262-.64.385-.984.514-.957 1.089-1.753 1.726-2.387.637-.645 1.202-1.077 1.695-1.296a2 2 0 0 1 .231-.031c.113-.01.22-.02.323-.031.195.01.432.057.709.14.277.083.426.146.447.188 0 .041.01.067.03.078.031.01.052.015.062.015.093-.01.257.14.493.453.247.302.426.588.539.858.124.198.185.53.185.999 0 .395-.056.89-.169 1.483-.113.582-.226.998-.339 1.248-.267.75-.606 1.54-1.017 2.373-.411.832-.786 1.258-1.125 1.28-.01 0-.02.01-.03.03-.011.01-.016.032-.016.063s-.139.166-.416.406c-.267.239-.503.437-.709.593l-.292.109a4.395 4.395 0 0 1-.848.219 5.72 5.72 0 0 1-.801.109Zm.016-1.42c.441 0 .76-.01.955-.032.195-.02.4-.088.616-.203.226-.124.467-.338.724-.64.103-.187.185-.312.247-.374.01-.02.092-.167.246-.437s.298-.406.432-.406c0-.052.041-.192.123-.421.082-.24.144-.375.185-.406.02-.01.072-.125.154-.343.082-.23.159-.479.231-.75a2.71 2.71 0 0 0 .108-.67c.185-.198.267-.307.246-.328a.265.265 0 0 1-.015-.063v-.156c0-.302.02-.458.061-.468.052-.02.077-.037.077-.047a.17.17 0 0 0-.061-.062c-.021-.021-.031-.042-.031-.063 0-.01.015-.03.046-.062a.169.169 0 0 0 .046-.125c-.02-.26-.164-.713-.431-1.358a.87.87 0 0 1-.123-.11.382.382 0 0 0-.17-.124.349.349 0 0 0-.185-.047c-.041 0-.112.01-.215.031-.041-.041-.082-.062-.123-.062a.332.332 0 0 0-.108.016l-.077.03a1.373 1.373 0 0 0-.509.22c-.113.093-.277.26-.493.499l-.262.28a1.461 1.461 0 0 1-.508.734c-.041.031-.103.11-.185.234a2.182 2.182 0 0 1-.185.234l-.092.188c-.226.374-.468.874-.724 1.498a25.76 25.76 0 0 0-.663 1.748c-.185.551-.277.9-.277 1.046 0 .291.092.525.277.702.195.177.416.276.663.296Zm13.23 2.028a5.192 5.192 0 0 1-.894.078 1.57 1.57 0 0 1-.632-.109 1.243 1.243 0 0 1-.446-.296c-.093-.084-.139-.209-.139-.375 0-.104.02-.177.062-.218.143-.094.292-.167.446-.219.154-.052.416-.094.786-.125a4.713 4.713 0 0 0 2.111-.39c.667-.291 1.13-.64 1.386-1.046.195-.353.293-.65.293-.89 0-.26-.118-.52-.354-.78a.861.861 0 0 0-.231-.14.717.717 0 0 0-.247-.063l-.262-.03c-.185 0-.334.02-.447.062a2.114 2.114 0 0 0-.4.187c-.052.031-.159.094-.324.187a1.526 1.526 0 0 1-.446.156.792.792 0 0 1-.355.234 1.394 1.394 0 0 1-.447.079c-.143 0-.241-.026-.292-.078-.062 0-.113.03-.154.093a2.432 2.432 0 0 0-.201.375c-.02.062-.066.166-.138.312-.021.083-.088.26-.201.53-.02.063-.056.157-.107.281a2.09 2.09 0 0 0-.078.281c-.154.385-.282.645-.385.78-.102.136-.205.204-.308.204a.203.203 0 0 1-.123-.047 1.437 1.437 0 0 1-.139-.125 1.21 1.21 0 0 0-.154-.187c-.072 0-.144-.042-.215-.125a.572.572 0 0 1-.108-.36c0-.103.025-.223.077-.358.051-.115.195-.505.431-1.17.483-1.332.74-2.009.77-2.03.011-.135.042-.234.093-.296.061-.073.092-.12.092-.14.021-.042.108-.266.262-.672.154-.405.298-.676.432-.811 0-.084.143-.354.431-.812.031-.073.108-.265.231-.577a2.26 2.26 0 0 1 .108-.281c.031-.073.051-.12.062-.14.092-.105.138-.193.138-.266 0-.042-.025-.088-.077-.14a2.067 2.067 0 0 0-.123-.14c-.021-.022-.041-.095-.062-.22a2.01 2.01 0 0 1-.031-.296c0-.031.17-.135.509-.312.349-.187.596-.312.739-.375.144-.062.329-.14.555-.234.236-.093.431-.166.585-.218.144-.052.303-.089.478-.11.175-.02.329-.026.462-.015a.975.975 0 0 1 .339-.063.89.89 0 0 1 .432.11c.164.052.374.187.631.406.257.208.401.395.432.561.041.209.061.36.061.453a.95.95 0 0 1-.108.421c-.02.219-.102.541-.246.968-.144.427-.257.681-.339.765a9.29 9.29 0 0 0-.308.515c-.247.447-.488.8-.724 1.061a32.812 32.812 0 0 0-.555.64c.051 0 .154.01.308.031.165.01.283.037.355.078.236.156.446.354.631.593.195.23.334.468.416.718a.67.67 0 0 1 .093.375c0 .208-.052.452-.154.733-.093.27-.216.52-.37.75-.093.176-.293.431-.601.764-.298.323-.467.484-.508.484a.328.328 0 0 0-.201 0c-.072.031-.195.088-.369.172a1.41 1.41 0 0 1-.262.234c-.083.073-.149.099-.201.078a5.95 5.95 0 0 0-.585.281c-.267.072-.663.156-1.186.25Zm-.478-5.15c.021.031.154-.005.401-.11a6.48 6.48 0 0 0 .816-.405c.298-.166.524-.322.678-.468a2.69 2.69 0 0 0 .539-.5c.165-.208.247-.343.247-.405.01-.032.041-.1.092-.203a2.89 2.89 0 0 1 .231-.328 2.17 2.17 0 0 0 .293-.359c.082-.125.123-.208.123-.25.01-.03.036-.093.077-.187.052-.094.113-.203.185-.328a1.23 1.23 0 0 0 .231-.515c.052-.197.082-.307.093-.328.02-.218-.016-.38-.108-.483-.082-.115-.211-.172-.385-.172l-.139.016-.37.046a2.702 2.702 0 0 0-.447.094 1.485 1.485 0 0 0-.354.14c-.257.167-.385.297-.385.39 0 .053.036.079.108.079.051 0 .077.036.077.109 0 .146-.098.38-.293.702-.164.292-.498.932-1.001 1.92-.493.988-.73 1.504-.709 1.545Zm5.629 4.62a1.096 1.096 0 0 1-.246-.172.319.319 0 0 1-.062-.203c0-.104.041-.25.123-.437.093-.198.247-.504.463-.92a19.8 19.8 0 0 1 .354-.719c.442-.853.662-1.482.662-1.888a.225.225 0 0 1-.015-.094c0-.104.082-.197.246-.28.031-.032.139-.12.324-.266.195-.145.349-.312.462-.5.134-.311.303-.655.509-1.03a63.25 63.25 0 0 1 1.063-1.872 19.569 19.569 0 0 1 1.571-2.482c.103-.145.216-.26.339-.343.134-.083.246-.125.339-.125.318 0 .642.125.971.375.338.25.559.5.662.749.041.073.062.229.062.468 0 .323-.036.869-.108 1.639a8.86 8.86 0 0 0-.062.64c-.031.468-.077.967-.139 1.498a163.588 163.588 0 0 0-.246 2.731c-.051.656-.077 1.27-.077 1.842 0 .291.005.504.015.64v.109l-.015.359c-.062.062-.185.094-.37.094a1.83 1.83 0 0 1-.616-.11c-.205-.062-.318-.14-.339-.234a.182.182 0 0 0-.046-.031c-.021-.01-.031-.057-.031-.14l.015-.344.047-.874.077-2.388-.201.016c-.205 0-.642.041-1.309.125-.658.083-1.073.15-1.248.203-.093 0-.206.062-.339.187a1.748 1.748 0 0 0-.354.484 2.418 2.418 0 0 1-.216.452c-.113.188-.17.297-.17.328a.672.672 0 0 0-.169.172 1.466 1.466 0 0 0-.077.125c0 .114-.103.41-.308.89-.195.467-.39.852-.586 1.154l-.416.593-.539-.421Zm3.682-5.369.432-.063a4.79 4.79 0 0 1 .57-.078c.493-.124.832-.187 1.017-.187.102 0 .174.01.215.031a.396.396 0 0 0 .093.094.51.51 0 0 0 .077.016c.02-.084.102-.65.246-1.701.144-1.051.216-1.696.216-1.936 0-.166-.005-.307-.016-.421a1.426 1.426 0 0 0-.03-.234c-.093 0-.303.25-.632.749a14.444 14.444 0 0 0-.955 1.67c-.236.426-.401.64-.493.64-.072.073-.226.317-.462.733-.237.416-.329.645-.278.687Zm6.505 5.884a3.661 3.661 0 0 1-.924-.5 1.92 1.92 0 0 1-.632-.827c-.164-.468-.247-1.02-.247-1.654 0-.614.036-1.134.108-1.56a6.55 6.55 0 0 1 .37-1.327l.139-.328a9.26 9.26 0 0 1 .354-.843c.175-.406.483-.931.924-1.576.411-.625.735-1.088.971-1.39a5.6 5.6 0 0 1 .755-.795c.257-.23.632-.515 1.125-.859.297-.218.662-.327 1.093-.327.339 0 .648.083.925.25.287.166.503.426.647.78.103.177.154.421.154.733 0 .5-.118 1.04-.354 1.623-.237.583-.519 1.025-.848 1.327a.391.391 0 0 1-.292.11.893.893 0 0 1-.401-.11 1.688 1.688 0 0 1-.385-.265 3.528 3.528 0 0 1-.154-.313c-.01-.03.01-.052.061-.062.093-.114.226-.333.401-.655.185-.333.308-.594.37-.78l.092-.438c.062-.27.093-.447.093-.53a.345.345 0 0 0-.108-.25.166.166 0 0 0-.123-.047c-.083 0-.226.052-.432.156-.236.104-.519.317-.847.64a8.874 8.874 0 0 0-.955 1.124 23.417 23.417 0 0 0-1.094 1.545 5.723 5.723 0 0 0-.57 1.233l-.17.406c.011.041-.005.145-.046.312a1.988 1.988 0 0 1-.139.405 7.175 7.175 0 0 0-.215 1.64c0 .384.036.717.108.998.082.28.195.489.338.624.083.073.201.11.355.11.164 0 .349-.037.554-.11.216-.083.442-.177.678-.28.237-.105.401-.177.493-.22.237-.093.457-.202.663-.327.215-.125.375-.24.477-.343.267-.198.483-.297.647-.297.134-.041.237 0 .309.125.082.125.123.297.123.515 0 .146-.098.323-.293.53a3.318 3.318 0 0 1-.693.531c-.113.115-.365.25-.755.406-.329.24-.714.453-1.156.64-.431.187-.826.281-1.186.281-.082 0-.185-.01-.308-.031Zm8.122-3.886a.449.449 0 0 1-.354-.188.717.717 0 0 1-.108-.39c0-.01-.01-.052-.031-.125a1.603 1.603 0 0 1-.015-.218c0-.052.005-.094.015-.125 0-.052.047-.182.139-.39.072-.177.123-.307.154-.39.113-.198.283-.427.509-.687a3.87 3.87 0 0 1 .616-.593l.262-.187c0-.042.072-.12.215-.234.144-.115.267-.198.37-.25a7.39 7.39 0 0 1 .216-.156c.103-.073.2-.151.293-.234a3.26 3.26 0 0 0 .508-.64 2.6 2.6 0 0 0 .246-.625c.052-.208.129-.561.232-1.06.01-.344-.006-.563-.047-.656-.03-.094-.113-.193-.246-.297a2.523 2.523 0 0 0-.339-.031c-.688 0-1.222.421-1.602 1.264-.072.187-.108.323-.108.406 0 .052.015.12.046.203 0 .062.01.156.031.28.031.115.046.204.046.266a1.73 1.73 0 0 1-.2.062 1.326 1.326 0 0 1-.355.047c-.205 0-.364-.057-.477-.171a2.213 2.213 0 0 0-.123-.157 4.567 4.567 0 0 1-.154-.218.484.484 0 0 1-.078-.187 1.182 1.182 0 0 1-.015-.188c.01-.072.015-.145.015-.218.124-.395.309-.786.555-1.17.247-.385.544-.666.894-.843a8.697 8.697 0 0 0 .893-.469h.154l.355-.046h.169c.103 0 .154.02.154.062h.447c.185.052.416.172.693.359.278.177.473.328.586.453.061.197.092.437.092.718 0 .52-.097 1.087-.293 1.7-.195.604-.446 1.078-.755 1.42l-.338.313c-.504.458-.822.765-.956.92-.328.188-.631.474-.909.86-.267.374-.472.77-.616 1.185-.195.417-.457.625-.786.625Zm-.354 2.762a1.307 1.307 0 0 1-.493.125c-.154 0-.329-.073-.524-.219-.154-.156-.231-.312-.231-.468 0-.26.19-.52.57-.78a3.59 3.59 0 0 1 .278-.156.49.49 0 0 1 .215-.063c.082 0 .221.042.416.125.298.177.447.39.447.64 0 .291-.226.557-.678.796Z" fill="#1EA6F9"/></svg>