<svg width="366" height="326" fill="none" xmlns="http://www.w3.org/2000/svg"><g clip-path="url(#a)"><circle opacity=".1" cx="186.5" cy="156.5" r="141.5" fill="#B5E3FF"/><circle opacity=".4" cx="186.5" cy="156.5" r="109.5" fill="#B5E3FF"/><path opacity=".23" d="M134.048 256.029c-5.519 0-9.286-4.13-11.429-3.463 3.556-6.095 12.405-11.683 17.034-11.683h29.36l41.789 8.797c4.895 0 14.652 1.376 21.217 6.349 3.786.149 11.786 1.207 13.501 4.246 1.714 3.039-5.035 8.996-8.624 11.595-3.187 8.106-12.891 16.534-23.736 22.391 0 0-2.358 15.194-13.93 15.194-11.573 0-15.859-9.937-15.859-9.937-12.784-.372-25.379-3.181-31.931-7.256-12.216-7.597-13.073-26.589-11.787-29.988 1.286-3.398 4.046-6.245-5.605-6.245Z" fill="#070707"/><path d="M133.104 205.604a55.025 55.025 0 0 1-14.747-20.494 49.49 49.49 0 0 1-1.492-33.799c6.249-20.091 20.384-27.428 20.384-27.428s10.847-19.222 18.012-21.582c7.166-2.36 13.085 9.599 13.085 9.599s30.57.599 52.177 10.577a66.266 66.266 0 0 1 30.289 28.418s18.024 3.424 18.697 8.377c.672 4.952-4.341 16.459-9.966 22.145 5.001 15.676-10.92 40.035-31.219 45.647.318 8.744-3.289 9-3.289 9l6.493 12.228 3.669 2.801-2.654 3.668-11.702-.648-2.348 1.957-8.352-3.534s-14.906 1.589-29.898 1.577c-14.991-.012-34.972-5.136-39.496-5.625-4.525-.489-9.954 4.243-14.735 3.84-4.781-.404-6.469-2.177-5.931-5.43.538-3.252 5.063-2.164 5.063-2.164v-4.524s-16.54-2.057-18.851-4.943c-4.29-3.432-12.172-21.996 3.333-31.106 15.505-9.11 16.386-4.891 16.386-4.891l7.092 6.334Z" fill="#F5FCFF"/><path d="M149.147 249.075s-5.148-17.78 1.871-27.856 8.499-14.135 8.499-14.135l-19.272-8.89s-19.43-2.262-22.39-14.258c1.321 4.573 10.529 19.1 15.212 21.668-1.871 4.891.318 20.629.318 20.629l3.424 9.428 2.666 12.803 9.672.611Zm56.079-7.019s2.03 8.058 0 10.198c-2.03 2.14 4.891.257 4.891.257v-1.822l-4.891-8.633Zm49.792-48.864s-8.241-16.52-24.823-25.471c-14.123-7.618-37.907-4.035-37.907-4.035s-12.974-16.129-34.361-19.223c-21.387-3.093-37.32 11.556-38.8 17.976-.073-8.743 5.075-23.882 16.789-32.001 11.715-8.12 24.665-18.66 24.665-18.66s40.267 1.222 58.377 9.611c18.11 8.388 31.854 28.516 31.854 28.516l8.829 14.209-1.223 17.254s1.149 5.38.526 8.193c-.624 2.812.318 4.683-.93 6.236-1.247 1.553-1.602.073-2.996-2.605Z" fill="#B5E3FF"/><path d="M228.018 226.685s-14.674-2.739-23.881 5.381c.929 11.078 7.569 22.573 11.384 23.148 3.815.574 4.451-1.125 4.451-1.125s-4.133-1.651-3.35-5.711c.782-4.06 7.251-15.456 9.134-17.486a9.31 9.31 0 0 0 2.262-4.207Z" fill="#1EA6F9"/><path d="M220.841 253.453s7.117 2.567 11.005 1.222a3.84 3.84 0 0 0 2.813-4.891l-3.167-1.59s-4.292-9.354-7.105-10.149c-2.812-.795-5.111 10.908-5.111 10.908l1.565 4.5Zm-87.419-27.22a13.139 13.139 0 0 1 7.728 12.461c-.391 6.713-.403 9.782-.403 9.782s-9.917 3.913-13.036 3.779c-3.118-.135-6.236-2.776-6.236-2.776-1.137-.599.611-3.95 4.537-2.727.807.257.758-5.943 2.017-8.902 1.639-3.828 3.669-5.148 4.525-6.86.579-1.519.874-3.131.868-4.757Zm6.089-24.689s14.124-14.955 20.36-17.486c6.567-2.653 10.468-1.48 11.715-1.223a2.283 2.283 0 0 1 1.565 1.553s-6.566 4.378-7.581 7.031c-1.015 2.654-4.892 13.574-4.757 14.589.134 1.014-4.891 2.653-11.861 1.638a12.353 12.353 0 0 1-9.441-6.102Zm28.834-78.284c0 4.292 6.212 8.743 11.665 9.049 4.513.269 8.633-.428 10.223-4.329 1.333-3.265-1.443-8.009-7.337-10.027-5.625-1.883-14.515-1.064-14.551 5.307Zm59.514 21.387c4.048-1.455 13.659 5.931 12.644 14.833-1.015 8.902-9.366 7.41-13.451 2.103-4.084-5.307-5.906-14.515.807-16.936Zm-78.052-21.387s-9.99 4.219-12.643 7.178c5.074-13.549 14.074-22.328 17.009-23.148 3.668-1.015 13.28 4.733 14.833 6.212a12.265 12.265 0 0 1 2.152 2.605s-10.932 1.92-12.803 3.668a19.381 19.381 0 0 0-4.524-2.25l-4.024 5.735Zm103.279 47.812s1.798 3.937 1.639 6.273c-.159 2.335 0 6.591 0 6.591s12.008-15.249 11.457-20.397c-.55-5.148-17.009-12.02-17.009-12.02h-3.289s3.913 3.192 4.218 5.613c.198 1.761.275 3.535.233 5.307l7.19 2.03-4.439 6.603Z" fill="#1EA6F9"/><path d="M131.465 203.342s-22.328-4.023-26.62 15.383c-3.669 16.532 20.298 20.714 20.298 20.714s4.366-10.186 7.496-12.521c3.131-2.336-1.1-10.15-1.1-10.15l1.565-11.164-1.639-2.262Z" fill="#1EA6F9"/><path d="M134.975 155.42c0 3.876 4.891 7.728 10.675 7.728 5.784 0 10.479-1.956 10.675-6.481.196-4.524-4.023-7.337-10.455-7.337s-10.908 2.727-10.895 6.09Zm91.943 23.833c-3.607 3.264-.306 10.112 3.522 12.961 4.072 3.045 10.491 4.439 13.059 1.223 2.287-2.861 1.419-7.483-2.604-11.348-4.023-3.864-10.737-5.71-13.977-2.836Z" fill="#FFDCD9"/><path d="M165.545 155.163a6.897 6.897 0 1 0 0-13.794 6.897 6.897 0 0 0 0 13.794Zm56.506 20.139a6.896 6.896 0 1 0 .001-13.793 6.896 6.896 0 0 0-.001 13.793Z" fill="#070707"/><path d="M169.164 147.643a1.48 1.48 0 1 0 0-2.96 1.48 1.48 0 0 0 0 2.96Zm56.323 20.017a1.48 1.48 0 1 0 0-2.96 1.48 1.48 0 0 0 0 2.96Z" fill="#fff"/><path d="M184.535 173.566c2.311-.684 2.971-4.964 2.971-6.212 0-1.247-3.118-4.206-1.516-6.945 1.101-1.895 5.857-1.223 8.205.342 2.348 1.566 3.302 4.354 3.069 5.112-.513 1.65-3.105 2.641-6.701 2.543 0 .122-2.739 4.402-2.812 5.967-.034.451.032.904.192 1.327.161.422.413.805.737 1.119 0 0 .697.844-.232 1.088a8.035 8.035 0 0 1-4.634-.733c-1.81-.869-3.412-2.446-2.63-3.18.783-.733 2.532-.183 3.351-.428Z" fill="#070707"/><path d="M189.5 163.185c.526.404.281.856.868.966.587.11.746.477 1.027.807.281.33 2.861-.134 2.959-.893.098-.758-1.149-.452-1.687-.855-.538-.404 0-.918-.734-.942-.734-.025-1.321.232-1.638 0-.318-.232-.856-.122-.918.22-.024.239.018.481.123.697Z" fill="#4B4B4B"/><path d="M152.082 277.701c.065 1.05.314 2.08.734 3.045.464.464 55.98 5.429 58.45 4.989 2.678-.465 11.813-14.674 12.497-15.799.685-1.125.477-4.329.477-4.329l-13.414 16.961-58.365-4.684-.379-.183Z" fill="#1A1A1A"/><path d="M210.667 286.224c-4.219 0-25.055-1.798-29.458-2.189-12.888-1.125-28.332-2.556-28.736-2.959a7.795 7.795 0 0 1-.819-3.339v-.745l.978.464 58.059 4.659 13.928-17.645.074 1.125c0 .342.195 3.338-.538 4.586-.086.146-9.783 15.48-12.779 16.006a3.911 3.911 0 0 1-.709.037Zm-57.631-5.821c3.326.807 56.066 5.295 58.12 4.891 2.054-.403 10.761-13.157 12.228-15.603a7.336 7.336 0 0 0 .453-2.898l-12.815 16.227-58.439-4.72c.062.717.214 1.424.453 2.103Z" fill="#000"/><path d="M168.786 260.325s55.026 2.446 55.552 4.365c.526 1.92-9.66 17.12-13.61 18.416-3.95 1.296-58.047-3.424-58.622-5.613-.574-2.189 12.718-15.921 16.68-17.168Z" fill="#4B4B4B"/><path d="M207.243 283.779c-12.631 0-51.688-3.791-55.026-5.662a.915.915 0 0 1-.477-.514c-.783-2.726 13.133-16.508 16.972-17.645h.147c.135 0 13.916.636 27.575 1.48 27.941 1.736 28.21 2.653 28.369 3.204.66 2.237-9.929 17.706-13.891 18.953a15.819 15.819 0 0 1-3.669.184Zm-38.396-23.026c-4.133 1.419-16.777 14.931-16.325 16.63 1.81 1.773 53.951 6.616 58.084 5.32 3.815-1.223 13.378-15.983 13.329-17.805-2.238-1.271-34.007-3.179-55.088-4.145Z" fill="#000"/><path d="m202.071 265.009 1.748-1.407-32.563 4.525 4.989.782-11.14 2.911 27.391-3.424 9.905-3.424-.33.037Z" fill="gray"/><path d="M218.567 264.947h-7.411l4.39-1.223-15.53.77-8.559 1.859h.428l-3.669 1.076h3.669s-2.25.734-3.192 1.003c3.18-.428 27.709-2.054 27.709-2.054l2.165-1.431Zm-11.948 6.518h-3.668l2.201-.807-7.765.538-4.304 1.296h.208l-1.798.758h1.798s-1.125.514-1.59.697c1.59-.293 13.855-1.43 13.855-1.43l1.063-1.052Z" fill="gray"/><path d="m202.62 263.993-1.222.159.697-.33-2.556.514-1.37.562-.562.306.599-.086-.501.269c.513-.159 4.536-1.039 4.536-1.039l.379-.355Z" fill="#9E9E9E"/><path d="M262.52 248.272c.409 2.702 2.364 3.547 4.333 3.688 1.041.072 3.81-.442 4.291.797.325.923-1.249 2.708-3.965 1.74-2.716-.968-6.275-2.487-9.448 1.235-3.173 3.721.635 6.31 3.253 6.195 2.619-.115 6.815-.35 9.584.689 2.768 1.039 13.181.93 16.451-7.921 3.269-8.852-2.73-13.45-6.763-15.604-4.034-2.154-10.649-2.714-14.44 1.189-3.791 3.903-3.296 7.992-3.296 7.992Z" fill="#1EA6F9"/><path d="M259.739 262.333a4.879 4.879 0 0 1-3.41-2.431c-.478-.971-.689-2.539.956-4.518 3.313-3.892 7.052-2.492 9.786-1.467l.235.086c1.757.654 2.709-.088 2.954-.333a.91.91 0 0 0 .345-.752c-.212-.58-1.886-.503-2.784-.471a8.348 8.348 0 0 1-1.037.019c-2.768-.199-4.428-1.628-4.814-4.125-.022-.176-.506-4.388 3.416-8.419 3.923-4.031 10.654-3.633 15.053-1.276 7.105 3.8 9.522 9.447 6.971 16.236a12.474 12.474 0 0 1-6.733 7.234c-3.99 1.824-8.528 1.667-10.354.991-2.555-.957-6.464-.787-9.052-.673l-.338.017a5.1 5.1 0 0 1-1.194-.118Zm4.251-8.325a5.558 5.558 0 0 0-5.883 2.056c-1.046 1.22-1.338 2.392-.85 3.387.62 1.284 2.402 1.995 3.68 1.961l.338-.018c2.672-.119 6.708-.298 9.456.729 1.652.625 5.841.745 9.566-.949a11.53 11.53 0 0 0 6.216-6.653c2.356-6.362.182-11.4-6.496-14.968-4.073-2.177-10.307-2.537-13.833 1.095-3.526 3.632-3.157 7.404-3.14 7.571.317 2.014 1.581 3.069 3.865 3.233.308.013.617.008.924-.013 1.403-.06 3.337-.141 3.792 1.152a1.776 1.776 0 0 1-.587 1.83c-.358.356-1.708 1.43-4.037.566l-.241-.088a19.682 19.682 0 0 0-2.77-.891Z" fill="#004FAB"/><path d="M252.459 266.746a3.302 3.302 0 1 0 1.365-6.462 3.302 3.302 0 0 0-1.365 6.462Z" fill="#1EA6F9"/><path d="M252.359 267.252a3.631 3.631 0 0 1-.806-.267 3.744 3.744 0 0 1-1.986-2.136 3.81 3.81 0 0 1 5.161-4.795 3.813 3.813 0 0 1 .156 6.877 3.8 3.8 0 0 1-2.504.326l-.021-.005Zm1.366-6.459a2.788 2.788 0 0 0-2.683.908 2.791 2.791 0 0 0-.5 2.789 2.793 2.793 0 0 0 3.592 1.644 2.784 2.784 0 0 0 1.619-3.582 2.74 2.74 0 0 0-1.453-1.563 2.54 2.54 0 0 0-.589-.199l.014.003Z" fill="#004FAB"/><path d="M264.982 270.198c-.302 1.428-.062 3.323.95 3.796 1.333.615 2.326 1.151 2.078 2.147-.193.64-1.827 1.02-2.914-.614-1.086-1.635-2.521-3.899-5.783-3.084-3.262.814-2.17 3.788-.679 4.762 1.491.975 3.962 2.526 5.093 4.213 1.131 1.686 7.003 5.784 12.372 2.142 5.37-3.641 3.85-8.62 2.446-11.414-1.404-2.795-4.879-5.774-8.559-5.108-3.681.665-4.718 1.787-5.004 3.16Z" fill="#1EA6F9"/><path d="M268.552 285.109a10.532 10.532 0 0 1-5.236-3.359c-1.056-1.535-3.278-2.981-4.757-3.944l-.196-.128a3.705 3.705 0 0 1-1.658-3.44c.102-.638.541-1.789 2.484-2.288 3.516-.875 5.151 1.556 6.234 3.151l.101.145a1.734 1.734 0 0 0 1.547.938.586.586 0 0 0 .238-.038.588.588 0 0 0 .201-.133c.147-.487-.298-.85-1.809-1.557-1.279-.591-1.594-2.692-1.239-4.37.393-1.879 2.021-2.944 5.445-3.566 3.842-.7 7.552 2.282 9.108 5.38 2.501 5.048 1.594 9.233-2.629 12.12a8.822 8.822 0 0 1-6.794 1.343 9.553 9.553 0 0 1-1.04-.254Zm-6.912-12.168a4.075 4.075 0 0 0-2.199.011c-1.019.255-1.597.733-1.715 1.427a2.704 2.704 0 0 0 1.209 2.409l.19.125c1.556 1.01 3.9 2.531 5.05 4.23a9.98 9.98 0 0 0 5.635 3.222 7.74 7.74 0 0 0 6.02-1.22c3.811-2.555 4.56-6.218 2.278-10.782-1.384-2.788-4.663-5.435-8.007-4.827-3.696.669-4.41 1.775-4.632 2.763-.303 1.428.013 2.921.662 3.239 1.219.566 2.725 1.264 2.355 2.74a1.35 1.35 0 0 1-1.145.922 2.747 2.747 0 0 1-2.693-1.368l-.094-.142c-.733-1.118-1.55-2.337-2.914-2.749Z" fill="#004FAB"/><path d="M252.981 277.161a2.269 2.269 0 1 0 1.312-4.344 2.269 2.269 0 0 0-1.312 4.344Z" fill="#1EA6F9"/><path d="M252.834 277.648a2.783 2.783 0 0 1-1.181-4.613 2.782 2.782 0 0 1 3.495-.395 2.786 2.786 0 0 1-1.191 5.112 2.77 2.77 0 0 1-1.123-.104Zm1.312-4.344a1.76 1.76 0 1 0 .007.002l-.007-.002Z" fill="#004FAB"/><path d="M245.606 243.933c.897.584 2.65.396 3.205.19.797-.298 1.889-1.547 2.192-1.112.303.435.366 1.663-1.2 2.13-1.565.467-3.672 1.004-3.842 3.762-.17 2.759 2.427 2.632 3.565 1.693 1.137-.94 2.955-2.475 4.557-2.948 1.601-.472 6.262-4.02 4.737-9.145-1.525-5.125-5.782-5.128-8.34-4.727-2.558.4-5.729 2.388-6.11 5.47-.381 3.082.208 4.022 1.236 4.687Z" fill="#1EA6F9"/><path d="M248.334 251.692a2.666 2.666 0 0 1-1.675-.215c-.499-.247-1.308-.92-1.179-2.587.182-3.034 2.527-3.729 4.072-4.185l.143-.025a1.319 1.319 0 0 0 .947-.722.807.807 0 0 0 .04-.413c-.16.101-.363.254-.52.369a5.138 5.138 0 0 1-1.142.697c-.596.227-2.559.482-3.663-.237-1.419-.923-1.83-2.38-1.467-5.216.408-3.227 3.691-5.425 6.542-5.883 4.621-.716 7.704 1.052 8.915 5.116a7.347 7.347 0 0 1-.608 5.725 8.982 8.982 0 0 1-4.469 4.068c-1.404.417-3.121 1.81-4.232 2.73l-.142.12a3.397 3.397 0 0 1-1.562.658Zm2.329-9.25a.79.79 0 0 1 .57.112.724.724 0 0 1 .208.212 1.776 1.776 0 0 1 .139 1.548 2.247 2.247 0 0 1-1.608 1.337l-.143.024c-1.497.441-3.196.945-3.339 3.256-.052.82.166 1.359.642 1.602a2.128 2.128 0 0 0 2.079-.355l.142-.12c1.189-.941 2.962-2.439 4.597-2.925a8.115 8.115 0 0 0 3.86-3.574 6.26 6.26 0 0 0 .522-4.936c-1.056-3.544-3.668-5.016-7.765-4.383-2.523.432-5.346 2.389-5.683 4.992-.392 3.018.288 3.757 1.015 4.253.871.352 1.835.4 2.738.137.32-.155.621-.345.899-.567a3.036 3.036 0 0 1 1.124-.627l.003.014Z" fill="#004FAB"/><path d="M246.863 255.824a1.862 1.862 0 1 0-.626-3.67 1.862 1.862 0 0 0 .626 3.67Z" fill="#1EA6F9"/><path d="M246.944 256.334a2.376 2.376 0 0 1-2.398-3.626 2.383 2.383 0 0 1 1.489-1.043 2.383 2.383 0 0 1 2.855 2.741 2.363 2.363 0 0 1-.981 1.535 2.37 2.37 0 0 1-.851.373l-.114.02Zm-.627-3.67-.065.011a1.341 1.341 0 0 0-1.038 1.078 1.345 1.345 0 0 0 1.613 1.553 1.331 1.331 0 0 0 1.032-1.6 1.352 1.352 0 0 0-1.535-1.043l-.007.001Z" fill="#004FAB"/><path d="M281.793 257.082a1.871 1.871 0 0 1-.46.266 1.263 1.263 0 0 1-.459.092.78.78 0 0 1-.386-.096.624.624 0 0 1-.252-.269c-.242-.471.188-.974.804-1.45.617-.476 1.17-.723 1.389-.274a.607.607 0 0 1 .171.368 1.06 1.06 0 0 1-.068.488c-.063.171-.163.34-.292.492a1.823 1.823 0 0 1-.447.383Zm-2.976 1.467c-.423.189-.876.066-.94-.084-.065-.15.258-.371.71-.52.452-.149.803-.269.867-.119.064.15-.13.504-.637.723Z" fill="#fff"/><path d="M136.919 131.269a1.337 1.337 0 0 1-.379 0 1.297 1.297 0 0 1-.869-1.614c.318-1.1 8.095-27.024 19.48-28.589 8.278-1.15 16.349 13.121 17.242 14.747a1.324 1.324 0 0 1-.514 1.773 1.289 1.289 0 0 1-1.438-.134 1.302 1.302 0 0 1-.323-.392c-2.189-3.986-9.049-14.184-14.674-13.451-8.082 1.052-15.26 19.663-17.302 26.731a1.3 1.3 0 0 1-1.223.929Z" fill="#070707"/><path d="M149.808 125.18a1.422 1.422 0 0 1-.38 0 1.31 1.31 0 0 1-.868-1.627c.33-1.088 2.128-6.566 5.185-7.251 2.519-.575 4.708 2.874 5.307 3.95a1.293 1.293 0 0 1-.593 1.607 1.294 1.294 0 0 1-1.669-.385c-.832-1.479-2.042-2.726-2.446-2.69-1.003.22-2.519 3.057-3.24 5.466a1.303 1.303 0 0 1-1.296.93Zm105.944 60.052a1.293 1.293 0 0 1-.856-2.262c4.439-3.962 15.616-15.579 14.014-21.766-1.724-6.652-16.851-8.768-22.537-9.012a1.299 1.299 0 0 1-1.223-1.358 1.33 1.33 0 0 1 1.358-1.222c.905 0 22.377 1.1 24.921 11.005 2.286 8.829-13.035 22.793-14.796 24.346-.25.196-.564.291-.881.269Z" fill="#070707"/><path d="M253.086 172.368a1.292 1.292 0 0 1-1.192-.784 1.295 1.295 0 0 1 .251-1.405 30.822 30.822 0 0 0 4.059-5.136 23.584 23.584 0 0 0-5.563-1.308 1.303 1.303 0 1 1 .354-2.58c7.227.966 7.679 2.446 7.863 3.057.183.611.599 2.005-4.891 7.753a1.3 1.3 0 0 1-.881.403Zm-119.982 54.427a1.305 1.305 0 0 1-1.223-.856 36.293 36.293 0 0 1-.281-19.785c-13.683-8.804-21.424-35.217-15.982-55.185 5.405-19.773 22.524-29.189 23.27-29.629a1.295 1.295 0 0 1 1.755.532 1.295 1.295 0 0 1-.532 1.755c-.172.085-16.912 9.354-22.011 28.027-5.282 19.381 2.311 45.06 15.64 52.825l.856.514-.257.966a34.12 34.12 0 0 0 0 19.088 1.295 1.295 0 0 1-.783 1.663 1.128 1.128 0 0 1-.452.085Zm117.708-74.604a1.298 1.298 0 0 1-1.223-.941c0-.135-4.634-14.674-29.641-27.611-23.747-12.289-51.236-10.419-51.517-10.419a1.3 1.3 0 0 1-.947-.322 1.3 1.3 0 0 1-.435-.9 1.221 1.221 0 0 1 1.223-1.382c.281 0 28.492-1.908 52.874 10.724 26.083 13.512 30.718 28.565 30.913 29.188a1.31 1.31 0 0 1-.892 1.615c-.116.033-.235.05-.355.048Zm-32.43 105.15a7.58 7.58 0 0 1-3.044-.77c-5.54-2.519-11.727-10.064-12.51-23.515a1.324 1.324 0 0 1 1.223-1.382 1.31 1.31 0 0 1 1.382 1.223c.758 13.317 6.884 18.734 9.477 20.446 2.03 1.333 3.436 1.455 3.668 1.357.722-.575.722-.575 0-1.895a10.566 10.566 0 0 1-.954-2.263c-.587-1.956.563-4.023 2.446-7.471a75.355 75.355 0 0 0 7.056-16.373l.195-.661.661-.208c33.211-10.626 30.46-42.92 30.325-44.29a1.297 1.297 0 1 1 2.58-.257c0 .355 3.094 35.315-31.463 46.81a78.794 78.794 0 0 1-7.08 16.239c-1.406 2.543-2.519 4.561-2.25 5.466.209.614.483 1.205.82 1.76.746 1.309 1.846 3.277-.722 5.258a2.764 2.764 0 0 1-1.81.526Z" fill="#070707"/><path d="M181.637 255.385a147.2 147.2 0 0 1-33.823-4.268c-2.714-.599-4.891-1.088-6.456-1.296-2.813-.367-5.76.807-8.621 1.944-3.314 1.333-6.444 2.581-9.232 1.309-5.087-2.348-5.026-5.16-4.769-6.261a5.013 5.013 0 0 1 4.585-3.424c.563-9.11 8.707-17.67 9-18a1.308 1.308 0 0 1 2.128.421 1.299 1.299 0 0 1-.281 1.414c-.086.097-8.438 8.865-8.291 17.425v1.369h-1.357c-1.859-.061-3.106.709-3.29 1.48-.183.77.587 2.042 3.326 3.301 1.773.807 4.402-.244 7.178-1.357 3.021-1.223 6.444-2.58 9.929-2.115 1.725.232 3.913.721 6.677 1.345a142.875 142.875 0 0 0 35.131 4.194c20.348-.306 26.303-1.529 26.364-1.541a1.3 1.3 0 1 1 .551 2.544c-.245 0-6.114 1.284-26.902 1.589l-1.847-.073Zm48.497.648h-1.113c-4.794-.306-8.266-.611-8.303-.611a1.304 1.304 0 0 1-1.18-1.413 1.3 1.3 0 0 1 1.412-1.18s3.473.306 8.242.612c4.476.281 4.622-1.333 4.708-2.446 0-.269-1.003-.99-2.703-1.443l-.917-.232v-.954c-.134-2.592-4.267-11.225-5.294-12.583a1.292 1.292 0 0 1-.587-.868 1.295 1.295 0 0 1 1.039-1.504 1.537 1.537 0 0 1 1.149.293c1.223.979 5.356 9.648 6.114 13.586 2.544.856 3.938 2.287 3.803 3.925-.293 3.241-2.372 4.818-6.37 4.818Zm-69.236-47.641h-.11a1.296 1.296 0 0 1-1.222-1.394c1.222-16.642 9.342-21.228 13.218-23.429.485-.252.951-.538 1.394-.856a.836.836 0 0 0-.122-.77c-.232-.318-1.394-1.309-5.906-1.333-15.542 0-27.416 21.13-27.526 21.338a1.304 1.304 0 0 1-2.393-.262 1.28 1.28 0 0 1 .119-.985c.538-.942 12.741-22.671 29.812-22.671h.196c4.072 0 6.627.782 7.813 2.445a3.499 3.499 0 0 1 .477 3.192c-.293.954-1.223 1.467-2.555 2.238-3.485 1.981-10.749 6.114-11.911 21.362a1.295 1.295 0 0 1-1.284 1.125Z" fill="#070707"/><path d="M124.287 241.505c-3.044 0-12.79-.501-19.296-6.493a19.056 19.056 0 0 1-5.98-14.025c-.66-21.51 26.658-22.953 26.903-22.965a1.298 1.298 0 0 1 .11 2.593c-1.027 0-25.031 1.345-24.457 20.298a16.538 16.538 0 0 0 5.136 12.228c6.848 6.31 18.22 5.809 18.342 5.796a1.31 1.31 0 0 1 1.358 1.223 1.295 1.295 0 0 1-1.223 1.37l-.893-.025Z" fill="#070707"/><path d="M81.935 43.16c-3.136 28.046 40.911 40.987 66.564 43.514 35.879 4.012 46.195 2.095 55.183 1.565L207.5 100l16.513-15.627c12.294-2.719 66.168-6.672 64.995-38.27-1.275-34.321-75.499-41.188-101.424-42.04-25.926-.852-101.492 1.92-105.65 39.097Z" fill="#fff"/><path d="M126.6 26.544c-.031.052-.114.12-.248.202.176.114.331.238.465.373.145.134.233.253.264.357.301.476.451 1.035.451 1.677a4.6 4.6 0 0 1-.109.994c-.259.497-.414.787-.466.87-.217.414-.549.771-.994 1.072-.445.3-.854.497-1.227.59a4.542 4.542 0 0 1-1.32.201 4.23 4.23 0 0 1-.435-.03 3.023 3.023 0 0 1-.714-.14 4.354 4.354 0 0 1-.792-.358 2.787 2.787 0 0 1-.807-.652 6.632 6.632 0 0 1-.622-.885.792.792 0 0 1-.124-.45c0-.197.062-.389.186-.575.125-.186.275-.336.451-.45a.74.74 0 0 1 .388-.125c.083 0 .155.016.217.047.073.031.125.052.156.062.196.031.321.135.372.31a1.7 1.7 0 0 0 .094.28c-.073.218-.13.368-.171.45a.401.401 0 0 1-.171.203c.155.238.347.44.575.605.124.093.3.176.528.249.238.072.403.098.497.077.01-.01.036-.015.077-.015a.42.42 0 0 1 .156.03c.062.011.098.011.108 0a.855.855 0 0 1 .28-.03.916.916 0 0 0 .341-.078c.332-.093.627-.222.886-.388a3.47 3.47 0 0 0 .73-.683c.155-.218.258-.41.31-.575a2.72 2.72 0 0 0 .124-.699c.021-.155 0-.331-.062-.528a8.695 8.695 0 0 1-.124-.42l-.202-.154-.341-.094c-.27-.082-.461-.124-.575-.124-.124 0-.254.02-.388.062a1.578 1.578 0 0 1-.358.078.628.628 0 0 1-.31-.078 1.718 1.718 0 0 0-.155-.108.817.817 0 0 1-.389-.327 1.014 1.014 0 0 1-.155-.512.49.49 0 0 1 .078-.264.614.614 0 0 1 .295-.264.733.733 0 0 1 .45-.078c.042.01.098.016.171.016.145 0 .321-.042.528-.125.124-.04.321-.155.59-.341.269-.187.404-.275.404-.264.342-.435.585-.761.73-.979.155-.227.279-.476.373-.745.113-.207.17-.43.17-.668 0-.134-.026-.264-.077-.388-.011-.062-.083-.114-.218-.155a1.272 1.272 0 0 0-.372-.063.388.388 0 0 0-.14.016c-.166.01-.409.072-.73.186-.321.104-.513.182-.575.233-.559.477-.895.797-1.009.963a.417.417 0 0 1-.218.171.753.753 0 0 1-.31.062c-.197 0-.326-.052-.388-.155a1.113 1.113 0 0 1-.171-.59c0-.238.088-.466.264-.684.196-.248.367-.445.512-.59.145-.155.316-.29.513-.404l.295-.17a9.32 9.32 0 0 0 .279-.156c.156-.082.301-.145.435-.186.042-.01.161-.052.357-.124a1.962 1.962 0 0 1 .87-.094c.352.032.611.094.777.187.176.093.445.295.807.606.155.103.28.284.373.543.093.259.14.554.14.885 0 .497-.094.948-.28 1.351a3.52 3.52 0 0 0-.171.327c-.02.041-.088.165-.202.372a2.733 2.733 0 0 1-.357.528c-.093.125-.29.368-.59.73Zm1.653 6.274a1.13 1.13 0 0 1-.249-.17.316.316 0 0 1-.062-.202c0-.104.042-.249.125-.435.093-.197.248-.502.465-.916.063-.135.182-.373.358-.715.445-.849.667-1.475.667-1.879a.223.223 0 0 1-.015-.093c0-.104.083-.197.248-.28a5.78 5.78 0 0 1 .326-.264c.197-.145.352-.31.466-.497.135-.31.306-.652.513-1.025.207-.383.564-1.004 1.071-1.863a19.382 19.382 0 0 1 1.585-2.47 1.33 1.33 0 0 1 .341-.341c.135-.083.249-.124.342-.124.321 0 .647.124.978.372.342.249.565.497.668.746.041.072.062.228.062.466 0 .32-.036.864-.109 1.63-.02.135-.041.347-.062.637-.031.466-.077.963-.139 1.49a157.12 157.12 0 0 0-.249 2.719 23.135 23.135 0 0 0-.078 1.832c0 .29.006.502.016.637v.109l-.016.357c-.062.062-.186.093-.372.093-.207 0-.414-.036-.622-.109-.207-.062-.32-.14-.341-.233a.19.19 0 0 0-.047-.03c-.02-.011-.031-.058-.031-.14l.016-.342.046-.87.078-2.376-.202.016c-.207 0-.647.041-1.32.124-.663.083-1.082.15-1.258.202-.093 0-.207.062-.342.186a1.788 1.788 0 0 0-.357.482 2.356 2.356 0 0 1-.217.45c-.114.186-.171.295-.171.326a.674.674 0 0 0-.171.17 1.973 1.973 0 0 0-.078.125c0 .114-.103.41-.31.885a7.402 7.402 0 0 1-.59 1.15l-.42.59-.543-.42Zm3.712-5.342.434-.062a4.71 4.71 0 0 1 .575-.078c.497-.124.839-.186 1.025-.186.104 0 .176.01.217.031a.397.397 0 0 0 .094.093c.041.01.067.016.077.016.021-.083.104-.647.249-1.693.145-1.046.217-1.688.217-1.926 0-.165-.005-.305-.015-.42a1.49 1.49 0 0 0-.031-.232c-.094 0-.306.248-.637.745-.331.487-.652 1.04-.963 1.662-.238.425-.404.637-.497.637-.072.072-.228.316-.466.73-.238.414-.331.642-.279.683Zm9.674 5.389a2.725 2.725 0 0 1-.466-.45c-.124-.166-.187-.316-.187-.45 0-.198.171-.337.513-.42 1.066-.259 2.262-1.3 3.587-3.122-.455-.248-.797-.507-1.025-.776-.227-.28-.393-.663-.497-1.15a3.028 3.028 0 0 1-.077-.62c.052-.073.077-.182.077-.327.011-.145.026-.248.047-.31l.342-1.01c.341-.983 1.294-1.744 2.857-2.283.508-.207.88-.295 1.118-.264l.202-.015a.881.881 0 0 1 .435-.031.475.475 0 0 1 .14-.016c.176 0 .373.057.59.171.228.104.419.238.575.404.165.165.248.331.248.497a.417.417 0 0 1-.015.124c-.104.3-.171.492-.202.575-.166.517-.301.9-.404 1.149-.28.683-.606 1.656-.978 2.92-.363 1.263-.57 2.184-.622 2.764-.082.228-.155.606-.217 1.134-.01.093-.031.227-.062.403a3.104 3.104 0 0 1-.078.435c-.031.135-.124.254-.279.357a.838.838 0 0 1-.466.156.481.481 0 0 1-.218-.047 1.499 1.499 0 0 1-.326-.233 9.901 9.901 0 0 1-.326-.31c.031-.114.067-.285.109-.513.041-.28.098-.507.171-.683a9.63 9.63 0 0 1 .139-.886 2.47 2.47 0 0 0 .062-.326c.063-.33.125-.574.187-.73l.031-.248c-.145.238-.544.72-1.196 1.444a16.516 16.516 0 0 1-2.065 1.942c-.715.559-1.289.807-1.724.745Zm5.327-5.575c.486-1.543.9-2.915 1.242-4.116a4.107 4.107 0 0 0-1.398.42 3.54 3.54 0 0 0-1.149.9 2.33 2.33 0 0 0-.544 1.258c-.02.166-.046.29-.077.373a.447.447 0 0 0-.047.202c0 .207.083.409.249.605.176.197.357.296.543.296a.746.746 0 0 0 .389-.125c.134-.083.212-.13.232-.14l.56.327Zm10.329 5.777c-.228 0-.534-.057-.917-.17-.383-.105-.642-.296-.776-.576l-.264-.295c-.29-.31-.451-.491-.482-.543l-.497-.497a31.764 31.764 0 0 1-.574-.56 4.803 4.803 0 0 1-.404-.512c-.124-.124-.274-.341-.45-.652a2.329 2.329 0 0 0-.202-.31c-.062-.104-.119-.166-.171-.187-.114.083-.197.274-.249.575-.103.217-.217.585-.341 1.102a4.714 4.714 0 0 0-.218.606 16.7 16.7 0 0 1-.108.42c-.104.29-.182.46-.233.512l-.14.606c-.104.528-.259.791-.466.791-.135 0-.326-.108-.575-.326l-.217-.341c-.135-.197-.202-.306-.202-.326.021-.052.057-.156.109-.311.052-.166.114-.368.186-.606l.264-.823c.404-1.2.663-2.04.777-2.516a.241.241 0 0 0 .062-.124.903.903 0 0 0 .015-.17c.104-.311.275-.777.513-1.398.238-.632.419-1.046.543-1.243a.684.684 0 0 0 .063-.186.987.987 0 0 0 .015-.125.19.19 0 0 1 .031-.108.228.228 0 0 1 .109-.062c0-.135.026-.233.077-.295.073-.156.228-.58.466-1.274.249-.694.373-1.061.373-1.102 0-.052.021-.104.062-.156.042-.052.068-.083.078-.093.083-.072.222-.109.419-.109.176 0 .352.042.528.125.187.072.321.17.404.295 0 .072-.021.18-.062.326a3 3 0 0 1-.14.435l-.295.667c-.021.073-.083.254-.186.544-.094.28-.213.616-.358 1.01-.217.434-.388.817-.512 1.149-.124.331-.166.517-.124.559.072-.052.228-.181.466-.389.248-.217.512-.46.792-.73a14.078 14.078 0 0 1 1.755-1.521c.766-.518 1.247-.834 1.444-.948.197-.114.378-.176.543-.186a.458.458 0 0 1 .171-.031.3.3 0 0 1 .156.062c.062.041.124.078.186.109.031.062.062.17.093.326.042.145.067.243.078.295.01.103-.052.233-.187.388a1.66 1.66 0 0 1-.528.388 40.581 40.581 0 0 0-2.748 1.88c-1.015.745-1.574 1.242-1.678 1.49-.051.063-.062.12-.031.171.031.052.093.124.187.218.103.082.191.155.264.217.134.166.238.3.31.404.083.093.135.155.156.186 0 .062.341.42 1.025 1.072.02.052.124.181.31.388.269.29.456.523.559.699.673.704 1.01 1.222 1.01 1.553 0 .155-.088.233-.264.233Zm2.933.078c-.093.093-.228.14-.404.14-.248 0-.486-.094-.714-.28a.824.824 0 0 1-.326-.668c0-.093.015-.192.047-.295l1.956-6.383.233-.76a26.42 26.42 0 0 0 .42-1.445c.103-.383.191-.818.264-1.305l.201-.217a.882.882 0 0 1 .202-.031c.27 0 .513.108.73.326.218.207.326.44.326.699a.856.856 0 0 1-.015.186c-.093.404-.269.973-.528 1.708l-.186.528a135.177 135.177 0 0 0-1.522 4.613 60.717 60.717 0 0 1 1.522-2.035c.993-1.283 2.194-2.562 3.603-3.835.124-.114.383-.394.776-.84.393-.455.689-.807.885-1.055a2.31 2.31 0 0 0 .156-.187.651.651 0 0 1 .232-.217.518.518 0 0 1 .28-.078c.217 0 .435.12.652.358.228.227.342.46.342.698 0 .042-.01.104-.031.187l-.513 1.398c-.31.859-.755 2.158-1.335 3.898-.031.082-.062.17-.093.264-.031.093-.068.196-.109.31-.29.777-.466 1.377-.528 1.802l-.078.481c-.124.787-.243 1.362-.357 1.724-.072.228-.217.342-.435.342-.165 0-.347-.063-.543-.187a1.32 1.32 0 0 1-.404-.388.528.528 0 0 1-.062-.388c.124-.611.31-1.393.559-2.345.093-.352.238-.777.435-1.274.196-.497.393-.957.59-1.382.072-.155.145-.362.217-.621.083-.31.161-.539.233-.684.228-.455.383-1.009.466-1.661-.124.228-.248.42-.373.574-.124.145-.29.332-.497.56l-.698.714-.156.124a1.616 1.616 0 0 1-.14.124c-.02.021-.222.249-.605.684-.228.269-.383.445-.466.528-.259.269-.606.683-1.041 1.242-.445.538-.683.823-.714.854-.342.404-.689.829-1.041 1.274a4.867 4.867 0 0 0-.792 1.428 1.071 1.071 0 0 1-.341.498l-.28.294Zm19.834-10.033c0 .052-.016.088-.047.109-.031.01-.046.02-.046.03 0 .011.02.032.062.063l-.109.512a94.31 94.31 0 0 1-.264 1.305 47.35 47.35 0 0 0-.279 1.584l-.218 1.662c-.093.735-.16 1.3-.202 1.693-.031.393-.046.807-.046 1.242 0 .497.015.875.046 1.134.042.269.062.424.062.466 0 .062-.072.155-.217.28a.721.721 0 0 1-.481.185.626.626 0 0 1-.591-.341c-.124-.218-.196-.56-.217-1.025 0-.694.052-1.62.155-2.78.031-.073.047-.212.047-.42a.967.967 0 0 0-.031-.279 1.457 1.457 0 0 1 .046-.435c.011-.041.021-.098.031-.17.011-.073.016-.14.016-.203 0-.051.021-.16.062-.326.062-.186.093-.33.093-.434v-.109c.031-.093.062-.207.093-.342a1.52 1.52 0 0 0 .063-.264.86.86 0 0 1-.016-.217.583.583 0 0 0-.031-.233c.062-.176.135-.445.217-.808l.187-.745c-.011 0-.124.207-.342.621a9.452 9.452 0 0 1-.761 1.227 9.562 9.562 0 0 1-.699.994l-.372.481c-.135.176-.264.342-.389.497a1.9 1.9 0 0 0-.248.435c-.218.538-.471.932-.761 1.18-.28.249-.564.389-.854.42l-.249.03h-.093c-.197 0-.362-.129-.497-.388-.124-.258-.186-.74-.186-1.444l.015-.42.047-.869c.031-.176.057-.466.077-.87.021-.414.037-.688.047-.823-.052.052-.145.244-.279.575-.125.331-.202.544-.233.637l-.14.357c-.052.072-.13.27-.233.59-.083.238-.197.528-.342.87a18.308 18.308 0 0 1-.621 1.77 10.561 10.561 0 0 0-.435 1.072 7.853 7.853 0 0 1-.279.668c-.446 1.004-.818 1.506-1.119 1.506-.165 0-.331-.088-.497-.264a.781.781 0 0 1-.233-.544c0-.145.057-.336.171-.574.114-.249.28-.57.497-.963l.326-.606c0-.052.125-.404.373-1.056l.218-.574.962-2.547.016-.063.093-.232a4.29 4.29 0 0 1 .171-.373c.145-.331.217-.523.217-.575v-.03c0-.032.011-.053.031-.063a.26.26 0 0 1 .063-.015c.041-.114.113-.29.217-.528.114-.249.202-.435.264-.56l-.016-.062a.56.56 0 0 1 .047-.248c.041-.062.083-.12.124-.171a1.46 1.46 0 0 0 .125-.14c0-.062.031-.145.093-.248.062-.114.134-.228.217-.342a3.31 3.31 0 0 0 .326-.512.511.511 0 0 1 .482-.296c.155 0 .31.063.466.187.155.124.284.264.388.42.103.144.155.242.155.294 0 .031-.015.052-.046.062-.031.01-.047.037-.047.078v.062a.986.986 0 0 1-.062.56c-.093.362-.14.76-.14 1.195l.016.45c0 .083-.021.145-.062.187a2.021 2.021 0 0 0-.078.108v.031l-.016.125.016.093a.982.982 0 0 1-.078.342 4.524 4.524 0 0 0-.093.388 8.857 8.857 0 0 0-.062 1.056c0 .538.047.833.14.885l1.118-1.662c.952-1.408 1.434-2.127 1.444-2.158a.57.57 0 0 0 .202-.233c-.01 0-.015-.01-.015-.031 0-.052.134-.275.403-.668.269-.404.559-.766.87-1.087.311-.332.564-.497.761-.497.093 0 .217.062.373.186.165.124.31.28.435.466.124.176.186.342.186.497Zm6.033 10.608c-.062-.022-.187-.063-.373-.125a1.743 1.743 0 0 0-.388-.078.567.567 0 0 1-.311-.202.611.611 0 0 1-.109-.357c0-.072.006-.13.016-.17.031-.032.057-.114.078-.25a1.4 1.4 0 0 0 .046-.34 1.47 1.47 0 0 0 .078-.187c.021-.073.046-.171.078-.295.082-.456.274-1.222.574-2.299.3-1.076.487-1.651.559-1.724v-.17c0-.031.011-.093.031-.187a.857.857 0 0 1 .14-.295 2.55 2.55 0 0 0 .093-.357c.031-.124.052-.217.062-.28.042-.051.109-.207.202-.465.104-.26.171-.43.202-.513.073-.197.161-.424.264-.683.114-.27.192-.445.233-.528v-.078c.021-.02.073-.124.155-.31.094-.197.171-.363.233-.498.073-.165.264-.595.575-1.288l.171-.358c.093-.196.14-.32.14-.372a.455.455 0 0 1 .341-.171c.156 0 .3.072.435.217.145.135.259.28.342.435l.155.248-.575 1.119c-.155.28-.295.543-.419.792-.124.238-.186.378-.186.419-.031.072-.088.223-.171.45-.073.228-.155.487-.249.777-.145.393-.264.688-.357.885-.083.166-.124.264-.124.295 0-.041.575-.062 1.724-.062.176 0 .497-.005.963-.015.466-.01.761-.026.885-.047l.807-.078.435-1.382a60.83 60.83 0 0 1 .684-2.112c.145-.435.31-.756.497-.963.186-.217.352-.326.497-.326.041 0 .145.062.31.186.176.114.28.213.311.295.114.114.171.233.171.358 0 .145-.083.346-.249.605-.124.218-.3.627-.528 1.227-.093.28-.15.44-.171.482 0 .217-.051.378-.155.481-.041.042-.114.192-.217.45-.104.249-.156.394-.156.435a.983.983 0 0 1-.046.28.522.522 0 0 1-.109.202l-.109.373c-.362 1.314-.647 2.225-.854 2.733a.956.956 0 0 1-.078.28.977.977 0 0 0-.077.279 15.72 15.72 0 0 1-.14.435c-.072.217-.109.346-.109.388-.072.32-.145.699-.217 1.134-.073.434-.119.74-.14.916a.957.957 0 0 1-.435-.031 1.408 1.408 0 0 1-.326-.171 3.859 3.859 0 0 0-.217-.124c-.249-.135-.373-.321-.373-.56 0-.134.047-.294.14-.48.031-.052.129-.389.295-1.01l.14-.575c.082-.228.155-.445.217-.652.062-.218.119-.404.171-.56.166-.6.269-.92.31-.962v-.155c-.031-.052-.336-.078-.916-.078-.631 0-1.289.041-1.972.124h-1.336c-.051.114-.202.57-.45 1.367-.249.787-.388 1.289-.419 1.506-.073.342-.187.813-.342 1.414-.155.61-.274 1.056-.357 1.335Zm9.586-.87a6.65 6.65 0 0 1-.932-.808c-.218-.238-.332-.466-.342-.683a1.727 1.727 0 0 1-.015-.28c0-.29.025-.652.077-1.087.052-.435.104-.782.156-1.04.041-.042.062-.104.062-.187.01-.083.01-.134 0-.155 0-.031.026-.135.077-.31.125-.384.213-.705.264-.964.28-.849.554-1.527.823-2.034.27-.508.57-.984.901-1.429.704-.725 1.455-1.273 2.252-1.646.404-.238.694-.357.87-.357.031 0 .077.01.139.03 1.274.28 2.035 1.088 2.283 2.423.094.632.14 1.108.14 1.43 0 .517-.093 1.04-.279 1.568-.187.528-.523 1.19-1.01 1.988-.414.828-.885 1.537-1.413 2.127-.518.58-1.041 1.015-1.569 1.305-.517.29-1.004.435-1.459.435-.404 0-.746-.11-1.025-.327Zm1.242-1.026a2.03 2.03 0 0 0 .575-.14c.145-.061.289-.165.434-.31.156-.155.404-.43.746-.823.435-.497.74-.86.916-1.087a4.14 4.14 0 0 0 .482-.885c.155-.352.326-.86.512-1.522l.093-.357a4.4 4.4 0 0 0 .124-.528c.032-.145.047-.3.047-.466l-.015-.979a2.826 2.826 0 0 0-.109-.605c-.062-.218-.135-.373-.218-.466a.938.938 0 0 0-.341-.233.877.877 0 0 0-.42-.109c-.103 0-.222.026-.357.078-.196.082-.471.305-.823.667-.352.352-.668.715-.947 1.087-.269.373-.404.622-.404.746a.82.82 0 0 1-.015.093.353.353 0 0 1-.063.14c-.269.29-.543.9-.823 1.832-.269.932-.424 1.745-.466 2.439-.01.3-.01.507 0 .62.021.115.078.244.171.39.073.113.202.222.388.325.197.093.368.124.513.093Zm16.507-8.712c0 .135-.037.31-.109.528a8.806 8.806 0 0 0-.249.994 5.2 5.2 0 0 0-.077.776l.015.156c-.062.134-.114.341-.155.621a3.562 3.562 0 0 1-.062.342.252.252 0 0 1-.109.155c0 .041.005.109.016.202.02.093.031.17.031.233v.186c-.197 1.129-.295 2.128-.295 2.997 0 .456.031.813.093 1.072.072.259.166.399.279.42.021 0 .037.005.047.015.01.01.016.036.016.078a.685.685 0 0 1-.109.372 1.656 1.656 0 0 1-.218.31 2.831 2.831 0 0 1-.186.218 2.871 2.871 0 0 1-.078.11c-.02.04-.057.061-.108.061a1.75 1.75 0 0 1-.389-.078c-.031-.062-.129-.14-.295-.232-.165-.083-.3-.26-.403-.528-.104-.27-.156-.725-.156-1.367 0-.176.005-.316.016-.42v-.046a1.459 1.459 0 0 1-.016-.264c0-.476.052-1.077.156-1.802a37.22 37.22 0 0 1 .357-1.987c.083-.352.191-.787.326-1.305.135-.538.202-.828.202-.87l-.016-.015c.021.031-.207.45-.683 1.258-.476.797-.766 1.268-.87 1.413-.051.073-.15.259-.295.56l-.435.9c-.849 1.263-1.501 1.895-1.956 1.895-.435 0-.72-.156-.855-.466a2.557 2.557 0 0 1-.201-.823 13.663 13.663 0 0 1-.016-.435c.021-.114.031-.249.031-.404v-.17c0-.032.01-.115.031-.25.031-.144.057-.305.078-.48 0-.063.052-.384.155-.964.145-.704.217-1.154.217-1.35 0-.042-.005-.068-.015-.078v.03c0 .032-.062.146-.186.342a6.203 6.203 0 0 0-.544.87c-.197.383-.481.958-.854 1.724a14.18 14.18 0 0 0-.326.668c-.031.32-.249.905-.653 1.755l-.139.357c-.311.776-.559 1.346-.746 1.708-.176.352-.31.523-.404.513-.051 0-.16-.052-.326-.156a2.012 2.012 0 0 1-.45-.388c-.135-.155-.202-.31-.202-.466 0-.02.088-.207.264-.559.29-.59.45-.942.482-1.056.01-.041.02-.098.031-.17.02-.073.134-.26.341-.56 0-.062.047-.217.14-.466.104-.259.238-.554.404-.885a.646.646 0 0 0 .124-.357c.093-.114.212-.368.357-.761.052-.145.104-.285.156-.42.062-.134.124-.238.186-.31.031-.02.083-.093.155-.218a32.229 32.229 0 0 1 .963-1.646l.186-.341c.042-.114.078-.177.109-.187.042-.01.212-.295.513-.854.466-.652.735-.978.807-.978.062 0 .171.036.326.108.166.073.311.16.435.264.135.104.202.197.202.28 0 .031.005.119.016.264.01.145.015.3.015.466 0 .404-.171 1.75-.512 4.038l-.078.497c.01.03.026.093.047.186.02.083.031.176.031.28.134-.208.253-.373.357-.498.269-.393.461-.704.574-.931 0-.052.016-.104.047-.156a2.43 2.43 0 0 0 .124-.17c.083-.104.145-.197.187-.28a.496.496 0 0 0 .077-.264c.29-.414.549-.807.777-1.18.869-1.356 1.408-2.128 1.615-2.314a.864.864 0 0 1 .326-.155c.155-.042.3-.063.435-.063.29 0 .512.088.668.264a.895.895 0 0 1 .233.637Zm5.001 9.97a6.28 6.28 0 0 1-1.196-.093c-.3-.051-.569-.17-.807-.357-.497-.373-.746-.927-.746-1.662 0-.31.057-.693.171-1.149.052-.27.109-.497.171-.683.072-.197.134-.295.186-.295l.109-.575c.01-.062.031-.145.062-.248.031-.114.057-.197.078-.249a.395.395 0 0 1 .093-.14c.041-.03.103-.17.186-.419 0-.02.005-.067.016-.14a.958.958 0 0 1 .077-.248c.156-.259.233-.43.233-.513a.915.915 0 0 1 .125-.186c.072-.093.129-.202.17-.326l.202-.357c.311-.55.533-.948.668-1.196.135-.259.217-.471.249-.637.031-.072.072-.202.124-.388.062-.187.129-.316.202-.388-.031-.063.072-.14.31-.233.249-.094.549-.182.901-.264a6.55 6.55 0 0 1 .963-.156c.062-.041.202-.072.419-.093.218-.02.461-.031.73-.031.186 0 .445.01.777.031.165 0 .305.02.419.062.124.031.233.073.326.124.093.042.161.073.202.094l.202.201c.124.104.186.213.186.327 0 .103-.067.191-.202.264-.031.03-.202.057-.512.077-.3.021-.627.031-.979.031a6.02 6.02 0 0 0-1.226.14 1.99 1.99 0 0 1-.358.047 1.806 1.806 0 0 1-.466.077c-.176.01-.289.016-.341.016-.042 0-.187.197-.435.59-.238.393-.362.627-.373.699a.577.577 0 0 1-.093.295 8.272 8.272 0 0 1-.326.481c-.135.187-.202.363-.202.529 0 .103.031.165.093.186.332-.052.73-.099 1.196-.14.476-.052.823-.078 1.041-.078a1.15 1.15 0 0 1 .279-.046c.145 0 .28.036.404.109.166.03.248.14.248.326a.46.46 0 0 1-.062.233c-.031.072-.072.119-.124.14-.093.093-.414.212-.963.357-.538.144-1.103.28-1.693.403-.59.114-.921.16-.994.14-.031-.072-.062-.109-.093-.109-.103 0-.233.342-.388 1.025a9.58 9.58 0 0 0-.342.823c-.041.125-.103.42-.186.886a2.175 2.175 0 0 0-.062.388c0 .404.238.714.714.932.176.03.357.046.544.046.341 0 .756-.062 1.242-.186.042-.02.357-.197.948-.528.031 0 .108-.02.232-.062.135-.052.213-.078.233-.078a.373.373 0 0 1 .311-.17c.031 0 .098.051.202.155.103.103.197.227.279.372a.789.789 0 0 1 .125.42c0 .103-.156.233-.466.388a22.6 22.6 0 0 1-1.351.575 9.81 9.81 0 0 1-.917.357c-.176.051-.424.077-.745.077Zm6.5.264a9.93 9.93 0 0 0-.249-.108 1.314 1.314 0 0 1-.357-.202c-.104-.083-.155-.166-.155-.249-.021-.041-.021-.119 0-.233.02-.114.072-.315.155-.605l.093-.342c.093-.3.14-.456.14-.466.01.01.026.016.046.016.094 0 .14-.125.14-.373-.01-.041 0-.109.031-.202.042-.093.088-.186.14-.28 0-.072.041-.336.124-.791a13.21 13.21 0 0 1 .823-2.097 1.64 1.64 0 0 1 .109-.357 1.59 1.59 0 0 1 .14-.295 2.63 2.63 0 0 1 .171-.59c.093-.249.186-.415.279-.497 0-.114.088-.368.264-.761.176-.394.28-.59.311-.59 0-.01.01-.047.031-.11.031-.072.088-.165.171-.279 0-.052.01-.119.031-.202a.34.34 0 0 1 .14-.202 2.75 2.75 0 0 0 .046-.186.43.43 0 0 0 .016-.186c0-.031-.011-.052-.031-.062a.496.496 0 0 1-.031-.187c0-.145.093-.222.279-.233.062 0 .135-.088.217-.264.042-.083.156-.155.342-.217a7.57 7.57 0 0 1 .808-.202l.823-.14a6.268 6.268 0 0 1 1.118.109c.383.186.714.445.994.776.29.321.435.606.435.854 0 .311-.124.813-.373 1.507-.238.694-.445 1.108-.621 1.242.052 0 .031.057-.062.171a2.953 2.953 0 0 1-.357.357c-.135.125-.239.197-.311.218 0 .02-.042.093-.124.217a.85.85 0 0 1-.295.28c-.031.02-.14.088-.327.202a1.276 1.276 0 0 0-.419.388c0-.052-.015-.078-.046-.078-.042 0-.104.037-.187.109a.914.914 0 0 1-.171.124 2.292 2.292 0 0 1-.543.264 6.996 6.996 0 0 1-.668.14c-.072.062-.259.093-.559.093l-.575-.078-.326.932a29.5 29.5 0 0 1-.497 1.43c-.041.103-.114.3-.217.59-.104.279-.202.579-.295.9a1.165 1.165 0 0 1-.171.45.668.668 0 0 1-.249.28c-.082.052-.15.057-.201.015Zm2.515-5.792c.466-.042.824-.124 1.072-.249.259-.124.554-.347.885-.668l.482-.481c.29-.28.533-.554.73-.823.279-.414.419-.839.419-1.274 0-.207-.036-.383-.109-.528a.878.878 0 0 0-.761-.403c-.279 0-.58.093-.901.28-.103.04-.315.382-.636 1.024a23.337 23.337 0 0 0-.854 1.957c-.249.663-.358 1.05-.327 1.165Zm7.619 5.186c-.155 0-.393-.061-.714-.186a4.78 4.78 0 0 1-.885-.465c-.28-.187-.461-.373-.544-.56l-.031-.062a2.145 2.145 0 0 1-.233-1.6c.041-.175.067-.284.078-.325.093-.321.139-.585.139-.793a5.42 5.42 0 0 0 .233-.31c.114-.155.182-.254.202-.295a.375.375 0 0 0 .031-.14v-.233a.37.37 0 0 1 .078-.217.848.848 0 0 1 .155-.171.931.931 0 0 1 .124-.093l.063.015c.02 0 .098-.15.233-.45.134-.31.264-.637.388-.979.517-.952 1.097-1.744 1.739-2.376.642-.642 1.212-1.071 1.708-1.289.042-.01.12-.02.233-.03l.327-.032c.196.01.434.057.714.14.28.083.43.145.45.186 0 .042.011.068.031.078.031.01.052.015.063.015.093-.01.258.14.496.45.249.301.43.586.544.855.124.197.186.528.186.994 0 .393-.057.885-.17 1.475-.114.58-.228.994-.342 1.243a22.056 22.056 0 0 1-1.025 2.36c-.414.829-.792 1.253-1.134 1.274-.01 0-.02.01-.031.03-.01.011-.015.032-.015.063s-.14.166-.42.404c-.269.238-.507.435-.714.59l-.295.109a4.464 4.464 0 0 1-.854.217c-.321.062-.59.098-.808.109Zm.016-1.413c.445 0 .766-.01.963-.03.196-.021.403-.088.621-.202.228-.125.471-.337.73-.637a1.89 1.89 0 0 1 .248-.373c.01-.02.093-.166.249-.435.155-.269.3-.403.434-.403 0-.052.042-.192.125-.42.083-.238.145-.373.186-.404.021-.01.073-.124.155-.341.083-.228.161-.477.233-.746.073-.269.109-.491.109-.667.186-.197.269-.306.249-.327a.234.234 0 0 1-.016-.062v-.155c0-.3.021-.456.062-.466.052-.02.078-.036.078-.047a.181.181 0 0 0-.062-.062c-.021-.02-.031-.041-.031-.062 0-.01.015-.03.046-.062a.169.169 0 0 0 .047-.124c-.021-.259-.166-.71-.435-1.351a.867.867 0 0 1-.124-.109.384.384 0 0 0-.171-.124.357.357 0 0 0-.187-.047c-.041 0-.113.01-.217.031-.041-.041-.083-.062-.124-.062a.345.345 0 0 0-.109.016l-.078.03a1.387 1.387 0 0 0-.512.218 5.37 5.37 0 0 0-.497.497l-.264.28c-.083.28-.254.522-.513.73a1.106 1.106 0 0 0-.186.232 2.299 2.299 0 0 1-.186.233l-.093.187c-.228.373-.471.87-.73 1.49a25.2 25.2 0 0 0-.668 1.74c-.186.549-.28.896-.28 1.04 0 .29.094.523.28.7.197.175.419.274.668.294Zm6.003 1.88c-.156 0-.316-.104-.482-.31-.165-.198-.248-.446-.248-.746 0-.239.057-.472.171-.7a5.94 5.94 0 0 1 .621-1.055c.072-.104.124-.192.155-.264a.72.72 0 0 0 .078-.295c.145-.187.336-.523.574-1.01.404-.652.979-1.656 1.724-3.013.104-.186.306-.554.606-1.102.311-.549.518-.875.621-.979l.078-.108c-.031.051.021-.068.155-.358a6.6 6.6 0 0 1 .451-.776c.165-.238.31-.357.434-.357.135 0 .29.057.466.17.176.104.326.265.451.482.134.207.202.455.202.745 0 .125-.006.223-.016.296l-.155 1.055-.078.342c-.135.683-.336 1.62-.606 2.811-.238 1.056-.357 1.693-.357 1.91 0 .063.011.114.031.156.021.03.047.046.078.046.021 0 .072-.03.155-.093a.926.926 0 0 0 .218-.31l.202-.311.264-.388c.289-.404.647-.948 1.071-1.631a146.98 146.98 0 0 0 2.066-3.556c.196-.29.357-.544.481-.761.166-.27.326-.523.481-.761.156-.238.275-.389.358-.45a.6.6 0 0 1 .388-.125c.155.01.316.067.481.17.176.104.321.25.435.436.124.186.187.388.187.605 0 .249-.078.704-.233 1.367a21.745 21.745 0 0 1-.513 1.926c-.041.217-.171.73-.388 1.537-.166.6-.29 1.077-.373 1.429a4.485 4.485 0 0 0-.109.854v.124c-.155.28-.233.839-.233 1.678-.041.341-.119.605-.233.792-.113.196-.207.295-.279.295l-.047-.016a.25.25 0 0 0-.155.062c-.041.052-.103.078-.186.078-.259 0-.43-.093-.513-.28-.072-.186-.108-.44-.108-.76 0-.187.005-.342.015-.466.031-.27.362-1.672.994-4.21.497-1.987.745-3.027.745-3.12l-.217.372c-.207.393-.466.854-.777 1.382l-1.087 2.035a4.69 4.69 0 0 0-.341.543c-.083.176-.13.28-.14.31-.124.25-.373.607-.746 1.072a2.606 2.606 0 0 0-.217.296c-.052.113-.217.315-.497.605-.279.28-.574.539-.885.777-.311.227-.57.341-.777.341-.279 0-.533-.134-.761-.404a1.51 1.51 0 0 1-.326-.978c0-.28.052-.745.156-1.398.165-.714.341-1.439.528-2.174.186-.735.315-1.216.388-1.444a.98.98 0 0 0 .046-.31c0-.073-.01-.12-.031-.14-.01 0-.025.01-.046.03a25.91 25.91 0 0 0-.777 1.382 40.407 40.407 0 0 0-1.071 2.19c-1.481 2.724-2.33 4.21-2.547 4.458Zm-136.249 19.63c-.042.041-.083.062-.124.062-.052 0-.14-.031-.264-.093a.958.958 0 0 1-.466-.264.594.594 0 0 1-.187-.435c0-.042.021-.124.062-.249.094-.176.332-1.04.715-2.593l.264-1.025c0-.01.021-.171.062-.482.031-.155.078-.44.14-.854.124-.238.207-.497.248-.776.052-.29.083-.456.093-.497.073-.29.125-.471.156-.544l.139-.543.094-.358c.072-.258.108-.424.108-.496v-.249h-.574l-.249.015a3.72 3.72 0 0 1-.388-.015l-.544-.016c-.486-.02-.812-.067-.978-.14-.166-.082-.254-.237-.264-.465-.041-.207.062-.368.311-.482.248-.124.755-.176 1.522-.155.145-.01.341-.016.59-.016.248 0 .45.006.605.016.156.01.244.016.264.016a.37.37 0 0 0 .078-.125 2.55 2.55 0 0 0 .047-.124c0-.176.057-.285.17-.326.063-.135.192-.202.389-.202.114 0 .227.026.341.078a.612.612 0 0 1 .264.217.844.844 0 0 1 .031.28c0 .134.032.233.094.295.041-.042.176-.068.403-.078.228-.01.389-.02.482-.03.197 0 .398-.006.606-.017.207-.02.346-.03.419-.03.093-.052.238-.078.435-.078.093 0 .222.01.388.03.207 0 .357.047.45.14.093.084.176.182.249.296 0 .114.026.196.077.248.042.031.063.062.063.093a.412.412 0 0 1-.063.14c-.072.093-.258.14-.559.14l-.326.015a6.142 6.142 0 0 1-.497.032 9.62 9.62 0 0 1-1.584.17c-.424 0-.637.042-.637.125-.062 0-.181.336-.357 1.009a7.59 7.59 0 0 1-.202.683 2.394 2.394 0 0 1-.155.404.228.228 0 0 1 .047.14c0 .052-.031.166-.094.342a4.475 4.475 0 0 1-.108.341.703.703 0 0 0-.062.249 9.768 9.768 0 0 1-.094.31 5.335 5.335 0 0 0-.108.528c-.052.497-.119.787-.202.87-.01.02-.036.062-.078.124a.445.445 0 0 0-.046.202c0 .145-.037.404-.109.777-.073.362-.13.559-.171.59.031 0 .047.03.047.093a.921.921 0 0 1-.094.326c0 .083-.015.181-.046.295a1.106 1.106 0 0 0-.047.233c-.103.29-.248.658-.435 1.103-.186.445-.3.688-.341.73Zm6.794-.047a1.892 1.892 0 0 1-.745-.233 7.083 7.083 0 0 1-.683-.42l-.42-.294a2.006 2.006 0 0 1-.403-.56 3.59 3.59 0 0 1-.233-.807 1.982 1.982 0 0 1-.031-.326c0-.31.051-.688.155-1.134a6.37 6.37 0 0 1 .342-1.056c.227-.549.729-1.428 1.506-2.64l.078-.078c.02-.02.026-.03.015-.03v-.016c0-.073.15-.393.451-.963.176-.186.264-.347.264-.481a.28.28 0 0 0-.047-.171c-.031-.042.01-.13.124-.264.114-.145.269-.3.466-.466a3.88 3.88 0 0 1 .652-.45c.28-.218.554-.327.823-.327.083 0 .151.016.202.047.062.02.099.057.109.109 0 .062.207.041.621-.063.187-.04.321-.067.404-.077.041-.052.145-.093.311-.124a7.93 7.93 0 0 1 .73-.125c.165.01.367.01.605 0 .249-.01.409-.02.482-.03.072-.021.176.025.31.14.145.113.259.258.342.434a.482.482 0 0 1 .031.14c0 .155-.098.29-.295.404-.197.103-.482.175-.854.217-.383.052-.72.103-1.01.155-.29.052-.652.124-1.087.218l-.326.062c-.321.051-.559.119-.714.202-.156.082-.321.264-.497.543-.073.052-.166.187-.28.404-.114.207-.228.425-.341.652l-.311.42c-.238.32-.388.533-.45.636-.052.093-.063.16-.032.202a5.48 5.48 0 0 0 .497.093c.094-.051.223-.088.389-.108.165-.021.284-.042.357-.063l.342-.093a99.507 99.507 0 0 1 1.413-.357 8.3 8.3 0 0 1 .668-.14.286.286 0 0 1 .186-.062c.114 0 .223.057.326.171a.912.912 0 0 1 .249.373c.041.145.062.238.062.28 0 .175-.104.31-.311.403-.207.083-.621.197-1.242.342a73.54 73.54 0 0 0-1.693.42c-.673.196-1.17.294-1.491.294-.269 0-.399-.088-.388-.264-.093-.052-.202.042-.326.28a4.32 4.32 0 0 0-.451 1.801c0 .135.016.249.047.342.093.248.233.46.419.637.187.165.445.295.777.388a4.306 4.306 0 0 0 .652.047c.207 0 .414-.042.621-.125.808-.134 1.377-.32 1.708-.559a.34.34 0 0 0 .14-.109c.052-.051.099-.077.14-.077l-.016.03c0 .011.032-.01.094-.061a3.38 3.38 0 0 1 .202-.187c.289-.248.61-.372.962-.372a.69.69 0 0 1 .311.062c.093.03.145.062.155.093.062.103.031.27-.093.497-.124.228-.321.466-.59.714a4.553 4.553 0 0 1-.87.653 6.151 6.151 0 0 1-1.708.59 9.285 9.285 0 0 1-1.802.217Zm14.158-7.16c.021-.103.078-.346.171-.73.093-.382.171-.734.233-1.055.062-.331.109-.642.14-.932-.394.01-.834.062-1.32.155l-.124.093c-.249.715-.565 1.45-.948 2.206-.341.693-.564 1.175-.668 1.444-.735 1.76-1.77 3.453-3.106 5.078a7.512 7.512 0 0 1-.636.684c-.249.238-.461.388-.637.45a.625.625 0 0 1-.249.047c-.227 0-.45-.093-.667-.28-.207-.186-.321-.393-.342-.621a.794.794 0 0 1 .249-.373.578.578 0 0 1 .403-.155c.104 0 .42-.316.948-.947.528-.642.88-1.093 1.056-1.352a5.83 5.83 0 0 0 .357-.62c.259-.477.492-.819.699-1.026.041-.207.103-.372.186-.497l.295-.62c.042-.094.119-.265.233-.513.114-.249.212-.446.295-.59.083-.145.15-.233.202-.265a9.265 9.265 0 0 1 .652-1.677l-.574.28c-.228.134-.43.238-.606.31a1.585 1.585 0 0 1-.559.093 2.21 2.21 0 0 1-.513-.077c-.124-.28-.186-.518-.186-.715 0-.29.104-.502.311-.636.217-.145.548-.29.994-.435l.388-.124c.186-.073.512-.176.978-.311.477-.145.834-.264 1.072-.357.145 0 .388-.02.73-.062.341-.042.554-.083.637-.124.227 0 .481.036.76.108.28.073.461.176.544.31.031.042.073.089.124.14a.358.358 0 0 1 .125.125l.326.248c.02.073.051.197.093.373.052.166.077.31.077.435 0 .217-.067.621-.201 1.211-.125.59-.223.968-.295 1.134a5.13 5.13 0 0 0-.171.76c-.083.477-.166.819-.249 1.026a3.249 3.249 0 0 0-.155.528c-.124.621-.373 1.454-.746 2.5a4.46 4.46 0 0 0-.062.171.648.648 0 0 1-.062.186c-.176.477-.31.901-.404 1.274-.041.052-.093.15-.155.295-.072.166-.134.274-.186.326-.176.176-.368.264-.575.264a.735.735 0 0 1-.512-.217 1.158 1.158 0 0 1-.326-.56c.331-.652.652-1.47.962-2.453.052-.155.088-.29.109-.404.031-.124.057-.222.078-.295a6.97 6.97 0 0 1 .295-1.025 1.99 1.99 0 0 0 .093-.388 11.4 11.4 0 0 0 .062-.326l.078-.389.279-1.102Zm6.708 7.331c-.486 0-.885-.031-1.195-.093a1.78 1.78 0 0 1-.808-.357c-.497-.373-.745-.927-.745-1.662 0-.31.057-.694.17-1.15.052-.269.109-.496.171-.683.073-.196.135-.295.187-.295l.108-.574a2.12 2.12 0 0 1 .063-.249c.031-.114.056-.197.077-.248a.423.423 0 0 1 .093-.14c.042-.031.104-.17.187-.42a.965.965 0 0 1 .093-.388c.155-.259.233-.43.233-.512a.893.893 0 0 1 .124-.186c.073-.094.129-.202.171-.327l.202-.357c.31-.549.533-.947.668-1.196.134-.259.217-.47.248-.636.031-.073.073-.202.124-.389.062-.186.13-.315.202-.388-.031-.062.073-.14.311-.233.248-.093.549-.181.901-.264a6.56 6.56 0 0 1 .962-.155c.063-.042.202-.073.42-.093.217-.021.46-.031.73-.031.186 0 .445.01.776.03.166 0 .306.021.419.063.125.03.233.072.327.124.093.041.16.072.201.093l.202.202c.125.104.187.212.187.326 0 .104-.068.192-.202.264-.031.031-.202.057-.513.078-.3.02-.626.03-.978.03a6.02 6.02 0 0 0-1.227.14 1.963 1.963 0 0 1-.357.047c-.124.042-.28.068-.466.078-.176.01-.29.016-.342.016-.041 0-.186.196-.435.59-.238.393-.362.626-.372.699a.577.577 0 0 1-.093.294 8.416 8.416 0 0 1-.327.482c-.134.186-.201.362-.201.528 0 .104.031.166.093.186.331-.051.73-.098 1.196-.14.476-.051.823-.077 1.04-.077.114-.031.207-.047.28-.047a.78.78 0 0 1 .403.11c.166.03.249.139.249.325 0 .083-.021.16-.062.233-.031.073-.073.12-.124.14-.094.093-.415.212-.963.357-.539.145-1.103.28-1.693.404-.59.114-.922.16-.994.14-.031-.073-.062-.11-.093-.11-.104 0-.233.343-.388 1.026a8.949 8.949 0 0 0-.342.823c-.042.124-.104.42-.187.885a2.175 2.175 0 0 0-.062.389c0 .403.239.714.715.931.176.031.357.047.543.047.342 0 .756-.062 1.243-.186.041-.021.357-.197.947-.529.031 0 .109-.02.233-.062a1.36 1.36 0 0 1 .233-.077.372.372 0 0 1 .311-.171c.031 0 .098.052.201.155.104.104.197.228.28.373a.787.787 0 0 1 .124.42c0 .103-.155.232-.466.388-.3.144-.75.336-1.351.574-.435.186-.74.305-.916.357-.176.052-.425.078-.746.078Zm15.958-7.408c.021.331.031.528.031.59 0 .238-.021.445-.062.621-.042.176-.135.539-.28 1.087-.217.415-.357.689-.419.824a7.552 7.552 0 0 1-.668 1.087c-.207.259-.585.61-1.133 1.056-.239.217-.648.435-1.227.652-.57.218-1.02.326-1.351.326-.094.01-.244.016-.451.016a2.14 2.14 0 0 1-.31-.016c-.011.259-.099.828-.264 1.709-.145.258-.306.388-.482.388a.413.413 0 0 1-.186-.047c-.187-.041-.352-.155-.497-.341-.145-.187-.207-.358-.187-.513.073-.248.151-.585.233-1.01l.078-.326-1.072-.574c-.289-.218-.605-.528-.947-.932-.342-.404-.549-.818-.621-1.242a3.136 3.136 0 0 1-.078-.777c0-.621.124-1.273.373-1.957.259-.693.6-1.294 1.025-1.801.155-.176.316-.331.481-.466.166-.135.327-.254.482-.357.155-.114.259-.192.31-.233l.466-.326c.094-.063.254-.145.482-.249a4.75 4.75 0 0 1 .605-.248 1.55 1.55 0 0 1 .358-.078c.124-.02.284-.031.481-.031.29 0 .554.005.792.016 0-.197.052-.503.155-.917.011-.083.026-.165.047-.248.021-.083.036-.16.047-.233 0-.135.062-.249.186-.342a.42.42 0 0 1 .404-.093c.186.041.362.135.528.28.165.144.248.269.248.372 0 .166-.01.31-.031.435l-.264 1.056c.476.186.942.44 1.398.761.342.238.59.44.745.606.166.165.29.357.373.574.083.218.15.518.202.901Zm-6.631 3.665c.072-.176.222-.606.45-1.289.455-1.325.802-2.262 1.04-2.81l.544-1.29-.233-.015c-.124 0-.248.015-.373.046-.259.052-.554.187-.885.404a8.969 8.969 0 0 0-.916.652c-.352.28-.611.58-.777.901-.476.89-.714 1.543-.714 1.957a2.42 2.42 0 0 0-.078.544c0 .217.031.408.093.574.063.166.151.326.264.481.145.249.332.45.56.606.238.156.497.29.776.404.031-.197.067-.414.109-.652.052-.238.098-.41.14-.513Zm5.342-3.416c.052-.539-.119-.927-.513-1.165a30.519 30.519 0 0 1-.419-.249 4.551 4.551 0 0 0-.528-.28 2.74 2.74 0 0 0-.435-.186c-.02.104-.088.296-.202.575a8.928 8.928 0 0 0-.295.745c-.134.311-.378.943-.73 1.895-.352.942-.569 1.553-.652 1.833l-.14.435a4.77 4.77 0 0 0-.217.745l-.109.42.575-.187c.083-.041.197-.078.341-.109.239-.072.415-.134.528-.186a3.329 3.329 0 0 0 1.227-.839c.363-.383.72-.906 1.072-1.568.072-.156.171-.461.295-.917.124-.455.192-.776.202-.962Zm3.968 6.818c-.156 0-.394-.063-.715-.187a4.844 4.844 0 0 1-.885-.466c-.28-.186-.461-.373-.544-.56l-.031-.061a2.155 2.155 0 0 1-.233-1.6l.078-.326c.093-.32.14-.585.14-.792a5.98 5.98 0 0 0 .233-.31 3.09 3.09 0 0 0 .202-.296.397.397 0 0 0 .031-.14v-.232c0-.073.026-.145.077-.218a.852.852 0 0 1 .156-.17.876.876 0 0 1 .124-.094l.062.016c.021 0 .098-.15.233-.45.135-.311.264-.637.388-.979.518-.953 1.098-1.745 1.74-2.376.642-.642 1.211-1.072 1.708-1.29.041-.01.119-.02.233-.03.114-.01.223-.02.326-.031.197.01.435.057.714.14.28.082.43.145.451.186 0 .041.01.067.031.078.031.01.052.015.062.015.093-.01.259.14.497.45.248.3.43.585.544.855.124.196.186.528.186.993 0 .394-.057.886-.171 1.476-.114.58-.228.994-.342 1.242-.269.746-.61 1.533-1.025 2.36-.414.83-.792 1.254-1.133 1.274-.011 0-.021.01-.031.031-.011.01-.016.032-.016.063 0 .03-.14.165-.419.403a11.67 11.67 0 0 1-.715.59l-.295.11a4.46 4.46 0 0 1-.854.217c-.321.062-.59.098-.807.108Zm.015-1.414c.445 0 .766-.01.963-.031.197-.02.404-.088.621-.202.228-.124.471-.336.73-.637.104-.186.186-.31.249-.372.01-.021.093-.166.248-.435.155-.27.3-.404.435-.404 0-.052.041-.191.124-.42.083-.237.145-.372.187-.403.02-.01.072-.124.155-.342a9.28 9.28 0 0 0 .233-.745 2.69 2.69 0 0 0 .108-.668c.187-.197.27-.305.249-.326a.285.285 0 0 1-.016-.062v-.155c0-.3.021-.456.063-.466.051-.021.077-.037.077-.047a.173.173 0 0 0-.062-.062.088.088 0 0 1-.031-.062c0-.01.016-.031.047-.062a.168.168 0 0 0 .046-.125c-.02-.258-.165-.709-.435-1.35a.936.936 0 0 1-.124-.11.384.384 0 0 0-.171-.124.353.353 0 0 0-.186-.046c-.041 0-.114.01-.217.03-.042-.04-.083-.061-.125-.061a.34.34 0 0 0-.108.015l-.078.031a1.4 1.4 0 0 0-.513.218 5.616 5.616 0 0 0-.497.497l-.264.28a1.46 1.46 0 0 1-.512.73 1.07 1.07 0 0 0-.186.232 2.128 2.128 0 0 1-.187.233l-.093.186c-.228.373-.471.87-.73 1.491-.259.611-.481 1.19-.668 1.74-.186.548-.279.895-.279 1.04 0 .29.093.523.279.699.197.176.42.274.668.295Zm7.448 2.407a4.793 4.793 0 0 0-.233-.046.904.904 0 0 0-.28-.016 1.059 1.059 0 0 1-.512-.264c-.156-.145-.218-.295-.187-.45.031-.031.057-.114.078-.249.021-.124.031-.238.031-.341.041-.114.088-.28.14-.497.062-.466.222-1.238.481-2.314.269-1.087.44-1.667.513-1.74l-.016-.17a1.223 1.223 0 0 1 .155-.497 2.58 2.58 0 0 0 .094-.358 1.27 1.27 0 0 0 .046-.28c.021-.03.093-.217.218-.558l.155-.435c.062-.197.145-.43.248-.7.104-.268.171-.444.202-.527v-.078c.042-.052.156-.326.342-.823.093-.207.181-.42.264-.637a44.4 44.4 0 0 1 .279-.667c.032-.063.078-.15.14-.264.062-.114.093-.192.093-.233.042-.083.145-.125.311-.125a.96.96 0 0 1 .404.094.554.554 0 0 1 .279.248l.358.249-.528 1.133c-.135.27-.259.534-.373.792-.104.249-.156.394-.156.435-.02.073-.067.223-.139.45-.073.228-.15.487-.233.777-.042.145-.145.45-.311.916a2.009 2.009 0 0 0-.109.295c0-.041.56-.082 1.678-.124.186-.01.528-.026 1.025-.047.507-.03.823-.062.947-.093l.792-.108.373-1.383a44.39 44.39 0 0 1 .605-2.143c.135-.445.296-.787.482-1.025.186-.248.347-.372.481-.372.259 0 .471.186.637.559.124.103.186.222.186.357 0 .135-.077.336-.233.606-.134.248-.295.662-.481 1.242a3.656 3.656 0 0 1-.155.481v.063c0 .196-.047.341-.14.434-.031.031-.098.176-.202.435-.093.259-.14.41-.14.45a.706.706 0 0 1-.031.28.53.53 0 0 1-.108.218c-.011.041-.109.455-.296 1.242-.186.787-.372 1.418-.559 1.895.011.051-.01.145-.062.28a1.173 1.173 0 0 0-.062.279c-.155.497-.228.776-.217.838-.052.239-.15.668-.295 1.29-.094.413-.14.626-.14.636-.01.02-.057.031-.14.031-.166 0-.342-.036-.528-.109a.996.996 0 0 1-.373-.341.75.75 0 0 1-.139-.435c0-.135.025-.254.077-.357.042-.073.119-.383.233-.932l.155-.668a7.12 7.12 0 0 0 .171-.73l.156-.699c.093-.538.155-.823.186-.854v-.155c-.031-.031-.217-.047-.559-.047-.352 0-.766.021-1.243.062-.476.032-.9.078-1.273.14l-.435.016c-.217 0-.357.005-.419.015a1.89 1.89 0 0 0-.264.016h-.14c-.041.093-.16.538-.357 1.335-.197.798-.311 1.31-.342 1.538-.093.476-.202.983-.326 1.522-.114.548-.207.963-.279 1.242Zm17.282-12.098a.86.86 0 0 1 .466.326.846.846 0 0 1 .14.808 2.604 2.604 0 0 1-.202.512l-.59 1.367c-.342.818-.549 1.284-.622 1.398-.258.528-.486.947-.683 1.258a35.045 35.045 0 0 1-1.103 1.801c-.093.145-.289.42-.59.823-.29.394-.491.658-.605.792a5.57 5.57 0 0 1-.559.7c-.187.206-.456.486-.808.838l-.373.388a3.316 3.316 0 0 1-.435.45.561.561 0 0 1-.465.249.634.634 0 0 1-.342-.109c-.28-.176-.419-.367-.419-.574 0-.063.015-.135.046-.218.031-.072.218-.285.559-.636.342-.363.627-.648.854-.855a26.6 26.6 0 0 0 .777-.916c-.228-.3-.44-.652-.637-1.056-.186-.404-.305-.725-.357-.963l-.264-1.367a.99.99 0 0 0 0-.342l-.031-.185-.047-2.75.109-1.366v-.233c0-.135.036-.259.109-.373.072-.114.191-.17.357-.17.207-.032.419.056.637.264.217.196.326.398.326.605 0 .073-.016.14-.047.202a.413.413 0 0 0-.046.186v.187c0 .103-.006.186-.016.248-.021.207-.041.497-.062.87-.01.373-.016.756-.016 1.15 0 .31.006.512.016.605l.14 1.351c.01.217.077.554.202 1.01.134.445.264.828.388 1.149l.202-.264a1.75 1.75 0 0 0 .31-.45c.073-.166.192-.379.358-.638.124-.186.207-.326.248-.419.114-.207.223-.393.326-.559.145-.228.243-.393.295-.497l1.01-1.91c.072-.238.15-.466.233-.683.093-.27.181-.554.264-.855.093-.3.155-.564.186-.791.062-.239.202-.358.419-.358h.14c.073-.01.14-.01.202 0Zm14.973 1.475c0 .052-.015.089-.046.11-.031.01-.047.02-.047.03 0 .01.021.031.062.063l-.108.512c-.042.217-.13.652-.264 1.305a45.27 45.27 0 0 0-.28 1.584l-.217 1.661c-.093.735-.161 1.3-.202 1.693a15.83 15.83 0 0 0-.047 1.242c0 .498.016.875.047 1.134.041.27.062.425.062.466 0 .062-.073.155-.217.28a.724.724 0 0 1-.482.186.625.625 0 0 1-.59-.342c-.124-.217-.197-.559-.217-1.025 0-.693.051-1.62.155-2.78.031-.072.046-.212.046-.419a.933.933 0 0 0-.031-.28c-.01-.103.006-.248.047-.434a1.784 1.784 0 0 0 .047-.373c0-.052.02-.16.062-.326.062-.186.093-.331.093-.435v-.109a3.82 3.82 0 0 0 .093-.341c.041-.145.062-.233.062-.264a.933.933 0 0 1-.015-.218.602.602 0 0 0-.031-.233c.062-.176.134-.445.217-.807l.186-.746c-.01 0-.124.207-.341.621a9.445 9.445 0 0 1-.761 1.227 9.551 9.551 0 0 1-.699.994c-.218.28-.342.44-.373.482-.134.176-.264.341-.388.497-.114.155-.197.3-.249.435-.217.538-.471.931-.761 1.18-.279.248-.564.388-.854.42l-.248.03h-.093c-.197 0-.363-.13-.497-.388-.125-.259-.187-.74-.187-1.444l.016-.42.046-.87c.031-.175.057-.465.078-.869.021-.414.036-.688.047-.823-.052.052-.145.243-.28.575-.124.33-.202.543-.233.636l-.14.357c-.051.073-.129.27-.233.59-.082.239-.196.529-.341.87a18.305 18.305 0 0 1-.621 1.77 10.561 10.561 0 0 0-.435 1.072 7.4 7.4 0 0 1-.28.668c-.445 1.004-.818 1.506-1.118 1.506-.166 0-.331-.087-.497-.264a.782.782 0 0 1-.233-.543c0-.145.057-.337.171-.575.114-.248.279-.57.497-.963l.326-.605c0-.052.124-.404.373-1.056l.217-.575.963-2.547.016-.062.093-.233a4.29 4.29 0 0 1 .171-.373c.145-.33.217-.523.217-.574v-.031c0-.031.01-.052.031-.062a.254.254 0 0 1 .062-.016c.042-.114.114-.29.218-.528.113-.248.201-.435.264-.56l-.016-.061a.56.56 0 0 1 .047-.249c.041-.062.082-.119.124-.17.052-.052.093-.099.124-.14 0-.062.031-.145.093-.249.062-.114.135-.227.218-.341a3.47 3.47 0 0 0 .326-.513.51.51 0 0 1 .481-.295c.156 0 .311.062.466.186.155.125.285.264.388.42.104.145.156.243.156.295 0 .03-.016.052-.047.062-.031.01-.046.036-.046.078v.062a.987.987 0 0 1-.063.56c-.093.361-.139.76-.139 1.195l.015.45c0 .083-.021.145-.062.186a2.876 2.876 0 0 0-.078.109v.031l-.015.124.015.094a.978.978 0 0 1-.077.341 4.518 4.518 0 0 0-.093.388 8.652 8.652 0 0 0-.063 1.056c0 .539.047.834.14.886l1.118-1.662c.953-1.408 1.434-2.128 1.445-2.159a.586.586 0 0 0 .202-.233c-.011 0-.016-.01-.016-.03 0-.053.135-.275.404-.669.269-.403.559-.766.87-1.087.31-.33.564-.497.761-.497.093 0 .217.063.372.187.166.124.311.28.435.466.124.176.186.341.186.497Zm9.121 10.095c-.238-.02-.502-.134-.792-.342-.28-.196-.425-.408-.435-.636l.031-.404c.197-.56.404-1.34.621-2.345.052-.197.104-.42.156-.668l.201-.792c.176-.663.497-1.734.963-3.215l.264-.854a322.828 322.828 0 0 0-4.566 5.886c-.258.352-.714.896-1.366 1.63-.652.736-1.092 1.181-1.32 1.336a.826.826 0 0 1-.482.14.934.934 0 0 1-.528-.155.567.567 0 0 1-.264-.42l-.015-.17c0-.394.108-.994.326-1.802.228-.818.512-1.77.854-2.857l.28-.886c.3-.983.657-1.951 1.071-2.904a.275.275 0 0 1-.015-.108c0-.093.036-.176.108-.249-.01-.041.042-.191.156-.45.124-.27.202-.44.233-.513.082-.165.155-.326.217-.481.073-.238.176-.414.311-.528a.721.721 0 0 1 .45-.171.74.74 0 0 1 .559.248.842.842 0 0 1 .249.622 1.2 1.2 0 0 1-.156.559 3.098 3.098 0 0 0-.217.481 3.124 3.124 0 0 1-.124.326 49.592 49.592 0 0 0-1.305 3.37 41.445 41.445 0 0 0-.994 3.2c.259-.321.533-.642.823-.963.559-.642.968-1.129 1.227-1.46a97.457 97.457 0 0 1 4.038-5.11 7.93 7.93 0 0 1 .73-.76c.31-.28.569-.461.776-.544a.582.582 0 0 1 .264-.062c.239 0 .456.114.653.342.196.217.295.45.295.698a.68.68 0 0 1-.031.233l-.342.87c-.642 1.532-.963 2.412-.963 2.64 0 .114-.295 1.196-.885 3.246a76.578 76.578 0 0 0-.295 1.04c-.104.404-.197.85-.28 1.336-.072.476-.139.942-.202 1.398l-.279.248Zm6.521 0c-.155 0-.315-.103-.481-.31-.166-.197-.249-.446-.249-.746 0-.238.057-.47.171-.699.207-.435.414-.787.621-1.056a1.52 1.52 0 0 0 .156-.264.72.72 0 0 0 .077-.295c.145-.186.337-.523.575-1.01.404-.652.978-1.656 1.724-3.012l.605-1.103c.311-.549.518-.875.622-.978l.077-.109c-.031.052.021-.067.156-.357.145-.29.295-.549.45-.777.166-.238.311-.357.435-.357.134 0 .29.057.466.171.176.104.326.264.45.481.135.208.202.456.202.746 0 .124-.005.223-.015.295l-.156 1.056-.077.342c-.135.683-.337 1.62-.606 2.81-.238 1.057-.357 1.693-.357 1.91 0 .063.01.115.031.156.02.031.046.047.077.047.021 0 .073-.031.156-.093a.911.911 0 0 0 .217-.311l.202-.31.264-.389c.29-.404.647-.947 1.072-1.63a145.12 145.12 0 0 0 2.065-3.557c.197-.29.357-.543.482-.76.165-.27.326-.524.481-.762.155-.238.274-.388.357-.45a.603.603 0 0 1 .388-.125c.156.01.316.068.482.171.176.104.321.249.435.435.124.187.186.388.186.606 0 .248-.078.704-.233 1.367a22.095 22.095 0 0 1-.512 1.925c-.042.218-.171.73-.389 1.538-.165.6-.29 1.077-.372 1.428a4.405 4.405 0 0 0-.109.855v.124c-.155.28-.233.838-.233 1.677-.041.342-.119.606-.233.792-.114.197-.207.295-.28.295l-.046-.015a.246.246 0 0 0-.155.062c-.042.052-.104.078-.187.078-.259 0-.429-.094-.512-.28-.073-.186-.109-.44-.109-.761 0-.186.005-.342.016-.466.031-.27.362-1.672.993-4.209.497-1.987.746-3.028.746-3.121l-.217.373c-.208.393-.466.854-.777 1.382l-1.087 2.034a4.573 4.573 0 0 0-.342.544c-.083.176-.129.28-.14.31-.124.249-.372.606-.745 1.072a2.476 2.476 0 0 0-.217.295c-.052.114-.218.316-.497.606-.28.28-.575.538-.886.776-.31.228-.569.342-.776.342-.28 0-.533-.135-.761-.404a1.51 1.51 0 0 1-.326-.978c0-.28.052-.746.155-1.398.166-.714.342-1.44.528-2.174.186-.735.316-1.217.388-1.445a.98.98 0 0 0 .047-.31c0-.073-.01-.12-.031-.14-.01 0-.026.01-.047.031a24.358 24.358 0 0 0-.776 1.382 40.355 40.355 0 0 0-1.072 2.19c-1.48 2.723-2.329 4.209-2.547 4.457Zm14.312-.465c-.156 0-.394-.063-.715-.187a4.812 4.812 0 0 1-.885-.466c-.28-.186-.461-.373-.544-.56l-.031-.061a2.155 2.155 0 0 1-.233-1.6l.078-.326c.093-.32.14-.585.14-.792a5.98 5.98 0 0 0 .233-.31 3.09 3.09 0 0 0 .202-.296.397.397 0 0 0 .031-.14v-.232c0-.073.026-.145.077-.218a.852.852 0 0 1 .156-.17.876.876 0 0 1 .124-.094l.062.016c.021 0 .098-.15.233-.45.135-.311.264-.637.388-.979.518-.953 1.098-1.745 1.74-2.376.641-.642 1.211-1.072 1.708-1.29.041-.01.119-.02.233-.03.114-.01.222-.02.326-.031.197.01.435.057.714.14.28.082.43.145.451.186 0 .041.01.067.031.078.031.01.052.015.062.015.093-.01.259.14.497.45.248.3.43.585.543.855.125.196.187.528.187.993 0 .394-.057.886-.171 1.476-.114.58-.228.994-.342 1.242a22.065 22.065 0 0 1-1.025 2.36c-.414.83-.792 1.254-1.133 1.274-.011 0-.021.01-.031.031-.011.01-.016.032-.016.063 0 .03-.14.165-.419.403a11.67 11.67 0 0 1-.715.59l-.295.11a4.46 4.46 0 0 1-.854.217c-.321.062-.59.098-.807.108Zm.015-1.414c.445 0 .766-.01.963-.031.197-.02.404-.088.621-.202.228-.124.471-.336.73-.637.104-.186.186-.31.249-.372.01-.021.093-.166.248-.435.155-.27.3-.404.435-.404 0-.052.041-.191.124-.42.083-.237.145-.372.186-.403.021-.01.073-.124.156-.342a9.28 9.28 0 0 0 .233-.745 2.69 2.69 0 0 0 .108-.668c.187-.197.27-.305.249-.326a.285.285 0 0 1-.016-.062v-.155c0-.3.021-.456.062-.466.052-.021.078-.037.078-.047a.173.173 0 0 0-.062-.062.088.088 0 0 1-.031-.062c0-.01.015-.031.047-.062a.168.168 0 0 0 .046-.125c-.021-.258-.166-.709-.435-1.35a.936.936 0 0 1-.124-.11.384.384 0 0 0-.171-.124.356.356 0 0 0-.186-.046c-.042 0-.114.01-.218.03-.041-.04-.082-.061-.124-.061a.35.35 0 0 0-.109.015l-.077.031a1.393 1.393 0 0 0-.513.218 5.48 5.48 0 0 0-.497.497l-.264.28a1.46 1.46 0 0 1-.512.73 1.04 1.04 0 0 0-.186.232 2.128 2.128 0 0 1-.187.233l-.093.186c-.228.373-.471.87-.73 1.491-.259.611-.481 1.19-.668 1.74-.186.548-.279.895-.279 1.04 0 .29.093.523.279.699.197.176.42.274.668.295Zm16.766 1.879c-.311-.134-.637-.373-.979-.714a6.037 6.037 0 0 1-.87-1.103c-.248-.414-.419-.792-.512-1.133a2.76 2.76 0 0 0-.186-.575 4.975 4.975 0 0 1-.125-.357l-.093-.28a21.916 21.916 0 0 0-.31-1.211c-.29.828-.539 1.61-.746 2.345a59.91 59.91 0 0 0-.668 2.593.702.702 0 0 1-.233.389.526.526 0 0 1-.388.155 1.27 1.27 0 0 1-.217-.031c-.435-.135-.678-.373-.73-.714l1.413-4.908c-.031.093-.264.409-.699.947a28.93 28.93 0 0 1-1.009 1.227 7.69 7.69 0 0 1-1.01.947c-.414.332-.973.756-1.677 1.274-.435.32-.792.59-1.072.807a6.706 6.706 0 0 1-.264.233c-.145.125-.269.187-.372.187a.15.15 0 0 1-.125-.062l-.512-.621a1.196 1.196 0 0 1-.016-.218c0-.155.026-.28.078-.373a.6.6 0 0 1 .311-.217c.072-.031.191-.12.357-.264.166-.145.398-.316.699-.513a8.278 8.278 0 0 0 1.211-.963c.373-.31.57-.476.59-.496l.73-.606c.135-.093.264-.228.388-.404.125-.145.223-.248.295-.31a6.605 6.605 0 0 0 1.321-1.445.843.843 0 0 0-.078-.124 2.454 2.454 0 0 0-.078-.17c-.3-.529-.543-.943-.73-1.243a6.97 6.97 0 0 0-.605-.87 3.878 3.878 0 0 0-.171-.264 4.29 4.29 0 0 1-.078-.14 52.789 52.789 0 0 0-1.056-1.568l-.015-.295c0-.062.005-.109.015-.14.042-.259.218-.388.528-.388.186 0 .378.046.575.14.196.093.331.206.404.341.414.683.843 1.351 1.289 2.003.041.063.088.145.139.249.062.104.119.181.171.233.124.145.259.373.404.683.093.218.191.399.295.544.041.052.093.124.155.217.073.083.13.16.171.233l.404-1.056a48.055 48.055 0 0 1 1.025-2.531c.3-.673.585-1.129.854-1.367l.388.062c.238.031.404.093.497.187.104.082.233.258.389.528-.539.952-.989 1.78-1.352 2.484a21.072 21.072 0 0 0-.916 2.066l.404-.326c1.066-.89 1.941-1.61 2.624-2.159.228-.186.56-.497.994-.932.394-.393.715-.699.963-.916.259-.217.528-.383.808-.497l.217-.093c.259.041.43.088.513.14.083.041.186.17.31.388 0 .341-.124.616-.372.823l-.777.637a49.459 49.459 0 0 0-1.895 1.584c-.331.28-.678.564-1.04.854-.632.497-1.123.921-1.475 1.273.082.508.201 1.03.357 1.569.155.528.316.953.481 1.273.042.073.083.16.124.264.052.104.088.187.109.249.062.124.176.28.342.466.155.176.253.305.295.388.197.186.424.326.683.42.311.134.466.325.466.574 0 .238-.134.492-.404.761l-.202.015-.217.047-.512-.202Zm5.479-.295a1.892 1.892 0 0 1-.745-.233 7.083 7.083 0 0 1-.683-.42l-.42-.294a2.006 2.006 0 0 1-.403-.56 3.59 3.59 0 0 1-.233-.807 1.982 1.982 0 0 1-.031-.326c0-.31.051-.688.155-1.134a6.37 6.37 0 0 1 .342-1.056c.227-.549.729-1.428 1.506-2.64l.078-.078c.02-.02.026-.03.015-.03v-.016c0-.073.15-.393.451-.963.176-.186.264-.347.264-.481a.28.28 0 0 0-.047-.171c-.031-.042.01-.13.124-.264.114-.145.269-.3.466-.466a3.88 3.88 0 0 1 .652-.45c.28-.218.554-.327.823-.327.083 0 .151.016.202.047.062.02.099.057.109.109 0 .062.207.041.621-.063.187-.04.321-.067.404-.077.041-.052.145-.093.311-.124a7.93 7.93 0 0 1 .73-.125c.165.01.367.01.605 0 .249-.01.409-.02.482-.03.072-.021.176.025.31.14.145.113.259.258.342.434a.482.482 0 0 1 .031.14c0 .155-.098.29-.295.404-.197.103-.482.175-.854.217-.383.052-.72.103-1.01.155-.29.052-.652.124-1.087.218l-.326.062c-.321.051-.559.119-.714.202-.156.082-.321.264-.497.543-.073.052-.166.187-.28.404-.114.207-.228.425-.341.652l-.311.42c-.238.32-.388.533-.45.636-.052.093-.063.16-.032.202a5.48 5.48 0 0 0 .497.093c.094-.051.223-.088.389-.108.165-.021.284-.042.357-.063l.342-.093a99.507 99.507 0 0 1 1.413-.357 8.3 8.3 0 0 1 .668-.14.286.286 0 0 1 .186-.062c.114 0 .223.057.326.171a.912.912 0 0 1 .249.373c.041.145.062.238.062.28 0 .175-.104.31-.311.403-.207.083-.621.197-1.242.342a73.54 73.54 0 0 0-1.693.42c-.673.196-1.17.294-1.491.294-.269 0-.399-.088-.388-.264-.093-.052-.202.042-.326.28a4.32 4.32 0 0 0-.451 1.801c0 .135.016.249.047.342.093.248.233.46.419.637.187.165.445.295.777.388a4.306 4.306 0 0 0 .652.047c.207 0 .414-.042.621-.125.808-.134 1.377-.32 1.708-.559a.34.34 0 0 0 .14-.109c.052-.051.099-.077.14-.077l-.016.03c0 .011.032-.01.094-.061a3.38 3.38 0 0 1 .202-.187c.289-.248.61-.372.962-.372a.69.69 0 0 1 .311.062c.093.03.145.062.155.093.062.103.031.27-.093.497-.124.228-.321.466-.59.714a4.553 4.553 0 0 1-.87.653 6.151 6.151 0 0 1-1.708.59 9.285 9.285 0 0 1-1.802.217Zm17.622-9.8c0 .052-.016.089-.047.11-.031.01-.047.02-.047.03 0 .01.021.031.062.063l-.108.512c-.042.217-.13.652-.264 1.305-.124.652-.218 1.18-.28 1.584l-.217 1.661c-.093.735-.161 1.3-.202 1.693a15.83 15.83 0 0 0-.047 1.242c0 .498.016.875.047 1.134.041.27.062.425.062.466 0 .062-.072.155-.217.28a.724.724 0 0 1-.482.186.625.625 0 0 1-.59-.342c-.124-.217-.197-.559-.217-1.025 0-.693.051-1.62.155-2.78.031-.072.047-.212.047-.419a.927.927 0 0 0-.032-.28c-.01-.103.006-.248.047-.434a1.784 1.784 0 0 0 .047-.373c0-.052.02-.16.062-.326.062-.186.093-.331.093-.435v-.109a3.82 3.82 0 0 0 .093-.341 1.47 1.47 0 0 0 .062-.264.933.933 0 0 1-.015-.218.602.602 0 0 0-.031-.233c.062-.176.134-.445.217-.807l.186-.746c-.01 0-.124.207-.341.621a9.445 9.445 0 0 1-.761 1.227 9.551 9.551 0 0 1-.699.994c-.217.28-.342.44-.373.482-.134.176-.264.341-.388.497-.114.155-.197.3-.249.435-.217.538-.471.931-.76 1.18-.28.248-.565.388-.855.42l-.248.03h-.093c-.197 0-.363-.13-.497-.388-.125-.259-.187-.74-.187-1.444l.016-.42.046-.87a7.82 7.82 0 0 0 .078-.869c.021-.414.036-.688.047-.823-.052.052-.145.243-.28.575-.124.33-.202.543-.233.636l-.14.357c-.051.073-.129.27-.232.59-.083.239-.197.529-.342.87a18.305 18.305 0 0 1-.621 1.77 10.561 10.561 0 0 0-.435 1.072 7.4 7.4 0 0 1-.28.668c-.445 1.004-.818 1.506-1.118 1.506-.166 0-.331-.087-.497-.264a.782.782 0 0 1-.233-.543c0-.145.057-.337.171-.575.114-.248.28-.57.497-.963l.326-.605c0-.052.124-.404.373-1.056l.217-.575.963-2.547.016-.062.093-.233a4.29 4.29 0 0 1 .171-.373c.145-.33.217-.523.217-.574v-.031c0-.031.01-.052.031-.062a.254.254 0 0 1 .062-.016c.042-.114.114-.29.218-.528.114-.248.202-.435.264-.56l-.016-.061a.56.56 0 0 1 .047-.249c.041-.062.083-.119.124-.17.052-.052.093-.099.124-.14 0-.062.031-.145.093-.249a3.25 3.25 0 0 1 .218-.341 3.47 3.47 0 0 0 .326-.513.51.51 0 0 1 .481-.295c.156 0 .311.062.466.186.156.125.285.264.389.42.103.145.155.243.155.295 0 .03-.016.052-.047.062-.031.01-.046.036-.046.078v.062a1.003 1.003 0 0 1-.062.56c-.094.361-.14.76-.14 1.195l.015.45c0 .083-.02.145-.062.186a1.982 1.982 0 0 0-.077.109v.031l-.016.124.016.094a.983.983 0 0 1-.078.341 4.518 4.518 0 0 0-.093.388 8.654 8.654 0 0 0-.062 1.056c0 .539.046.834.139.886l1.119-1.662c.952-1.408 1.433-2.128 1.444-2.159a.579.579 0 0 0 .202-.233c-.011 0-.016-.01-.016-.03 0-.053.135-.275.404-.669.269-.403.559-.766.87-1.087.31-.33.564-.497.761-.497.093 0 .217.063.372.187.166.124.311.28.435.466.124.176.187.341.187.497Zm3.529 9.334c-.476-.165-.859-.476-1.149-.932-.28-.455-.419-.994-.419-1.615 0-.248.02-.476.062-.683.02-.27.083-.585.186-.947a3.6 3.6 0 0 0 .14-.575c0-.02.01-.057.031-.109.021-.052.026-.093.015-.124l.264-.652c.125-.28.202-.435.233-.466.042-.02.063-.047.063-.078a.26.26 0 0 0 .015-.062c0-.135.14-.424.419-.87.29-.445.601-.88.932-1.304.331-.425.528-.637.59-.637.021 0 .047-.02.078-.062.031-.052.052-.078.062-.078.073-.082.362-.233.87-.45.507-.228.911-.378 1.211-.45.207-.073.419-.11.637-.11.528 0 .958.25 1.289.746.331.487.502 1.165.512 2.035a5.668 5.668 0 0 0-.077.683 3.614 3.614 0 0 1-.047.404c-.01.31-.078.699-.202 1.165-.114.455-.191.688-.233.699 0 .03-.01.067-.031.108a.246.246 0 0 0-.031.109c.01.093-.124.42-.404.978-.279.55-.44.829-.481.839a.125.125 0 0 0-.047.015c-.01.01-.01.032 0 .063.011.03-.072.124-.248.28-.166.154-.285.232-.357.232-.011 0-.021.005-.031.016 0 .01.01.03.031.062.02.03-.13.165-.451.404-.31.238-.647.47-1.009.698-.363.218-.637.347-.823.389a.272.272 0 0 1-.14.077.447.447 0 0 1-.078.016c-.072.072-.207.134-.403.186a2.086 2.086 0 0 1-.56.078c-.155 0-.295-.026-.419-.078Zm1.569-1.63c.31-.104.621-.27.931-.497.311-.239.497-.456.56-.653.051-.186.124-.316.217-.388.176-.176.409-.58.699-1.211.3-.642.455-1.077.466-1.305 0-.062.015-.16.046-.295a.959.959 0 0 1 .109-.31c.021-.031.026-.099.016-.202a5.377 5.377 0 0 1-.016-.482c0-.269.005-.502.016-.699-.031-.673-.135-1.06-.311-1.164-.083-.063-.223-.094-.419-.094a1.145 1.145 0 0 0-.42.109.739.739 0 0 1-.217.047c-.145.083-.218.176-.218.28a.28.28 0 0 1-.124.232c-.072.062-.15.068-.233.016-.186.01-.305.036-.357.077-.052.042-.119.14-.202.295-.072.145-.14.27-.202.373a2.36 2.36 0 0 0-.59.621c-.134.218-.217.399-.248.544-.321.559-.523.952-.606 1.18a5.14 5.14 0 0 0-.186.901c-.083.155-.15.337-.202.543a2.011 2.011 0 0 1-.109.404 1.373 1.373 0 0 0-.031.326c0 .228.016.466.047.715.031.238.072.398.124.481.083.28.264.42.543.42.228 0 .534-.088.917-.264ZM148.767 66.301c-.031.052-.114.12-.249.202.176.114.332.238.466.373.145.134.233.254.264.357.3.476.451 1.035.451 1.677 0 .332-.037.663-.109.994-.259.497-.414.787-.466.87-.217.414-.549.771-.994 1.072-.445.3-.854.496-1.227.59a4.542 4.542 0 0 1-1.32.202c-.103 0-.248-.01-.435-.032a3.008 3.008 0 0 1-.714-.14 4.36 4.36 0 0 1-.792-.356 2.807 2.807 0 0 1-.808-.653 6.722 6.722 0 0 1-.621-.885.792.792 0 0 1-.124-.45c0-.197.062-.388.186-.575.124-.186.275-.336.451-.45a.741.741 0 0 1 .388-.124c.083 0 .155.015.217.046.073.031.124.052.156.062.196.031.321.135.372.31.052.177.083.27.093.28a3.976 3.976 0 0 1-.17.45.402.402 0 0 1-.171.203c.155.238.347.44.574.605.125.093.301.176.528.249.239.072.404.098.497.077.011-.01.037-.015.078-.015a.41.41 0 0 1 .155.03c.062.011.099.011.109 0a.856.856 0 0 1 .28-.03.923.923 0 0 0 .341-.078c.332-.093.627-.222.885-.388.259-.176.503-.404.73-.683.156-.218.259-.41.311-.575a2.72 2.72 0 0 0 .124-.699c.021-.155 0-.331-.062-.528a8.73 8.73 0 0 1-.124-.42l-.202-.154-.342-.094c-.269-.082-.46-.124-.574-.124-.125 0-.254.02-.389.062a1.586 1.586 0 0 1-.357.078.625.625 0 0 1-.31-.078 1.556 1.556 0 0 0-.156-.108.815.815 0 0 1-.388-.327 1.014 1.014 0 0 1-.155-.512c0-.093.026-.181.077-.264a.621.621 0 0 1 .296-.264.732.732 0 0 1 .45-.078.73.73 0 0 0 .171.016c.145 0 .321-.042.528-.125.124-.04.321-.155.59-.341.269-.186.404-.275.404-.264.341-.435.585-.761.73-.978.155-.228.279-.477.372-.746.114-.207.171-.43.171-.668 0-.134-.026-.264-.077-.388-.011-.062-.083-.114-.218-.155a1.278 1.278 0 0 0-.373-.063.378.378 0 0 0-.139.016c-.166.01-.409.072-.73.186-.321.104-.513.182-.575.233-.559.477-.896.798-1.009.963a.417.417 0 0 1-.218.171.756.756 0 0 1-.31.062c-.197 0-.327-.052-.389-.155a1.113 1.113 0 0 1-.171-.59c0-.238.088-.466.265-.684.196-.248.367-.445.512-.59.145-.155.316-.29.512-.404l.296-.17a9.32 9.32 0 0 0 .279-.156c.155-.083.3-.145.435-.186.041-.01.16-.052.357-.124a1.96 1.96 0 0 1 .87-.093c.352.03.611.093.776.186.176.093.446.295.808.606.155.103.279.284.373.543.093.259.139.554.139.885 0 .497-.093.948-.279 1.351-.083.146-.14.254-.171.327-.021.041-.088.165-.202.372a2.733 2.733 0 0 1-.357.528c-.093.125-.29.368-.59.73Zm6.7 6.197a4.442 4.442 0 0 1-1.413.217 4.976 4.976 0 0 1-2.252-.543.702.702 0 0 0-.14-.31c-.072-.104-.155-.161-.248-.172-.031-.01-.083-.062-.156-.155a8.394 8.394 0 0 0-.155-.218 3.18 3.18 0 0 1-.062-.372c0-.093.015-.238.046-.435.032-.197.057-.342.078-.435l.155-.42a25.49 25.49 0 0 1 .823-2.096l.311-.792a94.2 94.2 0 0 0 .916-2.314c.145-.393.218-.673.218-.838a.865.865 0 0 0-.078-.327.836.836 0 0 1-.046-.263c0-.29.15-.492.45-.606a9.387 9.387 0 0 1 1.134-.497c.445-.166.792-.264 1.04-.295a1.44 1.44 0 0 1 .249-.016c.362 0 .755.057 1.18.171.435.104.673.223.714.357l.093.031c.011 0 .037.01.078.031a.982.982 0 0 1 .171.125c.103.072.191.207.264.403.072.187.109.363.109.528a.518.518 0 0 1-.016.156c0 .03.011.108.031.233l.078.28c.01.061.015.154.015.279 0 .58-.269 1.16-.807 1.74l-.202.263a2.627 2.627 0 0 1-.171.202c-.083.104-.145.15-.186.14-.176.155-.264.285-.264.388 0 .052.031.088.093.109l.124.186c.073.093.166.207.28.342.269.414.403.9.403 1.46 0 .29-.036.548-.108.776-.073.27-.249.58-.528.932a6.38 6.38 0 0 1-1.025 1.01c-.394.32-.792.569-1.196.745Zm-1.398-5.374c.114-.02.259-.067.435-.14.269-.093.445-.15.528-.17a4.123 4.123 0 0 0 1.475-.792 2.93 2.93 0 0 0 .886-1.274 1.53 1.53 0 0 0 .108-.388c.042-.176.063-.331.063-.466a.634.634 0 0 0-.016-.17v-.125c-.135-.342-.476-.512-1.025-.512-.383 0-.787.082-1.211.248a.426.426 0 0 0-.233.233 1.853 1.853 0 0 0-.109.342l-.047.31a3.702 3.702 0 0 1-.202.7l-.124.372c0 .02-.026.057-.077.109a.247.247 0 0 0-.063.155c-.02.041-.062.135-.124.28a2.867 2.867 0 0 0-.155.419 4.14 4.14 0 0 0-.155.419l-.062.248c0 .032.01.083.031.156.02.072.046.088.077.046Zm-.217 4.131c.176.032.347.047.512.047.87 0 1.584-.435 2.143-1.305.28-.352.42-.657.42-.916 0-.207-.088-.445-.264-.714a1.527 1.527 0 0 0-.342-.373.533.533 0 0 0-.342-.124c-.103 0-.264.036-.481.109l-.311.093c-.248.041-.621.15-1.118.326-.341.114-.538.17-.59.17a2.02 2.02 0 0 0-.217.218c-.104.114-.161.192-.171.233-.062.02-.124.098-.187.233a1.95 1.95 0 0 0-.108.404c-.021.134-.016.207.015.217.042.01.037.099-.015.264a7.55 7.55 0 0 0-.109.373.899.899 0 0 0-.031.155c0 .187.109.326.326.42.228.093.518.15.87.17Zm7.77-5.917c-.238 0-.378-.103-.419-.31v-.062c0-.093.052-.207.155-.342l.186-.28c.042-.062.135-.212.28-.45.145-.238.238-.424.28-.559 0-.041.005-.078.015-.109-.176.031-.357-.03-.544-.186a.645.645 0 0 1-.201-.497c0-.176.051-.352.155-.528.103-.176.243-.326.419-.45a1.07 1.07 0 0 1 .575-.187c.124 0 .285.036.481.109.176.114.316.274.42.481.113.207.15.378.108.513a3.77 3.77 0 0 1-.264.947l-.108.326c-.094.342-.404.813-.932 1.414 0 .02-.016.041-.047.062l-.14.046c-.051.01-.114.026-.186.047l-.233.015Zm9.104-4.27c.238.03.414.093.528.186a.539.539 0 0 1 .217.31c.031.114.062.29.093.529l-.171.419a70.812 70.812 0 0 0-1.118 2.982l-.543 1.848-.187.326-.357 1.646a77.848 77.848 0 0 0-.342 1.522c-.103.487-.17.839-.201 1.056 0 .104-.006.187-.016.249s-.015.124-.015.186c-.094.217-.135.357-.125.42 0 .269-.057.445-.171.527-.103.083-.32.125-.652.125a2.26 2.26 0 0 1-.466-.342.983.983 0 0 1-.233-.388c.011-.176.052-.445.125-.808.041-.248.062-.388.062-.42l.186-1.304a2.72 2.72 0 0 1 .109-.186c.062-.083.108-.14.14-.17a6.51 6.51 0 0 0 .108-.513l.078-.342c.041-.135.093-.352.155-.652.073-.3.124-.518.156-.653l-.14.156c-.125.227-.357.543-.699.947-.207.27-.352.466-.435.59-.135.207-.978 1.036-2.531 2.485-.259.259-.471.46-.637.606-.176.186-.326.3-.45.341-.114.042-.327.073-.637.094-.373-.3-.559-.58-.559-.84l.062-.217c.021-.082.052-.14.093-.17a1.32 1.32 0 0 1 .171-.14c.134-.083.43-.321.885-.715.466-.403.808-.709 1.025-.916l.808-.807.823-.901a4.614 4.614 0 0 1-.606-.28 1.37 1.37 0 0 1-.404-.31c-.445-.497-.668-1.129-.668-1.895 0-.559.104-1.087.311-1.584.114-.3.223-.523.326-.668.114-.155.269-.331.466-.528.145-.124.249-.228.311-.31.3-.332.616-.58.947-.746.342-.166.927-.388 1.755-.668.052 0 .254-.02.606-.062a8.3 8.3 0 0 1 .962-.062c.104.041.192.078.264.109.083.03.151.057.202.077a.984.984 0 0 1 .171-.124.466.466 0 0 1 .218-.015Zm-1.398 2.935c.041-.166.119-.394.233-.684.031-.072.078-.191.14-.357a6.84 6.84 0 0 0 .17-.559.619.619 0 0 0-.17-.015c-.187 0-.435.03-.746.093a4.807 4.807 0 0 0-1.926.838c-.61.425-1.019.88-1.226 1.367a4.24 4.24 0 0 0-.218.637 1.893 1.893 0 0 0-.046.544c0 .134.01.243.031.326.02.082.057.186.108.31l.125.357c.041.01.119.021.233.031.124.01.212.01.264 0l.372-.124c.456-.134.797-.274 1.025-.42.187-.092.357-.139.513-.139.134 0 .243.02.326.062l.046-.124.746-2.143Zm8.709 2.298c-.031.052-.114.12-.249.202.176.114.332.238.466.373.145.134.233.254.264.357.3.476.451 1.035.451 1.677 0 .332-.037.663-.109.994-.259.497-.414.787-.466.87-.217.414-.549.771-.994 1.072-.445.3-.854.496-1.227.59a4.542 4.542 0 0 1-1.32.202c-.103 0-.248-.01-.435-.032a3.008 3.008 0 0 1-.714-.14 4.36 4.36 0 0 1-.792-.356 2.807 2.807 0 0 1-.808-.653 6.722 6.722 0 0 1-.621-.885.792.792 0 0 1-.124-.45c0-.197.062-.388.186-.575.124-.186.275-.336.451-.45a.741.741 0 0 1 .388-.124c.083 0 .155.015.217.046.073.031.124.052.156.062.196.031.321.135.372.31.052.177.083.27.093.28a3.976 3.976 0 0 1-.17.45.402.402 0 0 1-.171.203c.155.238.347.44.574.605.125.093.301.176.528.249.239.072.404.098.497.077.011-.01.037-.015.078-.015a.41.41 0 0 1 .155.03c.062.011.099.011.109 0a.856.856 0 0 1 .28-.03.923.923 0 0 0 .341-.078c.332-.093.627-.222.885-.388.259-.176.503-.404.73-.683.156-.218.259-.41.311-.575a2.72 2.72 0 0 0 .124-.699c.021-.155 0-.331-.062-.528a8.73 8.73 0 0 1-.124-.42l-.202-.154-.342-.094c-.269-.082-.46-.124-.574-.124-.125 0-.254.02-.389.062a1.586 1.586 0 0 1-.357.078.625.625 0 0 1-.31-.078 1.556 1.556 0 0 0-.156-.108.815.815 0 0 1-.388-.327 1.014 1.014 0 0 1-.155-.512c0-.093.026-.181.077-.264a.621.621 0 0 1 .296-.264.732.732 0 0 1 .45-.078.73.73 0 0 0 .171.016c.145 0 .321-.042.528-.125.124-.04.321-.155.59-.341.269-.186.404-.275.404-.264.341-.435.585-.761.73-.978.155-.228.279-.477.372-.746.114-.207.171-.43.171-.668 0-.134-.026-.264-.077-.388-.011-.062-.083-.114-.218-.155a1.278 1.278 0 0 0-.373-.063.378.378 0 0 0-.139.016c-.166.01-.409.072-.73.186-.321.104-.513.182-.575.233-.559.477-.896.798-1.009.963a.417.417 0 0 1-.218.171.756.756 0 0 1-.31.062c-.197 0-.327-.052-.389-.155a1.113 1.113 0 0 1-.171-.59c0-.238.088-.466.264-.684.197-.248.368-.445.513-.59.145-.155.316-.29.512-.404l.296-.17a9.32 9.32 0 0 0 .279-.156c.155-.083.3-.145.435-.186.041-.01.16-.052.357-.124a1.96 1.96 0 0 1 .87-.093c.352.03.611.093.776.186.176.093.446.295.808.606.155.103.279.284.373.543.093.259.139.554.139.885 0 .497-.093.948-.279 1.351-.083.146-.14.254-.171.327-.021.041-.088.165-.202.372a2.733 2.733 0 0 1-.357.528c-.093.125-.29.368-.59.73Zm8.765 7.113a.714.714 0 0 1-.233-.062.683.683 0 0 1-.232-.14c-.125-.124-.187-.31-.187-.559 0-.559-.01-.927-.031-1.103l-.015-.931c0-.238.015-.383.046-.435a1.33 1.33 0 0 1-.015-.233c0-.093.005-.202.015-.326.021-.135.031-.238.031-.31l-.062-.42h-.839c-.062.01-.196.015-.403.015-.28 0-.948-.03-2.004-.093l-.202.326c-.01.01-.062.078-.155.202a2.81 2.81 0 0 0-.264.56c-.093.248-.217.532-.373.853a4.69 4.69 0 0 1-.403.746c-.156.29-.301.502-.435.637-.124.134-.218.201-.28.201h-.077a.504.504 0 0 1-.187-.03.632.632 0 0 1-.186-.11c-.28-.123-.419-.31-.419-.558 0-.176.082-.383.248-.622l.202-.326c0-.062.15-.388.45-.978.311-.6.513-.922.606-.963.093-.093.14-.186.14-.28 0-.103-.062-.206-.187-.31a.264.264 0 0 1-.108-.124.626.626 0 0 1-.031-.202c0-.145.051-.27.155-.373.103-.103.264-.15.481-.14a2.32 2.32 0 0 1 .14-.077c.052-.021.088-.037.109-.047.031-.02.046-.046.046-.078 0-.051.083-.238.249-.559a4.77 4.77 0 0 1 .466-.745c.103-.28.191-.482.264-.606.083-.124.134-.212.155-.264.052-.052.155-.222.311-.512.02-.031.088-.145.202-.342.103-.104.207-.223.31-.357.114-.145.187-.238.218-.28a2.16 2.16 0 0 1 .186-.264c.052-.124.145-.274.28-.45l.248-.342a1.82 1.82 0 0 1 .559-.45c.218-.124.419-.187.606-.187.103 0 .191.016.264.047.259.114.486.326.683.637.197.31.311.673.342 1.087l.062.481c.041.249.062.466.062.653a.947.947 0 0 1-.047.326v.683c0 .342.011.595.031.761-.031.114-.046.3-.046.56l.015.605c0 .155-.005.285-.015.388l-.016.575-.015.574a23.93 23.93 0 0 0-.016.979l.016 1.227c0 .704-.062 1.216-.187 1.537-.113.321-.289.497-.528.528Zm-3.137-5.808c.052-.01.182-.026.389-.047a4.68 4.68 0 0 1 .667-.015c.29-.021.482-.031.575-.031.135 0 .269.005.404.015a.983.983 0 0 0 .248-.015c.197.01.295-.171.295-.544a28.063 28.063 0 0 1-.108-2.36l.015-.482a3.22 3.22 0 0 0-.046-.528 9.514 9.514 0 0 0-.047-.373c-.041-.051-.192.12-.45.513-.249.393-.461.745-.637 1.056a3.193 3.193 0 0 0-.249.435 6.474 6.474 0 0 0-.17.295 3.436 3.436 0 0 1-.202.372c-.508.808-.761 1.326-.761 1.553 0 .073.026.125.077.156Zm8.502 5.109c-.041.042-.082.062-.124.062-.052 0-.14-.03-.264-.093a.963.963 0 0 1-.466-.264.597.597 0 0 1-.186-.435c0-.041.021-.124.062-.248.093-.176.331-1.04.714-2.594l.264-1.025c0-.01.021-.17.062-.481.032-.155.078-.44.14-.854.124-.238.207-.497.249-.777.052-.29.083-.455.093-.497a4.83 4.83 0 0 1 .155-.543l.14-.544.093-.357c.073-.259.109-.424.109-.497v-.248h-.575l-.248.015a3.7 3.7 0 0 1-.388-.016l-.544-.015c-.487-.02-.813-.067-.978-.14-.166-.083-.254-.238-.264-.466-.042-.207.062-.367.31-.481.249-.124.756-.176 1.522-.155.145-.01.342-.016.59-.016.249 0 .451.005.606.016.155.01.243.015.264.015a.37.37 0 0 0 .078-.124c.02-.052.036-.093.046-.124 0-.176.057-.285.171-.327.062-.134.192-.201.388-.201a.82.82 0 0 1 .342.077.61.61 0 0 1 .264.218.845.845 0 0 1 .031.28c0 .134.031.232.093.294.042-.041.176-.067.404-.077a8.6 8.6 0 0 0 .481-.031c.197 0 .399-.006.606-.016a5.2 5.2 0 0 1 .419-.031c.094-.052.239-.078.435-.078.093 0 .223.01.388.031.208 0 .358.047.451.14.093.083.176.181.248.295 0 .114.026.197.078.249.041.03.062.062.062.093a.43.43 0 0 1-.062.14c-.072.093-.259.14-.559.14l-.326.015a6.19 6.19 0 0 1-.497.031c-.456.093-.984.15-1.584.17-.425 0-.637.042-.637.125-.062 0-.181.337-.357 1.01-.062.248-.13.476-.202.683a2.394 2.394 0 0 1-.155.404.227.227 0 0 1 .046.14c0 .051-.031.165-.093.341a4.093 4.093 0 0 1-.109.342.724.724 0 0 0-.062.248c-.01.042-.041.145-.093.31a5.322 5.322 0 0 0-.109.529c-.051.497-.119.787-.202.87-.01.02-.036.062-.077.124a.446.446 0 0 0-.047.202c0 .145-.036.403-.109.776-.072.363-.129.56-.17.59.031 0 .046.031.046.093a.937.937 0 0 1-.093.327c0 .082-.015.18-.047.295a1.084 1.084 0 0 0-.046.233c-.104.29-.249.657-.435 1.102-.186.445-.3.689-.342.73Zm6.22.187c-.093.093-.227.14-.403.14-.249 0-.487-.094-.715-.28a.824.824 0 0 1-.326-.668c0-.093.016-.191.047-.295l1.956-6.383.233-.76c.187-.591.327-1.073.42-1.445a11.8 11.8 0 0 0 .264-1.305l.202-.217a.866.866 0 0 1 .202-.031c.269 0 .512.108.729.326.218.207.327.44.327.699a.845.845 0 0 1-.016.186c-.093.404-.269.973-.528 1.709l-.186.528a137.427 137.427 0 0 0-1.522 4.612 60.815 60.815 0 0 1 1.522-2.035c.994-1.283 2.195-2.562 3.603-3.835.124-.114.383-.394.776-.84.394-.455.689-.807.885-1.055a2.44 2.44 0 0 0 .156-.187.646.646 0 0 1 .233-.217.514.514 0 0 1 .279-.078c.218 0 .435.12.652.358.228.227.342.46.342.699 0 .04-.01.103-.031.186l-.512 1.398c-.311.859-.756 2.158-1.336 3.898-.031.082-.062.17-.093.264-.031.093-.068.196-.109.31-.29.777-.466 1.377-.528 1.802l-.078.481c-.124.787-.243 1.362-.357 1.724-.072.228-.217.342-.435.342-.165 0-.346-.063-.543-.187a1.32 1.32 0 0 1-.404-.388.532.532 0 0 1-.062-.388c.124-.611.311-1.393.559-2.345a11.6 11.6 0 0 1 .435-1.274c.197-.497.393-.957.59-1.382.072-.155.145-.362.217-.621a3.93 3.93 0 0 1 .233-.683c.228-.456.383-1.01.466-1.662a3.96 3.96 0 0 1-.372.575c-.125.144-.29.33-.497.559l-.699.714-.156.124a1.738 1.738 0 0 1-.139.124c-.021.021-.223.249-.606.684-.228.269-.383.445-.466.528-.259.269-.606.683-1.04 1.242-.446.539-.684.823-.715.854-.341.404-.688.829-1.04 1.274a4.866 4.866 0 0 0-.792 1.429 1.08 1.08 0 0 1-.342.496l-.28.296Zm16.945-9.132c-.02.538-.082.932-.186 1.18-.103.249-.248.378-.435.388l-.341-.062a1.705 1.705 0 0 1-.513-.217.481.481 0 0 1-.233-.42c0-.072.036-.243.109-.512.114-.455.171-.735.171-.838 0-.322-.14-.529-.42-.622-.321 0-.73.249-1.227.746-.496.497-.988 1.113-1.475 1.848a13 13 0 0 0-1.149 2.096c-.507 1.46-.792 2.444-.854 2.951.02.083.031.202.031.357 0 .073-.016.109-.047.109.031.228.124.456.28.683.165.218.357.326.574.326.218 0 .482-.036.792-.108.321-.083.554-.176.699-.28.083 0 .213-.036.389-.108.186-.083.31-.14.372-.171.321-.145.59-.254.808-.326.217-.083.419-.125.605-.125.073 0 .213.021.42.062a3.589 3.589 0 0 0-.047.249 2.714 2.714 0 0 1-.093.357c-.176.249-.336.425-.481.528a3.085 3.085 0 0 1-.575.326c-.197.073-.373.16-.528.264-.746.456-1.486.684-2.221.684-.331 0-.694-.073-1.087-.218a3.033 3.033 0 0 1-.947-.512c-.083-.135-.192-.415-.326-.839-.135-.425-.202-.694-.202-.808 0-.03.01-.077.031-.14a.518.518 0 0 0 .031-.14v-.154a.578.578 0 0 1-.031-.187c.01-.32.14-.849.388-1.584.259-.745.6-1.579 1.025-2.5.259-.56.632-1.18 1.118-1.864a14.653 14.653 0 0 1 1.538-1.832c.538-.528.983-.86 1.335-.994.218-.073.394-.109.528-.109.373 0 .725.093 1.056.28.332.176.601.455.808.838.207.373.31.839.31 1.398Zm8.861-2.702c.238.03.414.093.528.186a.539.539 0 0 1 .217.31c.031.114.062.29.093.529l-.17.419a70.874 70.874 0 0 0-1.119 2.982l-.543 1.848-.186.326-.358 1.646a70.984 70.984 0 0 0-.341 1.522 17.56 17.56 0 0 0-.202 1.056c0 .104-.005.187-.016.249-.01.062-.015.124-.015.186-.093.217-.135.357-.124.42 0 .269-.057.445-.171.527-.104.083-.321.125-.653.125a2.25 2.25 0 0 1-.465-.342.96.96 0 0 1-.233-.388c.01-.176.051-.445.124-.808.041-.248.062-.388.062-.42l.186-1.304a2.72 2.72 0 0 1 .109-.186 1.76 1.76 0 0 1 .14-.17 6.51 6.51 0 0 0 .108-.513l.078-.342a7.68 7.68 0 0 0 .155-.652c.073-.3.125-.518.156-.653l-.14.156c-.124.227-.357.543-.699.947-.207.27-.352.466-.435.59-.134.207-.978 1.036-2.531 2.485-.259.259-.471.46-.637.606-.176.186-.326.3-.45.341-.114.042-.326.073-.637.094-.373-.3-.559-.58-.559-.84l.062-.217c.021-.082.052-.14.093-.17.042-.042.099-.088.171-.14.135-.083.43-.321.885-.715.466-.403.808-.709 1.025-.916l.808-.807.823-.901a4.738 4.738 0 0 1-.606-.28 1.37 1.37 0 0 1-.404-.31c-.445-.497-.667-1.129-.667-1.895 0-.559.103-1.087.31-1.584.114-.3.223-.523.326-.668.114-.155.27-.331.466-.528.145-.124.249-.228.311-.31.3-.332.616-.58.947-.746.342-.166.927-.388 1.755-.668.052 0 .254-.02.606-.062a8.39 8.39 0 0 1 .963-.062c.103.041.191.078.264.109.083.03.15.057.202.077a.949.949 0 0 1 .17-.124.468.468 0 0 1 .218-.015Zm-1.398 2.935c.042-.166.119-.394.233-.684.031-.072.078-.191.14-.357.062-.176.119-.362.171-.559a.623.623 0 0 0-.171-.015c-.187 0-.435.03-.746.093a4.804 4.804 0 0 0-1.925.838c-.611.425-1.02.88-1.227 1.367a4.24 4.24 0 0 0-.218.637 1.893 1.893 0 0 0-.046.544c0 .134.01.243.031.326.021.082.057.186.109.31l.124.357c.041.01.119.021.233.031.124.01.212.01.264 0l.372-.124c.456-.134.798-.274 1.025-.42.187-.092.358-.139.513-.139a.73.73 0 0 1 .326.062l.047-.124.745-2.143Zm4.314 5.218a.455.455 0 0 1-.357-.186.703.703 0 0 1-.109-.389.91.91 0 0 0-.031-.124 1.589 1.589 0 0 1-.015-.217c0-.052.005-.094.015-.125 0-.051.047-.18.14-.388.072-.176.124-.305.155-.388.114-.197.285-.424.513-.683.238-.27.445-.466.621-.59l.264-.187c0-.041.072-.119.217-.233.145-.114.269-.197.373-.248a10.9 10.9 0 0 1 .217-.156c.104-.072.202-.15.295-.233.228-.227.399-.44.513-.636.114-.207.197-.414.248-.622.052-.207.13-.559.233-1.056.011-.341-.005-.559-.046-.652-.031-.093-.114-.191-.249-.295a2.575 2.575 0 0 0-.341-.031c-.694 0-1.232.42-1.615 1.258-.073.186-.109.32-.109.404 0 .051.015.119.046.202 0 .062.011.155.031.28.032.113.047.201.047.263a1.73 1.73 0 0 1-.559.109c-.207 0-.368-.057-.481-.17a2.111 2.111 0 0 0-.125-.156 4.646 4.646 0 0 1-.155-.218.496.496 0 0 1-.078-.186 1.17 1.17 0 0 1-.015-.186 1.59 1.59 0 0 0 .015-.218 4.84 4.84 0 0 1 .559-1.165c.249-.383.549-.662.901-.838a8.61 8.61 0 0 0 .901-.466h.155l.357-.047h.171c.104 0 .156.021.156.063h.45c.186.051.419.17.699.357.279.176.476.326.59.45.062.197.093.435.093.714 0 .518-.098 1.082-.295 1.693-.197.6-.45 1.072-.761 1.413l-.342.311c-.507.456-.828.761-.962.916-.332.187-.637.471-.917.855a4.618 4.618 0 0 0-.621 1.18c-.197.414-.461.621-.792.621Zm-.357 2.749a1.338 1.338 0 0 1-.497.124c-.155 0-.331-.072-.528-.217-.155-.156-.233-.311-.233-.466 0-.26.191-.518.574-.777a4.3 4.3 0 0 1 .28-.155.5.5 0 0 1 .217-.062c.083 0 .223.041.42.124.3.176.45.388.45.637 0 .29-.228.554-.683.792Z" fill="#1EA6F9"/></g><defs><clipPath id="a"><path fill="#fff" d="M0 0h366v326H0z"/></clipPath></defs></svg>