<svg width="366" height="326" fill="none" xmlns="http://www.w3.org/2000/svg"><circle opacity=".1" cx="207.974" cy="169" r="123" fill="#B5E3FF"/><circle opacity=".4" cx="207.974" cy="169" r="94.813" fill="#B5E3FF"/><path opacity=".23" d="M168.025 273.486c-5.375-3.51-13.438 1.462-16.797 4.387l52.631-73.763 50.952 21.663 5.879 55.665c-3.173-1.188-10.694-3.565-15.398-3.565-5.879 0-27.715 6.581-38.073 6.581-10.359 0-32.475-6.581-39.194-10.968Z" fill="#070707"/><path d="M188.729 272.042c20.426 5.523 41.477 4.045 57.812-2.038 4.452 4.298 15.321 13.855 16.071 9.842a54.7 54.7 0 0 0-.676-17.953 37.148 37.148 0 0 0 11.566-13.137c10.309-20.847 8.956-42.591-5.487-62.192-1.914-10.37-11.641-32.854-15.933-35.262 12.01-14.257 15.246-34.85-5.541-47.871-20.786-13.021-49.259-4.995-52.864 14.985-3.606 19.981 5.688 23.889 5.688 23.889s-12.688 5.797-16.811 8.997c-4.124 3.2-10.922 8.998-10.922 8.998l-12.465 5.344-5.086 2.217-1.903 2.324s-19.613 12.166-21.336 31.439c-1.724 19.273 5.011 36.962 6.914 38.018 1.904 1.056 13.1 13.423 13.1 13.423l-2.453 5.871-.655 8.343-.148 6.907-.656 2.999 1.956.623 4.293-1.763 6.344-5.397 7.496-5.924a27.561 27.561 0 0 1 6.555 2.112c2.77 1.383 15.141 5.206 15.141 5.206Z" fill="#F5FCFF"/><path d="M185.388 156.023s9.061-5.903 13.11-7.783c4.05-1.88 5.53-2.704 5.53-2.704 2.842.607 5.733.96 8.638 1.056 3.5 0 9.579-1.964 12.825-2.027 4.726-.602 12.825 3.094 20.512 7.688 9.716 5.798 16.916 21.977 18.354 27.901 1.438 5.925 0 2.112 0 2.112s-15.785-18.924-45.612-24.596c-29.826-5.671-34.964-.126-34.964-.126l1.607-1.521Z" fill="#B5E3FF"/><path d="M136.678 224.403s-4.325-18.872 5.72-35.452a60.464 60.464 0 0 1 5.286-7.392c-6.862 23.698 7.845 5.016 12.307 1.467 4.229-3.4 37.618 4.721 4.948-15.186 13.259-6.632 33.421-11.616 59.97-3.823 16.462 4.858 32.607 15.577 40.758 27.511-37.882 6.062-4.609 9.705-2.949 13.729 2.114 5.153 5.381 30.087 11.63 13.422 1.829 13.602-1.205 26.402-8.543 33.794-11.334-16.189-24.836-26.137-65.214-24.564-26.253-19.41-50.422-14.288-63.913-3.506Z" fill="#B5E3FF"/><path d="M254.471 151.302s7.401-11.152 5.699-20.318c-1.554-8.09-7.052-23.762-26.189-28.852-14.157-3.78-33.516 1.542-36.297 23.064-2.02 15.63 14.622 21.798 17.276 21.555 2.654-.243 14.379-2.968 15.859-5.925 4.082.803 21.231 10.476 21.231 10.476h2.421ZM143.455 199.87s8.723-26.686 14.802-28.64c6.08-1.954 15.331 5.502 21.009 9.769-4.229.58-11.017 3.368-12.434 4.52-1.554-1.627-6.756-3.855-6.756-3.855l-2.305 2.112-1.385 6.896a37.86 37.86 0 0 0-6.682 3.633 68.296 68.296 0 0 0-6.249 5.565Zm110.783 6.643s-2.833-4.583-4.387-5.523c-1.555-.94-4.589-3.168-4.589-3.168s21.146-3.844 24.635-.75c3.489 3.094 1.174 29.718 1.174 29.718l-1.481 3.379s-2.802-5.523-3.806-8.015c-1.004-2.493-4.906-7.15-4.906-7.15l2.199-6.738-1.755-3.052h-4.388l-2.696 1.299Zm-100.685 49.308a6.02 6.02 0 0 0-2.295 3.569c-.539 2.429-.877 7.952 0 9.104.878 1.151 1.343 3.168.878 4.108a3.843 3.843 0 0 1-2.168 2.112 1.442 1.442 0 0 0-1.114 1.343c-.008.209.029.418.11.611.328.813 2.696.612 3.235 0 .54-.613 5.847-4.784 7.285-5.999 1.438-1.214 5.636-5.872 7.496-5.924 1.861-.053-2.971-2.577-2.971-2.577l-10.456-6.347Zm93.94 14.056s4.99-2.503 6.249-3.168c1.258-.665 7.686-4.436 7.686-4.436s-3.172 4.341-3.172 7.615c0 3.273.941 6.262 1.586 6.674.645.412 2.432-.201 3.003.507.571.707-.571 2.788-.983 2.788-.413 0-4.409-.401-5.71-2.408-1.3-2.006-5.593-5.101-6.777-5.576-1.184-.475-2.833-1.278-2.833-1.278l.951-.718Zm-70.841-65.549c6.706-2.03 11.02-7.377 9.634-11.943-1.385-4.566-7.944-6.621-14.65-4.592-6.706 2.03-11.02 7.377-9.634 11.943 1.385 4.566 7.944 6.622 14.65 4.592Zm73.403 18.087c3.768-2.932 3.333-9.784-.972-15.306-4.306-5.522-10.851-7.623-14.62-4.691-3.768 2.931-3.333 9.784.972 15.306 4.306 5.522 10.851 7.622 14.62 4.691Z" fill="#1EA6F9"/><path d="M167.811 229.246c.762-3.738-4.038-7.87-10.721-9.229-6.683-1.359-12.718.569-13.48 4.307-.762 3.737 4.038 7.869 10.721 9.229 6.683 1.359 12.718-.569 13.48-4.307Zm91.518 22.033c1.085-3.658-3.337-8.191-9.877-10.126-6.539-1.935-12.72-.538-13.804 3.119-1.085 3.657 3.337 8.191 9.876 10.126 6.54 1.934 12.72.538 13.805-3.119Z" fill="#FFDCD9"/><path d="M214.061 276.562a94.532 94.532 0 0 1-20.913-2.26c-16.652-3.823-70.268-20.424-62.708-73.238 1.85-12.969 8.786-23.656 20.416-31.798a1.133 1.133 0 0 1 1.693 1.129 1.131 1.131 0 0 1-.403.719c-11.186 7.762-17.752 17.953-19.517 30.267-7.285 50.923 44.818 67.018 60.963 70.756 27.68 6.336 73.26.074 83.156-33.731a56.241 56.241 0 0 0-1.332-36.497 1.13 1.13 0 0 1 .65-1.463 1.133 1.133 0 0 1 1.465.65 58.497 58.497 0 0 1 1.395 37.944c-8.024 27.415-38.369 37.522-64.865 37.522Zm57.634-83.567a1.132 1.132 0 0 1-.963-.528c-10.097-16.305-28.462-28.197-51.701-33.54-15.236-3.496-40.759-2.334-60.773 8.512a1.137 1.137 0 0 1-1.429-.515 1.134 1.134 0 0 1 .371-1.471c20.512-11.11 46.701-12.303 62.381-8.723 23.831 5.46 42.693 17.731 53.118 34.555a1.113 1.113 0 0 1 .028 1.135 1.122 1.122 0 0 1-.98.575h-.052Zm-17.996-39.591a1.06 1.06 0 0 1-.729-.275 1.126 1.126 0 0 1-.394-.765 1.127 1.127 0 0 1 .267-.819c.084-.084 8.004-9.431 8.775-19.97.772-10.54-10.361-31.682-34.467-33.583a29.777 29.777 0 0 0-23.134 7.551c-7.401 6.621-10.573 15.577-10.573 18.185-.095 3.369.296 11.776 5.826 17.151 3.637 3.527 8.902 5.132 15.658 4.752 6.756-.38 11.874-2.482 15.13-6.273a17.877 17.877 0 0 0 3.891-12.176 1.134 1.134 0 0 1 .291-.762 1.139 1.139 0 0 1 1.515-.15c.226.168.381.414.435.69a19.853 19.853 0 0 1-4.409 13.845c-3.658 4.224-9.304 6.653-16.758 7.065-7.454.412-13.248-1.405-17.35-5.386-6.174-5.998-6.64-15.176-6.513-18.819.095-3.327 3.616-12.852 11.356-19.791a31.963 31.963 0 0 1 24.814-8.12c25.925 2.111 37.397 24.183 36.53 35.979-.825 11.3-8.966 20.879-9.304 21.28-.107.122-.239.22-.386.288a1.158 1.158 0 0 1-.471.103Z" fill="#070707"/><path d="M171.632 161.419a1.142 1.142 0 0 1-.824-.359 1.128 1.128 0 0 1 .063-1.594 130.989 130.989 0 0 1 13.914-11.036 88.334 88.334 0 0 1 13.935-7.118 1.135 1.135 0 0 1 1.452 1.511 1.134 1.134 0 0 1-.627.601 86.9 86.9 0 0 0-13.534 6.907 133.55 133.55 0 0 0-13.618 10.771 1.045 1.045 0 0 1-.761.317Zm96.372 26.275a1.123 1.123 0 0 1-1.121-1.056c0-.105-.37-10.497-7.697-24.49-7.327-13.993-28.462-20.857-28.673-20.931a1.112 1.112 0 0 1-.756-.53 1.123 1.123 0 0 1-.102-.916 1.126 1.126 0 0 1 1.085-.773c.159.002.316.039.46.107.909.295 22.288 7.318 29.974 21.976 7.591 14.49 7.94 25.04 7.951 25.483a1.132 1.132 0 0 1-1.057 1.151l-.064-.021Zm-118.406 91.244c-2.114 0-3.066-.824-3.489-1.542a2.885 2.885 0 0 1 .222-3.041c.391-.666.307-4.225.254-6.569 0-1.69-.074-3.432 0-4.985.137-4.741 3.172-10.064 3.267-10.286.073-.128.17-.241.287-.331a1.13 1.13 0 0 1 1.578.195 1.123 1.123 0 0 1 .091 1.245s-2.855 5.059-2.971 9.241v4.868c.095 4.224.116 6.717-.624 7.847a.734.734 0 0 0-.159.686c.117.19.667.486 1.978.412 1.522-.095 3.023-1.658 4.609-3.305a21.924 21.924 0 0 1 3.553-3.169 22.048 22.048 0 0 0 2.781-2.312c2.061-1.912 4.409-4.077 7.528-4.077a1.13 1.13 0 0 1 0 2.25c-2.242 0-4.071 1.689-6.006 3.474a23.852 23.852 0 0 1-3.066 2.545 19.725 19.725 0 0 0-3.172 2.862c-1.818 1.891-3.7 3.834-6.09 3.992h-.571Zm111.534 2.461c-1.533 0-3.796-.95-6.238-3.664-2.442-2.715-9.844-6.4-9.918-6.442a1.128 1.128 0 1 1 1.058-1.996c.328.158 7.961 4.055 10.573 6.938 2.357 2.608 4.134 2.989 4.715 2.904a4.223 4.223 0 0 0 .878-2.83c-.529-.391-1.745-1.658-.37-8.311a11.501 11.501 0 0 0-.74-5.439 1.134 1.134 0 0 1-.242-1.387 1.131 1.131 0 0 1 1.299-.546c1.575.571 2.273 5.788 1.85 7.826-.729 3.548-.666 5.734-.38 6.146.719.486.993 1.605.719 3.073-.233 1.194-1.058 3.306-2.464 3.644a2.975 2.975 0 0 1-.74.084Zm-117.677-81.074h-.211a1.131 1.131 0 0 1-.846-1.342c.962-5.037 6.069-30.298 11.905-32.516 11.969-4.562 25.491 12.673 26.062 13.444a1.118 1.118 0 0 1-.211 1.573 1.115 1.115 0 0 1-.832.221 1.126 1.126 0 0 1-.743-.432c-.127-.158-13.047-16.675-23.472-12.673-3.426 1.299-8.205 18.82-10.499 30.838a1.134 1.134 0 0 1-1.153.887Z" fill="#070707"/><path d="M156.989 191.729a1.12 1.12 0 0 1-1.121-1.056c0-1.363-.064-8.28 3.055-9.801 3.352-1.626 7.465 3.38 7.919 3.95a1.123 1.123 0 1 1-1.755 1.405c-1.353-1.701-3.943-3.929-5.17-3.338-1.226.592-1.871 5.006-1.808 7.731a1.12 1.12 0 0 1-1.057 1.151l-.063-.042Zm112.094 40.679a1.187 1.187 0 0 1-.497-.116 1.131 1.131 0 0 1-.507-1.51c.126-.254 12.56-25.684 4.704-35.748-4.736-6.083-21.145.306-27.013 3.274a1.144 1.144 0 0 1-.862.081 1.134 1.134 0 0 1-.747-1.411 1.124 1.124 0 0 1 .551-.666c.941-.475 22.965-11.427 29.805-2.661 8.723 11.183-3.922 37.036-4.461 38.134a1.15 1.15 0 0 1-.973.623Z" fill="#070707"/><path d="M260.878 216.493a1.108 1.108 0 0 1-.945-.479 1.112 1.112 0 0 1-.112-1.052c1.48-3.718 2.115-7.667 1.343-8.269-1.058-.856-4.483.169-6.439 1.13a1.13 1.13 0 0 1-1.507-.512 1.12 1.12 0 0 1 .513-1.505c1.057-.497 6.227-2.905 8.818-.887 2.59 2.017.18 8.839-.635 10.877a1.134 1.134 0 0 1-1.036.697Zm-87.015 8.86c4.21 0 7.623-3.409 7.623-7.614s-3.413-7.614-7.623-7.614c-4.21 0-7.623 3.409-7.623 7.614s3.413 7.614 7.623 7.614Zm58.574 14.289c4.21 0 7.623-3.409 7.623-7.614s-3.413-7.614-7.623-7.614c-4.21 0-7.623 3.409-7.623 7.614s3.413 7.614 7.623 7.614Z" fill="#070707"/><path d="M169.137 219.556c.064-1.753 3.035-2.493 5.065-1.891 2.03.602 3.912 1.553 3.711 2.83-.201 1.278-2.347 2.366-4.377 2.113-2.03-.254-4.462-1.162-4.399-3.052ZM227.7 233.58c.212-1.858 3.257-2.429 5.35-2.112 2.094.317 3.807 1.848 3.606 3.263-.201 1.416-2.517 2.324-4.547 2.06-2.03-.264-4.609-1.341-4.409-3.211Z" fill="#333"/><path d="M177.712 218.141a1.817 1.817 0 1 0 0-3.633 1.817 1.817 0 1 0 0 3.633Zm-3.373.528a1.005 1.005 0 1 0-.001-2.01 1.005 1.005 0 0 0 .001 2.01Zm62.221 13.348a1.817 1.817 0 1 0-1.818-1.817c0 1.004.814 1.817 1.818 1.817Zm-3.372.528a1.003 1.003 0 1 0 .002-2.006 1.003 1.003 0 0 0-.002 2.006Z" fill="#fff"/><path d="M184.996 228.384s2.845 3.168 5.942 3.643a21.11 21.11 0 0 0 9.791-.95c1.882 2.429 4.737 5.396 7.211 6.041 2.474.644 6.756.834 8.638-.264-3.341 15.123-11.514 16.231-17.731 15.408-5.879-.782-14.506-4.51-14.39-15.113a33.423 33.423 0 0 1 .539-8.765Z" fill="#4F172F"/><path d="M201.607 253.571a21.593 21.593 0 0 1-2.908-.2c-7.507-.993-15.479-5.777-15.362-16.232a34.324 34.324 0 0 1 .571-9.019 1.117 1.117 0 0 1 1.428-.807c.196.062.371.177.506.332 0 0 2.601 2.894 5.287 3.263 3.121.44 6.302.136 9.283-.887a1.113 1.113 0 0 1 1.237.37c2.379 3.073 4.853 5.185 6.608 5.639 2.464.634 6.344.708 7.792-.148a1.127 1.127 0 0 1 1.228.094 1.12 1.12 0 0 1 .401 1.163c-2.422 11.015-7.687 16.432-16.071 16.432Zm-15.86-22.916a39.269 39.269 0 0 0-.19 6.442c-.127 11.384 10.245 13.634 13.417 14.056 5.286.697 12.592.085 16.018-12.599-2.466.37-4.981.251-7.401-.348-2.855-.75-5.815-3.96-7.338-5.819a22.102 22.102 0 0 1-9.515.75 10.787 10.787 0 0 1-4.991-2.482Z" fill="#000"/><path d="M197.885 232.028s-3.51-3.369-2.358-6.674c1.152-3.306 5.731-2.366 7.961-1.616 2.231.75 5.604 2.492 4.526 4.647-1.079 2.154-5.541 5.195-5.541 5.195l-2.431-2.291-2.157.739Z" fill="#070707"/><path d="M200.634 228.944a3.765 3.765 0 0 1-1.237-1.478.939.939 0 0 1 .655-1.056 4.231 4.231 0 0 1 2.305.76c.444.296 2.03 1.056 1.501 1.352-.528.296-1.607-.158-1.586.137.022.296.138.856-.317.856-.472-.106-.92-.3-1.321-.571Z" fill="#333"/><path d="M192.355 267.818c4.102.264 7.961-2.292 8.099-9.23.137-6.939 5.128-8.839 5.128-10.318a5.131 5.131 0 0 0-5.403-4.446c-3.436.338-6.746 3.907-6.883 6.336.137-2.492 3.849-5.871 3.849-5.871a3.764 3.764 0 0 0-2.496-2.112c-3.034-.476-9.114 2.83-9.114 10.106s-.539 15.06 6.82 15.535Z" fill="#F87294"/><path d="M192.937 268.958h-.656c-7.94-.507-7.909-8.322-7.877-15.228v-1.394a11.497 11.497 0 0 1 3.923-8.913 8.701 8.701 0 0 1 6.481-2.313 4.636 4.636 0 0 1 3.045 2.196 7.417 7.417 0 0 1 2.21-.58 5.828 5.828 0 0 1 4.546 1.531 6.106 6.106 0 0 1 2.115 4.034c0 .929-.666 1.616-1.523 2.482a10.558 10.558 0 0 0-3.595 7.836c-.074 3.622-1.142 6.484-3.087 8.279a8.005 8.005 0 0 1-5.582 2.07Zm-.508-2.249a6.058 6.058 0 0 0 4.536-1.458c1.491-1.372 2.305-3.675 2.368-6.674a12.675 12.675 0 0 1 4.229-9.399c.32-.295.61-.62.867-.971a4.066 4.066 0 0 0-1.332-2.303 3.544 3.544 0 0 0-2.823-.95 7.659 7.659 0 0 0-2.972 1.197 7.626 7.626 0 0 0-2.219 2.309 4.329 4.329 0 0 0-.677 1.669 1.121 1.121 0 1 1-2.241-.022v-.327c.103-.635.31-1.249.613-1.816a16.23 16.23 0 0 1 2.886-3.834c-.3-.405-.735-.69-1.226-.803a6.475 6.475 0 0 0-4.673 1.785 9.283 9.283 0 0 0-3.172 7.213v1.405c0 7.846.328 12.673 5.773 12.979h.063Z" fill="#A50639"/><path d="M40.705 56.16C37.57 84.206 81.616 97.147 107.27 99.674c35.878 4.012 46.195 2.095 55.183 1.565l9.521 21.261 10.81-25.127c12.294-2.719 66.168-6.672 64.994-38.27-1.275-34.321-75.498-41.188-101.424-42.04-25.925-.852-101.492 1.92-105.649 39.097Z" fill="#fff"/><path d="M75.894 36.595c.192.03.359.127.5.29.141.162.212.34.212.533a.465.465 0 0 1-.015.137.895.895 0 0 1-.121.244.224.224 0 0 1-.167.061c-.1 0-.252-.05-.454-.152-.101.173-.157.285-.167.335-.04.153-.096.316-.167.488-.09.112-.227.438-.409.976-.172.54-.257.89-.257 1.053-.051.142-.127.401-.228.777-.1.376-.217.788-.348 1.235a941.593 941.593 0 0 0-.864 3.005c-.01.162-.035.36-.076.594-.02.153-.04.371-.06.656.01.02.015.056.015.107a.248.248 0 0 1-.045.152.202.202 0 0 1-.091.077c-.132.111-.314.167-.546.167-.252 0-.43-.066-.53-.198-.152-.264-.212-.468-.182-.61.03-.356.111-.925.242-1.708a7.84 7.84 0 0 1 .197-.778c.071-.233.117-.335.137-.305l.303-1.098c.06-.172.106-.34.136-.503.04-.173.07-.29.091-.35.08-.387.177-.748.288-1.083.141-.336.288-.839.44-1.51.06-.224.14-.478.242-.762.11-.285.182-.432.212-.443a8.636 8.636 0 0 0-.803.122 8.754 8.754 0 0 1-.879.138l-1.03.152c-.566.081-.869.122-.91.122l-1.09 2.547-.773 2.028c-.212.722-.44 1.428-.682 2.12-.03.101-.096.305-.197.61a7.774 7.774 0 0 0-.257.96l-.106.534a.897.897 0 0 1-.243.335.487.487 0 0 1-.333.107c-.313 0-.54-.056-.682-.168-.131-.111-.197-.29-.197-.533.04-.132.101-.3.182-.503.06-.163.106-.31.136-.443.07-.284.142-.538.212-.762l.121-.366c.324-1.118.597-1.952.819-2.501l.409-1.159c.03-.061.086-.208.166-.442l.53-1.586c.243-.488.415-.93.516-1.327a.698.698 0 0 1-.106-.381c0-.163.045-.3.136-.412a.506.506 0 0 1 .394-.167c.07 0 .121.005.152.015.171.05.464.086.879.106.414.01.626.01.636 0 .1-.05.58-.137 1.44-.259.868-.122 1.722-.234 2.56-.335l.167-.015c.09 0 .272.025.545.076Zm.962 10.949c-.1 0-.252-.051-.454-.153-.202-.102-.303-.208-.303-.32a.943.943 0 0 0-.015-.122.65.65 0 0 0-.061-.183c0-.254.025-.457.076-.61 0-.112.015-.234.045-.366.03-.132.066-.239.106-.32 0-.081.02-.188.06-.32a4.63 4.63 0 0 0 .077-.29l.09-.32.258-.778c.05-.122.086-.224.106-.305a.951.951 0 0 0 .03-.229c.061-.203.137-.462.228-.778.09-.315.166-.59.227-.823.05-.05.076-.127.076-.229.02-.06.066-.203.136-.427.07-.234.152-.477.243-.732.151-.447.267-.813.348-1.098.08-.284.121-.483.121-.594a.351.351 0 0 0-.045-.183 1.129 1.129 0 0 0-.046-.122.853.853 0 0 1-.06-.183c0-.041.02-.082.06-.122a.48.48 0 0 0 .091-.122c.03-.051.05-.087.06-.107 0-.04.248-.158.743-.35.505-.204.894-.346 1.167-.428h.924c.283.04.56.122.834.244.272.122.5.275.681.458.314.294.596.727.849 1.296 0 .04.01.132.03.274.03.133.046.25.046.351 0 .478-.172 1.027-.515 1.647a5.45 5.45 0 0 1-1.38 1.647 3.987 3.987 0 0 1-1.06.61 2.866 2.866 0 0 1-1.045.213 1.91 1.91 0 0 1-.425-.045.769.769 0 0 1-.394-.305.982.982 0 0 1-.106-.443c0-.132.02-.218.061-.259.04-.01.151-.015.333-.015.182 0 .45-.066.803-.198.263-.092.475-.188.637-.29.475-.305.894-.752 1.257-1.342.202-.325.303-.813.303-1.464.02-.102.03-.178.03-.229a.6.6 0 0 0-.272-.503c-.172-.142-.42-.229-.743-.26a1.242 1.242 0 0 0-.227-.014 2.59 2.59 0 0 0-.606.076c-.212.05-.363.107-.454.168-.03 0-.056.035-.076.106-.02.072-.046.138-.076.199 0 .08-.035.233-.106.457-.06.224-.126.432-.197.625l-.197.58c-.131.335-.222.6-.273.793-.03.132-.07.274-.12.427a3.405 3.405 0 0 1-.107.274c0 .02-.03.112-.09.275-.061.162-.107.3-.137.411a6.865 6.865 0 0 1-.379 1.312c-.232.762-.348 1.296-.348 1.601a.5.5 0 0 0 .045.244c.172.01.293.03.364.061.08.02.12.066.12.137 0 .122-.16.387-.484.793-.09.234-.187.402-.288.504-.1.101-.187.157-.257.167a1.26 1.26 0 0 1-.319.03Zm16.776-10.873a.61.61 0 0 1 .546.214.803.803 0 0 1 .182.823c-.132.264-.425.981-.88 2.15a446.588 446.588 0 0 0-1.317 3.4l-1.091 3.172c-.05.143-.157.407-.319.794a2.451 2.451 0 0 0-.272.792.984.984 0 0 1-.243.427c-.11.122-.227.183-.348.183a.245.245 0 0 1-.152-.045c-.464-.173-.697-.448-.697-.824 0-.03.01-.096.03-.198-.02.132.122-.178.425-.93.313-.763.566-1.403.758-1.922.747-1.88 1.12-2.856 1.12-2.928.122-.315.203-.538.243-.67.121-.397.243-.712.364-.946l.257-.686-5.348 6.222c-.07.06-.268.238-.591.533a6.207 6.207 0 0 1-.636.58c-.071.05-.192.142-.364.274a4.228 4.228 0 0 1-.44.32c-.13.092-.237.138-.318.138-.575-.102-.863-.336-.863-.702 0-.162.04-.345.12-.549.082-.213.132-.35.152-.411.122-.387.197-.697.228-.93.11-.458.267-1.007.47-1.648.02-.08.07-.269.15-.564a4.1 4.1 0 0 0 .168-.839c.141-.274.333-.721.575-1.342l.213-.548c.04-.082.13-.33.272-.748.091-.315.187-.58.288-.793l.152-.29c.192-.376.338-.68.439-.914.111-.244.172-.448.182-.61 0-.132.045-.229.136-.29a.524.524 0 0 1 .334-.107c.171 0 .328.051.47.153a.613.613 0 0 1 .272.366c.04.111.06.239.06.38 0 .133-.02.255-.06.367l-1.258 3.218-1.378 3.66-.364.914 3.06-3.08c.344-.356.667-.737.97-1.144.263-.345.515-.65.758-.915a33 33 0 0 1 .894-.93l.348-.366 1.925-2.058a.626.626 0 0 1 .378-.153Zm-4.56 10.873v.015-.015Zm7.618.64a5.105 5.105 0 0 1-.878.076 1.56 1.56 0 0 1-.622-.106 1.227 1.227 0 0 1-.439-.29c-.09-.081-.136-.203-.136-.366 0-.102.02-.173.06-.213.142-.092.288-.163.44-.214.151-.05.409-.091.772-.122a4.66 4.66 0 0 0 2.076-.381c.657-.285 1.111-.625 1.364-1.022.192-.346.288-.635.288-.87 0-.253-.116-.508-.349-.762a.832.832 0 0 0-.227-.137.704.704 0 0 0-.243-.06l-.257-.031c-.182 0-.328.02-.44.06a2.1 2.1 0 0 0-.393.184c-.05.03-.157.091-.319.183a1.51 1.51 0 0 1-.439.152.774.774 0 0 1-.348.229c-.152.05-.298.076-.44.076-.141 0-.237-.025-.288-.076-.06 0-.11.03-.151.091a2.39 2.39 0 0 0-.197.366c-.02.061-.066.163-.137.305a4.44 4.44 0 0 1-.197.519c-.02.06-.055.152-.106.274-.04.122-.065.214-.075.275-.152.376-.278.63-.38.762-.1.132-.201.199-.302.199a.2.2 0 0 1-.121-.046 1.321 1.321 0 0 1-.137-.122 1.21 1.21 0 0 0-.151-.183c-.071 0-.142-.04-.212-.122a.557.557 0 0 1-.106-.351 1 1 0 0 1 .075-.35 25.8 25.8 0 0 0 .425-1.144c.474-1.302.727-1.962.757-1.983a.516.516 0 0 1 .091-.29c.06-.07.09-.117.09-.137.021-.04.107-.26.258-.656.152-.396.293-.66.425-.793 0-.08.141-.345.424-.792.03-.072.106-.26.227-.565.04-.122.076-.213.106-.274.03-.071.05-.117.06-.137.092-.102.137-.189.137-.26 0-.04-.025-.086-.075-.137a2.163 2.163 0 0 0-.122-.137c-.02-.02-.04-.092-.06-.214a1.879 1.879 0 0 1-.03-.29c0-.03.166-.132.5-.304.343-.183.585-.305.727-.366a12.453 12.453 0 0 1 1.121-.442c.141-.051.298-.087.47-.107a2.37 2.37 0 0 1 .454-.016.965.965 0 0 1 .334-.06.88.88 0 0 1 .424.106c.161.051.368.183.621.397.253.203.394.386.424.549.041.203.061.35.061.442 0 .132-.036.27-.106.412-.02.213-.101.528-.243.945-.141.417-.252.666-.333.747-.141.224-.242.392-.303.504-.242.437-.48.782-.712 1.036-.02.02-.07.077-.152.168-.08.092-.212.244-.394.458.05 0 .152.01.303.03.162.01.278.036.349.076.232.153.439.346.621.58.192.224.328.457.409.701a.65.65 0 0 1 .091.366c0 .204-.05.443-.151.717a3.113 3.113 0 0 1-.364.732c-.091.173-.288.422-.59.747-.294.315-.46.473-.5.473a.32.32 0 0 0-.198 0c-.07.03-.192.086-.364.168-.08.091-.166.167-.257.228-.08.072-.147.097-.197.077a6.06 6.06 0 0 0-.576.274c-.263.071-.651.153-1.166.244Zm-.47-5.032c.021.03.152-.005.395-.107.252-.102.52-.234.803-.396a3.41 3.41 0 0 0 .666-.458c.192-.132.37-.295.53-.488.162-.203.243-.335.243-.396.01-.03.04-.097.091-.199a2.72 2.72 0 0 1 .227-.32 2.11 2.11 0 0 0 .288-.35c.081-.123.121-.204.121-.245.01-.03.036-.09.076-.182a17.9 17.9 0 0 1 .182-.32 1.2 1.2 0 0 0 .227-.504c.051-.193.081-.3.091-.32.02-.214-.015-.371-.106-.473-.08-.112-.207-.168-.379-.168l-.136.016-.364.045c-.161.02-.308.051-.44.092-.12.03-.236.076-.348.137-.252.163-.378.29-.378.381 0 .051.035.077.106.077.05 0 .076.035.076.106 0 .143-.097.371-.288.687-.162.284-.49.91-.985 1.875-.485.966-.717 1.47-.697 1.51Zm7.355 4.636c-.071-.102-.192-.173-.364-.214-.161-.03-.424-.035-.787-.015a1.15 1.15 0 0 1-.652-.107c-.212-.102-.298-.218-.258-.35.011-.133.157-.265.44-.397a2.52 2.52 0 0 1 1.045-.229l.637-.015.151-.305a.626.626 0 0 0 .061-.183.813.813 0 0 1 .045-.183l.137-.549.227-.732c.303-.925.5-1.576.591-1.952.05-.122.131-.366.242-.732.111-.366.197-.666.258-.9.464-1.433.656-2.16.576-2.18-.101-.01-.369.01-.803.06-.435.041-.677.077-.728.108-.05.07-.136.06-.257-.03a.58.58 0 0 1-.228-.306.543.543 0 0 1-.015-.152c0-.143.036-.234.106-.275.101-.091.359-.193.773-.305.424-.112.818-.193 1.182-.244.172-.02.343-.056.515-.107.182-.06.318-.132.409-.213a1.42 1.42 0 0 1 .53-.092c.071.051.243.077.516.077.232 0 .409-.005.53-.016.263-.02.444-.03.545-.03.606 0 .97.142 1.091.427.021.102.031.178.031.229a.434.434 0 0 1-.122.32c-.07.081-.171.117-.303.107-.181.05-.52.081-1.015.091-.666.061-1.025.132-1.076.214-.05.05-.09.096-.121.137a.743.743 0 0 1-.076.122c.011.091-.08.422-.272.991l-.273.808a38.371 38.371 0 0 1-.545 1.632c-.071.173-.122.35-.152.534-.081.274-.157.538-.227.793-.061.244-.127.477-.197.701l-.591 2.12.909-.076a17.03 17.03 0 0 1 1.076-.092c.101 0 .166.01.197.03.03.02.05.056.06.107.01.04.021.071.031.092a.593.593 0 0 1 .136.35c0 .184-.121.33-.364.443-.242.111-.575.162-1 .152-.454.02-.823.036-1.106.046-.283.02-.459.046-.53.076-.071.03-.106.082-.106.153a.215.215 0 0 1-.091.213.404.404 0 0 1-.273.092c-.192 0-.363-.082-.515-.244Z" fill="#1EA6F9"/><path d="M117.169 38.318c.01.04.015.091.015.152a.304.304 0 0 1-.182.29l-.363.122a1.57 1.57 0 0 1-.425.076.588.588 0 0 1-.212-.03.906.906 0 0 0-.363-.198c-.142-.041-.435-.077-.879-.107a2.36 2.36 0 0 1-.349.03c-.101 0-.182.005-.242.016a4.474 4.474 0 0 1-.303.747 2.414 2.414 0 0 1-.167.518c-.071.204-.101.32-.091.351-.03.04-.126.3-.288.778a54.79 54.79 0 0 0-.454 1.372c-.101.315-.177.544-.228.686a5.18 5.18 0 0 0-.196.488l-.152.458-.379 1.052a6.144 6.144 0 0 0-.303.732c-.111.325-.202.62-.273.885-.111.396-.212.68-.303.853-.08.173-.151.28-.212.32a.457.457 0 0 1-.257.062c-.162 0-.303-.082-.425-.244-.121-.163-.181-.316-.181-.458 0-.223.075-.6.227-1.128.162-.529.313-.95.454-1.266.041-.183.076-.33.107-.442.04-.112.065-.193.075-.244.031-.04.076-.148.137-.32.07-.183.126-.351.166-.504.031-.183.344-1.204.94-3.065l.106-.32c.091-.152.177-.346.257-.58.081-.05.122-.157.122-.32 0-.03.015-.07.045-.122.04-.05.061-.086.061-.106a.061.061 0 0 1 .045-.016c.01 0 .02.005.03.016.021 0 .051-.02.091-.061h-.015l-.742.076-.334.03c-.596.051-.934.087-1.015.107l-.212.015c-.313 0-.535-.06-.667-.183a.46.46 0 0 1-.121-.442.516.516 0 0 1 .228-.32c.131-.081.343-.153.636-.214.091-.02.268-.05.53-.091l.409-.076.515-.061a17.313 17.313 0 0 1 1.864-.183c.273-.01.5-.02.682-.03.192-.021.318-.036.379-.047.141.01.368.036.682.077.323.04.555.086.696.137.223.05.405.142.546.274.141.133.237.285.288.458Zm.121 6.389a.454.454 0 0 1-.136.016.573.573 0 0 1-.47-.23c-.111-.162-.167-.406-.167-.731 0-.254.046-.57.137-.946.141-.284.212-.498.212-.64.05-.173.131-.391.242-.656.111-.274.202-.483.273-.625.04 0 .081-.036.121-.107a.364.364 0 0 0 .076-.213.85.85 0 0 1 .046-.275.638.638 0 0 1 .121-.213c0-.03.02-.082.06-.153a.472.472 0 0 0 .061-.167c0-.02.01-.051.03-.092a.256.256 0 0 0 .046-.122c.182-.305.444-.88.788-1.723.343-.844.52-1.332.53-1.464.04-.234.131-.335.273-.305.05-.04.171-.061.363-.061.031.01.086.036.167.076.081.04.151.097.212.168a.413.413 0 0 1 .121.26c.02.1.031.233.031.396a1.53 1.53 0 0 1-.137.503 7.468 7.468 0 0 1-.288.549c-.111.193-.187.33-.227.412l-.197.366c-.162.284-.242.452-.242.503 0 .04-.026.117-.076.229a4.412 4.412 0 0 0-.121.259 3.546 3.546 0 0 0-.258.549c-.081.234-.121.376-.121.427-.01.02-.025.056-.046.106a.267.267 0 0 1-.075.138c-.031 0-.051.025-.061.076a.424.424 0 0 0-.015.091c0 .051-.025.153-.076.306-.05.152-.121.32-.212.503-.343.986-.53 1.687-.561 2.104-.02.214-.07.366-.151.458a.87.87 0 0 1-.273.228Zm-.803 2.364a1.293 1.293 0 0 1-.485.122c-.151 0-.323-.071-.515-.213-.151-.153-.227-.305-.227-.458 0-.254.187-.508.56-.762.223-.143.384-.214.485-.214.071 0 .202.04.394.122.303.193.455.402.455.625 0 .285-.222.544-.667.778Zm14.972-10.705c.233.03.404.092.515.183a.529.529 0 0 1 .212.305c.031.112.061.285.091.518l-.166.412a68.454 68.454 0 0 0-1.091 2.928l-.531 1.815-.181.32-.349 1.616a73.21 73.21 0 0 0-.333 1.495c-.101.478-.167.823-.197 1.037 0 .101-.005.183-.015.244a1.13 1.13 0 0 0-.015.183c-.091.213-.132.35-.122.411 0 .265-.055.438-.166.519-.101.081-.313.122-.637.122a2.2 2.2 0 0 1-.454-.336.965.965 0 0 1-.228-.38c.011-.174.051-.438.122-.794.04-.244.06-.381.06-.411l.182-1.281c.02-.041.056-.102.106-.183.061-.082.106-.138.137-.168.03-.112.065-.28.106-.503l.075-.336c.041-.132.091-.346.152-.64.071-.295.121-.509.151-.64l-.136.152c-.121.223-.348.533-.682.93a11.45 11.45 0 0 0-.424.58c-.131.203-.955 1.016-2.47 2.44a13.07 13.07 0 0 1-.621.594c-.172.183-.318.295-.439.335-.111.041-.319.072-.622.092-.363-.295-.545-.57-.545-.823l.061-.214c.02-.081.05-.137.09-.168.041-.04.096-.086.167-.137.131-.081.419-.315.864-.701a32.1 32.1 0 0 0 1-.9l.788-.793.803-.885a4.55 4.55 0 0 1-.591-.274 1.33 1.33 0 0 1-.394-.305c-.434-.488-.652-1.108-.652-1.86 0-.55.101-1.068.303-1.556.111-.295.218-.513.319-.656.111-.152.262-.325.454-.518.142-.122.243-.224.303-.305a3.19 3.19 0 0 1 .924-.732c.334-.163.904-.381 1.713-.656.05 0 .247-.02.59-.06.344-.041.657-.062.94-.062.101.04.187.077.257.107.081.03.147.056.197.076a.955.955 0 0 1 .167-.122.45.45 0 0 1 .212-.015Zm-1.363 2.882a5.75 5.75 0 0 1 .227-.67 7.08 7.08 0 0 0 .303-.9.61.61 0 0 0-.167-.016c-.182 0-.424.03-.727.092a4.671 4.671 0 0 0-1.879.823c-.596.417-.995.864-1.197 1.342a4.128 4.128 0 0 0-.212.625 1.86 1.86 0 0 0-.045.534c0 .132.01.239.03.32.02.082.055.183.106.305l.121.351c.041.01.116.02.227.03.122.01.207.01.258 0l.364-.122c.444-.132.777-.269 1-.411.181-.092.348-.138.5-.138a.71.71 0 0 1 .318.062l.045-.123.728-2.104Zm15.12 6.146a.823.823 0 0 1 .47.35c.111.163.167.34.167.534-.031.458-.162.96-.394 1.51a26.929 26.929 0 0 1-.879 1.845l-.243.564a.373.373 0 0 1-.272.122c-.222 0-.48-.213-.773-.64a1.305 1.305 0 0 1-.03-.23c0-.213.086-.472.257-.777l.318-.595.213-.427c.111-.203.197-.376.257-.518.061-.152.101-.285.121-.396l-2.06.198-.061-.03a.253.253 0 0 0-.076.014 1.9 1.9 0 0 1-.106.031l-.954.03h-.167a.458.458 0 0 0-.136.016c-.182.04-.374.06-.576.06-.152 0-.283.01-.394.031l-2.5.244-.667.092a46.255 46.255 0 0 0-.56 2.241l-.091.351c-.01.102-.051.173-.121.214-.061.05-.177.101-.349.152h-.273c-.333 0-.5-.193-.5-.58 0-.142.016-.274.046-.396l.333-1.266.258-1.174.212-.625 1.182-.229c.161-.04.394-.198.697-.472.303-.275.57-.575.803-.9.525-.722.934-1.418 1.227-2.09.293-.67.647-1.636 1.061-2.897l.333-1.021.061-.107.151-.503a.56.56 0 0 0-.136-.016.386.386 0 0 1-.121-.015.86.86 0 0 1-.41-.35 1.056 1.056 0 0 1-.106-.763l.182-.168a.46.46 0 0 1 .197.016c.081.01.157.015.227.015.112 0 .197-.01.258-.03l.697-.107c.394-.061.636-.107.727-.138a34.173 34.173 0 0 1 1.697-.137c.424-.03.884-.046 1.379-.046.202 0 .399.066.591.199.192.132.308.284.348.457.021.356-.186 1.22-.621 2.592-.424 1.373-.838 2.527-1.242 3.462-.111.346-.339.95-.682 1.815l-.288.747c.01 0 .142-.046.394-.137.263-.102.51-.153.742-.153.061 0 .122.01.182.03Zm-2.56.228c.151-.67.257-1.108.318-1.311.06-.203.167-.473.318-.808l1-2.684.303-.915c.384-1.119.616-1.856.697-2.211l-.364-.016c-.424 0-.863.03-1.318.092-.454.05-.778.122-.969.213l-.182.565c-.091.284-.329.904-.712 1.86a39.101 39.101 0 0 1-1.394 3.05c-.536 1.067-1.071 1.901-1.606 2.5.393-.01 1.126-.06 2.197-.152 1.08-.101 1.651-.162 1.712-.183Zm6.836 1.678c-.465-.163-.839-.468-1.122-.915-.272-.448-.409-.976-.409-1.586 0-.244.02-.468.061-.671.02-.264.081-.575.182-.93.06-.183.106-.371.136-.565 0-.02.01-.056.03-.106.021-.051.026-.092.015-.122l.258-.64c.121-.275.197-.428.227-.458.041-.02.061-.046.061-.077.01-.03.015-.05.015-.06 0-.133.136-.417.409-.855.283-.437.586-.864.909-1.28.323-.417.515-.626.576-.626.02 0 .045-.02.076-.06.03-.051.05-.077.06-.077.071-.081.354-.229.849-.442.495-.224.889-.371 1.182-.442.202-.072.409-.107.621-.107.515 0 .934.244 1.258.732.323.478.489 1.144.5 1.998a5.508 5.508 0 0 0-.076.67c-.02.234-.036.367-.046.397-.01.305-.075.686-.197 1.144-.111.447-.187.676-.227.686a.25.25 0 0 1-.03.107.252.252 0 0 0-.031.106c.011.092-.121.412-.393.961-.273.539-.43.813-.47.824a.123.123 0 0 0-.046.015c-.01.01-.01.03 0 .06.01.031-.07.123-.242.275-.162.153-.278.229-.349.229-.01 0-.02.005-.03.015 0 .01.01.03.03.061.021.03-.126.163-.439.397a12.83 12.83 0 0 1-.985.686c-.353.214-.621.34-.803.381a.263.263 0 0 1-.136.077.473.473 0 0 1-.076.015c-.071.07-.202.132-.394.183-.182.05-.364.076-.545.076-.152 0-.288-.026-.409-.076Zm1.53-1.601c.303-.102.606-.265.909-.488.303-.234.485-.448.545-.64.051-.184.122-.311.213-.382.171-.173.399-.57.681-1.19.293-.63.445-1.057.455-1.28 0-.062.015-.158.045-.29a.965.965 0 0 1 .106-.305c.021-.03.026-.097.016-.199a5.185 5.185 0 0 1-.016-.472c0-.265.005-.493.016-.686-.031-.661-.132-1.043-.303-1.144-.081-.061-.218-.092-.41-.092a1.113 1.113 0 0 0-.409.107.72.72 0 0 1-.212.046c-.141.081-.212.173-.212.274 0 .092-.04.168-.121.23-.071.06-.147.065-.227.014-.182.01-.298.036-.349.077-.05.04-.116.137-.197.29a5.465 5.465 0 0 1-.197.365 2.33 2.33 0 0 0-.576.61c-.131.214-.212.392-.242.534-.313.549-.51.935-.591 1.159a5.112 5.112 0 0 0-.182.884 2.36 2.36 0 0 0-.197.534 1.89 1.89 0 0 1-.106.397c-.02.08-.03.188-.03.32 0 .224.015.457.045.701.031.234.071.392.122.473.08.275.257.412.53.412.222 0 .52-.087.894-.26Zm12.251 2.211c-.041.04-.147.06-.319.06a1.21 1.21 0 0 1-.621-.167c-.182-.102-.272-.28-.272-.534 0-.142.035-.3.106-.472.343-.895.818-2.257 1.424-4.087.081-.275.212-.676.394-1.205 0 .02.111-.33.333-1.052.162-.478.283-.875.364-1.19.091-.325.161-.66.212-1.006a2.085 2.085 0 0 0-.44-.046h-.272c-.182 0-.318-.01-.409-.03a2.986 2.986 0 0 0-.516-.03 9.746 9.746 0 0 0-1.257.075 4.05 4.05 0 0 1-.364.016l-.121.06-.227.55c-.051.122-.116.274-.197.457s-.167.397-.258.64a5.09 5.09 0 0 1-.182.412l-.136.305-.197.397-.227.58-.243.579c-.111.264-.242.564-.394.9a35.844 35.844 0 0 0-1.348 3.599c-.02.07-.051.197-.091.38a1.61 1.61 0 0 1-.136.412.54.54 0 0 1-.243.275.66.66 0 0 1-.348.091.942.942 0 0 1-.455-.107 1.192 1.192 0 0 1-.333-.244.446.446 0 0 1-.106-.304c0-.102.02-.214.06-.336.475-1.576 1.016-2.984 1.622-4.224a14.026 14.026 0 0 0 .454-1.083c.192-.528.344-.894.455-1.098.343-.66.626-1.326.848-1.997-.05.04-.136.06-.257.06-.091 0-.212-.01-.364-.03a1.686 1.686 0 0 0-.333-.046 1.147 1.147 0 0 1-.288-.38 1.319 1.319 0 0 1-.106-.504.7.7 0 0 1 .091-.366.479.479 0 0 1 .151-.183.4.4 0 0 1 .227-.061h1.167c.091 0 .187-.04.288-.122a.999.999 0 0 1 .106-.076.428.428 0 0 1 .242-.061c.041 0 .112.01.213.03.151.051.323.077.515.077.161 0 .379-.026.651-.077.162-.04.384-.06.667-.06l.576.015c.111.01.257.015.439.015.071 0 .157.01.258.03.111.02.202.036.272.046.081.01.223.015.425.015.343.01.636.036.878.077.243.03.43.096.561.198.091.07.177.167.258.29a.54.54 0 0 1 .121.304c0 .082-.162.687-.485 1.815-.313 1.118-.505 1.749-.576 1.891-.192.498-.475 1.347-.848 2.547l-.485 1.494c-.051.142-.106.315-.167.519-.121.376-.257.767-.409 1.174-.141.406-.257.67-.348.793Zm5.395-.32c-.151 0-.384-.062-.697-.184a4.661 4.661 0 0 1-.863-.457c-.273-.183-.45-.366-.531-.549l-.03-.061a2.12 2.12 0 0 1-.227-1.57c.04-.173.065-.28.076-.32.09-.316.136-.575.136-.779.05-.06.126-.162.227-.305.111-.152.177-.249.197-.29a.38.38 0 0 0 .03-.137v-.228a.37.37 0 0 1 .076-.214.834.834 0 0 1 .152-.168.847.847 0 0 1 .121-.091l.061.015c.02 0 .096-.147.227-.442.131-.305.257-.625.379-.96.505-.936 1.07-1.714 1.697-2.334.626-.63 1.181-1.052 1.666-1.266.041-.01.116-.02.228-.03l.318-.03c.192.01.424.055.697.137.272.081.419.142.439.183 0 .04.01.066.03.076a.26.26 0 0 0 .061.015c.091-.01.253.137.485.442.242.295.419.575.53.84.121.192.182.518.182.975 0 .386-.056.87-.167 1.449-.111.57-.222.976-.333 1.22a21.826 21.826 0 0 1-1 2.318c-.404.813-.773 1.23-1.106 1.25-.01 0-.02.01-.03.03-.01.01-.016.031-.016.062 0 .03-.136.162-.409.396-.262.234-.495.427-.697.58l-.287.106a4.35 4.35 0 0 1-.834.214 5.663 5.663 0 0 1-.788.106Zm.015-1.388c.435 0 .748-.01.94-.03a1.69 1.69 0 0 0 .606-.199c.222-.122.46-.33.712-.625.101-.183.182-.305.242-.366.011-.02.091-.163.243-.427.151-.264.293-.397.424-.397 0-.05.041-.188.121-.411.081-.234.142-.366.182-.397.02-.01.071-.122.152-.335.08-.224.156-.468.227-.732.071-.265.106-.483.106-.656.182-.193.263-.3.242-.32a.253.253 0 0 1-.015-.061v-.153c0-.295.02-.447.061-.457.05-.02.076-.036.076-.046a.176.176 0 0 0-.061-.061c-.02-.02-.03-.04-.03-.061 0-.01.015-.03.045-.061a.167.167 0 0 0 .046-.122c-.021-.254-.162-.696-.425-1.327a.95.95 0 0 1-.121-.106.372.372 0 0 0-.166-.122.349.349 0 0 0-.182-.046c-.041 0-.111.01-.212.03-.041-.04-.081-.06-.122-.06a.34.34 0 0 0-.106.015l-.075.03a1.337 1.337 0 0 0-.5.214 5.189 5.189 0 0 0-.485.488l-.258.274a1.433 1.433 0 0 1-.5.717c-.04.03-.101.106-.182.228a2.097 2.097 0 0 1-.182.23l-.09.182c-.223.366-.46.854-.713 1.464-.252.6-.469 1.17-.651 1.708-.182.539-.273.88-.273 1.022 0 .285.091.513.273.686.192.173.409.27.651.29Zm16.812-8.067c0 .05-.015.086-.046.107-.03.01-.045.02-.045.03 0 .01.02.03.061.061l-.106.503c-.041.214-.127.64-.258 1.281a48.45 48.45 0 0 0-.273 1.556l-.212 1.631a89.746 89.746 0 0 0-.197 1.663c-.03.386-.045.793-.045 1.22 0 .488.015.859.045 1.113.041.264.061.417.061.457 0 .061-.071.153-.212.275a.704.704 0 0 1-.47.183.61.61 0 0 1-.576-.336c-.121-.213-.192-.549-.212-1.006 0-.681.051-1.591.152-2.73.03-.071.045-.208.045-.412a.94.94 0 0 0-.03-.274c-.01-.102.005-.244.045-.427a1.777 1.777 0 0 0 .046-.366c0-.05.02-.158.06-.32.061-.183.091-.326.091-.427v-.107c.03-.092.061-.203.091-.336.04-.142.061-.228.061-.259a.88.88 0 0 1-.016-.213.586.586 0 0 0-.03-.229c.061-.173.131-.437.212-.793l.182-.732c-.01 0-.121.203-.333.61-.202.397-.45.798-.743 1.205a9.432 9.432 0 0 1-.681.976c-.213.274-.334.432-.364.472a25.52 25.52 0 0 1-.379.488 1.863 1.863 0 0 0-.242.427c-.212.529-.46.915-.743 1.16-.272.243-.55.38-.833.411l-.243.03h-.09c-.192 0-.354-.127-.485-.38-.122-.255-.182-.727-.182-1.419l.015-.412.045-.854c.031-.172.056-.457.076-.854.02-.406.036-.675.046-.808-.051.051-.142.24-.273.565a23.62 23.62 0 0 0-.227.625l-.137.35c-.05.072-.126.265-.227.58a14.73 14.73 0 0 1-.333.854 18.052 18.052 0 0 1-.606 1.738 10.416 10.416 0 0 0-.425 1.053 7.609 7.609 0 0 1-.272.655c-.435.986-.798 1.48-1.091 1.48-.162 0-.323-.087-.485-.26a.766.766 0 0 1-.227-.533c0-.143.055-.33.166-.565.111-.244.273-.559.485-.945l.318-.595c0-.05.122-.396.364-1.037l.212-.564.94-2.501.015-.061.091-.229c.03-.081.085-.203.166-.366.142-.325.212-.513.212-.564v-.03c0-.03.01-.051.031-.061.03-.01.05-.016.06-.016a10.846 10.846 0 0 1 .47-1.067l-.015-.061c0-.102.015-.183.045-.244.041-.061.081-.117.121-.168.051-.05.091-.096.122-.137a.52.52 0 0 1 .091-.244c.06-.112.131-.224.212-.336.161-.223.267-.391.318-.503a.497.497 0 0 1 .47-.29c.151 0 .303.062.454.184.152.121.278.259.379.411.101.142.151.24.151.29 0 .03-.015.05-.045.06-.03.011-.045.036-.045.077v.061a.985.985 0 0 1-.061.549 4.736 4.736 0 0 0-.136 1.174l.015.443c0 .08-.02.142-.061.182l-.076.107v.03l-.015.123.015.091a.983.983 0 0 1-.075.336c-.061.234-.091.36-.091.381a8.544 8.544 0 0 0-.061 1.037c0 .529.046.818.136.87l1.091-1.633c.93-1.382 1.399-2.089 1.409-2.12a.557.557 0 0 0 .197-.228c-.01 0-.015-.01-.015-.03 0-.051.132-.27.394-.656.263-.397.546-.752.849-1.068.303-.325.55-.487.742-.487.091 0 .212.06.364.182.161.122.303.275.424.458.121.173.182.335.182.488Zm2.58 9.561a6.517 6.517 0 0 1-.909-.793c-.212-.234-.324-.457-.334-.67a1.666 1.666 0 0 1-.015-.275c0-.285.025-.64.076-1.068.05-.427.101-.767.151-1.021.041-.041.061-.102.061-.183.01-.082.01-.133 0-.153 0-.03.025-.132.076-.305.121-.376.207-.691.257-.945.273-.834.541-1.5.803-1.998.263-.498.556-.966.879-1.403.687-.712 1.419-1.25 2.197-1.616.394-.234.677-.351.849-.351.03 0 .075.01.136.03 1.243.275 1.985 1.068 2.227 2.38.091.62.137 1.087.137 1.402 0 .509-.091 1.022-.273 1.54-.182.519-.51 1.17-.985 1.952-.404.814-.863 1.51-1.379 2.09-.505.569-1.015.996-1.53 1.28-.505.285-.98.427-1.424.427-.394 0-.727-.106-1-.32Zm1.212-1.006c.242-.03.429-.076.561-.137.141-.061.282-.163.424-.305.151-.153.394-.422.727-.809.424-.488.722-.843.894-1.067.172-.234.328-.524.47-.87.151-.345.318-.843.5-1.494l.091-.35c.06-.214.101-.387.121-.519.03-.142.045-.295.045-.458l-.015-.96a2.714 2.714 0 0 0-.106-.595c-.061-.213-.131-.366-.212-.457a.928.928 0 0 0-.333-.23.85.85 0 0 0-.409-.106.986.986 0 0 0-.349.076c-.192.082-.46.3-.803.656a9.932 9.932 0 0 0-.924 1.068c-.263.365-.394.61-.394.731a.77.77 0 0 1-.015.092.34.34 0 0 1-.061.137c-.263.285-.53.885-.803 1.8-.263.915-.414 1.713-.455 2.394-.01.295-.01.498 0 .61.021.112.076.239.167.381.071.112.197.219.379.32.192.092.359.122.5.092Zm17.377-9.18a.668.668 0 0 1 .546.213c.141.153.237.34.287.564 0 .183-.05.341-.151.473-.101.122-.243.25-.424.381-.243.133-.566.356-.97.671l-.379.29c-.192.122-.485.366-.879.732a31.47 31.47 0 0 0-.878.839l-.303.274c-.031.02-.122.097-.273.229a3.232 3.232 0 0 0-.409.427c.02.05.065.147.136.29.071.142.152.264.243.366l1.106 1.692c.04.092.096.188.166.29l.152.198c.151.173.262.33.333.473.03.02.081.071.152.153.08.07.151.116.212.137a.57.57 0 0 1 .242.229c.071.111.142.259.212.442-.01.223-.075.391-.197.503-.121.122-.358.198-.712.229-.172-.041-.369-.158-.591-.351a2.588 2.588 0 0 1-.53-.625c-.01-.02-.323-.509-.939-1.464l-.576-.915a2.474 2.474 0 0 0-.212-.442c-.091-.183-.152-.275-.182-.275l-.288-.457c-.01.04-.121.33-.333.869l-.212.518a34.517 34.517 0 0 0-.97 2.73c-.01.03-.025.092-.046.183a.524.524 0 0 1-.106.229.37.37 0 0 1-.166.137.688.688 0 0 1-.394.137.649.649 0 0 1-.228-.046.795.795 0 0 1-.424-.305.822.822 0 0 1-.151-.457c0-.081.015-.142.045-.183l.136-.35c.061-.214.127-.382.197-.504.051-.102.096-.229.137-.381a7.35 7.35 0 0 1 .121-.366c.192-.62.364-1.088.515-1.403.051-.102.101-.229.152-.381-.061.05-.132.127-.212.228-.314.316-.662.62-1.046.915-.353.275-.606.483-.757.626a19.24 19.24 0 0 1-.758.518 21.96 21.96 0 0 1-.939.61c-.081.05-.253.168-.516.35a5.934 5.934 0 0 1-.878.55.983.983 0 0 1-.5.152.737.737 0 0 1-.379-.106.748.748 0 0 1-.258-.275.753.753 0 0 1-.121-.396c0-.143.045-.244.136-.305.051-.072.218-.199.5-.382.293-.193.495-.325.606-.396.243-.153.455-.295.637-.427l.394-.244c.171-.112.419-.264.742-.458.323-.203.495-.315.515-.335.051-.061.212-.193.485-.397l1.621-1.235.47-.396c-.01-.051-.151-.295-.424-.732-.273-.448-.44-.702-.5-.763l-.803-.976c0-.01-.061-.101-.182-.274-.626-.905-.949-1.388-.97-1.449-.171-.193-.277-.346-.318-.457-.04-.122-.06-.29-.06-.503a.513.513 0 0 1 .227-.214.582.582 0 0 1 .303-.091c.071 0 .146.02.227.06l.182.092c.091.03.172.076.242.137a.904.904 0 0 1 .212.229c.021.02.076.071.167.152.101.072.207.214.318.427l1.955 2.776.515.884c-.01-.173.015-.36.076-.564.06-.203.101-.35.121-.442.232-.661.384-1.17.455-1.525.05-.234.126-.417.227-.55.01-.02.025-.08.045-.182l.046-.26c.07-.386.136-.65.197-.792.06-.143.136-.24.227-.29a.821.821 0 0 1 .682.183.87.87 0 0 1 .318.412c.04.183.061.31.061.38a.754.754 0 0 1-.122.397 53.035 53.035 0 0 1-.575 1.922l-.122.411-.06.23a1.09 1.09 0 0 1-.091.289 5.94 5.94 0 0 1-.061.274 2.82 2.82 0 0 0-.045.214l.303-.29c1.353-1.362 2.222-2.18 2.606-2.455.313-.315.621-.584.924-.808.303-.224.566-.371.788-.442Zm2.525 10.125a4.28 4.28 0 0 0-.348-.076 1.594 1.594 0 0 1-.424-.137 1.117 1.117 0 0 1-.394-.32.811.811 0 0 1-.137-.443c0-.244.116-.447.349-.61.141-.01.252-.005.333.016.081.01.212.05.394.122.071.03.172.05.303.06.141 0 .242.01.303.031.202-.03.404-.112.606-.244.202-.142.379-.3.53-.473a.536.536 0 0 0 .076-.106.723.723 0 0 1 .121-.122c-.111-.133-.252-.427-.424-.885-.172-.457-.267-.773-.288-.945a8.177 8.177 0 0 0-.045-.244 1.455 1.455 0 0 0-.046-.275 6.127 6.127 0 0 0-.257-.762 11.163 11.163 0 0 1-.212-.64c-.101-.387-.202-.87-.303-1.45-.101-.579-.152-1.026-.152-1.341 0-.285-.02-.544-.06-.778a3.403 3.403 0 0 1-.076-.656c0-.244.04-.468.121-.67l.697-.077c.081.061.182.142.303.244.121.102.232.178.333.229 0 .162.01.386.031.67a3.923 3.923 0 0 1 0 .672c0 .111.005.244.015.396.04.02.065.076.076.168.02.081.025.152.015.213-.02.133.02.478.121 1.037.101.56.182.885.242.976.041.285.152.661.334 1.129.182.467.409 1.037.682 1.708.373-.54.712-1.119 1.015-1.739a68.7 68.7 0 0 0 1.212-2.577c.172-.417.368-.864.591-1.342.05-.102.131-.32.242-.656.061-.213.137-.427.227-.64.223-.122.404-.183.546-.183.03 0 .076.01.136.03a.998.998 0 0 1 .44.382.94.94 0 0 1 .181.549c0 .04-.01.111-.03.213-.131.498-.303.91-.515 1.235l-1.015 2.059a7.57 7.57 0 0 1-.288.564l-.394.839c-.162.376-.556 1.011-1.182 1.906-.03.05-.076.112-.136.183a7.778 7.778 0 0 0-.137.198 6.826 6.826 0 0 1-1.439 1.54l-.485.367-.136.137a.644.644 0 0 1-.167.122.344.344 0 0 1-.182.046c-.121.111-.555.228-1.303.35ZM69.065 67.78a2.028 2.028 0 0 1-.59-.519c-.132-.173-.198-.34-.198-.503 0-.214.106-.386.318-.519a.38.38 0 0 1 .167-.03c.101 0 .207.02.318.06a.584.584 0 0 1 .273.138c.263.244.576.366.94.366.16 0 .393-.036.696-.107.394-.122.702-.274.924-.457.233-.183.506-.468.819-.854a2.89 2.89 0 0 0 .424-.763c.101-.264.151-.503.151-.716 0-.234-.055-.417-.166-.55a2.019 2.019 0 0 0-.682-.61 1.676 1.676 0 0 0-.864-.213c-.293 0-.58.04-.863.122l-.88.183c-.04.01-.095.02-.166.03-.06 0-.151.148-.273.443a44.74 44.74 0 0 0-.62 1.677c-.213.6-.39 1.032-.531 1.296-.141.255-.268.382-.379.382-.121 0-.252-.112-.394-.336a9.688 9.688 0 0 0-.197-.305.864.864 0 0 1-.136-.442.61.61 0 0 1 .076-.26c.05-.09.09-.182.12-.274a2.31 2.31 0 0 0 .122-.38c.131-.397.51-1.383 1.136-2.96a135.904 135.904 0 0 1 1.485-3.568c.253-.579.329-.884.228-.914a.353.353 0 0 0-.046-.138c-.03-.06-.04-.106-.03-.137 0-.061.177-.152.53-.274.364-.123.611-.173.743-.153h.09c.132 0 .198-.025.198-.076.02 0 .11-.01.272-.03.172-.021.354-.021.546 0 .717.06 1.282.269 1.697.624.414.346.616.86.606 1.54-.02.265-.167.626-.44 1.083-.272.458-.57.834-.894 1.129a11.56 11.56 0 0 1-.954.747l.379.137c.474.183.843.407 1.106.671.262.265.45.626.56 1.083.02.102.03.193.03.274 0 .224-.04.478-.12.763a5 5 0 0 1-.243.747.94.94 0 0 0-.152.198c-.04.072-.065.117-.075.138-.01.04-.101.198-.273.472a7.877 7.877 0 0 1-.455.64c-.666.57-1.217.936-1.651 1.099-.424.193-.93.29-1.515.29-.526 0-.915-.082-1.167-.245Zm1.09-6.329.607-.122a5.46 5.46 0 0 0 .651-.183l.182-.092c.111-.06.223-.147.334-.259.636-.6 1.08-1.138 1.333-1.616.252-.417.379-.712.379-.885a.497.497 0 0 0-.167-.35c-.192-.224-.51-.336-.954-.336-.192 0-.354.02-.485.061a.848.848 0 0 0-.319.153c-.06.05-.09.132-.09.244a.628.628 0 0 1-.076.274.989.989 0 0 1-.167.229.39.39 0 0 1-.09.183.906.906 0 0 1-.092.122c0 .02-.07.157-.212.412a8.557 8.557 0 0 0-.379.854c-.303.721-.454 1.158-.454 1.311Zm5.107 5.734a1.094 1.094 0 0 1-.242-.168.309.309 0 0 1-.06-.198c0-.102.04-.244.12-.427.091-.193.243-.493.455-.9.06-.132.177-.366.349-.701.434-.834.651-1.45.651-1.845a.214.214 0 0 1-.015-.092c0-.102.08-.193.242-.274.03-.031.137-.117.319-.26.191-.142.343-.305.454-.488.131-.305.298-.64.5-1.006.202-.376.55-.986 1.046-1.83.484-.895 1-1.703 1.545-2.425.101-.142.212-.254.333-.335.132-.081.243-.122.334-.122.313 0 .63.122.954.366.334.244.55.488.652.732.04.07.06.223.06.457 0 .315-.035.85-.106 1.601-.02.133-.04.341-.06.626-.03.457-.076.945-.137 1.463a153.609 153.609 0 0 0-.242 2.67c-.05.64-.076 1.24-.076 1.799 0 .284.005.493.015.625v.106l-.015.351c-.06.061-.182.092-.364.092-.202 0-.404-.036-.606-.107-.202-.061-.313-.137-.333-.229a.173.173 0 0 0-.045-.03c-.02-.01-.03-.056-.03-.137l.014-.336.046-.854.076-2.333-.197.015c-.202 0-.632.04-1.288.122-.647.081-1.056.148-1.228.198-.09 0-.201.061-.333.183-.131.122-.247.28-.348.473a2.34 2.34 0 0 1-.212.442c-.112.183-.167.29-.167.32a.655.655 0 0 0-.167.168c-.04.061-.065.102-.076.122 0 .112-.1.402-.303.87a7.2 7.2 0 0 1-.575 1.128l-.41.58-.53-.412Zm3.621-5.246.425-.061c.212-.04.399-.066.56-.076.485-.122.819-.183 1-.183.101 0 .172.01.213.03.03.04.06.071.09.092.04.01.066.015.076.015.02-.081.101-.635.243-1.662.141-1.027.212-1.657.212-1.891 0-.163-.005-.3-.015-.412a1.35 1.35 0 0 0-.03-.228c-.092 0-.299.243-.622.731a14.163 14.163 0 0 0-.94 1.632c-.232.417-.393.625-.484.625-.07.072-.222.31-.455.717-.232.407-.323.63-.273.671Zm15.694-4.285c0 .132-.036.305-.106.518a8.61 8.61 0 0 0-.243.976c-.05.316-.076.57-.076.763l.016.152c-.061.133-.112.336-.152.61a3.5 3.5 0 0 1-.06.336.247.247 0 0 1-.107.152c0 .041.005.107.016.198.02.092.03.168.03.23v.182c-.192 1.108-.288 2.09-.288 2.943 0 .448.03.798.09 1.053.072.254.162.391.274.411.02 0 .035.005.045.016.01.01.015.035.015.076a.672.672 0 0 1-.106.366 1.61 1.61 0 0 1-.212.305c-.08.101-.141.173-.182.213-.02.03-.045.066-.076.107-.02.04-.055.061-.106.061-.07 0-.197-.025-.378-.076-.03-.061-.127-.137-.288-.229-.162-.081-.293-.254-.394-.518-.101-.265-.152-.712-.152-1.342 0-.173.005-.31.015-.412v-.046a1.517 1.517 0 0 1-.015-.26c0-.467.05-1.056.152-1.768.11-.722.227-1.373.348-1.952.081-.346.187-.773.319-1.28.13-.53.196-.814.196-.855l-.015-.015c.02.03-.202.442-.666 1.235-.465.783-.748 1.245-.849 1.388-.05.071-.146.254-.288.549l-.424.884c-.828 1.24-1.465 1.86-1.91 1.86-.423 0-.701-.152-.832-.457a2.53 2.53 0 0 1-.197-.808c-.01-.234-.016-.376-.016-.427.02-.112.03-.244.03-.396v-.168c0-.03.01-.112.031-.244.03-.143.056-.3.076-.473 0-.061.05-.376.151-.945.142-.692.212-1.134.212-1.327 0-.04-.005-.066-.015-.076v.03c0 .03-.06.142-.181.336a6.174 6.174 0 0 0-.53.854c-.193.376-.47.94-.834 1.692-.07.132-.177.351-.318.656-.03.315-.243.89-.637 1.723l-.136.35c-.303.763-.546 1.322-.727 1.678-.172.346-.303.514-.394.504-.05 0-.157-.051-.319-.153a1.945 1.945 0 0 1-.439-.381c-.131-.153-.197-.305-.197-.458 0-.02.086-.203.258-.549.282-.58.44-.925.47-1.037.01-.04.02-.096.03-.167.02-.072.131-.255.333-.55 0-.06.046-.213.136-.457.101-.254.233-.544.394-.869a.638.638 0 0 0 .122-.35c.09-.113.207-.362.348-.748.05-.142.101-.28.152-.412.06-.132.12-.233.181-.305.03-.02.081-.091.152-.213a30.953 30.953 0 0 1 .94-1.616l.181-.336c.04-.112.076-.173.106-.183.04-.01.207-.29.5-.839.455-.64.717-.96.788-.96.06 0 .167.035.318.106.162.071.303.158.424.26.132.101.197.193.197.274 0 .03.005.117.016.26.01.142.015.294.015.457 0 .396-.167 1.718-.5 3.964l-.076.489c.01.03.025.091.046.183.02.08.03.172.03.274a5.22 5.22 0 0 1 .348-.488c.263-.386.45-.691.56-.915 0-.05.016-.102.046-.153.04-.05.081-.106.122-.167a1.61 1.61 0 0 0 .181-.275.483.483 0 0 0 .076-.259c.283-.407.535-.793.758-1.159.848-1.332 1.373-2.089 1.576-2.272a.847.847 0 0 1 .318-.152c.151-.041.293-.062.424-.062.283 0 .5.087.651.26a.881.881 0 0 1 .228.625Zm8.761 10.309a.687.687 0 0 1-.228.06.454.454 0 0 1-.242-.076c-.293 0-.5-.02-.621-.06l.091.06c-.526-.101-1.036-.391-1.531-.869-.484-.478-.798-.981-.939-1.51a4.65 4.65 0 0 1-.06-.29.828.828 0 0 1-.016-.259.798.798 0 0 1 .349-.533 1.04 1.04 0 0 1 .636-.214c.091 0 .182.015.273.046.071.142.106.26.106.35 0 .062-.015.148-.046.26.152.518.435.925.849 1.22.414.295.889.442 1.424.442.445 0 .854-.112 1.228-.336.383-.233.666-.553.848-.96a1.34 1.34 0 0 0 .091-.32c.03-.133.061-.244.091-.336.02-.05.04-.086.06-.107.011-.06.016-.157.016-.29 0-.345-.071-.675-.213-.99-.131-.316-.323-.524-.575-.626a4.154 4.154 0 0 1-.409-.076 2.112 2.112 0 0 0-.516-.091.912.912 0 0 0-.197.015l-.242-.092a4.014 4.014 0 0 1-.424-.518 1.046 1.046 0 0 1-.137-.519c0-.142.031-.294.091-.457.071 0 .162-.015.273-.046.121-.03.212-.046.273-.046.505 0 .949-.127 1.333-.38a2.49 2.49 0 0 0 .879-1.007 2.95 2.95 0 0 0 .288-1.754c-.212-.183-.485-.275-.818-.275-.374 0-.773.097-1.197.29-.414.183-.728.402-.94.656a1.187 1.187 0 0 1-.576-.198 1.564 1.564 0 0 1-.439-.488.921.921 0 0 1-.106-.58 2.693 2.693 0 0 1 1.121-.838 3.773 3.773 0 0 1 1.5-.305c.515 0 .995.096 1.44.29a2.55 2.55 0 0 1 1.091.853c.282.376.424.829.424 1.357 0 .204-.02.402-.061.595-.091.458-.298.915-.621 1.373a4.412 4.412 0 0 1-1.091 1.082c.475.265.838.646 1.091 1.144.253.488.379 1.017.379 1.586 0 .447-.132.95-.394 1.51-.253.559-.546.99-.879 1.296a.949.949 0 0 1-.212.152 3.089 3.089 0 0 0-.227.138l-.197.137a7.76 7.76 0 0 1-1.076.412 3.129 3.129 0 0 1-1.015.122Zm11.602-1.144c-.464-.163-.838-.468-1.121-.915-.272-.447-.409-.976-.409-1.586 0-.244.02-.468.061-.671.02-.264.081-.575.182-.93.06-.183.106-.371.136-.564 0-.02.01-.056.03-.107.02-.051.026-.092.015-.122l.258-.64c.121-.275.197-.428.227-.458.041-.02.061-.046.061-.076a.25.25 0 0 0 .015-.061c0-.133.136-.417.409-.854.283-.438.586-.864.909-1.281.323-.417.515-.626.576-.626.02 0 .045-.02.076-.06.03-.051.05-.077.06-.077.071-.081.354-.228.849-.442.495-.224.889-.371 1.182-.442a1.86 1.86 0 0 1 .621-.107c.515 0 .934.244 1.257.732.324.478.49 1.144.5 1.998a5.75 5.75 0 0 0-.075.67c-.02.234-.036.367-.046.397-.01.305-.076.686-.197 1.144-.111.447-.187.676-.227.686 0 .03-.01.066-.03.107a.239.239 0 0 0-.031.107c.011.091-.121.411-.394.96-.272.539-.429.814-.469.824a.122.122 0 0 0-.046.015c-.01.01-.01.03 0 .06.01.031-.07.123-.242.275-.162.153-.278.23-.349.23-.01 0-.02.004-.03.014 0 .01.01.03.03.061.021.03-.126.163-.439.397-.303.234-.631.462-.985.686-.353.213-.621.34-.803.381a.263.263 0 0 1-.136.077.466.466 0 0 1-.076.015c-.071.07-.202.132-.394.183-.182.05-.364.076-.545.076-.152 0-.288-.025-.41-.076Zm1.531-1.601c.303-.102.606-.265.909-.488.303-.234.485-.448.545-.64.051-.184.122-.31.212-.382.172-.173.399-.57.682-1.19.293-.63.445-1.057.455-1.28 0-.062.015-.158.045-.29a.966.966 0 0 1 .106-.305c.021-.03.026-.097.016-.198a5.186 5.186 0 0 1-.016-.473c0-.264.005-.493.016-.686-.031-.661-.132-1.042-.304-1.144-.08-.061-.217-.092-.409-.092a1.115 1.115 0 0 0-.409.107.72.72 0 0 1-.212.046c-.141.081-.212.173-.212.274 0 .092-.04.168-.121.23-.071.06-.147.065-.227.014-.182.01-.298.036-.349.077-.05.04-.116.137-.197.29a5.49 5.49 0 0 1-.197.365 2.33 2.33 0 0 0-.576.61c-.131.214-.212.392-.242.534-.313.549-.51.935-.591 1.159a5.113 5.113 0 0 0-.182.885c-.081.152-.146.33-.197.533-.04.203-.076.336-.106.397-.02.081-.03.188-.03.32 0 .224.015.457.045.701.031.234.071.392.122.473.08.275.257.412.53.412.222 0 .52-.087.894-.26Zm14.796-5.048c.02.325.03.519.03.58 0 .233-.02.437-.06.61a63.83 63.83 0 0 1-.273 1.067c-.212.407-.348.676-.409.808-.232.447-.45.803-.652 1.068-.202.254-.57.6-1.106 1.037-.232.213-.631.427-1.197.64-.555.214-.995.32-1.318.32a4.422 4.422 0 0 1-.742 0c-.01.255-.096.814-.258 1.678-.141.254-.298.38-.47.38a.398.398 0 0 1-.181-.045c-.182-.04-.344-.152-.485-.335-.142-.183-.202-.351-.182-.503.071-.244.146-.575.227-.992l.076-.32-1.045-.564c-.283-.214-.591-.519-.925-.915-.333-.397-.535-.803-.606-1.22a3.134 3.134 0 0 1-.076-.762c0-.61.122-1.251.364-1.922a6.017 6.017 0 0 1 1-1.769c.152-.173.308-.325.47-.457a5.66 5.66 0 0 1 .47-.351c.151-.112.252-.188.303-.229l.454-.32c.091-.061.248-.142.47-.244a4.55 4.55 0 0 1 .591-.244 1.56 1.56 0 0 1 .348-.076c.121-.02.278-.03.47-.03.283 0 .54.004.773.014 0-.193.05-.493.151-.9.01-.08.025-.162.046-.243.02-.081.035-.158.045-.229a.41.41 0 0 1 .182-.335.407.407 0 0 1 .394-.092c.182.04.353.132.515.275.162.142.242.264.242.366 0 .162-.01.305-.03.427l-.257 1.036c.464.184.919.433 1.363.748.334.233.576.432.727.594.162.163.283.351.364.565.081.213.147.508.197.884Zm-6.47 3.599c.071-.173.217-.595.44-1.266.444-1.301.783-2.221 1.015-2.76l.53-1.266-.227-.015c-.121 0-.243.015-.364.046-.252.05-.54.183-.863.396a8.607 8.607 0 0 0-.894.64c-.344.275-.596.57-.758.885-.465.875-.697 1.515-.697 1.922-.05.213-.076.391-.076.534 0 .213.031.401.091.564.061.162.147.32.258.472.141.244.323.443.545.595.233.153.485.285.758.397.03-.194.066-.407.106-.64a3.51 3.51 0 0 1 .136-.504Zm5.212-3.355c.051-.529-.116-.91-.5-1.144-.07-.04-.207-.122-.409-.244a4.39 4.39 0 0 0-.515-.274 2.671 2.671 0 0 0-.424-.183c-.02.102-.086.29-.197.564a8.387 8.387 0 0 0-.288.732c-.131.305-.369.925-.712 1.86-.343.926-.556 1.525-.636 1.8l-.137.427a4.742 4.742 0 0 0-.212.732l-.106.412.561-.183a1.44 1.44 0 0 1 .333-.107c.232-.071.404-.132.515-.183a3.242 3.242 0 0 0 1.197-.824c.354-.376.702-.89 1.046-1.54.07-.152.166-.452.288-.9.121-.447.186-.762.196-.945Zm3.871 6.695c-.151 0-.383-.061-.696-.183a4.67 4.67 0 0 1-.864-.458c-.273-.183-.45-.366-.53-.549l-.031-.06a2.12 2.12 0 0 1-.227-1.572l.076-.32a2.92 2.92 0 0 0 .136-.778c.051-.06.126-.162.227-.304a2.99 2.99 0 0 0 .197-.29.363.363 0 0 0 .031-.137v-.23a.37.37 0 0 1 .075-.213.834.834 0 0 1 .152-.168.924.924 0 0 1 .121-.091l.061.015c.02 0 .096-.147.227-.442.131-.305.258-.625.379-.96.505-.936 1.071-1.714 1.697-2.334.626-.63 1.182-1.052 1.666-1.265.041-.01.117-.02.228-.031l.318-.03c.192.01.424.055.697.137.273.081.419.142.439.183 0 .04.01.066.031.076.03.01.05.015.06.015.091-.01.253.138.485.443.243.294.419.574.53.838.122.193.182.519.182.976 0 .386-.055.87-.166 1.449-.112.57-.223.976-.334 1.22a21.622 21.622 0 0 1-1 2.318c-.404.813-.773 1.23-1.106 1.25-.01 0-.02.01-.03.03-.01.01-.015.031-.015.062 0 .03-.137.162-.409.396-.263.234-.495.427-.697.58l-.288.106c-.243.092-.52.163-.834.214a5.659 5.659 0 0 1-.788.107Zm.016-1.388c.434 0 .747-.01.939-.03a1.7 1.7 0 0 0 .606-.199c.222-.122.46-.33.712-.625.101-.183.182-.305.243-.366.01-.02.091-.163.242-.427.152-.264.293-.397.424-.397 0-.05.041-.188.122-.411.08-.234.141-.366.181-.397.021-.01.071-.122.152-.335.081-.224.156-.468.227-.732.071-.265.106-.483.106-.656.182-.193.263-.3.243-.32a.274.274 0 0 1-.016-.061v-.153c0-.294.021-.447.061-.457.051-.02.076-.036.076-.046a.167.167 0 0 0-.061-.06c-.02-.021-.03-.042-.03-.062 0-.01.015-.03.045-.06a.163.163 0 0 0 .046-.123c-.02-.254-.162-.696-.424-1.327a.873.873 0 0 1-.122-.106.371.371 0 0 0-.166-.122.346.346 0 0 0-.182-.046c-.04 0-.111.01-.212.03-.041-.04-.081-.06-.121-.06a.328.328 0 0 0-.106.015l-.076.03a1.344 1.344 0 0 0-.5.214 5.302 5.302 0 0 0-.485.488l-.258.274c-.08.275-.247.514-.5.717-.04.03-.101.107-.181.229a2.225 2.225 0 0 1-.182.228l-.091.183c-.222.366-.46.854-.712 1.464-.253.6-.47 1.17-.652 1.708-.182.539-.273.88-.273 1.022 0 .284.091.513.273.686.192.173.409.27.652.29Zm7.311 1.342c-.101 0-.253-.051-.455-.153-.202-.101-.303-.208-.303-.32a.951.951 0 0 0-.015-.122.654.654 0 0 0-.06-.183c0-.254.025-.457.075-.61 0-.112.016-.234.046-.366.03-.132.066-.239.106-.32 0-.082.02-.188.061-.32.04-.143.065-.24.075-.29l.091-.32.258-.778c.05-.122.086-.224.106-.305a.961.961 0 0 0 .03-.229 61.524 61.524 0 0 0 .455-1.601c.05-.05.075-.127.075-.229.021-.06.066-.203.137-.427.071-.233.151-.477.242-.732.152-.447.268-.813.349-1.098.081-.284.121-.482.121-.594a.354.354 0 0 0-.045-.183 1.313 1.313 0 0 0-.046-.122.895.895 0 0 1-.061-.183c0-.041.021-.082.061-.122a.481.481 0 0 0 .091-.122l.061-.107c0-.04.247-.158.742-.35.505-.204.894-.346 1.167-.428h.924c.283.04.561.122.833.244.273.122.5.275.682.458.313.295.596.727.849 1.296 0 .04.01.132.03.274.03.133.045.25.045.351 0 .478-.171 1.027-.515 1.647a5.442 5.442 0 0 1-1.379 1.647 3.976 3.976 0 0 1-1.06.61 2.867 2.867 0 0 1-1.046.213c-.151 0-.293-.015-.424-.045a.77.77 0 0 1-.394-.305.978.978 0 0 1-.106-.442c0-.133.02-.22.061-.26.04-.01.151-.015.333-.015.182 0 .45-.066.803-.198.263-.092.475-.188.636-.29.475-.305.894-.752 1.258-1.342.202-.325.303-.813.303-1.464.02-.102.03-.178.03-.229a.6.6 0 0 0-.272-.503c-.172-.142-.42-.228-.743-.259a1.236 1.236 0 0 0-.227-.015 2.59 2.59 0 0 0-.606.076c-.212.05-.364.107-.455.168-.03 0-.055.035-.075.106a1.249 1.249 0 0 1-.076.199c0 .081-.036.233-.106.457a8.079 8.079 0 0 1-.197.625l-.197.58a7.6 7.6 0 0 0-.273.793 4.85 4.85 0 0 1-.121.427 3.485 3.485 0 0 1-.106.274c0 .02-.031.112-.091.275-.061.162-.106.3-.137.412-.09.477-.217.914-.378 1.31-.233.763-.349 1.297-.349 1.602 0 .112.015.193.046.244.171.01.293.03.363.061.081.02.122.066.122.137 0 .122-.162.387-.485.793-.091.234-.187.402-.288.504-.101.101-.187.157-.258.167-.071.02-.177.03-.318.03Zm17.731-9.409c0 .05-.016.086-.046.107-.03.01-.045.02-.045.03 0 .01.02.03.06.061l-.106.503c-.04.214-.126.64-.257 1.281a43.39 43.39 0 0 0-.273 1.556l-.212 1.632a81.766 81.766 0 0 0-.197 1.662c-.031.386-.046.793-.046 1.22 0 .488.015.859.046 1.113.04.264.06.417.06.457 0 .061-.07.153-.212.275a.701.701 0 0 1-.469.183.609.609 0 0 1-.576-.336c-.121-.213-.192-.549-.212-1.006 0-.681.05-1.591.151-2.73.03-.071.046-.208.046-.412a.9.9 0 0 0-.031-.274c-.01-.102.005-.244.046-.427a1.774 1.774 0 0 0 .045-.366c0-.05.02-.158.061-.32.06-.183.091-.326.091-.427v-.107c.03-.092.06-.203.091-.336.04-.142.06-.228.06-.259a.9.9 0 0 1-.015-.213.586.586 0 0 0-.03-.229 8.1 8.1 0 0 0 .212-.793l.182-.732c-.01 0-.121.203-.334.61a9.25 9.25 0 0 1-.742 1.205 9.42 9.42 0 0 1-.682.976 52.29 52.29 0 0 0-.363.473 42.87 42.87 0 0 1-.379.488 1.909 1.909 0 0 0-.243.427c-.212.528-.459.914-.742 1.158-.273.244-.551.382-.833.412l-.243.03h-.091c-.192 0-.353-.126-.485-.38-.121-.255-.181-.727-.181-1.419l.015-.411.045-.855c.03-.172.056-.457.076-.853.02-.407.035-.676.045-.809-.05.051-.141.24-.272.565-.122.325-.197.533-.228.625l-.136.35c-.051.072-.126.265-.227.58-.081.234-.192.519-.334.854a17.79 17.79 0 0 1-.606 1.738c-.081.173-.161.361-.242.565-.02.04-.081.203-.182.488a7.154 7.154 0 0 1-.273.655c-.434.986-.798 1.48-1.091 1.48-.161 0-.323-.087-.484-.26a.767.767 0 0 1-.228-.534c0-.142.056-.33.167-.564.111-.244.273-.559.485-.945l.318-.595c0-.05.121-.396.364-1.037l.212-.564.939-2.5.015-.062.091-.229c.03-.081.086-.203.167-.366.141-.325.212-.513.212-.564v-.03c0-.03.01-.051.03-.061a.26.26 0 0 1 .061-.016c.04-.111.111-.284.212-.518.111-.244.197-.427.258-.55l-.016-.06c0-.102.016-.183.046-.244.04-.061.081-.117.121-.168.051-.05.091-.096.121-.137a.53.53 0 0 1 .091-.244 3.26 3.26 0 0 1 .212-.335c.162-.224.268-.392.319-.504a.497.497 0 0 1 .469-.29c.152 0 .303.062.455.184.151.121.278.259.379.411.101.143.151.24.151.29 0 .03-.015.05-.045.061-.031.01-.046.036-.046.076v.061a.987.987 0 0 1-.06.549 4.734 4.734 0 0 0-.137 1.174l.015.443c0 .08-.02.142-.06.183a1.81 1.81 0 0 0-.076.106v.03l-.015.123.015.091a.963.963 0 0 1-.076.336c-.06.234-.091.36-.091.381-.04.335-.06.681-.06 1.037 0 .529.045.818.136.87l1.091-1.633c.929-1.382 1.399-2.089 1.409-2.12a.565.565 0 0 0 .197-.228c-.01 0-.015-.01-.015-.03 0-.051.131-.27.394-.656a7.6 7.6 0 0 1 .848-1.068c.303-.325.551-.487.743-.487.091 0 .212.06.363.182.162.123.303.275.425.458.121.173.182.336.182.488Zm10.834 0c.01.04.015.112.015.213 0 .407-.218 1.403-.652 2.99l-.167.655-.197.824a7 7 0 0 1-.257 1.158c-.131.427-.303.94-.515 1.54-.192.54-.334.971-.424 1.297a2.32 2.32 0 0 0-.137.32.857.857 0 0 1-.212.35c-.192.174-.374.26-.545.26a.617.617 0 0 1-.213-.046 1.061 1.061 0 0 1-.393-.259.51.51 0 0 1-.122-.35c0-.072.005-.128.015-.168.041-.072.172-.402.394-.992.223-.59.384-1.037.485-1.342.061-.345.137-.68.228-1.006.09-.325.176-.56.257-.701l.136-.702c.031-.153.081-.412.152-.778a8.21 8.21 0 0 1 .227-.854l.531-2.424c-.96.04-1.455.076-1.485.106-.01.112-.132.443-.364.992-.222.549-.394.945-.515 1.19-.121.233-.222.441-.303.624-.081.173-.147.316-.197.427l-.182.427c-.091.285-.323.788-.697 1.51a24.213 24.213 0 0 1-.985 1.754 28.909 28.909 0 0 1-1.288 1.707 4.591 4.591 0 0 1-.621.656c-.232.224-.419.366-.56.427a.641.641 0 0 1-.288.076c-.223 0-.425-.091-.606-.274a.944.944 0 0 1-.273-.656.637.637 0 0 1 .591-.427c.01 0 .141-.127.394-.38a21.9 21.9 0 0 0 .485-.52c.262-.294.616-.747 1.06-1.357.233-.335.566-.849 1-1.54l.273-.381.697-1.921.879-1.952c-.111.04-.273.117-.485.228-.657.316-1.121.473-1.394.473-.172 0-.298-.056-.379-.168a.86.86 0 0 1-.167-.518.86.86 0 0 1 .137-.473.672.672 0 0 1 .348-.305l1.728-.625a14.79 14.79 0 0 0 1.363-.442c.172-.01.419-.036.743-.076.323-.051.53-.092.621-.122.98-.031 1.601.488 1.864 1.555Zm2.806 9.622a1.836 1.836 0 0 1-.728-.228 6.899 6.899 0 0 1-.666-.412 45.42 45.42 0 0 1-.409-.29 1.972 1.972 0 0 1-.394-.549 3.607 3.607 0 0 1-.228-.793 2.012 2.012 0 0 1-.03-.32c0-.305.051-.676.152-1.113a6.26 6.26 0 0 1 .333-1.037c.222-.54.712-1.403 1.47-2.593l.075-.076c.021-.02.026-.03.016-.03v-.016c0-.07.146-.386.439-.945.172-.183.258-.34.258-.473a.277.277 0 0 0-.046-.168c-.03-.04.01-.127.121-.259a3.21 3.21 0 0 1 .455-.457c.202-.173.414-.32.636-.443.273-.213.541-.32.803-.32a.38.38 0 0 1 .197.046c.061.02.096.056.106.107 0 .06.202.04.606-.061a5 5 0 0 1 .394-.076c.041-.051.142-.092.303-.123.172-.04.409-.08.712-.121.162.01.359.01.591 0 .243-.01.399-.02.47-.031.071-.02.172.025.303.137.141.112.253.254.333.427a.466.466 0 0 1 .031.138c0 .152-.096.284-.288.396-.192.102-.47.173-.834.213a23.623 23.623 0 0 0-2.045.366l-.318.061c-.313.051-.546.117-.697.199-.152.081-.313.259-.485.533-.071.051-.162.183-.273.397a18.79 18.79 0 0 0-.333.64l-.303.412a9.959 9.959 0 0 0-.439.625c-.051.092-.061.158-.031.198a5.358 5.358 0 0 0 .485.092 1.09 1.09 0 0 1 .379-.107c.161-.02.278-.04.348-.06l.334-.092c.626-.163 1.086-.28 1.378-.35a7.39 7.39 0 0 1 .652-.138.282.282 0 0 1 .182-.061c.111 0 .217.056.318.168a.889.889 0 0 1 .242.365c.041.143.061.234.061.275 0 .173-.101.305-.303.396-.202.082-.606.194-1.212.336-.879.214-1.429.35-1.652.412-.656.193-1.141.29-1.454.29-.263 0-.389-.087-.379-.26-.091-.05-.197.04-.318.275a4.276 4.276 0 0 0-.44 1.769c0 .132.016.244.046.335.091.244.227.453.409.625.182.163.434.29.758.382a4.234 4.234 0 0 0 .636.046 1.6 1.6 0 0 0 .606-.123c.788-.132 1.343-.315 1.667-.549a.335.335 0 0 0 .136-.106c.051-.051.096-.077.136-.077l-.015.03c0 .011.031-.01.091-.06a3.54 3.54 0 0 1 .197-.183c.283-.244.596-.366.94-.366.121 0 .222.02.303.06.09.031.141.062.151.092.061.102.03.265-.091.488a2.832 2.832 0 0 1-.576.702 4.422 4.422 0 0 1-.848.64 5.99 5.99 0 0 1-1.667.58 9.006 9.006 0 0 1-1.757.213Zm7.646.809a4.183 4.183 0 0 0-.228-.046.872.872 0 0 0-.272-.016 1.03 1.03 0 0 1-.5-.259c-.152-.142-.212-.29-.182-.442.03-.03.056-.112.076-.244.02-.122.03-.234.03-.335.04-.112.086-.275.136-.489.061-.457.218-1.214.47-2.272.263-1.067.429-1.636.5-1.707l-.015-.168a1.207 1.207 0 0 1 .151-.488c.041-.122.071-.24.091-.351.031-.122.046-.214.046-.275.02-.03.091-.213.212-.548l.151-.427c.061-.194.142-.422.243-.687l.197-.518v-.076c.04-.051.151-.32.333-.809.091-.203.177-.411.258-.625.091-.223.182-.442.272-.655a8.71 8.71 0 0 1 .137-.26c.06-.112.091-.188.091-.228.04-.082.141-.122.303-.122.131 0 .262.03.394.091a.541.541 0 0 1 .272.244l.349.244-.515 1.113c-.132.265-.253.524-.364.778-.101.244-.151.386-.151.427-.021.071-.066.218-.137.442-.07.224-.146.478-.227.763-.04.142-.141.442-.303.9a1.844 1.844 0 0 0-.106.289c0-.04.545-.081 1.636-.122.182-.01.515-.025 1-.046.495-.03.803-.06.925-.091l.772-.107.364-1.357c.121-.498.318-1.2.591-2.105.131-.437.288-.772.47-1.006.181-.244.338-.366.469-.366.253 0 .46.183.621.549a.447.447 0 0 1 .182.35c0 .133-.075.331-.227.596-.131.243-.288.65-.47 1.22-.03.132-.081.29-.151.472v.061c0 .193-.046.336-.137.427-.03.03-.096.173-.197.427-.09.254-.136.402-.136.442.01.072 0 .163-.03.275a.532.532 0 0 1-.106.213l-.288 1.22c-.182.773-.364 1.393-.546 1.86.01.052-.01.143-.06.275a1.118 1.118 0 0 0-.061.275c-.151.488-.222.762-.212.823-.05.234-.146.656-.288 1.266a22.62 22.62 0 0 0-.136.625c-.01.02-.056.03-.137.03a1.42 1.42 0 0 1-.515-.106.968.968 0 0 1-.363-.336.785.785 0 0 1-.061-.778c.04-.07.116-.376.227-.914l.152-.656c.05-.163.106-.402.166-.717l.152-.686c.091-.529.152-.808.182-.839v-.152c-.03-.03-.212-.046-.546-.046-.343 0-.747.02-1.212.061-.464.03-.879.076-1.242.137l-.424.016c-.213 0-.349.005-.41.015-.101 0-.186.005-.257.015h-.136c-.041.092-.157.529-.349 1.311-.192.783-.303 1.286-.333 1.51-.091.468-.197.966-.319 1.495a29.49 29.49 0 0 1-.272 1.22Zm14.861.106c-.121-.04-.252-.163-.394-.366a2.436 2.436 0 0 1-.303-.564c.414-1.769.737-2.989.97-3.66a6.45 6.45 0 0 0 .076-.457.147.147 0 0 0-.061-.122c-.101-.061-.48-.148-1.136-.26a38.515 38.515 0 0 0-1.607-.274c-.09.01-.227-.005-.409-.046a1.73 1.73 0 0 0-.394-.045c-.161 0-.262-.006-.303-.016-.04-.01-.075-.04-.106-.091a.467.467 0 0 0-.015-.076c0-.051-.045.06-.136.335l-.318 1.083c-.283.854-.47 1.616-.561 2.287l-.061.32c-.161.56-.298.986-.409 1.281-.101.295-.187.448-.257.458-.02.04-.096.046-.228.015a2.544 2.544 0 0 1-.363-.122c-.192-.132-.288-.335-.288-.61 0-.163.03-.391.091-.686.06-.305.136-.65.227-1.037a3.74 3.74 0 0 1 .076-.35c.101-.57.182-.992.242-1.267.071-.284.142-.452.212-.503.021-.081.076-.315.167-.701.101-.387.222-.737.364-1.053.121-.447.318-1.011.591-1.692a84.12 84.12 0 0 1 1.015-2.41l.257-.594c.081-.071.127-.178.137-.32.02-.153.035-.25.045-.29.071-.143.202-.285.394-.427.192-.142.328-.209.409-.198.121.02.248.096.379.228.141.133.248.275.318.427.071.153.086.28.046.382-.061.06-.157.243-.288.548-.121.295-.268.666-.44 1.114l-.181.29c-.172.264-.278.452-.319.564-.05.081-.096.193-.136.335-.03.132-.061.214-.091.244-.091.193-.197.432-.318.717-.121.274-.172.432-.152.472.021.031.182.067.485.107.303.041.495.066.576.076l.364.046c.07-.01.434.026 1.091.107l.651.091c.293.092.535.158.727.199.202.03.314.025.334-.016l.272-.655.076-.336c.142-.61.243-1.011.303-1.204.273-.468.495-1.164.667-2.09a1.72 1.72 0 0 1 .212-.518 3.47 3.47 0 0 1 .258-.381 7.29 7.29 0 0 0 .181-.229l.107.046c.06.02.126.04.196.06.364.072.546.326.546.763 0 .346-.101.819-.303 1.418l-.243.64c-.262.6-.414 1.012-.454 1.236-.02.061-.04.127-.061.198-.02.061-.04.127-.06.199-.152.508-.298.92-.44 1.235v.015c0 .071.101.178.303.32a.33.33 0 0 1 .167.29.45.45 0 0 1-.167.336.477.477 0 0 1-.348.152c-.152 0-.258.03-.318.091-.051.051-.091.194-.122.427-.222.509-.474 1.261-.757 2.257-.283.997-.419 1.627-.409 1.891-.051.153-.106.254-.167.305a.26.26 0 0 1-.212.092c-.03 0-.096-.01-.197-.03Zm4.535-.961a2.673 2.673 0 0 1-.455-.442c-.121-.162-.182-.31-.182-.442 0-.193.167-.33.5-.412 1.041-.254 2.207-1.275 3.5-3.065-.444-.244-.778-.498-1-.762-.222-.275-.384-.65-.485-1.129a2.972 2.972 0 0 1-.075-.61c.05-.07.075-.178.075-.32.01-.142.026-.244.046-.305l.333-.991c.333-.966 1.263-1.713 2.788-2.242.495-.203.859-.29 1.091-.259l.197-.015a.855.855 0 0 1 .424-.03.457.457 0 0 1 .137-.016c.171 0 .363.056.575.168.223.101.409.234.561.396.161.163.242.326.242.488a.4.4 0 0 1-.015.122c-.101.295-.167.483-.197.564-.161.509-.293.885-.394 1.129-.272.67-.591 1.627-.954 2.867-.354 1.24-.556 2.145-.606 2.714-.081.224-.152.595-.212 1.113a8.159 8.159 0 0 1-.061.397c-.02.173-.046.315-.076.427-.03.132-.121.249-.273.35a.81.81 0 0 1-.454.153.463.463 0 0 1-.212-.046 1.444 1.444 0 0 1-.318-.228 8.46 8.46 0 0 1-.319-.305c.031-.112.066-.28.106-.504.041-.274.096-.498.167-.67.02-.214.066-.504.136-.87.021-.071.041-.178.061-.32a4.17 4.17 0 0 1 .182-.717l.03-.244c-.141.234-.53.707-1.166 1.418a16.173 16.173 0 0 1-2.016 1.907c-.697.549-1.257.793-1.681.732Zm5.197-5.474c.474-1.515.878-2.862 1.212-4.041-.465.05-.92.188-1.364.412a3.451 3.451 0 0 0-1.121.884c-.303.366-.48.778-.531 1.235-.02.163-.045.285-.075.366a.431.431 0 0 0-.046.199c0 .203.081.401.243.594.171.193.348.29.53.29.121 0 .247-.04.379-.122a5.74 5.74 0 0 1 .227-.137l.546.32Zm2.728 5.81c-.151 0-.308-.102-.469-.305-.162-.193-.243-.437-.243-.732 0-.234.056-.462.167-.686.202-.427.404-.773.606-1.037.071-.102.121-.188.151-.26a.698.698 0 0 0 .076-.29c.142-.182.329-.513.561-.99.394-.64.954-1.627 1.682-2.959l.591-1.082c.303-.54.505-.86.606-.961l.075-.107c-.03.051.021-.066.152-.35a6.52 6.52 0 0 1 .439-.763c.162-.234.303-.35.425-.35.131 0 .282.055.454.167.172.102.318.26.44.473.131.203.196.447.196.732 0 .122-.005.218-.015.29l-.151 1.036-.076.336c-.131.67-.328 1.59-.591 2.76-.232 1.037-.348 1.662-.348 1.876 0 .06.01.111.03.152.02.03.045.046.076.046.02 0 .07-.03.151-.092a.888.888 0 0 0 .212-.305l.197-.305.258-.38c.283-.397.631-.931 1.045-1.602a140.52 140.52 0 0 0 2.016-3.492c.191-.285.348-.534.469-.747.162-.265.318-.514.47-.748.151-.233.268-.38.348-.442a.586.586 0 0 1 .379-.122c.152.01.308.066.47.168.172.102.313.244.424.427.121.183.182.381.182.595 0 .244-.076.691-.227 1.342-.142.65-.308 1.28-.5 1.89a29.88 29.88 0 0 1-.379 1.51c-.162.59-.283 1.057-.364 1.403-.07.346-.106.625-.106.839v.122c-.151.274-.227.823-.227 1.647-.04.335-.116.595-.227.778-.111.193-.202.29-.273.29l-.046-.016a.24.24 0 0 0-.151.061c-.04.05-.101.076-.182.076-.252 0-.419-.091-.5-.274-.071-.183-.106-.432-.106-.748 0-.183.005-.335.015-.457.031-.264.354-1.642.97-4.133.485-1.951.727-2.973.727-3.065l-.212.366a33.6 33.6 0 0 1-.757 1.358l-1.061 1.997a4.475 4.475 0 0 0-.333.534 5.05 5.05 0 0 0-.137.305c-.121.244-.363.595-.727 1.052-.121.153-.192.25-.212.29-.051.112-.212.31-.485.595a8.81 8.81 0 0 1-.864.762c-.303.224-.555.335-.757.335-.273 0-.52-.132-.743-.396a1.487 1.487 0 0 1-.318-.96c0-.275.051-.733.152-1.373.161-.701.333-1.413.515-2.135.182-.722.308-1.194.379-1.418a.975.975 0 0 0 .045-.305c0-.071-.01-.117-.03-.137-.01 0-.026.01-.046.03a24.135 24.135 0 0 0-.757 1.357 39.21 39.21 0 0 0-1.046 2.15c-1.444 2.674-2.273 4.133-2.485 4.377Zm-91.59 19.656c-.323 0-.616-.025-.879-.076a1.92 1.92 0 0 1-.697-.29 6.82 6.82 0 0 1-1-.793c-.323-.325-.485-.61-.485-.854 0-.162.066-.335.197-.518a1.96 1.96 0 0 1 .5-.458c.202-.122.389-.183.561-.183.212.112.369.219.47.32a.467.467 0 0 1 .151.336c0 .163-.116.35-.348.564.141.173.313.305.515.397.212.081.439.122.682.122.333 0 .691-.082 1.075-.244a2.95 2.95 0 0 0 .97-.686c.263-.285.394-.6.394-.946 0-.437-.101-.798-.303-1.082-.202-.295-.51-.443-.924-.443-.081 0-.147.005-.197.015h-.122a.944.944 0 0 1-.318-.076.472.472 0 0 1-.182-.076.552.552 0 0 1-.106-.107 3.598 3.598 0 0 1-.318-.442.825.825 0 0 1-.091-.366c0-.183.111-.335.334-.457a.667.667 0 0 1 .333-.107c.03 0 .086.01.167.03.07-.03.181-.056.333-.076.162-.02.283-.05.364-.091a7.501 7.501 0 0 0 1.833-1.19c.556-.498.833-1.037.833-1.616 0-.153-.035-.326-.106-.519a1.45 1.45 0 0 0-.757-.198 2.54 2.54 0 0 0-1.258.35c-.404.235-.672.524-.803.87-.151.407-.394.686-.727.839a3.254 3.254 0 0 1-.485-.382 4.799 4.799 0 0 1-.379-.564 4.66 4.66 0 0 1 .864-1.448 3.658 3.658 0 0 1 1.333-.976c.131-.061.339-.117.621-.168a3.57 3.57 0 0 1 .667-.092c.485 0 .909.117 1.273.351.363.234.646.554.848.96.202.397.303.834.303 1.312 0 .56-.101 1.037-.303 1.434a3.117 3.117 0 0 1-.803 1.006 13.4 13.4 0 0 1-1.318.93c.333.275.576.564.727.87.152.294.228.65.228 1.067 0 .478-.036.874-.106 1.19a2.59 2.59 0 0 1-.425.96c-.141.244-.399.503-.772.778a5.121 5.121 0 0 1-1.137.64l-.106-.015a.802.802 0 0 1-.318.091c-.172.041-.278.077-.318.107h-.485Zm10.637-11.589c.343 0 .662.091.954.274.303.173.541.422.713.748.181.315.272.676.272 1.082 0 .57-.035 1.317-.106 2.242a45.62 45.62 0 0 1-.272 2.608c-.122.853-.228 1.951-.319 3.293-.06.712-.111 1.2-.151 1.464-.03.275-.091.432-.182.473l.015.03c0 .041-.035.077-.106.107a.647.647 0 0 1-.257.046c-.182 0-.364-.036-.546-.107-.182-.07-.273-.223-.273-.457 0-.132.026-.453.076-.96.111-.957.177-1.74.197-2.35l.091-.67h-.379c-.172.05-.419.076-.742.076l-.955-.015c-.273 0-.459.01-.56.03a.29.29 0 0 0-.213.122c-.05.061-.111.188-.181.381a6.208 6.208 0 0 1-.319.748c-.353.864-.666 1.479-.939 1.845-.273.366-.54.549-.803.549-.071 0-.187-.03-.348-.092-.152-.06-.228-.142-.228-.244 0-.142.106-.437.318-.884.223-.447.389-.747.5-.9.011 0 .011-.005 0-.015a.215.215 0 0 1-.015-.092c0-.223.132-.594.394-1.113.041-.122.081-.239.121-.35a.894.894 0 0 0 .076-.23l.288-.564c0-.06.035-.188.106-.38.081-.204.177-.423.288-.656 0-.153.03-.3.091-.443.061-.152.141-.315.242-.488.111-.203.167-.335.167-.396 0-.02.01-.066.03-.137.031-.072.086-.188.167-.351-.02 0-.03-.005-.03-.015 0-.01.04-.066.121-.168a.58.58 0 0 1 .106-.305c.081-.122.212-.458.394-1.007l.303-.655c.081-.132.187-.381.318-.747l.121-.32.122-.336c.03-.04.075-.117.136-.229a.685.685 0 0 1 .288-.274c.131-.072.308-.112.53-.122.121-.03.248-.046.379-.046Zm.318 5.825c0-.112.035-.523.106-1.235.142-1.464.217-2.364.227-2.7 0-.152-.005-.238-.015-.258 0-.092-.081-.178-.242-.26-.162-.081-.278-.122-.349-.122-.091 0-.166.051-.227.153a2.698 2.698 0 0 0-.182.381c-.06.142-.101.244-.121.305l-.136.35a71.46 71.46 0 0 0-.606 1.571c-.233.61-.364.976-.394 1.098-.061.061-.167.255-.318.58-.142.315-.213.513-.213.594 0 .255.127.382.379.382.041 0 .121-.005.243-.016.131-.02.272-.055.424-.106h.212c.162 0 .323-.026.485-.076.262-.041.434-.072.515-.092.091-.02.146-.066.167-.137.03-.071.045-.209.045-.412Zm4.594 5.81c-.04.112-.157.168-.348.168-.203 0-.399-.077-.591-.229a.669.669 0 0 1-.288-.564c0-.051.01-.117.03-.198.253-1.047.475-1.947.667-2.7.192-.752.404-1.453.636-2.104a3.11 3.11 0 0 1 .167-.381c0-.112.02-.214.06-.305l.076-.168c.01-.03.03-.076.061-.137a.654.654 0 0 0 .06-.183c.031-.254.197-.732.5-1.434.313-.711.596-1.316.849-1.814l-.273-.046c-.273-.05-.409-.224-.409-.519 0-.121.025-.248.076-.38.05-.143.116-.26.197-.351a.618.618 0 0 1 .348-.214c.132-.03.268-.046.409-.046h.334c.091-.172.207-.259.348-.259a.7.7 0 0 1 .364.122c.131.071.217.117.257.137l1.212-.015c.324 0 .637.015.94.046.05.01.111.025.182.046.08.01.141.015.181.015h1.076c.859 0 1.52.056 1.985.168.253.06.379.213.379.457 0 .203-.066.442-.197.717a12.96 12.96 0 0 1-.561 1.022c-.222.386-.343.615-.363.686-.021.05-.041.147-.061.29a.49.49 0 0 1-.151.304c-.263.62-.556 1.46-.879 2.516a24.8 24.8 0 0 0-.197.626 17.98 17.98 0 0 1-.258.778 31.34 31.34 0 0 0-1.045 3.781c-.212 0-.455-.06-.728-.183-.272-.122-.434-.274-.484-.457-.031-.122-.016-.3.045-.534.071-.244.167-.549.288-.915a7.96 7.96 0 0 0 .182-.595 52.6 52.6 0 0 1 .454-1.769c.132-.467.288-.93.47-1.387.293-.722.591-1.632.894-2.73a5.81 5.81 0 0 1 .227-.58c.142-.345.222-.579.243-.7-.212-.041-.581-.072-1.106-.092-.526-.03-.955-.046-1.288-.046-.101 0-.253.01-.455.03a2.561 2.561 0 0 1-.485.046h-.197c-.07-.01-.171-.01-.303 0-.202.326-.409.712-.621 1.16a7.57 7.57 0 0 0-.454 1.112 7.063 7.063 0 0 1-.213.656l-.151.35a4.11 4.11 0 0 0-.227.55c-.091.295-.207.64-.349 1.037l-.288.854c-.212.59-.343.966-.394 1.128l-.045.305a.85.85 0 0 1-.121.35c-.223 1.19-.445 2.05-.667 2.578Zm18.711-11.558a.609.609 0 0 1 .546.213.805.805 0 0 1 .181.823c-.131.264-.424.981-.878 2.15a461.91 461.91 0 0 0-1.319 3.4l-1.091 3.173c-.05.142-.156.406-.318.793a2.445 2.445 0 0 0-.272.793.991.991 0 0 1-.243.426c-.111.123-.227.184-.348.184a.246.246 0 0 1-.152-.046c-.465-.173-.697-.448-.697-.824 0-.03.01-.096.03-.198-.02.132.122-.178.425-.93.313-.763.565-1.403.757-1.921.748-1.881 1.121-2.857 1.121-2.928.122-.316.203-.54.243-.671.121-.397.242-.712.364-.946l.257-.686-5.348 6.222c-.071.06-.268.239-.591.533a6.18 6.18 0 0 1-.637.58c-.07.05-.192.142-.363.274a4.183 4.183 0 0 1-.44.32c-.131.092-.237.138-.318.138-.576-.102-.864-.336-.864-.702 0-.162.041-.345.122-.549.08-.213.131-.35.151-.411.121-.387.197-.697.227-.93.112-.458.268-1.007.47-1.647.02-.082.071-.27.152-.565a4.07 4.07 0 0 0 .166-.838c.142-.275.334-.722.576-1.342l.212-.55c.041-.08.132-.33.273-.746a5.35 5.35 0 0 1 .288-.794l.151-.29c.192-.375.339-.68.44-.914.111-.244.171-.448.182-.61 0-.132.045-.229.136-.29a.524.524 0 0 1 .333-.107c.172 0 .329.051.47.153a.617.617 0 0 1 .273.366c.04.112.06.239.06.381 0 .132-.02.254-.06.366l-1.258 3.218-1.379 3.66-.363.914 3.06-3.08c.344-.356.667-.737.97-1.144.263-.345.515-.65.758-.915.242-.264.54-.574.894-.93l.348-.366 1.924-2.058a.629.629 0 0 1 .379-.153Zm-4.561 10.872v.015-.015Zm12.998-9.226c.01.04.015.092.015.153 0 .132-.06.228-.182.29l-.363.121a1.56 1.56 0 0 1-.425.076.592.592 0 0 1-.212-.03.906.906 0 0 0-.363-.198c-.142-.04-.435-.076-.879-.107-.131.02-.248.03-.349.03-.101 0-.181.006-.242.016a4.475 4.475 0 0 1-.303.747 2.36 2.36 0 0 1-.167.518c-.07.204-.101.32-.091.351-.03.04-.126.3-.287.778a51.44 51.44 0 0 0-.455 1.372c-.101.316-.177.544-.227.686a5.024 5.024 0 0 0-.197.488l-.152.458-.379 1.052c-.08.153-.181.397-.303.732-.111.326-.202.62-.272.885-.111.396-.212.68-.303.854-.081.172-.152.28-.212.32a.463.463 0 0 1-.258.06c-.162 0-.303-.08-.424-.243-.122-.163-.182-.315-.182-.458 0-.223.076-.6.227-1.128.162-.529.313-.95.455-1.266.04-.183.075-.33.106-.442.04-.112.065-.193.076-.244.03-.04.075-.147.136-.32.071-.183.126-.351.167-.504.03-.183.343-1.204.939-3.065l.106-.32a3.15 3.15 0 0 0 .258-.58c.08-.05.121-.157.121-.32 0-.03.015-.07.045-.121.041-.051.061-.087.061-.107a.061.061 0 0 1 .045-.016c.01 0 .021.006.031.016.02 0 .05-.02.091-.061h-.016l-.742.076-.333.03c-.596.051-.935.087-1.016.107l-.212.016c-.313 0-.535-.062-.666-.184a.458.458 0 0 1-.122-.442.52.52 0 0 1 .228-.32c.131-.081.343-.152.636-.213.091-.02.268-.051.53-.092l.409-.076.516-.061a17.293 17.293 0 0 1 1.863-.183c.273-.01.5-.02.682-.03.192-.021.318-.036.379-.046.141.01.369.035.682.076.323.04.555.086.697.137.222.05.404.142.545.275a.997.997 0 0 1 .288.457Zm.598 9.317a4.393 4.393 0 0 0-.348-.076 1.613 1.613 0 0 1-.425-.137 1.121 1.121 0 0 1-.393-.32.81.81 0 0 1-.137-.443c0-.244.116-.447.349-.61.141-.01.252-.005.333.016.081.01.212.05.394.122.071.03.172.05.303.06.141 0 .242.01.303.031.202-.03.404-.112.606-.244.202-.142.379-.3.53-.473a.538.538 0 0 0 .076-.106.72.72 0 0 1 .121-.122c-.111-.132-.252-.427-.424-.885-.172-.457-.268-.772-.288-.945a8.174 8.174 0 0 0-.045-.244 1.543 1.543 0 0 0-.046-.275 6.132 6.132 0 0 0-.257-.762 11.165 11.165 0 0 1-.212-.64c-.101-.387-.202-.87-.303-1.45-.101-.579-.152-1.026-.152-1.341 0-.285-.02-.544-.061-.778a3.472 3.472 0 0 1-.075-.656c0-.244.04-.467.121-.67l.697-.077c.081.061.182.142.303.244.121.102.232.178.333.229 0 .163.01.386.031.67a3.924 3.924 0 0 1 0 .672c0 .112.005.244.015.396.04.02.065.077.075.168a.522.522 0 0 1 .016.213c-.021.133.02.478.121 1.037.101.56.182.885.242.976.041.285.152.661.334 1.129.181.468.409 1.037.681 1.708.374-.54.713-1.118 1.016-1.739a68.7 68.7 0 0 0 1.212-2.577c.171-.417.368-.864.591-1.342.05-.101.131-.32.242-.656.061-.213.136-.426.227-.64.223-.122.404-.183.546-.183.03 0 .076.01.136.03.182.082.328.209.44.382a.94.94 0 0 1 .181.549c0 .04-.01.112-.03.213-.131.498-.303.91-.515 1.236l-1.015 2.058a7.548 7.548 0 0 1-.288.564l-.394.839c-.162.376-.556 1.012-1.182 1.906a1.41 1.41 0 0 1-.136.183 7.96 7.96 0 0 0-.137.198 6.824 6.824 0 0 1-1.439 1.54l-.485.367-.136.137a.641.641 0 0 1-.167.122.344.344 0 0 1-.182.046c-.121.111-.555.228-1.303.35Zm8.775-2.927a.466.466 0 0 1-.137.015.571.571 0 0 1-.469-.229c-.111-.163-.167-.407-.167-.732 0-.254.045-.57.136-.945.142-.285.213-.499.213-.64a6.26 6.26 0 0 1 .242-.657c.111-.274.202-.483.273-.625.04 0 .08-.035.121-.107a.371.371 0 0 0 .076-.213.88.88 0 0 1 .045-.275.657.657 0 0 1 .121-.213.39.39 0 0 1 .061-.153.494.494 0 0 0 .061-.167c0-.02.01-.051.03-.092a.263.263 0 0 0 .045-.122c.182-.305.445-.88.788-1.723.344-.844.52-1.332.53-1.464.041-.234.132-.335.273-.305.051-.04.172-.06.364-.06.03.01.086.035.167.075.08.041.151.097.212.168.07.071.111.158.121.26.02.101.03.233.03.396a1.5 1.5 0 0 1-.136.503 7.467 7.467 0 0 1-.288.549c-.111.193-.187.33-.227.412l-.197.366c-.162.284-.243.452-.243.503 0 .04-.025.117-.076.229-.05.101-.09.188-.121.259a3.556 3.556 0 0 0-.257.549c-.081.234-.122.376-.122.427-.01.02-.025.056-.045.107a.262.262 0 0 1-.076.137c-.03 0-.05.025-.06.076a.441.441 0 0 0-.016.092c0 .05-.025.152-.075.305-.051.152-.121.32-.212.503-.344.986-.531 1.687-.561 2.104-.02.214-.071.366-.152.458a.856.856 0 0 1-.272.229Zm-.803 2.363a1.297 1.297 0 0 1-.485.122c-.152 0-.323-.071-.515-.213-.152-.153-.228-.305-.228-.458 0-.254.187-.508.561-.762.222-.143.384-.214.485-.214.071 0 .202.04.394.122.303.193.454.402.454.625 0 .285-.222.544-.666.778Z" fill="#1EA6F9"/></svg>