<svg width="366" height="326" fill="none" xmlns="http://www.w3.org/2000/svg"><circle opacity=".1" cx="183" cy="183" r="118" fill="#B5E3FF"/><circle opacity=".4" cx="183" cy="183" r="91" fill="#B5E3FF"/><path d="M261.012 282.264s-24.936 17.241-80.381 15.325c-55.444-1.915-83.807-22.123-85.12-25.473-1.314-3.349-14.045-10.016-9.644-25.407 4.4-15.391 20.798-14.537 20.798-14.537s-7.268-8.133-6.798-27.366c.471-19.233 8.565-26.522 8.565-26.522s-3.288-22.267 4.506-28.047c7.794-5.78 23.458 5.32 23.458 5.32s14.526-9.644 45.823-10.377c31.296-.734 48.931 11.242 48.931 11.242s13.136-9.327 23.459-6.185c10.322 3.142 5.561 31.143 5.561 31.143s9.852 10.574 8.691 32.38c-1.16 21.806-12.95 30.738-12.95 30.738s4.269 9.633 5.101 37.766Z" fill="#F5FCFF"/><path d="M113.168 238.85s11.034 9.786 17.887 10.071c6.852.284 6.568 11.45 6.568 11.45l-1.544 17.328s-3.207 9.228-2.507 12.862c-8.669-1.817-25.363-9.392-28.789-12.161 4.05 1.094 3.568-8.221 4.751-17.887.843-6.885 4.378-13.661 5.725-17.044.656-1.631-2.091-4.619-2.091-4.619Zm107.003 30.65s7.542 11.834 7.487 24.138a97.052 97.052 0 0 0 30.278-9.929s-.558-15.862-1.39-21.138c-.832-5.276-3.557-17.613-3.557-17.613-3.928.19-7.864-.03-11.746-.657-6.875-.908-17.405-4.324-17.405-4.324l-4.379 9.502s-.843 6.699 0 7.816c.843 1.116.712 12.205.712 12.205Zm-117.064-61.947s3.208-58.389 80.206-57.349c76.999 1.04 85.077 56.736 81.334 72.018-5.309-31.165-25.243-41.072-44.444-41.794-19.2-.723-43.425 5.779-43.425 5.779s-8.133-6.568-34.963-5.878c-27.115.701-38.708 27.224-38.708 27.224Z" fill="#B5E3FF"/><path d="M130.026 247.235s19.704 1.773 23.754 7.498c4.05 5.725 1.806 10.159 1.806 10.159l-1.521-2.376-18.61 14.351s-6.896-6.568-7.827-14.964a27.457 27.457 0 0 1 2.398-14.668Zm96.932-6.371s3.689 10.563.7 16.901a118.714 118.714 0 0 1-6.984 12.48s-6.13-9.163-8.428-10.082c-2.299-.92-7.225-2.398-7.871-1.741a11.557 11.557 0 0 0-1.347 3.361s-1.871 1.291-2.572 1.204c-1.095-.142-2.419-2.047-2.605-3.514-.537-4.302 2.824-11.603 10.202-15.03 7.685-3.579 18.905-3.579 18.905-3.579Zm-114.042-.033s-7.663 16.858-7.926 23.732c-.262 6.875-1.094 7.553-1.094 7.553s-14.866-7.881-14.57-20.371c.284-11.812 15.128-16.42 20.109-15.326.47 2.058 3.481 4.412 3.481 4.412Zm-1.106-65.921s-1.51-17.35 3.733-21.335c5.244-3.984 19.912 2.441 19.912 2.441s-11.527 6.076-14.603 9.086c-3.076 3.01-9.042 9.808-9.042 9.808Zm121.114-17.601s12.446-6.065 19.496-2.026c6.798 3.908 3.842 21.576 3.842 21.576s-7.17-8.757-10.465-11.647c-3.295-2.89-12.873-7.903-12.873-7.903Zm-97.852 13.278c3.284 3.032 11.658 2.539 17.164-3.547 5.507-6.086 5.069-9.994 3-12.195-2.441-2.605-10.826-1.729-16.179 1.839-5.353 3.569-7.488 10.695-3.985 13.903Zm85.033-.843c-2.955 3.218-11.866 3.415-17.153-2.649-5.287-6.064-4.083-11.001-2.102-13.202 2.354-2.594 10.29-1.598 15.446 1.949 5.156 3.547 7.192 10.202 3.809 13.902Z" fill="#1EA6F9"/><path d="M251.511 246.917a1.169 1.169 0 0 1-.944-1.654c.104-.227.277-.414.495-.535.165-.066 16.639-7.4 16.617-35.445 0-34.405-37.098-62.057-84.387-62.932-25.801-.46-49.851 8.352-65.932 24.235-10.465 10.356-16.42 22.824-16.354 34.22.175 26.556 15.074 36.857 15.227 36.955a1.168 1.168 0 0 1 .323 1.615 1.168 1.168 0 0 1-1.615.323c-.657-.438-16.07-10.947-16.267-38.882-.076-12.042 6.142-25.101 17.055-35.884 16.519-16.321 41.16-25.407 67.607-24.914 48.57.909 86.642 29.556 86.664 65.264 0 29.687-17.296 37.284-18.04 37.59a1.084 1.084 0 0 1-.449.044Z" fill="#070707"/><path d="M261.013 283.436h-.109a1.18 1.18 0 0 1-1.095-1.27c1.456-15.249-5.025-38.729-5.09-38.97a1.16 1.16 0 0 1 2.189-.624c.274.985 6.656 24.082 5.167 39.813a1.175 1.175 0 0 1-1.062 1.051Zm-125.58-5.408a1.1 1.1 0 0 1-.405-.077 1.161 1.161 0 0 1-.69-1.489c2.814-7.662 16.486-15.434 20.799-14.23l.613.175.186.624a2.673 2.673 0 0 0 1.423 1.795 2.188 2.188 0 0 0 1.522.142 3.406 3.406 0 0 0 .919-2.025c.263-1.817-.219-5.024-4.039-10.06-6.568-8.593-26.808-3.547-27.016-3.492a1.179 1.179 0 0 1-1.423-.843 1.153 1.153 0 0 1 .128-.881 1.164 1.164 0 0 1 .714-.531c.898-.23 21.981-5.473 29.447 4.379 4.378 5.834 4.86 9.775 4.444 12.041a5.185 5.185 0 0 1-1.959 3.426 4.137 4.137 0 0 1-3.438.11 4.695 4.695 0 0 1-2.692-2.66c-3.744-.077-15.118 6.568-17.438 12.862a1.15 1.15 0 0 1-1.095.734Zm84.311-7.356a1.168 1.168 0 0 1-1.094-.964 12.035 12.035 0 0 0-5.682-7.837 11.475 11.475 0 0 0-7.662-1.861 4.383 4.383 0 0 1-1.095 2.331 3.606 3.606 0 0 1-2.518 1.237c-.613 0-6.009-.23-6.009-8.243 0-8.012 6.852-16.54 17.93-16.54s14.307 1.73 14.647 1.927a1.158 1.158 0 0 1 .344 1.494 1.158 1.158 0 0 1-1.439.531c-.098 0-3.284-1.62-13.508-1.62-10.64 0-15.599 8.472-15.599 14.23 0 5.474 2.813 5.912 3.678 5.912a1.964 1.964 0 0 0 1.259-2.091l-.077-.953.92-.262a13.382 13.382 0 0 1 10.377 1.948 14.42 14.42 0 0 1 6.743 9.392 1.17 1.17 0 0 1-.941 1.358l-.274.011Zm-111.032-90.54a1.175 1.175 0 0 1-1.095-.919c-.175-.843-4.378-20.744 4.226-29.14 7.761-7.564 24.531 3.984 25.243 4.477a1.172 1.172 0 0 1 .295 1.62 1.151 1.151 0 0 1-.751.479c-.15.026-.304.023-.454-.01a1.174 1.174 0 0 1-.415-.184c-.164-.11-15.905-10.947-22.298-4.718-7.663 7.509-3.612 26.786-3.569 26.983.034.149.038.303.011.453a1.136 1.136 0 0 1-.48.748 1.143 1.143 0 0 1-.417.178.986.986 0 0 1-.296.033Zm151.436 2.365h-.098a1.174 1.174 0 0 1-1.042-.8 1.152 1.152 0 0 1-.053-.459c.591-6.743.941-25.046-4.379-28.702-5.32-3.656-18.313 2.277-22.878 4.86a1.162 1.162 0 0 1-1.587-.438 1.161 1.161 0 0 1 .438-1.587c.722-.416 17.755-9.951 25.352-4.762 7.422 5.079 5.637 28.21 5.407 30.837a1.17 1.17 0 0 1-1.16 1.051Zm-156.285 95.52-1.5-.646c-16.89-7.257-20.065-21.203-17.646-30.946 3.394-13.672 21.073-15.325 21.828-15.413a1.164 1.164 0 1 1 .197 2.321c-.164 0-16.77 1.598-19.77 13.65-2.123 8.572.57 20.799 14.844 27.586.58-5.955 3.076-26.097 10.465-34.789a1.168 1.168 0 0 1 .79-.407 1.162 1.162 0 0 1 .983 1.907c-8.045 9.48-10.049 34.854-10.071 35.117l-.12 1.62Zm42.44-88.876a8.1 8.1 0 1 0 0-16.202 8.1 8.1 0 0 0 0 16.202Z" fill="#070707"/><path d="M149.664 180.329a1.784 1.784 0 1 0 0-3.569 1.784 1.784 0 0 0 0 3.569Z" fill="#fff"/><path d="M209.563 189.24a8.101 8.101 0 1 0 0-16.202 8.101 8.101 0 0 0 0 16.202Z" fill="#070707"/><path d="M212.924 180.428a1.785 1.785 0 1 0-.001-3.57 1.785 1.785 0 0 0 .001 3.57Z" fill="#fff"/><path d="M128.89 202.109c6.472-.909 11.258-4.923 10.69-8.964-.568-4.041-6.274-6.58-12.746-5.67-6.472.91-11.258 4.923-10.69 8.964.568 4.041 6.275 6.58 12.746 5.67Zm112.312-6.731c.836-4.038-3.751-8.401-10.245-9.746-6.495-1.345-12.437.838-13.273 4.876-.836 4.037 3.751 8.4 10.245 9.745 6.494 1.345 12.437-.838 13.273-4.875Z" fill="#FFDCD9"/><path d="M145.339 199.201s.438-6.404 3.656-6.732c3.219-.328 15.216 4.773 20.131 3.492 4.915-1.281 16.814-6.021 24.783 3.284 7.97 9.305 3.591 17.34 3.591 17.34l-5.736-1.259s-12.293-8.572-12.939-9.152c-.646-.58-16.781-1.499-18.292-1.609a65.947 65.947 0 0 1-9.775-2.561c-.46-.373-5.419-2.803-5.419-2.803Z" fill="#FFF7AC"/><path d="M145.931 198.675c.405-2.244 4.138-4.137 7.291-1.981 3.152 2.157 8.023 4.849 13.606 3.054 5.583-1.795 15.238-6.48 23.13 1.248 7.893 7.728 7.159 16.497 7.159 16.497l-11.745 16.956-5.09 5.167-5.266.219-2.835-1.96-1.281-1.423-5.155-1.237-2.332-2.802-2.332-2.54-2.747-.864-4.587-5.474-.493-4.378 7.565-10.619-2.015-.81-6.644-2.78s-4.379-1.467-5.156-2.463c-.777-.996-1.073-3.81-1.073-3.81Z" fill="#FDEA00"/><path d="M177.709 241.455a9.21 9.21 0 0 1-7.389-3.722c-2.19.132-5.222-1.434-7.061-3.284a6.267 6.267 0 0 1-1.992-3.634 7.866 7.866 0 0 1-5.911-2.189 9.774 9.774 0 0 1-2.6-3.831 9.78 9.78 0 0 1-.542-4.598c.679-4.105 4.138-9.119 5.999-11.571-4.094-.985-13.136-3.733-13.881-8.823-.416-2.933 0-5.09 1.237-6.568 1.237-1.478 3.055-2.189 5.747-2.32 1.971-.11 4.215.788 6.82 1.817 3.426 1.346 7.312 2.868 10.728 2.058.788-.186 1.631-.416 2.507-.646 6.239-1.686 14.778-3.985 22.09 3.47 8.44 8.593 8.604 16.212.591 27.18-8.44 11.56-11.658 15.665-14.647 16.42a6.943 6.943 0 0 1-1.696.241Zm-6.809-6.174a1.166 1.166 0 0 1 1.095.646 6.697 6.697 0 0 0 6.885 3.076c2.343-.591 6.393-6.021 13.355-15.544 7.356-10.082 7.257-16.42-.372-24.192-6.36-6.481-13.826-4.466-19.825-2.846-.908.241-1.773.47-2.594.667-4.116.975-8.352-.689-12.041-2.189-2.266-.897-4.379-1.74-5.857-1.664-2.003.099-3.284.591-4.072 1.478-.788.887-1.04 2.583-.722 4.795.492 3.459 8.757 6.294 13.858 7.279a1.167 1.167 0 0 1 .876.745c.066.184.082.383.046.575a1.101 1.101 0 0 1-.254.519c0 .077-5.846 7.017-6.656 11.943a7.445 7.445 0 0 0 2.408 6.316 5.552 5.552 0 0 0 5.364 1.358 1.155 1.155 0 0 1 1.161.339 1.182 1.182 0 0 1 .219 1.193c-.405 1.095.602 2.321 1.237 2.956 1.937 1.937 4.729 2.868 5.593 2.55.099-.011.198-.011.296 0Z" fill="#EB8D00"/><path d="M178.365 211.844c-5.298 0-9.665-4.586-9.851-4.794a1.16 1.16 0 1 1 1.696-1.587s4.379 4.542 8.922 4.006a26.584 26.584 0 0 0 7.925-2.003 1.158 1.158 0 0 1 1.541.532 1.161 1.161 0 0 1-.512 1.548 28.343 28.343 0 0 1-8.681 2.244c-.361.033-.7.054-1.04.054Zm-15.784 18.763a1.163 1.163 0 0 1-1.195-1.028 1.16 1.16 0 0 1 .932-1.271 10.118 10.118 0 0 0 5.474-4.379c1.094-1.674 2.791-4.86 2.189-7.312a4.081 4.081 0 0 0-2.299-2.572c-4.379-2.244-7.882 3.973-8.024 4.247a1.172 1.172 0 0 1-2.047-1.095c1.609-2.944 5.988-7.816 11.122-5.21a6.37 6.37 0 0 1 3.492 4.05c.854 3.152-.843 6.732-2.419 9.173a12.49 12.49 0 0 1-6.908 5.473l-.317-.076Zm8.319 7.006a1.101 1.101 0 0 1-.865-.394 1.164 1.164 0 0 1 .099-1.642s2.299-2.015 4.379-3.7c1.444-1.172 2.55-3.284 3.535-5.266.219-.438.427-.853.635-1.248a4.493 4.493 0 0 1 1.107-1.465 4.47 4.47 0 0 1 5.176-.505c5.474 2.529 1.61 11.177 1.445 11.538a1.165 1.165 0 0 1-2.149-.062 1.161 1.161 0 0 1 .026-.891c0-.076 3.01-6.94-.307-8.483a2.18 2.18 0 0 0-1.874-.309 2.2 2.2 0 0 0-1.41 1.272l-.624 1.204c-1.029 2.025-2.309 4.543-4.148 6.021a155.592 155.592 0 0 0-4.313 3.645 1.237 1.237 0 0 1-.712.285Z" fill="#EB8D00"/><path d="M180.533 226.02a1.166 1.166 0 0 1-1.094-1.193 6.013 6.013 0 0 0-2.19-4.532c-2.069-1.598-5.473.547-5.473.569a1.162 1.162 0 0 1-1.609-.35 1.162 1.162 0 0 1 .35-1.609c.197-.12 4.838-3.054 8.21-.449a8.403 8.403 0 0 1 3.142 6.426 1.17 1.17 0 0 1-1.336 1.138Z" fill="#EB8D00"/><path d="M188.721 191.834s-.843 6.415-4.379 6.064c-3.535-.35-7.345-1.795-7.662-2.462-.318-.668-3.284 2.638-3.875 2.452-.592-.187-5.923-.187-6.568-1.555a18.43 18.43 0 0 0-3.284-3.776l.613-3.876 5.473-2.473 20.886 3.032-1.204 2.594Z" fill="#F5FCFF"/><path d="M182.11 199.398a7.536 7.536 0 0 1-5.671-2.66 7.37 7.37 0 0 1-5.604 2.66c-5.616 0-8.156-6.152-8.254-6.415a1.16 1.16 0 0 1-.082-.451 1.175 1.175 0 0 1 2.271-.413s2.069 4.947 6.097 4.947a5.464 5.464 0 0 0 4.554-2.846l1.018-1.948 1.04 1.937a5.704 5.704 0 0 0 4.663 2.868 5.47 5.47 0 0 0 5.474-4.696 1.163 1.163 0 1 1 2.299.34 7.743 7.743 0 0 1-7.805 6.677Z" fill="#070707"/><path d="M175.17 190.082s-5.474-1.543-5.474-4.893c0-2.397 2.846-3.929 7.083-3.929 4.236 0 7.093 1.532 7.093 3.47 0 3.886-5.473 5.265-5.473 5.265v5.473h-3.284l.055-5.386Z" fill="#070707"/><path d="M176.789 184.358c2.19 0 3.843.164 3.843.941 0 .613-1.172.536-1.85.963-.679.427-.548 1.588-2.003 1.588-1.456 0-1.632-1.555-2.343-1.752-.712-.197-1.642-.076-1.642-.569 0-.766 1.839-1.171 3.995-1.171Z" fill="#4B4B4B"/><path d="M74.567 61.927c-3.367 30.111 43.924 44.005 71.466 46.718 38.52 4.307 49.597 2.25 59.246 1.681L196.262 135l30.845-28.826c13.199-2.918 71.04-7.163 69.78-41.088-1.368-36.847-81.057-44.22-108.892-45.135-27.834-.915-108.965 2.06-113.428 41.976Z" fill="#fff"/><path d="M125.319 49.483a.83.83 0 0 1 .475.354.93.93 0 0 1 .169.538c-.03.462-.163.97-.399 1.524a26.423 26.423 0 0 1-.889 1.863l-.246.57a.381.381 0 0 1-.276.123c-.225 0-.486-.216-.782-.647a1.259 1.259 0 0 1-.031-.23c0-.216.087-.478.261-.786l.322-.6.215-.431c.112-.205.199-.38.26-.524.062-.154.103-.287.123-.4l-2.086.2-.062-.03a.245.245 0 0 0-.076.015c-.031.01-.067.02-.108.03l-.966.032h-.169a.465.465 0 0 0-.138.015 2.679 2.679 0 0 1-.583.062c-.154 0-.286.01-.399.03l-2.531.246-.675.093a44.996 44.996 0 0 0-.568 2.263l-.092.354c-.01.102-.051.174-.123.215-.061.052-.179.103-.353.154h-.276c-.337 0-.506-.195-.506-.585 0-.143.015-.277.046-.4l.337-1.278.261-1.185.215-.631 1.197-.231c.163-.041.399-.2.705-.477a5.72 5.72 0 0 0 .814-.908c.531-.729.946-1.432 1.242-2.11.297-.677.655-1.652 1.074-2.924l.338-1.032.061-.107.153-.508a.572.572 0 0 0-.138-.016.39.39 0 0 1-.122-.015.874.874 0 0 1-.415-.354 1.055 1.055 0 0 1-.107-.77l.184-.17a.465.465 0 0 1 .199.016c.082.01.159.016.231.016.112 0 .199-.01.26-.031l.706-.108c.399-.061.644-.108.737-.138a34.427 34.427 0 0 1 1.718-.139c.429-.03.895-.046 1.396-.046.204 0 .404.067.598.2.195.133.312.287.353.462.021.359-.189 1.231-.629 2.617-.43 1.385-.849 2.55-1.258 3.494-.112.349-.343.96-.69 1.832l-.292.754c.01 0 .143-.046.399-.138.266-.103.517-.154.752-.154a.59.59 0 0 1 .184.03Zm-2.593.23a27.04 27.04 0 0 1 .322-1.323c.062-.206.169-.478.323-.816l1.012-2.71.307-.923c.389-1.13.624-1.873.706-2.232l-.369-.016c-.429 0-.874.031-1.334.093-.461.051-.788.123-.982.215l-.184.57c-.092.287-.333.913-.721 1.878a39.23 39.23 0 0 1-1.412 3.079c-.542 1.077-1.084 1.919-1.626 2.524.399-.01 1.14-.062 2.225-.154 1.094-.103 1.672-.164 1.733-.185Zm13.335-9.343c.235.03.409.092.521.184a.535.535 0 0 1 .215.308c.031.113.061.287.092.523l-.169.416a68.916 68.916 0 0 0-1.104 2.956l-.537 1.832-.184.323-.353 1.632a69.21 69.21 0 0 0-.338 1.508c-.102.482-.169.831-.199 1.047 0 .103-.005.185-.016.246a1.15 1.15 0 0 0-.015.185c-.092.215-.133.354-.123.416 0 .266-.056.44-.168.523-.103.082-.317.123-.645.123a2.23 2.23 0 0 1-.46-.339.968.968 0 0 1-.23-.384c.01-.175.051-.442.123-.8.041-.247.061-.386.061-.416l.184-1.294c.021-.04.056-.102.107-.184.062-.082.108-.139.139-.17.03-.113.066-.282.107-.508l.077-.338a7.89 7.89 0 0 0 .153-.647c.072-.297.123-.513.153-.646l-.138.154c-.122.225-.352.538-.69.939-.205.266-.348.461-.43.584-.133.206-.966 1.027-2.5 2.464-.256.256-.466.456-.629.6-.174.185-.322.297-.445.339-.113.04-.322.071-.629.092-.368-.298-.552-.575-.552-.831l.061-.216c.02-.082.051-.138.092-.17.041-.04.097-.086.169-.138.133-.082.424-.318.874-.708.46-.4.798-.703 1.013-.908l.798-.8.813-.893a4.595 4.595 0 0 1-.599-.278 1.35 1.35 0 0 1-.399-.307c-.439-.493-.659-1.119-.659-1.878 0-.555.102-1.078.307-1.57.112-.298.219-.519.322-.663.112-.153.266-.328.46-.523.143-.123.245-.226.307-.308.296-.328.608-.575.936-.739.337-.164.915-.384 1.733-.662.051 0 .251-.02.599-.061a8.16 8.16 0 0 1 .951-.062c.102.041.189.077.261.108.081.03.148.056.199.077a.953.953 0 0 1 .169-.123.458.458 0 0 1 .215-.016Zm-1.381 2.909c.041-.164.117-.39.23-.678.031-.071.077-.19.138-.353.061-.175.118-.36.169-.555a.617.617 0 0 0-.169-.015c-.184 0-.43.03-.736.092-.665.123-1.299.4-1.903.831-.603.421-1.007.873-1.212 1.355a4.253 4.253 0 0 0-.215.631c-.04.175-.056.354-.046.54 0 .133.011.24.031.322.021.083.056.185.108.308l.122.354c.041.01.118.02.23.031.123.01.21.01.261 0l.368-.123c.45-.133.788-.272 1.013-.416.184-.092.353-.138.506-.138.133 0 .241.02.322.061l.046-.123.737-2.124Zm9.201 8.744c-.225 0-.526-.057-.905-.17-.378-.102-.634-.292-.767-.57l-.261-.292c-.286-.308-.445-.487-.475-.539a255.95 255.95 0 0 1-.491-.492c-.205-.195-.394-.38-.568-.554a4.668 4.668 0 0 1-.399-.508c-.123-.124-.271-.34-.445-.647a2.29 2.29 0 0 0-.199-.308c-.062-.102-.118-.164-.169-.185-.112.082-.194.272-.245.57-.103.215-.215.58-.338 1.093a4.641 4.641 0 0 0-.215.6c-.051.206-.087.344-.107.416-.102.287-.179.457-.23.508l-.138.6c-.103.524-.256.785-.461.785-.132 0-.322-.107-.567-.323l-.215-.339c-.133-.194-.199-.302-.199-.323.02-.051.056-.154.107-.308.051-.164.113-.364.184-.6l.261-.816c.399-1.19.654-2.022.767-2.494a.23.23 0 0 0 .061-.123.81.81 0 0 0 .016-.17c.102-.307.271-.769.506-1.385.235-.626.414-1.036.537-1.231a.858.858 0 0 0 .077-.308c0-.041.01-.077.03-.108a.23.23 0 0 1 .108-.061c0-.134.025-.231.076-.293.072-.154.225-.575.461-1.262.245-.688.368-1.052.368-1.093 0-.051.02-.103.061-.154.041-.051.067-.082.077-.092.082-.072.22-.108.414-.108.174 0 .348.04.522.123.184.072.317.17.399.292 0 .072-.021.18-.062.324a2.79 2.79 0 0 1-.138.43l-.291.663c-.021.072-.082.251-.184.538-.092.278-.21.611-.353 1.001-.215.431-.384.81-.507 1.14-.122.328-.163.512-.122.553a8.62 8.62 0 0 0 .46-.384 23.1 23.1 0 0 0 .782-.724 14.022 14.022 0 0 1 1.734-1.508c.757-.514 1.232-.827 1.427-.94.194-.112.373-.174.537-.184a.446.446 0 0 1 .169-.031c.04 0 .092.02.153.062.061.04.123.076.184.107.031.062.061.17.092.324.041.143.067.24.077.292.01.103-.051.231-.184.385a1.649 1.649 0 0 1-.522.385 39.722 39.722 0 0 0-2.715 1.862c-1.003.74-1.555 1.232-1.657 1.478-.051.062-.062.118-.031.17.031.05.092.123.184.215.102.082.189.154.261.216.133.164.235.297.307.4a2.2 2.2 0 0 1 .153.184c0 .062.338.416 1.013 1.063.02.051.122.18.307.385.265.287.45.518.552.692.665.698.997 1.211.997 1.54 0 .154-.087.23-.261.23Zm4.099-.278a4.295 4.295 0 0 0-.353-.077 1.617 1.617 0 0 1-.429-.138 1.129 1.129 0 0 1-.399-.323.816.816 0 0 1-.138-.447c0-.246.117-.451.353-.615.143-.01.255-.006.337.015.082.01.215.051.399.123.072.03.174.051.307.062.143 0 .245.01.307.03.204-.03.409-.112.613-.246.205-.144.384-.303.537-.477a.586.586 0 0 0 .077-.108.693.693 0 0 1 .123-.123c-.113-.133-.256-.431-.43-.893s-.271-.78-.291-.954a15.605 15.605 0 0 0-.046-.247 1.671 1.671 0 0 0-.046-.277 6.355 6.355 0 0 0-.261-.77 11.953 11.953 0 0 1-.215-.646 18.4 18.4 0 0 1-.307-1.462c-.102-.585-.153-1.037-.153-1.355 0-.287-.021-.549-.062-.785a3.466 3.466 0 0 1-.076-.662c0-.246.041-.472.122-.677l.706-.077c.082.061.184.143.307.246.123.103.235.18.337.231 0 .164.011.39.031.677a3.998 3.998 0 0 1 0 .678c0 .112.005.246.015.4.041.02.067.077.077.17a.532.532 0 0 1 .016.215c-.021.133.02.482.122 1.047.103.564.184.892.246.985.041.287.153.667.337 1.139.184.472.414 1.047.691 1.724.378-.544.721-1.129 1.028-1.755.317-.626.726-1.493 1.227-2.601.174-.421.373-.873.598-1.355.051-.103.133-.324.246-.662.061-.216.138-.431.23-.647.225-.123.409-.184.552-.184.031 0 .077.01.138.03.184.082.333.21.445.385.123.175.184.36.184.554 0 .041-.01.113-.031.216-.133.503-.306.918-.521 1.247l-1.028 2.078a7.034 7.034 0 0 1-.292.57l-.398.846c-.164.38-.563 1.021-1.197 1.924a1.49 1.49 0 0 1-.138.185 8.238 8.238 0 0 0-.138.2 6.918 6.918 0 0 1-1.458 1.555l-.491.37-.138.138a.649.649 0 0 1-.168.123.355.355 0 0 1-.185.046c-.122.113-.562.231-1.319.354Zm15.236-8.697c-.02.534-.082.924-.184 1.17-.102.246-.245.374-.43.385l-.337-.062a1.662 1.662 0 0 1-.506-.215.475.475 0 0 1-.23-.416c0-.072.035-.241.107-.508.112-.452.169-.729.169-.831 0-.318-.138-.524-.415-.616-.317 0-.721.246-1.212.739-.49.492-.976 1.103-1.457 1.832a12.839 12.839 0 0 0-1.135 2.078c-.501 1.447-.783 2.422-.844 2.925.02.082.031.2.031.354 0 .072-.016.107-.046.107.03.226.122.452.276.678.163.215.353.323.567.323.215 0 .476-.036.783-.108.317-.082.547-.174.69-.277.082 0 .21-.036.384-.108.184-.082.307-.138.368-.169.317-.144.583-.251.798-.323a1.68 1.68 0 0 1 .598-.123c.072 0 .21.02.414.061-.01.041-.025.123-.046.247-.02.112-.051.23-.092.354-.174.246-.332.42-.475.523-.133.103-.323.21-.568.323a2.506 2.506 0 0 0-.522.262c-.736.452-1.467.677-2.194.677-.327 0-.685-.072-1.073-.215a2.992 2.992 0 0 1-.936-.508c-.082-.133-.189-.41-.322-.831s-.2-.688-.2-.8c0-.032.01-.078.031-.14a.5.5 0 0 0 .03-.138v-.154a.595.595 0 0 1-.03-.185c.01-.318.138-.841.383-1.57.256-.739.594-1.565 1.013-2.478.256-.554.624-1.17 1.104-1.847a14.57 14.57 0 0 1 1.519-1.817c.532-.523.972-.852 1.32-.985a1.73 1.73 0 0 1 .521-.108c.368 0 .716.093 1.043.277.328.175.594.452.798.831.205.37.307.832.307 1.386Zm-5.231 3.987a1.7 1.7 0 0 1-.537-.077c-.256 0-.44-.097-.553-.292-.051-.083-.076-.144-.076-.185 0-.103.066-.18.199-.231.143-.062.363-.108.66-.139.368-.082.68-.138.936-.169.255-.03.577-.046.966-.046.471 0 .823.102 1.059.308.102.102.153.21.153.323a.35.35 0 0 1-.138.292c-.092.072-.215.098-.368.077l-1.074.062c-.061 0-.21.015-.445.046a9.02 9.02 0 0 1-.782.03Zm4.805 5.126c-.154 0-.312-.103-.476-.308-.163-.195-.245-.441-.245-.739 0-.236.056-.467.168-.692.205-.431.41-.78.614-1.047a1.55 1.55 0 0 0 .154-.262.726.726 0 0 0 .076-.292c.143-.185.333-.519.568-1.001.399-.647.966-1.642 1.703-2.986l.598-1.093c.307-.544.512-.867.614-.97l.077-.108c-.031.051.02-.067.153-.354a6.58 6.58 0 0 1 .445-.77c.163-.236.307-.354.429-.354.133 0 .287.057.461.17.174.102.322.261.445.477.132.205.199.451.199.739 0 .123-.005.22-.015.292l-.154 1.047-.076.339a109.21 109.21 0 0 1-.599 2.786c-.235 1.047-.353 1.678-.353 1.893a.35.35 0 0 0 .031.154c.02.031.046.047.077.047.02 0 .071-.031.153-.093a.9.9 0 0 0 .215-.308l.199-.308.261-.385c.287-.4.639-.938 1.059-1.616.419-.687 1.099-1.862 2.04-3.525.195-.287.353-.539.476-.754.163-.267.322-.519.475-.755.154-.236.271-.384.353-.446a.593.593 0 0 1 .384-.123c.153.01.312.067.475.17.174.102.317.245.43.43.123.185.184.385.184.6 0 .247-.077.698-.23 1.355a21.735 21.735 0 0 1-.506 1.909 28.96 28.96 0 0 1-.384 1.524 40.307 40.307 0 0 0-.368 1.416 4.395 4.395 0 0 0-.108.847v.123c-.153.277-.23.831-.23 1.663-.041.338-.117.6-.23.785-.112.195-.204.292-.276.292l-.046-.015a.244.244 0 0 0-.153.061c-.041.052-.103.077-.184.077-.256 0-.425-.092-.507-.277-.071-.184-.107-.436-.107-.754 0-.185.005-.339.015-.462.031-.267.358-1.657.982-4.172.491-1.97.736-3.001.736-3.094l-.214.37c-.205.39-.461.846-.767 1.37l-1.074 2.016a4.609 4.609 0 0 0-.338.54 4.78 4.78 0 0 0-.138.307c-.123.246-.368.6-.736 1.062a2.468 2.468 0 0 0-.215.293c-.051.112-.215.313-.491.6a8.945 8.945 0 0 1-.874.77c-.307.225-.563.338-.768.338-.276 0-.526-.133-.751-.4a1.496 1.496 0 0 1-.322-.97c0-.277.051-.739.153-1.385.164-.708.337-1.427.522-2.155.184-.729.312-1.206.383-1.432a.963.963 0 0 0 .046-.308c0-.072-.01-.118-.031-.138-.01 0-.025.01-.046.03a25.85 25.85 0 0 0-.767 1.37 39.87 39.87 0 0 0-1.058 2.171c-1.463 2.7-2.301 4.172-2.516 4.418Zm12.91-.354a6.615 6.615 0 0 1-.921-.8c-.214-.236-.327-.462-.337-.678a1.697 1.697 0 0 1-.015-.277c0-.287.025-.646.076-1.078.051-.43.103-.774.154-1.03.041-.042.061-.104.061-.186.01-.082.01-.133 0-.154 0-.03.026-.133.077-.307a8.97 8.97 0 0 0 .261-.955c.276-.841.547-1.514.813-2.016.266-.503.562-.975.89-1.417.695-.718 1.437-1.262 2.224-1.631.399-.236.685-.354.859-.354.031 0 .077.01.138.03 1.258.277 2.01 1.078 2.255 2.402.093.626.139 1.098.139 1.416 0 .513-.093 1.031-.277 1.555-.184.523-.516 1.18-.997 1.97-.409.821-.874 1.524-1.396 2.11-.511.574-1.028 1.005-1.549 1.292-.512.288-.992.431-1.443.431-.398 0-.736-.108-1.012-.323Zm1.227-1.016a1.99 1.99 0 0 0 .568-.138 1.4 1.4 0 0 0 .429-.308c.154-.154.399-.426.737-.816.429-.493.731-.852.905-1.078.174-.236.332-.528.476-.877.153-.35.322-.852.506-1.509l.092-.354a4.71 4.71 0 0 0 .123-.523c.03-.144.046-.298.046-.462l-.016-.97a2.768 2.768 0 0 0-.107-.6c-.061-.216-.133-.37-.215-.462a.937.937 0 0 0-.337-.231.861.861 0 0 0-.415-.108.996.996 0 0 0-.352.077c-.195.082-.466.303-.814.662-.347.35-.659.708-.935 1.078-.266.37-.399.615-.399.739 0 .01-.005.04-.016.092a.331.331 0 0 1-.061.139c-.266.287-.537.892-.813 1.816-.266.924-.419 1.73-.46 2.417a5.458 5.458 0 0 0 0 .615c.02.113.076.242.168.385.072.113.2.221.384.324.194.092.363.123.506.092Zm12.244 1.509a4.72 4.72 0 0 1-.89-.077 1.945 1.945 0 0 1-.706-.293 6.902 6.902 0 0 1-1.012-.8c-.327-.329-.491-.616-.491-.862 0-.165.066-.339.199-.524a1.98 1.98 0 0 1 .507-.462c.204-.123.393-.184.567-.184.215.113.374.22.476.323a.472.472 0 0 1 .153.339c0 .164-.117.354-.353.57.144.174.317.307.522.4.215.082.445.123.69.123.338 0 .701-.083 1.09-.247.388-.174.716-.405.982-.692.265-.288.398-.606.398-.955 0-.441-.102-.806-.306-1.093-.205-.297-.517-.446-.936-.446a1.05 1.05 0 0 0-.2.015h-.122a.954.954 0 0 1-.323-.077.477.477 0 0 1-.184-.077.511.511 0 0 1-.107-.108 3.524 3.524 0 0 1-.322-.446.814.814 0 0 1-.092-.37c0-.184.112-.338.337-.461a.68.68 0 0 1 .338-.108c.03 0 .087.01.168.03.072-.03.185-.056.338-.076.164-.02.286-.051.368-.092a7.59 7.59 0 0 0 1.857-1.201c.562-.503.843-1.047.843-1.632a1.53 1.53 0 0 0-.107-.523 1.476 1.476 0 0 0-.767-.2c-.43 0-.854.118-1.274.354-.409.236-.68.528-.813.877-.153.41-.398.693-.736.847a3.32 3.32 0 0 1-.491-.385 4.783 4.783 0 0 1-.383-.57 4.706 4.706 0 0 1 .874-1.462c.389-.441.839-.77 1.35-.985.133-.062.343-.118.629-.17.297-.061.522-.092.675-.092.491 0 .921.118 1.289.354.368.236.654.56.859.97.204.4.307.841.307 1.324 0 .564-.103 1.047-.307 1.447a3.17 3.17 0 0 1-.813 1.016c-.338.277-.783.59-1.335.939.338.277.583.57.736.877.154.298.231.657.231 1.078 0 .482-.036.882-.108 1.2a2.59 2.59 0 0 1-.429.97c-.144.246-.404.508-.783.785a5.188 5.188 0 0 1-1.15.647l-.108-.016c-.061.042-.169.072-.322.093-.174.04-.281.077-.322.108h-.491Zm11.829.308a.695.695 0 0 1-.23-.062.683.683 0 0 1-.23-.139c-.123-.123-.184-.307-.184-.554a12.1 12.1 0 0 0-.031-1.093l-.015-.923c0-.236.015-.38.046-.431a1.2 1.2 0 0 1-.016-.231c0-.093.005-.2.016-.324.02-.133.03-.236.03-.307l-.061-.416h-.829c-.061.01-.194.015-.398.015-.277 0-.936-.03-1.98-.092l-.199.323c-.01.01-.061.077-.153.2a2.833 2.833 0 0 0-.261.555c-.092.246-.215.528-.368.846a4.738 4.738 0 0 1-.399.739c-.154.287-.297.498-.43.631-.123.134-.215.2-.276.2h-.077a.496.496 0 0 1-.184-.03.62.62 0 0 1-.184-.108c-.276-.123-.414-.308-.414-.554 0-.175.082-.38.245-.616l.2-.323c0-.062.148-.385.445-.97.307-.596.506-.914.598-.955.092-.092.138-.184.138-.277 0-.102-.061-.205-.184-.308a.256.256 0 0 1-.107-.123.615.615 0 0 1-.031-.2c0-.144.051-.267.153-.37.103-.102.261-.148.476-.138.051-.03.097-.056.138-.077a1.58 1.58 0 0 0 .107-.046c.031-.02.046-.046.046-.077 0-.051.082-.236.246-.554.174-.329.327-.575.46-.74.102-.276.189-.476.261-.6.082-.123.133-.21.153-.261.052-.051.154-.22.307-.508.021-.03.087-.144.2-.339.102-.102.204-.22.306-.354.113-.144.185-.236.215-.277.041-.072.103-.159.184-.262a2.13 2.13 0 0 1 .277-.446c.132-.185.214-.298.245-.339a1.79 1.79 0 0 1 .552-.446c.215-.123.414-.185.599-.185.102 0 .189.016.26.046.256.113.481.324.675.632a2.3 2.3 0 0 1 .338 1.077c.01.072.031.231.061.477.041.247.062.462.062.647a.959.959 0 0 1-.046.323v.677c0 .339.01.59.03.755-.03.113-.046.297-.046.554l.016.6c0 .154-.005.282-.016.385l-.015.57-.015.57c-.011.256-.016.579-.016.969l.016 1.216c0 .698-.062 1.206-.184 1.524-.113.318-.287.493-.522.523Zm-3.099-5.758a5.585 5.585 0 0 1 1.043-.061c.287-.02.476-.031.568-.031.133 0 .266.005.399.015a.965.965 0 0 0 .245-.015c.194.01.292-.17.292-.539a27.577 27.577 0 0 1-.108-2.34l.016-.477c0-.164-.016-.339-.046-.523a10.087 10.087 0 0 0-.046-.37c-.041-.051-.19.118-.445.508-.246.39-.456.74-.629 1.047a3.011 3.011 0 0 0-.246.431 6.48 6.48 0 0 0-.169.292 3.333 3.333 0 0 1-.199.37c-.501.8-.752 1.314-.752 1.54 0 .071.026.122.077.153Zm13.05 5.711a.695.695 0 0 1-.23.062.46.46 0 0 1-.246-.077c-.296 0-.506-.02-.629-.062l.093.062c-.532-.103-1.049-.395-1.55-.878-.491-.482-.808-.99-.951-1.523a4.64 4.64 0 0 1-.062-.293.853.853 0 0 1-.015-.262.808.808 0 0 1 .353-.539c.194-.143.409-.215.644-.215a.87.87 0 0 1 .277.046.852.852 0 0 1 .107.354c0 .062-.015.149-.046.262.153.523.44.934.859 1.231.419.298.9.447 1.442.447.45 0 .864-.113 1.243-.339.388-.236.675-.56.859-.97.041-.092.072-.2.092-.323.031-.133.061-.246.092-.339a.33.33 0 0 1 .061-.107c.011-.062.016-.16.016-.293a2.41 2.41 0 0 0-.215-1c-.133-.319-.327-.529-.583-.632a4.266 4.266 0 0 1-.414-.077 2.139 2.139 0 0 0-.522-.092.911.911 0 0 0-.199.016l-.246-.093a4.058 4.058 0 0 1-.429-.523 1.055 1.055 0 0 1-.138-.524c0-.143.03-.297.092-.461a1.1 1.1 0 0 0 .276-.047 1.25 1.25 0 0 1 .276-.046c.511 0 .961-.128 1.35-.385.389-.256.685-.595.89-1.016a2.967 2.967 0 0 0 .291-1.77c-.215-.185-.491-.277-.828-.277-.379 0-.783.097-1.212.292-.419.185-.737.406-.951.662a1.2 1.2 0 0 1-.583-.2 1.569 1.569 0 0 1-.445-.492.932.932 0 0 1-.108-.585 2.72 2.72 0 0 1 1.136-.847c.48-.205.987-.308 1.518-.308.522 0 1.008.098 1.458.293.46.195.828.482 1.105.862.286.38.429.836.429 1.37 0 .205-.02.405-.061.6-.092.462-.302.924-.629 1.386a4.48 4.48 0 0 1-1.105 1.093c.481.266.849.651 1.105 1.154.255.493.383 1.026.383 1.601 0 .452-.133.96-.399 1.524-.255.564-.552 1-.889 1.309a.997.997 0 0 1-.215.153 3.284 3.284 0 0 0-.23.139l-.2.139a7.678 7.678 0 0 1-1.089.415 3.178 3.178 0 0 1-1.028.123Zm11.04-11.961c.347 0 .67.093.966.277.307.175.547.426.721.755.184.318.276.682.276 1.093 0 .574-.035 1.329-.107 2.263a47.242 47.242 0 0 1-.276 2.632c-.123.862-.23 1.97-.322 3.325a26.921 26.921 0 0 1-.154 1.478c-.03.277-.092.436-.184.477l.016.03c0 .042-.036.078-.108.108a.655.655 0 0 1-.261.047c-.184 0-.368-.036-.552-.108-.184-.072-.276-.226-.276-.462 0-.133.025-.457.077-.97.112-.964.179-1.755.199-2.37l.092-.678h-.383c-.174.052-.425.077-.752.077l-.967-.015c-.276 0-.465.01-.567.03a.291.291 0 0 0-.215.124c-.051.061-.113.19-.184.385a6.28 6.28 0 0 1-.322.754c-.358.872-.675 1.493-.952 1.863-.276.37-.547.554-.813.554a1.18 1.18 0 0 1-.353-.093c-.153-.061-.23-.143-.23-.246 0-.144.108-.441.322-.893.225-.451.394-.754.507-.908.01 0 .01-.005 0-.015a.217.217 0 0 1-.016-.093c0-.226.133-.6.399-1.123.041-.124.082-.242.123-.355a.929.929 0 0 0 .077-.23l.291-.57c0-.062.036-.19.108-.385.081-.205.179-.426.291-.662 0-.154.031-.302.092-.446a3.7 3.7 0 0 1 .246-.493c.112-.205.168-.338.168-.4 0-.02.011-.067.031-.139.031-.071.087-.19.169-.354-.021 0-.031-.005-.031-.015 0-.01.041-.067.123-.17 0-.092.036-.194.107-.307.082-.123.215-.462.399-1.016l.307-.662c.082-.134.189-.385.322-.754l.123-.324.123-.338c.03-.041.076-.118.138-.231a.691.691 0 0 1 .291-.277c.133-.072.312-.113.537-.123.123-.031.251-.047.384-.047Zm.322 5.88c0-.112.036-.528.107-1.246.143-1.478.22-2.386.23-2.725 0-.154-.005-.241-.015-.261 0-.093-.082-.18-.245-.262-.164-.082-.282-.123-.353-.123-.092 0-.169.051-.23.154a2.72 2.72 0 0 0-.185.384 4.446 4.446 0 0 0-.122.308l-.138.354c-.174.431-.379.96-.614 1.586-.235.616-.368.985-.399 1.108-.061.062-.169.257-.322.585-.143.318-.215.519-.215.6 0 .257.128.385.384.385.041 0 .122-.005.245-.015.133-.02.276-.056.43-.108h.215c.163 0 .327-.025.49-.077.266-.04.44-.072.522-.092.092-.02.148-.067.169-.139.031-.071.046-.21.046-.415Zm12.951-5.88a.836.836 0 0 1 .506.293.8.8 0 0 1 .215.539.479.479 0 0 1-.015.138.906.906 0 0 1-.123.246.228.228 0 0 1-.169.062c-.102 0-.255-.051-.46-.154-.102.175-.158.287-.169.339a4.15 4.15 0 0 1-.168.492c-.092.113-.231.442-.415.986-.173.544-.26.898-.26 1.062a12.01 12.01 0 0 0-.231.785c-.102.38-.219.795-.352 1.247a865.786 865.786 0 0 0-.875 3.032c-.01.164-.036.365-.077.6-.02.155-.04.375-.061.662.01.021.015.057.015.108a.248.248 0 0 1-.046.154.2.2 0 0 1-.092.077c-.133.113-.317.17-.552.17-.256 0-.435-.067-.537-.2-.153-.267-.215-.473-.184-.616.031-.36.112-.934.245-1.724.062-.298.128-.56.2-.786.071-.236.117-.338.138-.307l.307-1.109c.061-.174.107-.343.138-.508a4.67 4.67 0 0 1 .092-.354 10.1 10.1 0 0 1 .291-1.093c.144-.338.292-.846.445-1.524.062-.225.143-.482.246-.77.112-.287.184-.436.215-.446a8.526 8.526 0 0 0-.814.123 8.873 8.873 0 0 1-.889.139l-1.044.154c-.572.082-.879.123-.92.123l-1.105 2.57-.782 2.048a44.336 44.336 0 0 1-.69 2.14 31.84 31.84 0 0 1-.2.616 7.87 7.87 0 0 0-.261.97l-.107.538a.91.91 0 0 1-.246.339.492.492 0 0 1-.337.108c-.317 0-.547-.057-.69-.17-.133-.113-.2-.292-.2-.538a6.8 6.8 0 0 1 .184-.508c.062-.165.108-.313.138-.447.072-.287.143-.544.215-.77l.123-.37c.327-1.128.603-1.97.828-2.524l.414-1.17a4.97 4.97 0 0 0 .169-.446l.537-1.601c.246-.493.419-.939.522-1.34a.7.7 0 0 1-.108-.384c0-.164.046-.303.138-.416a.515.515 0 0 1 .399-.169.54.54 0 0 1 .154.015c.174.052.47.088.89.108.419.01.634.01.644 0 .102-.051.588-.138 1.457-.262.88-.123 1.744-.236 2.593-.338l.169-.016c.092 0 .276.026.552.077Zm9.627.077a.62.62 0 0 1 .553.216.811.811 0 0 1 .184.831c-.133.267-.43.99-.89 2.17-.46 1.17-.905 2.315-1.335 3.433l-1.105 3.202c-.051.144-.158.41-.322.8a2.464 2.464 0 0 0-.276.801.997.997 0 0 1-.245.431c-.113.123-.23.185-.353.185a.249.249 0 0 1-.154-.046c-.47-.175-.705-.452-.705-.831 0-.031.01-.098.03-.2-.02.133.123-.18.43-.94.317-.77.573-1.416.767-1.94.757-1.898 1.135-2.883 1.135-2.955.123-.318.205-.544.246-.677.123-.4.245-.718.368-.954l.261-.693-5.416 6.28c-.071.062-.271.242-.598.54a6.309 6.309 0 0 1-.644.584 15.6 15.6 0 0 0-.369.277 4.192 4.192 0 0 1-.445.323c-.133.093-.24.139-.322.139-.583-.103-.874-.339-.874-.708 0-.164.041-.349.123-.554.081-.216.132-.354.153-.416a5.81 5.81 0 0 0 .23-.939c.113-.462.271-1.016.476-1.662.02-.083.071-.272.153-.57.092-.308.148-.59.169-.847.143-.277.337-.728.583-1.354l.215-.555c.041-.082.133-.333.276-.754.092-.318.189-.585.291-.8l.154-.293a17.6 17.6 0 0 0 .445-.923c.112-.247.173-.452.184-.616 0-.133.046-.231.138-.293a.53.53 0 0 1 .337-.107c.174 0 .333.051.476.154a.62.62 0 0 1 .276.37c.041.112.061.24.061.384 0 .133-.02.256-.061.37l-1.273 3.247-1.396 3.695-.369.924 3.099-3.11c.348-.36.675-.744.982-1.154.266-.35.522-.657.767-.924.246-.267.547-.58.905-.94l.353-.369 1.949-2.078a.635.635 0 0 1 .383-.154Zm-4.618 10.976v.015-.015Zm7.5.262c-.041.04-.082.061-.123.061-.051 0-.138-.03-.261-.092a.952.952 0 0 1-.46-.262.59.59 0 0 1-.184-.43c0-.042.021-.124.061-.247.092-.175.328-1.031.706-2.57l.261-1.017c0-.01.02-.17.061-.477.031-.154.077-.436.138-.847.123-.236.205-.492.246-.77.051-.287.082-.45.092-.492a4.92 4.92 0 0 1 .153-.539l.138-.538.092-.355c.072-.256.108-.42.108-.492v-.246h-.568l-.245.015c-.164 0-.292-.005-.384-.015l-.537-.016c-.48-.02-.803-.067-.966-.138-.164-.083-.251-.236-.261-.462-.041-.205.061-.364.307-.477.245-.124.746-.175 1.503-.154a8.66 8.66 0 0 1 .583-.016c.246 0 .445.005.599.016.153.01.24.015.26.015a.35.35 0 0 0 .077-.123 2.58 2.58 0 0 0 .046-.123c0-.175.056-.282.169-.324.061-.133.189-.2.383-.2a.81.81 0 0 1 .338.077.613.613 0 0 1 .261.216c.02.051.03.143.03.277 0 .133.031.23.092.292.041-.04.174-.066.399-.077.225-.01.384-.02.476-.03.194 0 .394-.005.598-.016.205-.02.343-.03.414-.03.092-.052.236-.078.43-.078.092 0 .22.01.384.031.204 0 .352.047.444.139.092.082.174.18.246.292 0 .113.025.195.077.247.041.03.061.061.061.092 0 .02-.02.067-.061.139-.072.092-.256.138-.553.138l-.322.016c-.225.02-.389.03-.491.03-.45.093-.971.149-1.565.17-.419 0-.629.04-.629.123-.061 0-.179.333-.352 1a7.823 7.823 0 0 1-.2.678 2.317 2.317 0 0 1-.153.4.23.23 0 0 1 .046.138c0 .052-.031.165-.092.34a4.407 4.407 0 0 1-.108.338.708.708 0 0 0-.061.246c-.01.041-.041.144-.092.308a5.254 5.254 0 0 0-.108.523c-.051.493-.117.78-.199.862-.01.02-.036.062-.077.123a.452.452 0 0 0-.046.2c0 .144-.036.4-.107.77-.072.36-.128.555-.169.585.031 0 .046.031.046.093 0 .072-.031.18-.092.323 0 .082-.015.18-.046.292-.031.113-.046.19-.046.231-.102.288-.245.652-.43 1.093-.184.441-.296.683-.337.724Zm6.098-3.125a.456.456 0 0 1-.138.015.58.58 0 0 1-.475-.23c-.113-.165-.169-.411-.169-.74 0-.256.046-.574.138-.954.143-.287.215-.503.215-.647.051-.174.133-.395.245-.662.113-.277.205-.487.277-.63.04 0 .081-.036.122-.108a.371.371 0 0 0 .077-.216c0-.092.015-.185.046-.277a.662.662 0 0 1 .123-.215c0-.031.02-.083.061-.154a.48.48 0 0 0 .061-.17c0-.02.011-.051.031-.092a.26.26 0 0 0 .046-.123c.184-.308.45-.888.798-1.74.348-.852.527-1.344.537-1.478.041-.236.133-.338.276-.307.051-.041.174-.062.368-.062.031.01.087.036.169.077a.69.69 0 0 1 .215.17.42.42 0 0 1 .122.261c.021.103.031.236.031.4a1.51 1.51 0 0 1-.138.508 7.66 7.66 0 0 1-.291.554 8.91 8.91 0 0 0-.231.416l-.199.37c-.164.287-.245.456-.245.508a.724.724 0 0 1-.077.23 5.48 5.48 0 0 0-.123.262 3.562 3.562 0 0 0-.261.554c-.081.236-.122.38-.122.431-.011.02-.026.057-.046.108a.274.274 0 0 1-.077.139c-.031 0-.051.025-.062.077a.432.432 0 0 0-.015.092c0 .051-.025.154-.077.308a3.918 3.918 0 0 1-.214.508c-.348.995-.537 1.703-.568 2.124-.02.216-.072.37-.153.462a.877.877 0 0 1-.277.23Zm-.813 2.386a1.313 1.313 0 0 1-.491.123c-.153 0-.327-.072-.521-.215-.154-.155-.23-.308-.23-.462 0-.257.189-.514.567-.77.225-.144.389-.215.491-.215.072 0 .205.04.399.123.307.195.46.405.46.63 0 .288-.225.55-.675.786ZM87.512 72.08a2.05 2.05 0 0 1-.599-.523c-.133-.174-.2-.344-.2-.508 0-.215.108-.39.323-.523a.38.38 0 0 1 .169-.031c.102 0 .21.02.322.061a.578.578 0 0 1 .276.14c.266.245.583.368.951.368.164 0 .4-.035.706-.107.399-.123.71-.277.936-.462.235-.185.511-.472.828-.862.195-.257.338-.513.43-.77a2.05 2.05 0 0 0 .153-.723c0-.236-.056-.421-.169-.554a2.04 2.04 0 0 0-.69-.616 1.7 1.7 0 0 0-.874-.216c-.297 0-.588.041-.875.123l-.89.185c-.04.01-.097.02-.168.031-.062 0-.154.149-.276.446a45.07 45.07 0 0 0-.63 1.694c-.214.605-.393 1.041-.537 1.308-.143.257-.27.385-.383.385-.123 0-.256-.113-.399-.339a9.727 9.727 0 0 0-.2-.308.87.87 0 0 1-.137-.446c0-.072.025-.159.076-.262.052-.092.092-.184.123-.277.041-.092.082-.22.123-.385.133-.4.516-1.395 1.15-2.986.645-1.59 1.146-2.791 1.504-3.602.256-.585.332-.893.23-.924a.355.355 0 0 0-.046-.138c-.03-.062-.04-.108-.03-.139 0-.061.178-.154.536-.277.368-.123.619-.174.752-.154h.092c.133 0 .2-.026.2-.077.02 0 .112-.01.276-.03.174-.021.358-.021.552 0 .726.061 1.299.271 1.718.63.42.35.624.868.614 1.555-.02.267-.169.631-.445 1.093a4.975 4.975 0 0 1-.905 1.14 11.868 11.868 0 0 1-.966.754l.383.138c.48.185.854.41 1.12.678.266.266.455.63.567 1.093.02.102.031.195.031.277 0 .225-.04.482-.123.77a5.03 5.03 0 0 1-.245.754.947.947 0 0 0-.153.2 3.903 3.903 0 0 0-.077.138c-.01.041-.102.2-.276.477a7.939 7.939 0 0 1-.46.647c-.676.575-1.233.944-1.673 1.108-.43.195-.94.293-1.534.293-.532 0-.926-.082-1.181-.246Zm1.104-6.388.614-.123c.307-.072.527-.133.66-.185l.184-.092c.112-.062.225-.149.337-.262.645-.605 1.095-1.15 1.35-1.632.256-.42.384-.718.384-.892a.501.501 0 0 0-.169-.354c-.194-.226-.516-.34-.966-.34-.195 0-.358.021-.491.063a.857.857 0 0 0-.323.153c-.06.052-.092.134-.092.247a.633.633 0 0 1-.076.277 1.01 1.01 0 0 1-.17.23.392.392 0 0 1-.091.185.91.91 0 0 1-.092.124c0 .02-.072.159-.215.415a8.63 8.63 0 0 0-.383.862c-.307.729-.46 1.17-.46 1.324Zm16.47 6.173c-.307-.133-.629-.37-.967-.708a5.979 5.979 0 0 1-.859-1.093c-.245-.41-.414-.785-.506-1.124a2.75 2.75 0 0 0-.184-.57 5.305 5.305 0 0 1-.123-.353l-.092-.277a20.652 20.652 0 0 0-.307-1.201 39.37 39.37 0 0 0-.736 2.324 58.58 58.58 0 0 0-.66 2.571.702.702 0 0 1-.23.385.519.519 0 0 1-.384.154c-.04 0-.112-.01-.214-.031-.43-.133-.67-.37-.721-.708l1.396-4.865c-.031.093-.261.406-.69.94-.42.533-.752.939-.998 1.216-.245.287-.578.6-.997.939-.41.328-.961.749-1.657 1.262-.43.318-.782.585-1.059.8a6.73 6.73 0 0 1-.26.231c-.144.123-.266.185-.369.185a.146.146 0 0 1-.122-.062l-.507-.615a1.17 1.17 0 0 1-.015-.216c0-.154.026-.277.077-.37a.592.592 0 0 1 .307-.215c.071-.03.189-.118.352-.261a6.44 6.44 0 0 1 .69-.508 8.285 8.285 0 0 0 1.197-.954c.369-.309.563-.473.583-.493l.721-.6c.133-.093.261-.227.384-.401.123-.144.22-.246.292-.308a6.54 6.54 0 0 0 1.304-1.432.817.817 0 0 0-.077-.123 2.279 2.279 0 0 0-.077-.17 39.205 39.205 0 0 0-.72-1.23 6.848 6.848 0 0 0-.6-.863 3.932 3.932 0 0 0-.168-.261 3.979 3.979 0 0 1-.077-.139 52.113 52.113 0 0 0-1.043-1.555l-.015-.292a.47.47 0 0 1 .015-.139c.041-.256.215-.385.522-.385.184 0 .373.047.567.139.195.092.328.205.4.339.408.677.833 1.339 1.273 1.985.04.062.087.144.138.247.061.102.117.18.168.23.123.144.256.37.399.678.092.215.19.395.292.539.041.051.092.123.153.215.072.082.128.16.169.231l.399-1.047a47.72 47.72 0 0 1 1.012-2.509c.297-.667.578-1.118.844-1.354l.384.061c.235.031.399.093.491.185.102.082.23.256.383.523a73.108 73.108 0 0 0-1.335 2.463c-.347.688-.649 1.37-.905 2.048l.399-.324a185.77 185.77 0 0 1 2.593-2.14c.225-.184.552-.492.982-.923.388-.39.706-.693.951-.908.256-.216.522-.38.798-.493l.215-.092c.255.04.424.087.506.138.082.041.184.17.307.385 0 .339-.123.61-.369.816l-.767.631a49.588 49.588 0 0 0-1.871 1.57c-.328.277-.67.56-1.028.847-.624.493-1.11.913-1.458 1.262.082.503.2 1.022.353 1.555.154.523.312.944.476 1.262.041.072.082.16.123.262.051.103.086.185.107.246.061.124.174.278.337.462.154.175.251.303.292.385.194.185.419.323.675.416.307.133.46.323.46.57 0 .235-.133.487-.399.754l-.199.015-.215.046-.506-.2Zm5.413-.292a1.86 1.86 0 0 1-.736-.231 6.802 6.802 0 0 1-.675-.416 43.445 43.445 0 0 1-.414-.293 1.992 1.992 0 0 1-.399-.554 3.6 3.6 0 0 1-.23-.8 1.95 1.95 0 0 1-.031-.323c0-.308.051-.683.153-1.124.113-.452.225-.8.338-1.047.225-.544.721-1.416 1.488-2.617l.077-.077c.02-.02.025-.03.015-.03v-.016c0-.072.148-.39.445-.954.174-.185.261-.344.261-.478a.282.282 0 0 0-.046-.169c-.031-.041.01-.128.122-.262.113-.143.266-.297.461-.462.204-.174.419-.323.644-.446.276-.215.547-.323.813-.323.082 0 .148.015.2.046.061.02.097.056.107.108 0 .061.205.04.614-.062a4.92 4.92 0 0 1 .398-.077c.041-.051.144-.092.307-.123a8.26 8.26 0 0 1 .721-.123c.164.01.363.01.599 0 .245-.01.404-.02.475-.03.072-.021.174.025.307.138.143.113.256.256.338.43a.5.5 0 0 1 .03.14c0 .153-.097.287-.291.4-.194.102-.476.174-.844.215a23.88 23.88 0 0 0-2.071.37l-.322.061c-.317.051-.553.118-.706.2-.153.082-.317.262-.491.539-.071.051-.164.185-.276.4-.113.205-.225.42-.338.647l-.306.415a9.793 9.793 0 0 0-.445.632c-.051.092-.062.159-.031.2a5.419 5.419 0 0 0 .491.092c.092-.051.22-.087.384-.108.163-.02.281-.04.352-.061l.338-.093c.634-.164 1.099-.282 1.396-.354.297-.072.516-.118.66-.138a.283.283 0 0 1 .184-.062c.112 0 .22.057.322.17a.905.905 0 0 1 .245.369c.041.144.062.236.062.277 0 .174-.103.308-.307.4-.205.082-.614.195-1.227.339-.89.215-1.448.354-1.673.415-.664.195-1.155.293-1.472.293-.266 0-.394-.087-.384-.262-.092-.051-.199.041-.322.277a4.27 4.27 0 0 0-.322.878 4.05 4.05 0 0 0-.123.908c0 .134.015.246.046.339.092.246.23.456.414.63.184.165.44.293.767.386a4.292 4.292 0 0 0 .645.046c.204 0 .409-.041.613-.123.798-.134 1.361-.318 1.688-.554a.342.342 0 0 0 .138-.108c.051-.052.097-.077.138-.077l-.015.03c0 .01.03-.01.092-.061.061-.062.128-.123.199-.185a1.43 1.43 0 0 1 .951-.37c.123 0 .225.021.307.062.092.031.143.062.154.093.061.102.03.267-.092.492-.123.226-.318.462-.583.709a4.513 4.513 0 0 1-.86.646 6.064 6.064 0 0 1-1.687.585 9.147 9.147 0 0 1-1.78.216Zm18.423-8.821c-.021.534-.082.923-.184 1.17-.103.246-.246.374-.43.385a18.56 18.56 0 0 0-.337-.062 1.68 1.68 0 0 1-.507-.215.477.477 0 0 1-.23-.416c0-.072.036-.241.108-.508.112-.452.168-.729.168-.831 0-.318-.138-.524-.414-.616-.317 0-.721.246-1.212.739-.491.492-.977 1.103-1.457 1.832a12.932 12.932 0 0 0-1.136 2.078c-.501 1.447-.782 2.422-.843 2.925.02.082.03.2.03.354 0 .072-.015.108-.046.108a1.6 1.6 0 0 0 .276.677c.164.215.353.323.568.323.215 0 .476-.036.783-.108.317-.082.547-.174.69-.277.082 0 .21-.036.383-.108.185-.082.307-.138.369-.169a8.74 8.74 0 0 1 .797-.323 1.69 1.69 0 0 1 .599-.123c.071 0 .209.02.414.061-.01.041-.026.124-.046.247a2.73 2.73 0 0 1-.092.354c-.174.246-.333.42-.476.523a3.02 3.02 0 0 1-.567.323c-.195.072-.369.16-.522.262-.736.452-1.468.677-2.194.677a3.12 3.12 0 0 1-1.074-.215 3.01 3.01 0 0 1-.936-.508c-.081-.134-.189-.41-.322-.831s-.199-.688-.199-.8c0-.032.01-.078.031-.14a.5.5 0 0 0 .03-.138v-.154a.595.595 0 0 1-.03-.185c.01-.318.138-.841.383-1.57.256-.739.593-1.565 1.013-2.478.255-.554.624-1.17 1.104-1.847.491-.688.997-1.294 1.519-1.817.532-.523.972-.852 1.319-.985.215-.072.389-.108.522-.108.368 0 .716.092 1.043.277.328.175.593.452.798.832.205.369.307.83.307 1.385Zm9.198-.892a.313.313 0 0 1-.077.276c-.061.072-.205.17-.43.293-.46.225-.721.395-.782.508-.051.04-.169.128-.353.261-.174.134-.394.298-.66.493-.399.267-.746.518-1.043.754-.286.236-.475.416-.568.539a.262.262 0 0 0-.122.046c-.041.031-.077.041-.108.031-.02.01-.066.041-.138.092a.73.73 0 0 0-.153.139.813.813 0 0 1-.154.246.25.25 0 0 1-.23.093c-.153.082-.419.272-.797.57.092.718.286 1.349.583 1.893.296.656.598 1.139.905 1.447.214.236.414.42.598.554.194.133.343.2.445.2.092.03.22.102.383.215.164.113.251.206.261.277a1.115 1.115 0 0 1-.061.585.546.546 0 0 1-.23.324.381.381 0 0 1-.276.123c-.103 0-.271-.052-.507-.154-.163.01-.445-.144-.843-.462-.399-.318-.706-.61-.921-.877-.276-.4-.516-.765-.721-1.093a4.194 4.194 0 0 1-.445-1.078 6.068 6.068 0 0 0-.245-.831 4.695 4.695 0 0 1-.108-.37l-.046.124c-.01.03-.076.2-.199.508-.113.307-.276.851-.491 1.631a65.582 65.582 0 0 1-.491 1.555c-.143.42-.261.703-.353.847-.082.154-.164.23-.245.23-.082 0-.184-.046-.307-.138-.327-.185-.491-.39-.491-.616 0-.04.01-.102.031-.184a1.2 1.2 0 0 1 .03-.385 1.58 1.58 0 0 0 .046-.216c.072 0 .108-.082.108-.246 0-.082.046-.262.138-.539l.138-.477.184-.447c.112-.287.169-.44.169-.461 0-.134.066-.303.199-.508.041-.123.077-.257.107-.4a1.76 1.76 0 0 0 .047-.355c.02-.05.076-.169.168-.354a2.42 2.42 0 0 0 .2-.554c.01-.051.025-.107.046-.17a1.96 1.96 0 0 0 .092-.23l.506-1.386.23-.523.2-.477c.122-.267.204-.4.245-.4v-.17c0-.04.056-.174.169-.4l.184-.37c.082-.133.143-.261.184-.384a2.96 2.96 0 0 0 .092-.262c.01-.02.031-.056.061-.108a.726.726 0 0 1 .108-.138c.082-.062.184-.113.307-.154a.996.996 0 0 1 .353-.077c.173 0 .291.067.352.2.123.246.184.452.184.616a.54.54 0 0 1-.092.308c-.214.441-.47.99-.767 1.647-.296.646-.516 1.16-.659 1.54l.107-.078c.266-.267.69-.62 1.273-1.062l1.887-1.54c.287-.143.624-.369 1.013-.677.102-.061.184-.118.245-.169a.877.877 0 0 1 .154-.108 5.03 5.03 0 0 1 .368-.261c.184-.134.302-.195.353-.185.071-.03.164.01.276.123.113.113.205.251.276.416.082.164.118.287.108.37Zm1.086 9.25c-.471-.163-.849-.471-1.135-.923-.276-.451-.415-.985-.415-1.6 0-.247.021-.473.062-.678.02-.267.082-.58.184-.94.061-.184.107-.374.138-.569 0-.02.01-.056.031-.108.02-.05.025-.092.015-.123.061-.154.148-.37.261-.646.123-.277.199-.431.23-.462.041-.02.061-.046.061-.077a.23.23 0 0 0 .016-.062c0-.133.138-.42.414-.862.286-.44.593-.872.92-1.293.328-.42.522-.63.583-.63.021 0 .046-.021.077-.062.031-.052.051-.077.061-.077.072-.082.358-.231.86-.447.501-.226.9-.374 1.196-.446.205-.072.414-.108.629-.108.522 0 .946.246 1.274.739.327.482.496 1.155.506 2.017-.031.154-.056.38-.077.677-.02.236-.036.37-.046.4-.01.308-.077.693-.199 1.155-.113.451-.19.682-.23.692a.256.256 0 0 1-.031.108.242.242 0 0 0-.031.108c.01.092-.123.415-.399.97-.276.544-.434.82-.475.83a.111.111 0 0 0-.046.016c-.011.01-.011.031 0 .062.01.03-.072.123-.246.277-.163.154-.281.23-.353.23-.01 0-.02.006-.03.016 0 .01.01.031.03.062.021.03-.127.164-.445.4a12.97 12.97 0 0 1-.997.693c-.358.215-.629.344-.813.385a.268.268 0 0 1-.138.077.444.444 0 0 1-.077.015c-.071.072-.204.133-.399.185a2.047 2.047 0 0 1-.552.077c-.153 0-.291-.026-.414-.077Zm1.549-1.616c.307-.102.614-.266.921-.492.307-.236.491-.452.552-.647.051-.184.123-.313.215-.385.174-.174.404-.574.69-1.2.297-.637.45-1.068.461-1.293 0-.062.015-.16.046-.293a.928.928 0 0 1 .107-.308c.021-.03.026-.097.015-.2a5.769 5.769 0 0 1-.015-.477c0-.267.005-.498.015-.693-.03-.667-.133-1.052-.306-1.154-.082-.062-.22-.093-.415-.093a1.12 1.12 0 0 0-.414.108.735.735 0 0 1-.215.046c-.143.082-.214.175-.214.277 0 .093-.041.17-.123.231-.072.062-.148.067-.23.016-.184.01-.302.036-.353.077-.051.04-.118.138-.2.292a5.463 5.463 0 0 1-.199.37c-.256.194-.45.4-.583.615-.133.216-.215.395-.245.54-.318.553-.517.943-.599 1.169a5.175 5.175 0 0 0-.184.893 2.352 2.352 0 0 0-.199.539 1.934 1.934 0 0 1-.108.4c-.02.082-.03.19-.03.323 0 .226.015.462.046.708.03.236.071.395.122.477.082.278.261.416.537.416.225 0 .527-.087.905-.262Zm6.222 1.863c-.102 0-.255-.051-.46-.154-.205-.103-.307-.21-.307-.323a.967.967 0 0 0-.015-.123.64.64 0 0 0-.062-.185c0-.257.026-.462.077-.616 0-.113.015-.236.046-.37.031-.133.067-.24.108-.323 0-.082.02-.19.061-.323.041-.144.066-.241.077-.292l.092-.323.26-.786c.052-.123.087-.225.108-.308a.982.982 0 0 0 .031-.23c.061-.206.138-.467.23-.785.092-.319.168-.596.23-.832.051-.051.077-.128.077-.23l.138-.432c.071-.236.153-.482.245-.739.153-.451.271-.82.353-1.108.082-.287.123-.487.123-.6a.36.36 0 0 0-.046-.185 1.346 1.346 0 0 0-.046-.123.875.875 0 0 1-.062-.185c0-.04.021-.082.062-.123a.519.519 0 0 0 .092-.123c.03-.052.051-.087.061-.108 0-.041.251-.159.752-.354.511-.205.905-.349 1.181-.431h.936c.286.041.568.123.844.246s.506.277.69.462c.317.298.603.734.859 1.309 0 .04.01.133.031.277.031.133.046.251.046.354 0 .482-.174 1.036-.522 1.662a5.498 5.498 0 0 1-1.396 1.663 4.022 4.022 0 0 1-1.074.615 2.907 2.907 0 0 1-1.058.216 1.89 1.89 0 0 1-.43-.046.78.78 0 0 1-.399-.308.997.997 0 0 1-.107-.447c0-.133.02-.22.061-.261.041-.01.154-.016.338-.016.184 0 .455-.066.813-.2a3.19 3.19 0 0 0 .644-.292c.481-.308.905-.76 1.274-1.355.204-.328.306-.82.306-1.478.021-.102.031-.18.031-.23a.603.603 0 0 0-.276-.508c-.174-.144-.425-.231-.752-.262a1.272 1.272 0 0 0-.23-.016 2.65 2.65 0 0 0-.614.077c-.214.052-.368.108-.46.17-.031 0-.056.036-.077.108a1.18 1.18 0 0 1-.076.2c0 .082-.036.236-.108.461a7.748 7.748 0 0 1-.199.632l-.2.584a7.634 7.634 0 0 0-.276.801 4.61 4.61 0 0 1-.122.431 3.267 3.267 0 0 1-.108.277c0 .02-.031.113-.092.277a5.146 5.146 0 0 0-.138.416 6.99 6.99 0 0 1-.383 1.324c-.236.77-.353 1.308-.353 1.616 0 .113.015.195.046.246.174.01.296.031.368.062.082.02.123.067.123.138 0 .124-.164.39-.491.8-.092.237-.19.406-.292.509-.102.103-.189.159-.261.17-.071.02-.179.03-.322.03Zm9.669.046c-.154 0-.389-.061-.706-.184a4.751 4.751 0 0 1-.875-.462c-.276-.185-.455-.37-.537-.555l-.03-.061a2.129 2.129 0 0 1-.23-1.586l.076-.323c.092-.318.138-.58.138-.785.051-.062.128-.164.23-.308a3.14 3.14 0 0 0 .2-.292.39.39 0 0 0 .031-.139v-.23a.37.37 0 0 1 .076-.216.842.842 0 0 1 .154-.17.9.9 0 0 1 .122-.092l.062.015c.02 0 .097-.148.23-.446.133-.308.261-.631.383-.97.512-.944 1.085-1.73 1.719-2.355.634-.636 1.196-1.062 1.687-1.278.041-.01.118-.02.23-.03l.323-.031c.194.01.429.056.705.138.276.082.425.144.445.185 0 .041.01.067.031.077a.26.26 0 0 0 .061.015c.092-.01.256.139.491.447.246.297.425.58.537.846.123.195.184.524.184.986 0 .39-.056.877-.168 1.462-.113.575-.225.985-.338 1.231a21.758 21.758 0 0 1-1.013 2.34c-.409.821-.782 1.242-1.119 1.263-.011 0-.021.01-.031.03-.01.01-.016.031-.016.062 0 .03-.138.164-.414.4-.266.236-.501.431-.705.585l-.292.108a4.388 4.388 0 0 1-.844.215 5.77 5.77 0 0 1-.797.108Zm.015-1.4c.44 0 .757-.01.951-.031a1.72 1.72 0 0 0 .614-.2c.225-.124.465-.334.721-.632a1.85 1.85 0 0 1 .245-.37c.01-.02.092-.163.246-.43.153-.267.296-.4.429-.4 0-.052.041-.19.123-.416.082-.236.143-.37.184-.4.021-.01.072-.123.154-.339.081-.226.158-.472.23-.739a2.68 2.68 0 0 0 .107-.662c.184-.195.266-.302.245-.323a.257.257 0 0 1-.015-.062v-.153c0-.298.021-.452.062-.462.051-.02.076-.036.076-.046a.168.168 0 0 0-.061-.062c-.021-.02-.031-.041-.031-.062 0-.01.016-.03.046-.061a.166.166 0 0 0 .046-.123c-.02-.257-.163-.703-.429-1.34a.87.87 0 0 1-.123-.107.374.374 0 0 0-.169-.124.35.35 0 0 0-.184-.046c-.041 0-.112.01-.215.031-.041-.041-.082-.062-.122-.062a.343.343 0 0 0-.108.016l-.077.03a1.375 1.375 0 0 0-.506.216 5.45 5.45 0 0 0-.491.493l-.261.277c-.081.277-.25.518-.506.723a1.086 1.086 0 0 0-.184.231c-.082.113-.143.19-.184.231l-.092.185c-.225.37-.465.862-.721 1.478-.256.605-.476 1.18-.66 1.724-.184.544-.276.888-.276 1.031 0 .288.092.518.276.693.194.174.414.272.66.292Zm16.427 2.493c-.123-.04-.256-.164-.399-.37a2.419 2.419 0 0 1-.307-.569c.419-1.785.747-3.017.982-3.694.051-.277.076-.431.076-.462a.146.146 0 0 0-.061-.123c-.102-.062-.486-.15-1.151-.262a38.841 38.841 0 0 0-1.626-.277 1.38 1.38 0 0 1-.414-.046 1.763 1.763 0 0 0-.399-.046c-.163 0-.266-.006-.307-.016-.041-.01-.076-.04-.107-.092a.474.474 0 0 0-.015-.077c0-.052-.046.061-.138.338l-.323 1.093c-.286.862-.475 1.632-.567 2.31l-.062.323c-.163.564-.301.995-.414 1.293-.102.297-.189.451-.261.462-.02.04-.097.046-.23.015a2.585 2.585 0 0 1-.368-.123c-.194-.133-.291-.339-.291-.616 0-.164.03-.395.092-.693.061-.308.138-.656.23-1.046.01-.072.035-.19.076-.354.103-.575.185-1.001.246-1.278.071-.287.143-.457.215-.508l.168-.708a6.77 6.77 0 0 1 .369-1.062 16.02 16.02 0 0 1 .598-1.71c.276-.687.619-1.497 1.028-2.431l.261-.6a.463.463 0 0 0 .138-.324 3.11 3.11 0 0 1 .046-.292c.071-.144.204-.288.399-.431.194-.144.332-.21.414-.2.123.02.25.097.383.23.144.134.251.278.323.431.071.154.086.283.046.385-.062.062-.159.246-.292.554a51.95 51.95 0 0 0-.445 1.124l-.184.293c-.174.267-.281.456-.322.57a1.362 1.362 0 0 0-.138.338c-.031.133-.062.215-.092.246a20.4 20.4 0 0 0-.322.724c-.123.277-.174.436-.154.477.021.03.184.067.491.108l.583.077.368.046c.072-.01.44.025 1.105.108l.66.092c.296.092.542.159.736.2.205.03.317.026.337-.015l.277-.662.076-.339a21.7 21.7 0 0 1 .307-1.216c.276-.472.501-1.175.675-2.109a1.74 1.74 0 0 1 .215-.523c.092-.154.179-.283.261-.385.092-.113.153-.19.184-.231a1.415 1.415 0 0 0 .307.108c.368.072.552.328.552.77 0 .348-.102.825-.307 1.43l-.245.648c-.266.605-.42 1.02-.461 1.246-.02.062-.04.129-.061.2-.02.062-.041.129-.061.2-.154.514-.302.93-.445 1.248v.015c0 .072.102.18.307.323.112.072.168.17.168.293a.454.454 0 0 1-.168.338.486.486 0 0 1-.353.154c-.154 0-.261.031-.322.093-.051.05-.092.195-.123.43-.225.514-.481 1.273-.767 2.279-.287 1.006-.425 1.642-.414 1.909-.052.154-.108.256-.169.308a.264.264 0 0 1-.215.092c-.031 0-.097-.01-.199-.03Zm3.226-1.016a1.097 1.097 0 0 1-.246-.17.31.31 0 0 1-.061-.2c0-.102.041-.246.122-.43.093-.195.246-.498.461-.909.061-.133.179-.369.353-.708.439-.841.659-1.462.659-1.862a.22.22 0 0 1-.015-.093c0-.102.082-.195.245-.277.031-.03.138-.118.323-.261.194-.144.347-.308.46-.493.133-.308.302-.647.506-1.016.205-.38.557-.996 1.059-1.847a19.364 19.364 0 0 1 1.564-2.448c.103-.143.215-.256.338-.338.133-.083.245-.124.338-.124.317 0 .639.123.966.37.338.246.557.492.66.739.041.072.061.225.061.462 0 .318-.036.856-.107 1.616a8.617 8.617 0 0 0-.062.631c-.03.462-.076.954-.138 1.478-.112 1.15-.194 2.047-.245 2.694a23.187 23.187 0 0 0-.077 1.816c0 .287.005.498.015.631v.108l-.015.354c-.061.062-.184.092-.368.092-.205 0-.409-.035-.614-.107-.204-.062-.317-.139-.337-.231a.203.203 0 0 0-.046-.031c-.021-.01-.031-.056-.031-.139l.015-.338.046-.862.077-2.356-.199.016c-.205 0-.64.04-1.304.123-.655.082-1.069.149-1.243.2-.092 0-.205.062-.338.185-.133.123-.25.282-.352.477a2.415 2.415 0 0 1-.215.447c-.113.184-.169.292-.169.323a.665.665 0 0 0-.169.17 1.338 1.338 0 0 0-.076.122c0 .113-.103.406-.307.878a7.343 7.343 0 0 1-.583 1.139l-.414.585-.537-.416Zm3.666-5.295.43-.062a4.6 4.6 0 0 1 .567-.077c.491-.123.829-.184 1.013-.184a.54.54 0 0 1 .215.03c.03.041.061.072.092.093a.46.46 0 0 0 .076.015c.021-.082.103-.641.246-1.678.143-1.036.215-1.673.215-1.909 0-.164-.005-.302-.016-.415a1.39 1.39 0 0 0-.03-.231c-.092 0-.302.246-.629.739a14.055 14.055 0 0 0-.951 1.647c-.236.42-.399.63-.491.63-.072.073-.225.314-.461.724-.235.41-.327.637-.276.678Zm18.268-5.757c.061.184.092.348.092.492a.904.904 0 0 1-.107.431c-.246.575-.778 1.924-1.596 4.049l-.138.354a40.1 40.1 0 0 1-.445 1.2c-.266.698-.45 1.222-.552 1.57l-.414 1.417a.681.681 0 0 1-.108.862c-.133.144-.271.195-.414.154-.031-.01-.112-.005-.245.015a4.03 4.03 0 0 0-.445.062c-.921.154-1.693.23-2.317.23h-.598c-.389 0-.604.01-.645.031-.04.031-.132.047-.276.047-.112 0-.25-.01-.414-.031a3.239 3.239 0 0 0-.353-.031c-.235 0-.46.005-.675.015-.215.01-.399.021-.552.031l-.936.031c-.522 0-.966-.103-1.335-.308-.358-.205-.578-.523-.659-.954a1.998 1.998 0 0 1-.016-.308c0-.472.092-1.047.276-1.724.195-.678.41-1.309.645-1.894l.767-2.109c.184-.605.624-1.57 1.319-2.894.225-.43.363-.718.414-.862.144-.226.297-.338.461-.338.112 0 .235.04.368.123.133.072.225.118.276.138.215.123.322.298.322.524a.573.573 0 0 1-.138.37l-1.104 1.939-1.443 3.787c-.255.626-.429 1.17-.521 1.631-.061.37-.123.693-.184.97a2.654 2.654 0 0 0-.062.416c0 .04.006.072.016.092l.046.046c.153.062.854.093 2.102.093.521 0 .879-.005 1.073-.016-.153-.184-.23-.42-.23-.708 0-.297.072-.62.215-.97.072-.266.343-1.051.813-2.355a78.769 78.769 0 0 1 1.074-2.817c.133-.297.235-.554.307-.77.072-.225.159-.528.261-.908.123-.349.296-.523.521-.523.103 0 .215.03.338.092.184.052.317.134.399.247.082.102.123.246.123.43 0 .267-.077.616-.231 1.047a65.43 65.43 0 0 1-.828 2.14l-.491 1.2-.184.524a31.46 31.46 0 0 0-.522 1.478l-.69 1.801c.695.01 1.294-.01 1.795-.062.511-.05.931-.153 1.258-.307a36.95 36.95 0 0 1 .752-2.325c.296-.831.424-1.16.383-.985.031-.134.143-.457.338-.97.194-.523.342-.918.445-1.185a113.873 113.873 0 0 1 1.472-3.941c.082-.123.21-.185.384-.185.276 0 .547.134.813.4Zm14.589 1.432c0 .133-.036.307-.107.523a8.442 8.442 0 0 0-.246.985 5.11 5.11 0 0 0-.077.77l.016.153c-.062.134-.113.339-.154.616a3.54 3.54 0 0 1-.061.339.248.248 0 0 1-.107.154c0 .04.005.107.015.2.02.092.031.17.031.23v.185c-.195 1.119-.292 2.11-.292 2.971 0 .452.031.806.092 1.063.072.256.164.395.276.415.021 0 .036.005.046.016.011.01.016.035.016.076a.674.674 0 0 1-.108.37 1.629 1.629 0 0 1-.215.308 2.71 2.71 0 0 1-.184.215c-.02.031-.046.067-.076.108-.021.041-.057.062-.108.062-.071 0-.199-.026-.383-.077-.031-.062-.128-.139-.292-.231-.163-.082-.296-.257-.399-.524-.102-.266-.153-.718-.153-1.354 0-.175.005-.313.015-.416v-.046a1.56 1.56 0 0 1-.015-.262c0-.472.051-1.067.153-1.785.113-.729.231-1.386.353-1.97.082-.35.189-.78.322-1.294.133-.533.2-.82.2-.862l-.015-.015c.02.03-.205.446-.676 1.247-.47.79-.756 1.257-.859 1.4a5.1 5.1 0 0 0-.291.555l-.43.892c-.838 1.252-1.483 1.879-1.933 1.879-.429 0-.711-.154-.844-.462a2.56 2.56 0 0 1-.199-.816c-.01-.236-.015-.38-.015-.431.02-.113.03-.246.03-.4v-.17c0-.03.011-.113.031-.246.031-.144.056-.303.077-.477 0-.062.051-.38.153-.955.143-.698.215-1.144.215-1.339 0-.041-.005-.067-.015-.077v.03c0 .032-.062.145-.184.34a6.125 6.125 0 0 0-.537.862 90 90 0 0 0-.844 1.708 13.93 13.93 0 0 0-.322.662c-.031.318-.246.898-.645 1.74l-.138.354c-.307.77-.552 1.334-.736 1.693-.174.349-.307.518-.399.508-.051 0-.159-.051-.322-.154a1.963 1.963 0 0 1-.445-.385c-.133-.154-.2-.308-.2-.462 0-.02.087-.205.261-.554.287-.585.445-.934.476-1.046.01-.041.02-.098.03-.17.021-.072.133-.256.338-.554 0-.062.046-.215.138-.462.102-.256.235-.549.399-.877a.642.642 0 0 0 .123-.354c.092-.113.209-.365.353-.755.051-.143.102-.282.153-.415.061-.134.123-.236.184-.308.031-.02.082-.093.153-.216a31.76 31.76 0 0 1 .952-1.632l.184-.338c.041-.113.076-.175.107-.185.041-.01.21-.292.506-.846.461-.647.727-.97.798-.97.062 0 .169.036.322.108.164.071.307.159.43.261.133.103.199.195.199.277 0 .031.005.118.016.262.01.144.015.298.015.462 0 .4-.169 1.734-.506 4.002l-.077.493c.01.03.026.092.046.184.021.083.031.175.031.278.133-.206.25-.37.353-.493.266-.39.455-.698.567-.924a.31.31 0 0 1 .046-.154c.041-.05.082-.107.123-.169.082-.102.143-.195.184-.277a.488.488 0 0 0 .077-.262c.286-.41.542-.8.767-1.17.859-1.344 1.391-2.108 1.595-2.293a.86.86 0 0 1 .323-.154c.153-.041.296-.062.429-.062.287 0 .506.087.66.262a.89.89 0 0 1 .23.631Zm4.941 9.882c-.481 0-.875-.03-1.182-.093a1.763 1.763 0 0 1-.798-.354c-.49-.369-.736-.918-.736-1.647 0-.308.056-.687.169-1.139.051-.267.107-.492.169-.677.071-.195.133-.293.184-.293l.107-.57c.01-.06.031-.143.061-.245.031-.113.057-.196.077-.247a.416.416 0 0 1 .092-.138c.041-.031.102-.17.184-.416 0-.02.005-.067.016-.139a.936.936 0 0 1 .076-.246c.154-.256.23-.426.23-.508a.955.955 0 0 1 .123-.184c.072-.093.128-.2.169-.324l.199-.354c.307-.544.527-.939.66-1.185.133-.257.215-.467.246-.631.03-.072.071-.2.122-.385.062-.185.128-.313.2-.385-.031-.062.071-.139.307-.23a7.4 7.4 0 0 1 .889-.263c.358-.082.675-.133.952-.154.061-.04.199-.071.414-.092.215-.02.455-.03.721-.03.184 0 .44.01.767.03.164 0 .302.02.414.062.123.03.23.072.322.123.092.04.159.072.2.092l.199.2c.123.103.184.21.184.324 0 .102-.066.19-.199.261-.031.031-.2.057-.506.077-.297.02-.619.031-.967.031-.368 0-.772.046-1.212.139-.153.03-.271.046-.353.046a1.787 1.787 0 0 1-.46.077c-.174.01-.286.015-.338.015-.04 0-.184.195-.429.585-.235.39-.358.621-.368.693 0 .092-.031.19-.092.292a8.274 8.274 0 0 1-.323.478c-.132.184-.199.359-.199.523 0 .102.031.164.092.185a17.69 17.69 0 0 1 1.181-.139c.471-.051.813-.077 1.028-.077a1.1 1.1 0 0 1 .276-.046c.144 0 .277.036.399.108.164.03.246.138.246.323a.454.454 0 0 1-.062.23c-.03.073-.071.119-.122.14-.092.092-.409.21-.952.353-.531.144-1.089.278-1.672.4-.583.114-.91.16-.982.14-.03-.073-.061-.109-.092-.109-.102 0-.23.34-.383 1.016-.184.41-.297.683-.338.816-.041.124-.102.416-.184.878a2.109 2.109 0 0 0-.061.385c0 .4.235.708.706.923.173.031.352.046.536.046.338 0 .747-.061 1.228-.184.041-.02.353-.195.936-.524.03 0 .107-.02.23-.061.133-.052.209-.077.23-.077a.367.367 0 0 1 .307-.17c.03 0 .097.052.199.154.102.103.195.226.276.37a.783.783 0 0 1 .123.415c0 .103-.153.231-.46.385-.297.144-.742.334-1.335.57a9.541 9.541 0 0 1-.905.354c-.174.051-.419.077-.736.077Zm12.158.754c-.123-.04-.256-.164-.399-.37a2.456 2.456 0 0 1-.307-.569c.42-1.785.747-3.017.982-3.694.051-.277.077-.431.077-.462a.147.147 0 0 0-.062-.123c-.102-.062-.485-.15-1.15-.262a39.407 39.407 0 0 0-1.626-.277 1.4 1.4 0 0 1-.415-.046 1.755 1.755 0 0 0-.398-.046c-.164 0-.266-.006-.307-.016-.041-.01-.077-.04-.108-.092a.474.474 0 0 0-.015-.077c0-.052-.046.061-.138.338l-.322 1.093c-.287.862-.476 1.632-.568 2.31l-.061.323c-.164.564-.302.995-.414 1.293-.103.297-.19.451-.261.462-.021.04-.097.046-.23.015a2.597 2.597 0 0 1-.369-.123c-.194-.133-.291-.339-.291-.616 0-.164.031-.395.092-.693.061-.308.138-.656.23-1.046.01-.072.036-.19.077-.354.102-.575.184-1.001.245-1.278.072-.287.143-.457.215-.508.02-.082.077-.318.169-.708a6.77 6.77 0 0 1 .368-1.062c.123-.452.322-1.022.598-1.71.276-.687.619-1.497 1.028-2.431l.261-.6c.082-.073.128-.18.138-.324a4.03 4.03 0 0 1 .046-.292c.072-.144.205-.288.399-.431.194-.144.332-.21.414-.2.123.02.251.097.384.23.143.134.25.278.322.431.072.154.087.283.046.385-.061.062-.159.246-.292.554a54.91 54.91 0 0 0-.444 1.124l-.185.293c-.173.267-.281.456-.322.57a1.362 1.362 0 0 0-.138.338c-.03.133-.061.215-.092.246-.092.195-.199.436-.322.724-.123.277-.174.436-.153.477.02.03.184.067.49.108l.583.077.369.046c.071-.01.439.025 1.104.108l.66.092c.297.092.542.159.736.2.205.03.317.026.338-.015l.276-.662.077-.339a20.06 20.06 0 0 1 .307-1.216c.276-.472.501-1.175.675-2.109a1.74 1.74 0 0 1 .214-.523c.092-.154.179-.283.261-.385a7.44 7.44 0 0 0 .184-.231c.021.01.057.026.108.046.061.02.128.041.199.062.368.072.552.328.552.77 0 .348-.102.825-.306 1.43l-.246.648c-.266.605-.419 1.02-.46 1.246a4.747 4.747 0 0 0-.062.2c-.02.062-.04.129-.061.2a10.31 10.31 0 0 1-.445 1.248v.015c0 .072.102.18.307.323.113.072.169.17.169.293a.452.452 0 0 1-.169.338.484.484 0 0 1-.353.154c-.153 0-.261.031-.322.093-.051.05-.092.195-.123.43-.225.514-.48 1.273-.767 2.279-.286 1.006-.424 1.642-.414 1.909-.051.154-.107.256-.169.308a.264.264 0 0 1-.215.092c-.03 0-.097-.01-.199-.03Zm6.969-.877a6.448 6.448 0 0 1-1.212-.447c-.46-.205-.705-.374-.736-.508a.149.149 0 0 0-.061-.123.191.191 0 0 0-.139-.061v-.231c0-.072-.02-.118-.061-.139-.051-.103-.077-.251-.077-.446 0-.318.052-.719.154-1.201.112-.482.235-.913.368-1.293 0-.072.015-.164.046-.277a.893.893 0 0 0 .061-.216c.082-.236.246-.61.491-1.123.246-.514.45-.873.614-1.078 0-.03.036-.097.107-.2.082-.113.138-.226.169-.339.164-.164.384-.482.66-.954.358-.298.506-.565.445-.8.01-.216.097-.37.261-.462.173-.103.48-.206.92-.308.317-.123.644-.206.982-.247.337-.05.782-.087 1.335-.107a3.032 3.032 0 0 1 .521-.077c.031-.031.184-.016.46.046.287.051.543.138.768.261.235.113.347.242.337.385-.01.083-.24.19-.69.324a7.71 7.71 0 0 1-1.212.246l-.384.046c-.593.062-1.023.128-1.289.2a1.68 1.68 0 0 0-.705.37c-.215.184-.46.492-.737.923-.368.575-.552.965-.552 1.17 0 .134.072.2.215.2.092 0 .23-.01.414-.03.194-.031.332-.047.414-.047a8.4 8.4 0 0 1 .353-.123c.194-.061.409-.108.644-.138l.676-.139c.204-.051.357-.077.46-.077.358 0 .537.123.537.37 0 .133-.067.277-.2.43a1.162 1.162 0 0 1-.491.355 8.72 8.72 0 0 1-.629.215c-.235.072-.383.108-.445.108a.615.615 0 0 1-.153.03 1.897 1.897 0 0 1-.276.016l-.69.093-.507.061c-.082.02-.276.072-.583.154-.307.082-.506.175-.598.277-.092.093-.179.246-.261.462a5.35 5.35 0 0 0-.322 1.093c-.082.42-.123.79-.123 1.108 0 .318.046.524.138.616.225.257.578.385 1.059.385.256 0 .516-.036.782-.108.276-.082.517-.19.721-.323.195-.154.409-.272.645-.354a.445.445 0 0 1 .23-.093c.051 0 .107.02.169.062a.91.91 0 0 1 .168.108c.062.04.113.077.154.108.082.112.122.23.122.353 0 .34-.429.688-1.288 1.047-.481.165-.864.282-1.151.354a3.234 3.234 0 0 1-.782.108l-.246-.015Zm16.047-2.433c.205.062.363.18.476.355a.937.937 0 0 1 .169.538c-.031.462-.164.97-.399 1.524a26.926 26.926 0 0 1-.89 1.863l-.246.57a.378.378 0 0 1-.276.123c-.225 0-.486-.216-.782-.647a1.258 1.258 0 0 1-.031-.23c0-.216.087-.478.261-.786l.322-.6.215-.431c.112-.206.199-.38.261-.524a2.13 2.13 0 0 0 .122-.4l-2.086.2-.061-.03a.25.25 0 0 0-.077.015c-.031.01-.067.02-.107.03l-.967.031h-.169a.469.469 0 0 0-.138.016 2.666 2.666 0 0 1-.583.061c-.153 0-.286.01-.399.031l-2.531.246-.675.093a47.358 47.358 0 0 0-.568 2.263l-.092.354c-.01.102-.051.174-.122.215-.062.052-.179.103-.353.154h-.276c-.338 0-.507-.195-.507-.585 0-.143.016-.277.046-.4l.338-1.278.261-1.185.214-.631 1.197-.231c.164-.041.399-.2.706-.477.307-.277.578-.58.813-.908.532-.73.946-1.432 1.242-2.11.297-.677.655-1.652 1.074-2.924l.338-1.032.061-.107.154-.508a.567.567 0 0 0-.138-.016.396.396 0 0 1-.123-.015.867.867 0 0 1-.414-.354 1.054 1.054 0 0 1-.138-.524c0-.112.01-.195.03-.246l.184-.17a.472.472 0 0 1 .2.016c.082.01.158.016.23.016a.85.85 0 0 0 .261-.031l.705-.108c.399-.062.645-.108.737-.139a34.718 34.718 0 0 1 1.718-.138c.43-.03.895-.046 1.396-.046.205 0 .404.067.599.2.194.133.311.287.352.462.021.359-.189 1.231-.629 2.617-.429 1.385-.849 2.55-1.258 3.494-.112.349-.342.96-.69 1.832l-.291.754c.01 0 .143-.046.398-.138.266-.103.517-.154.752-.154a.59.59 0 0 1 .184.03Zm-2.593.231c.154-.677.261-1.118.323-1.323.061-.206.168-.478.322-.816l1.012-2.71.307-.923c.389-1.13.624-1.873.706-2.232l-.368-.016c-.43 0-.875.031-1.335.093-.46.051-.788.123-.982.215l-.184.57c-.092.287-.332.913-.721 1.878a39.43 39.43 0 0 1-1.411 3.078c-.542 1.078-1.085 1.92-1.627 2.525.399-.01 1.141-.061 2.225-.154 1.094-.103 1.672-.164 1.733-.185Zm15.099 2.448c-.307-.133-.629-.37-.966-.708a5.94 5.94 0 0 1-.86-1.093c-.245-.41-.414-.785-.506-1.124a2.69 2.69 0 0 0-.184-.57 5.305 5.305 0 0 1-.123-.353l-.092-.277a21.861 21.861 0 0 0-.306-1.201 39.414 39.414 0 0 0-.737 2.324 61.57 61.57 0 0 0-.66 2.571.69.69 0 0 1-.23.385.518.518 0 0 1-.383.154c-.041 0-.113-.01-.215-.031-.43-.133-.67-.37-.721-.708l1.396-4.865c-.031.093-.261.406-.69.94-.42.533-.752.939-.998 1.216-.245.287-.577.6-.997.939-.409.328-.961.749-1.657 1.262-.429.318-.782.585-1.058.8a6.852 6.852 0 0 1-.261.231c-.143.123-.266.185-.368.185a.147.147 0 0 1-.123-.062l-.506-.615a1.177 1.177 0 0 1-.016-.216c0-.154.026-.277.077-.37a.592.592 0 0 1 .307-.215c.072-.03.189-.118.353-.261.163-.144.394-.314.69-.508a8.277 8.277 0 0 0 1.197-.954c.368-.309.562-.473.583-.493l.721-.6c.133-.093.261-.227.383-.401.123-.144.22-.246.292-.308a6.548 6.548 0 0 0 1.304-1.432.836.836 0 0 0-.077-.123 2.334 2.334 0 0 0-.076-.17 37.964 37.964 0 0 0-.722-1.23 6.753 6.753 0 0 0-.598-.863 3.498 3.498 0 0 0-.169-.261 3.043 3.043 0 0 1-.076-.139 51.064 51.064 0 0 0-1.044-1.555l-.015-.292c0-.062.005-.108.015-.139.041-.256.215-.385.522-.385.184 0 .373.047.568.139.194.092.327.205.399.339.409.677.833 1.339 1.273 1.985.041.062.087.144.138.247.061.102.118.18.169.23.122.144.255.37.399.678.092.215.189.395.291.539.041.051.092.123.154.215.071.082.127.16.168.231l.399-1.047a47.622 47.622 0 0 1 1.013-2.509c.296-.667.578-1.118.844-1.354l.383.061c.235.031.399.093.491.185.102.082.23.256.384.523a73.108 73.108 0 0 0-1.335 2.463c-.348.688-.65 1.37-.905 2.048l.399-.324a180.81 180.81 0 0 1 2.592-2.14c.225-.184.553-.492.982-.923.389-.39.706-.693.951-.908.256-.216.522-.38.798-.493l.215-.092c.256.04.424.087.506.138.082.041.184.17.307.385 0 .339-.123.61-.368.816l-.767.631a47.95 47.95 0 0 0-1.872 1.57c-.327.277-.67.56-1.028.847-.624.493-1.11.913-1.457 1.262.081.503.199 1.022.353 1.555.153.523.311.944.475 1.262.041.072.082.16.123.262.051.103.087.185.107.246.062.124.174.278.338.462.153.175.25.303.291.385.195.185.42.323.675.416.307.133.461.323.461.57 0 .235-.133.487-.399.754l-.2.015-.215.046-.506-.2Zm5.414-.292a1.864 1.864 0 0 1-.737-.231 7.042 7.042 0 0 1-.675-.416l-.414-.293a1.992 1.992 0 0 1-.399-.554 3.6 3.6 0 0 1-.23-.8 1.95 1.95 0 0 1-.031-.323c0-.308.051-.683.154-1.124.112-.452.225-.8.337-1.047.225-.544.721-1.416 1.488-2.617l.077-.077c.02-.02.026-.03.015-.03v-.016c0-.072.149-.39.445-.954.174-.185.261-.344.261-.478a.275.275 0 0 0-.046-.169c-.031-.041.01-.128.123-.262.112-.143.266-.297.46-.462.205-.174.419-.323.644-.446.276-.215.548-.323.813-.323.082 0 .149.015.2.046.061.02.097.056.107.108 0 .061.205.04.614-.062a4.84 4.84 0 0 1 .399-.077c.041-.051.143-.092.307-.123.174-.04.414-.082.721-.123.163.01.363.01.598 0 .246-.01.404-.02.476-.03.071-.021.173.025.306.138.144.113.256.256.338.43a.51.51 0 0 1 .031.14c0 .153-.098.287-.292.4-.194.102-.475.174-.844.215-.378.051-.71.103-.997.154-.286.051-.644.123-1.074.215l-.322.062c-.317.051-.552.118-.706.2-.153.082-.317.262-.491.539-.071.051-.163.185-.276.4-.112.205-.225.42-.337.647l-.307.415a10.24 10.24 0 0 0-.445.632c-.051.092-.061.159-.031.2a5.419 5.419 0 0 0 .491.092c.092-.051.22-.087.384-.108.163-.02.281-.04.353-.061l.337-.093c.634-.164 1.1-.282 1.396-.354a7.9 7.9 0 0 1 .66-.138.283.283 0 0 1 .184-.062c.113 0 .22.057.322.17a.898.898 0 0 1 .246.369c.041.144.061.236.061.277 0 .174-.102.308-.307.4-.204.082-.613.195-1.227.339a84.05 84.05 0 0 0-1.672.415c-.665.195-1.156.293-1.473.293-.266 0-.394-.087-.384-.262-.092-.051-.199.041-.322.277a4.27 4.27 0 0 0-.322.878 4.05 4.05 0 0 0-.123.908c0 .134.016.246.046.339.092.246.23.456.415.63.184.165.439.293.767.386a4.309 4.309 0 0 0 .644.046c.204 0 .409-.041.614-.123.797-.134 1.36-.318 1.687-.554a.342.342 0 0 0 .138-.108c.051-.052.097-.077.138-.077l-.015.03c0 .01.031-.01.092-.061.061-.062.128-.123.199-.185a1.43 1.43 0 0 1 .952-.37c.122 0 .225.021.306.062.093.031.144.062.154.093.061.102.031.267-.092.492a2.877 2.877 0 0 1-.583.709 4.506 4.506 0 0 1-.859.646 6.07 6.07 0 0 1-1.688.585 9.137 9.137 0 0 1-1.779.216Zm7.205.431a8.863 8.863 0 0 0-.246-.108 1.327 1.327 0 0 1-.353-.2c-.102-.082-.153-.165-.153-.247-.021-.04-.021-.118 0-.23a7.16 7.16 0 0 1 .153-.6l.092-.34c.092-.297.138-.451.138-.461.011.01.026.015.046.015.092 0 .138-.123.138-.37-.01-.04 0-.107.031-.2.041-.092.087-.184.138-.277 0-.072.041-.333.123-.785a13.1 13.1 0 0 1 .813-2.078c.01-.082.046-.2.107-.354.062-.154.108-.251.139-.292.02-.154.076-.35.168-.585.092-.247.184-.41.276-.493 0-.113.087-.364.261-.754.174-.39.276-.585.307-.585 0-.01.01-.046.031-.108.03-.072.087-.164.169-.277 0-.051.01-.118.03-.2a.347.347 0 0 1 .138-.2c.011-.031.026-.093.046-.185a.423.423 0 0 0 .016-.185c0-.03-.011-.051-.031-.061a.508.508 0 0 1-.031-.185c0-.144.092-.22.276-.23.062 0 .133-.088.215-.263.041-.082.154-.154.338-.215.184-.062.45-.128.798-.2l.813-.139a6.208 6.208 0 0 1 1.104.108c.379.185.706.441.982.77.286.318.43.6.43.846 0 .308-.123.806-.369 1.494-.235.687-.439 1.098-.613 1.231.051 0 .03.056-.062.17-.092.112-.209.23-.352.353-.133.123-.236.195-.307.216 0 .02-.041.092-.123.215a.83.83 0 0 1-.292.278c-.03.02-.138.087-.322.2a1.262 1.262 0 0 0-.414.384c0-.05-.015-.076-.046-.076-.041 0-.102.035-.184.107a.948.948 0 0 1-.169.123 2.258 2.258 0 0 1-.537.262 6.87 6.87 0 0 1-.659.139c-.072.061-.256.092-.553.092l-.567-.077-.323.924c-.143.451-.306.923-.49 1.416-.041.102-.113.297-.215.585-.103.277-.2.575-.292.893-.03.174-.087.323-.169.446a.658.658 0 0 1-.245.277c-.082.052-.148.057-.199.016Zm2.485-5.742c.46-.041.813-.124 1.059-.247.255-.123.547-.343.874-.662l.476-.477c.286-.277.526-.549.721-.816.276-.41.414-.83.414-1.262 0-.205-.036-.38-.108-.523a.866.866 0 0 0-.751-.4c-.276 0-.573.092-.89.277-.102.04-.312.38-.629 1.016a23.624 23.624 0 0 0-.844 1.94c-.245.656-.353 1.04-.322 1.154ZM121.123 84.965c-.031.051-.112.118-.245.2.173.113.327.236.46.37.143.133.23.251.261.354.296.472.445 1.026.445 1.662 0 .329-.036.657-.108.985-.256.493-.409.78-.46.862-.215.411-.542.765-.982 1.063-.44.297-.844.492-1.212.585-.44.133-.874.2-1.304.2a4.05 4.05 0 0 1-.43-.031 2.972 2.972 0 0 1-.705-.139 4.278 4.278 0 0 1-.783-.354 2.752 2.752 0 0 1-.797-.646 6.554 6.554 0 0 1-.614-.878.787.787 0 0 1-.123-.446c0-.195.062-.385.184-.57a1.54 1.54 0 0 1 .445-.446.733.733 0 0 1 .384-.123c.082 0 .153.015.214.046.072.03.123.051.154.061.194.031.317.134.368.308.051.175.082.267.092.277a3.785 3.785 0 0 1-.169.447.397.397 0 0 1-.168.2c.153.236.342.436.567.6.123.093.297.175.522.247.235.072.399.097.491.077.01-.01.036-.016.077-.016.051 0 .102.01.153.031.061.01.097.01.107 0a.84.84 0 0 1 .276-.03.91.91 0 0 0 .338-.078c.327-.092.619-.22.874-.385.256-.174.497-.4.722-.677.153-.215.255-.405.306-.57a2.68 2.68 0 0 0 .123-.692c.021-.154 0-.329-.061-.523a7.275 7.275 0 0 1-.123-.416l-.199-.154-.338-.093c-.266-.082-.455-.123-.568-.123-.122 0-.25.02-.383.062a1.568 1.568 0 0 1-.353.077.619.619 0 0 1-.307-.077 1.683 1.683 0 0 0-.153-.108.81.81 0 0 1-.384-.323 1.005 1.005 0 0 1-.153-.508c0-.092.025-.18.076-.262a.614.614 0 0 1 .292-.261.723.723 0 0 1 .445-.077.73.73 0 0 0 .169.015c.143 0 .317-.041.521-.123.123-.041.317-.154.583-.339.266-.185.399-.272.399-.261.338-.431.578-.755.721-.97.154-.226.276-.472.368-.74a1.35 1.35 0 0 0 .169-.661.978.978 0 0 0-.077-.385c-.01-.062-.081-.113-.214-.154a1.256 1.256 0 0 0-.369-.062.383.383 0 0 0-.138.016c-.163.01-.404.072-.721.185-.317.102-.506.18-.567.23-.553.473-.885.79-.998.955a.406.406 0 0 1-.214.17.748.748 0 0 1-.307.06c-.194 0-.322-.05-.384-.153a1.11 1.11 0 0 1-.168-.585c0-.236.086-.462.26-.677.195-.247.363-.442.507-.585a2.16 2.16 0 0 1 .506-.4l.291-.17c.041-.02.133-.072.277-.154.153-.082.296-.144.429-.185.041-.01.159-.05.353-.123a1.929 1.929 0 0 1 .859-.092c.348.03.604.092.767.185.174.092.44.292.798.6.153.103.276.282.368.539.092.256.138.549.138.877 0 .493-.092.94-.276 1.34a3.601 3.601 0 0 0-.169.323c-.02.04-.087.164-.199.37a2.74 2.74 0 0 1-.353.523c-.092.123-.286.364-.583.723Zm6.619 6.142a4.38 4.38 0 0 1-1.396.216c-.767 0-1.509-.18-2.225-.54a.69.69 0 0 0-.138-.307c-.071-.103-.153-.159-.245-.17-.031-.01-.082-.06-.154-.153a7.359 7.359 0 0 0-.153-.216 3.129 3.129 0 0 1-.062-.37c0-.092.016-.235.047-.43.03-.195.056-.339.076-.431l.154-.416c.245-.718.516-1.411.813-2.078l.307-.785c.46-1.14.762-1.904.905-2.294.143-.39.215-.667.215-.831 0-.092-.026-.2-.077-.323a.822.822 0 0 1-.046-.262c0-.287.148-.487.445-.6.307-.165.68-.329 1.12-.493.439-.164.782-.262 1.028-.292a1.37 1.37 0 0 1 .245-.016c.358 0 .747.057 1.166.17.43.102.665.22.706.354l.092.03c.01 0 .035.01.076.031.041.02.098.062.169.123.102.072.189.206.261.4.072.185.107.36.107.524a.554.554 0 0 1-.015.154c0 .03.01.108.031.23.03.114.056.206.076.278.011.061.016.154.016.277 0 .575-.266 1.15-.798 1.724l-.199.262c-.021.03-.077.097-.169.2-.082.103-.143.149-.184.138-.174.154-.261.283-.261.385 0 .051.031.087.092.108l.123.185c.071.092.163.205.276.338.266.41.399.893.399 1.447 0 .288-.036.544-.108.77-.071.267-.245.575-.521.924a6.254 6.254 0 0 1-1.013 1 5.11 5.11 0 0 1-1.181.74Zm-1.381-5.326a2.23 2.23 0 0 0 .43-.139c.266-.092.439-.148.521-.169a4.075 4.075 0 0 0 1.458-.785c.409-.349.7-.77.874-1.262a1.5 1.5 0 0 0 .108-.385c.041-.175.061-.328.061-.462a.635.635 0 0 0-.015-.17v-.122c-.133-.34-.471-.508-1.013-.508a3.29 3.29 0 0 0-1.197.246.425.425 0 0 0-.23.23 1.91 1.91 0 0 0-.107.34c-.021.133-.036.236-.046.307a3.76 3.76 0 0 1-.2.693l-.122.37c0 .02-.026.056-.077.107a.246.246 0 0 0-.061.154 5.556 5.556 0 0 0-.123.277 2.936 2.936 0 0 0-.154.416 4.298 4.298 0 0 0-.153.416l-.061.246c0 .03.01.082.03.154.021.072.046.087.077.046Zm-.215 4.095c.174.03.343.046.507.046.859 0 1.564-.431 2.117-1.293.276-.35.414-.652.414-.909 0-.205-.087-.44-.261-.708a1.536 1.536 0 0 0-.337-.369.53.53 0 0 0-.338-.123c-.102 0-.261.036-.475.108l-.307.092c-.246.041-.614.149-1.105.323-.337.113-.532.17-.583.17-.041.03-.112.102-.215.215-.102.113-.158.19-.168.231-.062.02-.123.097-.185.23a1.979 1.979 0 0 0-.107.401c-.02.133-.015.205.015.216.041.01.036.097-.015.261a6.902 6.902 0 0 0-.107.37.885.885 0 0 0-.031.154c0 .184.107.323.322.415.225.093.512.15.859.17Zm7.676-5.866c-.235 0-.373-.102-.414-.307v-.062c0-.092.051-.205.153-.339l.185-.277c.04-.061.133-.21.276-.446a2.72 2.72 0 0 0 .276-.554.35.35 0 0 1 .015-.108c-.174.03-.353-.03-.537-.185a.639.639 0 0 1-.199-.492c0-.175.051-.35.153-.524.103-.174.241-.323.414-.446.195-.123.384-.185.568-.185.123 0 .281.036.476.108.174.113.312.272.414.477.112.206.148.375.107.508-.03.267-.117.58-.261.94l-.107.323c-.092.338-.399.805-.92 1.4 0 .02-.016.041-.046.062l-.139.046c-.051.01-.112.026-.184.046l-.23.016Zm8.993-4.233c.236.031.409.093.522.185a.54.54 0 0 1 .215.308c.03.113.061.287.092.523l-.169.416a70.347 70.347 0 0 0-1.105 2.956l-.537 1.831-.184.324-.353 1.631a75.401 75.401 0 0 0-.337 1.509c-.102.482-.169.831-.199 1.047 0 .102-.006.184-.016.246s-.015.123-.015.185c-.092.215-.133.354-.123.415 0 .267-.056.442-.169.524-.102.082-.317.123-.644.123a2.23 2.23 0 0 1-.46-.339.957.957 0 0 1-.23-.385c.01-.174.051-.44.122-.8.041-.246.062-.385.062-.416l.184-1.293c.02-.04.056-.102.107-.184a2.1 2.1 0 0 1 .138-.17c.031-.113.067-.282.108-.508l.076-.338a8.07 8.07 0 0 0 .154-.647c.071-.297.123-.513.153-.647l-.138.154c-.123.226-.353.54-.69.94-.205.266-.348.461-.43.584-.133.206-.966 1.027-2.5 2.463a13.55 13.55 0 0 1-.629.6c-.174.186-.323.298-.445.34-.113.04-.323.071-.629.092-.369-.298-.553-.575-.553-.831l.062-.216c.02-.082.051-.139.092-.17a1.35 1.35 0 0 1 .169-.138c.132-.082.424-.318.874-.708.46-.4.798-.703 1.013-.908l.797-.8.813-.894a4.63 4.63 0 0 1-.598-.277 1.351 1.351 0 0 1-.399-.307c-.44-.493-.659-1.119-.659-1.879 0-.554.102-1.077.306-1.57.113-.297.22-.518.323-.662.112-.153.265-.328.46-.523a2.18 2.18 0 0 0 .307-.308c.296-.328.608-.575.935-.739.338-.164.916-.385 1.734-.662.051 0 .251-.02.598-.061.348-.041.665-.062.952-.062.102.041.189.077.26.108.082.03.149.056.2.077a.916.916 0 0 1 .169-.123.454.454 0 0 1 .214-.016Zm-1.38 2.91c.04-.164.117-.39.23-.677.03-.072.076-.19.138-.355.061-.174.117-.359.169-.554a.622.622 0 0 0-.169-.015c-.184 0-.43.03-.737.092-.664.123-1.299.4-1.902.832-.603.42-1.007.872-1.212 1.354a4.25 4.25 0 0 0-.215.631 1.895 1.895 0 0 0-.046.539c0 .133.01.241.031.323.02.082.056.185.107.308l.123.354c.041.01.118.02.23.031.123.01.21.01.261 0l.368-.123c.45-.134.788-.272 1.013-.416.184-.092.353-.138.506-.138.133 0 .24.02.322.061l.046-.123.737-2.124Zm14.264-1.755a.675.675 0 0 1 .552.215c.143.154.24.344.292.57a.764.764 0 0 1-.154.477 2.342 2.342 0 0 1-.429.385c-.246.134-.573.36-.982.677l-.384.293c-.194.123-.491.37-.89.739-.399.37-.695.651-.889.846l-.307.278a4.35 4.35 0 0 0-.276.23 3.28 3.28 0 0 0-.415.431c.021.052.067.15.138.293.072.144.154.267.246.37l1.12 1.708c.041.092.097.19.169.293l.153.2c.153.174.266.333.338.477.03.02.081.072.153.154a.67.67 0 0 0 .215.138.577.577 0 0 1 .245.231c.072.113.143.262.215.447-.01.225-.077.395-.199.508-.123.123-.364.2-.722.23-.173-.04-.373-.159-.598-.353a2.615 2.615 0 0 1-.537-.632c-.01-.02-.327-.513-.951-1.477l-.583-.924a2.415 2.415 0 0 0-.215-.447c-.092-.184-.153-.277-.184-.277l-.291-.461c-.011.04-.123.333-.338.877l-.215.523a35.254 35.254 0 0 0-.981 2.756c-.011.03-.026.092-.047.185a.533.533 0 0 1-.107.23.375.375 0 0 1-.169.14.696.696 0 0 1-.399.138.658.658 0 0 1-.23-.047.825.825 0 0 1-.583-.77c0-.081.016-.143.046-.184l.138-.354a2.27 2.27 0 0 1 .2-.508c.051-.103.097-.23.138-.385a7.08 7.08 0 0 1 .123-.37c.194-.625.368-1.097.521-1.415.051-.103.103-.231.154-.385a1.614 1.614 0 0 0-.215.23c-.317.319-.67.627-1.059.924a12.17 12.17 0 0 0-.767.631c-.122.093-.378.267-.767.524-.378.256-.695.462-.951.615-.082.052-.256.17-.522.354a6.02 6.02 0 0 1-.889.555.997.997 0 0 1-.507.154.748.748 0 0 1-.383-.108.745.745 0 0 1-.261-.277.759.759 0 0 1-.123-.4c0-.144.046-.247.138-.308.051-.072.22-.2.507-.385.296-.195.501-.329.613-.4.246-.154.461-.298.645-.431l.398-.247c.174-.113.425-.267.752-.462.328-.205.501-.318.522-.338.051-.062.215-.195.491-.4l1.641-1.247.476-.4c-.01-.052-.154-.298-.43-.74-.276-.451-.445-.708-.506-.77l-.813-.984c0-.01-.061-.103-.184-.277-.634-.914-.962-1.401-.982-1.463-.174-.195-.281-.349-.322-.462a1.665 1.665 0 0 1-.062-.508.526.526 0 0 1 .231-.215.588.588 0 0 1 .306-.093.52.52 0 0 1 .231.062l.184.092a.716.716 0 0 1 .245.139.917.917 0 0 1 .215.23c.02.021.077.073.169.155.102.072.209.215.322.43l1.979 2.802.522.893a1.644 1.644 0 0 1 .076-.57 7.05 7.05 0 0 0 .123-.446c.235-.667.389-1.18.46-1.539.051-.236.128-.42.23-.554a.977.977 0 0 0 .046-.185c.021-.113.036-.2.046-.262.072-.39.138-.656.2-.8.061-.144.138-.241.23-.293a.83.83 0 0 1 .69.185.869.869 0 0 1 .322.416c.041.184.062.313.062.385a.759.759 0 0 1-.123.4 59.57 59.57 0 0 1-.583 1.94l-.123.415c-.01.041-.03.118-.061.231-.02.113-.051.21-.092.292-.02.103-.041.196-.061.278a2.485 2.485 0 0 0-.046.215l.306-.292c1.371-1.376 2.251-2.202 2.639-2.479.317-.318.629-.59.936-.816.307-.225.573-.374.798-.446Zm4.191 10.514a6.19 6.19 0 0 1-1.181-.093 1.755 1.755 0 0 1-.798-.354c-.491-.369-.736-.918-.736-1.647 0-.308.056-.687.168-1.139a5.46 5.46 0 0 1 .169-.677c.072-.195.133-.293.184-.293l.108-.57c.01-.06.03-.143.061-.246.031-.112.056-.195.077-.246a.403.403 0 0 1 .092-.138c.041-.031.102-.17.184-.416a.942.942 0 0 1 .092-.385c.153-.256.23-.426.23-.508a.865.865 0 0 1 .123-.185c.071-.092.128-.2.168-.323l.2-.354c.307-.544.527-.939.66-1.185.133-.257.214-.467.245-.631.031-.072.072-.2.123-.385.061-.185.128-.313.199-.385-.03-.062.072-.139.307-.23.246-.093.542-.18.89-.263.358-.082.675-.133.951-.154.061-.04.199-.071.414-.092.215-.02.455-.03.721-.03.184 0 .44.01.767.03.164 0 .302.02.415.062.122.03.23.072.322.123.092.04.158.072.199.092l.2.2c.122.103.184.21.184.323 0 .103-.067.19-.2.262-.03.031-.199.057-.506.077-.297.02-.619.031-.966.031-.369 0-.773.046-1.212.139-.154.03-.271.046-.353.046a1.787 1.787 0 0 1-.461.077c-.173.01-.286.015-.337.015-.041 0-.184.195-.43.585-.235.39-.358.62-.368.693 0 .092-.031.19-.092.292a8.092 8.092 0 0 1-.322.477c-.133.185-.199.36-.199.524 0 .103.03.164.092.185a17.69 17.69 0 0 1 1.181-.139c.47-.051.813-.077 1.028-.077a1.09 1.09 0 0 1 .276-.046c.143 0 .276.036.399.108.163.03.245.138.245.323 0 .082-.02.159-.061.23-.031.073-.072.119-.123.14-.092.092-.409.21-.951.353-.532.144-1.089.278-1.672.4-.583.114-.911.16-.982.14-.031-.073-.061-.109-.092-.109-.102 0-.23.34-.384 1.016a9.15 9.15 0 0 0-.337.816c-.041.123-.103.416-.184.878a2.137 2.137 0 0 0-.062.385c0 .4.236.708.706.923.174.031.353.046.537.046.337 0 .747-.061 1.227-.184.041-.02.353-.195.936-.524.031 0 .108-.02.23-.061a1.25 1.25 0 0 1 .23-.077.367.367 0 0 1 .307-.17c.031 0 .097.052.2.154.102.103.194.226.276.37a.783.783 0 0 1 .123.415c0 .103-.154.231-.461.385-.296.144-.741.334-1.334.57-.43.184-.732.302-.906.354-.173.051-.419.077-.736.077Zm8.691-.123c-.041.04-.082.061-.122.061-.052 0-.139-.03-.261-.092a.95.95 0 0 1-.461-.262.594.594 0 0 1-.184-.43c0-.042.021-.124.062-.247.092-.175.327-1.031.705-2.57l.261-1.017c0-.01.021-.17.062-.477.03-.154.076-.436.138-.847.122-.236.204-.492.245-.77.051-.287.082-.451.092-.492.072-.287.123-.467.154-.539l.138-.539.092-.354c.071-.256.107-.42.107-.492v-.246h-.567l-.246.015c-.164 0-.291-.005-.383-.016l-.537-.015c-.481-.02-.803-.067-.967-.138-.164-.083-.251-.236-.261-.462-.041-.206.062-.365.307-.478.246-.123.747-.174 1.504-.153a8.56 8.56 0 0 1 .583-.016c.245 0 .444.005.598.016.153.01.24.015.261.015a.365.365 0 0 0 .076-.123c.021-.052.036-.093.046-.123 0-.175.057-.282.169-.324.062-.133.189-.2.384-.2a.81.81 0 0 1 .337.077.6.6 0 0 1 .261.216c.02.051.031.143.031.277 0 .133.03.23.092.292.041-.04.174-.066.399-.077.225-.01.383-.02.475-.03.195 0 .394-.006.599-.016.204-.02.342-.03.414-.03.092-.052.235-.078.429-.078.092 0 .22.01.384.031.204 0 .353.046.445.139.092.082.174.18.245.292 0 .113.026.195.077.246.041.031.061.062.061.093 0 .02-.02.067-.061.138-.072.093-.256.139-.552.139l-.323.015c-.225.02-.388.031-.49.031a9.47 9.47 0 0 1-1.565.17c-.42 0-.629.04-.629.123-.062 0-.179.333-.353 1a7.836 7.836 0 0 1-.2.678 2.312 2.312 0 0 1-.153.4.224.224 0 0 1 .046.138c0 .052-.031.165-.092.339a4.902 4.902 0 0 1-.107.339.713.713 0 0 0-.062.246 7.81 7.81 0 0 1-.092.308 5 5 0 0 0-.107.523c-.051.493-.118.78-.2.862-.01.02-.035.062-.076.123a.439.439 0 0 0-.046.2c0 .144-.036.4-.108.77-.071.36-.128.554-.169.585.031 0 .046.031.046.093 0 .071-.03.18-.092.323 0 .082-.015.18-.046.292-.03.113-.046.19-.046.231-.102.288-.245.652-.429 1.093-.184.441-.297.683-.338.724Zm11.392-6.635c.409.575.613 1.206.613 1.893 0 .4-.076.79-.23 1.17-.143.38-.358.729-.644 1.047-.501.564-1.038 1-1.611 1.309-.563.307-1.278.605-2.148.892a2.645 2.645 0 0 1-.782.124l-.2-.016c-.266-.02-.532-.154-.797-.4-.256-.236-.399-.482-.43-.739a3.524 3.524 0 0 1-.015-.385c0-.708.184-1.647.552-2.817l.092-.37c.051-.174.097-.323.138-.446.061-.184.133-.39.215-.615.184-.473.322-.924.414-1.355.082-.35.271-.903.568-1.663.307-.76.557-1.323.751-1.693.011-.092.026-.17.046-.23.021-.073.036-.134.046-.186a1.32 1.32 0 0 0 .077-.308.72.72 0 0 1 .23-.415.61.61 0 0 1 .399-.139c.235 0 .45.088.645.262.204.174.306.375.306.6a.654.654 0 0 1-.046.231l-.138.385a4.589 4.589 0 0 1-.245.57 4.484 4.484 0 0 0-.246.57c-.041.102-.071.21-.092.323a.959.959 0 0 0-.061.184.75.75 0 0 1-.077.2c.102.031.2.093.292.185a2 2 0 0 0 .322.154c.409.185.793.426 1.15.724.358.287.66.605.906.954Zm-3.667 4.603c.716-.154 1.319-.436 1.81-.847.491-.42.808-.893.951-1.416.052-.205.077-.385.077-.539 0-.523-.204-.99-.613-1.4-.399-.421-.998-.73-1.795-.924-.123.338-.297.826-.522 1.462-.215.626-.322.98-.322 1.062 0 .103-.041.247-.123.431-.092.195-.194.595-.307 1.2-.112.596-.169 1.022-.169 1.279.164 0 .369-.057.614-.17a3.81 3.81 0 0 1 .399-.138Zm7.195 2.401a3.657 3.657 0 0 1-.921-.492 1.896 1.896 0 0 1-.629-.816c-.163-.462-.245-1.006-.245-1.632 0-.606.036-1.119.107-1.54.072-.43.194-.867.368-1.308l.138-.323a9.55 9.55 0 0 1 .353-.831c.174-.4.481-.919.921-1.555.409-.616.731-1.073.966-1.37.246-.308.496-.57.752-.785.256-.226.629-.508 1.12-.847.297-.215.66-.323 1.089-.323.338 0 .645.082.921.246.286.164.501.42.644.77.102.174.153.415.153.723 0 .493-.117 1.026-.352 1.601-.236.575-.517 1.011-.844 1.309a.395.395 0 0 1-.292.107.903.903 0 0 1-.399-.107 1.682 1.682 0 0 1-.383-.262 3.617 3.617 0 0 1-.153-.308c-.011-.03.01-.051.061-.061.092-.113.225-.329.399-.647.184-.328.307-.585.368-.77l.092-.43c.061-.268.092-.442.092-.524a.341.341 0 0 0-.107-.246.167.167 0 0 0-.123-.047c-.082 0-.225.052-.43.154-.235.103-.516.313-.843.632a8.858 8.858 0 0 0-.952 1.108c-.47.616-.833 1.124-1.089 1.524-.245.4-.435.805-.567 1.216l-.169.4c.01.041-.005.144-.046.308a2.012 2.012 0 0 1-.138.4 6.93 6.93 0 0 0-.215 1.617 4 4 0 0 0 .107.985c.082.277.195.482.338.615.082.072.199.108.353.108.163 0 .347-.036.552-.108.215-.082.44-.174.675-.277l.491-.215c.235-.092.455-.2.66-.323a2.32 2.32 0 0 0 .475-.339c.266-.195.481-.292.645-.292.132-.041.235 0 .306.123.082.123.123.292.123.508 0 .143-.097.318-.291.523-.195.195-.425.37-.691.523-.112.113-.363.247-.752.4-.327.237-.71.447-1.15.632-.43.185-.823.277-1.181.277-.082 0-.185-.01-.307-.03Zm6.861.2a1.466 1.466 0 0 1-.66-.246.881.881 0 0 1-.399-.693c0-.267.107-.56.322-.877.225-.329.466-.621.721-.878a3.91 3.91 0 0 0 .399-.477c.205-.256.327-.405.368-.446.399-.421.742-.77 1.028-1.047.297-.277.604-.523.921-.739a1.134 1.134 0 0 1-.322-.2l-.184-.185a3.191 3.191 0 0 1-.768-1.031 3.123 3.123 0 0 1-.245-1.216c0-.555.128-1.093.383-1.617a2.33 2.33 0 0 1 .353-.538l.307-.462c.287-.246.552-.436.798-.57.245-.144.532-.256.859-.338.113-.041.24-.072.384-.093.153-.03.26-.051.322-.061l.475-.093c.082-.02.215-.03.399-.03.174 0 .338-.021.491-.062.164.051.363.077.599.077.225 0 .393.015.506.046.143-.103.25-.154.322-.154.082 0 .21.057.383.17a.56.56 0 0 1 .292.107c.082.062.179.16.291.293l.031.308.077.2a25.604 25.604 0 0 0-2.378 6.419l-.292 1.185-.076.339a51.54 51.54 0 0 1-.461 1.832c-.122.492-.219.764-.291.816a.23.23 0 0 1-.184.046h-.169c-.256 0-.491-.052-.706-.154-.214-.093-.322-.231-.322-.416 0-.02.01-.072.031-.154l.184-.539c.051-.154.184-.57.399-1.246.225-.678.363-1.18.414-1.509a.561.561 0 0 1 .046-.139.718.718 0 0 0 .062-.123c.061-.164.132-.477.214-.939-.266.123-.45.226-.552.308a2.334 2.334 0 0 1-.261.17 1.37 1.37 0 0 0-.261.184 5.744 5.744 0 0 1-.46.4 4.863 4.863 0 0 0-.491.447c-.47.513-.956 1.093-1.457 1.74-.501.636-.829 1.164-.982 1.585a.577.577 0 0 0-.046.185c-.01.092-.026.174-.046.246a4.16 4.16 0 0 0-.368.17Zm3.804-6.342c.573 0 1.023-.164 1.35-.493.031-.092.057-.184.077-.277a9.4 9.4 0 0 1 .092-.261c.287-.852.512-1.514.675-1.986.174-.472.368-.924.583-1.355l-.184.016c-.235.02-.399.035-.491.046l-.506.061a2.05 2.05 0 0 1-.276.016.7.7 0 0 0-.276.046c-.43.195-.762.374-.998.539-.235.154-.45.385-.644.692-.348.565-.522 1.073-.522 1.524 0 .288.082.56.246.816.133.195.266.35.399.462a.754.754 0 0 0 .475.154Zm11.397 6.157c-.328 0-.624-.025-.89-.076a1.949 1.949 0 0 1-.706-.293 6.903 6.903 0 0 1-1.012-.8c-.328-.329-.491-.616-.491-.862 0-.165.066-.34.199-.524.143-.185.312-.338.506-.462.205-.123.394-.184.568-.184.215.112.373.22.476.323a.472.472 0 0 1 .153.339c0 .164-.117.354-.353.57.143.174.317.307.522.4.215.081.445.122.69.122.338 0 .701-.082 1.09-.246.388-.174.715-.405.981-.692.266-.288.399-.606.399-.955 0-.441-.102-.806-.307-1.093-.204-.297-.516-.446-.935-.446a1.05 1.05 0 0 0-.2.015h-.123a.955.955 0 0 1-.322-.077.477.477 0 0 1-.184-.077.514.514 0 0 1-.107-.108 3.524 3.524 0 0 1-.322-.446.814.814 0 0 1-.092-.37c0-.184.112-.338.337-.461a.68.68 0 0 1 .338-.108c.03 0 .086.01.168.03.072-.03.184-.056.338-.076a1.19 1.19 0 0 0 .368-.093 7.563 7.563 0 0 0 1.856-1.2c.563-.503.844-1.047.844-1.632 0-.154-.036-.328-.107-.523a1.476 1.476 0 0 0-.767-.2c-.43 0-.854.118-1.274.354-.409.236-.68.528-.813.877-.153.41-.399.693-.736.847a3.255 3.255 0 0 1-.491-.385 4.891 4.891 0 0 1-.384-.57 4.71 4.71 0 0 1 .875-1.462c.388-.441.838-.77 1.35-.985.133-.062.343-.118.629-.17.296-.061.521-.092.675-.092.491 0 .92.118 1.289.354.368.236.654.56.859.97.204.4.307.841.307 1.324 0 .564-.103 1.046-.307 1.447a3.17 3.17 0 0 1-.813 1.016c-.338.277-.783.59-1.335.939.337.277.583.57.736.877.154.298.23.657.23 1.078 0 .482-.035.882-.107 1.2a2.594 2.594 0 0 1-.43.97c-.143.247-.404.508-.782.785a5.17 5.17 0 0 1-1.151.647l-.107-.016c-.061.041-.169.072-.322.093-.174.04-.281.077-.322.108h-.491Zm12.399 0a5.206 5.206 0 0 1-.89.078c-.255 0-.465-.036-.629-.108a1.236 1.236 0 0 1-.444-.293c-.093-.082-.139-.205-.139-.37 0-.102.021-.174.062-.215a1.96 1.96 0 0 1 .445-.215c.153-.052.414-.093.782-.123a4.732 4.732 0 0 0 2.102-.385c.665-.288 1.125-.631 1.381-1.032.194-.349.291-.641.291-.877 0-.257-.117-.513-.353-.77a.832.832 0 0 0-.23-.138.708.708 0 0 0-.245-.062l-.261-.03c-.184 0-.332.02-.445.06a2.183 2.183 0 0 0-.399.186c-.051.03-.158.092-.322.184a1.537 1.537 0 0 1-.445.154.784.784 0 0 1-.353.231 1.397 1.397 0 0 1-.445.077c-.143 0-.24-.025-.291-.077-.062 0-.113.031-.154.093a2.35 2.35 0 0 0-.199.369 3.01 3.01 0 0 1-.138.308 4.839 4.839 0 0 1-.2.523c-.02.062-.056.154-.107.277a2.15 2.15 0 0 0-.077.277c-.153.38-.281.637-.383.77-.102.134-.205.2-.307.2a.204.204 0 0 1-.123-.046 1.311 1.311 0 0 1-.138-.123 1.246 1.246 0 0 0-.153-.185c-.072 0-.143-.04-.215-.123a.559.559 0 0 1-.107-.354c0-.103.025-.22.076-.354.051-.113.195-.498.43-1.155.481-1.313.736-1.98.767-2a.518.518 0 0 1 .092-.293c.061-.072.092-.118.092-.139.02-.04.107-.261.261-.662.153-.4.296-.667.429-.8 0-.082.144-.35.43-.8.031-.073.107-.262.23-.57a3.96 3.96 0 0 1 .169-.416c.092-.103.138-.19.138-.262 0-.04-.026-.087-.077-.138a2.036 2.036 0 0 0-.123-.139c-.02-.02-.04-.092-.061-.215a1.959 1.959 0 0 1-.031-.293c0-.03.169-.133.507-.308.347-.184.593-.307.736-.369.143-.062.327-.139.552-.23.236-.093.43-.165.583-.216a2.17 2.17 0 0 1 .476-.108c.174-.02.327-.026.46-.016a.98.98 0 0 1 .338-.061c.153 0 .296.036.429.108.164.051.374.184.629.4.256.205.399.39.43.554.041.205.061.354.061.447a.937.937 0 0 1-.107.415c-.021.216-.102.534-.246.954-.143.421-.255.673-.337.755a9.659 9.659 0 0 0-.307.508c-.245.441-.486.79-.721 1.047a30.986 30.986 0 0 0-.552.631c.051 0 .153.01.306.03.164.01.282.037.353.078.236.153.445.348.629.585.195.225.333.461.415.708a.661.661 0 0 1 .092.369c0 .205-.052.446-.154.724a3.126 3.126 0 0 1-.368.738c-.092.175-.291.426-.598.755-.297.318-.466.477-.507.477a.325.325 0 0 0-.199 0c-.072.03-.194.087-.368.17a1.355 1.355 0 0 1-.261.23c-.082.072-.148.098-.199.077a6.031 6.031 0 0 0-.583.277c-.266.072-.66.154-1.182.246Zm-.475-5.08c.02.031.153-.004.399-.107.255-.103.526-.236.813-.4.296-.165.521-.319.675-.462.194-.134.373-.298.537-.493.163-.205.245-.339.245-.4.01-.03.041-.097.092-.2a2.81 2.81 0 0 1 .23-.323 2.17 2.17 0 0 0 .292-.355c.082-.123.122-.205.122-.246a3.1 3.1 0 0 1 .077-.184c.051-.093.113-.2.184-.324.113-.143.19-.313.23-.508.052-.195.082-.302.092-.323.021-.216-.015-.375-.107-.477-.082-.113-.21-.17-.383-.17l-.139.016-.368.046c-.163.02-.312.051-.445.092-.122.031-.24.077-.352.139-.256.164-.384.292-.384.385 0 .051.036.077.107.077.051 0 .077.036.077.108 0 .143-.097.374-.291.692-.164.288-.496.919-.998 1.894-.491.975-.726 1.483-.705 1.524Zm5.605 4.557a1.107 1.107 0 0 1-.245-.17.31.31 0 0 1-.062-.2c0-.102.041-.246.123-.43.092-.195.246-.498.46-.909.062-.133.179-.369.353-.708.44-.841.66-1.462.66-1.862a.22.22 0 0 1-.015-.093c0-.102.081-.195.245-.277a5.7 5.7 0 0 1 .322-.261 1.72 1.72 0 0 0 .46-.493c.133-.308.302-.647.507-1.016.204-.38.557-.996 1.058-1.847a19.36 19.36 0 0 1 1.565-2.448 1.31 1.31 0 0 1 .338-.339c.133-.082.245-.123.337-.123.317 0 .639.123.967.37.337.246.557.492.659.739.041.072.062.225.062.461 0 .319-.036.857-.108 1.617-.02.133-.041.344-.061.63-.031.463-.077.955-.138 1.479-.113 1.15-.194 2.047-.246 2.694a23.168 23.168 0 0 0-.076 1.816c0 .287.005.498.015.631v.108l-.015.354c-.062.062-.184.092-.368.092a1.84 1.84 0 0 1-.614-.107c-.205-.062-.317-.139-.338-.231a.166.166 0 0 0-.046-.031c-.02-.01-.03-.056-.03-.139l.015-.338.046-.862.077-2.355-.2.015c-.204 0-.639.04-1.304.123-.654.082-1.069.149-1.242.2-.092 0-.205.062-.338.185a1.744 1.744 0 0 0-.353.477 2.29 2.29 0 0 1-.215.446c-.112.185-.168.293-.168.324a.65.65 0 0 0-.169.17 1.44 1.44 0 0 0-.077.122c0 .113-.102.406-.307.878a7.172 7.172 0 0 1-.583 1.139l-.414.585-.537-.416Zm3.667-5.295.429-.062c.215-.04.404-.067.568-.077.491-.123.828-.185 1.013-.185.102 0 .173.01.214.031a.411.411 0 0 0 .092.093c.041.01.067.015.077.015.021-.082.102-.641.246-1.678.143-1.036.214-1.673.214-1.909 0-.164-.005-.303-.015-.415-.01-.123-.02-.2-.031-.231-.092 0-.301.246-.629.739a14.342 14.342 0 0 0-.951 1.647c-.235.42-.399.63-.491.63-.071.073-.225.314-.46.724-.235.41-.327.637-.276.678Zm4.825 5.68c-.154 0-.312-.103-.476-.308-.163-.195-.245-.441-.245-.739 0-.236.056-.467.169-.693.204-.43.409-.78.613-1.046a1.55 1.55 0 0 0 .154-.262.71.71 0 0 0 .076-.293c.144-.184.333-.518.568-1 .399-.647.967-1.642 1.703-2.986l.598-1.093c.307-.544.512-.868.614-.97l.077-.108c-.031.051.02-.067.153-.354.143-.287.292-.544.445-.77.164-.236.307-.354.43-.354.132 0 .286.057.46.17.174.102.322.261.445.477.133.205.199.451.199.739 0 .123-.005.22-.015.292l-.154 1.047-.076.339c-.133.677-.333 1.606-.599 2.786-.235 1.047-.353 1.678-.353 1.893a.35.35 0 0 0 .031.154c.021.031.046.046.077.046.02 0 .071-.03.153-.092a.9.9 0 0 0 .215-.308l.2-.308.26-.385c.287-.4.64-.939 1.059-1.616.419-.688 1.099-1.862 2.04-3.525.195-.287.353-.539.476-.754.164-.267.322-.519.475-.755.154-.236.272-.385.353-.446a.595.595 0 0 1 .384-.123c.153.01.312.066.475.17.174.102.318.245.43.43.123.185.184.385.184.6 0 .247-.077.698-.23 1.355a21.745 21.745 0 0 1-.506 1.909c-.041.215-.169.724-.384 1.524a42.619 42.619 0 0 0-.368 1.416 4.38 4.38 0 0 0-.107.847v.123c-.154.277-.231.831-.231 1.662-.04.34-.117.6-.23.786-.112.195-.204.292-.276.292l-.046-.015a.244.244 0 0 0-.153.061c-.041.052-.103.077-.184.077-.256 0-.425-.092-.507-.277-.071-.185-.107-.436-.107-.754 0-.185.005-.339.015-.462.031-.267.358-1.657.982-4.172.491-1.97.737-3.001.737-3.094l-.215.37c-.205.39-.46.846-.767 1.37l-1.074 2.016a4.608 4.608 0 0 0-.338.539 5.509 5.509 0 0 0-.138.308c-.122.246-.368.6-.736 1.062a2.58 2.58 0 0 0-.215.293c-.051.112-.215.313-.491.6a8.817 8.817 0 0 1-.874.77c-.307.225-.563.338-.767.338-.277 0-.527-.133-.752-.4a1.496 1.496 0 0 1-.322-.97c0-.277.051-.739.153-1.385.164-.708.338-1.427.522-2.155a32.81 32.81 0 0 1 .383-1.432.963.963 0 0 0 .046-.308c0-.072-.01-.118-.03-.138-.011 0-.026.01-.046.03a24.82 24.82 0 0 0-.768 1.37c-.327.616-.68 1.34-1.058 2.171-1.463 2.699-2.301 4.172-2.516 4.418Zm19.308 0c-.236-.02-.497-.133-.783-.339-.276-.195-.419-.405-.429-.63l.03-.401c.195-.554.399-1.33.614-2.325.051-.194.102-.415.153-.661.062-.247.128-.508.2-.785.174-.657.491-1.72.951-3.187l.261-.847a321.618 321.618 0 0 0-4.511 5.834c-.255.35-.705.888-1.35 1.617-.644.728-1.079 1.17-1.304 1.324a.81.81 0 0 1-.475.138.915.915 0 0 1-.522-.154.563.563 0 0 1-.261-.415l-.015-.17c0-.39.107-.985.322-1.785.225-.811.506-1.755.844-2.833l.276-.877c.297-.975.649-1.935 1.059-2.879a.25.25 0 0 1-.016-.108c0-.092.036-.174.108-.246-.011-.04.041-.19.153-.446.123-.267.199-.436.23-.508.082-.164.154-.323.215-.477.072-.237.174-.411.307-.524a.71.71 0 0 1 .445-.17.73.73 0 0 1 .552.247c.164.164.245.37.245.616a1.2 1.2 0 0 1-.153.554 3.079 3.079 0 0 0-.215.477 2.83 2.83 0 0 1-.123.324 49.547 49.547 0 0 0-1.288 3.34 40.761 40.761 0 0 0-.982 3.171c.256-.318.527-.636.813-.954a39.41 39.41 0 0 0 1.212-1.447 96.177 96.177 0 0 1 3.989-5.065 7.77 7.77 0 0 1 .721-.754c.307-.277.562-.457.767-.539a.576.576 0 0 1 .261-.062c.235 0 .45.113.644.34.194.215.292.446.292.692a.66.66 0 0 1-.031.23l-.338.863c-.634 1.519-.951 2.39-.951 2.617 0 .113-.291 1.185-.874 3.217a96.652 96.652 0 0 0-.292 1.031c-.102.4-.194.842-.276 1.324a93.5 93.5 0 0 0-.199 1.386l-.276.246Zm4.337-3.371a.465.465 0 0 1-.138.015.582.582 0 0 1-.476-.23c-.112-.165-.168-.411-.168-.74 0-.256.046-.574.138-.954.143-.287.215-.503.215-.647.051-.174.133-.395.245-.661.113-.278.205-.488.276-.632.041 0 .082-.036.123-.107a.372.372 0 0 0 .077-.216c0-.092.015-.185.046-.277a.66.66 0 0 1 .122-.215c0-.031.021-.083.062-.155a.48.48 0 0 0 .061-.169c0-.02.01-.051.031-.092a.271.271 0 0 0 .046-.123c.184-.308.45-.888.798-1.74.347-.852.526-1.344.537-1.478.04-.236.132-.338.276-.308.051-.04.174-.061.368-.061.031.01.087.036.169.077a.687.687 0 0 1 .214.17.41.41 0 0 1 .123.26c.021.104.031.237.031.401a1.51 1.51 0 0 1-.138.508 7.33 7.33 0 0 1-.292.554 9.631 9.631 0 0 0-.23.416l-.199.37c-.164.287-.246.456-.246.507a.712.712 0 0 1-.076.231c-.052.103-.093.19-.123.262a3.56 3.56 0 0 0-.261.554c-.082.236-.123.38-.123.431-.01.02-.025.057-.046.108a.272.272 0 0 1-.076.138c-.031 0-.052.026-.062.078a.43.43 0 0 0-.015.092c0 .051-.026.154-.077.308a3.93 3.93 0 0 1-.215.508c-.347.995-.537 1.703-.567 2.124-.021.216-.072.37-.154.462a.861.861 0 0 1-.276.23Zm-.813 2.386a1.312 1.312 0 0 1-.491.123c-.153 0-.327-.072-.522-.216-.153-.153-.23-.308-.23-.461 0-.257.19-.514.568-.77.225-.144.389-.216.491-.216.072 0 .204.041.399.124.307.194.46.405.46.63 0 .288-.225.55-.675.786Z" fill="#1EA6F9"/></svg>