<svg width="366" height="326" fill="none" xmlns="http://www.w3.org/2000/svg"><circle opacity=".1" cx="182.5" cy="148.5" r="141.5" fill="#B5E3FF"/><ellipse opacity=".4" cx="183" cy="148.5" rx="109" ry="109.5" fill="#B5E3FF"/><path d="M110.402 279.21s4.322-42.085 3.816-46.219c-.505-4.133-15.586-13.656-4.23-39.192-14.85-17.744-17.747-27.19-14.054-31.109 3.694-3.919 15.664-10.716 35.633-7.241 23.097-16.06 52.033-26.853 90.639-17.621 10.284-6.721 24.828-8.65 32.629-5.343 7.801 3.307 7.985 13.258 5.548 24.097l-2.36 10.854s8.138 18.999 7.954 30.236c-.184 11.237-9.624 28.353-9.624 28.353s12.766 16.473 12.827 23.118c.062 6.644 1.886 18.065 1.104 18.937-.782.873-30.679 19.465-78.546 21.882-47.867 2.418-81.336-10.752-81.336-10.752Z" fill="#F5FCFF"/><path d="M106.418 209.102c.398.597 1.609 10.073 11.096 14.513a447.198 447.198 0 0 0 18.391 8.068l7.265 20.76s-4.598 9.889-5.656 17.345c-.626 5.15-.095 11.119 0 16.306 0 0-29.906-3.385-27.972-8.703-.399-4.073-.887-34.318 4.723-43.947 2.544-4.394-6.989-8.819-7.801-14.667a61.038 61.038 0 0 1-.046-9.675Zm159.268-7.894s-.858 10.717-9.41 13.488c-8.552 2.771-14.008 4.838-14.008 4.838s-18.775 15.309-18.391 17.744c.383 2.434-.399 4.592.812 5.342 1.211.751 12.567 13.213 14.253 22.475 1.686 9.262 1.63 16.164 1.63 16.164s12.088-4.257 18.034-6.769c5.945-2.512 9.223-4.182 12.427-7.253 0 0-8.351-38.288-12.427-39.696-4.077-1.409 5.839-12.049 6.651-15.065.812-3.016.429-11.268.429-11.268Zm-83.282-24.051c3.586-.183 26.576-11.405 43.802-9.262 17.227 2.144 38.223 15.31 38.99 14.789.49-.291-5.027-19.902-21.334-33.681-9.656-8.052-23.94-12.63-40.676-13.564-45.013-2.495-67.435 15.754-82.148 28.399a39.565 39.565 0 0 0-13.441 30.619s22.116-19.519 39.281-20.714c17.165-1.194 35.526 3.414 35.526 3.414Z" fill="#B5E3FF"/><path d="M130.234 183.893c-.996 3.506 4.245 8.191 10.498 6.813 6.253-1.378 9.748-2.786 9.411-6.813-.338-4.026-6.79-5.419-11.02-4.822-4.23.597-8.077 1.99-8.889 4.822Zm82.393-5.894c.597 3.062 6.881 4.164 13.165 2.128 6.544-2.128 9.318-7.654 3.862-9.446a16.556 16.556 0 0 0-14.131 1.041c-4.276 2.496-2.896 6.277-2.896 6.277Z" fill="#FFDCD9"/><path d="M172.288 234.445a21.973 21.973 0 0 1 12.936-5.067 23.85 23.85 0 0 1 14.559 2.939c1.426.873 2.728-1.378 1.303-2.25a26.078 26.078 0 0 0-16.138-3.261 24.736 24.736 0 0 0-14.499 5.787c-1.241 1.148.613 3.062 1.839 1.852Zm8.031-10.211a13.336 13.336 0 0 1 9.273-1.286 1.294 1.294 0 0 0 .989-.124 1.31 1.31 0 0 0 .612-.787 1.303 1.303 0 0 0-.912-1.6 16.051 16.051 0 0 0-11.28 1.531 1.306 1.306 0 0 0-.467 1.784 1.309 1.309 0 0 0 1.785.467v.015Z" fill="#76C1FF"/><path d="M109.651 194.579s-11.356-24.02-9.195-30.267c2.161-6.246 31.495-8.282 31.495-8.282s-3.066 7.486-8.506 11.482c-2.452 1.822-8.889.766-8.721 2.159a39.784 39.784 0 0 0 2.989 9.752l-8.062 15.156Zm109.582-55.205c7.188-2.113 29.119-6.721 33.717-3.782 3.525 2.297 7.479 34.6 2.253 37.57-2.943-1.041-7.97-7.563-10.054-13.932-.95-2.893-.215-12.125-1.533-12.401-4.383-.903-10.299 3.231-10.299 3.231s-18.314-9.431-14.084-10.686Zm-99.497 99.511c0 .613 2.835 8.681 7.877 11.298 5.043 2.618 13.487 2.557 15.541 1.807 3.832-1.378 8.813-16.978 9.027-19.397a20.098 20.098 0 0 1 2.023-5.894l6.514-.49s.521 0 .322-1.24c-.2-1.24-6.131-5.619-9.579-5.282-3.449.337-12.476 5.91-16.522 8.283-4.046 2.372-15.203 10.915-15.203 10.915Zm92.86-19.826c.123-1.225 2.299-4.945 13.595-2.939 6.743 1.194 19.464 3.659 26.575 12.89 1.533 1.929-4.889 7.915-8.92 10.931-4.03 3.016-13.41 2.664-13.41 2.664s-6.544-13.579-7.663-17.422c-1.119-3.843-3.065-5.343-5.425-6.017-2.361-.673-4.476 2.389-5.487 1.531-1.012-.857.735-1.638.735-1.638Zm-65.519-51.103c-4.245-1.531-2.927-8.696.613-11.926 3.541-3.23 8.598-6.874 13.135-4.455 4.536 2.419 1.824 10.716-1.303 13.334-3.126 2.618-9.195 4.21-12.445 3.047Zm48.967-21.479c2.774-4.011 10.499-1.944 15.541 2.312s6.13 8.068 2.023 10.609c-4.107 2.542-10.498 2.909-14.131 0-3.632-2.908-7.065-7.67-3.433-12.921Z" fill="#1EA6F9"/><path d="M106.678 191.549a62.662 62.662 0 0 0-1.916 17.468 45.064 45.064 0 0 0 3.402 17.024 32.834 32.834 0 0 0 4.905 8.098l-.246-1.975c-6.13 10.717-6.544 23.21-5.594 35.212.276 3.46.659 6.92 1.073 10.365a1.67 1.67 0 0 0 1.625 1.622 1.637 1.637 0 0 0 1.624-1.622c-1.348-11.498-2.743-23.577.368-34.906a38.92 38.92 0 0 1 3.709-8.971 1.683 1.683 0 0 0-.245-1.96c-7.05-8.496-8.2-20.361-7.142-30.94a54.46 54.46 0 0 1 1.532-8.604 1.615 1.615 0 0 0-.151-1.237 1.63 1.63 0 0 0-2.99.364l.046.062Zm115.175-54.885a110.431 110.431 0 0 0-36.782-2.863 102.64 102.64 0 0 0-35.741 9.186 87.477 87.477 0 0 0-18.161 11.451 1.638 1.638 0 0 0 0 2.312 1.671 1.671 0 0 0 2.299 0 88.061 88.061 0 0 1 32.001-16.289 110.806 110.806 0 0 1 37.073-3.537 93.777 93.777 0 0 1 18.392 2.878 1.623 1.623 0 0 0 .873-3.062l.046-.076ZM272 265.692c-.966-7.655-1.533-15.218-3.939-22.551-1.977-6.124-4.598-11.788-9.196-16.335l.246 1.975a61.515 61.515 0 0 0 6.345-47.107 70.366 70.366 0 0 0-5.61-14.146c-.981-1.853-3.801-.215-2.82 1.638a62.603 62.603 0 0 1 6.836 20.759 59.553 59.553 0 0 1-2.177 25.016 54.835 54.835 0 0 1-5.379 12.247 1.663 1.663 0 0 0 .245 1.975c4.322 4.226 6.621 9.523 8.445 15.203 2.237 6.95 2.82 14.161 3.724 21.433a1.671 1.671 0 0 0 1.625 1.623 1.655 1.655 0 0 0 1.64-1.623l.015-.107Z" fill="#070707"/><path d="M219.707 141.502a100.446 100.446 0 0 1 16.17-7.41c5.164-1.669 11.341-2.802 16.628-.934 4.491 1.531 6.039 6.736 6.483 11.038a53.978 53.978 0 0 1-.95 16.534 57.414 57.414 0 0 1-6.989 17.882 1.638 1.638 0 0 0 2.82 1.638 59.85 59.85 0 0 0 8.445-35.38c-.429-5.052-1.87-10.564-6.33-13.564a16.56 16.56 0 0 0-8.69-2.297 34.039 34.039 0 0 0-9.302 1.072c-7.05 1.76-13.564 5.205-19.924 8.588-1.886 1.057-.246 3.812 1.639 2.833Z" fill="#070707"/><path d="M235.524 151.973a29.22 29.22 0 0 1 4.491-2.388c.444-.199 1.195-.49 1.778-.689l.843-.276.398-.122h.353l-.813-.215a.911.911 0 0 1-.368-.643v.934l-.122 1.531-.245 3.062-.491 6.124a1.639 1.639 0 0 0 1.625 1.638 1.655 1.655 0 0 0 1.624-1.638l.567-7.012.276-3.398a3.472 3.472 0 0 0-.674-3.062 2.976 2.976 0 0 0-3.065-.199c-.736.229-1.533.505-2.192.811a32.443 32.443 0 0 0-5.487 2.802 1.669 1.669 0 0 0-.582 2.235 1.658 1.658 0 0 0 2.222.582l-.138-.077Zm-100.11 2.603a64.12 64.12 0 0 0-17.518-1.408 55.693 55.693 0 0 0-16.904 3.398 12.067 12.067 0 0 0-5.594 3.828 8.995 8.995 0 0 0-.813 8.007 71.929 71.929 0 0 0 6.483 15.309 79.401 79.401 0 0 0 11.142 15.31c1.426 1.53 3.74-.766 2.299-2.297a75.094 75.094 0 0 1-15.877-26.378c-.736-2.128-2.008-4.93-1.15-7.211a6.945 6.945 0 0 1 4.092-3.444 41.755 41.755 0 0 1 6.973-2.021 59.027 59.027 0 0 1 8.062-1.103 61.125 61.125 0 0 1 17.901 1.21c2.038.444 2.912-2.695.858-3.138l.046-.062Z" fill="#070707"/><path d="M123.859 168.247a19.186 19.186 0 0 0-7.342-.551 5.72 5.72 0 0 0-3.632 1.194c-.996 1.102-.368 2.526.107 3.705a27.857 27.857 0 0 0 7.434 10.717 1.703 1.703 0 0 0 2.314 0 1.668 1.668 0 0 0 0-2.312 24.094 24.094 0 0 1-4.368-4.976 25.268 25.268 0 0 1-1.671-2.939 18.747 18.747 0 0 1-.567-1.286c-.168-.429-.23-.582-.337-.857a3.798 3.798 0 0 1-.122-.398.809.809 0 0 1 0-.184v.168l-.414.72s-.322.076-.138 0c.183-.019.363-.06.536-.123.368-.076.751-.153 1.134-.199a14.502 14.502 0 0 1 2.008-.122c1.44.001 2.873.197 4.261.582a1.627 1.627 0 0 0 1.856-2.371 1.632 1.632 0 0 0-.983-.768h-.076Zm-4.001 70.837a231.74 231.74 0 0 1 17.885-13.166 255.968 255.968 0 0 1 9.38-5.956 10.747 10.747 0 0 1 4.598-1.883 6.042 6.042 0 0 1 3.509.888 19.446 19.446 0 0 1 6.131 7.073l.582-2.22a5.228 5.228 0 0 1-3.601.995c-1.533-.168-2.713-.826-4.2 0-2.283 1.164-3.617 4.21-4.26 6.553-1.364 4.883-.522 10.41-2.851 15.034a18.914 18.914 0 0 1-6.253 6.766c-1.701 1.179-.077 3.996 1.655 2.802a24.788 24.788 0 0 0 6.131-5.848 17.565 17.565 0 0 0 2.957-7.41c.445-2.572.552-5.175.92-7.747a12.82 12.82 0 0 1 2.498-6.613c.583-.674.797-.735 1.625-.506a8.782 8.782 0 0 0 2.375.322 8.332 8.332 0 0 0 4.598-1.454 1.655 1.655 0 0 0 .583-2.236c-3.204-5.358-8.399-11.681-15.434-8.91a32.64 32.64 0 0 0-5.073 2.771 165.2 165.2 0 0 0-5.165 3.261 186.882 186.882 0 0 0-10.023 6.92 266.42 266.42 0 0 0-10.866 8.344 1.618 1.618 0 0 0 0 2.296 1.671 1.671 0 0 0 2.299 0v-.076Zm112.019 2.71-10.422-20.377a6.404 6.404 0 0 0-2.896-3.46 5.27 5.27 0 0 0-3.556 0c-.88.388-1.808.656-2.759.796v-.336a3.344 3.344 0 0 1 .659-1.7c1.778-2.602 5.303-2.832 8.154-2.572a57.31 57.31 0 0 1 8.352 1.531c4.713 1.063 9.184 3 13.181 5.711a32.146 32.146 0 0 1 10.299 12.921 1.627 1.627 0 0 0 1.628.795 1.614 1.614 0 0 0 1.079-.627 1.628 1.628 0 0 0 .113-1.806 35.316 35.316 0 0 0-10.008-12.998 39.773 39.773 0 0 0-14.406-6.874 72.058 72.058 0 0 0-8.798-1.715c-3.632-.49-7.509-.382-10.513 1.96-2.284 1.791-4.721 6.384-1.426 8.481a4.21 4.21 0 0 0 3.541.23 9.878 9.878 0 0 1 3.065-.888c.12.039.234.096.337.168.256.26.459.567.598.904.506.964.996 1.959 1.532 2.939l3.066 6.047 6.375 12.462c.95 1.868 3.77.23 2.805-1.638v.046Zm-52.017-60.733c-.154 0-4.736-.765-4.874-4.455-.138-3.689 3.647-3.843 6.391-4.44 2.743-.597 5.487.643 5.487 3.522 0 2.878-3.479 5.373-3.479 5.373l.153 2.832s7.663 1.363 10.054 0c2.391-1.362 6.13-3.505 6.713-2.296.582 1.209-6.253 12.646-16.323 12.339-10.069-.306-20.276-5.832-18.897-8.42 1.38-2.587 5.947 1.225 9.196.46a43.12 43.12 0 0 0 5.487-1.685l.092-3.23Z" fill="#070707"/><path d="M174.695 189.788s.368 11.865 7.954 11.421c7.587-.444 7.663-13.258 7.663-13.258" fill="#FF729E"/><path d="M182.22 202.847a7.225 7.225 0 0 1-5.011-1.883c-3.862-3.522-4.138-10.717-4.154-11.069a1.655 1.655 0 0 1 1.533-1.684 1.682 1.682 0 0 1 1.686 1.531c0 1.714.72 6.629 3.065 8.787a4.09 4.09 0 0 0 3.065 1.057c5.962-.352 6.131-11.513 6.131-11.62a1.625 1.625 0 0 1 1.624-1.623 1.638 1.638 0 0 1 1.64 1.623c0 .582-.107 14.329-9.196 14.881h-.383Z" fill="#9C1633"/><path d="M182.465 195.437a1.64 1.64 0 0 1-1.624-1.531l-.307-3.904a1.63 1.63 0 0 1 3.249-.26l.307 3.903a1.618 1.618 0 0 1-.393 1.2 1.62 1.62 0 0 1-1.14.546l-.092.046Z" fill="#9C1633"/><path d="M188.535 188.348s-2.177 1.531-7.97 1.7c-4.598.122-6.483-.674-6.621-1.531-.23-1.393 5.809-3.537 9.043-3.537 12.674-.03 5.548 3.368 5.548 3.368Z" fill="#070707"/><path d="M207.109 169.211c.415 0 .751-.287.751-.642 0-.355-.336-.643-.751-.643-.414 0-.751.288-.751.643 0 .355.337.642.751.642Z" fill="#fff"/><path d="M182.281 175.305c1.18-.169 1.533.352 1.533.704s-.613.368-1.073.658c-.46.291 0 1.057-1.027 1.057s-1.302-.077-1.364-.674c-.061-.597.874-.26 1.211-.536.337-.275-.169-1.087.72-1.209Z" fill="#383838"/><path d="M155.246 180.265a4.963 4.963 0 0 0 4.966-4.96 4.963 4.963 0 0 0-4.966-4.96 4.963 4.963 0 0 0-4.965 4.96 4.963 4.963 0 0 0 4.965 4.96Z" fill="#070707"/><path d="M156.993 175.136a1.071 1.071 0 1 0 0-2.143 1.072 1.072 0 1 0 0 2.143Z" fill="#fff"/><path d="M205.424 176.055a4.964 4.964 0 0 0 4.966-4.96c0-2.74-2.224-4.96-4.966-4.96a4.962 4.962 0 0 0-4.966 4.96 4.963 4.963 0 0 0 4.966 4.96Z" fill="#070707"/><path d="M207.171 170.942a1.073 1.073 0 1 0 0-2.146 1.073 1.073 0 0 0 0 2.146ZM35.066 59.16c-3.136 28.046 40.91 40.987 66.564 43.514 35.879 4.012 46.195 2.095 55.183 1.565l20.331 18.261v-22.127c12.294-2.719 66.168-6.672 64.995-38.27-1.275-34.321-75.499-41.188-101.424-42.04-25.926-.852-101.493 1.92-105.65 39.097Z" fill="#fff"/><path d="M59.258 52.5c-.155 0-.316-.103-.482-.31-.166-.197-.248-.446-.248-.747 0-.238.056-.471.17-.7.208-.435.415-.787.622-1.056a1.56 1.56 0 0 0 .156-.265.721.721 0 0 0 .078-.295c.145-.187.336-.524.575-1.01.404-.654.98-1.66 1.726-3.017l.606-1.104c.31-.549.518-.876.622-.98l.077-.108c-.03.052.021-.067.156-.358.145-.29.295-.549.45-.777.167-.238.312-.357.436-.357.135 0 .29.057.466.17.177.104.327.265.451.483.135.207.203.456.203.746 0 .124-.006.223-.016.295l-.156 1.057-.077.342a109.39 109.39 0 0 1-.607 2.814c-.238 1.057-.357 1.695-.357 1.913 0 .062.01.114.03.155.022.031.047.047.079.047.02 0 .072-.031.155-.094a.917.917 0 0 0 .218-.31l.202-.311.264-.39c.29-.403.648-.947 1.073-1.631.425-.695 1.114-1.882 2.068-3.56.197-.291.357-.545.482-.763.165-.269.326-.523.481-.761.156-.239.275-.389.358-.451a.603.603 0 0 1 .389-.125c.155.01.316.068.482.171.176.104.321.25.435.436.124.186.187.388.187.606 0 .249-.078.705-.234 1.368a21.861 21.861 0 0 1-.513 1.928c-.041.218-.17.73-.388 1.54-.166.6-.29 1.077-.373 1.43a4.444 4.444 0 0 0-.11.855v.124c-.155.28-.233.84-.233 1.679-.04.342-.119.606-.233.793-.114.197-.207.295-.28.295l-.046-.015a.249.249 0 0 0-.156.062c-.041.052-.103.078-.186.078-.26 0-.43-.094-.513-.28-.073-.187-.11-.44-.11-.762 0-.187.006-.342.016-.466.032-.27.363-1.674.995-4.214.498-1.99.747-3.031.747-3.125l-.218.374c-.207.394-.466.855-.777 1.383l-1.09 2.038a4.652 4.652 0 0 0-.342.544c-.082.176-.13.28-.14.311-.124.249-.373.606-.746 1.073a2.558 2.558 0 0 0-.217.295c-.052.114-.218.316-.498.606-.28.28-.575.54-.886.778-.311.228-.57.342-.777.342-.28 0-.534-.135-.762-.404a1.51 1.51 0 0 1-.327-.98c0-.28.052-.746.156-1.4.166-.714.342-1.44.528-2.176.187-.736.317-1.218.389-1.446a.979.979 0 0 0 .047-.31c0-.073-.01-.12-.031-.14-.01 0-.026.01-.047.03a25.111 25.111 0 0 0-.777 1.384c-.332.622-.69 1.353-1.073 2.193-1.482 2.725-2.332 4.213-2.55 4.462Zm13.892-.295a1.892 1.892 0 0 1-.747-.233 7.044 7.044 0 0 1-.684-.42 64.174 64.174 0 0 1-.42-.295 2.016 2.016 0 0 1-.404-.56 3.648 3.648 0 0 1-.233-.808 2.022 2.022 0 0 1-.031-.327c0-.31.052-.69.155-1.135.114-.456.228-.808.342-1.057.228-.55.731-1.43 1.508-2.643l.078-.078c.021-.02.026-.03.016-.03v-.016c0-.073.15-.394.45-.964.177-.187.265-.348.265-.482a.28.28 0 0 0-.047-.171c-.03-.042.01-.13.125-.264a3.29 3.29 0 0 1 .466-.467 3.84 3.84 0 0 1 .653-.45c.28-.218.555-.327.824-.327a.39.39 0 0 1 .202.046c.062.021.099.057.109.11 0 .061.207.04.622-.063a5.47 5.47 0 0 1 .404-.078c.041-.052.145-.093.311-.124.176-.041.42-.083.73-.124.166.01.369.01.607 0 .249-.01.41-.021.482-.032.072-.02.176.026.31.14.146.114.26.26.343.436.02.062.031.108.031.14 0 .155-.098.29-.295.404-.197.104-.482.176-.855.218a23.02 23.02 0 0 0-2.099.373l-.327.062c-.321.052-.56.119-.715.202-.155.083-.321.264-.497.544-.073.052-.166.187-.28.404-.114.207-.228.425-.342.653l-.311.42a10.19 10.19 0 0 0-.451.637c-.052.094-.062.161-.031.203a5.485 5.485 0 0 0 .497.093 1.1 1.1 0 0 1 .389-.109 2.67 2.67 0 0 0 .358-.062l.342-.093a104.76 104.76 0 0 1 1.414-.358c.3-.073.524-.12.669-.14a.289.289 0 0 1 .186-.062c.114 0 .223.057.327.17a.91.91 0 0 1 .249.374c.041.145.062.238.062.28 0 .176-.104.31-.311.404-.207.083-.622.197-1.244.342a83.76 83.76 0 0 0-1.694.42c-.674.197-1.172.295-1.493.295-.27 0-.399-.088-.389-.264-.093-.052-.202.041-.326.28a4.328 4.328 0 0 0-.45 1.803c0 .135.015.249.046.342.093.249.233.461.42.638.186.166.445.295.777.388a4.324 4.324 0 0 0 .653.047c.207 0 .414-.041.622-.124.808-.135 1.378-.322 1.71-.56a.344.344 0 0 0 .14-.109c.052-.052.098-.078.14-.078l-.016.031c0 .01.031-.01.093-.062a3.74 3.74 0 0 1 .203-.186c.29-.25.611-.373.963-.373.125 0 .228.02.311.062.094.03.145.062.156.093.062.104.03.27-.094.498a2.9 2.9 0 0 1-.59.715 4.55 4.55 0 0 1-.87.653 6.166 6.166 0 0 1-1.711.59 9.305 9.305 0 0 1-1.803.218Zm7.845.824a4.454 4.454 0 0 0-.233-.047.904.904 0 0 0-.28-.015 1.063 1.063 0 0 1-.513-.264c-.155-.146-.218-.296-.187-.451.032-.031.058-.114.078-.249.02-.124.031-.238.031-.342.042-.114.088-.28.14-.498.062-.466.223-1.238.482-2.316.27-1.088.44-1.669.513-1.741l-.015-.171a1.214 1.214 0 0 1 .156-.498c.04-.124.072-.243.092-.357.031-.125.047-.218.047-.28.02-.031.093-.218.218-.56l.155-.435c.062-.197.145-.43.249-.7l.202-.528v-.078c.041-.052.156-.327.342-.824.093-.207.181-.42.264-.638.094-.228.187-.45.28-.668.031-.062.078-.15.14-.264.062-.114.093-.192.093-.234.042-.083.145-.124.311-.124.135 0 .27.031.404.093a.556.556 0 0 1 .28.25l.358.248-.529 1.135a17.9 17.9 0 0 0-.373.793c-.103.248-.155.394-.155.435-.02.072-.068.223-.14.45-.073.229-.15.488-.233.778-.042.145-.145.451-.311.917a1.932 1.932 0 0 0-.11.296c0-.042.56-.083 1.68-.125.187-.01.529-.026 1.026-.046.508-.031.824-.062.948-.093l.793-.11.373-1.383c.125-.508.327-1.223.607-2.145.135-.446.295-.788.482-1.027.186-.248.347-.373.482-.373.259 0 .471.187.637.56.124.104.187.223.187.358 0 .134-.078.336-.234.606-.134.249-.295.663-.481 1.244a3.597 3.597 0 0 1-.156.482v.062c0 .197-.047.342-.14.435-.031.031-.098.176-.202.435-.093.26-.14.41-.14.451a.72.72 0 0 1-.031.28.526.526 0 0 1-.109.218l-.295 1.244c-.187.787-.373 1.42-.56 1.896.01.052-.01.145-.062.28a1.153 1.153 0 0 0-.062.28c-.156.497-.228.777-.218.84-.052.238-.15.668-.295 1.29-.094.414-.14.627-.14.637-.01.021-.057.031-.14.031a1.46 1.46 0 0 1-.529-.108.988.988 0 0 1-.373-.342.79.79 0 0 1-.062-.793c.041-.073.12-.384.233-.933l.156-.669c.051-.166.108-.41.17-.73l.156-.7c.093-.539.156-.824.187-.855v-.156c-.031-.03-.218-.046-.56-.046-.352 0-.767.02-1.244.062-.477.031-.901.078-1.275.14l-.435.015c-.218 0-.358.006-.42.016-.103 0-.192.005-.264.016h-.14c-.041.093-.16.538-.358 1.337-.197.798-.31 1.31-.342 1.539a46.53 46.53 0 0 1-.326 1.523c-.114.55-.207.964-.28 1.244Zm9.559-.871a2.753 2.753 0 0 1-.467-.45c-.124-.166-.186-.317-.186-.451 0-.197.17-.337.513-.42 1.067-.26 2.265-1.3 3.591-3.125-.456-.249-.798-.508-1.026-.777-.228-.28-.394-.664-.497-1.15a2.98 2.98 0 0 1-.078-.623c.052-.072.078-.181.078-.326.01-.145.026-.249.046-.311l.342-1.01c.342-.985 1.296-1.747 2.86-2.286.509-.207.882-.295 1.12-.264l.202-.016a.88.88 0 0 1 .436-.03.47.47 0 0 1 .14-.016c.176 0 .373.056.59.17.228.104.42.239.576.405.166.166.248.331.248.497a.406.406 0 0 1-.015.125c-.104.3-.171.492-.202.575-.166.518-.3.902-.404 1.15-.28.684-.607 1.659-.98 2.923-.363 1.265-.57 2.187-.622 2.768-.083.227-.155.606-.217 1.134a6.93 6.93 0 0 1-.063.405c-.02.176-.046.32-.077.435-.031.135-.125.254-.28.357a.836.836 0 0 1-.467.156.481.481 0 0 1-.217-.047 1.482 1.482 0 0 1-.327-.233 9.447 9.447 0 0 1-.326-.31c.03-.115.067-.286.109-.514.041-.28.098-.508.17-.684.021-.218.068-.513.14-.886a2.61 2.61 0 0 0 .063-.327c.062-.331.124-.575.186-.73l.031-.249c-.145.238-.544.72-1.197 1.446a16.505 16.505 0 0 1-2.067 1.943c-.716.56-1.29.809-1.726.746Zm5.332-5.58c.488-1.545.902-2.919 1.244-4.12a4.101 4.101 0 0 0-1.4.419 3.546 3.546 0 0 0-1.15.902 2.334 2.334 0 0 0-.544 1.259 1.75 1.75 0 0 1-.077.373.446.446 0 0 0-.047.202c0 .208.083.41.249.606.176.197.357.296.544.296a.743.743 0 0 0 .389-.124c.134-.083.212-.13.233-.14l.56.326Zm10.717 6.327a.712.712 0 0 1-.234.062.467.467 0 0 1-.248-.078c-.301 0-.513-.02-.638-.062l.094.062c-.539-.104-1.063-.399-1.571-.886-.497-.487-.818-1-.964-1.54a5.582 5.582 0 0 1-.062-.295.837.837 0 0 1-.015-.264.811.811 0 0 1 .357-.544c.197-.145.415-.218.653-.218a.88.88 0 0 1 .28.047.845.845 0 0 1 .109.358c0 .062-.016.15-.047.264.156.528.446.943.871 1.244.425.3.912.45 1.461.45.456 0 .876-.114 1.26-.342a2.15 2.15 0 0 0 .87-.979c.042-.093.073-.202.094-.326a3.82 3.82 0 0 1 .093-.342.334.334 0 0 1 .062-.11c.01-.062.016-.16.016-.295 0-.352-.073-.689-.218-1.01-.135-.322-.332-.534-.591-.638a4.387 4.387 0 0 1-.42-.078 2.177 2.177 0 0 0-.528-.093.916.916 0 0 0-.202.016l-.249-.093a4.024 4.024 0 0 1-.435-.53 1.054 1.054 0 0 1-.14-.528c0-.145.031-.3.093-.466.072 0 .166-.016.28-.047.124-.03.217-.046.28-.046.518 0 .974-.13 1.368-.389.394-.26.694-.601.901-1.026a2.987 2.987 0 0 0 .296-1.788c-.218-.187-.498-.28-.84-.28-.383 0-.793.099-1.228.296-.425.186-.746.409-.964.668a1.225 1.225 0 0 1-.591-.202 1.596 1.596 0 0 1-.45-.498.93.93 0 0 1-.109-.59c.29-.373.673-.659 1.15-.855.487-.208 1-.311 1.539-.311.529 0 1.021.098 1.477.295.467.197.84.487 1.12.87.29.384.435.845.435 1.384 0 .208-.021.41-.062.607-.093.466-.306.932-.638 1.399a4.496 4.496 0 0 1-1.119 1.104c.487.27.86.658 1.119 1.166a3.45 3.45 0 0 1 .389 1.617c0 .456-.135.969-.404 1.539-.259.57-.56 1.01-.902 1.321a.976.976 0 0 1-.218.156 3.47 3.47 0 0 0-.233.14l-.202.14a7.803 7.803 0 0 1-1.104.42c-.3.093-.647.134-1.041.124Zm8.342-.871c-.156 0-.394-.062-.715-.187a4.797 4.797 0 0 1-.886-.466c-.28-.187-.462-.373-.545-.56l-.031-.062a2.15 2.15 0 0 1-.233-1.601l.078-.327c.093-.32.14-.585.14-.793a5.99 5.99 0 0 0 .233-.31 3.13 3.13 0 0 0 .202-.296.376.376 0 0 0 .031-.14v-.233c0-.072.026-.145.078-.218a.88.88 0 0 1 .155-.17.93.93 0 0 1 .125-.094l.062.016c.021 0 .098-.15.233-.451.135-.311.264-.638.389-.98.518-.953 1.098-1.746 1.741-2.378.643-.643 1.213-1.073 1.71-1.29.042-.011.119-.021.233-.032l.327-.03c.197.01.435.056.715.139.28.083.43.145.451.187 0 .041.01.067.031.077.031.01.052.016.062.016.093-.01.259.14.498.45.248.301.43.586.544.856.124.197.186.528.186.995 0 .394-.057.886-.171 1.477-.114.58-.228.995-.342 1.244a21.91 21.91 0 0 1-1.026 2.363c-.414.829-.793 1.254-1.135 1.275-.01 0-.02.01-.031.03-.01.01-.015.032-.015.063 0 .03-.14.166-.42.404-.27.238-.508.435-.715.59l-.296.11a4.444 4.444 0 0 1-.855.217c-.321.062-.59.099-.808.109Zm.015-1.415c.446 0 .767-.01.964-.03.197-.021.405-.089.622-.203.228-.124.472-.337.731-.637.104-.187.186-.311.249-.373.01-.021.093-.166.248-.436.156-.27.301-.404.436-.404 0-.052.041-.192.124-.42.083-.238.145-.373.187-.404.02-.01.072-.124.155-.342.083-.228.161-.477.233-.746.073-.27.109-.493.109-.669.187-.197.27-.305.249-.326a.285.285 0 0 1-.016-.062v-.156c0-.3.021-.456.063-.466.051-.021.077-.037.077-.047a.173.173 0 0 0-.062-.062.088.088 0 0 1-.031-.062c0-.01.016-.031.047-.063a.168.168 0 0 0 .046-.124c-.02-.259-.166-.71-.435-1.353a.87.87 0 0 1-.124-.108.385.385 0 0 0-.171-.125.357.357 0 0 0-.187-.046c-.041 0-.114.01-.218.03-.041-.04-.083-.061-.124-.061a.35.35 0 0 0-.109.015l-.078.031a1.4 1.4 0 0 0-.513.218 5.485 5.485 0 0 0-.497.497l-.264.28c-.083.28-.254.524-.513.73a1.068 1.068 0 0 0-.187.234 2.116 2.116 0 0 1-.187.233l-.093.187c-.228.373-.471.87-.731 1.492a25.232 25.232 0 0 0-.668 1.742c-.187.549-.28.896-.28 1.041 0 .29.093.524.28.7.197.176.42.275.668.295Zm7.86 2.099a2.083 2.083 0 0 1-.606-.529c-.135-.176-.202-.347-.202-.513 0-.217.108-.393.326-.528a.39.39 0 0 1 .171-.031c.104 0 .213.02.327.062a.589.589 0 0 1 .279.14c.27.249.591.373.964.373.166 0 .405-.036.716-.109.404-.124.72-.28.948-.466.238-.187.518-.477.839-.87.197-.26.342-.52.436-.778.103-.27.155-.513.155-.73 0-.24-.057-.426-.171-.56a2.063 2.063 0 0 0-.699-.622 1.732 1.732 0 0 0-.887-.218c-.3 0-.596.041-.886.124l-.901.187c-.042.01-.099.02-.171.03-.063 0-.156.151-.28.452a44 44 0 0 0-.638 1.71c-.217.611-.399 1.052-.544 1.321-.145.26-.275.39-.389.39-.124 0-.259-.115-.404-.343a8.946 8.946 0 0 0-.202-.31.88.88 0 0 1-.14-.452c0-.072.026-.16.078-.264a1.63 1.63 0 0 0 .124-.28c.042-.093.083-.223.125-.389.134-.404.523-1.41 1.166-3.016a142.415 142.415 0 0 1 1.523-3.638c.259-.59.337-.901.233-.932a.356.356 0 0 0-.046-.14c-.031-.063-.042-.11-.031-.14 0-.062.181-.156.544-.28.373-.124.627-.176.762-.156h.093c.135 0 .202-.026.202-.077.021 0 .114-.01.28-.031.176-.021.363-.021.56 0 .735.062 1.316.274 1.741.637.425.352.632.876.622 1.57-.021.27-.171.638-.451 1.104-.28.467-.586.85-.917 1.15a12.13 12.13 0 0 1-.98.762l.389.14c.487.187.865.415 1.135.684.269.27.461.638.575 1.104.021.104.031.197.031.28 0 .228-.041.487-.124.777a5.14 5.14 0 0 1-.249.762.984.984 0 0 0-.156.202l-.077.14c-.011.042-.104.202-.28.482a8.1 8.1 0 0 1-.466.653c-.685.58-1.249.954-1.695 1.12-.435.196-.954.295-1.555.295-.539 0-.938-.083-1.197-.249Zm1.119-6.452.622-.124c.311-.073.534-.135.669-.187l.186-.093c.114-.062.228-.15.342-.264.653-.612 1.109-1.161 1.369-1.648.259-.425.388-.726.388-.902a.507.507 0 0 0-.171-.358c-.197-.228-.523-.342-.979-.342-.197 0-.363.021-.498.063a.864.864 0 0 0-.326.155c-.062.052-.093.135-.093.249a.635.635 0 0 1-.078.28 1.056 1.056 0 0 1-.171.233.403.403 0 0 1-.094.186.875.875 0 0 1-.093.125c0 .02-.072.16-.217.42a8.55 8.55 0 0 0-.389.87c-.311.736-.467 1.182-.467 1.337Zm14.062-5.348c.187.052.342.16.467.327a.847.847 0 0 1 .14.808 2.607 2.607 0 0 1-.202.513l-.591 1.368c-.342.819-.55 1.285-.622 1.4-.259.528-.487.948-.684 1.259a36.008 36.008 0 0 1-1.104 1.803c-.093.145-.29.42-.591.824-.29.394-.492.658-.606.793-.176.26-.363.492-.56.7a24.09 24.09 0 0 1-.808.84l-.373.388a3.403 3.403 0 0 1-.436.45.561.561 0 0 1-.466.25.632.632 0 0 1-.342-.11c-.28-.176-.42-.367-.42-.575 0-.062.016-.134.047-.217.031-.073.217-.285.559-.638.343-.362.628-.648.856-.855.414-.477.673-.782.777-.917a6.35 6.35 0 0 1-.638-1.057c-.186-.404-.305-.726-.357-.964l-.264-1.368a1 1 0 0 0 0-.342 12.09 12.09 0 0 1-.031-.187l-.047-2.752.109-1.368v-.233c0-.135.036-.26.109-.373.072-.114.191-.171.357-.171.207-.031.42.057.638.264.217.197.326.4.326.607 0 .072-.016.14-.047.202a.414.414 0 0 0-.046.186v.187c0 .103-.005.186-.016.248-.021.208-.041.498-.062.871-.01.373-.016.757-.016 1.15 0 .312.006.514.016.607l.14 1.352c.01.218.078.555.202 1.011.135.446.264.83.389 1.15l.202-.264c.155-.176.259-.326.311-.45a4.79 4.79 0 0 1 .357-.638c.125-.187.208-.327.249-.42.114-.207.223-.394.327-.56.145-.228.243-.393.295-.497l1.01-1.912c.073-.239.151-.467.234-.684.093-.27.181-.555.264-.855.093-.301.155-.565.187-.793.062-.239.202-.358.419-.358h.14c.073-.01.14-.01.202 0Zm2.88 11.334c-.042.041-.083.062-.125.062-.052 0-.14-.031-.264-.093a.957.957 0 0 1-.466-.265.595.595 0 0 1-.187-.435c0-.041.021-.124.062-.249.093-.176.332-1.041.715-2.596l.265-1.026c0-.01.02-.171.062-.482.031-.156.078-.44.14-.855.124-.239.207-.498.249-.778.051-.29.082-.456.093-.497.072-.29.124-.472.155-.544l.14-.544.093-.358c.073-.259.109-.425.109-.497v-.25h-.575l-.249.016c-.166 0-.295-.005-.388-.015l-.544-.016c-.488-.02-.814-.067-.98-.14-.166-.082-.254-.238-.264-.466-.042-.207.062-.368.311-.482.248-.124.756-.176 1.523-.155a8.94 8.94 0 0 1 .591-.016c.249 0 .451.005.606.016.156.01.244.015.265.015a.354.354 0 0 0 .077-.124 1.95 1.95 0 0 0 .047-.125c0-.176.057-.285.171-.326.062-.135.192-.202.389-.202a.82.82 0 0 1 .342.078.611.611 0 0 1 .264.217.847.847 0 0 1 .031.28c0 .135.031.233.093.295.042-.041.177-.067.405-.077.228-.01.388-.021.482-.031.197 0 .399-.006.606-.016.207-.02.347-.031.42-.031.093-.052.238-.078.435-.078.093 0 .223.01.389.031.207 0 .357.047.451.14.093.083.176.182.248.296 0 .114.026.197.078.248.042.031.062.063.062.094 0 .02-.02.067-.062.14-.073.093-.259.14-.56.14l-.326.015c-.228.02-.394.031-.498.031-.456.093-.984.15-1.585.171-.425 0-.638.042-.638.124-.062 0-.181.337-.357 1.011-.063.249-.13.477-.203.684a2.395 2.395 0 0 1-.155.404.228.228 0 0 1 .047.14c0 .052-.031.166-.094.342a4.498 4.498 0 0 1-.108.342.71.71 0 0 0-.063.25 6.95 6.95 0 0 1-.093.31 5.336 5.336 0 0 0-.109.529c-.052.497-.119.787-.202.87a1.53 1.53 0 0 1-.078.125.446.446 0 0 0-.046.202c0 .145-.037.404-.109.777-.073.363-.13.56-.171.59.031 0 .047.032.047.094a.946.946 0 0 1-.094.327c0 .082-.015.181-.046.295a1.108 1.108 0 0 0-.047.233c-.104.29-.249.658-.435 1.104-.187.446-.301.69-.342.73Zm10.94-.047a1.322 1.322 0 0 1-.326.062.545.545 0 0 1-.451-.217c-.114-.145-.171-.363-.171-.653 0-.415.124-.954.373-1.617l.171-.513c.518-1.514.855-2.384 1.01-2.612a.997.997 0 0 0 .078-.389.59.59 0 0 1 .078-.233l.124-.249c.125-.228.187-.399.187-.513 0-.041.062-.249.186-.622.125-.383.249-.673.373-.87.063-.156.135-.306.218-.451.083-.156.124-.254.124-.296 0-.02-.114-.03-.342-.03-.321 0-.72.015-1.197.046-.466.031-.777.067-.932.109-.218.052-.348.072-.389.062-.052-.02-.13-.12-.233-.295-.104-.187-.156-.353-.156-.498 0-.124.042-.207.125-.249a1.43 1.43 0 0 1 .497-.202c.176-.03.42-.057.731-.078a7.78 7.78 0 0 0 .668-.062c.218 0 .42-.01.607-.03a3.78 3.78 0 0 1 .342-.047c.083 0 .186-.016.311-.047a4.13 4.13 0 0 1 .59-.078c.145 0 .291-.015.436-.046a3.34 3.34 0 0 1 .326-.032h.964c.135 0 .321-.02.56-.062.238-.041.451-.083.637-.124.28-.062.534-.093.762-.093.269 0 .492.051.668.155a.607.607 0 0 1 .327.42c.093.518-.689.824-2.348.917-.093.01-.274.026-.544.047-.259.02-.43.046-.513.078-.072.03-.109.077-.109.14 0 .062-.031.124-.093.186a.92.92 0 0 0-.109.124c-.083.031-.223.29-.42.778-.196.476-.295.772-.295.886l-.062.124a.361.361 0 0 0-.047.14 6.652 6.652 0 0 1-.342.715 65.492 65.492 0 0 1-.591 1.524l-.171.42a26.04 26.04 0 0 1-.497 1.539.537.537 0 0 1-.124.14.23.23 0 0 0-.063.17c0 .053-.15.467-.45 1.244-.301.778-.467 1.172-.498 1.182Zm9.22.171c-.487 0-.887-.031-1.197-.093a1.78 1.78 0 0 1-.809-.358c-.497-.373-.746-.927-.746-1.663 0-.311.057-.695.171-1.15.052-.27.109-.498.171-.685.072-.197.135-.295.186-.295l.109-.575a2.3 2.3 0 0 1 .062-.25 2.7 2.7 0 0 1 .078-.248.424.424 0 0 1 .093-.14c.042-.031.104-.17.187-.42 0-.02.005-.067.016-.14a.96.96 0 0 1 .077-.248c.156-.26.234-.43.234-.513a.853.853 0 0 1 .124-.187 1.11 1.11 0 0 0 .171-.326l.202-.358c.311-.55.534-.948.669-1.197.134-.26.217-.472.248-.638.031-.072.073-.202.125-.388.062-.187.129-.316.202-.389-.031-.062.072-.14.311-.233a7.45 7.45 0 0 1 .901-.264c.363-.083.684-.135.964-.156.063-.041.202-.072.42-.093.218-.02.461-.031.731-.031.186 0 .445.01.777.03.166 0 .306.022.42.063.124.031.233.073.326.125.094.04.161.072.202.093l.203.202c.124.104.186.212.186.326 0 .104-.067.192-.202.265-.031.03-.202.057-.513.077a14.1 14.1 0 0 1-.979.032c-.374 0-.783.046-1.229.14a1.963 1.963 0 0 1-.357.046 1.87 1.87 0 0 1-.467.078c-.176.01-.29.015-.342.015-.041 0-.186.197-.435.591-.238.394-.363.627-.373.7a.578.578 0 0 1-.093.295 8.425 8.425 0 0 1-.327.482c-.135.187-.202.363-.202.529 0 .103.031.166.093.186.332-.052.731-.098 1.197-.14a10.85 10.85 0 0 1 1.042-.078c.114-.03.207-.046.28-.046.145 0 .28.036.404.109.166.03.249.14.249.326 0 .083-.021.16-.062.233-.031.073-.073.12-.125.14-.093.094-.414.213-.964.358a31.11 31.11 0 0 1-1.694.404c-.591.114-.923.16-.995.14-.031-.072-.062-.109-.093-.109-.104 0-.234.342-.389 1.026-.187.415-.301.69-.342.824-.042.125-.104.42-.187.887a2.178 2.178 0 0 0-.062.388c0 .404.238.715.715.933.176.031.358.047.544.047.342 0 .757-.063 1.244-.187.042-.02.358-.197.948-.529.032 0 .109-.02.234-.062.134-.052.212-.078.233-.078a.372.372 0 0 1 .311-.17c.031 0 .098.051.202.155.104.104.197.228.28.373a.789.789 0 0 1 .124.42c0 .104-.155.233-.466.389a22.78 22.78 0 0 1-1.353.575 9.78 9.78 0 0 1-.917.357c-.176.052-.425.078-.746.078Zm15.523-9.981a.98.98 0 0 1 .016.218c0 .414-.223 1.43-.669 3.047l-.171.668-.202.84a7.038 7.038 0 0 1-.264 1.181c-.135.436-.311.96-.529 1.57-.196.55-.342.99-.435 1.322-.031.052-.078.16-.14.327a.889.889 0 0 1-.217.357c-.197.176-.384.265-.56.265a.636.636 0 0 1-.218-.047 1.095 1.095 0 0 1-.404-.264.518.518 0 0 1-.124-.358c0-.072.005-.13.015-.171.042-.073.176-.41.404-1.01a39.79 39.79 0 0 0 .498-1.369c.062-.352.14-.694.233-1.026.093-.331.181-.57.264-.715l.14-.715.156-.793a8.01 8.01 0 0 1 .233-.87l.544-2.472c-.985.04-1.492.077-1.523.108-.011.114-.135.451-.374 1.01-.228.56-.404.965-.528 1.214-.125.238-.228.45-.311.637-.083.176-.15.321-.202.435l-.187.435c-.093.29-.331.804-.715 1.54-.383.736-.72 1.331-1.011 1.788-.383.549-.823 1.13-1.321 1.74a4.773 4.773 0 0 1-.637.67c-.239.227-.431.372-.576.435a.66.66 0 0 1-.295.077c-.228 0-.435-.093-.622-.28a.965.965 0 0 1-.28-.668.658.658 0 0 1 .607-.435c.01 0 .145-.13.404-.389.259-.27.425-.446.497-.529.27-.3.633-.761 1.089-1.383.238-.342.58-.866 1.026-1.57l.28-.39.715-1.958.901-1.99a4.53 4.53 0 0 0-.497.233c-.674.322-1.151.482-1.43.482-.177 0-.306-.057-.389-.17a.872.872 0 0 1-.171-.53c0-.176.047-.336.14-.481a.685.685 0 0 1 .357-.311l1.773-.638a15.129 15.129 0 0 0 1.399-.45c.176-.011.43-.037.762-.078.331-.052.544-.094.637-.125 1.006-.03 1.643.498 1.912 1.586Zm3.906 9.857a6.48 6.48 0 0 1-1.228-.451c-.467-.207-.716-.379-.747-.513a.146.146 0 0 0-.062-.125.193.193 0 0 0-.14-.062v-.233c0-.073-.02-.12-.062-.14-.052-.104-.078-.254-.078-.45 0-.322.052-.726.156-1.213.114-.487.238-.923.373-1.306 0-.073.015-.166.047-.28a.932.932 0 0 0 .062-.218c.083-.238.249-.617.497-1.135.249-.518.456-.88.622-1.088 0-.031.036-.098.109-.202.083-.114.14-.228.171-.342.166-.166.389-.487.669-.964.362-.3.513-.57.45-.809.011-.217.099-.373.265-.466.176-.104.487-.207.932-.31.322-.125.653-.208.995-.25a12.5 12.5 0 0 1 1.353-.108 3.107 3.107 0 0 1 .529-.078c.031-.031.186-.016.466.047.29.051.549.14.777.264.239.114.353.243.342.388-.01.083-.243.192-.699.327a7.83 7.83 0 0 1-1.228.249l-.389.046c-.601.063-1.037.13-1.306.202a1.695 1.695 0 0 0-.715.374c-.218.186-.467.497-.746.932-.374.58-.56.975-.56 1.182 0 .135.072.202.218.202.093 0 .233-.01.419-.031a3.11 3.11 0 0 1 .42-.047c.052-.02.171-.062.358-.124.197-.062.414-.109.653-.14l.684-.14a2.12 2.12 0 0 1 .466-.078c.363 0 .544.125.544.373 0 .135-.067.28-.202.436-.124.155-.29.274-.497.357a9 9 0 0 1-.638.218c-.238.073-.388.109-.451.109a.612.612 0 0 1-.155.03 1.928 1.928 0 0 1-.28.017l-.7.093-.513.062c-.083.02-.279.072-.59.155-.311.083-.513.177-.607.28-.093.093-.181.249-.264.467-.135.31-.244.678-.326 1.103a5.937 5.937 0 0 0-.125 1.12c0 .321.047.529.14.622.228.259.586.388 1.073.388.259 0 .523-.036.793-.108.28-.083.523-.192.73-.327.197-.155.415-.275.653-.358a.455.455 0 0 1 .234-.093.32.32 0 0 1 .171.062.971.971 0 0 1 .171.11c.062.04.114.077.155.108a.598.598 0 0 1 .124.358c0 .342-.435.694-1.306 1.057a14.99 14.99 0 0 1-1.166.357c-.29.073-.554.11-.792.11l-.249-.016Zm14.209.108c-.041.042-.15.063-.326.063-.228 0-.441-.057-.638-.171-.186-.104-.279-.285-.279-.544 0-.145.036-.306.108-.482.353-.913.84-2.301 1.462-4.167.083-.28.217-.69.404-1.228 0 .02.114-.337.342-1.073.166-.487.29-.891.373-1.213.093-.331.166-.673.218-1.026a2.15 2.15 0 0 0-.451-.046h-.28c-.186 0-.326-.01-.42-.031a3.071 3.071 0 0 0-.528-.031 10.107 10.107 0 0 0-1.291.077 4.12 4.12 0 0 1-.373.016l-.124.062-.233.56c-.052.124-.12.28-.202.466-.083.187-.171.404-.265.653a5.547 5.547 0 0 1-.186.42l-.14.31-.202.405-.234.59-.248.592a36.7 36.7 0 0 1-.405.917 36.502 36.502 0 0 0-1.383 3.67 7.162 7.162 0 0 0-.093.388 1.687 1.687 0 0 1-.14.42.55.55 0 0 1-.249.28.684.684 0 0 1-.358.092.968.968 0 0 1-.466-.108 1.199 1.199 0 0 1-.342-.25.453.453 0 0 1-.109-.31c0-.104.021-.218.062-.342.487-1.607 1.042-3.042 1.664-4.307a8.53 8.53 0 0 0 .264-.59c.093-.228.161-.4.202-.513.197-.54.353-.913.467-1.12.352-.674.642-1.352.87-2.036-.052.041-.14.062-.264.062-.093 0-.218-.01-.373-.031a1.74 1.74 0 0 0-.342-.047 1.167 1.167 0 0 1-.296-.389 1.354 1.354 0 0 1-.109-.513c0-.145.032-.27.094-.373a.49.49 0 0 1 .155-.186.412.412 0 0 1 .233-.063h1.198a.483.483 0 0 0 .295-.124c.01-.01.047-.036.109-.078a.442.442 0 0 1 .249-.062c.041 0 .114.01.217.031.156.052.332.078.529.078.166 0 .388-.026.668-.078a2.98 2.98 0 0 1 .684-.062l.591.016c.114.01.264.015.451.015.073 0 .161.01.264.031.114.021.208.037.28.047.083.01.228.015.435.015.353.01.653.037.902.078.249.031.441.099.575.202.094.073.182.171.265.296a.545.545 0 0 1 .124.31c0 .084-.166.7-.497 1.85-.322 1.14-.519 1.783-.591 1.928-.197.508-.487 1.374-.871 2.597l-.497 1.523a10.61 10.61 0 0 0-.171.529 29.18 29.18 0 0 1-.42 1.197c-.145.415-.264.684-.358.809Zm5.101-.155a1.897 1.897 0 0 1-.746-.233 6.983 6.983 0 0 1-.684-.42l-.42-.295a2.013 2.013 0 0 1-.404-.56 3.649 3.649 0 0 1-.233-.808 1.988 1.988 0 0 1-.031-.327c0-.31.052-.69.155-1.135.114-.456.228-.808.342-1.057.228-.55.731-1.43 1.508-2.643l.078-.078c.021-.02.026-.03.016-.03v-.016c0-.073.15-.394.45-.964.177-.187.265-.348.265-.482a.28.28 0 0 0-.047-.171c-.031-.042.01-.13.124-.264a3.25 3.25 0 0 1 .467-.467 3.84 3.84 0 0 1 .653-.45c.28-.218.554-.327.824-.327a.39.39 0 0 1 .202.046c.062.021.098.057.109.11 0 .061.207.04.622-.063a4.94 4.94 0 0 1 .404-.078c.041-.052.145-.093.311-.124.176-.041.42-.083.73-.124.166.01.368.01.607 0 .249-.01.409-.021.482-.032.072-.02.176.026.311.14.145.114.259.26.342.436a.52.52 0 0 1 .031.14c0 .155-.099.29-.296.404-.196.104-.482.176-.855.218a22.954 22.954 0 0 0-2.098.373l-.327.062c-.321.052-.56.119-.715.202-.156.083-.321.264-.498.544-.072.052-.165.187-.279.404-.114.207-.228.425-.342.653l-.311.42a10.19 10.19 0 0 0-.451.637c-.052.094-.062.161-.031.203a5.452 5.452 0 0 0 .497.093c.093-.052.223-.088.389-.109.166-.02.285-.041.357-.062l.342-.093c.643-.166 1.115-.285 1.415-.358.301-.073.524-.12.669-.14a.289.289 0 0 1 .186-.062c.114 0 .223.057.327.17a.901.901 0 0 1 .248.374c.042.145.063.238.063.28 0 .176-.104.31-.311.404-.208.083-.622.197-1.244.342-.902.218-1.467.358-1.695.42-.673.197-1.171.295-1.492.295-.27 0-.399-.088-.389-.264-.093-.052-.202.041-.326.28a4.327 4.327 0 0 0-.451 1.803c0 .135.015.249.047.342.093.249.233.461.419.638.187.166.446.295.778.388a4.317 4.317 0 0 0 .653.047c.207 0 .414-.041.621-.124.809-.135 1.379-.322 1.711-.56a.353.353 0 0 0 .14-.109c.051-.052.098-.078.139-.078l-.015.031c0 .01.031-.01.093-.062a3.71 3.71 0 0 1 .202-.186c.291-.25.612-.373.964-.373.125 0 .228.02.311.062.093.03.145.062.156.093.062.104.031.27-.094.498-.124.227-.321.466-.59.715a4.59 4.59 0 0 1-.871.653 6.17 6.17 0 0 1-1.71.59 9.306 9.306 0 0 1-1.804.218Zm2.799-12.142a.914.914 0 0 1-.233-.373c-.063-.176-.083-.295-.063-.358.031-.114.088-.259.171-.435a1.22 1.22 0 0 1 .327-.45.69.69 0 0 0 .124-.125c.052-.062.104-.099.156-.11a.48.48 0 0 1 .264-.092c.207 0 .399.155.575.466.083.187.125.332.125.435a.717.717 0 0 1-.109.358 2.558 2.558 0 0 1-.327.435c-.217.29-.425.435-.622.435-.134 0-.264-.062-.388-.186Zm2.41 0a.925.925 0 0 1-.234-.373c-.062-.176-.083-.295-.062-.358.031-.114.088-.259.171-.435a1.22 1.22 0 0 1 .327-.45.69.69 0 0 0 .124-.125.297.297 0 0 1 .155-.11.485.485 0 0 1 .265-.092c.207 0 .399.155.575.466.083.187.124.332.124.435a.715.715 0 0 1-.108.358 2.613 2.613 0 0 1-.327.435c-.218.29-.425.435-.622.435-.135 0-.264-.062-.388-.186Zm3.321 12.562a3.71 3.71 0 0 1-.933-.498 1.908 1.908 0 0 1-.637-.824c-.166-.466-.249-1.015-.249-1.648 0-.611.036-1.13.109-1.554.072-.436.197-.876.373-1.322l.14-.326c.166-.425.285-.705.357-.84.177-.404.488-.927.933-1.57.415-.622.741-1.083.98-1.384a5.51 5.51 0 0 1 .762-.793c.259-.228.637-.513 1.134-.855.301-.217.669-.326 1.104-.326.342 0 .653.083.933.249.29.165.508.425.653.777.104.176.155.42.155.73 0 .498-.119 1.037-.357 1.617-.238.58-.524 1.021-.855 1.322a.4.4 0 0 1-.296.109.91.91 0 0 1-.404-.109 1.707 1.707 0 0 1-.388-.264 3.509 3.509 0 0 1-.156-.311c-.01-.031.01-.052.062-.062.094-.114.228-.332.404-.653.187-.332.311-.591.374-.778l.093-.435c.062-.27.093-.446.093-.529a.341.341 0 0 0-.109-.248.167.167 0 0 0-.124-.047c-.083 0-.228.052-.435.155-.239.104-.524.317-.855.638a8.77 8.77 0 0 0-.964 1.12 23.46 23.46 0 0 0-1.104 1.538 5.665 5.665 0 0 0-.575 1.229l-.171.404c.01.041-.006.145-.047.31a1.963 1.963 0 0 1-.14.405 7.028 7.028 0 0 0-.218 1.632c0 .384.037.715.109.995.083.28.197.488.342.622.083.073.202.11.358.11.166 0 .352-.037.56-.11.217-.083.445-.176.684-.28l.497-.217a4.5 4.5 0 0 0 .669-.327 2.34 2.34 0 0 0 .482-.342c.269-.197.487-.295.653-.295.134-.042.238 0 .31.124.083.125.125.296.125.513 0 .145-.099.322-.296.529-.197.197-.43.373-.699.528-.114.114-.368.25-.762.405-.332.238-.72.45-1.166.637-.435.187-.834.28-1.197.28-.083 0-.187-.01-.311-.031Zm5.211.311c-.217 0-.373-.088-.466-.264 0-.063.021-.125.062-.187a.966.966 0 0 1 .171-.187c.249-.238.524-.642.824-1.212.052-.156.135-.462.249-.918 0-.207.026-.336.078-.388.186-.156.331-.233.435-.233.238 0 .404.28.498.84.02.144.031.248.031.31 0 .27-.099.601-.296.995-.041.104-.186.3-.435.59-.238.291-.378.436-.42.436-.041 0-.088.02-.14.062a1.47 1.47 0 0 0-.093.078c-.031.031-.093.052-.187.062a2.82 2.82 0 0 1-.311.016ZM47.31 72.012a1.12 1.12 0 0 1-.248-.171.313.313 0 0 1-.062-.202c0-.104.041-.25.124-.436.094-.197.25-.502.467-.917.062-.135.181-.373.357-.715.446-.85.669-1.477.669-1.881a.216.216 0 0 1-.016-.094c0-.103.083-.197.25-.28.03-.03.139-.119.326-.264a1.76 1.76 0 0 0 .466-.497c.135-.311.306-.653.513-1.026.207-.384.565-1.006 1.073-1.866a19.505 19.505 0 0 1 1.586-2.472 1.34 1.34 0 0 1 .342-.342c.134-.083.248-.124.342-.124.32 0 .647.124.979.373.342.249.565.497.669.746.041.073.062.228.062.466 0 .322-.037.866-.11 1.633-.02.135-.04.347-.061.637-.031.467-.078.964-.14 1.493a156.55 156.55 0 0 0-.249 2.72 23.277 23.277 0 0 0-.078 1.835c0 .29.006.503.016.638v.108l-.016.358c-.062.062-.186.093-.373.093-.207 0-.414-.036-.622-.109-.207-.062-.321-.14-.342-.233a.183.183 0 0 0-.046-.031c-.021-.01-.032-.057-.032-.14l.016-.342.047-.87.078-2.38-.203.016c-.207 0-.647.042-1.321.125-.664.083-1.083.15-1.26.202-.093 0-.207.062-.341.186a1.767 1.767 0 0 0-.358.482 2.376 2.376 0 0 1-.218.451c-.114.187-.17.296-.17.327a.668.668 0 0 0-.172.17 1.49 1.49 0 0 0-.077.125c0 .114-.104.41-.311.886a7.26 7.26 0 0 1-.591 1.15l-.42.591-.544-.42Zm3.717-5.348.435-.063c.218-.041.41-.067.575-.077.498-.125.84-.187 1.026-.187.104 0 .176.01.218.031a.395.395 0 0 0 .093.094c.042.01.068.015.078.015.02-.083.104-.648.249-1.695.145-1.046.217-1.689.217-1.927a4.74 4.74 0 0 0-.015-.42 1.369 1.369 0 0 0-.031-.233c-.094 0-.306.248-.638.746a14.406 14.406 0 0 0-.964 1.663c-.238.425-.404.638-.497.638-.073.072-.228.316-.467.73-.238.415-.331.643-.28.685Zm18.095-4.369a.312.312 0 0 1-.078.28c-.062.072-.207.17-.435.295-.466.228-.73.4-.793.513a9.13 9.13 0 0 1-.358.264c-.176.135-.398.301-.668.498-.404.27-.757.523-1.057.762-.29.238-.482.42-.575.544a.266.266 0 0 0-.125.047c-.041.03-.078.041-.109.03a1.51 1.51 0 0 0-.14.094.716.716 0 0 0-.155.14.822.822 0 0 1-.155.249.254.254 0 0 1-.234.093c-.155.083-.425.275-.808.575.093.726.29 1.363.59 1.912.301.664.607 1.15.918 1.462.218.238.42.425.606.56.197.134.347.202.451.202.093.03.223.103.389.217s.254.208.264.28a1.12 1.12 0 0 1-.062.59.549.549 0 0 1-.233.327.387.387 0 0 1-.28.125c-.104 0-.275-.052-.513-.156-.166.01-.451-.145-.855-.466-.404-.321-.715-.617-.933-.886-.28-.404-.523-.772-.73-1.104a4.225 4.225 0 0 1-.452-1.088 6.071 6.071 0 0 0-.248-.84 5.043 5.043 0 0 1-.11-.373l-.046.124c-.01.031-.078.202-.202.513-.114.311-.28.86-.497 1.648a65.648 65.648 0 0 1-.498 1.57c-.145.425-.264.71-.358.856-.082.155-.165.233-.248.233-.083 0-.187-.047-.311-.14-.332-.187-.498-.394-.498-.622a.84.84 0 0 1 .031-.187c-.01-.134 0-.264.032-.388.03-.124.046-.197.046-.218.073 0 .109-.083.109-.249 0-.082.047-.264.14-.544l.14-.482.186-.45c.114-.29.171-.446.171-.467 0-.135.068-.306.203-.513a3.81 3.81 0 0 0 .108-.404c.031-.145.047-.264.047-.358a6.51 6.51 0 0 1 .171-.357c.093-.187.16-.374.202-.56.01-.052.026-.109.047-.171.03-.062.062-.14.093-.233l.513-1.4.233-.528c.021-.052.088-.213.202-.482.125-.27.208-.404.25-.404v-.171c0-.042.056-.176.17-.404l.187-.374c.083-.134.145-.264.186-.388.052-.135.083-.223.093-.265.01-.02.032-.057.063-.108a.727.727 0 0 1 .108-.14c.084-.063.187-.114.311-.156.135-.052.254-.078.358-.078.176 0 .295.068.358.203.124.248.186.456.186.621a.548.548 0 0 1-.093.311c-.218.446-.477 1-.777 1.664a25.346 25.346 0 0 0-.669 1.555l.109-.078c.27-.27.7-.627 1.29-1.073l1.913-1.554c.29-.146.632-.374 1.026-.685.103-.062.186-.119.248-.17a.871.871 0 0 1 .156-.11c.062-.051.186-.14.373-.264.186-.135.306-.197.358-.186.072-.031.165.01.28.124.113.114.207.254.28.42.082.166.118.29.108.373Zm5.376 10.556a.709.709 0 0 1-.233-.062.695.695 0 0 1-.233-.14c-.124-.124-.187-.31-.187-.56 0-.56-.01-.927-.03-1.103l-.016-.933c0-.239.015-.384.046-.435a1.283 1.283 0 0 1-.015-.234c0-.093.005-.202.015-.326.021-.135.031-.239.031-.311l-.062-.42h-.84c-.061.01-.196.016-.404.016-.28 0-.948-.031-2.005-.094l-.202.327c-.01.01-.062.078-.156.202-.082.124-.17.31-.264.56a10.32 10.32 0 0 1-.373.855c-.145.321-.28.57-.404.746-.156.29-.3.503-.435.637-.125.135-.218.203-.28.203h-.078a.501.501 0 0 1-.187-.032.625.625 0 0 1-.186-.108c-.28-.125-.42-.311-.42-.56 0-.176.083-.384.249-.622l.202-.326c0-.063.15-.39.45-.98.312-.601.514-.922.607-.964.093-.093.14-.186.14-.28 0-.103-.062-.207-.187-.31a.263.263 0 0 1-.108-.125.634.634 0 0 1-.032-.202c0-.145.052-.27.156-.373.104-.104.264-.15.482-.14.052-.031.098-.057.14-.078.052-.02.088-.036.109-.047.03-.02.046-.046.046-.077 0-.052.083-.239.249-.56a4.81 4.81 0 0 1 .466-.746 4.15 4.15 0 0 1 .265-.606 1.7 1.7 0 0 0 .155-.265c.052-.052.156-.223.311-.513.02-.03.088-.145.202-.342a3.79 3.79 0 0 0 .311-.357l.218-.28c.041-.073.104-.16.186-.265a2.15 2.15 0 0 1 .28-.45l.249-.342a1.82 1.82 0 0 1 .56-.451c.217-.125.42-.187.606-.187a.67.67 0 0 1 .264.047c.26.114.487.326.684.637.197.311.311.674.342 1.089l.063.481c.041.25.062.467.062.653a.948.948 0 0 1-.047.327v.684c0 .342.01.596.031.762-.03.114-.046.3-.046.56l.015.606c0 .155-.005.285-.015.388l-.016.576-.016.575c-.01.259-.015.586-.015.98l.016 1.228c0 .704-.063 1.217-.187 1.539-.114.321-.29.497-.529.528Zm-3.14-5.814a5.69 5.69 0 0 1 1.057-.062c.29-.021.482-.031.575-.031.135 0 .27.005.404.015a.996.996 0 0 0 .25-.016c.196.01.295-.17.295-.544a27.893 27.893 0 0 1-.11-2.363l.016-.482a3.22 3.22 0 0 0-.046-.528 8.519 8.519 0 0 0-.047-.373c-.041-.052-.192.119-.45.513a26.16 26.16 0 0 0-.638 1.057 3.137 3.137 0 0 0-.249.435 5.723 5.723 0 0 0-.17.296c-.053.114-.12.238-.203.373-.508.808-.762 1.326-.762 1.554 0 .073.026.125.078.156Zm12.849 5.223c-.228 0-.534-.056-.918-.17-.383-.104-.642-.296-.777-.576l-.264-.295c-.29-.311-.451-.492-.482-.544l-.498-.498a29.38 29.38 0 0 1-.575-.56 4.795 4.795 0 0 1-.404-.513c-.125-.124-.275-.342-.451-.653a2.294 2.294 0 0 0-.202-.31c-.062-.104-.12-.166-.171-.187-.114.083-.197.275-.249.575-.104.218-.218.586-.342 1.104a4.595 4.595 0 0 0-.218.606c-.051.208-.088.348-.108.42-.104.29-.182.461-.234.513l-.14.606c-.103.53-.259.793-.466.793-.135 0-.326-.108-.575-.326l-.218-.342c-.135-.197-.202-.306-.202-.327a7.84 7.84 0 0 0 .109-.31c.052-.166.114-.369.186-.607l.265-.824c.404-1.202.663-2.042.777-2.518a.237.237 0 0 0 .062-.125.878.878 0 0 0 .016-.17c.103-.312.275-.778.513-1.4.238-.632.42-1.047.544-1.244a.66.66 0 0 0 .062-.186.964.964 0 0 0 .016-.125c0-.041.01-.077.03-.108a.23.23 0 0 1 .11-.063c0-.135.026-.233.077-.295.073-.156.228-.58.467-1.275.248-.694.373-1.062.373-1.104 0-.052.02-.103.062-.155.042-.052.067-.083.078-.093.083-.073.223-.11.42-.11.176 0 .352.042.528.125a.826.826 0 0 1 .404.295c0 .073-.02.182-.062.327-.03.135-.078.28-.14.435l-.295.669c-.02.072-.083.254-.187.544-.093.28-.212.617-.357 1.01a12.23 12.23 0 0 0-.513 1.15c-.125.332-.166.52-.125.56.073-.051.228-.18.467-.388.249-.218.513-.461.793-.73.56-.57 1.145-1.079 1.756-1.524.767-.519 1.25-.835 1.446-.949a1.26 1.26 0 0 1 .544-.186.455.455 0 0 1 .171-.031c.042 0 .094.02.156.062.062.041.124.078.187.109.03.062.062.17.093.326.041.145.067.244.078.296.01.103-.052.233-.187.388-.124.145-.3.275-.529.389a40.483 40.483 0 0 0-2.752 1.881c-1.015.746-1.575 1.244-1.678 1.493-.052.062-.063.119-.032.17.031.052.094.125.187.218.104.083.192.156.264.218.135.166.239.3.311.404.083.093.135.156.156.187 0 .062.342.42 1.026 1.072.02.052.124.182.31.389.27.29.457.523.56.7.674.704 1.01 1.223 1.01 1.554 0 .156-.087.233-.263.233Zm16.263-9.965c0 .052-.016.088-.047.109-.031.01-.046.02-.046.03 0 .011.02.032.062.063l-.109.513c-.041.218-.13.653-.264 1.306a46.64 46.64 0 0 0-.28 1.586l-.218 1.663c-.093.736-.16 1.301-.202 1.695-.031.394-.046.808-.046 1.244 0 .497.015.875.046 1.135.042.27.062.425.062.466 0 .062-.072.155-.217.28a.724.724 0 0 1-.482.186.626.626 0 0 1-.591-.342c-.125-.217-.197-.56-.218-1.026 0-.694.052-1.622.156-2.783.03-.072.046-.212.046-.42a.945.945 0 0 0-.03-.28 1.452 1.452 0 0 1 .046-.434 1.785 1.785 0 0 0 .047-.374c0-.052.02-.16.062-.326a1.5 1.5 0 0 0 .093-.435v-.109a3.8 3.8 0 0 0 .093-.342c.042-.145.063-.234.063-.265a.9.9 0 0 1-.016-.217.59.59 0 0 0-.031-.233 8.1 8.1 0 0 0 .218-.809l.186-.746c-.01 0-.124.207-.342.622a9.44 9.44 0 0 1-.762 1.228 9.614 9.614 0 0 1-.7.995l-.373.482a28.69 28.69 0 0 1-.388.497 1.933 1.933 0 0 0-.249.436c-.218.539-.472.933-.762 1.181-.28.249-.565.389-.855.42l-.248.031h-.094c-.197 0-.363-.13-.497-.389-.125-.259-.187-.74-.187-1.445l.016-.42.046-.87a8.13 8.13 0 0 0 .078-.871c.02-.415.036-.69.047-.824-.052.051-.145.243-.28.575-.124.331-.202.544-.233.637l-.14.358c-.052.072-.13.27-.234.59-.082.239-.196.53-.341.871a18.139 18.139 0 0 1-.622 1.773c-.083.176-.166.367-.25.575a8.36 8.36 0 0 0-.186.497 7.66 7.66 0 0 1-.28.669c-.445 1.005-.818 1.508-1.119 1.508-.166 0-.332-.088-.497-.264a.78.78 0 0 1-.234-.545c0-.145.057-.336.171-.575.114-.248.28-.57.498-.964l.326-.606c0-.052.125-.404.373-1.057l.218-.575.964-2.55.016-.062.093-.234c.031-.082.088-.207.17-.373.146-.331.219-.523.219-.575v-.031c0-.031.01-.052.03-.062a.256.256 0 0 1 .063-.016c.041-.114.114-.29.217-.528.114-.249.203-.436.265-.56l-.016-.062a.56.56 0 0 1 .047-.249c.041-.062.083-.12.124-.17.052-.053.094-.1.125-.14 0-.063.03-.146.093-.25a3.14 3.14 0 0 1 .218-.342 3.47 3.47 0 0 0 .326-.513.51.51 0 0 1 .482-.295.74.74 0 0 1 .466.187c.156.124.285.264.39.42.103.144.155.243.155.295 0 .03-.016.051-.047.062-.031.01-.047.036-.047.078v.062a.991.991 0 0 1-.062.56c-.093.362-.14.761-.14 1.197l.016.45c0 .083-.021.145-.063.187a2.39 2.39 0 0 0-.077.109v.03l-.016.125.016.094a.988.988 0 0 1-.078.342 4.522 4.522 0 0 0-.093.388 8.774 8.774 0 0 0-.062 1.057c0 .54.046.835.14.887l1.119-1.664c.953-1.41 1.435-2.13 1.446-2.16a.577.577 0 0 0 .202-.234c-.01 0-.016-.01-.016-.031 0-.052.135-.275.404-.669.27-.404.56-.767.871-1.088.311-.332.565-.498.762-.498.093 0 .218.063.373.187.166.124.311.28.435.466.125.177.187.343.187.498Zm3.891 9.639c-.156 0-.394-.062-.715-.187a4.785 4.785 0 0 1-.886-.466c-.28-.187-.462-.373-.545-.56l-.031-.062a2.15 2.15 0 0 1-.233-1.601l.078-.327c.093-.321.14-.585.14-.792.052-.063.129-.166.233-.311a3.09 3.09 0 0 0 .202-.296.376.376 0 0 0 .031-.14v-.233c0-.073.026-.145.078-.218a.88.88 0 0 1 .155-.17.916.916 0 0 1 .125-.094l.062.016c.021 0 .098-.15.233-.451.135-.311.264-.638.389-.98.518-.953 1.098-1.746 1.741-2.378.643-.643 1.213-1.073 1.71-1.29.042-.011.119-.021.233-.032l.327-.03c.197.01.435.056.715.139.28.083.43.145.451.187 0 .041.01.067.031.077.031.01.052.016.062.016.094-.01.259.14.498.45.248.301.43.586.544.856.124.197.186.528.186.995 0 .394-.057.886-.171 1.477-.114.58-.228.995-.342 1.243a21.911 21.911 0 0 1-1.026 2.364c-.414.829-.793 1.254-1.135 1.274-.01 0-.02.01-.031.032-.01.01-.015.03-.015.062 0 .03-.14.165-.42.404-.27.238-.508.435-.715.59l-.296.11a4.443 4.443 0 0 1-.855.217c-.321.062-.59.099-.808.109Zm.015-1.415c.446 0 .767-.01.964-.03.197-.022.405-.089.622-.203.228-.124.472-.337.731-.637.104-.187.186-.311.249-.374.01-.02.093-.165.248-.435.156-.27.301-.404.436-.404 0-.052.041-.192.124-.42.083-.238.145-.373.187-.404.02-.01.072-.124.155-.342a8.9 8.9 0 0 0 .233-.746c.073-.27.109-.493.109-.669.187-.197.27-.306.249-.326a.284.284 0 0 1-.016-.063v-.155c0-.3.021-.456.063-.466.051-.021.077-.037.077-.047a.173.173 0 0 0-.062-.062.088.088 0 0 1-.031-.062c0-.01.016-.032.047-.063a.168.168 0 0 0 .046-.124c-.02-.26-.166-.71-.435-1.352a.87.87 0 0 1-.124-.11.384.384 0 0 0-.171-.124.357.357 0 0 0-.187-.046c-.041 0-.114.01-.218.03-.041-.04-.083-.061-.124-.061a.346.346 0 0 0-.109.015l-.078.031a1.4 1.4 0 0 0-.513.218 5.485 5.485 0 0 0-.497.497l-.264.28c-.083.28-.254.524-.513.73a1.066 1.066 0 0 0-.187.234 2.136 2.136 0 0 1-.187.233l-.093.187c-.228.373-.471.87-.731 1.492a25.25 25.25 0 0 0-.668 1.742c-.187.549-.28.896-.28 1.041 0 .29.093.524.28.7.197.176.42.275.668.295Zm18.681-8.862a.684.684 0 0 1 .559.218c.145.156.244.347.296.575a.766.766 0 0 1-.156.482 2.343 2.343 0 0 1-.435.39c-.249.134-.58.362-.995.683l-.389.296c-.197.124-.497.373-.901.746-.405.373-.705.658-.902.855l-.311.28a4.602 4.602 0 0 0-.7.668c.021.052.068.15.14.296.073.145.156.27.249.373l1.135 1.725c.041.094.098.192.171.296.073.093.124.16.155.202.156.176.27.337.342.482a.96.96 0 0 1 .156.155c.083.073.155.12.218.14.093.042.176.12.248.233.073.114.145.265.218.451-.01.228-.078.4-.202.513-.125.125-.368.202-.731.234-.176-.042-.378-.161-.606-.358a2.643 2.643 0 0 1-.544-.638c-.011-.02-.332-.518-.964-1.492l-.591-.933a2.426 2.426 0 0 0-.218-.45c-.093-.187-.155-.28-.186-.28l-.296-.467c-.01.042-.124.337-.342.886l-.217.529a35.328 35.328 0 0 0-.995 2.783 2.117 2.117 0 0 0-.047.186.542.542 0 0 1-.109.234.375.375 0 0 1-.171.14.704.704 0 0 1-.404.14.664.664 0 0 1-.233-.047.834.834 0 0 1-.591-.777.31.31 0 0 1 .047-.187l.14-.358c.062-.217.129-.388.202-.513a2.1 2.1 0 0 0 .14-.388c.051-.166.093-.29.124-.374.197-.632.373-1.109.529-1.43a3.17 3.17 0 0 0 .155-.389c-.062.052-.135.13-.218.234-.321.321-.678.632-1.072.932-.363.28-.622.493-.778.638-.124.093-.383.27-.777.529-.383.259-.705.466-.964.621a17.1 17.1 0 0 0-.528.358c-.26.197-.56.383-.902.56a1.01 1.01 0 0 1-.513.155.76.76 0 0 1-.389-.109.756.756 0 0 1-.264-.28.766.766 0 0 1-.125-.404c0-.145.047-.249.14-.31.052-.073.223-.203.513-.39l.622-.404c.249-.155.467-.3.653-.435l.404-.249c.177-.114.431-.27.762-.466.332-.207.508-.321.529-.342.052-.062.217-.197.497-.404l1.664-1.26.482-.404c-.011-.052-.156-.3-.436-.746-.279-.456-.45-.715-.513-.777l-.824-.995c0-.01-.062-.104-.186-.28-.643-.923-.974-1.415-.995-1.477-.176-.197-.285-.353-.327-.467a1.698 1.698 0 0 1-.062-.513.532.532 0 0 1 .233-.217.603.603 0 0 1 .311-.094.52.52 0 0 1 .234.063l.186.093a.744.744 0 0 1 .249.14c.083.062.155.14.218.233.02.02.077.073.171.155.103.073.212.218.326.436l2.006 2.83.528.901a1.68 1.68 0 0 1 .078-.575c.062-.207.104-.358.124-.451.239-.674.394-1.192.467-1.555a1.39 1.39 0 0 1 .233-.56c.01-.02.026-.082.047-.186l.046-.264c.073-.394.14-.664.202-.809.062-.145.14-.243.233-.295a.844.844 0 0 1 .7.187.883.883 0 0 1 .327.42c.041.186.062.315.062.388 0 .135-.042.27-.125.404a57.473 57.473 0 0 1-.59 1.959l-.125.42-.062.233a1.127 1.127 0 0 1-.093.295 7.805 7.805 0 0 1-.062.28 2.575 2.575 0 0 0-.047.218l.311-.296c1.389-1.388 2.28-2.223 2.674-2.503.321-.32.637-.596.948-.824.311-.228.581-.378.809-.45Zm1.76 11.272a4.542 4.542 0 0 0-.234-.047.902.902 0 0 0-.28-.015 1.065 1.065 0 0 1-.513-.264c-.155-.146-.217-.296-.186-.451.031-.031.057-.114.078-.25.02-.124.031-.237.031-.341a4.97 4.97 0 0 0 .14-.498c.062-.466.222-1.238.482-2.316.269-1.088.44-1.669.513-1.741l-.016-.171a1.197 1.197 0 0 1 .156-.497c.041-.125.072-.244.093-.358a1.28 1.28 0 0 0 .046-.28c.021-.031.094-.218.218-.56l.156-.435c.062-.197.145-.43.248-.7l.202-.528v-.078c.042-.052.156-.327.342-.824.094-.208.182-.42.265-.638.093-.228.186-.45.28-.668.031-.062.077-.15.14-.264.062-.114.093-.192.093-.234.041-.083.145-.124.311-.124.135 0 .269.031.404.093a.557.557 0 0 1 .28.249l.357.249-.528 1.135c-.135.27-.259.534-.373.793-.104.248-.156.393-.156.435-.021.072-.067.223-.14.45-.072.229-.15.488-.233.778-.041.145-.145.451-.311.917a2.015 2.015 0 0 0-.109.296c0-.042.56-.083 1.679-.125.187-.01.529-.026 1.026-.046.508-.031.824-.063.949-.094l.793-.108.373-1.384a43.12 43.12 0 0 1 .606-2.145c.135-.446.296-.788.482-1.027.187-.248.347-.373.482-.373.259 0 .472.187.637.56.125.104.187.223.187.358 0 .134-.078.336-.233.606-.135.249-.296.663-.482 1.244a3.538 3.538 0 0 1-.156.482v.062c0 .197-.046.342-.139.435-.032.031-.099.176-.203.435-.093.26-.14.41-.14.451a.707.707 0 0 1-.031.28.531.531 0 0 1-.108.218c-.011.041-.109.456-.296 1.244-.186.787-.373 1.42-.56 1.896.011.052-.01.145-.062.28a1.177 1.177 0 0 0-.062.28c-.155.497-.228.777-.218.84-.051.238-.15.668-.295 1.29-.093.414-.14.627-.14.637-.01.02-.057.031-.14.031-.166 0-.342-.036-.528-.109a.992.992 0 0 1-.374-.342.8.8 0 0 1-.062-.793c.042-.072.12-.383.234-.932l.155-.669c.052-.166.109-.41.171-.73.073-.332.124-.565.155-.7.094-.539.156-.824.187-.855v-.156c-.031-.03-.218-.046-.56-.046-.352 0-.767.02-1.243.062a12.97 12.97 0 0 0-1.275.14l-.436.015c-.217 0-.357.006-.419.016-.104 0-.192.005-.265.016h-.14c-.041.093-.16.538-.357 1.337-.197.798-.311 1.31-.342 1.539-.093.476-.202.984-.327 1.523-.114.55-.207.964-.279 1.244Zm8.175-.917a1.129 1.129 0 0 1-.249-.171.31.31 0 0 1-.062-.202c0-.104.041-.25.124-.436.093-.197.249-.502.466-.917.063-.135.182-.373.358-.715.446-.85.669-1.477.669-1.881a.206.206 0 0 1-.016-.094c0-.103.083-.197.249-.28.031-.03.14-.119.326-.264a1.76 1.76 0 0 0 .467-.497 11.4 11.4 0 0 1 .513-1.026 65.62 65.62 0 0 1 1.072-1.866 19.64 19.64 0 0 1 1.586-2.472 1.35 1.35 0 0 1 .342-.342c.135-.083.249-.124.342-.124.322 0 .648.124.98.373.342.249.565.497.668.746.042.073.062.228.062.466 0 .322-.036.866-.108 1.633a8.656 8.656 0 0 0-.063.637c-.031.467-.077.964-.14 1.493-.114 1.16-.196 2.068-.248 2.72a23.188 23.188 0 0 0-.078 1.835c0 .29.005.503.016.638v.108l-.016.358c-.062.062-.187.093-.373.093-.207 0-.415-.036-.622-.109-.207-.062-.321-.14-.342-.233a.175.175 0 0 0-.047-.031c-.02-.01-.031-.057-.031-.14l.016-.342.046-.87.078-2.38-.202.016c-.207 0-.648.042-1.321.125-.664.083-1.084.15-1.26.202-.093 0-.207.062-.342.186a1.75 1.75 0 0 0-.357.482 2.376 2.376 0 0 1-.218.451c-.114.187-.171.296-.171.327a.675.675 0 0 0-.171.17 1.987 1.987 0 0 0-.078.125c0 .114-.103.41-.311.886a7.41 7.41 0 0 1-.59 1.15l-.42.591-.544-.42Zm3.715-5.348.436-.063c.217-.041.409-.067.575-.077.497-.125.839-.187 1.026-.187.104 0 .176.01.218.031a.394.394 0 0 0 .093.094c.041.01.067.015.078.015.02-.083.103-.648.248-1.695.145-1.046.218-1.689.218-1.927a4.5 4.5 0 0 0-.016-.42 1.271 1.271 0 0 0-.031-.233c-.093 0-.305.248-.637.746a14.376 14.376 0 0 0-.964 1.663c-.238.425-.404.638-.497.638-.073.072-.228.316-.467.73-.238.415-.332.643-.28.685Zm11.146 4.975a2.197 2.197 0 0 1-1.15-.933c-.28-.456-.42-.995-.42-1.617 0-.249.021-.477.062-.684a4.87 4.87 0 0 1 .187-.948c.062-.187.109-.379.14-.576 0-.02.01-.057.031-.109.021-.051.026-.093.015-.124l.265-.653c.124-.28.202-.435.233-.466.041-.021.062-.047.062-.078a.285.285 0 0 0 .016-.062c0-.135.14-.425.419-.87.291-.447.602-.882.933-1.307.332-.425.529-.637.591-.637.021 0 .047-.02.078-.062.031-.052.052-.078.062-.078.072-.083.363-.233.871-.451.507-.228.912-.378 1.212-.45.207-.073.42-.11.638-.11.528 0 .958.25 1.29.747.332.487.503 1.166.513 2.036a5.852 5.852 0 0 0-.078.684c-.02.239-.036.373-.046.404-.011.311-.078.7-.202 1.166-.114.457-.192.69-.234.7a.25.25 0 0 1-.031.109.261.261 0 0 0-.031.109c.011.093-.124.42-.404.98-.28.549-.441.828-.482.839a.123.123 0 0 0-.047.015c-.01.01-.01.031 0 .063.011.03-.072.124-.248.28-.166.155-.285.233-.358.233a.045.045 0 0 0-.031.015c0 .01.01.031.031.062.021.031-.13.166-.451.404-.311.239-.648.472-1.01.7-.363.218-.638.347-.824.389a.273.273 0 0 1-.14.078.48.48 0 0 1-.078.015c-.073.073-.207.135-.404.187a2.086 2.086 0 0 1-.56.077c-.155 0-.295-.026-.42-.077Zm1.571-1.633c.31-.103.621-.27.932-.497.311-.239.498-.456.56-.653.052-.187.124-.316.218-.389.176-.176.409-.58.699-1.213.301-.642.456-1.078.467-1.306 0-.062.015-.16.046-.295a.961.961 0 0 1 .109-.31c.021-.032.026-.1.016-.203a5.388 5.388 0 0 1-.016-.482c0-.27.005-.503.016-.7-.031-.673-.135-1.062-.311-1.166-.083-.062-.223-.093-.42-.093a1.14 1.14 0 0 0-.42.109.745.745 0 0 1-.217.047c-.146.083-.218.176-.218.28a.283.283 0 0 1-.124.233c-.073.062-.151.067-.234.015-.186.01-.305.036-.357.078-.052.041-.119.14-.202.295-.073.145-.14.27-.202.373-.26.197-.456.405-.591.622-.135.218-.218.4-.249.544-.321.56-.523.954-.606 1.182a5.135 5.135 0 0 0-.187.902c-.083.155-.15.337-.202.544a1.947 1.947 0 0 1-.109.404 1.377 1.377 0 0 0-.031.327c0 .228.016.466.047.715.031.238.072.399.124.482.083.28.264.42.544.42.228 0 .534-.089.918-.265Zm5.247.638c.094-.166.182-.446.265-.84.01-.052.026-.14.046-.264a2.04 2.04 0 0 1 .109-.327 49.4 49.4 0 0 1 1.275-3.653c.135-.322.29-.653.466-.995.208-.436.358-.762.451-.98.114-.28.29-.616.529-1.01.021-.042.098-.176.233-.404.135-.239.238-.472.311-.7.072-.29.275-.435.606-.435.104 0 .223-.026.358-.078.269-.073.477-.109.622-.109.217 0 .378-.015.482-.046.083-.021.326-.037.73-.047.405-.01.716-.01.933 0a.56.56 0 0 1 .249-.047c.269 0 .554.083.855.249.301.155.461.332.482.529l.015.202c0 .217-.057.362-.171.435-.103.072-.285.109-.544.109a7.031 7.031 0 0 1-.839-.047 8.336 8.336 0 0 0-.855-.047c-.156 0-.327.016-.513.047l-.373.062c-.415.083-.726.12-.933.11-.135.155-.322.512-.56 1.072-.228.55-.394.99-.497 1.321.082-.02.202-.03.357-.03.197 0 .394.01.591.03.207.021.342.052.404.094.829.134 1.519.466 2.068.995.56.518.813 1.181.762 1.99-.021.383-.192.84-.513 1.368-.311.518-.638.917-.98 1.197a7.528 7.528 0 0 0-.404.342 3.23 3.23 0 0 1-.544.373c-.093.052-.228.13-.404.233-.177.093-.368.16-.576.202l-.264.094c-.197.124-.466.212-.808.264a6.744 6.744 0 0 1-1.011.078 3.517 3.517 0 0 1-.793.093c-.466 0-.85-.114-1.15-.342-.301-.228-.456-.59-.467-1.088Zm1.695-.187c.176.031.347.047.513.047.415 0 .839-.068 1.275-.202a6.893 6.893 0 0 0 1.228-.545c.539-.31.954-.632 1.244-.964.3-.331.451-.756.451-1.274 0-.394-.223-.68-.669-.855a6.472 6.472 0 0 0-1.555-.42 1.59 1.59 0 0 1-.528-.218c-.187-.124-.29-.259-.311-.404a28.082 28.082 0 0 0-1.042 2.503c-.3.86-.502 1.638-.606 2.332Zm7.738 1.928a.32.32 0 0 1-.171-.062.465.465 0 0 1-.14-.14.87.87 0 0 1-.202-.265c-.052-.103-.077-.259-.077-.466 0-.363.114-.886.342-1.57.072-.29.15-.57.233-.84.072-.186.109-.326.109-.42 0-.082.01-.176.031-.28.031-.113.046-.191.046-.233.125 0 .239-.212.342-.637.042-.155.078-.285.109-.389a2.8 2.8 0 0 0 .062-.264.605.605 0 0 0 .063-.14 2.03 2.03 0 0 0 .077-.17c.083-.25.182-.488.296-.716.124-.466.269-.954.435-1.461.176-.519.321-.902.435-1.15l.187-.467c.01-.031.031-.088.062-.171a.573.573 0 0 0 .062-.202c0-.042-.015-.073-.046-.094-.073-.051-.109-.155-.109-.31 0-.26.098-.472.295-.638a.886.886 0 0 1 .451-.28c.197-.062.43-.093.7-.093.114 0 .316.01.606.03.124.011.456.017.995.017.062.03.176.077.342.14.352.145.529.233.529.264 0 .051.015.088.046.108a.58.58 0 0 0 .171.047c.114 0 .316.14.607.42.3.28.507.539.621.777.094.187.156.332.187.436.041.103.062.233.062.388a6.346 6.346 0 0 1-.109.824c-.031.156-.067.254-.108.296-.166.124-.249.233-.249.326 0 .104-.15.394-.451.87-.301.477-.565.825-.793 1.042a4.378 4.378 0 0 1-.964.824 9.401 9.401 0 0 1-1.477.513c-.539.145-.948.213-1.228.203-.332.051-.539.098-.622.14-.072.03-.129.113-.171.248l-.155.435a1.325 1.325 0 0 0-.063.296c-.062.114-.191.461-.388 1.041-.187.58-.316 1.027-.389 1.338a.526.526 0 0 1-.249.31.629.629 0 0 1-.342.125Zm2.208-5.193c.021.02.078.031.171.031.27 0 .622-.083 1.057-.248a6.156 6.156 0 0 0 1.244-.607c.228-.155.497-.43.808-.824.063-.103.187-.347.374-.73.082-.146.16-.332.233-.56.083-.228.124-.43.124-.607a.857.857 0 0 0-.015-.186c-.104-.539-.405-.897-.902-1.073a5.308 5.308 0 0 0-.7-.078c-.072 0-.192.01-.357.032-.166.051-.285.124-.358.217-.062.083-.155.28-.28.591-.331.632-.549 1.088-.653 1.368a20.496 20.496 0 0 1-.513 1.633c-.145.373-.228.59-.249.653v.062c0 .062-.005.124-.015.186-.01.063 0 .11.031.14Zm10.489-6.467c.353 0 .679.093.98.28.311.176.554.43.73.761.187.322.28.69.28 1.104 0 .58-.036 1.342-.109 2.286a46.197 46.197 0 0 1-.28 2.658c-.124.87-.233 1.99-.326 3.358a27.149 27.149 0 0 1-.155 1.493c-.032.28-.094.44-.187.482l.015.03c0 .042-.036.078-.108.11a.674.674 0 0 1-.265.046c-.186 0-.373-.036-.559-.109-.187-.072-.28-.228-.28-.466 0-.135.026-.461.078-.98.114-.974.181-1.772.202-2.394l.093-.684h-.389c-.176.052-.43.078-.761.078l-.98-.016c-.28 0-.472.01-.575.031a.297.297 0 0 0-.218.125c-.052.062-.114.192-.186.389-.052.165-.161.42-.327.761-.363.881-.684 1.508-.964 1.882-.28.373-.554.56-.824.56a1.19 1.19 0 0 1-.357-.094c-.156-.062-.234-.145-.234-.249 0-.145.109-.445.327-.901.228-.457.399-.762.513-.918.01 0 .01-.005 0-.015a.222.222 0 0 1-.016-.094c0-.228.135-.606.405-1.135.041-.124.083-.243.124-.357a.922.922 0 0 0 .078-.233l.295-.575c0-.063.036-.192.109-.39.083-.207.181-.43.295-.668 0-.155.031-.305.094-.45a3.71 3.71 0 0 1 .248-.498c.114-.207.171-.342.171-.404 0-.021.011-.068.032-.14.031-.073.088-.192.171-.358-.021 0-.032-.005-.032-.015 0-.01.042-.068.125-.171a.59.59 0 0 1 .109-.311c.083-.125.217-.467.404-1.026l.311-.669c.083-.135.192-.389.326-.762l.125-.326.124-.342c.031-.042.078-.12.14-.233a.706.706 0 0 1 .295-.28c.135-.073.316-.114.544-.125.125-.03.254-.046.389-.046Zm.327 5.939c0-.114.036-.534.108-1.26.146-1.492.223-2.41.234-2.751a1.11 1.11 0 0 0-.016-.265c0-.093-.083-.181-.249-.264-.165-.083-.285-.124-.357-.124-.093 0-.171.051-.233.155a2.642 2.642 0 0 0-.187.389 4.326 4.326 0 0 0-.124.31l-.14.358c-.176.435-.384.97-.622 1.602-.239.621-.373.995-.404 1.119-.063.062-.171.259-.327.59-.145.322-.218.524-.218.607 0 .26.13.389.389.389.042 0 .125-.006.249-.016.135-.02.28-.057.435-.109h.218c.166 0 .332-.026.497-.077a7.47 7.47 0 0 0 .529-.094c.093-.02.15-.067.171-.14.031-.072.047-.212.047-.42Zm13.171 8.535a1.27 1.27 0 0 1-.109-.482.86.86 0 0 1 .093-.389l.311-.59c.301-.54.534-.99.7-1.353.176-.353.352-.762.528-1.228l-.357.046-.591.063c-.601.04-.917.077-.948.108l-.42.031c-.301.021-.612.052-.933.094-.321.041-.528.088-.622.14a4.32 4.32 0 0 1-.637.062h-.233a7.94 7.94 0 0 0-.311.046l-.949.156c-.093.02-.238.026-.435.015h-1.104a7.42 7.42 0 0 1-1.135-.077 2.3 2.3 0 0 1-.839-.296c-.467-.29-.803-.59-1.011-.901a1.879 1.879 0 0 1-.295-1.026c0-.228.031-.472.093-.731.062-.26.156-.57.28-.933l.171-.529c.166-.497.28-.824.342-.979.041-.083.135-.28.28-.59.145-.312.228-.581.249-.81a2.9 2.9 0 0 0 .155-.341l.14-.327c.104-.331.316-.819.637-1.461.073-.135.171-.337.296-.607.145-.342.249-.554.311-.637.062-.093.217-.238.466-.435.021.02.13.078.327.17.228.094.393.192.497.296a.54.54 0 0 1 .171.42c0 .104-.026.243-.078.42-.124.352-.259.627-.404.824-.217.383-.487.938-.808 1.663a1.817 1.817 0 0 1-.125.296l-.233.653a30.6 30.6 0 0 1-.28.761c-.145.405-.3.778-.466 1.12a.961.961 0 0 1-.078.373.911.911 0 0 0-.093.497c-.166.26-.249.58-.249.964 0 .114.011.254.031.42l.078.093c.218.249.834.373 1.85.373l.684-.015c.031-.104.062-.218.093-.342a1.44 1.44 0 0 1 .094-.28c.28-1.285.58-2.317.901-3.094.031-.072.094-.207.187-.404.093-.207.166-.4.218-.575.217-.788.559-1.747 1.026-2.876.052-.135.119-.337.202-.607a5.56 5.56 0 0 1 .233-.7c.083-.176.15-.29.202-.341.052-.052.14-.078.264-.078l.156.015c.166.01.326.073.482.187.166.104.28.228.342.373a.416.416 0 0 1 .078.249.77.77 0 0 1-.047.233c-.135.487-.399 1.197-.793 2.13l-.218.544c-.3.746-.684 1.82-1.15 3.218a13.07 13.07 0 0 1-.171.467 3.18 3.18 0 0 0-.171.606c-.021.26-.093.617-.218 1.073.28-.01.69-.068 1.228-.171.581-.104 1.016-.16 1.306-.171l.078-.218c.052-.166.093-.332.125-.497.072-.301.134-.545.186-.731a1.86 1.86 0 0 1 .28-.529c.072-.3.155-.58.249-.84.103-.258.326-.777.668-1.554.145-.404.467-1.207.964-2.41l.42-.995.217-.528c.125-.332.223-.575.296-.731 0-.218.031-.352.093-.404.073-.062.197-.104.373-.125.145-.02.259-.046.342-.077l.715.466c.021.145.057.264.109.358l-.015.264c-.166.207-.493.891-.98 2.052a96.726 96.726 0 0 0-1.461 3.67c-.477 1.284-.777 2.155-.902 2.611.062-.02.233-.067.513-.14.29-.083.57-.124.84-.124.103 0 .181.005.233.015.124.01.249.052.373.125a1.994 1.994 0 0 0 .295.109c.187.217.28.42.28.606 0 .093-.026.207-.077.342a2.128 2.128 0 0 0-.078.28 2.025 2.025 0 0 1-.093.295l-.591 1.275c-.228.529-.436.974-.622 1.337a9.24 9.24 0 0 1-.591 1.042c-.083.352-.259.528-.528.528-.166 0-.353-.046-.56-.14a6.01 6.01 0 0 0-.342-.155Zm5.027-3.187a1.129 1.129 0 0 1-.249-.171.316.316 0 0 1-.062-.202c0-.104.041-.25.124-.436.094-.197.249-.502.467-.917.062-.135.181-.373.357-.715.446-.85.669-1.477.669-1.881a.206.206 0 0 1-.016-.094c0-.103.083-.197.249-.28.031-.03.14-.119.327-.264a1.77 1.77 0 0 0 .466-.497c.135-.311.306-.653.513-1.026a63.84 63.84 0 0 1 1.073-1.866 19.417 19.417 0 0 1 1.586-2.472c.103-.145.217-.259.342-.342.134-.083.248-.124.342-.124.321 0 .647.124.979.373.342.249.565.497.669.746.041.073.062.228.062.466 0 .322-.037.866-.109 1.633a8.247 8.247 0 0 0-.062.637c-.031.467-.078.964-.14 1.493-.114 1.16-.197 2.068-.249 2.72a23.188 23.188 0 0 0-.078 1.835c0 .29.005.503.016.638v.108l-.016.358c-.062.062-.186.093-.373.093-.207 0-.414-.036-.622-.109-.207-.062-.321-.14-.342-.233a.185.185 0 0 0-.046-.031c-.021-.01-.031-.057-.031-.14l.015-.342.047-.87.077-2.38-.202.016c-.207 0-.647.042-1.321.125-.663.083-1.083.15-1.259.202-.094 0-.208.062-.342.186a1.772 1.772 0 0 0-.358.482 2.376 2.376 0 0 1-.218.451c-.114.187-.171.296-.171.327a.675.675 0 0 0-.171.17 1.47 1.47 0 0 0-.077.125c0 .114-.104.41-.311.886a7.32 7.32 0 0 1-.591 1.15l-.42.591-.544-.42Zm3.716-5.348.435-.063a4.69 4.69 0 0 1 .575-.077c.498-.125.84-.187 1.026-.187.104 0 .176.01.218.031a.394.394 0 0 0 .093.094c.042.01.068.015.078.015.021-.083.104-.648.249-1.695.145-1.046.217-1.689.217-1.927 0-.166-.005-.306-.015-.42a1.492 1.492 0 0 0-.031-.233c-.094 0-.306.248-.638.746a14.523 14.523 0 0 0-.964 1.663c-.238.425-.404.638-.497.638-.073.072-.228.316-.467.73-.238.415-.331.643-.279.685Zm7.365 5.441a1.315 1.315 0 0 1-.327.062.546.546 0 0 1-.451-.218c-.114-.145-.171-.362-.171-.652 0-.415.125-.954.374-1.617l.171-.513c.518-1.514.855-2.384 1.01-2.612a.998.998 0 0 0 .078-.389.59.59 0 0 1 .078-.233l.124-.249c.124-.228.187-.399.187-.513 0-.041.062-.249.186-.622.124-.383.249-.673.373-.87.062-.156.135-.306.218-.451.083-.156.124-.254.124-.296 0-.02-.114-.03-.342-.03-.321 0-.72.015-1.197.046-.466.031-.777.067-.933.109-.217.052-.347.072-.388.062-.052-.02-.13-.12-.234-.295-.103-.187-.155-.353-.155-.498 0-.124.041-.207.124-.249.166-.103.332-.17.498-.202.176-.03.42-.057.731-.078.321-.02.544-.041.668-.062.218 0 .42-.01.606-.03a3.78 3.78 0 0 1 .342-.047c.083 0 .187-.016.311-.047.291-.052.487-.078.591-.078.145 0 .29-.015.435-.047.166-.02.275-.03.327-.03h.964c.135 0 .321-.021.56-.063.238-.041.45-.083.637-.124.28-.062.534-.093.762-.093.269 0 .492.051.668.155a.61.61 0 0 1 .327.42c.093.518-.69.824-2.348.917-.093.01-.274.026-.544.047-.259.02-.43.046-.513.077-.073.032-.109.078-.109.14 0 .063-.031.125-.093.187a.926.926 0 0 0-.109.124c-.083.031-.223.29-.42.778-.197.476-.295.772-.295.886l-.062.124a.362.362 0 0 0-.047.14 6.842 6.842 0 0 1-.342.715 65.687 65.687 0 0 1-.591 1.524l-.171.42a26.86 26.86 0 0 1-.497 1.539.525.525 0 0 1-.125.14.233.233 0 0 0-.062.17c0 .052-.15.467-.451 1.245-.3.777-.466 1.17-.497 1.181Zm7.416.42a3.713 3.713 0 0 1-.933-.498 1.916 1.916 0 0 1-.637-.824c-.166-.466-.249-1.015-.249-1.648 0-.611.036-1.13.109-1.554.072-.436.197-.876.373-1.322l.14-.326c.166-.425.285-.705.357-.84.177-.404.488-.928.933-1.57.415-.622.741-1.083.98-1.384a5.63 5.63 0 0 1 .762-.793c.259-.228.637-.513 1.134-.855.301-.217.669-.326 1.104-.326.342 0 .653.083.933.249.29.165.508.424.653.777.104.176.156.42.156.73 0 .498-.12 1.037-.358 1.617-.238.58-.523 1.021-.855 1.322a.4.4 0 0 1-.295.109.912.912 0 0 1-.405-.109 1.713 1.713 0 0 1-.388-.264 3.503 3.503 0 0 1-.156-.311c-.01-.031.01-.052.062-.063.094-.114.228-.331.405-.652.186-.332.31-.591.373-.778l.093-.435c.062-.27.093-.446.093-.529a.34.34 0 0 0-.109-.248.167.167 0 0 0-.124-.047c-.083 0-.228.052-.435.155-.239.104-.524.317-.855.638a8.88 8.88 0 0 0-.964 1.12 23.463 23.463 0 0 0-1.104 1.538 5.665 5.665 0 0 0-.575 1.228l-.171.405c.01.041-.006.145-.047.31a1.97 1.97 0 0 1-.14.405 7.027 7.027 0 0 0-.218 1.632c0 .384.037.716.109.995.083.28.197.487.342.622.083.073.202.109.358.109.166 0 .352-.036.56-.109.217-.083.445-.176.684-.28l.497-.217a4.5 4.5 0 0 0 .669-.327 2.34 2.34 0 0 0 .482-.342c.269-.197.487-.295.653-.295.134-.042.238 0 .311.124.082.124.124.296.124.513 0 .145-.099.322-.296.529-.196.197-.43.373-.699.528-.114.114-.368.25-.762.405-.332.238-.72.45-1.166.637-.435.187-.834.28-1.197.28-.083 0-.187-.01-.311-.031Zm6.688-.467a2.769 2.769 0 0 1-.466-.45c-.124-.166-.187-.317-.187-.451 0-.197.171-.337.514-.42 1.067-.26 2.264-1.3 3.591-3.125-.456-.249-.798-.508-1.026-.777-.228-.28-.394-.664-.498-1.15a2.966 2.966 0 0 1-.077-.623c.051-.072.077-.181.077-.326a1.43 1.43 0 0 1 .047-.311l.342-1.01c.342-.985 1.295-1.747 2.861-2.286.507-.207.881-.295 1.119-.264l.202-.016a.881.881 0 0 1 .435-.031.472.472 0 0 1 .14-.015c.176 0 .373.056.591.17.228.104.42.239.575.405.166.166.249.331.249.497a.385.385 0 0 1-.016.125c-.103.3-.171.492-.202.575-.165.518-.3.901-.404 1.15-.28.684-.606 1.659-.979 2.923-.363 1.264-.57 2.187-.622 2.767-.083.228-.156.607-.218 1.135-.01.094-.031.228-.062.404a3.109 3.109 0 0 1-.078.436c-.031.135-.124.254-.28.357a.834.834 0 0 1-.466.156.484.484 0 0 1-.218-.047 1.501 1.501 0 0 1-.326-.233 9.85 9.85 0 0 1-.327-.31 6.42 6.42 0 0 0 .109-.514 3.03 3.03 0 0 1 .171-.684 10.1 10.1 0 0 1 .14-.886 2.47 2.47 0 0 0 .062-.327c.062-.331.125-.575.187-.73l.031-.25c-.145.24-.544.721-1.197 1.447a16.465 16.465 0 0 1-2.068 1.943c-.715.56-1.29.809-1.726.746Zm5.333-5.58c.487-1.545.902-2.919 1.244-4.12a4.102 4.102 0 0 0-1.399.419c-.457.228-.84.529-1.151.902a2.335 2.335 0 0 0-.544 1.259 1.77 1.77 0 0 1-.078.373.447.447 0 0 0-.046.202c0 .207.082.41.248.606.176.197.358.296.544.296a.744.744 0 0 0 .389-.125 6.95 6.95 0 0 1 .233-.14l.56.327ZM121.729 92.16c-.228 0-.533-.057-.917-.17-.383-.104-.642-.296-.777-.576l-.264-.295c-.291-.311-.451-.493-.482-.544l-.498-.498a31.912 31.912 0 0 1-.575-.56 4.679 4.679 0 0 1-.404-.513c-.125-.124-.275-.342-.451-.653a2.327 2.327 0 0 0-.202-.31c-.063-.104-.12-.166-.171-.187-.114.083-.197.275-.249.575-.104.218-.218.586-.342 1.104a4.577 4.577 0 0 0-.218.606 15.27 15.27 0 0 1-.109.42c-.103.29-.181.461-.233.513l-.14.606c-.103.53-.259.793-.466.793-.135 0-.327-.109-.575-.326l-.218-.342c-.135-.197-.202-.306-.202-.327.021-.052.057-.155.109-.31.052-.166.114-.368.186-.607l.265-.824c.404-1.202.663-2.042.777-2.519a.234.234 0 0 0 .062-.124.902.902 0 0 0 .016-.17c.103-.312.274-.778.513-1.4.238-.632.419-1.047.544-1.244a.65.65 0 0 0 .062-.186 1.08 1.08 0 0 0 .016-.125.19.19 0 0 1 .031-.109.23.23 0 0 1 .108-.062c0-.135.026-.233.078-.295.073-.156.228-.58.467-1.275.248-.694.373-1.062.373-1.104 0-.052.02-.103.062-.155.041-.052.067-.083.078-.094.083-.072.222-.108.419-.108.177 0 .353.041.529.124a.823.823 0 0 1 .404.295c0 .073-.02.182-.062.327-.031.135-.078.28-.14.435l-.295.669c-.021.072-.083.254-.187.544-.093.28-.212.616-.357 1.01-.218.436-.389.82-.513 1.15-.125.332-.166.52-.125.56.073-.051.228-.18.467-.388.248-.218.513-.461.792-.73a14.18 14.18 0 0 1 1.757-1.524c.767-.519 1.249-.835 1.446-.949.197-.114.378-.176.544-.186a.458.458 0 0 1 .171-.032.3.3 0 0 1 .156.063c.062.041.124.078.186.109.031.062.062.17.094.326.041.145.067.244.077.295.011.104-.052.234-.186.39a1.677 1.677 0 0 1-.529.388 40.553 40.553 0 0 0-2.752 1.88c-1.015.747-1.575 1.245-1.679 1.493-.052.063-.062.12-.031.171.031.052.094.125.187.218.103.083.192.156.264.218.135.166.238.3.311.404.083.093.135.155.155.186 0 .063.343.42 1.027 1.073.02.052.124.182.311.389.269.29.456.523.559.7.674.704 1.011 1.223 1.011 1.554 0 .156-.088.233-.265.233Zm8.444.28a5.304 5.304 0 0 1-.902.078c-.259 0-.472-.036-.637-.109a1.254 1.254 0 0 1-.451-.295c-.094-.083-.14-.208-.14-.373 0-.104.021-.177.062-.218a1.99 1.99 0 0 1 .451-.218c.155-.052.42-.093.793-.124a4.811 4.811 0 0 0 2.13-.389c.673-.29 1.14-.637 1.399-1.041.197-.353.295-.648.295-.886 0-.26-.119-.519-.357-.778a.856.856 0 0 0-.234-.14.721.721 0 0 0-.248-.062c-.094-.01-.182-.02-.265-.031-.186 0-.336.02-.45.062a2.134 2.134 0 0 0-.405.187c-.051.03-.16.093-.326.186a1.557 1.557 0 0 1-.451.156.797.797 0 0 1-.358.233 1.414 1.414 0 0 1-.45.078c-.146 0-.244-.026-.296-.078-.062 0-.114.031-.155.093a2.303 2.303 0 0 0-.202.373 2.97 2.97 0 0 1-.14.311 4.82 4.82 0 0 1-.202.529 4.624 4.624 0 0 1-.109.28 1.932 1.932 0 0 0-.078.28c-.155.383-.285.642-.389.777-.103.135-.207.202-.311.202a.206.206 0 0 1-.124-.047 1.422 1.422 0 0 1-.14-.124 1.215 1.215 0 0 0-.155-.187c-.073 0-.145-.041-.218-.124a.563.563 0 0 1-.109-.358c0-.103.026-.222.078-.357.052-.114.197-.503.435-1.166.487-1.327.746-2 .778-2.021.01-.135.041-.233.093-.296.062-.072.093-.119.093-.14.021-.041.109-.264.264-.668.156-.404.301-.674.436-.808 0-.083.145-.353.435-.809.031-.072.109-.264.233-.575.042-.124.078-.218.109-.28a3.19 3.19 0 0 1 .062-.14c.094-.103.14-.192.14-.264 0-.042-.026-.088-.078-.14a2.014 2.014 0 0 0-.124-.14c-.021-.02-.041-.093-.062-.218a1.868 1.868 0 0 1-.031-.295c0-.031.171-.135.513-.311.352-.187.601-.31.746-.373.145-.062.332-.14.56-.233.238-.094.435-.166.591-.218a2.19 2.19 0 0 1 .481-.109 2.45 2.45 0 0 1 .467-.015.996.996 0 0 1 .342-.063c.155 0 .301.037.435.11.166.051.379.186.638.404.259.207.404.393.435.56.041.207.062.357.062.45a.932.932 0 0 1-.109.42c-.02.218-.103.539-.248.964-.146.425-.26.679-.342.761a9.132 9.132 0 0 0-.311.514c-.249.445-.493.798-.731 1.057-.021.02-.073.078-.156.17l-.404.467c.052 0 .156.01.311.031.166.01.285.037.358.078.238.155.451.352.637.59.197.229.337.467.42.716a.665.665 0 0 1 .093.373c0 .207-.052.45-.155.73-.094.27-.218.519-.373.747-.094.176-.296.43-.607.762-.3.321-.471.482-.513.482a.332.332 0 0 0-.202 0c-.072.03-.197.088-.373.17a1.383 1.383 0 0 1-.264.234c-.083.072-.151.098-.202.078a6.34 6.34 0 0 0-.591.28c-.27.072-.669.155-1.197.248Zm-.482-5.13c.02.03.155-.005.404-.109.259-.104.534-.238.824-.404a3.48 3.48 0 0 0 .684-.467c.197-.134.378-.3.544-.497.166-.207.249-.342.249-.404.01-.031.041-.099.093-.203a2.79 2.79 0 0 1 .233-.326c.125-.124.223-.244.296-.358.083-.124.124-.207.124-.248a2.93 2.93 0 0 1 .078-.187c.052-.093.114-.202.186-.326.114-.145.192-.316.234-.513.051-.197.083-.306.093-.327.021-.218-.016-.378-.109-.482-.083-.114-.212-.17-.389-.17l-.139.015-.374.046a2.64 2.64 0 0 0-.45.094 1.5 1.5 0 0 0-.358.14c-.259.165-.389.295-.389.388 0 .052.037.078.109.078.052 0 .078.036.078.109 0 .145-.099.378-.296.7-.165.29-.502.927-1.01 1.912-.498.984-.736 1.497-.715 1.539Zm11.728-6.685c.352 0 .679.093.979.28.311.176.555.43.731.761.187.322.28.69.28 1.104 0 .58-.036 1.342-.109 2.285a46.197 46.197 0 0 1-.28 2.659c-.124.87-.233 1.99-.326 3.358a25.874 25.874 0 0 1-.156 1.493c-.031.28-.093.44-.186.482l.015.03c0 .042-.036.078-.108.11a.674.674 0 0 1-.265.046 1.53 1.53 0 0 1-.559-.109c-.187-.072-.28-.228-.28-.466 0-.135.026-.461.077-.98a30.23 30.23 0 0 0 .203-2.394l.093-.684h-.389c-.176.052-.43.078-.762.078l-.979-.016c-.28 0-.472.01-.575.031a.295.295 0 0 0-.218.125c-.052.062-.114.192-.187.389-.051.165-.16.42-.326.761-.363.881-.684 1.508-.964 1.882-.28.373-.554.56-.824.56-.072 0-.192-.032-.357-.094-.156-.062-.234-.145-.234-.249 0-.145.109-.445.327-.902.228-.456.399-.761.513-.917.01 0 .01-.005 0-.015a.221.221 0 0 1-.016-.094c0-.228.135-.606.405-1.135.041-.124.082-.243.124-.357a.92.92 0 0 0 .078-.233l.295-.576c0-.062.036-.191.109-.388.083-.207.181-.43.295-.669 0-.155.031-.306.094-.45a3.71 3.71 0 0 1 .248-.498c.114-.207.171-.342.171-.404 0-.021.011-.068.031-.14.031-.073.088-.192.171-.358-.02 0-.031-.005-.031-.015 0-.01.042-.068.125-.171a.59.59 0 0 1 .109-.311c.082-.125.217-.467.404-1.026l.311-.669c.083-.135.191-.389.326-.762l.125-.326.124-.342c.031-.042.078-.12.14-.233a.7.7 0 0 1 .295-.28c.135-.073.316-.114.544-.125.125-.03.254-.046.389-.046Zm.327 5.939c0-.114.036-.534.108-1.26.145-1.492.223-2.41.234-2.752a1.11 1.11 0 0 0-.016-.264c0-.093-.083-.181-.249-.264-.166-.083-.285-.124-.357-.124-.094 0-.171.051-.234.155a2.749 2.749 0 0 0-.186.389 4.307 4.307 0 0 0-.124.31l-.14.358c-.177.436-.384.97-.622 1.602-.239.621-.373.995-.404 1.119-.063.062-.171.259-.327.59-.145.322-.218.524-.218.607 0 .26.13.389.389.389.042 0 .124-.005.249-.016.135-.02.28-.057.435-.109h.218c.166 0 .331-.026.497-.078a7.43 7.43 0 0 0 .529-.093c.093-.02.15-.067.171-.14.031-.072.047-.212.047-.42Zm3.081 5.736c-.156 0-.316-.103-.482-.31-.166-.197-.249-.446-.249-.747 0-.238.057-.471.171-.7.207-.435.415-.787.622-1.057a1.47 1.47 0 0 0 .155-.264.706.706 0 0 0 .078-.295c.145-.187.337-.524.575-1.01.405-.654.98-1.66 1.726-3.017.104-.187.306-.554.606-1.104.311-.55.519-.876.622-.98l.078-.108c-.031.052.021-.067.156-.358.145-.29.295-.549.45-.777.166-.238.311-.357.436-.357.134 0 .29.056.466.17.176.104.327.265.451.482.135.208.202.457.202.747 0 .124-.005.223-.015.295l-.156 1.057-.078.342c-.134.684-.336 1.622-.606 2.814-.238 1.057-.358 1.695-.358 1.912a.34.34 0 0 0 .032.156c.02.031.046.047.077.047.021 0 .073-.031.156-.094a.912.912 0 0 0 .217-.31l.203-.312.264-.388c.29-.404.648-.949 1.073-1.633.424-.694 1.114-1.88 2.067-3.56.197-.29.358-.544.482-.762.166-.27.327-.523.482-.761.156-.239.275-.39.358-.451a.6.6 0 0 1 .388-.125c.156.01.317.068.482.171.177.104.322.25.436.436.124.186.186.388.186.606 0 .249-.077.705-.233 1.368a21.792 21.792 0 0 1-.513 1.928c-.041.218-.171.73-.389 1.54-.166.6-.29 1.077-.373 1.43a4.494 4.494 0 0 0-.109.854v.125c-.155.28-.233.84-.233 1.679-.041.342-.119.606-.233.793-.114.197-.207.295-.28.295l-.047-.015a.25.25 0 0 0-.155.062c-.041.052-.104.078-.187.078-.259 0-.43-.094-.513-.28-.072-.187-.108-.44-.108-.762 0-.187.005-.342.015-.467.031-.269.363-1.673.995-4.213.498-1.99.746-3.031.746-3.125l-.217.374c-.208.393-.467.855-.778 1.383l-1.088 2.037a4.585 4.585 0 0 0-.342.544c-.083.176-.129.28-.14.31-.124.25-.373.607-.746 1.074a2.674 2.674 0 0 0-.218.295c-.052.114-.217.316-.497.606-.28.28-.575.54-.886.778-.311.228-.57.342-.778.342-.28 0-.534-.135-.762-.404a1.513 1.513 0 0 1-.326-.98c0-.28.052-.746.155-1.4.166-.714.342-1.44.529-2.176.187-.736.316-1.218.389-1.446a.982.982 0 0 0 .046-.31c0-.073-.01-.12-.031-.14-.01 0-.026.01-.046.03a24.901 24.901 0 0 0-.778 1.384 40.432 40.432 0 0 0-1.072 2.192c-1.483 2.726-2.333 4.214-2.55 4.462Zm14.016-3.746a.456.456 0 0 1-.358-.187.705.705 0 0 1-.109-.389.91.91 0 0 0-.031-.124 1.593 1.593 0 0 1-.015-.218c0-.051.005-.093.015-.124 0-.052.047-.181.14-.389.073-.176.124-.306.155-.388.114-.197.285-.425.513-.684.239-.27.446-.467.622-.591l.265-.187c0-.041.072-.119.217-.233.145-.114.27-.197.373-.249.042-.03.114-.083.218-.155.104-.073.202-.15.295-.233.228-.229.4-.44.514-.638.114-.207.196-.414.248-.622.052-.207.13-.56.233-1.057.011-.342-.005-.56-.046-.653-.031-.093-.114-.192-.249-.295a2.573 2.573 0 0 0-.342-.031c-.694 0-1.233.42-1.617 1.259-.072.186-.109.321-.109.404 0 .052.016.12.047.202 0 .062.01.156.031.28.031.114.047.202.047.264a1.742 1.742 0 0 1-.56.11c-.207 0-.368-.058-.482-.172a2.032 2.032 0 0 0-.124-.155 5.663 5.663 0 0 1-.156-.218.478.478 0 0 1-.077-.187 1.069 1.069 0 0 1-.016-.186c.01-.073.016-.145.016-.218.124-.393.31-.782.559-1.166.249-.383.55-.663.902-.84a9.004 9.004 0 0 0 .902-.466h.155l.358-.046h.171c.103 0 .155.02.155.062h.451c.187.052.42.17.7.357.279.177.476.327.59.451.063.197.094.436.094.716 0 .518-.099 1.083-.296 1.694-.197.601-.451 1.073-.762 1.415l-.342.31c-.507.457-.829.763-.963.918-.332.187-.638.472-.918.855a4.662 4.662 0 0 0-.622 1.182c-.196.414-.461.622-.792.622Zm-.358 2.751a1.337 1.337 0 0 1-.498.125c-.155 0-.331-.073-.528-.218-.156-.155-.233-.31-.233-.466 0-.26.191-.519.575-.778.104-.062.197-.114.28-.155a.5.5 0 0 1 .217-.062c.083 0 .223.041.42.124.301.176.451.389.451.638 0 .29-.228.554-.684.792Z" fill="#1EA6F9"/></svg>