<svg width="378" height="716" fill="none" xmlns="http://www.w3.org/2000/svg"><g clip-path="url(#a)"><path opacity=".23" d="M69 556.819c-10.865 0-18.28-8.131-22.5-6.819 7-12 24.422-23 33.535-23h57.802l82.274 17.318c9.635 0 28.846 2.71 41.769 12.501 7.454.293 23.205 2.376 26.581 8.359 3.375 5.982-9.912 17.711-16.978 22.828-6.274 15.959-25.38 32.55-46.731 44.081 0 0-4.641 29.913-27.425 29.913-22.783 0-31.221-19.563-31.221-19.563-25.168-.732-49.965-6.263-62.866-14.285-24.049-14.957-25.736-52.347-23.205-59.038C82.567 562.423 88 556.819 69 556.819Z" fill="#070707"/><path d="M67.142 457.544a108.341 108.341 0 0 1-29.033-40.349 97.425 97.425 0 0 1-2.938-66.54c12.302-39.554 40.132-53.999 40.132-53.999s21.354-37.844 35.461-42.49c14.108-4.647 25.759 18.898 25.759 18.898s60.186 1.179 102.725 20.824a130.455 130.455 0 0 1 59.631 55.948s35.485 6.741 36.81 16.491c1.324 9.75-8.547 32.404-19.621 43.598 9.846 30.863-21.498 78.819-61.461 89.869.626 17.213-6.476 17.718-6.476 17.718l12.783 24.074 7.223 5.513-5.224 7.223-23.039-1.276-4.623 3.851-16.442-6.957s-29.347 3.13-58.861 3.106c-29.515-.024-68.852-10.112-77.76-11.074-8.907-.963-19.596 8.353-29.01 7.559-9.412-.795-12.734-4.285-11.675-10.689 1.06-6.404 9.967-4.261 9.967-4.261v-8.908s-35.413-2.046-39.963-7.727c-4.55-5.682-21.113-45.308 9.413-63.243 30.526-17.935 32.259-9.63 32.259-9.63l13.963 12.471Z" fill="#F5FCFF"/><path d="M98.727 543.127s-10.135-35.004 3.684-54.841c13.818-19.837 16.731-27.829 16.731-27.829l-37.94-17.502s-38.255-4.454-44.08-28.071c2.6 9.004 20.727 37.604 29.948 42.66-3.684 9.629.626 40.613.626 40.613l6.74 18.561 5.249 25.205 19.042 1.204Zm110.404-13.819s3.996 15.865 0 20.078c-3.996 4.213 9.63.506 9.63.506v-3.587l-9.63-16.997Zm98.03-96.2s-16.226-32.524-48.87-50.146c-27.806-14.998-74.63-7.945-74.63-7.945s-25.543-31.753-67.648-37.844c-42.106-6.091-73.475 22.75-76.388 35.389-.144-17.213 9.991-47.017 33.054-63.002 23.063-15.985 48.558-36.737 48.558-36.737s79.276 2.407 114.93 18.922c35.653 16.515 62.713 56.141 62.713 56.141l17.381 27.974-2.407 33.969s2.263 10.592 1.035 16.129c-1.228 5.537.626 9.221-1.83 12.278-2.455 3.057-3.153.145-5.898-5.128Z" fill="#B5E3FF"/><path d="M254.005 499.047s-28.889-5.392-47.016 10.593c1.829 21.811 14.901 44.441 22.413 45.572 7.511 1.132 8.762-2.214 8.762-2.214s-8.137-3.25-6.596-11.243c1.541-7.993 14.276-30.43 17.984-34.426a18.33 18.33 0 0 0 4.453-8.282Z" fill="#1EA6F9"/><path d="M239.873 551.746s14.012 5.055 21.667 2.407a7.546 7.546 0 0 0 4.876-3.603 7.548 7.548 0 0 0 .661-6.027l-6.235-3.129s-8.45-18.417-13.987-19.982c-5.537-1.565-10.063 21.474-10.063 21.474l3.081 8.86ZM67.768 498.157a25.857 25.857 0 0 1 15.215 24.531c-.77 13.217-.794 19.26-.794 19.26s-19.525 7.703-25.663 7.439c-6.14-.265-12.278-5.465-12.278-5.465-2.24-1.18 1.203-7.776 8.931-5.369 1.59.506 1.493-11.7 3.972-17.526 3.226-7.535 7.223-10.135 8.908-13.505a26.002 26.002 0 0 0 1.71-9.365Zm11.989-48.606s27.805-29.443 40.083-34.426c12.928-5.224 20.608-2.913 23.063-2.407a4.488 4.488 0 0 1 3.082 3.057s-12.928 8.619-14.926 13.843c-1.998 5.224-9.63 26.722-9.365 28.72.265 1.998-9.63 5.224-23.352 3.226a24.31 24.31 0 0 1-18.585-12.013Zm56.766-154.123c0 8.45 12.23 17.213 22.967 17.815 8.883.53 16.996-.842 20.126-8.522 2.624-6.428-2.841-15.768-14.444-19.741-11.074-3.707-28.576-2.094-28.649 10.448Zm117.169 42.106c7.969-2.865 26.891 11.676 24.893 29.202-1.998 17.526-18.441 14.589-26.482 4.141s-11.628-28.576 1.589-33.343Zm-153.665-42.105s-19.668 8.305-24.892 14.131c9.99-26.674 27.709-43.959 33.487-45.572 7.222-1.998 26.144 9.317 29.202 12.23a24.094 24.094 0 0 1 4.237 5.127s-21.523 3.78-25.206 7.223a38.105 38.105 0 0 0-8.907-4.43l-7.921 11.291Zm203.33 94.129s3.539 7.752 3.226 12.35c-.313 4.598 0 12.976 0 12.976s23.641-30.02 22.558-40.155c-1.084-10.136-33.488-23.665-33.488-23.665h-6.476s7.704 6.283 8.306 11.05a77.25 77.25 0 0 1 .457 10.448l14.156 3.996-8.739 13Z" fill="#1EA6F9"/><path d="M63.916 453.09s-43.96-7.92-52.41 30.285c-7.222 32.548 39.964 40.782 39.964 40.782s8.594-20.054 14.757-24.652c6.163-4.598-2.167-19.982-2.167-19.982l3.082-21.979-3.226-4.454Z" fill="#1EA6F9"/><path d="M70.825 358.744c0 7.631 9.63 15.214 21.017 15.214 11.387 0 20.631-3.851 21.017-12.759.385-8.907-7.921-14.444-20.584-14.444s-21.474 5.368-21.45 11.989Zm181.014 46.92c-7.102 6.428-.602 19.909 6.933 25.519 8.017 5.994 20.656 8.739 25.711 2.407 4.502-5.633 2.793-14.733-5.128-22.341-7.92-7.607-21.137-11.242-27.516-5.585Z" fill="#FFDCD9"/><path d="M131.011 358.238c7.498 0 13.577-6.079 13.577-13.578s-6.079-13.578-13.577-13.578c-7.499 0-13.578 6.079-13.578 13.578s6.079 13.578 13.578 13.578Zm111.246 39.65c7.499 0 13.578-6.079 13.578-13.578s-6.079-13.578-13.578-13.578-13.578 6.079-13.578 13.578 6.079 13.578 13.578 13.578Z" fill="#070707"/><path d="M138.137 343.432a2.913 2.913 0 1 0 0-5.827 2.913 2.913 0 0 0 0 5.827Zm110.885 39.41a2.913 2.913 0 1 0 0-5.827 2.913 2.913 0 0 0 0 5.827Z" fill="#fff"/><path d="M168.398 394.47c4.55-1.349 5.85-9.775 5.85-12.23 0-2.456-6.139-8.282-2.986-13.674 2.167-3.732 11.532-2.408 16.154.674 4.622 3.081 6.5 8.57 6.043 10.063-1.011 3.25-6.115 5.2-13.193 5.007 0 .241-5.392 8.667-5.537 11.748a6.057 6.057 0 0 0 1.83 4.815s1.372 1.661-.458 2.143a15.816 15.816 0 0 1-9.124-1.445c-3.563-1.709-6.716-4.814-5.176-6.259 1.541-1.444 4.984-.361 6.597-.842Z" fill="#070707"/><path d="M178.172 374.031c1.035.794.554 1.685 1.709 1.902 1.156.216 1.469.939 2.022 1.589.554.65 5.634-.265 5.826-1.758.193-1.492-2.263-.891-3.322-1.685-1.059-.794 0-1.806-1.444-1.854-1.445-.048-2.6.458-3.226 0-.626-.457-1.685-.24-1.806.434-.048.47.035.946.241 1.372Z" fill="#4B4B4B"/><path d="M104.505 599.484a17.767 17.767 0 0 0 1.445 5.995c.914.915 110.211 10.689 115.074 9.822 5.272-.915 23.255-28.889 24.604-31.104 1.348-2.215.938-8.522.938-8.522l-26.409 33.391-114.906-9.221-.746-.361Z" fill="#1A1A1A"/><path d="M219.844 616.264c-8.305 0-49.328-3.539-57.994-4.309-25.374-2.215-55.78-5.032-56.574-5.826a15.29 15.29 0 0 1-1.613-6.572v-1.469l1.926.915 114.303 9.172 27.421-34.739.144 2.215c0 .674.385 6.572-1.059 9.028-.169.289-19.259 30.478-25.157 31.513-.463.067-.93.091-1.397.072Zm-113.461-11.459c6.548 1.589 110.38 10.424 114.424 9.629 4.045-.794 21.185-25.903 24.074-30.718.678-1.823.981-3.763.891-5.706l-25.23 31.947-115.05-9.293c.122 1.412.421 2.804.891 4.141Z" fill="#000"/><path d="M137.39 565.275s108.334 4.815 109.369 8.595c1.035 3.779-19.019 33.703-26.795 36.255-7.775 2.552-114.279-6.741-115.411-11.05-1.131-4.309 25.037-31.344 32.837-33.8Z" fill="#4B4B4B"/><path d="M213.103 611.449c-24.868 0-101.761-7.463-108.333-11.146a1.776 1.776 0 0 1-.939-1.011c-1.541-5.369 25.855-32.5 33.415-34.739h.289c.264 0 27.396 1.252 54.287 2.913 55.009 3.419 55.539 5.224 55.852 6.307 1.3 4.406-19.549 34.86-27.349 37.315a31.08 31.08 0 0 1-7.222.361Zm-75.593-45.331c-8.137 2.792-33.029 29.394-32.138 32.741 3.563 3.49 106.215 13.024 114.352 10.472 7.511-2.407 26.337-31.465 26.24-35.052-4.405-2.504-66.95-6.259-108.454-8.161Z" fill="#000"/><path d="m202.92 574.496 3.443-2.769-64.11 8.908 9.823 1.54-21.932 5.73 53.926-6.741 19.5-6.741-.65.073Z" fill="gray"/><path d="M235.396 574.375h-14.589l8.642-2.407-30.574 1.516-16.852 3.66h.843l-7.222 2.118h7.222s-4.43 1.445-6.283 1.974c6.259-.842 54.552-4.044 54.552-4.044l4.261-2.817Zm-23.52 12.832h-7.223l4.334-1.589-15.287 1.059-8.474 2.552h.409l-3.539 1.493h3.539s-2.215 1.011-3.13 1.372c3.13-.578 27.276-2.817 27.276-2.817l2.095-2.07Z" fill="gray"/><path d="m204.003 572.498-2.407.313 1.372-.65-5.031 1.011-2.697 1.107-1.107.602 1.179-.169-.987.53c1.012-.313 8.932-2.046 8.932-2.046l.746-.698Z" fill="#9E9E9E"/><path d="M321.93 541.545c.806 5.321 4.654 6.984 8.531 7.263 2.048.14 7.501-.872 8.448 1.567.64 1.818-2.459 5.333-7.807 3.426-5.347-1.906-12.353-4.895-18.6 2.431-6.247 7.327 1.25 12.424 6.405 12.198 5.154-.227 13.417-.689 18.867 1.356 5.449 2.046 25.951 1.832 32.388-15.595 6.437-17.427-5.373-26.48-13.315-30.721-7.941-4.24-20.965-5.341-28.428 2.342-7.464 7.684-6.489 15.733-6.489 15.733Z" fill="#1EA6F9"/><path d="M316.455 569.228a9.607 9.607 0 0 1-6.714-4.786c-.942-1.911-1.357-4.998 1.881-8.893 6.523-7.664 13.886-4.907 19.268-2.89l.462.171c3.458 1.287 5.333-.174 5.816-.658a1.77 1.77 0 0 0 .679-1.48c-.417-1.142-3.712-.99-5.482-.926a16.75 16.75 0 0 1-2.041.037c-5.449-.392-8.717-3.205-9.477-8.121-.043-.346-.996-8.639 6.726-16.576 7.722-7.936 20.974-7.152 29.635-2.511 13.987 7.48 18.747 18.598 13.725 31.964a24.59 24.59 0 0 1-13.256 14.243c-7.856 3.591-16.79 3.282-20.386 1.951-5.03-1.884-12.724-1.551-17.82-1.326l-.666.035c-.79.014-1.578-.065-2.35-.234Zm8.368-16.389a10.927 10.927 0 0 0-6.411.247 10.93 10.93 0 0 0-5.17 3.8c-2.06 2.403-2.635 4.71-1.674 6.67 1.221 2.526 4.729 3.926 7.246 3.859l.666-.035c5.258-.234 13.205-.587 18.616 1.436 3.252 1.229 11.498 1.466 18.832-1.87a22.673 22.673 0 0 0 12.238-13.097c4.639-12.525.358-22.444-12.789-29.469-8.019-4.286-20.293-4.994-27.234 2.156-6.941 7.151-6.214 14.577-6.181 14.905.624 3.966 3.111 6.043 7.608 6.365.607.026 1.214.017 1.82-.024 2.761-.119 6.57-.279 7.466 2.267a3.507 3.507 0 0 1-1.157 3.603c-.704.7-3.361 2.816-7.947 1.114l-.476-.174a38.735 38.735 0 0 0-5.453-1.753Z" fill="#004FAB"/><path d="M302.121 577.917a6.5 6.5 0 1 0 2.69-12.718 6.5 6.5 0 0 0-2.69 12.718Z" fill="#1EA6F9"/><path d="M301.924 578.914a7.273 7.273 0 0 1-1.586-.526 7.37 7.37 0 0 1-3.909-4.207 7.5 7.5 0 0 1 10.161-9.44c.9.407 1.711.988 2.387 1.708a7.531 7.531 0 0 1 2.028 5.387 7.485 7.485 0 0 1-9.039 7.087l-.042-.009Zm2.69-12.718a5.483 5.483 0 0 0-6.265 7.279 5.495 5.495 0 0 0 7.07 3.237 5.484 5.484 0 0 0 3.189-7.052 5.42 5.42 0 0 0-2.861-3.078 5.04 5.04 0 0 0-1.161-.391l.028.005Z" fill="#004FAB"/><path d="M326.778 584.713c-.595 2.811-.122 6.543 1.87 7.474 2.624 1.211 4.579 2.266 4.091 4.227-.381 1.261-3.598 2.008-5.736-1.21s-4.964-7.676-11.386-6.072c-6.421 1.604-4.272 7.458-1.337 9.377 2.935 1.918 7.799 4.973 10.027 8.293 2.227 3.32 13.787 11.389 24.358 4.219 10.571-7.17 7.58-16.972 4.815-22.473-2.764-5.501-9.606-11.367-16.851-10.057-7.246 1.311-9.289 3.52-9.851 6.222Z" fill="#1EA6F9"/><path d="M333.806 614.069a20.75 20.75 0 0 1-10.31-6.614c-2.078-3.021-6.452-5.868-9.364-7.765l-.387-.251a7.29 7.29 0 0 1-3.263-6.774c.2-1.255 1.064-3.522 4.89-4.504 6.921-1.723 10.141 3.064 12.273 6.205l.198.284a3.419 3.419 0 0 0 3.046 1.848 1.137 1.137 0 0 0 .865-.337c.289-.959-.587-1.673-3.561-3.065-2.519-1.165-3.139-5.3-2.44-8.603.773-3.7 3.979-5.797 10.72-7.021 7.565-1.378 14.869 4.493 17.931 10.592 4.924 9.937 3.138 18.176-5.175 23.86a17.357 17.357 0 0 1-13.376 2.644 18.447 18.447 0 0 1-2.047-.499Zm-13.609-23.957a8.026 8.026 0 0 0-4.329.023c-2.006.501-3.143 1.443-3.376 2.809a5.316 5.316 0 0 0 2.38 4.742l.374.247c3.064 1.988 7.678 4.982 9.942 8.328a19.658 19.658 0 0 0 11.094 6.343 15.236 15.236 0 0 0 11.852-2.402c7.502-5.031 8.978-12.242 4.484-21.227-2.723-5.489-9.18-10.699-15.762-9.503-7.277 1.316-8.683 3.494-9.121 5.44-.595 2.811.027 5.751 1.304 6.376 2.4 1.114 5.364 2.488 4.636 5.394a2.65 2.65 0 0 1-2.254 1.816 5.406 5.406 0 0 1-5.302-2.694l-.185-.28c-1.444-2.201-3.051-4.601-5.737-5.412Z" fill="#004FAB"/><path d="M303.15 598.421a4.467 4.467 0 1 0 2.584-8.55 4.467 4.467 0 0 0-2.584 8.55Z" fill="#1EA6F9"/><path d="M302.861 599.38a5.481 5.481 0 0 1-3.867-5.745 5.487 5.487 0 0 1 4.843-4.949 5.48 5.48 0 0 1 3.344 10.205 5.457 5.457 0 0 1-4.32.489Zm2.583-8.551a3.463 3.463 0 1 0 .014.004l-.014-.004Z" fill="#004FAB"/><path d="M288.631 533.004c1.765 1.151 5.216.779 6.309.374 1.569-.588 3.72-3.046 4.317-2.19.596.857.719 3.276-2.363 4.194-3.081.919-7.229 1.976-7.564 7.407-.336 5.431 4.777 5.182 7.017 3.332 2.241-1.849 5.82-4.872 8.972-5.802 3.152-.931 12.328-7.916 9.326-18.005-3.002-10.089-11.383-10.095-16.418-9.307-5.036.788-11.28 4.701-12.03 10.769-.749 6.068.409 7.918 2.434 9.228Z" fill="#1EA6F9"/><path d="M294.001 548.28a5.258 5.258 0 0 1-3.297-.424c-.984-.486-2.575-1.811-2.323-5.093.36-5.973 4.976-7.342 8.018-8.24l.282-.048a2.61 2.61 0 0 0 1.863-1.422 1.56 1.56 0 0 0 .079-.812c-.314.199-.713.499-1.023.726a10.132 10.132 0 0 1-2.249 1.372c-1.173.447-5.037.948-7.211-.467-2.794-1.817-3.603-4.685-2.887-10.268.802-6.353 7.266-10.682 12.878-11.583 9.098-1.409 15.167 2.07 17.551 10.072a14.473 14.473 0 0 1-1.196 11.271 17.691 17.691 0 0 1-8.798 8.01c-2.764.821-6.144 3.562-8.333 5.374l-.279.237a6.724 6.724 0 0 1-3.075 1.295Zm4.585-18.212c.192-.035.389-.034.581.003a1.419 1.419 0 0 1 .951.636 3.497 3.497 0 0 1 .274 3.047 4.429 4.429 0 0 1-3.166 2.632l-.283.048c-2.945.867-6.29 1.859-6.573 6.41-.101 1.615.327 2.675 1.265 3.153a4.188 4.188 0 0 0 4.093-.699l.279-.237c2.341-1.852 5.831-4.801 9.051-5.758a15.97 15.97 0 0 0 7.599-7.035 12.306 12.306 0 0 0 1.027-9.717c-2.079-6.979-7.221-9.877-15.286-8.629-4.968.848-10.525 4.703-11.189 9.827-.771 5.941.567 7.397 1.997 8.372a8.224 8.224 0 0 0 5.391.27 9.258 9.258 0 0 0 1.77-1.116 6.027 6.027 0 0 1 2.214-1.235l.005.028Z" fill="#004FAB"/><path d="M291.106 556.413a3.666 3.666 0 1 0-1.236-7.223 3.666 3.666 0 0 0 1.236 7.223Z" fill="#1EA6F9"/><path d="M291.263 557.418a4.684 4.684 0 0 1-5.352-3.617 4.694 4.694 0 0 1 3.564-5.576 4.687 4.687 0 0 1 2.014 9.154l-.226.039Zm-1.234-7.225-.127.022a2.645 2.645 0 0 0-2.044 2.122 2.647 2.647 0 0 0 .433 1.982 2.646 2.646 0 0 0 2.743 1.076 2.632 2.632 0 0 0 2.032-3.15 2.665 2.665 0 0 0-3.023-2.054l-.014.002Z" fill="#004FAB"/><path d="M359.872 558.89a3.67 3.67 0 0 1-.905.524 2.489 2.489 0 0 1-.903.182 1.539 1.539 0 0 1-.759-.189 1.225 1.225 0 0 1-.496-.529c-.477-.928.369-1.919 1.582-2.856 1.214-.936 2.303-1.424 2.734-.54a1.2 1.2 0 0 1 .338.726c.035.293-.011.623-.135.96a3.27 3.27 0 0 1-.575.97c-.254.3-.556.558-.881.752Zm-5.858 2.89c-.833.371-1.726.129-1.852-.166-.127-.295.509-.731 1.399-1.024.889-.293 1.58-.53 1.707-.235.126.295-.257.994-1.254 1.425Z" fill="#fff"/><path d="M74.653 311.197a2.665 2.665 0 0 1-.746 0 2.552 2.552 0 0 1-1.71-3.178c.626-2.166 15.938-53.203 38.351-56.285 16.298-2.263 32.187 25.832 33.944 29.033a2.6 2.6 0 0 1-1.011 3.491 2.552 2.552 0 0 1-3.467-1.035c-4.309-7.848-17.815-27.926-28.889-26.481-15.913 2.07-30.044 38.711-34.065 52.626a2.552 2.552 0 0 1-2.407 1.829Z" fill="#070707"/><path d="M100.027 299.208a2.74 2.74 0 0 1-.746 0 2.575 2.575 0 0 1-1.71-3.202c.65-2.142 4.19-12.927 10.208-14.276 4.959-1.131 9.269 5.658 10.448 7.776a2.55 2.55 0 0 1-4.453 2.408c-1.637-2.913-4.021-5.369-4.815-5.297-1.974.434-4.959 6.019-6.38 10.762a2.55 2.55 0 0 1-2.552 1.829Zm208.579 118.228a2.554 2.554 0 0 1-2.463-3.157 2.54 2.54 0 0 1 .778-1.296c8.738-7.8 30.742-30.671 27.588-42.852-3.394-13.097-33.174-17.261-44.368-17.743a2.55 2.55 0 0 1-2.407-2.672 2.628 2.628 0 0 1 .858-1.734 2.63 2.63 0 0 1 1.814-.674c1.781 0 44.055 2.167 49.063 21.667 4.502 17.382-25.663 44.874-29.13 47.932a2.529 2.529 0 0 1-1.733.529Z" fill="#070707"/><path d="M303.357 392.11a2.548 2.548 0 0 1-2.348-1.543 2.552 2.552 0 0 1 .494-2.766 60.79 60.79 0 0 0 7.993-10.111 46.39 46.39 0 0 0-10.954-2.576 2.565 2.565 0 0 1 .698-5.08c14.228 1.902 15.119 4.815 15.48 6.019.361 1.204 1.179 3.948-9.63 15.263a2.549 2.549 0 0 1-1.733.794ZM67.142 499.264a2.573 2.573 0 0 1-2.407-1.685 71.454 71.454 0 0 1-.554-38.952c-26.939-17.333-42.178-69.334-31.465-108.647 10.64-38.927 44.345-57.464 45.813-58.331a2.555 2.555 0 0 1 3.455 1.047 2.552 2.552 0 0 1-1.047 3.455c-.337.168-33.295 18.416-43.334 55.178-10.4 38.157 4.55 88.713 30.79 104l1.686 1.011-.505 1.902a67.19 67.19 0 0 0 0 37.579 2.552 2.552 0 0 1-1.541 3.274 2.212 2.212 0 0 1-.89.169ZM298.88 352.388a2.55 2.55 0 0 1-2.408-1.854c0-.265-9.124-28.889-58.356-54.359-46.751-24.195-100.87-20.511-101.424-20.511a2.548 2.548 0 0 1-2.469-1.436 2.525 2.525 0 0 1-.251-.972 2.397 2.397 0 0 1 .584-1.908 2.4 2.4 0 0 1 1.823-.812c.554 0 56.093-3.756 104.097 21.113 51.35 26.602 60.474 56.237 60.859 57.465a2.577 2.577 0 0 1-1.757 3.178 2.425 2.425 0 0 1-.698.096Zm-63.845 207.013a14.92 14.92 0 0 1-5.995-1.516c-10.905-4.96-23.087-19.813-24.628-46.295a2.599 2.599 0 0 1 2.408-2.72 2.572 2.572 0 0 1 2.72 2.407c1.493 26.217 13.554 36.882 18.658 40.252 3.996 2.624 6.764 2.865 7.222 2.672 1.42-1.131 1.42-1.131 0-3.731a20.81 20.81 0 0 1-1.878-4.454c-1.156-3.852 1.107-7.92 4.815-14.709a148.325 148.325 0 0 0 13.891-32.235l.385-1.3 1.3-.41c65.385-20.92 59.968-84.5 59.704-87.196a2.551 2.551 0 1 1 5.079-.506c0 .699 6.091 69.526-61.943 92.156a155.072 155.072 0 0 1-13.938 31.97c-2.769 5.008-4.96 8.98-4.43 10.762.41 1.21.951 2.373 1.613 3.466 1.468 2.576 3.635 6.452-1.42 10.352a5.441 5.441 0 0 1-3.563 1.035Z" fill="#070707"/><path d="M162.692 555.549a289.85 289.85 0 0 1-66.589-8.401c-5.344-1.18-9.63-2.143-12.711-2.552-5.537-.723-11.339 1.589-16.972 3.827-6.524 2.625-12.687 5.08-18.176 2.576-10.015-4.622-9.895-10.159-9.39-12.326a9.873 9.873 0 0 1 9.029-6.74c1.107-17.936 17.14-34.787 17.718-35.437a2.575 2.575 0 0 1 3.635 0 2.548 2.548 0 0 1 .554 2.782c-.128.31-.316.592-.554.829-.168.192-16.61 17.453-16.322 34.305v2.697h-2.672c-3.66-.121-6.115 1.396-6.476 2.913-.361 1.516 1.156 4.02 6.548 6.5 3.49 1.588 8.667-.482 14.132-2.673 5.946-2.407 12.687-5.079 19.548-4.164 3.394.457 7.704 1.42 13.144 2.648a281.2 281.2 0 0 0 69.165 8.257c40.06-.602 51.784-3.009 51.904-3.033a2.56 2.56 0 0 1 3.045 1.962 2.56 2.56 0 0 1-1.962 3.045c-.481 0-12.037 2.528-52.963 3.13l-3.635-.145Zm95.478 1.276h-2.191c-9.437-.602-16.274-1.203-16.346-1.203a2.564 2.564 0 0 1-1.414-4.518 2.559 2.559 0 0 1 1.871-.586s6.837.602 16.226 1.204c8.811.553 9.1-2.625 9.269-4.815 0-.53-1.974-1.95-5.321-2.841l-1.805-.457v-1.878c-.265-5.104-8.402-22.1-10.424-24.772a2.584 2.584 0 0 1-1.156-1.71 2.556 2.556 0 0 1 .412-1.903 2.556 2.556 0 0 1 1.635-1.058 3.041 3.041 0 0 1 2.263.578c2.407 1.926 10.544 18.994 12.037 26.746 5.007 1.685 7.751 4.502 7.487 7.728-.578 6.38-4.671 9.485-12.543 9.485Zm-136.308-93.792h-.216a2.57 2.57 0 0 1-1.782-.866 2.555 2.555 0 0 1-.626-1.879c2.408-32.765 18.393-41.792 26.024-46.126a22.433 22.433 0 0 0 2.745-1.685 1.66 1.66 0 0 0-.241-1.517c-.457-.626-2.744-2.576-11.628-2.624-30.598 0-53.974 41.6-54.19 42.01a2.579 2.579 0 0 1-3.49 1.011 2.533 2.533 0 0 1-1.3-2.52c.04-.333.146-.655.312-.947 1.059-1.854 25.085-44.633 58.692-44.633h.386c8.016 0 13.048 1.54 15.383 4.814a6.89 6.89 0 0 1 .939 6.284c-.578 1.878-2.408 2.889-5.032 4.405-6.861 3.9-21.161 12.037-23.448 42.058a2.551 2.551 0 0 1-2.528 2.215Z" fill="#070707"/><path d="M49.784 528.225c-5.994 0-25.181-.987-37.989-12.783A37.53 37.53 0 0 1 .023 487.829c-1.3-42.347 52.482-45.187 52.963-45.211a2.553 2.553 0 1 1 .217 5.103c-2.022 0-49.28 2.648-48.148 39.963a32.575 32.575 0 0 0 10.11 24.074c13.482 12.423 35.871 11.436 36.112 11.411a2.578 2.578 0 0 1 2.672 2.408 2.552 2.552 0 0 1-2.407 2.696l-1.758-.048Z" fill="#070707"/><path d="M95.498 108.675c.316.05.591.208.825.475.233.267.35.558.35.875 0 .1-.009.175-.026.225a1.463 1.463 0 0 1-.2.4.37.37 0 0 1-.275.1c-.166 0-.416-.083-.75-.25-.166.283-.258.467-.275.55-.066.25-.158.517-.275.8-.15.183-.374.717-.674 1.6-.284.883-.425 1.458-.425 1.725-.084.233-.209.658-.376 1.275a89.296 89.296 0 0 1-.575 2.025c-.966 3.333-1.441 4.975-1.425 4.925a9.145 9.145 0 0 1-.125.975c-.033.25-.066.608-.1 1.075a.428.428 0 0 1 .026.175c0 .1-.025.183-.075.25a.333.333 0 0 1-.15.125c-.217.183-.517.275-.9.275-.417 0-.709-.108-.875-.325-.25-.433-.35-.767-.3-1 .05-.583.183-1.517.4-2.8.1-.483.208-.908.325-1.275.116-.383.191-.55.224-.5l.5-1.8c.1-.283.175-.558.226-.825a7.31 7.31 0 0 1 .15-.575c.133-.633.291-1.225.475-1.775.233-.55.475-1.375.725-2.475.1-.367.233-.783.4-1.25.183-.467.3-.708.35-.725-.584.067-1.026.133-1.326.2-.483.1-.966.175-1.45.225l-1.7.25c-.933.133-1.433.2-1.5.2l-1.8 4.175-1.275 3.325a70.632 70.632 0 0 1-1.124 3.475c-.05.167-.159.5-.326 1a12.662 12.662 0 0 0-.424 1.575l-.175.875c-.117.25-.25.433-.4.55-.134.117-.317.175-.55.175-.517 0-.892-.092-1.126-.275-.216-.183-.325-.475-.325-.875.067-.217.167-.492.3-.825.1-.267.175-.508.226-.725.116-.467.233-.883.35-1.25l.2-.6c.533-1.833.983-3.2 1.35-4.1l.674-1.9c.05-.1.142-.342.275-.725l.876-2.6c.4-.8.683-1.525.85-2.175a1.14 1.14 0 0 1-.175-.625c0-.267.075-.492.225-.675a.839.839 0 0 1 .65-.275c.116 0 .2.008.25.025.283.083.766.142 1.45.175.683.017 1.033.017 1.05 0 .166-.083.958-.225 2.374-.425 1.434-.2 2.842-.383 4.226-.55l.275-.025c.15 0 .45.042.9.125Zm1.762 18.2c-.65-.483-1.15-.917-1.5-1.3-.35-.383-.533-.75-.55-1.1a2.687 2.687 0 0 1-.025-.45c0-.467.042-1.05.125-1.75.084-.7.167-1.258.25-1.675.067-.067.1-.167.1-.3.017-.133.017-.217 0-.25 0-.05.042-.217.125-.5.2-.617.342-1.133.425-1.55.45-1.367.892-2.458 1.325-3.275a18 18 0 0 1 1.45-2.3c1.134-1.167 2.342-2.05 3.625-2.65.65-.383 1.117-.575 1.4-.575.05 0 .125.017.225.05 2.05.45 3.275 1.75 3.675 3.9.15 1.017.225 1.783.225 2.3 0 .833-.15 1.675-.45 2.525-.3.85-.841 1.917-1.625 3.2-.666 1.333-1.425 2.475-2.275 3.425-.833.933-1.675 1.633-2.525 2.1-.833.467-1.616.7-2.35.7-.65 0-1.2-.175-1.65-.525Zm2-1.65c.4-.05.709-.125.925-.225.234-.1.467-.267.7-.5.25-.25.65-.692 1.2-1.325.7-.8 1.192-1.383 1.475-1.75.284-.383.542-.858.775-1.425.25-.567.525-1.383.825-2.45l.15-.575c.1-.35.167-.633.2-.85.05-.233.075-.483.075-.75l-.025-1.575a4.433 4.433 0 0 0-.175-.975c-.1-.35-.216-.6-.35-.75a1.517 1.517 0 0 0-.55-.375 1.398 1.398 0 0 0-.675-.175c-.166 0-.358.042-.575.125-.316.133-.758.492-1.325 1.075a16.473 16.473 0 0 0-1.525 1.75c-.433.6-.65 1-.65 1.2 0 .017-.008.067-.025.15a.553.553 0 0 1-.1.225c-.433.467-.875 1.45-1.325 2.95-.433 1.5-.683 2.808-.75 3.925a9.539 9.539 0 0 0 0 1c.034.183.125.392.275.625.117.183.325.358.625.525.317.15.592.2.825.15Zm26.727 2c-.366 0-.858-.092-1.475-.275-.616-.167-1.033-.475-1.25-.925l-.425-.475c-.466-.5-.725-.792-.775-.875l-.8-.8a56.58 56.58 0 0 1-.925-.9 7.822 7.822 0 0 1-.65-.825c-.2-.2-.441-.55-.725-1.05-.1-.183-.208-.35-.325-.5-.1-.167-.191-.267-.275-.3-.183.133-.316.442-.4.925-.166.35-.35.942-.55 1.775-.133.3-.25.625-.35.975-.083.333-.141.558-.175.675-.166.467-.291.742-.375.825l-.225.975c-.166.85-.416 1.275-.75 1.275-.216 0-.525-.175-.925-.525l-.35-.55c-.216-.317-.325-.492-.325-.525.034-.083.092-.25.175-.5.084-.267.184-.592.3-.975l.425-1.325c.65-1.933 1.067-3.283 1.25-4.05a.377.377 0 0 0 .1-.2c.017-.083.025-.175.025-.275.167-.5.442-1.25.825-2.25.384-1.017.675-1.683.875-2 .05-.1.084-.2.1-.3.017-.1.025-.167.025-.2a.31.31 0 0 1 .05-.175.377.377 0 0 1 .175-.1c0-.217.042-.375.125-.475.117-.25.367-.933.75-2.05.4-1.117.6-1.708.6-1.775 0-.083.034-.167.1-.25.067-.083.109-.133.125-.15.134-.117.359-.175.675-.175.284 0 .567.067.85.2.3.117.517.275.65.475a2.1 2.1 0 0 1-.1.525c-.05.217-.125.45-.225.7l-.475 1.075c-.033.117-.133.408-.3.875-.15.45-.341.992-.575 1.625-.35.7-.625 1.317-.825 1.85-.2.533-.266.833-.2.9.117-.083.367-.292.75-.625.4-.35.825-.742 1.275-1.175.9-.917 1.842-1.733 2.825-2.45 1.234-.833 2.009-1.342 2.325-1.525.317-.183.609-.283.875-.3a.743.743 0 0 1 .275-.05c.067 0 .15.033.25.1s.2.125.3.175c.05.1.1.275.15.525.067.233.109.392.125.475.017.167-.083.375-.3.625-.2.233-.483.442-.85.625-1.3.8-2.775 1.808-4.425 3.025-1.633 1.2-2.533 2-2.7 2.4-.083.1-.1.192-.05.275.05.083.15.2.3.35.167.133.309.25.425.35.217.267.384.483.5.65.134.15.217.25.25.3 0 .1.55.675 1.65 1.725.034.083.2.292.5.625.434.467.734.842.9 1.125 1.084 1.133 1.625 1.967 1.625 2.5 0 .25-.141.375-.425.375Zm12.648.95a1.12 1.12 0 0 1-.375-.1 1.117 1.117 0 0 1-.375-.225c-.2-.2-.3-.5-.3-.9 0-.9-.017-1.492-.05-1.775l-.025-1.5c0-.383.025-.617.075-.7a2.036 2.036 0 0 1-.025-.375c0-.15.008-.325.025-.525.033-.217.05-.383.05-.5l-.1-.675h-1.35c-.1.017-.317.025-.65.025-.45 0-1.525-.05-3.225-.15l-.325.525c-.017.017-.1.125-.25.325-.134.2-.275.5-.425.9-.15.4-.35.858-.6 1.375-.234.517-.45.917-.65 1.2-.25.467-.484.808-.7 1.025-.2.217-.35.325-.45.325h-.125a.812.812 0 0 1-.3-.05c-.067-.017-.167-.075-.3-.175-.45-.2-.675-.5-.675-.9 0-.283.133-.617.4-1l.325-.525c0-.1.241-.625.725-1.575.5-.967.825-1.483.975-1.55.15-.15.225-.3.225-.45 0-.167-.1-.333-.3-.5a.42.42 0 0 1-.175-.2c-.034-.1-.05-.208-.05-.325 0-.233.083-.433.25-.6.166-.167.425-.242.775-.225.083-.05.158-.092.225-.125.083-.033.141-.058.175-.075.05-.033.075-.075.075-.125 0-.083.133-.383.4-.9.283-.533.533-.933.75-1.2.166-.45.308-.775.425-.975.133-.2.216-.342.25-.425.083-.083.25-.358.5-.825.033-.05.141-.233.325-.55.166-.167.333-.358.5-.575.183-.233.3-.383.35-.45.066-.117.166-.258.3-.425.083-.2.233-.442.45-.725.216-.3.35-.483.4-.55.25-.3.55-.542.9-.725.35-.2.675-.3.975-.3.166 0 .308.025.425.075.416.183.783.525 1.1 1.025.316.5.5 1.083.55 1.75.016.117.05.375.1.775.066.4.1.75.1 1.05 0 .217-.025.392-.075.525v1.1c0 .55.016.958.05 1.225-.05.183-.075.483-.075.9l.025.975c0 .25-.009.458-.025.625l-.025.925-.025.925c-.017.417-.025.942-.025 1.575l.025 1.975c0 1.133-.1 1.958-.3 2.475-.184.517-.467.8-.85.85Zm-5.05-9.35c.083-.017.291-.042.625-.075a7.532 7.532 0 0 1 1.075-.025c.466-.033.775-.05.925-.05.216 0 .433.008.65.025.233 0 .366-.008.4-.025.316.017.475-.275.475-.875a44.744 44.744 0 0 1-.175-3.8l.025-.775c0-.267-.025-.55-.075-.85-.034-.3-.059-.5-.075-.6-.067-.083-.309.192-.725.825-.4.633-.742 1.2-1.025 1.7-.1.133-.234.367-.4.7a8.92 8.92 0 0 0-.275.475 5.757 5.757 0 0 1-.325.6c-.817 1.3-1.225 2.133-1.225 2.5 0 .117.041.2.125.25Zm9.936 7.875a1.238 1.238 0 0 1-.925-.475c-.25-.283-.392-.567-.425-.85.05-.083.1-.242.15-.475.05-.25.1-.392.15-.425.017-.133.067-.358.15-.675.083-.333.142-.642.175-.925.083-.183.192-.475.325-.875.083-.3.167-.533.25-.7.05-.133.108-.3.175-.5.067-.2.125-.342.175-.425.033-.117.108-.35.225-.7s.208-.642.275-.875c.067-.25.108-.483.125-.7.167-.3.283-.617.35-.95.017-.033.1-.208.25-.525.167-.333.3-.725.4-1.175a101.407 101.407 0 0 1 1.025-2.45c.1-.2.2-.442.3-.725l.325-.975c0-.133.175-.517.525-1.15a3.86 3.86 0 0 1 .375-.575c.133-.183.225-.283.275-.3a1.64 1.64 0 0 1 .575-.125c.35 0 .642.117.875.35.233.233.35.475.35.725a.502.502 0 0 1-.1.325c-.067.1-.417.908-1.05 2.425l-.625 1.425c-.017.05-.1.267-.25.65-.033.1-.117.308-.25.625-.117.3-.208.575-.275.825a4.325 4.325 0 0 0-.475 1.075c-.117.417-.192.658-.225.725a8.436 8.436 0 0 1-.3.625l-.25.55c0 .433-.067.733-.2.9-.05.167-.1.308-.15.425l-.1.2c-.017.1-.042.208-.075.325-.033.1-.058.2-.075.3-.117.333-.35 1.117-.7 2.35-.283 1.067-.525 1.783-.725 2.15-.2.383-.408.575-.625.575Zm9.825-.85c-.033.067-.175.067-.425 0a4.442 4.442 0 0 1-.825-.325 3.02 3.02 0 0 1-.7-.55c-.45-.317-.942-.8-1.475-1.45a13.414 13.414 0 0 1-1.325-2l-.275-.575a4.509 4.509 0 0 0-.2-.4c-.067-.117-.142-.175-.225-.175-.167.017-.342-.192-.525-.625-.167-.45-.308-.9-.425-1.35.017-.167.067-.325.15-.475.1-.167.217-.242.35-.225.017-.083.342-.467.975-1.15a61.494 61.494 0 0 1 2.075-2.075c.75-.717 1.3-1.2 1.65-1.45.133-.183.267-.342.4-.475a4.72 4.72 0 0 1 .225-.1c.117-.067.225-.15.325-.25.133-.067.25-.158.35-.275.117-.133.2-.25.25-.35.1-.05.242-.142.425-.275.183-.133.392-.267.625-.4.233-.133.425-.25.575-.35.15-.1.242-.167.275-.2.217 0 .442.042.675.125.25.083.45.233.6.45.067.117.1.25.1.4 0 .15-.033.292-.1.425a.898.898 0 0 1-.225.3c-.117.25-.25.433-.4.55-.15.117-.358.242-.625.375-.033.017-.142.075-.325.175a1.607 1.607 0 0 0-.475.375c-.217.233-.558.5-1.025.8a4.06 4.06 0 0 1-.4.275 2.32 2.32 0 0 0-.625.525c-.383.383-.658.675-.825.875-.4.5-.775.883-1.125 1.15a.784.784 0 0 0-.175.075c-.1.033-.267.15-.5.35a9.384 9.384 0 0 0-.9.85l.5 1.075c.933 1.3 1.667 2.267 2.2 2.9.55.633 1.05 1.008 1.5 1.125.25.083.458.275.625.575.117.05.175.2.175.45 0 .3-.083.592-.25.875-.15.267-.367.408-.65.425Zm7.15.85c-.25 0-.634-.1-1.15-.3-.5-.2-.975-.45-1.425-.75-.45-.3-.742-.6-.875-.9l-.05-.1a3.453 3.453 0 0 1-.375-2.575 37.2 37.2 0 0 1 .125-.525c.15-.517.225-.942.225-1.275.083-.1.208-.267.375-.5a5.1 5.1 0 0 0 .325-.475.618.618 0 0 0 .05-.225v-.375c0-.117.041-.233.125-.35.083-.117.166-.208.25-.275.1-.083.166-.133.2-.15l.1.025c.033 0 .158-.242.375-.725.216-.5.425-1.025.625-1.575.833-1.533 1.766-2.808 2.8-3.825 1.033-1.033 1.95-1.725 2.75-2.075.066-.017.191-.033.375-.05.183-.017.358-.033.525-.05.316.017.7.092 1.15.225.45.133.691.233.725.3 0 .067.016.108.05.125a.39.39 0 0 0 .1.025c.15-.017.416.225.8.725.4.483.691.942.875 1.375.2.317.3.85.3 1.6 0 .633-.092 1.425-.275 2.375-.184.933-.367 1.6-.55 2a35.769 35.769 0 0 1-1.65 3.8c-.667 1.333-1.275 2.017-1.825 2.05-.017 0-.034.017-.05.05-.017.017-.025.05-.025.1s-.225.267-.675.65c-.434.383-.817.7-1.15.95l-.475.175c-.4.15-.859.267-1.375.35-.517.1-.95.158-1.3.175Zm.025-2.275c.716 0 1.233-.017 1.55-.05.316-.033.65-.142 1-.325.366-.2.758-.542 1.175-1.025.166-.3.3-.5.4-.6.016-.033.15-.267.4-.7.25-.433.483-.65.7-.65 0-.083.066-.308.2-.675.133-.383.233-.6.3-.65.033-.017.116-.2.25-.55.133-.367.258-.767.375-1.2.116-.433.175-.792.175-1.075.3-.317.433-.492.4-.525a.39.39 0 0 1-.025-.1v-.25c0-.483.033-.733.1-.75.083-.033.125-.058.125-.075a.286.286 0 0 0-.1-.1c-.034-.033-.05-.067-.05-.1 0-.017.025-.05.075-.1a.27.27 0 0 0 .075-.2c-.034-.417-.267-1.142-.7-2.175a1.445 1.445 0 0 1-.2-.175.616.616 0 0 0-.275-.2.576.576 0 0 0-.3-.075 2.13 2.13 0 0 0-.35.05c-.067-.067-.134-.1-.2-.1a.543.543 0 0 0-.175.025l-.125.05c-.35.083-.625.2-.825.35-.184.15-.45.417-.8.8l-.425.45c-.134.45-.409.842-.825 1.175-.067.05-.167.175-.3.375a3.802 3.802 0 0 1-.3.375l-.15.3c-.367.6-.759 1.4-1.175 2.4a40.828 40.828 0 0 0-1.075 2.8c-.3.883-.45 1.442-.45 1.675 0 .467.15.842.45 1.125.316.283.675.442 1.075.475Zm9.663 3.025c-.25 0-.508-.167-.775-.5-.266-.317-.4-.717-.4-1.2 0-.383.092-.758.275-1.125.334-.7.667-1.267 1-1.7.117-.167.2-.308.25-.425.067-.117.109-.275.125-.475.234-.3.542-.842.925-1.625.65-1.05 1.575-2.667 2.775-4.85.167-.3.492-.892.975-1.775.5-.883.834-1.408 1-1.575l.125-.175c-.05.083.034-.108.25-.575.234-.467.475-.883.725-1.25.267-.383.5-.575.7-.575.217 0 .467.092.75.275.284.167.525.425.725.775.217.333.325.733.325 1.2 0 .2-.008.358-.025.475l-.25 1.7-.125.55a170.86 170.86 0 0 1-.975 4.525c-.383 1.7-.575 2.725-.575 3.075 0 .1.017.183.05.25.034.05.075.075.125.075.034 0 .117-.05.25-.15.134-.117.25-.283.35-.5l.325-.5.425-.625a48.692 48.692 0 0 0 1.725-2.625c.684-1.117 1.792-3.025 3.325-5.725.317-.467.575-.875.775-1.225.267-.433.525-.842.775-1.225.25-.383.442-.625.575-.725a.971.971 0 0 1 .625-.2c.25.017.509.108.775.275.284.167.517.4.7.7.2.3.3.625.3.975 0 .4-.125 1.133-.375 2.2a34.873 34.873 0 0 1-.825 3.1c-.066.35-.275 1.175-.625 2.475a69.154 69.154 0 0 0-.6 2.3c-.116.567-.175 1.025-.175 1.375v.2c-.25.45-.375 1.35-.375 2.7-.066.55-.191.975-.375 1.275-.183.317-.333.475-.45.475l-.075-.025a.4.4 0 0 0-.25.1c-.066.083-.166.125-.3.125-.416 0-.691-.15-.825-.45-.116-.3-.175-.708-.175-1.225 0-.3.009-.55.025-.75.05-.433.584-2.692 1.6-6.775.8-3.2 1.2-4.875 1.2-5.025l-.35.6c-.333.633-.75 1.375-1.25 2.225l-1.75 3.275c-.216.3-.4.592-.55.875a8.61 8.61 0 0 0-.225.5c-.2.4-.6.975-1.2 1.725-.2.25-.316.408-.35.475-.083.183-.35.508-.8.975-.45.45-.925.867-1.425 1.25-.5.367-.916.55-1.25.55-.45 0-.858-.217-1.225-.65-.35-.433-.525-.958-.525-1.575 0-.45.084-1.2.25-2.25.267-1.15.55-2.317.85-3.5.3-1.183.509-1.958.625-2.325.05-.15.075-.317.075-.5 0-.117-.016-.192-.05-.225-.016 0-.041.017-.075.05a1.044 1.044 0 0 1-.075.125c-.25.4-.641 1.1-1.175 2.1-.533 1-1.108 2.175-1.725 3.525-2.383 4.383-3.75 6.775-4.1 7.175Zm32.807-18.625c.3.083.55.258.75.525a1.36 1.36 0 0 1 .225 1.3c-.033.167-.141.442-.325.825l-.95 2.2c-.55 1.317-.883 2.067-1 2.25-.416.85-.783 1.525-1.1 2.025-.4.717-.991 1.683-1.775 2.9-.15.233-.466.675-.95 1.325a28.292 28.292 0 0 1-.975 1.275 8.765 8.765 0 0 1-.9 1.125c-.3.333-.733.783-1.3 1.35l-.6.625c-.15.2-.383.442-.7.725-.2.267-.45.4-.75.4-.183 0-.366-.058-.55-.175-.45-.283-.675-.592-.675-.925 0-.1.025-.217.075-.35.05-.117.35-.458.9-1.025a26.638 26.638 0 0 1 1.375-1.375c.667-.767 1.084-1.258 1.25-1.475a10.25 10.25 0 0 1-1.025-1.7c-.3-.65-.491-1.167-.575-1.55l-.425-2.2a1.522 1.522 0 0 0 0-.55l-.05-.3-.075-4.425.175-2.2v-.375a1.1 1.1 0 0 1 .175-.6c.117-.183.309-.275.575-.275.334-.05.675.092 1.025.425.35.317.525.642.525.975a.716.716 0 0 1-.075.325c-.05.1-.075.2-.075.3v.3c0 .167-.008.3-.025.4-.033.333-.066.8-.1 1.4-.016.6-.025 1.217-.025 1.85 0 .5.009.825.025.975l.225 2.175c.017.35.125.892.325 1.625.217.717.425 1.333.625 1.85l.325-.425c.25-.283.417-.525.5-.725.117-.267.309-.608.575-1.025.2-.3.334-.525.4-.675.184-.333.359-.633.525-.9.234-.367.392-.633.475-.8l1.625-3.075c.117-.383.242-.75.375-1.1.15-.433.292-.892.425-1.375.15-.483.25-.908.3-1.275.101-.383.325-.575.675-.575h.225a1.04 1.04 0 0 1 .325 0Zm8.354 19.475a6.188 6.188 0 0 0-.375-.075 1.453 1.453 0 0 0-.45-.025c-.283-.05-.558-.192-.825-.425-.25-.233-.35-.475-.3-.725.05-.05.092-.183.125-.4.034-.2.05-.383.05-.55.067-.183.142-.45.225-.8.1-.75.359-1.992.775-3.725.434-1.75.709-2.683.825-2.8l-.025-.275a1.97 1.97 0 0 1 .25-.8c.067-.2.117-.392.15-.575.05-.2.075-.35.075-.45.034-.05.15-.35.35-.9l.25-.7c.1-.317.234-.692.4-1.125.167-.433.275-.717.325-.85v-.125c.067-.083.25-.525.55-1.325.15-.333.292-.675.425-1.025.15-.367.3-.725.45-1.075.05-.1.125-.242.225-.425s.15-.308.15-.375c.067-.133.234-.2.5-.2.217 0 .434.05.65.15.217.1.367.233.45.4l.575.4-.85 1.825a29.89 29.89 0 0 0-.6 1.275c-.166.4-.25.633-.25.7-.033.117-.108.358-.225.725-.116.367-.241.783-.375 1.25-.066.233-.233.725-.5 1.475-.116.283-.175.442-.175.475 0-.067.9-.133 2.7-.2.3-.017.85-.042 1.65-.075.817-.05 1.325-.1 1.525-.15l1.275-.175.6-2.225c.2-.817.525-1.967.975-3.45.217-.717.475-1.267.775-1.65.3-.4.559-.6.775-.6.417 0 .759.3 1.025.9.2.167.3.358.3.575 0 .217-.125.542-.375.975-.216.4-.475 1.067-.775 2-.05.217-.133.475-.25.775v.1c0 .317-.075.55-.225.7-.05.05-.158.283-.325.7-.15.417-.225.658-.225.725.017.117 0 .267-.05.45-.05.167-.108.283-.175.35l-.475 2c-.3 1.267-.6 2.283-.9 3.05.017.083-.016.233-.1.45-.066.217-.1.367-.1.45-.25.8-.366 1.25-.35 1.35-.083.383-.241 1.075-.475 2.075-.15.667-.225 1.008-.225 1.025-.016.033-.091.05-.225.05-.266 0-.55-.058-.85-.175a1.59 1.59 0 0 1-.6-.55 1.207 1.207 0 0 1-.225-.7c0-.217.042-.408.125-.575.067-.117.192-.617.375-1.5l.25-1.075c.084-.267.175-.658.275-1.175.117-.533.2-.908.25-1.125.15-.867.25-1.325.3-1.375v-.25c-.05-.05-.35-.075-.9-.075-.566 0-1.233.033-2 .1-.766.05-1.45.125-2.05.225l-.7.025c-.35 0-.575.008-.675.025-.166 0-.308.008-.425.025h-.225c-.066.15-.258.867-.575 2.15-.316 1.283-.5 2.108-.55 2.475-.15.767-.325 1.583-.525 2.45a44.53 44.53 0 0 1-.45 2Zm17.721-2.075c-.766-.267-1.383-.767-1.85-1.5-.45-.733-.675-1.6-.675-2.6 0-.4.034-.767.1-1.1a7.97 7.97 0 0 1 .3-1.525c.1-.3.175-.608.225-.925 0-.033.017-.092.05-.175.034-.083.042-.15.025-.2.1-.25.242-.6.425-1.05.2-.45.325-.7.375-.75.067-.033.1-.075.1-.125a.39.39 0 0 0 .025-.1c0-.217.225-.683.675-1.4a30.23 30.23 0 0 1 1.5-2.1c.534-.683.85-1.025.95-1.025.034 0 .075-.033.125-.1.05-.083.084-.125.1-.125.117-.133.584-.375 1.4-.725.817-.367 1.467-.608 1.95-.725a3.076 3.076 0 0 1 1.025-.175c.85 0 1.542.4 2.075 1.2.534.783.809 1.875.825 3.275-.05.25-.091.617-.125 1.1-.033.383-.058.6-.075.65-.016.5-.125 1.125-.325 1.875-.183.733-.308 1.108-.375 1.125 0 .05-.016.108-.05.175a.409.409 0 0 0-.05.175c.017.15-.2.675-.65 1.575-.45.883-.708 1.333-.775 1.35a.193.193 0 0 0-.075.025c-.016.017-.016.05 0 .1.017.05-.116.2-.4.45-.266.25-.458.375-.575.375-.016 0-.033.008-.05.025 0 .017.017.05.05.1.034.05-.208.267-.725.65-.5.383-1.041.758-1.625 1.125-.583.35-1.025.558-1.325.625a.43.43 0 0 1-.225.125.699.699 0 0 1-.125.025c-.116.117-.333.217-.65.3-.3.083-.6.125-.9.125-.25 0-.475-.042-.675-.125Zm2.525-2.625c.5-.167 1-.433 1.5-.8.5-.383.8-.733.9-1.05.084-.3.2-.508.35-.625.284-.283.659-.933 1.125-1.95.484-1.033.734-1.733.75-2.1 0-.1.025-.258.075-.475.05-.233.109-.4.175-.5.034-.05.042-.158.025-.325a9.426 9.426 0 0 1-.025-.775c0-.433.009-.808.025-1.125-.05-1.083-.216-1.708-.5-1.875-.133-.1-.358-.15-.675-.15-.083 0-.191.017-.325.05-.083.017-.2.058-.35.125-.15.05-.266.075-.35.075-.233.133-.35.283-.35.45a.45.45 0 0 1-.2.375c-.116.1-.241.108-.375.025-.3.017-.491.058-.575.125-.083.067-.191.225-.325.475a8.894 8.894 0 0 1-.325.6c-.416.317-.733.65-.95 1-.216.35-.35.642-.4.875-.516.9-.841 1.533-.975 1.9-.116.35-.216.833-.3 1.45-.133.25-.241.542-.325.875-.066.333-.125.55-.175.65a2.25 2.25 0 0 0-.05.525c0 .367.025.75.075 1.15.05.383.117.642.2.775.134.45.425.675.875.675.367 0 .859-.142 1.475-.425Zm25.814-12.4c0 .083-.025.142-.075.175-.05.017-.075.033-.075.05s.033.05.1.1l-.175.825c-.067.35-.208 1.05-.425 2.1-.2 1.05-.35 1.9-.45 2.55l-.35 2.675c-.15 1.183-.258 2.092-.325 2.725-.05.633-.075 1.3-.075 2 0 .8.025 1.408.075 1.825.067.433.1.683.1.75 0 .1-.117.25-.35.45-.233.2-.492.3-.775.3-.433 0-.75-.183-.95-.55-.2-.35-.317-.9-.35-1.65 0-1.117.083-2.608.25-4.475.05-.117.075-.342.075-.675 0-.2-.017-.35-.05-.45-.017-.167.008-.4.075-.7a2.863 2.863 0 0 0 .075-.6c0-.083.033-.258.1-.525.1-.3.15-.533.15-.7v-.175c.05-.15.1-.333.15-.55.067-.233.1-.375.1-.425a1.436 1.436 0 0 1-.025-.35c0-.183-.017-.308-.05-.375.1-.283.217-.717.35-1.3l.3-1.2c-.017 0-.2.333-.55 1A15.2 15.2 0 0 1 253.03 116c-.383.617-.758 1.15-1.125 1.6-.35.45-.55.708-.6.775-.217.283-.425.55-.625.8-.183.25-.317.483-.4.7-.35.867-.758 1.5-1.225 1.9-.45.4-.908.625-1.375.675l-.4.05h-.15c-.317 0-.583-.208-.8-.625-.2-.417-.3-1.192-.3-2.325l.025-.675.075-1.4c.05-.283.092-.75.125-1.4.033-.667.058-1.108.075-1.325-.083.083-.233.392-.45.925-.2.533-.325.875-.375 1.025l-.225.575c-.083.117-.208.433-.375.95-.133.383-.317.85-.55 1.4-.367 1.2-.7 2.15-1 2.85-.133.283-.267.592-.4.925-.033.067-.133.333-.3.8-.233.6-.383.958-.45 1.075-.717 1.617-1.317 2.425-1.8 2.425-.267 0-.533-.142-.8-.425-.25-.267-.375-.558-.375-.875 0-.233.092-.542.275-.925.183-.4.45-.917.8-1.55l.525-.975c0-.083.2-.65.6-1.7l.35-.925 1.55-4.1.025-.1.15-.375c.05-.133.142-.333.275-.6.233-.533.35-.842.35-.925v-.05c0-.05.017-.083.05-.1a.39.39 0 0 1 .1-.025c.067-.183.183-.467.35-.85.183-.4.325-.7.425-.9l-.025-.1a.9.9 0 0 1 .075-.4c.067-.1.133-.192.2-.275a2.14 2.14 0 0 0 .2-.225c0-.1.05-.233.15-.4.1-.183.217-.367.35-.55.267-.367.442-.642.525-.825.167-.317.425-.475.775-.475.25 0 .5.1.75.3.25.2.458.425.625.675.167.233.25.392.25.475 0 .05-.025.083-.075.1-.05.017-.075.058-.075.125v.1c.017.05.025.117.025.2 0 .3-.042.533-.125.7a7.721 7.721 0 0 0-.225 1.925l.025.725c0 .133-.033.233-.1.3-.05.067-.092.125-.125.175v.05l-.025.2.025.15c0 .15-.042.333-.125.55-.1.383-.15.592-.15.625-.067.55-.1 1.117-.1 1.7 0 .867.075 1.342.225 1.425l1.8-2.675c1.533-2.267 2.308-3.425 2.325-3.475.117-.067.225-.192.325-.375-.017 0-.025-.017-.025-.05 0-.083.217-.442.65-1.075.433-.65.9-1.233 1.4-1.75.5-.533.908-.8 1.225-.8.15 0 .35.1.6.3.267.2.5.45.7.75.2.283.3.55.3.8Zm7.207 15.85c-.567-.133-1.225-.375-1.975-.725-.75-.333-1.15-.608-1.2-.825a.24.24 0 0 0-.1-.2.31.31 0 0 0-.225-.1v-.375c0-.117-.034-.192-.1-.225-.084-.167-.125-.408-.125-.725 0-.517.083-1.167.25-1.95.183-.783.383-1.483.6-2.1 0-.117.025-.267.075-.45.066-.183.1-.3.1-.35.133-.383.4-.992.8-1.825s.733-1.417 1-1.75c0-.05.058-.158.175-.325.133-.183.225-.367.275-.55.266-.267.625-.783 1.075-1.55.583-.483.825-.917.725-1.3.016-.35.158-.6.425-.75.283-.167.783-.333 1.5-.5a6.63 6.63 0 0 1 1.6-.4c.55-.083 1.275-.142 2.175-.175a4.5 4.5 0 0 1 .85-.125c.05-.05.3-.025.75.075.466.083.883.225 1.25.425.383.183.566.392.55.625-.017.133-.392.308-1.125.525-.717.2-1.375.333-1.975.4l-.625.075c-.967.1-1.667.208-2.1.325-.417.1-.8.3-1.15.6-.35.3-.75.8-1.2 1.5-.6.933-.9 1.567-.9 1.9 0 .217.116.325.35.325.15 0 .375-.017.675-.05a4.98 4.98 0 0 1 .675-.075c.083-.033.275-.1.575-.2a6.09 6.09 0 0 1 1.05-.225l1.1-.225c.333-.083.583-.125.75-.125.583 0 .875.2.875.6 0 .217-.109.45-.325.7-.2.25-.467.442-.8.575-.3.117-.642.233-1.025.35-.384.117-.625.175-.725.175a1.03 1.03 0 0 1-.25.05 3.247 3.247 0 0 1-.45.025l-1.125.15-.825.1c-.134.033-.45.117-.95.25-.5.133-.825.283-.975.45-.15.15-.292.4-.425.75a8.615 8.615 0 0 0-.525 1.775 9.489 9.489 0 0 0-.2 1.8c0 .517.075.85.225 1 .366.417.941.625 1.725.625.416 0 .841-.058 1.275-.175.45-.133.841-.308 1.175-.525.316-.25.666-.442 1.05-.575.15-.1.275-.15.375-.15.083 0 .175.033.275.1.1.05.191.108.275.175.1.067.183.125.25.175.133.183.2.375.2.575 0 .55-.7 1.117-2.1 1.7a25.11 25.11 0 0 1-1.875.575 5.286 5.286 0 0 1-1.275.175l-.4-.025Zm11.149.375a.505.505 0 0 1-.275-.1.73.73 0 0 1-.225-.225 1.39 1.39 0 0 1-.325-.425c-.083-.167-.125-.417-.125-.75 0-.583.184-1.425.55-2.525.117-.467.242-.917.375-1.35.117-.3.175-.525.175-.675 0-.133.017-.283.05-.45.05-.183.075-.308.075-.375.2 0 .384-.342.55-1.025.067-.25.125-.458.175-.625a4.41 4.41 0 0 0 .1-.425.938.938 0 0 0 .1-.225c.05-.1.092-.192.125-.275.134-.4.292-.783.475-1.15.2-.75.434-1.533.7-2.35.284-.833.517-1.45.7-1.85l.3-.75c.017-.05.05-.142.1-.275.067-.15.1-.258.1-.325s-.025-.117-.075-.15c-.116-.083-.175-.25-.175-.5 0-.417.159-.758.475-1.025.184-.217.425-.367.725-.45.317-.1.692-.15 1.125-.15.184 0 .509.017.975.05.2.017.734.025 1.6.025.1.05.284.125.55.225.567.233.85.375.85.425 0 .083.025.142.075.175a.95.95 0 0 0 .275.075c.184 0 .509.225.975.675.484.45.817.867 1 1.25.15.3.25.533.3.7.067.167.1.375.1.625 0 .1-.016.283-.05.55-.033.267-.075.525-.125.775s-.108.408-.175.475c-.266.2-.4.375-.4.525 0 .167-.241.633-.725 1.4-.483.767-.908 1.325-1.275 1.675-.433.5-.95.942-1.55 1.325-.7.317-1.491.592-2.375.825-.866.233-1.525.342-1.975.325-.533.083-.866.158-1 .225-.116.05-.208.183-.275.4l-.25.7c-.066.233-.1.392-.1.475-.1.183-.308.742-.625 1.675-.3.933-.508 1.65-.625 2.15a.85.85 0 0 1-.4.5c-.2.133-.383.2-.55.2Zm3.55-8.35c.034.033.125.05.275.05.434 0 1-.133 1.7-.4.6-.2 1.267-.525 2-.975.367-.25.8-.692 1.3-1.325.1-.167.3-.558.6-1.175.134-.233.259-.533.375-.9.134-.367.2-.692.2-.975 0-.133-.008-.233-.025-.3-.166-.867-.65-1.442-1.45-1.725-.533-.083-.908-.125-1.125-.125-.116 0-.308.017-.575.05-.266.083-.458.2-.575.35-.1.133-.25.45-.45.95-.533 1.017-.883 1.75-1.05 2.2-.316 1.133-.591 2.008-.825 2.625-.233.6-.366.95-.4 1.05v.1c0 .1-.008.2-.025.3-.016.1 0 .175.05.225Zm21.817-10.25c.3.083.55.258.75.525a1.36 1.36 0 0 1 .225 1.3c-.033.167-.141.442-.325.825l-.95 2.2c-.55 1.317-.883 2.067-1 2.25-.416.85-.783 1.525-1.1 2.025-.4.717-.991 1.683-1.775 2.9-.15.233-.466.675-.95 1.325a28.292 28.292 0 0 1-.975 1.275 8.765 8.765 0 0 1-.9 1.125c-.3.333-.733.783-1.3 1.35l-.6.625c-.15.2-.383.442-.7.725-.2.267-.45.4-.75.4-.183 0-.366-.058-.55-.175-.45-.283-.675-.592-.675-.925 0-.1.025-.217.075-.35.05-.117.35-.458.9-1.025a26.638 26.638 0 0 1 1.375-1.375c.667-.767 1.084-1.258 1.25-1.475a10.25 10.25 0 0 1-1.025-1.7c-.3-.65-.491-1.167-.575-1.55l-.425-2.2a1.522 1.522 0 0 0 0-.55l-.05-.3-.075-4.425.175-2.2v-.375a1.1 1.1 0 0 1 .175-.6c.117-.183.309-.275.575-.275.334-.05.675.092 1.025.425.35.317.525.642.525.975a.716.716 0 0 1-.075.325c-.05.1-.075.2-.075.3v.3c0 .167-.008.3-.025.4-.033.333-.066.8-.1 1.4-.016.6-.025 1.217-.025 1.85 0 .5.009.825.025.975l.225 2.175c.017.35.125.892.325 1.625.217.717.425 1.333.625 1.85l.325-.425c.25-.283.417-.525.5-.725.117-.267.309-.608.575-1.025.2-.3.334-.525.4-.675.184-.333.359-.633.525-.9.234-.367.392-.633.475-.8l1.625-3.075c.117-.383.242-.75.375-1.1.15-.433.292-.892.425-1.375.15-.483.25-.908.3-1.275.1-.383.325-.575.675-.575h.225a1.04 1.04 0 0 1 .325 0ZM58.173 159.05c-.066.067-.133.1-.2.1-.083 0-.225-.05-.425-.15a1.547 1.547 0 0 1-.75-.425c-.2-.2-.3-.433-.3-.7 0-.067.034-.2.1-.4.15-.283.534-1.675 1.15-4.175l.425-1.65c0-.017.034-.275.1-.775.05-.25.125-.708.225-1.375.2-.383.334-.8.4-1.25.084-.467.134-.733.15-.8.117-.467.2-.758.25-.875l.225-.875.15-.575c.117-.417.175-.683.175-.8v-.4h-.925l-.4.025a5.92 5.92 0 0 1-.625-.025l-.875-.025c-.783-.033-1.308-.108-1.575-.225-.266-.133-.408-.383-.425-.75-.066-.333.1-.592.5-.775.4-.2 1.217-.283 2.45-.25.234-.017.55-.025.95-.025.4 0 .725.008.975.025s.392.025.425.025a.59.59 0 0 0 .125-.2 3.61 3.61 0 0 0 .075-.2c0-.283.092-.458.275-.525.1-.217.309-.325.625-.325.184 0 .367.042.55.125a.98.98 0 0 1 .425.35c.034.083.05.233.05.45s.05.375.15.475c.067-.067.284-.108.65-.125.367-.017.625-.033.775-.05.317 0 .642-.008.975-.025.334-.033.559-.05.675-.05.15-.083.384-.125.7-.125.15 0 .359.017.625.05.334 0 .575.075.725.225.15.133.284.292.4.475 0 .183.042.317.125.4.067.05.1.1.1.15 0 .033-.033.108-.1.225-.116.15-.416.225-.9.225l-.525.025c-.366.033-.633.05-.8.05-.733.15-1.583.242-2.55.275-.683 0-1.025.067-1.025.2-.1 0-.291.542-.575 1.625-.1.4-.208.767-.325 1.1-.1.317-.183.533-.25.65.05.067.075.142.075.225 0 .083-.05.267-.15.55a6.98 6.98 0 0 1-.175.55c-.066.167-.1.3-.1.4-.016.067-.066.233-.15.5-.066.25-.125.533-.175.85-.083.8-.191 1.267-.325 1.4-.016.033-.058.1-.125.2a.716.716 0 0 0-.075.325c0 .233-.058.65-.175 1.25-.116.583-.208.9-.275.95.05 0 .075.05.075.15 0 .117-.05.292-.15.525 0 .133-.025.292-.075.475-.05.183-.075.308-.075.375-.166.467-.4 1.058-.7 1.775-.3.717-.483 1.108-.55 1.175Zm13.388.2c-.783 0-1.425-.05-1.925-.15a2.864 2.864 0 0 1-1.3-.575c-.8-.6-1.2-1.492-1.2-2.675 0-.5.092-1.117.275-1.85.084-.433.175-.8.275-1.1.117-.317.217-.475.3-.475l.175-.925c.017-.1.05-.233.1-.4.05-.183.092-.317.125-.4a.672.672 0 0 1 .15-.225c.067-.05.167-.275.3-.675 0-.033.008-.108.025-.225s.058-.25.125-.4c.25-.417.375-.692.375-.825.017-.05.084-.15.2-.3.117-.15.208-.325.275-.525l.325-.575c.5-.883.858-1.525 1.075-1.925.217-.417.35-.758.4-1.025a5.64 5.64 0 0 0 .2-.625c.1-.3.209-.508.325-.625-.05-.1.117-.225.5-.375.4-.15.883-.292 1.45-.425a10.58 10.58 0 0 1 1.55-.25c.1-.067.325-.117.675-.15a12.6 12.6 0 0 1 1.175-.05c.3 0 .717.017 1.25.05.267 0 .492.033.675.1.2.05.375.117.525.2.15.067.258.117.325.15l.325.325c.2.167.3.342.3.525 0 .167-.108.308-.325.425-.05.05-.325.092-.825.125-.483.033-1.008.05-1.575.05a9.7 9.7 0 0 0-1.975.225c-.25.05-.442.075-.575.075-.2.067-.45.108-.75.125-.283.017-.466.025-.55.025-.067 0-.3.317-.7.95-.383.633-.583 1.008-.6 1.125a.93.93 0 0 1-.15.475c-.1.167-.275.425-.525.775-.217.3-.325.583-.325.85 0 .167.05.267.15.3a30.302 30.302 0 0 1 1.925-.225c.767-.083 1.325-.125 1.675-.125.183-.05.334-.075.45-.075.233 0 .45.058.65.175.267.05.4.225.4.525a.745.745 0 0 1-.1.375c-.05.117-.117.192-.2.225-.15.15-.666.342-1.55.575a50.86 50.86 0 0 1-2.725.65c-.95.183-1.483.258-1.6.225-.05-.117-.1-.175-.15-.175-.166 0-.375.55-.625 1.65-.3.667-.483 1.108-.55 1.325-.067.2-.166.675-.3 1.425-.067.3-.1.508-.1.625 0 .65.383 1.15 1.15 1.5.284.05.575.075.875.075.55 0 1.217-.1 2-.3.067-.033.575-.317 1.525-.85.05 0 .175-.033.375-.1.217-.083.342-.125.375-.125.133-.183.3-.275.5-.275.05 0 .158.083.325.25.167.167.317.367.45.6.133.217.2.442.2.675 0 .167-.25.375-.75.625a35.32 35.32 0 0 1-2.175.925c-.7.3-1.192.492-1.475.575-.283.083-.683.125-1.2.125Zm21.513-11.8c.033-.167.125-.558.275-1.175.15-.617.275-1.183.375-1.7.1-.533.175-1.033.225-1.5-.633.017-1.342.1-2.125.25l-.2.15c-.4 1.15-.908 2.333-1.525 3.55-.55 1.117-.908 1.892-1.075 2.325-1.183 2.833-2.85 5.558-5 8.175-.283.35-.625.717-1.025 1.1-.4.383-.742.625-1.025.725-.117.05-.25.075-.4.075-.367 0-.725-.15-1.075-.45-.333-.3-.517-.633-.55-1 .083-.25.217-.45.4-.6.183-.167.4-.25.65-.25.167 0 .675-.508 1.525-1.525.85-1.033 1.417-1.758 1.7-2.175.2-.3.392-.633.575-1 .417-.767.792-1.317 1.125-1.65.067-.333.167-.6.3-.8l.475-1c.067-.15.192-.425.375-.825.183-.4.342-.717.475-.95.133-.233.242-.375.325-.425.217-.817.567-1.717 1.05-2.7l-.925.45a7.816 7.816 0 0 1-.975.5c-.267.1-.567.15-.9.15-.217 0-.492-.042-.825-.125-.2-.45-.3-.833-.3-1.15 0-.467.167-.808.5-1.025.35-.233.883-.467 1.6-.7l.625-.2c.3-.117.825-.283 1.575-.5a25.268 25.268 0 0 0 1.725-.575c.233 0 .625-.033 1.175-.1s.892-.133 1.025-.2c.367 0 .775.058 1.225.175.45.117.742.283.875.5.05.067.117.142.2.225.1.067.167.133.2.2l.525.4c.033.117.083.317.15.6.083.267.125.5.125.7 0 .35-.108 1-.325 1.95-.2.95-.358 1.558-.475 1.825-.083.233-.175.642-.275 1.225-.133.767-.267 1.317-.4 1.65-.133.367-.217.65-.25.85-.2 1-.6 2.342-1.2 4.025a4.906 4.906 0 0 0-.1.275c-.017.1-.05.2-.1.3-.283.767-.5 1.45-.65 2.05-.067.083-.15.242-.25.475-.117.267-.217.442-.3.525-.283.283-.592.425-.925.425-.3 0-.575-.117-.825-.35a1.872 1.872 0 0 1-.525-.9c.533-1.05 1.05-2.367 1.55-3.95.083-.25.142-.467.175-.65.05-.2.092-.358.125-.475.167-.733.325-1.283.475-1.65a3.12 3.12 0 0 0 .15-.625c.05-.25.083-.425.1-.525l.125-.625.45-1.775Zm9.999 11.6c-.567-.133-1.225-.375-1.975-.725-.75-.333-1.15-.608-1.2-.825a.238.238 0 0 0-.1-.2.31.31 0 0 0-.225-.1v-.375c0-.117-.034-.192-.1-.225-.084-.167-.125-.408-.125-.725 0-.517.083-1.167.25-1.95a20.39 20.39 0 0 1 .6-2.1c0-.117.025-.267.075-.45.066-.183.1-.3.1-.35.133-.383.4-.992.8-1.825s.733-1.417 1-1.75c0-.05.058-.158.175-.325.133-.183.225-.367.275-.55.266-.267.625-.783 1.075-1.55.583-.483.825-.917.725-1.3.016-.35.158-.6.425-.75.283-.167.783-.333 1.5-.5a6.63 6.63 0 0 1 1.6-.4c.55-.083 1.275-.142 2.175-.175a4.5 4.5 0 0 1 .85-.125c.05-.05.3-.025.75.075.466.083.883.225 1.25.425.383.183.566.392.55.625-.017.133-.392.308-1.125.525-.717.2-1.375.333-1.975.4l-.625.075c-.967.1-1.667.208-2.1.325-.417.1-.8.3-1.15.6-.35.3-.75.8-1.2 1.5-.6.933-.9 1.567-.9 1.9 0 .217.116.325.35.325.15 0 .375-.017.675-.05a4.98 4.98 0 0 1 .675-.075c.083-.033.275-.1.575-.2a6.09 6.09 0 0 1 1.05-.225l1.1-.225c.333-.083.583-.125.75-.125.583 0 .875.2.875.6 0 .217-.109.45-.325.7-.2.25-.467.442-.8.575-.3.117-.642.233-1.025.35-.384.117-.625.175-.725.175a1.03 1.03 0 0 1-.25.05 3.247 3.247 0 0 1-.45.025l-1.125.15-.825.1c-.134.033-.45.117-.95.25-.5.133-.825.283-.975.45-.15.15-.292.4-.425.75a8.615 8.615 0 0 0-.525 1.775 9.489 9.489 0 0 0-.2 1.8c0 .517.075.85.225 1 .366.417.941.625 1.725.625.416 0 .841-.058 1.275-.175.45-.133.841-.308 1.175-.525.316-.25.666-.442 1.05-.575.15-.1.275-.15.375-.15.083 0 .175.033.275.1.1.05.191.108.275.175.1.067.183.125.25.175.133.183.2.375.2.575 0 .55-.7 1.117-2.1 1.7a25.11 25.11 0 0 1-1.875.575 5.286 5.286 0 0 1-1.275.175l-.4-.025Zm27.049-11.725c.033.533.05.85.05.95 0 .383-.033.717-.1 1-.067.283-.217.867-.45 1.75-.35.667-.575 1.108-.675 1.325-.383.733-.742 1.317-1.075 1.75-.333.417-.942.983-1.825 1.7-.383.35-1.042.7-1.975 1.05-.917.35-1.642.525-2.175.525-.15.017-.392.025-.725.025-.233 0-.4-.008-.5-.025-.017.417-.158 1.333-.425 2.75-.233.417-.492.625-.775.625-.1 0-.2-.025-.3-.075-.3-.067-.567-.25-.8-.55-.233-.3-.333-.575-.3-.825a19 19 0 0 0 .375-1.625l.125-.525-1.725-.925c-.467-.35-.975-.85-1.525-1.5-.55-.65-.883-1.317-1-2-.083-.317-.125-.733-.125-1.25 0-1 .2-2.05.6-3.15.417-1.117.967-2.083 1.65-2.9.25-.283.508-.533.775-.75.267-.217.525-.408.775-.575.25-.183.417-.308.5-.375l.75-.525c.15-.1.408-.233.775-.4.383-.183.708-.317.975-.4.2-.067.392-.108.575-.125.2-.033.458-.05.775-.05.467 0 .892.008 1.275.025 0-.317.083-.808.25-1.475.017-.133.042-.267.075-.4.033-.133.058-.258.075-.375 0-.217.1-.4.3-.55.2-.167.417-.217.65-.15.3.067.583.217.85.45s.4.433.4.6c0 .267-.017.5-.05.7l-.425 1.7c.767.3 1.517.708 2.25 1.225.55.383.95.708 1.2.975a2.6 2.6 0 0 1 .6.925c.133.35.242.833.325 1.45Zm-10.675 5.9c.117-.283.358-.975.725-2.075.733-2.133 1.292-3.642 1.675-4.525l.875-2.075-.375-.025c-.2 0-.4.025-.6.075-.417.083-.892.3-1.425.65-.533.333-1.025.683-1.475 1.05-.567.45-.983.933-1.25 1.45-.767 1.433-1.15 2.483-1.15 3.15-.083.35-.125.642-.125.875 0 .35.05.658.15.925.1.267.242.525.425.775.233.4.533.725.9.975.383.25.8.467 1.25.65.05-.317.108-.667.175-1.05.083-.383.158-.658.225-.825Zm8.6-5.5c.083-.867-.192-1.492-.825-1.875-.117-.067-.342-.2-.675-.4a7.34 7.34 0 0 0-.85-.45 4.376 4.376 0 0 0-.7-.3c-.033.167-.142.475-.325.925-.133.283-.292.683-.475 1.2-.217.5-.608 1.517-1.175 3.05-.567 1.517-.917 2.5-1.05 2.95l-.225.7a7.63 7.63 0 0 0-.35 1.2l-.175.675.925-.3c.133-.067.317-.125.55-.175a7.64 7.64 0 0 0 .85-.3 5.359 5.359 0 0 0 1.975-1.35c.583-.617 1.158-1.458 1.725-2.525.117-.25.275-.742.475-1.475.2-.733.308-1.25.325-1.55Zm4.387 11.15c-.65-.483-1.15-.917-1.5-1.3-.35-.383-.533-.75-.55-1.1a2.756 2.756 0 0 1-.025-.45c0-.467.042-1.05.125-1.75.084-.7.167-1.258.25-1.675.067-.067.1-.167.1-.3.017-.133.017-.217 0-.25 0-.05.042-.217.125-.5.2-.617.342-1.133.425-1.55.45-1.367.892-2.458 1.325-3.275a18 18 0 0 1 1.45-2.3c1.134-1.167 2.342-2.05 3.625-2.65.65-.383 1.117-.575 1.4-.575.05 0 .125.017.225.05 2.05.45 3.275 1.75 3.675 3.9.15 1.017.225 1.783.225 2.3 0 .833-.15 1.675-.45 2.525-.3.85-.841 1.917-1.625 3.2-.666 1.333-1.425 2.475-2.275 3.425-.833.933-1.675 1.633-2.525 2.1-.833.467-1.616.7-2.35.7-.65 0-1.2-.175-1.65-.525Zm2-1.65c.4-.05.709-.125.925-.225.234-.1.467-.267.7-.5.25-.25.65-.692 1.2-1.325.7-.8 1.192-1.383 1.475-1.75.284-.383.542-.858.775-1.425.25-.567.525-1.383.825-2.45l.15-.575c.1-.35.167-.633.2-.85.05-.233.075-.483.075-.75l-.025-1.575a4.433 4.433 0 0 0-.175-.975c-.1-.35-.216-.6-.35-.75a1.517 1.517 0 0 0-.55-.375 1.398 1.398 0 0 0-.675-.175c-.166 0-.358.042-.575.125-.316.133-.758.492-1.325 1.075a16.473 16.473 0 0 0-1.525 1.75c-.433.6-.65 1-.65 1.2 0 .017-.008.067-.025.15a.545.545 0 0 1-.1.225c-.433.467-.875 1.45-1.325 2.95-.433 1.5-.683 2.808-.75 3.925a9.896 9.896 0 0 0 0 1c.034.183.125.392.275.625.117.183.325.358.625.525.317.15.592.2.825.15Zm10.622 3.075a6.188 6.188 0 0 0-.375-.075 1.453 1.453 0 0 0-.45-.025c-.283-.05-.558-.192-.825-.425-.25-.233-.35-.475-.3-.725.05-.05.092-.183.125-.4.034-.2.05-.383.05-.55.067-.183.142-.45.225-.8.1-.75.359-1.992.775-3.725.434-1.75.709-2.683.825-2.8l-.025-.275a1.97 1.97 0 0 1 .25-.8c.067-.2.117-.392.15-.575.05-.2.075-.35.075-.45.034-.05.15-.35.35-.9l.25-.7c.1-.317.234-.692.4-1.125.167-.433.275-.717.325-.85v-.125c.067-.083.25-.525.55-1.325.15-.333.292-.675.425-1.025.15-.367.3-.725.45-1.075.05-.1.125-.242.225-.425s.15-.308.15-.375c.067-.133.234-.2.5-.2.217 0 .434.05.65.15.217.1.367.233.45.4l.575.4-.85 1.825a29.89 29.89 0 0 0-.6 1.275c-.166.4-.25.633-.25.7-.033.117-.108.358-.225.725-.116.367-.241.783-.375 1.25-.066.233-.233.725-.5 1.475-.116.283-.175.442-.175.475 0-.067.9-.133 2.7-.2.3-.017.85-.042 1.65-.075.817-.05 1.325-.1 1.525-.15l1.275-.175.6-2.225c.2-.817.525-1.967.975-3.45.217-.717.475-1.267.775-1.65.3-.4.559-.6.775-.6.417 0 .759.3 1.025.9.2.167.3.358.3.575 0 .217-.125.542-.375.975-.216.4-.475 1.067-.775 2-.05.217-.133.475-.25.775v.1c0 .317-.075.55-.225.7-.05.05-.158.283-.325.7-.15.417-.225.658-.225.725.017.117 0 .267-.05.45-.05.167-.108.283-.175.35l-.475 2c-.3 1.267-.6 2.283-.9 3.05.017.083-.016.233-.1.45-.066.217-.1.367-.1.45-.25.8-.366 1.25-.35 1.35-.083.383-.241 1.075-.475 2.075-.15.667-.225 1.008-.225 1.025-.016.033-.091.05-.225.05-.266 0-.55-.058-.85-.175a1.59 1.59 0 0 1-.6-.55 1.207 1.207 0 0 1-.225-.7c0-.217.042-.408.125-.575.067-.117.192-.617.375-1.5l.25-1.075c.084-.267.175-.658.275-1.175.117-.533.2-.908.25-1.125.15-.867.25-1.325.3-1.375v-.25c-.05-.05-.35-.075-.9-.075-.566 0-1.233.033-2 .1-.766.05-1.45.125-2.05.225l-.7.025c-.35 0-.575.008-.675.025-.166 0-.308.008-.425.025h-.225c-.066.15-.258.867-.575 2.15-.316 1.283-.5 2.108-.55 2.475-.15.767-.325 1.583-.525 2.45a44.53 44.53 0 0 1-.45 2Zm24.596-.125c-.083 0-.208-.033-.375-.1a1.138 1.138 0 0 1-.375-.225c-.2-.2-.3-.5-.3-.9 0-.9-.016-1.492-.05-1.775l-.025-1.5c0-.383.025-.617.075-.7a2.13 2.13 0 0 1-.025-.375c0-.15.009-.325.025-.525.034-.217.05-.383.05-.5l-.1-.675h-1.35c-.1.017-.316.025-.65.025-.45 0-1.525-.05-3.225-.15l-.325.525a8.65 8.65 0 0 0-.25.325c-.133.2-.275.5-.425.9-.15.4-.35.858-.6 1.375-.233.517-.45.917-.65 1.2-.25.467-.483.808-.7 1.025-.2.217-.35.325-.45.325h-.125a.82.82 0 0 1-.3-.05 1.031 1.031 0 0 1-.3-.175c-.45-.2-.675-.5-.675-.9 0-.283.134-.617.4-1l.325-.525c0-.1.242-.625.725-1.575.5-.967.825-1.483.975-1.55.15-.15.225-.3.225-.45 0-.167-.1-.333-.3-.5a.425.425 0 0 1-.175-.2 1.03 1.03 0 0 1-.05-.325c0-.233.084-.433.25-.6.167-.167.425-.242.775-.225.084-.05.159-.092.225-.125.084-.033.142-.058.175-.075.05-.033.075-.075.075-.125 0-.083.134-.383.4-.9.284-.533.534-.933.75-1.2.167-.45.309-.775.425-.975.134-.2.217-.342.25-.425.084-.083.25-.358.5-.825.034-.05.142-.233.325-.55.167-.167.334-.358.5-.575.184-.233.3-.383.35-.45.067-.117.167-.258.3-.425.084-.2.234-.442.45-.725.217-.3.35-.483.4-.55.25-.3.55-.542.9-.725.35-.2.675-.3.975-.3.167 0 .309.025.425.075.417.183.784.525 1.1 1.025.317.5.5 1.083.55 1.75.017.117.05.375.1.775.067.4.1.75.1 1.05 0 .217-.025.392-.075.525v1.1c0 .55.017.958.05 1.225-.05.183-.075.483-.075.9l.025.975c0 .25-.008.458-.025.625l-.025.925-.025.925a42.13 42.13 0 0 0-.025 1.575l.025 1.975c0 1.133-.1 1.958-.3 2.475-.183.517-.466.8-.85.85Zm-5.05-9.35c.084-.017.292-.042.625-.075a7.54 7.54 0 0 1 1.075-.025c.467-.033.775-.05.925-.05.217 0 .434.008.65.025.234 0 .367-.008.4-.025.317.017.475-.275.475-.875a45.163 45.163 0 0 1-.175-3.8l.025-.775c0-.267-.025-.55-.075-.85-.033-.3-.058-.5-.075-.6-.066-.083-.308.192-.725.825-.4.633-.741 1.2-1.025 1.7-.1.133-.233.367-.4.7a9.665 9.665 0 0 0-.275.475 5.404 5.404 0 0 1-.325.6c-.816 1.3-1.225 2.133-1.225 2.5 0 .117.042.2.125.25Zm32.916-7.625c0 .083-.025.142-.075.175-.05.017-.075.033-.075.05s.034.05.1.1l-.175.825c-.066.35-.208 1.05-.425 2.1-.2 1.05-.35 1.9-.45 2.55l-.35 2.675c-.15 1.183-.258 2.092-.325 2.725-.05.633-.075 1.3-.075 2 0 .8.025 1.408.075 1.825.067.433.1.683.1.75 0 .1-.116.25-.35.45-.233.2-.491.3-.775.3-.433 0-.75-.183-.95-.55-.2-.35-.316-.9-.35-1.65 0-1.117.084-2.608.25-4.475.05-.117.075-.342.075-.675 0-.2-.016-.35-.05-.45-.016-.167.009-.4.075-.7a2.58 2.58 0 0 0 .05-.275c.017-.117.025-.225.025-.325 0-.083.034-.258.1-.525.1-.3.15-.533.15-.7v-.175c.05-.15.1-.333.15-.55.067-.233.1-.375.1-.425a1.492 1.492 0 0 1-.025-.35c0-.183-.016-.308-.05-.375.1-.283.217-.717.35-1.3l.3-1.2c-.016 0-.2.333-.55 1-.333.65-.741 1.308-1.225 1.975-.383.617-.758 1.15-1.125 1.6-.35.45-.55.708-.6.775-.216.283-.425.55-.625.8a3.11 3.11 0 0 0-.4.7c-.35.867-.758 1.5-1.225 1.9-.45.4-.908.625-1.375.675l-.4.05h-.15c-.316 0-.583-.208-.8-.625-.2-.417-.3-1.192-.3-2.325l.025-.675.075-1.4c.05-.283.092-.75.125-1.4.034-.667.059-1.108.075-1.325-.083.083-.233.392-.45.925-.2.533-.325.875-.375 1.025l-.225.575c-.083.117-.208.433-.375.95-.133.383-.316.85-.55 1.4-.366 1.2-.7 2.15-1 2.85a17.868 17.868 0 0 0-.7 1.725c-.233.6-.383.958-.45 1.075-.716 1.617-1.316 2.425-1.8 2.425-.266 0-.533-.142-.8-.425-.25-.267-.375-.558-.375-.875 0-.233.092-.542.275-.925.184-.4.45-.917.8-1.55l.525-.975c0-.083.2-.65.6-1.7l.35-.925 1.55-4.1.025-.1.15-.375c.05-.133.142-.333.275-.6.234-.533.35-.842.35-.925v-.05c0-.05.017-.083.05-.1a.4.4 0 0 1 .1-.025c.067-.183.184-.467.35-.85.184-.4.325-.7.425-.9l-.025-.1a.9.9 0 0 1 .075-.4c.067-.1.134-.192.2-.275.084-.083.15-.158.2-.225 0-.1.05-.233.15-.4.1-.183.217-.367.35-.55.267-.367.442-.642.525-.825.167-.317.425-.475.775-.475.25 0 .5.1.75.3.25.2.459.425.625.675.167.233.25.392.25.475 0 .05-.025.083-.075.1-.05.017-.075.058-.075.125v.1c.017.05.025.117.025.2 0 .3-.041.533-.125.7a7.721 7.721 0 0 0-.225 1.925l.025.725c0 .133-.033.233-.1.3a4.88 4.88 0 0 0-.125.175v.05l-.025.2.025.15c0 .15-.041.333-.125.55-.1.383-.15.592-.15.625-.066.55-.1 1.117-.1 1.7 0 .867.075 1.342.225 1.425l1.8-2.675c1.534-2.267 2.309-3.425 2.325-3.475.117-.067.225-.192.325-.375-.016 0-.025-.017-.025-.05 0-.083.217-.442.65-1.075.434-.65.9-1.233 1.4-1.75.5-.533.909-.8 1.225-.8.15 0 .35.1.6.3.267.2.5.45.7.75.2.283.3.55.3.8Zm7.807 2.275c.7.183 1.408.567 2.125 1.15a8.702 8.702 0 0 1 1.925 2.175c.417.667.625 1.425.625 2.275 0 .667-.117 1.325-.35 1.975-.233.65-.508 1.192-.825 1.625-.733.983-1.708 1.85-2.925 2.6-1.2.75-2.35 1.125-3.45 1.125-.317 0-.6-.033-.85-.1-.617-.15-1.1-.35-1.45-.6-.35-.25-.725-.625-1.125-1.125 0-.633.175-1.567.525-2.8.35-1.233.725-2.3 1.125-3.2.6-1.733 1.375-3.658 2.325-5.775.283-.65.667-1.408 1.15-2.275l.3-.6c.283-.517.458-.892.525-1.125.05-.267.133-.45.25-.55.117-.117.333-.267.65-.45.35.05.6.133.75.25.15.1.392.358.725.775v.375c.017.183 0 .35-.05.5-.05.15-.125.3-.225.45l-1.75 3.325Zm12.625-2.875c.017.05.025.133.025.25 0 .267-.05.533-.15.8-.1.267-.158.425-.175.475a30.843 30.843 0 0 1-.975 2.375l-.525 1.25c-.55 1.3-.992 2.383-1.325 3.25-.333.85-.65 1.75-.95 2.7-.2.6-.408 1.333-.625 2.2a8.327 8.327 0 0 1-.275 1 6.597 6.597 0 0 1-.45 1.025c-.15.067-.325.1-.525.1-.25 0-.592-.075-1.025-.225a2.256 2.256 0 0 1-.35-.475c-.067-.133-.1-.3-.1-.5 0-.083.017-.242.05-.475.167-.733.708-2.417 1.625-5.05.933-2.65 1.517-4.133 1.75-4.45a1.01 1.01 0 0 0 .15-.425l1.65-4.5a.717.717 0 0 1 .625-.325c.233 0 .492.092.775.275.283.167.55.408.8.725Zm-10.875 10.25c.45-.767.65-1.475.6-2.125 0-.533-.058-.942-.175-1.225-.1-.3-.333-.658-.7-1.075-.133-.167-.375-.342-.725-.525-.35-.2-.867-.442-1.55-.725l-1.6 4-.3.95c-.517 1.533-.883 2.808-1.1 3.825.317.05.6.075.85.075.35 0 .692-.058 1.025-.175.333-.133.717-.35 1.15-.65a11.92 11.92 0 0 0 1.5-1.15c.483-.45.825-.85 1.025-1.2Zm18.657 6.8a5.959 5.959 0 0 1-1.5-.8 3.076 3.076 0 0 1-1.024-1.325c-.267-.75-.4-1.633-.4-2.65 0-.983.058-1.817.174-2.5.117-.7.317-1.408.601-2.125l.225-.525c.266-.683.458-1.133.575-1.35.283-.65.783-1.492 1.5-2.525.666-1 1.191-1.742 1.575-2.225.399-.5.808-.925 1.225-1.275.416-.367 1.025-.825 1.825-1.375.483-.35 1.075-.525 1.775-.525.55 0 1.05.133 1.5.4.466.267.816.683 1.05 1.25.166.283.25.675.25 1.175 0 .8-.192 1.667-.575 2.6-.384.933-.842 1.642-1.375 2.125-.117.117-.276.175-.475.175-.2 0-.417-.058-.65-.175a2.732 2.732 0 0 1-.625-.425 5.796 5.796 0 0 1-.25-.5c-.017-.05.016-.083.099-.1.15-.183.367-.533.651-1.05.3-.533.499-.95.599-1.25l.151-.7c.1-.433.15-.717.15-.85a.551.551 0 0 0-.176-.4.268.268 0 0 0-.199-.075c-.134 0-.367.083-.7.25-.384.167-.842.508-1.375 1.025-.517.5-1.034 1.1-1.55 1.8-.767 1-1.359 1.825-1.775 2.475-.4.65-.709 1.308-.925 1.975l-.275.65c.016.067-.009.233-.076.5a3.217 3.217 0 0 1-.224.65c-.234.967-.35 1.842-.35 2.625 0 .617.058 1.15.175 1.6.133.45.316.783.55 1 .133.117.325.175.575.175.266 0 .566-.058.899-.175a24.82 24.82 0 0 0 1.101-.45c.383-.167.65-.283.8-.35.383-.15.741-.325 1.075-.525.35-.2.608-.383.774-.55.434-.317.784-.475 1.051-.475.216-.067.383 0 .5.2.133.2.199.475.199.825 0 .233-.158.517-.474.85a5.39 5.39 0 0 1-1.125.85c-.184.183-.592.4-1.225.65a9.519 9.519 0 0 1-1.875 1.025c-.7.3-1.342.45-1.926.45-.133 0-.3-.017-.5-.05Zm27.381-16.45c0 .217-.059.5-.175.85a13.96 13.96 0 0 0-.4 1.6 8.146 8.146 0 0 0-.125 1.25l.025.25c-.1.217-.184.55-.25 1a6.058 6.058 0 0 1-.1.55.408.408 0 0 1-.175.25c0 .067.008.175.025.325.033.15.05.275.05.375v.3c-.317 1.817-.475 3.425-.475 4.825 0 .733.05 1.308.15 1.725.116.417.266.642.45.675.033 0 .058.008.075.025.016.017.025.058.025.125a1.1 1.1 0 0 1-.175.6c-.1.183-.217.35-.35.5a5.068 5.068 0 0 1-.3.35 4.88 4.88 0 0 1-.125.175c-.034.067-.092.1-.175.1-.117 0-.325-.042-.625-.125-.05-.1-.209-.225-.475-.375-.267-.133-.484-.417-.65-.85-.167-.433-.25-1.167-.25-2.2 0-.283.008-.508.025-.675v-.075a2.434 2.434 0 0 1-.025-.425c0-.767.083-1.733.25-2.9a60.66 60.66 0 0 1 .575-3.2c.133-.567.308-1.267.525-2.1.216-.867.325-1.333.325-1.4l-.025-.025c.033.05-.334.725-1.1 2.025-.767 1.283-1.234 2.042-1.4 2.275-.084.117-.242.417-.475.9l-.7 1.45c-1.367 2.033-2.417 3.05-3.15 3.05-.7 0-1.159-.25-1.375-.75-.2-.5-.309-.942-.325-1.325a23.342 23.342 0 0 1-.025-.7c.033-.183.05-.4.05-.65v-.275c0-.05.016-.183.05-.4.05-.233.091-.492.125-.775 0-.1.083-.617.25-1.55.233-1.133.35-1.858.35-2.175 0-.067-.009-.108-.025-.125v.05c0 .05-.1.233-.3.55-.25.317-.542.783-.875 1.4a156.22 156.22 0 0 0-1.375 2.775c-.117.217-.292.575-.525 1.075-.05.517-.4 1.458-1.05 2.825l-.225.575c-.5 1.25-.9 2.167-1.2 2.75-.284.567-.5.842-.65.825-.084 0-.259-.083-.525-.25a3.194 3.194 0 0 1-.725-.625c-.217-.25-.325-.5-.325-.75 0-.033.141-.333.425-.9.466-.95.725-1.517.775-1.7.016-.067.033-.158.05-.275.033-.117.216-.417.55-.9 0-.1.075-.35.225-.75.166-.417.383-.892.65-1.425.133-.2.2-.392.2-.575.15-.183.341-.592.575-1.225.083-.233.166-.458.25-.675.1-.217.2-.383.3-.5.05-.033.133-.15.25-.35a50.61 50.61 0 0 1 1.55-2.65l.3-.55c.066-.183.125-.283.175-.3.066-.017.341-.475.825-1.375.75-1.05 1.183-1.575 1.3-1.575.1 0 .275.058.525.175.266.117.5.258.7.425.216.167.325.317.325.45 0 .05.008.192.025.425.016.233.025.483.025.75 0 .65-.275 2.817-.825 6.5l-.125.8c.016.05.041.15.075.3.033.133.05.283.05.45.216-.333.408-.6.575-.8.433-.633.741-1.133.925-1.5 0-.083.025-.167.075-.25.066-.083.133-.175.2-.275a2.69 2.69 0 0 0 .3-.45.79.79 0 0 0 .125-.425c.466-.667.883-1.3 1.25-1.9 1.4-2.183 2.266-3.425 2.6-3.725.116-.1.291-.183.525-.25.25-.067.483-.1.7-.1.466 0 .825.142 1.075.425.25.267.375.608.375 1.025Zm4.301 15.675c-.65-.483-1.15-.917-1.5-1.3-.35-.383-.534-.75-.55-1.1a2.644 2.644 0 0 1-.025-.45c0-.467.041-1.05.125-1.75.083-.7.166-1.258.25-1.675.066-.067.1-.167.1-.3.016-.133.016-.217 0-.25 0-.05.041-.217.125-.5.2-.617.341-1.133.425-1.55.45-1.367.891-2.458 1.325-3.275.433-.817.916-1.583 1.45-2.3 1.133-1.167 2.341-2.05 3.625-2.65.65-.383 1.116-.575 1.4-.575.05 0 .125.017.225.05 2.05.45 3.275 1.75 3.675 3.9.15 1.017.225 1.783.225 2.3 0 .833-.15 1.675-.45 2.525-.3.85-.842 1.917-1.625 3.2-.667 1.333-1.425 2.475-2.275 3.425-.834.933-1.675 1.633-2.525 2.1-.834.467-1.617.7-2.35.7-.65 0-1.2-.175-1.65-.525Zm2-1.65c.4-.05.708-.125.925-.225.233-.1.466-.267.7-.5.25-.25.65-.692 1.2-1.325.7-.8 1.191-1.383 1.475-1.75.283-.383.541-.858.775-1.425.25-.567.525-1.383.825-2.45l.15-.575c.1-.35.166-.633.2-.85.05-.233.075-.483.075-.75l-.025-1.575a4.492 4.492 0 0 0-.175-.975c-.1-.35-.217-.6-.35-.75a1.534 1.534 0 0 0-.55-.375 1.404 1.404 0 0 0-.675-.175c-.167 0-.359.042-.575.125-.317.133-.759.492-1.325 1.075a16.36 16.36 0 0 0-1.525 1.75c-.434.6-.65 1-.65 1.2 0 .017-.009.067-.025.15a.558.558 0 0 1-.1.225c-.434.467-.875 1.45-1.325 2.95-.434 1.5-.684 2.808-.75 3.925a9.315 9.315 0 0 0 0 1c.033.183.125.392.275.625.116.183.325.358.625.525.316.15.591.2.825.15Zm29.122 2.475c-1.267-.867-2.284-1.758-3.05-2.675a14.863 14.863 0 0 1-1.825-2.85c-.45-.967-1-2.317-1.65-4.05l-.225-.375c.033.067.05.175.05.325a.8.8 0 0 1-.1.4c-.234.383-.634 1.567-1.2 3.55-.567 1.983-.834 3.142-.8 3.475-.1.2-.159.433-.175.7a8.908 8.908 0 0 1-.05.575c-.15.167-.392.4-.725.7-.067.017-.15.025-.25.025-.2 0-.375-.042-.525-.125a2.773 2.773 0 0 1-.5-.35 2.221 2.221 0 0 0-.425-.35c.083-.85.233-1.683.45-2.5.233-.833.533-1.817.9-2.95l.625-1.975a1.07 1.07 0 0 1-.25-.3c-.05-.133-.1-.258-.15-.375a1.058 1.058 0 0 1-.1-.2.81.81 0 0 0-.125-.275c-.784 1.1-2.209 2.592-4.275 4.475l-.825.675c-.467.367-.8.65-1 .85-.134.133-.3.283-.5.45a8.61 8.61 0 0 1-.475.375c-.35.267-.625.483-.825.65-.267.233-.617.5-1.05.8-.534.367-.917.667-1.15.9-.267-.05-.467-.125-.6-.225a2.226 2.226 0 0 1-.4-.4 1.832 1.832 0 0 0-.55-.525c0-.45.041-.775.125-.975.083-.2.3-.367.65-.5.466-.167 1.425-.825 2.875-1.975a58.564 58.564 0 0 0 4.1-3.575c1.283-1.217 1.991-2.058 2.125-2.525.083-.417.291-.675.625-.775-.4-.883-.875-1.792-1.425-2.725s-1.1-1.725-1.65-2.375a4.128 4.128 0 0 0-.375-.375 9.445 9.445 0 0 1-.45-.475c-.1-.15-.2-.333-.3-.55l.025-.4c.116-.167.225-.317.325-.45s.192-.25.275-.35c.133-.017.275-.033.425-.05a4.22 4.22 0 0 1 .475-.025c.366 0 .691.142.975.425.283.283.708.908 1.275 1.875.566.95.858 1.583.875 1.9a.882.882 0 0 0 .2.425c.133.15.225.275.275.375.983 1.833 1.533 2.975 1.65 3.425.05.25.2.042.45-.625s.633-1.767 1.15-3.3c.667-2.083 1.083-3.217 1.25-3.4.233-.033.425-.05.575-.05.666 0 1.108.175 1.325.525.066.117.1.267.1.45 0 .317-.083.692-.25 1.125-.15.433-.309.758-.475.975a2.036 2.036 0 0 0-.025.375c0 .15-.025.267-.075.35v.2c-.317.317-.434.55-.35.7-.117.167-.217.4-.3.7a7.2 7.2 0 0 0-.15.325 1.6 1.6 0 0 1-.175.375c.45.1.8.367 1.05.8 1.133-.767 2.075-1.492 2.825-2.175.75-.7 1.425-1.442 2.025-2.225.616-.8 1.333-1.842 2.15-3.125l.875-.275a.551.551 0 0 0 .225.175c.1.033.2.058.3.075.116.017.233.042.35.075.15.317.225.617.225.9 0 .3-.067.575-.2.825a9.4 9.4 0 0 1-.675 1.025c-1.217 1.583-2.375 2.883-3.475 3.9-1.083 1-2.458 2.008-4.125 3.025.167.783.5 1.633 1 2.55.5.9 1.091 1.75 1.775 2.55.683.783 1.358 1.375 2.025 1.775.366.2.658.392.875.575.216.183.383.425.5.725-.084.533-.4.975-.95 1.325l-1.15.025Zm11.165-.45c-.783 0-1.425-.05-1.925-.15a2.864 2.864 0 0 1-1.3-.575c-.8-.6-1.2-1.492-1.2-2.675 0-.5.092-1.117.275-1.85.083-.433.175-.8.275-1.1.117-.317.217-.475.3-.475l.175-.925c.017-.1.05-.233.1-.4.05-.183.092-.317.125-.4a.663.663 0 0 1 .15-.225c.067-.05.167-.275.3-.675 0-.033.008-.108.025-.225s.058-.25.125-.4c.25-.417.375-.692.375-.825.017-.05.083-.15.2-.3s.208-.325.275-.525l.325-.575c.5-.883.858-1.525 1.075-1.925.217-.417.35-.758.4-1.025a5.64 5.64 0 0 0 .2-.625c.1-.3.208-.508.325-.625-.05-.1.117-.225.5-.375.4-.15.883-.292 1.45-.425.583-.133 1.1-.217 1.55-.25.1-.067.325-.117.675-.15.35-.033.742-.05 1.175-.05.3 0 .717.017 1.25.05.267 0 .492.033.675.1.2.05.375.117.525.2.15.067.258.117.325.15l.325.325c.2.167.3.342.3.525 0 .167-.108.308-.325.425-.05.05-.325.092-.825.125-.483.033-1.008.05-1.575.05a9.7 9.7 0 0 0-1.975.225c-.25.05-.442.075-.575.075-.2.067-.45.108-.75.125-.283.017-.467.025-.55.025-.067 0-.3.317-.7.95-.383.633-.583 1.008-.6 1.125a.93.93 0 0 1-.15.475c-.1.167-.275.425-.525.775-.217.3-.325.583-.325.85 0 .167.05.267.15.3a30.276 30.276 0 0 1 1.925-.225c.767-.083 1.325-.125 1.675-.125.183-.05.333-.075.45-.075.233 0 .45.058.65.175.267.05.4.225.4.525a.742.742 0 0 1-.1.375c-.05.117-.117.192-.2.225-.15.15-.667.342-1.55.575-.867.233-1.775.45-2.725.65-.95.183-1.483.258-1.6.225-.05-.117-.1-.175-.15-.175-.167 0-.375.55-.625 1.65-.3.667-.483 1.108-.55 1.325-.067.2-.167.675-.3 1.425-.067.3-.1.508-.1.625 0 .65.383 1.15 1.15 1.5.283.05.575.075.875.075.55 0 1.217-.1 2-.3.067-.033.575-.317 1.525-.85.05 0 .175-.033.375-.1.217-.083.342-.125.375-.125.133-.183.3-.275.5-.275.05 0 .158.083.325.25.167.167.317.367.45.6.133.217.2.442.2.675 0 .167-.25.375-.75.625a35.32 35.32 0 0 1-2.175.925c-.7.3-1.192.492-1.475.575-.283.083-.683.125-1.2.125Zm9.013.2c-.25 0-.509-.167-.775-.5-.267-.317-.4-.717-.4-1.2 0-.383.091-.758.275-1.125.333-.7.666-1.267 1-1.7.116-.167.2-.308.25-.425.066-.117.108-.275.125-.475.233-.3.541-.842.925-1.625.65-1.05 1.575-2.667 2.775-4.85.166-.3.491-.892.975-1.775.5-.883.833-1.408 1-1.575l.125-.175c-.05.083.033-.108.25-.575.233-.467.475-.883.725-1.25.266-.383.5-.575.7-.575.216 0 .466.092.75.275.283.167.525.425.725.775.216.333.325.733.325 1.2 0 .2-.009.358-.025.475l-.25 1.7-.125.55c-.217 1.1-.542 2.608-.975 4.525-.384 1.7-.575 2.725-.575 3.075 0 .1.016.183.05.25.033.05.075.075.125.075.033 0 .116-.05.25-.15.133-.117.25-.283.35-.5l.325-.5.425-.625a49.94 49.94 0 0 0 1.725-2.625c.683-1.117 1.791-3.025 3.325-5.725.316-.467.575-.875.775-1.225.266-.433.525-.842.775-1.225.25-.383.441-.625.575-.725a.97.97 0 0 1 .625-.2c.25.017.508.108.775.275.283.167.516.4.7.7.2.3.3.625.3.975 0 .4-.125 1.133-.375 2.2a35.57 35.57 0 0 1-.825 3.1c-.067.35-.275 1.175-.625 2.475a64.488 64.488 0 0 0-.6 2.3c-.117.567-.175 1.025-.175 1.375v.2c-.25.45-.375 1.35-.375 2.7-.067.55-.192.975-.375 1.275-.184.317-.334.475-.45.475l-.075-.025a.396.396 0 0 0-.25.1c-.067.083-.167.125-.3.125-.417 0-.692-.15-.825-.45-.117-.3-.175-.708-.175-1.225 0-.3.008-.55.025-.75.05-.433.583-2.692 1.6-6.775.8-3.2 1.2-4.875 1.2-5.025l-.35.6a56.13 56.13 0 0 1-1.25 2.225l-1.75 3.275c-.217.3-.4.592-.55.875-.134.283-.209.45-.225.5-.2.4-.6.975-1.2 1.725-.2.25-.317.408-.35.475-.084.183-.35.508-.8.975-.45.45-.925.867-1.425 1.25-.5.367-.917.55-1.25.55-.45 0-.859-.217-1.225-.65-.35-.433-.525-.958-.525-1.575 0-.45.083-1.2.25-2.25.266-1.15.55-2.317.85-3.5.3-1.183.508-1.958.625-2.325.05-.15.075-.317.075-.5 0-.117-.017-.192-.05-.225-.017 0-.042.017-.075.05a1.406 1.406 0 0 1-.075.125c-.25.4-.642 1.1-1.175 2.1-.534 1-1.109 2.175-1.725 3.525-2.384 4.383-3.75 6.775-4.1 7.175Zm-175.409 31.825c-.5.033-1.1-.025-1.8-.175a5.064 5.064 0 0 1-2-.875c-.617-.433-1.009-1.05-1.175-1.85a9.296 9.296 0 0 1-.175-1.875c0-1.383.216-2.858.65-4.425.166-.583.6-1.483 1.3-2.7.716-1.217 1.383-2.208 2-2.975.4-.483 1.025-1.075 1.875-1.775.866-.717 1.441-1.133 1.725-1.25.233-.117.5-.175.8-.175.2 0 .408.025.625.075.333.033.7.183 1.1.45.416.267.641.508.675.725 0 .067.033.1.1.1.083 0 .233-.042.45-.125.1-.117.266-.217.5-.3.233-.083.45-.125.65-.125.216 0 .333.05.35.15a.302.302 0 0 0-.05.175c0 .1.033.175.1.225.083-.033.066.225-.05.775-.117.533-.25.933-.4 1.2l-.075.25v.075c0 .117-.075.25-.225.4-.1.15-.242.608-.425 1.375-.184.767-.267 1.233-.25 1.4.016.067-.025.117-.125.15a.984.984 0 0 1-.35.05 2.47 2.47 0 0 1-.875-.15c-.267-.1-.459-.208-.575-.325-.117-.117-.175-.283-.175-.5 0-.2.066-.525.2-.975.266-.9.4-1.5.4-1.8 0-.333-.1-.575-.3-.725-.05-.1-.15-.175-.3-.225a1.28 1.28 0 0 0-.45-.075 1.11 1.11 0 0 0-.5.125c-.384.15-.95.583-1.7 1.3-.75.7-1.392 1.417-1.925 2.15-.817 1.133-1.434 2.275-1.85 3.425-.4 1.133-.6 2.225-.6 3.275 0 .833.125 1.617.375 2.35.033.083.133.233.3.45.166.2.3.333.4.4.266.067.608.1 1.025.1.333 0 .733-.025 1.2-.075.666-.117 1.166-.3 1.5-.55.35-.25.708-.633 1.075-1.15.15-.217.325-.325.525-.325.216 0 .416.117.6.35.183.233.3.508.35.825 0 .15-.15.458-.45.925-.284.45-.5.692-.65.725-.067.017-.109.042-.125.075 0 .017.008.058.025.125 0 .1-.184.242-.55.425-.367.2-.817.383-1.35.55a6.63 6.63 0 0 1-1.4.35Zm12.726.4a8.553 8.553 0 0 1-1.45.125c-.417 0-.758-.058-1.025-.175a2.022 2.022 0 0 1-.725-.475c-.15-.133-.225-.333-.225-.6 0-.167.033-.283.1-.35.233-.15.475-.267.725-.35.25-.083.675-.15 1.275-.2 1.2.05 2.342-.158 3.425-.625 1.083-.467 1.833-1.025 2.25-1.675.317-.567.475-1.042.475-1.425 0-.417-.192-.833-.575-1.25a1.356 1.356 0 0 0-.375-.225 1.17 1.17 0 0 0-.4-.1c-.15-.017-.292-.033-.425-.05-.3 0-.542.033-.725.1-.167.05-.383.15-.65.3-.083.05-.258.15-.525.3a2.505 2.505 0 0 1-.725.25c-.117.15-.308.275-.575.375a2.3 2.3 0 0 1-.725.125c-.233 0-.392-.042-.475-.125-.1 0-.183.05-.25.15-.067.083-.175.283-.325.6-.033.1-.108.267-.225.5-.033.133-.142.417-.325.85-.033.1-.092.25-.175.45-.067.2-.108.35-.125.45-.25.617-.458 1.033-.625 1.25-.167.217-.333.325-.5.325a.332.332 0 0 1-.2-.075 2.14 2.14 0 0 1-.225-.2c-.067-.1-.15-.2-.25-.3-.117 0-.233-.067-.35-.2a.908.908 0 0 1-.175-.575c0-.167.042-.358.125-.575.083-.183.317-.808.7-1.875.783-2.133 1.2-3.217 1.25-3.25.017-.217.067-.375.15-.475.1-.117.15-.192.15-.225.033-.067.175-.425.425-1.075.25-.65.483-1.083.7-1.3 0-.133.233-.567.7-1.3.05-.117.175-.425.375-.925.067-.2.125-.35.175-.45a4.72 4.72 0 0 1 .1-.225c.15-.167.225-.308.225-.425 0-.067-.042-.142-.125-.225-.083-.1-.15-.175-.2-.225-.033-.033-.067-.15-.1-.35-.033-.2-.05-.358-.05-.475 0-.05.275-.217.825-.5.567-.3.967-.5 1.2-.6.233-.1.533-.225.9-.375.383-.15.7-.267.95-.35.233-.083.492-.142.775-.175a3.92 3.92 0 0 1 .75-.025c.183-.067.367-.1.55-.1.25 0 .483.058.7.175.267.083.608.3 1.025.65.417.333.65.633.7.9.067.333.1.575.1.725a1.5 1.5 0 0 1-.175.675c-.033.35-.167.867-.4 1.55s-.417 1.092-.55 1.225c-.233.367-.4.642-.5.825-.4.717-.792 1.283-1.175 1.7a8.837 8.837 0 0 0-.25.275c-.133.15-.35.4-.65.75.083 0 .25.017.5.05.267.017.458.058.575.125.383.25.725.567 1.025.95.317.367.542.75.675 1.15.1.15.15.35.15.6 0 .333-.083.725-.25 1.175-.15.433-.35.833-.6 1.2-.15.283-.475.692-.975 1.225-.483.517-.758.775-.825.775a.54.54 0 0 0-.325 0c-.117.05-.317.142-.6.275-.133.15-.275.275-.425.375-.133.117-.242.158-.325.125a9.842 9.842 0 0 0-.95.45c-.433.117-1.075.25-1.925.4Zm-.775-8.25c.033.05.25-.008.65-.175.417-.167.858-.383 1.325-.65.483-.267.85-.517 1.1-.75.317-.217.608-.483.875-.8.267-.333.4-.55.4-.65.017-.05.067-.158.15-.325.1-.167.225-.342.375-.525.2-.2.358-.392.475-.575.133-.2.2-.333.2-.4.017-.05.058-.15.125-.3.083-.15.183-.325.3-.525.183-.233.308-.508.375-.825.083-.317.133-.492.15-.525.033-.35-.025-.608-.175-.775-.133-.183-.342-.275-.625-.275l-.225.025-.6.075a4.208 4.208 0 0 0-.725.15c-.2.05-.392.125-.575.225-.417.267-.625.475-.625.625 0 .083.058.125.175.125.083 0 .125.058.125.175 0 .233-.158.608-.475 1.125-.267.467-.808 1.492-1.625 3.075-.8 1.583-1.183 2.408-1.15 2.475Zm11.785 8.55c-.4-.05-.759-.183-1.075-.4-.3-.2-.5-.475-.6-.825a1.322 1.322 0 0 1-.05-.3c0-.433.175-.908.525-1.425.366-.533.758-1.008 1.175-1.425.216-.217.433-.475.65-.775.333-.417.533-.658.6-.725.65-.683 1.208-1.25 1.675-1.7a12.4 12.4 0 0 1 1.5-1.2 1.859 1.859 0 0 1-.525-.325l-.3-.3a5.178 5.178 0 0 1-1.25-1.675 5.034 5.034 0 0 1-.4-1.975c0-.9.208-1.775.625-2.625.116-.267.308-.558.575-.875l.5-.75c.466-.4.9-.708 1.3-.925.4-.233.866-.417 1.4-.55.183-.067.391-.117.625-.15.25-.05.425-.083.525-.1l.775-.15c.133-.033.35-.05.65-.05.283 0 .55-.033.8-.1.266.083.591.125.975.125.366 0 .641.025.825.075.233-.167.408-.25.525-.25.133 0 .341.092.625.275a.918.918 0 0 1 .475.175c.133.1.291.258.475.475l.05.5.125.325c-1.784 3.367-3.075 6.842-3.875 10.425l-.475 1.925-.125.55a86.243 86.243 0 0 1-.75 2.975c-.2.8-.359 1.242-.475 1.325a.374.374 0 0 1-.3.075h-.275c-.417 0-.8-.083-1.15-.25-.35-.15-.525-.375-.525-.675 0-.033.016-.117.05-.25l.3-.875c.083-.25.3-.925.65-2.025.366-1.1.591-1.917.675-2.45a.85.85 0 0 1 .075-.225c.05-.083.083-.15.1-.2.1-.267.216-.775.35-1.525-.434.2-.734.367-.9.5a3.926 3.926 0 0 1-.425.275c-.2.117-.342.217-.425.3a9.705 9.705 0 0 1-.75.65c-.367.3-.634.542-.8.725a44.402 44.402 0 0 0-2.375 2.825c-.817 1.033-1.35 1.892-1.6 2.575a.939.939 0 0 0-.075.3c-.017.15-.042.283-.075.4-.134.05-.334.142-.6.275Zm6.2-10.3c.933 0 1.666-.267 2.2-.8.05-.15.091-.3.125-.45.05-.15.1-.292.15-.425a360.64 360.64 0 0 1 1.1-3.225c.283-.767.6-1.5.95-2.2l-.3.025c-.384.033-.65.058-.8.075l-.825.1a3.247 3.247 0 0 1-.45.025c-.184 0-.334.025-.45.075-.7.317-1.242.608-1.625.875-.384.25-.734.625-1.05 1.125-.567.917-.85 1.742-.85 2.475 0 .467.133.908.4 1.325.216.317.433.567.65.75.216.167.475.25.775.25Zm18.066-.95c-.05.083-.183.192-.4.325.283.183.533.383.75.6.233.217.375.408.425.575.483.767.725 1.667.725 2.7 0 .533-.058 1.067-.175 1.6-.417.8-.667 1.267-.75 1.4-.35.667-.883 1.242-1.6 1.725-.717.483-1.375.8-1.975.95a7.306 7.306 0 0 1-2.125.325c-.167 0-.4-.017-.7-.05a4.816 4.816 0 0 1-1.15-.225c-.333-.1-.758-.292-1.275-.575a4.487 4.487 0 0 1-1.3-1.05c-.35-.417-.683-.892-1-1.425a1.28 1.28 0 0 1-.2-.725c0-.317.1-.625.3-.925.2-.3.442-.542.725-.725a1.2 1.2 0 0 1 .625-.2c.133 0 .25.025.35.075.117.05.2.083.25.1.317.05.517.217.6.5.083.283.133.433.15.45-.117.35-.208.592-.275.725a.65.65 0 0 1-.275.325c.25.383.558.708.925.975.2.15.483.283.85.4.383.117.65.158.8.125.017-.017.058-.025.125-.025.083 0 .167.017.25.05.1.017.158.017.175 0 .083-.033.233-.05.45-.05.233-.017.417-.058.55-.125a5.274 5.274 0 0 0 1.425-.625c.417-.283.808-.65 1.175-1.1.25-.35.417-.658.5-.925.1-.283.167-.658.2-1.125.033-.25 0-.533-.1-.85-.1-.317-.167-.542-.2-.675l-.325-.25-.55-.15c-.433-.133-.742-.2-.925-.2-.2 0-.408.033-.625.1-.283.083-.475.125-.575.125-.183 0-.35-.042-.5-.125a2.622 2.622 0 0 0-.25-.175c-.233-.083-.442-.258-.625-.525-.167-.283-.25-.558-.25-.825a.79.79 0 0 1 .125-.425.993.993 0 0 1 .475-.425c.217-.117.458-.158.725-.125.067.017.158.025.275.025.233 0 .517-.067.85-.2.2-.067.517-.25.95-.55.433-.3.65-.442.65-.425.55-.7.942-1.225 1.175-1.575.25-.367.45-.767.6-1.2a2.2 2.2 0 0 0 .275-1.075c0-.217-.042-.425-.125-.625-.017-.1-.133-.183-.35-.25a2.044 2.044 0 0 0-.6-.1.61.61 0 0 0-.225.025c-.267.017-.658.117-1.175.3-.517.167-.825.292-.925.375-.9.767-1.442 1.283-1.625 1.55-.067.117-.183.208-.35.275-.15.067-.317.1-.5.1-.317 0-.525-.083-.625-.25a1.797 1.797 0 0 1-.275-.95c0-.383.142-.75.425-1.1.317-.4.592-.717.825-.95.233-.25.508-.467.825-.65l.475-.275c.067-.033.217-.117.45-.25.25-.133.483-.233.7-.3a8.93 8.93 0 0 0 .575-.2 3.144 3.144 0 0 1 1.05-.175c.15 0 .267.008.35.025.567.05.983.15 1.25.3.283.15.717.475 1.3.975.25.167.45.458.6.875.15.417.225.892.225 1.425 0 .8-.15 1.525-.45 2.175a5.758 5.758 0 0 0-.275.525c-.033.067-.142.267-.325.6a4.46 4.46 0 0 1-.575.85c-.15.2-.467.592-.95 1.175Zm2.661 10.1a1.813 1.813 0 0 1-.4-.275.502.502 0 0 1-.1-.325c0-.167.067-.4.2-.7.15-.317.4-.808.75-1.475.1-.217.292-.6.575-1.15.717-1.367 1.075-2.375 1.075-3.025a.341.341 0 0 1-.025-.15c0-.167.133-.317.4-.45.05-.05.225-.192.525-.425.317-.233.567-.5.75-.8.217-.5.492-1.05.825-1.65.333-.617.908-1.617 1.725-3 .8-1.467 1.65-2.792 2.55-3.975.167-.233.35-.417.55-.55.217-.133.4-.2.55-.2.517 0 1.042.2 1.575.6.55.4.908.8 1.075 1.2.067.117.1.367.1.75 0 .517-.058 1.392-.175 2.625a14.09 14.09 0 0 0-.1 1.025c-.05.75-.125 1.55-.225 2.4a250.29 250.29 0 0 0-.4 4.375 37.566 37.566 0 0 0-.125 2.95c0 .467.008.808.025 1.025v.175l-.025.575c-.1.1-.3.15-.6.15-.333 0-.667-.058-1-.175-.333-.1-.517-.225-.55-.375a.303.303 0 0 0-.075-.05c-.033-.017-.05-.092-.05-.225l.025-.55.075-1.4.125-3.825-.325.025c-.333 0-1.042.067-2.125.2-1.067.133-1.742.242-2.025.325-.15 0-.333.1-.55.3-.217.2-.408.458-.575.775-.05.167-.167.408-.35.725-.183.3-.275.475-.275.525a1.07 1.07 0 0 0-.275.275c-.067.1-.108.167-.125.2 0 .183-.167.658-.5 1.425-.317.75-.633 1.367-.95 1.85l-.675.95-.875-.675Zm5.975-8.6.7-.1c.35-.067.658-.108.925-.125.8-.2 1.35-.3 1.65-.3.167 0 .283.017.35.05.05.067.1.117.15.15a.716.716 0 0 0 .125.025c.033-.133.167-1.042.4-2.725s.35-2.717.35-3.1c0-.267-.008-.492-.025-.675a2.202 2.202 0 0 0-.05-.375c-.15 0-.492.4-1.025 1.2a23.183 23.183 0 0 0-1.55 2.675c-.383.683-.65 1.025-.8 1.025-.117.117-.367.508-.75 1.175s-.533 1.033-.45 1.1Zm12.768 8.825c-.066.067-.133.1-.2.1-.083 0-.225-.05-.425-.15a1.55 1.55 0 0 1-.75-.425c-.2-.2-.3-.433-.3-.7 0-.067.034-.2.1-.4.15-.283.534-1.675 1.15-4.175l.425-1.65c0-.017.034-.275.1-.775.05-.25.125-.708.225-1.375.2-.383.334-.8.4-1.25.084-.467.134-.733.15-.8.117-.467.2-.758.25-.875l.225-.875.15-.575c.117-.417.175-.683.175-.8v-.4h-.925l-.4.025a5.92 5.92 0 0 1-.625-.025l-.875-.025c-.783-.033-1.308-.108-1.575-.225-.266-.133-.408-.383-.425-.75-.066-.333.1-.592.5-.775.4-.2 1.217-.283 2.45-.25.234-.017.55-.025.95-.025.4 0 .725.008.975.025s.392.025.425.025a.585.585 0 0 0 .125-.2 2.84 2.84 0 0 0 .075-.2c0-.283.092-.458.275-.525.1-.217.309-.325.625-.325.184 0 .367.042.55.125a.98.98 0 0 1 .425.35c.034.083.05.233.05.45s.05.375.15.475c.067-.067.284-.108.65-.125.367-.017.625-.033.775-.05.317 0 .642-.008.975-.025.334-.033.559-.05.675-.05.15-.083.384-.125.7-.125.15 0 .359.017.625.05.334 0 .575.075.725.225.15.133.284.292.4.475 0 .183.042.317.125.4.067.05.1.1.1.15 0 .033-.033.108-.1.225-.116.15-.416.225-.9.225l-.525.025c-.366.033-.633.05-.8.05-.733.15-1.583.242-2.55.275-.683 0-1.025.067-1.025.2-.1 0-.291.542-.575 1.625-.1.4-.208.767-.325 1.1-.1.317-.183.533-.25.65.05.067.075.142.075.225 0 .083-.05.267-.15.55-.05.183-.108.367-.175.55-.066.167-.1.3-.1.4-.016.067-.066.233-.15.5-.066.25-.125.533-.175.85-.083.8-.191 1.267-.325 1.4-.016.033-.058.1-.125.2a.716.716 0 0 0-.075.325c0 .233-.058.65-.175 1.25-.116.583-.208.9-.275.95.05 0 .075.05.075.15 0 .117-.05.292-.15.525 0 .133-.025.292-.075.475-.05.183-.075.308-.075.375-.166.467-.4 1.058-.7 1.775-.3.717-.483 1.108-.55 1.175Zm20.488-14.4c-.033.867-.133 1.5-.3 1.9-.166.4-.4.608-.7.625-.083-.017-.266-.05-.55-.1a2.74 2.74 0 0 1-.825-.35c-.25-.167-.375-.392-.375-.675 0-.117.059-.392.175-.825.184-.733.275-1.183.275-1.35 0-.517-.225-.85-.675-1-.516 0-1.175.4-1.975 1.2-.8.8-1.591 1.792-2.375 2.975-.783 1.183-1.4 2.308-1.85 3.375-.816 2.35-1.275 3.933-1.375 4.75.034.133.05.325.05.575 0 .117-.025.175-.075.175.05.367.2.733.45 1.1.267.35.575.525.925.525.35 0 .775-.058 1.275-.175.517-.133.892-.283 1.125-.45.134 0 .342-.058.625-.175.3-.133.5-.225.6-.275.517-.233.95-.408 1.3-.525.35-.133.675-.2.975-.2.117 0 .342.033.675.1-.016.067-.041.2-.075.4a4.116 4.116 0 0 1-.15.575c-.283.4-.541.683-.775.85-.216.167-.525.342-.925.525-.316.117-.6.258-.85.425-1.2.733-2.391 1.1-3.575 1.1-.533 0-1.116-.117-1.75-.35-.616-.217-1.125-.492-1.525-.825-.133-.217-.308-.667-.525-1.35-.216-.683-.325-1.117-.325-1.3 0-.05.017-.125.05-.225a.77.77 0 0 0 .05-.225v-.25a.953.953 0 0 1-.05-.3c.017-.517.225-1.367.625-2.55a45.3 45.3 0 0 1 1.65-4.025c.417-.9 1.017-1.9 1.8-3a23.56 23.56 0 0 1 2.475-2.95c.867-.85 1.584-1.383 2.15-1.6.35-.117.634-.175.85-.175.6 0 1.167.15 1.7.45.534.283.967.733 1.3 1.35.334.6.5 1.35.5 2.25Zm1.464 14.25a4.374 4.374 0 0 1-.75-.725c-.2-.267-.3-.508-.3-.725 0-.317.275-.542.825-.675 1.716-.417 3.641-2.092 5.775-5.025-.734-.4-1.284-.817-1.65-1.25-.367-.45-.634-1.067-.8-1.85a4.753 4.753 0 0 1-.125-1c.083-.117.125-.292.125-.525.016-.233.041-.4.075-.5l.55-1.625c.55-1.583 2.083-2.808 4.6-3.675.816-.333 1.416-.475 1.8-.425l.325-.025c.15-.05.3-.075.45-.075.116 0 .2.008.25.025a.747.747 0 0 1 .225-.025c.283 0 .6.092.95.275.366.167.675.383.925.65.266.267.4.533.4.8 0 .083-.009.15-.025.2a52.33 52.33 0 0 1-.325.925c-.267.833-.484 1.45-.65 1.85-.45 1.1-.975 2.667-1.575 4.7-.584 2.033-.917 3.517-1 4.45-.134.367-.25.975-.35 1.825-.017.15-.05.367-.1.65a5.012 5.012 0 0 1-.125.7c-.05.217-.2.408-.45.575-.25.167-.5.25-.75.25a.771.771 0 0 1-.35-.075 2.349 2.349 0 0 1-.525-.375 14.114 14.114 0 0 1-.525-.5c.05-.183.108-.458.175-.825.066-.45.158-.817.275-1.1.033-.35.108-.825.225-1.425a4.48 4.48 0 0 0 .1-.525c.1-.533.2-.925.3-1.175l.05-.4c-.234.383-.875 1.158-1.925 2.325a26.573 26.573 0 0 1-3.325 3.125c-1.15.9-2.075 1.3-2.775 1.2Zm8.575-8.975c.783-2.483 1.45-4.692 2-6.625a6.579 6.579 0 0 0-2.25.675 5.68 5.68 0 0 0-1.85 1.45 3.75 3.75 0 0 0-.875 2.025 2.85 2.85 0 0 1-.125.6.716.716 0 0 0-.075.325c0 .333.133.658.4.975.283.317.575.475.875.475.2 0 .408-.067.625-.2.216-.133.341-.208.375-.225l.9.525Zm14.882 3.5a.734.734 0 0 1-.575-.3 1.136 1.136 0 0 1-.175-.625 1.56 1.56 0 0 0-.05-.2 2.424 2.424 0 0 1-.025-.35c0-.083.008-.15.025-.2 0-.083.075-.292.225-.625.116-.283.2-.492.25-.625.183-.317.458-.683.825-1.1.383-.433.716-.75 1-.95l.425-.3c0-.067.116-.192.35-.375a3.68 3.68 0 0 1 .6-.4c.066-.05.183-.133.35-.25.166-.117.325-.242.475-.375.366-.367.641-.708.825-1.025.183-.333.316-.667.4-1 .083-.333.208-.9.375-1.7.016-.55-.009-.9-.075-1.05-.05-.15-.184-.308-.4-.475a4.206 4.206 0 0 0-.55-.05c-1.117 0-1.984.675-2.6 2.025-.117.3-.175.517-.175.65 0 .083.025.192.075.325 0 .1.016.25.05.45.05.183.075.325.075.425-.034.017-.142.05-.325.1a2.18 2.18 0 0 1-.575.075c-.334 0-.592-.092-.775-.275-.034-.05-.1-.133-.2-.25a7.22 7.22 0 0 1-.25-.35.755.755 0 0 1-.125-.3c-.017-.1-.025-.2-.025-.3.016-.117.025-.233.025-.35.2-.633.5-1.258.9-1.875s.883-1.067 1.45-1.35c.3-.133.591-.275.875-.425.3-.167.491-.275.575-.325h.25l.575-.075h.275c.166 0 .25.033.25.1h.725c.3.083.675.275 1.125.575.45.283.766.525.95.725.1.317.15.7.15 1.15 0 .833-.159 1.742-.475 2.725-.317.967-.725 1.725-1.225 2.275l-.55.5c-.817.733-1.334 1.225-1.55 1.475-.534.3-1.025.758-1.475 1.375a7.388 7.388 0 0 0-1 1.9c-.317.667-.742 1-1.275 1Zm-.575 4.425c-.317.133-.584.2-.8.2-.25 0-.534-.117-.85-.35-.25-.25-.375-.5-.375-.75 0-.417.308-.833.925-1.25.166-.1.316-.183.45-.25a.8.8 0 0 1 .35-.1c.133 0 .358.067.675.2.483.283.725.625.725 1.025 0 .467-.367.892-1.1 1.275Z" fill="#1EA6F9"/><path d="M7.795 142.477c-5.423 48.504 70.753 70.884 115.119 75.255 62.049 6.938 79.891 3.624 95.435 2.707l39.539 21.234-4.378-27.921c21.261-4.702 114.433-11.539 112.403-66.185-2.205-59.356-130.569-71.231-175.406-72.705-44.836-1.474-175.523 3.319-182.712 67.615Z" stroke="#6ABDEC" stroke-width="3" stroke-linecap="round" stroke-dasharray="6 12"/></g><defs><clipPath id="a"><path fill="#fff" d="M0 0h378v716H0z"/></clipPath></defs></svg>