<svg width="378" height="716" fill="none" xmlns="http://www.w3.org/2000/svg"><g clip-path="url(#a)"><path opacity=".23" d="M110.151 582.659c-9.968-6.509-24.92 2.712-31.151 8.136L176.606 454l94.491 40.174L282 597.406c-5.884-2.203-19.833-6.611-28.555-6.611-10.903 0-51.399 12.205-70.609 12.205-19.209 0-60.225-12.205-72.685-20.341Z" fill="#070707"/><path d="M148.547 579.982c37.882 10.243 76.921 7.501 107.215-3.78 8.254 7.971 28.411 25.695 29.803 18.253a101.414 101.414 0 0 0-1.255-33.294 68.893 68.893 0 0 0 21.451-24.364c19.118-38.66 16.608-78.986-10.176-115.335-3.549-19.233-21.588-60.929-29.549-65.394 22.274-26.44 28.274-64.63-10.274-88.779-38.549-24.148-91.353-9.263-98.039 27.791-6.686 37.055 10.549 44.301 10.549 44.301s-23.529 10.753-31.176 16.687c-7.647 5.934-20.255 16.686-20.255 16.686l-23.117 9.91-9.432 4.113-3.53 4.309s-36.371 22.561-39.568 58.304c-3.196 35.742 9.294 68.547 12.824 70.505 3.53 1.959 24.294 24.893 24.294 24.893l-4.55 10.889-1.215 15.472-.274 12.809-1.216 5.562 3.627 1.155 7.961-3.27 11.765-10.008 13.902-10.987c4.2.793 8.284 2.109 12.156 3.917 5.138 2.565 28.079 9.655 28.079 9.655Z" fill="#F5FCFF"/><path d="M142.351 364.822s16.804-10.948 24.313-14.434c7.51-3.486 10.255-5.014 10.255-5.014a91.267 91.267 0 0 0 16.02 1.959c6.49 0 17.764-3.643 23.784-3.76 8.764-1.117 23.784 5.738 38.039 14.257 18.019 10.753 31.372 40.757 34.039 51.744 2.666 10.987 0 3.917 0 3.917s-29.275-35.096-84.588-45.613c-55.313-10.518-64.843-.236-64.843-.236l2.981-2.82Z" fill="#B5E3FF"/><path d="M52.018 491.634s-8.02-34.998 10.608-65.746a112.211 112.211 0 0 1 9.803-13.71c-12.725 43.949 14.55 9.303 22.824 2.723 7.843-6.307 69.764 8.754 9.176-28.163 24.588-12.3 61.98-21.544 111.215-7.09 30.529 9.009 60.47 28.888 75.588 51.019-70.255 11.241-8.549 17.998-5.471 25.46 3.922 9.557 9.98 55.797 21.569 24.892 3.392 25.226-2.236 48.963-15.843 62.672-21.02-30.024-46.059-48.473-120.941-45.554-48.686-35.997-93.509-26.499-118.528-6.503Z" fill="#B5E3FF"/><path d="M270.467 356.068s13.725-20.682 10.569-37.682c-2.883-15.002-13.079-44.066-48.569-53.506-26.254-7.011-62.156 2.86-67.313 42.774-3.745 28.986 27.118 40.423 32.039 39.973 4.922-.451 26.667-5.504 29.412-10.987 7.568 1.488 39.372 19.428 39.372 19.428h4.49ZM64.586 446.139s16.177-49.491 27.451-53.115c11.275-3.623 28.431 10.204 38.961 18.116-7.843 1.078-20.432 6.248-23.059 8.383-2.882-3.016-12.53-7.149-12.53-7.149l-4.274 3.917-2.568 12.789a70.156 70.156 0 0 0-12.392 6.737 126.655 126.655 0 0 0-11.589 10.322Zm205.45 12.319s-5.255-8.5-8.137-10.243c-2.883-1.743-8.51-5.876-8.51-5.876s39.215-7.129 45.686-1.39c6.47 5.738 2.176 55.112 2.176 55.112l-2.745 6.267s-5.196-10.243-7.059-14.865c-1.862-4.622-9.098-13.259-9.098-13.259l4.079-12.495-3.255-5.66h-8.137l-5 2.409ZM83.312 549.9a11.159 11.159 0 0 0-4.255 6.619c-1 4.505-1.627 14.748 0 16.882 1.627 2.135 2.49 5.876 1.627 7.619a7.106 7.106 0 0 1-4.02 3.917 2.658 2.658 0 0 0-1.774 1.379 2.662 2.662 0 0 0-.088 2.244c.608 1.508 5 1.136 6 0s10.843-8.872 13.51-11.124c2.666-2.252 10.451-10.889 13.902-10.987 3.451-.098-5.51-4.779-5.51-4.779L83.312 549.9Zm174.214 26.067s9.255-4.642 11.588-5.876c2.334-1.233 14.255-8.225 14.255-8.225s-5.882 8.049-5.882 14.121c0 6.071 1.745 11.613 2.941 12.377 1.196.764 4.51-.372 5.569.94 1.058 1.312-1.059 5.171-1.824 5.171-.765 0-8.176-.745-10.588-4.466-2.412-3.721-10.373-9.459-12.569-10.34-2.196-.882-5.255-2.37-5.255-2.37l1.765-1.332ZM126.151 454.405c12.436-3.765 20.435-13.681 17.866-22.149-2.569-8.467-14.734-12.28-27.17-8.515-12.436 3.764-20.435 13.681-17.866 22.148 2.569 8.468 14.734 12.28 27.17 8.516Zm136.125 33.543c6.989-5.437 6.182-18.145-1.802-28.386s-20.123-14.136-27.112-8.699c-6.988 5.436-6.181 18.145 1.803 28.385 7.984 10.241 20.122 14.136 27.111 8.7Z" fill="#1EA6F9"/><path d="M109.755 500.616c1.413-6.931-7.488-14.594-19.882-17.115-12.394-2.521-23.587 1.055-25 7.986-1.413 6.932 7.488 14.595 19.882 17.116 12.394 2.521 23.587-1.055 25-7.987Zm169.721 40.859c2.012-6.782-6.189-15.19-18.316-18.778-12.128-3.588-23.59-.998-25.601 5.784-2.011 6.783 6.189 15.19 18.317 18.778 12.127 3.588 23.589.999 25.6-5.784Z" fill="#FFDCD9"/><path d="M195.527 588.364a175.283 175.283 0 0 1-38.784-4.191c-30.883-7.09-130.313-37.877-116.294-135.821 3.432-24.05 16.294-43.87 37.863-58.97a2.097 2.097 0 0 1 2.392 3.427c-20.745 14.395-32.921 33.294-36.196 56.13-13.51 94.439 83.117 124.286 113.058 131.219 51.333 11.751 135.862.137 154.215-62.554a104.313 104.313 0 0 0-2.471-67.685 2.098 2.098 0 0 1 2.814-2.672c.509.225.907.644 1.108 1.164a108.5 108.5 0 0 1 2.588 70.368c-14.882 50.842-71.156 69.585-120.293 69.585Zm106.881-154.975a2.097 2.097 0 0 1-1.784-.979c-18.725-30.239-52.784-52.292-95.882-62.202-28.254-6.482-75.587-4.328-112.705 15.786a2.104 2.104 0 0 1-2.648-.955 2.093 2.093 0 0 1 .687-2.727c38.039-20.604 86.608-22.817 115.686-16.178 44.196 10.126 79.176 32.884 98.509 64.082a2.075 2.075 0 0 1-1.765 3.173h-.098Zm-33.372-73.424c-.5.009-.983-.173-1.353-.509a2.076 2.076 0 0 1-.235-2.938c.157-.156 14.843-17.489 16.274-37.035 1.431-19.546-19.215-58.755-63.921-62.28a55.23 55.23 0 0 0-22.95 2.418 55.178 55.178 0 0 0-19.952 11.585c-13.725 12.28-19.607 28.888-19.607 33.726-.177 6.247.549 21.837 10.804 31.805 6.745 6.542 16.509 9.519 29.039 8.814 12.529-.705 22.019-4.603 28.058-11.634a33.15 33.15 0 0 0 7.216-22.581 2.091 2.091 0 0 1 .54-1.412 2.103 2.103 0 0 1 2.809-.278c.419.311.707.767.808 1.279a36.829 36.829 0 0 1-8.177 25.675c-6.784 7.834-17.255 12.339-31.078 13.103-13.823.763-24.568-2.605-32.176-9.989-11.451-11.124-12.314-28.143-12.079-34.9.177-6.169 6.706-23.835 21.059-36.702a59.22 59.22 0 0 1 21.398-12.444 59.28 59.28 0 0 1 24.621-2.617c48.078 3.917 69.353 44.85 67.745 66.726-1.529 20.956-16.627 38.719-17.255 39.464a2.125 2.125 0 0 1-1.588.724Z" fill="#070707"/><path d="M116.841 374.83a2.133 2.133 0 0 1-1.53-.666 2.095 2.095 0 0 1 .118-2.957 243.009 243.009 0 0 1 25.804-20.466 163.816 163.816 0 0 1 25.843-13.201 2.109 2.109 0 0 1 2.725 1.195 2.101 2.101 0 0 1-1.196 2.722 161.116 161.116 0 0 0-25.098 12.809 247.468 247.468 0 0 0-25.254 19.977 1.95 1.95 0 0 1-.647.436 1.948 1.948 0 0 1-.765.151Zm178.724 48.727a2.078 2.078 0 0 1-2.078-1.958c0-.196-.687-19.468-14.275-45.418-13.588-25.95-52.784-38.68-53.176-38.817a2.079 2.079 0 0 1-1.589-2.681 2.071 2.071 0 0 1 1.152-1.264 2.079 2.079 0 0 1 1.712.028c1.686.549 41.333 13.573 55.587 40.756 14.079 26.871 14.726 46.436 14.745 47.259a2.092 2.092 0 0 1-1.96 2.135l-.118-.04ZM75.978 592.771c-3.921 0-5.686-1.528-6.47-2.86a5.34 5.34 0 0 1 .412-5.64c.725-1.234.568-7.834.47-12.182 0-3.133-.137-6.365 0-9.244.255-8.793 5.882-18.664 6.059-19.076a2.073 2.073 0 0 1 1.26-.979c.263-.073.539-.093.81-.06a2.094 2.094 0 0 1 1.389.787 2.083 2.083 0 0 1 .168 2.309s-5.294 9.381-5.51 17.137v9.028c.177 7.834.216 12.456-1.156 14.552a1.37 1.37 0 0 0-.294 1.273c.215.352 1.235.901 3.666.764 2.824-.177 5.608-3.075 8.55-6.13a40.629 40.629 0 0 1 6.588-5.876 40.92 40.92 0 0 0 5.156-4.289c3.824-3.545 8.177-7.56 13.961-7.56a2.1 2.1 0 0 1 1.895 2.086 2.097 2.097 0 0 1-1.895 2.086c-4.157 0-7.549 3.133-11.137 6.443a44.252 44.252 0 0 1-5.686 4.72 36.555 36.555 0 0 0-5.883 5.308c-3.372 3.505-6.862 7.109-11.294 7.403h-1.059Zm206.842 4.563c-2.843 0-7.039-1.762-11.568-6.796-4.53-5.033-18.255-11.868-18.392-11.947a2.091 2.091 0 0 1 .363-3.851 2.094 2.094 0 0 1 1.597.15c.608.294 14.765 7.52 19.608 12.867 4.373 4.838 7.667 5.543 8.745 5.386a7.833 7.833 0 0 0 1.628-5.249c-.981-.724-3.236-3.075-.687-15.413a21.303 21.303 0 0 0-1.372-10.086 2.1 2.1 0 0 1 .579-3.498 2.1 2.1 0 0 1 1.381-.086c2.922 1.057 4.216 10.732 3.432 14.512-1.353 6.581-1.235 10.635-.706 11.399 1.333.9 1.843 2.976 1.333 5.699-.431 2.213-1.96 6.13-4.568 6.757a5.569 5.569 0 0 1-1.373.156ZM64.587 446.981h-.393a2.1 2.1 0 0 1-1.568-2.487c1.784-9.342 11.255-56.189 22.078-60.302 22.196-8.461 47.274 23.502 48.333 24.931a2.09 2.09 0 0 1 .409 1.541 2.081 2.081 0 0 1-2.343 1.786 2.09 2.09 0 0 1-1.38-.8c-.235-.294-24.196-30.925-43.529-23.502-6.353 2.409-15.215 34.9-19.47 57.188a2.096 2.096 0 0 1-2.137 1.645Z" fill="#070707"/><path d="M89.684 431.039a2.08 2.08 0 0 1-2.078-1.959c0-2.526-.118-15.354 5.666-18.175 6.216-3.016 13.844 6.268 14.687 7.325a2.079 2.079 0 0 1-.324 2.928 2.083 2.083 0 0 1-2.931-.323c-2.51-3.153-7.314-7.286-9.588-6.189-2.275 1.097-3.47 9.283-3.353 14.336a2.076 2.076 0 0 1-1.961 2.135l-.118-.078Zm207.881 75.441a2.191 2.191 0 0 1-.921-.216 2.092 2.092 0 0 1-.942-2.8c.236-.47 23.294-47.631 8.726-66.295-8.784-11.281-39.216.568-50.098 6.071a2.095 2.095 0 0 1-2.833-.871 2.09 2.09 0 0 1 .872-2.83c1.745-.882 42.588-21.191 55.274-4.936 16.177 20.741-7.274 68.684-8.274 70.721a2.14 2.14 0 0 1-1.804 1.156Z" fill="#070707"/><path d="M282.349 476.965a2.056 2.056 0 0 1-1.96-2.839c2.745-6.894 3.921-14.219 2.49-15.335-1.961-1.587-8.314.313-11.941 2.095a2.09 2.09 0 0 1-2.794-.95 2.08 2.08 0 0 1 .951-2.791c1.96-.92 11.549-5.385 16.352-1.645 4.804 3.741.334 16.393-1.176 20.173a2.096 2.096 0 0 1-1.922 1.292Zm-161.371 16.432c7.808 0 14.137-6.322 14.137-14.121 0-7.798-6.329-14.12-14.137-14.12-7.808 0-14.137 6.322-14.137 14.12 0 7.799 6.329 14.121 14.137 14.121Zm108.627 26.498c7.808 0 14.137-6.322 14.137-14.12 0-7.799-6.329-14.121-14.137-14.121-7.808 0-14.137 6.322-14.137 14.121 0 7.798 6.329 14.12 14.137 14.12Z" fill="#070707"/><path d="M112.213 482.645c.118-3.251 5.628-4.622 9.393-3.506 3.764 1.117 7.254 2.879 6.882 5.249-.373 2.37-4.353 4.387-8.118 3.917-3.764-.47-8.274-2.154-8.157-5.66Zm108.608 26.009c.392-3.447 6.039-4.505 9.921-3.917 3.882.587 7.059 3.427 6.686 6.051-.372 2.625-4.666 4.309-8.431 3.82-3.765-.49-8.549-2.488-8.176-5.954Z" fill="#333"/><path d="M128.115 480.021a3.371 3.371 0 0 0 3.373-3.369c0-1.86-1.51-3.369-3.373-3.369a3.371 3.371 0 0 0-3.372 3.369c0 1.86 1.51 3.369 3.372 3.369Zm-6.254.979a1.862 1.862 0 1 0 0-3.723 1.862 1.862 0 0 0 0 3.723Zm115.391 24.755a3.37 3.37 0 0 0 3.372-3.368 3.37 3.37 0 0 0-3.372-3.369 3.37 3.37 0 0 0-3.373 3.369 3.37 3.37 0 0 0 3.373 3.368Zm-6.255.979a1.862 1.862 0 1 0 0-3.721 1.862 1.862 0 1 0 0 3.721Z" fill="#fff"/><path d="M141.625 499.018s5.275 5.875 11.02 6.757c6.106.85 12.328.246 18.156-1.763 3.49 4.505 8.785 10.008 13.373 11.203 4.588 1.194 12.529 1.547 16.019-.49-6.196 28.046-21.353 30.102-32.882 28.574-10.902-1.449-26.902-8.362-26.686-28.026a61.979 61.979 0 0 1 1-16.255Z" fill="#4F172F"/><path d="M172.429 545.728a40.184 40.184 0 0 1-5.392-.372c-13.922-1.841-28.706-10.713-28.49-30.102a63.63 63.63 0 0 1 1.059-16.726 2.073 2.073 0 0 1 2.648-1.496c.364.115.689.328.94.615 0 0 4.823 5.366 9.804 6.052a37.101 37.101 0 0 0 17.215-1.645 2.06 2.06 0 0 1 2.294.685c4.412 5.699 9 9.616 12.255 10.459 4.569 1.175 11.765 1.312 14.451-.275a2.08 2.08 0 0 1 3.02 2.331c-4.491 20.427-14.255 30.474-29.804 30.474Zm-29.412-42.499a72.789 72.789 0 0 0-.353 11.947c-.235 21.112 19 25.284 24.883 26.067 9.803 1.293 23.352.157 29.705-23.365a35.337 35.337 0 0 1-13.725-.646c-5.294-1.391-10.784-7.344-13.608-10.791a40.967 40.967 0 0 1-17.647 1.39 20.006 20.006 0 0 1-9.255-4.602Z" fill="#000"/><path d="M165.527 505.775s-6.51-6.248-4.373-12.378c2.137-6.13 10.628-4.387 14.765-2.996 4.137 1.39 10.392 4.622 8.392 8.617-2 3.995-10.275 9.636-10.275 9.636l-4.509-4.25-4 1.371Z" fill="#070707"/><path d="M170.625 500.056a7.013 7.013 0 0 1-2.294-2.742 1.742 1.742 0 0 1 1.215-1.958 7.843 7.843 0 0 1 4.275 1.41c.823.548 3.765 1.958 2.784 2.507-.98.548-2.98-.294-2.941.254.039.549.255 1.587-.588 1.587a7.182 7.182 0 0 1-2.451-1.058Z" fill="#333"/><path d="M155.272 572.148c7.608.49 14.765-4.25 15.019-17.117.255-12.867 9.51-16.393 9.51-19.135a9.496 9.496 0 0 0-3.382-6.096 9.521 9.521 0 0 0-6.637-2.149c-6.373.627-12.51 7.247-12.765 11.751.255-4.622 7.137-10.889 7.137-10.889a6.992 6.992 0 0 0-4.627-3.917c-5.628-.881-16.902 5.249-16.902 18.743s-1 27.928 12.647 28.809Z" fill="#F87294"/><path d="M156.35 574.263h-1.215c-14.726-.94-14.667-15.433-14.608-28.241v-2.586a21.338 21.338 0 0 1 7.274-16.529 16.174 16.174 0 0 1 12.02-4.289 8.61 8.61 0 0 1 5.647 4.073 13.759 13.759 0 0 1 4.098-1.077 10.806 10.806 0 0 1 8.431 2.84 11.314 11.314 0 0 1 3.922 7.481c0 1.724-1.235 2.997-2.824 4.603a19.59 19.59 0 0 0-4.885 6.556 19.55 19.55 0 0 0-1.781 7.976c-.138 6.717-2.118 12.025-5.726 15.354a14.853 14.853 0 0 1-10.353 3.839Zm-.941-4.172a11.222 11.222 0 0 0 8.412-2.702c2.765-2.546 4.274-6.816 4.392-12.378a23.5 23.5 0 0 1 7.843-17.431 12.501 12.501 0 0 0 1.608-1.801 7.536 7.536 0 0 0-2.471-4.27 6.586 6.586 0 0 0-5.235-1.762 14.167 14.167 0 0 0-9.627 6.502 8.007 8.007 0 0 0-1.255 3.094.715.715 0 0 1 0 .196 2.079 2.079 0 0 1-2.196 1.958 2.078 2.078 0 0 1-1.961-2.193v-.607a10.864 10.864 0 0 1 1.137-3.369 30.115 30.115 0 0 1 5.353-7.109 3.927 3.927 0 0 0-2.274-1.489 12.007 12.007 0 0 0-8.667 3.31 17.227 17.227 0 0 0-4.432 6.034 17.188 17.188 0 0 0-1.45 7.343v2.605c0 14.551.608 23.501 10.706 24.069h.117Z" fill="#A50639"/><path d="M84.094 96.175c.317.05.592.208.825.475.233.267.35.558.35.875 0 .1-.008.175-.025.225a1.463 1.463 0 0 1-.2.4.371.371 0 0 1-.275.1c-.167 0-.417-.083-.75-.25-.167.283-.258.467-.275.55a6.52 6.52 0 0 1-.275.8c-.15.183-.375.717-.675 1.6-.283.883-.425 1.458-.425 1.725-.083.233-.208.658-.375 1.275a89.296 89.296 0 0 1-.575 2.025c-.967 3.333-1.442 4.975-1.425 4.925a9.145 9.145 0 0 1-.125.975 18.9 18.9 0 0 0-.1 1.075.428.428 0 0 1 .025.175c0 .1-.025.183-.075.25a.333.333 0 0 1-.15.125c-.217.183-.517.275-.9.275-.417 0-.708-.108-.875-.325-.25-.433-.35-.767-.3-1 .05-.583.183-1.517.4-2.8.1-.483.208-.908.325-1.275.117-.383.192-.55.225-.5l.5-1.8c.1-.283.175-.558.225-.825a8.37 8.37 0 0 1 .15-.575c.133-.633.292-1.225.475-1.775.233-.55.475-1.375.725-2.475.1-.367.233-.783.4-1.25.183-.467.3-.708.35-.725-.583.067-1.025.133-1.325.2-.483.1-.967.175-1.45.225l-1.7.25c-.933.133-1.433.2-1.5.2l-1.8 4.175-1.275 3.325a70.632 70.632 0 0 1-1.125 3.475c-.05.167-.158.5-.325 1a12.662 12.662 0 0 0-.425 1.575l-.175.875c-.117.25-.25.433-.4.55-.133.117-.317.175-.55.175-.517 0-.892-.092-1.125-.275-.217-.183-.325-.475-.325-.875.067-.217.167-.492.3-.825.1-.267.175-.508.225-.725.117-.467.233-.883.35-1.25l.2-.6c.533-1.833.983-3.2 1.35-4.1l.675-1.9c.05-.1.142-.342.275-.725l.875-2.6c.4-.8.683-1.525.85-2.175a1.14 1.14 0 0 1-.175-.625c0-.267.075-.492.225-.675a.838.838 0 0 1 .65-.275c.117 0 .2.008.25.025.283.083.767.142 1.45.175.683.017 1.033.017 1.05 0 .167-.083.958-.225 2.375-.425 1.433-.2 2.842-.383 4.225-.55l.275-.025c.15 0 .45.042.9.125Zm1.588 17.95c-.167 0-.417-.083-.75-.25-.333-.167-.5-.342-.5-.525 0-.033-.008-.1-.025-.2s-.05-.2-.1-.3c0-.417.042-.75.125-1 0-.183.025-.383.075-.6.05-.217.108-.392.175-.525 0-.133.033-.308.1-.525.067-.233.108-.392.125-.475l.15-.525.425-1.275c.083-.2.142-.367.175-.5s.05-.258.05-.375c.1-.333.225-.758.375-1.275.15-.517.275-.967.375-1.35.083-.083.125-.208.125-.375l.225-.7c.117-.383.25-.783.4-1.2.25-.733.442-1.333.575-1.8.133-.467.2-.792.2-.975a.572.572 0 0 0-.075-.3 1.821 1.821 0 0 0-.075-.2c-.067-.167-.1-.267-.1-.3 0-.067.033-.133.1-.2a.782.782 0 0 0 .15-.2 3.07 3.07 0 0 0 .1-.175c0-.067.408-.258 1.225-.575.833-.333 1.475-.567 1.925-.7h1.525c.467.067.925.2 1.375.4.45.2.825.45 1.125.75.517.483.983 1.192 1.4 2.125 0 .067.017.217.05.45.05.217.075.408.075.575 0 .783-.283 1.683-.85 2.7-.55 1.017-1.308 1.917-2.275 2.7a6.587 6.587 0 0 1-1.75 1c-.6.233-1.175.35-1.725.35a3.11 3.11 0 0 1-.7-.075c-.3-.117-.517-.283-.65-.5a1.602 1.602 0 0 1-.175-.725c0-.217.033-.358.1-.425.067-.017.25-.025.55-.025.3 0 .742-.108 1.325-.325.433-.15.783-.308 1.05-.475.783-.5 1.475-1.233 2.075-2.2.333-.533.5-1.333.5-2.4.033-.167.05-.292.05-.375 0-.333-.15-.608-.45-.825-.283-.233-.692-.375-1.225-.425a2.067 2.067 0 0 0-.375-.025c-.317 0-.65.042-1 .125-.35.083-.6.175-.75.275-.05 0-.092.058-.125.175a1.876 1.876 0 0 1-.125.325c0 .133-.058.383-.175.75-.1.367-.208.708-.325 1.025l-.325.95c-.217.55-.367.983-.45 1.3-.05.217-.117.45-.2.7a5.282 5.282 0 0 1-.175.45c0 .033-.05.183-.15.45-.1.267-.175.492-.225.675-.15.783-.358 1.5-.625 2.15-.383 1.25-.575 2.125-.575 2.625 0 .183.025.317.075.4.283.017.483.05.6.1.133.033.2.108.2.225 0 .2-.267.633-.8 1.3-.15.383-.308.658-.475.825-.167.167-.308.258-.425.275-.117.033-.292.05-.525.05Zm27.68-17.825c.367-.033.667.083.9.35a1.312 1.312 0 0 1 .3 1.35c-.217.433-.7 1.608-1.45 3.525-.75 1.9-1.475 3.758-2.175 5.575l-1.8 5.2c-.083.233-.258.667-.525 1.3a3.986 3.986 0 0 0-.45 1.3 1.612 1.612 0 0 1-.4.7c-.183.2-.375.3-.575.3a.406.406 0 0 1-.25-.075c-.767-.283-1.15-.733-1.15-1.35 0-.05.017-.158.05-.325-.033.217.2-.292.7-1.525.517-1.25.933-2.3 1.25-3.15 1.233-3.083 1.85-4.683 1.85-4.8.2-.517.333-.883.4-1.1.2-.65.4-1.167.6-1.55l.425-1.125-8.825 10.2c-.117.1-.442.392-.975.875-.45.45-.8.767-1.05.95a24.12 24.12 0 0 0-.6.45 6.868 6.868 0 0 1-.725.525c-.217.15-.392.225-.525.225-.95-.167-1.425-.55-1.425-1.15 0-.267.067-.567.2-.9.133-.35.217-.575.25-.675.2-.633.325-1.142.375-1.525.183-.75.442-1.65.775-2.7.033-.133.117-.442.25-.925.15-.5.242-.958.275-1.375.233-.45.55-1.183.95-2.2l.35-.9c.067-.133.217-.542.45-1.225.15-.517.308-.95.475-1.3l.25-.475c.317-.617.558-1.117.725-1.5.183-.4.283-.733.3-1 0-.217.075-.375.225-.475a.868.868 0 0 1 .55-.175 1.3 1.3 0 0 1 .775.25c.233.15.383.35.45.6.067.183.1.392.1.625 0 .217-.033.417-.1.6l-2.075 5.275-2.275 6-.6 1.5 5.05-5.05c.567-.583 1.1-1.208 1.6-1.875.433-.567.85-1.067 1.25-1.5.4-.433.892-.942 1.475-1.525l.575-.6 3.175-3.375c.217-.167.425-.25.625-.25Zm-7.525 17.825v.025-.025Zm12.571 1.05a8.553 8.553 0 0 1-1.45.125c-.417 0-.758-.058-1.025-.175a2.022 2.022 0 0 1-.725-.475c-.15-.133-.225-.333-.225-.6 0-.167.033-.283.1-.35.233-.15.475-.267.725-.35.25-.083.675-.15 1.275-.2 1.2.05 2.342-.158 3.425-.625 1.083-.467 1.833-1.025 2.25-1.675.317-.567.475-1.042.475-1.425 0-.417-.192-.833-.575-1.25a1.356 1.356 0 0 0-.375-.225 1.17 1.17 0 0 0-.4-.1c-.15-.017-.292-.033-.425-.05-.3 0-.542.033-.725.1-.167.05-.383.15-.65.3-.083.05-.258.15-.525.3a2.505 2.505 0 0 1-.725.25c-.117.15-.308.275-.575.375a2.3 2.3 0 0 1-.725.125c-.233 0-.392-.042-.475-.125-.1 0-.183.05-.25.15-.067.083-.175.283-.325.6-.033.1-.108.267-.225.5-.033.133-.142.417-.325.85-.033.1-.092.25-.175.45-.067.2-.108.35-.125.45-.25.617-.458 1.033-.625 1.25-.167.217-.333.325-.5.325a.332.332 0 0 1-.2-.075 2.14 2.14 0 0 1-.225-.2c-.067-.1-.15-.2-.25-.3-.117 0-.233-.067-.35-.2a.908.908 0 0 1-.175-.575c0-.167.042-.358.125-.575.083-.183.317-.808.7-1.875.783-2.133 1.2-3.217 1.25-3.25.017-.217.067-.375.15-.475.1-.117.15-.192.15-.225.033-.067.175-.425.425-1.075.25-.65.483-1.083.7-1.3 0-.133.233-.567.7-1.3.05-.117.175-.425.375-.925.067-.2.125-.35.175-.45a4.72 4.72 0 0 1 .1-.225c.15-.167.225-.308.225-.425 0-.067-.042-.142-.125-.225-.083-.1-.15-.175-.2-.225-.033-.033-.067-.15-.1-.35-.033-.2-.05-.358-.05-.475 0-.05.275-.217.825-.5.567-.3.967-.5 1.2-.6.233-.1.533-.225.9-.375.383-.15.7-.267.95-.35.233-.083.492-.142.775-.175a3.92 3.92 0 0 1 .75-.025 1.6 1.6 0 0 1 .55-.1c.25 0 .483.058.7.175.267.083.608.3 1.025.65.417.333.65.633.7.9.067.333.1.575.1.725a1.5 1.5 0 0 1-.175.675c-.033.35-.167.867-.4 1.55s-.417 1.092-.55 1.225c-.233.367-.4.642-.5.825-.4.717-.792 1.283-1.175 1.7a8.837 8.837 0 0 0-.25.275c-.133.15-.35.4-.65.75.083 0 .25.017.5.05.267.017.458.058.575.125.383.25.725.567 1.025.95.317.367.542.75.675 1.15.1.15.15.35.15.6 0 .333-.083.725-.25 1.175-.15.433-.35.833-.6 1.2-.15.283-.475.692-.975 1.225-.483.517-.758.775-.825.775a.54.54 0 0 0-.325 0c-.117.05-.317.142-.6.275-.133.15-.275.275-.425.375-.133.117-.242.158-.325.125a9.842 9.842 0 0 0-.95.45c-.433.117-1.075.25-1.925.4Zm-.775-8.25c.033.05.25-.008.65-.175.417-.167.858-.383 1.325-.65.483-.267.85-.517 1.1-.75.317-.217.608-.483.875-.8.267-.333.4-.55.4-.65.017-.05.067-.158.15-.325.1-.167.225-.342.375-.525.2-.2.358-.392.475-.575.133-.2.2-.333.2-.4.017-.05.058-.15.125-.3.083-.15.183-.325.3-.525.183-.233.308-.508.375-.825.083-.317.133-.492.15-.525.033-.35-.025-.608-.175-.775-.133-.183-.342-.275-.625-.275l-.225.025-.6.075a4.265 4.265 0 0 0-.725.15c-.2.05-.392.125-.575.225-.417.267-.625.475-.625.625 0 .083.058.125.175.125.083 0 .125.058.125.175 0 .233-.158.608-.475 1.125-.267.467-.808 1.492-1.625 3.075-.8 1.583-1.183 2.408-1.15 2.475Zm16.034 7.825c-.783 0-1.425-.05-1.925-.15a2.869 2.869 0 0 1-1.3-.575c-.8-.6-1.2-1.492-1.2-2.675 0-.5.092-1.117.275-1.85.084-.433.175-.8.275-1.1.117-.317.217-.475.3-.475l.175-.925c.017-.1.05-.233.1-.4.05-.183.092-.317.125-.4a.693.693 0 0 1 .15-.225c.067-.05.167-.275.3-.675 0-.033.009-.108.025-.225.017-.117.059-.25.125-.4.25-.417.375-.692.375-.825.017-.05.084-.15.2-.3.117-.15.209-.325.275-.525l.325-.575c.5-.883.859-1.525 1.075-1.925.217-.417.35-.758.4-1.025a5.64 5.64 0 0 0 .2-.625c.1-.3.209-.508.325-.625-.05-.1.117-.225.5-.375.4-.15.884-.292 1.45-.425a10.58 10.58 0 0 1 1.55-.25c.1-.067.325-.117.675-.15.35-.033.742-.05 1.175-.05.3 0 .717.017 1.25.05.267 0 .492.033.675.1.2.05.375.117.525.2.15.067.259.117.325.15l.325.325c.2.167.3.342.3.525 0 .167-.108.308-.325.425-.05.05-.325.092-.825.125-.483.033-1.008.05-1.575.05a9.7 9.7 0 0 0-1.975.225c-.25.05-.441.075-.575.075-.2.067-.45.108-.75.125a12.24 12.24 0 0 1-.55.025c-.066 0-.3.317-.7.95-.383.633-.583 1.008-.6 1.125a.93.93 0 0 1-.15.475c-.1.167-.275.425-.525.775-.216.3-.325.583-.325.85 0 .167.05.267.15.3a30.363 30.363 0 0 1 1.925-.225c.767-.083 1.325-.125 1.675-.125.184-.05.334-.075.45-.075.234 0 .45.058.65.175.267.05.4.225.4.525a.742.742 0 0 1-.1.375c-.05.117-.116.192-.2.225-.15.15-.666.342-1.55.575-.866.233-1.775.45-2.725.65-.95.183-1.483.258-1.6.225-.05-.117-.1-.175-.15-.175-.166 0-.375.55-.625 1.65-.3.667-.483 1.108-.55 1.325-.066.2-.166.675-.3 1.425-.066.3-.1.508-.1.625 0 .65.384 1.15 1.15 1.5.284.05.575.075.875.075.55 0 1.217-.1 2-.3.067-.033.575-.317 1.525-.85.05 0 .175-.033.375-.1.217-.083.342-.125.375-.125.134-.183.3-.275.5-.275.05 0 .159.083.325.25.167.167.317.367.45.6.134.217.2.442.2.675 0 .167-.25.375-.75.625a35.32 35.32 0 0 1-2.175.925c-.7.3-1.191.492-1.475.575-.283.083-.683.125-1.2.125ZM157.055 99c.017.067.025.15.025.25 0 .217-.1.375-.3.475l-.6.2a2.597 2.597 0 0 1-.7.125.984.984 0 0 1-.35-.05 1.488 1.488 0 0 0-.6-.325c-.233-.067-.716-.125-1.45-.175-.216.033-.408.05-.575.05-.166 0-.3.008-.4.025-.133.433-.3.842-.5 1.225-.066.317-.158.6-.275.85-.116.333-.166.525-.15.575-.05.067-.208.492-.475 1.275a95.62 95.62 0 0 0-.75 2.25 37.65 37.65 0 0 1-.375 1.125 8.594 8.594 0 0 0-.325.8l-.25.75-.625 1.725c-.133.25-.3.65-.5 1.2a22.94 22.94 0 0 0-.45 1.45c-.183.65-.35 1.117-.5 1.4-.133.283-.25.458-.35.525-.1.067-.241.1-.425.1-.266 0-.5-.133-.7-.4-.2-.267-.3-.517-.3-.75 0-.367.125-.983.375-1.85.267-.867.517-1.558.75-2.075.067-.3.125-.542.175-.725.067-.183.109-.317.125-.4.05-.067.125-.242.225-.525.117-.3.209-.575.275-.825.05-.3.567-1.975 1.55-5.025l.175-.525c.15-.25.292-.567.425-.95.134-.083.2-.258.2-.525 0-.05.025-.117.075-.2.067-.083.1-.142.1-.175.017-.017.042-.025.075-.025.017 0 .034.008.05.025.034 0 .084-.033.15-.1h-.025l-1.225.125-.55.05c-.983.083-1.541.142-1.675.175l-.35.025c-.516 0-.883-.1-1.1-.3-.2-.217-.266-.458-.2-.725a.845.845 0 0 1 .375-.525c.217-.133.567-.25 1.05-.35.15-.033.442-.083.875-.15l.675-.125.85-.1c.967-.15 1.992-.25 3.075-.3.45-.017.825-.033 1.125-.05.317-.033.525-.058.625-.075.234.017.609.058 1.125.125.534.067.917.142 1.15.225.367.083.667.233.9.45.234.217.392.467.475.75Zm.201 10.475a.747.747 0 0 1-.225.025.947.947 0 0 1-.775-.375c-.184-.267-.275-.667-.275-1.2 0-.417.075-.933.225-1.55.233-.467.35-.817.35-1.05.083-.283.216-.642.4-1.075.183-.45.333-.792.45-1.025.066 0 .133-.058.2-.175a.602.602 0 0 0 .125-.35c0-.15.025-.3.075-.45.066-.167.133-.283.2-.35 0-.05.033-.133.1-.25.066-.133.1-.225.1-.275 0-.033.016-.083.05-.15a.426.426 0 0 0 .075-.2c.3-.5.733-1.442 1.3-2.825.566-1.383.858-2.183.875-2.4.066-.383.216-.55.45-.5.083-.067.283-.1.6-.1.05.017.141.058.275.125.133.067.25.158.35.275a.684.684 0 0 1 .2.425c.033.167.05.383.05.65-.017.25-.092.525-.225.825-.134.283-.292.583-.475.9-.184.317-.309.542-.375.675l-.325.6c-.267.467-.4.742-.4.825 0 .067-.042.192-.125.375-.084.167-.15.308-.2.425a5.782 5.782 0 0 0-.425.9c-.134.383-.2.617-.2.7a2.32 2.32 0 0 0-.075.175.446.446 0 0 1-.125.225c-.05 0-.084.042-.1.125a.67.67 0 0 0-.025.15c0 .083-.042.25-.125.5-.084.25-.2.525-.35.825-.567 1.617-.875 2.767-.925 3.45-.034.35-.117.6-.25.75-.117.15-.267.275-.45.375Zm-1.325 3.875c-.317.133-.584.2-.8.2-.25 0-.534-.117-.85-.35-.25-.25-.375-.5-.375-.75 0-.417.308-.833.925-1.25.366-.233.633-.35.8-.35.116 0 .333.067.65.2.5.317.75.658.75 1.025 0 .467-.367.892-1.1 1.275Zm24.703-17.55c.384.05.667.15.85.3.184.133.3.3.35.5.05.183.1.467.15.85l-.275.675a114.228 114.228 0 0 0-1.8 4.8l-.875 2.975-.3.525-.575 2.65c-.2.85-.383 1.667-.55 2.45a29.46 29.46 0 0 0-.325 1.7c0 .167-.008.3-.025.4-.016.1-.025.2-.025.3-.15.35-.216.575-.2.675 0 .433-.091.717-.275.85-.166.133-.516.2-1.05.2a3.681 3.681 0 0 1-.75-.55 1.587 1.587 0 0 1-.375-.625c.017-.283.084-.717.2-1.3.067-.4.1-.625.1-.675l.3-2.1c.034-.067.092-.167.175-.3.1-.133.175-.225.225-.275.05-.183.109-.458.175-.825l.125-.55c.067-.217.15-.567.25-1.05.117-.483.2-.833.25-1.05l-.225.25c-.2.367-.575.875-1.125 1.525-.333.433-.566.75-.7.95-.216.333-1.575 1.667-4.075 4a21.45 21.45 0 0 1-1.025.975c-.283.3-.525.483-.725.55-.183.067-.525.117-1.025.15-.6-.483-.9-.933-.9-1.35l.1-.35c.034-.133.084-.225.15-.275.067-.067.159-.142.275-.225.217-.133.692-.517 1.425-1.15.75-.65 1.3-1.142 1.65-1.475l1.3-1.3 1.325-1.45a7.423 7.423 0 0 1-.975-.45c-.3-.167-.516-.333-.65-.5-.716-.8-1.075-1.817-1.075-3.05 0-.9.167-1.75.5-2.55.184-.483.359-.842.525-1.075.184-.25.434-.533.75-.85.234-.2.4-.367.5-.5.484-.533.992-.933 1.525-1.2.55-.267 1.492-.625 2.825-1.075.084 0 .409-.033.975-.1a13.3 13.3 0 0 1 1.55-.1c.167.067.309.125.425.175.134.05.242.092.325.125.117-.1.209-.167.275-.2a.75.75 0 0 1 .35-.025Zm-2.25 4.725c.067-.267.192-.633.375-1.1.05-.117.125-.308.225-.575.1-.283.192-.583.275-.9a1.002 1.002 0 0 0-.275-.025c-.3 0-.7.05-1.2.15-1.083.2-2.116.65-3.1 1.35-.983.683-1.641 1.417-1.975 2.2a6.94 6.94 0 0 0-.35 1.025 3.107 3.107 0 0 0-.075.875c0 .217.017.392.05.525.034.133.092.3.175.5l.2.575c.067.017.192.033.375.05.2.017.342.017.425 0l.6-.2c.734-.217 1.284-.442 1.65-.675.3-.15.575-.225.825-.225.217 0 .392.033.525.1l.075-.2 1.2-3.45Zm25.324-4.35c.317.05.592.208.825.475.234.267.35.558.35.875 0 .1-.008.175-.025.225a1.438 1.438 0 0 1-.2.4.37.37 0 0 1-.275.1c-.166 0-.416-.083-.75-.25-.166.283-.258.467-.275.55-.066.25-.158.517-.275.8-.15.183-.375.717-.675 1.6-.283.883-.425 1.458-.425 1.725-.083.233-.208.658-.375 1.275a84.846 84.846 0 0 1-.575 2.025c-.966 3.333-1.441 4.975-1.425 4.925a8.918 8.918 0 0 1-.125.975c-.033.25-.066.608-.1 1.075a.423.423 0 0 1 .025.175c0 .1-.025.183-.075.25a.333.333 0 0 1-.15.125c-.216.183-.516.275-.9.275-.416 0-.708-.108-.875-.325-.25-.433-.35-.767-.3-1 .05-.583.184-1.517.4-2.8.1-.483.209-.908.325-1.275.117-.383.192-.55.225-.5l.5-1.8c.1-.283.175-.558.225-.825a8.37 8.37 0 0 1 .15-.575 16.36 16.36 0 0 1 .475-1.775c.234-.55.475-1.375.725-2.475.1-.367.234-.783.4-1.25.184-.467.3-.708.35-.725-.583.067-1.025.133-1.325.2-.483.1-.966.175-1.45.225l-1.7.25c-.933.133-1.433.2-1.5.2l-1.8 4.175-1.275 3.325a70.632 70.632 0 0 1-1.125 3.475c-.05.167-.158.5-.325 1a12.821 12.821 0 0 0-.425 1.575l-.175.875c-.116.25-.25.433-.4.55-.133.117-.316.175-.55.175-.516 0-.891-.092-1.125-.275-.216-.183-.325-.475-.325-.875.067-.217.167-.492.3-.825.1-.267.175-.508.225-.725.117-.467.234-.883.35-1.25l.2-.6c.534-1.833.984-3.2 1.35-4.1l.675-1.9c.05-.1.142-.342.275-.725l.875-2.6c.4-.8.684-1.525.85-2.175a1.145 1.145 0 0 1-.175-.625c0-.267.075-.492.225-.675a.84.84 0 0 1 .65-.275c.117 0 .2.008.25.025.284.083.767.142 1.45.175.684.017 1.034.017 1.05 0 .167-.083.959-.225 2.375-.425 1.434-.2 2.842-.383 4.225-.55l.275-.025c.15 0 .45.042.9.125Zm3.188 17.55c-.766-.267-1.383-.767-1.85-1.5-.45-.733-.675-1.6-.675-2.6 0-.4.034-.767.1-1.1a7.97 7.97 0 0 1 .3-1.525c.1-.3.175-.608.225-.925 0-.033.017-.092.05-.175.034-.083.042-.15.025-.2.1-.25.242-.6.425-1.05.2-.45.325-.7.375-.75.067-.033.1-.075.1-.125a.39.39 0 0 0 .025-.1c0-.217.225-.683.675-1.4a30.23 30.23 0 0 1 1.5-2.1c.534-.683.85-1.025.95-1.025.034 0 .075-.033.125-.1.05-.083.084-.125.1-.125.117-.133.584-.375 1.4-.725.817-.367 1.467-.608 1.95-.725a3.083 3.083 0 0 1 1.025-.175c.85 0 1.542.4 2.075 1.2.534.783.809 1.875.825 3.275-.05.25-.091.617-.125 1.1-.033.383-.058.6-.075.65-.016.5-.125 1.125-.325 1.875-.183.733-.308 1.108-.375 1.125 0 .05-.016.108-.05.175a.409.409 0 0 0-.05.175c.017.15-.2.675-.65 1.575-.45.883-.708 1.333-.775 1.35a.193.193 0 0 0-.075.025c-.016.017-.016.05 0 .1.017.05-.116.2-.4.45-.266.25-.458.375-.575.375-.016 0-.033.008-.05.025 0 .017.017.05.05.1.034.05-.208.267-.725.65-.5.383-1.041.758-1.625 1.125-.583.35-1.025.558-1.325.625a.43.43 0 0 1-.225.125.699.699 0 0 1-.125.025c-.116.117-.333.217-.65.3-.3.083-.6.125-.9.125-.25 0-.475-.042-.675-.125Zm2.525-2.625c.5-.167 1-.433 1.5-.8.5-.383.8-.733.9-1.05.084-.3.2-.508.35-.625.284-.283.659-.933 1.125-1.95.484-1.033.734-1.733.75-2.1 0-.1.025-.258.075-.475.05-.233.109-.4.175-.5.034-.05.042-.158.025-.325a9.426 9.426 0 0 1-.025-.775c0-.433.009-.808.025-1.125-.05-1.083-.216-1.708-.5-1.875-.133-.1-.358-.15-.675-.15-.083 0-.191.017-.325.05-.083.017-.2.058-.35.125-.15.05-.266.075-.35.075-.233.133-.35.283-.35.45a.45.45 0 0 1-.2.375c-.116.1-.241.108-.375.025-.3.017-.491.058-.575.125-.083.067-.191.225-.325.475a8.894 8.894 0 0 1-.325.6c-.416.317-.733.65-.95 1-.216.35-.35.642-.4.875-.516.9-.841 1.533-.975 1.9-.116.35-.216.833-.3 1.45-.133.25-.241.542-.325.875-.066.333-.125.55-.175.65a2.25 2.25 0 0 0-.05.525c0 .367.025.75.075 1.15.05.383.117.642.2.775.134.45.425.675.875.675.367 0 .859-.142 1.475-.425Zm26.014-12.4c0 .217-.058.5-.175.85a13.96 13.96 0 0 0-.4 1.6 8.275 8.275 0 0 0-.125 1.25l.025.25c-.1.217-.183.55-.25 1a5.725 5.725 0 0 1-.1.55.404.404 0 0 1-.175.25c0 .067.008.175.025.325.033.15.05.275.05.375v.3c-.317 1.817-.475 3.425-.475 4.825 0 .733.05 1.308.15 1.725.117.417.267.642.45.675.033 0 .058.008.075.025.017.017.025.058.025.125 0 .217-.058.417-.175.6-.1.183-.217.35-.35.5a4.558 4.558 0 0 1-.3.35c-.033.05-.075.108-.125.175-.033.067-.092.1-.175.1-.117 0-.325-.042-.625-.125-.05-.1-.208-.225-.475-.375-.267-.133-.483-.417-.65-.85-.167-.433-.25-1.167-.25-2.2 0-.283.008-.508.025-.675v-.075a2.434 2.434 0 0 1-.025-.425c0-.767.083-1.733.25-2.9a60.66 60.66 0 0 1 .575-3.2c.133-.567.308-1.267.525-2.1.217-.867.325-1.333.325-1.4l-.025-.025c.033.05-.333.725-1.1 2.025-.767 1.283-1.233 2.042-1.4 2.275-.083.117-.242.417-.475.9l-.7 1.45c-1.367 2.033-2.417 3.05-3.15 3.05-.7 0-1.158-.25-1.375-.75-.2-.5-.308-.942-.325-1.325a23.342 23.342 0 0 1-.025-.7c.033-.183.05-.4.05-.65v-.275c0-.05.017-.183.05-.4a8.29 8.29 0 0 0 .125-.775c0-.1.083-.617.25-1.55.233-1.133.35-1.858.35-2.175 0-.067-.008-.108-.025-.125v.05c0 .05-.1.233-.3.55-.25.317-.542.783-.875 1.4a156.22 156.22 0 0 0-1.375 2.775c-.117.217-.292.575-.525 1.075-.05.517-.4 1.458-1.05 2.825l-.225.575c-.5 1.25-.9 2.167-1.2 2.75-.283.567-.5.842-.65.825-.083 0-.258-.083-.525-.25a3.215 3.215 0 0 1-.725-.625c-.217-.25-.325-.5-.325-.75 0-.033.142-.333.425-.9.467-.95.725-1.517.775-1.7.017-.067.033-.158.05-.275.033-.117.217-.417.55-.9 0-.1.075-.35.225-.75a19 19 0 0 1 .65-1.425c.133-.2.2-.392.2-.575.15-.183.342-.592.575-1.225.083-.233.167-.458.25-.675.1-.217.2-.383.3-.5.05-.033.133-.15.25-.35a50.61 50.61 0 0 1 1.55-2.65l.3-.55c.067-.183.125-.283.175-.3.067-.017.342-.475.825-1.375.75-1.05 1.183-1.575 1.3-1.575.1 0 .275.058.525.175.267.117.5.258.7.425.217.167.325.317.325.45 0 .05.008.192.025.425.017.233.025.483.025.75 0 .65-.275 2.817-.825 6.5l-.125.8c.017.05.042.15.075.3.033.133.05.283.05.45.217-.333.408-.6.575-.8.433-.633.742-1.133.925-1.5 0-.083.025-.167.075-.25.067-.083.133-.175.2-.275a2.69 2.69 0 0 0 .3-.45.79.79 0 0 0 .125-.425c.467-.667.883-1.3 1.25-1.9 1.4-2.183 2.267-3.425 2.6-3.725.117-.1.292-.183.525-.25.25-.067.483-.1.7-.1.467 0 .825.142 1.075.425.25.267.375.608.375 1.025Zm6.301 15.5c-.25 0-.634-.1-1.15-.3-.5-.2-.975-.45-1.425-.75-.45-.3-.742-.6-.875-.9l-.05-.1a3.453 3.453 0 0 1-.375-2.575c.067-.283.108-.458.125-.525.15-.517.225-.942.225-1.275.083-.1.208-.267.375-.5.183-.25.292-.408.325-.475a.618.618 0 0 0 .05-.225v-.375c0-.117.042-.233.125-.35.083-.117.167-.208.25-.275.1-.083.167-.133.2-.15l.1.025c.033 0 .158-.242.375-.725.216-.5.425-1.025.625-1.575.833-1.533 1.766-2.808 2.8-3.825 1.033-1.033 1.95-1.725 2.75-2.075.067-.017.192-.033.375-.05s.358-.033.525-.05c.316.017.7.092 1.15.225.45.133.691.233.725.3 0 .067.016.108.05.125a.39.39 0 0 0 .1.025c.15-.017.417.225.8.725.4.483.692.942.875 1.375.2.317.3.85.3 1.6 0 .633-.092 1.425-.275 2.375-.183.933-.367 1.6-.55 2a35.565 35.565 0 0 1-1.65 3.8c-.667 1.333-1.275 2.017-1.825 2.05-.017 0-.033.017-.05.05-.017.017-.025.05-.025.1s-.225.267-.675.65c-.433.383-.817.7-1.15.95l-.475.175c-.4.15-.858.267-1.375.35-.517.1-.95.158-1.3.175Zm.025-2.275c.716 0 1.233-.017 1.55-.05.317-.033.65-.142 1-.325.367-.2.758-.542 1.175-1.025.167-.3.3-.5.4-.6.016-.033.15-.267.4-.7.25-.433.483-.65.7-.65 0-.083.067-.308.2-.675.133-.383.233-.6.3-.65.033-.017.117-.2.25-.55.133-.367.258-.767.375-1.2.117-.433.175-.792.175-1.075.3-.317.433-.492.4-.525a.39.39 0 0 1-.025-.1v-.25c0-.483.033-.733.1-.75.083-.033.125-.058.125-.075a.286.286 0 0 0-.1-.1c-.033-.033-.05-.067-.05-.1 0-.017.025-.05.075-.1a.27.27 0 0 0 .075-.2c-.034-.417-.267-1.142-.7-2.175a1.424 1.424 0 0 1-.2-.175.613.613 0 0 0-.275-.2.57.57 0 0 0-.3-.075 2.11 2.11 0 0 0-.35.05c-.067-.067-.133-.1-.2-.1a.552.552 0 0 0-.175.025l-.125.05c-.35.083-.625.2-.825.35-.183.15-.45.417-.8.8l-.425.45c-.133.45-.408.842-.825 1.175-.067.05-.167.175-.3.375a3.657 3.657 0 0 1-.3.375l-.15.3c-.367.6-.758 1.4-1.175 2.4a40.828 40.828 0 0 0-1.075 2.8c-.3.883-.45 1.442-.45 1.675 0 .467.15.842.45 1.125.317.283.675.442 1.075.475Zm11.539 2.525c-.1-.067-.251-.117-.45-.15a52.403 52.403 0 0 0-.425-.075 3.03 3.03 0 0 1-.325-1.375c0-.6.183-1.417.55-2.45l.225-.725c.116-.333.2-.708.25-1.125.016-.1.041-.233.075-.4.033-.167.083-.358.15-.575.133-.467.35-1.15.65-2.05l.525-1.6a.895.895 0 0 0 .05-.325.812.812 0 0 0-.05-.3c.183-.183.308-.383.375-.6.383-1.233.958-2.775 1.725-4.625a2.017 2.017 0 0 1-.325-1.125c0-.217.025-.425.075-.625.166-.2.341-.325.525-.375.183-.05.433-.075.75-.075.05-.05.108-.133.175-.25.083-.117.15-.2.2-.25.133.033.316.092.55.175.25.083.441.125.575.125.233-.083.658-.142 1.275-.175.683-.033 1.116-.1 1.3-.2.116 0 .324-.017.625-.05.5-.033.891-.05 1.175-.05.483 0 .95-.025 1.4-.075.083-.017.233-.042.45-.075.216-.033.416-.05.6-.05a3.92 3.92 0 0 1 1.675.35c.516.217.775.558.775 1.025 0 .25-.067.5-.2.75a.97.97 0 0 1-.375.4c-.167.1-.342.15-.525.15-.1 0-.217-.025-.35-.075-.25-.083-.692-.125-1.325-.125-.517 0-.909.033-1.175.1-.167.05-.442.075-.825.075a5.21 5.21 0 0 0-.85.05h.025c-.034 0-.092.008-.175.025a1.277 1.277 0 0 1-.25.025h.025c-.25.017-.625.075-1.125.175-.1.017-.317.05-.65.1a6.42 6.42 0 0 1-.95.075.879.879 0 0 0-.35.075c-.567 1.333-1.234 3.125-2 5.375l-.2.55c-.2.517-.35.917-.45 1.2a5.34 5.34 0 0 0-.225.85c-.051.2-.109.375-.175.525l-.125.375c-.2.467-.317.825-.35 1.075-.217 1.4-.6 2.817-1.15 4.25a5.842 5.842 0 0 1-.1.7c-.067.267-.084.6-.05 1-.434.25-.842.375-1.225.375Zm26.561-18.125c.3.083.55.258.75.525a1.36 1.36 0 0 1 .225 1.3c-.033.167-.141.442-.325.825l-.95 2.2c-.55 1.317-.883 2.067-1 2.25-.416.85-.783 1.525-1.1 2.025-.4.717-.991 1.683-1.775 2.9-.15.233-.466.675-.95 1.325a28.292 28.292 0 0 1-.975 1.275 8.765 8.765 0 0 1-.9 1.125c-.3.333-.733.783-1.3 1.35l-.6.625c-.15.2-.383.442-.7.725-.2.267-.45.4-.75.4-.183 0-.366-.058-.55-.175-.45-.283-.675-.592-.675-.925 0-.1.025-.217.075-.35.05-.117.35-.458.9-1.025a26.638 26.638 0 0 1 1.375-1.375c.667-.767 1.084-1.258 1.25-1.475a10.25 10.25 0 0 1-1.025-1.7c-.3-.65-.491-1.167-.575-1.55l-.425-2.2a1.522 1.522 0 0 0 0-.55l-.05-.3-.075-4.425.175-2.2v-.375a1.1 1.1 0 0 1 .175-.6c.117-.183.309-.275.575-.275.334-.05.675.092 1.025.425.35.317.525.642.525.975a.716.716 0 0 1-.075.325c-.05.1-.075.2-.075.3v.3c0 .167-.008.3-.025.4-.033.333-.066.8-.1 1.4-.016.6-.025 1.217-.025 1.85 0 .5.009.825.025.975l.225 2.175c.017.35.125.892.325 1.625.217.717.425 1.333.625 1.85l.325-.425c.25-.283.417-.525.5-.725.117-.267.309-.608.575-1.025.2-.3.334-.525.4-.675.184-.333.359-.633.525-.9.234-.367.392-.633.475-.8l1.625-3.075c.117-.383.242-.75.375-1.1.15-.433.292-.892.425-1.375.15-.483.25-.908.3-1.275.1-.383.325-.575.675-.575h.225a1.04 1.04 0 0 1 .325 0ZM51.15 147.3c-.433-.267-.758-.55-.975-.85-.217-.283-.325-.558-.325-.825 0-.35.175-.633.525-.85a.628.628 0 0 1 .275-.05c.167 0 .342.033.525.1.2.05.35.125.45.225.433.4.95.6 1.55.6.267 0 .65-.058 1.15-.175.65-.2 1.158-.45 1.525-.75.383-.3.833-.767 1.35-1.4.317-.417.55-.833.7-1.25.167-.433.25-.825.25-1.175 0-.383-.092-.683-.275-.9-.333-.45-.708-.783-1.125-1-.4-.233-.875-.35-1.425-.35-.483 0-.958.067-1.425.2l-1.45.3a2.863 2.863 0 0 1-.275.05c-.1 0-.25.242-.45.725s-.542 1.4-1.025 2.75c-.35.983-.642 1.692-.875 2.125-.233.417-.442.625-.625.625-.2 0-.417-.183-.65-.55-.05-.083-.158-.25-.325-.5a1.41 1.41 0 0 1-.225-.725c0-.117.042-.258.125-.425.083-.15.15-.3.2-.45.067-.15.133-.358.2-.625.217-.65.842-2.267 1.875-4.85 1.05-2.583 1.867-4.533 2.45-5.85.417-.95.542-1.45.375-1.5a.576.576 0 0 0-.075-.225c-.05-.1-.067-.175-.05-.225 0-.1.292-.25.875-.45.6-.2 1.008-.283 1.225-.25h.15c.217 0 .325-.042.325-.125.033 0 .183-.017.45-.05a4.1 4.1 0 0 1 .9 0c1.183.1 2.117.442 2.8 1.025.683.567 1.017 1.408 1 2.525-.033.433-.275 1.025-.725 1.775-.45.75-.942 1.367-1.475 1.85a19.759 19.759 0 0 1-1.575 1.225l.625.225c.783.3 1.392.667 1.825 1.1.433.433.742 1.025.925 1.775.033.167.05.317.05.45 0 .367-.067.783-.2 1.25-.117.467-.25.875-.4 1.225-.1.1-.183.208-.25.325a6.965 6.965 0 0 0-.125.225c-.017.067-.167.325-.45.775a12.85 12.85 0 0 1-.75 1.05c-1.1.933-2.008 1.533-2.725 1.8-.7.317-1.533.475-2.5.475-.867 0-1.508-.133-1.925-.4Zm1.8-10.375 1-.2a9.25 9.25 0 0 0 1.075-.3l.3-.15c.183-.1.367-.242.55-.425 1.05-.983 1.783-1.867 2.2-2.65.417-.683.625-1.167.625-1.45 0-.2-.092-.392-.275-.575-.317-.367-.842-.55-1.575-.55-.317 0-.583.033-.8.1-.233.067-.408.15-.525.25-.1.083-.15.217-.15.4 0 .133-.042.283-.125.45a1.68 1.68 0 0 1-.275.375c-.017.1-.067.2-.15.3-.067.1-.117.167-.15.2 0 .033-.117.258-.35.675-.217.417-.425.883-.625 1.4-.5 1.183-.75 1.9-.75 2.15Zm8.425 9.4a1.813 1.813 0 0 1-.4-.275.504.504 0 0 1-.1-.325c0-.167.067-.4.2-.7.15-.317.4-.808.75-1.475.1-.217.292-.6.575-1.15.717-1.367 1.075-2.375 1.075-3.025a.346.346 0 0 1-.025-.15c0-.167.134-.317.4-.45.05-.05.225-.192.525-.425.317-.233.567-.5.75-.8.217-.5.492-1.05.825-1.65.334-.617.909-1.617 1.725-3 .8-1.467 1.65-2.792 2.55-3.975.167-.233.35-.417.55-.55.217-.133.4-.2.55-.2.517 0 1.042.2 1.575.6.55.4.909.8 1.075 1.2.067.117.1.367.1.75 0 .517-.058 1.392-.175 2.625a14.09 14.09 0 0 0-.1 1.025c-.05.75-.125 1.55-.225 2.4a250.29 250.29 0 0 0-.4 4.375 37.421 37.421 0 0 0-.125 2.95c0 .467.009.808.025 1.025v.175l-.025.575c-.1.1-.3.15-.6.15-.333 0-.666-.058-1-.175-.333-.1-.516-.225-.55-.375a.292.292 0 0 0-.075-.05c-.033-.017-.05-.092-.05-.225l.025-.55.075-1.4.125-3.825-.325.025c-.333 0-1.041.067-2.125.2-1.066.133-1.741.242-2.025.325-.15 0-.333.1-.55.3a2.86 2.86 0 0 0-.575.775c-.05.167-.166.408-.35.725-.183.3-.275.475-.275.525-.1.067-.191.158-.275.275-.066.1-.108.167-.125.2 0 .183-.166.658-.5 1.425-.316.75-.633 1.367-.95 1.85l-.675.95-.875-.675Zm5.975-8.6.7-.1a7.55 7.55 0 0 1 .925-.125c.8-.2 1.35-.3 1.65-.3.167 0 .284.017.35.05.05.067.1.117.15.15a.716.716 0 0 0 .125.025c.034-.133.167-1.042.4-2.725.234-1.683.35-2.717.35-3.1a7.62 7.62 0 0 0-.025-.675 2.202 2.202 0 0 0-.05-.375c-.15 0-.491.4-1.025 1.2a23.14 23.14 0 0 0-1.55 2.675c-.383.683-.65 1.025-.8 1.025-.116.117-.366.508-.75 1.175-.383.667-.533 1.033-.45 1.1Zm25.894-7.025c0 .217-.058.5-.175.85a13.96 13.96 0 0 0-.4 1.6 8.236 8.236 0 0 0-.125 1.25l.025.25c-.1.217-.183.55-.25 1a5.72 5.72 0 0 1-.1.55.404.404 0 0 1-.175.25c0 .067.008.175.025.325.033.15.05.275.05.375v.3c-.317 1.817-.475 3.425-.475 4.825 0 .733.05 1.308.15 1.725.117.417.267.642.45.675.033 0 .058.008.075.025.017.017.025.058.025.125 0 .217-.058.417-.175.6-.1.183-.217.35-.35.5a4.7 4.7 0 0 1-.3.35 4.13 4.13 0 0 1-.125.175c-.033.067-.092.1-.175.1-.117 0-.325-.042-.625-.125-.05-.1-.208-.225-.475-.375-.267-.133-.483-.417-.65-.85-.167-.433-.25-1.167-.25-2.2 0-.283.008-.508.025-.675v-.075a2.475 2.475 0 0 1-.025-.425c0-.767.083-1.733.25-2.9a60.66 60.66 0 0 1 .575-3.2c.133-.567.308-1.267.525-2.1.217-.867.325-1.333.325-1.4l-.025-.025c.033.05-.333.725-1.1 2.025-.767 1.283-1.233 2.042-1.4 2.275-.083.117-.242.417-.475.9l-.7 1.45c-1.367 2.033-2.417 3.05-3.15 3.05-.7 0-1.158-.25-1.375-.75-.2-.5-.308-.942-.325-1.325a24.929 24.929 0 0 1-.025-.7c.033-.183.05-.4.05-.65v-.275c0-.05.017-.183.05-.4a8.39 8.39 0 0 0 .125-.775c0-.1.083-.617.25-1.55.233-1.133.35-1.858.35-2.175 0-.067-.008-.108-.025-.125v.05c0 .05-.1.233-.3.55-.25.317-.542.783-.875 1.4a156.22 156.22 0 0 0-1.375 2.775c-.117.217-.292.575-.525 1.075-.05.517-.4 1.458-1.05 2.825l-.225.575c-.5 1.25-.9 2.167-1.2 2.75-.283.567-.5.842-.65.825-.083 0-.258-.083-.525-.25a3.217 3.217 0 0 1-.725-.625c-.217-.25-.325-.5-.325-.75 0-.033.142-.333.425-.9.467-.95.725-1.517.775-1.7.017-.067.033-.158.05-.275.033-.117.217-.417.55-.9 0-.1.075-.35.225-.75a19 19 0 0 1 .65-1.425c.133-.2.2-.392.2-.575.15-.183.342-.592.575-1.225.083-.233.167-.458.25-.675.1-.217.2-.383.3-.5.05-.033.133-.15.25-.35a50.61 50.61 0 0 1 1.55-2.65l.3-.55c.067-.183.125-.283.175-.3.067-.017.342-.475.825-1.375.75-1.05 1.183-1.575 1.3-1.575.1 0 .275.058.525.175.267.117.5.258.7.425.217.167.325.317.325.45 0 .05.008.192.025.425.017.233.025.483.025.75 0 .65-.275 2.817-.825 6.5l-.125.8c.017.05.042.15.075.3.033.133.05.283.05.45.217-.333.408-.6.575-.8.433-.633.742-1.133.925-1.5 0-.083.025-.167.075-.25.067-.083.133-.175.2-.275a2.64 2.64 0 0 0 .3-.45.787.787 0 0 0 .125-.425 36.8 36.8 0 0 0 1.25-1.9c1.4-2.183 2.267-3.425 2.6-3.725.117-.1.292-.183.525-.25.25-.067.483-.1.7-.1.467 0 .825.142 1.075.425.25.267.375.608.375 1.025Zm21.456 1.45c-.034.867-.134 1.5-.3 1.9-.167.4-.4.608-.7.625-.084-.017-.267-.05-.55-.1a2.72 2.72 0 0 1-.825-.35c-.25-.167-.375-.392-.375-.675 0-.117.058-.392.175-.825.183-.733.275-1.183.275-1.35 0-.517-.225-.85-.675-1-.517 0-1.175.4-1.975 1.2-.8.8-1.592 1.792-2.375 2.975-.784 1.183-1.4 2.308-1.85 3.375-.817 2.35-1.275 3.933-1.375 4.75.033.133.05.325.05.575 0 .117-.025.175-.075.175.05.367.2.733.45 1.1.266.35.575.525.925.525.35 0 .775-.058 1.275-.175.516-.133.891-.283 1.125-.45.133 0 .341-.058.625-.175.3-.133.5-.225.6-.275.516-.233.95-.408 1.3-.525.35-.133.675-.2.975-.2.116 0 .341.033.675.1-.017.067-.042.2-.075.4a4.414 4.414 0 0 1-.15.575c-.284.4-.542.683-.775.85-.217.167-.525.342-.925.525-.317.117-.6.258-.85.425-1.2.733-2.392 1.1-3.575 1.1-.534 0-1.117-.117-1.75-.35-.617-.217-1.125-.492-1.525-.825-.134-.217-.309-.667-.525-1.35-.217-.683-.325-1.117-.325-1.3a.77.77 0 0 1 .05-.225c.033-.1.05-.175.05-.225v-.25a.925.925 0 0 1-.05-.3c.016-.517.225-1.367.625-2.55.416-1.2.966-2.542 1.65-4.025.416-.9 1.016-1.9 1.8-3a23.56 23.56 0 0 1 2.475-2.95c.866-.85 1.583-1.383 2.15-1.6.35-.117.633-.175.85-.175.6 0 1.166.15 1.7.45.533.283.966.733 1.3 1.35.333.6.5 1.35.5 2.25Zm10.118 13.575c-.767-.267-1.384-.767-1.85-1.5-.45-.733-.675-1.6-.675-2.6 0-.4.033-.767.1-1.1.033-.433.133-.942.3-1.525.1-.3.175-.608.225-.925 0-.033.016-.092.05-.175.033-.083.041-.15.025-.2.1-.25.241-.6.425-1.05.2-.45.325-.7.375-.75.066-.033.1-.075.1-.125a.44.44 0 0 0 .025-.1c0-.217.225-.683.675-1.4.466-.717.966-1.417 1.5-2.1.533-.683.85-1.025.95-1.025.033 0 .075-.033.125-.1.05-.083.083-.125.1-.125.116-.133.583-.375 1.4-.725.816-.367 1.466-.608 1.95-.725a3.072 3.072 0 0 1 1.025-.175c.85 0 1.541.4 2.075 1.2.533.783.808 1.875.825 3.275-.05.25-.092.617-.125 1.1-.034.383-.059.6-.075.65-.017.5-.125 1.125-.325 1.875-.184.733-.309 1.108-.375 1.125 0 .05-.017.108-.05.175a.395.395 0 0 0-.05.175c.016.15-.2.675-.65 1.575-.45.883-.709 1.333-.775 1.35a.183.183 0 0 0-.075.025c-.017.017-.017.05 0 .1.016.05-.117.2-.4.45-.267.25-.459.375-.575.375-.017 0-.034.008-.05.025 0 .017.016.05.05.1.033.05-.209.267-.725.65-.5.383-1.042.758-1.625 1.125-.584.35-1.025.558-1.325.625a.438.438 0 0 1-.225.125.734.734 0 0 1-.125.025c-.117.117-.334.217-.65.3-.3.083-.6.125-.9.125-.25 0-.475-.042-.675-.125Zm2.525-2.625c.5-.167 1-.433 1.5-.8.5-.383.8-.733.9-1.05.083-.3.2-.508.35-.625.283-.283.658-.933 1.125-1.95.483-1.033.733-1.733.75-2.1 0-.1.025-.258.075-.475.05-.233.108-.4.175-.5.033-.05.041-.158.025-.325a8.995 8.995 0 0 1-.025-.775c0-.433.008-.808.025-1.125-.05-1.083-.217-1.708-.5-1.875-.134-.1-.359-.15-.675-.15-.084 0-.192.017-.325.05-.084.017-.2.058-.35.125-.15.05-.267.075-.35.075-.234.133-.35.283-.35.45 0 .15-.067.275-.2.375-.117.1-.242.108-.375.025-.3.017-.492.058-.575.125-.084.067-.192.225-.325.475a9.368 9.368 0 0 1-.325.6c-.417.317-.734.65-.95 1-.217.35-.35.642-.4.875-.517.9-.842 1.533-.975 1.9-.117.35-.217.833-.3 1.45-.134.25-.242.542-.325.875-.067.333-.125.55-.175.65-.034.133-.05.308-.05.525 0 .367.025.75.075 1.15.05.383.116.642.2.775.133.45.425.675.875.675.366 0 .858-.142 1.475-.425Zm24.413-8.275c.034.533.05.85.05.95 0 .383-.033.717-.1 1-.066.283-.216.867-.45 1.75-.35.667-.575 1.108-.675 1.325-.383.733-.741 1.317-1.075 1.75-.333.417-.941.983-1.825 1.7-.383.35-1.041.7-1.975 1.05-.916.35-1.641.525-2.175.525-.15.017-.391.025-.725.025-.233 0-.4-.008-.5-.025-.016.417-.158 1.333-.425 2.75-.233.417-.491.625-.775.625-.1 0-.2-.025-.3-.075-.3-.067-.566-.25-.8-.55-.233-.3-.333-.575-.3-.825a19 19 0 0 0 .375-1.625l.125-.525-1.725-.925c-.466-.35-.975-.85-1.525-1.5-.55-.65-.883-1.317-1-2-.083-.317-.125-.733-.125-1.25 0-1 .2-2.05.6-3.15.417-1.117.967-2.083 1.65-2.9.25-.283.509-.533.775-.75.267-.217.525-.408.775-.575.25-.183.417-.308.5-.375l.75-.525c.15-.1.409-.233.775-.4a7.68 7.68 0 0 1 .975-.4c.2-.067.392-.108.575-.125.2-.033.459-.05.775-.05.467 0 .892.008 1.275.025 0-.317.084-.808.25-1.475.017-.133.042-.267.075-.4.034-.133.059-.258.075-.375 0-.217.1-.4.3-.55.2-.167.417-.217.65-.15.3.067.584.217.85.45.267.233.4.433.4.6 0 .267-.016.5-.05.7l-.425 1.7c.767.3 1.517.708 2.25 1.225.55.383.95.708 1.2.975a2.6 2.6 0 0 1 .6.925c.134.35.242.833.325 1.45Zm-10.675 5.9c.117-.283.359-.975.725-2.075.734-2.133 1.292-3.642 1.675-4.525l.875-2.075-.375-.025c-.2 0-.4.025-.6.075-.416.083-.891.3-1.425.65-.533.333-1.025.683-1.475 1.05-.566.45-.983.933-1.25 1.45-.766 1.433-1.15 2.483-1.15 3.15-.083.35-.125.642-.125.875 0 .35.05.658.15.925.1.267.242.525.425.775.234.4.534.725.9.975.384.25.8.467 1.25.65.05-.317.109-.667.175-1.05.084-.383.159-.658.225-.825Zm8.6-5.5c.084-.867-.191-1.492-.825-1.875-.116-.067-.341-.2-.675-.4-.333-.2-.616-.35-.85-.45a4.338 4.338 0 0 0-.7-.3c-.033.167-.141.475-.325.925-.133.283-.291.683-.475 1.2-.216.5-.608 1.517-1.175 3.05-.566 1.517-.916 2.5-1.05 2.95l-.225.7c-.166.45-.283.85-.35 1.2l-.175.675.925-.3a2.38 2.38 0 0 1 .55-.175c.384-.117.667-.217.85-.3a5.35 5.35 0 0 0 1.975-1.35c.584-.617 1.159-1.458 1.725-2.525.117-.25.275-.742.475-1.475.2-.733.309-1.25.325-1.55Zm6.387 10.975c-.25 0-.633-.1-1.15-.3-.5-.2-.975-.45-1.425-.75-.45-.3-.741-.6-.875-.9l-.05-.1a3.463 3.463 0 0 1-.375-2.575l.125-.525c.15-.517.225-.942.225-1.275.084-.1.209-.267.375-.5a4.7 4.7 0 0 0 .325-.475.598.598 0 0 0 .05-.225v-.375c0-.117.042-.233.125-.35.084-.117.167-.208.25-.275.1-.083.167-.133.2-.15l.1.025c.034 0 .159-.242.375-.725.217-.5.425-1.025.625-1.575.834-1.533 1.767-2.808 2.8-3.825 1.034-1.033 1.95-1.725 2.75-2.075.067-.017.192-.033.375-.05.184-.017.359-.033.525-.05.317.017.7.092 1.15.225.45.133.692.233.725.3 0 .067.017.108.05.125a.4.4 0 0 0 .1.025c.15-.017.417.225.8.725.4.483.692.942.875 1.375.2.317.3.85.3 1.6 0 .633-.091 1.425-.275 2.375-.183.933-.366 1.6-.55 2a35.363 35.363 0 0 1-1.65 3.8c-.666 1.333-1.275 2.017-1.825 2.05-.016 0-.033.017-.05.05-.016.017-.025.05-.025.1s-.225.267-.675.65c-.433.383-.816.7-1.15.95l-.475.175c-.4.15-.858.267-1.375.35-.516.1-.95.158-1.3.175Zm.025-2.275c.717 0 1.234-.017 1.55-.05.317-.033.65-.142 1-.325.367-.2.759-.542 1.175-1.025.167-.3.3-.5.4-.6.017-.033.15-.267.4-.7.25-.433.484-.65.7-.65 0-.083.067-.308.2-.675.134-.383.234-.6.3-.65.034-.017.117-.2.25-.55.134-.367.259-.767.375-1.2.117-.433.175-.792.175-1.075.3-.317.434-.492.4-.525a.44.44 0 0 1-.025-.1v-.25c0-.483.034-.733.1-.75.084-.033.125-.058.125-.075a.277.277 0 0 0-.1-.1c-.033-.033-.05-.067-.05-.1 0-.017.025-.05.075-.1a.27.27 0 0 0 .075-.2c-.033-.417-.266-1.142-.7-2.175a1.506 1.506 0 0 1-.2-.175.61.61 0 0 0-.275-.2.57.57 0 0 0-.3-.075c-.066 0-.183.017-.35.05-.066-.067-.133-.1-.2-.1a.547.547 0 0 0-.175.025l-.125.05c-.35.083-.625.2-.825.35-.183.15-.45.417-.8.8l-.425.45c-.133.45-.408.842-.825 1.175-.066.05-.166.175-.3.375a3.522 3.522 0 0 1-.3.375l-.15.3c-.366.6-.758 1.4-1.175 2.4a41.354 41.354 0 0 0-1.075 2.8c-.3.883-.45 1.442-.45 1.675 0 .467.15.842.45 1.125.317.283.675.442 1.075.475Zm12.064 2.2c-.167 0-.417-.083-.75-.25-.333-.167-.5-.342-.5-.525 0-.033-.008-.1-.025-.2s-.05-.2-.1-.3c0-.417.042-.75.125-1 0-.183.025-.383.075-.6.05-.217.108-.392.175-.525 0-.133.033-.308.1-.525.067-.233.108-.392.125-.475l.15-.525.425-1.275c.083-.2.142-.367.175-.5s.05-.258.05-.375c.1-.333.225-.758.375-1.275.15-.517.275-.967.375-1.35.083-.083.125-.208.125-.375l.225-.7c.117-.383.25-.783.4-1.2.25-.733.442-1.333.575-1.8.133-.467.2-.792.2-.975a.57.57 0 0 0-.075-.3 1.68 1.68 0 0 0-.075-.2c-.067-.167-.1-.267-.1-.3 0-.067.033-.133.1-.2a.768.768 0 0 0 .15-.2c.05-.083.083-.142.1-.175 0-.067.408-.258 1.225-.575.833-.333 1.475-.567 1.925-.7h1.525c.467.067.925.2 1.375.4.45.2.825.45 1.125.75.517.483.983 1.192 1.4 2.125 0 .067.017.217.05.45.05.217.075.408.075.575 0 .783-.283 1.683-.85 2.7-.55 1.017-1.308 1.917-2.275 2.7a6.583 6.583 0 0 1-1.75 1c-.6.233-1.175.35-1.725.35a3.11 3.11 0 0 1-.7-.075c-.3-.117-.517-.283-.65-.5a1.597 1.597 0 0 1-.175-.725c0-.217.033-.358.1-.425.067-.017.25-.025.55-.025.3 0 .742-.108 1.325-.325.433-.15.783-.308 1.05-.475.783-.5 1.475-1.233 2.075-2.2.333-.533.5-1.333.5-2.4.033-.167.05-.292.05-.375 0-.333-.15-.608-.45-.825-.283-.233-.692-.375-1.225-.425a2.036 2.036 0 0 0-.375-.025c-.317 0-.65.042-1 .125-.35.083-.6.175-.75.275-.05 0-.092.058-.125.175a1.843 1.843 0 0 1-.125.325c0 .133-.058.383-.175.75-.1.367-.208.708-.325 1.025l-.325.95c-.217.55-.367.983-.45 1.3-.05.217-.117.45-.2.7a5.318 5.318 0 0 1-.175.45c0 .033-.05.183-.15.45-.1.267-.175.492-.225.675-.15.783-.358 1.5-.625 2.15-.383 1.25-.575 2.125-.575 2.625 0 .183.025.317.075.4.283.017.483.05.6.1.133.033.2.108.2.225 0 .2-.267.633-.8 1.3-.15.383-.308.658-.475.825-.167.167-.308.258-.425.275-.117.033-.292.05-.525.05Zm29.255-15.425c0 .083-.025.142-.075.175-.05.017-.075.033-.075.05s.033.05.1.1l-.175.825c-.067.35-.208 1.05-.425 2.1-.2 1.05-.35 1.9-.45 2.55l-.35 2.675c-.15 1.183-.258 2.092-.325 2.725-.05.633-.075 1.3-.075 2 0 .8.025 1.408.075 1.825.067.433.1.683.1.75 0 .1-.117.25-.35.45-.233.2-.492.3-.775.3-.433 0-.75-.183-.95-.55-.2-.35-.317-.9-.35-1.65 0-1.117.083-2.608.25-4.475.05-.117.075-.342.075-.675 0-.2-.017-.35-.05-.45-.017-.167.008-.4.075-.7a2.863 2.863 0 0 0 .075-.6c0-.083.033-.258.1-.525.1-.3.15-.533.15-.7v-.175c.05-.15.1-.333.15-.55.067-.233.1-.375.1-.425a1.436 1.436 0 0 1-.025-.35c0-.183-.017-.308-.05-.375.1-.283.217-.717.35-1.3l.3-1.2c-.017 0-.2.333-.55 1a15.2 15.2 0 0 1-1.225 1.975c-.383.617-.758 1.15-1.125 1.6-.35.45-.55.708-.6.775-.217.283-.425.55-.625.8-.183.25-.317.483-.4.7-.35.867-.758 1.5-1.225 1.9-.45.4-.908.625-1.375.675l-.4.05h-.15c-.317 0-.583-.208-.8-.625-.2-.417-.3-1.192-.3-2.325l.025-.675.075-1.4c.05-.283.092-.75.125-1.4.033-.667.058-1.108.075-1.325-.083.083-.233.392-.45.925-.2.533-.325.875-.375 1.025l-.225.575c-.083.117-.208.433-.375.95-.133.383-.317.85-.55 1.4-.367 1.2-.7 2.15-1 2.85-.133.283-.267.592-.4.925-.033.067-.133.333-.3.8-.233.6-.383.958-.45 1.075-.717 1.617-1.317 2.425-1.8 2.425-.267 0-.533-.142-.8-.425-.25-.267-.375-.558-.375-.875 0-.233.092-.542.275-.925.183-.4.45-.917.8-1.55l.525-.975c0-.083.2-.65.6-1.7l.35-.925 1.55-4.1.025-.1.15-.375c.05-.133.142-.333.275-.6.233-.533.35-.842.35-.925v-.05c0-.05.017-.083.05-.1a.39.39 0 0 1 .1-.025c.067-.183.183-.467.35-.85.183-.4.325-.7.425-.9l-.025-.1a.9.9 0 0 1 .075-.4c.067-.1.133-.192.2-.275a2.14 2.14 0 0 0 .2-.225c0-.1.05-.233.15-.4.1-.183.217-.367.35-.55.267-.367.442-.642.525-.825.167-.317.425-.475.775-.475.25 0 .5.1.75.3.25.2.458.425.625.675.167.233.25.392.25.475 0 .05-.025.083-.075.1-.05.017-.075.058-.075.125v.1c.017.05.025.117.025.2 0 .3-.042.533-.125.7a7.721 7.721 0 0 0-.225 1.925l.025.725c0 .133-.033.233-.1.3-.05.067-.092.125-.125.175v.05l-.025.2.025.15c0 .15-.042.333-.125.55-.1.383-.15.592-.15.625-.067.55-.1 1.117-.1 1.7 0 .867.075 1.342.225 1.425l1.8-2.675c1.533-2.267 2.308-3.425 2.325-3.475.117-.067.225-.192.325-.375-.017 0-.025-.017-.025-.05 0-.083.217-.442.65-1.075.433-.65.9-1.233 1.4-1.75.5-.533.908-.8 1.225-.8.15 0 .35.1.6.3.267.2.5.45.7.75.2.283.3.55.3.8Zm17.876 0c.017.067.025.183.025.35 0 .667-.358 2.3-1.075 4.9l-.275 1.075-.325 1.35a11.45 11.45 0 0 1-.425 1.9c-.217.7-.5 1.542-.85 2.525a33.42 33.42 0 0 0-.7 2.125c-.05.083-.125.258-.225.525s-.217.458-.35.575c-.317.283-.617.425-.9.425-.1 0-.217-.025-.35-.075-.283-.117-.5-.258-.65-.425a.835.835 0 0 1-.2-.575c0-.117.008-.208.025-.275.067-.117.283-.658.65-1.625.367-.967.633-1.7.8-2.2.1-.567.225-1.117.375-1.65.15-.533.292-.917.425-1.15l.225-1.15.25-1.275c.133-.6.258-1.067.375-1.4l.875-3.975c-1.583.067-2.4.125-2.45.175-.017.183-.217.725-.6 1.625-.367.9-.65 1.55-.85 1.95-.2.383-.367.725-.5 1.025-.133.283-.242.517-.325.7l-.3.7c-.15.467-.533 1.292-1.15 2.475-.617 1.183-1.158 2.142-1.625 2.875a48.209 48.209 0 0 1-2.125 2.8 7.637 7.637 0 0 1-1.025 1.075c-.383.367-.692.6-.925.7a1.07 1.07 0 0 1-.475.125c-.367 0-.7-.15-1-.45-.283-.283-.433-.642-.45-1.075.083-.217.208-.383.375-.5a1 1 0 0 1 .6-.2c.017 0 .233-.208.65-.625.417-.433.683-.717.8-.85.433-.483 1.017-1.225 1.75-2.225.383-.55.933-1.392 1.65-2.525l.45-.625 1.15-3.15 1.45-3.2c-.183.067-.45.192-.8.375-1.083.517-1.85.775-2.3.775-.283 0-.492-.092-.625-.275a1.403 1.403 0 0 1-.275-.85c0-.283.075-.542.225-.775.15-.25.342-.417.575-.5l2.85-1.025c.95-.267 1.7-.508 2.25-.725.283-.017.692-.058 1.225-.125.533-.083.875-.15 1.025-.2 1.617-.05 2.642.8 3.075 2.55Zm4.63 15.775a3.03 3.03 0 0 1-1.2-.375c-.4-.217-.767-.442-1.1-.675a130.91 130.91 0 0 1-.675-.475 3.237 3.237 0 0 1-.65-.9c-.15-.333-.275-.767-.375-1.3-.033-.2-.05-.375-.05-.525 0-.5.083-1.108.25-1.825.183-.733.367-1.3.55-1.7.367-.883 1.175-2.3 2.425-4.25l.125-.125c.033-.033.042-.05.025-.05v-.025c0-.117.242-.633.725-1.55.283-.3.425-.558.425-.775a.45.45 0 0 0-.075-.275c-.05-.067.017-.208.2-.425a5.28 5.28 0 0 1 .75-.75 6.21 6.21 0 0 1 1.05-.725c.45-.35.892-.525 1.325-.525.133 0 .242.025.325.075.1.033.158.092.175.175 0 .1.333.067 1-.1.3-.067.517-.108.65-.125.067-.083.234-.15.5-.2.284-.067.675-.133 1.175-.2.267.017.592.017.975 0 .4-.017.658-.033.775-.05.117-.033.283.042.5.225.233.183.417.417.55.7.033.1.05.175.05.225 0 .25-.158.467-.475.65-.317.167-.775.283-1.375.35-.617.083-1.158.167-1.625.25-.467.083-1.05.2-1.75.35l-.525.1c-.517.083-.9.192-1.15.325-.25.133-.516.425-.8.875-.117.083-.266.3-.45.65-.183.333-.367.683-.55 1.05l-.5.675c-.383.517-.625.858-.725 1.025-.083.15-.1.258-.05.325.067.017.183.042.35.075.183.033.333.058.45.075.15-.083.358-.142.625-.175s.458-.067.575-.1l.55-.15a166.56 166.56 0 0 1 2.275-.575c.484-.117.842-.192 1.075-.225a.462.462 0 0 1 .3-.1c.184 0 .358.092.525.275.183.167.317.367.4.6.067.233.1.383.1.45 0 .283-.167.5-.5.65-.333.133-1 .317-2 .55-1.45.35-2.358.575-2.725.675-1.083.317-1.883.475-2.4.475-.433 0-.642-.142-.625-.425-.15-.083-.325.067-.525.45s-.375.858-.525 1.425c-.133.567-.2 1.058-.2 1.475 0 .217.025.4.075.55.15.4.375.742.675 1.025.3.267.717.475 1.25.625a6.85 6.85 0 0 0 1.05.075c.333 0 .667-.067 1-.2 1.3-.217 2.217-.517 2.75-.9a.558.558 0 0 0 .225-.175c.083-.083.158-.125.225-.125l-.025.05c0 .017.05-.017.15-.1.1-.1.208-.2.325-.3.467-.4.983-.6 1.55-.6.2 0 .367.033.5.1.15.05.233.1.25.15.1.167.05.433-.15.8-.2.367-.517.75-.95 1.15-.417.4-.883.75-1.4 1.05a9.927 9.927 0 0 1-2.75.95c-1 .217-1.966.333-2.9.35Zm12.616 1.325a6.188 6.188 0 0 0-.375-.075 1.453 1.453 0 0 0-.45-.025c-.283-.05-.558-.192-.825-.425-.25-.233-.35-.475-.3-.725.05-.05.092-.183.125-.4.034-.2.05-.383.05-.55.067-.183.142-.45.225-.8.1-.75.358-1.992.775-3.725.434-1.75.709-2.683.825-2.8l-.025-.275a1.97 1.97 0 0 1 .25-.8c.067-.2.117-.392.15-.575.05-.2.075-.35.075-.45.034-.05.15-.35.35-.9l.25-.7c.1-.317.234-.692.4-1.125.167-.433.275-.717.325-.85v-.125c.067-.083.25-.525.55-1.325.15-.333.292-.675.425-1.025.15-.367.3-.725.45-1.075.05-.1.125-.242.225-.425s.15-.308.15-.375c.067-.133.234-.2.5-.2.217 0 .434.05.65.15.217.1.367.233.45.4l.575.4-.85 1.825a29.89 29.89 0 0 0-.6 1.275c-.167.4-.25.633-.25.7-.033.117-.108.358-.225.725-.116.367-.241.783-.375 1.25-.066.233-.233.725-.5 1.475-.116.283-.175.442-.175.475 0-.067.9-.133 2.7-.2.3-.017.85-.042 1.65-.075.817-.05 1.325-.1 1.525-.15l1.275-.175.6-2.225c.2-.817.525-1.967.975-3.45.217-.717.475-1.267.775-1.65.3-.4.559-.6.775-.6.417 0 .759.3 1.025.9.2.167.3.358.3.575 0 .217-.125.542-.375.975-.216.4-.475 1.067-.775 2-.05.217-.133.475-.25.775v.1c0 .317-.075.55-.225.7-.05.05-.158.283-.325.7-.15.417-.225.658-.225.725.017.117 0 .267-.05.45-.05.167-.108.283-.175.35l-.475 2c-.3 1.267-.6 2.283-.9 3.05.017.083-.016.233-.1.45-.066.217-.1.367-.1.45-.25.8-.366 1.25-.35 1.35-.083.383-.241 1.075-.475 2.075-.15.667-.225 1.008-.225 1.025-.016.033-.091.05-.225.05-.266 0-.55-.058-.85-.175a1.59 1.59 0 0 1-.6-.55 1.207 1.207 0 0 1-.225-.7c0-.217.042-.408.125-.575.067-.117.192-.617.375-1.5l.25-1.075c.084-.267.175-.658.275-1.175.117-.533.2-.908.25-1.125.15-.867.25-1.325.3-1.375v-.25c-.05-.05-.35-.075-.9-.075-.566 0-1.233.033-2 .1-.766.05-1.45.125-2.05.225l-.7.025c-.35 0-.575.008-.675.025-.166 0-.308.008-.425.025h-.225c-.066.15-.258.867-.575 2.15-.316 1.283-.5 2.108-.55 2.475-.15.767-.325 1.583-.525 2.45a44.53 44.53 0 0 1-.45 2Zm26.721-.85c-.383-.033-.808-.217-1.275-.55-.45-.317-.683-.658-.7-1.025l.05-.65c.317-.9.65-2.158 1-3.775.083-.317.167-.675.25-1.075.1-.4.208-.825.325-1.275.283-1.067.8-2.792 1.55-5.175l.425-1.375c-2.967 3.75-5.417 6.908-7.35 9.475-.417.567-1.15 1.442-2.2 2.625-1.05 1.183-1.758 1.9-2.125 2.15-.217.15-.475.225-.775.225-.317 0-.6-.083-.85-.25a.91.91 0 0 1-.425-.675l-.025-.275c0-.633.175-1.6.525-2.9.367-1.317.825-2.85 1.375-4.6l.45-1.425a43.615 43.615 0 0 1 1.725-4.675.423.423 0 0 1-.025-.175.55.55 0 0 1 .175-.4c-.017-.067.067-.308.25-.725.2-.433.325-.708.375-.825.133-.267.25-.525.35-.775.117-.383.283-.667.5-.85.233-.183.475-.275.725-.275.35 0 .65.133.9.4.267.267.4.6.4 1 0 .283-.083.583-.25.9a4.97 4.97 0 0 0-.35.775c-.033.117-.1.292-.2.525a80.623 80.623 0 0 0-2.1 5.425c-.667 1.9-1.2 3.617-1.6 5.15a36.47 36.47 0 0 1 1.325-1.55 63.481 63.481 0 0 0 1.975-2.35 156.413 156.413 0 0 1 6.5-8.225c.3-.367.692-.775 1.175-1.225.5-.45.917-.742 1.25-.875a.932.932 0 0 1 .425-.1c.383 0 .733.183 1.05.55.317.35.475.725.475 1.125 0 .167-.017.292-.05.375l-.55 1.4c-1.033 2.467-1.55 3.883-1.55 4.25 0 .183-.475 1.925-1.425 5.225a151.158 151.158 0 0 0-.475 1.675c-.167.65-.317 1.367-.45 2.15-.117.767-.225 1.517-.325 2.25l-.45.4Zm9.718-.4c-.566-.133-1.225-.375-1.975-.725-.75-.333-1.15-.608-1.2-.825a.237.237 0 0 0-.1-.2.307.307 0 0 0-.225-.1v-.375c0-.117-.033-.192-.1-.225-.083-.167-.125-.408-.125-.725 0-.517.084-1.167.25-1.95.184-.783.384-1.483.6-2.1 0-.117.025-.267.075-.45.067-.183.1-.3.1-.35.134-.383.4-.992.8-1.825s.734-1.417 1-1.75c0-.05.059-.158.175-.325.134-.183.225-.367.275-.55.267-.267.625-.783 1.075-1.55.584-.483.825-.917.725-1.3.017-.35.159-.6.425-.75.284-.167.784-.333 1.5-.5.517-.2 1.05-.333 1.6-.4.55-.083 1.275-.142 2.175-.175a4.61 4.61 0 0 1 .85-.125c.05-.05.3-.025.75.075.467.083.884.225 1.25.425.384.183.567.392.55.625-.016.133-.391.308-1.125.525-.716.2-1.375.333-1.975.4l-.625.075c-.966.1-1.666.208-2.1.325-.416.1-.8.3-1.15.6-.35.3-.75.8-1.2 1.5-.6.933-.9 1.567-.9 1.9 0 .217.117.325.35.325.15 0 .375-.017.675-.05.317-.05.542-.075.675-.075.084-.033.275-.1.575-.2.317-.1.667-.175 1.05-.225l1.1-.225c.334-.083.584-.125.75-.125.584 0 .875.2.875.6 0 .217-.108.45-.325.7-.2.25-.466.442-.8.575-.3.117-.641.233-1.025.35-.383.117-.625.175-.725.175a1.005 1.005 0 0 1-.25.05 3.227 3.227 0 0 1-.45.025l-1.125.15-.825.1c-.133.033-.45.117-.95.25-.5.133-.825.283-.975.45-.15.15-.291.4-.425.75a8.74 8.74 0 0 0-.525 1.775 9.571 9.571 0 0 0-.2 1.8c0 .517.075.85.225 1 .367.417.942.625 1.725.625.417 0 .842-.058 1.275-.175.45-.133.842-.308 1.175-.525.317-.25.667-.442 1.05-.575.15-.1.275-.15.375-.15.084 0 .175.033.275.1.1.05.192.108.275.175.1.067.184.125.25.175.134.183.2.375.2.575 0 .55-.7 1.117-2.1 1.7-.783.267-1.408.458-1.875.575a5.273 5.273 0 0 1-1.275.175l-.4-.025Zm28.45-15.85c0 .083-.025.142-.075.175-.05.017-.075.033-.075.05s.033.05.1.1l-.175.825c-.067.35-.208 1.05-.425 2.1-.2 1.05-.35 1.9-.45 2.55l-.35 2.675c-.15 1.183-.258 2.092-.325 2.725-.05.633-.075 1.3-.075 2 0 .8.025 1.408.075 1.825.067.433.1.683.1.75 0 .1-.117.25-.35.45-.233.2-.492.3-.775.3-.433 0-.75-.183-.95-.55-.2-.35-.317-.9-.35-1.65 0-1.117.083-2.608.25-4.475.05-.117.075-.342.075-.675 0-.2-.017-.35-.05-.45-.017-.167.008-.4.075-.7.016-.067.033-.158.05-.275.017-.117.025-.225.025-.325 0-.083.033-.258.1-.525.1-.3.15-.533.15-.7v-.175c.05-.15.1-.333.15-.55.067-.233.1-.375.1-.425a1.436 1.436 0 0 1-.025-.35c0-.183-.017-.308-.05-.375.1-.283.217-.717.35-1.3l.3-1.2c-.017 0-.2.333-.55 1a15.2 15.2 0 0 1-1.225 1.975c-.383.617-.758 1.15-1.125 1.6-.35.45-.55.708-.6.775-.217.283-.425.55-.625.8-.183.25-.317.483-.4.7-.35.867-.758 1.5-1.225 1.9-.45.4-.908.625-1.375.675l-.4.05h-.15c-.317 0-.583-.208-.8-.625-.2-.417-.3-1.192-.3-2.325l.025-.675.075-1.4c.05-.283.092-.75.125-1.4.033-.667.058-1.108.075-1.325-.083.083-.233.392-.45.925-.2.533-.325.875-.375 1.025l-.225.575c-.083.117-.208.433-.375.95-.133.383-.317.85-.55 1.4-.367 1.2-.7 2.15-1 2.85-.133.283-.267.592-.4.925-.033.067-.133.333-.3.8-.234.6-.383.958-.45 1.075-.717 1.617-1.317 2.425-1.8 2.425-.267 0-.533-.142-.8-.425-.25-.267-.375-.558-.375-.875 0-.233.092-.542.275-.925.183-.4.45-.917.8-1.55l.525-.975c0-.083.2-.65.6-1.7l.35-.925 1.55-4.1.025-.1.15-.375c.05-.133.142-.333.275-.6.233-.533.35-.842.35-.925v-.05c0-.05.017-.083.05-.1a.39.39 0 0 1 .1-.025c.067-.183.183-.467.35-.85.183-.4.325-.7.425-.9l-.025-.1a.9.9 0 0 1 .075-.4c.067-.1.133-.192.2-.275a2.14 2.14 0 0 0 .2-.225c0-.1.05-.233.15-.4.1-.183.217-.367.35-.55.267-.367.442-.642.525-.825.167-.317.425-.475.775-.475.25 0 .5.1.75.3.25.2.458.425.625.675.167.233.25.392.25.475 0 .05-.025.083-.075.1-.05.017-.075.058-.075.125v.1c.016.05.025.117.025.2 0 .3-.042.533-.125.7a7.721 7.721 0 0 0-.225 1.925l.025.725c0 .133-.033.233-.1.3-.05.067-.092.125-.125.175v.05l-.025.2.025.15c0 .15-.042.333-.125.55-.1.383-.15.592-.15.625-.067.55-.1 1.117-.1 1.7 0 .867.075 1.342.225 1.425l1.8-2.675c1.533-2.267 2.308-3.425 2.325-3.475.117-.067.225-.192.325-.375-.017 0-.025-.017-.025-.05 0-.083.217-.442.65-1.075.433-.65.9-1.233 1.4-1.75.5-.533.908-.8 1.225-.8.15 0 .35.1.6.3.266.2.5.45.7.75.2.283.3.55.3.8Zm-164.668 37.525c-.05.083-.183.192-.4.325.284.183.534.383.75.6.234.217.375.408.425.575.484.767.725 1.667.725 2.7 0 .533-.058 1.067-.175 1.6-.416.8-.666 1.267-.75 1.4-.35.667-.883 1.242-1.6 1.725-.716.483-1.375.8-1.975.95a7.3 7.3 0 0 1-2.125.325c-.166 0-.4-.017-.7-.05a4.826 4.826 0 0 1-1.15-.225c-.333-.1-.758-.292-1.275-.575a4.5 4.5 0 0 1-1.3-1.05c-.35-.417-.683-.892-1-1.425a1.28 1.28 0 0 1-.2-.725c0-.317.1-.625.3-.925.2-.3.442-.542.725-.725a1.2 1.2 0 0 1 .625-.2c.134 0 .25.025.35.075.117.05.2.083.25.1.317.05.517.217.6.5.084.283.134.433.15.45a6.15 6.15 0 0 1-.275.725.644.644 0 0 1-.275.325c.25.383.559.708.925.975.2.15.484.283.85.4.384.117.65.158.8.125.017-.017.059-.025.125-.025.084 0 .167.017.25.05.1.017.158.017.175 0 .084-.033.234-.05.45-.05.234-.017.417-.058.55-.125a5.247 5.247 0 0 0 1.425-.625 5.53 5.53 0 0 0 1.175-1.1c.25-.35.417-.658.5-.925.1-.283.167-.658.2-1.125.034-.25 0-.533-.1-.85a14.36 14.36 0 0 1-.2-.675l-.325-.25-.55-.15c-.433-.133-.741-.2-.925-.2-.2 0-.408.033-.625.1-.283.083-.475.125-.575.125-.183 0-.35-.042-.5-.125a2.492 2.492 0 0 0-.25-.175c-.233-.083-.441-.258-.625-.525-.166-.283-.25-.558-.25-.825a.79.79 0 0 1 .125-.425.998.998 0 0 1 .475-.425c.217-.117.459-.158.725-.125.067.017.159.025.275.025.234 0 .517-.067.85-.2.2-.067.517-.25.95-.55.434-.3.65-.442.65-.425.55-.7.942-1.225 1.175-1.575.25-.367.45-.767.6-1.2.184-.333.275-.692.275-1.075 0-.217-.041-.425-.125-.625-.016-.1-.133-.183-.35-.25a2.033 2.033 0 0 0-.6-.1.618.618 0 0 0-.225.025c-.266.017-.658.117-1.175.3-.517.167-.825.292-.925.375-.9.767-1.441 1.283-1.625 1.55-.066.117-.183.208-.35.275-.15.067-.316.1-.5.1-.316 0-.525-.083-.625-.25a1.797 1.797 0 0 1-.275-.95c0-.383.142-.75.425-1.1.317-.4.592-.717.825-.95.234-.25.509-.467.825-.65l.475-.275c.067-.033.217-.117.45-.25.25-.133.484-.233.7-.3.067-.017.259-.083.575-.2a3.153 3.153 0 0 1 1.05-.175c.15 0 .267.008.35.025.567.05.984.15 1.25.3.284.15.717.475 1.3.975.25.167.45.458.6.875.15.417.225.892.225 1.425 0 .8-.15 1.525-.45 2.175a5.758 5.758 0 0 0-.275.525c-.033.067-.141.267-.325.6-.166.317-.358.6-.575.85-.15.2-.466.592-.95 1.175Zm2.661 10.1a1.813 1.813 0 0 1-.4-.275.502.502 0 0 1-.1-.325c0-.167.067-.4.2-.7.15-.317.4-.808.75-1.475.1-.217.292-.6.575-1.15.717-1.367 1.075-2.375 1.075-3.025a.341.341 0 0 1-.025-.15c0-.167.133-.317.4-.45.05-.05.225-.192.525-.425.317-.233.567-.5.75-.8.217-.5.492-1.05.825-1.65.333-.617.908-1.617 1.725-3 .8-1.467 1.65-2.792 2.55-3.975.167-.233.35-.417.55-.55.217-.133.4-.2.55-.2.517 0 1.042.2 1.575.6.55.4.908.8 1.075 1.2.067.117.1.367.1.75 0 .517-.058 1.392-.175 2.625a14.09 14.09 0 0 0-.1 1.025c-.05.75-.125 1.55-.225 2.4a250.29 250.29 0 0 0-.4 4.375 37.566 37.566 0 0 0-.125 2.95c0 .467.008.808.025 1.025v.175l-.025.575c-.1.1-.3.15-.6.15-.333 0-.667-.058-1-.175-.333-.1-.517-.225-.55-.375a.303.303 0 0 0-.075-.05c-.033-.017-.05-.092-.05-.225l.025-.55.075-1.4.125-3.825-.325.025c-.333 0-1.042.067-2.125.2-1.067.133-1.742.242-2.025.325-.15 0-.333.1-.55.3-.217.2-.408.458-.575.775-.05.167-.167.408-.35.725-.183.3-.275.475-.275.525a1.07 1.07 0 0 0-.275.275c-.067.1-.108.167-.125.2 0 .183-.167.658-.5 1.425-.317.75-.633 1.367-.95 1.85l-.675.95-.875-.675Zm5.975-8.6.7-.1c.35-.067.658-.108.925-.125.8-.2 1.35-.3 1.65-.3.167 0 .283.017.35.05.05.067.1.117.15.15a.716.716 0 0 0 .125.025c.033-.133.167-1.042.4-2.725s.35-2.717.35-3.1c0-.267-.008-.492-.025-.675a2.202 2.202 0 0 0-.05-.375c-.15 0-.492.4-1.025 1.2a23.183 23.183 0 0 0-1.55 2.675c-.383.683-.65 1.025-.8 1.025-.117.117-.367.508-.75 1.175s-.533 1.033-.45 1.1Zm20.093 9c-.066.067-.241.1-.525.1-.366 0-.708-.092-1.025-.275-.3-.167-.45-.458-.45-.875 0-.233.059-.492.175-.775.567-1.467 1.35-3.7 2.35-6.7.134-.45.35-1.108.65-1.975 0 .033.184-.542.55-1.725a27.52 27.52 0 0 0 .6-1.95c.15-.533.267-1.083.35-1.65a3.449 3.449 0 0 0-.725-.075h-.45c-.3 0-.525-.017-.675-.05-.166-.033-.45-.05-.85-.05a16.033 16.033 0 0 0-1.6.075c-.133.017-.291.033-.475.05a6.525 6.525 0 0 1-.6.025l-.2.1-.375.9c-.083.2-.191.45-.325.75-.133.3-.275.65-.425 1.05-.1.25-.2.475-.3.675l-.225.5-.325.65-.375.95-.4.95c-.183.433-.4.925-.65 1.475-.4.933-.691 1.633-.875 2.1-.616 1.6-1.066 2.867-1.35 3.8-.033.117-.083.325-.15.625-.066.3-.141.525-.225.675a.878.878 0 0 1-.4.45c-.166.1-.358.15-.575.15-.283 0-.533-.058-.75-.175-.25-.133-.433-.267-.55-.4a.735.735 0 0 1-.175-.5c0-.167.034-.35.1-.55.784-2.583 1.675-4.892 2.675-6.925a13.7 13.7 0 0 0 .425-.95c.15-.367.259-.642.325-.825.317-.867.567-1.467.75-1.8a22.113 22.113 0 0 0 1.4-3.275c-.083.067-.225.1-.425.1-.15 0-.35-.017-.6-.05a2.79 2.79 0 0 0-.55-.075 1.885 1.885 0 0 1-.475-.625 2.17 2.17 0 0 1-.175-.825c0-.233.05-.433.15-.6.084-.15.167-.25.25-.3a.66.66 0 0 1 .375-.1h1.925c.15 0 .309-.067.475-.2a1.81 1.81 0 0 1 .175-.125.71.71 0 0 1 .4-.1c.067 0 .184.017.35.05.25.083.534.125.85.125.267 0 .625-.042 1.075-.125.267-.067.634-.1 1.1-.1l.95.025c.184.017.425.025.725.025.117 0 .259.017.425.05.184.033.334.058.45.075.134.017.367.025.7.025.567.017 1.05.058 1.45.125.4.05.709.158.925.325.15.117.292.275.425.475.134.183.2.35.2.5 0 .133-.266 1.125-.8 2.975-.516 1.833-.833 2.867-.95 3.1-.316.817-.783 2.208-1.4 4.175l-.8 2.45c-.083.233-.175.517-.275.85-.2.617-.425 1.258-.675 1.925-.233.667-.425 1.1-.575 1.3Zm5.778.45a12.089 12.089 0 0 0-.4-.175 2.162 2.162 0 0 1-.575-.325c-.166-.133-.25-.267-.25-.4-.033-.067-.033-.192 0-.375.034-.183.117-.508.25-.975l.15-.55c.15-.483.225-.733.225-.75.017.017.042.025.075.025.15 0 .225-.2.225-.6-.016-.067 0-.175.05-.325.067-.15.142-.3.225-.45 0-.117.067-.542.2-1.275a21.305 21.305 0 0 1 1.325-3.375c.017-.133.075-.325.175-.575.1-.25.175-.408.225-.475.034-.25.125-.567.275-.95.15-.4.3-.667.45-.8 0-.183.142-.592.425-1.225.284-.633.45-.95.5-.95 0-.017.017-.075.05-.175.05-.117.142-.267.275-.45 0-.083.017-.192.05-.325a.561.561 0 0 1 .225-.325c.017-.05.042-.15.075-.3.034-.15.042-.25.025-.3 0-.05-.016-.083-.05-.1a.812.812 0 0 1-.05-.3c0-.233.15-.358.45-.375.1 0 .217-.142.35-.425.067-.133.25-.25.55-.35.3-.1.734-.208 1.3-.325l1.325-.225c.284 0 .6.017.95.05s.634.075.85.125c.617.3 1.15.717 1.6 1.25.467.517.7.975.7 1.375 0 .5-.2 1.308-.6 2.425-.383 1.117-.716 1.783-1 2 .084 0 .05.092-.1.275-.15.183-.341.375-.575.575-.216.2-.383.317-.5.35 0 .033-.066.15-.2.35-.133.2-.291.35-.475.45-.05.033-.225.142-.525.325-.3.183-.525.392-.675.625 0-.083-.025-.125-.075-.125-.066 0-.166.058-.3.175-.116.1-.208.167-.275.2-.35.217-.641.358-.875.425-.233.067-.591.142-1.075.225-.116.1-.416.15-.9.15l-.925-.125-.525 1.5c-.233.733-.5 1.5-.8 2.3-.066.167-.183.483-.35.95-.166.45-.325.933-.475 1.45-.05.283-.141.525-.275.725-.116.217-.25.367-.4.45-.133.083-.241.092-.325.025Zm4.05-9.325c.75-.067 1.325-.2 1.725-.4.417-.2.892-.558 1.425-1.075l.775-.775c.467-.45.859-.892 1.175-1.325.45-.667.675-1.35.675-2.05 0-.333-.058-.617-.175-.85-.3-.433-.708-.65-1.225-.65-.45 0-.933.15-1.45.45-.166.067-.508.617-1.025 1.65a38.445 38.445 0 0 0-1.375 3.15c-.4 1.067-.575 1.692-.525 1.875Zm11.69 7.875c-.767-.267-1.384-.767-1.85-1.5-.45-.733-.675-1.6-.675-2.6 0-.4.033-.767.1-1.1.033-.433.133-.942.3-1.525.1-.3.175-.608.225-.925 0-.033.016-.092.05-.175.033-.083.041-.15.025-.2.1-.25.241-.6.425-1.05.2-.45.325-.7.375-.75.066-.033.1-.075.1-.125a.44.44 0 0 0 .025-.1c0-.217.225-.683.675-1.4.466-.717.966-1.417 1.5-2.1.533-.683.85-1.025.95-1.025.033 0 .075-.033.125-.1.05-.083.083-.125.1-.125.116-.133.583-.375 1.4-.725.816-.367 1.466-.608 1.95-.725a3.072 3.072 0 0 1 1.025-.175c.85 0 1.541.4 2.075 1.2.533.783.808 1.875.825 3.275-.05.25-.092.617-.125 1.1-.034.383-.059.6-.075.65-.017.5-.125 1.125-.325 1.875-.184.733-.309 1.108-.375 1.125 0 .05-.017.108-.05.175a.395.395 0 0 0-.05.175c.016.15-.2.675-.65 1.575-.45.883-.709 1.333-.775 1.35a.183.183 0 0 0-.075.025c-.017.017-.017.05 0 .1.016.05-.117.2-.4.45-.267.25-.459.375-.575.375-.017 0-.034.008-.05.025 0 .017.016.05.05.1.033.05-.209.267-.725.65-.5.383-1.042.758-1.625 1.125-.584.35-1.025.558-1.325.625a.438.438 0 0 1-.225.125.734.734 0 0 1-.125.025c-.117.117-.334.217-.65.3-.3.083-.6.125-.9.125-.25 0-.475-.042-.675-.125Zm2.525-2.625c.5-.167 1-.433 1.5-.8.5-.383.8-.733.9-1.05.083-.3.2-.508.35-.625.283-.283.658-.933 1.125-1.95.483-1.033.733-1.733.75-2.1 0-.1.025-.258.075-.475.05-.233.108-.4.175-.5.033-.05.041-.158.025-.325a8.995 8.995 0 0 1-.025-.775c0-.433.008-.808.025-1.125-.05-1.083-.217-1.708-.5-1.875-.134-.1-.359-.15-.675-.15-.084 0-.192.017-.325.05-.084.017-.2.058-.35.125-.15.05-.267.075-.35.075-.234.133-.35.283-.35.45 0 .15-.067.275-.2.375-.117.1-.242.108-.375.025-.3.017-.492.058-.575.125-.084.067-.192.225-.325.475a9.368 9.368 0 0 1-.325.6c-.417.317-.734.65-.95 1-.217.35-.35.642-.4.875-.517.9-.842 1.533-.975 1.9-.117.35-.217.833-.3 1.45-.134.25-.242.542-.325.875-.067.333-.125.55-.175.65-.034.133-.05.308-.05.525 0 .367.025.75.075 1.15.05.383.116.642.2.775.133.45.425.675.875.675.366 0 .858-.142 1.475-.425Zm11.163 4.05a5.959 5.959 0 0 1-1.5-.8 3.086 3.086 0 0 1-1.025-1.325c-.266-.75-.4-1.633-.4-2.65 0-.983.059-1.817.175-2.5a10.5 10.5 0 0 1 .6-2.125l.225-.525c.267-.683.459-1.133.575-1.35.284-.65.784-1.492 1.5-2.525.667-1 1.192-1.742 1.575-2.225.4-.5.809-.925 1.225-1.275.417-.367 1.025-.825 1.825-1.375.484-.35 1.075-.525 1.775-.525.55 0 1.05.133 1.5.4.467.267.817.683 1.05 1.25.167.283.25.675.25 1.175 0 .8-.191 1.667-.575 2.6-.383.933-.841 1.642-1.375 2.125-.116.117-.275.175-.475.175-.2 0-.416-.058-.65-.175a2.776 2.776 0 0 1-.625-.425 6.15 6.15 0 0 1-.25-.5c-.016-.05.017-.083.1-.1.15-.183.367-.533.65-1.05.3-.533.5-.95.6-1.25l.15-.7c.1-.433.15-.717.15-.85a.55.55 0 0 0-.175-.4.27.27 0 0 0-.2-.075c-.133 0-.366.083-.7.25-.383.167-.841.508-1.375 1.025-.516.5-1.033 1.1-1.55 1.8-.766 1-1.358 1.825-1.775 2.475-.4.65-.708 1.308-.925 1.975l-.275.65c.017.067-.008.233-.075.5a3.152 3.152 0 0 1-.225.65c-.233.967-.35 1.842-.35 2.625 0 .617.059 1.15.175 1.6.134.45.317.783.55 1 .134.117.325.175.575.175.267 0 .567-.058.9-.175a24.8 24.8 0 0 0 1.1-.45c.384-.167.65-.283.8-.35.384-.15.742-.325 1.075-.525.35-.2.609-.383.775-.55.434-.317.784-.475 1.05-.475.217-.067.384 0 .5.2.134.2.2.475.2.825 0 .233-.158.517-.475.85-.316.317-.691.6-1.125.85-.183.183-.591.4-1.225.65a9.462 9.462 0 0 1-1.875 1.025c-.7.3-1.341.45-1.925.45-.133 0-.3-.017-.5-.05Zm18.256-18.975c.566 0 1.091.15 1.575.45.5.283.891.692 1.175 1.225.3.517.45 1.108.45 1.775 0 .933-.059 2.158-.175 3.675a75.692 75.692 0 0 1-.45 4.275c-.2 1.4-.375 3.2-.525 5.4-.1 1.167-.184 1.967-.25 2.4-.05.45-.15.708-.3.775l.025.05c0 .067-.059.125-.175.175a1.08 1.08 0 0 1-.425.075c-.3 0-.6-.058-.9-.175-.3-.117-.45-.367-.45-.75 0-.217.041-.742.125-1.575.183-1.567.291-2.85.325-3.85l.15-1.1h-.625c-.284.083-.692.125-1.225.125l-1.575-.025c-.45 0-.759.017-.925.05a.474.474 0 0 0-.35.2c-.084.1-.184.308-.3.625-.084.267-.259.675-.525 1.225-.584 1.417-1.1 2.425-1.55 3.025-.45.6-.892.9-1.325.9-.117 0-.309-.05-.575-.15-.25-.1-.375-.233-.375-.4 0-.233.175-.717.525-1.45.366-.733.641-1.225.825-1.475.016 0 .016-.008 0-.025a.341.341 0 0 1-.025-.15c0-.367.216-.975.65-1.825.066-.2.133-.392.2-.575.083-.2.125-.325.125-.375l.475-.925c0-.1.058-.308.175-.625.133-.333.291-.692.475-1.075 0-.25.05-.492.15-.725.1-.25.233-.517.4-.8.183-.333.275-.55.275-.65 0-.033.016-.108.05-.225.05-.117.141-.308.275-.575-.034 0-.05-.008-.05-.025s.066-.108.2-.275c0-.15.058-.317.175-.5.133-.2.35-.75.65-1.65l.5-1.075c.133-.217.308-.625.525-1.225l.2-.525.2-.55c.05-.067.125-.192.225-.375s.258-.333.475-.45c.216-.117.508-.183.875-.2.2-.05.408-.075.625-.075Zm.525 9.55c0-.183.058-.858.175-2.025.233-2.4.358-3.875.375-4.425 0-.25-.009-.392-.025-.425 0-.15-.134-.292-.4-.425-.267-.133-.459-.2-.575-.2-.15 0-.275.083-.375.25-.1.167-.2.375-.3.625-.1.233-.167.4-.2.5l-.225.575c-.284.7-.617 1.558-1 2.575-.384 1-.6 1.6-.65 1.8-.1.1-.275.417-.525.95-.234.517-.35.842-.35.975 0 .417.208.625.625.625.066 0 .2-.008.4-.025.216-.033.45-.092.7-.175h.35c.266 0 .533-.042.8-.125.433-.067.716-.117.85-.15.15-.033.241-.108.275-.225.05-.117.075-.342.075-.675Zm7.829 3.75a.747.747 0 0 1-.225.025.948.948 0 0 1-.775-.375c-.183-.267-.275-.667-.275-1.2 0-.417.075-.933.225-1.55.234-.467.35-.817.35-1.05a10.7 10.7 0 0 1 .4-1.075c.184-.45.334-.792.45-1.025.067 0 .134-.058.2-.175a.595.595 0 0 0 .125-.35c0-.15.025-.3.075-.45.067-.167.134-.283.2-.35 0-.05.034-.133.1-.25.067-.133.1-.225.1-.275 0-.033.017-.083.05-.15a.426.426 0 0 0 .075-.2c.3-.5.734-1.442 1.3-2.825.567-1.383.859-2.183.875-2.4.067-.383.217-.55.45-.5.084-.067.284-.1.6-.1.05.017.142.058.275.125.134.067.25.158.35.275a.674.674 0 0 1 .2.425c.034.167.05.383.05.65-.016.25-.091.525-.225.825-.133.283-.291.583-.475.9a15.77 15.77 0 0 0-.375.675l-.325.6c-.266.467-.4.742-.4.825 0 .067-.041.192-.125.375-.083.167-.15.308-.2.425a5.876 5.876 0 0 0-.425.9c-.133.383-.2.617-.2.7a3.668 3.668 0 0 0-.075.175.431.431 0 0 1-.125.225c-.05 0-.083.042-.1.125a.734.734 0 0 0-.025.15c0 .083-.041.25-.125.5-.083.25-.2.525-.35.825-.566 1.617-.875 2.767-.925 3.45-.033.35-.116.6-.25.75a1.41 1.41 0 0 1-.45.375Zm-1.325 3.875c-.316.133-.583.2-.8.2-.25 0-.533-.117-.85-.35-.25-.25-.375-.5-.375-.75 0-.417.309-.833.925-1.25.367-.233.634-.35.8-.35.117 0 .334.067.65.2.5.317.75.658.75 1.025 0 .467-.366.892-1.1 1.275Z" fill="#1EA6F9"/><path d="M3.49 130.049c-5.213 46.624 68.012 68.138 110.659 72.339 59.645 6.669 76.795 3.483 91.737 2.602l38.007 20.411-4.209-26.839c20.438-4.519 110-11.091 108.049-63.621-2.12-57.055-125.51-68.47-168.61-69.888C136.024 63.638 10.401 68.245 3.49 130.05Z" stroke="#6ABDEC" stroke-width="3" stroke-linecap="round" stroke-dasharray="6 12"/></g><defs><clipPath id="a"><path fill="#fff" d="M0 0h378v716H0z"/></clipPath></defs></svg>