<svg width="366" height="338" fill="none" xmlns="http://www.w3.org/2000/svg"><circle cx="189.307" cy="169.118" r="163.42" fill="#F8F8F8"/><circle cx="189.306" cy="169.118" r="123.602" fill="#F2F1F1"/><path opacity=".23" d="M309.069 234.897c2.006-1.641 3.08-6.402 2.244-8.149-10.866-4.559-33.189-12.993-35.56-10.258-2.963 3.419-33.736 28.949-36.699 31.229-2.963 2.279-30.089 9.345-68.611 9.345-30.818 0-59.95-11.245-70.663-16.868-1.216 1.748-3.739 6.064-4.103 9.346-.365 3.283-10.182 6.383-15.045 7.522 1.9.836 6.474 2.006 9.574 0l.114-.073c3.902-2.526 11.077-7.17 13.335-1.978 2.279 5.243 2.735-8.89 8.662-7.294 5.926 1.595 5.47 11.853 9.117 11.853 3.648 0 9.802 2.963 20.288 3.875 10.485.912 43.993 3.647 72.03-3.875 22.43-6.018 17.096-1.824 18.92-4.559 1.823-2.735 10.381-2.796 13.416-2.796 5.243 0 15.793 3.48 17.845 2.796 2.051-.684 4.363-1.123 6.806-1.368 2.279-.228 4.558.802 8.433 0 2.204-.456-.166-.214 2.606-2.216 4.103-2.963 5.518-7.395 2.099-9.447-2.624-1.574 1.954-2.513 4.461-5.248 2.507-2.736 18.224.214 20.731-1.837Z" fill="#070707"/><path d="M87.66 254.839c4.68-.188 10.946-5.41 15.211-8.354 4.265-2.944 47.343 10.128 73.324 9.826 25.98-.302 75.236-8.681 75.236-8.681s17.475 7.084 24.873 6.769c7.398-.315 13.839-6.19 14.317-7.914.478-1.723-8.555-1.811-10.87-3.057-2.315-1.245 6.505-6.379 9.398-9.272 2.894-2.894 8.996-3.422 11.877-2.944 2.881.478 12.581 1.069 14.947-3.158 2.365-4.227-3.485-3.611-4.416-5.322-.931-1.711-.957-10.732-3.171-11.059-2.214-.327-4.536-26.617-8.635-42.8-3.843-15.17-6.563-16.76-7.444-18.974-.88-2.214 10.657-14.016 8.719-33.29-1.937-19.275-12.003-32.976-31.692-36.398-19.69-3.422-37.014 7.964-43.292 18.168-6.278 10.203-2.101 16.192-2.101 16.192s-20.86 1.761-35.014 11.65c-14.154 9.889-19.099 13.839-19.099 13.839s-21.916 4.593-28.094 7.096c-6.177 2.504-9.222 4.316-13.839 3.108-4.617-1.208-24.886-2.894-26.848-.352-1.963 2.541-4.73 23.615-1.133 30.497-3.359 4.403-12.19 17.399-11.839 27.439.353 10.04 5.473 25.163 5.473 25.163l-2.894 8.807a38.347 38.347 0 0 0-4.504 9.637c-1.145 4.642 1.51 3.384 1.51 3.384Z" fill="#F5FCFF"/><path d="M94.668 227.714a47.203 47.203 0 0 1-1.258-20.243c1.321-8.216 8.807-23.011 15.689-32.296 2.365-3.196-.151-15.4 1.824-16.796 2.995-2.139 11.109 3.699 17.086-.164 9.398-6.102 25.628-13.009 57.244-12.204 24.358.617 47.281 9.512 58.503 16.457 2.328 1.446 11.663-3.775 12.896-2.617 3.145 2.868 0 14.43 4.127 20.407 7.549 10.757 14.443 24.546 12.996 34.032-2.239 14.758-5.976 17.438-5.976 17.438s-11.549-11.198-39.807-9.751c-28.258 1.447-60.453 12.883-60.453 12.883s-17.299-10.216-43.179-11.361c-25.88-1.144-29.692 4.215-29.692 4.215Z" fill="#B5E3FF"/><path d="M258.514 234.948c.1-5.108-5.737-8.454-14.544-8.303-8.807.151-14.783 3.648-14.934 7.159-.151 3.51 6.718 8.177 15.387 8.278 8.668.101 14.015-2.478 14.091-7.134Zm-158.676-2.516c-.113 5.385 6.165 8.921 15.639 8.807 9.474-.113 15.903-3.85 16.054-7.548.151-3.699-7.222-8.669-16.52-8.77-9.297-.1-15.097 2.605-15.173 7.511Z" fill="#FFDCD9"/><path d="M178.882 139.377s23.564-22.298 55.189-19.622c31.624 2.675 63.081 26.414 71.414 77.237.558 20.403-8.865 25.577-8.865 25.577s-5.496-.736-11.968 5.782a23.252 23.252 0 0 0-6.548 14.658l-8.156-6.34s9.106-7.215 10.474-24.372c1.368-17.156-7.789-26.349-7.789-26.349s-2.4-25.764-5.756-29.708c-3.356-3.943-2.565-15.295-10.139-12.607-7.573 2.688-17.971 10.614-17.971 10.614s-24.126-11.413-33.245-11.197c-9.119.215-26.64-3.673-26.64-3.673Z" fill="#B5E3FF"/><path d="M101.713 184.233s-1.258-24.735 4.341-30.006c4.315-4.064 32.12.931 32.12.931a58.58 58.58 0 0 0-8.191 4.693c-3.535 2.516-6.127 4.114-6.127 4.114s-8.932-2.366-9.763-1.485c-.83.881 0 9.235 0 9.235s-5.926 5.9-6.982 7.7a38.41 38.41 0 0 1-5.121 5.46l-.277-.642Zm131.865-24.382s19.828-14.469 25.213-9.348c5.384 5.12 10.278 18.796 10.681 43.606-6.668-6.101-12.871-16.456-12.871-16.456s-.214-13.412-1.66-13.575c-1.447-.164-8.442 4.579-8.442 4.579s-3.448-4.504-5.939-5.699c-2.491-1.195-6.982-3.107-6.982-3.107Zm71.394 47.592s5.318 7.97 6.496 11.485c1.179 3.514-.533 4.594 2.876 4.594 3.41 0 4.504.774 3.873 2.767-.632 1.992-4.209 5.936-6.538 6.005-2.329.069-17.931.291-17.931.291s-1.796-12.952 1.403-17.02 9.821-8.122 9.821-8.122Zm-35.5 29.229s8.291 6.844 11.411 7.234c3.12.39 10.191.881 10.191.881l-4.341 5.737s-6.743 2.768-10.92 2.617c-4.177-.151-18.042-2.705-19.212-4.479a8.077 8.077 0 0 1-1.346-3.108l14.217-8.882Zm-172.703-2.491s-.164 9.725-2.101 12.33a78.567 78.567 0 0 0-4.718 7.913l7.033-1.761 6.466-7.109 2.202-5.271-6.29-5.033-2.592-1.069Zm192.695-88.975s7.071-7.385 6.291-22.483c-.78-15.097-10.305-37.316-32.661-37.429-22.357-.113-30.573 12.002-32.246 15.903a26.945 26.945 0 0 0-1.611 13.034s26.685 5.46 35.341 9.763c9.348 4.668 24.886 21.212 24.886 21.212Z" fill="#1EA6F9"/><path d="M137.041 251.531c2.076 1.421 28.27 3.913 34.775 4.932 6.504 1.019 30.937-.365 30.937-.365s.629-10.845-2.516-18.281c-3.146-7.435-4.479-8.807-4.479-8.807" fill="#F5FCFF"/><path d="M115.012 222.77c2.881-1.912 16.985-2.076 20.558.176a80.49 80.49 0 0 0 9.75 4.768s-7.423 7.549-8.316 16.595c-.893 9.046 2.806 8.882 2.806 8.882l62.906 2.844s-.654-14.708-2.516-18.281c-1.862-3.573-6.027-10.065-6.027-10.065s16.218-2.378 21.842-3.095a26.75 26.75 0 0 1 11.499 1.611s8.807 21.79 9.662 26.42c.856 4.63 5.611 2.013 5.611 2.013l6.606 3.07-.504 4.517 11.55 5.208s-7.549 8.443-15.362 8.153c-7.813-.289-69.738-3.648-75.299-3.774-5.561-.126-30.522 1.698-35.353 1.698-4.831 0-13.764-1.258-15.978-.868-2.215.39-13.261 4.416-17.752 4.29-4.492-.125-12.67-2.063-13.035-3.22-.364-1.158-1.056-8.266 0-9.537 1.057-1.271 15.664-2.516 15.664-2.516s-3.774-3.309-2.328-5.612a16.495 16.495 0 0 1 4.253-4.214s4.907-20.281 6.63-22.81a37.438 37.438 0 0 0 3.133-6.253Z" fill="#3A85DD" stroke="#284697" stroke-width="1.258" stroke-miterlimit="10"/><path d="M247.883 265.861c-3.774-1.397 10.619 1.711 7.373 3.057-3.246 1.346-14.167 4.278-18.256 3.246-4.089-1.032 9.776-1.082 11.122-2.617s1.258-3.133-.239-3.686Zm-31.416-29.189a2.1 2.1 0 0 0 2.516-.277c.529-.478.843-2.013 0-2.214-.843-.201-2.164-.717-2.805 0a2.061 2.061 0 0 0 .289 2.491Zm7.926-5.674c-.163-.402.328-1.497.806-1.258.478.239 1.119.138.641.755-.478.616-.679 1.069-1.082.956-.402-.113-.365-.453-.365-.453Zm-119.257 37.92c-1.007.176-1.724-.642-1.258-1.258.465-.617.163-.957 1.258-.755 1.094.201 2.05.465 1.447.968-.604.504-.516.881-1.447 1.045Zm-12.922-1.875c-2.97 3.548-1.258 6.555.83 6.782 2.089.226 7.348.528 8.518.515 1.17-.012-5.548-1.258-6.416-2.516-.869-1.258-1.8-2.327.075-4.881.629-.843-2.516-2.793-4.605-1.812-2.088.981 1.598 1.912 1.598 1.912Z" fill="#fff"/><path d="M105.248 241.893s-3.459 8.945-9.36 11.323c-5.9 2.378-8.63 4.139-10.883 2.881-2.252-1.258-.15-2.818 3.7-9.524 3.849-6.706 4.189-18.796 4.189-18.796m145.201 23.754c19.941-4.907 35.768-14.381 41.153-31.957 3.774-12.392.868-25.452-7.222-37.328M136.174 251.82a185.982 185.982 0 0 0 34.762 4.277c10.304.353 20.558.453 31.239 0" stroke="#070707" stroke-width="3.066" stroke-miterlimit="10" stroke-linecap="round"/><path d="M99.914 180.408c-8.165 11.739-12.28 23.49-12.242 31.29 0 10.619 6.43 20.935 19.451 28.937" stroke="#070707" stroke-width="3.066" stroke-miterlimit="10" stroke-linecap="round"/><path d="M226.91 226.267s10.682 19.728 10.354 27.755c4.907.968 9.801.239 11.726 2.893 1.925 2.655-.478 6.102-.478 6.102s12.581 2.164 12.204 5.297c-.377 3.133-12.204 7.146-21.275 7.071-9.071-.076-64.164-3.611-75.161-3.775-10.996-.163-31.453 3.359-39.756 1.258-8.304-2.101-17.614 4.366-26.32 4.026-14.67-.566-10.267-5.787-10.543-8.026-.58-4.467-1.372-1.51-1.523-4.341-.15-2.831 17.979-2.894 17.979-2.894s-4.014-1.434-3.208-5.296a4.136 4.136 0 0 1 4.34-3.536" stroke="#284697" stroke-width="2.453" stroke-linecap="round" stroke-linejoin="round"/><path d="M195.771 229.677s6.832 9.599 6.97 17.991c.138 8.392-.805 11.902-.805 11.902m8.58-22.898a17.963 17.963 0 0 1 2.667 9.839 29.09 29.09 0 0 1-1.258 7.913m5.121-28.195a21.728 21.728 0 0 1 5.372 6.228 11.775 11.775 0 0 1 1.522 5.297m-80.394-9.335a35.809 35.809 0 0 0-6.505 14.443 57.432 57.432 0 0 0-.792 13.236m-30.195-3.435a95.624 95.624 0 0 1 2.516-15.991c1.925-6.819 7.071-13.726 7.071-13.726m14.984 1.673-1.284 2.013m-6.352 1.447s-2.239 3.133-4.013 6.027c-1.774 2.893-3.284 6.177-3.284 6.177" stroke="#284697" stroke-width="2.453" stroke-linecap="round" stroke-linejoin="round"/><path d="M119.944 244.385a7.429 7.429 0 0 0-.604 2.654" stroke="#284697" stroke-width="3.561" stroke-linecap="round" stroke-linejoin="round"/><path d="M109.047 264.263s2.731-9.235 9.474-9.398c6.744-.164 9.436 9.398 9.436 9.398h-18.91Z" fill="#69B6E6" stroke="#284697" stroke-width="2.453" stroke-linecap="round" stroke-linejoin="round"/><path d="M160.304 261.646s2.969 1.849 14.443 2.516c4.492.277 14.141-1.082 14.141-1.082" stroke="#284697" stroke-width="2.453" stroke-linecap="round" stroke-linejoin="round"/><path d="M238.371 154.189a137.524 137.524 0 0 0-55.509-14.041 94.903 94.903 0 0 0-50.816 11.324" stroke="#070707" stroke-width="3.066" stroke-miterlimit="10" stroke-linecap="round"/><path d="M193.154 231.237a2.241 2.241 0 0 1-2.136-2.861c.128-.444.391-.838.752-1.127 12.418-9.763 31.818-12.808 32.636-12.934a2.227 2.227 0 1 1 .667 4.404 92.979 92.979 0 0 0-13.764 3.522 79.483 79.483 0 0 1 16.054-.415 2.24 2.24 0 0 1 1.912 1.58 2.23 2.23 0 0 1-1.498 2.779 2.23 2.23 0 0 1-.867.082 79.259 79.259 0 0 0-32.938 4.807 2.07 2.07 0 0 1-.818.163Zm-46.627-1.56a2.271 2.271 0 0 1-1.094-.277c-12.582-7.02-28.686-5.221-28.837-5.196a2.226 2.226 0 0 1-1.643-.462 2.224 2.224 0 0 1-.768-2.356 2.222 2.222 0 0 1 1.056-1.341c.255-.143.536-.235.827-.27 3.09-.3 6.199-.355 9.297-.163a121.482 121.482 0 0 0-3.069-.944 2.236 2.236 0 0 1-1.588-1.901 2.227 2.227 0 0 1 1.149-2.195c.257-.14.539-.228.83-.26.291-.031.586-.004.867.078 2.063.592 20.256 5.989 24.747 11.676a2.25 2.25 0 0 1 0 2.831 2.225 2.225 0 0 1-1.774.78Zm45.394 20.13c-.188-.592-1.258-3.599-3.95-4.278a7.218 7.218 0 0 0-4.731 1.019l-.754.34-.453-.591c-.982-1.259-2.328-3.058-4.416-3.133-1.661-.101-3.372 1.019-5.033 2.076-.618.431-1.261.826-1.925 1.182-.239-.125-.868-.604-.868-.604v-5.334s6.165-2.655 6.366-6.291c.201-3.636-3.573-5.171-8.354-5.171-4.781 0-8.354 2.517-8.354 5.335s6.555 6.19 6.555 6.19v2.642a4.429 4.429 0 0 0-1.887-.453c-1.887 0-3.775 1.359-5.335 2.516l-.742.541a7.085 7.085 0 0 0-3.133-1.824c-2.83-.717-5.837 1.887-6.693 2.705a2.182 2.182 0 0 0-.05 3.082 2.166 2.166 0 0 0 1.531.664 2.174 2.174 0 0 0 1.551-.613 6.627 6.627 0 0 1 2.693-1.661c.523.173.992.481 1.358.893a4.113 4.113 0 0 0 2.517 1.346c1.258.089 2.176-.654 3.548-1.66a12.196 12.196 0 0 1 2.742-1.724 9.517 9.517 0 0 1 2.24 1.548l.176.151a6.911 6.911 0 0 0 4.101 2.088 8.675 8.675 0 0 0 4.341-1.9 13.533 13.533 0 0 1 2.403-1.371c.472.429.894.911 1.258 1.434a4.886 4.886 0 0 0 3.196 2.428 6.296 6.296 0 0 0 3.246-.905 9.39 9.39 0 0 1 1.837-.73c.452.385.784.891.956 1.459a2.126 2.126 0 0 0 2.038 1.472 2.1 2.1 0 0 0 .667-.1 2.148 2.148 0 0 0 1.268-1.095 2.131 2.131 0 0 0 .09-1.673Z" fill="#070707"/><path d="M164.355 234.508c-.567-.792 2.239-1.522 3.849-1.447 1.611.076 3.611.642 3.611 1.447s-2 .566-2.327 1.044a2.299 2.299 0 0 1-1.648 1.12c-.68 0-.604-1.258-1.259-1.258a3.282 3.282 0 0 1-2.226-.906Z" fill="#4B4B4B"/><path d="M233.578 159.222s12.946-15.098 23.023-15.588c10.078-.491 18.256 31.289 13.16 52.967" stroke="#070707" stroke-width="3.066" stroke-miterlimit="10" stroke-linecap="round"/><path d="M246.259 168.972s5.788-6.177 8.518-5.032c2.73 1.145.805 15.097.805 15.097m-154.673 6.605s-7.713-29.226 0-35.655c7.712-6.429 37.265 4.013 37.265 4.013" stroke="#070707" stroke-width="3.066" stroke-miterlimit="10" stroke-linecap="round"/><path d="M114.257 173.614s-3.208-9.222-.956-10.744c2.252-1.522 10.518 1.812 10.518 1.812m47.997-25.905s38.147-37.253 81.112-19.966c41.996 16.909 48.098 39.241 52.917 89.327 5.145 4.818 4.818 14.783 4.818 14.783s7.071-1.611 7.713 0c.641 1.61-3.536 7.385-6.102 8.354-2.567.969-20.231 0-20.231 0" stroke="#070707" stroke-width="3.066" stroke-miterlimit="10" stroke-linecap="round"/><path d="M295.893 221.977s-2.253 7.058-7.071 11.084c-4.819 4.026-10.279 8.807-10.279 8.807" stroke="#070707" stroke-width="3.066" stroke-miterlimit="10" stroke-linecap="round"/><path d="M269.346 235.879s9.323 8.946 14.104 8.43c4.781-.516 7.184-.529 7.624.478.441 1.006-2.654 7.989-15.173 8.392-12.518.402-22.973-6.555-22.973-6.555M222.972 114.03s-.956-20.86 15.588-29.541c16.545-8.681 38.461-7.046 52.59 8.052 14.129 15.097 13.135 30.195 10.568 39.19-2.566 8.996-9.373 18.193-9.373 18.193" stroke="#070707" stroke-width="3.066" stroke-miterlimit="10" stroke-linecap="round"/><path d="M263.093 100.24s8.329 4.165 8.203 11.236a17.788 17.788 0 0 1-4.051 11.26" stroke="#070707" stroke-width="3.066" stroke-miterlimit="10" stroke-linecap="round"/><path d="M184.271 221.021c5.712 3.875 16.695 1.144 22.319-6.731 5.624-7.876 4.819-18.331 0-21.061-4.819-2.731-14.506-.164-20.746 7.712-6.241 7.876-6.065 17.022-1.573 20.08Zm-49.468-28.849c6.793-5.762 16.745 2.352 20.721 7.964 3.573 5.032 5.938 16.066 0 20.13s-14.783 1.157-19.765-5.926c-4.982-7.083-5.775-18.079-.956-22.168Z" fill="#1EA6F9"/><path d="M19.092 63.554c-3.419 29.624 43.077 43.464 70.174 46.23 37.898 4.374 48.806 2.387 58.306 1.861l24.446 14.269-2.949-18.279c13.001-2.826 69.944-6.802 68.822-40.196-1.218-36.27-79.623-43.805-107.015-44.802-27.392-.998-107.252 1.648-111.784 40.917Z" fill="#fff" stroke="#6ABDEC" stroke-width="1.739" stroke-linecap="round" stroke-dasharray="3.48 6.95"/><path d="m51.48 56.99-.377-.128a1.778 1.778 0 0 0-.395-.08.573.573 0 0 1-.315-.208.635.635 0 0 1-.11-.37c0-.074.005-.133.015-.175.032-.033.058-.118.08-.257a1.49 1.49 0 0 0 .047-.353 1.5 1.5 0 0 0 .078-.192c.021-.075.048-.177.08-.305.083-.47.278-1.262.583-2.374.304-1.112.494-1.705.567-1.78v-.176c0-.032.01-.097.032-.193a.877.877 0 0 1 .142-.305c.042-.128.073-.25.094-.368a4.14 4.14 0 0 0 .063-.29c.042-.053.11-.213.205-.48.105-.268.174-.444.205-.53.074-.203.163-.438.268-.705.116-.278.195-.46.237-.545v-.08c.02-.022.073-.129.157-.321l.237-.514c.074-.17.268-.614.583-1.33.021-.044.08-.166.174-.37.094-.203.142-.331.142-.385.105-.117.22-.176.346-.176.158 0 .305.075.442.224.147.14.263.29.347.45l.157.256-.583 1.155c-.158.289-.3.561-.426.818-.126.246-.189.39-.189.433-.031.075-.09.23-.173.465l-.252.802a12.9 12.9 0 0 1-.363.914c-.084.171-.126.273-.126.305 0-.043.583-.064 1.75-.064.178 0 .504-.006.977-.016.473-.011.773-.027.899-.048l.82-.08.441-1.428c.105-.374.337-1.101.694-2.181.147-.45.315-.78.505-.995.189-.224.357-.336.504-.336.042 0 .147.064.316.192.178.118.283.22.315.305.115.117.173.24.173.369 0 .15-.084.358-.252.625-.126.225-.305.647-.536 1.267a6.98 6.98 0 0 1-.173.497c0 .225-.053.39-.158.497-.042.043-.116.198-.22.466-.106.256-.159.406-.159.449 0 .085-.015.181-.047.288a.537.537 0 0 1-.11.209l-.11.385c-.369 1.358-.658 2.299-.868 2.822a1 1 0 0 1-.079.29 1.006 1.006 0 0 0-.078.288 13.7 13.7 0 0 1-.142.449c-.074.224-.11.358-.11.4a21.61 21.61 0 0 0-.221 1.172c-.074.449-.121.764-.142.946a.957.957 0 0 1-.442-.032 1.417 1.417 0 0 1-.33-.177 3.968 3.968 0 0 0-.222-.128c-.252-.139-.378-.331-.378-.577 0-.14.047-.305.142-.498.031-.053.131-.4.3-1.042l.141-.593c.084-.236.158-.46.221-.674.063-.224.121-.417.174-.577.168-.62.273-.952.315-.995v-.16c-.032-.053-.342-.08-.93-.08-.642 0-1.309.042-2.003.128h-1.356c-.052.118-.205.588-.457 1.411-.252.813-.394 1.332-.426 1.556-.073.353-.189.84-.346 1.46-.158.63-.279 1.09-.363 1.379Zm17.001-12.477c.19.054.347.166.473.337a.881.881 0 0 1 .142.834c-.021.107-.09.283-.205.53l-.599 1.41c-.347.845-.557 1.326-.63 1.444a14.25 14.25 0 0 1-.694 1.3 38.2 38.2 0 0 1-1.12 1.86c-.094.15-.294.432-.599.85-.294.406-.5.678-.615.817a5.681 5.681 0 0 1-.567.722c-.19.214-.463.503-.82.866l-.379.401a3.427 3.427 0 0 1-.441.465c-.126.171-.284.257-.473.257a.634.634 0 0 1-.347-.112c-.284-.182-.426-.38-.426-.594a.67.67 0 0 1 .047-.224c.032-.075.221-.294.568-.658a16.8 16.8 0 0 1 .867-.882c.42-.492.684-.807.789-.946a6.56 6.56 0 0 1-.647-1.09c-.189-.418-.31-.75-.362-.995l-.268-1.411a1.013 1.013 0 0 0 0-.353l-.032-.193-.047-2.839.11-1.41v-.241c0-.14.037-.268.11-.385.074-.118.195-.177.363-.177.21-.032.426.059.646.273.221.203.332.412.332.625a.467.467 0 0 1-.048.209.432.432 0 0 0-.047.192v.193c0 .107-.005.192-.016.256-.02.214-.042.514-.063.898-.01.385-.016.781-.016 1.187 0 .321.006.53.016.626l.142 1.395c.01.225.079.572.205 1.043.137.46.268.855.394 1.186l.205-.272a1.84 1.84 0 0 0 .316-.465 5.08 5.08 0 0 1 .362-.658c.126-.192.21-.337.252-.433.116-.214.226-.406.332-.577.147-.236.246-.407.299-.514l1.025-1.972c.073-.246.152-.481.236-.706.095-.278.184-.572.268-.882.095-.31.158-.583.19-.818.063-.246.204-.369.425-.369h.142a.657.657 0 0 1 .205 0Zm9.794 11.852a.736.736 0 0 1-.174.016c-.294 0-.557-.117-.788-.352a1.132 1.132 0 0 1-.347-.818l.016-.145a.603.603 0 0 0 .205-.272c.21-.492.51-1.316.898-2.47.284-.888.505-1.513.663-1.877a4.686 4.686 0 0 0-.221.289 2.109 2.109 0 0 1-.252.273.509.509 0 0 1-.237.144c-.178.192-.489.433-.93.722-.431.288-.773.433-1.025.433-.641 0-1.193-.24-1.655-.722-.358-.385-.536-.764-.536-1.139 0-.085.005-.155.015-.208.01-.064.016-.16.016-.289a.63.63 0 0 1 .095-.353c.084-.427.252-.989.504-1.684a17.6 17.6 0 0 1 .71-1.716.266.266 0 0 1-.032-.144c0-.054.021-.102.063-.145a.732.732 0 0 1 .142-.112c0-.053.016-.107.047-.16a.712.712 0 0 0 .064-.128l.157-.37c.084-.181.174-.33.268-.448a.811.811 0 0 1 .363-.257c.22.107.4.209.536.305a.914.914 0 0 1 .315.32c.063.097.095.22.095.37 0 .053-.01.122-.032.208a5.417 5.417 0 0 1-.362.882c-.158.3-.258.486-.3.561-.157.31-.331.776-.52 1.396l-.126.4c-.063.29-.179.61-.347.963.01.075.005.208-.016.4l-.016.338c0 .15.016.25.048.304a.876.876 0 0 0 .283.048c.263 0 .547-.085.852-.256.305-.171.573-.358.804-.561.41-.31.914-.904 1.513-1.78.61-.878 1.062-1.615 1.356-2.214.127-.053.247-.187.363-.4l.237-.402a.624.624 0 0 1 .094-.08l.079-.08.142-.129c.284.086.483.171.599.257.126.086.231.257.315.513.021.043.006.118-.047.225a.915.915 0 0 1-.205.304 3.237 3.237 0 0 0-.126.353 2.506 2.506 0 0 1-.126.321l-.19.45c-.189.448-.346.796-.472 1.042a.636.636 0 0 1-.095.16.644.644 0 0 0-.095.16l-.488 1.203a44.54 44.54 0 0 0-.852 2.165 3.9 3.9 0 0 0-.142.514c-.084.342-.173.598-.268.77-.168.31-.347.94-.536 1.892a.991.991 0 0 0-.079.305c0 .064.032.128.095.192a1.052 1.052 0 0 0-.22.305 1.392 1.392 0 0 1-.095.208Zm6.065-.689c-.483-.171-.872-.492-1.166-.963-.284-.47-.426-1.026-.426-1.668 0-.256.021-.491.063-.705a5.08 5.08 0 0 1 .19-.979c.063-.192.11-.39.141-.593 0-.021.01-.059.032-.112.02-.054.026-.096.016-.128.063-.16.152-.385.268-.674.126-.289.205-.45.236-.481.042-.022.063-.048.063-.08a.264.264 0 0 0 .016-.065c0-.139.142-.438.426-.898.294-.46.61-.909.946-1.347.336-.438.536-.657.599-.657.02 0 .047-.022.079-.065.031-.053.052-.08.063-.08.073-.085.368-.24.883-.465.515-.235.925-.39 1.23-.465.21-.075.425-.112.646-.112.536 0 .972.256 1.309.77.336.502.51 1.202.52 2.1-.032.16-.058.396-.08.706a3.648 3.648 0 0 1-.046.417c-.01.32-.08.722-.205 1.203-.116.47-.195.711-.237.722 0 .032-.01.07-.031.112a.262.262 0 0 0-.032.112c.01.096-.126.433-.41 1.01-.284.567-.447.856-.489.867a.12.12 0 0 0-.047.016c-.01.01-.01.032 0 .064s-.074.128-.252.289c-.168.16-.29.24-.363.24-.01 0-.02.005-.031.016 0 .01.01.032.031.064.021.032-.131.171-.457.417-.315.246-.657.487-1.025.722-.368.225-.646.358-.835.401a.273.273 0 0 1-.142.08.463.463 0 0 1-.08.016c-.073.075-.21.14-.41.193-.188.053-.377.08-.567.08-.157 0-.3-.027-.425-.08Zm1.593-1.684a3.44 3.44 0 0 0 .946-.514c.315-.245.504-.47.568-.673.052-.193.126-.326.22-.401.179-.182.415-.599.71-1.251.305-.663.462-1.112.473-1.347 0-.064.016-.166.047-.305a.993.993 0 0 1 .11-.32c.021-.033.027-.102.016-.21a5.92 5.92 0 0 1-.016-.496c0-.278.006-.519.016-.722-.031-.695-.136-1.096-.315-1.203-.084-.064-.226-.096-.426-.096a1.135 1.135 0 0 0-.426.112.744.744 0 0 1-.22.048c-.147.086-.22.182-.22.289a.292.292 0 0 1-.127.24c-.074.065-.153.07-.237.017-.189.01-.31.037-.362.08-.053.042-.121.144-.205.304-.074.15-.142.278-.205.385a2.419 2.419 0 0 0-.6.642c-.136.224-.22.412-.252.561-.325.578-.53.984-.614 1.22a5.402 5.402 0 0 0-.19.93 2.48 2.48 0 0 0-.205.56 2.073 2.073 0 0 1-.11.418 1.46 1.46 0 0 0-.031.336c0 .236.015.482.047.738.031.246.073.412.126.497.084.289.268.433.552.433.231 0 .541-.09.93-.272Zm16.28-7.955c0 .053-.016.09-.048.112-.031.01-.047.021-.047.032 0 .01.021.032.063.064l-.11.53c-.042.224-.131.673-.268 1.347a49.879 49.879 0 0 0-.284 1.636l-.221 1.716a95.57 95.57 0 0 0-.205 1.748c-.031.406-.047.834-.047 1.283 0 .513.016.903.047 1.17.042.279.063.439.063.482 0 .064-.073.16-.22.289a.726.726 0 0 1-.489.192.633.633 0 0 1-.6-.353c-.125-.224-.199-.577-.22-1.058 0-.717.053-1.674.158-2.871.031-.075.047-.22.047-.433a.99.99 0 0 0-.031-.289 1.523 1.523 0 0 1 .047-.449 1.859 1.859 0 0 0 .047-.385c0-.053.021-.166.063-.337.063-.192.095-.342.095-.449v-.112c.031-.096.063-.214.094-.353.042-.15.063-.24.063-.273a.994.994 0 0 1-.015-.224.615.615 0 0 0-.032-.24 8.33 8.33 0 0 0 .221-.835l.189-.77c-.01 0-.126.214-.347.642a9.78 9.78 0 0 1-.772 1.267 9.916 9.916 0 0 1-.71 1.027c-.22.288-.347.454-.378.497-.137.181-.268.353-.394.513-.116.16-.2.31-.253.449-.22.556-.478.962-.772 1.219-.284.257-.573.4-.867.433l-.253.032h-.094c-.2 0-.368-.134-.505-.4-.126-.268-.189-.765-.189-1.492l.016-.433.047-.899c.032-.181.058-.48.079-.898.02-.427.037-.71.047-.85-.052.054-.147.252-.284.594a23.93 23.93 0 0 0-.236.657l-.142.37c-.053.074-.131.277-.237.608-.084.246-.2.546-.346.899-.232.77-.442 1.379-.631 1.828-.084.182-.168.38-.252.593a8.626 8.626 0 0 0-.19.514 7.98 7.98 0 0 1-.283.69c-.452 1.036-.83 1.555-1.135 1.555-.169 0-.337-.091-.505-.273a.813.813 0 0 1-.237-.561c0-.15.058-.347.174-.593.115-.257.284-.589.504-.995l.332-.625c0-.054.126-.417.378-1.09l.22-.594.978-2.63.016-.065.094-.24a4.54 4.54 0 0 1 .174-.385c.147-.342.22-.54.22-.594v-.032c0-.032.011-.053.032-.064a.254.254 0 0 1 .063-.016c.042-.117.116-.3.221-.545.116-.257.205-.45.268-.578l-.016-.064c0-.107.016-.192.048-.256.042-.064.084-.123.126-.177a1.39 1.39 0 0 0 .126-.144c0-.064.031-.15.094-.257a3.23 3.23 0 0 1 .221-.352c.168-.236.279-.412.331-.53a.517.517 0 0 1 .49-.304c.157 0 .314.064.472.192.158.128.29.273.394.433.105.15.158.251.158.305 0 .032-.016.053-.047.064-.032.01-.048.037-.048.08v.064a1.037 1.037 0 0 1-.063.577 5.036 5.036 0 0 0-.142 1.236l.016.465c0 .085-.02.15-.063.192-.031.043-.058.08-.079.112v.032l-.016.129.016.096c0 .096-.026.214-.079.353-.063.246-.094.38-.094.4a9.2 9.2 0 0 0-.063 1.091c0 .556.047.861.142.915l1.135-1.716c.967-1.455 1.456-2.198 1.466-2.23a.592.592 0 0 0 .205-.24c-.01 0-.016-.011-.016-.032 0-.054.137-.284.41-.69.273-.417.568-.791.883-1.123.315-.342.573-.513.773-.513.094 0 .22.064.378.192.168.129.315.29.442.482.126.181.189.352.189.513Zm10.753-1.492c.21.064.41.193.599.385.19.182.284.374.284.578a.477.477 0 0 1-.016.144 19.25 19.25 0 0 1-.346.93c-.158.385-.279.7-.363.946a3.638 3.638 0 0 0-.142.69c-.116.16-.215.347-.3.561-.073.203-.12.332-.141.385a5.615 5.615 0 0 1-.158.433c-.21.481-.526 1.09-.946 1.829-.421.737-.788 1.315-1.104 1.732-.115.192-.336.513-.662.962-.326.45-.541.716-.646.802-.536.396-1.12.866-1.751 1.411a1.426 1.426 0 0 1-.504.273c-.189.064-.3.112-.331.144-.189-.021-.389-.112-.599-.272-.2-.16-.31-.332-.331-.514-.011-.075.047-.197.173-.368.137-.172.252-.284.347-.337.105.01.31-.102.615-.337.315-.235.63-.497.946-.786.315-.289.499-.47.552-.545-.253-.16-.431-.348-.536-.562a4.757 4.757 0 0 1-.253-.882c-.084-.427-.178-.743-.283-.946-.043-.053-.074-.155-.095-.305-.021-.16-.063-.278-.126-.352-.084-.47-.21-1.032-.379-1.684a14.683 14.683 0 0 1-.252-1.444 6.105 6.105 0 0 1-.063-.417l-.047-.208a1.458 1.458 0 0 1-.032-.273c0-.064.005-.112.016-.144-.021-.043-.032-.22-.032-.53l.016-.866c0-.288.147-.433.442-.433.168 0 .341.043.52.129.189.085.331.181.426.288l.252.305c-.084.203-.126.47-.126.802 0 .256.021.534.063.834.042.289.068.481.079.577a.81.81 0 0 1 0 .225c0 .096.005.17.015.224l.111.61c.063.278.184.716.362 1.315.211.663.337 1.117.379 1.363.073.353.137.626.189.818.053.182.11.316.174.401a22.044 22.044 0 0 0 2.018-3.609 34.139 34.139 0 0 0 1.513-4.121l.473-.16Zm12.73 7.025a2.537 2.537 0 0 1-.189.513c-.032.096-.1.289-.205.578a2.825 2.825 0 0 0-.158.625 1.86 1.86 0 0 0-.158.433c-.031.16-.052.262-.063.305-.01.096-.037.214-.079.353h.142c.169-.011.331.016.489.08l.3.096c.241.075.42.22.536.433.115.214.173.481.173.802 0 .331-.068.652-.205.962-.168.396-.299.68-.394.85a.821.821 0 0 1-.095.209l-.189.465c-.157.331-.278.604-.362.818l-.158.176a1.524 1.524 0 0 1-.331.048.504.504 0 0 1-.315-.096 6.533 6.533 0 0 1-.473-.433.504.504 0 0 1-.032-.208c0-.15.068-.364.205-.642.074-.171.11-.283.11-.337 0-.107.142-.427.426-.962a10.6 10.6 0 0 0 .284-.561.674.674 0 0 0 .079-.29 7.107 7.107 0 0 0-.552-.015c-.442 0-.725.01-.852.032-.557.085-1.045.15-1.466.192-.42.054-.783.08-1.088.08a4.87 4.87 0 0 1-.457-.015c-.452 0-.893-.048-1.324-.145-.347-.224-.605-.444-.773-.657a3.749 3.749 0 0 1-.473-.834 1.27 1.27 0 0 1-.095-.465c0-.14.032-.262.095-.37.063-.48.216-1.1.457-1.86.242-.77.442-1.347.599-1.732.116-.288.253-.668.41-1.139.032-.074.095-.245.19-.513.094-.267.204-.513.331-.737.094-.268.257-.647.488-1.14l.158-.336c.084-.192.126-.32.126-.385a.43.43 0 0 1 .158-.353.367.367 0 0 1 .362-.064c.242.054.437.16.584.32a.776.776 0 0 1 .236.562c0 .16-.047.321-.142.481-.168.225-.536 1.091-1.103 2.598-.568 1.508-.962 2.647-1.183 3.417-.115.395-.215.807-.299 1.235a2.197 2.197 0 0 0-.032.24c0 .118.037.23.111.337.021.032.152.07.394.112.252.043.467.064.646.064a.703.703 0 0 0 .189-.016l.726-.048c.599-.043.919-.075.961-.096a.857.857 0 0 1 .284-.032 9.07 9.07 0 0 1 .615-.016l.095-.369c.042-.203.126-.524.252-.962.126-.45.236-.791.331-1.027.21-.599.357-1.037.442-1.315a6.13 6.13 0 0 1 .189-.577c.063-.171.131-.31.205-.417.031-.15.079-.3.142-.45.063-.16.131-.31.205-.448l.205-.465c.084-.193.178-.423.283-.69.473-1.123.789-1.844.946-2.165.169-.332.316-.508.442-.53.157 0 .341.07.552.209.21.128.336.257.378.385.042.107 0 .32-.126.642-.116.31-.342.855-.678 1.635a41.735 41.735 0 0 0-.978 2.23c-.262.63-.431 1.096-.504 1.395Zm4.76 4.587a1.9 1.9 0 0 1-.757-.24 7.086 7.086 0 0 1-.693-.434l-.426-.304a2.08 2.08 0 0 1-.41-.578 3.835 3.835 0 0 1-.237-.834 2.114 2.114 0 0 1-.031-.337c0-.32.053-.71.158-1.17.115-.47.231-.834.346-1.091.232-.567.742-1.475 1.53-2.726l.079-.08c.021-.022.026-.033.015-.033v-.016c0-.075.153-.406.458-.994.178-.193.268-.358.268-.497a.288.288 0 0 0-.048-.177c-.031-.043.011-.133.127-.272.115-.15.273-.31.473-.482.21-.181.431-.336.662-.465.284-.224.562-.336.835-.336.084 0 .153.016.205.048.063.021.1.058.111.112 0 .064.21.043.63-.064.19-.043.326-.07.41-.08.042-.054.147-.097.316-.129.178-.042.425-.085.741-.128.168.01.373.01.615 0a6.28 6.28 0 0 0 .488-.032c.074-.021.179.027.316.144.147.118.262.268.347.45a.512.512 0 0 1 .031.144c0 .16-.1.3-.299.417-.2.107-.489.181-.868.224a24.248 24.248 0 0 0-2.128.385l-.331.064c-.326.054-.568.123-.726.209-.157.085-.325.272-.504.561-.074.054-.168.193-.284.417a21.47 21.47 0 0 0-.347.674l-.315.433c-.242.331-.394.55-.457.657-.053.096-.063.166-.032.209a5.535 5.535 0 0 0 .505.096 1.09 1.09 0 0 1 .394-.112 2.85 2.85 0 0 0 .363-.064l.346-.097c.652-.17 1.13-.294 1.435-.368a7.99 7.99 0 0 1 .678-.145.292.292 0 0 1 .189-.064c.116 0 .226.059.331.176.116.107.2.236.253.385.042.15.063.246.063.289 0 .182-.105.32-.316.417-.21.085-.63.203-1.261.353a83.8 83.8 0 0 0-1.718.433c-.684.203-1.188.305-1.514.305-.273 0-.405-.091-.394-.273-.095-.053-.205.043-.331.289-.126.245-.237.55-.331.914a4.236 4.236 0 0 0-.127.946c0 .139.016.257.048.353.094.256.236.476.425.657.19.172.452.305.789.401a4.307 4.307 0 0 0 .662.048c.21 0 .42-.042.631-.128.819-.139 1.398-.331 1.734-.577a.347.347 0 0 0 .142-.112c.052-.054.1-.08.142-.08l-.016.031c0 .011.032-.01.095-.064a3.5 3.5 0 0 1 .205-.192 1.45 1.45 0 0 1 .977-.385c.126 0 .231.021.315.064.095.032.148.064.158.096.063.107.032.278-.095.513-.126.236-.325.482-.599.738a4.588 4.588 0 0 1-.883.674 6.182 6.182 0 0 1-1.734.61 9.278 9.278 0 0 1-1.829.224Zm14.566.193c-.316.02-.694-.017-1.135-.113a3.173 3.173 0 0 1-1.262-.561c-.389-.278-.636-.674-.741-1.187a6.121 6.121 0 0 1-.11-1.203c0-.887.137-1.834.41-2.839.105-.374.378-.951.82-1.732.452-.78.872-1.417 1.261-1.908.252-.31.646-.69 1.183-1.139.546-.46.909-.727 1.087-.802a1.1 1.1 0 0 1 .505-.112c.126 0 .257.016.394.048.21.021.442.117.694.289.263.17.405.326.426.465 0 .043.021.064.063.064a.956.956 0 0 0 .283-.08.738.738 0 0 1 .316-.193c.147-.053.284-.08.41-.08.136 0 .21.032.22.096a.2.2 0 0 0-.031.112c0 .065.021.113.063.145.053-.021.042.144-.032.497-.073.342-.157.599-.252.77l-.047.16v.048c0 .075-.047.16-.142.257-.063.096-.152.39-.268.882-.116.492-.168.791-.158.898.011.043-.016.075-.079.096a.6.6 0 0 1-.22.032c-.2 0-.384-.032-.552-.096a1.031 1.031 0 0 1-.363-.208c-.073-.075-.11-.182-.11-.321 0-.128.042-.337.126-.625.168-.578.252-.963.252-1.155 0-.214-.063-.37-.189-.465-.031-.065-.095-.113-.189-.145a.792.792 0 0 0-.284-.048.688.688 0 0 0-.315.08c-.242.097-.599.375-1.072.834a9.633 9.633 0 0 0-1.214 1.38 9.1 9.1 0 0 0-1.167 2.197c-.252.727-.379 1.427-.379 2.1 0 .535.079 1.038.237 1.508a1.6 1.6 0 0 0 .189.29c.105.127.189.213.252.256.169.043.384.064.647.064.21 0 .462-.016.757-.048.42-.075.735-.193.946-.353.22-.16.446-.406.678-.738.094-.139.205-.208.331-.208.136 0 .262.075.378.224.116.15.189.326.221.53 0 .096-.095.293-.284.593-.179.288-.315.444-.41.465-.042.01-.068.027-.079.048 0 .01.006.038.016.08 0 .064-.116.155-.347.273a4.703 4.703 0 0 1-.851.353c-.326.117-.62.192-.883.224Zm7.222-.193a1.319 1.319 0 0 1-.331.064.549.549 0 0 1-.457-.225c-.116-.15-.174-.374-.174-.673 0-.428.126-.984.379-1.668l.173-.53c.526-1.56.867-2.459 1.025-2.694.052-.128.079-.262.079-.4 0-.054.026-.134.079-.241l.126-.257c.126-.235.189-.412.189-.53 0-.042.063-.256.189-.64.126-.396.252-.696.378-.899.064-.16.137-.315.221-.465.084-.16.126-.262.126-.305 0-.021-.115-.032-.347-.032-.325 0-.73.016-1.214.048-.473.032-.788.07-.946.113-.22.053-.352.075-.394.064-.052-.022-.131-.123-.236-.305-.105-.192-.158-.363-.158-.513 0-.128.042-.214.126-.257a1.45 1.45 0 0 1 .505-.208c.178-.032.425-.059.741-.08.326-.022.552-.043.678-.065.22 0 .425-.01.615-.032.199-.032.315-.048.347-.048.084 0 .189-.016.315-.048.294-.053.494-.08.599-.08.147 0 .294-.016.441-.048.169-.022.279-.032.332-.032h.977c.137 0 .326-.022.568-.064.241-.043.457-.086.646-.129a3.54 3.54 0 0 1 .773-.096c.273 0 .499.054.678.16a.628.628 0 0 1 .331.433c.094.535-.699.85-2.381.947-.095.01-.279.027-.552.048-.263.021-.436.048-.52.08-.074.032-.111.08-.111.144 0 .064-.031.129-.094.193a.901.901 0 0 0-.11.128c-.085.032-.226.3-.426.802-.2.492-.3.797-.3.914a6.88 6.88 0 0 1-.063.128.382.382 0 0 0-.047.145 7.17 7.17 0 0 1-.347.738 67.727 67.727 0 0 1-.599 1.571l-.174.433a27.56 27.56 0 0 1-.504 1.588.558.558 0 0 1-.126.144.24.24 0 0 0-.063.177c0 .053-.153.481-.458 1.283-.304.802-.473 1.208-.504 1.219Zm12.219.77a.706.706 0 0 1-.236-.065.708.708 0 0 1-.237-.144c-.126-.128-.189-.32-.189-.577 0-.578-.01-.957-.031-1.139l-.016-.962c0-.246.016-.396.047-.45a1.396 1.396 0 0 1-.016-.24c0-.096.006-.208.016-.337a2.33 2.33 0 0 0 .032-.32l-.063-.433h-.852c-.063.01-.199.016-.41.016-.283 0-.961-.033-2.034-.097l-.204.337c-.011.01-.064.08-.158.209-.084.128-.174.32-.268.577-.095.257-.221.55-.379.882a4.75 4.75 0 0 1-.41.77c-.157.3-.304.518-.441.657-.126.14-.221.209-.284.209h-.079a.504.504 0 0 1-.189-.032.63.63 0 0 1-.189-.112c-.284-.129-.426-.321-.426-.578 0-.181.084-.395.253-.641l.205-.337c0-.064.152-.401.457-1.01.315-.62.52-.952.615-.995.094-.096.142-.192.142-.288 0-.107-.063-.214-.19-.321a.272.272 0 0 1-.11-.129.667.667 0 0 1-.032-.208.53.53 0 0 1 .158-.385c.105-.107.268-.155.489-.144a1.59 1.59 0 0 1 .252-.129.091.091 0 0 0 .047-.08c0-.053.085-.246.253-.577a4.89 4.89 0 0 1 .473-.77 4.32 4.32 0 0 1 .268-.625c.084-.129.136-.22.157-.273.053-.053.158-.23.316-.53.021-.031.089-.149.205-.352.105-.107.21-.23.315-.369.116-.15.189-.246.221-.289.042-.075.105-.166.189-.272.053-.129.147-.284.284-.466.136-.192.221-.31.252-.352.158-.193.347-.348.568-.465.22-.129.425-.193.615-.193.105 0 .194.016.268.048.262.118.494.337.693.658.2.32.316.695.347 1.123.011.074.032.24.063.497.042.256.063.48.063.673a.982.982 0 0 1-.047.337v.706c0 .352.011.614.032.786-.032.117-.048.31-.048.577l.016.625c0 .16-.005.294-.016.401l-.016.594-.015.593c-.011.267-.016.604-.016 1.01l.016 1.268c0 .727-.063 1.256-.189 1.587-.116.332-.295.514-.537.546Zm-3.184-5.999a5.612 5.612 0 0 1 1.072-.064c.294-.021.489-.032.583-.032.137 0 .273.005.41.016a.986.986 0 0 0 .252-.016c.2.01.3-.176.3-.561a29.122 29.122 0 0 1-.111-2.438l.016-.497a3.44 3.44 0 0 0-.047-.545 9.975 9.975 0 0 0-.047-.385c-.042-.054-.195.123-.458.529-.252.406-.467.77-.646 1.09a3.265 3.265 0 0 0-.252.45 5.646 5.646 0 0 0-.174.304 3.478 3.478 0 0 1-.205.385c-.515.834-.772 1.369-.772 1.604 0 .075.026.128.079.16Zm15.442-4.891c.011.043.016.117.016.224 0 .428-.226 1.476-.678 3.144l-.173.69-.205.866a7.505 7.505 0 0 1-.268 1.218c-.137.45-.316.99-.536 1.62-.2.567-.347 1.021-.442 1.364a2.577 2.577 0 0 0-.142.336.926.926 0 0 1-.22.37c-.2.18-.389.272-.568.272a.636.636 0 0 1-.221-.048 1.112 1.112 0 0 1-.41-.273.54.54 0 0 1-.126-.369c0-.075.005-.133.016-.176.042-.075.179-.423.41-1.043.231-.62.399-1.09.504-1.411.063-.364.142-.716.237-1.059.094-.342.184-.588.268-.737l.142-.738.157-.818c.085-.385.163-.684.237-.898l.552-2.55c-.999.043-1.514.08-1.545.112-.011.118-.137.465-.379 1.042-.231.578-.41.995-.536 1.252-.126.245-.231.465-.315.657-.084.182-.153.331-.205.45l-.189.448c-.095.3-.337.829-.726 1.588-.389.76-.73 1.374-1.024 1.844a30.666 30.666 0 0 1-1.341 1.797 4.86 4.86 0 0 1-.646.69c-.242.234-.436.384-.583.448a.666.666 0 0 1-.3.08c-.231 0-.441-.096-.631-.288a1 1 0 0 1-.283-.69.669.669 0 0 1 .614-.449c.011 0 .148-.134.41-.4.263-.279.431-.46.505-.546.273-.31.641-.786 1.104-1.427.241-.353.588-.893 1.04-1.62l.284-.401.725-2.021.915-2.053a4.533 4.533 0 0 0-.505.24c-.683.332-1.167.498-1.45.498-.179 0-.31-.06-.394-.177a.907.907 0 0 1-.174-.545c0-.182.047-.347.142-.497a.7.7 0 0 1 .363-.32l1.797-.658a15.226 15.226 0 0 0 1.419-.466c.179-.01.436-.037.773-.08.336-.053.551-.096.646-.128 1.02-.032 1.666.513 1.939 1.636Zm3.362 9.943c-.158 0-.4-.064-.725-.192a4.847 4.847 0 0 1-.899-.481c-.284-.193-.468-.385-.552-.578l-.032-.064a2.255 2.255 0 0 1-.236-1.652c.042-.181.068-.294.079-.336.094-.332.142-.605.142-.818.052-.065.131-.171.236-.321.116-.16.184-.262.205-.305a.401.401 0 0 0 .032-.144v-.24c0-.076.026-.15.079-.225a.873.873 0 0 1 .157-.177.898.898 0 0 1 .126-.096l.063.016c.021 0 .1-.155.237-.465.137-.32.268-.658.394-1.01.526-.984 1.114-1.802 1.766-2.454.652-.663 1.23-1.107 1.734-1.331a1.82 1.82 0 0 1 .237-.032l.331-.033c.2.011.441.06.725.145.284.085.436.15.457.192 0 .043.011.07.032.08a.23.23 0 0 0 .063.016c.095-.01.263.145.504.466.253.31.437.604.552.882.126.203.19.545.19 1.026 0 .406-.058.914-.174 1.524-.116.599-.231 1.026-.347 1.283-.273.77-.62 1.582-1.04 2.438-.421.855-.804 1.293-1.151 1.315-.011 0-.021.01-.032.032-.01.01-.016.032-.016.064s-.142.171-.425.417c-.274.246-.515.449-.726.61l-.299.112a4.457 4.457 0 0 1-.867.224 5.839 5.839 0 0 1-.82.112Zm.016-1.46c.452 0 .777-.01.977-.031.2-.021.41-.091.631-.209.231-.128.478-.347.741-.657.105-.193.189-.321.252-.385l.252-.45c.158-.277.305-.416.442-.416 0-.054.042-.198.126-.433.084-.246.147-.385.189-.417.021-.01.074-.128.158-.353.084-.235.163-.492.236-.77a2.79 2.79 0 0 0 .111-.69c.189-.203.273-.315.252-.336a.247.247 0 0 1-.016-.064v-.16c0-.31.021-.471.063-.482.053-.021.079-.037.079-.048a.173.173 0 0 0-.063-.064c-.021-.022-.032-.043-.032-.064 0-.011.016-.032.048-.065a.177.177 0 0 0 .047-.128c-.021-.267-.168-.732-.441-1.395a.922.922 0 0 1-.127-.112.385.385 0 0 0-.173-.129.358.358 0 0 0-.189-.048c-.042 0-.116.01-.221.032-.042-.043-.084-.064-.126-.064a.34.34 0 0 0-.11.016l-.079.032a1.405 1.405 0 0 0-.521.225 5.69 5.69 0 0 0-.504.513l-.268.289c-.084.288-.258.54-.52.754a1.104 1.104 0 0 0-.19.24 2.268 2.268 0 0 1-.189.24l-.094.193c-.232.385-.479.898-.741 1.54a26.35 26.35 0 0 0-.678 1.796c-.19.567-.284.925-.284 1.075 0 .299.094.54.284.721.199.182.425.284.678.305Zm10.193 1.83c-.315.02-.693-.017-1.135-.113a3.169 3.169 0 0 1-1.261-.561c-.389-.278-.636-.674-.741-1.187a6.046 6.046 0 0 1-.11-1.203c0-.887.136-1.834.409-2.839.106-.374.379-.951.82-1.732.452-.78.873-1.417 1.262-1.908.252-.31.646-.69 1.182-1.139.547-.46.909-.727 1.088-.802.147-.075.315-.112.505-.112.126 0 .257.016.394.048.21.021.441.117.693.289.263.17.405.326.426.465 0 .043.021.064.063.064a.96.96 0 0 0 .284-.08.734.734 0 0 1 .315-.193 1.21 1.21 0 0 1 .41-.08c.137 0 .211.032.221.096a.2.2 0 0 0-.031.112c0 .065.021.113.063.145.052-.021.042.144-.032.497-.074.342-.158.599-.252.77l-.048.16v.048c0 .075-.047.16-.141.257-.064.096-.153.39-.268.882-.116.492-.169.791-.158.898.01.043-.016.075-.079.096a.606.606 0 0 1-.221.032c-.199 0-.383-.032-.552-.096a1.016 1.016 0 0 1-.362-.208c-.074-.075-.111-.182-.111-.321 0-.128.043-.337.127-.625.168-.578.252-.963.252-1.155 0-.214-.063-.37-.189-.465-.032-.065-.095-.113-.19-.145a.786.786 0 0 0-.283-.048.692.692 0 0 0-.316.08c-.241.097-.599.375-1.072.834a9.695 9.695 0 0 0-1.214 1.38 9.1 9.1 0 0 0-1.167 2.197 6.404 6.404 0 0 0-.378 2.1c0 .535.079 1.038.237 1.508a1.6 1.6 0 0 0 .189.29c.105.127.189.213.252.256.168.043.384.064.646.064.211 0 .463-.016.757-.048.421-.075.736-.193.946-.353.221-.16.447-.406.678-.738.095-.139.205-.208.331-.208.137 0 .263.075.379.224.115.15.189.326.22.53 0 .096-.094.293-.283.593-.179.288-.316.444-.41.465-.042.01-.069.027-.079.048 0 .01.005.038.016.08 0 .064-.116.155-.347.273a4.685 4.685 0 0 1-.852.353c-.325.117-.62.192-.883.224Zm13.671-12.174c.242.032.421.097.536.193a.558.558 0 0 1 .221.32c.031.118.063.3.095.546l-.174.433a72.864 72.864 0 0 0-1.135 3.08l-.552 1.908-.189.337-.363 1.7a76.53 76.53 0 0 0-.347 1.571 19.4 19.4 0 0 0-.205 1.09c0 .108-.005.193-.015.258a1.137 1.137 0 0 0-.016.192c-.095.224-.137.369-.126.433 0 .278-.058.46-.174.545-.105.086-.326.129-.662.129a2.304 2.304 0 0 1-.473-.353 1.005 1.005 0 0 1-.236-.401c.01-.182.052-.46.126-.834.042-.257.063-.401.063-.433l.189-1.347c.021-.043.058-.107.11-.193.063-.085.111-.144.142-.176a6.61 6.61 0 0 0 .111-.53l.078-.352c.042-.14.095-.364.158-.674a84.6 84.6 0 0 0 .158-.674l-.142.16c-.126.236-.363.562-.71.98a11.9 11.9 0 0 0-.441.609c-.137.213-.993 1.069-2.57 2.566a14.42 14.42 0 0 1-.646.625c-.179.193-.332.31-.458.353-.115.043-.331.075-.646.096-.379-.31-.568-.599-.568-.866l.063-.224c.021-.086.053-.145.095-.177.042-.043.1-.09.173-.144.137-.086.437-.332.899-.738.473-.417.82-.732 1.041-.946l.82-.834.835-.93a4.658 4.658 0 0 1-.615-.289 1.389 1.389 0 0 1-.41-.32c-.452-.514-.678-1.166-.678-1.957 0-.578.105-1.123.316-1.636.115-.31.226-.54.331-.69a4.77 4.77 0 0 1 .473-.545 2.27 2.27 0 0 0 .315-.32c.305-.343.626-.6.962-.77.347-.172.941-.402 1.782-.69.052 0 .257-.022.614-.064a8.3 8.3 0 0 1 .978-.065c.105.043.194.08.268.113.084.032.152.058.205.08a.975.975 0 0 1 .173-.128.467.467 0 0 1 .221-.017Zm-1.419 3.032c.042-.172.121-.407.237-.706.031-.075.078-.198.142-.369.063-.182.12-.374.173-.577a.622.622 0 0 0-.173-.016c-.19 0-.442.032-.757.096-.684.128-1.335.417-1.955.866-.621.438-1.036.909-1.246 1.411a4.437 4.437 0 0 0-.221.658 2.017 2.017 0 0 0-.047.561c0 .14.011.251.032.337.021.085.057.192.11.32l.126.37a2.028 2.028 0 0 0 .505.032l.378-.129c.463-.139.809-.283 1.041-.433a1.16 1.16 0 0 1 .52-.144.73.73 0 0 1 .331.064l.047-.128.757-2.213ZM49.262 67.496c-.021.556-.084.962-.19 1.219-.105.256-.252.39-.44.4l-.348-.064a1.71 1.71 0 0 1-.52-.224.498.498 0 0 1-.237-.433c0-.075.037-.251.11-.53.116-.47.174-.759.174-.865 0-.332-.142-.546-.425-.642-.326 0-.742.257-1.246.77-.505.513-1.004 1.15-1.498 1.908a13.48 13.48 0 0 0-1.167 2.166c-.515 1.507-.804 2.523-.867 3.047.021.085.032.208.032.369 0 .074-.016.112-.048.112.032.235.127.47.284.706.168.224.363.336.584.336.22 0 .488-.037.804-.112.325-.086.562-.182.71-.289.083 0 .215-.037.393-.112.19-.085.316-.144.379-.176a8.8 8.8 0 0 1 .82-.337 1.71 1.71 0 0 1 .614-.128c.074 0 .216.021.426.064a4.2 4.2 0 0 0-.047.256 2.72 2.72 0 0 1-.095.37c-.178.256-.341.438-.488.544a3.04 3.04 0 0 1-.584.337c-.2.075-.378.166-.536.273-.757.47-1.508.706-2.255.706-.336 0-.704-.075-1.103-.225a3.069 3.069 0 0 1-.962-.53c-.084-.138-.194-.427-.331-.865-.137-.439-.205-.717-.205-.834 0-.032.01-.08.032-.144a.515.515 0 0 0 .031-.145v-.16a.612.612 0 0 1-.032-.193c.011-.331.142-.876.395-1.636.262-.77.61-1.63 1.04-2.582.263-.577.642-1.219 1.136-1.924a15.07 15.07 0 0 1 1.56-1.893c.547-.545.999-.887 1.356-1.026.221-.075.4-.113.536-.113.379 0 .736.097 1.072.29.337.181.61.47.82.865.21.385.316.866.316 1.444Zm6.74 9.959a.708.708 0 0 1-.236-.064.698.698 0 0 1-.236-.144c-.127-.129-.19-.32-.19-.578 0-.577-.01-.956-.031-1.138l-.016-.963c0-.245.016-.395.047-.449a1.352 1.352 0 0 1-.016-.24c0-.096.006-.209.016-.337.021-.139.032-.246.032-.32l-.063-.434h-.852c-.063.01-.2.016-.41.016-.283 0-.961-.032-2.033-.096l-.206.337c-.01.01-.063.08-.157.208a2.97 2.97 0 0 0-.268.578c-.095.256-.22.55-.379.882a4.825 4.825 0 0 1-.41.77c-.157.299-.304.518-.441.657-.126.14-.22.209-.284.209h-.079a.501.501 0 0 1-.189-.032.632.632 0 0 1-.189-.113c-.284-.128-.426-.32-.426-.577 0-.182.084-.396.253-.641l.205-.337c0-.064.152-.401.457-1.01.315-.62.52-.952.615-.995.094-.096.142-.193.142-.289 0-.107-.064-.214-.19-.32a.27.27 0 0 1-.11-.129.667.667 0 0 1-.031-.208.53.53 0 0 1 .157-.385c.105-.107.268-.155.489-.145.053-.032.1-.058.142-.08a1.67 1.67 0 0 0 .11-.048c.032-.021.047-.048.047-.08 0-.054.085-.246.253-.578.178-.342.336-.598.473-.77a4.38 4.38 0 0 1 .268-.625 1.83 1.83 0 0 0 .157-.272c.053-.054.158-.23.316-.53.02-.032.09-.15.205-.353.105-.106.21-.23.315-.368.116-.15.19-.246.22-.29.043-.074.106-.165.19-.272.053-.128.147-.283.284-.465.136-.192.22-.31.252-.353.158-.192.347-.347.568-.465.22-.128.425-.192.615-.192.105 0 .194.016.268.048.262.118.494.337.693.657.2.321.316.695.347 1.123.01.075.032.24.063.497.042.257.063.481.063.674a.991.991 0 0 1-.047.337v.705c0 .353.01.615.032.786-.032.118-.048.31-.048.578l.016.625c0 .16-.005.294-.016.401l-.016.593-.015.594c-.01.267-.016.604-.016 1.01l.016 1.267c0 .727-.063 1.257-.19 1.588-.115.332-.294.513-.535.545Zm-3.184-5.998a5.65 5.65 0 0 1 1.072-.064 9.64 9.64 0 0 1 .583-.032c.137 0 .273.005.41.016a.994.994 0 0 0 .252-.016c.2.01.3-.177.3-.562a29.072 29.072 0 0 1-.11-2.437l.015-.497c0-.171-.016-.353-.047-.546a9.149 9.149 0 0 0-.047-.385c-.042-.053-.195.123-.458.53-.252.406-.467.77-.646 1.09a3.247 3.247 0 0 0-.252.45c-.053.085-.11.186-.174.304-.052.118-.12.246-.205.385-.515.834-.772 1.368-.772 1.604 0 .075.026.128.079.16Zm5.383 5.533c-.157 0-.32-.107-.489-.32-.168-.204-.252-.46-.252-.77 0-.246.058-.487.174-.722.21-.45.42-.813.63-1.09.074-.108.126-.198.158-.273a.753.753 0 0 0 .079-.305c.147-.193.341-.54.583-1.043.41-.673.993-1.71 1.75-3.11l.615-1.14c.315-.566.526-.903.63-1.01l.08-.112c-.032.053.02-.07.157-.37a7.1 7.1 0 0 1 .457-.801c.169-.246.316-.369.442-.369.137 0 .294.059.473.176a1.3 1.3 0 0 1 .457.498 1.4 1.4 0 0 1 .205.77c0 .128-.005.23-.016.304l-.157 1.09-.08.354c-.136.705-.34 1.673-.614 2.903-.242 1.09-.363 1.748-.363 1.972 0 .064.01.118.032.16.02.033.047.049.079.049.02 0 .073-.032.157-.097a.945.945 0 0 0 .221-.32l.205-.321.268-.401a31.52 31.52 0 0 0 1.088-1.684c.431-.716 1.13-1.94 2.097-3.673.2-.3.363-.561.489-.785.168-.278.33-.54.489-.786.157-.246.278-.401.362-.465a.604.604 0 0 1 .394-.129c.158.01.32.07.49.177.178.107.325.256.44.449.127.192.19.4.19.625 0 .257-.08.727-.237 1.411a22.7 22.7 0 0 1-.52 1.99c-.042.224-.174.753-.394 1.587-.168.62-.294 1.112-.379 1.475a4.66 4.66 0 0 0-.11.883v.128c-.158.288-.236.866-.236 1.732-.043.353-.121.626-.237.818-.116.203-.21.305-.284.305l-.047-.016a.25.25 0 0 0-.158.064c-.042.053-.105.08-.189.08-.263 0-.436-.096-.52-.289-.074-.192-.11-.454-.11-.786 0-.192.005-.352.015-.48.032-.279.368-1.727 1.01-4.347.504-2.053.756-3.127.756-3.224l-.22.385c-.21.406-.474.882-.789 1.428l-1.104 2.1c-.136.193-.252.38-.347.562a5.305 5.305 0 0 0-.142.32c-.126.257-.378.626-.756 1.107-.126.16-.2.262-.221.305-.053.118-.22.326-.505.626a9.15 9.15 0 0 1-.898.801c-.316.236-.578.353-.789.353-.283 0-.54-.139-.772-.417a1.579 1.579 0 0 1-.331-1.01c0-.289.052-.77.157-1.444.169-.737.347-1.486.536-2.245.19-.759.321-1.256.395-1.491a1.05 1.05 0 0 0 .047-.321c0-.075-.01-.123-.032-.145-.01 0-.026.011-.047.032a26.17 26.17 0 0 0-.788 1.427 41.79 41.79 0 0 0-1.088 2.262c-1.503 2.812-2.365 4.347-2.586 4.603Zm15.129-.256a6.529 6.529 0 0 1-1.246-.465c-.473-.214-.725-.39-.757-.53a.154.154 0 0 0-.063-.128.195.195 0 0 0-.142-.064v-.241c0-.075-.02-.123-.063-.144-.052-.107-.079-.262-.079-.465 0-.332.053-.749.158-1.251.116-.503.242-.952.378-1.347 0-.075.016-.172.048-.29a.954.954 0 0 0 .063-.224c.084-.245.252-.636.504-1.17.252-.535.463-.91.63-1.123 0-.032.038-.102.111-.209a1.1 1.1 0 0 0 .174-.352c.168-.171.394-.503.678-.995.368-.31.52-.588.457-.834.01-.224.1-.385.268-.48.179-.108.494-.215.946-.322a4.115 4.115 0 0 1 1.009-.256c.347-.054.804-.091 1.372-.112a3.071 3.071 0 0 1 .536-.08c.031-.033.189-.017.473.047.294.054.557.145.788.273.242.118.358.251.347.401-.01.086-.247.198-.71.337a7.806 7.806 0 0 1-1.245.256l-.394.049c-.61.064-1.051.133-1.325.208a1.714 1.714 0 0 0-.725.385c-.22.192-.473.513-.757.962-.378.599-.567 1.005-.567 1.22 0 .138.073.208.22.208.095 0 .237-.011.426-.032.2-.032.342-.049.426-.049.052-.02.173-.064.362-.128a3.8 3.8 0 0 1 .663-.144l.693-.144c.21-.054.368-.08.473-.08.368 0 .552.128.552.384 0 .14-.068.289-.205.45-.126.16-.294.283-.504.368-.19.075-.405.15-.647.225-.242.075-.394.112-.457.112a.633.633 0 0 1-.158.032c-.073.01-.168.016-.283.016l-.71.096-.52.064-.6.16c-.315.086-.52.182-.614.29-.095.096-.184.256-.268.48a5.58 5.58 0 0 0-.331 1.14 6.226 6.226 0 0 0-.127 1.154c0 .332.048.545.142.642.232.267.594.4 1.088.4a2.803 2.803 0 0 0 1.545-.449c.2-.16.42-.283.663-.368a.455.455 0 0 1 .236-.097.32.32 0 0 1 .174.065c.063.032.12.069.173.112.063.043.116.08.158.112.084.118.126.24.126.369 0 .353-.442.716-1.325 1.09-.494.172-.888.294-1.182.37a3.29 3.29 0 0 1-.804.112l-.252-.016Zm13.892.401c-.336 0-.64-.027-.914-.08a1.985 1.985 0 0 1-.725-.305 7.111 7.111 0 0 1-1.04-.834c-.337-.343-.505-.642-.505-.898 0-.171.068-.353.205-.546a2.04 2.04 0 0 1 .52-.48c.21-.13.405-.193.583-.193.221.117.384.23.49.336a.495.495 0 0 1 .157.353c0 .171-.121.37-.363.594.147.181.326.32.536.417.22.085.457.128.71.128.346 0 .72-.086 1.12-.257a3.065 3.065 0 0 0 1.008-.721c.273-.3.41-.631.41-.995 0-.46-.105-.839-.315-1.138-.21-.31-.531-.466-.962-.466-.084 0-.152.006-.205.017h-.126a.965.965 0 0 1-.331-.08.48.48 0 0 1-.3-.193 3.723 3.723 0 0 1-.33-.465.867.867 0 0 1-.096-.385c0-.193.116-.353.347-.481a.691.691 0 0 1 .347-.112c.032 0 .09.01.174.031a1.43 1.43 0 0 1 .347-.08 1.19 1.19 0 0 0 .378-.096 7.773 7.773 0 0 0 1.908-1.25c.578-.525.867-1.091.867-1.7 0-.161-.037-.343-.11-.546a1.5 1.5 0 0 0-.789-.209c-.441 0-.877.123-1.308.37-.42.245-.7.55-.836.913-.158.428-.41.722-.757.882a3.397 3.397 0 0 1-.504-.4 4.998 4.998 0 0 1-.395-.594c.21-.567.51-1.074.9-1.523.398-.46.861-.802 1.387-1.027.136-.064.352-.123.646-.176.305-.064.536-.097.694-.097.504 0 .946.123 1.324.37.379.245.673.582.883 1.01.21.417.315.876.315 1.379 0 .588-.105 1.09-.315 1.507a3.28 3.28 0 0 1-.835 1.059 13.96 13.96 0 0 1-1.372.978c.347.289.599.594.757.915.157.31.236.684.236 1.122 0 .503-.037.92-.11 1.251-.063.332-.21.668-.442 1.01-.147.257-.415.53-.804.819a5.308 5.308 0 0 1-1.182.673l-.11-.016c-.064.043-.174.075-.332.096-.179.043-.289.08-.33.112h-.505Zm6.828-.417c-.073-.107-.2-.182-.378-.225-.168-.032-.442-.037-.82-.016a1.186 1.186 0 0 1-.678-.112c-.22-.107-.31-.23-.268-.37.01-.138.163-.277.457-.416.305-.15.668-.23 1.088-.24l.662-.017.158-.32a.686.686 0 0 0 .063-.193.854.854 0 0 1 .047-.192l.142-.578.237-.77c.315-.973.52-1.657.614-2.053.053-.128.137-.384.253-.77.115-.384.205-.7.268-.945.483-1.508.683-2.273.599-2.294-.105-.01-.384.01-.836.064-.452.043-.704.08-.757.112-.052.075-.141.065-.267-.032a.61.61 0 0 1-.237-.32.568.568 0 0 1-.016-.16c0-.15.037-.247.11-.29.106-.096.374-.203.805-.32.441-.118.851-.203 1.23-.257a3.19 3.19 0 0 0 .535-.112c.19-.064.332-.14.426-.225.221-.075.405-.107.552-.096.074.054.252.08.536.08.242 0 .426-.005.552-.016.273-.021.463-.032.568-.032.63 0 1.009.15 1.135.45.021.106.031.186.031.24a.46.46 0 0 1-.126.337c-.073.085-.179.123-.315.112-.189.053-.541.085-1.056.096-.694.064-1.067.14-1.12.225a1.377 1.377 0 0 0-.126.144.846.846 0 0 1-.079.128c.01.097-.084.444-.284 1.043l-.283.85c-.295.93-.484 1.502-.568 1.716a2.616 2.616 0 0 0-.158.561c-.084.289-.163.567-.236.834a12.33 12.33 0 0 1-.205.738l-.615 2.23.946-.081c.62-.064.993-.096 1.12-.096.104 0 .173.01.204.032.032.021.053.059.063.112.01.043.021.075.032.096a.628.628 0 0 1 .142.37c0 .192-.126.347-.379.464-.252.118-.599.171-1.04.16-.473.022-.857.038-1.151.049-.294.021-.478.048-.552.08-.074.032-.11.086-.11.16a.228.228 0 0 1-.095.225.416.416 0 0 1-.284.096c-.2 0-.378-.085-.536-.256Zm9.056.272c-.158 0-.321-.107-.489-.32-.168-.204-.252-.46-.252-.77 0-.246.058-.487.173-.722a6.13 6.13 0 0 1 .631-1.09c.074-.108.126-.198.158-.273a.76.76 0 0 0 .079-.305c.147-.193.341-.54.583-1.043.41-.673.993-1.71 1.75-3.11l.615-1.14c.315-.566.525-.903.631-1.01l.078-.112c-.031.053.021-.07.158-.37a7.1 7.1 0 0 1 .457-.801c.168-.246.316-.369.442-.369.136 0 .294.059.473.176.178.107.331.273.457.498.137.213.205.47.205.77 0 .128-.005.23-.016.304l-.157 1.09-.079.354a118.82 118.82 0 0 1-.615 2.903c-.242 1.09-.363 1.748-.363 1.972 0 .064.011.118.032.16.021.033.047.049.079.049.021 0 .073-.032.157-.097a.947.947 0 0 0 .221-.32l.205-.321.268-.401c.294-.417.657-.978 1.088-1.684.431-.716 1.13-1.94 2.097-3.673.199-.3.362-.561.489-.785.168-.278.331-.54.488-.786.158-.246.279-.401.363-.465a.603.603 0 0 1 .394-.129c.158.01.321.07.489.177.179.107.326.256.441.449.126.192.19.4.19.625 0 .257-.079.727-.237 1.411a23.047 23.047 0 0 1-.52 1.99c-.042.224-.174.753-.394 1.587a41.35 41.35 0 0 0-.379 1.475c-.073.364-.11.658-.11.883v.128c-.158.288-.237.866-.237 1.732-.042.353-.121.626-.236.818-.116.203-.21.305-.284.305l-.047-.016a.251.251 0 0 0-.158.064c-.042.053-.105.08-.189.08-.263 0-.436-.096-.52-.289-.074-.192-.111-.454-.111-.786 0-.192.005-.352.016-.48.031-.279.368-1.727 1.009-4.347.505-2.053.757-3.127.757-3.224l-.221.385c-.21.406-.473.882-.788 1.428l-1.104 2.1c-.137.193-.252.38-.347.562a5.818 5.818 0 0 0-.142.32c-.126.257-.378.626-.756 1.107-.127.16-.2.262-.221.305-.053.118-.221.326-.505.626a9.2 9.2 0 0 1-.898.801c-.316.236-.579.353-.789.353-.284 0-.541-.139-.772-.417-.221-.278-.331-.615-.331-1.01 0-.289.052-.77.157-1.444.168-.737.347-1.486.536-2.245.189-.759.321-1.256.394-1.491a1.02 1.02 0 0 0 .048-.321c0-.075-.011-.123-.032-.145-.01 0-.026.011-.047.032a25.552 25.552 0 0 0-.788 1.427 41.413 41.413 0 0 0-1.088 2.262c-1.503 2.812-2.365 4.347-2.586 4.603Zm13.11.545a4.475 4.475 0 0 0-.236-.048.907.907 0 0 0-.284-.016 1.068 1.068 0 0 1-.52-.272c-.158-.15-.221-.305-.19-.465.032-.032.058-.118.079-.257a2.2 2.2 0 0 0 .032-.353c.042-.117.089-.288.142-.513.063-.481.226-1.278.488-2.39.274-1.122.447-1.721.521-1.796l-.016-.176a1.27 1.27 0 0 1 .158-.513c.042-.129.073-.252.094-.37.032-.128.047-.224.047-.288.022-.032.095-.225.221-.578l.158-.449c.063-.203.147-.443.252-.721.105-.278.174-.46.205-.546v-.08c.042-.053.158-.337.347-.85.095-.214.184-.433.268-.657.095-.236.189-.466.284-.69.031-.064.079-.155.142-.273.063-.117.094-.197.094-.24.042-.086.147-.129.316-.129a.96.96 0 0 1 .41.097c.136.064.231.15.283.256l.363.257-.536 1.17a17.65 17.65 0 0 0-.378.819c-.106.256-.158.406-.158.449-.021.075-.068.23-.142.465-.074.235-.152.502-.237.802-.042.15-.147.465-.315.946-.073.182-.11.283-.11.305 0-.043.567-.086 1.703-.129.189-.01.536-.026 1.04-.048.515-.032.836-.064.962-.096l.804-.112.378-1.428c.127-.524.332-1.261.615-2.213.137-.46.3-.813.489-1.058.189-.257.352-.385.489-.385.263 0 .478.192.646.577.126.107.19.23.19.369 0 .139-.079.347-.237.625-.137.257-.3.685-.489 1.284a3.752 3.752 0 0 1-.157.497v.064c0 .203-.048.353-.142.449-.032.032-.1.182-.205.449-.095.267-.142.422-.142.465.01.075 0 .171-.032.289a.54.54 0 0 1-.11.224l-.3 1.283c-.189.813-.378 1.465-.567 1.957.01.053-.011.15-.063.289a1.21 1.21 0 0 0-.063.288c-.158.514-.232.802-.221.866-.053.246-.153.69-.3 1.332-.094.427-.142.646-.142.657-.01.021-.057.032-.141.032a1.46 1.46 0 0 1-.537-.112 1.016 1.016 0 0 1-.378-.353.78.78 0 0 1-.142-.449.82.82 0 0 1 .079-.369c.042-.075.121-.395.236-.962l.158-.69c.053-.17.111-.422.174-.754.073-.342.126-.582.157-.721.095-.556.158-.85.189-.882v-.16c-.031-.033-.22-.049-.567-.049-.358 0-.778.022-1.261.064-.484.032-.915.08-1.293.145l-.442.016a3.32 3.32 0 0 0-.426.016c-.105 0-.194.005-.268.016h-.141c-.042.096-.163.556-.363 1.379-.2.823-.315 1.352-.347 1.588a50.17 50.17 0 0 1-.331 1.572c-.116.566-.21.994-.284 1.282Zm10.277-.914a6.826 6.826 0 0 1-.946-.834c-.22-.246-.336-.48-.346-.705a1.69 1.69 0 0 1-.016-.289c0-.3.026-.674.079-1.123.052-.449.105-.807.157-1.074.042-.043.063-.107.063-.193.011-.085.011-.139 0-.16 0-.032.027-.139.079-.32.126-.396.216-.728.268-.995.284-.877.563-1.577.836-2.101s.578-1.016.914-1.476c.715-.748 1.477-1.315 2.286-1.7.41-.246.705-.369.883-.369a.49.49 0 0 1 .142.032c1.293.29 2.066 1.123 2.318 2.503.095.652.142 1.144.142 1.475 0 .535-.095 1.075-.284 1.62-.189.545-.531 1.23-1.025 2.053-.42.855-.898 1.587-1.434 2.197-.526.599-1.057 1.048-1.593 1.347-.525.3-1.019.45-1.482.45-.41 0-.757-.113-1.041-.338Zm1.262-1.058a1.99 1.99 0 0 0 .583-.145c.147-.064.294-.17.442-.32.157-.16.41-.444.756-.85.442-.514.752-.888.931-1.123.178-.246.341-.55.488-.914.158-.364.331-.888.521-1.572l.094-.369c.063-.224.105-.406.126-.545a2.3 2.3 0 0 0 .048-.481l-.016-1.01a2.946 2.946 0 0 0-.11-.626c-.063-.225-.137-.385-.221-.481a.963.963 0 0 0-.347-.24.877.877 0 0 0-.426-.113c-.105 0-.226.027-.362.08-.2.086-.479.316-.836.69a10.46 10.46 0 0 0-.962 1.123c-.273.384-.41.641-.41.77a.85.85 0 0 1-.015.096.358.358 0 0 1-.064.144c-.273.3-.551.93-.835 1.892-.273.963-.431 1.802-.473 2.518-.011.31-.011.524 0 .642.021.118.079.251.173.4.074.118.205.23.394.338.2.096.374.128.521.096Zm9.899-1.523a.237.237 0 0 1-.015-.097c0-.043.01-.096.031-.16a2.38 2.38 0 0 0 .047-.193c.011-.107.016-.208.016-.305l.032-.32c.052-.439.173-.99.362-1.652.032-.107.069-.268.111-.481.052-.257.115-.492.189-.706-.347.032-.673.09-.978.176a1.43 1.43 0 0 0-.299.145 1.714 1.714 0 0 1-.284.144 2.1 2.1 0 0 1-.284.177c-.136.064-.22.133-.252.208l-.694 2.005a2.407 2.407 0 0 0-.126.433c-.031.16-.068.358-.11.593-.063.278-.153.631-.268 1.059-.232.79-.352 1.315-.363 1.571a1.81 1.81 0 0 1-.268.385 2.854 2.854 0 0 1-.347.321 2.324 2.324 0 0 1-.52-.289 1.094 1.094 0 0 1-.379-.385c.011-.17.037-.352.079-.545.053-.192.105-.38.158-.561a9.71 9.71 0 0 0 .173-.626l.205-1.026c.116-.642.221-1.176.316-1.604.105-.438.226-.813.362-1.123.084-.181.195-.368.331-.56.19-.3.316-.535.379-.707l.126-.304.3-.818c.378-1.144.73-2.09 1.056-2.839.021-.043.068-.176.142-.4.063-.236.121-.397.173-.482l.016-.209a5.53 5.53 0 0 1 .552-.032c.136 0 .289.011.457.032.305.279.457.562.457.85a.834.834 0 0 1-.063.337c-.136.374-.331.85-.583 1.428-.189.427-.326.748-.41.962l-.142.353-.11.192a7.83 7.83 0 0 1 1.844-.449c.81-1.753 1.793-2.935 2.949-3.544a.771.771 0 0 1 .347-.097c.115 0 .226.022.331.065.105.042.205.09.299.144l.205.112v.048a.9.9 0 0 0 .032.193c.031.075.042.133.031.176l.615.209c.011.032.032.085.063.16.042.064.09.118.142.16.242.236.426.583.552 1.043.126.45.189.882.189 1.3a2.9 2.9 0 0 1-.063.544 1.07 1.07 0 0 0-.031.16 1.045 1.045 0 0 0-.016.177c-.042.877-.273 1.882-.694 3.015-.42 1.134-.972 2.128-1.655 2.983-.673.856-1.398 1.348-2.176 1.476a.444.444 0 0 1-.268.08.688.688 0 0 1-.189-.032l-.19-.032a2.71 2.71 0 0 1-1.214-.465 1.45 1.45 0 0 1-.615-1.01l-.063-.434a3.063 3.063 0 0 1-.047-.513c0-.15.016-.288.047-.417Zm4.573-7.202c-.705.588-1.283 1.476-1.735 2.663a22.174 22.174 0 0 0-1.056 3.688 6.268 6.268 0 0 0-.095.61 9.832 9.832 0 0 0-.031.77c0 .641.121.935.363.882.21-.054.451-.209.725-.465.073-.075.194-.177.362-.305.41-.342.836-.947 1.277-1.813.442-.866.752-1.63.931-2.293.042-.139.084-.358.126-.658.042-.342.089-.593.142-.753a.552.552 0 0 1-.016-.16.73.73 0 0 1 .063-.322 5.06 5.06 0 0 1-.016-.449 3.798 3.798 0 0 0-.094-.802c-.053-.203-.179-.395-.379-.577a1.47 1.47 0 0 0-.41.112l-.157-.128Zm5.282 6.287a.46.46 0 0 1-.362-.192.737.737 0 0 1-.111-.401.93.93 0 0 0-.031-.129 1.541 1.541 0 0 1-.016-.224c0-.054.005-.096.016-.129 0-.053.047-.187.142-.4.073-.182.126-.316.157-.401.116-.204.289-.439.521-.706a3.96 3.96 0 0 1 .63-.61l.268-.192c0-.043.074-.123.221-.24.147-.118.273-.204.378-.257.042-.032.116-.086.221-.16.105-.075.205-.156.3-.241a3.32 3.32 0 0 0 .52-.658c.116-.213.2-.427.252-.641.053-.214.132-.578.237-1.09.01-.354-.005-.578-.048-.674-.031-.097-.115-.198-.252-.305a2.563 2.563 0 0 0-.347-.032c-.704 0-1.25.433-1.639 1.299-.074.192-.111.331-.111.417 0 .053.016.123.048.208 0 .064.01.16.031.29.032.117.047.208.047.272a1.71 1.71 0 0 1-.567.112c-.21 0-.373-.059-.489-.176a1.987 1.987 0 0 0-.126-.16 5.14 5.14 0 0 1-.158-.225.508.508 0 0 1-.079-.193 1.248 1.248 0 0 1-.015-.192 1.7 1.7 0 0 0 .015-.225c.127-.406.316-.807.568-1.203.252-.395.557-.684.914-.866a8.477 8.477 0 0 0 .915-.48h.158l.362-.049h.174c.105 0 .157.021.157.064h.458c.189.054.425.177.709.37.284.18.484.336.599.464.063.203.095.45.095.738 0 .534-.1 1.117-.3 1.748-.199.62-.457 1.107-.772 1.46l-.347.32c-.515.47-.841.786-.978.946-.336.193-.646.487-.93.883a4.83 4.83 0 0 0-.631 1.219c-.199.427-.467.641-.804.641Zm-.362 2.839c-.2.085-.368.128-.505.128-.158 0-.336-.075-.536-.224-.158-.16-.236-.321-.236-.482 0-.267.194-.534.583-.801.105-.065.2-.118.284-.16a.5.5 0 0 1 .22-.065c.085 0 .226.043.426.128.305.182.457.401.457.658 0 .3-.231.572-.693.818Zm16.889-9.206a.66.66 0 0 1 .016.16.32.32 0 0 1-.189.305l-.379.128c-.178.054-.326.08-.441.08a.606.606 0 0 1-.221-.031.936.936 0 0 0-.378-.209c-.148-.043-.452-.08-.915-.112a2.362 2.362 0 0 1-.362.032c-.106 0-.19.005-.253.016a4.7 4.7 0 0 1-.315.786c-.042.203-.1.385-.174.545-.073.214-.105.337-.094.369-.032.043-.132.315-.3.818-.168.492-.326.973-.473 1.443-.105.332-.184.572-.236.722a5.247 5.247 0 0 0-.205.513l-.158.481-.394 1.107c-.084.16-.189.417-.315.77-.116.342-.211.652-.284.93-.116.417-.221.716-.315.898-.085.182-.158.294-.221.337a.477.477 0 0 1-.268.064c-.168 0-.316-.085-.442-.257-.126-.17-.189-.331-.189-.48 0-.236.079-.632.237-1.188.168-.555.325-1 .473-1.33.042-.193.078-.348.11-.466.042-.117.068-.203.079-.256.031-.043.079-.156.142-.337a5.29 5.29 0 0 0 .173-.53c.032-.192.358-1.267.978-3.223l.11-.337c.095-.16.184-.363.268-.61.084-.053.126-.165.126-.336 0-.032.016-.075.048-.129.042-.053.063-.09.063-.112.01-.01.026-.016.047-.016.01 0 .021.006.031.016.021 0 .053-.021.095-.064h-.016l-.772.08-.347.032c-.62.054-.972.091-1.057.113l-.22.016c-.326 0-.557-.064-.694-.193a.486.486 0 0 1-.126-.465.54.54 0 0 1 .236-.337c.137-.085.358-.16.663-.224.094-.022.278-.054.551-.096l.426-.08.536-.065c.61-.096 1.256-.16 1.939-.192.284-.01.521-.022.71-.032.2-.022.331-.038.394-.048.147.01.384.037.71.08.336.043.578.09.725.144.231.054.42.15.567.289.148.139.247.3.3.48Zm-2.835 9.832a1.16 1.16 0 0 1-.252-.177.327.327 0 0 1-.063-.209c0-.107.042-.256.126-.449.095-.203.252-.518.473-.946.063-.139.184-.385.363-.738.452-.876.678-1.523.678-1.94a.219.219 0 0 1-.016-.097c0-.107.084-.203.252-.288a5.97 5.97 0 0 1 .331-.273c.2-.15.358-.32.473-.513.137-.32.31-.674.521-1.059.21-.395.572-1.037 1.087-1.924a20.16 20.16 0 0 1 1.609-2.55c.105-.15.22-.268.347-.353.136-.086.252-.128.346-.128.326 0 .657.128.994.385.347.256.573.513.678.77.042.074.063.235.063.48 0 .332-.037.893-.111 1.684a9.2 9.2 0 0 0-.063.658c-.031.481-.079.994-.142 1.54a174.137 174.137 0 0 0-.252 2.806 24.694 24.694 0 0 0-.079 1.893c0 .3.006.518.016.657v.113l-.016.369c-.063.064-.189.096-.378.096a1.87 1.87 0 0 1-.631-.113c-.21-.064-.326-.144-.347-.24a.173.173 0 0 0-.047-.032c-.021-.01-.031-.059-.031-.144l.015-.353.048-.898.078-2.454-.205.016c-.21 0-.657.043-1.34.128-.672.086-1.098.155-1.277.209-.094 0-.21.064-.347.192a1.833 1.833 0 0 0-.362.497 2.48 2.48 0 0 1-.221.465c-.116.193-.173.305-.173.337a.68.68 0 0 0-.174.176 1.776 1.776 0 0 0-.079.129c0 .118-.105.422-.315.914-.2.481-.4.877-.599 1.187l-.426.61-.552-.434Zm3.768-5.518.442-.064a4.51 4.51 0 0 1 .583-.08c.505-.129.852-.193 1.041-.193.105 0 .179.011.221.032a.405.405 0 0 0 .094.097c.042.01.069.016.079.016.021-.086.105-.668.252-1.748.147-1.08.221-1.743.221-1.99a4.79 4.79 0 0 0-.016-.432 1.456 1.456 0 0 0-.031-.24c-.095 0-.31.256-.647.77a14.919 14.919 0 0 0-.977 1.715c-.242.439-.41.658-.505.658-.073.075-.231.326-.473.754-.241.427-.336.662-.284.705Zm12.881 5.806c-.316.021-.694-.016-1.135-.112a3.175 3.175 0 0 1-1.262-.562c-.389-.278-.636-.673-.741-1.186a6.12 6.12 0 0 1-.11-1.203c0-.888.136-1.834.41-2.84.105-.373.378-.95.82-1.731.452-.78.872-1.417 1.261-1.909.252-.31.646-.69 1.182-1.138.547-.46.91-.727 1.088-.802a1.1 1.1 0 0 1 .505-.113c.126 0 .257.017.394.049.21.02.441.117.694.288.263.171.404.326.425.465 0 .043.021.064.064.064a.956.956 0 0 0 .283-.08.73.73 0 0 1 .316-.192c.147-.054.283-.08.41-.08.136 0 .21.032.22.096a.2.2 0 0 0-.031.112c0 .064.021.112.063.144.052-.02.042.145-.032.498-.073.342-.157.598-.252.77l-.047.16v.048c0 .075-.048.16-.142.257-.063.096-.153.39-.268.882-.116.491-.168.79-.158.898.011.043-.016.075-.079.096a.602.602 0 0 1-.22.032c-.2 0-.384-.032-.552-.096a1.031 1.031 0 0 1-.363-.209c-.073-.074-.11-.181-.11-.32 0-.129.042-.337.126-.626.168-.577.252-.962.252-1.155 0-.213-.063-.368-.189-.465-.032-.064-.095-.112-.189-.144a.792.792 0 0 0-.284-.048.688.688 0 0 0-.315.08c-.242.096-.6.374-1.073.834-.473.45-.877.909-1.214 1.38a9.061 9.061 0 0 0-1.166 2.197 6.382 6.382 0 0 0-.379 2.1c0 .535.079 1.038.237 1.508.021.053.084.15.189.289.105.128.189.214.252.256.168.043.384.064.647.064.21 0 .462-.016.757-.048.42-.074.735-.192.946-.352.22-.16.446-.407.677-.738.095-.14.205-.209.332-.209.136 0 .262.075.378.225.116.15.189.326.221.53 0 .095-.095.293-.284.593-.179.288-.315.443-.41.465-.042.01-.068.026-.079.048 0 .01.005.037.016.08 0 .064-.116.155-.347.273a4.703 4.703 0 0 1-.851.352c-.326.118-.62.193-.883.225Zm11.416.577a.707.707 0 0 1-.237-.064.693.693 0 0 1-.236-.144c-.126-.129-.189-.32-.189-.578 0-.577-.011-.956-.032-1.138l-.016-.963c0-.245.016-.395.048-.449a1.302 1.302 0 0 1-.016-.24c0-.096.005-.209.016-.337a2.3 2.3 0 0 0 .031-.32l-.063-.434h-.851c-.063.01-.2.016-.41.016-.284 0-.962-.032-2.034-.096l-.205.337c-.011.01-.063.08-.158.208a3.03 3.03 0 0 0-.268.578c-.094.256-.221.55-.378.882a4.824 4.824 0 0 1-.41.77c-.158.299-.305.518-.442.657-.126.14-.22.209-.283.209h-.079a.497.497 0 0 1-.189-.032.62.62 0 0 1-.19-.113c-.284-.128-.425-.32-.425-.577 0-.182.084-.396.252-.641l.205-.337c0-.064.152-.401.457-1.01.315-.62.52-.952.615-.995.095-.096.142-.193.142-.289 0-.107-.063-.214-.189-.32a.274.274 0 0 1-.111-.129.667.667 0 0 1-.031-.208.53.53 0 0 1 .157-.385c.106-.107.268-.155.489-.145.053-.032.1-.058.142-.08.053-.021.089-.037.11-.048.032-.021.048-.048.048-.08 0-.054.084-.246.252-.578a5.03 5.03 0 0 1 .473-.77 4.32 4.32 0 0 1 .268-.625c.084-.128.137-.219.158-.272.052-.054.157-.23.315-.53.021-.032.089-.15.205-.353.105-.106.21-.23.315-.368.116-.15.19-.246.221-.29.042-.074.105-.165.189-.272.053-.128.147-.283.284-.465l.252-.353c.158-.192.347-.347.568-.465.221-.128.426-.192.615-.192a.67.67 0 0 1 .268.048c.263.118.494.337.694.657.199.321.315.695.346 1.123.011.075.032.24.064.497.042.257.063.481.063.674a.98.98 0 0 1-.048.337v.705c0 .353.011.615.032.786-.032.118-.047.31-.047.578l.015.625c0 .16-.005.294-.015.401l-.016.593-.016.594c-.01.267-.016.604-.016 1.01l.016 1.267c0 .727-.063 1.257-.189 1.588-.116.332-.294.513-.536.545Zm-3.185-5.998a5.612 5.612 0 0 1 1.072-.064 9.64 9.64 0 0 1 .583-.032c.137 0 .274.005.41.016.147 0 .232-.005.253-.016.199.01.299-.177.299-.562a29.504 29.504 0 0 1-.11-2.437l.016-.497a3.33 3.33 0 0 0-.048-.546c-.021-.192-.037-.32-.047-.385-.042-.053-.194.123-.457.53-.253.406-.468.77-.647 1.09a3.253 3.253 0 0 0-.252.45c-.053.085-.11.186-.173.304a3.655 3.655 0 0 1-.205.385c-.515.834-.773 1.368-.773 1.604 0 .075.026.128.079.16Zm16.783-4.891c0 .053-.016.09-.048.112-.031.01-.047.021-.047.032 0 .01.021.032.063.064l-.11.53c-.042.224-.132.673-.268 1.346a49.83 49.83 0 0 0-.284 1.636l-.221 1.716a95.58 95.58 0 0 0-.205 1.749 16.88 16.88 0 0 0-.047 1.283c0 .513.016.903.047 1.17.042.278.063.439.063.482 0 .064-.073.16-.22.288a.728.728 0 0 1-.489.193.633.633 0 0 1-.599-.353c-.126-.225-.2-.578-.221-1.059 0-.716.053-1.673.158-2.87.031-.075.047-.22.047-.434a.986.986 0 0 0-.032-.288c-.01-.107.006-.257.048-.45a1.898 1.898 0 0 0 .047-.384c0-.054.021-.166.063-.337.063-.193.095-.342.095-.45v-.111a4.09 4.09 0 0 0 .094-.353c.042-.15.063-.24.063-.273a.995.995 0 0 1-.015-.224.614.614 0 0 0-.032-.24 8.33 8.33 0 0 0 .221-.835l.189-.77c-.01 0-.126.214-.347.642a9.78 9.78 0 0 1-.772 1.267c-.242.395-.479.737-.71 1.026l-.378.497c-.137.182-.268.353-.394.514-.116.16-.2.31-.253.449-.22.556-.478.962-.772 1.219-.284.256-.573.4-.867.433l-.253.032h-.094c-.2 0-.368-.134-.505-.401-.126-.268-.189-.765-.189-1.492l.016-.433.047-.898c.032-.182.058-.481.079-.898.021-.428.037-.711.047-.85-.052.053-.147.251-.284.593a23.52 23.52 0 0 0-.236.658l-.142.369c-.053.075-.131.278-.237.61-.084.245-.199.545-.346.897-.232.77-.442 1.38-.631 1.829-.084.181-.168.38-.252.593a9.208 9.208 0 0 0-.19.513 8.027 8.027 0 0 1-.283.69c-.452 1.037-.831 1.556-1.136 1.556-.168 0-.336-.091-.504-.273a.811.811 0 0 1-.237-.561c0-.15.058-.348.174-.594.115-.256.284-.588.504-.994l.331-.626c0-.053.127-.417.379-1.09l.221-.594.977-2.63.016-.064.094-.24c.032-.086.09-.214.174-.385.147-.343.221-.54.221-.594v-.032c0-.032.01-.053.031-.064a.266.266 0 0 1 .063-.016c.042-.118.116-.3.221-.546.116-.256.205-.448.268-.577l-.016-.064a.58.58 0 0 1 .048-.257c.042-.064.084-.123.126-.176.052-.053.094-.102.126-.144 0-.064.031-.15.094-.257a3.25 3.25 0 0 1 .221-.353c.168-.235.279-.411.331-.53a.517.517 0 0 1 .489-.304c.158 0 .315.064.473.193.158.128.289.272.394.433.105.15.158.251.158.304 0 .032-.016.054-.047.065-.032.01-.048.037-.048.08v.064a.408.408 0 0 1 .016.128c0 .193-.026.342-.079.45a5.065 5.065 0 0 0-.142 1.234l.016.465c0 .086-.021.15-.063.193a2.2 2.2 0 0 0-.079.112v.032l-.016.128.016.097c0 .096-.026.213-.079.352-.063.246-.094.38-.094.401a9.224 9.224 0 0 0-.063 1.091c0 .556.047.86.142.914l1.135-1.716c.967-1.454 1.456-2.197 1.466-2.23a.587.587 0 0 0 .205-.24c-.01 0-.016-.01-.016-.032 0-.053.137-.283.41-.69.273-.416.568-.79.883-1.122.315-.342.573-.513.773-.513.094 0 .22.064.378.192.168.128.315.289.442.481.126.182.189.353.189.513Zm4.545 10.168a6.517 6.517 0 0 1-1.246-.465c-.473-.214-.725-.39-.756-.53a.154.154 0 0 0-.064-.128.194.194 0 0 0-.141-.064v-.241c0-.075-.021-.123-.064-.144-.052-.107-.078-.262-.078-.465 0-.332.052-.749.157-1.251.116-.503.242-.952.379-1.347 0-.075.015-.172.047-.29a.954.954 0 0 0 .063-.224c.084-.245.252-.636.505-1.17.252-.535.462-.91.63-1.123 0-.032.037-.102.111-.209a1.09 1.09 0 0 0 .173-.352c.168-.171.394-.503.678-.995.368-.31.52-.588.457-.834.011-.224.1-.385.268-.48.179-.108.494-.215.946-.322a4.127 4.127 0 0 1 1.009-.256c.347-.054.804-.091 1.372-.112a3.068 3.068 0 0 1 .536-.08c.032-.033.189-.017.473.047.294.054.557.145.788.273.242.118.358.251.347.401-.01.086-.247.198-.709.337a7.797 7.797 0 0 1-1.246.256l-.394.049c-.61.064-1.051.133-1.324.208a1.716 1.716 0 0 0-.726.385c-.22.192-.473.513-.756.962-.379.599-.568 1.005-.568 1.22 0 .138.074.208.221.208.094 0 .236-.011.425-.032.2-.032.342-.049.426-.049a9.36 9.36 0 0 1 .363-.128c.2-.064.42-.112.662-.144l.694-.144c.21-.054.368-.08.473-.08.368 0 .552.128.552.384 0 .14-.069.289-.205.45a1.21 1.21 0 0 1-.505.368 9.06 9.06 0 0 1-.646.225c-.242.075-.395.112-.458.112a.624.624 0 0 1-.157.032 2.16 2.16 0 0 1-.284.016l-.71.096-.52.064-.599.16c-.315.086-.52.182-.615.29-.094.096-.184.256-.268.48a5.58 5.58 0 0 0-.331 1.14 6.234 6.234 0 0 0-.126 1.154c0 .332.047.545.142.642.231.267.594.4 1.088.4.262 0 .53-.037.804-.112.284-.085.531-.198.741-.337.199-.16.42-.283.662-.368.095-.065.173-.097.236-.097.053 0 .111.022.174.065a.95.95 0 0 1 .173.112c.063.043.116.08.158.112.084.118.126.24.126.369 0 .353-.441.716-1.324 1.09-.494.172-.888.294-1.183.37a3.286 3.286 0 0 1-.804.112l-.252-.016Zm-98.474 13.904c-.031.054-.116.123-.252.209.178.118.336.246.473.385.147.139.236.262.268.369.305.492.457 1.069.457 1.732 0 .342-.037.684-.11 1.026-.263.514-.421.813-.473.898-.221.428-.557.797-1.009 1.107-.452.31-.868.513-1.246.61a4.543 4.543 0 0 1-1.34.208c-.105 0-.252-.01-.442-.032a3.02 3.02 0 0 1-.725-.144 4.391 4.391 0 0 1-.804-.37 2.852 2.852 0 0 1-.82-.673 6.782 6.782 0 0 1-.63-.914.823.823 0 0 1-.127-.465c0-.203.063-.401.19-.594.126-.192.278-.347.457-.465a.744.744 0 0 1 .394-.128c.084 0 .158.016.221.048.073.032.126.054.157.064.2.032.326.14.379.321.052.182.084.278.094.289-.073.224-.131.38-.173.465a.416.416 0 0 1-.173.208c.157.246.352.455.583.626.126.096.305.182.536.256.242.075.41.102.504.08.011-.01.037-.015.079-.015.053 0 .105.01.158.032.063.01.1.01.11 0a.857.857 0 0 1 .284-.032.927.927 0 0 0 .347-.08 3.31 3.31 0 0 0 .899-.402c.262-.181.51-.416.741-.705a2.21 2.21 0 0 0 .315-.594 2.88 2.88 0 0 0 .126-.721c.021-.16 0-.342-.063-.546a8.687 8.687 0 0 1-.126-.433l-.205-.16-.347-.096c-.273-.086-.468-.128-.583-.128-.126 0-.258.02-.394.064-.179.053-.3.08-.363.08a.625.625 0 0 1-.315-.08 1.594 1.594 0 0 0-.158-.113.83.83 0 0 1-.394-.336 1.058 1.058 0 0 1-.158-.53c0-.096.026-.187.079-.272a.63.63 0 0 1 .3-.273.734.734 0 0 1 .457-.08c.042.01.1.016.173.016.147 0 .326-.043.536-.128.126-.043.326-.16.599-.353.274-.193.41-.284.41-.273.347-.449.594-.786.741-1.01.158-.236.284-.492.379-.77.115-.214.173-.444.173-.69a1.04 1.04 0 0 0-.079-.4c-.01-.065-.084-.118-.22-.161a1.277 1.277 0 0 0-.379-.064.387.387 0 0 0-.142.016c-.168.01-.415.075-.741.192-.325.107-.52.187-.583.24-.568.493-.909.824-1.025.995a.42.42 0 0 1-.221.177.752.752 0 0 1-.315.064c-.2 0-.331-.054-.394-.16a1.163 1.163 0 0 1-.174-.61c0-.246.09-.481.269-.706.199-.256.373-.46.52-.61.147-.16.32-.299.52-.416l.3-.177c.042-.021.136-.075.283-.16.158-.086.305-.15.442-.193.042-.01.163-.053.363-.128a1.96 1.96 0 0 1 .662-.112c.094 0 .168.005.221.016.357.032.62.096.788.192.179.097.452.305.82.626.157.107.284.294.378.561.095.268.142.572.142.914 0 .514-.095.979-.284 1.396a3.59 3.59 0 0 0-.173.337c-.021.042-.09.17-.205.385a2.852 2.852 0 0 1-.363.545c-.094.128-.294.38-.599.753Zm1.678 6.48a1.108 1.108 0 0 1-.252-.176.328.328 0 0 1-.063-.209c0-.107.042-.257.126-.45.094-.202.252-.518.473-.945.063-.14.184-.385.363-.738.451-.877.677-1.524.677-1.94a.237.237 0 0 1-.015-.097c0-.107.084-.203.252-.289a5.82 5.82 0 0 1 .331-.272c.2-.15.357-.321.473-.513a12.4 12.4 0 0 1 .52-1.059c.211-.396.573-1.037 1.088-1.925.505-.94 1.041-1.79 1.608-2.55.106-.15.221-.267.347-.352.137-.086.253-.129.347-.129.326 0 .657.129.994.385.346.257.572.513.677.77.043.075.064.235.064.481 0 .332-.037.893-.111 1.684a9.202 9.202 0 0 0-.063.658 30.65 30.65 0 0 1-.142 1.54c-.115 1.197-.2 2.132-.252 2.806a24.197 24.197 0 0 0-.079 1.892c0 .3.005.52.016.658v.112l-.016.37c-.063.063-.189.096-.378.096-.211 0-.421-.038-.631-.113-.21-.064-.326-.144-.347-.24a.173.173 0 0 0-.047-.032c-.021-.011-.032-.06-.032-.145l.016-.353.047-.898.079-2.454-.205.016c-.21 0-.657.043-1.34.129-.673.085-1.098.155-1.277.208-.095 0-.21.064-.347.193a1.832 1.832 0 0 0-.362.497 2.55 2.55 0 0 1-.221.465c-.116.192-.174.305-.174.337a.677.677 0 0 0-.173.176 1.782 1.782 0 0 0-.079.129c0 .117-.105.422-.315.914-.2.48-.4.876-.599 1.187l-.426.609-.552-.433Zm3.768-5.517.442-.064a4.51 4.51 0 0 1 .583-.08c.505-.129.852-.193 1.041-.193a.52.52 0 0 1 .22.032.423.423 0 0 0 .095.096.46.46 0 0 0 .079.016c.021-.085.105-.668.252-1.748.147-1.08.221-1.743.221-1.989 0-.17-.005-.315-.016-.433a1.46 1.46 0 0 0-.031-.24c-.095 0-.31.256-.647.77a14.936 14.936 0 0 0-.977 1.716c-.242.438-.41.657-.505.657-.073.075-.231.326-.473.754-.242.428-.336.663-.284.706Zm6.319 5.389c-.105 0-.263-.054-.473-.16-.211-.108-.316-.22-.316-.338a1.05 1.05 0 0 0-.015-.128.722.722 0 0 0-.063-.192c0-.268.026-.481.078-.642 0-.118.016-.246.048-.385.031-.139.068-.251.11-.337 0-.085.021-.197.063-.336.042-.15.068-.252.079-.305l.095-.337.268-.818a2.45 2.45 0 0 0 .11-.32 1.01 1.01 0 0 0 .031-.241c.064-.214.142-.487.237-.818.095-.331.173-.62.236-.866.053-.054.079-.134.079-.24.021-.065.069-.215.142-.45a17.7 17.7 0 0 1 .252-.77c.158-.47.279-.855.363-1.154.084-.3.126-.508.126-.626a.378.378 0 0 0-.047-.192 1.346 1.346 0 0 0-.047-.129.906.906 0 0 1-.063-.192c0-.043.021-.086.063-.128a.501.501 0 0 0 .094-.129c.032-.053.053-.09.063-.112 0-.043.258-.166.773-.369.525-.214.93-.363 1.214-.449h.962c.294.043.583.129.867.257.284.128.52.288.709.48.326.311.62.765.883 1.364 0 .043.011.14.032.289.031.139.047.262.047.369 0 .502-.179 1.08-.536 1.732a5.713 5.713 0 0 1-1.435 1.732 4.15 4.15 0 0 1-1.103.641c-.379.15-.741.225-1.088.225-.158 0-.305-.016-.442-.048a.802.802 0 0 1-.41-.32 1.05 1.05 0 0 1-.11-.466c0-.139.021-.23.063-.273.042-.01.158-.016.347-.016.189 0 .468-.07.835-.208.274-.096.494-.198.663-.305.494-.32.93-.791 1.308-1.411.211-.342.316-.856.316-1.54.021-.107.031-.187.031-.24a.63.63 0 0 0-.284-.53c-.178-.15-.436-.24-.772-.272a1.295 1.295 0 0 0-.237-.016c-.199 0-.41.026-.63.08-.221.053-.379.112-.473.176-.032 0-.058.038-.079.112a1.176 1.176 0 0 1-.079.209c0 .085-.037.246-.11.481a8.273 8.273 0 0 1-.205.658l-.205.61c-.137.352-.232.63-.284.833a5.373 5.373 0 0 1-.126.45c-.053.149-.09.245-.111.288 0 .021-.031.117-.094.288a4.992 4.992 0 0 0-.142.433 7.332 7.332 0 0 1-.394 1.38c-.242.802-.363 1.363-.363 1.684a.53.53 0 0 0 .047.256c.179.011.305.032.379.064.084.022.126.07.126.145 0 .128-.168.406-.505.834-.094.246-.194.422-.299.53-.105.106-.195.165-.268.175a1.273 1.273 0 0 1-.331.033Zm13.909.994a.707.707 0 0 1-.236-.064.7.7 0 0 1-.237-.145c-.126-.128-.189-.32-.189-.577 0-.577-.011-.957-.032-1.139l-.015-.962c0-.246.015-.395.047-.449a1.302 1.302 0 0 1-.016-.24c0-.097.005-.209.016-.337.021-.14.031-.246.031-.321l-.063-.433h-.851c-.063.01-.2.016-.41.016-.284 0-.962-.032-2.034-.096l-.205.337c-.01.01-.063.08-.158.208-.084.128-.173.32-.268.577-.094.257-.22.551-.378.883a4.833 4.833 0 0 1-.41.77c-.158.299-.305.518-.441.657-.127.139-.221.208-.284.208h-.079a.499.499 0 0 1-.189-.032.633.633 0 0 1-.189-.112c-.284-.128-.426-.32-.426-.577 0-.182.084-.396.252-.642l.205-.337c0-.064.153-.4.457-1.01.316-.62.521-.952.615-.994.095-.097.142-.193.142-.29 0-.106-.063-.213-.189-.32a.267.267 0 0 1-.11-.128.666.666 0 0 1-.032-.209.53.53 0 0 1 .158-.385c.105-.106.268-.155.489-.144.052-.032.099-.059.141-.08l.111-.048c.031-.022.047-.048.047-.08 0-.054.084-.246.252-.578a5.05 5.05 0 0 1 .473-.77c.105-.288.195-.497.268-.625.084-.128.137-.22.158-.273.053-.053.158-.23.315-.529.021-.032.09-.15.205-.353.105-.107.211-.23.316-.369l.22-.288c.042-.075.106-.166.19-.273.052-.128.147-.283.283-.465.137-.193.221-.31.253-.353.157-.192.347-.347.567-.465.221-.128.426-.193.615-.193.105 0 .195.017.268.049.263.117.494.336.694.657.2.32.315.695.347 1.123l.063.497c.042.257.063.481.063.674 0 .139-.016.25-.047.336v.706c0 .353.01.615.031.786-.031.117-.047.31-.047.577l.016.626c0 .16-.006.294-.016.4l-.016.594-.016.593c-.01.268-.015.605-.015 1.01l.015 1.268c0 .727-.063 1.256-.189 1.588-.115.331-.294.513-.536.545Zm-3.185-5.998c.053-.01.184-.027.394-.048.211-.022.437-.027.678-.016.295-.022.489-.032.584-.032.136 0 .273.005.41.016a.984.984 0 0 0 .252-.017c.2.011.299-.176.299-.56a29.53 29.53 0 0 1-.11-2.439l.016-.497a3.44 3.44 0 0 0-.047-.545 7.921 7.921 0 0 0-.048-.385c-.042-.053-.194.123-.457.53-.252.406-.468.77-.646 1.09a3.235 3.235 0 0 0-.253.449 6.49 6.49 0 0 0-.173.305 3.655 3.655 0 0 1-.205.385c-.515.834-.773 1.368-.773 1.603 0 .075.027.129.079.16Zm9.436 5.95a.705.705 0 0 1-.237.064.466.466 0 0 1-.252-.08c-.305 0-.52-.022-.646-.064l.094.064c-.546-.107-1.077-.412-1.592-.914-.505-.503-.831-1.032-.978-1.588a4.953 4.953 0 0 1-.063-.305.9.9 0 0 1-.016-.272.84.84 0 0 1 .363-.562c.2-.15.42-.224.662-.224a.88.88 0 0 1 .284.048.88.88 0 0 1 .11.369c0 .064-.015.155-.047.272.158.546.452.973.883 1.283.431.31.925.465 1.482.465a2.42 2.42 0 0 0 1.277-.352c.4-.246.694-.583.883-1.01.042-.097.074-.21.095-.338.031-.139.063-.256.094-.352a.346.346 0 0 1 .063-.113c.011-.064.016-.165.016-.304a2.53 2.53 0 0 0-.221-1.043c-.136-.331-.336-.55-.599-.657a4.34 4.34 0 0 1-.425-.08 2.177 2.177 0 0 0-.536-.097.92.92 0 0 0-.205.016l-.253-.096a4.234 4.234 0 0 1-.441-.545 1.105 1.105 0 0 1-.142-.546c0-.15.031-.31.095-.48.073 0 .168-.017.283-.049.126-.032.221-.048.284-.048a2.44 2.44 0 0 0 1.388-.401c.399-.267.704-.62.914-1.058a3.125 3.125 0 0 0 .3-1.845c-.221-.192-.505-.288-.852-.288-.389 0-.804.101-1.245.304-.431.193-.757.422-.978.69-.2-.01-.399-.08-.599-.209a1.625 1.625 0 0 1-.457-.513.98.98 0 0 1-.111-.61 2.808 2.808 0 0 1 1.167-.881 3.886 3.886 0 0 1 1.561-.321c.536 0 1.035.101 1.498.304.473.204.851.503 1.135.899.294.395.442.871.442 1.427 0 .214-.021.422-.064.626-.094.48-.31.962-.646 1.443a4.62 4.62 0 0 1-1.135 1.139 2.77 2.77 0 0 1 1.135 1.203c.263.513.394 1.069.394 1.668 0 .47-.136 1-.41 1.587-.263.588-.567 1.043-.914 1.364a1.003 1.003 0 0 1-.221.16 3.343 3.343 0 0 0-.236.144l-.205.144a7.882 7.882 0 0 1-1.12.434 3.22 3.22 0 0 1-1.056.128Zm6.804-2.181c-.22.075-.388.112-.504.112-.179 0-.357-.07-.536-.209-.158-.16-.237-.32-.237-.48 0-.268.195-.54.584-.819.21-.139.373-.208.489-.208.084 0 .225.043.425.128.316.214.473.433.473.658 0 .3-.231.572-.694.818Zm3.284 0c-.221.075-.389.112-.505.112-.178 0-.357-.07-.536-.209-.158-.16-.236-.32-.236-.48 0-.268.194-.54.583-.819.21-.139.373-.208.489-.208.084 0 .226.043.425.128.316.214.473.433.473.658 0 .3-.231.572-.693.818Z" fill="#1EA6F9"/></svg>