<svg width="378" height="716" fill="none" xmlns="http://www.w3.org/2000/svg"><g clip-path="url(#a)"><path d="M67.255 145.985a5.967 5.967 0 0 1-1.5-.8 3.078 3.078 0 0 1-1.025-1.325c-.267-.75-.4-1.634-.4-2.65 0-.984.058-1.817.175-2.5.117-.7.317-1.409.6-2.125l.225-.525c.267-.684.458-1.134.575-1.35.283-.65.783-1.492 1.5-2.525.666-1 1.192-1.742 1.575-2.225.4-.5.808-.925 1.225-1.275.416-.367 1.025-.825 1.825-1.375.483-.35 1.075-.525 1.775-.525.55 0 1.05.133 1.5.4.466.266.816.683 1.05 1.25.166.283.25.675.25 1.175 0 .8-.192 1.666-.575 2.6-.383.933-.842 1.641-1.375 2.125a.645.645 0 0 1-.475.175c-.2 0-.417-.059-.65-.175a2.787 2.787 0 0 1-.625-.425 6.218 6.218 0 0 1-.25-.5c-.017-.05.016-.084.1-.1.15-.184.367-.534.65-1.05.3-.534.5-.95.6-1.25l.15-.7c.1-.434.15-.717.15-.85a.55.55 0 0 0-.175-.4.27.27 0 0 0-.2-.075c-.134 0-.367.083-.7.25-.383.166-.842.508-1.375 1.025-.517.5-1.034 1.1-1.55 1.8-.767 1-1.359 1.825-1.775 2.475-.4.65-.709 1.308-.925 1.975l-.275.65c.017.066-.008.233-.075.5a3.26 3.26 0 0 1-.225.65c-.234.966-.35 1.841-.35 2.625 0 .616.058 1.15.175 1.6.133.45.316.783.55 1 .133.116.325.175.575.175.266 0 .566-.059.9-.175.35-.134.717-.284 1.1-.45l.8-.35c.383-.15.742-.325 1.075-.525.35-.2.608-.384.775-.55.433-.317.783-.475 1.05-.475.216-.067.383 0 .5.2.133.2.2.475.2.825 0 .233-.158.516-.475.85-.317.316-.692.6-1.125.85-.183.183-.592.4-1.225.65a9.479 9.479 0 0 1-1.875 1.025c-.7.3-1.342.45-1.925.45-.133 0-.3-.017-.5-.05ZM90.46 127.16c.3.083.55.258.75.525a1.358 1.358 0 0 1 .225 1.3c-.033.166-.142.441-.325.825l-.95 2.2c-.55 1.316-.883 2.066-1 2.25-.417.85-.783 1.525-1.1 2.025-.4.716-.992 1.683-1.775 2.9-.15.233-.467.675-.95 1.325a29.427 29.427 0 0 1-.975 1.275 8.978 8.978 0 0 1-.9 1.125c-.3.333-.733.783-1.3 1.35l-.6.625c-.15.2-.383.441-.7.725-.2.266-.45.4-.75.4-.183 0-.367-.059-.55-.175-.45-.284-.675-.592-.675-.925 0-.1.025-.217.075-.35.05-.117.35-.459.9-1.025a25.97 25.97 0 0 1 1.375-1.375 45.45 45.45 0 0 0 1.25-1.475 10.217 10.217 0 0 1-1.025-1.7c-.3-.65-.492-1.167-.575-1.55l-.425-2.2a1.553 1.553 0 0 0 0-.55l-.05-.3-.075-4.425.175-2.2v-.375c0-.217.058-.417.175-.6.117-.184.308-.275.575-.275.333-.05.675.091 1.025.425.35.316.525.641.525.975a.719.719 0 0 1-.075.325c-.05.1-.075.2-.075.3v.3c0 .166-.008.3-.025.4-.033.333-.067.8-.1 1.4a65.35 65.35 0 0 0-.025 1.85c0 .5.008.825.025.975l.225 2.175c.017.35.125.891.325 1.625.217.716.425 1.333.625 1.85l.325-.425c.25-.284.417-.525.5-.725.117-.267.308-.609.575-1.025.2-.3.333-.525.4-.675.183-.334.358-.634.525-.9.233-.367.392-.634.475-.8l1.625-3.075c.117-.384.242-.75.375-1.1.15-.434.292-.892.425-1.375.15-.484.25-.909.3-1.275.1-.384.325-.575.675-.575h.225a1.04 1.04 0 0 1 .325 0Zm12.199 18.4c-.066.066-.241.1-.525.1-.366 0-.708-.092-1.025-.275-.3-.167-.45-.459-.45-.875 0-.234.059-.492.175-.775.567-1.467 1.35-3.7 2.35-6.7.134-.45.35-1.109.65-1.975 0 .033.184-.542.55-1.725.267-.784.467-1.434.6-1.95.15-.534.267-1.084.35-1.65a3.449 3.449 0 0 0-.725-.075h-.45c-.3 0-.525-.017-.675-.05-.166-.034-.45-.05-.85-.05a16.033 16.033 0 0 0-1.6.075c-.133.016-.291.033-.475.05a6.897 6.897 0 0 1-.6.025l-.2.1-.375.9c-.083.2-.191.45-.325.75-.133.3-.275.65-.425 1.05-.1.25-.2.475-.3.675l-.225.5-.325.65-.375.95-.4.95c-.183.433-.4.925-.65 1.475a80.57 80.57 0 0 0-.875 2.1c-.616 1.6-1.066 2.866-1.35 3.8a12.31 12.31 0 0 0-.15.625c-.066.3-.141.525-.225.675a.883.883 0 0 1-.4.45c-.166.1-.358.15-.575.15-.283 0-.533-.059-.75-.175-.25-.134-.433-.267-.55-.4a.733.733 0 0 1-.175-.5c0-.167.034-.35.1-.55.784-2.584 1.675-4.892 2.675-6.925.134-.267.275-.584.425-.95.15-.367.259-.642.325-.825.317-.867.567-1.467.75-1.8a22.276 22.276 0 0 0 1.4-3.275c-.083.066-.225.1-.425.1-.15 0-.35-.017-.6-.05a2.8 2.8 0 0 0-.55-.075 1.88 1.88 0 0 1-.475-.625 2.165 2.165 0 0 1-.175-.825c0-.234.05-.434.15-.6.084-.15.167-.25.25-.3a.66.66 0 0 1 .375-.1h1.925c.15 0 .309-.067.475-.2.017-.017.075-.059.175-.125a.71.71 0 0 1 .4-.1c.067 0 .184.016.35.05.25.083.534.125.85.125a6.27 6.27 0 0 0 1.075-.125c.267-.067.634-.1 1.1-.1l.95.025c.184.016.425.025.725.025.117 0 .259.016.425.05.184.033.334.058.45.075.134.016.367.025.7.025.567.016 1.05.058 1.45.125.4.05.709.158.925.325.15.116.292.275.425.475.134.183.2.35.2.5 0 .133-.266 1.125-.8 2.975-.516 1.833-.833 2.866-.95 3.1-.316.816-.783 2.208-1.4 4.175l-.8 2.45a17.71 17.71 0 0 0-.275.85c-.2.616-.425 1.258-.675 1.925-.233.666-.425 1.1-.575 1.3Zm10.653.025c-.783 0-1.425-.05-1.925-.15a2.875 2.875 0 0 1-1.3-.575c-.8-.6-1.2-1.492-1.2-2.675 0-.5.092-1.117.275-1.85.083-.434.175-.8.275-1.1.117-.317.217-.475.3-.475l.175-.925c.017-.1.05-.234.1-.4.05-.184.092-.317.125-.4a.644.644 0 0 1 .15-.225c.067-.05.167-.275.3-.675 0-.034.008-.109.025-.225.017-.117.058-.25.125-.4.25-.417.375-.692.375-.825.017-.05.083-.15.2-.3s.208-.325.275-.525l.325-.575c.5-.884.858-1.525 1.075-1.925.217-.417.35-.759.4-1.025a5.64 5.64 0 0 0 .2-.625c.1-.3.208-.509.325-.625-.05-.1.117-.225.5-.375.4-.15.883-.292 1.45-.425.583-.134 1.1-.217 1.55-.25.1-.067.325-.117.675-.15.35-.034.742-.05 1.175-.05.3 0 .717.016 1.25.05.267 0 .492.033.675.1.2.05.375.116.525.2a7.2 7.2 0 0 1 .325.15l.325.325c.2.166.3.341.3.525 0 .166-.108.308-.325.425-.05.05-.325.091-.825.125-.483.033-1.008.05-1.575.05a9.7 9.7 0 0 0-1.975.225c-.25.05-.442.075-.575.075-.2.066-.45.108-.75.125-.283.016-.467.025-.55.025-.067 0-.3.316-.7.95-.383.633-.583 1.008-.6 1.125a.93.93 0 0 1-.15.475c-.1.166-.275.425-.525.775-.217.3-.325.583-.325.85 0 .166.05.266.15.3a28.88 28.88 0 0 1 1.925-.225c.767-.084 1.325-.125 1.675-.125.183-.05.333-.075.45-.075.233 0 .45.058.65.175.267.05.4.225.4.525a.742.742 0 0 1-.1.375c-.05.116-.117.191-.2.225-.15.15-.667.341-1.55.575-.867.233-1.775.45-2.725.65-.95.183-1.483.258-1.6.225-.05-.117-.1-.175-.15-.175-.167 0-.375.55-.625 1.65-.3.666-.483 1.108-.55 1.325-.067.2-.167.675-.3 1.425-.067.3-.1.508-.1.625 0 .65.383 1.15 1.15 1.5.283.05.575.075.875.075.55 0 1.217-.1 2-.3.067-.034.575-.317 1.525-.85.05 0 .175-.034.375-.1.217-.084.342-.125.375-.125.133-.184.3-.275.5-.275.05 0 .158.083.325.25.167.166.317.366.45.6.133.216.2.441.2.675 0 .166-.25.375-.75.625-.483.233-1.208.541-2.175.925-.7.3-1.192.491-1.475.575-.283.083-.683.125-1.2.125Zm10.463.425a13.282 13.282 0 0 0-.4-.175 2.174 2.174 0 0 1-.575-.325c-.167-.134-.25-.267-.25-.4-.033-.067-.033-.192 0-.375.033-.184.117-.509.25-.975l.15-.55c.15-.484.225-.734.225-.75a.106.106 0 0 0 .075.025c.15 0 .225-.2.225-.6-.017-.067 0-.175.05-.325.067-.15.142-.3.225-.45 0-.117.067-.542.2-1.275a21.21 21.21 0 0 1 1.325-3.375c.017-.134.075-.325.175-.575.1-.25.175-.409.225-.475.033-.25.125-.567.275-.95.15-.4.3-.667.45-.8 0-.184.142-.592.425-1.225.283-.634.45-.95.5-.95 0-.017.017-.075.05-.175.05-.117.142-.267.275-.45 0-.084.017-.192.05-.325a.55.55 0 0 1 .225-.325c.017-.05.042-.15.075-.3.033-.15.042-.25.025-.3 0-.05-.017-.084-.05-.1a.82.82 0 0 1-.05-.3c0-.234.15-.359.45-.375.1 0 .217-.142.35-.425.067-.134.25-.25.55-.35.3-.1.733-.209 1.3-.325l1.325-.225c.283 0 .6.016.95.05.35.033.633.075.85.125.617.3 1.15.716 1.6 1.25.467.516.7.975.7 1.375 0 .5-.2 1.308-.6 2.425-.383 1.116-.717 1.783-1 2 .083 0 .05.091-.1.275-.15.183-.342.375-.575.575-.217.2-.383.316-.5.35 0 .033-.067.15-.2.35-.133.2-.292.35-.475.45-.05.033-.225.141-.525.325-.3.183-.525.391-.675.625 0-.084-.025-.125-.075-.125-.067 0-.167.058-.3.175-.117.1-.208.166-.275.2-.35.216-.642.358-.875.425a11.63 11.63 0 0 1-1.075.225c-.117.1-.417.15-.9.15l-.925-.125-.525 1.5c-.233.733-.5 1.5-.8 2.3a31.58 31.58 0 0 0-.35.95c-.167.45-.325.933-.475 1.45-.05.283-.142.525-.275.725-.117.216-.25.366-.4.45-.133.083-.242.091-.325.025Zm4.05-9.325c.75-.067 1.325-.2 1.725-.4.417-.2.892-.559 1.425-1.075l.775-.775c.467-.45.858-.892 1.175-1.325.45-.667.675-1.35.675-2.05 0-.334-.058-.617-.175-.85-.3-.434-.708-.65-1.225-.65-.45 0-.933.15-1.45.45-.167.066-.508.616-1.025 1.65a38.147 38.147 0 0 0-1.375 3.15c-.4 1.066-.575 1.691-.525 1.875Zm10.564 3.625a.782.782 0 0 1-.225.025.948.948 0 0 1-.775-.375c-.183-.267-.275-.667-.275-1.2 0-.417.075-.934.225-1.55.234-.467.35-.817.35-1.05.084-.284.217-.642.4-1.075.184-.45.334-.792.45-1.025.067 0 .134-.059.2-.175a.597.597 0 0 0 .125-.35c0-.15.025-.3.075-.45a1.08 1.08 0 0 1 .2-.35c0-.05.034-.134.1-.25.067-.134.1-.225.1-.275 0-.034.017-.084.05-.15a.43.43 0 0 0 .075-.2c.3-.5.734-1.442 1.3-2.825.567-1.384.859-2.184.875-2.4.067-.384.217-.55.45-.5.084-.067.284-.1.6-.1.05.016.142.058.275.125.134.066.25.158.35.275a.671.671 0 0 1 .2.425c.034.166.05.383.05.65-.016.25-.091.525-.225.825-.133.283-.291.583-.475.9-.183.316-.308.541-.375.675l-.325.6c-.266.466-.4.741-.4.825 0 .066-.041.191-.125.375-.083.166-.15.308-.2.425a5.785 5.785 0 0 0-.425.9c-.133.383-.2.616-.2.7a3.255 3.255 0 0 0-.075.175.431.431 0 0 1-.125.225c-.05 0-.083.041-.1.125a.714.714 0 0 0-.025.15c0 .083-.041.25-.125.5-.083.25-.2.525-.35.825-.566 1.616-.875 2.766-.925 3.45-.033.35-.116.6-.25.75a1.41 1.41 0 0 1-.45.375Zm-1.325 3.875c-.316.133-.583.2-.8.2-.25 0-.533-.117-.85-.35-.25-.25-.375-.5-.375-.75 0-.417.309-.834.925-1.25.367-.234.634-.35.8-.35.117 0 .334.066.65.2.5.316.75.658.75 1.025 0 .466-.366.891-1.1 1.275Zm24.354-17.025c.3.083.55.258.75.525a1.358 1.358 0 0 1 .225 1.3c-.033.166-.142.441-.325.825l-.95 2.2c-.55 1.316-.883 2.066-1 2.25-.417.85-.783 1.525-1.1 2.025-.4.716-.992 1.683-1.775 2.9-.15.233-.467.675-.95 1.325a29.942 29.942 0 0 1-.975 1.275 8.906 8.906 0 0 1-.9 1.125c-.3.333-.733.783-1.3 1.35l-.6.625c-.15.2-.383.441-.7.725-.2.266-.45.4-.75.4-.183 0-.367-.059-.55-.175-.45-.284-.675-.592-.675-.925 0-.1.025-.217.075-.35.05-.117.35-.459.9-1.025a25.855 25.855 0 0 1 1.375-1.375 45.312 45.312 0 0 0 1.25-1.475 10.224 10.224 0 0 1-1.025-1.7c-.3-.65-.492-1.167-.575-1.55l-.425-2.2a1.522 1.522 0 0 0 0-.55l-.05-.3-.075-4.425.175-2.2v-.375c0-.217.058-.417.175-.6.117-.184.308-.275.575-.275.333-.05.675.091 1.025.425.35.316.525.641.525.975a.719.719 0 0 1-.075.325c-.05.1-.075.2-.075.3v.3c0 .166-.008.3-.025.4-.033.333-.067.8-.1 1.4a65.35 65.35 0 0 0-.025 1.85c0 .5.008.825.025.975l.225 2.175c.017.35.125.891.325 1.625.217.716.425 1.333.625 1.85l.325-.425c.25-.284.417-.525.5-.725.117-.267.308-.609.575-1.025.2-.3.333-.525.4-.675.183-.334.358-.634.525-.9.233-.367.392-.634.475-.8l1.625-3.075c.117-.384.242-.75.375-1.1.15-.434.292-.892.425-1.375.15-.484.25-.909.3-1.275.1-.384.325-.575.675-.575h.225a1.04 1.04 0 0 1 .325 0Zm3.149 18.825a5.991 5.991 0 0 1-1.5-.8 3.086 3.086 0 0 1-1.025-1.325c-.266-.75-.4-1.634-.4-2.65 0-.984.059-1.817.175-2.5.117-.7.317-1.409.6-2.125l.225-.525c.267-.684.459-1.134.575-1.35.284-.65.784-1.492 1.5-2.525.667-1 1.192-1.742 1.575-2.225.4-.5.809-.925 1.225-1.275.417-.367 1.025-.825 1.825-1.375.484-.35 1.075-.525 1.775-.525.55 0 1.05.133 1.5.4.467.266.817.683 1.05 1.25.167.283.25.675.25 1.175 0 .8-.191 1.666-.575 2.6-.383.933-.841 1.641-1.375 2.125a.643.643 0 0 1-.475.175c-.2 0-.416-.059-.65-.175a2.81 2.81 0 0 1-.625-.425 6.336 6.336 0 0 1-.25-.5c-.016-.05.017-.084.1-.1.15-.184.367-.534.65-1.05.3-.534.5-.95.6-1.25l.15-.7c.1-.434.15-.717.15-.85a.548.548 0 0 0-.175-.4.27.27 0 0 0-.2-.075c-.133 0-.366.083-.7.25-.383.166-.841.508-1.375 1.025-.516.5-1.033 1.1-1.55 1.8-.766 1-1.358 1.825-1.775 2.475-.4.65-.708 1.308-.925 1.975l-.275.65c.017.066-.008.233-.075.5a3.173 3.173 0 0 1-.225.65c-.233.966-.35 1.841-.35 2.625 0 .616.059 1.15.175 1.6.134.45.317.783.55 1 .134.116.325.175.575.175.267 0 .567-.059.9-.175.35-.134.717-.284 1.1-.45l.8-.35c.384-.15.742-.325 1.075-.525.35-.2.609-.384.775-.55.434-.317.784-.475 1.05-.475.217-.067.384 0 .5.2.134.2.2.475.2.825 0 .233-.158.516-.475.85-.316.316-.691.6-1.125.85-.183.183-.591.4-1.225.65a9.462 9.462 0 0 1-1.875 1.025c-.7.3-1.341.45-1.925.45-.133 0-.3-.017-.5-.05Zm11.531-.625c-.117-.167-.317-.284-.6-.35-.267-.05-.7-.059-1.3-.025-.35.05-.709-.009-1.075-.175-.35-.167-.492-.359-.425-.575.016-.217.258-.434.725-.65.483-.234 1.058-.359 1.725-.375l1.05-.025.25-.5c.05-.1.083-.2.1-.3.016-.117.041-.217.075-.3l.225-.9.375-1.2c.5-1.517.825-2.584.975-3.2.083-.2.216-.6.4-1.2.183-.6.325-1.092.425-1.475.766-2.35 1.083-3.542.95-3.575-.167-.017-.609.016-1.325.1-.717.066-1.117.125-1.2.175-.084.116-.225.1-.425-.05-.2-.15-.325-.317-.375-.5a.868.868 0 0 1-.025-.25c0-.234.058-.384.175-.45.166-.15.591-.317 1.275-.5.7-.184 1.35-.317 1.95-.4.283-.034.566-.092.85-.175.3-.1.525-.217.675-.35.35-.117.641-.167.875-.15.116.083.4.125.85.125.383 0 .675-.009.875-.025.433-.034.733-.05.9-.05 1 0 1.6.233 1.8.7.033.166.05.291.05.375a.713.713 0 0 1-.2.525c-.117.133-.284.191-.5.175-.3.083-.859.133-1.675.15-1.1.1-1.692.216-1.775.35-.084.083-.15.158-.2.225a1.423 1.423 0 0 1-.125.2c.016.15-.134.691-.45 1.625l-.45 1.325c-.467 1.45-.767 2.341-.9 2.675-.117.283-.2.575-.25.875-.134.45-.259.883-.375 1.3-.1.4-.209.783-.325 1.15l-.975 3.475 1.5-.125c.983-.1 1.575-.15 1.775-.15.166 0 .275.016.325.05.05.033.083.091.1.175a.74.74 0 0 0 .05.15c.15.2.225.391.225.575 0 .3-.2.541-.6.725-.4.183-.95.266-1.65.25-.75.033-1.359.058-1.825.075-.467.033-.759.075-.875.125-.117.05-.175.133-.175.25a.356.356 0 0 1-.15.35.668.668 0 0 1-.45.15c-.317 0-.6-.134-.85-.4Zm16.084 1.25-.6-.2c-.3-.084-.509-.125-.625-.125a.911.911 0 0 1-.5-.325.978.978 0 0 1-.175-.575c0-.117.008-.209.025-.275.05-.05.091-.184.125-.4.05-.2.075-.384.075-.55.05-.1.091-.2.125-.3.033-.117.075-.275.125-.475.133-.734.441-1.967.925-3.7.483-1.734.783-2.659.9-2.775v-.275c0-.05.016-.15.05-.3a1.34 1.34 0 0 1 .225-.475c.066-.2.116-.392.15-.575.05-.2.083-.35.1-.45.066-.084.175-.334.325-.75.166-.417.275-.692.325-.825.116-.317.258-.684.425-1.1.183-.434.308-.717.375-.85v-.125c.033-.034.116-.2.25-.5.15-.317.275-.584.375-.8.116-.267.425-.959.925-2.075.033-.067.125-.259.275-.575.15-.317.225-.517.225-.6.166-.184.35-.275.55-.275.25 0 .483.116.7.35.233.216.416.45.55.7l.25.4-.925 1.8c-.25.45-.475.875-.675 1.275-.2.383-.3.608-.3.675-.05.116-.142.358-.275.725l-.4 1.25a19.026 19.026 0 0 1-.575 1.425c-.134.266-.2.425-.2.475 0-.067.925-.1 2.775-.1.283 0 .8-.009 1.55-.025.75-.017 1.225-.042 1.425-.075l1.3-.125.7-2.225c.166-.584.533-1.717 1.1-3.4.233-.7.5-1.217.8-1.55.3-.35.566-.525.8-.525.066 0 .233.1.5.3.283.183.45.341.5.475.183.183.275.375.275.575 0 .233-.134.558-.4.975-.2.35-.484 1.008-.85 1.975-.15.45-.242.708-.275.775 0 .35-.084.608-.25.775-.067.066-.184.308-.35.725-.167.4-.25.633-.25.7 0 .133-.025.283-.075.45a.845.845 0 0 1-.175.325l-.175.6c-.584 2.116-1.042 3.583-1.375 4.4 0 .083-.042.233-.125.45-.084.216-.125.366-.125.45-.034.116-.109.35-.225.7-.117.35-.175.558-.175.625a32.133 32.133 0 0 0-.35 1.825c-.117.7-.192 1.191-.225 1.475-.284.033-.517.016-.7-.05a2.272 2.272 0 0 1-.525-.275 6.38 6.38 0 0 0-.35-.2c-.4-.217-.6-.517-.6-.9 0-.217.075-.475.225-.775.05-.084.208-.625.475-1.625l.225-.925c.133-.367.25-.717.35-1.05.1-.35.191-.65.275-.9.266-.967.433-1.484.5-1.55v-.25c-.05-.084-.542-.125-1.475-.125-1.017 0-2.075.066-3.175.2h-2.15c-.084.183-.325.916-.725 2.2-.4 1.266-.625 2.075-.675 2.425-.117.55-.3 1.308-.55 2.275-.25.983-.442 1.7-.575 2.15Zm16.731-1.3c-.4-.034-.8-.159-1.2-.375-.4-.217-.767-.442-1.1-.675-.334-.234-.559-.392-.675-.475a3.245 3.245 0 0 1-.65-.9c-.15-.334-.275-.767-.375-1.3-.034-.2-.05-.375-.05-.525 0-.5.083-1.109.25-1.825.183-.734.366-1.3.55-1.7.366-.884 1.175-2.3 2.425-4.25l.125-.125c.033-.034.041-.05.025-.05v-.025c0-.117.241-.634.725-1.55.283-.3.425-.559.425-.775a.447.447 0 0 0-.075-.275c-.05-.067.016-.209.2-.425.183-.234.433-.484.75-.75a6.152 6.152 0 0 1 1.05-.725c.45-.35.891-.525 1.325-.525.133 0 .241.025.325.075.1.033.158.091.175.175 0 .1.333.066 1-.1.3-.067.516-.109.65-.125.066-.084.233-.15.5-.2a12.44 12.44 0 0 1 1.175-.2c.266.016.591.016.975 0 .4-.017.658-.034.775-.05.116-.034.283.041.5.225.233.183.416.416.55.7.033.1.05.175.05.225 0 .25-.159.466-.475.65-.317.166-.775.283-1.375.35a37.454 37.454 0 0 0-3.375.6l-.525.1c-.517.083-.9.191-1.15.325-.25.133-.517.425-.8.875-.117.083-.267.3-.45.65-.184.333-.367.683-.55 1.05l-.5.675c-.384.516-.625.858-.725 1.025-.084.15-.1.258-.05.325.066.016.183.041.35.075.183.033.333.058.45.075.15-.084.358-.142.625-.175.266-.034.458-.067.575-.1l.55-.15c1.033-.267 1.791-.459 2.275-.575.483-.117.841-.192 1.075-.225a.462.462 0 0 1 .3-.1c.183 0 .358.091.525.275.183.166.316.366.4.6.066.233.1.383.1.45 0 .283-.167.5-.5.65-.334.133-1 .316-2 .55-1.45.35-2.359.575-2.725.675-1.084.316-1.884.475-2.4.475-.434 0-.642-.142-.625-.425-.15-.084-.325.066-.525.45-.2.383-.375.858-.525 1.425-.134.566-.2 1.058-.2 1.475 0 .216.025.4.075.55.15.4.375.741.675 1.025.3.266.716.475 1.25.625a7.212 7.212 0 0 0 1.05.075c.333 0 .666-.067 1-.2 1.3-.217 2.216-.517 2.75-.9a.566.566 0 0 0 .225-.175c.083-.084.158-.125.225-.125l-.025.05c0 .016.05-.017.15-.1.1-.1.208-.2.325-.3.466-.4.983-.6 1.55-.6.2 0 .366.033.5.1.15.05.233.1.25.15.1.166.05.433-.15.8-.2.366-.517.75-.95 1.15-.417.4-.884.75-1.4 1.05a9.939 9.939 0 0 1-2.75.95c-1 .216-1.967.333-2.9.35Zm14.291-.75c-.767-.267-1.384-.767-1.85-1.5-.45-.734-.675-1.6-.675-2.6 0-.4.033-.767.1-1.1.033-.434.133-.942.3-1.525.1-.3.175-.609.225-.925 0-.034.016-.092.05-.175.033-.084.041-.15.025-.2.1-.25.241-.6.425-1.05.2-.45.325-.7.375-.75.066-.034.1-.075.1-.125a.453.453 0 0 0 .025-.1c0-.217.225-.684.675-1.4.466-.717.966-1.417 1.5-2.1.533-.684.85-1.025.95-1.025.033 0 .075-.034.125-.1.05-.084.083-.125.1-.125.116-.134.583-.375 1.4-.725.816-.367 1.466-.609 1.95-.725a3.072 3.072 0 0 1 1.025-.175c.85 0 1.541.4 2.075 1.2.533.783.808 1.875.825 3.275a9.21 9.21 0 0 0-.125 1.1c-.034.383-.059.6-.075.65-.017.5-.125 1.125-.325 1.875-.184.733-.309 1.108-.375 1.125 0 .05-.017.108-.05.175a.392.392 0 0 0-.05.175c.016.15-.2.675-.65 1.575-.45.883-.709 1.333-.775 1.35a.183.183 0 0 0-.075.025c-.017.016-.017.05 0 .1.016.05-.117.2-.4.45-.267.25-.459.375-.575.375-.017 0-.034.008-.05.025 0 .016.016.05.05.1.033.05-.209.266-.725.65-.5.383-1.042.758-1.625 1.125-.584.35-1.025.558-1.325.625a.446.446 0 0 1-.225.125.86.86 0 0 1-.125.025c-.117.116-.334.216-.65.3-.3.083-.6.125-.9.125-.25 0-.475-.042-.675-.125Zm2.525-2.625c.5-.167 1-.434 1.5-.8.5-.384.8-.734.9-1.05.083-.3.2-.509.35-.625.283-.284.658-.934 1.125-1.95.483-1.034.733-1.734.75-2.1 0-.1.025-.259.075-.475.05-.234.108-.4.175-.5.033-.05.041-.159.025-.325a9.01 9.01 0 0 1-.025-.775c0-.434.008-.809.025-1.125-.05-1.084-.217-1.709-.5-1.875-.134-.1-.359-.15-.675-.15-.084 0-.192.016-.325.05-.084.016-.2.058-.35.125-.15.05-.267.075-.35.075-.234.133-.35.283-.35.45 0 .15-.067.275-.2.375-.117.1-.242.108-.375.025-.3.016-.492.058-.575.125-.084.066-.192.225-.325.475a9.368 9.368 0 0 1-.325.6c-.417.316-.734.65-.95 1-.217.35-.35.641-.4.875-.517.9-.842 1.533-.975 1.9-.117.35-.217.833-.3 1.45-.134.25-.242.541-.325.875-.067.333-.125.55-.175.65-.034.133-.05.308-.05.525 0 .366.025.75.075 1.15.05.383.116.641.2.775.133.45.425.675.875.675.366 0 .858-.142 1.475-.425Zm24.063-14.5c0 .233-.083.475-.25.725-.15.25-.333.425-.55.525-.35.15-1.116.225-2.3.225l-1.625-.025c-.35-.017-.85-.025-1.5-.025-.383 0-.775.016-1.175.05-1.05 1.683-1.808 3.058-2.275 4.125.15.016.367.025.65.025.1 0 .234.008.4.025.184.016.334.033.45.05.55.083 1.159.325 1.825.725.684.4 1.159.825 1.425 1.275.184.15.384.45.6.9.217.45.342.8.375 1.05.017.133.025.333.025.6 0 1.166-.375 2.283-1.125 3.35a9.927 9.927 0 0 1-2.875 2.7c-1.15.716-2.291 1.183-3.425 1.4-.216.05-.741.075-1.575.075-.6 0-.941-.025-1.025-.075-.25-.117-.558-.359-.925-.725-.366-.35-.591-.634-.675-.85a1.288 1.288 0 0 1-.075-.4c0-.184.042-.392.125-.625.1-.25.167-.442.2-.575.084-.25.167-.55.25-.9.084-.367.15-.65.2-.85.35-1.484.7-2.634 1.05-3.45l.4-1.05c.117-.284.225-.6.325-.95.117-.4.225-.734.325-1l.325-.7a57.155 57.155 0 0 1 2-4.125 1.59 1.59 0 0 1-.6-.45 1.1 1.1 0 0 1-.25-.675c0-.517.217-.842.65-.975.434-.134.975-.2 1.625-.2.25 0 .484-.025.7-.075.234-.034.409-.05.525-.05l1.4-.075c1.067-.067 1.884-.1 2.45-.1.717 0 1.417.05 2.1.15.217.05.467.125.75.225.3.1.509.166.625.2.15.083.3.258.45.525Zm-12.2 12.5c-.133.266-.283.725-.45 1.375-.15.65-.258 1.183-.325 1.6.234 0 .567-.05 1-.15.184.033.375.008.575-.075.2-.1.35-.15.45-.15.217-.05.425-.134.625-.25a3.81 3.81 0 0 1 .4-.2c.934-.5 1.784-1.15 2.55-1.95.767-.8 1.15-1.617 1.15-2.45 0-.634-.191-1.125-.575-1.475-.383-.35-.908-.6-1.575-.75-.1-.017-.225-.05-.375-.1a2.488 2.488 0 0 0-.375-.1l-.675.075a9.98 9.98 0 0 0-.8.125 38.636 38.636 0 0 0-1.025 2.475c-.366.966-.558 1.633-.575 2Zm22.896 5.75-.6-.025c-.3-.1-.6-.234-.9-.4-.283-.15-.55-.417-.8-.8a15.88 15.88 0 0 1-1.55-2.2 16.207 16.207 0 0 1-1.05-2.5l-.875-1.825c-.133.166-.25.341-.35.525-.267.416-.408.641-.425.675-.15.216-.333.433-.55.65-.217.2-.417.341-.6.425 0 .083-.042.191-.125.325a1.2 1.2 0 0 1-.25.3 1.13 1.13 0 0 1-.3.325 2.676 2.676 0 0 1-.225.15c0 .066-.225.375-.675.925-.45.55-.908 1.066-1.375 1.55-.467.466-.75.7-.85.7-.1.1-.275.041-.525-.175a3.151 3.151 0 0 1-.6-.75c-.117-.134-.217-.25-.3-.35-.067-.117-.1-.2-.1-.25 0-.05.025-.109.075-.175.067-.084.142-.175.225-.275.1-.067.233-.217.4-.45.183-.234.333-.442.45-.625.233-.1.858-.734 1.875-1.9.333-.317.625-.642.875-.975.267-.35.433-.575.5-.675.083 0 .167-.042.25-.125.083-.084.167-.175.25-.275.083-.117.175-.225.275-.325.1-.167.267-.384.5-.65.233-.267.45-.475.65-.625l.3-.325-.4-1.15c-.3-.817-.675-1.7-1.125-2.65-.433-.967-.775-1.617-1.025-1.95a.742.742 0 0 1-.1-.375c0-.2.058-.392.175-.575.117-.184.25-.367.4-.55.15-.184.267-.334.35-.45.1-.034.183-.05.25-.05.417 0 .85.35 1.3 1.05.45.7.825 1.55 1.125 2.55.1.45.358 1.091.775 1.925l.275.625 1.65-1.7c.617-.534 1.583-1.275 2.9-2.225.583-.417.917-.659 1-.725.217-.134.417-.2.6-.2.1 0 .183.025.25.075a.552.552 0 0 1 .125.075c.15 0 .358.191.625.575.283.383.417.675.4.875-.017.033-.083.1-.2.2-.1.1-.225.175-.375.225-.55.433-.983.691-1.3.775-.167.066-.833.591-2 1.575-1.15.966-2.017 1.75-2.6 2.35l-.575.525.5 1.125c.867 2.083 1.583 3.658 2.15 4.725.583 1.05 1 1.433 1.25 1.15.083-.1.225-.217.425-.35.217-.15.4-.225.55-.225.117 0 .192.041.225.125.017.05.033.166.05.35.017.166.025.366.025.6 0 .483-.058.833-.175 1.05-.1.233-.233.45-.4.65a.508.508 0 0 1-.325.1 3.205 3.205 0 0 1-.25.025h-.125Z" fill="#1EA6F9"/><path d="M265.103 145.36c-.116-.167-.316-.284-.6-.35-.266-.05-.7-.059-1.3-.025-.35.05-.708-.009-1.075-.175-.35-.167-.491-.359-.425-.575.017-.217.259-.434.725-.65.484-.234 1.059-.359 1.725-.375l1.05-.025.25-.5c.05-.1.084-.2.1-.3.017-.117.042-.217.075-.3l.225-.9.375-1.2c.5-1.517.825-2.584.975-3.2.084-.2.217-.6.4-1.2.184-.6.325-1.092.425-1.475.767-2.35 1.084-3.542.95-3.575-.166-.017-.608.016-1.325.1-.716.066-1.116.125-1.2.175-.083.116-.225.1-.425-.05-.2-.15-.325-.317-.375-.5a.906.906 0 0 1-.025-.25c0-.234.059-.384.175-.45.167-.15.592-.317 1.275-.5.7-.184 1.35-.317 1.95-.4.284-.034.567-.092.85-.175.3-.1.525-.217.675-.35.35-.117.642-.167.875-.15.117.083.4.125.85.125.384 0 .675-.009.875-.025.434-.034.734-.05.9-.05 1 0 1.6.233 1.8.7.034.166.05.291.05.375a.71.71 0 0 1-.2.525c-.116.133-.283.191-.5.175-.3.083-.858.133-1.675.15-1.1.1-1.691.216-1.775.35a2.14 2.14 0 0 0-.2.225 1.337 1.337 0 0 1-.125.2c.017.15-.133.691-.45 1.625l-.45 1.325c-.466 1.45-.766 2.341-.9 2.675-.116.283-.2.575-.25.875-.133.45-.258.883-.375 1.3-.1.4-.208.783-.325 1.15l-.975 3.475 1.5-.125c.984-.1 1.575-.15 1.775-.15.167 0 .275.016.325.05.05.033.084.091.1.175a.891.891 0 0 0 .05.15c.15.2.225.391.225.575 0 .3-.2.541-.6.725-.4.183-.95.266-1.65.25-.75.033-1.358.058-1.825.075-.466.033-.758.075-.875.125-.116.05-.175.133-.175.25a.352.352 0 0 1-.15.35.665.665 0 0 1-.45.15c-.316 0-.6-.134-.85-.4Zm23.83-3.925c.333.1.592.291.775.575.183.266.275.558.275.875-.05.75-.267 1.575-.65 2.475-.383.9-.867 1.908-1.45 3.025l-.4.925a.622.622 0 0 1-.45.2c-.367 0-.792-.35-1.275-1.05a2.146 2.146 0 0 1-.05-.375c0-.35.142-.775.425-1.275l.525-.975.35-.7c.183-.334.325-.617.425-.85.1-.25.167-.467.2-.65l-3.4.325-.1-.05a.403.403 0 0 0-.125.025c-.05.016-.108.033-.175.05l-1.575.05h-.275c-.1 0-.175.008-.225.025-.3.066-.617.1-.95.1-.25 0-.467.016-.65.05l-4.125.4-1.1.15c-.233.8-.542 2.025-.925 3.675l-.15.575c-.017.166-.083.283-.2.35-.1.083-.292.166-.575.25h-.45c-.55 0-.825-.317-.825-.95 0-.234.025-.45.075-.65l.55-2.075.425-1.925.35-1.025 1.95-.375c.267-.067.65-.325 1.15-.775.5-.45.942-.942 1.325-1.475.867-1.184 1.542-2.325 2.025-3.425.483-1.1 1.067-2.684 1.75-4.75l.55-1.675.1-.175.25-.825a.917.917 0 0 0-.225-.025.673.673 0 0 1-.2-.025 1.425 1.425 0 0 1-.675-.575 1.708 1.708 0 0 1-.225-.85c0-.184.017-.317.05-.4l.3-.275a.75.75 0 0 1 .325.025c.133.016.258.025.375.025.183 0 .325-.017.425-.05l1.15-.175c.65-.1 1.05-.175 1.2-.225 1.167-.117 2.1-.192 2.8-.225.7-.05 1.458-.075 2.275-.075.333 0 .658.108.975.325.317.216.508.466.575.75.033.583-.308 2-1.025 4.25-.7 2.25-1.383 4.141-2.05 5.675-.183.566-.558 1.558-1.125 2.975l-.475 1.225c.017 0 .233-.075.65-.225.433-.167.842-.25 1.225-.25.1 0 .2.016.3.05Zm-4.225.375c.25-1.1.425-1.817.525-2.15.1-.334.275-.775.525-1.325l1.65-4.4.5-1.5c.633-1.834 1.017-3.042 1.15-3.625l-.6-.025c-.7 0-1.425.05-2.175.15-.75.083-1.283.2-1.6.35l-.3.925c-.15.466-.542 1.483-1.175 3.05a63.602 63.602 0 0 1-2.3 5c-.883 1.75-1.767 3.116-2.65 4.1.65-.017 1.858-.1 3.625-.25 1.783-.167 2.725-.267 2.825-.3Zm9.604 4.825a6.544 6.544 0 0 0-.375-.075 1.423 1.423 0 0 0-.45-.025c-.283-.05-.558-.192-.825-.425-.25-.234-.35-.475-.3-.725.05-.05.092-.184.125-.4.033-.2.05-.384.05-.55.067-.184.142-.45.225-.8.1-.75.358-1.992.775-3.725.433-1.75.708-2.684.825-2.8l-.025-.275a1.933 1.933 0 0 1 .25-.8c.067-.2.117-.392.15-.575.05-.2.075-.35.075-.45.033-.05.15-.35.35-.9l.25-.7c.1-.317.233-.692.4-1.125l.325-.85v-.125c.067-.084.25-.525.55-1.325.15-.334.292-.675.425-1.025.15-.367.3-.725.45-1.075.05-.1.125-.242.225-.425.1-.184.15-.309.15-.375.067-.134.233-.2.5-.2.217 0 .433.05.65.15.217.1.367.233.45.4l.575.4-.85 1.825c-.217.433-.417.858-.6 1.275-.167.4-.25.633-.25.7a30.7 30.7 0 0 1-.225.725 41.31 41.31 0 0 0-.375 1.25c-.067.233-.233.725-.5 1.475-.117.283-.175.441-.175.475 0-.067.9-.134 2.7-.2.3-.017.85-.042 1.65-.075.817-.05 1.325-.1 1.525-.15l1.275-.175.6-2.225c.2-.817.525-1.967.975-3.45.217-.717.475-1.267.775-1.65.3-.4.558-.6.775-.6.417 0 .758.3 1.025.9.2.166.3.358.3.575 0 .216-.125.541-.375.975-.217.4-.475 1.066-.775 2-.05.216-.133.475-.25.775v.1c0 .316-.075.55-.225.7-.05.05-.158.283-.325.7-.15.416-.225.658-.225.725.017.116 0 .266-.05.45-.05.166-.108.283-.175.35-.017.066-.175.733-.475 2-.3 1.266-.6 2.283-.9 3.05.017.083-.017.233-.1.45-.067.216-.1.366-.1.45-.25.8-.367 1.25-.35 1.35a168.05 168.05 0 0 1-.475 2.075c-.15.666-.225 1.008-.225 1.025-.017.033-.092.05-.225.05-.267 0-.55-.059-.85-.175a1.597 1.597 0 0 1-.6-.55 1.207 1.207 0 0 1-.225-.7c0-.217.042-.409.125-.575.067-.117.192-.617.375-1.5l.25-1.075c.083-.267.175-.659.275-1.175.117-.534.2-.909.25-1.125.15-.867.25-1.325.3-1.375v-.25c-.05-.05-.35-.075-.9-.075-.567 0-1.233.033-2 .1-.767.05-1.45.125-2.05.225l-.7.025c-.35 0-.575.008-.675.025-.167 0-.308.008-.425.025h-.225c-.067.15-.258.866-.575 2.15-.317 1.283-.5 2.108-.55 2.475-.15.766-.325 1.583-.525 2.45a44.53 44.53 0 0 1-.45 2Zm16.146-1.275c-.117-.167-.317-.284-.6-.35-.267-.05-.7-.059-1.3-.025-.35.05-.708-.009-1.075-.175-.35-.167-.492-.359-.425-.575.017-.217.258-.434.725-.65.483-.234 1.058-.359 1.725-.375l1.05-.025.25-.5c.05-.1.083-.2.1-.3.017-.117.042-.217.075-.3l.225-.9.375-1.2c.5-1.517.825-2.584.975-3.2.083-.2.217-.6.4-1.2.183-.6.325-1.092.425-1.475.767-2.35 1.083-3.542.95-3.575-.167-.017-.608.016-1.325.1-.717.066-1.117.125-1.2.175-.083.116-.225.1-.425-.05-.2-.15-.325-.317-.375-.5a.868.868 0 0 1-.025-.25c0-.234.058-.384.175-.45.167-.15.592-.317 1.275-.5.7-.184 1.35-.317 1.95-.4a5.24 5.24 0 0 0 .85-.175c.3-.1.525-.217.675-.35.35-.117.642-.167.875-.15.117.083.4.125.85.125.383 0 .675-.009.875-.025.433-.034.733-.05.9-.05 1 0 1.6.233 1.8.7.033.166.05.291.05.375a.713.713 0 0 1-.2.525c-.117.133-.283.191-.5.175-.3.083-.858.133-1.675.15-1.1.1-1.692.216-1.775.35a2.14 2.14 0 0 0-.2.225 1.337 1.337 0 0 1-.125.2c.017.15-.133.691-.45 1.625l-.45 1.325c-.467 1.45-.767 2.341-.9 2.675-.117.283-.2.575-.25.875-.133.45-.258.883-.375 1.3-.1.4-.208.783-.325 1.15l-.975 3.475 1.5-.125c.983-.1 1.575-.15 1.775-.15.167 0 .275.016.325.05.05.033.083.091.1.175a.808.808 0 0 0 .05.15c.15.2.225.391.225.575 0 .3-.2.541-.6.725-.4.183-.95.266-1.65.25-.75.033-1.358.058-1.825.075-.467.033-.758.075-.875.125-.117.05-.175.133-.175.25a.352.352 0 0 1-.15.35.668.668 0 0 1-.45.15c-.317 0-.6-.134-.85-.4ZM55.401 159.01c.317.05.592.208.825.475.233.266.35.558.35.875a.76.76 0 0 1-.025.225 1.484 1.484 0 0 1-.2.4.374.374 0 0 1-.275.1c-.166 0-.416-.084-.75-.25-.166.283-.258.466-.275.55-.067.25-.158.516-.275.8-.15.183-.375.716-.675 1.6-.283.883-.425 1.458-.425 1.725-.083.233-.208.658-.375 1.275a93.473 93.473 0 0 1-.575 2.025c-.966 3.333-1.441 4.975-1.425 4.925a9.262 9.262 0 0 1-.125.975 18.9 18.9 0 0 0-.1 1.075.427.427 0 0 1 .025.175c0 .1-.025.183-.075.25a.34.34 0 0 1-.15.125c-.216.183-.517.275-.9.275-.416 0-.708-.109-.875-.325-.25-.434-.35-.767-.3-1 .05-.584.183-1.517.4-2.8.1-.484.209-.909.325-1.275.117-.384.192-.55.225-.5l.5-1.8c.1-.284.175-.559.225-.825a8.21 8.21 0 0 1 .15-.575c.134-.634.292-1.225.475-1.775.233-.55.475-1.375.725-2.475.1-.367.233-.784.4-1.25.184-.467.3-.709.35-.725-.583.066-1.025.133-1.325.2-.483.1-.966.175-1.45.225l-1.7.25c-.933.133-1.433.2-1.5.2l-1.8 4.175-1.275 3.325a70.979 70.979 0 0 1-1.125 3.475c-.05.166-.158.5-.325 1a12.628 12.628 0 0 0-.425 1.575l-.175.875c-.117.25-.25.433-.4.55-.133.116-.316.175-.55.175-.517 0-.892-.092-1.125-.275-.217-.184-.325-.475-.325-.875.067-.217.167-.492.3-.825.1-.267.175-.509.225-.725.117-.467.233-.884.35-1.25l.2-.6c.533-1.834.983-3.2 1.35-4.1l.675-1.9c.05-.1.142-.342.275-.725l.875-2.6c.4-.8.684-1.525.85-2.175a1.141 1.141 0 0 1-.175-.625c0-.267.075-.492.225-.675a.835.835 0 0 1 .65-.275c.117 0 .2.008.25.025.284.083.767.141 1.45.175.684.016 1.033.016 1.05 0 .167-.084.959-.225 2.375-.425 1.434-.2 2.842-.384 4.225-.55l.275-.025c.15 0 .45.041.9.125Zm1.763 18.2c-.65-.484-1.15-.917-1.5-1.3-.35-.384-.533-.75-.55-1.1a2.693 2.693 0 0 1-.025-.45c0-.467.042-1.05.125-1.75.083-.7.167-1.259.25-1.675.067-.067.1-.167.1-.3.017-.134.017-.217 0-.25 0-.05.042-.217.125-.5.2-.617.342-1.134.425-1.55.45-1.367.892-2.459 1.325-3.275.433-.817.917-1.584 1.45-2.3 1.133-1.167 2.342-2.05 3.625-2.65.65-.384 1.117-.575 1.4-.575a.77.77 0 0 1 .225.05c2.05.45 3.275 1.75 3.675 3.9.15 1.016.225 1.783.225 2.3 0 .833-.15 1.675-.45 2.525-.3.85-.842 1.916-1.625 3.2-.667 1.333-1.425 2.475-2.275 3.425-.833.933-1.675 1.633-2.525 2.1-.833.466-1.617.7-2.35.7-.65 0-1.2-.175-1.65-.525Zm2-1.65c.4-.05.708-.125.925-.225.233-.1.467-.267.7-.5.25-.25.65-.692 1.2-1.325.7-.8 1.192-1.384 1.475-1.75a6.7 6.7 0 0 0 .775-1.425c.25-.567.525-1.384.825-2.45l.15-.575c.1-.35.167-.634.2-.85.05-.234.075-.484.075-.75l-.025-1.575a4.474 4.474 0 0 0-.175-.975c-.1-.35-.217-.6-.35-.75a1.526 1.526 0 0 0-.55-.375 1.402 1.402 0 0 0-.675-.175c-.167 0-.358.041-.575.125-.317.133-.758.491-1.325 1.075a16.297 16.297 0 0 0-1.525 1.75c-.433.6-.65 1-.65 1.2 0 .016-.008.066-.025.15a.554.554 0 0 1-.1.225c-.433.466-.875 1.45-1.325 2.95-.433 1.5-.683 2.808-.75 3.925a9.485 9.485 0 0 0 0 1c.033.183.125.391.275.625.117.183.325.358.625.525.317.15.592.2.825.15Zm9.497 2.25c-.55-.134-.992-.309-1.325-.525-.317-.2-.475-.525-.475-.975 0-.25.042-.417.125-.5.1-.1.267-.209.5-.325.2-.1.375-.192.525-.275.15-.1.3-.242.45-.425.95-1.15 1.8-2.434 2.55-3.85a65.547 65.547 0 0 0 2.3-4.875 60.333 60.333 0 0 1 1.675-3.825c-1 .266-1.683.55-2.05.85-.033.033-.1.083-.2.15a.868.868 0 0 1-.3.15c-.617-.05-1.15-.317-1.6-.8a5.302 5.302 0 0 1-.025-.6c0-.65.508-1.175 1.525-1.575a14.968 14.968 0 0 1 3.075-.9c.084.05.159.075.225.075.084 0 .2-.017.35-.05a.695.695 0 0 1 .375 0c.084-.034.217-.05.4-.05.234 0 .425.041.575.125.5 0 .933.058 1.3.175.383.116.809.316 1.275.6 1.35.8 2.025 1.858 2.025 3.175 0 .116-.017.308-.05.575-.166 1.033-.458 2.308-.875 3.825a16.666 16.666 0 0 1-.75 2.125 37.542 37.542 0 0 1-1.275 3.425l-.4 1.05a78.205 78.205 0 0 0-.8 2.1c-.166.533-.45.8-.85.8-.3 0-.625-.142-.975-.425a3.34 3.34 0 0 1-.775-.925c.217-.567.558-1.4 1.025-2.5l.4-.95.55-1.4c.367-1.05.633-1.775.8-2.175.133-.317.234-.625.3-.925l.225-.725c.133-.467.225-.825.275-1.075.034-.117.084-.325.15-.625.084-.3.167-.567.25-.8 0-.134.008-.259.025-.375.033-.117.05-.184.05-.2.067-.267.092-.567.075-.9v-.675l-.175-.275a3.452 3.452 0 0 0-.675-.325 1.324 1.324 0 0 0-.625-.1c-.2.3-.383.666-.55 1.1-.233.483-.4.808-.5.975-.283.45-.533.908-.75 1.375a52.59 52.59 0 0 0-.85 1.975l-.375.85c-.05.083-.1.225-.15.425a1.263 1.263 0 0 1-.125.4l-.175.35c-.05.133-.1.241-.15.325-.083.233-.242.558-.475.975-.35.666-.567 1.175-.65 1.525-.166.216-.367.558-.6 1.025l-.325.575a32.25 32.25 0 0 1-1.125 1.775 8.852 8.852 0 0 1-1.075 1.25c-.283.3-.716.575-1.3.825Zm16.349-.575a4.464 4.464 0 0 1-.75-.725c-.2-.267-.3-.509-.3-.725 0-.317.276-.542.826-.675 1.716-.417 3.641-2.092 5.775-5.025-.734-.4-1.284-.817-1.65-1.25-.367-.45-.634-1.067-.8-1.85a4.808 4.808 0 0 1-.126-1c.084-.117.126-.292.126-.525.016-.234.041-.4.075-.5l.55-1.625c.55-1.584 2.083-2.809 4.6-3.675.816-.334 1.416-.475 1.8-.425l.325-.025c.15-.05.3-.075.45-.075.116 0 .2.008.25.025a.747.747 0 0 1 .224-.025c.284 0 .6.091.95.275.367.166.675.383.925.65.267.266.4.533.4.8a.65.65 0 0 1-.025.2c-.166.483-.275.791-.325.925-.266.833-.483 1.45-.65 1.85-.45 1.1-.974 2.666-1.575 4.7-.583 2.033-.916 3.516-1 4.45-.133.366-.25.975-.35 1.825-.016.15-.05.366-.1.65a4.937 4.937 0 0 1-.125.7c-.05.216-.2.408-.45.575-.25.166-.5.25-.75.25a.773.773 0 0 1-.35-.075 2.434 2.434 0 0 1-.524-.375 16.337 16.337 0 0 1-.526-.5c.05-.184.109-.459.175-.825.067-.45.159-.817.276-1.1.033-.35.108-.825.224-1.425a4.26 4.26 0 0 0 .1-.525c.1-.534.2-.925.3-1.175l.05-.4c-.233.383-.874 1.158-1.924 2.325a26.591 26.591 0 0 1-3.326 3.125c-1.15.9-2.075 1.3-2.775 1.2Zm8.575-8.975a245.44 245.44 0 0 0 2-6.625 6.584 6.584 0 0 0-2.25.675c-.733.366-1.35.85-1.85 1.45s-.791 1.275-.874 2.025a2.833 2.833 0 0 1-.126.6.717.717 0 0 0-.075.325c0 .333.134.658.4.975.284.316.575.475.876.475.2 0 .408-.067.624-.2.217-.134.342-.209.376-.225l.9.525Zm17.233 10.175c-.167.066-.292.1-.375.1a.75.75 0 0 1-.4-.125c-.484 0-.825-.034-1.025-.1l.15.1c-.867-.167-1.709-.642-2.525-1.425-.8-.784-1.317-1.609-1.55-2.475a7.057 7.057 0 0 1-.1-.475c-.034-.2-.042-.342-.025-.425.066-.367.258-.659.575-.875.316-.234.666-.35 1.05-.35.15 0 .3.025.45.075.116.233.175.425.175.575 0 .1-.025.241-.075.425.25.85.716 1.516 1.4 2 .683.483 1.466.725 2.35.725.733 0 1.408-.184 2.025-.55a3.475 3.475 0 0 0 1.4-1.575c.066-.15.116-.325.15-.525.05-.217.1-.4.15-.55a.509.509 0 0 1 .1-.175c.016-.1.025-.259.025-.475 0-.567-.117-1.109-.35-1.625-.217-.517-.534-.859-.95-1.025a7.312 7.312 0 0 1-.675-.125c-.367-.1-.65-.15-.85-.15-.15 0-.259.008-.325.025l-.4-.15c-.3-.317-.534-.6-.7-.85a1.708 1.708 0 0 1-.225-.85c0-.234.05-.484.15-.75.116 0 .266-.025.45-.075.2-.05.35-.075.45-.075.833 0 1.566-.209 2.2-.625a4.094 4.094 0 0 0 1.45-1.65c.35-.684.525-1.425.525-2.225 0-.134-.017-.35-.05-.65-.35-.3-.8-.45-1.35-.45-.617 0-1.275.158-1.975.475-.684.3-1.2.658-1.55 1.075a1.966 1.966 0 0 1-.95-.325 2.565 2.565 0 0 1-.725-.8 1.497 1.497 0 0 1-.175-.95c.466-.6 1.083-1.059 1.85-1.375a6.242 6.242 0 0 1 2.475-.5c.85 0 1.641.158 2.375.475.75.316 1.35.783 1.8 1.4.466.616.7 1.358.7 2.225 0 .333-.034.658-.1.975-.15.75-.492 1.5-1.025 2.25-.534.733-1.134 1.325-1.8 1.775a4.348 4.348 0 0 1 1.8 1.875c.416.8.625 1.666.625 2.6 0 .733-.217 1.558-.65 2.475-.417.916-.9 1.625-1.45 2.125-.084.083-.2.166-.35.25-.15.083-.275.158-.375.225l-.325.225c-.7.316-1.292.541-1.775.675-.484.15-1.042.216-1.675.2Zm17.989-19.425c.567 0 1.092.15 1.575.45.5.283.892.691 1.175 1.225.3.516.45 1.108.45 1.775 0 .933-.058 2.158-.175 3.675a73.887 73.887 0 0 1-.45 4.275c-.2 1.4-.375 3.2-.525 5.4-.1 1.166-.183 1.966-.25 2.4-.05.45-.15.708-.3.775l.025.05c0 .066-.058.125-.175.175-.116.05-.258.075-.425.075-.3 0-.6-.059-.9-.175-.3-.117-.45-.367-.45-.75 0-.217.042-.742.125-1.575.184-1.567.292-2.85.325-3.85l.15-1.1h-.625c-.283.083-.691.125-1.225.125l-1.575-.025c-.45 0-.758.016-.925.05a.472.472 0 0 0-.35.2c-.083.1-.183.308-.3.625-.083.266-.258.675-.525 1.225-.583 1.416-1.1 2.425-1.55 3.025-.45.6-.891.9-1.325.9-.116 0-.308-.05-.575-.15-.25-.1-.375-.234-.375-.4 0-.234.175-.717.525-1.45.367-.734.642-1.225.825-1.475.017 0 .017-.009 0-.025a.363.363 0 0 1-.025-.15c0-.367.217-.975.65-1.825.067-.2.134-.392.2-.575.084-.2.125-.325.125-.375l.475-.925c0-.1.059-.309.175-.625.134-.334.292-.692.475-1.075 0-.25.05-.492.15-.725.1-.25.234-.517.4-.8.184-.334.275-.55.275-.65 0-.034.017-.109.05-.225.05-.117.142-.309.275-.575-.033 0-.05-.009-.05-.025 0-.017.067-.109.2-.275 0-.15.059-.317.175-.5.134-.2.35-.75.65-1.65l.5-1.075c.134-.217.309-.625.525-1.225l.2-.525.2-.55c.05-.067.125-.192.225-.375.1-.184.259-.334.475-.45.217-.117.509-.184.875-.2.2-.05.409-.075.625-.075Zm.525 9.55c0-.184.059-.859.175-2.025.234-2.4.359-3.875.375-4.425 0-.25-.008-.392-.025-.425 0-.15-.133-.292-.4-.425-.266-.134-.458-.2-.575-.2-.15 0-.275.083-.375.25-.1.166-.2.375-.3.625-.1.233-.166.4-.2.5l-.225.575c-.283.7-.616 1.558-1 2.575-.383 1-.6 1.6-.65 1.8-.1.1-.275.416-.525.95-.233.516-.35.841-.35.975 0 .416.209.625.625.625.067 0 .2-.009.4-.025.217-.034.45-.092.7-.175h.35c.267 0 .534-.042.8-.125.434-.067.717-.117.85-.15.15-.034.242-.109.275-.225.05-.117.075-.342.075-.675Zm21.105-9.55c.317.05.592.208.825.475.234.266.35.558.35.875 0 .1-.008.175-.025.225a1.453 1.453 0 0 1-.2.4.373.373 0 0 1-.275.1c-.166 0-.416-.084-.75-.25-.166.283-.258.466-.275.55-.066.25-.158.516-.275.8-.15.183-.375.716-.675 1.6-.283.883-.425 1.458-.425 1.725-.083.233-.208.658-.375 1.275a87.595 87.595 0 0 1-.575 2.025c-.966 3.333-1.441 4.975-1.425 4.925a8.979 8.979 0 0 1-.125.975c-.033.25-.066.608-.1 1.075a.42.42 0 0 1 .025.175c0 .1-.025.183-.075.25a.34.34 0 0 1-.15.125c-.216.183-.516.275-.9.275-.416 0-.708-.109-.875-.325-.25-.434-.35-.767-.3-1 .05-.584.184-1.517.4-2.8.1-.484.209-.909.325-1.275.117-.384.192-.55.225-.5l.5-1.8c.1-.284.175-.559.225-.825a8.21 8.21 0 0 1 .15-.575c.134-.634.292-1.225.475-1.775.234-.55.475-1.375.725-2.475.1-.367.234-.784.4-1.25.184-.467.3-.709.35-.725-.583.066-1.025.133-1.325.2-.483.1-.966.175-1.45.225l-1.7.25c-.933.133-1.433.2-1.5.2l-1.8 4.175-1.275 3.325a70.979 70.979 0 0 1-1.125 3.475c-.05.166-.158.5-.325 1a12.821 12.821 0 0 0-.425 1.575l-.175.875c-.116.25-.25.433-.4.55-.133.116-.316.175-.55.175-.516 0-.891-.092-1.125-.275-.216-.184-.325-.475-.325-.875.067-.217.167-.492.3-.825.1-.267.175-.509.225-.725.117-.467.234-.884.35-1.25l.2-.6c.534-1.834.984-3.2 1.35-4.1l.675-1.9c.05-.1.142-.342.275-.725l.875-2.6c.4-.8.684-1.525.85-2.175a1.147 1.147 0 0 1-.175-.625c0-.267.075-.492.225-.675a.837.837 0 0 1 .65-.275c.117 0 .2.008.25.025.284.083.767.141 1.45.175.684.016 1.034.016 1.05 0 .167-.084.959-.225 2.375-.425 1.434-.2 2.842-.384 4.225-.55l.275-.025c.15 0 .45.041.9.125Zm1.763 18.2c-.65-.484-1.15-.917-1.5-1.3-.35-.384-.533-.75-.55-1.1a2.773 2.773 0 0 1-.025-.45c0-.467.042-1.05.125-1.75.084-.7.167-1.259.25-1.675.067-.067.1-.167.1-.3.017-.134.017-.217 0-.25 0-.05.042-.217.125-.5.2-.617.342-1.134.425-1.55.45-1.367.892-2.459 1.325-3.275.434-.817.917-1.584 1.45-2.3 1.134-1.167 2.342-2.05 3.625-2.65.65-.384 1.117-.575 1.4-.575a.77.77 0 0 1 .225.05c2.05.45 3.275 1.75 3.675 3.9.15 1.016.225 1.783.225 2.3 0 .833-.15 1.675-.45 2.525-.3.85-.841 1.916-1.625 3.2-.666 1.333-1.425 2.475-2.275 3.425-.833.933-1.675 1.633-2.525 2.1-.833.466-1.616.7-2.35.7-.65 0-1.2-.175-1.65-.525Zm2-1.65c.4-.05.709-.125.925-.225.234-.1.467-.267.7-.5.25-.25.65-.692 1.2-1.325.7-.8 1.192-1.384 1.475-1.75.284-.384.542-.859.775-1.425.25-.567.525-1.384.825-2.45l.15-.575c.1-.35.167-.634.2-.85.05-.234.075-.484.075-.75l-.025-1.575a4.433 4.433 0 0 0-.175-.975c-.1-.35-.216-.6-.35-.75a1.517 1.517 0 0 0-.55-.375 1.398 1.398 0 0 0-.675-.175c-.166 0-.358.041-.575.125-.316.133-.758.491-1.325 1.075a16.375 16.375 0 0 0-1.525 1.75c-.433.6-.65 1-.65 1.2 0 .016-.008.066-.025.15a.545.545 0 0 1-.1.225c-.433.466-.875 1.45-1.325 2.95-.433 1.5-.683 2.808-.75 3.925a9.9 9.9 0 0 0 0 1c.034.183.125.391.275.625.117.183.325.358.625.525.317.15.592.2.825.15Zm15.847 1.475a7.16 7.16 0 0 1-2.275.35 8.017 8.017 0 0 1-3.625-.875 1.124 1.124 0 0 0-.225-.5c-.116-.167-.25-.259-.4-.275-.05-.017-.133-.1-.25-.25-.116-.167-.2-.284-.25-.35-.066-.334-.1-.534-.1-.6 0-.15.025-.384.075-.7.05-.317.092-.55.125-.7l.25-.675c.4-1.167.842-2.292 1.325-3.375l.5-1.275c.75-1.85 1.242-3.092 1.475-3.725.234-.634.35-1.084.35-1.35 0-.15-.041-.325-.125-.525a1.347 1.347 0 0 1-.075-.425c0-.467.242-.792.725-.975.5-.267 1.109-.534 1.825-.8.717-.267 1.275-.425 1.675-.475a2.24 2.24 0 0 1 .4-.025 7.33 7.33 0 0 1 1.9.275c.7.166 1.084.358 1.15.575l.15.05c.017 0 .059.016.125.05.067.033.159.1.275.2.167.116.309.333.425.65.117.3.175.583.175.85 0 .116-.008.2-.025.25 0 .05.017.175.05.375l.125.45c.017.1.025.25.025.45 0 .933-.433 1.866-1.3 2.8l-.325.425c-.033.05-.125.158-.275.325-.133.166-.233.241-.3.225-.283.25-.425.458-.425.625 0 .083.05.141.15.175l.2.3c.117.15.267.333.45.55.434.666.65 1.45.65 2.35 0 .466-.058.883-.175 1.25-.116.433-.4.933-.85 1.5-.45.566-1 1.108-1.65 1.625a8.36 8.36 0 0 1-1.925 1.2Zm-2.25-8.65c.184-.034.417-.109.7-.225.434-.15.717-.242.85-.275.917-.284 1.709-.709 2.375-1.275a4.718 4.718 0 0 0 1.425-2.05c.067-.134.125-.342.175-.625.067-.284.1-.534.1-.75a.99.99 0 0 0-.025-.275v-.2c-.216-.55-.766-.825-1.65-.825-.616 0-1.266.133-1.95.4a.689.689 0 0 0-.375.375 3.11 3.11 0 0 0-.175.55l-.075.5a6.048 6.048 0 0 1-.325 1.125l-.2.6c0 .033-.041.091-.125.175a.402.402 0 0 0-.1.25c-.033.066-.1.216-.2.45a4.65 4.65 0 0 0-.25.675c-.1.233-.183.458-.25.675l-.1.4c0 .05.017.133.05.25.034.116.075.141.125.075Zm-.35 6.65c.284.05.559.075.825.075 1.4 0 2.55-.7 3.45-2.1.45-.567.675-1.059.675-1.475 0-.334-.141-.717-.425-1.15-.2-.284-.383-.484-.55-.6a.856.856 0 0 0-.55-.2c-.166 0-.425.058-.775.175l-.5.15c-.4.066-1 .241-1.8.525-.55.183-.866.275-.95.275-.066.05-.183.166-.35.35-.166.183-.258.308-.275.375-.1.033-.2.158-.3.375a3.183 3.183 0 0 0-.175.65c-.033.216-.025.333.025.35.067.016.059.158-.025.425-.083.266-.141.466-.175.6-.033.133-.05.216-.05.25 0 .3.175.525.525.675.367.15.834.241 1.4.275Zm20.334 3.775c-.2-.067-.417-.267-.65-.6a3.93 3.93 0 0 1-.5-.925c.683-2.9 1.216-4.9 1.6-6 .083-.45.125-.7.125-.75a.238.238 0 0 0-.1-.2c-.167-.1-.792-.242-1.875-.425-1.067-.2-1.95-.35-2.65-.45-.15.016-.375-.009-.675-.075a2.889 2.889 0 0 0-.65-.075c-.267 0-.434-.009-.5-.025-.067-.017-.125-.067-.175-.15a.812.812 0 0 0-.025-.125c0-.084-.075.1-.225.55-.134.45-.309 1.041-.525 1.775-.467 1.4-.775 2.65-.925 3.75l-.1.525a30.38 30.38 0 0 1-.675 2.1c-.167.483-.309.733-.425.75-.034.066-.159.075-.375.025-.2-.05-.4-.117-.6-.2-.317-.217-.475-.55-.475-1 0-.267.05-.642.15-1.125.1-.5.225-1.067.375-1.7.016-.117.058-.309.125-.575.166-.934.3-1.625.4-2.075.116-.467.233-.742.35-.825.033-.134.125-.517.275-1.15a10.8 10.8 0 0 1 .6-1.725c.2-.734.525-1.659.975-2.775a138.56 138.56 0 0 1 1.675-3.95l.425-.975c.133-.117.208-.292.225-.525.033-.25.058-.409.075-.475.116-.234.333-.467.65-.7.316-.234.541-.342.675-.325.2.033.408.158.625.375.233.216.408.45.525.7.116.25.141.458.075.625-.1.1-.259.4-.475.9-.2.483-.442 1.091-.725 1.825l-.3.475c-.284.433-.459.741-.525.925a2.129 2.129 0 0 0-.225.55c-.05.216-.1.35-.15.4-.15.316-.325.708-.525 1.175-.2.45-.284.708-.25.775.033.05.3.108.8.175l.95.125.6.075c.116-.017.716.041 1.8.175l1.075.15c.483.15.883.258 1.2.325.333.05.516.041.55-.025l.45-1.075.125-.55c.233-1 .4-1.659.5-1.975.45-.767.816-1.909 1.1-3.425.083-.334.2-.617.35-.85.15-.25.291-.459.425-.625.15-.184.25-.309.3-.375.033.016.091.041.175.075.1.033.208.066.325.1.6.116.9.533.9 1.25 0 .566-.167 1.341-.5 2.325l-.4 1.05c-.434.983-.684 1.658-.75 2.025-.034.1-.067.208-.1.325-.034.1-.067.208-.1.325-.25.833-.492 1.508-.725 2.025v.025c0 .116.166.291.5.525a.538.538 0 0 1 .275.475c0 .2-.092.383-.275.55a.795.795 0 0 1-.575.25c-.25 0-.425.05-.525.15-.084.083-.15.316-.2.7-.367.833-.784 2.066-1.25 3.7-.467 1.633-.692 2.666-.675 3.1-.084.25-.175.416-.275.5-.084.1-.2.15-.35.15a2.23 2.23 0 0 1-.325-.05Zm12.157-1.225c-.784 0-1.426-.05-1.926-.15a2.88 2.88 0 0 1-1.3-.575c-.8-.6-1.2-1.492-1.2-2.675 0-.5.092-1.117.275-1.85.084-.434.175-.8.275-1.1.117-.317.217-.475.301-.475l.174-.925c.017-.1.05-.234.1-.4.051-.184.092-.317.125-.4a.673.673 0 0 1 .15-.225c.067-.05.167-.275.3-.675 0-.034.009-.109.026-.225.016-.117.058-.25.125-.4.25-.417.375-.692.375-.825.016-.05.083-.15.2-.3.116-.15.208-.325.274-.525l.325-.575c.5-.884.859-1.525 1.076-1.925.216-.417.349-.759.399-1.025a5.64 5.64 0 0 0 .2-.625c.1-.3.209-.509.325-.625-.05-.1.117-.225.5-.375.4-.15.884-.292 1.451-.425a10.414 10.414 0 0 1 1.549-.25c.1-.067.325-.117.675-.15.35-.034.742-.05 1.175-.05.301 0 .717.016 1.25.05.267 0 .492.033.675.1.2.05.376.116.525.2.15.066.259.116.325.15l.326.325c.2.166.299.341.299.525 0 .166-.108.308-.325.425-.05.05-.325.091-.825.125-.483.033-1.008.05-1.575.05a9.7 9.7 0 0 0-1.975.225c-.25.05-.441.075-.575.075-.2.066-.45.108-.75.125-.283.016-.466.025-.55.025-.066 0-.3.316-.7.95-.383.633-.583 1.008-.6 1.125a.92.92 0 0 1-.15.475c-.1.166-.274.425-.524.775-.217.3-.326.583-.326.85 0 .166.05.266.15.3a28.999 28.999 0 0 1 1.926-.225c.766-.084 1.324-.125 1.674-.125.184-.05.334-.075.451-.075.233 0 .449.058.649.175.267.05.4.225.4.525a.742.742 0 0 1-.1.375c-.05.116-.116.191-.199.225-.15.15-.667.341-1.551.575-.866.233-1.775.45-2.725.65-.95.183-1.483.258-1.599.225-.05-.117-.101-.175-.151-.175-.166 0-.375.55-.625 1.65-.3.666-.483 1.108-.55 1.325-.066.2-.166.675-.299 1.425-.067.3-.101.508-.101.625 0 .65.384 1.15 1.15 1.5.284.05.575.075.875.075.55 0 1.217-.1 2-.3.067-.034.576-.317 1.525-.85.051 0 .176-.034.376-.1.216-.084.341-.125.374-.125.134-.184.301-.275.5-.275.051 0 .159.083.325.25.167.166.317.366.45.6.134.216.2.441.2.675 0 .166-.25.375-.75.625-.483.233-1.208.541-2.174.925-.7.3-1.192.491-1.476.575-.283.083-.683.125-1.199.125Zm10.737 1.025-.6-.2c-.3-.084-.508-.125-.625-.125a.915.915 0 0 1-.5-.325.985.985 0 0 1-.175-.575c0-.117.009-.209.025-.275.05-.05.092-.184.125-.4.05-.2.075-.384.075-.55.05-.1.092-.2.125-.3.034-.117.075-.275.125-.475.134-.734.442-1.967.925-3.7.484-1.734.784-2.659.9-2.775v-.275c0-.05.017-.15.05-.3.034-.15.109-.309.225-.475.067-.2.117-.392.15-.575.05-.2.084-.35.1-.45.067-.084.175-.334.325-.75.167-.417.275-.692.325-.825.117-.317.259-.684.425-1.1.184-.434.309-.717.375-.85v-.125c.034-.034.117-.2.25-.5.15-.317.275-.584.375-.8.117-.267.425-.959.925-2.075.034-.067.125-.259.275-.575.15-.317.225-.517.225-.6.167-.184.35-.275.55-.275.25 0 .484.116.7.35.234.216.417.45.55.7l.25.4-.925 1.8c-.25.45-.475.875-.675 1.275-.2.383-.3.608-.3.675-.05.116-.141.358-.275.725-.116.366-.25.783-.4 1.25a18.6 18.6 0 0 1-.575 1.425c-.133.266-.2.425-.2.475 0-.067.925-.1 2.775-.1.284 0 .8-.009 1.55-.025.75-.017 1.225-.042 1.425-.075l1.3-.125.7-2.225c.167-.584.534-1.717 1.1-3.4.234-.7.5-1.217.8-1.55.3-.35.567-.525.8-.525.067 0 .234.1.5.3.284.183.45.341.5.475.184.183.275.375.275.575 0 .233-.133.558-.4.975-.2.35-.483 1.008-.85 1.975-.15.45-.241.708-.275.775 0 .35-.083.608-.25.775-.066.066-.183.308-.35.725-.166.4-.25.633-.25.7 0 .133-.025.283-.075.45a.832.832 0 0 1-.175.325l-.175.6c-.583 2.116-1.041 3.583-1.375 4.4 0 .083-.041.233-.125.45-.083.216-.125.366-.125.45-.033.116-.108.35-.225.7-.116.35-.175.558-.175.625a34.006 34.006 0 0 0-.35 1.825c-.116.7-.191 1.191-.225 1.475-.283.033-.516.016-.7-.05a2.313 2.313 0 0 1-.525-.275 5.69 5.69 0 0 0-.35-.2c-.4-.217-.6-.517-.6-.9 0-.217.075-.475.225-.775.05-.084.209-.625.475-1.625l.225-.925c.134-.367.25-.717.35-1.05.1-.35.192-.65.275-.9.267-.967.434-1.484.5-1.55v-.25c-.05-.084-.541-.125-1.475-.125-1.016 0-2.075.066-3.175.2h-2.15c-.083.183-.325.916-.725 2.2-.4 1.266-.625 2.075-.675 2.425-.116.55-.3 1.308-.55 2.275-.25.983-.441 1.7-.575 2.15Zm15.281-1.25c-.116-.167-.316-.284-.6-.35-.266-.05-.7-.059-1.3-.025-.35.05-.708-.009-1.075-.175-.35-.167-.491-.359-.425-.575.017-.217.259-.434.725-.65.484-.234 1.059-.359 1.725-.375l1.05-.025.25-.5c.05-.1.084-.2.1-.3.017-.117.042-.217.075-.3l.225-.9.375-1.2c.5-1.517.825-2.584.975-3.2.084-.2.217-.6.4-1.2.184-.6.325-1.092.425-1.475.767-2.35 1.084-3.542.95-3.575-.166-.017-.608.016-1.325.1-.716.066-1.116.125-1.2.175-.083.116-.225.1-.425-.05-.2-.15-.325-.317-.375-.5a.906.906 0 0 1-.025-.25c0-.234.059-.384.175-.45.167-.15.592-.317 1.275-.5.7-.184 1.35-.317 1.95-.4.284-.034.567-.092.85-.175.3-.1.525-.217.675-.35.35-.117.642-.167.875-.15.117.083.4.125.85.125.384 0 .675-.009.875-.025.434-.034.734-.05.9-.05 1 0 1.6.233 1.8.7.034.166.05.291.05.375a.71.71 0 0 1-.2.525c-.116.133-.283.191-.5.175-.3.083-.858.133-1.675.15-1.1.1-1.691.216-1.775.35a2.14 2.14 0 0 0-.2.225 1.337 1.337 0 0 1-.125.2c.017.15-.133.691-.45 1.625l-.45 1.325c-.466 1.45-.766 2.341-.9 2.675-.116.283-.2.575-.25.875-.133.45-.258.883-.375 1.3-.1.4-.208.783-.325 1.15l-.975 3.475 1.5-.125c.984-.1 1.575-.15 1.775-.15.167 0 .275.016.325.05.05.033.084.091.1.175a.891.891 0 0 0 .05.15c.15.2.225.391.225.575 0 .3-.2.541-.6.725-.4.183-.95.266-1.65.25-.75.033-1.358.058-1.825.075-.466.033-.758.075-.875.125-.116.05-.175.133-.175.25a.352.352 0 0 1-.15.35.665.665 0 0 1-.45.15c-.316 0-.6-.134-.85-.4Zm7.33 1.125c-.35 0-.6-.142-.75-.425 0-.1.033-.2.1-.3.067-.1.158-.2.275-.3.4-.384.842-1.034 1.325-1.95.083-.25.217-.742.4-1.475 0-.334.042-.542.125-.625.3-.25.533-.375.7-.375.383 0 .65.45.8 1.35.033.233.05.4.05.5 0 .433-.158.966-.475 1.6-.067.166-.3.483-.7.95-.383.466-.608.7-.675.7-.067 0-.142.033-.225.1a2.484 2.484 0 0 0-.15.125c-.05.05-.15.083-.3.1-.15.016-.317.025-.5.025Zm12.236-.7c-.25 0-.509-.167-.775-.5-.267-.317-.4-.717-.4-1.2 0-.384.091-.759.275-1.125.333-.7.666-1.267 1-1.7.116-.167.2-.309.25-.425.066-.117.108-.275.125-.475.233-.3.541-.842.925-1.625.65-1.05 1.575-2.667 2.775-4.85.166-.3.491-.892.975-1.775.5-.884.833-1.409 1-1.575l.125-.175c-.05.083.033-.109.25-.575.233-.467.475-.884.725-1.25.266-.384.5-.575.7-.575.216 0 .466.091.75.275.283.166.525.425.725.775.216.333.325.733.325 1.2 0 .2-.009.358-.025.475l-.25 1.7-.125.55c-.217 1.1-.542 2.608-.975 4.525-.384 1.7-.575 2.725-.575 3.075 0 .1.016.183.05.25.033.05.075.075.125.075.033 0 .116-.05.25-.15.133-.117.25-.284.35-.5l.325-.5.425-.625a49.94 49.94 0 0 0 1.725-2.625c.683-1.117 1.791-3.025 3.325-5.725.316-.467.575-.875.775-1.225.266-.434.525-.842.775-1.225.25-.384.441-.625.575-.725a.964.964 0 0 1 .625-.2c.25.016.508.108.775.275.283.166.516.4.7.7.2.3.3.625.3.975 0 .4-.125 1.133-.375 2.2a35.666 35.666 0 0 1-.825 3.1c-.067.35-.275 1.175-.625 2.475a63.93 63.93 0 0 0-.6 2.3c-.117.566-.175 1.025-.175 1.375v.2c-.25.45-.375 1.35-.375 2.7-.067.55-.192.975-.375 1.275-.184.316-.334.475-.45.475l-.075-.025a.396.396 0 0 0-.25.1c-.067.083-.167.125-.3.125-.417 0-.692-.15-.825-.45-.117-.3-.175-.709-.175-1.225 0-.3.008-.55.025-.75.05-.434.583-2.692 1.6-6.775.8-3.2 1.2-4.875 1.2-5.025l-.35.6a56.13 56.13 0 0 1-1.25 2.225l-1.75 3.275c-.217.3-.4.591-.55.875-.134.283-.209.45-.225.5-.2.4-.6.975-1.2 1.725-.2.25-.317.408-.35.475-.084.183-.35.508-.8.975-.45.45-.925.866-1.425 1.25-.5.366-.917.55-1.25.55-.45 0-.859-.217-1.225-.65-.35-.434-.525-.959-.525-1.575 0-.45.083-1.2.25-2.25.266-1.15.55-2.317.85-3.5.3-1.184.508-1.959.625-2.325.05-.15.075-.317.075-.5 0-.117-.017-.192-.05-.225-.017 0-.042.016-.075.05a1.406 1.406 0 0 1-.075.125c-.25.4-.642 1.1-1.175 2.1-.534 1-1.109 2.175-1.725 3.525-2.384 4.383-3.75 6.775-4.1 7.175Zm21.038-.575c-.65-.484-1.15-.917-1.5-1.3-.35-.384-.534-.75-.55-1.1a2.66 2.66 0 0 1-.025-.45c0-.467.041-1.05.125-1.75.083-.7.166-1.259.25-1.675.066-.067.1-.167.1-.3.016-.134.016-.217 0-.25 0-.05.041-.217.125-.5.2-.617.341-1.134.425-1.55.45-1.367.891-2.459 1.325-3.275.433-.817.916-1.584 1.45-2.3 1.133-1.167 2.341-2.05 3.625-2.65.65-.384 1.116-.575 1.4-.575a.77.77 0 0 1 .225.05c2.05.45 3.275 1.75 3.675 3.9.15 1.016.225 1.783.225 2.3 0 .833-.15 1.675-.45 2.525-.3.85-.842 1.916-1.625 3.2-.667 1.333-1.425 2.475-2.275 3.425-.834.933-1.675 1.633-2.525 2.1-.834.466-1.617.7-2.35.7-.65 0-1.2-.175-1.65-.525Zm2-1.65c.4-.05.708-.125.925-.225.233-.1.466-.267.7-.5.25-.25.65-.692 1.2-1.325.7-.8 1.191-1.384 1.475-1.75.283-.384.541-.859.775-1.425.25-.567.525-1.384.825-2.45l.15-.575c.1-.35.166-.634.2-.85.05-.234.075-.484.075-.75l-.025-1.575a4.492 4.492 0 0 0-.175-.975c-.1-.35-.217-.6-.35-.75a1.534 1.534 0 0 0-.55-.375 1.404 1.404 0 0 0-.675-.175c-.167 0-.359.041-.575.125-.317.133-.759.491-1.325 1.075a16.263 16.263 0 0 0-1.525 1.75c-.434.6-.65 1-.65 1.2 0 .016-.009.066-.025.15a.558.558 0 0 1-.1.225c-.434.466-.875 1.45-1.325 2.95-.434 1.5-.684 2.808-.75 3.925a9.318 9.318 0 0 0 0 1c.033.183.125.391.275.625.116.183.325.358.625.525.316.15.591.2.825.15Zm25.622 2.225c-.5-.217-1.025-.6-1.575-1.15a9.655 9.655 0 0 1-1.4-1.775c-.4-.667-.675-1.275-.825-1.825-.034-.217-.134-.525-.3-.925a8.004 8.004 0 0 1-.2-.575l-.15-.45c-.234-.984-.4-1.634-.5-1.95a63.287 63.287 0 0 0-1.2 3.775 94.737 94.737 0 0 0-1.075 4.175 1.14 1.14 0 0 1-.375.625.851.851 0 0 1-.625.25 2.13 2.13 0 0 1-.35-.05c-.7-.217-1.092-.6-1.175-1.15l2.275-7.9c-.05.15-.425.658-1.125 1.525a47.41 47.41 0 0 1-1.625 1.975c-.4.466-.942.975-1.625 1.525a89.715 89.715 0 0 1-2.7 2.05c-.7.516-1.275.95-1.725 1.3-.05.05-.192.175-.425.375-.234.2-.434.3-.6.3a.238.238 0 0 1-.2-.1l-.825-1a1.863 1.863 0 0 1-.025-.35c0-.25.041-.45.125-.6.1-.15.266-.267.5-.35.116-.05.308-.192.575-.425.266-.234.641-.509 1.125-.825a13.786 13.786 0 0 0 1.95-1.55c.6-.5.916-.767.95-.8l1.175-.975a2.62 2.62 0 0 0 .625-.65c.2-.234.358-.4.475-.5.866-.717 1.575-1.492 2.125-2.325a1.317 1.317 0 0 0-.125-.2 3.82 3.82 0 0 0-.125-.275 64.653 64.653 0 0 0-1.175-2c-.284-.484-.609-.95-.975-1.4a6.323 6.323 0 0 0-.275-.425 5.353 5.353 0 0 1-.125-.225 86.276 86.276 0 0 0-1.7-2.525l-.025-.475c0-.1.008-.175.025-.225.066-.417.35-.625.85-.625.3 0 .608.075.925.225.316.15.533.333.65.55a70.099 70.099 0 0 0 2.075 3.225c.066.1.141.233.225.4.1.166.191.291.275.375.2.233.416.6.65 1.1.15.35.308.641.475.875.066.083.15.2.25.35.116.133.208.258.275.375l.65-1.7a75.614 75.614 0 0 1 1.65-4.075c.483-1.084.941-1.817 1.375-2.2l.625.1c.383.05.65.15.8.3.166.133.375.416.625.85a116.58 116.58 0 0 0-2.175 4 33.545 33.545 0 0 0-1.475 3.325l.65-.525a287.51 287.51 0 0 1 4.225-3.475c.366-.3.9-.8 1.6-1.5a33.284 33.284 0 0 1 1.55-1.475c.416-.35.85-.617 1.3-.8l.35-.15c.416.066.691.141.825.225.133.066.3.275.5.625 0 .55-.2.991-.6 1.325l-1.25 1.025c-1.367 1.1-2.384 1.95-3.05 2.55-.534.45-1.092.908-1.675 1.375-1.017.8-1.809 1.483-2.375 2.05.133.816.325 1.658.575 2.525.25.85.508 1.533.775 2.05.066.116.133.258.2.425.083.166.141.3.175.4.1.2.283.45.55.75.25.283.408.491.475.625.316.3.683.525 1.1.675.5.216.75.525.75.925 0 .383-.217.791-.65 1.225l-.325.025-.35.075-.825-.325Zm11.271-.2c-.783 0-1.425-.05-1.925-.15a2.875 2.875 0 0 1-1.3-.575c-.8-.6-1.2-1.492-1.2-2.675 0-.5.092-1.117.275-1.85.083-.434.175-.8.275-1.1.117-.317.217-.475.3-.475l.175-.925c.017-.1.05-.234.1-.4.05-.184.092-.317.125-.4a.644.644 0 0 1 .15-.225c.067-.05.167-.275.3-.675 0-.034.008-.109.025-.225.017-.117.058-.25.125-.4.25-.417.375-.692.375-.825.017-.05.083-.15.2-.3s.208-.325.275-.525l.325-.575c.5-.884.858-1.525 1.075-1.925.217-.417.35-.759.4-1.025a5.64 5.64 0 0 0 .2-.625c.1-.3.208-.509.325-.625-.05-.1.117-.225.5-.375.4-.15.883-.292 1.45-.425.583-.134 1.1-.217 1.55-.25.1-.067.325-.117.675-.15.35-.034.742-.05 1.175-.05.3 0 .717.016 1.25.05.267 0 .492.033.675.1.2.05.375.116.525.2a7.2 7.2 0 0 1 .325.15l.325.325c.2.166.3.341.3.525 0 .166-.108.308-.325.425-.05.05-.325.091-.825.125-.483.033-1.008.05-1.575.05a9.7 9.7 0 0 0-1.975.225c-.25.05-.442.075-.575.075-.2.066-.45.108-.75.125-.283.016-.467.025-.55.025-.067 0-.3.316-.7.95-.383.633-.583 1.008-.6 1.125a.93.93 0 0 1-.15.475c-.1.166-.275.425-.525.775-.217.3-.325.583-.325.85 0 .166.05.266.15.3a28.88 28.88 0 0 1 1.925-.225c.767-.084 1.325-.125 1.675-.125.183-.05.333-.075.45-.075.233 0 .45.058.65.175.267.05.4.225.4.525a.742.742 0 0 1-.1.375c-.05.116-.117.191-.2.225-.15.15-.667.341-1.55.575-.867.233-1.775.45-2.725.65-.95.183-1.483.258-1.6.225-.05-.117-.1-.175-.15-.175-.167 0-.375.55-.625 1.65-.3.666-.483 1.108-.55 1.325-.067.2-.167.675-.3 1.425-.067.3-.1.508-.1.625 0 .65.383 1.15 1.15 1.5.283.05.575.075.875.075.55 0 1.217-.1 2-.3.067-.034.575-.317 1.525-.85.05 0 .175-.034.375-.1.217-.084.342-.125.375-.125.133-.184.3-.275.5-.275.05 0 .158.083.325.25.167.166.317.366.45.6.133.216.2.441.2.675 0 .166-.25.375-.75.625-.483.233-1.208.541-2.175.925-.7.3-1.192.491-1.475.575-.283.083-.683.125-1.2.125Zm13.238-.275c-.233.066-.408.1-.525.1a.878.878 0 0 1-.725-.35c-.183-.234-.275-.584-.275-1.05 0-.667.2-1.534.6-2.6l.275-.825c.833-2.434 1.375-3.834 1.625-4.2.083-.2.125-.409.125-.625 0-.084.042-.209.125-.375l.2-.4c.2-.367.3-.642.3-.825 0-.067.1-.4.3-1 .2-.617.4-1.084.6-1.4.1-.25.217-.492.35-.725.133-.25.2-.409.2-.475 0-.034-.183-.05-.55-.05-.517 0-1.158.025-1.925.075-.75.05-1.25.108-1.5.175-.35.083-.558.116-.625.1-.083-.034-.208-.192-.375-.475-.167-.3-.25-.567-.25-.8 0-.2.067-.334.2-.4a2.31 2.31 0 0 1 .8-.325c.283-.05.675-.092 1.175-.125.517-.034.875-.067 1.075-.1.35 0 .675-.017.975-.05.317-.05.5-.075.55-.075.133 0 .3-.025.5-.075.467-.084.783-.125.95-.125.233 0 .467-.025.7-.075.267-.034.442-.05.525-.05h1.55c.217 0 .517-.034.9-.1.383-.067.725-.134 1.025-.2.45-.1.858-.15 1.225-.15.433 0 .792.083 1.075.25.283.15.458.375.525.675.15.833-1.108 1.325-3.775 1.475-.15.016-.442.041-.875.075-.417.033-.692.075-.825.125-.117.05-.175.125-.175.225s-.05.2-.15.3c-.083.083-.142.15-.175.2-.133.05-.358.466-.675 1.25-.317.766-.475 1.241-.475 1.425l-.1.2a.576.576 0 0 0-.075.225c-.117.3-.3.683-.55 1.15a110.03 110.03 0 0 1-.95 2.45l-.275.675c-.367 1.216-.633 2.041-.8 2.475a.862.862 0 0 1-.2.225.369.369 0 0 0-.1.275c0 .083-.242.75-.725 2s-.75 1.883-.8 1.9Zm14.026.075c-.567-.134-1.225-.375-1.975-.725-.75-.334-1.15-.609-1.2-.825a.238.238 0 0 0-.1-.2.31.31 0 0 0-.225-.1v-.375c0-.117-.034-.192-.1-.225-.084-.167-.125-.409-.125-.725 0-.517.083-1.167.25-1.95.183-.784.383-1.484.6-2.1 0-.117.025-.267.075-.45.066-.184.1-.3.1-.35.133-.384.4-.992.8-1.825.4-.834.733-1.417 1-1.75 0-.05.058-.159.175-.325.133-.184.225-.367.275-.55.266-.267.625-.784 1.075-1.55.583-.484.825-.917.725-1.3.016-.35.158-.6.425-.75.283-.167.783-.334 1.5-.5.516-.2 1.05-.334 1.6-.4.55-.084 1.275-.142 2.175-.175a4.773 4.773 0 0 1 .85-.125c.05-.05.3-.025.75.075.466.083.883.225 1.25.425.383.183.566.391.55.625-.017.133-.392.308-1.125.525-.717.2-1.375.333-1.975.4l-.625.075c-.967.1-1.667.208-2.1.325-.417.1-.8.3-1.15.6-.35.3-.75.8-1.2 1.5-.6.933-.9 1.566-.9 1.9 0 .216.116.325.35.325.15 0 .375-.017.675-.05a4.98 4.98 0 0 1 .675-.075c.083-.034.275-.1.575-.2a6.09 6.09 0 0 1 1.05-.225l1.1-.225c.333-.084.583-.125.75-.125.583 0 .875.2.875.6 0 .216-.109.45-.325.7-.2.25-.467.441-.8.575-.3.116-.642.233-1.025.35-.384.116-.625.175-.725.175a1.083 1.083 0 0 1-.25.05 3.412 3.412 0 0 1-.45.025l-1.125.15-.825.1c-.134.033-.45.116-.95.25-.5.133-.825.283-.975.45-.15.15-.292.4-.425.75a8.596 8.596 0 0 0-.525 1.775 9.489 9.489 0 0 0-.2 1.8c0 .516.075.85.225 1 .366.416.941.625 1.725.625.416 0 .841-.059 1.275-.175.45-.134.841-.309 1.175-.525.316-.25.666-.442 1.05-.575.15-.1.275-.15.375-.15.083 0 .175.033.275.1.1.05.191.108.275.175.1.066.183.125.25.175.133.183.2.375.2.575 0 .55-.7 1.116-2.1 1.7-.784.266-1.409.458-1.875.575a5.336 5.336 0 0 1-1.275.175l-.4-.025Zm-263.303 32.75c-.434-.267-.759-.55-.975-.85-.217-.284-.325-.559-.325-.825 0-.35.175-.634.525-.85a.614.614 0 0 1 .275-.05c.166 0 .341.033.525.1.2.05.35.125.45.225.433.4.95.6 1.55.6.266 0 .65-.059 1.15-.175.65-.2 1.158-.45 1.525-.75.383-.3.833-.767 1.35-1.4.316-.417.55-.834.7-1.25.166-.434.25-.825.25-1.175 0-.384-.092-.684-.275-.9-.334-.45-.709-.784-1.125-1-.4-.234-.875-.35-1.425-.35a5.13 5.13 0 0 0-1.425.2l-1.45.3a3.223 3.223 0 0 1-.275.05c-.1 0-.25.241-.45.725-.2.483-.542 1.4-1.025 2.75-.35.983-.642 1.691-.875 2.125-.234.416-.442.625-.625.625-.2 0-.417-.184-.65-.55-.05-.084-.159-.25-.325-.5a1.41 1.41 0 0 1-.225-.725c0-.117.041-.259.125-.425.083-.15.15-.3.2-.45.066-.15.133-.359.2-.625.216-.65.841-2.267 1.875-4.85 1.05-2.584 1.866-4.534 2.45-5.85.416-.95.541-1.45.375-1.5a.576.576 0 0 0-.075-.225c-.05-.1-.067-.175-.05-.225 0-.1.291-.25.875-.45.6-.2 1.008-.284 1.225-.25h.15c.216 0 .325-.042.325-.125.033 0 .183-.017.45-.05a3.98 3.98 0 0 1 .9 0c1.183.1 2.116.441 2.8 1.025.683.566 1.016 1.408 1 2.525-.034.433-.275 1.025-.725 1.775-.45.75-.942 1.366-1.475 1.85a19.874 19.874 0 0 1-1.575 1.225l.625.225c.783.3 1.391.666 1.825 1.1.433.433.741 1.025.925 1.775.033.166.05.316.05.45 0 .366-.067.783-.2 1.25a8.2 8.2 0 0 1-.4 1.225c-.1.1-.184.208-.25.325a5.125 5.125 0 0 0-.125.225c-.017.066-.167.325-.45.775-.284.433-.534.783-.75 1.05-1.1.933-2.009 1.533-2.725 1.8-.7.316-1.534.475-2.5.475-.867 0-1.509-.134-1.925-.4Zm1.8-10.375 1-.2a9.25 9.25 0 0 0 1.075-.3l.3-.15c.183-.1.366-.242.55-.425 1.05-.984 1.783-1.867 2.2-2.65.416-.684.625-1.167.625-1.45 0-.2-.092-.392-.275-.575-.317-.367-.842-.55-1.575-.55-.317 0-.584.033-.8.1-.234.066-.409.15-.525.25-.1.083-.15.216-.15.4 0 .133-.042.283-.125.45-.084.15-.175.275-.275.375-.017.1-.067.2-.15.3-.067.1-.117.166-.15.2 0 .033-.117.258-.35.675-.217.416-.425.883-.625 1.4-.5 1.183-.75 1.9-.75 2.15Zm10.693 9.6c-.117-.167-.317-.284-.6-.35-.267-.05-.7-.059-1.3-.025-.35.05-.709-.009-1.075-.175-.35-.167-.492-.359-.425-.575.016-.217.258-.434.725-.65.483-.234 1.058-.359 1.725-.375l1.05-.025.25-.5c.05-.1.083-.2.1-.3.016-.117.041-.217.075-.3l.225-.9.375-1.2c.5-1.517.825-2.584.975-3.2.083-.2.216-.6.4-1.2.183-.6.325-1.092.425-1.475.766-2.35 1.083-3.542.95-3.575-.167-.017-.609.016-1.325.1-.717.066-1.117.125-1.2.175-.084.116-.225.1-.425-.05-.2-.15-.325-.317-.375-.5a.883.883 0 0 1-.025-.25c0-.234.058-.384.175-.45.166-.15.591-.317 1.275-.5.7-.184 1.35-.317 1.95-.4.283-.034.566-.092.85-.175.3-.1.525-.217.675-.35.35-.117.641-.167.875-.15.116.083.4.125.85.125.383 0 .675-.009.875-.025.433-.034.733-.05.9-.05 1 0 1.6.233 1.8.7.033.166.05.291.05.375a.712.712 0 0 1-.2.525c-.117.133-.284.191-.5.175-.3.083-.859.133-1.675.15-1.1.1-1.692.216-1.775.35-.084.083-.15.158-.2.225a1.361 1.361 0 0 1-.125.2c.016.15-.134.691-.45 1.625l-.45 1.325c-.467 1.45-.767 2.341-.9 2.675a4.03 4.03 0 0 0-.25.875c-.134.45-.259.883-.375 1.3-.1.4-.209.783-.325 1.15l-.975 3.475 1.5-.125c.983-.1 1.575-.15 1.775-.15.166 0 .275.016.325.05.05.033.083.091.1.175a.816.816 0 0 0 .05.15c.15.2.225.391.225.575 0 .3-.2.541-.6.725-.4.183-.95.266-1.65.25-.75.033-1.359.058-1.825.075-.467.033-.759.075-.875.125-.117.05-.175.133-.175.25a.353.353 0 0 1-.15.35.667.667 0 0 1-.45.15c-.317 0-.6-.134-.85-.4Zm23.829-3.925c.333.1.592.291.775.575.183.266.275.558.275.875-.05.75-.267 1.575-.65 2.475-.383.9-.867 1.908-1.45 3.025l-.4.925a.622.622 0 0 1-.45.2c-.367 0-.792-.35-1.275-1.05a2.146 2.146 0 0 1-.05-.375c0-.35.142-.775.425-1.275l.525-.975.35-.7c.183-.334.325-.617.425-.85.1-.25.167-.467.2-.65l-3.4.325-.1-.05a.403.403 0 0 0-.125.025c-.05.016-.108.033-.175.05l-1.575.05h-.275c-.1 0-.175.008-.225.025-.3.066-.617.1-.95.1-.25 0-.467.016-.65.05l-4.125.4-1.1.15c-.233.8-.541 2.025-.925 3.675l-.15.575c-.017.166-.083.283-.2.35-.1.083-.291.166-.575.25h-.45c-.55 0-.825-.317-.825-.95 0-.234.025-.45.075-.65l.55-2.075.425-1.925.35-1.025 1.95-.375c.267-.067.65-.325 1.15-.775.5-.45.942-.942 1.325-1.475.867-1.184 1.542-2.325 2.025-3.425.484-1.1 1.067-2.684 1.75-4.75l.55-1.675.1-.175.25-.825a.912.912 0 0 0-.225-.025.672.672 0 0 1-.2-.025 1.422 1.422 0 0 1-.675-.575 1.708 1.708 0 0 1-.225-.85c0-.184.017-.317.05-.4l.3-.275a.75.75 0 0 1 .325.025c.133.016.258.025.375.025.183 0 .325-.017.425-.05l1.15-.175c.65-.1 1.05-.175 1.2-.225 1.167-.117 2.1-.192 2.8-.225.7-.05 1.458-.075 2.275-.075.333 0 .658.108.975.325.317.216.508.466.575.75.033.583-.308 2-1.025 4.25-.7 2.25-1.383 4.141-2.05 5.675-.183.566-.558 1.558-1.125 2.975l-.475 1.225c.017 0 .233-.075.65-.225.433-.167.842-.25 1.225-.25.1 0 .2.016.3.05Zm-4.225.375c.25-1.1.425-1.817.525-2.15.1-.334.275-.775.525-1.325l1.65-4.4.5-1.5c.633-1.834 1.017-3.042 1.15-3.625l-.6-.025c-.7 0-1.425.05-2.175.15-.75.083-1.283.2-1.6.35l-.3.925c-.15.466-.542 1.483-1.175 3.05a63.672 63.672 0 0 1-2.3 5c-.883 1.75-1.766 3.116-2.65 4.1.65-.017 1.858-.1 3.625-.25 1.783-.167 2.725-.267 2.825-.3Zm19.754 3.75c-.066.066-.241.1-.525.1-.366 0-.708-.092-1.025-.275-.3-.167-.45-.459-.45-.875 0-.234.059-.492.175-.775.567-1.467 1.35-3.7 2.35-6.7.134-.45.35-1.109.65-1.975 0 .033.184-.542.55-1.725.267-.784.467-1.434.6-1.95.15-.534.267-1.084.35-1.65a3.449 3.449 0 0 0-.725-.075h-.45c-.3 0-.525-.017-.675-.05-.166-.034-.45-.05-.85-.05a16.033 16.033 0 0 0-1.6.075c-.133.016-.291.033-.475.05a6.9 6.9 0 0 1-.6.025l-.2.1-.375.9c-.083.2-.191.45-.325.75-.133.3-.275.65-.425 1.05-.1.25-.2.475-.3.675l-.225.5-.325.65-.375.95-.4.95c-.183.433-.4.925-.65 1.475-.4.933-.691 1.633-.875 2.1-.616 1.6-1.066 2.866-1.35 3.8-.033.116-.083.325-.15.625-.066.3-.141.525-.225.675a.878.878 0 0 1-.4.45c-.166.1-.358.15-.575.15-.283 0-.533-.059-.75-.175-.25-.134-.433-.267-.55-.4a.736.736 0 0 1-.175-.5c0-.167.034-.35.1-.55.784-2.584 1.675-4.892 2.675-6.925.134-.267.275-.584.425-.95.15-.367.259-.642.325-.825.317-.867.567-1.467.75-1.8a22.158 22.158 0 0 0 1.4-3.275c-.083.066-.225.1-.425.1-.15 0-.35-.017-.6-.05a2.79 2.79 0 0 0-.55-.075 1.895 1.895 0 0 1-.475-.625 2.178 2.178 0 0 1-.175-.825c0-.234.05-.434.15-.6.084-.15.167-.25.25-.3a.66.66 0 0 1 .375-.1h1.925c.15 0 .309-.067.475-.2.017-.017.075-.059.175-.125a.71.71 0 0 1 .4-.1c.067 0 .184.016.35.05.25.083.534.125.85.125.267 0 .625-.042 1.075-.125.267-.067.634-.1 1.1-.1l.95.025c.184.016.425.025.725.025.117 0 .259.016.425.05.184.033.334.058.45.075.134.016.367.025.7.025.567.016 1.05.058 1.45.125.4.05.709.158.925.325.15.116.292.275.425.475.134.183.2.35.2.5 0 .133-.266 1.125-.8 2.975-.516 1.833-.833 2.866-.95 3.1-.316.816-.783 2.208-1.4 4.175l-.8 2.45a17.71 17.71 0 0 0-.275.85c-.2.616-.425 1.258-.675 1.925-.233.666-.425 1.1-.575 1.3Zm5.778.45a13.282 13.282 0 0 0-.4-.175 2.174 2.174 0 0 1-.575-.325c-.167-.134-.25-.267-.25-.4-.033-.067-.033-.192 0-.375.033-.184.117-.509.25-.975l.15-.55c.15-.484.225-.734.225-.75a.106.106 0 0 0 .075.025c.15 0 .225-.2.225-.6-.017-.067 0-.175.05-.325.067-.15.142-.3.225-.45 0-.117.067-.542.2-1.275a21.21 21.21 0 0 1 1.325-3.375c.017-.134.075-.325.175-.575.1-.25.175-.409.225-.475.033-.25.125-.567.275-.95.15-.4.3-.667.45-.8 0-.184.142-.592.425-1.225.283-.634.45-.95.5-.95 0-.017.017-.075.05-.175.05-.117.142-.267.275-.45 0-.084.017-.192.05-.325a.55.55 0 0 1 .225-.325c.017-.05.042-.15.075-.3.033-.15.042-.25.025-.3 0-.05-.017-.084-.05-.1a.82.82 0 0 1-.05-.3c0-.234.15-.359.45-.375.1 0 .217-.142.35-.425.067-.134.25-.25.55-.35.3-.1.733-.209 1.3-.325l1.325-.225c.283 0 .6.016.95.05.35.033.633.075.85.125.617.3 1.15.716 1.6 1.25.467.516.7.975.7 1.375 0 .5-.2 1.308-.6 2.425-.383 1.116-.717 1.783-1 2 .083 0 .05.091-.1.275-.15.183-.342.375-.575.575-.217.2-.383.316-.5.35 0 .033-.067.15-.2.35-.133.2-.292.35-.475.45-.05.033-.225.141-.525.325-.3.183-.525.391-.675.625 0-.084-.025-.125-.075-.125-.067 0-.167.058-.3.175-.117.1-.208.166-.275.2-.35.216-.642.358-.875.425a11.63 11.63 0 0 1-1.075.225c-.117.1-.417.15-.9.15l-.925-.125-.525 1.5c-.233.733-.5 1.5-.8 2.3a31.58 31.58 0 0 0-.35.95c-.167.45-.325.933-.475 1.45-.05.283-.142.525-.275.725-.117.216-.25.366-.4.45-.133.083-.242.091-.325.025Zm4.05-9.325c.75-.067 1.325-.2 1.725-.4.417-.2.892-.559 1.425-1.075l.775-.775c.467-.45.858-.892 1.175-1.325.45-.667.675-1.35.675-2.05 0-.334-.058-.617-.175-.85-.3-.434-.708-.65-1.225-.65-.45 0-.933.15-1.45.45-.167.066-.508.616-1.025 1.65a38.147 38.147 0 0 0-1.375 3.15c-.4 1.066-.575 1.691-.525 1.875Zm7.114 8.475a1.838 1.838 0 0 1-.4-.275.51.51 0 0 1-.1-.325c0-.167.067-.4.2-.7.15-.317.4-.809.75-1.475.1-.217.292-.6.575-1.15.717-1.367 1.075-2.375 1.075-3.025a.363.363 0 0 1-.025-.15c0-.167.134-.317.4-.45.05-.05.225-.192.525-.425.317-.234.567-.5.75-.8.217-.5.492-1.05.825-1.65.334-.617.909-1.617 1.725-3 .8-1.467 1.65-2.792 2.55-3.975.167-.234.35-.417.55-.55.217-.134.4-.2.55-.2.517 0 1.042.2 1.575.6.55.4.909.8 1.075 1.2.067.116.1.366.1.75 0 .516-.058 1.391-.175 2.625-.033.216-.066.558-.1 1.025-.05.75-.125 1.55-.225 2.4a259.626 259.626 0 0 0-.4 4.375 37.566 37.566 0 0 0-.125 2.95c0 .466.009.808.025 1.025v.175l-.025.575c-.1.1-.3.15-.6.15-.333 0-.666-.059-1-.175-.333-.1-.516-.225-.55-.375a.249.249 0 0 0-.075-.05c-.033-.017-.05-.092-.05-.225l.025-.55.075-1.4.125-3.825-.325.025c-.333 0-1.041.066-2.125.2-1.066.133-1.741.241-2.025.325-.15 0-.333.1-.55.3a2.86 2.86 0 0 0-.575.775c-.05.166-.166.408-.35.725-.183.3-.275.475-.275.525a1.07 1.07 0 0 0-.275.275c-.066.1-.108.166-.125.2 0 .183-.166.658-.5 1.425-.316.75-.633 1.366-.95 1.85l-.675.95-.875-.675Zm5.975-8.6.7-.1a7.36 7.36 0 0 1 .925-.125c.8-.2 1.35-.3 1.65-.3.167 0 .284.016.35.05.05.066.1.116.15.15a.86.86 0 0 0 .125.025c.034-.134.167-1.042.4-2.725.234-1.684.35-2.717.35-3.1 0-.267-.008-.492-.025-.675a2.098 2.098 0 0 0-.05-.375c-.15 0-.491.4-1.025 1.2a23.183 23.183 0 0 0-1.55 2.675c-.383.683-.65 1.025-.8 1.025-.116.116-.366.508-.75 1.175-.383.666-.533 1.033-.45 1.1Zm10.594 9.575c-.433-.267-.758-.55-.975-.85-.217-.284-.325-.559-.325-.825 0-.35.175-.634.525-.85a.614.614 0 0 1 .275-.05c.167 0 .342.033.525.1.2.05.35.125.45.225.433.4.95.6 1.55.6.267 0 .65-.059 1.15-.175.65-.2 1.158-.45 1.525-.75.383-.3.833-.767 1.35-1.4a4.73 4.73 0 0 0 .7-1.25c.167-.434.25-.825.25-1.175 0-.384-.092-.684-.275-.9-.333-.45-.708-.784-1.125-1-.4-.234-.875-.35-1.425-.35a5.14 5.14 0 0 0-1.425.2l-1.45.3a3.216 3.216 0 0 1-.275.05c-.1 0-.25.241-.45.725-.2.483-.542 1.4-1.025 2.75-.35.983-.642 1.691-.875 2.125-.233.416-.442.625-.625.625-.2 0-.417-.184-.65-.55-.05-.084-.158-.25-.325-.5a1.41 1.41 0 0 1-.225-.725c0-.117.042-.259.125-.425.083-.15.15-.3.2-.45.067-.15.133-.359.2-.625.217-.65.842-2.267 1.875-4.85 1.05-2.584 1.867-4.534 2.45-5.85.417-.95.542-1.45.375-1.5a.576.576 0 0 0-.075-.225c-.05-.1-.067-.175-.05-.225 0-.1.292-.25.875-.45.6-.2 1.008-.284 1.225-.25h.15c.217 0 .325-.042.325-.125.033 0 .183-.017.45-.05a3.98 3.98 0 0 1 .9 0c1.183.1 2.117.441 2.8 1.025.683.566 1.017 1.408 1 2.525-.033.433-.275 1.025-.725 1.775-.45.75-.942 1.366-1.475 1.85a19.421 19.421 0 0 1-1.575 1.225l.625.225c.783.3 1.392.666 1.825 1.1.433.433.742 1.025.925 1.775.033.166.05.316.05.45 0 .366-.067.783-.2 1.25a8.2 8.2 0 0 1-.4 1.225c-.1.1-.183.208-.25.325a5.24 5.24 0 0 0-.125.225c-.017.066-.167.325-.45.775a12.85 12.85 0 0 1-.75 1.05c-1.1.933-2.008 1.533-2.725 1.8-.7.316-1.533.475-2.5.475-.867 0-1.508-.134-1.925-.4Zm1.8-10.375 1-.2a9.25 9.25 0 0 0 1.075-.3l.3-.15c.183-.1.367-.242.55-.425 1.05-.984 1.783-1.867 2.2-2.65.417-.684.625-1.167.625-1.45 0-.2-.092-.392-.275-.575-.317-.367-.842-.55-1.575-.55-.317 0-.583.033-.8.1-.233.066-.408.15-.525.25-.1.083-.15.216-.15.4 0 .133-.042.283-.125.45a1.67 1.67 0 0 1-.275.375c-.017.1-.067.2-.15.3-.067.1-.117.166-.15.2 0 .033-.117.258-.35.675-.217.416-.425.883-.625 1.4-.5 1.183-.75 1.9-.75 2.15Zm10.2 10.05c-.55-.134-.991-.309-1.325-.525-.316-.2-.475-.525-.475-.975 0-.25.042-.417.125-.5.1-.1.267-.209.5-.325.2-.1.375-.192.525-.275.15-.1.3-.242.45-.425.95-1.15 1.8-2.434 2.55-3.85a65.427 65.427 0 0 0 2.3-4.875 60.506 60.506 0 0 1 1.675-3.825c-1 .266-1.683.55-2.05.85-.033.033-.1.083-.2.15a.863.863 0 0 1-.3.15c-.616-.05-1.15-.317-1.6-.8a5.45 5.45 0 0 1-.025-.6c0-.65.509-1.175 1.525-1.575a14.979 14.979 0 0 1 3.075-.9c.084.05.159.075.225.075.084 0 .2-.017.35-.05a.695.695 0 0 1 .375 0c.084-.034.217-.05.4-.05.234 0 .425.041.575.125.5 0 .934.058 1.3.175.384.116.809.316 1.275.6 1.35.8 2.025 1.858 2.025 3.175 0 .116-.016.308-.05.575-.166 1.033-.458 2.308-.875 3.825a16.483 16.483 0 0 1-.75 2.125 37.365 37.365 0 0 1-1.275 3.425l-.4 1.05a81.485 81.485 0 0 0-.8 2.1c-.166.533-.45.8-.85.8-.3 0-.625-.142-.975-.425a3.355 3.355 0 0 1-.775-.925c.217-.567.559-1.4 1.025-2.5l.4-.95.55-1.4c.367-1.05.634-1.775.8-2.175a5.31 5.31 0 0 0 .3-.925l.225-.725c.134-.467.225-.825.275-1.075.034-.117.084-.325.15-.625.084-.3.167-.567.25-.8 0-.134.009-.259.025-.375.034-.117.05-.184.05-.2.067-.267.092-.567.075-.9v-.675l-.175-.275a3.452 3.452 0 0 0-.675-.325 1.323 1.323 0 0 0-.625-.1c-.2.3-.383.666-.55 1.1-.233.483-.4.808-.5.975-.283.45-.533.908-.75 1.375a52.59 52.59 0 0 0-.85 1.975l-.375.85c-.05.083-.1.225-.15.425a1.256 1.256 0 0 1-.125.4l-.175.35c-.05.133-.1.241-.15.325-.083.233-.241.558-.475.975-.35.666-.566 1.175-.65 1.525-.166.216-.366.558-.6 1.025l-.325.575c-.416.7-.791 1.291-1.125 1.775a8.794 8.794 0 0 1-1.075 1.25c-.283.3-.716.575-1.3.825Zm16.35-.575a4.412 4.412 0 0 1-.75-.725c-.2-.267-.3-.509-.3-.725 0-.317.275-.542.825-.675 1.716-.417 3.641-2.092 5.775-5.025-.734-.4-1.284-.817-1.65-1.25-.367-.45-.634-1.067-.8-1.85a4.761 4.761 0 0 1-.125-1c.083-.117.125-.292.125-.525.016-.234.041-.4.075-.5l.55-1.625c.55-1.584 2.083-2.809 4.6-3.675.816-.334 1.416-.475 1.8-.425l.325-.025c.15-.05.3-.075.45-.075.116 0 .2.008.25.025a.747.747 0 0 1 .225-.025c.283 0 .6.091.95.275.366.166.675.383.925.65.266.266.4.533.4.8 0 .083-.009.15-.025.2-.167.483-.275.791-.325.925-.267.833-.484 1.45-.65 1.85-.45 1.1-.975 2.666-1.575 4.7-.584 2.033-.917 3.516-1 4.45-.134.366-.25.975-.35 1.825-.017.15-.05.366-.1.65a5.04 5.04 0 0 1-.125.7c-.05.216-.2.408-.45.575-.25.166-.5.25-.75.25a.771.771 0 0 1-.35-.075 2.415 2.415 0 0 1-.525-.375 14.987 14.987 0 0 1-.525-.5c.05-.184.108-.459.175-.825.066-.45.158-.817.275-1.1.033-.35.108-.825.225-1.425a4.48 4.48 0 0 0 .1-.525c.1-.534.2-.925.3-1.175l.05-.4c-.234.383-.875 1.158-1.925 2.325a26.647 26.647 0 0 1-3.325 3.125c-1.15.9-2.075 1.3-2.775 1.2Zm8.575-8.975c.783-2.484 1.45-4.692 2-6.625a6.579 6.579 0 0 0-2.25.675c-.734.366-1.35.85-1.85 1.45a3.75 3.75 0 0 0-.875 2.025 2.879 2.879 0 0 1-.125.6.716.716 0 0 0-.075.325c0 .333.133.658.4.975.283.316.575.475.875.475.2 0 .408-.067.625-.2.216-.134.341-.209.375-.225l.9.525Zm8.727 9.05c-.233.066-.408.1-.525.1a.879.879 0 0 1-.725-.35c-.183-.234-.275-.584-.275-1.05 0-.667.2-1.534.6-2.6l.275-.825c.834-2.434 1.375-3.834 1.625-4.2a1.6 1.6 0 0 0 .125-.625c0-.084.042-.209.125-.375l.2-.4c.2-.367.3-.642.3-.825 0-.067.1-.4.3-1 .2-.617.4-1.084.6-1.4.1-.25.217-.492.35-.725.134-.25.2-.409.2-.475 0-.034-.183-.05-.55-.05-.516 0-1.158.025-1.925.075-.75.05-1.25.108-1.5.175-.35.083-.558.116-.625.1-.083-.034-.208-.192-.375-.475-.166-.3-.25-.567-.25-.8 0-.2.067-.334.2-.4.267-.167.534-.275.8-.325.284-.05.675-.092 1.175-.125.517-.034.875-.067 1.075-.1.35 0 .675-.017.975-.05.317-.05.5-.075.55-.075.134 0 .3-.025.5-.075.467-.084.784-.125.95-.125.234 0 .467-.025.7-.075.267-.034.442-.05.525-.05h1.55c.217 0 .517-.034.9-.1.384-.067.725-.134 1.025-.2.45-.1.859-.15 1.225-.15.434 0 .792.083 1.075.25.284.15.459.375.525.675.15.833-1.108 1.325-3.775 1.475-.15.016-.441.041-.875.075-.416.033-.691.075-.825.125-.116.05-.175.125-.175.225s-.05.2-.15.3c-.083.083-.141.15-.175.2-.133.05-.358.466-.675 1.25-.316.766-.475 1.241-.475 1.425l-.1.2a.576.576 0 0 0-.075.225c-.116.3-.3.683-.55 1.15-.5 1.316-.816 2.133-.95 2.45l-.275.675c-.366 1.216-.633 2.041-.8 2.475a.844.844 0 0 1-.2.225.373.373 0 0 0-.1.275c0 .083-.241.75-.725 2-.483 1.25-.75 1.883-.8 1.9Zm11.451.375c-.15.15-.367.225-.65.225-.4 0-.783-.15-1.15-.45-.35-.284-.525-.642-.525-1.075 0-.15.025-.309.075-.475l3.15-10.275.375-1.225c.3-.95.525-1.725.675-2.325.167-.617.308-1.317.425-2.1l.325-.35a1.37 1.37 0 0 1 .325-.05c.433 0 .825.175 1.175.525.35.333.525.708.525 1.125 0 .133-.008.233-.025.3-.15.65-.433 1.566-.85 2.75l-.3.85a221.167 221.167 0 0 0-2.45 7.425 97.879 97.879 0 0 1 2.45-3.275c1.6-2.067 3.533-4.125 5.8-6.175.2-.184.617-.634 1.25-1.35.633-.734 1.108-1.3 1.425-1.7.05-.05.133-.15.25-.3.117-.167.242-.284.375-.35a.824.824 0 0 1 .45-.125c.35 0 .7.191 1.05.575.367.366.55.741.55 1.125a1.4 1.4 0 0 1-.05.3l-.825 2.25c-.5 1.383-1.217 3.475-2.15 6.275-.05.133-.1.275-.15.425-.05.15-.108.316-.175.5-.467 1.25-.75 2.216-.85 2.9l-.125.775c-.2 1.266-.392 2.191-.575 2.775-.117.366-.35.55-.7.55-.267 0-.558-.1-.875-.3-.3-.2-.517-.409-.65-.625-.117-.217-.15-.425-.1-.625.2-.984.5-2.242.9-3.775.15-.567.383-1.25.7-2.05.317-.8.633-1.542.95-2.225a6.75 6.75 0 0 0 .35-1c.133-.5.258-.867.375-1.1.367-.734.617-1.625.75-2.675-.2.366-.4.675-.6.925-.2.233-.467.533-.8.9l-1.125 1.15-.25.2a3.056 3.056 0 0 1-.225.2c-.033.033-.358.4-.975 1.1-.367.433-.617.716-.75.85-.417.433-.975 1.1-1.675 2-.717.866-1.1 1.325-1.15 1.375-.55.65-1.108 1.333-1.675 2.05a7.807 7.807 0 0 0-1.275 2.3c-.117.333-.3.6-.55.8l-.45.475Zm36.832-12.025c.034.533.05.85.05.95 0 .383-.033.716-.1 1-.066.283-.216.866-.45 1.75-.35.666-.575 1.108-.675 1.325-.383.733-.741 1.316-1.075 1.75-.333.416-.941.983-1.825 1.7-.383.35-1.041.7-1.975 1.05-.916.35-1.641.525-2.175.525-.15.016-.391.025-.725.025-.233 0-.4-.009-.5-.025-.016.416-.158 1.333-.425 2.75-.233.416-.491.625-.775.625-.1 0-.2-.025-.3-.075-.3-.067-.566-.25-.8-.55-.233-.3-.333-.575-.3-.825a19 19 0 0 0 .375-1.625l.125-.525-1.725-.925c-.466-.35-.975-.85-1.525-1.5-.55-.65-.883-1.317-1-2-.083-.317-.125-.734-.125-1.25 0-1 .2-2.05.6-3.15.417-1.117.967-2.084 1.65-2.9a6.47 6.47 0 0 1 .775-.75c.267-.217.525-.409.775-.575a21.1 21.1 0 0 0 .5-.375l.75-.525c.15-.1.409-.234.775-.4.384-.184.709-.317.975-.4.2-.067.392-.109.575-.125.2-.034.459-.05.775-.05.467 0 .892.008 1.275.025 0-.317.084-.809.25-1.475.017-.134.042-.267.075-.4a3.45 3.45 0 0 0 .075-.375c0-.217.1-.4.3-.55.2-.167.417-.217.65-.15.3.066.584.216.85.45.267.233.4.433.4.6 0 .266-.016.5-.05.7l-.425 1.7c.767.3 1.517.708 2.25 1.225.55.383.95.708 1.2.975.267.266.467.575.6.925.134.35.242.833.325 1.45Zm-10.675 5.9c.117-.284.359-.975.725-2.075.734-2.134 1.292-3.642 1.675-4.525l.875-2.075-.375-.025c-.2 0-.4.025-.6.075-.416.083-.891.3-1.425.65-.533.333-1.025.683-1.475 1.05-.566.45-.983.933-1.25 1.45-.766 1.433-1.15 2.483-1.15 3.15-.083.35-.125.641-.125.875 0 .35.05.658.15.925.1.266.242.525.425.775.234.4.534.725.9.975.384.25.8.466 1.25.65.05-.317.109-.667.175-1.05.084-.384.159-.659.225-.825Zm8.6-5.5c.084-.867-.191-1.492-.825-1.875-.116-.067-.341-.2-.675-.4-.333-.2-.616-.35-.85-.45a4.338 4.338 0 0 0-.7-.3c-.033.166-.141.475-.325.925-.133.283-.291.683-.475 1.2-.216.5-.608 1.516-1.175 3.05-.566 1.516-.916 2.5-1.05 2.95l-.225.7c-.166.45-.283.85-.35 1.2l-.175.675.925-.3a2.38 2.38 0 0 1 .55-.175c.384-.117.667-.217.85-.3a5.375 5.375 0 0 0 1.975-1.35c.584-.617 1.159-1.459 1.725-2.525.117-.25.275-.742.475-1.475.2-.734.309-1.25.325-1.55Zm4.387 11.15c-.65-.484-1.15-.917-1.5-1.3-.35-.384-.533-.75-.55-1.1a2.773 2.773 0 0 1-.025-.45c0-.467.042-1.05.125-1.75.084-.7.167-1.259.25-1.675.067-.067.1-.167.1-.3.017-.134.017-.217 0-.25 0-.05.042-.217.125-.5.2-.617.342-1.134.425-1.55.45-1.367.892-2.459 1.325-3.275.434-.817.917-1.584 1.45-2.3 1.134-1.167 2.342-2.05 3.625-2.65.65-.384 1.117-.575 1.4-.575a.77.77 0 0 1 .225.05c2.05.45 3.275 1.75 3.675 3.9.15 1.016.225 1.783.225 2.3 0 .833-.15 1.675-.45 2.525-.3.85-.841 1.916-1.625 3.2-.666 1.333-1.425 2.475-2.275 3.425-.833.933-1.675 1.633-2.525 2.1-.833.466-1.616.7-2.35.7-.65 0-1.2-.175-1.65-.525Zm2-1.65c.4-.05.709-.125.925-.225.234-.1.467-.267.7-.5.25-.25.65-.692 1.2-1.325.7-.8 1.192-1.384 1.475-1.75.284-.384.542-.859.775-1.425.25-.567.525-1.384.825-2.45l.15-.575c.1-.35.167-.634.2-.85.05-.234.075-.484.075-.75l-.025-1.575a4.433 4.433 0 0 0-.175-.975c-.1-.35-.216-.6-.35-.75a1.517 1.517 0 0 0-.55-.375 1.398 1.398 0 0 0-.675-.175c-.166 0-.358.041-.575.125-.316.133-.758.491-1.325 1.075a16.375 16.375 0 0 0-1.525 1.75c-.433.6-.65 1-.65 1.2 0 .016-.008.066-.025.15a.545.545 0 0 1-.1.225c-.433.466-.875 1.45-1.325 2.95-.433 1.5-.683 2.808-.75 3.925a9.9 9.9 0 0 0 0 1c.034.183.125.391.275.625.117.183.325.358.625.525.317.15.592.2.825.15Zm10.698 1.4c-.167 0-.417-.084-.75-.25-.334-.167-.5-.342-.5-.525 0-.034-.009-.1-.025-.2-.017-.1-.05-.2-.1-.3 0-.417.041-.75.125-1 0-.184.024-.384.075-.6.05-.217.108-.392.175-.525 0-.134.033-.309.1-.525.066-.234.108-.392.125-.475l.15-.525.425-1.275c.083-.2.141-.367.175-.5.033-.134.049-.259.049-.375.101-.334.226-.759.375-1.275.15-.517.275-.967.375-1.35.084-.084.125-.209.125-.375.034-.1.109-.334.226-.7.116-.384.25-.784.399-1.2.25-.734.442-1.334.576-1.8.133-.467.2-.792.2-.975a.57.57 0 0 0-.075-.3 1.82 1.82 0 0 0-.076-.2c-.066-.167-.099-.267-.099-.3 0-.067.033-.134.099-.2a.815.815 0 0 0 .151-.2c.05-.084.083-.142.099-.175 0-.067.409-.259 1.226-.575.833-.334 1.475-.567 1.925-.7h1.525c.466.066.925.2 1.375.4.449.2.824.45 1.125.75.516.483.983 1.191 1.4 2.125 0 .066.016.216.049.45.051.216.076.408.076.575 0 .783-.284 1.683-.85 2.7-.55 1.016-1.309 1.916-2.275 2.7a6.626 6.626 0 0 1-1.75 1c-.6.233-1.175.35-1.725.35-.25 0-.484-.025-.7-.075-.3-.117-.517-.284-.651-.5a1.612 1.612 0 0 1-.174-.725c0-.217.033-.359.1-.425.066-.017.25-.025.55-.025.3 0 .741-.109 1.325-.325.433-.15.783-.309 1.05-.475.783-.5 1.474-1.234 2.075-2.2.333-.534.5-1.334.5-2.4.033-.167.05-.292.05-.375 0-.334-.15-.609-.45-.825-.284-.234-.692-.375-1.225-.425a2.05 2.05 0 0 0-.375-.025c-.317 0-.65.041-1 .125-.351.083-.601.175-.75.275-.051 0-.092.058-.125.175a1.958 1.958 0 0 1-.125.325c0 .133-.059.383-.176.75-.1.366-.208.708-.324 1.025l-.325.95c-.217.55-.367.983-.45 1.3a7.88 7.88 0 0 1-.2.7 5.708 5.708 0 0 1-.175.45c0 .033-.05.183-.151.45-.1.266-.174.491-.224.675-.15.783-.359 1.5-.625 2.15-.384 1.25-.575 2.125-.575 2.625 0 .183.025.316.075.4.283.016.483.05.599.1.134.033.201.108.201.225 0 .2-.267.633-.8 1.3-.15.383-.309.658-.475.825-.167.166-.309.258-.426.275-.116.033-.291.05-.524.05Zm29.255-15.425c0 .083-.025.141-.075.175-.05.016-.075.033-.075.05 0 .016.033.05.1.1l-.175.825c-.067.35-.209 1.05-.425 2.1-.2 1.05-.35 1.9-.45 2.55l-.35 2.675c-.15 1.183-.259 2.091-.325 2.725-.05.633-.075 1.3-.075 2 0 .8.025 1.408.075 1.825.066.433.1.683.1.75 0 .1-.117.25-.35.45-.234.2-.492.3-.775.3-.434 0-.75-.184-.95-.55-.2-.35-.317-.9-.35-1.65 0-1.117.083-2.609.25-4.475.05-.117.075-.342.075-.675 0-.2-.017-.35-.05-.45-.017-.167.008-.4.075-.7.016-.067.033-.159.05-.275.016-.117.025-.225.025-.325 0-.084.033-.259.1-.525.1-.3.15-.534.15-.7v-.175c.05-.15.1-.334.15-.55.066-.234.1-.375.1-.425a1.436 1.436 0 0 1-.025-.35c0-.184-.017-.309-.05-.375.1-.284.216-.717.35-1.3l.3-1.2c-.017 0-.2.333-.55 1a15.31 15.31 0 0 1-1.225 1.975c-.384.616-.759 1.15-1.125 1.6-.35.45-.55.708-.6.775-.217.283-.425.55-.625.8-.184.25-.317.483-.4.7-.35.866-.759 1.5-1.225 1.9-.45.4-.909.625-1.375.675l-.4.05h-.15c-.317 0-.584-.209-.8-.625-.2-.417-.3-1.192-.3-2.325l.025-.675.075-1.4c.05-.284.091-.75.125-1.4.033-.667.058-1.109.075-1.325-.084.083-.234.391-.45.925-.2.533-.325.875-.375 1.025l-.225.575c-.084.116-.209.433-.375.95-.134.383-.317.85-.55 1.4-.367 1.2-.7 2.15-1 2.85-.134.283-.267.591-.4.925-.034.066-.134.333-.3.8-.234.6-.384.958-.45 1.075-.717 1.616-1.317 2.425-1.8 2.425-.267 0-.534-.142-.8-.425-.25-.267-.375-.559-.375-.875 0-.234.091-.542.275-.925.183-.4.45-.917.8-1.55l.525-.975c0-.084.2-.65.6-1.7l.35-.925 1.55-4.1.025-.1.15-.375a6.59 6.59 0 0 1 .275-.6c.233-.534.35-.842.35-.925v-.05c0-.05.016-.084.05-.1a.39.39 0 0 1 .1-.025c.066-.184.183-.467.35-.85.183-.4.325-.7.425-.9l-.025-.1a.9.9 0 0 1 .075-.4c.066-.1.133-.192.2-.275.083-.084.15-.159.2-.225 0-.1.05-.234.15-.4.1-.184.216-.367.35-.55.266-.367.441-.642.525-.825.166-.317.425-.475.775-.475.25 0 .5.1.75.3.25.2.458.425.625.675.166.233.25.391.25.475 0 .05-.025.083-.075.1-.05.016-.075.058-.075.125v.1c.016.05.025.116.025.2 0 .3-.042.533-.125.7a7.721 7.721 0 0 0-.225 1.925l.025.725c0 .133-.034.233-.1.3a3.38 3.38 0 0 0-.125.175v.05l-.025.2.025.15c0 .15-.042.333-.125.55-.1.383-.15.591-.15.625-.067.55-.1 1.116-.1 1.7 0 .866.075 1.341.225 1.425l1.8-2.675c1.533-2.267 2.308-3.425 2.325-3.475.116-.067.225-.192.325-.375-.017 0-.025-.017-.025-.05 0-.084.216-.442.65-1.075.433-.65.9-1.234 1.4-1.75.5-.534.908-.8 1.225-.8.15 0 .35.1.6.3.266.2.5.45.7.75.2.283.3.55.3.8Zm6.076 15.575a6.95 6.95 0 0 0-.575-.125c-.267-.05-.5-.125-.7-.225a1.852 1.852 0 0 1-.65-.525 1.325 1.325 0 0 1-.225-.725c0-.4.191-.734.575-1 .233-.017.416-.009.55.025.133.016.35.083.65.2.116.05.283.083.5.1.233 0 .4.016.5.05.333-.05.666-.184 1-.4.333-.234.625-.492.875-.775.033-.034.075-.092.125-.175.066-.084.133-.15.2-.2-.184-.217-.417-.7-.7-1.45-.284-.75-.442-1.267-.475-1.55-.017-.1-.042-.234-.075-.4a2.55 2.55 0 0 0-.075-.45 10.19 10.19 0 0 0-.425-1.25 18.164 18.164 0 0 1-.35-1.05 29.457 29.457 0 0 1-.5-2.375c-.167-.95-.25-1.684-.25-2.2 0-.467-.034-.892-.1-1.275a5.554 5.554 0 0 1-.125-1.075c0-.4.066-.767.2-1.1l1.15-.125c.133.1.3.233.5.4.2.166.383.291.55.375 0 .266.016.633.05 1.1.016.15.025.366.025.65 0 .116-.009.266-.025.45 0 .183.008.4.025.65.066.033.108.125.125.275.033.133.041.25.025.35-.034.216.033.783.2 1.7.166.916.3 1.45.4 1.6.066.466.25 1.083.55 1.85.3.766.675 1.7 1.125 2.8a21.855 21.855 0 0 0 1.675-2.85 113.625 113.625 0 0 0 2-4.225c.283-.684.608-1.417.975-2.2.083-.167.216-.525.4-1.075.1-.35.225-.7.375-1.05.366-.2.666-.3.9-.3a.77.77 0 0 1 .225.05c.3.133.541.341.725.625.2.283.3.583.3.9 0 .066-.017.183-.05.35-.217.816-.5 1.491-.85 2.025l-1.675 3.375c-.25.516-.409.825-.475.925l-.65 1.375c-.267.616-.917 1.658-1.95 3.125-.05.083-.125.183-.225.3a9.133 9.133 0 0 0-.225.325c-.617.916-1.409 1.758-2.375 2.525l-.8.6-.225.225c-.084.083-.175.15-.275.2a.576.576 0 0 1-.3.075c-.2.183-.917.375-2.15.575Zm14.478-4.8a.782.782 0 0 1-.225.025.947.947 0 0 1-.775-.375c-.184-.267-.275-.667-.275-1.2 0-.417.074-.934.224-1.55.234-.467.35-.817.35-1.05.084-.284.217-.642.4-1.075.184-.45.334-.792.451-1.025.066 0 .133-.059.2-.175a.604.604 0 0 0 .125-.35c0-.15.025-.3.074-.45a1.06 1.06 0 0 1 .201-.35c0-.05.033-.134.1-.25.066-.134.099-.225.099-.275 0-.034.017-.084.051-.15a.437.437 0 0 0 .074-.2c.3-.5.734-1.442 1.301-2.825.566-1.384.858-2.184.875-2.4.066-.384.216-.55.449-.5.084-.067.284-.1.6-.1.05.016.142.058.275.125.134.066.25.158.35.275a.678.678 0 0 1 .201.425c.033.166.049.383.049.65-.016.25-.091.525-.225.825-.133.283-.291.583-.474.9a12.87 12.87 0 0 0-.375.675l-.325.6c-.267.466-.4.741-.4.825 0 .066-.042.191-.125.375a7.464 7.464 0 0 0-.201.425 5.795 5.795 0 0 0-.424.9c-.134.383-.201.616-.201.7a2.734 2.734 0 0 0-.074.175.446.446 0 0 1-.125.225c-.05 0-.084.041-.1.125a.653.653 0 0 0-.025.15c0 .083-.042.25-.125.5-.084.25-.2.525-.35.825-.567 1.616-.876 2.766-.926 3.45-.033.35-.116.6-.25.75-.116.15-.266.275-.449.375Zm-1.326 3.875c-.316.133-.583.2-.799.2-.25 0-.534-.117-.85-.35-.25-.25-.375-.5-.375-.75 0-.417.308-.834.924-1.25.367-.234.634-.35.801-.35.116 0 .333.066.65.2.5.316.75.658.75 1.025 0 .466-.367.891-1.101 1.275Z" fill="#1EA6F9"/><path d="M17.561 162.049c-5.213 46.624 68.012 68.138 110.659 72.339 59.645 6.669 76.795 3.483 91.737 2.602V302l33.799-71.438c20.437-4.519 109.999-11.091 108.048-63.621-2.119-57.055-125.51-68.47-168.61-69.888-43.099-1.416-168.722 3.191-175.632 64.996Z" stroke="#6ABDEC" stroke-width="3" stroke-linecap="round" stroke-dasharray="6 12"/><path d="m27.356 592.83-2.242-7.146s-24.676-6.725-23.24-44.273c1.104-29.283 24.414-39.353 24.414-39.353s-4.273-5.709-4.098-9.387c.403-2.86 1.4-5.604 2.924-8.056 0 0-7.706-8.757-6.48-17.216 1.226-8.459 6.48-5.692 6.48-5.692s7.566 12.872 9.773 11.349c2.206-1.524 7.005-11.752 7.005-11.752s-6.532-31.699 8.95-55.499c15.481-23.801 22.767-26.953 22.767-26.953s28.757-58.267 55.552-61.034c17.216-1.752 20.683 28.021 20.683 28.021s53.767-8.617 102.506 9.93c48.74 18.547 71.805 52.312 71.805 52.312s49.44 13.013 52.33 28.407c3.345 17.864-27.286 45.377-27.286 45.377s-.42 31.962-10.648 48.074c-10.228 16.113-7.478 14.746-7.478 14.746l4.378 5.605s-14.344 11.278-16.288 10.665c-1.944-.613-16.917 16.375-16.917 16.375l-14.536 20.351-12.838 9.317.123 9.124s-54.379 10.911-127.042 8.757C54.187 622.34 27.356 592.83 27.356 592.83Z" fill="#F5FCFF"/><path d="M66.919 507.434s11.19-.683 14.536 4.466c3.345 5.149 3.135 18.092-7.146 33.976-10.28 15.885-16.988 35.027-17.898 43.784-.911 8.756-1.331 19.474-1.331 19.474s-16.41-5.149-24.151-11.629c1.348-10.385 5.586-29.177 10.893-35.026 4.5-5.044 15.762-20.578 15.762-20.578s7.005-20.333 7.005-21.016c0-.683 2.33-13.451 2.33-13.451Zm188.706 52.085s-19.457 17.513-15.867 37.11c3.59 19.598 6.497 23.871 6.497 23.871s18.249-1.261 24.081-3.503c1.314-.49.403-8.756.403-8.756s-5.254-28.67-5.499-31.804c-.245-3.135-9.615-16.918-9.615-16.918ZM51.507 423.931A86.218 86.218 0 0 1 60 406.785c5.131-7.601 11.786-16.988 11.786-16.988l16.83-21.909s14.975-13.731 15.868-14.256l17.215-9.597 7.829 8.634 21.909-7.373v7.723s53.433-8.284 99.038 11.559c45.605 19.842 61.297 42.207 61.297 42.207l40.123 33.976-4.028 28.021-5.254 19.125a52.967 52.967 0 0 1-2.224 20c-3.328 10.175-6.883 18.004-6.883 18.004s1.646-42.733-52.856-69.528c-53.153-26.13-92.943-17.216-92.943-17.216s-31.524-25.342-47.408-31.979c-14.519-6.025-31.244-5.254-55.22-1.454-17.478 2.872-33.573 18.197-33.573 18.197Z" fill="#B5E3FF"/><path d="M29.65 580.255s-21.419-14.186-20.175-38.18c1.243-23.993 18.144-33.748 18.144-33.748-1.56 15.254 8.756 45.535 8.756 45.535l.753 4.343-7.478 22.05Zm42.137-65.57s-14.799-16.498-15.604-20.263c-.806-3.765-.928-9.983-2.434-12.487-1.507-2.505-1.857-7.916-1.752-11.349.105-3.432 1.349-8.756-.998-11.348-2.347-2.592-11.279 5.254-11.279 5.254l-4.255 9.159-10.28-11.962s-1.122 11.839.892 14.414a22.4 22.4 0 0 1 3.135 6.602s-2.907 6.708-.333 11.297c2.75 4.903 5.482 6.024 5.482 6.024-.624 7.96-.7 15.953-.227 23.923 1.015 11.437 5.99 33.276 5.99 33.276l.717 4.378s16.095-7.828 22.575-19.002c6.48-11.173 8.371-27.916 8.371-27.916Zm184.959 44.099s20.473-2.68 26.27-7.741c5.797-5.062 12.855-9.16 16.06-7.864 3.205 1.296 6.339-7.005 6.339-7.005s5.815-12.802 7.601-12.802c1.787 0 5.027 2.872 5.079 6.269.053 3.398-1.138 15.027-1.138 15.027h11.926a10.588 10.588 0 0 1-5.814 8.511 29.37 29.37 0 0 1-10.613 3.013 21.787 21.787 0 0 1-1.629 5.534c-1.383 2.119-6.515 6.83-10.753 6.83-6.095 17.724-34.939 45.184-34.939 45.184s-8.984-7.986-11.699-24.904a55.33 55.33 0 0 1 3.31-30.052ZM73.521 389.15s23.205-54.467 53.994-61.7c11.401-2.68 22.189 25.044 22.189 25.044l.175 1.331a65.255 65.255 0 0 0-13.415 3.503 31.936 31.936 0 0 0-11.856 6.778l-7.373-11.419-5.044 3.502-5.71 9.93-1.996 4.589a74.584 74.584 0 0 0-16.323 8.161c-7.6 5.359-14.64 10.281-14.64 10.281Zm236.098 17.67s56.235 18.109 57.566 29.948c1.331 11.839-26.62 49.615-26.62 49.615s0-16.848-1.752-22.33a94.185 94.185 0 0 0-7.005-14.01l13.31-9.177-7.198-4.746-13.538-4.344s-1.523-8.564-4.868-13.152c-3.345-4.589-9.895-11.804-9.895-11.804Zm-180.318-17.671c-4.466-10.823 3.8-21.576 20.578-24.028 16.778-2.452 26.936 4.483 28.827 12.522 2.014 8.494-5.919 19.877-21.349 21.436-15.429 1.559-25.271-3.17-28.056-9.93Zm113.311 6.375c5.71-6.62 22.768-3.783 31.525 8.389 9.019 12.574 9.842 24.816 1.751 29.965-7.478 4.711-19.457 2.452-28.389-7.618-8.932-10.07-12.295-22.12-4.887-30.736Z" fill="#1EA6F9"/><path d="M154.24 437.17s6.76 8.757 9.387 8.442c2.627-.316 21.682 2.889 21.682 2.889s17.776 9.738 20.228 10.193c2.452.455 14.658-2.242 14.658-2.242s.596 7.829-1.383 10.508c-1.979 2.68-15.482 12.627-17.724 13.258-2.241.63-21.646 1.191-24.028-.49-2.382-1.682-19.86-10.649-21.962-13.416-2.101-2.767-7.688-15.762-7.233-19.562.456-3.8 4.799-9.843 5.359-10.403.561-.56 1.016.823 1.016.823Z" fill="#fff"/><path d="m201.193 459.106-1.686 19.226 3.716.326 1.686-19.226-3.716-.326Zm-17.628-14.036-11.237 31.767 3.517 1.244 11.237-31.767-3.517-1.244Zm-19.419-.997-10.944 18.514 3.211 1.898 10.945-18.513-3.212-1.899Z" fill="#C4CDE6"/><path d="M40.806 563.389a1.864 1.864 0 0 1-1.594-.894c-.718-1.19-17.32-29.159-14.168-60.315a16.364 16.364 0 0 1-3.117-17.514c-6.235-11.436-5.972-21.261-3.31-23.8a4.145 4.145 0 0 1 3.31-1.086c4.08.332 9.72 5.359 12.68 8.476 3.117-4.571 10.507-14.291 14.43-13.398 5.552 1.279 5.08 11.332 4.449 23.03 2.802 3.24 4.256 9.02 3.678 14.659 3.152 4.168 15.99 20.771 16.13 21.016a1.86 1.86 0 0 1-2.943 2.277c-.595-.753-14.518-18.757-16.62-21.594l-.455-.613.105-.753c.683-4.991-.648-10.508-3.083-12.89l-.613-.578v-1.296c.368-7.005.981-18.529-1.4-19.51-2.312.683-10.018 10.035-11.875 13.643l-1.348 2.61-1.752-2.347c-1.874-2.452-8.564-8.757-11.698-8.949h-.456c-1.033 1.138-1.751 9.422 4.466 20.14l.526.928-.543.928c-2.47 4.221-1.191 11.559 2.469 14.274l.858.648-.122 1.068c-3.503 30.281 13.38 58.687 13.555 58.967a1.875 1.875 0 0 1-.63 2.557 1.894 1.894 0 0 1-.929.316Z" fill="#070707"/><path d="M47.251 498.555a1.9 1.9 0 0 1-.806-.176c-3.345-1.611-11.226-5.761-11.874-9.649-.7-4.169 5.605-9.125 7.566-10.508a1.854 1.854 0 0 1 2.592.402 1.875 1.875 0 0 1-.403 2.61c-3.38 2.452-6.27 5.744-6.077 6.9.193 1.156 4.886 4.536 9.808 6.9a1.875 1.875 0 0 1 .875 2.487 1.858 1.858 0 0 1-1.68 1.034ZM27.356 596.49a1.839 1.839 0 0 1-1.752-1.892c.438-23.345 10.911-37.916 11.35-38.529a1.862 1.862 0 0 1 3.011 2.189 69.249 69.249 0 0 0-10.648 36.41 1.856 1.856 0 0 1-1.961 1.822Z" fill="#070707"/><path d="M27.619 591.55a1.758 1.758 0 0 1-.963-.28C25.552 590.622.052 574.79 0 545.437c0-27.741 24.221-44.239 25.254-44.922a1.862 1.862 0 0 1 2.067 3.1c-.245.158-23.626 16.113-23.59 41.822 0 27.216 24.606 42.505 24.85 42.663a1.871 1.871 0 0 1 .631 2.557 1.891 1.891 0 0 1-1.593.893ZM72.96 391.689a1.86 1.86 0 0 1-1.856-1.752c-1.226-30.981 39.843-72.803 60.106-73.924 15.289-.788 21.419 33.608 22.067 37.549a1.869 1.869 0 0 1-.86 1.883 1.873 1.873 0 0 1-2.069-.075 1.848 1.848 0 0 1-.749-1.213c-1.594-9.649-7.863-34.431-17.846-34.431h-.333c-18.599 1.033-57.794 41.384-56.603 70.054a1.86 1.86 0 0 1-1.751 1.944l-.106-.035Z" fill="#070707"/><path d="M103.854 374.472a1.88 1.88 0 0 1-1.503-.789 1.873 1.873 0 0 1-.248-1.68c.63-1.752 6.357-17.776 14.238-19.965a5.246 5.246 0 0 1 4.484.683c3.677 2.504 4.483 9.509 4.571 10.297a1.874 1.874 0 0 1-.405 1.363c-.154.19-.343.347-.558.463a1.838 1.838 0 0 1-1.414.148 1.855 1.855 0 0 1-1.319-1.588c-.245-2.329-1.261-6.445-2.977-7.601a1.572 1.572 0 0 0-1.383-.193c-4.536 1.261-9.58 11.472-11.717 17.514a1.852 1.852 0 0 1-1.769 1.348Zm228.007 77.357a1.859 1.859 0 0 1-1.545-2.912 1.86 1.86 0 0 1 1.089-.749c3.503-.893 10.508-3.748 10.018-6.865-.42-2.697-9.51-6.235-17.741-7.846a1.859 1.859 0 0 1-1.461-1.456 1.857 1.857 0 0 1 2.179-2.187c3.275.631 19.668 4.168 20.701 10.929 1.121 7.268-11.349 10.665-12.785 11.033a1.938 1.938 0 0 1-.455.053Z" fill="#070707"/><path d="M341.703 488.73a1.884 1.884 0 0 1-1.489-.718 1.908 1.908 0 0 1 .351-2.627c.368-.263 36.673-28.197 33.941-48.565-1.752-12.399-48.075-24.519-65.816-28.161a1.86 1.86 0 0 1-.66-3.37 1.86 1.86 0 0 1 1.396-.273c6.795 1.383 66.463 14.01 68.775 31.314 3.012 22.487-33.801 50.788-35.377 52.032a1.916 1.916 0 0 1-1.121.368ZM41.822 463.809a1.856 1.856 0 0 1-1.752-1.576c-.157-.964-3.502-23.748 3.503-44.169 9.51-28.021 29.02-40.789 29.773-41.314a1.893 1.893 0 0 1 2.575.56 1.862 1.862 0 0 1-.036 2.071c-.14.201-.319.372-.525.504-.193.122-19.265 12.662-28.337 39.387-6.637 19.563-3.345 42.172-3.31 42.4a1.891 1.891 0 0 1-1.576 2.119l-.315.018Z" fill="#070707"/><path d="M324.032 412.214a1.851 1.851 0 0 1-1.594-.893c-.21-.368-21.821-35.587-72.61-54.396-43.1-15.973-97.619-9.808-98.18-9.738a1.86 1.86 0 1 1-.42-3.695c.543 0 55.938-6.357 99.826 9.93 52.085 19.265 74.291 55.622 74.502 56.043a1.856 1.856 0 0 1-.631 2.557 1.889 1.889 0 0 1-.893.192Zm6.918 134.414a1.873 1.873 0 0 1-1.419-3.064 91.077 91.077 0 0 0 12.067-21.209c5.867-13.818 6.69-42.417 6.707-42.698a1.758 1.758 0 0 1 1.191-1.666c.231-.078.476-.107.719-.085a1.878 1.878 0 0 1 1.751 1.909c0 1.208-.841 29.598-7.005 44.064a92.049 92.049 0 0 1-12.663 22.154 1.845 1.845 0 0 1-1.348.595Z" fill="#070707"/><path d="M264.627 616.052a1.858 1.858 0 0 1-1.611-.929 1.878 1.878 0 0 1 .665-2.557c14.011-8.178 33.03-24.939 40.491-38.844l.228-.421.42-.262a44.892 44.892 0 0 0 12.662-12.837c.333-.491.613-.894.858-1.226l.438-.578.701-.14c6.234-1.244 11.401-5.254 13.292-8.494a3.51 3.51 0 0 0 .631-2.54c-.999-1.156-8.757-.823-16.253.753l-2.732.578.526-2.749c1.331-7.006 2.311-17.759.297-20.228-.21-.263-.297-.246-.42-.246-3.082 0-8.757 9.685-12.259 18.705l-.543 1.383-1.471-.21a20.025 20.025 0 0 0-7.321.613c-2.137.613-4.641 2.855-7.285 5.254a62.692 62.692 0 0 1-6.48 5.254c-5.92 4.011-22.943 5.832-23.661 5.902a1.842 1.842 0 0 1-1.401-.435 1.866 1.866 0 0 1-.46-.591 1.868 1.868 0 0 1-.188-.725 1.882 1.882 0 0 1 1.751-2.049c4.659-.473 17.689-2.365 21.945-5.254a59.591 59.591 0 0 0 6.094-4.992c2.96-2.679 5.78-5.254 8.757-6.042a23.763 23.763 0 0 1 7.39-.858c2.435-5.989 8.757-19.79 15.202-19.79a4.15 4.15 0 0 1 3.223 1.629c3.134 3.853 1.838 15.026.945 20.578 7.006-1.261 16.358-2.084 17.846 2.189a6.85 6.85 0 0 1-.928 5.622 24.276 24.276 0 0 1-15.061 10.123l-.403.595a48.699 48.699 0 0 1-13.31 13.573c-7.916 14.396-27.304 31.524-41.665 39.878a1.756 1.756 0 0 1-.91.368ZM155.694 421.987a1.913 1.913 0 0 1-1.349-.56 64.249 64.249 0 0 0-15.762-11.804c-7.811-3.713-20.823-1.016-21.016-.981a1.866 1.866 0 0 1-2.206-1.436 1.853 1.853 0 0 1 .261-1.401 1.86 1.86 0 0 1 1.175-.806c.578-.123 14.343-2.995 23.31 1.261a66.658 66.658 0 0 1 16.865 12.592 1.853 1.853 0 0 1 0 2.627 1.758 1.758 0 0 1-1.278.508Zm120.054 34.536a1.833 1.833 0 0 1-1.366-.595 43.773 43.773 0 0 0-19.265-10.193 39.152 39.152 0 0 0-21.909 0 1.879 1.879 0 0 1-2.259-1.156 1.875 1.875 0 0 1 .963-2.347 42.825 42.825 0 0 1 24.151 0c13.783 3.678 20.718 10.963 21.016 11.261a1.863 1.863 0 0 1 0 2.627 1.742 1.742 0 0 1-1.331.403ZM190.3 483.791a48.383 48.383 0 0 1-17.741-3.503c-17.111-6.673-26.06-17.881-26.568-33.275-.245-8.022 6.375-14.151 6.655-14.396a1.857 1.857 0 0 1 3.083 1.068 12.831 12.831 0 0 0 8.756 9.282c9.247 3.152 20.544.7 20.649.683a1.912 1.912 0 0 1 1.944.753 39.205 39.205 0 0 0 17.25 12.872 13.606 13.606 0 0 0 14.712-3.695 1.746 1.746 0 0 1 1.751-.63 1.847 1.847 0 0 1 1.436 1.12 16.117 16.117 0 0 1 0 9.948c-1.349 4.729-6.778 11.787-15.464 16.095a37.002 37.002 0 0 1-16.463 3.678Zm-37.128-46.306a15.273 15.273 0 0 0-3.503 9.282c.175 5.149.683 20.789 24.186 29.966 14.396 5.622 24.956 3.065 31.296 0 8.197-4.063 12.575-10.508 13.521-13.801.443-1.487.639-3.037.578-4.588a17.078 17.078 0 0 1-16.183 2.382 42.77 42.77 0 0 1-18.301-13.276c-3.345.596-12.995 1.874-21.454-1.015a16.893 16.893 0 0 1-10.14-8.95Z" fill="#070707"/><path d="M180.913 444.736s-7.251-9.895-3.678-14.536c3.783-4.939 14.011-2.697 16.2-1.576s12.259 7.005 9.667 12.364c-2.259 4.904-8.389 6.34-13.275 5.972-.298.893-1.313.263-1.313.263l-8.757-1.068 1.156-1.419Z" fill="#070707"/><path d="M197.06 439.956c1.962 0-3.835-4.606-5.254-5.36-2.539-1.296-11.418-2.977-10.245-.718 1.173 2.26 1.751 6.06 5.149 7.461 2.259.946 8.319-1.383 10.35-1.383Z" fill="#4C4C4C"/><path d="M274.749 618.083h-.35a1.887 1.887 0 0 1-1.488-2.171 26.774 26.774 0 0 0 0-7.286 1.845 1.845 0 0 1 .339-1.383 1.857 1.857 0 0 1 1.219-.736 1.878 1.878 0 0 1 2.119 1.559 29.37 29.37 0 0 1 0 8.529 1.857 1.857 0 0 1-1.839 1.488Z" fill="#070707"/><path d="M77.584 418.834c3.293-8.283 16.55-10.683 33.275-4.641 16.726 6.042 22.768 15.762 20.579 22.102-2.68 8.196-21.244 12.435-37.794 4.501-14.764-7.128-18.214-16.322-16.06-21.962Zm165.606 51.472c3.275-8.284 18.687-11.279 35.465-5.254 16.778 6.024 22.277 17.233 20 23.59-2.557 7.181-20.333 11.734-38.739 3.048-14.939-7.041-18.967-15.727-16.726-21.384Z" fill="#FFDCD9"/><path d="M92.085 430.673a1.872 1.872 0 0 1-1.856-1.751l-.736-9.703a1.876 1.876 0 0 1 1.752-1.996 1.757 1.757 0 0 1 1.4.417 1.76 1.76 0 0 1 .596 1.334l.736 9.703a1.874 1.874 0 0 1-1.752 1.996h-.14Zm11.594 3.169a1.87 1.87 0 0 1-1.857-1.751l-.735-9.702a1.845 1.845 0 0 1 .455-1.367 1.863 1.863 0 0 1 1.296-.63 1.759 1.759 0 0 1 1.4.418 1.754 1.754 0 0 1 .597 1.334l.735 9.702a1.856 1.856 0 0 1-1.751 1.996h-.14Zm11.209 3.188a1.853 1.853 0 0 1-1.857-1.751l-.735-9.702a1.87 1.87 0 0 1 1.751-1.997 1.759 1.759 0 0 1 1.4.418 1.743 1.743 0 0 1 .597 1.334l.735 9.702a1.856 1.856 0 0 1-1.751 1.996h-.14Zm143.872 44.958a1.859 1.859 0 0 1-1.857-1.752l-.735-9.527a1.86 1.86 0 0 1 1.707-2.005 1.861 1.861 0 0 1 2.006 1.707l.735 9.545a1.87 1.87 0 0 1-1.751 1.997l-.105.035Zm11.594 3.117a1.878 1.878 0 0 1-1.857-1.752l-.735-9.544a1.895 1.895 0 0 1 1.751-1.997 1.863 1.863 0 0 1 1.813 1.04c.108.222.17.464.184.711l.735 9.545a1.845 1.845 0 0 1-.455 1.367 1.851 1.851 0 0 1-1.296.63h-.14Zm11.208 3.152a1.875 1.875 0 0 1-1.856-1.752l-.736-9.527a1.86 1.86 0 0 1 .439-1.356 1.859 1.859 0 0 1 2.625-.211c.376.32.61.777.649 1.269l.736 9.545a1.854 1.854 0 0 1-.45 1.372 1.832 1.832 0 0 1-1.302.625l-.105.035Z" fill="#F87294"/><path d="M299.093 560.044a51.482 51.482 0 0 1-5.674-.35 1.863 1.863 0 0 1-1.244-.695 1.845 1.845 0 0 1-.385-1.371 1.74 1.74 0 0 1 .665-1.282 1.756 1.756 0 0 1 1.401-.347c5.832.683 11.174 0 11.699-.893.666-1.576-1.996-4.291-3.31-5.254a1.866 1.866 0 0 1-.727-1.228 1.856 1.856 0 0 1 .36-1.382 1.744 1.744 0 0 1 1.945-.714c.238.068.458.187.647.346.665.491 6.48 5.027 4.518 9.685-1.173 2.802-5.744 3.485-9.895 3.485Z" fill="#070707"/></g><defs><clipPath id="a"><path fill="#fff" d="M0 0h378v716H0z"/></clipPath></defs></svg>