<svg width="378" height="716" fill="none" xmlns="http://www.w3.org/2000/svg"><g clip-path="url(#a)"><path opacity=".23" d="M69 556.819c-10.865 0-18.28-8.131-22.5-6.819 7-12 24.422-23 33.535-23h57.802l82.274 17.318c9.635 0 28.846 2.71 41.769 12.501 7.454.293 23.205 2.376 26.581 8.359 3.375 5.982-9.912 17.711-16.978 22.828-6.274 15.959-25.38 32.55-46.731 44.081 0 0-4.641 29.913-27.425 29.913-22.783 0-31.221-19.563-31.221-19.563-25.168-.732-49.965-6.263-62.866-14.285-24.049-14.957-25.736-52.347-23.205-59.038C82.567 562.423 88 556.819 69 556.819Z" fill="#070707"/><path d="M67.142 457.544a108.341 108.341 0 0 1-29.033-40.349 97.425 97.425 0 0 1-2.937-66.54c12.302-39.554 40.131-53.999 40.131-53.999s21.354-37.844 35.461-42.49c14.108-4.647 25.76 18.898 25.76 18.898s60.185 1.179 102.724 20.824a130.455 130.455 0 0 1 59.631 55.948s35.486 6.741 36.81 16.491c1.324 9.75-8.547 32.404-19.621 43.598 9.847 30.863-21.498 78.819-61.461 89.869.626 17.213-6.476 17.718-6.476 17.718l12.784 24.074 7.222 5.513-5.224 7.223-23.039-1.276-4.623 3.851-16.442-6.957s-29.346 3.13-58.861 3.106c-29.515-.024-68.852-10.112-77.76-11.074-8.907-.963-19.596 8.353-29.009 7.559-9.413-.795-12.735-4.285-11.676-10.689 1.06-6.404 9.967-4.261 9.967-4.261v-8.908s-35.413-2.046-39.963-7.727c-4.55-5.682-21.113-45.308 9.413-63.243 30.526-17.935 32.259-9.63 32.259-9.63l13.963 12.471Z" fill="#F5FCFF"/><path d="M98.727 543.127s-10.135-35.004 3.684-54.841c13.818-19.837 16.731-27.829 16.731-27.829l-37.94-17.502s-38.254-4.454-44.08-28.071c2.6 9.004 20.727 37.604 29.948 42.66-3.683 9.629.626 40.613.626 40.613l6.74 18.561 5.249 25.205 19.042 1.204Zm110.404-13.819s3.997 15.865 0 20.078c-3.996 4.213 9.63.506 9.63.506v-3.587l-9.63-16.997Zm98.03-96.2s-16.226-32.524-48.87-50.146c-27.806-14.998-74.63-7.945-74.63-7.945s-25.543-31.753-67.648-37.844c-42.106-6.091-73.475 22.75-76.388 35.389-.144-17.213 9.991-47.017 33.054-63.002 23.063-15.985 48.558-36.737 48.558-36.737s79.276 2.407 114.93 18.922c35.653 16.515 62.713 56.141 62.713 56.141l17.381 27.974-2.407 33.969s2.263 10.592 1.035 16.129c-1.228 5.537.626 9.221-1.83 12.278-2.455 3.057-3.153.145-5.898-5.128Z" fill="#B5E3FF"/><path d="M254.005 499.047s-28.889-5.392-47.016 10.593c1.829 21.811 14.902 44.441 22.413 45.572 7.511 1.132 8.763-2.214 8.763-2.214s-8.137-3.25-6.597-11.243c1.541-7.993 14.276-30.43 17.984-34.426a18.32 18.32 0 0 0 4.453-8.282Z" fill="#1EA6F9"/><path d="M239.874 551.746s14.011 5.055 21.666 2.407a7.559 7.559 0 0 0 5.537-9.63l-6.235-3.129s-8.45-18.417-13.987-19.982c-5.537-1.565-10.063 21.474-10.063 21.474l3.082 8.86ZM67.768 498.157a25.857 25.857 0 0 1 15.215 24.531c-.77 13.217-.795 19.26-.795 19.26s-19.524 7.703-25.663 7.439c-6.139-.265-12.277-5.465-12.277-5.465-2.24-1.18 1.203-7.776 8.931-5.369 1.589.506 1.493-11.7 3.972-17.526 3.226-7.535 7.223-10.135 8.908-13.505a26.002 26.002 0 0 0 1.709-9.365Zm11.989-48.606s27.805-29.443 40.083-34.426c12.928-5.224 20.608-2.913 23.063-2.407a4.488 4.488 0 0 1 3.082 3.057s-12.928 8.619-14.926 13.843c-1.999 5.224-9.63 26.722-9.365 28.72.265 1.998-9.63 5.224-23.352 3.226a24.309 24.309 0 0 1-18.585-12.013Zm56.766-154.123c0 8.45 12.23 17.213 22.967 17.815 8.883.53 16.996-.842 20.126-8.522 2.624-6.428-2.841-15.768-14.445-19.741-11.074-3.707-28.575-2.094-28.648 10.448Zm117.169 42.106c7.969-2.865 26.891 11.676 24.893 29.202-1.998 17.526-18.441 14.589-26.482 4.141s-11.628-28.576 1.589-33.343Zm-153.665-42.105s-19.668 8.305-24.893 14.131c9.991-26.674 27.71-43.959 33.487-45.572 7.223-1.998 26.145 9.317 29.202 12.23a24.035 24.035 0 0 1 4.237 5.127s-21.522 3.78-25.205 7.223a38.093 38.093 0 0 0-8.908-4.43l-7.92 11.291Zm203.33 94.129s3.539 7.752 3.226 12.35c-.313 4.598 0 12.976 0 12.976s23.641-30.02 22.558-40.155c-1.084-10.136-33.487-23.665-33.487-23.665h-6.476s7.703 6.283 8.305 11.05c.389 3.468.541 6.959.458 10.448l14.155 3.996-8.739 13Z" fill="#1EA6F9"/><path d="M63.916 453.09s-43.96-7.92-52.41 30.285c-7.222 32.548 39.964 40.782 39.964 40.782s8.594-20.054 14.757-24.652c6.163-4.598-2.167-19.982-2.167-19.982l3.082-21.979-3.226-4.454Z" fill="#1EA6F9"/><path d="M70.825 358.744c0 7.631 9.63 15.214 21.017 15.214 11.387 0 20.631-3.851 21.017-12.759.385-8.907-7.921-14.444-20.584-14.444s-21.474 5.368-21.45 11.989Zm181.014 46.92c-7.102 6.428-.602 19.909 6.933 25.519 8.017 5.994 20.655 8.739 25.711 2.407 4.502-5.633 2.793-14.733-5.128-22.341-7.92-7.607-21.137-11.242-27.516-5.585Z" fill="#FFDCD9"/><path d="M131.011 358.238c7.498 0 13.577-6.079 13.577-13.578s-6.079-13.578-13.577-13.578c-7.499 0-13.578 6.079-13.578 13.578s6.079 13.578 13.578 13.578Zm111.246 39.65c7.499 0 13.578-6.079 13.578-13.578s-6.079-13.578-13.578-13.578-13.578 6.079-13.578 13.578 6.079 13.578 13.578 13.578Z" fill="#070707"/><path d="M138.137 343.432a2.913 2.913 0 1 0 0-5.827 2.913 2.913 0 0 0 0 5.827Zm110.885 39.41a2.913 2.913 0 1 0 0-5.827 2.913 2.913 0 0 0 0 5.827Z" fill="#fff"/><path d="M168.398 394.47c4.55-1.349 5.85-9.775 5.85-12.23 0-2.456-6.139-8.282-2.985-13.674 2.166-3.732 11.531-2.408 16.153.674 4.623 3.081 6.5 8.57 6.043 10.063-1.011 3.25-6.115 5.2-13.193 5.007 0 .241-5.392 8.667-5.537 11.748a6.072 6.072 0 0 0 1.83 4.815s1.372 1.661-.458 2.143a15.816 15.816 0 0 1-9.124-1.445c-3.563-1.709-6.716-4.814-5.176-6.259 1.541-1.444 4.984-.361 6.597-.842Z" fill="#070707"/><path d="M178.172 374.031c1.035.794.554 1.685 1.709 1.902 1.156.216 1.469.939 2.022 1.589.554.65 5.634-.265 5.826-1.758.193-1.492-2.263-.891-3.322-1.685-1.059-.794 0-1.806-1.444-1.854-1.445-.048-2.6.458-3.226 0-.626-.457-1.686-.24-1.806.434-.049.47.035.946.241 1.372Z" fill="#4B4B4B"/><path d="M104.505 599.484a17.767 17.767 0 0 0 1.445 5.995c.914.915 110.211 10.689 115.074 9.822 5.272-.915 23.255-28.889 24.604-31.104 1.348-2.215.938-8.522.938-8.522l-26.409 33.391-114.906-9.221-.746-.361Z" fill="#1A1A1A"/><path d="M219.844 616.264c-8.305 0-49.328-3.539-57.994-4.309-25.374-2.215-55.78-5.032-56.574-5.826a15.29 15.29 0 0 1-1.613-6.572v-1.469l1.926.915 114.303 9.172 27.421-34.739.144 2.215c0 .674.385 6.572-1.059 9.028-.169.289-19.259 30.478-25.157 31.513-.463.067-.93.091-1.397.072Zm-113.461-11.459c6.548 1.589 110.38 10.424 114.424 9.629 4.045-.794 21.185-25.903 24.074-30.718.678-1.823.981-3.763.891-5.706l-25.23 31.947-115.05-9.293c.122 1.412.421 2.804.891 4.141Z" fill="#000"/><path d="M137.39 565.275s108.334 4.815 109.369 8.595c1.035 3.779-19.019 33.703-26.795 36.255-7.776 2.552-114.279-6.741-115.411-11.05-1.131-4.309 25.037-31.344 32.837-33.8Z" fill="#4B4B4B"/><path d="M213.103 611.449c-24.868 0-101.761-7.463-108.333-11.146a1.776 1.776 0 0 1-.939-1.011c-1.541-5.369 25.855-32.5 33.415-34.739h.289c.264 0 27.396 1.252 54.287 2.913 55.009 3.419 55.539 5.224 55.852 6.307 1.3 4.406-19.549 34.86-27.349 37.315a31.08 31.08 0 0 1-7.222.361Zm-75.593-45.331c-8.137 2.792-33.029 29.394-32.138 32.741 3.563 3.49 106.215 13.024 114.352 10.472 7.511-2.407 26.337-31.465 26.24-35.052-4.405-2.504-66.95-6.259-108.454-8.161Z" fill="#000"/><path d="m202.92 574.496 3.443-2.769-64.11 8.908 9.823 1.54-21.932 5.73 53.926-6.741 19.5-6.741-.65.073Z" fill="gray"/><path d="M235.396 574.375h-14.589l8.642-2.407-30.574 1.516-16.852 3.66h.843l-7.222 2.118h7.222s-4.43 1.445-6.283 1.974c6.259-.842 54.552-4.044 54.552-4.044l4.261-2.817Zm-23.52 12.832h-7.223l4.334-1.589-15.287 1.059-8.475 2.552h.41l-3.539 1.493h3.539s-2.215 1.011-3.13 1.372c3.13-.578 27.276-2.817 27.276-2.817l2.095-2.07Z" fill="gray"/><path d="m204.003 572.498-2.407.313 1.372-.65-5.031 1.011-2.697 1.107-1.107.602 1.179-.169-.987.53c1.012-.313 8.932-2.046 8.932-2.046l.746-.698Z" fill="#9E9E9E"/><path d="M321.93 541.545c.806 5.321 4.654 6.984 8.531 7.263 2.048.14 7.501-.872 8.448 1.567.64 1.818-2.46 5.333-7.807 3.426-5.347-1.906-12.353-4.895-18.6 2.431-6.247 7.327 1.25 12.424 6.404 12.198 5.155-.227 13.418-.689 18.867 1.356 5.45 2.046 25.952 1.832 32.389-15.595 6.437-17.427-5.374-26.48-13.315-30.721-7.941-4.24-20.965-5.341-28.429 2.342-7.463 7.684-6.488 15.733-6.488 15.733Z" fill="#1EA6F9"/><path d="M316.455 569.228a9.606 9.606 0 0 1-6.714-4.786c-.942-1.911-1.357-4.998 1.881-8.893 6.523-7.664 13.885-4.907 19.268-2.89l.461.171c3.459 1.287 5.334-.174 5.817-.658a1.77 1.77 0 0 0 .679-1.48c-.417-1.142-3.712-.99-5.482-.926a16.75 16.75 0 0 1-2.041.037c-5.449-.392-8.717-3.205-9.477-8.121-.044-.346-.996-8.639 6.726-16.576 7.722-7.936 20.974-7.152 29.635-2.511 13.987 7.48 18.747 18.598 13.725 31.964a24.59 24.59 0 0 1-13.256 14.243c-7.856 3.591-16.79 3.282-20.386 1.951-5.03-1.884-12.724-1.551-17.82-1.326l-.666.035a10.14 10.14 0 0 1-2.35-.234Zm8.368-16.389a10.927 10.927 0 0 0-6.411.247 10.93 10.93 0 0 0-5.17 3.8c-2.06 2.403-2.636 4.71-1.674 6.67 1.221 2.526 4.729 3.926 7.246 3.859l.666-.035c5.258-.234 13.205-.587 18.616 1.436 3.252 1.229 11.498 1.466 18.832-1.87a22.673 22.673 0 0 0 12.238-13.097c4.639-12.525.357-22.444-12.789-29.469-8.02-4.286-20.293-4.994-27.234 2.156-6.941 7.151-6.214 14.577-6.182 14.905.625 3.966 3.112 6.043 7.609 6.365.607.026 1.214.017 1.82-.024 2.761-.119 6.57-.279 7.466 2.267a3.507 3.507 0 0 1-1.157 3.603c-.704.7-3.362 2.816-7.947 1.114l-.476-.174a38.735 38.735 0 0 0-5.453-1.753Z" fill="#004FAB"/><path d="M302.121 577.917a6.5 6.5 0 1 0 2.69-12.718 6.5 6.5 0 0 0-2.69 12.718Z" fill="#1EA6F9"/><path d="M301.924 578.914a7.273 7.273 0 0 1-1.586-.526 7.37 7.37 0 0 1-3.909-4.207 7.5 7.5 0 0 1 10.161-9.44c.9.407 1.711.988 2.387 1.708a7.531 7.531 0 0 1 2.028 5.387 7.485 7.485 0 0 1-9.039 7.087l-.042-.009Zm2.69-12.718a5.483 5.483 0 0 0-6.265 7.279 5.495 5.495 0 0 0 7.07 3.237 5.484 5.484 0 0 0 3.189-7.052 5.42 5.42 0 0 0-2.861-3.078 5.04 5.04 0 0 0-1.161-.391l.028.005Z" fill="#004FAB"/><path d="M326.778 584.713c-.595 2.811-.122 6.543 1.87 7.474 2.624 1.211 4.579 2.266 4.091 4.227-.381 1.261-3.598 2.008-5.736-1.21s-4.964-7.676-11.386-6.072c-6.421 1.604-4.272 7.458-1.337 9.377 2.935 1.918 7.799 4.973 10.027 8.293 2.227 3.32 13.787 11.389 24.358 4.219 10.571-7.17 7.58-16.972 4.815-22.473-2.764-5.501-9.606-11.367-16.851-10.057-7.246 1.311-9.289 3.52-9.851 6.222Z" fill="#1EA6F9"/><path d="M333.806 614.069a20.746 20.746 0 0 1-10.31-6.614c-2.078-3.021-6.452-5.868-9.364-7.765l-.387-.251a7.282 7.282 0 0 1-3.263-6.774c.2-1.255 1.064-3.522 4.89-4.504 6.921-1.723 10.141 3.064 12.273 6.205l.198.284a3.419 3.419 0 0 0 3.046 1.848 1.132 1.132 0 0 0 .865-.337c.289-.959-.587-1.673-3.561-3.065-2.519-1.165-3.139-5.3-2.44-8.603.773-3.7 3.979-5.797 10.72-7.021 7.564-1.378 14.868 4.493 17.931 10.592 4.924 9.937 3.137 18.176-5.175 23.86a17.357 17.357 0 0 1-13.376 2.644 18.447 18.447 0 0 1-2.047-.499Zm-13.61-23.957a8.026 8.026 0 0 0-4.329.023c-2.005.501-3.142 1.443-3.375 2.809a5.305 5.305 0 0 0 2.38 4.742l.374.247c3.064 1.988 7.678 4.982 9.942 8.328a19.658 19.658 0 0 0 11.094 6.343 15.236 15.236 0 0 0 11.852-2.402c7.502-5.031 8.978-12.242 4.484-21.227-2.723-5.489-9.18-10.699-15.763-9.503-7.276 1.316-8.682 3.494-9.121 5.44-.595 2.811.028 5.751 1.304 6.376 2.401 1.114 5.365 2.488 4.637 5.394a2.656 2.656 0 0 1-2.254 1.816 5.406 5.406 0 0 1-5.302-2.694l-.185-.28c-1.444-2.201-3.052-4.601-5.738-5.412Z" fill="#004FAB"/><path d="M303.15 598.421a4.467 4.467 0 1 0 2.584-8.55 4.467 4.467 0 0 0-2.584 8.55Z" fill="#1EA6F9"/><path d="M302.861 599.38a5.481 5.481 0 0 1-3.867-5.745 5.487 5.487 0 0 1 4.843-4.949 5.48 5.48 0 0 1 3.344 10.205 5.457 5.457 0 0 1-4.32.489Zm2.583-8.551a3.463 3.463 0 1 0 .014.004l-.014-.004Z" fill="#004FAB"/><path d="M288.631 533.004c1.765 1.151 5.216.779 6.309.374 1.569-.588 3.72-3.046 4.317-2.19.596.857.719 3.276-2.363 4.194-3.081.919-7.229 1.976-7.564 7.407-.336 5.431 4.777 5.182 7.017 3.332 2.241-1.849 5.82-4.872 8.972-5.802 3.152-.931 12.328-7.916 9.326-18.005-3.002-10.089-11.383-10.095-16.418-9.307-5.036.788-11.28 4.701-12.03 10.769-.749 6.068.409 7.918 2.434 9.228Z" fill="#1EA6F9"/><path d="M294.001 548.28a5.258 5.258 0 0 1-3.297-.424c-.984-.486-2.575-1.811-2.323-5.093.36-5.973 4.976-7.342 8.018-8.24l.282-.048a2.61 2.61 0 0 0 1.863-1.422 1.56 1.56 0 0 0 .079-.812c-.314.199-.713.499-1.023.726a10.132 10.132 0 0 1-2.249 1.372c-1.173.447-5.037.948-7.211-.467-2.794-1.817-3.603-4.685-2.887-10.268.802-6.353 7.266-10.682 12.878-11.583 9.098-1.409 15.167 2.07 17.551 10.072a14.473 14.473 0 0 1-1.196 11.271 17.691 17.691 0 0 1-8.798 8.01c-2.764.821-6.144 3.562-8.333 5.374l-.279.237a6.724 6.724 0 0 1-3.075 1.295Zm4.585-18.212c.192-.035.389-.034.581.003a1.419 1.419 0 0 1 .951.636 3.497 3.497 0 0 1 .274 3.047 4.429 4.429 0 0 1-3.166 2.632l-.283.048c-2.945.867-6.29 1.859-6.573 6.41-.101 1.615.327 2.675 1.265 3.153a4.188 4.188 0 0 0 4.093-.699l.279-.237c2.341-1.852 5.831-4.801 9.051-5.758a15.97 15.97 0 0 0 7.599-7.035 12.306 12.306 0 0 0 1.027-9.717c-2.079-6.979-7.221-9.877-15.286-8.629-4.968.848-10.525 4.703-11.189 9.827-.771 5.941.567 7.397 1.997 8.372a8.224 8.224 0 0 0 5.391.27 9.258 9.258 0 0 0 1.77-1.116 6.027 6.027 0 0 1 2.214-1.235l.005.028Z" fill="#004FAB"/><path d="M291.106 556.413a3.666 3.666 0 1 0-1.236-7.223 3.666 3.666 0 0 0 1.236 7.223Z" fill="#1EA6F9"/><path d="M291.263 557.418a4.684 4.684 0 0 1-5.352-3.617 4.694 4.694 0 0 1 3.564-5.576 4.687 4.687 0 0 1 2.014 9.154l-.226.039Zm-1.234-7.225-.127.022a2.645 2.645 0 0 0-2.044 2.122 2.647 2.647 0 0 0 .433 1.982 2.646 2.646 0 0 0 2.743 1.076 2.632 2.632 0 0 0 2.032-3.15 2.665 2.665 0 0 0-3.023-2.054l-.014.002Z" fill="#004FAB"/><path d="M359.872 558.89a3.67 3.67 0 0 1-.905.524 2.489 2.489 0 0 1-.903.182 1.539 1.539 0 0 1-.759-.189 1.225 1.225 0 0 1-.496-.529c-.477-.928.369-1.919 1.582-2.856 1.214-.936 2.303-1.424 2.734-.54a1.2 1.2 0 0 1 .338.726c.035.293-.011.623-.135.96a3.27 3.27 0 0 1-.575.97c-.254.3-.556.558-.881.752Zm-5.858 2.89c-.833.371-1.726.129-1.852-.166-.127-.295.509-.731 1.399-1.024.889-.293 1.58-.53 1.707-.235.127.295-.257.994-1.254 1.425Z" fill="#fff"/><path d="M74.653 311.197a2.665 2.665 0 0 1-.746 0 2.552 2.552 0 0 1-1.71-3.178c.626-2.166 15.938-53.203 38.351-56.285 16.298-2.263 32.187 25.832 33.944 29.033a2.6 2.6 0 0 1-1.011 3.491 2.552 2.552 0 0 1-3.467-1.035c-4.309-7.848-17.815-27.926-28.889-26.481-15.913 2.07-30.044 38.711-34.065 52.626a2.552 2.552 0 0 1-2.407 1.829Z" fill="#070707"/><path d="M100.027 299.208a2.742 2.742 0 0 1-.746 0 2.575 2.575 0 0 1-1.71-3.202c.65-2.142 4.189-12.927 10.208-14.276 4.959-1.131 9.269 5.658 10.448 7.776a2.55 2.55 0 0 1-2.953 3.407 2.558 2.558 0 0 1-1.501-.999c-1.637-2.913-4.02-5.369-4.814-5.297-1.974.434-4.96 6.019-6.38 10.762a2.555 2.555 0 0 1-2.552 1.829Zm208.579 118.228a2.554 2.554 0 0 1-2.463-3.157c.122-.501.393-.953.777-1.296 8.739-7.8 30.743-30.671 27.589-42.852-3.394-13.097-33.174-17.261-44.368-17.743a2.55 2.55 0 0 1-2.408-2.672 2.63 2.63 0 0 1 2.673-2.408c1.781 0 44.055 2.167 49.063 21.667 4.501 17.382-25.663 44.874-29.13 47.932a2.53 2.53 0 0 1-1.733.529Z" fill="#070707"/><path d="M303.357 392.11a2.55 2.55 0 0 1-1.854-4.309 60.79 60.79 0 0 0 7.993-10.111 46.39 46.39 0 0 0-10.954-2.576 2.567 2.567 0 0 1-2.191-2.889 2.565 2.565 0 0 1 2.889-2.191c14.228 1.902 15.119 4.815 15.48 6.019.361 1.204 1.18 3.948-9.63 15.263a2.549 2.549 0 0 1-1.733.794ZM67.142 499.264a2.57 2.57 0 0 1-2.407-1.685 71.452 71.452 0 0 1-.554-38.952c-26.94-17.333-42.178-69.334-31.465-108.647 10.64-38.927 44.345-57.464 45.813-58.331a2.555 2.555 0 0 1 3.455 1.047 2.552 2.552 0 0 1-1.048 3.455c-.337.168-33.294 18.416-43.333 55.178-10.4 38.157 4.55 88.713 30.79 104l1.686 1.011-.506 1.902a67.19 67.19 0 0 0 0 37.579 2.552 2.552 0 0 1-1.54 3.274 2.212 2.212 0 0 1-.891.169Zm231.737-146.876a2.549 2.549 0 0 1-2.407-1.854c0-.265-9.124-28.889-58.356-54.359-46.752-24.195-100.87-20.511-101.424-20.511a2.548 2.548 0 0 1-1.863-.635 2.564 2.564 0 0 1-.857-1.773 2.397 2.397 0 0 1 .584-1.908 2.406 2.406 0 0 1 1.823-.812c.554 0 56.093-3.756 104.097 21.113 51.35 26.602 60.474 56.237 60.859 57.465a2.579 2.579 0 0 1-1.757 3.178 2.427 2.427 0 0 1-.699.096Zm-63.844 207.013a14.92 14.92 0 0 1-5.995-1.516c-10.905-4.96-23.087-19.813-24.628-46.295a2.599 2.599 0 0 1 2.408-2.72 2.572 2.572 0 0 1 2.72 2.407c1.493 26.217 13.554 36.882 18.658 40.252 3.996 2.624 6.764 2.865 7.222 2.672 1.42-1.131 1.42-1.131 0-3.731a20.81 20.81 0 0 1-1.878-4.454c-1.156-3.852 1.107-7.92 4.815-14.709a148.325 148.325 0 0 0 13.891-32.235l.385-1.3 1.3-.41c65.385-20.92 59.968-84.5 59.704-87.196a2.551 2.551 0 1 1 5.079-.506c0 .699 6.091 69.526-61.943 92.156a155.072 155.072 0 0 1-13.938 31.97c-2.769 5.008-4.96 8.98-4.43 10.762.41 1.21.951 2.373 1.613 3.466 1.468 2.576 3.635 6.452-1.42 10.352a5.441 5.441 0 0 1-3.563 1.035Z" fill="#070707"/><path d="M162.692 555.549a289.85 289.85 0 0 1-66.589-8.401c-5.344-1.18-9.63-2.143-12.711-2.552-5.537-.723-11.339 1.589-16.972 3.827-6.524 2.625-12.687 5.08-18.176 2.576-10.015-4.622-9.895-10.159-9.39-12.326a9.873 9.873 0 0 1 9.029-6.74c1.107-17.936 17.14-34.787 17.718-35.437a2.575 2.575 0 0 1 3.635 0 2.548 2.548 0 0 1 .554 2.782c-.128.31-.316.592-.554.829-.168.192-16.61 17.453-16.322 34.305v2.697h-2.672c-3.66-.121-6.115 1.396-6.476 2.913-.361 1.516 1.156 4.02 6.548 6.5 3.49 1.588 8.667-.482 14.132-2.673 5.946-2.407 12.687-5.079 19.548-4.164 3.394.457 7.704 1.42 13.144 2.648a281.2 281.2 0 0 0 69.165 8.257c40.06-.602 51.784-3.009 51.904-3.033a2.56 2.56 0 0 1 3.045 1.962 2.56 2.56 0 0 1-1.962 3.045c-.481 0-12.037 2.528-52.963 3.13l-3.635-.145Zm95.478 1.276h-2.191c-9.437-.602-16.274-1.203-16.346-1.203a2.564 2.564 0 0 1-1.414-4.518 2.559 2.559 0 0 1 1.871-.586s6.837.602 16.226 1.204c8.811.553 9.1-2.625 9.269-4.815 0-.53-1.974-1.95-5.321-2.841l-1.805-.457v-1.878c-.265-5.104-8.402-22.1-10.424-24.772a2.584 2.584 0 0 1-1.156-1.71 2.556 2.556 0 0 1 .412-1.903 2.556 2.556 0 0 1 1.635-1.058 3.041 3.041 0 0 1 2.263.578c2.407 1.926 10.544 18.994 12.037 26.746 5.007 1.685 7.751 4.502 7.487 7.728-.578 6.38-4.671 9.485-12.543 9.485Zm-136.308-93.792h-.216a2.549 2.549 0 0 1-2.408-2.745c2.408-32.765 18.393-41.792 26.024-46.126a22.433 22.433 0 0 0 2.745-1.685 1.66 1.66 0 0 0-.241-1.517c-.457-.626-2.744-2.576-11.628-2.624-30.598 0-53.974 41.6-54.19 42.01a2.579 2.579 0 0 1-3.49 1.011 2.534 2.534 0 0 1-1.3-2.52 2.53 2.53 0 0 1 .312-.947c1.059-1.854 25.085-44.633 58.692-44.633h.385c8.017 0 13.049 1.54 15.384 4.814a6.89 6.89 0 0 1 .939 6.284c-.578 1.878-2.408 2.889-5.032 4.405-6.861 3.9-21.161 12.037-23.448 42.058a2.551 2.551 0 0 1-2.528 2.215Z" fill="#070707"/><path d="M49.784 528.225c-5.994 0-25.181-.987-37.989-12.783A37.53 37.53 0 0 1 .023 487.829c-1.3-42.347 52.482-45.187 52.963-45.211a2.553 2.553 0 1 1 .217 5.103c-2.022 0-49.28 2.648-48.148 39.963a32.575 32.575 0 0 0 10.11 24.074c13.482 12.423 35.871 11.436 36.112 11.411a2.578 2.578 0 0 1 2.672 2.408 2.552 2.552 0 0 1-2.407 2.696l-1.758-.048Z" fill="#070707"/><path d="M88.738 114.4c-.052.086-.19.199-.416.338.294.19.554.398.78.624.243.225.39.425.442.598.503.798.754 1.734.754 2.809 0 .555-.06 1.11-.182 1.664-.433.833-.693 1.318-.78 1.457-.364.693-.919 1.292-1.665 1.794-.745.503-1.43.833-2.054.989a7.624 7.624 0 0 1-2.21.338c-.174 0-.417-.018-.729-.052a5.082 5.082 0 0 1-1.196-.234c-.347-.104-.79-.304-1.327-.599a4.665 4.665 0 0 1-1.352-1.092 11.073 11.073 0 0 1-1.04-1.482 1.33 1.33 0 0 1-.209-.754c0-.33.105-.651.313-.963.208-.312.459-.563.754-.754a1.24 1.24 0 0 1 .65-.208c.139 0 .26.026.364.078.121.052.208.087.26.104.33.052.538.225.624.52.087.295.14.451.156.468a6.677 6.677 0 0 1-.286.755.677.677 0 0 1-.286.338c.26.398.581.736.963 1.014.208.156.502.295.884.416.399.121.676.165.832.13.017-.017.06-.026.13-.026a.69.69 0 0 1 .26.052c.104.017.165.017.182 0 .087-.035.243-.052.468-.052a1.55 1.55 0 0 0 .572-.13 5.499 5.499 0 0 0 1.483-.65c.433-.295.84-.676 1.222-1.145.26-.364.434-.684.52-.962.105-.295.174-.685.209-1.17.034-.26 0-.555-.105-.884a14.32 14.32 0 0 1-.208-.703l-.338-.26-.572-.156c-.45-.138-.771-.208-.962-.208a2.22 2.22 0 0 0-.65.104c-.295.087-.494.13-.599.13a1.05 1.05 0 0 1-.52-.13 2.808 2.808 0 0 0-.26-.182c-.243-.087-.46-.269-.65-.546-.173-.295-.26-.581-.26-.858 0-.156.043-.304.13-.442.104-.191.269-.338.494-.442.226-.122.477-.165.754-.131a1.2 1.2 0 0 0 .287.026c.242 0 .537-.069.884-.208.208-.069.537-.26.988-.572.45-.312.676-.459.676-.442.572-.728.98-1.274 1.223-1.638a5.27 5.27 0 0 0 .624-1.249 2.29 2.29 0 0 0 .286-1.118c0-.225-.043-.442-.13-.65-.017-.104-.139-.191-.364-.26a2.112 2.112 0 0 0-.624-.104.63.63 0 0 0-.234.026c-.278.017-.685.121-1.223.312-.537.173-.858.303-.962.39-.937.797-1.5 1.335-1.69 1.612-.07.122-.191.217-.365.286-.156.07-.33.104-.52.104-.33 0-.546-.086-.65-.26a1.863 1.863 0 0 1-.286-.988c0-.399.147-.78.442-1.144.33-.416.615-.746.858-.989.243-.26.529-.485.858-.676l.495-.286c.069-.035.225-.121.468-.26.26-.139.502-.243.728-.312.07-.017.269-.087.598-.208a3.293 3.293 0 0 1 1.092-.182 2 2 0 0 1 .365.026c.589.052 1.022.156 1.3.312.295.156.745.494 1.352 1.014.26.174.468.477.624.911.156.433.235.927.235 1.482 0 .832-.157 1.586-.469 2.263a5.84 5.84 0 0 0-.286.546 30.38 30.38 0 0 1-.338.624 4.655 4.655 0 0 1-.598.884c-.156.208-.485.616-.988 1.223Zm2.768 10.507c-.191-.104-.33-.2-.416-.286a.527.527 0 0 1-.104-.338c0-.174.069-.417.208-.729.156-.329.416-.841.78-1.534.104-.226.303-.624.598-1.196.746-1.422 1.118-2.471 1.118-3.147a.365.365 0 0 1-.026-.156c0-.174.14-.33.416-.469.052-.052.235-.199.547-.442.33-.242.59-.52.78-.832.225-.52.511-1.092.858-1.716.347-.642.945-1.682 1.795-3.121a32.67 32.67 0 0 1 2.652-4.136c.174-.242.365-.433.573-.572.225-.139.416-.208.572-.208.537 0 1.083.208 1.638.624.572.416.945.833 1.119 1.249.069.121.104.381.104.78 0 .537-.061 1.448-.182 2.731a14.1 14.1 0 0 0-.104 1.066c-.052.78-.13 1.613-.234 2.497-.191 1.942-.33 3.459-.417 4.551a39.243 39.243 0 0 0-.13 3.069c0 .486.009.841.026 1.066v.182l-.026.599c-.104.104-.312.156-.624.156a3.14 3.14 0 0 1-1.04-.182c-.347-.104-.538-.234-.572-.391a.361.361 0 0 0-.078-.052c-.035-.017-.052-.095-.052-.234l.026-.572.078-1.456.13-3.979-.338.026c-.347 0-1.084.069-2.211.208-1.11.138-1.812.251-2.107.338-.156 0-.346.104-.572.312a2.963 2.963 0 0 0-.598.806c-.052.173-.173.425-.364.754-.19.312-.286.494-.286.546-.104.07-.2.165-.286.287-.07.104-.113.173-.13.208 0 .19-.174.685-.52 1.482-.33.78-.66 1.422-.989 1.925l-.702.988-.91-.702Zm6.216-8.947.728-.104a7.84 7.84 0 0 1 .962-.13c.832-.208 1.405-.312 1.717-.312.173 0 .294.017.364.052a.675.675 0 0 0 .156.156.8.8 0 0 0 .13.026c.034-.139.173-1.084.416-2.835s.364-2.826.364-3.225c0-.277-.009-.511-.026-.702a2.29 2.29 0 0 0-.052-.39c-.156 0-.511.416-1.066 1.248a24.057 24.057 0 0 0-1.613 2.783c-.399.711-.676 1.066-.832 1.066-.121.122-.382.529-.78 1.223-.399.693-.555 1.075-.468 1.144Zm16.201 9.025a4.658 4.658 0 0 1-.781-.754c-.208-.278-.312-.529-.312-.755 0-.329.286-.563.858-.702 1.786-.433 3.789-2.176 6.008-5.227-.763-.417-1.335-.85-1.716-1.301-.382-.468-.659-1.11-.832-1.924a4.984 4.984 0 0 1-.131-1.041c.087-.121.131-.303.131-.546.017-.243.043-.416.078-.52l.572-1.691c.572-1.647 2.167-2.921 4.785-3.823.85-.346 1.474-.494 1.873-.442l.338-.026c.156-.052.312-.078.468-.078.121 0 .208.009.26.026a.8.8 0 0 1 .234-.026c.295 0 .624.096.988.286.382.174.703.399.963.676.277.278.416.555.416.833a.69.69 0 0 1-.026.208c-.174.503-.286.823-.338.962-.278.867-.503 1.508-.677 1.925-.468 1.144-1.014 2.774-1.638 4.889-.607 2.115-.954 3.658-1.04 4.629-.139.382-.26 1.015-.364 1.899-.018.156-.052.381-.104.676a4.978 4.978 0 0 1-.131.728c-.052.226-.208.425-.468.599-.26.173-.52.26-.78.26a.803.803 0 0 1-.364-.078 2.52 2.52 0 0 1-.546-.39 15.278 15.278 0 0 1-.546-.521c.052-.19.112-.476.182-.858.069-.468.164-.849.286-1.144.035-.364.113-.858.234-1.483.035-.121.069-.303.104-.546.104-.555.208-.962.312-1.222l.052-.416c-.243.398-.91 1.205-2.003 2.418a27.485 27.485 0 0 1-3.459 3.251c-1.196.937-2.158 1.353-2.886 1.249Zm8.92-9.337a255.71 255.71 0 0 0 2.081-6.892 6.88 6.88 0 0 0-2.341.702 5.905 5.905 0 0 0-1.924 1.509 3.9 3.9 0 0 0-.911 2.106 2.87 2.87 0 0 1-.13.624.747.747 0 0 0-.078.339c0 .346.139.684.416 1.014.295.329.599.494.911.494.208 0 .424-.069.65-.208a8.66 8.66 0 0 1 .39-.234l.936.546Zm17.298 9.675c-.381 0-.893-.096-1.534-.286-.642-.174-1.075-.494-1.301-.963l-.442-.494c-.485-.52-.754-.823-.806-.91l-.832-.832a57.58 57.58 0 0 1-.963-.936 8.103 8.103 0 0 1-.676-.859c-.208-.208-.459-.572-.754-1.092a3.851 3.851 0 0 0-.338-.52c-.104-.174-.2-.278-.286-.312-.191.138-.33.459-.417.962-.173.364-.364.98-.572 1.847a7.81 7.81 0 0 0-.364 1.014c-.086.347-.147.581-.182.702-.173.486-.303.772-.39.858l-.234 1.015c-.173.884-.433 1.326-.78 1.326-.226 0-.546-.182-.963-.546l-.364-.572c-.225-.33-.338-.512-.338-.546.035-.087.096-.261.182-.521.087-.277.191-.615.312-1.014l.443-1.378c.676-2.012 1.109-3.416 1.3-4.214a.392.392 0 0 0 .104-.208c.017-.086.026-.182.026-.286.173-.52.459-1.3.858-2.34.399-1.058.702-1.752.91-2.081.052-.104.087-.208.105-.312.017-.104.026-.174.026-.208 0-.07.017-.13.052-.182a.38.38 0 0 1 .182-.104c0-.226.043-.39.13-.494.121-.261.381-.971.78-2.133.416-1.162.624-1.777.624-1.847a.42.42 0 0 1 .104-.26c.069-.086.113-.138.13-.156.139-.121.373-.182.702-.182.295 0 .59.07.885.208.312.122.537.286.676.494 0 .122-.035.304-.104.547a5.02 5.02 0 0 1-.234.728l-.494 1.118a21.48 21.48 0 0 1-.313.91 56.99 56.99 0 0 1-.598 1.691c-.364.728-.65 1.37-.858 1.924-.208.555-.277.867-.208.937.121-.087.381-.304.78-.65.416-.365.858-.772 1.327-1.223a23.671 23.671 0 0 1 2.938-2.549c1.283-.866 2.09-1.395 2.419-1.586.33-.191.633-.295.91-.312a.76.76 0 0 1 .287-.052.51.51 0 0 1 .26.104c.104.069.208.13.312.182.052.104.104.286.156.546.069.243.112.408.13.494.017.174-.087.39-.312.65-.208.243-.503.46-.885.651-1.352.832-2.886 1.881-4.603 3.147-1.699 1.248-2.635 2.08-2.809 2.496-.086.104-.104.2-.052.286.052.087.156.208.312.364.174.139.321.261.442.365.226.277.399.502.521.676.138.156.225.26.26.312 0 .104.572.702 1.716 1.794.035.087.208.304.52.651.451.485.763.875.937 1.17 1.127 1.179 1.69 2.046 1.69 2.601 0 .26-.147.39-.442.39Zm4.913.13c-.156.156-.382.234-.676.234-.417 0-.815-.156-1.197-.468-.364-.295-.546-.668-.546-1.119 0-.156.026-.32.078-.494l3.277-10.689.39-1.274c.312-.988.546-1.795.702-2.419.174-.641.321-1.37.443-2.185l.338-.364a1.49 1.49 0 0 1 .338-.052c.45 0 .858.182 1.222.546.364.347.546.737.546 1.171 0 .139-.008.243-.026.312-.156.676-.451 1.63-.884 2.861l-.312.884a232.806 232.806 0 0 0-2.549 7.724 103.037 103.037 0 0 1 2.549-3.407c1.664-2.15 3.676-4.291 6.034-6.424.208-.19.641-.658 1.3-1.404a56.321 56.321 0 0 0 1.482-1.769 4.01 4.01 0 0 0 .261-.312c.121-.173.251-.294.39-.364a.867.867 0 0 1 .468-.13c.364 0 .728.2 1.092.598.382.382.572.772.572 1.171 0 .069-.017.173-.052.312l-.858 2.341c-.52 1.439-1.266 3.615-2.237 6.527-.052.139-.104.287-.156.443a18.59 18.59 0 0 1-.182.52c-.485 1.3-.78 2.306-.884 3.017l-.13.806c-.208 1.318-.407 2.28-.598 2.887-.122.381-.364.572-.728.572-.278 0-.581-.104-.911-.312-.312-.208-.537-.425-.676-.65-.121-.226-.156-.443-.104-.651.208-1.023.52-2.332.936-3.927.156-.589.399-1.3.729-2.132.329-.833.658-1.604.988-2.315.121-.26.243-.607.364-1.04.139-.521.269-.902.39-1.145.382-.763.642-1.69.78-2.783a6.599 6.599 0 0 1-.624.963c-.208.242-.485.555-.832.936l-1.17 1.196-.261.208c-.069.07-.147.139-.234.209-.034.034-.372.416-1.014 1.144-.381.451-.641.745-.78.884-.434.451-1.014 1.144-1.743 2.081a71.267 71.267 0 0 1-1.196 1.43 83.3 83.3 0 0 0-1.743 2.133 8.163 8.163 0 0 0-1.326 2.392 1.796 1.796 0 0 1-.572.833l-.468.494Zm33.214-16.801c0 .087-.026.147-.078.182-.052.017-.078.035-.078.052 0 .017.035.052.104.104l-.182.858c-.069.364-.216 1.093-.442 2.185a78.656 78.656 0 0 0-.468 2.653l-.364 2.783a142.25 142.25 0 0 0-.338 2.834 26.495 26.495 0 0 0-.078 2.081c0 .832.026 1.465.078 1.899.069.45.104.71.104.78 0 .104-.121.26-.364.468a1.212 1.212 0 0 1-.806.312c-.451 0-.781-.191-.989-.572-.208-.364-.329-.936-.364-1.717 0-1.161.087-2.713.26-4.655.052-.121.078-.355.078-.702 0-.208-.017-.364-.052-.468-.017-.174.009-.417.078-.729.018-.069.035-.164.052-.286.018-.121.026-.234.026-.338 0-.086.035-.269.104-.546.104-.312.156-.555.156-.728v-.182c.052-.156.104-.347.156-.572.07-.243.104-.391.104-.443a1.527 1.527 0 0 1-.026-.364c0-.19-.017-.32-.052-.39.104-.295.226-.745.365-1.352l.312-1.249c-.018 0-.208.347-.573 1.041a15.656 15.656 0 0 1-1.274 2.054 16.145 16.145 0 0 1-1.17 1.665c-.364.468-.572.737-.624.806a50.29 50.29 0 0 1-.651.832c-.19.26-.329.503-.416.729-.364.901-.789 1.56-1.274 1.976-.468.416-.945.65-1.431.702l-.416.052h-.156c-.329 0-.607-.216-.832-.65-.208-.433-.312-1.24-.312-2.419l.026-.702.078-1.456c.052-.295.095-.78.13-1.457a70.06 70.06 0 0 1 .078-1.378c-.087.087-.243.407-.468.962-.208.555-.338.911-.39 1.067l-.234.598c-.087.121-.217.451-.39.988-.139.399-.33.884-.573 1.457-.381 1.248-.728 2.236-1.04 2.964-.139.295-.277.616-.416.963-.035.069-.139.346-.312.832-.243.624-.399.997-.468 1.118-.746 1.682-1.37 2.523-1.873 2.523-.277 0-.555-.147-.832-.442-.26-.278-.39-.581-.39-.91 0-.243.095-.564.286-.963.191-.416.468-.953.832-1.612l.546-1.014c0-.087.208-.677.625-1.769l.364-.962 1.612-4.266.026-.104.156-.39c.052-.138.148-.346.286-.624.243-.555.364-.875.364-.962v-.052c0-.052.018-.087.052-.104a.398.398 0 0 1 .104-.026c.07-.191.191-.486.365-.884.19-.417.338-.729.442-.937l-.026-.104c0-.173.026-.312.078-.416.069-.104.138-.199.208-.286.086-.087.156-.165.208-.234 0-.104.052-.243.156-.416a5.1 5.1 0 0 1 .364-.572c.277-.382.459-.668.546-.859.173-.329.442-.494.806-.494.26 0 .52.104.781.312a3.1 3.1 0 0 1 .65.703c.173.242.26.407.26.494 0 .052-.026.086-.078.104-.052.017-.078.06-.078.13v.104a.685.685 0 0 1 .026.208c0 .312-.044.555-.13.728a8.036 8.036 0 0 0-.234 2.003l.026.754c0 .139-.035.243-.104.312-.052.069-.096.13-.13.182v.052l-.026.208.026.156c0 .156-.044.347-.13.572-.104.399-.156.616-.156.651-.07.572-.105 1.161-.105 1.768 0 .902.079 1.396.235 1.482l1.872-2.782c1.595-2.358 2.402-3.563 2.419-3.615.121-.07.234-.2.338-.391-.017 0-.026-.017-.026-.052 0-.086.225-.459.676-1.118.451-.676.936-1.283 1.457-1.82.52-.555.945-.833 1.274-.833.156 0 .364.104.624.312.278.208.52.469.728.781.208.294.312.572.312.832Zm10.103 17.763-.624-.208c-.312-.087-.529-.13-.65-.13a.948.948 0 0 1-.52-.338 1.02 1.02 0 0 1-.182-.598c0-.122.008-.217.026-.286.052-.052.095-.191.13-.416.052-.208.078-.399.078-.573a2.43 2.43 0 0 0 .13-.312c.035-.121.078-.286.13-.494.139-.763.459-2.046.962-3.849.503-1.803.815-2.765.937-2.887v-.286c0-.052.017-.156.052-.312.034-.156.112-.321.234-.494a4.49 4.49 0 0 0 .156-.598 7 7 0 0 0 .104-.468c.069-.087.182-.347.338-.781.173-.433.286-.719.338-.858.121-.329.269-.711.442-1.144.191-.451.321-.746.39-.885v-.13c.035-.034.122-.208.26-.52.156-.329.286-.607.39-.832.122-.277.442-.997.963-2.159.034-.069.13-.268.286-.598.156-.329.234-.537.234-.624.173-.191.364-.286.572-.286.26 0 .503.121.728.364.243.225.434.468.572.728l.26.416-.962 1.873c-.26.468-.494.91-.702 1.326-.208.399-.312.633-.312.703-.052.121-.148.372-.286.754l-.416 1.3a19.547 19.547 0 0 1-.599 1.483c-.138.277-.208.442-.208.494 0-.07.963-.104 2.887-.104.295 0 .832-.009 1.613-.026.78-.018 1.274-.044 1.482-.078l1.353-.13.728-2.315c.173-.607.555-1.786 1.144-3.537.243-.728.52-1.266.832-1.613.312-.364.59-.546.833-.546.069 0 .242.104.52.312.294.191.468.356.52.494.191.191.286.391.286.599 0 .242-.139.581-.416 1.014-.208.364-.503 1.049-.884 2.055a11.67 11.67 0 0 1-.286.806c0 .364-.087.633-.261.806-.069.069-.19.321-.364.754-.173.416-.26.659-.26.728 0 .139-.026.295-.078.469a.864.864 0 0 1-.182.338l-.182.624c-.607 2.202-1.084 3.728-1.43 4.577 0 .087-.044.243-.13.468-.087.226-.13.382-.13.469-.035.121-.113.364-.234.728-.122.364-.182.581-.182.65-.122.537-.243 1.17-.365 1.899a38.854 38.854 0 0 0-.234 1.534c-.294.035-.537.017-.728-.052a2.337 2.337 0 0 1-.546-.286 6.066 6.066 0 0 0-.364-.208c-.416-.226-.624-.538-.624-.936 0-.226.078-.495.234-.807.052-.086.216-.65.494-1.69l.234-.962c.139-.382.26-.746.364-1.093.104-.364.199-.676.286-.936.278-1.006.451-1.543.52-1.613v-.26c-.052-.086-.563-.13-1.534-.13-1.058 0-2.159.07-3.303.208h-2.237c-.087.191-.338.954-.754 2.289-.416 1.318-.65 2.159-.702 2.523a60.2 60.2 0 0 1-.572 2.367 65.194 65.194 0 0 1-.599 2.236Zm16.053-1.456c-.676-.503-1.196-.954-1.56-1.353-.364-.398-.555-.78-.572-1.144a2.726 2.726 0 0 1-.026-.468c0-.486.043-1.092.13-1.821.087-.728.173-1.309.26-1.742.069-.07.104-.174.104-.312.017-.139.017-.226 0-.26 0-.052.043-.226.13-.521.208-.641.355-1.179.442-1.612.468-1.422.928-2.557 1.379-3.407.45-.85.953-1.647 1.508-2.393 1.179-1.213 2.436-2.132 3.771-2.757.676-.398 1.162-.598 1.457-.598a.85.85 0 0 1 .234.052c2.132.468 3.407 1.821 3.823 4.058.156 1.057.234 1.855.234 2.392 0 .867-.156 1.743-.468 2.627-.312.884-.876 1.994-1.691 3.329-.693 1.387-1.482 2.575-2.367 3.563-.866.971-1.742 1.699-2.626 2.185-.867.485-1.682.728-2.445.728-.676 0-1.248-.182-1.717-.546Zm2.081-1.717c.416-.052.737-.13.962-.234.243-.104.486-.277.729-.52.26-.26.676-.72 1.248-1.378.728-.833 1.24-1.439 1.534-1.821a6.95 6.95 0 0 0 .807-1.482c.26-.59.546-1.439.858-2.549l.156-.598c.104-.364.173-.659.208-.885a3.71 3.71 0 0 0 .078-.78l-.026-1.638a4.65 4.65 0 0 0-.182-1.015c-.104-.364-.225-.624-.364-.78a1.595 1.595 0 0 0-.572-.39 1.47 1.47 0 0 0-.703-.182c-.173 0-.372.043-.598.13-.329.139-.789.512-1.378 1.118-.59.59-1.118 1.197-1.587 1.821-.45.624-.676 1.04-.676 1.248 0 .018-.008.07-.026.156a.564.564 0 0 1-.104.234c-.451.486-.91 1.509-1.378 3.069-.451 1.561-.711 2.922-.78 4.084-.018.502-.018.849 0 1.04.034.191.13.407.286.65.121.191.338.373.65.546.329.156.615.208.858.156Zm27.643-14.59c0 .225-.06.52-.182.884-.173.555-.312 1.11-.416 1.665-.087.537-.13.971-.13 1.3l.026.26c-.104.226-.191.572-.26 1.04a5.985 5.985 0 0 1-.104.573.423.423 0 0 1-.182.26c0 .069.008.182.026.338.035.156.052.286.052.39v.312c-.33 1.89-.494 3.563-.494 5.019 0 .763.052 1.362.156 1.795.121.433.277.668.468.702.035 0 .061.009.078.026.017.018.026.061.026.13 0 .226-.061.434-.182.624a2.819 2.819 0 0 1-.364.521 5.314 5.314 0 0 1-.312.364 4.913 4.913 0 0 1-.13.182c-.035.069-.096.104-.182.104-.122 0-.339-.044-.651-.13-.052-.104-.216-.234-.494-.39-.277-.139-.503-.434-.676-.885-.173-.45-.26-1.213-.26-2.288 0-.295.009-.529.026-.703v-.078a2.6 2.6 0 0 1-.026-.442c0-.797.087-1.803.26-3.017.191-1.231.39-2.34.598-3.329.139-.589.321-1.317.546-2.184.226-.902.338-1.387.338-1.457l-.026-.026c.035.052-.346.755-1.144 2.107-.797 1.335-1.283 2.124-1.456 2.367-.087.121-.252.433-.494.936l-.729 1.508c-1.421 2.116-2.514 3.173-3.277 3.173-.728 0-1.205-.26-1.43-.78-.208-.52-.321-.979-.338-1.378a27.24 27.24 0 0 1-.026-.728c.035-.191.052-.417.052-.677v-.286c0-.052.017-.191.052-.416.052-.243.095-.511.13-.806 0-.104.087-.642.26-1.613.243-1.179.364-1.933.364-2.262 0-.07-.009-.113-.026-.13v.052c0 .052-.104.242-.312.572-.26.329-.564.815-.91 1.456-.33.642-.807 1.604-1.431 2.887-.121.226-.303.598-.546 1.118-.052.538-.416 1.518-1.092 2.939l-.234.599c-.52 1.3-.937 2.254-1.249 2.86-.294.59-.52.876-.676.859-.087 0-.269-.087-.546-.26a3.357 3.357 0 0 1-.754-.651c-.226-.26-.338-.52-.338-.78 0-.035.147-.347.442-.936.485-.988.754-1.578.806-1.769.017-.069.035-.164.052-.286.035-.121.225-.433.572-.936 0-.104.078-.364.234-.78.174-.434.399-.928.677-1.483.138-.208.208-.407.208-.598.156-.191.355-.615.598-1.274.086-.243.173-.477.26-.702.104-.226.208-.399.312-.521.052-.034.139-.156.26-.364a52.815 52.815 0 0 1 1.612-2.757l.313-.572c.069-.19.13-.294.182-.312.069-.017.355-.494.858-1.43.78-1.093 1.231-1.639 1.352-1.639.104 0 .286.061.546.182.278.122.521.269.729.442.225.174.338.33.338.469 0 .052.008.199.026.442.017.242.026.503.026.78 0 .676-.286 2.93-.858 6.762l-.131.832c.018.052.044.156.079.312.034.139.052.295.052.468.225-.346.424-.624.598-.832.45-.659.771-1.179.962-1.56 0-.087.026-.174.078-.26.069-.087.139-.182.208-.286.139-.174.243-.33.312-.469a.816.816 0 0 0 .13-.442c.486-.693.919-1.352 1.301-1.976 1.456-2.272 2.358-3.563 2.704-3.875.122-.104.304-.191.547-.261.26-.069.502-.104.728-.104.485 0 .858.148 1.118.443.26.277.39.632.39 1.066Zm8.376 16.697c-.815 0-1.483-.052-2.003-.156a2.981 2.981 0 0 1-1.352-.598c-.833-.625-1.249-1.552-1.249-2.783 0-.52.096-1.162.286-1.925.087-.451.182-.832.286-1.144.122-.33.226-.494.313-.494l.182-.963c.017-.104.052-.242.104-.416.052-.19.095-.329.13-.416a.686.686 0 0 1 .156-.234c.069-.052.173-.286.312-.702 0-.035.009-.113.026-.234.017-.121.061-.26.13-.416.26-.434.39-.72.39-.859.017-.052.087-.156.208-.312s.217-.338.286-.546l.338-.598c.52-.919.893-1.586 1.119-2.003.225-.433.364-.788.416-1.066.052-.121.121-.338.208-.65.104-.312.216-.529.338-.65-.052-.104.121-.234.52-.39.416-.156.919-.304 1.508-.442a11.02 11.02 0 0 1 1.613-.261c.104-.069.338-.121.702-.156.364-.034.772-.052 1.223-.052.312 0 .745.018 1.3.052.277 0 .511.035.702.104.208.052.39.122.546.208a9.1 9.1 0 0 1 .338.157l.338.338c.209.173.313.355.313.546 0 .173-.113.321-.339.442-.052.052-.338.095-.858.13a23.71 23.71 0 0 1-1.638.052 10.1 10.1 0 0 0-2.055.234c-.26.052-.459.078-.598.078a3.037 3.037 0 0 1-.78.13 13.49 13.49 0 0 1-.572.026c-.07 0-.313.33-.729.988-.398.659-.607 1.049-.624 1.171a.964.964 0 0 1-.156.494 13.83 13.83 0 0 1-.546.806c-.225.312-.338.607-.338.884 0 .174.052.278.156.313a31.209 31.209 0 0 1 2.002-.235c.798-.086 1.379-.13 1.743-.13.191-.052.347-.078.468-.078.243 0 .468.061.676.182.278.052.416.234.416.547a.77.77 0 0 1-.104.39c-.052.121-.121.199-.208.234-.156.156-.693.355-1.612.598a52.43 52.43 0 0 1-2.835.676c-.988.191-1.543.269-1.664.234-.052-.121-.104-.182-.157-.182-.173 0-.39.572-.65 1.717-.312.693-.503 1.153-.572 1.378-.069.208-.173.702-.312 1.483-.069.312-.104.528-.104.65 0 .676.399 1.196 1.196 1.56.295.052.599.078.911.078.572 0 1.265-.104 2.08-.312.07-.035.598-.329 1.587-.884.052 0 .182-.035.39-.104.225-.087.355-.13.39-.13.139-.191.312-.286.52-.286.052 0 .165.086.338.26.174.173.33.381.468.624.139.225.208.459.208.702 0 .174-.26.39-.78.65-.503.243-1.257.564-2.262.963-.729.312-1.24.511-1.535.598-.295.087-.711.13-1.248.13Zm10.884.442a14.543 14.543 0 0 0-.416-.182 2.232 2.232 0 0 1-.598-.338c-.173-.139-.26-.278-.26-.416-.035-.07-.035-.2 0-.39.035-.191.121-.529.26-1.015l.156-.572c.156-.503.234-.763.234-.78.017.017.043.026.078.026.156 0 .234-.208.234-.624-.017-.07 0-.182.052-.338.07-.156.148-.312.234-.469 0-.121.07-.563.208-1.326a22.085 22.085 0 0 1 1.379-3.511c.017-.139.078-.338.182-.598.104-.26.182-.425.234-.494.035-.26.13-.59.286-.989.156-.416.312-.693.468-.832 0-.191.147-.615.442-1.274.295-.659.468-.988.52-.988 0-.018.018-.079.052-.183a2.67 2.67 0 0 1 .286-.468c0-.086.018-.199.053-.338a.575.575 0 0 1 .234-.338c.017-.052.043-.156.078-.312.034-.156.043-.26.026-.312 0-.052-.018-.087-.052-.104a.835.835 0 0 1-.052-.312c0-.243.156-.373.468-.39.104 0 .225-.148.364-.442.069-.139.26-.261.572-.365a12.75 12.75 0 0 1 1.352-.338l1.379-.234c.295 0 .624.018.988.052.364.035.659.078.884.13a5.04 5.04 0 0 1 1.665 1.301c.485.537.728 1.014.728 1.43 0 .52-.208 1.361-.624 2.523-.399 1.162-.746 1.855-1.04 2.081.086 0 .052.095-.104.286a4.96 4.96 0 0 1-.599.598c-.225.208-.398.329-.52.364 0 .035-.069.156-.208.364a1.406 1.406 0 0 1-.494.468c-.052.035-.234.148-.546.338-.312.191-.546.408-.702.65 0-.086-.026-.13-.078-.13-.07 0-.174.061-.312.182a1.556 1.556 0 0 1-.287.208c-.364.226-.667.373-.91.443-.243.069-.615.147-1.118.234-.122.104-.434.156-.936.156l-.963-.13-.546 1.56a50.3 50.3 0 0 1-.832 2.393c-.069.173-.191.503-.364.988-.174.468-.338.971-.494 1.509a1.971 1.971 0 0 1-.286.754c-.122.225-.261.381-.417.468-.138.087-.251.095-.338.026Zm4.214-9.701c.78-.069 1.378-.208 1.794-.416.434-.208.928-.581 1.483-1.118l.806-.807a10.72 10.72 0 0 0 1.222-1.378c.468-.694.702-1.404.702-2.133 0-.346-.06-.641-.182-.884-.312-.451-.737-.676-1.274-.676-.468 0-.971.156-1.509.468-.173.069-.528.642-1.066 1.717a39.571 39.571 0 0 0-1.43 3.277c-.416 1.109-.598 1.759-.546 1.95Zm12.758 8.687c-.26 0-.659-.104-1.196-.312a8.069 8.069 0 0 1-1.482-.781c-.469-.312-.772-.624-.911-.936l-.052-.104a3.602 3.602 0 0 1-.39-2.679l.13-.546c.156-.537.234-.98.234-1.326a9.71 9.71 0 0 0 .39-.52c.191-.261.304-.425.338-.495a.627.627 0 0 0 .052-.234v-.39c0-.121.044-.243.131-.364.086-.121.173-.217.26-.286.104-.087.173-.139.208-.156l.104.026c.034 0 .164-.251.39-.754.225-.52.442-1.067.65-1.639.867-1.595 1.838-2.921 2.913-3.979 1.075-1.075 2.028-1.794 2.861-2.159.069-.017.199-.034.39-.052.191-.017.373-.034.546-.052.329.018.728.096 1.196.235.469.138.72.242.755.312 0 .069.017.112.052.13a.435.435 0 0 0 .104.026c.156-.018.433.234.832.754.416.503.719.979.91 1.43.208.33.312.885.312 1.665 0 .659-.095 1.482-.286 2.471-.191.97-.381 1.664-.572 2.08a36.938 36.938 0 0 1-1.717 3.953c-.693 1.387-1.326 2.098-1.898 2.133-.017 0-.035.017-.052.052-.017.017-.026.052-.026.104s-.234.277-.702.676c-.451.399-.85.728-1.197.988l-.494.183a7.503 7.503 0 0 1-1.43.364 9.924 9.924 0 0 1-1.353.182Zm.026-2.367c.746 0 1.283-.017 1.613-.052a2.915 2.915 0 0 0 1.04-.338c.382-.208.789-.564 1.223-1.066.173-.313.312-.521.416-.625.017-.034.156-.277.416-.728.26-.451.503-.676.728-.676 0-.087.069-.321.208-.702.139-.399.243-.624.312-.676.035-.018.121-.209.26-.573.139-.381.269-.797.39-1.248.122-.451.182-.824.182-1.118.312-.33.451-.512.416-.546a.45.45 0 0 1-.026-.105v-.26c0-.502.035-.762.105-.78.086-.035.13-.061.13-.078a.3.3 0 0 0-.104-.104c-.035-.035-.052-.069-.052-.104 0-.017.026-.052.078-.104a.28.28 0 0 0 .078-.208c-.035-.433-.278-1.188-.729-2.263a1.474 1.474 0 0 1-.208-.182.639.639 0 0 0-.286-.208.597.597 0 0 0-.312-.078c-.069 0-.191.018-.364.052-.069-.069-.139-.104-.208-.104a.587.587 0 0 0-.182.026l-.13.052c-.364.087-.65.208-.858.364-.191.156-.469.434-.833.833l-.442.468c-.139.468-.425.875-.858 1.222-.069.052-.173.182-.312.39a3.694 3.694 0 0 1-.312.39l-.156.312c-.382.625-.789 1.457-1.223 2.497a42.833 42.833 0 0 0-1.118 2.913c-.312.919-.468 1.5-.468 1.742 0 .486.156.876.468 1.171.329.295.702.459 1.118.494Zm10.054 3.147c-.261 0-.529-.173-.807-.52-.277-.33-.416-.746-.416-1.249 0-.398.096-.789.286-1.17.347-.728.694-1.318 1.041-1.768a2.62 2.62 0 0 0 .26-.443c.069-.121.112-.286.13-.494.242-.312.563-.875.962-1.69.676-1.093 1.638-2.774 2.887-5.046.173-.312.511-.927 1.014-1.846.52-.919.867-1.465 1.04-1.639l.13-.182c-.052.087.035-.113.261-.598.242-.485.494-.919.754-1.3.277-.399.52-.599.728-.599.225 0 .485.096.78.287.295.173.546.442.754.806.226.347.339.763.339 1.248 0 .208-.009.373-.026.494l-.261 1.769-.13.572a180.873 180.873 0 0 1-1.014 4.707c-.399 1.769-.598 2.835-.598 3.199 0 .104.017.191.052.26.035.052.078.078.13.078.035 0 .121-.052.26-.156.139-.121.26-.294.364-.52l.338-.52.442-.65a50.87 50.87 0 0 0 1.795-2.731c.711-1.162 1.864-3.147 3.459-5.956.329-.485.598-.91.806-1.274.278-.451.546-.876.806-1.274.261-.399.46-.651.599-.755a1.01 1.01 0 0 1 .65-.208c.26.018.529.113.806.286.295.174.538.416.728.729.208.312.312.65.312 1.014 0 .416-.13 1.179-.39 2.289a36.454 36.454 0 0 1-.858 3.224c-.069.365-.286 1.223-.65 2.575a65.66 65.66 0 0 0-.624 2.393c-.122.589-.182 1.066-.182 1.43v.208c-.261.469-.391 1.405-.391 2.809-.069.572-.199 1.015-.39 1.327-.19.329-.346.494-.468.494l-.078-.026a.413.413 0 0 0-.26.104c-.069.087-.173.13-.312.13-.433 0-.72-.156-.858-.468-.122-.312-.182-.737-.182-1.275 0-.312.008-.572.026-.78.052-.451.607-2.8 1.664-7.048.832-3.329 1.249-5.071 1.249-5.228l-.365.625a56.24 56.24 0 0 1-1.3 2.314l-1.82 3.407a7.69 7.69 0 0 0-.573.911 9.36 9.36 0 0 0-.234.52c-.208.416-.624 1.014-1.248 1.794-.208.26-.329.425-.364.494-.087.191-.364.529-.832 1.015-.469.468-.963.901-1.483 1.3-.52.382-.953.572-1.3.572-.468 0-.893-.225-1.275-.676-.364-.451-.546-.997-.546-1.638 0-.469.087-1.249.26-2.341.278-1.196.572-2.41.885-3.641.312-1.231.528-2.037.65-2.419.052-.156.078-.329.078-.52 0-.121-.018-.199-.052-.234-.018 0-.044.017-.078.052a1.522 1.522 0 0 1-.078.13c-.26.416-.668 1.144-1.223 2.185a67.247 67.247 0 0 0-1.794 3.667c-2.48 4.56-3.901 7.048-4.265 7.464ZM52.288 158.431c-.069.069-.138.104-.208.104-.086 0-.234-.052-.442-.156a1.611 1.611 0 0 1-.78-.443.996.996 0 0 1-.312-.728c0-.069.035-.208.104-.416.156-.295.555-1.742 1.196-4.343l.442-1.717c0-.017.035-.286.104-.806.052-.26.13-.737.234-1.43.209-.399.347-.833.417-1.301.086-.485.138-.763.156-.832.121-.485.208-.789.26-.91l.234-.91.156-.599c.121-.433.182-.711.182-.832v-.416h-.962l-.416.026c-.278 0-.495-.009-.65-.026l-.91-.026c-.816-.035-1.362-.113-1.64-.234-.277-.139-.424-.399-.442-.78-.069-.347.104-.616.52-.807.417-.208 1.266-.294 2.55-.26.242-.017.572-.026.988-.026.416 0 .754.009 1.014.026.26.018.407.026.442.026a.608.608 0 0 0 .13-.208c.035-.086.06-.156.078-.208 0-.295.096-.477.286-.546.104-.225.321-.338.65-.338.191 0 .382.043.573.13.19.087.338.208.442.364.034.087.052.243.052.468 0 .226.052.39.156.494.07-.069.294-.112.676-.13.381-.017.65-.034.806-.052.33 0 .668-.008 1.014-.026.347-.034.581-.052.703-.052.156-.086.398-.13.728-.13.156 0 .373.018.65.052.347 0 .598.078.754.234.156.139.295.304.416.495 0 .19.044.329.13.416.07.052.105.104.105.156 0 .034-.035.112-.105.234-.12.156-.433.234-.936.234l-.546.026c-.381.035-.659.052-.832.052-.763.156-1.647.251-2.653.286-.71 0-1.066.069-1.066.208-.104 0-.304.564-.598 1.691-.105.416-.217.797-.339 1.144-.104.329-.19.555-.26.676a.379.379 0 0 1 .078.234c0 .087-.052.278-.156.572a7.199 7.199 0 0 1-.182.572c-.07.174-.104.313-.104.417-.017.069-.07.242-.156.52-.07.26-.13.555-.182.884-.087.832-.2 1.318-.338 1.456-.017.035-.06.104-.13.208a.75.75 0 0 0-.078.339c0 .242-.06.676-.182 1.3-.121.607-.217.936-.286.988.052 0 .078.052.078.156 0 .122-.052.304-.156.546 0 .139-.026.304-.078.495-.052.19-.078.32-.078.39a38.578 38.578 0 0 1-.728 1.846c-.313.746-.503 1.153-.573 1.223Zm11.379-.078a3.16 3.16 0 0 1-1.248-.391 11.635 11.635 0 0 1-1.144-.702 91.264 91.264 0 0 1-.703-.494 3.377 3.377 0 0 1-.676-.936c-.156-.347-.286-.798-.39-1.353a3.384 3.384 0 0 1-.052-.546c0-.52.087-1.153.26-1.898.19-.763.382-1.353.572-1.769.382-.919 1.222-2.392 2.523-4.421l.13-.13c.035-.035.043-.052.026-.052v-.026c0-.122.251-.659.754-1.613.295-.312.442-.58.442-.806a.467.467 0 0 0-.078-.286c-.052-.069.018-.217.208-.442.191-.243.451-.503.78-.78a6.546 6.546 0 0 1 1.093-.755c.468-.364.927-.546 1.378-.546a.65.65 0 0 1 .338.078c.105.035.165.096.183.182 0 .104.346.07 1.04-.104.312-.069.537-.112.676-.13.07-.086.243-.156.52-.208a13.68 13.68 0 0 1 1.222-.208 9.47 9.47 0 0 0 1.015 0c.416-.017.685-.034.806-.052.121-.035.295.044.52.234.243.191.434.434.572.728a.833.833 0 0 1 .052.235c0 .26-.164.485-.494.676-.33.173-.806.294-1.43.364-.642.087-1.205.173-1.69.26a56.64 56.64 0 0 0-1.821.364l-.546.104c-.538.087-.937.199-1.197.338s-.537.442-.832.91c-.121.087-.277.313-.468.677-.19.346-.382.71-.572 1.092l-.52.702c-.4.538-.65.893-.755 1.066-.086.157-.104.269-.052.339.07.017.191.043.364.078.191.034.347.06.469.078.156-.087.372-.148.65-.182.277-.035.477-.07.598-.104l.572-.157a190.08 190.08 0 0 1 2.367-.598c.503-.121.875-.199 1.118-.234a.486.486 0 0 1 .312-.104c.19 0 .373.096.546.286.191.174.33.382.416.624.07.243.105.399.105.469 0 .294-.174.52-.52.676-.347.139-1.04.329-2.081.572-1.509.364-2.454.598-2.835.702-1.127.33-1.96.494-2.497.494-.45 0-.667-.147-.65-.442-.156-.086-.338.07-.546.468-.208.399-.39.893-.546 1.483-.139.589-.208 1.101-.208 1.534 0 .226.026.416.078.572.156.417.39.772.702 1.067.312.277.745.494 1.3.65a7.38 7.38 0 0 0 1.092.078c.347 0 .694-.069 1.04-.208 1.353-.226 2.307-.538 2.862-.936a.584.584 0 0 0 .234-.182c.087-.087.165-.13.234-.13l-.026.052c0 .017.052-.018.156-.105.104-.104.217-.208.338-.312.486-.416 1.023-.624 1.612-.624.209 0 .382.035.52.104.157.052.243.104.26.156.105.174.053.451-.155.833-.208.381-.538.78-.989 1.196A7.61 7.61 0 0 1 69.545 157c-.85.451-1.803.78-2.86.989a15.654 15.654 0 0 1-3.018.364Zm23.71-11.99a43.1 43.1 0 0 1 .286-1.222 38.45 38.45 0 0 0 .39-1.769c.104-.555.182-1.075.234-1.56a13.76 13.76 0 0 0-2.21.26l-.209.156a30 30 0 0 1-1.586 3.693c-.572 1.162-.945 1.968-1.118 2.419-1.231 2.947-2.965 5.782-5.202 8.504-.295.364-.65.746-1.066 1.145-.416.398-.772.65-1.067.754-.12.052-.26.078-.416.078-.381 0-.754-.156-1.118-.468-.347-.312-.538-.659-.572-1.041.087-.26.225-.468.416-.624a.974.974 0 0 1 .676-.26c.174 0 .702-.529 1.587-1.586.884-1.075 1.473-1.83 1.768-2.263.208-.312.408-.659.598-1.04.434-.798.824-1.37 1.17-1.717.07-.347.174-.624.313-.832l.494-1.04c.07-.157.2-.443.39-.859s.355-.745.494-.988.252-.39.338-.442c.226-.85.59-1.786 1.093-2.809l-.963.468a8 8 0 0 1-1.014.52c-.277.104-.59.156-.936.156-.226 0-.512-.043-.859-.13-.208-.468-.312-.867-.312-1.196 0-.486.174-.841.52-1.066.365-.243.92-.486 1.665-.729l.65-.208c.312-.121.858-.294 1.639-.52a26.69 26.69 0 0 0 1.794-.598c.243 0 .65-.035 1.223-.104.572-.069.927-.139 1.066-.208.381 0 .806.061 1.274.182.468.121.772.295.91.52.053.07.122.148.209.234a.6.6 0 0 1 .208.208l.546.416c.034.122.086.33.156.625.087.277.13.52.13.728 0 .364-.113 1.04-.338 2.028-.208.989-.373 1.622-.494 1.899-.087.243-.182.668-.286 1.274-.14.798-.278 1.37-.416 1.717a5.416 5.416 0 0 0-.26.884c-.209 1.04-.625 2.436-1.249 4.187-.035.087-.07.182-.104.286a1.107 1.107 0 0 1-.104.313c-.295.797-.52 1.508-.676 2.132-.07.087-.156.252-.26.494-.122.278-.226.46-.312.546-.295.295-.616.443-.963.443-.312 0-.598-.122-.858-.364a1.952 1.952 0 0 1-.546-.937c.555-1.092 1.092-2.462 1.612-4.109.087-.26.148-.485.182-.676.052-.208.096-.373.13-.494.174-.763.338-1.335.495-1.717.069-.191.121-.407.156-.65.052-.26.086-.442.104-.546l.13-.65.468-1.847Zm11.233 12.276c-.814 0-1.482-.052-2.002-.156a2.978 2.978 0 0 1-1.352-.599c-.832-.624-1.249-1.551-1.249-2.782 0-.521.096-1.162.286-1.925a8.99 8.99 0 0 1 .287-1.144c.12-.33.225-.494.312-.494l.182-.963a3.61 3.61 0 0 1 .104-.416 4.22 4.22 0 0 1 .13-.416.686.686 0 0 1 .156-.234c.07-.052.173-.286.312-.702 0-.035.009-.113.026-.234.017-.122.06-.26.13-.416.26-.434.39-.72.39-.859.017-.052.087-.156.208-.312s.217-.338.286-.546l.338-.598c.52-.919.893-1.587 1.119-2.003.225-.433.364-.789.416-1.066.052-.121.121-.338.208-.65.104-.312.217-.529.338-.65-.052-.104.121-.234.52-.39a12.37 12.37 0 0 1 1.509-.443 11.11 11.11 0 0 1 1.612-.26c.104-.069.338-.121.702-.156.364-.034.772-.052 1.223-.052.312 0 .745.018 1.3.052.277 0 .511.035.702.104.208.052.39.122.546.208.156.07.269.122.338.156l.339.338c.208.174.312.356.312.547 0 .173-.113.32-.338.442-.052.052-.339.095-.859.13-.503.034-1.049.052-1.638.052a10.1 10.1 0 0 0-2.055.234c-.26.052-.459.078-.598.078a3.037 3.037 0 0 1-.78.13 13.49 13.49 0 0 1-.572.026c-.07 0-.312.329-.729.988-.398.659-.606 1.049-.624 1.171 0 .156-.052.32-.156.494a13.83 13.83 0 0 1-.546.806c-.225.312-.338.607-.338.884 0 .174.052.278.156.312a31.97 31.97 0 0 1 2.003-.234c.797-.086 1.378-.13 1.742-.13.191-.052.347-.078.468-.078.243 0 .468.061.676.182.278.052.417.234.417.546a.772.772 0 0 1-.105.391c-.052.121-.121.199-.208.234-.156.156-.693.355-1.612.598a52.45 52.45 0 0 1-2.835.676c-.988.191-1.543.269-1.664.234-.052-.121-.104-.182-.156-.182-.174 0-.39.572-.65 1.717-.313.693-.503 1.153-.573 1.378-.07.208-.173.702-.312 1.482-.07.312-.104.529-.104.651 0 .676.399 1.196 1.196 1.56.295.052.599.078.91.078.573 0 1.266-.104 2.081-.312.07-.035.598-.329 1.587-.884.052 0 .182-.035.39-.104.225-.087.355-.13.39-.13.139-.191.312-.286.52-.286.052 0 .165.086.338.26.174.173.33.381.468.624.139.225.208.459.208.702 0 .173-.26.39-.78.65-.503.243-1.257.564-2.262.962-.729.313-1.24.512-1.535.599-.295.086-.71.13-1.248.13Zm26.724-12.406c.035.555.052.884.052.988 0 .399-.035.746-.104 1.041-.069.294-.225.901-.468 1.82a38.4 38.4 0 0 0-.702 1.379c-.399.762-.772 1.369-1.119 1.82-.346.434-.979 1.023-1.898 1.769-.399.364-1.084.728-2.055 1.092-.953.364-1.708.546-2.262.546a7.804 7.804 0 0 1-.755.026c-.242 0-.416-.009-.52-.026-.017.434-.165 1.387-.442 2.861-.243.433-.511.65-.806.65a.692.692 0 0 1-.312-.078c-.312-.069-.59-.26-.833-.572-.242-.312-.346-.598-.312-.858.122-.416.252-.98.39-1.691l.13-.546-1.794-.962c-.486-.364-1.014-.884-1.587-1.561-.572-.676-.918-1.369-1.04-2.08-.087-.33-.13-.763-.13-1.301 0-1.04.208-2.132.624-3.277.434-1.161 1.006-2.167 1.717-3.017.26-.294.529-.554.806-.78.277-.225.546-.425.806-.598.26-.191.434-.321.52-.39l.781-.546c.156-.104.425-.243.806-.416a7.8 7.8 0 0 1 1.014-.416c.208-.07.408-.113.598-.131.208-.034.477-.052.807-.052.485 0 .927.009 1.326.026 0-.329.087-.84.26-1.534.017-.139.043-.277.078-.416a3.73 3.73 0 0 0 .078-.39c0-.226.104-.416.312-.572.208-.174.434-.226.676-.156.313.069.607.225.885.468.277.242.416.45.416.624 0 .277-.017.52-.052.728l-.442 1.769c.797.312 1.578.737 2.34 1.274.573.399.989.737 1.249 1.014.277.278.485.598.624.963.139.364.251.867.338 1.508Zm-11.105 6.138c.121-.295.373-1.014.754-2.159.763-2.219 1.344-3.788 1.743-4.707l.91-2.159-.39-.026c-.208 0-.416.026-.625.078-.433.087-.927.312-1.482.676a14.98 14.98 0 0 0-1.534 1.093c-.59.468-1.023.971-1.301 1.508-.797 1.491-1.196 2.584-1.196 3.277-.087.364-.13.668-.13.91 0 .365.052.685.156.963.104.277.251.546.442.806.243.416.555.754.936 1.014.399.26.833.486 1.301.676.052-.329.112-.693.182-1.092.086-.399.164-.685.234-.858Zm8.946-5.722c.087-.901-.199-1.552-.858-1.95-.121-.07-.355-.208-.702-.417a7.715 7.715 0 0 0-.884-.468 4.662 4.662 0 0 0-.729-.312c-.034.174-.147.494-.338.963-.138.294-.303.71-.494 1.248-.225.52-.633 1.578-1.222 3.173-.59 1.578-.954 2.601-1.092 3.069l-.235.728a8.044 8.044 0 0 0-.364 1.248l-.182.703.963-.313c.138-.069.329-.13.572-.182.399-.121.693-.225.884-.312.763-.294 1.448-.763 2.055-1.404.606-.642 1.205-1.517 1.794-2.627.122-.26.286-.771.494-1.534.208-.763.321-1.301.338-1.613Zm6.645 11.418c-.26 0-.659-.105-1.196-.313a8.04 8.04 0 0 1-1.483-.78c-.468-.312-.771-.624-.91-.936l-.052-.104a3.593 3.593 0 0 1-.39-2.679c.069-.295.112-.477.13-.546.156-.538.234-.98.234-1.326a9.43 9.43 0 0 0 .39-.521c.191-.26.303-.424.338-.494a.627.627 0 0 0 .052-.234v-.39c0-.121.043-.243.13-.364.087-.121.174-.217.26-.286.104-.087.174-.139.208-.156l.104.026c.035 0 .165-.252.39-.754.226-.521.443-1.067.651-1.639.867-1.595 1.838-2.921 2.912-3.979 1.075-1.075 2.029-1.795 2.861-2.159.07-.017.2-.034.39-.052.191-.017.373-.034.547-.052.329.018.728.096 1.196.234.468.139.72.243.754.312 0 .07.018.113.052.13a.398.398 0 0 0 .104.026c.156-.017.434.235.832.755.417.503.72.979.911 1.43.208.33.312.884.312 1.665 0 .658-.096 1.482-.286 2.47-.191.971-.382 1.665-.572 2.081a36.938 36.938 0 0 1-1.717 3.953c-.693 1.387-1.326 2.098-1.898 2.133-.018 0-.035.017-.052.052-.018.017-.027.052-.027.104s-.234.277-.702.676c-.451.399-.849.728-1.196.988l-.494.182a7.421 7.421 0 0 1-1.431.364 9.76 9.76 0 0 1-1.352.183Zm.026-2.367c.746 0 1.283-.018 1.612-.052.33-.035.677-.148 1.041-.338.381-.208.789-.564 1.222-1.067.174-.312.312-.52.416-.624.018-.034.156-.277.416-.728.26-.451.503-.676.729-.676 0-.087.069-.321.208-.702.138-.399.242-.625.312-.677.034-.017.121-.208.26-.572.139-.381.269-.797.39-1.248.121-.451.182-.824.182-1.118.312-.33.451-.512.416-.547a.435.435 0 0 1-.026-.104v-.26c0-.503.035-.763.104-.78.087-.035.13-.061.13-.078a.292.292 0 0 0-.104-.104c-.035-.035-.052-.069-.052-.104 0-.017.026-.052.078-.104a.28.28 0 0 0 .078-.208c-.035-.434-.277-1.188-.728-2.263a1.543 1.543 0 0 1-.208-.182.644.644 0 0 0-.286-.208.597.597 0 0 0-.312-.078c-.07 0-.191.017-.364.052-.07-.069-.139-.104-.208-.104-.07 0-.13.009-.183.026l-.13.052c-.364.087-.65.208-.858.364-.191.156-.468.434-.832.832l-.442.469c-.139.468-.425.875-.858 1.222-.07.052-.174.182-.313.39a3.448 3.448 0 0 1-.312.39l-.156.312c-.381.624-.789 1.457-1.222 2.497a42.833 42.833 0 0 0-1.118 2.913c-.312.919-.468 1.5-.468 1.742 0 .486.156.876.468 1.171.329.294.702.459 1.118.494Zm12.472 4.031a8.214 8.214 0 0 0-.39-.078 1.513 1.513 0 0 0-.468-.026c-.295-.052-.581-.199-.859-.442-.26-.243-.364-.494-.312-.754.052-.052.096-.191.13-.416.035-.209.052-.399.052-.573.07-.19.148-.468.234-.832.104-.78.373-2.072.807-3.875.45-1.821.737-2.792.858-2.913l-.026-.286a2.03 2.03 0 0 1 .26-.832 4.49 4.49 0 0 0 .156-.598 2.14 2.14 0 0 0 .078-.469c.035-.052.156-.364.364-.936l.26-.728c.104-.329.243-.72.416-1.17.174-.451.286-.746.338-.885v-.13c.07-.086.261-.546.573-1.378.156-.347.303-.702.442-1.066.156-.382.312-.755.468-1.119.052-.104.13-.251.234-.442.104-.191.156-.321.156-.39.069-.139.243-.208.52-.208.226 0 .451.052.676.156.226.104.382.243.468.416l.599.416-.885 1.899c-.225.451-.433.893-.624 1.326-.173.416-.26.659-.26.728-.035.122-.113.373-.234.755-.121.381-.251.815-.39 1.3-.069.243-.243.754-.52 1.534-.122.295-.182.46-.182.495 0-.07.936-.139 2.809-.208.312-.018.884-.044 1.716-.078.85-.052 1.378-.105 1.587-.157l1.326-.182.624-2.314c.208-.85.546-2.046 1.014-3.589.226-.746.495-1.318.807-1.717.312-.416.581-.624.806-.624.433 0 .789.312 1.066.936.208.174.312.373.312.598 0 .226-.13.564-.39 1.015-.225.416-.494 1.109-.806 2.08a6.054 6.054 0 0 1-.26.807v.104c0 .329-.078.572-.234.728-.052.052-.165.295-.338.728-.156.434-.234.685-.234.754.017.122 0 .278-.052.468-.052.174-.113.295-.182.365-.018.069-.182.762-.495 2.08-.312 1.318-.624 2.376-.936 3.173.017.087-.017.243-.104.468-.069.226-.104.382-.104.468-.26.833-.381 1.301-.364 1.405-.087.399-.251 1.118-.494 2.158a40.63 40.63 0 0 0-.234 1.067c-.018.034-.096.052-.234.052-.278 0-.572-.061-.885-.182a1.661 1.661 0 0 1-.624-.572 1.259 1.259 0 0 1-.234-.729c0-.225.044-.424.13-.598.07-.121.2-.641.39-1.56l.26-1.119c.087-.277.182-.685.287-1.222.121-.555.208-.945.26-1.17.156-.902.26-1.379.312-1.431v-.26c-.052-.052-.364-.078-.937-.078-.589 0-1.283.035-2.08.104-.798.052-1.509.13-2.133.234l-.728.026c-.364 0-.598.009-.702.026-.174 0-.321.009-.442.026h-.234c-.07.156-.269.902-.599 2.237-.329 1.335-.52 2.193-.572 2.575a77.828 77.828 0 0 1-.546 2.548 48.2 48.2 0 0 1-.468 2.081Zm28.942-20.26c.312.087.572.269.78.546a1.415 1.415 0 0 1 .234 1.353c-.034.173-.147.459-.338.858l-.988 2.289c-.572 1.369-.919 2.149-1.04 2.34-.434.884-.815 1.587-1.145 2.107-.416.745-1.031 1.751-1.846 3.017-.156.242-.486.702-.988 1.378a30.584 30.584 0 0 1-1.015 1.327 9.243 9.243 0 0 1-.936 1.17 39.2 39.2 0 0 1-1.352 1.404l-.625.65c-.156.209-.398.46-.728.755-.208.277-.468.416-.78.416-.191 0-.381-.061-.572-.182-.468-.295-.702-.616-.702-.963 0-.104.026-.225.078-.364.052-.121.364-.476.936-1.066a27.165 27.165 0 0 1 1.43-1.43c.694-.798 1.127-1.309 1.301-1.535a10.62 10.62 0 0 1-1.067-1.768c-.312-.677-.511-1.214-.598-1.613l-.442-2.288a1.647 1.647 0 0 0 0-.573l-.052-.312-.078-4.603.182-2.289v-.39c0-.225.061-.433.182-.624.122-.191.321-.286.598-.286.347-.052.703.095 1.067.442.364.329.546.667.546 1.014a.743.743 0 0 1-.078.338.692.692 0 0 0-.078.312v.313c0 .173-.009.312-.026.416-.035.346-.07.832-.104 1.456a66.876 66.876 0 0 0-.026 1.925c0 .52.008.858.026 1.014l.234 2.263c.017.364.13.927.338 1.69.225.746.442 1.387.65 1.925l.338-.442c.26-.295.434-.547.52-.755.122-.277.321-.633.599-1.066.208-.312.346-.546.416-.702.19-.347.372-.659.546-.936.243-.382.407-.659.494-.833l1.69-3.199c.122-.398.252-.78.391-1.144.156-.451.303-.928.442-1.43.156-.503.26-.945.312-1.327.104-.399.338-.598.702-.598h.234c.121-.017.234-.017.338 0Zm25.076 2.471c0 .086-.026.147-.078.182-.052.017-.078.034-.078.052 0 .017.034.052.104.104l-.182.858c-.07.364-.217 1.092-.443 2.185a78.656 78.656 0 0 0-.468 2.653l-.364 2.782a142.169 142.169 0 0 0-.338 2.835 26.495 26.495 0 0 0-.078 2.081c0 .832.026 1.465.078 1.898.069.451.104.711.104.781 0 .104-.121.26-.364.468a1.21 1.21 0 0 1-.806.312c-.451 0-.78-.191-.988-.572-.209-.364-.33-.937-.365-1.717 0-1.162.087-2.713.26-4.655.052-.122.078-.356.078-.702 0-.208-.017-.365-.052-.469-.017-.173.009-.416.079-.728a3.256 3.256 0 0 0 .078-.624c0-.087.034-.269.104-.546.104-.312.156-.555.156-.728v-.182a6.35 6.35 0 0 0 .156-.573c.069-.242.104-.39.104-.442-.018-.052-.026-.173-.026-.364s-.018-.321-.052-.39c.104-.295.225-.745.364-1.352l.312-1.249c-.017 0-.208.347-.572 1.041a15.774 15.774 0 0 1-1.275 2.054 15.992 15.992 0 0 1-1.17 1.665c-.364.468-.572.737-.624.806-.226.295-.442.572-.65.832-.191.26-.33.503-.417.728-.364.902-.788 1.561-1.274 1.977-.468.416-.945.65-1.43.702l-.416.052h-.157c-.329 0-.606-.216-.832-.65-.208-.433-.312-1.24-.312-2.419l.026-.702.078-1.456c.052-.295.096-.781.13-1.457a70.06 70.06 0 0 1 .078-1.378c-.086.087-.242.407-.468.962-.208.555-.338.91-.39 1.066l-.234.599c-.087.121-.217.45-.39.988-.139.399-.33.884-.572 1.456-.382 1.249-.729 2.237-1.041 2.965-.138.295-.277.616-.416.963-.034.069-.138.346-.312.832-.243.624-.399.997-.468 1.118-.746 1.682-1.37 2.523-1.873 2.523-.277 0-.554-.148-.832-.442-.26-.278-.39-.581-.39-.911 0-.242.095-.563.286-.962.191-.416.468-.953.832-1.612l.547-1.015c0-.086.208-.676.624-1.768l.364-.962 1.612-4.266.026-.104.156-.39c.052-.139.148-.347.286-.624.243-.555.365-.876.365-.962v-.052c0-.052.017-.087.052-.104a.39.39 0 0 1 .104-.026c.069-.191.19-.486.364-.885.19-.416.338-.728.442-.936l-.026-.104c0-.173.026-.312.078-.416.069-.104.139-.199.208-.286.087-.087.156-.165.208-.234 0-.104.052-.243.156-.416.104-.191.225-.382.364-.573.278-.381.46-.667.546-.858.174-.329.442-.494.807-.494.26 0 .52.104.78.312.26.208.477.442.65.702.173.243.26.408.26.495 0 .052-.026.086-.078.104-.052.017-.078.06-.078.13v.104a.685.685 0 0 1 .026.208c0 .312-.043.555-.13.728a8.036 8.036 0 0 0-.234 2.003l.026.754c0 .138-.035.242-.104.312-.052.069-.095.13-.13.182v.052l-.026.208.026.156c0 .156-.044.347-.13.572-.104.399-.156.616-.156.65-.07.573-.104 1.162-.104 1.769 0 .901.078 1.396.234 1.482l1.872-2.782c1.595-2.359 2.402-3.564 2.419-3.616.121-.069.234-.199.338-.39-.017 0-.026-.017-.026-.052 0-.086.226-.459.676-1.118.451-.676.937-1.283 1.457-1.821.52-.554.945-.832 1.274-.832.156 0 .364.104.624.312.278.208.521.468.729.781.208.294.312.572.312.832Zm15.273 16.905c-.399-.035-.841-.226-1.326-.572-.468-.33-.711-.685-.728-1.067l.052-.676c.329-.936.676-2.245 1.04-3.927.087-.33.173-.702.26-1.118.104-.417.217-.859.338-1.327.295-1.109.832-2.904 1.613-5.383l.442-1.431c-3.086 3.901-5.635 7.187-7.646 9.857-.434.59-1.197 1.5-2.289 2.731-1.092 1.231-1.829 1.976-2.211 2.237a1.38 1.38 0 0 1-.806.234 1.56 1.56 0 0 1-.884-.26.947.947 0 0 1-.442-.703l-.026-.286c0-.659.182-1.664.546-3.017a153.53 153.53 0 0 1 1.43-4.785l.468-1.482a45.396 45.396 0 0 1 1.795-4.864.435.435 0 0 1-.026-.182.57.57 0 0 1 .182-.416c-.017-.069.069-.321.26-.754.208-.451.338-.737.39-.859.139-.277.26-.546.364-.806.122-.399.295-.693.52-.884.243-.191.494-.286.755-.286.364 0 .676.139.936.416.277.277.416.624.416 1.04 0 .295-.087.607-.26.937a5.064 5.064 0 0 0-.364.806 5.24 5.24 0 0 1-.208.546 83.646 83.646 0 0 0-2.185 5.644c-.693 1.976-1.248 3.762-1.664 5.357.433-.537.892-1.075 1.378-1.612.936-1.075 1.621-1.89 2.055-2.445a161.621 161.621 0 0 1 6.762-8.557c.312-.381.719-.806 1.222-1.274.52-.468.954-.771 1.3-.91a.968.968 0 0 1 .442-.104c.399 0 .763.191 1.093.572.329.364.494.754.494 1.17 0 .174-.017.304-.052.39l-.572 1.457c-1.075 2.566-1.613 4.04-1.613 4.421 0 .191-.494 2.003-1.482 5.436a127.323 127.323 0 0 0-.494 1.742c-.174.676-.33 1.422-.468 2.237-.122.798-.235 1.578-.339 2.341l-.468.416Zm10.921 0c-.26 0-.528-.174-.806-.52-.277-.33-.416-.746-.416-1.249 0-.399.095-.789.286-1.17.347-.728.694-1.318 1.041-1.769a2.58 2.58 0 0 0 .26-.442c.069-.121.112-.286.13-.494.242-.312.563-.876.962-1.69.676-1.093 1.638-2.775 2.887-5.046.173-.312.511-.928 1.014-1.846.52-.919.867-1.466 1.04-1.639l.13-.182c-.052.087.035-.113.26-.598.243-.486.495-.919.755-1.301.277-.398.52-.598.728-.598.225 0 .485.096.78.286.295.174.546.442.754.807.226.346.338.762.338 1.248 0 .208-.008.373-.026.494l-.26 1.769-.13.572a180.873 180.873 0 0 1-1.014 4.707c-.399 1.769-.598 2.835-.598 3.199 0 .104.017.191.052.26.035.052.078.078.13.078.035 0 .121-.052.26-.156.139-.121.26-.295.364-.52l.338-.52.442-.65a51.28 51.28 0 0 0 1.795-2.731c.711-1.162 1.864-3.147 3.459-5.956.329-.485.598-.91.806-1.274.278-.451.546-.876.806-1.275.26-.398.46-.65.599-.754.173-.139.39-.208.65-.208.26.017.529.113.806.286.295.174.537.416.728.728.208.312.312.651.312 1.015 0 .416-.13 1.179-.39 2.288a36.732 36.732 0 0 1-.858 3.225c-.069.364-.286 1.223-.65 2.575a65.66 65.66 0 0 0-.624 2.393c-.122.589-.183 1.066-.183 1.43v.208c-.26.468-.39 1.405-.39 2.809-.069.572-.199 1.014-.39 1.326-.19.33-.347.495-.468.495l-.078-.026a.413.413 0 0 0-.26.104c-.069.086-.173.13-.312.13-.434 0-.72-.156-.858-.468-.122-.313-.182-.737-.182-1.275 0-.312.008-.572.026-.78.052-.451.606-2.8 1.664-7.048.832-3.329 1.248-5.072 1.248-5.228l-.364.625c-.346.658-.78 1.43-1.3 2.314l-1.821 3.407a7.884 7.884 0 0 0-.572.91 9.59 9.59 0 0 0-.234.521c-.208.416-.624 1.014-1.248 1.794-.208.26-.33.425-.364.494-.087.191-.364.529-.833 1.015-.468.468-.962.901-1.482 1.3-.52.381-.954.572-1.3.572-.468 0-.893-.225-1.275-.676-.364-.451-.546-.997-.546-1.639 0-.468.087-1.248.26-2.34.278-1.197.572-2.41.884-3.641.313-1.231.529-2.038.651-2.419.052-.156.078-.329.078-.52 0-.122-.018-.2-.052-.234-.018 0-.044.017-.078.052a1.695 1.695 0 0 1-.078.13c-.26.416-.668 1.144-1.223 2.184a66.938 66.938 0 0 0-1.794 3.668c-2.48 4.56-3.901 7.048-4.266 7.464Zm23.967-.78c-.26 0-.659-.105-1.196-.313a8.04 8.04 0 0 1-1.483-.78c-.468-.312-.771-.624-.91-.936l-.052-.104a3.593 3.593 0 0 1-.39-2.679c.069-.295.112-.477.13-.546.156-.538.234-.98.234-1.326a9.43 9.43 0 0 0 .39-.521c.191-.26.303-.424.338-.494a.627.627 0 0 0 .052-.234v-.39c0-.121.043-.243.13-.364.087-.121.174-.217.26-.286.104-.087.174-.139.208-.156l.104.026c.035 0 .165-.252.39-.754.226-.521.443-1.067.651-1.639.867-1.595 1.838-2.921 2.912-3.979 1.075-1.075 2.029-1.795 2.861-2.159.07-.017.2-.034.39-.052.191-.017.373-.034.547-.052.329.018.728.096 1.196.234.468.139.72.243.754.312 0 .07.018.113.052.13a.398.398 0 0 0 .104.026c.156-.017.434.235.832.755.417.503.72.979.911 1.43.208.33.312.884.312 1.665 0 .658-.096 1.482-.286 2.47-.191.971-.382 1.665-.572 2.081a36.938 36.938 0 0 1-1.717 3.953c-.693 1.387-1.326 2.098-1.898 2.133-.018 0-.035.017-.052.052-.018.017-.027.052-.027.104s-.234.277-.702.676c-.45.399-.849.728-1.196.988l-.494.182a7.421 7.421 0 0 1-1.431.364 9.76 9.76 0 0 1-1.352.183Zm.026-2.367c.746 0 1.283-.018 1.612-.052.33-.035.677-.148 1.041-.338.381-.208.789-.564 1.222-1.067.174-.312.312-.52.416-.624.018-.034.156-.277.416-.728.26-.451.503-.676.729-.676 0-.087.069-.321.208-.702.138-.399.242-.625.312-.677.034-.017.121-.208.26-.572.139-.381.269-.797.39-1.248.121-.451.182-.824.182-1.118.312-.33.451-.512.416-.547a.435.435 0 0 1-.026-.104v-.26c0-.503.035-.763.104-.78.087-.035.13-.061.13-.078a.292.292 0 0 0-.104-.104c-.035-.035-.052-.069-.052-.104 0-.017.026-.052.078-.104a.28.28 0 0 0 .078-.208c-.035-.434-.277-1.188-.728-2.263a1.543 1.543 0 0 1-.208-.182.644.644 0 0 0-.286-.208.597.597 0 0 0-.312-.078c-.07 0-.191.017-.364.052-.07-.069-.139-.104-.208-.104-.07 0-.13.009-.183.026l-.13.052c-.364.087-.65.208-.858.364-.191.156-.468.434-.832.832l-.442.469c-.139.468-.425.875-.858 1.222-.07.052-.174.182-.313.39a3.448 3.448 0 0 1-.312.39l-.156.312c-.381.624-.789 1.457-1.222 2.497a42.833 42.833 0 0 0-1.118 2.913c-.312.919-.468 1.5-.468 1.742 0 .486.156.876.468 1.171.329.294.702.459 1.118.494Zm28.077 3.147c-.521-.226-1.067-.624-1.639-1.197a10.01 10.01 0 0 1-1.456-1.846c-.417-.694-.703-1.327-.859-1.899-.034-.225-.138-.546-.312-.962a8.848 8.848 0 0 1-.208-.598l-.156-.468c-.243-1.023-.416-1.699-.52-2.029a66.345 66.345 0 0 0-1.248 3.927c-.347 1.214-.72 2.662-1.119 4.344a1.177 1.177 0 0 1-.39.65.883.883 0 0 1-.65.26c-.069 0-.191-.018-.364-.052-.728-.226-1.136-.624-1.223-1.197l2.367-8.218c-.052.156-.442.685-1.17 1.586a48.154 48.154 0 0 1-1.691 2.055c-.416.486-.979 1.014-1.69 1.587a93.025 93.025 0 0 1-2.809 2.132c-.728.538-1.326.988-1.795 1.353-.052.052-.199.182-.442.39-.242.208-.45.312-.624.312a.248.248 0 0 1-.208-.104l-.858-1.041a1.987 1.987 0 0 1-.026-.364c0-.26.043-.468.13-.624.104-.156.277-.277.52-.364.121-.052.321-.199.598-.442.278-.243.668-.529 1.171-.858.416-.278.719-.494.91-.651.26-.19.633-.511 1.118-.962.624-.52.954-.797.988-.832l1.223-1.014c.225-.156.442-.382.65-.677a5.22 5.22 0 0 1 .494-.52c.902-.745 1.639-1.551 2.211-2.418a1.344 1.344 0 0 0-.13-.208 3.897 3.897 0 0 0-.13-.287 66.994 66.994 0 0 0-1.223-2.08 11.476 11.476 0 0 0-1.014-1.457 6.842 6.842 0 0 0-.286-.442 5.96 5.96 0 0 1-.13-.234 88.68 88.68 0 0 0-1.769-2.627l-.026-.494a.8.8 0 0 1 .026-.234c.07-.433.365-.65.885-.65.312 0 .633.078.962.234.329.156.555.347.676.572a73.288 73.288 0 0 0 2.159 3.355c.069.104.147.243.234.416.104.174.199.304.286.39.208.243.433.625.676 1.145.156.364.321.667.494.91.07.087.156.208.26.364.122.139.217.269.286.39l.677-1.768a79.675 79.675 0 0 1 1.716-4.239c.503-1.127.98-1.89 1.431-2.289l.65.104c.399.052.676.156.832.312.173.139.39.433.65.884a122.814 122.814 0 0 0-2.262 4.161 35.301 35.301 0 0 0-1.535 3.459l.676-.546a307.505 307.505 0 0 1 4.396-3.615c.381-.312.936-.832 1.664-1.56a34.696 34.696 0 0 1 1.613-1.535 5.097 5.097 0 0 1 1.352-.832l.364-.156c.434.069.72.147.858.234.139.069.312.286.52.65 0 .572-.208 1.032-.624 1.379l-1.3 1.066c-1.422 1.144-2.479 2.029-3.173 2.653a85.38 85.38 0 0 1-1.743 1.43c-1.057.832-1.881 1.543-2.47 2.133.138.849.338 1.725.598 2.627.26.884.529 1.595.806 2.132.07.122.139.269.208.442.087.174.148.313.182.417.104.208.295.468.572.78.261.295.425.511.495.65.329.312.71.546 1.144.702.52.226.78.546.78.962 0 .399-.225.824-.676 1.275l-.338.026-.364.078-.858-.338Zm9.177-.494a3.158 3.158 0 0 1-1.249-.391 11.677 11.677 0 0 1-1.144-.702 70.13 70.13 0 0 1-.702-.494 3.376 3.376 0 0 1-.677-.936c-.156-.347-.286-.798-.39-1.353a3.454 3.454 0 0 1-.052-.546c0-.52.087-1.153.26-1.898.191-.763.382-1.353.573-1.769.381-.919 1.222-2.392 2.522-4.421l.13-.13c.035-.035.044-.052.026-.052v-.026c0-.122.252-.659.755-1.613.294-.312.442-.58.442-.806a.467.467 0 0 0-.078-.286c-.052-.069.017-.217.208-.442a5.44 5.44 0 0 1 .78-.78 6.538 6.538 0 0 1 1.092-.755c.468-.364.928-.546 1.379-.546.138 0 .251.026.338.078.104.035.165.096.182.182 0 .104.347.07 1.04-.104a8.82 8.82 0 0 1 .676-.13c.07-.086.243-.156.521-.208.294-.069.702-.138 1.222-.208a9.45 9.45 0 0 0 1.014 0c.416-.017.685-.034.806-.052.122-.035.295.044.521.234.242.191.433.434.572.728a.855.855 0 0 1 .052.235c0 .26-.165.485-.494.676-.33.173-.807.294-1.431.364-.641.087-1.205.173-1.69.26-.486.087-1.093.208-1.821.364l-.546.104c-.538.087-.936.199-1.196.338-.26.139-.538.442-.833.91-.121.087-.277.313-.468.677-.19.346-.381.71-.572 1.092l-.52.702c-.399.538-.65.893-.754 1.066-.087.157-.104.269-.052.339a10.016 10.016 0 0 0 .832.156c.156-.087.373-.148.65-.182a4.57 4.57 0 0 0 .598-.104l.572-.157c1.075-.277 1.864-.476 2.367-.598.503-.121.876-.199 1.119-.234a.483.483 0 0 1 .312-.104c.19 0 .372.096.546.286.19.174.329.382.416.624.069.243.104.399.104.469 0 .294-.173.52-.52.676-.347.139-1.041.329-2.081.572-1.508.364-2.453.598-2.835.702-1.127.33-1.959.494-2.496.494-.451 0-.668-.147-.651-.442-.156-.086-.338.07-.546.468-.208.399-.39.893-.546 1.483-.139.589-.208 1.101-.208 1.534 0 .226.026.416.078.572.156.417.39.772.702 1.067.312.277.746.494 1.301.65a7.36 7.36 0 0 0 1.092.078c.347 0 .693-.069 1.04-.208 1.353-.226 2.306-.538 2.861-.936a.58.58 0 0 0 .234-.182c.087-.087.165-.13.234-.13l-.026.052c0 .017.052-.018.156-.105.104-.104.217-.208.338-.312.486-.416 1.023-.624 1.613-.624.208 0 .381.035.52.104.156.052.243.104.26.156.104.174.052.451-.156.833-.208.381-.537.78-.988 1.196-.434.416-.919.78-1.457 1.092-.849.451-1.803.78-2.861.989-1.04.225-2.045.346-3.016.364Zm29.509-16.411c0 .086-.026.147-.078.182-.052.017-.078.034-.078.052 0 .017.035.052.104.104l-.182.858c-.069.364-.217 1.092-.442 2.185a78.656 78.656 0 0 0-.468 2.653l-.365 2.782a150.155 150.155 0 0 0-.338 2.835 26.495 26.495 0 0 0-.078 2.081c0 .832.026 1.465.078 1.898.07.451.104.711.104.781 0 .104-.121.26-.364.468a1.208 1.208 0 0 1-.806.312c-.451 0-.78-.191-.988-.572-.208-.364-.33-.937-.364-1.717 0-1.162.086-2.713.26-4.655.052-.122.078-.356.078-.702 0-.208-.018-.365-.052-.469-.018-.173.008-.416.078-.728a3.256 3.256 0 0 0 .078-.624c0-.087.034-.269.104-.546.104-.312.156-.555.156-.728v-.182a6.35 6.35 0 0 0 .156-.573c.069-.242.104-.39.104-.442a1.527 1.527 0 0 1-.026-.364c0-.191-.017-.321-.052-.39.104-.295.225-.745.364-1.352l.312-1.249c-.017 0-.208.347-.572 1.041a15.872 15.872 0 0 1-1.274 2.054 15.99 15.99 0 0 1-1.171 1.665c-.364.468-.572.737-.624.806-.225.295-.442.572-.65.832-.191.26-.33.503-.416.728-.364.902-.789 1.561-1.275 1.977-.468.416-.945.65-1.43.702l-.416.052h-.156c-.33 0-.607-.216-.832-.65-.209-.433-.313-1.24-.313-2.419l.026-.702.078-1.456c.052-.295.096-.781.13-1.457.035-.693.061-1.153.079-1.378-.087.087-.243.407-.469.962-.208.555-.338.91-.39 1.066l-.234.599c-.087.121-.217.45-.39.988-.139.399-.329.884-.572 1.456-.382 1.249-.728 2.237-1.04 2.965-.139.295-.278.616-.417.963-.034.069-.138.346-.312.832-.242.624-.398.997-.468 1.118-.745 1.682-1.369 2.523-1.872 2.523-.278 0-.555-.148-.833-.442-.26-.278-.39-.581-.39-.911 0-.242.096-.563.286-.962.191-.416.469-.953.833-1.612l.546-1.015c0-.086.208-.676.624-1.768l.364-.962 1.613-4.266.026-.104.156-.39c.052-.139.147-.347.286-.624.242-.555.364-.876.364-.962v-.052c0-.052.017-.087.052-.104a.398.398 0 0 1 .104-.026c.069-.191.191-.486.364-.885.191-.416.338-.728.442-.936l-.026-.104c0-.173.026-.312.078-.416.069-.104.139-.199.208-.286.087-.087.156-.165.208-.234 0-.104.052-.243.156-.416.104-.191.226-.382.364-.573.278-.381.46-.667.547-.858.173-.329.442-.494.806-.494.26 0 .52.104.78.312.26.208.477.442.65.702.174.243.26.408.26.495 0 .052-.026.086-.078.104-.052.017-.078.06-.078.13v.104a.655.655 0 0 1 .026.208c0 .312-.043.555-.13.728a8.036 8.036 0 0 0-.234 2.003l.026.754c0 .138-.034.242-.104.312-.052.069-.095.13-.13.182v.052l-.026.208.026.156c0 .156-.043.347-.13.572-.104.399-.156.616-.156.65a14.78 14.78 0 0 0-.104 1.769c0 .901.078 1.396.234 1.482l1.873-2.782c1.595-2.359 2.401-3.564 2.418-3.616.122-.069.234-.199.338-.39-.017 0-.026-.017-.026-.052 0-.086.226-.459.677-1.118.45-.676.936-1.283 1.456-1.821.52-.554.945-.832 1.274-.832.156 0 .365.104.625.312.277.208.52.468.728.781.208.294.312.572.312.832Zm5.911 15.63c-.798-.277-1.439-.797-1.925-1.56-.468-.763-.702-1.665-.702-2.705 0-.416.035-.797.104-1.144.035-.451.139-.98.312-1.587a6 6 0 0 0 .234-.962c0-.035.018-.095.052-.182.035-.087.044-.156.026-.208.104-.26.252-.624.442-1.092.208-.469.338-.729.39-.781.07-.034.104-.078.104-.13a.39.39 0 0 0 .026-.104c0-.225.235-.711.703-1.456a31.093 31.093 0 0 1 1.56-2.185c.555-.711.884-1.066.988-1.066.035 0 .078-.035.131-.104.052-.087.086-.13.104-.13.121-.139.606-.39 1.456-.754.85-.382 1.526-.633 2.029-.755a3.21 3.21 0 0 1 1.066-.182c.884 0 1.604.416 2.159 1.249.554.815.84 1.95.858 3.407-.052.26-.096.641-.13 1.144-.035.399-.061.624-.078.676-.018.52-.13 1.171-.338 1.951-.191.763-.321 1.153-.391 1.17a.413.413 0 0 1-.052.182.43.43 0 0 0-.052.182c.018.156-.208.702-.676 1.639-.468.919-.737 1.387-.806 1.404a.209.209 0 0 0-.078.026c-.017.018-.017.052 0 .104s-.121.208-.416.468c-.278.26-.477.39-.598.39-.018 0-.035.009-.052.026 0 .018.017.052.052.105.034.052-.217.277-.755.676a22.18 22.18 0 0 1-1.69 1.17c-.607.364-1.066.581-1.378.65a.451.451 0 0 1-.234.13.717.717 0 0 1-.131.026c-.121.122-.346.226-.676.312a3.47 3.47 0 0 1-.936.13c-.26 0-.494-.043-.702-.13Zm2.627-2.73a5.706 5.706 0 0 0 1.56-.833c.52-.398.832-.763.936-1.092.087-.312.208-.529.364-.65.295-.295.685-.971 1.171-2.029.503-1.075.763-1.803.78-2.184 0-.104.026-.269.078-.495.052-.242.113-.416.182-.52.035-.052.043-.164.026-.338a9.643 9.643 0 0 1-.026-.806c0-.451.009-.841.026-1.17-.052-1.127-.225-1.778-.52-1.951-.139-.104-.373-.156-.702-.156-.087 0-.2.017-.338.052a1.916 1.916 0 0 0-.365.13 1.245 1.245 0 0 1-.364.078c-.242.139-.364.295-.364.468a.47.47 0 0 1-.208.39c-.121.104-.251.113-.39.026-.312.018-.511.061-.598.13-.087.07-.199.234-.338.494a9.856 9.856 0 0 1-.338.625c-.434.329-.763.676-.989 1.04-.225.364-.364.668-.416.91-.537.937-.875 1.595-1.014 1.977-.121.364-.225.867-.312 1.508-.139.26-.251.564-.338.911-.07.346-.13.572-.182.676a2.305 2.305 0 0 0-.052.546c0 .381.026.78.078 1.196.052.399.121.668.208.806.139.469.442.703.91.703.382 0 .893-.148 1.535-.442ZM125.86 180.979c-.052.087-.191.2-.416.338.294.191.554.399.78.625.243.225.39.424.442.598.503.797.754 1.734.754 2.809 0 .554-.061 1.109-.182 1.664-.433.832-.693 1.318-.78 1.457-.364.693-.919 1.291-1.665 1.794-.745.503-1.43.832-2.054.988a7.596 7.596 0 0 1-2.211.338c-.173 0-.416-.017-.728-.052a4.974 4.974 0 0 1-1.196-.234c-.347-.104-.789-.303-1.327-.598a4.698 4.698 0 0 1-1.352-1.092 11.248 11.248 0 0 1-1.041-1.483 1.333 1.333 0 0 1-.208-.754c0-.329.104-.65.312-.962.209-.312.46-.564.755-.754a1.24 1.24 0 0 1 .65-.208c.139 0 .26.026.364.078.121.052.208.086.26.104.33.052.538.225.624.52.087.295.139.451.156.468a6.452 6.452 0 0 1-.286.754.668.668 0 0 1-.286.338c.26.399.581.737.962 1.015.208.156.503.294.885.416.398.121.676.164.832.13.017-.018.061-.026.13-.026.087 0 .173.017.26.052.104.017.165.017.182 0 .087-.035.243-.052.468-.052.243-.018.434-.061.572-.13a5.508 5.508 0 0 0 1.483-.65 5.8 5.8 0 0 0 1.222-1.145c.26-.364.434-.685.52-.962.104-.295.174-.685.208-1.17.035-.261 0-.555-.104-.885a14.046 14.046 0 0 1-.208-.702l-.338-.26-.572-.156c-.451-.139-.772-.208-.962-.208-.208 0-.425.035-.65.104-.295.087-.495.13-.599.13a1.05 1.05 0 0 1-.52-.13 2.476 2.476 0 0 0-.26-.182c-.243-.087-.459-.269-.65-.546-.173-.295-.26-.581-.26-.859 0-.156.043-.303.13-.442.104-.19.269-.338.494-.442a1.23 1.23 0 0 1 .754-.13c.07.018.165.026.286.026.243 0 .538-.069.885-.208.208-.069.537-.26.988-.572.451-.312.676-.46.676-.442.572-.728.98-1.275 1.223-1.639.26-.381.468-.797.624-1.248.19-.347.286-.72.286-1.118 0-.226-.044-.443-.13-.651-.018-.104-.139-.19-.364-.26a2.153 2.153 0 0 0-.625-.104.656.656 0 0 0-.234.026c-.277.018-.684.122-1.222.312-.537.174-.858.304-.962.391-.937.797-1.5 1.335-1.691 1.612-.069.121-.19.217-.364.286a1.27 1.27 0 0 1-.52.104c-.329 0-.546-.087-.65-.26a1.861 1.861 0 0 1-.286-.988c0-.399.147-.78.442-1.145.329-.416.615-.745.858-.988.243-.26.529-.485.858-.676l.494-.286c.07-.035.226-.122.469-.26.26-.139.502-.243.728-.312.069-.018.269-.087.598-.208a3.267 3.267 0 0 1 1.092-.182c.156 0 .278.008.364.026.59.052 1.023.156 1.301.312.295.156.745.494 1.352 1.014.26.173.468.477.624.91.156.434.234.928.234 1.483 0 .832-.156 1.586-.468 2.262a6.264 6.264 0 0 0-.286.546c-.034.07-.147.278-.338.625a4.659 4.659 0 0 1-.598.884 40.62 40.62 0 0 1-.988 1.222Zm11.22 10.377a7.433 7.433 0 0 1-2.367.364c-1.3 0-2.557-.303-3.771-.91a1.163 1.163 0 0 0-.234-.52c-.121-.173-.26-.269-.416-.286-.052-.017-.139-.104-.26-.26a14.83 14.83 0 0 0-.26-.364c-.069-.347-.104-.555-.104-.624 0-.156.026-.399.078-.729.052-.329.095-.572.13-.728l.26-.702a42.07 42.07 0 0 1 1.379-3.511l.52-1.326c.78-1.925 1.291-3.217 1.534-3.876.243-.658.364-1.127.364-1.404 0-.156-.043-.338-.13-.546a1.403 1.403 0 0 1-.078-.442c0-.486.252-.824.754-1.015a15.959 15.959 0 0 1 1.899-.832c.746-.277 1.326-.442 1.742-.494.087-.017.226-.026.417-.026.606 0 1.265.095 1.976.286.728.173 1.127.373 1.197.598l.156.052c.017 0 .06.018.13.052.069.035.164.104.286.208.173.122.32.347.442.677.121.312.182.606.182.884a.926.926 0 0 1-.026.26c0 .052.017.182.052.39.052.191.095.347.13.468.017.104.026.26.026.468 0 .971-.451 1.942-1.352 2.913l-.339.442a4 4 0 0 1-.286.338c-.138.174-.242.252-.312.234-.294.261-.442.477-.442.651 0 .086.052.147.156.182l.208.312c.122.156.278.347.468.572.451.693.677 1.508.677 2.445 0 .485-.061.919-.182 1.3-.122.451-.417.971-.885 1.561a10.588 10.588 0 0 1-1.716 1.69 8.62 8.62 0 0 1-2.003 1.248Zm-2.341-8.998c.191-.035.434-.113.729-.234.451-.156.745-.252.884-.286.954-.295 1.777-.737 2.471-1.327a4.915 4.915 0 0 0 1.482-2.132c.069-.139.13-.356.182-.651a3.41 3.41 0 0 0 .104-.78c0-.139-.008-.234-.026-.286v-.208c-.225-.572-.797-.858-1.716-.858-.642 0-1.318.138-2.029.416a.716.716 0 0 0-.39.39c-.069.156-.13.347-.182.572-.035.226-.061.399-.078.52a6.289 6.289 0 0 1-.338 1.171l-.208.624c0 .034-.044.095-.13.182a.413.413 0 0 0-.104.26c-.035.069-.104.225-.208.468a4.83 4.83 0 0 0-.26.702 7.304 7.304 0 0 0-.261.702l-.104.417c0 .052.018.138.052.26.035.121.078.147.13.078Zm-.364 6.918c.295.052.581.078.859.078 1.456 0 2.652-.728 3.589-2.185.468-.589.702-1.101.702-1.534 0-.347-.147-.746-.442-1.197-.208-.294-.399-.502-.572-.624a.897.897 0 0 0-.573-.208c-.173 0-.442.061-.806.182l-.52.156c-.416.07-1.04.252-1.873.546-.572.191-.901.286-.988.286a3.393 3.393 0 0 0-.364.365c-.173.19-.269.32-.286.39-.104.034-.208.164-.312.39a3.262 3.262 0 0 0-.182.676c-.035.225-.026.347.026.364.069.017.061.165-.026.442-.087.278-.148.486-.182.624a1.545 1.545 0 0 0-.052.26c0 .313.182.547.546.703.381.156.867.251 1.456.286Zm13.013-9.909c-.399 0-.633-.174-.702-.52v-.104c0-.156.086-.347.26-.573l.312-.468a31.1 31.1 0 0 0 .468-.754c.243-.399.399-.711.468-.936 0-.07.009-.13.026-.182-.295.052-.598-.052-.91-.312-.225-.208-.338-.486-.338-.833 0-.294.087-.589.26-.884.173-.295.407-.546.702-.754.33-.208.65-.312.962-.312.208 0 .477.061.807.182.294.191.528.459.702.806.191.347.251.633.182.858-.052.451-.199.98-.442 1.587l-.182.546c-.156.572-.676 1.361-1.561 2.367 0 .034-.026.069-.078.104l-.234.078a3.714 3.714 0 0 0-.312.078l-.39.026Zm15.245-7.152c.399.052.694.156.885.312.19.139.312.312.364.52.052.191.104.485.156.884l-.286.702a116.529 116.529 0 0 0-1.873 4.994l-.91 3.095-.312.546-.598 2.757c-.208.884-.399 1.734-.573 2.549a30.271 30.271 0 0 0-.338 1.768c0 .173-.008.312-.026.416a1.932 1.932 0 0 0-.026.312c-.156.364-.225.598-.208.702 0 .451-.095.746-.286.885-.173.138-.537.208-1.092.208a3.79 3.79 0 0 1-.78-.572 1.631 1.631 0 0 1-.391-.651c.018-.294.087-.745.209-1.352.069-.416.104-.65.104-.702l.312-2.185c.034-.069.095-.173.182-.312.104-.139.182-.234.234-.286.052-.191.112-.477.182-.858l.13-.572c.069-.226.156-.59.26-1.093.121-.503.208-.867.26-1.092l-.234.26c-.208.381-.598.91-1.17 1.587-.347.45-.59.78-.729.988-.225.347-1.638 1.734-4.239 4.161-.433.433-.789.772-1.066 1.014-.295.312-.546.503-.754.572-.191.07-.547.122-1.067.157-.624-.503-.936-.971-.936-1.405l.104-.364c.035-.139.087-.234.156-.286.069-.069.165-.147.286-.234.226-.139.72-.538 1.483-1.196a54.612 54.612 0 0 0 1.716-1.535l1.353-1.352 1.378-1.509a7.767 7.767 0 0 1-1.014-.468c-.312-.173-.538-.347-.677-.52-.745-.832-1.118-1.89-1.118-3.173 0-.936.173-1.821.52-2.653.191-.503.373-.875.546-1.118.191-.26.451-.555.781-.884.242-.208.416-.382.52-.521.503-.554 1.031-.97 1.586-1.248.572-.277 1.552-.65 2.939-1.118.087 0 .425-.035 1.014-.104.59-.07 1.127-.104 1.613-.104.173.069.321.13.442.182.139.052.251.095.338.13.122-.104.217-.174.286-.208a.766.766 0 0 1 .364-.026Zm-2.34 4.915c.069-.277.199-.659.39-1.144.052-.122.13-.321.234-.598.104-.295.199-.607.286-.937a1.059 1.059 0 0 0-.286-.026c-.312 0-.728.052-1.249.156-1.127.208-2.202.677-3.224 1.405-1.023.711-1.708 1.474-2.055 2.289a7.072 7.072 0 0 0-.364 1.066c-.07.295-.096.598-.078.91 0 .225.017.408.052.546.034.139.095.312.182.52l.208.599c.069.017.199.034.39.052.208.017.355.017.442 0l.624-.208c.763-.226 1.335-.46 1.717-.703.312-.156.598-.234.858-.234.225 0 .408.035.546.104l.078-.208 1.249-3.589Zm14.584 3.849c-.052.087-.191.2-.416.338.295.191.555.399.78.625.243.225.39.424.442.598.503.797.755 1.734.755 2.809 0 .554-.061 1.109-.183 1.664-.433.832-.693 1.318-.78 1.457-.364.693-.919 1.291-1.664 1.794-.746.503-1.431.832-2.055.988a7.585 7.585 0 0 1-2.211.338c-.173 0-.416-.017-.728-.052a4.984 4.984 0 0 1-1.196-.234c-.347-.104-.789-.303-1.326-.598a4.69 4.69 0 0 1-1.353-1.092 11.151 11.151 0 0 1-1.04-1.483 1.325 1.325 0 0 1-.208-.754c0-.329.104-.65.312-.962.208-.312.459-.564.754-.754a1.24 1.24 0 0 1 .65-.208c.139 0 .26.026.364.078.122.052.208.086.26.104.33.052.538.225.625.52.086.295.138.451.156.468a6.848 6.848 0 0 1-.286.754.673.673 0 0 1-.286.338c.26.399.58.737.962 1.015.208.156.503.294.884.416.399.121.676.164.832.13.018-.018.061-.026.13-.026.087 0 .174.017.26.052.104.017.165.017.182 0 .087-.035.243-.052.469-.052.242-.018.433-.061.572-.13a5.488 5.488 0 0 0 1.482-.65 5.804 5.804 0 0 0 1.223-1.145c.26-.364.433-.685.52-.962.104-.295.173-.685.208-1.17.034-.261 0-.555-.104-.885a13.02 13.02 0 0 1-.208-.702l-.338-.26-.573-.156c-.45-.139-.771-.208-.962-.208-.208 0-.425.035-.65.104-.295.087-.494.13-.598.13-.191 0-.364-.043-.52-.13a2.725 2.725 0 0 0-.26-.182c-.243-.087-.46-.269-.651-.546-.173-.295-.26-.581-.26-.859 0-.156.044-.303.13-.442.104-.19.269-.338.494-.442.226-.121.477-.165.755-.13.069.018.164.026.286.026.243 0 .537-.069.884-.208.208-.069.538-.26.988-.572.451-.312.677-.46.677-.442.572-.728.979-1.275 1.222-1.639.26-.381.468-.797.624-1.248.191-.347.286-.72.286-1.118a1.67 1.67 0 0 0-.13-.651c-.017-.104-.139-.19-.364-.26a2.141 2.141 0 0 0-.624-.104c-.122 0-.2.009-.234.026-.278.018-.685.122-1.223.312-.537.174-.858.304-.962.391-.936.797-1.5 1.335-1.69 1.612a.699.699 0 0 1-.364.286c-.157.069-.33.104-.521.104-.329 0-.546-.087-.65-.26a1.861 1.861 0 0 1-.286-.988c0-.399.147-.78.442-1.145.33-.416.616-.745.858-.988.243-.26.529-.485.859-.676l.494-.286c.069-.035.225-.122.468-.26.26-.139.503-.243.728-.312.07-.018.269-.087.598-.208a3.269 3.269 0 0 1 1.093-.182c.156 0 .277.008.364.026.589.052 1.023.156 1.3.312.295.156.746.494 1.353 1.014.26.173.468.477.624.91.156.434.234.928.234 1.483 0 .832-.156 1.586-.468 2.262a5.992 5.992 0 0 0-.286.546c-.035.07-.148.278-.338.625a4.663 4.663 0 0 1-.599.884 40.62 40.62 0 0 1-.988 1.222Zm14.68 11.912c-.087 0-.217-.035-.391-.104a1.187 1.187 0 0 1-.39-.234c-.208-.208-.312-.52-.312-.937 0-.936-.017-1.551-.052-1.846l-.026-1.561c0-.398.026-.641.078-.728a2.183 2.183 0 0 1-.026-.39c0-.156.009-.338.026-.546.035-.225.052-.399.052-.52l-.104-.702h-1.404c-.104.017-.33.026-.676.026-.469 0-1.587-.052-3.355-.156l-.338.546c-.018.017-.104.13-.261.338-.138.208-.286.52-.442.936a17.36 17.36 0 0 1-.624 1.431c-.243.537-.468.953-.676 1.248-.26.485-.503.841-.728 1.066-.208.226-.364.338-.468.338h-.13a.837.837 0 0 1-.313-.052c-.069-.017-.173-.078-.312-.182-.468-.208-.702-.52-.702-.936 0-.295.139-.642.416-1.04l.338-.547c0-.104.252-.65.755-1.638.52-1.006.858-1.543 1.014-1.612.156-.157.234-.313.234-.469 0-.173-.104-.346-.312-.52a.438.438 0 0 1-.182-.208 1.055 1.055 0 0 1-.052-.338c0-.243.087-.451.26-.624.173-.173.442-.252.806-.234a3.4 3.4 0 0 1 .234-.13c.087-.035.148-.061.182-.078.052-.035.078-.078.078-.13 0-.087.139-.399.416-.937.295-.554.555-.971.781-1.248.173-.468.32-.806.442-1.014.138-.208.225-.356.26-.442.087-.087.26-.373.52-.859.035-.052.147-.242.338-.572.173-.173.347-.373.52-.598.191-.243.312-.399.364-.468.07-.121.174-.269.312-.442.087-.208.243-.46.469-.754.225-.313.364-.503.416-.573a3.05 3.05 0 0 1 .936-.754c.364-.208.702-.312 1.014-.312.174 0 .321.026.442.078.434.191.815.546 1.145 1.066.329.521.52 1.127.572 1.821.017.121.052.39.104.806.069.416.104.78.104 1.092 0 .226-.026.408-.078.547v1.144c0 .572.017.997.052 1.274-.052.191-.078.503-.078.937l.026 1.014c0 .26-.009.477-.026.65l-.026.962-.026.963c-.017.433-.026.979-.026 1.638l.026 2.055c0 1.179-.104 2.037-.312 2.575-.191.537-.486.832-.884.884Zm-5.254-9.727c.087-.017.303-.043.65-.078.347-.035.72-.043 1.119-.026.485-.035.806-.052.962-.052.225 0 .451.009.676.026.243 0 .381-.009.416-.026.33.017.494-.286.494-.91a46.863 46.863 0 0 1-.182-3.954l.026-.806c0-.277-.026-.572-.078-.884-.034-.312-.06-.52-.078-.624-.069-.087-.321.199-.754.858a42.563 42.563 0 0 0-1.066 1.769c-.104.138-.243.381-.416.728a9.788 9.788 0 0 0-.287.494 5.508 5.508 0 0 1-.338.624c-.849 1.353-1.274 2.219-1.274 2.601 0 .121.043.208.13.26Zm14.238 8.556c-.069.07-.139.105-.208.105-.087 0-.234-.053-.442-.157a1.598 1.598 0 0 1-.78-.442.997.997 0 0 1-.312-.728c0-.069.034-.208.104-.416.156-.295.554-1.743 1.196-4.343l.442-1.717c0-.017.035-.286.104-.806.052-.26.13-.737.234-1.43.208-.399.347-.833.416-1.301.087-.485.139-.763.156-.832.122-.486.208-.789.26-.91l.234-.911.156-.598c.122-.433.183-.711.183-.832v-.416h-.963l-.416.026c-.277 0-.494-.009-.65-.026l-.91-.026c-.815-.035-1.361-.113-1.639-.234-.277-.139-.425-.399-.442-.78-.069-.347.104-.616.52-.807.416-.208 1.266-.294 2.549-.26.243-.017.572-.026.988-.026.416 0 .754.009 1.015.026.26.018.407.026.442.026a.612.612 0 0 0 .13-.208c.034-.087.06-.156.078-.208 0-.295.095-.477.286-.546.104-.225.321-.338.65-.338.191 0 .381.043.572.13.191.087.338.208.442.364.035.087.052.243.052.468 0 .226.052.39.156.494.07-.069.295-.112.677-.13.381-.017.65-.034.806-.052.329 0 .667-.008 1.014-.026.347-.034.581-.052.702-.052.156-.087.399-.13.729-.13.156 0 .372.017.65.052.347 0 .598.078.754.234.156.139.295.304.416.494 0 .191.043.33.13.417.069.052.104.104.104.156 0 .034-.035.112-.104.234-.121.156-.433.234-.936.234l-.546.026c-.382.034-.659.052-.833.052-.762.156-1.647.251-2.652.286-.711 0-1.067.069-1.067.208-.104 0-.303.563-.598 1.69-.104.416-.217.798-.338 1.145-.104.329-.191.555-.26.676a.379.379 0 0 1 .078.234c0 .087-.052.277-.156.572a7.28 7.28 0 0 1-.182.572 1.21 1.21 0 0 0-.104.416c-.017.07-.069.243-.156.521-.07.26-.13.554-.182.884-.087.832-.2 1.318-.338 1.456a2.8 2.8 0 0 1-.13.208.746.746 0 0 0-.078.338c0 .243-.061.677-.182 1.301-.122.607-.217.936-.287.988.053 0 .079.052.079.156 0 .122-.053.304-.157.546 0 .139-.026.304-.078.494a1.831 1.831 0 0 0-.078.391 38.226 38.226 0 0 1-.728 1.846c-.312.746-.503 1.153-.572 1.222Zm10.417.313c-.157.156-.382.234-.677.234-.416 0-.815-.156-1.196-.468-.364-.295-.546-.668-.546-1.119 0-.156.026-.321.078-.494l3.277-10.689.39-1.275c.312-.988.546-1.794.702-2.418.174-.642.321-1.37.442-2.185l.338-.364a1.45 1.45 0 0 1 .338-.052c.451 0 .859.182 1.223.546.364.347.546.737.546 1.171 0 .138-.009.242-.026.312-.156.676-.451 1.629-.884 2.86l-.312.885a229.736 229.736 0 0 0-2.549 7.724 101.994 101.994 0 0 1 2.549-3.407c1.664-2.15 3.675-4.291 6.033-6.424.208-.191.642-.659 1.301-1.404a57.517 57.517 0 0 0 1.482-1.769c.052-.052.139-.156.26-.312a1.1 1.1 0 0 1 .39-.364.865.865 0 0 1 .469-.13c.364 0 .728.199 1.092.598.381.382.572.772.572 1.17 0 .07-.017.174-.052.313l-.858 2.34c-.52 1.439-1.266 3.615-2.237 6.528-.052.139-.104.286-.156.442-.052.156-.113.33-.182.52-.485 1.301-.78 2.306-.884 3.017l-.13.807c-.208 1.317-.408 2.28-.598 2.886-.122.382-.365.573-.729.573-.277 0-.581-.104-.91-.313-.312-.208-.537-.424-.676-.65-.122-.225-.156-.442-.104-.65.208-1.023.52-2.332.936-3.927.156-.59.399-1.3.728-2.133.33-.832.659-1.603.989-2.314.121-.26.242-.607.364-1.041.138-.52.268-.901.39-1.144.381-.763.641-1.691.78-2.783a6.584 6.584 0 0 1-.624.962c-.208.243-.486.555-.832.937l-1.171 1.196-.26.208a2.732 2.732 0 0 1-.234.208c-.035.035-.373.416-1.014 1.145-.382.45-.642.745-.78.884-.434.451-1.015 1.144-1.743 2.08a69.905 69.905 0 0 1-1.196 1.431 84.984 84.984 0 0 0-1.743 2.132 8.18 8.18 0 0 0-1.326 2.393 1.8 1.8 0 0 1-.572.832l-.468.495Zm28.377-15.293c-.035.902-.139 1.561-.312 1.977-.174.416-.416.632-.729.65a26.494 26.494 0 0 0-.572-.104 2.872 2.872 0 0 1-.858-.364c-.26-.174-.39-.408-.39-.703 0-.121.061-.407.182-.858.191-.763.286-1.231.286-1.404 0-.538-.234-.884-.702-1.04-.538 0-1.223.416-2.055 1.248-.832.832-1.656 1.864-2.471 3.095-.814 1.231-1.456 2.401-1.924 3.511-.85 2.445-1.326 4.092-1.43 4.941.034.139.052.338.052.598 0 .122-.027.183-.079.183.052.381.209.762.469 1.144.277.364.598.546.962.546s.806-.061 1.326-.182c.538-.139.928-.295 1.171-.468.138 0 .355-.061.65-.182.312-.139.52-.234.624-.286.538-.243.988-.425 1.352-.546a2.867 2.867 0 0 1 1.015-.209c.121 0 .355.035.702.104-.017.07-.043.209-.078.417a4.49 4.49 0 0 1-.156.598c-.295.416-.564.711-.806.884-.226.173-.547.355-.963.546a4.268 4.268 0 0 0-.884.442c-1.248.763-2.488 1.145-3.719 1.145-.555 0-1.162-.122-1.821-.364-.641-.226-1.17-.512-1.586-.859-.139-.225-.321-.693-.546-1.404-.226-.711-.338-1.162-.338-1.352 0-.052.017-.131.052-.235a.85.85 0 0 0 .052-.234v-.26a.972.972 0 0 1-.052-.312c.017-.537.234-1.422.65-2.653.433-1.248 1.006-2.644 1.716-4.187.434-.936 1.058-1.976 1.873-3.121a24.554 24.554 0 0 1 2.575-3.069c.901-.884 1.647-1.439 2.236-1.664.365-.122.659-.182.885-.182.624 0 1.213.156 1.768.468.555.295 1.006.763 1.353 1.404.346.625.52 1.405.52 2.341Zm14.838-4.525c.399.052.693.156.884.312a.903.903 0 0 1 .364.52c.052.191.104.485.156.884l-.286.702a117.824 117.824 0 0 0-1.872 4.994l-.911 3.095-.312.546-.598 2.757a119.41 119.41 0 0 0-.572 2.549 30.271 30.271 0 0 0-.338 1.768c0 .173-.009.312-.026.416a1.932 1.932 0 0 0-.026.312c-.156.364-.226.598-.208.702 0 .451-.096.746-.286.885-.174.138-.538.208-1.093.208a3.846 3.846 0 0 1-.78-.572 1.641 1.641 0 0 1-.39-.651c.017-.294.087-.745.208-1.352.069-.416.104-.65.104-.702l.312-2.185c.035-.069.096-.173.182-.312.104-.139.182-.234.234-.286.052-.191.113-.477.182-.858l.13-.572c.07-.226.157-.59.261-1.093.121-.503.208-.867.26-1.092l-.234.26c-.208.381-.599.91-1.171 1.587-.347.45-.589.78-.728.988-.225.347-1.638 1.734-4.239 4.161a22.95 22.95 0 0 1-1.067 1.014c-.294.312-.546.503-.754.572-.191.07-.546.122-1.066.157-.624-.503-.936-.971-.936-1.405l.104-.364c.034-.139.086-.234.156-.286.069-.069.164-.147.286-.234.225-.139.719-.538 1.482-1.196a54.917 54.917 0 0 0 1.717-1.535l1.352-1.352 1.379-1.509a7.721 7.721 0 0 1-1.015-.468c-.312-.173-.537-.347-.676-.52-.746-.832-1.118-1.89-1.118-3.173 0-.936.173-1.821.52-2.653.191-.503.373-.875.546-1.118.191-.26.451-.555.78-.884.243-.208.416-.382.52-.521.503-.554 1.032-.97 1.587-1.248.572-.277 1.552-.65 2.939-1.118.086 0 .425-.035 1.014-.104.59-.07 1.127-.104 1.613-.104.173.069.32.13.442.182.138.052.251.095.338.13.121-.104.216-.174.286-.208a.766.766 0 0 1 .364-.026Zm-2.341 4.915c.07-.277.2-.659.39-1.144.052-.122.13-.321.234-.598.104-.295.2-.607.287-.937a1.067 1.067 0 0 0-.287-.026c-.312 0-.728.052-1.248.156-1.127.208-2.202.677-3.225 1.405-1.023.711-1.708 1.474-2.054 2.289a7.09 7.09 0 0 0-.365 1.066 3.207 3.207 0 0 0-.078.91c0 .225.018.408.052.546.035.139.096.312.182.52l.209.599c.069.017.199.034.39.052.208.017.355.017.442 0l.624-.208c.763-.226 1.335-.46 1.716-.703.313-.156.599-.234.859-.234.225 0 .407.035.546.104l.078-.208 1.248-3.589Zm7.225 8.739c-.261-.018-.46-.122-.599-.312a1.19 1.19 0 0 1-.182-.651c0-.017-.017-.086-.052-.208a2.61 2.61 0 0 1-.026-.364.69.69 0 0 1 .026-.208c0-.086.078-.303.234-.65.122-.295.208-.511.26-.65.191-.33.477-.711.859-1.144.398-.451.745-.781 1.04-.989l.442-.312c0-.069.121-.199.364-.39s.451-.329.624-.416c.07-.052.191-.139.364-.26.174-.122.339-.252.495-.39.381-.382.667-.737.858-1.067a4.33 4.33 0 0 0 .416-1.04c.087-.347.217-.936.39-1.768.017-.573-.009-.937-.078-1.093-.052-.156-.191-.321-.416-.494a4.243 4.243 0 0 0-.572-.052c-1.162 0-2.063.702-2.705 2.107-.121.312-.182.537-.182.676 0 .087.026.199.078.338 0 .104.017.26.052.468.052.191.078.338.078.442a2.764 2.764 0 0 1-.338.104c-.191.052-.39.078-.598.078-.347 0-.616-.095-.806-.286a3.56 3.56 0 0 0-.209-.26 9.05 9.05 0 0 1-.26-.364.816.816 0 0 1-.13-.312 1.932 1.932 0 0 1-.026-.312c.018-.122.026-.243.026-.364.208-.659.52-1.309.937-1.951.416-.641.919-1.109 1.508-1.404.312-.139.616-.286.91-.442.312-.174.512-.286.599-.338h.26l.598-.078h.286c.173 0 .26.034.26.104h.754c.312.086.702.286 1.17.598.469.294.798.546.989.754.104.329.156.728.156 1.196 0 .867-.165 1.812-.494 2.835-.33 1.006-.755 1.795-1.275 2.367l-.572.52c-.849.763-1.387 1.274-1.612 1.534-.555.313-1.067.789-1.535 1.431a7.727 7.727 0 0 0-1.04 1.976c-.33.694-.772 1.041-1.326 1.041Zm-.599 4.603c-.329.139-.607.208-.832.208-.26 0-.555-.121-.884-.364-.26-.26-.39-.52-.39-.78 0-.434.32-.867.962-1.301.173-.104.329-.19.468-.26a.844.844 0 0 1 .364-.104c.139 0 .373.07.702.208.503.295.755.651.755 1.067 0 .485-.382.927-1.145 1.326Z" fill="#1EA6F9"/><path d="M7.795 142.477c-5.423 48.504 70.753 70.884 115.119 75.255 62.049 6.938 79.891 3.624 95.435 2.707l39.539 21.234-4.378-27.921c21.261-4.702 114.433-11.539 112.403-66.185-2.205-59.356-130.569-71.231-175.405-72.705-44.837-1.474-175.524 3.319-182.713 67.615Z" stroke="#6ABDEC" stroke-width="3" stroke-linecap="round" stroke-dasharray="6 12"/></g><defs><clipPath id="a"><path fill="#fff" d="M0 0h378v716H0z"/></clipPath></defs></svg>