<svg width="20" height="21" fill="none" xmlns="http://www.w3.org/2000/svg"><path d="M14 16.754v-1 1Zm-8 0v1-1Zm10.667-2.666h1-1Zm-.182 1.756.891.454-.89-.454Zm-.728.729.454.89-.454-.89Zm0-12.97.454-.891-.454.89Zm.91 2.485h-1 1Zm-.182-1.757-.89.454.89-.454Zm-12.97 0-.891-.454.891.454Zm.728-.728.454.89-.454-.89Zm-.728 12.241.891-.454-.891.454Zm.728.729.454-.891-.454.89Zm2.424-7.485a1 1 0 1 0 0 2v-2Zm6.666 2a1 1 0 1 0 0-2v2ZM9 13.42a1 1 0 1 0 2 0H9Zm2-6.667a1 1 0 1 0-2 0h2Zm-6.667 7.334v-8h-2v8h2ZM6 4.42h8v-2H6v2Zm8 11.333H6v2h8v-2Zm1.667-1.666c0 .483 0 .785-.02 1.013-.017.216-.046.276-.053.29l1.782.907c.175-.342.237-.694.265-1.034.027-.328.026-.726.026-1.176h-2ZM14 17.754c.45 0 .848.001 1.176-.026.34-.027.692-.09 1.034-.264l-.908-1.782c-.013.007-.073.035-.289.053-.227.019-.53.02-1.013.02v2Zm1.594-2.364a.667.667 0 0 1-.291.292l.907 1.782c.502-.256.91-.663 1.166-1.166l-1.782-.908ZM14 4.421c.483 0 .786 0 1.013.02.216.017.276.046.29.053l.907-1.782c-.342-.175-.694-.237-1.034-.265-.328-.027-.726-.026-1.176-.026v2Zm3.667 1.667c0-.45 0-.848-.026-1.176-.028-.34-.09-.692-.265-1.035l-1.782.908c.007.014.036.073.054.29.018.227.019.53.019 1.013h2Zm-2.365-1.594a.667.667 0 0 1 .292.291l1.782-.908a2.668 2.668 0 0 0-1.166-1.165l-.908 1.782ZM4.334 6.088c0-.483.001-.786.02-1.013.017-.217.046-.276.053-.29l-1.782-.908c-.175.343-.237.695-.265 1.035-.026.328-.026.726-.026 1.176h2ZM6 2.42c-.45 0-.848 0-1.176.026-.34.028-.692.09-1.035.265l.908 1.782c.014-.007.073-.036.29-.054.228-.018.53-.019 1.013-.019v-2ZM4.406 4.785a.666.666 0 0 1 .291-.291L3.79 2.712c-.502.256-.91.664-1.165 1.165l1.782.908Zm-2.073 9.303c0 .45 0 .848.026 1.176.028.34.09.692.265 1.034l1.782-.908c-.007-.013-.036-.073-.053-.289a14.06 14.06 0 0 1-.02-1.013h-2ZM6 15.754c-.483 0-.785 0-1.013-.019-.216-.018-.276-.046-.29-.053l-.908 1.782c.343.174.695.237 1.035.264.328.027.726.026 1.176.026v-2Zm-3.376.544c.256.502.663.91 1.165 1.166l.908-1.782a.666.666 0 0 1-.291-.292l-1.782.908Zm13.043-10.21v8h2v-8h-2Zm-9 5h6.666v-2H6.667v2ZM11 13.42V6.754H9v6.667h2Z" fill="#F56311"/></svg>