<svg width="19" height="18" fill="none" xmlns="http://www.w3.org/2000/svg"><path d="M15.5 6v6.6c0 .84 0 1.26-.163 1.581a1.5 1.5 0 0 1-.656.655C14.36 15 13.94 15 13.1 15H5.9c-.84 0-1.261 0-1.582-.164a1.5 1.5 0 0 1-.656-.655c-.163-.32-.163-.74-.163-1.581V6m12 0h-12m12 0-1.023-1.79c-.252-.441-.378-.661-.555-.822a1.5 1.5 0 0 0-.541-.314C13.154 3 12.9 3 12.393 3H6.607c-.507 0-.76 0-.987.074a1.512 1.512 0 0 0-.542.314c-.177.16-.303.38-.555.821L3.5 6" stroke="#fff" stroke-width="1.5" stroke-linecap="round" stroke-linejoin="round"/><path d="M7.812 10.975h3" stroke="#fff" stroke-width="1.5" stroke-linecap="round"/></svg>