<svg width="19" height="18" fill="none" xmlns="http://www.w3.org/2000/svg"><path d="M9.537 11.588h.75a.75.75 0 0 0-.75-.75v.75Zm0 .075v.75a.75.75 0 0 0 .75-.75h-.75Zm-.074 0h-.75c0 .414.335.75.75.75v-.75Zm0-.075v-.75a.75.75 0 0 0-.75.75h.75Zm.787-5.25a.75.75 0 0 0-1.5 0h1.5Zm-1.5 3a.75.75 0 1 0 1.5 0h-1.5ZM9.5 15a6 6 0 0 1-6-6H2a7.5 7.5 0 0 0 7.5 7.5V15Zm-6-6a6 6 0 0 1 6-6V1.5A7.5 7.5 0 0 0 2 9h1.5Zm6-6a6 6 0 0 1 6 6H17a7.5 7.5 0 0 0-7.5-7.5V3Zm6 6a6 6 0 0 1-6 6v1.5A7.5 7.5 0 0 0 17 9h-1.5Zm-6.713 2.588v.075h1.5v-.075h-1.5Zm.75-.675h-.074v1.5h.074v-1.5Zm.676.75v-.075h-1.5v.074h1.5Zm-.75.675h.074v-1.5h-.074v1.5Zm-.713-6v3h1.5v-3h-1.5Z" fill="#C8C8C8"/></svg>