<svg width="20" height="21" fill="none" xmlns="http://www.w3.org/2000/svg"><path d="M3.333 16.754h-1a1 1 0 0 0 1 1v-1Zm13.334 1a1 1 0 1 0 0-2v2ZM3.333 13.421l-.707-.707a1 1 0 0 0-.293.707h1Zm9.057-9.057-.707-.707.707.707Zm1.886 0-.707.707.707-.707Zm1.448 1.448.707-.708-.707.708Zm0 1.885-.707-.707.707.707Zm-9.057 9.057v1a1 1 0 0 0 .707-.293l-.707-.707ZM16.28 6.497l.95-.31-.95.31Zm0 .515-.951-.31.95.31Zm-3.205-3.205-.31-.951.31.951Zm.515 0 .309-.951-.31.951Zm-2.884 2.24a1 1 0 0 0-1.414 1.415l1.414-1.415Zm1.92 4.748A1 1 0 1 0 14.04 9.38l-1.414 1.414Zm-9.294 6.96h13.334v-2H3.333v2Zm1-1V13.42h-2v3.333h2Zm-.293-2.627 9.058-9.057-1.415-1.414-9.057 9.057 1.414 1.414Zm9.529-9.057 1.448 1.448 1.414-1.415-1.448-1.447L13.57 5.07Zm1.448 1.92L5.96 16.046l1.414 1.415 9.057-9.058-1.414-1.414Zm-8.35 8.763H3.333v2h3.334v-2Zm8.35-9.235c.084.084.15.15.206.208.056.058.093.098.117.127.05.059.016.032-.01-.048l1.902-.618a1.85 1.85 0 0 0-.367-.629c-.123-.144-.28-.301-.434-.455L15.017 6.52Zm1.414 1.885c.153-.153.311-.31.434-.455a1.85 1.85 0 0 0 .367-.628l-1.902-.618c.026-.08.06-.107.01-.048a2.747 2.747 0 0 1-.117.127c-.056.058-.122.124-.206.208l1.414 1.414Zm-1.1-1.598a.167.167 0 0 1 0-.103l1.902.618c.12-.368.12-.765 0-1.133l-1.902.618ZM13.098 5.07l.208-.207c.058-.056.098-.092.127-.117.059-.05.032-.015-.048.011l-.618-1.902a1.85 1.85 0 0 0-.629.367c-.144.122-.301.28-.455.434l1.415 1.414Zm1.885-1.414a7.469 7.469 0 0 0-.455-.434 1.85 1.85 0 0 0-.628-.367l-.618 1.902c-.08-.026-.107-.06-.048-.01.029.024.069.06.127.116l.208.207 1.414-1.414Zm-1.598 1.101a.167.167 0 0 1-.103 0l.618-1.902a1.833 1.833 0 0 0-1.133 0l.618 1.902ZM9.293 7.462l3.333 3.333L14.04 9.38l-3.333-3.334-1.414 1.415Z" fill="#8C8D92"/></svg>