<svg width="24" height="24" fill="none" xmlns="http://www.w3.org/2000/svg"><path fill-rule="evenodd" clip-rule="evenodd" d="M9.403 8.063A3.693 3.693 0 0 1 12 7c.976 0 1.91.384 2.596 1.063a3.59 3.59 0 0 1 1.07 2.552c0 1.327-.584 2.601-1.383 3.712-.772 1.075-1.691 1.92-2.283 2.41-.592-.49-1.511-1.335-2.284-2.41-.8-1.111-1.383-2.385-1.383-3.712a3.59 3.59 0 0 1 1.07-2.552ZM12 5c-1.5 0-2.94.589-4.003 1.64a5.59 5.59 0 0 0-1.664 3.975c0 1.908.83 3.589 1.76 4.88.933 1.298 2.025 2.286 2.689 2.829l.035.03c.143.118.387.32.73.418.282.079.623.079.904 0 .344-.097.588-.3.732-.419l.035-.029c.663-.543 1.755-1.53 2.689-2.829.928-1.291 1.76-2.972 1.76-4.88a5.59 5.59 0 0 0-1.664-3.974A5.693 5.693 0 0 0 12 5Zm-.334 5.667a.333.333 0 1 1 .667 0 .333.333 0 0 1-.667 0ZM12 8.333A2.333 2.333 0 1 0 12 13a2.333 2.333 0 0 0 0-4.667Z" fill="#8C8D92"/></svg>