<svg width="6" height="8" fill="none" xmlns="http://www.w3.org/2000/svg"><path d="M2.815 5.208c-.446 0-.824-.365-.756-.806.01-.069.023-.13.037-.177.06-.207.147-.373.264-.497.116-.126.259-.24.428-.342.146-.088.276-.173.39-.256.117-.082.208-.17.274-.262a.519.519 0 0 0 .103-.316.481.481 0 0 0-.082-.279.546.546 0 0 0-.223-.186.72.72 0 0 0-.312-.067.753.753 0 0 0-.342.08.67.67 0 0 0-.25.218c-.104.156-.245.322-.433.322H1.38c-.485 0-.912-.418-.705-.856.046-.098.102-.19.166-.273a1.94 1.94 0 0 1 .89-.639 3.49 3.49 0 0 1 1.22-.205c.489 0 .925.066 1.308.199.384.13.686.329.908.594.221.264.332.594.332.99 0 .255-.048.48-.144.674a1.61 1.61 0 0 1-.394.51 3.16 3.16 0 0 1-.585.398 2.4 2.4 0 0 0-.415.275.935.935 0 0 0-.253.32c-.142.293-.35.581-.677.581h-.217Zm.027 2.125a.983.983 0 0 1-.681-.256.814.814 0 0 1-.277-.63.795.795 0 0 1 .277-.616.983.983 0 0 1 .681-.256.97.97 0 0 1 .665.256c.194.17.292.376.294.617a.804.804 0 0 1-.14.449.968.968 0 0 1-.818.436Z" fill="#8C8D92"/></svg>