<svg width="19" height="19" fill="none" xmlns="http://www.w3.org/2000/svg"><path d="M2.75 8.718V11.6c0 .84 0 1.26.163 1.581a1.5 1.5 0 0 0 .656.655C3.889 14 4.31 14 5.15 14h8.7c.84 0 1.26 0 1.58-.164a1.5 1.5 0 0 0 .657-.655c.163-.32.163-.741.163-1.581V8.718m-13.5 0V6.4c0-.84 0-1.26.163-1.581a1.5 1.5 0 0 1 .656-.656C3.889 4 4.31 4 5.15 4h8.7c.84 0 1.26 0 1.58.163a1.5 1.5 0 0 1 .657.656c.163.32.163.74.163 1.581v2.318m-13.5 0h13.5M9.515 7.72v2.115" stroke="#8C8D92" stroke-width="1.5" stroke-linecap="round" stroke-linejoin="round"/></svg>