<svg width="108" height="32" fill="none" xmlns="http://www.w3.org/2000/svg"><rect x="1" y=".5" width="106" height="31" rx="15.5" fill="url(#a)" fill-opacity=".1"/><rect x="1" y=".5" width="106" height="31" rx="15.5" stroke="url(#b)"/><path d="m16.626 20 3.264-8.4h1.458l3.348 8.4h-1.518l-.774-2.004h-3.558L18.102 20h-1.476Zm2.568-3.162h2.85l-1.452-3.66-1.398 3.66Zm10 3.342c-.396 0-.754-.058-1.074-.174a2.573 2.573 0 0 1-.822-.48 2.617 2.617 0 0 1-.564-.714l.192-.294V20h-1.188v-8.64h1.314v4.068l-.27-.294c.264-.384.594-.688.99-.912.396-.228.864-.342 1.404-.342.592 0 1.112.142 1.56.426.452.28.804.658 1.056 1.134.252.476.378 1.006.378 1.59 0 .452-.074.87-.222 1.254a3.002 3.002 0 0 1-.612 1.002c-.264.28-.578.5-.942.66a3.015 3.015 0 0 1-1.2.234Zm-.24-1.17c.364 0 .688-.08.972-.24.288-.164.514-.394.678-.69.164-.296.246-.646.246-1.05s-.082-.754-.246-1.05c-.16-.3-.384-.53-.672-.69-.284-.16-.61-.24-.978-.24s-.696.08-.984.24c-.284.16-.508.39-.672.69-.164.296-.246.646-.246 1.05s.082.754.246 1.05c.164.296.388.526.672.69.288.16.616.24.984.24Zm7.307 1.17c-.62 0-1.174-.142-1.662-.426a3.162 3.162 0 0 1-1.14-1.146 3.11 3.11 0 0 1-.414-1.578 3.1 3.1 0 0 1 .906-2.208 3.24 3.24 0 0 1 1.026-.69 3.24 3.24 0 0 1 1.29-.252c.62 0 1.172.144 1.656.432.488.284.87.666 1.146 1.146.276.476.414 1 .414 1.572 0 .42-.08.82-.24 1.2-.156.38-.378.716-.666 1.008a3.17 3.17 0 0 1-1.02.69 3.256 3.256 0 0 1-1.296.252Zm0-1.17c.368 0 .694-.08.978-.24.288-.164.514-.394.678-.69.164-.296.246-.646.246-1.05s-.082-.754-.246-1.05c-.164-.3-.39-.53-.678-.69-.284-.16-.61-.24-.978-.24s-.696.08-.984.24c-.284.16-.508.39-.672.69-.16.296-.24.646-.24 1.05s.082.754.246 1.05c.164.296.388.526.672.69.288.16.614.24.978.24Zm6.84 1.17c-.532 0-.972-.106-1.32-.318a2.06 2.06 0 0 1-.774-.852 2.588 2.588 0 0 1-.258-1.152V14.06h1.32v3.552c0 .408.12.736.36.984.244.244.58.366 1.008.366.28 0 .53-.062.75-.186.22-.128.394-.306.522-.534.132-.228.198-.492.198-.792v-3.39h1.32V20h-1.188v-.702c-.232.28-.508.498-.828.654-.316.152-.686.228-1.11.228Zm7.458 0c-.58 0-1.044-.168-1.392-.504-.349-.336-.523-.85-.523-1.542v-5.808h1.32v1.734h1.65v1.092h-1.65v2.694c0 .416.078.71.235.882.16.168.384.252.672.252a1.58 1.58 0 0 0 .731-.174l.235 1.068c-.173.088-.37.16-.595.216-.22.06-.447.09-.683.09Zm-3.216-5.028V14.06h1.475v1.092h-1.475Zm12.82 5.028c-.873 0-1.635-.18-2.287-.54a3.827 3.827 0 0 1-1.524-1.524c-.36-.66-.54-1.43-.54-2.31 0-.64.106-1.226.318-1.758.216-.536.518-1 .906-1.392a4.138 4.138 0 0 1 1.386-.912 4.615 4.615 0 0 1 1.752-.324c.64 0 1.192.08 1.656.24.468.16.876.388 1.224.684l-.696 1.098a2.562 2.562 0 0 0-.924-.546c-.352-.12-.74-.18-1.164-.18-.468 0-.89.072-1.266.216-.376.144-.698.35-.966.618a2.696 2.696 0 0 0-.612.966c-.14.376-.21.802-.21 1.278 0 .648.126 1.202.378 1.662.256.46.616.812 1.08 1.056.468.24 1.02.36 1.656.36.424 0 .832-.062 1.224-.186a3.359 3.359 0 0 0 1.11-.618l.624 1.134a4.446 4.446 0 0 1-1.386.726 5.605 5.605 0 0 1-1.74.252Zm4.874 2.508a2.82 2.82 0 0 1-.636-.072 2.206 2.206 0 0 1-.612-.246l.3-1.128c.124.08.26.14.408.18.148.04.28.06.396.06.28 0 .5-.066.66-.198.16-.132.286-.336.378-.612l.198-.576-2.34-6.036h1.446l1.644 4.608 1.602-4.608h1.398l-2.568 6.798c-.184.476-.39.846-.618 1.11a1.86 1.86 0 0 1-.756.558 2.448 2.448 0 0 1-.9.162Zm5.877-.168v-8.46h1.188v.834c.236-.3.538-.544.906-.732.368-.188.822-.282 1.362-.282.58 0 1.094.138 1.542.414.452.272.804.646 1.056 1.122.252.472.378 1.01.378 1.614 0 .436-.072.846-.216 1.23-.144.38-.35.714-.618 1.002-.264.288-.58.514-.948.678a2.98 2.98 0 0 1-1.212.24c-.464 0-.872-.084-1.224-.252a2.755 2.755 0 0 1-.9-.678v3.27h-1.314Zm3.216-3.51c.368 0 .694-.08.978-.24.288-.164.512-.394.672-.69.164-.296.246-.646.246-1.05s-.082-.754-.246-1.05c-.164-.3-.39-.53-.678-.69a1.946 1.946 0 0 0-.972-.24c-.368 0-.696.08-.984.24-.284.16-.508.39-.672.69-.164.296-.246.646-.246 1.05s.082.754.246 1.05c.164.296.388.526.672.69.288.16.616.24.984.24Zm7.313 1.17c-.64 0-1.203-.13-1.686-.39a2.868 2.868 0 0 1-1.135-1.104c-.267-.472-.401-1.02-.401-1.644 0-.456.078-.876.233-1.26a2.98 2.98 0 0 1 1.657-1.668 3.3 3.3 0 0 1 1.254-.234c.492 0 .93.088 1.314.264.383.172.701.414.953.726.256.312.436.678.54 1.098.109.416.127.868.055 1.356h-4.74c-.008.356.07.668.234.936.163.264.397.47.701.618.309.148.67.222 1.087.222.335 0 .66-.05.972-.15.316-.104.602-.256.858-.456l.51.948a2.79 2.79 0 0 1-.697.402 4.64 4.64 0 0 1-.852.246 4.31 4.31 0 0 1-.858.09Zm-1.879-3.828h3.367c-.013-.448-.156-.8-.432-1.056-.272-.256-.66-.384-1.164-.384-.488 0-.894.128-1.218.384-.32.256-.505.608-.553 1.056Zm5.214 3.654 2.148-2.988-2.022-2.958h1.662l1.266 2.01 1.224-2.01h1.62l-1.962 2.922L90.844 20h-1.692l-1.368-2.088-1.386 2.076-1.62.018Z" fill="url(#c)"/><defs><linearGradient id="a" x1="54" y1="0" x2="54" y2="32" gradientUnits="userSpaceOnUse"><stop stop-color="#E5FF5D"/><stop offset="1" stop-color="#A1FFB0"/></linearGradient><linearGradient id="b" x1="107.5" y1="27.077" x2="-.151" y2="2.898" gradientUnits="userSpaceOnUse"><stop stop-color="#E5FF5D"/><stop offset="1" stop-color="#5DFFFF"/></linearGradient><linearGradient id="c" x1="91.5" y1="24.308" x2="15.582" y2="8.372" gradientUnits="userSpaceOnUse"><stop stop-color="#E5FF5D"/><stop offset="1" stop-color="#5DFFFF"/></linearGradient></defs></svg>