<svg width="81" height="81" fill="none" xmlns="http://www.w3.org/2000/svg"><rect width="81" height="81" rx="24" fill="url(#a)"/><path d="M56.834 20.083H24.166a4.095 4.095 0 0 0-4.084 4.084v32.666a4.095 4.095 0 0 0 4.084 4.084h32.666a4.095 4.095 0 0 0 4.084-4.084V24.167a4.095 4.095 0 0 0-4.084-4.084Zm0 36.75H24.166V24.167h32.666v32.666ZM52.75 28.25H42.542a4.095 4.095 0 0 0-4.084 4.083v4.655c-1.224.715-2.041 2.001-2.041 3.512a4.095 4.095 0 0 0 4.083 4.083 4.095 4.095 0 0 0 4.084-4.083 4.02 4.02 0 0 0-2.042-3.512v-4.655h6.125v16.334H32.333V32.333h4.084V28.25H28.25v24.5h24.5v-24.5Z" fill="#0D0D0D"/><defs><linearGradient id="a" x1="81" y1="68.538" x2="-4.219" y2="62.814" gradientUnits="userSpaceOnUse"><stop stop-color="#E5FF5D"/><stop offset="1" stop-color="#5DFFFF"/></linearGradient></defs></svg>