<svg width="80" height="80" fill="none" xmlns="http://www.w3.org/2000/svg"><rect width="80" height="80" rx="24" fill="url(#a)"/><path d="m40 26.988 15.06 26.02H24.94L40 26.988Zm-18.52 24.02c-1.54 2.66.38 6 3.46 6h30.12c3.08 0 5-3.34 3.46-6l-15.06-26.02c-1.54-2.66-5.38-2.66-6.92 0l-15.06 26.02Zm16.52-14v4c0 1.1.9 2 2 2s2-.9 2-2v-4c0-1.1-.9-2-2-2s-2 .9-2 2Zm0 10h4v4h-4v-4Z" fill="#0D0D0D"/><defs><linearGradient id="a" x1="80" y1="67.692" x2="-4.167" y2="62.039" gradientUnits="userSpaceOnUse"><stop stop-color="#E5FF5D"/><stop offset="1" stop-color="#5DFFFF"/></linearGradient></defs></svg>