<svg width="80" height="80" fill="none" xmlns="http://www.w3.org/2000/svg"><rect width="80" height="80" rx="24" fill="url(#a)"/><path d="M54 46v8H26v-8h28Zm2-4H24c-1.1 0-2 .9-2 2v12c0 1.1.9 2 2 2h32c1.1 0 2-.9 2-2V44c0-1.1-.9-2-2-2ZM30 53c-1.64 0-3-1.34-3-3s1.36-3 3-3 3 1.34 3 3-1.34 3-3 3Zm24-27v8H26v-8h28Zm2-4H24c-1.1 0-2 .9-2 2v12c0 1.1.9 2 2 2h32c1.1 0 2-.9 2-2V24c0-1.1-.9-2-2-2ZM30 33c-1.64 0-3-1.34-3-3s1.36-3 3-3 3 1.36 3 3-1.34 3-3 3Z" fill="#0D0D0D"/><defs><linearGradient id="a" x1="80" y1="67.692" x2="-4.167" y2="62.039" gradientUnits="userSpaceOnUse"><stop stop-color="#E5FF5D"/><stop offset="1" stop-color="#5DFFFF"/></linearGradient></defs></svg>