<svg width="80" height="80" fill="none" xmlns="http://www.w3.org/2000/svg"><rect width="80" height="80" rx="24" fill="url(#a)"/><path d="m40 18-18 8v12c0 11.1 7.68 21.48 18 24 10.32-2.52 18-12.9 18-24V26l-18-8Zm14 20c0 3.7-1.02 7.3-2.76 10.42l-2.9-2.9c2.58-3.88 2.14-9.16-1.28-12.58-3.9-3.9-10.24-3.9-14.14 0-3.9 3.9-3.9 10.24 0 14.14 3.42 3.42 8.7 3.84 12.58 1.28l3.44 3.44c-2.38 2.84-5.46 5.02-8.94 6.08-8.04-2.5-14-10.84-14-19.88v-9.4l14-6.22 14 6.22V38Zm-14 8c-3.32 0-6-2.68-6-6s2.68-6 6-6 6 2.68 6 6-2.68 6-6 6Z" fill="#0D0D0D"/><defs><linearGradient id="a" x1="80" y1="67.692" x2="-4.167" y2="62.039" gradientUnits="userSpaceOnUse"><stop stop-color="#E5FF5D"/><stop offset="1" stop-color="#5DFFFF"/></linearGradient></defs></svg>