<svg width="99" height="33" fill="none" xmlns="http://www.w3.org/2000/svg"><path d="m19.062 13.863.158-.482s-1.34-.483-2.925-.06c2.117.62 3.92 2.236 3.92 2.236-.493-1.26-1.153-1.694-1.153-1.694Z" fill="#fff" fill-opacity=".6"/><path d="M21.996 12.82v-.72s-1.162-1.94-3.377-2.796c-.65-3.712-5.7-3.741-5.7-3.741h4.302V.64H7.385C3.308.65 0 3.948 0 8.024v17.231a7.387 7.387 0 0 0 7.385 7.385h9.846v-4.923h-1.576c-1.792 0-3.249-1.231-3.249-2.757 0-1.527 1.457-2.757 3.25-2.757 1.791 0 3.249 1.23 3.249 2.757 0 .433-.128.846-.335 1.22 5.986-.63 5.583-5.71 5.583-5.71s1.585-.975.965-2.56c0-.01 1.88-2.353-3.122-5.09Zm-1.22 11.214s1.378-1.693-1.428-2.008c.354-.325.443-.768.443-.768s2.176.57 3.082-.237c-.07 1.999-2.098 3.013-2.098 3.013Zm3.416-7.247a1.937 1.937 0 0 0-2.314.355c3.939-.138 1.546 4.45-2.156 2.717 1.31.099 1.999-.896 1.999-.896s-4.343.69-2.934-2.48c-1.97.659-2.255 3.032-2.255 3.032s-5.376.403-3.328-4.214c-2.688 2.688-.414 6.134-.414 6.134s-1.88-.67-2.363-3.013c0 0-1.733 6.528 1.447 11.362-7.808-8.369-1.83-15.429-1.83-15.429-5.76 4.254-2.935 12.741-2.935 12.741-4.943-6.075-2.097-10.565-2.097-10.565s-2.56 1.733-2.088 6.706c0 0-4.598-11.59 6.509-12.052-2.413-1.93-6.942-.739-6.942-.739s5.228-3.948 10.92-1.142c-.345-2.018-2.994-2.343-2.994-2.343s6.252-1.428 7.158 3.25c0 0 2.009.747 3.17 2.313v1.093s3.979 1.733 3.447 3.17ZM51.712.65H40.635l1.23.61v31.38h4.924V19.72l-1.23-.61h6.153a7.387 7.387 0 0 0 7.385-7.385V8.034A7.387 7.387 0 0 0 51.712.649Zm2.462 11.076a2.462 2.462 0 0 1-2.462 2.462H46.79V6.193l-1.23-.61h6.153a2.462 2.462 0 0 1 2.462 2.46v3.683ZM61.558 1.27v31.37H78.78v-4.924H66.471v-7.995l-1.23-.61h11.076v-4.923h-9.846V6.193l-1.23-.62h13.538V.648H60.327l1.231.62ZM98.462.65h-5.258l-3.358 8.97L86.49.65h-6.48l1.517.758 5.701 15.241-5.986 15.99h5.248l3.357-8.97 3.358 8.97h5.258l-5.987-15.99 5.987-16Z" fill="#fff" fill-opacity=".6"/><path d="M31.39 11.55 27.422.64l-6.47.01 1.507.758 6.45 17.703h.462L25.748 32.63h5.09L39.404.65h-5.09l-2.924 10.9Z" fill="#fff" fill-opacity=".6"/></svg>