<svg width="192" height="32" viewBox="0 0 192 32" fill="none" xmlns="http://www.w3.org/2000/svg">
<rect x="0.5" y="0.5" width="191" height="31" rx="15.5" fill="url(#paint0_linear_2_882)" fill-opacity="0.1"/>
<rect x="0.5" y="0.5" width="191" height="31" rx="15.5" stroke="url(#paint1_linear_2_882)"/>
<path d="M17.092 20V11.6H18.376L22.618 17.702V11.6H23.926V20H22.642L18.406 13.826V20H17.092ZM28.6534 20.18C28.0134 20.18 27.4514 20.05 26.9674 19.79C26.4834 19.526 26.1054 19.158 25.8334 18.686C25.5654 18.214 25.4314 17.666 25.4314 17.042C25.4314 16.586 25.5094 16.166 25.6654 15.782C25.8214 15.394 26.0414 15.058 26.3254 14.774C26.6094 14.49 26.9414 14.27 27.3214 14.114C27.7054 13.958 28.1234 13.88 28.5754 13.88C29.0674 13.88 29.5054 13.968 29.8894 14.144C30.2734 14.316 30.5914 14.558 30.8434 14.87C31.0994 15.182 31.2794 15.548 31.3834 15.968C31.4914 16.384 31.5094 16.836 31.4374 17.324H26.6974C26.6894 17.68 26.7674 17.992 26.9314 18.26C27.0954 18.524 27.3294 18.73 27.6334 18.878C27.9414 19.026 28.3034 19.1 28.7194 19.1C29.0554 19.1 29.3794 19.05 29.6914 18.95C30.0074 18.846 30.2934 18.694 30.5494 18.494L31.0594 19.442C30.8674 19.598 30.6354 19.732 30.3634 19.844C30.0914 19.952 29.8074 20.034 29.5114 20.09C29.2154 20.15 28.9294 20.18 28.6534 20.18ZM26.7754 16.352H30.1414C30.1294 15.904 29.9854 15.552 29.7094 15.296C29.4374 15.04 29.0494 14.912 28.5454 14.912C28.0574 14.912 27.6514 15.04 27.3274 15.296C27.0074 15.552 26.8234 15.904 26.7754 16.352ZM33.872 20L32.006 14.06H33.32L34.592 18.476L35.984 14.06H37.274L38.576 18.476L39.872 14.06H41.126L39.26 20H37.898L36.59 15.734L35.234 20H33.872ZM47.8842 20.18C47.2602 20.18 46.7042 20.044 46.2162 19.772C45.7282 19.496 45.3442 19.122 45.0642 18.65C44.7882 18.174 44.6502 17.634 44.6502 17.03C44.6502 16.574 44.7322 16.156 44.8962 15.776C45.0602 15.392 45.2922 15.058 45.5922 14.774C45.8922 14.49 46.2442 14.27 46.6482 14.114C47.0562 13.958 47.4982 13.88 47.9742 13.88C48.3742 13.88 48.7442 13.934 49.0842 14.042C49.4282 14.146 49.7442 14.308 50.0322 14.528L49.3962 15.536C49.2122 15.372 49.0002 15.25 48.7602 15.17C48.5242 15.09 48.2722 15.05 48.0042 15.05C47.5882 15.05 47.2302 15.128 46.9302 15.284C46.6302 15.44 46.3962 15.666 46.2282 15.962C46.0642 16.254 45.9822 16.608 45.9822 17.024C45.9822 17.644 46.1622 18.13 46.5222 18.482C46.8862 18.834 47.3802 19.01 48.0042 19.01C48.3002 19.01 48.5802 18.956 48.8442 18.848C49.1082 18.736 49.3282 18.59 49.5042 18.41L50.1342 19.412C49.8182 19.652 49.4662 19.84 49.0782 19.976C48.6902 20.112 48.2922 20.18 47.8842 20.18ZM51.8577 22.688C51.6417 22.688 51.4297 22.664 51.2217 22.616C51.0137 22.568 50.8097 22.486 50.6097 22.37L50.9097 21.242C51.0337 21.322 51.1697 21.382 51.3177 21.422C51.4657 21.462 51.5977 21.482 51.7137 21.482C51.9937 21.482 52.2137 21.416 52.3737 21.284C52.5337 21.152 52.6597 20.948 52.7517 20.672L52.9497 20.096L50.6097 14.06H52.0557L53.6997 18.668L55.3017 14.06H56.6997L54.1317 20.858C53.9477 21.334 53.7417 21.704 53.5137 21.968C53.2857 22.236 53.0337 22.422 52.7577 22.526C52.4817 22.634 52.1817 22.688 51.8577 22.688ZM61.1904 20.18C60.7944 20.18 60.4364 20.122 60.1164 20.006C59.8004 19.89 59.5264 19.73 59.2944 19.526C59.0624 19.318 58.8744 19.08 58.7304 18.812L58.9224 18.518V20H57.7344V11.36H59.0484V15.428L58.7784 15.134C59.0424 14.75 59.3724 14.446 59.7684 14.222C60.1644 13.994 60.6324 13.88 61.1724 13.88C61.7644 13.88 62.2844 14.022 62.7324 14.306C63.1844 14.586 63.5364 14.964 63.7884 15.44C64.0404 15.916 64.1664 16.446 64.1664 17.03C64.1664 17.482 64.0924 17.9 63.9444 18.284C63.8004 18.668 63.5964 19.002 63.3324 19.286C63.0684 19.566 62.7544 19.786 62.3904 19.946C62.0264 20.102 61.6264 20.18 61.1904 20.18ZM60.9504 19.01C61.3144 19.01 61.6384 18.93 61.9224 18.77C62.2104 18.606 62.4364 18.376 62.6004 18.08C62.7644 17.784 62.8464 17.434 62.8464 17.03C62.8464 16.626 62.7644 16.276 62.6004 15.98C62.4404 15.68 62.2164 15.45 61.9284 15.29C61.6444 15.13 61.3184 15.05 60.9504 15.05C60.5824 15.05 60.2544 15.13 59.9664 15.29C59.6824 15.45 59.4584 15.68 59.2944 15.98C59.1304 16.276 59.0484 16.626 59.0484 17.03C59.0484 17.434 59.1304 17.784 59.2944 18.08C59.4584 18.376 59.6824 18.606 59.9664 18.77C60.2544 18.93 60.5824 19.01 60.9504 19.01ZM68.2628 20.18C67.6228 20.18 67.0608 20.05 66.5768 19.79C66.0928 19.526 65.7148 19.158 65.4428 18.686C65.1748 18.214 65.0408 17.666 65.0408 17.042C65.0408 16.586 65.1188 16.166 65.2748 15.782C65.4308 15.394 65.6508 15.058 65.9348 14.774C66.2188 14.49 66.5508 14.27 66.9308 14.114C67.3148 13.958 67.7328 13.88 68.1848 13.88C68.6768 13.88 69.1148 13.968 69.4988 14.144C69.8828 14.316 70.2008 14.558 70.4528 14.87C70.7088 15.182 70.8888 15.548 70.9928 15.968C71.1008 16.384 71.1188 16.836 71.0468 17.324H66.3068C66.2988 17.68 66.3768 17.992 66.5408 18.26C66.7048 18.524 66.9388 18.73 67.2428 18.878C67.5508 19.026 67.9128 19.1 68.3288 19.1C68.6648 19.1 68.9888 19.05 69.3008 18.95C69.6168 18.846 69.9028 18.694 70.1588 18.494L70.6688 19.442C70.4768 19.598 70.2448 19.732 69.9728 19.844C69.7008 19.952 69.4168 20.034 69.1208 20.09C68.8248 20.15 68.5388 20.18 68.2628 20.18ZM66.3848 16.352H69.7508C69.7388 15.904 69.5948 15.552 69.3188 15.296C69.0468 15.04 68.6588 14.912 68.1548 14.912C67.6668 14.912 67.2608 15.04 66.9368 15.296C66.6168 15.552 66.4328 15.904 66.3848 16.352ZM72.418 20V14.06H73.738V14.882C73.962 14.51 74.234 14.25 74.554 14.102C74.874 13.95 75.218 13.874 75.586 13.874C75.706 13.874 75.82 13.88 75.928 13.892C76.036 13.904 76.14 13.922 76.24 13.946L76.066 15.308C75.946 15.272 75.824 15.244 75.7 15.224C75.576 15.204 75.452 15.194 75.328 15.194C74.868 15.194 74.488 15.336 74.188 15.62C73.888 15.9 73.738 16.282 73.738 16.766V20H72.418ZM79.3439 20.174C78.8519 20.174 78.3919 20.104 77.9639 19.964C77.5359 19.824 77.1759 19.636 76.8839 19.4L77.3819 18.434C77.6579 18.65 77.9679 18.82 78.3119 18.944C78.6599 19.068 79.0019 19.13 79.3379 19.13C79.7259 19.13 80.0279 19.062 80.2439 18.926C80.4599 18.79 80.5679 18.6 80.5679 18.356C80.5679 18.124 80.4739 17.954 80.2859 17.846C80.1019 17.734 79.7499 17.618 79.2299 17.498C78.4819 17.342 77.9379 17.122 77.5979 16.838C77.2619 16.55 77.0939 16.152 77.0939 15.644C77.0939 15.288 77.1919 14.974 77.3879 14.702C77.5879 14.426 77.8619 14.21 78.2099 14.054C78.5579 13.898 78.9599 13.82 79.4159 13.82C79.8599 13.82 80.2779 13.884 80.6699 14.012C81.0619 14.136 81.4019 14.312 81.6899 14.54L81.2219 15.512C81.0739 15.38 80.9019 15.266 80.7059 15.17C80.5099 15.074 80.3019 15 80.0819 14.948C79.8659 14.892 79.6499 14.864 79.4339 14.864C79.0979 14.864 78.8239 14.93 78.6119 15.062C78.4039 15.19 78.2999 15.368 78.2999 15.596C78.2999 15.832 78.3999 16.006 78.5999 16.118C78.7999 16.23 79.1439 16.342 79.6319 16.454C80.3999 16.622 80.9499 16.846 81.2819 17.126C81.6139 17.406 81.7799 17.794 81.7799 18.29C81.7799 18.67 81.6779 19.002 81.4739 19.286C81.2699 19.566 80.9839 19.784 80.6159 19.94C80.2519 20.096 79.8279 20.174 79.3439 20.174ZM85.9816 20.18C85.3416 20.18 84.7796 20.05 84.2956 19.79C83.8116 19.526 83.4336 19.158 83.1616 18.686C82.8936 18.214 82.7596 17.666 82.7596 17.042C82.7596 16.586 82.8376 16.166 82.9936 15.782C83.1496 15.394 83.3696 15.058 83.6536 14.774C83.9376 14.49 84.2696 14.27 84.6496 14.114C85.0336 13.958 85.4516 13.88 85.9036 13.88C86.3956 13.88 86.8336 13.968 87.2176 14.144C87.6016 14.316 87.9196 14.558 88.1716 14.87C88.4276 15.182 88.6076 15.548 88.7116 15.968C88.8196 16.384 88.8376 16.836 88.7656 17.324H84.0256C84.0176 17.68 84.0956 17.992 84.2596 18.26C84.4236 18.524 84.6576 18.73 84.9616 18.878C85.2696 19.026 85.6316 19.1 86.0476 19.1C86.3836 19.1 86.7076 19.05 87.0196 18.95C87.3356 18.846 87.6216 18.694 87.8776 18.494L88.3876 19.442C88.1956 19.598 87.9636 19.732 87.6916 19.844C87.4196 19.952 87.1356 20.034 86.8396 20.09C86.5436 20.15 86.2576 20.18 85.9816 20.18ZM84.1036 16.352H87.4696C87.4576 15.904 87.3136 15.552 87.0376 15.296C86.7656 15.04 86.3776 14.912 85.8736 14.912C85.3856 14.912 84.9796 15.04 84.6556 15.296C84.3356 15.552 84.1516 15.904 84.1036 16.352ZM92.9193 20.18C92.2953 20.18 91.7393 20.044 91.2513 19.772C90.7633 19.496 90.3793 19.122 90.0993 18.65C89.8233 18.174 89.6853 17.634 89.6853 17.03C89.6853 16.574 89.7673 16.156 89.9313 15.776C90.0953 15.392 90.3273 15.058 90.6273 14.774C90.9273 14.49 91.2793 14.27 91.6833 14.114C92.0913 13.958 92.5333 13.88 93.0093 13.88C93.4093 13.88 93.7793 13.934 94.1193 14.042C94.4633 14.146 94.7793 14.308 95.0673 14.528L94.4313 15.536C94.2473 15.372 94.0353 15.25 93.7953 15.17C93.5593 15.09 93.3073 15.05 93.0393 15.05C92.6233 15.05 92.2653 15.128 91.9653 15.284C91.6653 15.44 91.4313 15.666 91.2633 15.962C91.0993 16.254 91.0173 16.608 91.0173 17.024C91.0173 17.644 91.1973 18.13 91.5573 18.482C91.9213 18.834 92.4153 19.01 93.0393 19.01C93.3353 19.01 93.6153 18.956 93.8793 18.848C94.1433 18.736 94.3633 18.59 94.5393 18.41L95.1693 19.412C94.8533 19.652 94.5013 19.84 94.1133 19.976C93.7253 20.112 93.3273 20.18 92.9193 20.18ZM98.6748 20.18C98.1428 20.18 97.7028 20.074 97.3548 19.862C97.0108 19.646 96.7528 19.362 96.5808 19.01C96.4088 18.658 96.3228 18.274 96.3228 17.858V14.06H97.6428V17.612C97.6428 18.02 97.7628 18.348 98.0028 18.596C98.2468 18.84 98.5828 18.962 99.0108 18.962C99.2908 18.962 99.5408 18.9 99.7608 18.776C99.9808 18.648 100.155 18.47 100.283 18.242C100.415 18.014 100.481 17.75 100.481 17.45V14.06H101.801V20H100.613V19.298C100.381 19.578 100.105 19.796 99.7848 19.952C99.4688 20.104 99.0988 20.18 98.6748 20.18ZM103.637 20V14.06H104.957V14.882C105.181 14.51 105.453 14.25 105.773 14.102C106.093 13.95 106.437 13.874 106.805 13.874C106.925 13.874 107.039 13.88 107.147 13.892C107.255 13.904 107.359 13.922 107.459 13.946L107.285 15.308C107.165 15.272 107.043 15.244 106.919 15.224C106.795 15.204 106.671 15.194 106.547 15.194C106.087 15.194 105.707 15.336 105.407 15.62C105.107 15.9 104.957 16.282 104.957 16.766V20H103.637ZM108.559 20V14.06H109.879V20H108.559ZM109.219 12.998C108.983 12.998 108.779 12.922 108.607 12.77C108.435 12.618 108.349 12.418 108.349 12.17C108.349 11.926 108.435 11.728 108.607 11.576C108.779 11.42 108.983 11.342 109.219 11.342C109.455 11.342 109.659 11.42 109.831 11.576C110.003 11.728 110.089 11.926 110.089 12.17C110.089 12.418 110.003 12.618 109.831 12.77C109.659 12.922 109.455 12.998 109.219 12.998ZM114.207 20.18C113.627 20.18 113.163 20.012 112.815 19.676C112.467 19.34 112.293 18.826 112.293 18.134V12.326H113.613V14.06H115.263V15.152H113.613V17.846C113.613 18.262 113.691 18.556 113.847 18.728C114.007 18.896 114.231 18.98 114.519 18.98C114.659 18.98 114.791 18.964 114.915 18.932C115.039 18.9 115.151 18.858 115.251 18.806L115.485 19.874C115.313 19.962 115.115 20.034 114.891 20.09C114.671 20.15 114.443 20.18 114.207 20.18ZM110.991 15.152V14.06H112.467V15.152H110.991ZM117.377 22.688C117.161 22.688 116.949 22.664 116.741 22.616C116.533 22.568 116.329 22.486 116.129 22.37L116.429 21.242C116.553 21.322 116.689 21.382 116.837 21.422C116.985 21.462 117.117 21.482 117.233 21.482C117.513 21.482 117.733 21.416 117.893 21.284C118.053 21.152 118.179 20.948 118.271 20.672L118.469 20.096L116.129 14.06H117.575L119.219 18.668L120.821 14.06H122.219L119.651 20.858C119.467 21.334 119.261 21.704 119.033 21.968C118.805 22.236 118.553 22.422 118.277 22.526C118.001 22.634 117.701 22.688 117.377 22.688ZM126.195 22.52V14.06H127.383V14.894C127.619 14.594 127.921 14.35 128.289 14.162C128.657 13.974 129.111 13.88 129.651 13.88C130.231 13.88 130.745 14.018 131.193 14.294C131.645 14.566 131.997 14.94 132.249 15.416C132.501 15.888 132.627 16.426 132.627 17.03C132.627 17.466 132.555 17.876 132.411 18.26C132.267 18.64 132.061 18.974 131.793 19.262C131.529 19.55 131.213 19.776 130.845 19.94C130.481 20.1 130.077 20.18 129.633 20.18C129.169 20.18 128.761 20.096 128.409 19.928C128.057 19.76 127.757 19.534 127.509 19.25V22.52H126.195ZM129.411 19.01C129.779 19.01 130.105 18.93 130.389 18.77C130.677 18.606 130.901 18.376 131.061 18.08C131.225 17.784 131.307 17.434 131.307 17.03C131.307 16.626 131.225 16.276 131.061 15.98C130.897 15.68 130.671 15.45 130.383 15.29C130.099 15.13 129.775 15.05 129.411 15.05C129.043 15.05 128.715 15.13 128.427 15.29C128.143 15.45 127.919 15.68 127.755 15.98C127.591 16.276 127.509 16.626 127.509 17.03C127.509 17.434 127.591 17.784 127.755 18.08C127.919 18.376 128.143 18.606 128.427 18.77C128.715 18.93 129.043 19.01 129.411 19.01ZM133.953 20V11.36H135.273V20H133.953ZM138.756 20.18C138.344 20.18 137.982 20.104 137.67 19.952C137.358 19.796 137.114 19.578 136.938 19.298C136.766 19.014 136.68 18.68 136.68 18.296C136.68 17.972 136.762 17.68 136.926 17.42C137.09 17.156 137.344 16.938 137.688 16.766C138.036 16.594 138.482 16.48 139.026 16.424C139.57 16.364 140.224 16.372 140.988 16.448L141.012 17.36C140.468 17.284 140 17.252 139.608 17.264C139.216 17.276 138.894 17.326 138.642 17.414C138.394 17.498 138.21 17.612 138.09 17.756C137.974 17.896 137.916 18.058 137.916 18.242C137.916 18.53 138.018 18.752 138.222 18.908C138.43 19.064 138.714 19.142 139.074 19.142C139.382 19.142 139.658 19.086 139.902 18.974C140.146 18.862 140.338 18.704 140.478 18.5C140.622 18.296 140.694 18.056 140.694 17.78V16.202C140.694 15.938 140.638 15.71 140.526 15.518C140.414 15.322 140.244 15.17 140.016 15.062C139.788 14.954 139.504 14.9 139.164 14.9C138.852 14.9 138.544 14.948 138.24 15.044C137.936 15.136 137.646 15.282 137.37 15.482L136.998 14.51C137.37 14.258 137.758 14.08 138.162 13.976C138.566 13.872 138.954 13.82 139.326 13.82C139.878 13.82 140.35 13.908 140.742 14.084C141.138 14.256 141.442 14.518 141.654 14.87C141.866 15.218 141.972 15.658 141.972 16.19V20H140.784V19.298C140.584 19.582 140.306 19.8 139.95 19.952C139.594 20.104 139.196 20.18 138.756 20.18ZM146.105 20.18C145.525 20.18 145.061 20.012 144.713 19.676C144.365 19.34 144.191 18.826 144.191 18.134V12.326H145.511V14.06H147.161V15.152H145.511V17.846C145.511 18.262 145.589 18.556 145.745 18.728C145.905 18.896 146.129 18.98 146.417 18.98C146.557 18.98 146.689 18.964 146.813 18.932C146.937 18.9 147.049 18.858 147.149 18.806L147.383 19.874C147.211 19.962 147.013 20.034 146.789 20.09C146.569 20.15 146.341 20.18 146.105 20.18ZM142.889 15.152V14.06H144.365V15.152H142.889ZM149.348 20V13.088C149.348 12.496 149.518 12.03 149.858 11.69C150.202 11.35 150.676 11.18 151.28 11.18C151.5 11.18 151.7 11.204 151.88 11.252C152.064 11.296 152.234 11.36 152.39 11.444L152.144 12.488C152.028 12.424 151.916 12.38 151.808 12.356C151.7 12.332 151.594 12.32 151.49 12.32C151.246 12.32 151.046 12.382 150.89 12.506C150.738 12.63 150.662 12.842 150.662 13.142V14.06H152.222V15.152H150.662V20H149.348ZM148.154 15.152V14.06H149.522V15.152H148.154ZM156.065 20.18C155.445 20.18 154.891 20.038 154.403 19.754C153.919 19.466 153.539 19.084 153.263 18.608C152.987 18.128 152.849 17.602 152.849 17.03C152.849 16.606 152.927 16.206 153.083 15.83C153.243 15.45 153.467 15.114 153.755 14.822C154.047 14.53 154.389 14.3 154.781 14.132C155.173 13.964 155.603 13.88 156.071 13.88C156.691 13.88 157.243 14.024 157.727 14.312C158.215 14.596 158.597 14.978 158.873 15.458C159.149 15.934 159.287 16.458 159.287 17.03C159.287 17.45 159.207 17.85 159.047 18.23C158.891 18.61 158.669 18.946 158.381 19.238C158.093 19.53 157.753 19.76 157.361 19.928C156.969 20.096 156.537 20.18 156.065 20.18ZM156.065 19.01C156.433 19.01 156.759 18.93 157.043 18.77C157.331 18.606 157.557 18.376 157.721 18.08C157.885 17.784 157.967 17.434 157.967 17.03C157.967 16.626 157.885 16.276 157.721 15.98C157.557 15.68 157.331 15.45 157.043 15.29C156.759 15.13 156.433 15.05 156.065 15.05C155.697 15.05 155.369 15.13 155.081 15.29C154.797 15.45 154.573 15.68 154.409 15.98C154.249 16.276 154.169 16.626 154.169 17.03C154.169 17.434 154.251 17.784 154.415 18.08C154.579 18.376 154.803 18.606 155.087 18.77C155.375 18.93 155.701 19.01 156.065 19.01ZM160.613 20V14.06H161.933V14.882C162.157 14.51 162.429 14.25 162.749 14.102C163.069 13.95 163.413 13.874 163.781 13.874C163.901 13.874 164.015 13.88 164.123 13.892C164.231 13.904 164.335 13.922 164.435 13.946L164.261 15.308C164.141 15.272 164.019 15.244 163.895 15.224C163.771 15.204 163.647 15.194 163.523 15.194C163.063 15.194 162.683 15.336 162.383 15.62C162.083 15.9 161.933 16.282 161.933 16.766V20H160.613ZM165.535 20V14.06H166.855V14.876C167.015 14.644 167.199 14.456 167.407 14.312C167.615 14.164 167.835 14.056 168.067 13.988C168.299 13.916 168.535 13.88 168.775 13.88C169.259 13.88 169.661 13.986 169.981 14.198C170.305 14.41 170.533 14.682 170.665 15.014C170.961 14.582 171.305 14.286 171.697 14.126C172.089 13.962 172.483 13.88 172.879 13.88C173.427 13.88 173.865 13.988 174.193 14.204C174.521 14.42 174.757 14.698 174.901 15.038C175.049 15.378 175.123 15.728 175.123 16.088V20H173.803V16.472C173.803 16.06 173.689 15.728 173.461 15.476C173.237 15.22 172.909 15.092 172.477 15.092C172.193 15.092 171.939 15.154 171.715 15.278C171.491 15.402 171.313 15.574 171.181 15.794C171.053 16.01 170.989 16.26 170.989 16.544V20H169.669V16.472C169.669 16.06 169.557 15.728 169.333 15.476C169.109 15.22 168.779 15.092 168.343 15.092C168.063 15.092 167.809 15.154 167.581 15.278C167.357 15.402 167.179 15.574 167.047 15.794C166.919 16.01 166.855 16.26 166.855 16.544V20H165.535Z" fill="url(#paint2_linear_2_882)"/>
<defs>
<linearGradient id="paint0_linear_2_882" x1="96" y1="0" x2="96" y2="32" gradientUnits="userSpaceOnUse">
<stop stop-color="#E5FF5D"/>
<stop offset="1" stop-color="#A1FFB0"/>
</linearGradient>
<linearGradient id="paint1_linear_2_882" x1="192" y1="27.0769" x2="17.4417" y2="-43.2761" gradientUnits="userSpaceOnUse">
<stop stop-color="#E5FF5D"/>
<stop offset="1" stop-color="#5DFFFF"/>
</linearGradient>
<linearGradient id="paint2_linear_2_882" x1="176" y1="24.3077" x2="35.1515" y2="-38.7665" gradientUnits="userSpaceOnUse">
<stop stop-color="#E5FF5D"/>
<stop offset="1" stop-color="#5DFFFF"/>
</linearGradient>
</defs>
</svg>
