<svg width="192" height="32" fill="none" xmlns="http://www.w3.org/2000/svg"><rect x=".5" y=".5" width="191" height="31" rx="15.5" fill="url(#a)" fill-opacity=".1"/><rect x=".5" y=".5" width="191" height="31" rx="15.5" stroke="url(#b)"/><path d="M17.092 20v-8.4h1.284l4.242 6.102V11.6h1.308V20h-1.284l-4.236-6.174V20h-1.314Zm11.561.18c-.64 0-1.202-.13-1.686-.39a2.868 2.868 0 0 1-1.134-1.104c-.268-.472-.402-1.02-.402-1.644 0-.456.078-.876.234-1.26a2.98 2.98 0 0 1 1.656-1.668 3.3 3.3 0 0 1 1.254-.234c.492 0 .93.088 1.314.264.384.172.702.414.954.726.256.312.436.678.54 1.098.108.416.126.868.054 1.356h-4.74c-.008.356.07.668.234.936.164.264.398.47.702.618.308.148.67.222 1.086.222.336 0 .66-.05.972-.15.316-.104.602-.256.858-.456l.51.948c-.192.156-.424.29-.696.402a4.64 4.64 0 0 1-.852.246c-.296.06-.582.09-.858.09Zm-1.878-3.828h3.366c-.012-.448-.156-.8-.432-1.056-.272-.256-.66-.384-1.164-.384-.488 0-.894.128-1.218.384-.32.256-.504.608-.552 1.056ZM33.872 20l-1.866-5.94h1.314l1.272 4.416 1.392-4.416h1.29l1.302 4.416 1.296-4.416h1.254L39.26 20h-1.362l-1.308-4.266L35.234 20h-1.362Zm14.012.18c-.624 0-1.18-.136-1.668-.408a3.072 3.072 0 0 1-1.152-1.122 3.17 3.17 0 0 1-.414-1.62c0-.456.082-.874.246-1.254.164-.384.396-.718.696-1.002.3-.284.652-.504 1.056-.66.408-.156.85-.234 1.326-.234.4 0 .77.054 1.11.162.344.104.66.266.948.486l-.636 1.008a1.8 1.8 0 0 0-.636-.366 2.34 2.34 0 0 0-.756-.12c-.416 0-.774.078-1.074.234-.3.156-.534.382-.702.678-.164.292-.246.646-.246 1.062 0 .62.18 1.106.54 1.458.364.352.858.528 1.482.528.296 0 .576-.054.84-.162.264-.112.484-.258.66-.438l.63 1.002c-.316.24-.668.428-1.056.564a3.585 3.585 0 0 1-1.194.204Zm3.974 2.508a2.82 2.82 0 0 1-.636-.072 2.206 2.206 0 0 1-.612-.246l.3-1.128c.124.08.26.14.408.18.148.04.28.06.396.06.28 0 .5-.066.66-.198.16-.132.286-.336.378-.612l.198-.576-2.34-6.036h1.446l1.644 4.608 1.602-4.608H56.7l-2.568 6.798c-.184.476-.39.846-.618 1.11a1.86 1.86 0 0 1-.756.558 2.448 2.448 0 0 1-.9.162Zm9.332-2.508c-.396 0-.754-.058-1.074-.174a2.573 2.573 0 0 1-.822-.48 2.617 2.617 0 0 1-.564-.714l.192-.294V20h-1.188v-8.64h1.314v4.068l-.27-.294c.264-.384.594-.688.99-.912.396-.228.864-.342 1.404-.342.592 0 1.112.142 1.56.426.452.28.804.658 1.056 1.134.252.476.378 1.006.378 1.59 0 .452-.074.87-.222 1.254a3.002 3.002 0 0 1-.612 1.002c-.264.28-.578.5-.942.66a3.015 3.015 0 0 1-1.2.234Zm-.24-1.17c.364 0 .688-.08.972-.24.288-.164.514-.394.678-.69.164-.296.246-.646.246-1.05s-.082-.754-.246-1.05c-.16-.3-.384-.53-.672-.69-.284-.16-.61-.24-.978-.24s-.696.08-.984.24c-.284.16-.508.39-.672.69-.164.296-.246.646-.246 1.05s.082.754.246 1.05c.164.296.388.526.672.69.288.16.616.24.984.24Zm7.313 1.17c-.64 0-1.202-.13-1.686-.39a2.868 2.868 0 0 1-1.134-1.104c-.268-.472-.402-1.02-.402-1.644 0-.456.078-.876.234-1.26a2.98 2.98 0 0 1 1.656-1.668 3.3 3.3 0 0 1 1.254-.234c.492 0 .93.088 1.314.264.384.172.702.414.954.726.256.312.436.678.54 1.098.108.416.126.868.054 1.356h-4.74c-.008.356.07.668.234.936.164.264.398.47.702.618.308.148.67.222 1.086.222.336 0 .66-.05.972-.15.316-.104.602-.256.858-.456l.51.948c-.192.156-.424.29-.696.402a4.64 4.64 0 0 1-.852.246c-.296.06-.582.09-.858.09Zm-1.878-3.828h3.366c-.012-.448-.156-.8-.432-1.056-.272-.256-.66-.384-1.164-.384-.488 0-.894.128-1.218.384-.32.256-.504.608-.552 1.056ZM72.418 20v-5.94h1.32v.822c.224-.372.496-.632.816-.78.32-.152.664-.228 1.032-.228.12 0 .234.006.342.018.108.012.212.03.312.054l-.174 1.362a2.854 2.854 0 0 0-.366-.084 2.333 2.333 0 0 0-.372-.03c-.46 0-.84.142-1.14.426-.3.28-.45.662-.45 1.146V20h-1.32Zm6.926.174c-.492 0-.952-.07-1.38-.21a3.363 3.363 0 0 1-1.08-.564l.498-.966c.276.216.586.386.93.51.348.124.69.186 1.026.186.388 0 .69-.068.906-.204a.64.64 0 0 0 .324-.57c0-.232-.094-.402-.282-.51-.184-.112-.536-.228-1.056-.348-.748-.156-1.292-.376-1.632-.66-.336-.288-.504-.686-.504-1.194 0-.356.098-.67.294-.942.2-.276.474-.492.822-.648.348-.156.75-.234 1.206-.234.444 0 .862.064 1.254.192.392.124.732.3 1.02.528l-.468.972a2.27 2.27 0 0 0-.516-.342 2.963 2.963 0 0 0-.624-.222 2.573 2.573 0 0 0-.648-.084c-.336 0-.61.066-.822.198-.208.128-.312.306-.312.534 0 .236.1.41.3.522.2.112.544.224 1.032.336.768.168 1.318.392 1.65.672.332.28.498.668.498 1.164 0 .38-.102.712-.306.996-.204.28-.49.498-.858.654-.364.156-.788.234-1.272.234Zm6.638.006c-.64 0-1.202-.13-1.686-.39a2.868 2.868 0 0 1-1.134-1.104c-.268-.472-.402-1.02-.402-1.644 0-.456.078-.876.234-1.26a2.98 2.98 0 0 1 1.656-1.668 3.3 3.3 0 0 1 1.254-.234c.492 0 .93.088 1.314.264.384.172.702.414.954.726.256.312.436.678.54 1.098.108.416.126.868.054 1.356h-4.74c-.008.356.07.668.234.936.164.264.398.47.702.618.308.148.67.222 1.086.222.336 0 .66-.05.972-.15.316-.104.602-.256.858-.456l.51.948c-.192.156-.424.29-.696.402a4.64 4.64 0 0 1-.852.246c-.296.06-.582.09-.858.09Zm-1.878-3.828h3.366c-.012-.448-.156-.8-.432-1.056-.272-.256-.66-.384-1.164-.384-.488 0-.894.128-1.218.384-.32.256-.504.608-.552 1.056Zm8.815 3.828c-.624 0-1.18-.136-1.668-.408A3.072 3.072 0 0 1 90.1 18.65a3.17 3.17 0 0 1-.414-1.62c0-.456.082-.874.246-1.254.164-.384.396-.718.696-1.002.3-.284.652-.504 1.056-.66.408-.156.85-.234 1.326-.234.4 0 .77.054 1.11.162.344.104.66.266.948.486l-.636 1.008a1.8 1.8 0 0 0-.636-.366 2.34 2.34 0 0 0-.756-.12c-.416 0-.774.078-1.074.234-.3.156-.534.382-.702.678-.164.292-.246.646-.246 1.062 0 .62.18 1.106.54 1.458.364.352.858.528 1.482.528.296 0 .576-.054.84-.162.264-.112.484-.258.66-.438l.63 1.002c-.316.24-.668.428-1.056.564a3.585 3.585 0 0 1-1.194.204Zm5.756 0c-.532 0-.972-.106-1.32-.318a2.06 2.06 0 0 1-.774-.852 2.588 2.588 0 0 1-.258-1.152V14.06h1.32v3.552c0 .408.12.736.36.984.244.244.58.366 1.008.366.28 0 .53-.062.75-.186.22-.128.394-.306.522-.534.132-.228.198-.492.198-.792v-3.39h1.32V20h-1.188v-.702c-.232.28-.508.498-.828.654-.316.152-.686.228-1.11.228Zm4.962-.18v-5.94h1.32v.822c.224-.372.496-.632.816-.78.32-.152.664-.228 1.032-.228.12 0 .234.006.342.018.108.012.212.03.312.054l-.174 1.362a2.854 2.854 0 0 0-.366-.084 2.333 2.333 0 0 0-.372-.03c-.46 0-.84.142-1.14.426-.3.28-.45.662-.45 1.146V20h-1.32Zm4.922 0v-5.94h1.32V20h-1.32Zm.66-7.002a.894.894 0 0 1-.612-.228.762.762 0 0 1-.258-.6c0-.244.086-.442.258-.594a.88.88 0 0 1 .612-.234.88.88 0 0 1 .612.234c.172.152.258.35.258.594a.762.762 0 0 1-.258.6.894.894 0 0 1-.612.228Zm4.988 7.182c-.58 0-1.044-.168-1.392-.504-.348-.336-.522-.85-.522-1.542v-5.808h1.32v1.734h1.65v1.092h-1.65v2.694c0 .416.078.71.234.882.16.168.384.252.672.252a1.58 1.58 0 0 0 .732-.174l.234 1.068c-.172.088-.37.16-.594.216-.22.06-.448.09-.684.09Zm-3.216-5.028V14.06h1.476v1.092h-1.476Zm6.386 7.536a2.82 2.82 0 0 1-.636-.072 2.206 2.206 0 0 1-.612-.246l.3-1.128c.124.08.26.14.408.18.148.04.28.06.396.06.28 0 .5-.066.66-.198.16-.132.286-.336.378-.612l.198-.576-2.34-6.036h1.446l1.644 4.608 1.602-4.608h1.398l-2.568 6.798c-.184.476-.39.846-.618 1.11a1.86 1.86 0 0 1-.756.558 2.448 2.448 0 0 1-.9.162Zm8.818-.168v-8.46h1.188v.834c.236-.3.538-.544.906-.732.368-.188.822-.282 1.362-.282.58 0 1.094.138 1.542.414.452.272.804.646 1.056 1.122.252.472.378 1.01.378 1.614 0 .436-.072.846-.216 1.23-.144.38-.35.714-.618 1.002-.264.288-.58.514-.948.678a2.98 2.98 0 0 1-1.212.24c-.464 0-.872-.084-1.224-.252a2.755 2.755 0 0 1-.9-.678v3.27h-1.314Zm3.216-3.51c.368 0 .694-.08.978-.24.288-.164.512-.394.672-.69.164-.296.246-.646.246-1.05s-.082-.754-.246-1.05c-.164-.3-.39-.53-.678-.69a1.946 1.946 0 0 0-.972-.24c-.368 0-.696.08-.984.24-.284.16-.508.39-.672.69-.164.296-.246.646-.246 1.05s.082.754.246 1.05c.164.296.388.526.672.69.288.16.616.24.984.24Zm4.542.99v-8.64h1.32V20h-1.32Zm4.803.18c-.412 0-.774-.076-1.086-.228a1.788 1.788 0 0 1-.732-.654 1.897 1.897 0 0 1-.258-1.002c0-.324.082-.616.246-.876.164-.264.418-.482.762-.654.348-.172.794-.286 1.338-.342.544-.06 1.198-.052 1.962.024l.024.912a8.48 8.48 0 0 0-1.404-.096c-.392.012-.714.062-.966.15-.248.084-.432.198-.552.342a.74.74 0 0 0-.174.486c0 .288.102.51.306.666.208.156.492.234.852.234.308 0 .584-.056.828-.168.244-.112.436-.27.576-.474.144-.204.216-.444.216-.72v-1.578c0-.264-.056-.492-.168-.684a1.117 1.117 0 0 0-.51-.456c-.228-.108-.512-.162-.852-.162-.312 0-.62.048-.924.144a2.92 2.92 0 0 0-.87.438l-.372-.972c.372-.252.76-.43 1.164-.534a4.667 4.667 0 0 1 1.164-.156c.552 0 1.024.088 1.416.264.396.172.7.434.912.786.212.348.318.788.318 1.32V20h-1.188v-.702c-.2.284-.478.502-.834.654a3.012 3.012 0 0 1-1.194.228Zm7.349 0c-.58 0-1.044-.168-1.392-.504-.348-.336-.522-.85-.522-1.542v-5.808h1.32v1.734h1.65v1.092h-1.65v2.694c0 .416.078.71.234.882.16.168.384.252.672.252a1.58 1.58 0 0 0 .732-.174l.234 1.068c-.172.088-.37.16-.594.216-.22.06-.448.09-.684.09Zm-3.216-5.028V14.06h1.476v1.092h-1.476ZM149.348 20v-6.912c0-.592.17-1.058.51-1.398.344-.34.818-.51 1.422-.51.22 0 .42.024.6.072.184.044.354.108.51.192l-.246 1.044a1.27 1.27 0 0 0-.654-.168c-.244 0-.444.062-.6.186-.152.124-.228.336-.228.636v.918h1.56v1.092h-1.56V20h-1.314Zm-1.194-4.848V14.06h1.368v1.092h-1.368Zm7.911 5.028c-.62 0-1.174-.142-1.662-.426a3.162 3.162 0 0 1-1.14-1.146 3.11 3.11 0 0 1-.414-1.578 3.1 3.1 0 0 1 .906-2.208 3.24 3.24 0 0 1 1.026-.69 3.24 3.24 0 0 1 1.29-.252c.62 0 1.172.144 1.656.432.488.284.87.666 1.146 1.146.276.476.414 1 .414 1.572 0 .42-.08.82-.24 1.2-.156.38-.378.716-.666 1.008a3.17 3.17 0 0 1-1.02.69 3.256 3.256 0 0 1-1.296.252Zm0-1.17c.368 0 .694-.08.978-.24.288-.164.514-.394.678-.69.164-.296.246-.646.246-1.05s-.082-.754-.246-1.05c-.164-.3-.39-.53-.678-.69-.284-.16-.61-.24-.978-.24s-.696.08-.984.24c-.284.16-.508.39-.672.69-.16.296-.24.646-.24 1.05s.082.754.246 1.05c.164.296.388.526.672.69.288.16.614.24.978.24Zm4.548.99v-5.94h1.32v.822c.224-.372.496-.632.816-.78.32-.152.664-.228 1.032-.228.12 0 .234.006.342.018.108.012.212.03.312.054l-.174 1.362a2.854 2.854 0 0 0-.366-.084 2.333 2.333 0 0 0-.372-.03c-.46 0-.84.142-1.14.426-.3.28-.45.662-.45 1.146V20h-1.32Zm4.922 0v-5.94h1.32v.816c.16-.232.344-.42.552-.564.208-.148.428-.256.66-.324.232-.072.468-.108.708-.108.484 0 .886.106 1.206.318.324.212.552.484.684.816.296-.432.64-.728 1.032-.888a3.04 3.04 0 0 1 1.182-.246c.548 0 .986.108 1.314.324.328.216.564.494.708.834.148.34.222.69.222 1.05V20h-1.32v-3.528c0-.412-.114-.744-.342-.996-.224-.256-.552-.384-.984-.384-.284 0-.538.062-.762.186a1.407 1.407 0 0 0-.534.516 1.443 1.443 0 0 0-.192.75V20h-1.32v-3.528c0-.412-.112-.744-.336-.996-.224-.256-.554-.384-.99-.384-.28 0-.534.062-.762.186a1.407 1.407 0 0 0-.534.516 1.443 1.443 0 0 0-.192.75V20h-1.32Z" fill="url(#c)"/><defs><linearGradient id="a" x1="96" y1="0" x2="96" y2="32" gradientUnits="userSpaceOnUse"><stop stop-color="#E5FF5D"/><stop offset="1" stop-color="#A1FFB0"/></linearGradient><linearGradient id="b" x1="192" y1="27.077" x2="17.442" y2="-43.276" gradientUnits="userSpaceOnUse"><stop stop-color="#E5FF5D"/><stop offset="1" stop-color="#5DFFFF"/></linearGradient><linearGradient id="c" x1="176" y1="24.308" x2="35.151" y2="-38.767" gradientUnits="userSpaceOnUse"><stop stop-color="#E5FF5D"/><stop offset="1" stop-color="#5DFFFF"/></linearGradient></defs></svg>