<svg width="144" height="32" viewBox="0 0 144 32" fill="none" xmlns="http://www.w3.org/2000/svg">
<path d="M15.495 0C6.93731 0 0 7.16345 0 16C0 24.8366 6.93731 32 15.495 32H26V29.4237H15.7576C8.57788 29.4237 2.75758 23.4137 2.75758 16C2.75758 8.58628 8.57788 2.57627 15.7576 2.57627H26V0H15.495Z" fill="white"/>
<path d="M33.7463 9.09048e-07L30 0L36.2727 8H40L33.7463 9.09048e-07Z" fill="white"/>
<path d="M54.07 0L58 7.22935e-06L44.999 17.1584V32H42V16.2034L54.07 0Z" fill="white"/>
<path d="M75.6563 0H62V2.75862H75.1988C79.2408 2.75862 82.125 5.80306 82.125 10.069C82.125 14.3349 79.2408 17.3793 75.1988 17.3793H73.0427V20H75.6563C80.8891 20 85 15.5228 85 9.99999C85 4.47717 80.8891 0 75.6563 0Z" fill="white"/>
<path d="M62 17H65V32H62V17Z" fill="white"/>
<path d="M89 0H112V3H89V0Z" fill="white"/>
<path d="M89 15H112V17H89V15Z" fill="white"/>
<path d="M89 29H112V32H89V29Z" fill="white"/>
<path d="M144 0L120.209 32L117 32L140.71 6.28818e-06L144 0Z" fill="white"/>
<path d="M120.006 5.89651e-06L117 0L123.014 8H126L120.006 5.89651e-06Z" fill="white"/>
<path d="M140.402 32L144 31.9999L131.822 16L130 18.3354L140.402 32Z" fill="white"/>
</svg>
