<svg width="99" height="32" fill="none" xmlns="http://www.w3.org/2000/svg"><path d="m19.062 13.223.158-.482s-1.34-.483-2.925-.06c2.117.621 3.92 2.236 3.92 2.236-.493-1.26-1.153-1.694-1.153-1.694Z" fill="#fff"/><path d="M21.996 12.18v-.72s-1.162-1.939-3.377-2.795c-.65-3.712-5.7-3.742-5.7-3.742h4.302V0H7.385C3.308.01 0 3.308 0 7.385v17.23A7.387 7.387 0 0 0 7.385 32h9.846v-4.923h-1.576c-1.792 0-3.249-1.23-3.249-2.757 0-1.526 1.457-2.757 3.25-2.757 1.791 0 3.249 1.23 3.249 2.757 0 .433-.128.847-.335 1.22 5.986-.63 5.583-5.71 5.583-5.71s1.585-.975.965-2.56c0-.01 1.88-2.353-3.122-5.09Zm-1.22 11.215s1.378-1.694-1.428-2.01c.354-.324.443-.767.443-.767s2.176.57 3.082-.236c-.07 1.998-2.098 3.012-2.098 3.012Zm3.416-7.247c-1.388-.69-2.314.354-2.314.354 3.939-.138 1.546 4.45-2.156 2.718 1.31.098 1.999-.896 1.999-.896s-4.343.689-2.934-2.482c-1.97.66-2.255 3.033-2.255 3.033s-5.376.404-3.328-4.214c-2.688 2.688-.414 6.134-.414 6.134s-1.88-.67-2.363-3.013c0 0-1.733 6.528 1.447 11.363-7.808-8.37-1.83-15.43-1.83-15.43-5.76 4.254-2.935 12.742-2.935 12.742-4.943-6.076-2.097-10.565-2.097-10.565s-2.56 1.733-2.088 6.705c0 0-4.598-11.589 6.509-12.052-2.413-1.93-6.942-.738-6.942-.738s5.228-3.949 10.92-1.142c-.345-2.019-2.994-2.344-2.994-2.344s6.252-1.427 7.158 3.25c0 0 2.009.748 3.17 2.313v1.093s3.979 1.733 3.447 3.17ZM51.712.01H40.635l1.23.61V32h4.924V19.082l-1.23-.61h6.153a7.387 7.387 0 0 0 7.385-7.385V7.394A7.387 7.387 0 0 0 51.712.01Zm2.462 11.077a2.462 2.462 0 0 1-2.462 2.461H46.79V5.553l-1.23-.61h6.153a2.462 2.462 0 0 1 2.462 2.461v3.683ZM61.558.63V32H78.78v-4.923H66.471v-7.995l-1.23-.61h11.076v-4.924h-9.846V5.553l-1.23-.62h13.538V.01H60.327l1.231.62ZM98.462.01h-5.258l-3.358 8.97L86.49.01h-6.48l1.517.758 5.701 15.242L81.241 32h5.248l3.357-8.97L93.204 32h5.258l-5.987-15.99 5.987-16Z" fill="#fff"/><path d="M31.39 10.91 27.422 0l-6.47.01 1.507.758 6.45 17.703h.462l-3.623 13.52h5.09L39.404.01h-5.09l-2.924 10.9Z" fill="#fff"/></svg>