<svg width="144" height="32" fill="none" xmlns="http://www.w3.org/2000/svg"><path d="M15.495 0C6.937 0 0 7.163 0 16s6.937 16 15.495 16H26v-2.576H15.758c-7.18 0-13-6.01-13-13.424s5.82-13.424 13-13.424H26V0H15.495Zm18.251 0H30l6.273 8H40l-6.254-8ZM54.07 0H58L44.999 17.158V32H42V16.203L54.07 0Zm21.586 0H62v2.759h13.199c4.042 0 6.926 3.044 6.926 7.31s-2.884 7.31-6.926 7.31h-2.156V20h2.613C80.89 20 85 15.523 85 10S80.89 0 75.656 0ZM62 17h3v15h-3V17ZM89 0h23v3H89V0Zm0 15h23v2H89v-2Zm0 14h23v3H89v-3Zm55-29-23.791 32H117l23.71-32H144Zm-23.994 0H117l6.014 8H126l-5.994-8Z" fill="#fff"/><path d="M140.402 32H144l-12.178-16L130 18.335 140.402 32Z" fill="#fff"/></svg>