<svg width="1920" height="592" fill="none" xmlns="http://www.w3.org/2000/svg"><g clip-path="url(#a)"><g opacity=".5" filter="url(#b)"><circle cx="955" cy="902" r="762" fill="url(#c)"/></g><g opacity=".5" filter="url(#d)"><circle cx="768.5" cy="1088.5" r="575.5" fill="url(#e)"/></g><path d="M521.494 414.444a2.667 2.667 0 1 0 5.333 0 2.667 2.667 0 0 0-5.333 0Zm-60.774 9.373-.354-.354.354.354Zm-37.374 37.374-.354-.353.354.353ZM-43 471.064h443.718v-1H-43v1Zm466.699-9.519 37.375-37.375-.708-.707-37.374 37.375.707.707Zm59.648-46.601h40.813v-1h-40.813v1Zm-22.273 9.226a31.5 31.5 0 0 1 22.273-9.226v-1a32.5 32.5 0 0 0-22.981 9.519l.708.707Zm-60.356 46.894a32.5 32.5 0 0 0 22.981-9.519l-.707-.707a31.5 31.5 0 0 1-22.274 9.226v1ZM458.833 340a2.667 2.667 0 1 0 5.334 0 2.667 2.667 0 0 0-5.334 0Zm-155.4 9.373-.354-.354.354.354Zm-45.773 45.773.353.353-.353-.353ZM-43 405.018h278.032v-1H-43v1Zm301.013-9.519 45.773-45.773-.707-.707-45.773 45.773.707.707ZM326.06 340.5H461.5v-1H326.06v1Zm-22.274 9.226a31.503 31.503 0 0 1 22.274-9.226v-1a32.5 32.5 0 0 0-22.981 9.519l.707.707Zm-68.754 55.292a32.5 32.5 0 0 0 22.981-9.519l-.707-.707a31.498 31.498 0 0 1-22.274 9.226v1Zm154.896-39.058a2.666 2.666 0 1 0 5.332.002 2.666 2.666 0 0 0-5.332-.002Zm-432.164 76.089H303.75v-1H-42.236v1Zm368.967-9.519 66.217-66.216-.707-.708-66.217 66.217.707.707Zm-22.981 9.519a32.5 32.5 0 0 0 22.981-9.519l-.707-.707a31.5 31.5 0 0 1-22.274 9.226v1Zm1060.3-51.554c0 1.473-1.2 2.667-2.67 2.667a2.663 2.663 0 0 1-2.66-2.667 2.663 2.663 0 0 1 2.66-2.667c1.47 0 2.67 1.194 2.67 2.667Zm631.27 133.026.36.354-.36-.354Zm401.79-71.062h-316.97v-1h316.97v1Zm-339.24 9.226-62.19 62.19-.71-.708 62.19-62.189.71.707Zm-85.17 71.709h-164v-1h164v1Zm-186.98-9.519-48.82-48.828.7-.707 48.83 48.827-.71.708Zm-71.1-58.054h-265.16v-1h265.16v1Zm-288.14-9.519-65.45-65.453.71-.707 65.45 65.453-.71.707Zm22.98 9.519c-8.62 0-16.88-3.424-22.98-9.519l.71-.707a31.505 31.505 0 0 0 22.27 9.226v1Zm287.44 9.226a31.51 31.51 0 0 0-22.28-9.226v-1c8.62 0 16.89 3.424 22.98 9.519l-.7.707Zm71.8 58.347a32.51 32.51 0 0 1-22.98-9.519l.71-.708a31.501 31.501 0 0 0 22.27 9.227v1Zm186.98-9.519a32.527 32.527 0 0 1-22.98 9.519v-1c8.35 0 16.36-3.319 22.27-9.227l.71.708Zm84.46-71.416a31.47 31.47 0 0 0-22.27 9.226l-.71-.707a32.488 32.488 0 0 1 22.98-9.519v1Zm30.27 30.805-.36-.353.15-.147h.21v.5Zm-98.88 98.877.35.354-.14.146h-.21v-.5Zm-232.5 0v.5h-.2l-.15-.146.35-.354Zm-84.37-84.37v-.5h.21l.15.147-.36.353Zm-230.57 0a2.665 2.665 0 1 1-5.33 0 2.664 2.664 0 1 1 5.33 0Zm933.02-14.007h-286.7v-1h286.7v1Zm-286.35-.146-98.88 98.877-.71-.707 98.88-98.877.71.707Zm-99.23 99.023h-232.5v-1h232.5v1Zm-232.85-.146-84.37-84.37.71-.707 84.37 84.37-.71.707Zm-84.02-84.224h-233.23v-1h233.23v1Zm-330.99 98.759c0 1.473-1.2 2.667-2.67 2.667a2.671 2.671 0 0 1-2.67-2.667 2.67 2.67 0 0 1 5.34 0Zm46.37-49.037.35.353-.35-.353Zm281.02 0-.36.353.36-.353Zm70.58 70.588.36-.354-.36.354Zm350.46-83.568.36.353-.36-.353Zm283.1-8.873h-260.47v-1h260.47v1Zm-282.74 9.226-83.57 83.568-.71-.707 83.57-83.568.71.707Zm-106.55 93.087h-221.64v-1h221.64v1Zm-244.62-9.519-70.59-70.588.71-.707 70.59 70.588-.71.707Zm-92.86-79.814h-235.76v-1h235.76v1Zm-258.04 9.226-49.04 49.038-.7-.707 49.03-49.038.71.707Zm22.28-9.226a31.51 31.51 0 0 0-22.28 9.226l-.71-.707a32.529 32.529 0 0 1 22.99-9.519v1Zm258.03 9.226a31.487 31.487 0 0 0-22.27-9.226v-1c8.62 0 16.89 3.424 22.98 9.519l-.71.707Zm93.57 80.107c-8.62 0-16.88-3.424-22.98-9.519l.71-.707a31.505 31.505 0 0 0 22.27 9.226v1Zm244.62-9.519a32.488 32.488 0 0 1-22.98 9.519v-1c8.35 0 16.37-3.319 22.27-9.226l.71.707Zm105.84-92.794c-8.35 0-16.36 3.319-22.27 9.226l-.71-.707a32.505 32.505 0 0 1 22.98-9.519v1ZM1432 346.592a2.665 2.665 0 1 1-5.33 0 2.665 2.665 0 1 1 5.33 0Zm409.05 98.667.35-.353-.35.353Zm-32.41-32.411.35-.354-.35.354Zm-331.79-18.745.35-.354-.35.354Zm-47.16-47.864 47.51 47.51-.71.707-47.51-47.51.71-.707Zm69.78 56.736h286.54v1h-286.54v-1Zm309.52 9.519 32.41 32.412-.7.707-32.41-32.412.7-.707Zm54.69 41.638h69.59v1h-69.59v-1Zm-22.28-9.226a31.51 31.51 0 0 0 22.28 9.226v1c-8.62 0-16.89-3.424-22.98-9.519l.7-.707Zm-55.39-41.931c8.62 0 16.89 3.424 22.98 9.519l-.7.707a31.51 31.51 0 0 0-22.28-9.226v-1Zm-308.81-9.226a31.5 31.5 0 0 0 22.27 9.226v1c-8.62 0-16.88-3.424-22.98-9.519l.71-.707Zm524.4 64.701a2.671 2.671 0 0 1-5.34 0c0-1.473 1.2-2.667 2.67-2.667s2.67 1.194 2.67 2.667Zm-570.74-74.063c0 1.473-1.2 2.667-2.67 2.667a2.671 2.671 0 0 1-2.67-2.667 2.67 2.67 0 0 1 5.34 0Zm36.44 39.112.36-.354-.36.354Zm294.76 18.745.36-.354-.36.354Zm37.38 37.374-.36.354.36-.354Zm178.32 0-.35-.353.35.353Zm21.52-20.815-21.17 21.169-.7-.707 21.17-21.169.7.707Zm-44.15 30.688h-133.06v-1h133.06v1Zm-156.05-9.519-37.37-37.374.71-.708 37.37 37.375-.71.707Zm-59.64-46.601h-249.51v-1h249.51v1Zm-272.49-9.519-39.11-39.111.7-.707 39.12 39.111-.71.707Zm22.98 9.519c-8.62 0-16.89-3.424-22.98-9.519l.71-.707a31.483 31.483 0 0 0 22.27 9.226v1Zm271.78 9.227a31.501 31.501 0 0 0-22.27-9.227v-1c8.62 0 16.88 3.424 22.98 9.519l-.71.708Zm60.36 46.893c-8.62 0-16.89-3.424-22.99-9.519l.71-.707a31.51 31.51 0 0 0 22.28 9.226v1Zm156.04-9.519a32.488 32.488 0 0 1-22.98 9.519v-1a31.51 31.51 0 0 0 22.28-9.226l.7.707Z" fill="#fff" fill-opacity=".07"/></g><defs><linearGradient id="c" x1="357.158" y1="1173.81" x2="1728.1" y2="879.096" gradientUnits="userSpaceOnUse"><stop stop-color="#5DA8FF" stop-opacity=".3"/><stop offset="1" stop-color="#899938"/></linearGradient><linearGradient id="e" x1="316.98" y1="1293.79" x2="1352.38" y2="1071.2" gradientUnits="userSpaceOnUse"><stop stop-color="#5DA8FF" stop-opacity=".3"/><stop offset="1" stop-color="#899938"/></linearGradient><filter id="b" x="-119" y="-172" width="2148" height="2148" filterUnits="userSpaceOnUse" color-interpolation-filters="sRGB"><feFlood flood-opacity="0" result="BackgroundImageFix"/><feBlend in="SourceGraphic" in2="BackgroundImageFix" result="shape"/><feGaussianBlur stdDeviation="156" result="effect1_foregroundBlur_74_1406"/></filter><filter id="d" x="-119" y="201" width="1775" height="1775" filterUnits="userSpaceOnUse" color-interpolation-filters="sRGB"><feFlood flood-opacity="0" result="BackgroundImageFix"/><feBlend in="SourceGraphic" in2="BackgroundImageFix" result="shape"/><feGaussianBlur stdDeviation="156" result="effect1_foregroundBlur_74_1406"/></filter><clipPath id="a"><path fill="#fff" d="M0 0h1920v592H0z"/></clipPath></defs></svg>