<svg width="128" height="128" fill="none" xmlns="http://www.w3.org/2000/svg"><g filter="url(#a)"><circle cx="64" cy="60" r="32" fill="#B9A1FF"/></g><path d="M71.167 61a6.67 6.67 0 0 0-6.667-6.667A6.67 6.67 0 0 0 57.833 61a6.67 6.67 0 0 0 6.667 6.667A6.67 6.67 0 0 0 71.167 61ZM64.5 65c-2.2 0-4-1.8-4-4s1.8-4 4-4 4 1.8 4 4-1.8 4-4 4Zm-9.333 0H52.5v5.333C52.5 71.8 53.7 73 55.167 73H60.5v-2.667h-5.333V65Zm0-13.333H60.5V49h-5.333a2.675 2.675 0 0 0-2.667 2.667V57h2.667v-5.333ZM73.833 49H68.5v2.667h5.333V57H76.5v-5.333C76.5 50.2 75.3 49 73.833 49Zm0 21.333H68.5V73h5.333c1.467 0 2.667-1.2 2.667-2.667V65h-2.667v5.333Z" fill="#0D0D0D"/><defs><filter id="a" x="0" y="0" width="128" height="128" filterUnits="userSpaceOnUse" color-interpolation-filters="sRGB"><feFlood flood-opacity="0" result="BackgroundImageFix"/><feColorMatrix in="SourceAlpha" values="0 0 0 0 0 0 0 0 0 0 0 0 0 0 0 0 0 0 127 0" result="hardAlpha"/><feOffset dy="4"/><feGaussianBlur stdDeviation="16"/><feComposite in2="hardAlpha" operator="out"/><feColorMatrix values="0 0 0 0 0.72549 0 0 0 0 0.631373 0 0 0 0 1 0 0 0 1 0"/><feBlend in2="BackgroundImageFix" result="effect1_dropShadow_153_5217"/><feBlend in="SourceGraphic" in2="effect1_dropShadow_153_5217" result="shape"/></filter></defs></svg>