<svg width="128" height="128" fill="none" xmlns="http://www.w3.org/2000/svg"><g filter="url(#a)"><circle cx="64" cy="60" r="32" fill="#93DCDC"/></g><path d="M78.667 54.667c0 1.466-1.2 2.666-2.667 2.666-.24 0-.466-.026-.68-.093l-4.746 4.733c.066.214.093.454.093.694 0 1.466-1.2 2.666-2.667 2.666a2.674 2.674 0 0 1-2.666-2.666c0-.24.026-.48.093-.694l-3.4-3.4a2.354 2.354 0 0 1-.694.094c-.24 0-.48-.027-.693-.094l-6.066 6.08c.066.214.093.44.093.68C54.667 66.8 53.467 68 52 68a2.675 2.675 0 0 1-2.666-2.667c0-1.466 1.2-2.666 2.666-2.666.24 0 .467.026.68.093l6.08-6.067a2.354 2.354 0 0 1-.093-.693c0-1.467 1.2-2.667 2.666-2.667C62.8 53.333 64 54.533 64 56c0 .24-.026.48-.093.693l3.4 3.4c.213-.066.453-.093.693-.093.24 0 .48.027.694.093l4.733-4.746a2.269 2.269 0 0 1-.094-.68A2.676 2.676 0 0 1 76 52c1.467 0 2.667 1.2 2.667 2.667Z" fill="#0D0D0D"/><defs><filter id="a" x="0" y="0" width="128" height="128" filterUnits="userSpaceOnUse" color-interpolation-filters="sRGB"><feFlood flood-opacity="0" result="BackgroundImageFix"/><feColorMatrix in="SourceAlpha" values="0 0 0 0 0 0 0 0 0 0 0 0 0 0 0 0 0 0 127 0" result="hardAlpha"/><feOffset dy="4"/><feGaussianBlur stdDeviation="16"/><feComposite in2="hardAlpha" operator="out"/><feColorMatrix values="0 0 0 0 0.364706 0 0 0 0 1 0 0 0 0 1 0 0 0 1 0"/><feBlend in2="BackgroundImageFix" result="effect1_dropShadow_153_5195"/><feBlend in="SourceGraphic" in2="effect1_dropShadow_153_5195" result="shape"/></filter></defs></svg>