<svg width="128" height="128" fill="none" xmlns="http://www.w3.org/2000/svg"><g filter="url(#a)"><circle cx="64" cy="60" r="32" fill="#E5FF5D"/></g><path d="M70.227 61.867c1.826 1.24 3.106 2.92 3.106 5.16v4h5.334v-4c0-2.907-4.76-4.627-8.44-5.16ZM68 60.36a5.332 5.332 0 0 0 5.334-5.333A5.332 5.332 0 0 0 68 49.693c-.626 0-1.213.134-1.773.32a7.973 7.973 0 0 1 0 10.027c.56.187 1.147.32 1.773.32Zm-8 0a5.332 5.332 0 0 0 5.334-5.333A5.332 5.332 0 0 0 60 49.693a5.332 5.332 0 0 0-5.333 5.334A5.332 5.332 0 0 0 60 60.36Zm0-8c1.467 0 2.667 1.2 2.667 2.667 0 1.466-1.2 2.666-2.667 2.666a2.674 2.674 0 0 1-2.666-2.666c0-1.467 1.2-2.667 2.666-2.667Zm0 9.333c-3.56 0-10.666 1.787-10.666 5.334v4h21.333v-4c0-3.547-7.107-5.334-10.667-5.334Zm8 6.667H52v-1.32c.267-.96 4.4-2.68 8-2.68 3.6 0 7.734 1.72 8 2.667v1.333Z" fill="#0D0D0D"/><defs><filter id="a" x="0" y="0" width="128" height="128" filterUnits="userSpaceOnUse" color-interpolation-filters="sRGB"><feFlood flood-opacity="0" result="BackgroundImageFix"/><feColorMatrix in="SourceAlpha" values="0 0 0 0 0 0 0 0 0 0 0 0 0 0 0 0 0 0 127 0" result="hardAlpha"/><feOffset dy="4"/><feGaussianBlur stdDeviation="16"/><feComposite in2="hardAlpha" operator="out"/><feColorMatrix values="0 0 0 0 0.898039 0 0 0 0 1 0 0 0 0 0.364706 0 0 0 1 0"/><feBlend in2="BackgroundImageFix" result="effect1_dropShadow_153_5202"/><feBlend in="SourceGraphic" in2="effect1_dropShadow_153_5202" result="shape"/></filter></defs></svg>