<svg width="576" height="560" fill="none" xmlns="http://www.w3.org/2000/svg"><g filter="url(#a)" shape-rendering="crispEdges"><path d="M175 289v-44.927L202.838 230h194.594L425 244.073V289H175Z" fill="#fff" fill-opacity=".02"/><path d="M175 244.073V289h250v-44.927m-250 0h250m-250 0L202.838 230h194.594L425 244.073" stroke="#fff" stroke-opacity=".3"/></g><path fill="#E5FF5D" d="M183 258h4v4h-4z"/><path fill="#fff" fill-opacity=".1" d="M191 258h4v4h-4z"/><path fill="#E5FF5D" d="M199 258h4v4h-4zm-16 8h4v4h-4z"/><path fill="#fff" fill-opacity=".1" d="M191 266h4v4h-4zm8 0h4v4h-4z"/><path fill="#E5FF5D" d="M183 274h4v4h-4zm8 0h4v4h-4z"/><path fill="#fff" fill-opacity=".1" d="M199 274h4v4h-4z"/><path stroke="#fff" stroke-opacity=".3" d="M297.5 257.5h9v19h-9zm13 0h8v19h-8zm13 0h9v19h-9z"/><path fill="#fff" fill-opacity=".02" stroke="#fff" stroke-opacity=".3" d="M353 257h62v20h-62z"/><path d="M301 230v-91m-26 91v-90m51 90v-90" stroke="#E5FF5D" stroke-dasharray="4 4"/><path opacity=".2" d="M301 230v-91m-15 91v-90m30 90v-90" stroke="#E5FF5D" stroke-dasharray="4 4"/><path d="m348.649 98-.001.247c11.263.131 20.352 9.203 20.352 20.376 0 11.172-9.089 20.244-20.351 20.376V139h-87.363C245.112 139 232 126.03 232 110.03c0-16 13.112-28.97 29.286-28.97 2.669 0 5.254.353 7.71 1.014C275.281 67.341 290.02 57 307.201 57c22.891 0 41.448 18.356 41.448 41Z" stroke="#fff" stroke-opacity=".3"/><path d="M446.333 146a2.667 2.667 0 1 1 5.334 0 2.667 2.667 0 0 1-5.334 0Zm-7.925-11.096-.361.346.361-.346ZM369 124.5h46.261v1H369v-1Zm69.77 10.059 10.592 11.096-.724.69-10.591-11.095.723-.691ZM415.261 124.5a32.502 32.502 0 0 1 23.509 10.059l-.723.691a31.5 31.5 0 0 0-22.786-9.75v-1ZM137.667 145a2.667 2.667 0 1 1-5.334 0 2.667 2.667 0 0 1 5.334 0ZM237 125.5h-68.776v-1H237v1Zm-91.081 9.258-10.565 10.595-.708-.706 10.564-10.595.709.706Zm22.305-9.258a31.498 31.498 0 0 0-22.305 9.258l-.709-.706a32.503 32.503 0 0 1 23.014-9.552v1ZM99.667 66a2.667 2.667 0 1 1-5.334 0 2.667 2.667 0 0 1 5.334 0Zm21.921 24.615-.354.353.354-.353ZM97.354 65.647l24.587 24.615-.707.706-24.588-24.615.708-.706ZM144.228 99.5H235v1h-90.772v-1Zm-22.287-9.238a31.502 31.502 0 0 0 22.287 9.238v1a32.5 32.5 0 0 1-22.994-9.532l.707-.706ZM429.333 101a2.667 2.667 0 1 0 5.334 0 2.667 2.667 0 0 0-5.334 0ZM369 113.5h37.433v-1H369v1Zm59.309-8.465 4.028-3.665-.674-.74-4.027 3.666.673.739Zm-21.876 8.465a32.497 32.497 0 0 0 21.876-8.465l-.673-.739a31.503 31.503 0 0 1-21.203 8.204v1Z" fill="#fff" fill-opacity=".3"/><path d="M301 347v-58m0 165v-37" stroke="#fff" stroke-opacity=".6" stroke-dasharray="4 4"/><path d="M256.5 349a1.5 1.5 0 0 1 1.5-1.5h88a1.5 1.5 0 0 1 1.5 1.5v10.5h-91V349Z" stroke="#5C5C5C"/><rect x="260" y="352" width="3" height="3" rx="1.5" fill="#FDAC76"/><rect x="265" y="352" width="3" height="3" rx="1.5" fill="#5C5C5C"/><rect x="270" y="352" width="3" height="3" rx="1.5" fill="#5C5C5C"/><path d="M256.5 359.5h91V411a1.5 1.5 0 0 1-1.5 1.5h-88a1.5 1.5 0 0 1-1.5-1.5v-51.5Z" stroke="#5C5C5C"/><rect x="282.763" y="479.79" width="36.053" height="36.053" rx="18.026" fill="#E5FF5D" stroke="#E5FF5D"/><path d="M311.21 483.342v-19.105c0-5.755-4.666-10.421-10.421-10.421-5.755 0-10.421 4.666-10.421 10.421v19.105" stroke="#E5FF5D"/><rect x="295.5" y="492.526" width="10.579" height="10.579" rx="5.289" fill="#000" stroke="#E5FF5D"/><rect x="275.5" y="388.5" width="53" height="12" rx="6" fill="#fff" fill-opacity=".1" stroke="#5C5C5C"/><path d="m285.424 397-.822-.656 1.094-1.497-1.696-.514.324-1.086 1.632.7-.098-1.947h1.024l-.092 1.928 1.632-.688.324 1.086-1.696.502 1.111 1.516-.839.65-.943-1.626-.955 1.632Zm6.251 0-.822-.656 1.094-1.497-1.696-.514.324-1.086 1.632.7-.098-1.947h1.024l-.093 1.928 1.632-.688.325 1.086-1.696.502 1.111 1.516-.839.65-.944-1.626-.954 1.632Zm6.25 0-.821-.656 1.093-1.497-1.695-.514.324-1.086 1.632.7-.099-1.947h1.025l-.093 1.928 1.632-.688.324 1.086-1.695.502 1.111 1.516-.839.65-.944-1.626-.955 1.632Zm6.251 0-.822-.656 1.094-1.497-1.695-.514.324-1.086 1.632.7-.099-1.947h1.025l-.093 1.928 1.632-.688.324 1.086-1.695.502 1.111 1.516-.839.65-.944-1.626-.955 1.632Zm6.251 0-.822-.656 1.094-1.497-1.696-.514.325-1.086 1.632.7-.099-1.947h1.025l-.093 1.928 1.632-.688.324 1.086-1.696.502 1.112 1.516-.84.65-.943-1.626-.955 1.632Zm6.251 0-.822-.656 1.094-1.497-1.696-.514.324-1.086 1.632.7-.098-1.947h1.024l-.092 1.928 1.632-.688.324 1.086-1.696.502 1.111 1.516-.839.65-.943-1.626-.955 1.632Z" fill="#fff"/><rect x="281.5" y="369.5" width="10" height="10" rx="5" stroke="#5C5C5C"/><rect x="294.5" y="372.5" width="25" height="4" rx="2" stroke="#5C5C5C"/><g filter="url(#b)" shape-rendering="crispEdges"><path d="M380.252 379.12c0 2.536-.934 4.855-2.476 6.63a10.103 10.103 0 0 1-7.65 3.49c-5.592 0-10.126-4.531-10.126-10.12 0-5.589 4.534-10.12 10.126-10.12s10.126 4.531 10.126 10.12Z" fill="#E5FF5D" fill-opacity=".3"/><path d="M377.776 385.75a10.077 10.077 0 0 0 2.476-6.63c0-5.589-4.534-10.12-10.126-10.12S360 373.531 360 379.12c0 5.589 4.534 10.12 10.126 10.12 3.055 0 5.794-1.352 7.65-3.49Zm0 0L384 392" stroke="#E5FF5D"/></g><path opacity=".5" d="M391.66 385.18c-.608 0-1.136-.112-1.584-.336a2.568 2.568 0 0 1-1.032-.906c-.24-.38-.36-.806-.36-1.278 0-.508.136-.934.408-1.278.276-.344.66-.612 1.152-.804a2.154 2.154 0 0 1-.888-.672c-.256-.316-.384-.714-.384-1.194 0-.44.116-.832.348-1.176.232-.348.552-.62.96-.816.408-.2.874-.3 1.398-.3.532 0 1.002.1 1.41.3.412.2.734.474.966.822.236.344.354.734.354 1.17 0 .48-.128.878-.384 1.194-.256.316-.554.54-.894.672.464.192.836.462 1.116.81.28.344.42.768.42 1.272 0 .472-.124.898-.372 1.278s-.598.682-1.05.906c-.448.224-.976.336-1.584.336Zm.03-5.082c.484 0 .882-.12 1.194-.36.312-.244.468-.572.468-.984 0-.408-.154-.75-.462-1.026-.304-.276-.704-.414-1.2-.414s-.898.138-1.206.414a1.322 1.322 0 0 0-.462 1.026c0 .412.156.74.468.984.312.24.712.36 1.2.36Zm-.012 4.116c.332 0 .64-.058.924-.174a1.59 1.59 0 0 0 .69-.534c.176-.236.264-.528.264-.876 0-.516-.182-.91-.546-1.182-.364-.272-.808-.408-1.332-.408-.544 0-.994.138-1.35.414-.356.272-.534.664-.534 1.176 0 .348.086.64.258.876.172.236.4.414.684.534.288.116.602.174.942.174Zm5.301.966-.396-.888c.856-.092 1.578-.312 2.166-.66.592-.348 1.058-.774 1.398-1.278a4.449 4.449 0 0 0 .69-1.608 2.494 2.494 0 0 1-.882.798c-.36.196-.758.294-1.194.294-.524 0-.998-.114-1.422-.342a2.612 2.612 0 0 1-1.008-.948 2.64 2.64 0 0 1-.366-1.392c0-.516.128-.98.384-1.392.26-.412.618-.738 1.074-.978.456-.244.978-.366 1.566-.366.608 0 1.148.132 1.62.396a2.77 2.77 0 0 1 1.116 1.152c.272.5.408 1.11.408 1.83 0 .716-.13 1.378-.39 1.986a5.15 5.15 0 0 1-1.08 1.614 5.91 5.91 0 0 1-1.638 1.158 7.05 7.05 0 0 1-2.046.624Zm2.01-4.296c.36 0 .684-.076.972-.228.292-.152.522-.36.69-.624a1.63 1.63 0 0 0 .252-.894c0-.504-.18-.918-.54-1.242-.356-.328-.814-.492-1.374-.492-.556 0-1.014.164-1.374.492-.36.324-.54.738-.54 1.242 0 .332.084.63.252.894.172.264.402.472.69.624.288.152.612.228.972.228Zm5.355 4.296a.863.863 0 0 1-.6-.222.747.747 0 0 1-.246-.582c0-.24.082-.434.246-.582a.863.863 0 0 1 .6-.222c.232 0 .43.074.594.222a.738.738 0 0 1 .252.582c0 .24-.084.434-.252.582a.855.855 0 0 1-.594.222Zm3.166-.18v-7.236l-2.262.84-.294-.87 3.528-1.314h.084V385h-1.056Zm6.898 0v-1.776h-4.242v-.87l3.126-5.754h1.176l-3.102 5.664h3.042v-1.938h.996v1.938h1.35v.96h-1.35V385h-.996Zm4.315.18a.863.863 0 0 1-.6-.222.747.747 0 0 1-.246-.582c0-.24.082-.434.246-.582a.863.863 0 0 1 .6-.222c.232 0 .43.074.594.222a.738.738 0 0 1 .252.582c0 .24-.084.434-.252.582a.855.855 0 0 1-.594.222Zm3.166-.18v-7.236l-2.262.84-.294-.87 3.528-1.314h.084V385h-1.056Zm3.183 0v-.846l1.83-1.686a24.152 24.152 0 0 0 1.422-1.398c.364-.4.632-.764.804-1.092a2.16 2.16 0 0 0 .258-1.002c0-.488-.17-.872-.51-1.152-.336-.28-.802-.42-1.398-.42-.372 0-.73.062-1.074.186-.34.124-.626.304-.858.54l-.426-.828c.668-.588 1.498-.882 2.49-.882.564 0 1.058.102 1.482.306.428.2.762.486 1.002.858.24.368.36.802.36 1.302 0 .348-.07.698-.21 1.05-.14.352-.39.748-.75 1.188-.356.436-.862.96-1.518 1.572l-1.44 1.326h4.128V385h-5.592Zm7.889.18a.863.863 0 0 1-.6-.222.747.747 0 0 1-.246-.582c0-.24.082-.434.246-.582a.863.863 0 0 1 .6-.222c.232 0 .43.074.594.222a.738.738 0 0 1 .252.582c0 .24-.084.434-.252.582a.855.855 0 0 1-.594.222Zm3.166-.18v-7.236l-2.262.84-.294-.87 3.528-1.314h.084V385h-1.056Zm3.184 0v-.846l1.83-1.686a24.152 24.152 0 0 0 1.422-1.398c.364-.4.632-.764.804-1.092a2.16 2.16 0 0 0 .258-1.002c0-.488-.17-.872-.51-1.152-.336-.28-.802-.42-1.398-.42-.372 0-.73.062-1.074.186-.34.124-.626.304-.858.54l-.426-.828c.668-.588 1.498-.882 2.49-.882.564 0 1.058.102 1.482.306.428.2.762.486 1.002.858.24.368.36.802.36 1.302 0 .348-.07.698-.21 1.05-.14.352-.39.748-.75 1.188-.356.436-.862.96-1.518 1.572l-1.44 1.326h4.128V385h-5.592Zm9.46.18a5.021 5.021 0 0 1-1.488-.222c-.476-.152-.852-.348-1.128-.588l.396-.948c.264.232.592.416.984.552.392.132.782.198 1.17.198.608 0 1.092-.152 1.452-.456.364-.304.546-.714.546-1.23s-.19-.918-.57-1.206c-.376-.292-.878-.438-1.506-.438a4.64 4.64 0 0 0-1.002.114l-.342-.756 2.772-2.634h-3.846v-.966h5.232v.894l-2.67 2.58a3.864 3.864 0 0 1 1.5.24c.464.172.838.444 1.122.816.284.368.426.836.426 1.404 0 .528-.132.992-.396 1.392-.26.396-.62.704-1.08.924-.456.22-.98.33-1.572.33Z" fill="#fff"/><defs><filter id="a" x="128.5" y="183.5" width="343" height="152" filterUnits="userSpaceOnUse" color-interpolation-filters="sRGB"><feFlood flood-opacity="0" result="BackgroundImageFix"/><feColorMatrix in="SourceAlpha" values="0 0 0 0 0 0 0 0 0 0 0 0 0 0 0 0 0 0 127 0" result="hardAlpha"/><feOffset/><feGaussianBlur stdDeviation="23"/><feComposite in2="hardAlpha" operator="out"/><feColorMatrix values="0 0 0 0 0.898039 0 0 0 0 1 0 0 0 0 0.364706 0 0 0 0.5 0"/><feBlend in2="BackgroundImageFix" result="effect1_dropShadow_85_30970"/><feBlend in="SourceGraphic" in2="effect1_dropShadow_85_30970" result="shape"/></filter><filter id="b" x="313.5" y="322.5" width="116.854" height="115.853" filterUnits="userSpaceOnUse" color-interpolation-filters="sRGB"><feFlood flood-opacity="0" result="BackgroundImageFix"/><feColorMatrix in="SourceAlpha" values="0 0 0 0 0 0 0 0 0 0 0 0 0 0 0 0 0 0 127 0" result="hardAlpha"/><feOffset/><feGaussianBlur stdDeviation="23"/><feComposite in2="hardAlpha" operator="out"/><feColorMatrix values="0 0 0 0 1 0 0 0 0 1 0 0 0 0 1 0 0 0 0.2 0"/><feBlend in2="BackgroundImageFix" result="effect1_dropShadow_85_30970"/><feBlend in="SourceGraphic" in2="effect1_dropShadow_85_30970" result="shape"/></filter></defs></svg>