<svg width="576" height="560" fill="none" xmlns="http://www.w3.org/2000/svg"><g clip-path="url(#a)"><path d="M94.5 162a7.5 7.5 0 0 1 7.5-7.5h222a7.5 7.5 0 0 1 7.5 7.5v11.5h-237V162Z" stroke="#5C5C5C"/><rect x="101" y="162" width="4" height="4" rx="2" fill="#FDAC76"/><rect x="109" y="162" width="4" height="4" rx="2" fill="#A1FFB0"/><rect x="117" y="162" width="4" height="4" rx="2" fill="#5C5C5C"/><path d="M94.5 173.5h237V303a7.5 7.5 0 0 1-7.5 7.5H102a7.5 7.5 0 0 1-7.5-7.5V173.5Z" stroke="#5C5C5C"/><path d="M94.5 173.5h52v137H102a7.5 7.5 0 0 1-7.5-7.5V173.5Z" stroke="#5C5C5C"/><rect x="94.5" y="321.5" width="91" height="24" rx="6.5" fill="#fff" fill-opacity=".1" stroke="#5C5C5C"/><g opacity=".5" filter="url(#b)"><circle cx="280.5" cy="272.5" r="117.5" fill="url(#c)"/></g><path d="m106.847 338-1.643-1.18 2.187-2.695-3.391-.926.648-1.955 3.264 1.261-.196-3.505h2.048l-.185 3.47 3.264-1.237.648 1.955-3.391.902 2.222 2.73-1.678 1.168-1.887-2.926-1.91 2.938Zm12.502 0-1.643-1.18 2.187-2.695-3.391-.926.648-1.955 3.264 1.261-.197-3.505h2.049l-.185 3.47 3.264-1.237.648 1.955-3.391.902 2.222 2.73-1.678 1.168-1.887-2.926-1.91 2.938Zm12.502 0-1.644-1.18 2.188-2.695-3.392-.926.649-1.955 3.264 1.261-.197-3.505h2.049l-.185 3.47 3.264-1.237.648 1.955-3.392.902 2.223 2.73-1.679 1.168-1.886-2.926-1.91 2.938Zm12.502 0-1.644-1.18 2.188-2.695-3.392-.926.648-1.955 3.264 1.261-.196-3.505h2.048l-.185 3.47 3.264-1.237.649 1.955-3.392.902 2.222 2.73-1.678 1.168-1.887-2.926-1.909 2.938Zm12.501 0-1.643-1.18 2.187-2.695-3.391-.926.648-1.955 3.264 1.261-.197-3.505h2.049l-.185 3.47 3.264-1.237.648 1.955-3.391.902 2.222 2.73-1.678 1.168-1.887-2.926-1.91 2.938Zm12.502 0-1.644-1.18 2.188-2.695-3.391-.926.648-1.955 3.264 1.261-.197-3.505h2.049l-.185 3.47 3.264-1.237.648 1.955-3.391.902 2.222 2.73-1.678 1.168-1.887-2.926-1.91 2.938Z" fill="#E5FF5D"/><g filter="url(#d)"><circle cx="330" cy="155" r="32" fill="#E5FF5D"/></g><path d="M323.333 149.667c-.733 0-1.333.6-1.333 1.333v8c0 1.467 1.2 2.667 2.667 2.667h10.666c.734 0 1.334-.6 1.334-1.334 0-.733-.6-1.333-1.334-1.333h-10.666v-8c0-.733-.6-1.333-1.334-1.333Z" fill="#0D0D0D"/><path d="M340.667 143H330a2.675 2.675 0 0 0-2.667 2.667v8c0 1.466 1.2 2.666 2.667 2.666h10.667c1.466 0 2.666-1.2 2.666-2.666v-8c0-1.467-1.2-2.667-2.666-2.667Zm0 10.667H330v-5.334h10.667v5.334ZM318 155c-.733 0-1.333.6-1.333 1.333v8c0 1.467 1.2 2.667 2.666 2.667H330c.733 0 1.333-.6 1.333-1.333 0-.734-.6-1.334-1.333-1.334h-10.667v-8c0-.733-.6-1.333-1.333-1.333Z" fill="#0D0D0D"/><rect x="157" y="183" width="63" height="4" rx="2" fill="#5C5C5C"/><rect x="157" y="190" width="31" height="4" rx="2" fill="#5C5C5C"/><rect x="157" y="197" width="20" height="4" rx="2" fill="#5C5C5C"/><rect x="180" y="197" width="55" height="4" rx="2" fill="#5C5C5C"/><rect x="191" y="190" width="59" height="4" rx="2" fill="#5C5C5C"/><g filter="url(#e)" shape-rendering="crispEdges"><rect x="271" y="242" width="182" height="138" rx="12" fill="#1A1A1A"/><rect x="271" y="242" width="182" height="138" rx="12" stroke="#FDAC76" stroke-opacity=".2"/></g><rect x="330" y="349" width="63" height="4" rx="2" fill="#5C5C5C"/><rect x="342" y="359" width="39" height="4" rx="2" fill="#5C5C5C"/><path d="M313.466 334.21a7.003 7.003 0 0 1-1.988-.287c-.644-.196-1.188-.476-1.631-.84l.77-1.197c.233.201.504.373.812.518.313.145.644.257.994.336.35.075.7.112 1.05.112.639 0 1.155-.121 1.547-.364.397-.243.595-.597.595-1.064 0-.35-.135-.646-.406-.889-.266-.243-.761-.467-1.484-.672l-1.008-.294c-.924-.266-1.598-.618-2.023-1.057-.42-.439-.63-.985-.63-1.638 0-.434.086-.826.259-1.176.177-.35.425-.653.742-.91a3.43 3.43 0 0 1 1.134-.588c.434-.135.91-.203 1.428-.203a5.69 5.69 0 0 1 1.834.287c.565.191 1.031.448 1.4.77l-.798 1.162a2.968 2.968 0 0 0-.707-.469 3.894 3.894 0 0 0-.861-.301 4.221 4.221 0 0 0-.938-.105c-.392 0-.74.058-1.043.175a1.553 1.553 0 0 0-.7.49 1.234 1.234 0 0 0-.252.784c0 .224.056.42.168.588.112.168.303.322.574.462.275.135.653.273 1.134.413l1.064.315c.905.266 1.568.614 1.988 1.043.42.425.63.978.63 1.659 0 .583-.145 1.097-.434 1.54-.285.439-.7.782-1.246 1.029-.546.247-1.204.371-1.974.371Zm5.991 2.926c-.252 0-.499-.028-.742-.084a2.576 2.576 0 0 1-.714-.287l.35-1.316a1.7 1.7 0 0 0 .476.21c.173.047.327.07.462.07.327 0 .583-.077.77-.231.187-.154.334-.392.441-.714l.231-.672-2.73-7.042h1.687l1.918 5.376 1.869-5.376h1.631l-2.996 7.931c-.215.555-.455.987-.721 1.295-.266.313-.56.53-.882.651a2.857 2.857 0 0 1-1.05.189Zm9.194-2.933c-.574 0-1.11-.082-1.61-.245a3.93 3.93 0 0 1-1.26-.658l.581-1.127c.322.252.684.45 1.085.595.406.145.805.217 1.197.217.453 0 .805-.079 1.057-.238.252-.159.378-.38.378-.665 0-.271-.109-.469-.329-.595-.214-.131-.625-.266-1.232-.406-.872-.182-1.507-.439-1.904-.77-.392-.336-.588-.8-.588-1.393 0-.415.115-.782.343-1.099.234-.322.553-.574.959-.756.406-.182.875-.273 1.407-.273.518 0 1.006.075 1.463.224.458.145.854.35 1.19.616l-.546 1.134a2.625 2.625 0 0 0-.602-.399 3.456 3.456 0 0 0-.728-.259 3.017 3.017 0 0 0-.756-.098c-.392 0-.711.077-.959.231-.242.149-.364.357-.364.623 0 .275.117.478.35.609.234.131.635.261 1.204.392.896.196 1.538.457 1.925.784.388.327.581.779.581 1.358 0 .443-.119.831-.357 1.162-.238.327-.571.581-1.001.763-.424.182-.919.273-1.484.273Zm7.492.007c-.677 0-1.218-.196-1.624-.588-.406-.392-.609-.992-.609-1.799v-6.776h1.54v2.023h1.925v1.274h-1.925v3.143c0 .485.091.828.273 1.029.187.196.448.294.784.294a1.862 1.862 0 0 0 .854-.203l.273 1.246a3.228 3.228 0 0 1-.693.252c-.257.07-.523.105-.798.105Zm-3.752-5.866v-1.274h1.722v1.274h-1.722Zm9.979 5.866c-.747 0-1.403-.152-1.967-.455a3.339 3.339 0 0 1-1.323-1.288c-.313-.551-.469-1.19-.469-1.918 0-.532.091-1.022.273-1.47a3.46 3.46 0 0 1 1.932-1.946 3.848 3.848 0 0 1 1.463-.273c.574 0 1.085.103 1.533.308.448.201.819.483 1.113.847.298.364.508.791.63 1.281.126.485.147 1.013.063 1.582h-5.53c-.01.415.081.779.273 1.092.191.308.464.548.819.721.359.173.781.259 1.267.259.392 0 .77-.058 1.134-.175a3.287 3.287 0 0 0 1.001-.532l.595 1.106a3.243 3.243 0 0 1-.812.469 5.41 5.41 0 0 1-.994.287c-.346.07-.679.105-1.001.105Zm-2.191-4.466h3.927c-.014-.523-.182-.933-.504-1.232-.318-.299-.77-.448-1.358-.448-.57 0-1.043.149-1.421.448-.374.299-.588.709-.644 1.232Zm7.038 4.256v-6.93h1.54v.952c.187-.271.402-.49.644-.658.243-.173.5-.299.77-.378.271-.084.546-.126.826-.126.565 0 1.034.124 1.407.371.378.247.644.565.798.952.346-.504.747-.849 1.204-1.036a3.555 3.555 0 0 1 1.379-.287c.64 0 1.151.126 1.533.378.383.252.658.576.826.973.173.397.259.805.259 1.225V334h-1.54v-4.116c0-.481-.133-.868-.399-1.162-.261-.299-.644-.448-1.148-.448-.331 0-.627.072-.889.217a1.644 1.644 0 0 0-.623.602 1.688 1.688 0 0 0-.224.875V334h-1.54v-4.116c0-.481-.13-.868-.392-1.162-.261-.299-.646-.448-1.155-.448-.326 0-.623.072-.889.217a1.644 1.644 0 0 0-.623.602 1.688 1.688 0 0 0-.224.875V334h-1.54Zm16.897 0v-9.8h1.568v3.892h4.746V324.2h1.568v9.8h-1.568v-4.466h-4.746V334h-1.568Zm12.153.21c-.48 0-.903-.089-1.267-.266a2.088 2.088 0 0 1-.854-.763c-.2-.331-.301-.721-.301-1.169 0-.378.096-.719.287-1.022.192-.308.488-.562.889-.763.406-.201.927-.334 1.561-.399.635-.07 1.398-.061 2.289.028l.028 1.064a9.85 9.85 0 0 0-1.638-.112c-.457.014-.833.072-1.127.175-.289.098-.504.231-.644.399a.863.863 0 0 0-.203.567c0 .336.119.595.357.777.243.182.574.273.994.273.36 0 .682-.065.966-.196.285-.131.509-.315.672-.553a1.42 1.42 0 0 0 .252-.84v-1.841c0-.308-.065-.574-.196-.798a1.299 1.299 0 0 0-.595-.532c-.266-.126-.597-.189-.994-.189-.364 0-.723.056-1.078.168a3.414 3.414 0 0 0-1.015.511l-.434-1.134a4.34 4.34 0 0 1 1.358-.623 5.464 5.464 0 0 1 1.358-.182c.644 0 1.195.103 1.652.308.462.201.817.506 1.064.917.248.406.371.919.371 1.54V334h-1.386v-.819a2.219 2.219 0 0 1-.973.763 3.516 3.516 0 0 1-1.393.266Zm8.978 0c-.728 0-1.377-.159-1.946-.476a3.587 3.587 0 0 1-1.344-1.309c-.322-.555-.483-1.185-.483-1.89 0-.532.096-1.02.287-1.463a3.46 3.46 0 0 1 .812-1.169c.35-.331.761-.588 1.232-.77a4.297 4.297 0 0 1 1.547-.273c.467 0 .898.063 1.295.189.401.121.77.31 1.106.567l-.742 1.176a2.104 2.104 0 0 0-.742-.427 2.735 2.735 0 0 0-.882-.14c-.485 0-.903.091-1.253.273a1.97 1.97 0 0 0-.819.791c-.191.341-.287.754-.287 1.239 0 .723.21 1.29.63 1.701.425.411 1.001.616 1.729.616.345 0 .672-.063.98-.189.308-.131.565-.301.77-.511l.735 1.169c-.369.28-.779.499-1.232.658a4.175 4.175 0 0 1-1.393.238Zm4.041-.21v-10.08h1.54v5.964l2.73-2.814h1.82l-2.45 2.653 2.807 4.277h-1.841l-2.086-3.276-.98.994V334h-1.54Zm10.834.21c-.747 0-1.403-.152-1.967-.455a3.339 3.339 0 0 1-1.323-1.288c-.313-.551-.469-1.19-.469-1.918 0-.532.091-1.022.273-1.47a3.46 3.46 0 0 1 1.932-1.946 3.848 3.848 0 0 1 1.463-.273c.574 0 1.085.103 1.533.308.448.201.819.483 1.113.847.298.364.508.791.63 1.281.126.485.147 1.013.063 1.582h-5.53c-.01.415.081.779.273 1.092.191.308.464.548.819.721.359.173.781.259 1.267.259.392 0 .77-.058 1.134-.175a3.287 3.287 0 0 0 1.001-.532l.595 1.106a3.243 3.243 0 0 1-.812.469 5.41 5.41 0 0 1-.994.287c-.346.07-.679.105-1.001.105Zm-2.191-4.466h3.927c-.014-.523-.182-.933-.504-1.232-.318-.299-.77-.448-1.358-.448-.57 0-1.043.149-1.421.448-.374.299-.588.709-.644 1.232Zm9.984 4.466c-.677 0-1.276-.159-1.799-.476a3.425 3.425 0 0 1-1.232-1.309c-.294-.555-.441-1.185-.441-1.89 0-.509.084-.985.252-1.428.168-.448.406-.84.714-1.176a3.323 3.323 0 0 1 1.106-.784 3.456 3.456 0 0 1 1.421-.287c.63 0 1.176.126 1.638.378.462.252.847.602 1.155 1.05l-.322.343v-4.711h1.54V334h-1.386v-1.666l.224.35a3.073 3.073 0 0 1-1.085 1.092c-.467.289-1.062.434-1.785.434Zm.28-1.365c.429 0 .81-.093 1.141-.28.336-.191.6-.46.791-.805.191-.345.287-.754.287-1.225 0-.471-.096-.88-.287-1.225a1.991 1.991 0 0 0-.791-.805 2.28 2.28 0 0 0-1.141-.28c-.429 0-.81.093-1.141.28a2.006 2.006 0 0 0-.784.805c-.191.345-.287.754-.287 1.225 0 .471.096.88.287 1.225.191.345.453.614.784.805.336.187.716.28 1.141.28Z" fill="#fff"/><path d="m362 273.988 15.06 26.02h-30.12l15.06-26.02Zm-18.52 24.02c-1.54 2.66.38 6 3.46 6h30.12c3.08 0 5-3.34 3.46-6l-15.06-26.02c-1.54-2.66-5.38-2.66-6.92 0l-15.06 26.02Zm16.52-14v4c0 1.1.9 2 2 2s2-.9 2-2v-4c0-1.1-.9-2-2-2s-2 .9-2 2Zm0 10h4v4h-4v-4Z" fill="#FDAC76"/><path d="m157.696 214-.696-.27 3.3-7.73.7.265-3.304 7.735Z" fill="#fff"/><path d="m184 484 35.937-20.202c13.498-7.588 29.932-8.13 44.508-2.903a660.71 660.71 0 0 0 9.326 3.262c10.675 3.65 22.294 3.011 32.674-1.409 12.057-5.133 27.993-11.843 37.117-15.382C359.615 441.141 391 433 391 433" stroke="url(#f)" stroke-width="3"/><path d="m183 454.579 28.714 21.158c3.835 2.825 8.072 5.386 12.833 5.532 11.89.363 24.715-7.458 35.775-16.905 16.603-14.18 42.313-15.23 60.01-2.443 8.889 6.424 17.737 10.749 23.596 8.483C360.045 464.17 393 474 393 474" stroke="url(#g)" stroke-width="3"/></g><defs><linearGradient id="c" x1="188.313" y1="314.413" x2="399.711" y2="268.968" gradientUnits="userSpaceOnUse"><stop stop-color="#5DA8FF" stop-opacity=".3"/><stop offset="1" stop-color="#899938"/></linearGradient><linearGradient id="f" x1="184" y1="458.5" x2="391" y2="458.5" gradientUnits="userSpaceOnUse"><stop stop-color="#E5FF5D" stop-opacity="0"/><stop offset=".545" stop-color="#E5FF5D"/><stop offset="1" stop-color="#E5FF5D" stop-opacity="0"/></linearGradient><linearGradient id="g" x1="183" y1="453.5" x2="393" y2="453.5" gradientUnits="userSpaceOnUse"><stop stop-color="#5DFFFF" stop-opacity="0"/><stop offset=".46" stop-color="#5DFFFF"/><stop offset="1" stop-color="#5DFFFF" stop-opacity="0"/></linearGradient><filter id="b" x="-93" y="-101" width="747" height="747" filterUnits="userSpaceOnUse" color-interpolation-filters="sRGB"><feFlood flood-opacity="0" result="BackgroundImageFix"/><feBlend in="SourceGraphic" in2="BackgroundImageFix" result="shape"/><feGaussianBlur stdDeviation="128" result="effect1_foregroundBlur_85_31089"/></filter><filter id="d" x="266" y="95" width="128" height="128" filterUnits="userSpaceOnUse" color-interpolation-filters="sRGB"><feFlood flood-opacity="0" result="BackgroundImageFix"/><feColorMatrix in="SourceAlpha" values="0 0 0 0 0 0 0 0 0 0 0 0 0 0 0 0 0 0 127 0" result="hardAlpha"/><feOffset dy="4"/><feGaussianBlur stdDeviation="16"/><feComposite in2="hardAlpha" operator="out"/><feColorMatrix values="0 0 0 0 0.898039 0 0 0 0 1 0 0 0 0 0.364706 0 0 0 1 0"/><feBlend in2="BackgroundImageFix" result="effect1_dropShadow_85_31089"/><feBlend in="SourceGraphic" in2="effect1_dropShadow_85_31089" result="shape"/></filter><filter id="e" x="224.5" y="195.5" width="275" height="231" filterUnits="userSpaceOnUse" color-interpolation-filters="sRGB"><feFlood flood-opacity="0" result="BackgroundImageFix"/><feColorMatrix in="SourceAlpha" values="0 0 0 0 0 0 0 0 0 0 0 0 0 0 0 0 0 0 127 0" result="hardAlpha"/><feOffset/><feGaussianBlur stdDeviation="23"/><feComposite in2="hardAlpha" operator="out"/><feColorMatrix values="0 0 0 0 0.992157 0 0 0 0 0.67451 0 0 0 0 0.462745 0 0 0 0.5 0"/><feBlend in2="BackgroundImageFix" result="effect1_dropShadow_85_31089"/><feBlend in="SourceGraphic" in2="effect1_dropShadow_85_31089" result="shape"/></filter><clipPath id="a"><path fill="#fff" d="M0 0h576v560H0z"/></clipPath></defs></svg>