<svg width="576" height="560" viewBox="0 0 576 560" fill="none" xmlns="http://www.w3.org/2000/svg">
<g filter="url(#filter0_d_85_30970)">
<path d="M175 289V244.073L202.838 230H397.432L425 244.073V289H175Z" fill="white" fill-opacity="0.02" shape-rendering="crispEdges"/>
<path d="M175 244.073V289H425V244.073M175 244.073H425M175 244.073L202.838 230H397.432L425 244.073" stroke="white" stroke-opacity="0.3" shape-rendering="crispEdges"/>
</g>
<rect x="183" y="258" width="4" height="4" fill="#E5FF5D"/>
<rect x="191" y="258" width="4" height="4" fill="white" fill-opacity="0.1"/>
<rect x="199" y="258" width="4" height="4" fill="#E5FF5D"/>
<rect x="183" y="266" width="4" height="4" fill="#E5FF5D"/>
<rect x="191" y="266" width="4" height="4" fill="white" fill-opacity="0.1"/>
<rect x="199" y="266" width="4" height="4" fill="white" fill-opacity="0.1"/>
<rect x="183" y="274" width="4" height="4" fill="#E5FF5D"/>
<rect x="191" y="274" width="4" height="4" fill="#E5FF5D"/>
<rect x="199" y="274" width="4" height="4" fill="white" fill-opacity="0.1"/>
<rect x="297.5" y="257.5" width="9" height="19" stroke="white" stroke-opacity="0.3"/>
<rect x="310.5" y="257.5" width="8" height="19" stroke="white" stroke-opacity="0.3"/>
<rect x="323.5" y="257.5" width="9" height="19" stroke="white" stroke-opacity="0.3"/>
<rect x="353" y="257" width="62" height="20" fill="white" fill-opacity="0.02" stroke="white" stroke-opacity="0.3"/>
<path d="M301 230L301 139" stroke="#E5FF5D" stroke-dasharray="4 4"/>
<path d="M275 230L275 140" stroke="#E5FF5D" stroke-dasharray="4 4"/>
<path d="M326 230L326 140" stroke="#E5FF5D" stroke-dasharray="4 4"/>
<path opacity="0.2" d="M301 230L301 139" stroke="#E5FF5D" stroke-dasharray="4 4"/>
<path opacity="0.2" d="M286 230L286 140" stroke="#E5FF5D" stroke-dasharray="4 4"/>
<path opacity="0.2" d="M316 230L316 140" stroke="#E5FF5D" stroke-dasharray="4 4"/>
<path d="M348.649 98C348.649 98.0824 348.648 98.1647 348.648 98.247C359.911 98.3781 369 107.45 369 118.623C369 129.795 359.911 138.867 348.649 138.999V139H261.286C245.112 139 232 126.03 232 110.03C232 94.0302 245.112 81.0599 261.286 81.0599C263.955 81.0599 266.54 81.4129 268.996 82.0744C275.281 67.3411 290.02 57 307.201 57C330.092 57 348.649 75.3563 348.649 98Z" stroke="white" stroke-opacity="0.3"/>
<path d="M446.333 146C446.333 144.527 447.527 143.333 449 143.333C450.473 143.333 451.667 144.527 451.667 146C451.667 147.473 450.473 148.667 449 148.667C447.527 148.667 446.333 147.473 446.333 146ZM438.408 134.904L438.047 135.25L438.408 134.904ZM369 124.5H415.261V125.5H369V124.5ZM438.77 134.559L449.362 145.655L448.638 146.345L438.047 135.25L438.77 134.559ZM415.261 124.5C424.143 124.5 432.637 128.135 438.77 134.559L438.047 135.25C432.103 129.023 423.87 125.5 415.261 125.5V124.5Z" fill="white" fill-opacity="0.3"/>
<path d="M137.667 145C137.667 146.473 136.473 147.667 135 147.667C133.527 147.667 132.333 146.473 132.333 145C132.333 143.527 133.527 142.333 135 142.333C136.473 142.333 137.667 143.527 137.667 145ZM237 125.5H168.224V124.5H237V125.5ZM145.919 134.758L135.354 145.353L134.646 144.647L145.21 134.052L145.919 134.758ZM168.224 125.5C159.854 125.5 151.829 128.831 145.919 134.758L145.21 134.052C151.308 127.937 159.589 124.5 168.224 124.5V125.5Z" fill="white" fill-opacity="0.3"/>
<path d="M99.6667 66C99.6667 67.4728 98.4728 68.6667 97 68.6667C95.5272 68.6667 94.3333 67.4728 94.3333 66C94.3333 64.5272 95.5272 63.3333 97 63.3333C98.4728 63.3333 99.6667 64.5272 99.6667 66ZM121.588 90.6149L121.234 90.9683L121.588 90.6149ZM97.3537 65.6466L121.941 90.2616L121.234 90.9683L96.6463 66.3534L97.3537 65.6466ZM144.228 99.5H235V100.5H144.228V99.5ZM121.941 90.2616C127.85 96.1765 135.867 99.5 144.228 99.5V100.5C135.602 100.5 127.33 97.071 121.234 90.9683L121.941 90.2616Z" fill="white" fill-opacity="0.3"/>
<path d="M429.333 101C429.333 102.473 430.527 103.667 432 103.667C433.473 103.667 434.667 102.473 434.667 101C434.667 99.5272 433.473 98.3333 432 98.3333C430.527 98.3333 429.333 99.5272 429.333 101ZM369 113.5H406.433V112.5H369V113.5ZM428.309 105.035L432.337 101.37L431.663 100.63L427.636 104.296L428.309 105.035ZM406.433 113.5C414.525 113.5 422.325 110.482 428.309 105.035L427.636 104.296C421.836 109.574 414.276 112.5 406.433 112.5V113.5Z" fill="white" fill-opacity="0.3"/>
<path d="M301 347L301 289" stroke="white" stroke-opacity="0.6" stroke-dasharray="4 4"/>
<path d="M301 454L301 417" stroke="white" stroke-opacity="0.6" stroke-dasharray="4 4"/>
<path d="M256.5 349C256.5 348.172 257.172 347.5 258 347.5H346C346.828 347.5 347.5 348.172 347.5 349V359.5H256.5V349Z" stroke="#5C5C5C"/>
<rect x="260" y="352" width="3" height="3" rx="1.5" fill="#FDAC76"/>
<rect x="265" y="352" width="3" height="3" rx="1.5" fill="#5C5C5C"/>
<rect x="270" y="352" width="3" height="3" rx="1.5" fill="#5C5C5C"/>
<path d="M256.5 359.5H347.5V411C347.5 411.828 346.828 412.5 346 412.5H258C257.172 412.5 256.5 411.828 256.5 411V359.5Z" stroke="#5C5C5C"/>
<rect x="282.763" y="479.79" width="36.0526" height="36.0526" rx="18.0263" fill="#E5FF5D" stroke="#E5FF5D"/>
<path d="M311.21 483.342V464.237C311.21 458.482 306.544 453.816 300.789 453.816V453.816C295.034 453.816 290.368 458.482 290.368 464.237V483.342" stroke="#E5FF5D"/>
<rect x="295.5" y="492.526" width="10.5789" height="10.5789" rx="5.28947" fill="black" stroke="#E5FF5D"/>
<rect x="275.5" y="388.5" width="53" height="12" rx="6" fill="white" fill-opacity="0.1" stroke="#5C5C5C"/>
<path d="M285.424 397L284.602 396.344L285.696 394.847L284 394.333L284.324 393.247L285.956 393.947L285.858 392H286.882L286.79 393.928L288.422 393.24L288.746 394.326L287.05 394.828L288.161 396.344L287.322 396.994L286.379 395.368L285.424 397Z" fill="white"/>
<path d="M291.675 397L290.853 396.344L291.947 394.847L290.251 394.333L290.575 393.247L292.207 393.947L292.109 392H293.133L293.04 393.928L294.672 393.24L294.997 394.326L293.301 394.828L294.412 396.344L293.573 396.994L292.629 395.368L291.675 397Z" fill="white"/>
<path d="M297.925 397L297.104 396.344L298.197 394.847L296.502 394.333L296.826 393.247L298.458 393.947L298.359 392H299.384L299.291 393.928L300.923 393.24L301.247 394.326L299.552 394.828L300.663 396.344L299.824 396.994L298.88 395.368L297.925 397Z" fill="white"/>
<path d="M304.176 397L303.354 396.344L304.448 394.847L302.753 394.333L303.077 393.247L304.709 393.947L304.61 392H305.635L305.542 393.928L307.174 393.24L307.498 394.326L305.803 394.828L306.914 396.344L306.075 396.994L305.131 395.368L304.176 397Z" fill="white"/>
<path d="M310.427 397L309.605 396.344L310.699 394.847L309.003 394.333L309.328 393.247L310.96 393.947L310.861 392H311.886L311.793 393.928L313.425 393.24L313.749 394.326L312.053 394.828L313.165 396.344L312.325 396.994L311.382 395.368L310.427 397Z" fill="white"/>
<path d="M316.678 397L315.856 396.344L316.95 394.847L315.254 394.333L315.578 393.247L317.21 393.947L317.112 392H318.136L318.044 393.928L319.676 393.24L320 394.326L318.304 394.828L319.415 396.344L318.576 396.994L317.633 395.368L316.678 397Z" fill="white"/>
<rect x="281.5" y="369.5" width="10" height="10" rx="5" stroke="#5C5C5C"/>
<rect x="294.5" y="372.5" width="25" height="4" rx="2" stroke="#5C5C5C"/>
<g filter="url(#filter1_d_85_30970)">
<path d="M380.252 379.12C380.252 381.656 379.318 383.975 377.776 385.75C375.92 387.888 373.181 389.24 370.126 389.24C364.534 389.24 360 384.709 360 379.12C360 373.531 364.534 369 370.126 369C375.718 369 380.252 373.531 380.252 379.12Z" fill="#E5FF5D" fill-opacity="0.3" shape-rendering="crispEdges"/>
<path d="M377.776 385.75C379.318 383.975 380.252 381.656 380.252 379.12C380.252 373.531 375.718 369 370.126 369C364.534 369 360 373.531 360 379.12C360 384.709 364.534 389.24 370.126 389.24C373.181 389.24 375.92 387.888 377.776 385.75ZM377.776 385.75L384 392" stroke="#E5FF5D" shape-rendering="crispEdges"/>
</g>
<path opacity="0.5" d="M391.66 385.18C391.052 385.18 390.524 385.068 390.076 384.844C389.632 384.62 389.288 384.318 389.044 383.938C388.804 383.558 388.684 383.132 388.684 382.66C388.684 382.152 388.82 381.726 389.092 381.382C389.368 381.038 389.752 380.77 390.244 380.578C389.908 380.446 389.612 380.222 389.356 379.906C389.1 379.59 388.972 379.192 388.972 378.712C388.972 378.272 389.088 377.88 389.32 377.536C389.552 377.188 389.872 376.916 390.28 376.72C390.688 376.52 391.154 376.42 391.678 376.42C392.21 376.42 392.68 376.52 393.088 376.72C393.5 376.92 393.822 377.194 394.054 377.542C394.29 377.886 394.408 378.276 394.408 378.712C394.408 379.192 394.28 379.59 394.024 379.906C393.768 380.222 393.47 380.446 393.13 380.578C393.594 380.77 393.966 381.04 394.246 381.388C394.526 381.732 394.666 382.156 394.666 382.66C394.666 383.132 394.542 383.558 394.294 383.938C394.046 384.318 393.696 384.62 393.244 384.844C392.796 385.068 392.268 385.18 391.66 385.18ZM391.69 380.098C392.174 380.098 392.572 379.978 392.884 379.738C393.196 379.494 393.352 379.166 393.352 378.754C393.352 378.346 393.198 378.004 392.89 377.728C392.586 377.452 392.186 377.314 391.69 377.314C391.194 377.314 390.792 377.452 390.484 377.728C390.176 378.004 390.022 378.346 390.022 378.754C390.022 379.166 390.178 379.494 390.49 379.738C390.802 379.978 391.202 380.098 391.69 380.098ZM391.678 384.214C392.01 384.214 392.318 384.156 392.602 384.04C392.89 383.92 393.12 383.742 393.292 383.506C393.468 383.27 393.556 382.978 393.556 382.63C393.556 382.114 393.374 381.72 393.01 381.448C392.646 381.176 392.202 381.04 391.678 381.04C391.134 381.04 390.684 381.178 390.328 381.454C389.972 381.726 389.794 382.118 389.794 382.63C389.794 382.978 389.88 383.27 390.052 383.506C390.224 383.742 390.452 383.92 390.736 384.04C391.024 384.156 391.338 384.214 391.678 384.214ZM396.979 385.18L396.583 384.292C397.439 384.2 398.161 383.98 398.749 383.632C399.341 383.284 399.807 382.858 400.147 382.354C400.491 381.846 400.721 381.31 400.837 380.746C400.613 381.078 400.319 381.344 399.955 381.544C399.595 381.74 399.197 381.838 398.761 381.838C398.237 381.838 397.763 381.724 397.339 381.496C396.915 381.268 396.579 380.952 396.331 380.548C396.087 380.144 395.965 379.68 395.965 379.156C395.965 378.64 396.093 378.176 396.349 377.764C396.609 377.352 396.967 377.026 397.423 376.786C397.879 376.542 398.401 376.42 398.989 376.42C399.597 376.42 400.137 376.552 400.609 376.816C401.085 377.08 401.457 377.464 401.725 377.968C401.997 378.468 402.133 379.078 402.133 379.798C402.133 380.514 402.003 381.176 401.743 381.784C401.487 382.388 401.127 382.926 400.663 383.398C400.199 383.866 399.653 384.252 399.025 384.556C398.401 384.86 397.719 385.068 396.979 385.18ZM398.989 380.884C399.349 380.884 399.673 380.808 399.961 380.656C400.253 380.504 400.483 380.296 400.651 380.032C400.819 379.768 400.903 379.47 400.903 379.138C400.903 378.634 400.723 378.22 400.363 377.896C400.007 377.568 399.549 377.404 398.989 377.404C398.433 377.404 397.975 377.568 397.615 377.896C397.255 378.22 397.075 378.634 397.075 379.138C397.075 379.47 397.159 379.768 397.327 380.032C397.499 380.296 397.729 380.504 398.017 380.656C398.305 380.808 398.629 380.884 398.989 380.884ZM404.344 385.18C404.108 385.18 403.908 385.106 403.744 384.958C403.58 384.81 403.498 384.616 403.498 384.376C403.498 384.136 403.58 383.942 403.744 383.794C403.908 383.646 404.108 383.572 404.344 383.572C404.576 383.572 404.774 383.646 404.938 383.794C405.106 383.942 405.19 384.136 405.19 384.376C405.19 384.616 405.106 384.81 404.938 384.958C404.774 385.106 404.576 385.18 404.344 385.18ZM407.51 385V377.764L405.248 378.604L404.954 377.734L408.482 376.42H408.566V385H407.51ZM414.408 385V383.224H410.166V382.354L413.292 376.6H414.468L411.366 382.264H414.408V380.326H415.404V382.264H416.754V383.224H415.404V385H414.408ZM418.723 385.18C418.487 385.18 418.287 385.106 418.123 384.958C417.959 384.81 417.877 384.616 417.877 384.376C417.877 384.136 417.959 383.942 418.123 383.794C418.287 383.646 418.487 383.572 418.723 383.572C418.955 383.572 419.153 383.646 419.317 383.794C419.485 383.942 419.569 384.136 419.569 384.376C419.569 384.616 419.485 384.81 419.317 384.958C419.153 385.106 418.955 385.18 418.723 385.18ZM421.889 385V377.764L419.627 378.604L419.333 377.734L422.861 376.42H422.945V385H421.889ZM425.072 385V384.154L426.902 382.468C427.486 381.932 427.96 381.466 428.324 381.07C428.688 380.67 428.956 380.306 429.128 379.978C429.3 379.646 429.386 379.312 429.386 378.976C429.386 378.488 429.216 378.104 428.876 377.824C428.54 377.544 428.074 377.404 427.478 377.404C427.106 377.404 426.748 377.466 426.404 377.59C426.064 377.714 425.778 377.894 425.546 378.13L425.12 377.302C425.788 376.714 426.618 376.42 427.61 376.42C428.174 376.42 428.668 376.522 429.092 376.726C429.52 376.926 429.854 377.212 430.094 377.584C430.334 377.952 430.454 378.386 430.454 378.886C430.454 379.234 430.384 379.584 430.244 379.936C430.104 380.288 429.854 380.684 429.494 381.124C429.138 381.56 428.632 382.084 427.976 382.696L426.536 384.022H430.664V385H425.072ZM432.961 385.18C432.725 385.18 432.525 385.106 432.361 384.958C432.197 384.81 432.115 384.616 432.115 384.376C432.115 384.136 432.197 383.942 432.361 383.794C432.525 383.646 432.725 383.572 432.961 383.572C433.193 383.572 433.391 383.646 433.555 383.794C433.723 383.942 433.807 384.136 433.807 384.376C433.807 384.616 433.723 384.81 433.555 384.958C433.391 385.106 433.193 385.18 432.961 385.18ZM436.127 385V377.764L433.865 378.604L433.571 377.734L437.099 376.42H437.183V385H436.127ZM439.311 385V384.154L441.141 382.468C441.725 381.932 442.199 381.466 442.563 381.07C442.927 380.67 443.195 380.306 443.367 379.978C443.539 379.646 443.625 379.312 443.625 378.976C443.625 378.488 443.455 378.104 443.115 377.824C442.779 377.544 442.313 377.404 441.717 377.404C441.345 377.404 440.987 377.466 440.643 377.59C440.303 377.714 440.017 377.894 439.785 378.13L439.359 377.302C440.027 376.714 440.857 376.42 441.849 376.42C442.413 376.42 442.907 376.522 443.331 376.726C443.759 376.926 444.093 377.212 444.333 377.584C444.573 377.952 444.693 378.386 444.693 378.886C444.693 379.234 444.623 379.584 444.483 379.936C444.343 380.288 444.093 380.684 443.733 381.124C443.377 381.56 442.871 382.084 442.215 382.696L440.775 384.022H444.903V385H439.311ZM448.771 385.18C448.259 385.18 447.763 385.106 447.283 384.958C446.807 384.806 446.431 384.61 446.155 384.37L446.551 383.422C446.815 383.654 447.143 383.838 447.535 383.974C447.927 384.106 448.317 384.172 448.705 384.172C449.313 384.172 449.797 384.02 450.157 383.716C450.521 383.412 450.703 383.002 450.703 382.486C450.703 381.97 450.513 381.568 450.133 381.28C449.757 380.988 449.255 380.842 448.627 380.842C448.303 380.842 447.969 380.88 447.625 380.956L447.283 380.2L450.055 377.566H446.209V376.6H451.441V377.494L448.771 380.074C449.307 380.058 449.807 380.138 450.271 380.314C450.735 380.486 451.109 380.758 451.393 381.13C451.677 381.498 451.819 381.966 451.819 382.534C451.819 383.062 451.687 383.526 451.423 383.926C451.163 384.322 450.803 384.63 450.343 384.85C449.887 385.07 449.363 385.18 448.771 385.18Z" fill="white"/>
<defs>
<filter id="filter0_d_85_30970" x="128.5" y="183.5" width="343" height="152" filterUnits="userSpaceOnUse" color-interpolation-filters="sRGB">
<feFlood flood-opacity="0" result="BackgroundImageFix"/>
<feColorMatrix in="SourceAlpha" type="matrix" values="0 0 0 0 0 0 0 0 0 0 0 0 0 0 0 0 0 0 127 0" result="hardAlpha"/>
<feOffset/>
<feGaussianBlur stdDeviation="23"/>
<feComposite in2="hardAlpha" operator="out"/>
<feColorMatrix type="matrix" values="0 0 0 0 0.898039 0 0 0 0 1 0 0 0 0 0.364706 0 0 0 0.5 0"/>
<feBlend mode="normal" in2="BackgroundImageFix" result="effect1_dropShadow_85_30970"/>
<feBlend mode="normal" in="SourceGraphic" in2="effect1_dropShadow_85_30970" result="shape"/>
</filter>
<filter id="filter1_d_85_30970" x="313.5" y="322.5" width="116.854" height="115.853" filterUnits="userSpaceOnUse" color-interpolation-filters="sRGB">
<feFlood flood-opacity="0" result="BackgroundImageFix"/>
<feColorMatrix in="SourceAlpha" type="matrix" values="0 0 0 0 0 0 0 0 0 0 0 0 0 0 0 0 0 0 127 0" result="hardAlpha"/>
<feOffset/>
<feGaussianBlur stdDeviation="23"/>
<feComposite in2="hardAlpha" operator="out"/>
<feColorMatrix type="matrix" values="0 0 0 0 1 0 0 0 0 1 0 0 0 0 1 0 0 0 0.2 0"/>
<feBlend mode="normal" in2="BackgroundImageFix" result="effect1_dropShadow_85_30970"/>
<feBlend mode="normal" in="SourceGraphic" in2="effect1_dropShadow_85_30970" result="shape"/>
</filter>
</defs>
</svg>
