<svg width="576" height="560" viewBox="0 0 576 560" fill="none" xmlns="http://www.w3.org/2000/svg">
<path d="M433 152.667C431.527 152.667 430.333 151.473 430.333 150C430.333 148.527 431.527 147.333 433 147.333C434.473 147.333 435.667 148.527 435.667 150C435.667 151.473 434.473 152.667 433 152.667ZM433 150.5L367 150.5L367 149.5L433 149.5L433 150.5ZM335.5 182L335.5 202L334.5 202L334.5 182L335.5 182ZM367 150.5C349.603 150.5 335.5 164.603 335.5 182L334.5 182C334.5 164.051 349.051 149.5 367 149.5L367 150.5Z" fill="#E5FF5D"/>
<path d="M452 140L443 144V150C443 155.55 446.84 160.74 452 162C457.16 160.74 461 155.55 461 150V144L452 140ZM452 150.99H459C458.47 155.11 455.72 158.78 452 159.93V151H445V145.3L452 142.19V150.99Z" fill="#E5FF5D"/>
<path d="M138.667 454C138.667 455.473 137.473 456.667 136 456.667C134.527 456.667 133.333 455.473 133.333 454C133.333 452.527 134.527 451.333 136 451.333C137.473 451.333 138.667 452.527 138.667 454ZM169 321.5H168V320.5H169V321.5ZM136.5 353V454H135.5V353H136.5ZM168 321.5C150.603 321.5 136.5 335.603 136.5 353H135.5C135.5 335.051 150.051 320.5 168 320.5V321.5Z" fill="white" fill-opacity="0.2"/>
<path d="M98.6667 139C98.6667 140.473 97.4728 141.667 96 141.667C94.5272 141.667 93.3333 140.473 93.3333 139C93.3333 137.527 94.5272 136.333 96 136.333C97.4728 136.333 98.6667 137.527 98.6667 139ZM96.5 139V220H95.5V139H96.5ZM128 251.5H169V252.5H128V251.5ZM96.5 220C96.5 237.397 110.603 251.5 128 251.5V252.5C110.051 252.5 95.5 237.949 95.5 220H96.5Z" fill="white" fill-opacity="0.2"/>
<g filter="url(#filter0_d_85_31190)">
<path fill-rule="evenodd" clip-rule="evenodd" d="M293.226 272.355C292.752 271.882 291.984 271.882 291.51 272.355C291.036 272.829 291.036 273.598 291.51 274.071L296.657 279.218C292.94 281.508 289.86 284.851 288 289.22C291.98 300.672 307.109 305.224 318.897 301.337L325.243 307.683C325.717 308.157 326.485 308.157 326.959 307.683C327.433 307.209 327.433 306.441 326.959 305.967L316.038 295.046C315.565 294.572 314.796 294.572 314.322 295.046C313.849 295.52 313.849 296.288 314.322 296.762L314.791 297.231C313.382 298.083 311.73 298.574 309.963 298.574C304.803 298.574 300.619 294.39 300.619 289.23C300.619 287.495 301.093 285.87 301.917 284.478L302.431 284.992C302.905 285.466 303.673 285.466 304.147 284.992C304.621 284.518 304.621 283.75 304.147 283.276L293.226 272.355ZM332.168 289.22C330.342 293.863 327.09 297.256 323.138 299.476L317.871 294.209C318.78 292.767 319.306 291.06 319.306 289.23C319.306 284.07 315.123 279.887 309.963 279.887C308.133 279.887 306.426 280.413 304.984 281.322L300.838 277.176C312.116 272.942 326.638 276.773 332.168 289.22ZM311.055 290.848C312.19 290.41 312.996 289.307 312.996 288.017C312.996 286.342 311.638 284.984 309.962 284.984C308.287 284.984 306.929 286.342 306.929 288.017C306.929 289.307 307.735 290.41 308.87 290.848V292.385C308.87 292.988 309.359 293.477 309.962 293.477C310.566 293.477 311.055 292.988 311.055 292.385V290.848Z" fill="#E5FF5D"/>
</g>
<g opacity="0.5" filter="url(#filter1_f_85_31190)">
<circle cx="309.5" cy="289.5" r="94.5" fill="url(#paint0_linear_85_31190)"/>
</g>
<g filter="url(#filter2_d_85_31190)">
<circle cx="309.5" cy="289.5" r="43" stroke="url(#paint1_linear_85_31190)" shape-rendering="crispEdges"/>
</g>
<g filter="url(#filter3_d_85_31190)">
<path d="M172.252 452.12C172.252 454.656 171.318 456.975 169.776 458.75C167.92 460.888 165.181 462.24 162.126 462.24C156.534 462.24 152 457.709 152 452.12C152 446.531 156.534 442 162.126 442C167.718 442 172.252 446.531 172.252 452.12Z" fill="#E5FF5D" fill-opacity="0.3" shape-rendering="crispEdges"/>
<path d="M169.776 458.75C171.318 456.975 172.252 454.656 172.252 452.12C172.252 446.531 167.718 442 162.126 442C156.534 442 152 446.531 152 452.12C152 457.709 156.534 462.24 162.126 462.24C165.181 462.24 167.92 460.888 169.776 458.75ZM169.776 458.75L176 465" stroke="#E5FF5D" shape-rendering="crispEdges"/>
</g>
<path opacity="0.5" d="M73.05 96.15C72.5433 96.15 72.1033 96.0567 71.73 95.87C71.36 95.6833 71.0733 95.4317 70.87 95.115C70.67 94.7983 70.57 94.4433 70.57 94.05C70.57 93.7667 70.62 93.515 70.72 93.295C70.8233 93.075 70.9717 92.8833 71.165 92.72C71.3617 92.5567 71.5967 92.4217 71.87 92.315C71.59 92.205 71.3433 92.0183 71.13 91.755C70.9167 91.4917 70.81 91.16 70.81 90.76C70.81 90.3933 70.9067 90.0667 71.1 89.78C71.2933 89.49 71.56 89.2633 71.9 89.1C72.24 88.9333 72.6283 88.85 73.065 88.85C73.5083 88.85 73.9017 88.9333 74.245 89.1C74.5883 89.2667 74.8567 89.495 75.05 89.785C75.2433 90.0717 75.34 90.3967 75.34 90.76C75.34 91.0267 75.29 91.2633 75.19 91.47C75.0933 91.6767 74.9633 91.8517 74.8 91.995C74.64 92.135 74.465 92.2417 74.275 92.315C74.6617 92.4717 74.9717 92.695 75.205 92.985C75.4383 93.2717 75.555 93.6267 75.555 94.05C75.555 94.4433 75.4517 94.7983 75.245 95.115C75.0383 95.4317 74.7467 95.6833 74.37 95.87C73.9967 96.0567 73.5567 96.15 73.05 96.15ZM73.065 95.345C73.3417 95.345 73.5983 95.2967 73.835 95.2C74.075 95.1 74.2667 94.9517 74.41 94.755C74.5567 94.5583 74.63 94.315 74.63 94.025C74.63 93.7383 74.56 93.4967 74.42 93.3C74.2833 93.1033 74.0967 92.955 73.86 92.855C73.6233 92.7517 73.3583 92.7 73.065 92.7C72.615 92.7 72.24 92.815 71.94 93.045C71.6433 93.2717 71.495 93.5983 71.495 94.025C71.495 94.315 71.5667 94.5583 71.71 94.755C71.8533 94.9517 72.0433 95.1 72.28 95.2C72.52 95.2967 72.7817 95.345 73.065 95.345ZM73.075 91.915C73.345 91.915 73.585 91.87 73.795 91.78C74.005 91.6867 74.1683 91.5567 74.285 91.39C74.4017 91.2233 74.46 91.025 74.46 90.795C74.46 90.455 74.3317 90.17 74.075 89.94C73.8217 89.71 73.4883 89.595 73.075 89.595C72.7983 89.595 72.555 89.6483 72.345 89.755C72.1383 89.8583 71.9767 90.0017 71.86 90.185C71.7433 90.365 71.685 90.5683 71.685 90.795C71.685 91.1383 71.815 91.4117 72.075 91.615C72.3383 91.815 72.6717 91.915 73.075 91.915ZM77.4828 96.15L77.1528 95.41C77.6861 95.35 78.1578 95.23 78.5678 95.05C78.9778 94.87 79.3278 94.645 79.6178 94.375C79.9111 94.105 80.1461 93.8067 80.3228 93.48C80.4995 93.15 80.6245 92.8083 80.6978 92.455C80.5111 92.7317 80.2661 92.9533 79.9628 93.12C79.6628 93.2833 79.3311 93.365 78.9678 93.365C78.5311 93.365 78.1361 93.27 77.7828 93.08C77.4295 92.89 77.1495 92.6267 76.9428 92.29C76.7395 91.9533 76.6378 91.5667 76.6378 91.13C76.6378 90.7 76.7445 90.3133 76.9578 89.97C77.1745 89.6267 77.4728 89.355 77.8528 89.155C78.2361 88.9517 78.6711 88.85 79.1578 88.85C79.6678 88.85 80.1195 88.96 80.5128 89.18C80.9061 89.4 81.2145 89.72 81.4378 90.14C81.6645 90.5567 81.7778 91.065 81.7778 91.665C81.7778 92.2617 81.6711 92.8133 81.4578 93.32C81.2445 93.8267 80.9428 94.275 80.5528 94.665C80.1661 95.055 79.7111 95.3767 79.1878 95.63C78.6678 95.8833 78.0995 96.0567 77.4828 96.15ZM79.1578 92.57C79.4611 92.57 79.7328 92.5067 79.9728 92.38C80.2128 92.2533 80.4028 92.08 80.5428 91.86C80.6828 91.64 80.7528 91.3917 80.7528 91.115C80.7528 90.835 80.6845 90.5867 80.5478 90.37C80.4145 90.1533 80.2278 89.9833 79.9878 89.86C79.7478 89.7333 79.4711 89.67 79.1578 89.67C78.8511 89.67 78.5761 89.7333 78.3328 89.86C78.0928 89.9833 77.9045 90.1533 77.7678 90.37C77.6311 90.5867 77.5628 90.835 77.5628 91.115C77.5628 91.3917 77.6328 91.64 77.7728 91.86C77.9161 92.08 78.1078 92.2533 78.3478 92.38C78.5911 92.5067 78.8611 92.57 79.1578 92.57ZM83.6197 96.15C83.4264 96.15 83.2597 96.0883 83.1197 95.965C82.983 95.8417 82.9147 95.68 82.9147 95.48C82.9147 95.3467 82.9447 95.23 83.0047 95.13C83.068 95.03 83.153 94.9517 83.2597 94.895C83.3697 94.8383 83.4897 94.81 83.6197 94.81C83.8164 94.81 83.983 94.8717 84.1197 94.995C84.2564 95.1183 84.3247 95.28 84.3247 95.48C84.3247 95.6133 84.293 95.73 84.2297 95.83C84.1664 95.93 84.0814 96.0083 83.9747 96.065C83.868 96.1217 83.7497 96.15 83.6197 96.15ZM86.2582 96V89.97L84.3732 90.67L84.1282 89.945L87.0682 88.85H87.1382V96H86.2582ZM92.0063 96V94.52H88.4713V93.795L91.0763 89H92.0563L89.4713 93.72H92.0063V92.105H92.8363V93.72H93.9613V94.52H92.8363V96H92.0063ZM95.6021 96.15C95.4088 96.15 95.2421 96.0883 95.1021 95.965C94.9654 95.8417 94.8971 95.68 94.8971 95.48C94.8971 95.3467 94.9271 95.23 94.9871 95.13C95.0504 95.03 95.1354 94.9517 95.2421 94.895C95.3521 94.8383 95.4721 94.81 95.6021 94.81C95.7988 94.81 95.9654 94.8717 96.1021 94.995C96.2388 95.1183 96.3071 95.28 96.3071 95.48C96.3071 95.6133 96.2754 95.73 96.2121 95.83C96.1488 95.93 96.0638 96.0083 95.9571 96.065C95.8504 96.1217 95.7321 96.15 95.6021 96.15ZM98.2406 96V89.97L96.3556 90.67L96.1106 89.945L99.0506 88.85H99.1206V96H98.2406ZM100.894 96V95.295L102.419 93.89C102.905 93.4433 103.3 93.055 103.604 92.725C103.907 92.3917 104.13 92.0883 104.274 91.815C104.417 91.5383 104.489 91.26 104.489 90.98C104.489 90.5733 104.347 90.2533 104.064 90.02C103.784 89.7867 103.395 89.67 102.899 89.67C102.592 89.67 102.295 89.7217 102.009 89.825C101.722 89.9283 101.482 90.0783 101.289 90.275L100.934 89.585C101.207 89.345 101.52 89.1633 101.874 89.04C102.23 88.9133 102.609 88.85 103.009 88.85C103.479 88.85 103.892 88.935 104.249 89.105C104.605 89.2717 104.882 89.51 105.079 89.82C105.279 90.1267 105.379 90.4883 105.379 90.905C105.379 91.195 105.32 91.4867 105.204 91.78C105.087 92.0733 104.879 92.4033 104.579 92.77C104.282 93.1333 103.86 93.57 103.314 94.08L102.114 95.185H105.554V96H100.894ZM107.467 96.15C107.274 96.15 107.107 96.0883 106.967 95.965C106.831 95.8417 106.762 95.68 106.762 95.48C106.762 95.3467 106.792 95.23 106.852 95.13C106.916 95.03 107.001 94.9517 107.107 94.895C107.217 94.8383 107.337 94.81 107.467 94.81C107.664 94.81 107.831 94.8717 107.967 94.995C108.104 95.1183 108.172 95.28 108.172 95.48C108.172 95.6133 108.141 95.73 108.077 95.83C108.014 95.93 107.929 96.0083 107.822 96.065C107.716 96.1217 107.597 96.15 107.467 96.15ZM110.106 96V89.97L108.221 90.67L107.976 89.945L110.916 88.85H110.986V96H110.106ZM112.759 96V95.295L114.284 93.89C114.771 93.4433 115.166 93.055 115.469 92.725C115.772 92.3917 115.996 92.0883 116.139 91.815C116.282 91.5383 116.354 91.26 116.354 90.98C116.354 90.5733 116.212 90.2533 115.929 90.02C115.649 89.7867 115.261 89.67 114.764 89.67C114.457 89.67 114.161 89.7217 113.874 89.825C113.587 89.9283 113.347 90.0783 113.154 90.275L112.799 89.585C113.072 89.345 113.386 89.1633 113.739 89.04C114.096 88.9133 114.474 88.85 114.874 88.85C115.344 88.85 115.757 88.935 116.114 89.105C116.471 89.2717 116.747 89.51 116.944 89.82C117.144 90.1267 117.244 90.4883 117.244 90.905C117.244 91.195 117.186 91.4867 117.069 91.78C116.952 92.0733 116.744 92.4033 116.444 92.77C116.147 93.1333 115.726 93.57 115.179 94.08L113.979 95.185H117.419V96H112.759ZM120.643 96.15C120.359 96.15 120.079 96.1217 119.803 96.065C119.529 96.0083 119.276 95.93 119.043 95.83C118.809 95.7267 118.616 95.6083 118.463 95.475L118.793 94.685C119.013 94.8783 119.286 95.0317 119.613 95.145C119.939 95.255 120.264 95.31 120.588 95.31C120.924 95.31 121.218 95.2533 121.468 95.14C121.718 95.0233 121.911 94.86 122.048 94.65C122.184 94.44 122.253 94.1917 122.253 93.905C122.253 93.475 122.094 93.14 121.778 92.9C121.464 92.6567 121.046 92.535 120.523 92.535C120.389 92.535 120.253 92.5433 120.113 92.56C119.976 92.5767 119.834 92.6 119.688 92.63L119.403 92L121.713 89.805H118.508V89H122.868V89.745L120.643 91.895C121.089 91.8817 121.506 91.9483 121.893 92.095C122.279 92.2383 122.591 92.465 122.828 92.775C123.064 93.0817 123.183 93.4717 123.183 93.945C123.183 94.385 123.074 94.7717 122.858 95.105C122.641 95.435 122.341 95.6917 121.958 95.875C121.574 96.0583 121.136 96.15 120.643 96.15Z" fill="white"/>
<path d="M85 113.776L87 115.776C91.97 110.806 100.03 110.806 105 115.776L107 113.776C100.93 107.706 91.08 107.706 85 113.776ZM93 121.776L96 124.776L99 121.776C97.35 120.116 94.66 120.116 93 121.776ZM89 117.776L91 119.776C93.76 117.016 98.24 117.016 101 119.776L103 117.776C99.14 113.916 92.87 113.916 89 117.776Z" fill="#E5FF5D"/>
<g filter="url(#filter4_d_85_31190)">
<path d="M169.5 210C169.5 205.858 172.858 202.5 177 202.5H399C403.142 202.5 406.5 205.858 406.5 210V221.5H169.5V210Z" stroke="#5C5C5C"/>
<rect x="176" y="210" width="4" height="4" rx="2" fill="#FDAC76"/>
<rect x="184" y="210" width="4" height="4" rx="2" fill="#A1FFB0"/>
<rect x="192" y="210" width="4" height="4" rx="2" fill="#5C5C5C"/>
<path d="M169.5 221.5H221.5V358.5H177C172.858 358.5 169.5 355.142 169.5 351V221.5Z" stroke="#5C5C5C"/>
<path d="M169.5 221.5H406.5V351C406.5 355.142 403.142 358.5 399 358.5H177C172.858 358.5 169.5 355.142 169.5 351V221.5Z" stroke="#5C5C5C"/>
<rect x="365.5" y="319.5" width="67" height="18" rx="6.5" fill="#1A1B1A" stroke="#5C5C5C"/>
<path d="M374.136 332L372.903 331.082L374.544 328.986L372 328.266L372.486 326.746L374.934 327.726L374.787 325H376.323L376.184 327.699L378.632 326.737L379.119 328.257L376.575 328.959L378.242 331.082L376.983 331.991L375.568 329.715L374.136 332Z" fill="#898989"/>
<path d="M383.512 332L382.279 331.082L383.92 328.986L381.376 328.266L381.862 326.746L384.311 327.726L384.163 325H385.699L385.561 327.699L388.009 326.737L388.495 328.257L385.951 328.959L387.618 331.082L386.359 331.991L384.944 329.715L383.512 332Z" fill="#898989"/>
<path d="M392.888 332L391.655 331.082L393.296 328.986L390.753 328.266L391.239 326.746L393.687 327.726L393.539 325H395.076L394.937 327.699L397.385 326.737L397.871 328.257L395.328 328.959L396.994 331.082L395.736 331.991L394.321 329.715L392.888 332Z" fill="#898989"/>
<path d="M402.264 332L401.032 331.082L402.672 328.986L400.129 328.266L400.615 326.746L403.063 327.726L402.916 325H404.452L404.313 327.699L406.761 326.737L407.247 328.257L404.704 328.959L406.371 331.082L405.112 331.991L403.697 329.715L402.264 332Z" fill="#898989"/>
<path d="M411.641 332L410.408 331.082L412.049 328.986L409.505 328.266L409.991 326.746L412.439 327.726L412.292 325H413.828L413.689 327.699L416.138 326.737L416.624 328.257L414.08 328.959L415.747 331.082L414.488 331.991L413.073 329.715L411.641 332Z" fill="#898989"/>
<path d="M421.017 332L419.784 331.082L421.425 328.986L418.881 328.266L419.368 326.746L421.816 327.726L421.668 325H423.205L423.066 327.699L425.514 326.737L426 328.257L423.456 328.959L425.123 331.082L423.864 331.991L422.449 329.715L421.017 332Z" fill="#898989"/>
</g>
<path d="M188.63 454V453.295L190.155 451.89C190.642 451.443 191.037 451.055 191.34 450.725C191.643 450.392 191.867 450.088 192.01 449.815C192.153 449.538 192.225 449.26 192.225 448.98C192.225 448.573 192.083 448.253 191.8 448.02C191.52 447.787 191.132 447.67 190.635 447.67C190.328 447.67 190.032 447.722 189.745 447.825C189.458 447.928 189.218 448.078 189.025 448.275L188.67 447.585C188.943 447.345 189.257 447.163 189.61 447.04C189.967 446.913 190.345 446.85 190.745 446.85C191.215 446.85 191.628 446.935 191.985 447.105C192.342 447.272 192.618 447.51 192.815 447.82C193.015 448.127 193.115 448.488 193.115 448.905C193.115 449.195 193.057 449.487 192.94 449.78C192.823 450.073 192.615 450.403 192.315 450.77C192.018 451.133 191.597 451.57 191.05 452.08L189.85 453.185H193.29V454H188.63ZM197.279 454.15C196.839 454.15 196.442 454.055 196.089 453.865C195.739 453.675 195.44 453.412 195.194 453.075C194.95 452.738 194.764 452.35 194.634 451.91C194.504 451.47 194.439 451 194.439 450.5C194.439 449.997 194.504 449.525 194.634 449.085C194.764 448.645 194.95 448.258 195.194 447.925C195.44 447.588 195.739 447.325 196.089 447.135C196.442 446.945 196.839 446.85 197.279 446.85C197.715 446.85 198.109 446.945 198.459 447.135C198.809 447.325 199.107 447.588 199.354 447.925C199.6 448.258 199.789 448.645 199.919 449.085C200.049 449.525 200.114 449.997 200.114 450.5C200.114 451 200.049 451.47 199.919 451.91C199.789 452.35 199.6 452.738 199.354 453.075C199.107 453.412 198.809 453.675 198.459 453.865C198.109 454.055 197.715 454.15 197.279 454.15ZM197.279 453.3C197.562 453.3 197.819 453.237 198.049 453.11C198.282 452.98 198.482 452.793 198.649 452.55C198.819 452.307 198.949 452.013 199.039 451.67C199.132 451.323 199.179 450.933 199.179 450.5C199.179 449.923 199.099 449.425 198.939 449.005C198.779 448.585 198.555 448.262 198.269 448.035C197.985 447.808 197.655 447.695 197.279 447.695C196.995 447.695 196.737 447.76 196.504 447.89C196.27 448.02 196.069 448.207 195.899 448.45C195.732 448.693 195.604 448.988 195.514 449.335C195.424 449.678 195.379 450.067 195.379 450.5C195.379 451.077 195.457 451.575 195.614 451.995C195.774 452.415 195.995 452.738 196.279 452.965C196.565 453.188 196.899 453.3 197.279 453.3ZM201.101 454V453.295L202.626 451.89C203.112 451.443 203.507 451.055 203.811 450.725C204.114 450.392 204.337 450.088 204.481 449.815C204.624 449.538 204.696 449.26 204.696 448.98C204.696 448.573 204.554 448.253 204.271 448.02C203.991 447.787 203.602 447.67 203.106 447.67C202.799 447.67 202.502 447.722 202.216 447.825C201.929 447.928 201.689 448.078 201.496 448.275L201.141 447.585C201.414 447.345 201.727 447.163 202.081 447.04C202.437 446.913 202.816 446.85 203.216 446.85C203.686 446.85 204.099 446.935 204.456 447.105C204.812 447.272 205.089 447.51 205.286 447.82C205.486 448.127 205.586 448.488 205.586 448.905C205.586 449.195 205.527 449.487 205.411 449.78C205.294 450.073 205.086 450.403 204.786 450.77C204.489 451.133 204.067 451.57 203.521 452.08L202.321 453.185H205.761V454H201.101ZM208.984 454.15C208.701 454.15 208.421 454.122 208.144 454.065C207.871 454.008 207.618 453.93 207.384 453.83C207.151 453.727 206.958 453.608 206.804 453.475L207.134 452.685C207.354 452.878 207.628 453.032 207.954 453.145C208.281 453.255 208.606 453.31 208.929 453.31C209.266 453.31 209.559 453.253 209.809 453.14C210.059 453.023 210.253 452.86 210.389 452.65C210.526 452.44 210.594 452.192 210.594 451.905C210.594 451.475 210.436 451.14 210.119 450.9C209.806 450.657 209.388 450.535 208.864 450.535C208.731 450.535 208.594 450.543 208.454 450.56C208.318 450.577 208.176 450.6 208.029 450.63L207.744 450L210.054 447.805H206.849V447H211.209V447.745L208.984 449.895C209.431 449.882 209.848 449.948 210.234 450.095C210.621 450.238 210.933 450.465 211.169 450.775C211.406 451.082 211.524 451.472 211.524 451.945C211.524 452.385 211.416 452.772 211.199 453.105C210.983 453.435 210.683 453.692 210.299 453.875C209.916 454.058 209.478 454.15 208.984 454.15ZM212.785 451.59V450.79H215.405V451.59H212.785ZM219.417 454.15C218.977 454.15 218.581 454.055 218.227 453.865C217.877 453.675 217.579 453.412 217.332 453.075C217.089 452.738 216.902 452.35 216.772 451.91C216.642 451.47 216.577 451 216.577 450.5C216.577 449.997 216.642 449.525 216.772 449.085C216.902 448.645 217.089 448.258 217.332 447.925C217.579 447.588 217.877 447.325 218.227 447.135C218.581 446.945 218.977 446.85 219.417 446.85C219.854 446.85 220.247 446.945 220.597 447.135C220.947 447.325 221.246 447.588 221.492 447.925C221.739 448.258 221.927 448.645 222.057 449.085C222.187 449.525 222.252 449.997 222.252 450.5C222.252 451 222.187 451.47 222.057 451.91C221.927 452.35 221.739 452.738 221.492 453.075C221.246 453.412 220.947 453.675 220.597 453.865C220.247 454.055 219.854 454.15 219.417 454.15ZM219.417 453.3C219.701 453.3 219.957 453.237 220.187 453.11C220.421 452.98 220.621 452.793 220.787 452.55C220.957 452.307 221.087 452.013 221.177 451.67C221.271 451.323 221.317 450.933 221.317 450.5C221.317 449.923 221.237 449.425 221.077 449.005C220.917 448.585 220.694 448.262 220.407 448.035C220.124 447.808 219.794 447.695 219.417 447.695C219.134 447.695 218.876 447.76 218.642 447.89C218.409 448.02 218.207 448.207 218.037 448.45C217.871 448.693 217.742 448.988 217.652 449.335C217.562 449.678 217.517 450.067 217.517 450.5C217.517 451.077 217.596 451.575 217.752 451.995C217.912 452.415 218.134 452.738 218.417 452.965C218.704 453.188 219.037 453.3 219.417 453.3ZM224.155 454.15L223.825 453.41C224.358 453.35 224.83 453.23 225.24 453.05C225.65 452.87 226 452.645 226.29 452.375C226.583 452.105 226.818 451.807 226.995 451.48C227.171 451.15 227.296 450.808 227.37 450.455C227.183 450.732 226.938 450.953 226.635 451.12C226.335 451.283 226.003 451.365 225.64 451.365C225.203 451.365 224.808 451.27 224.455 451.08C224.101 450.89 223.821 450.627 223.615 450.29C223.411 449.953 223.31 449.567 223.31 449.13C223.31 448.7 223.416 448.313 223.63 447.97C223.846 447.627 224.145 447.355 224.525 447.155C224.908 446.952 225.343 446.85 225.83 446.85C226.34 446.85 226.791 446.96 227.185 447.18C227.578 447.4 227.886 447.72 228.11 448.14C228.336 448.557 228.45 449.065 228.45 449.665C228.45 450.262 228.343 450.813 228.13 451.32C227.916 451.827 227.615 452.275 227.225 452.665C226.838 453.055 226.383 453.377 225.86 453.63C225.34 453.883 224.771 454.057 224.155 454.15ZM225.83 450.57C226.133 450.57 226.405 450.507 226.645 450.38C226.885 450.253 227.075 450.08 227.215 449.86C227.355 449.64 227.425 449.392 227.425 449.115C227.425 448.835 227.356 448.587 227.22 448.37C227.086 448.153 226.9 447.983 226.66 447.86C226.42 447.733 226.143 447.67 225.83 447.67C225.523 447.67 225.248 447.733 225.005 447.86C224.765 447.983 224.576 448.153 224.44 448.37C224.303 448.587 224.235 448.835 224.235 449.115C224.235 449.392 224.305 449.64 224.445 449.86C224.588 450.08 224.78 450.253 225.02 450.38C225.263 450.507 225.533 450.57 225.83 450.57ZM229.699 451.59V450.79H232.319V451.59H229.699ZM234.268 454V447.97L232.383 448.67L232.138 447.945L235.078 446.85H235.148V454H234.268ZM238.516 454V447.97L236.631 448.67L236.386 447.945L239.326 446.85H239.396V454H238.516ZM245.264 454V447.97L243.379 448.67L243.134 447.945L246.074 446.85H246.144V454H245.264ZM249.912 454.15C249.492 454.15 249.085 454.09 248.692 453.97C248.302 453.85 247.982 453.69 247.732 453.49L248.057 452.705C248.287 452.898 248.564 453.048 248.887 453.155C249.214 453.258 249.539 453.31 249.862 453.31C250.215 453.31 250.52 453.252 250.777 453.135C251.034 453.015 251.232 452.845 251.372 452.625C251.512 452.402 251.582 452.133 251.582 451.82C251.582 451.53 251.507 451.282 251.357 451.075C251.21 450.865 251.007 450.705 250.747 450.595C250.49 450.482 250.199 450.425 249.872 450.425C249.669 450.425 249.457 450.45 249.237 450.5C249.017 450.547 248.794 450.62 248.567 450.72L248.172 450.31L248.537 447.015L252.332 447.005V447.835H249.217L248.982 449.865C249.175 449.798 249.365 449.748 249.552 449.715C249.742 449.678 249.929 449.66 250.112 449.66C250.562 449.66 250.967 449.747 251.327 449.92C251.69 450.093 251.977 450.343 252.187 450.67C252.4 450.997 252.507 451.388 252.507 451.845C252.507 452.312 252.397 452.718 252.177 453.065C251.957 453.408 251.652 453.675 251.262 453.865C250.875 454.055 250.425 454.15 249.912 454.15ZM254.557 450.235C254.364 450.235 254.197 450.173 254.057 450.05C253.921 449.927 253.852 449.765 253.852 449.565C253.852 449.432 253.882 449.315 253.942 449.215C254.006 449.115 254.091 449.037 254.197 448.98C254.307 448.923 254.427 448.895 254.557 448.895C254.754 448.895 254.921 448.957 255.057 449.08C255.194 449.203 255.262 449.365 255.262 449.565C255.262 449.698 255.231 449.815 255.167 449.915C255.104 450.015 255.019 450.093 254.912 450.15C254.806 450.207 254.687 450.235 254.557 450.235ZM254.557 454.15C254.364 454.15 254.197 454.088 254.057 453.965C253.921 453.842 253.852 453.68 253.852 453.48C253.852 453.347 253.882 453.23 253.942 453.13C254.006 453.03 254.091 452.952 254.197 452.895C254.307 452.838 254.427 452.81 254.557 452.81C254.754 452.81 254.921 452.872 255.057 452.995C255.194 453.118 255.262 453.28 255.262 453.48C255.262 453.613 255.231 453.73 255.167 453.83C255.104 453.93 255.019 454.008 254.912 454.065C254.806 454.122 254.687 454.15 254.557 454.15ZM259.723 454V452.52H256.188V451.795L258.793 447H259.773L257.188 451.72H259.723V450.105H260.553V451.72H261.678V452.52H260.553V454H259.723ZM264.629 454.15C264.209 454.15 263.802 454.09 263.409 453.97C263.019 453.85 262.699 453.69 262.449 453.49L262.774 452.705C263.004 452.898 263.281 453.048 263.604 453.155C263.931 453.258 264.256 453.31 264.579 453.31C264.932 453.31 265.237 453.252 265.494 453.135C265.751 453.015 265.949 452.845 266.089 452.625C266.229 452.402 266.299 452.133 266.299 451.82C266.299 451.53 266.224 451.282 266.074 451.075C265.927 450.865 265.724 450.705 265.464 450.595C265.207 450.482 264.916 450.425 264.589 450.425C264.386 450.425 264.174 450.45 263.954 450.5C263.734 450.547 263.511 450.62 263.284 450.72L262.889 450.31L263.254 447.015L267.049 447.005V447.835H263.934L263.699 449.865C263.892 449.798 264.082 449.748 264.269 449.715C264.459 449.678 264.646 449.66 264.829 449.66C265.279 449.66 265.684 449.747 266.044 449.92C266.407 450.093 266.694 450.343 266.904 450.67C267.117 450.997 267.224 451.388 267.224 451.845C267.224 452.312 267.114 452.718 266.894 453.065C266.674 453.408 266.369 453.675 265.979 453.865C265.592 454.055 265.142 454.15 264.629 454.15ZM269.274 450.235C269.081 450.235 268.914 450.173 268.774 450.05C268.638 449.927 268.569 449.765 268.569 449.565C268.569 449.432 268.599 449.315 268.659 449.215C268.723 449.115 268.808 449.037 268.914 448.98C269.024 448.923 269.144 448.895 269.274 448.895C269.471 448.895 269.638 448.957 269.774 449.08C269.911 449.203 269.979 449.365 269.979 449.565C269.979 449.698 269.948 449.815 269.884 449.915C269.821 450.015 269.736 450.093 269.629 450.15C269.523 450.207 269.404 450.235 269.274 450.235ZM269.274 454.15C269.081 454.15 268.914 454.088 268.774 453.965C268.638 453.842 268.569 453.68 268.569 453.48C268.569 453.347 268.599 453.23 268.659 453.13C268.723 453.03 268.808 452.952 268.914 452.895C269.024 452.838 269.144 452.81 269.274 452.81C269.471 452.81 269.638 452.872 269.774 452.995C269.911 453.118 269.979 453.28 269.979 453.48C269.979 453.613 269.948 453.73 269.884 453.83C269.821 453.93 269.736 454.008 269.629 454.065C269.523 454.122 269.404 454.15 269.274 454.15ZM274.105 454.15C273.665 454.15 273.268 454.055 272.915 453.865C272.565 453.675 272.267 453.412 272.02 453.075C271.777 452.738 271.59 452.35 271.46 451.91C271.33 451.47 271.265 451 271.265 450.5C271.265 449.997 271.33 449.525 271.46 449.085C271.59 448.645 271.777 448.258 272.02 447.925C272.267 447.588 272.565 447.325 272.915 447.135C273.268 446.945 273.665 446.85 274.105 446.85C274.542 446.85 274.935 446.945 275.285 447.135C275.635 447.325 275.933 447.588 276.18 447.925C276.427 448.258 276.615 448.645 276.745 449.085C276.875 449.525 276.94 449.997 276.94 450.5C276.94 451 276.875 451.47 276.745 451.91C276.615 452.35 276.427 452.738 276.18 453.075C275.933 453.412 275.635 453.675 275.285 453.865C274.935 454.055 274.542 454.15 274.105 454.15ZM274.105 453.3C274.388 453.3 274.645 453.237 274.875 453.11C275.108 452.98 275.308 452.793 275.475 452.55C275.645 452.307 275.775 452.013 275.865 451.67C275.958 451.323 276.005 450.933 276.005 450.5C276.005 449.923 275.925 449.425 275.765 449.005C275.605 448.585 275.382 448.262 275.095 448.035C274.812 447.808 274.482 447.695 274.105 447.695C273.822 447.695 273.563 447.76 273.33 447.89C273.097 448.02 272.895 448.207 272.725 448.45C272.558 448.693 272.43 448.988 272.34 449.335C272.25 449.678 272.205 450.067 272.205 450.5C272.205 451.077 272.283 451.575 272.44 451.995C272.6 452.415 272.822 452.738 273.105 452.965C273.392 453.188 273.725 453.3 274.105 453.3ZM280.542 454.15C280.036 454.15 279.596 454.057 279.222 453.87C278.852 453.683 278.566 453.432 278.362 453.115C278.162 452.798 278.062 452.443 278.062 452.05C278.062 451.767 278.112 451.515 278.212 451.295C278.316 451.075 278.464 450.883 278.657 450.72C278.854 450.557 279.089 450.422 279.362 450.315C279.082 450.205 278.836 450.018 278.622 449.755C278.409 449.492 278.302 449.16 278.302 448.76C278.302 448.393 278.399 448.067 278.592 447.78C278.786 447.49 279.052 447.263 279.392 447.1C279.732 446.933 280.121 446.85 280.557 446.85C281.001 446.85 281.394 446.933 281.737 447.1C282.081 447.267 282.349 447.495 282.542 447.785C282.736 448.072 282.832 448.397 282.832 448.76C282.832 449.027 282.782 449.263 282.682 449.47C282.586 449.677 282.456 449.852 282.292 449.995C282.132 450.135 281.957 450.242 281.767 450.315C282.154 450.472 282.464 450.695 282.697 450.985C282.931 451.272 283.047 451.627 283.047 452.05C283.047 452.443 282.944 452.798 282.737 453.115C282.531 453.432 282.239 453.683 281.862 453.87C281.489 454.057 281.049 454.15 280.542 454.15ZM280.557 453.345C280.834 453.345 281.091 453.297 281.327 453.2C281.567 453.1 281.759 452.952 281.902 452.755C282.049 452.558 282.122 452.315 282.122 452.025C282.122 451.738 282.052 451.497 281.912 451.3C281.776 451.103 281.589 450.955 281.352 450.855C281.116 450.752 280.851 450.7 280.557 450.7C280.107 450.7 279.732 450.815 279.432 451.045C279.136 451.272 278.987 451.598 278.987 452.025C278.987 452.315 279.059 452.558 279.202 452.755C279.346 452.952 279.536 453.1 279.772 453.2C280.012 453.297 280.274 453.345 280.557 453.345ZM280.567 449.915C280.837 449.915 281.077 449.87 281.287 449.78C281.497 449.687 281.661 449.557 281.777 449.39C281.894 449.223 281.952 449.025 281.952 448.795C281.952 448.455 281.824 448.17 281.567 447.94C281.314 447.71 280.981 447.595 280.567 447.595C280.291 447.595 280.047 447.648 279.837 447.755C279.631 447.858 279.469 448.002 279.352 448.185C279.236 448.365 279.177 448.568 279.177 448.795C279.177 449.138 279.307 449.412 279.567 449.615C279.831 449.815 280.164 449.915 280.567 449.915ZM191.67 468.15C191.053 468.15 190.54 468.025 190.13 467.775C189.72 467.522 189.412 467.182 189.205 466.755C188.998 466.325 188.895 465.847 188.895 465.32V461H189.835V465.285C189.835 465.948 190 466.443 190.33 466.77C190.663 467.093 191.11 467.255 191.67 467.255C192.227 467.255 192.67 467.093 193 466.77C193.333 466.443 193.5 465.948 193.5 465.285V461H194.44V465.32C194.44 465.847 194.337 466.323 194.13 466.75C193.923 467.177 193.615 467.517 193.205 467.77C192.795 468.023 192.283 468.15 191.67 468.15ZM196.129 468V463.1H197.049V463.76C197.259 463.473 197.504 463.267 197.784 463.14C198.064 463.013 198.351 462.95 198.644 462.95C199.087 462.95 199.454 463.04 199.744 463.22C200.037 463.397 200.256 463.623 200.399 463.9C200.546 464.177 200.619 464.46 200.619 464.75V468H199.699V465.035C199.699 464.665 199.584 464.368 199.354 464.145C199.124 463.918 198.811 463.805 198.414 463.805C198.154 463.805 197.921 463.863 197.714 463.98C197.511 464.093 197.349 464.255 197.229 464.465C197.109 464.675 197.049 464.917 197.049 465.19V468H196.129ZM203.509 468.15C203.163 468.15 202.861 468.087 202.604 467.96C202.348 467.833 202.149 467.655 202.009 467.425C201.869 467.192 201.799 466.917 201.799 466.6C201.799 466.34 201.866 466.103 201.999 465.89C202.133 465.673 202.343 465.495 202.629 465.355C202.916 465.212 203.288 465.117 203.744 465.07C204.201 465.02 204.753 465.028 205.399 465.095L205.424 465.77C204.924 465.703 204.499 465.678 204.149 465.695C203.799 465.708 203.516 465.755 203.299 465.835C203.083 465.912 202.923 466.015 202.819 466.145C202.719 466.272 202.669 466.415 202.669 466.575C202.669 466.832 202.761 467.033 202.944 467.18C203.131 467.323 203.386 467.395 203.709 467.395C203.986 467.395 204.233 467.345 204.449 467.245C204.669 467.142 204.843 467 204.969 466.82C205.099 466.637 205.164 466.425 205.164 466.185V464.815C205.164 464.585 205.113 464.385 205.009 464.215C204.909 464.045 204.761 463.913 204.564 463.82C204.368 463.727 204.126 463.68 203.839 463.68C203.583 463.68 203.328 463.718 203.074 463.795C202.821 463.872 202.578 463.997 202.344 464.17L202.064 463.46C202.368 463.253 202.681 463.108 203.004 463.025C203.328 462.942 203.638 462.9 203.934 462.9C204.384 462.9 204.768 462.972 205.084 463.115C205.401 463.255 205.643 463.467 205.809 463.75C205.976 464.033 206.059 464.387 206.059 464.81V468H205.214V467.4C205.044 467.643 204.809 467.83 204.509 467.96C204.209 468.087 203.876 468.15 203.509 468.15ZM209.415 468.15C208.979 468.15 208.617 468.062 208.33 467.885C208.047 467.708 207.835 467.478 207.695 467.195C207.555 466.912 207.485 466.608 207.485 466.285V463.1H208.405V466.09C208.405 466.45 208.514 466.742 208.73 466.965C208.95 467.185 209.252 467.295 209.635 467.295C209.882 467.295 210.105 467.238 210.305 467.125C210.505 467.012 210.664 466.853 210.78 466.65C210.9 466.443 210.96 466.205 210.96 465.935V463.1H211.88V468H211.035V467.4C210.832 467.647 210.594 467.833 210.32 467.96C210.05 468.087 209.749 468.15 209.415 468.15ZM215.498 468.15C215.041 468.15 214.673 468.017 214.393 467.75C214.116 467.483 213.978 467.072 213.978 466.515V461.66H214.898V463.1H216.333V463.88H214.898V466.285C214.898 466.658 214.964 466.922 215.098 467.075C215.234 467.225 215.433 467.3 215.693 467.3C215.809 467.3 215.919 467.287 216.023 467.26C216.129 467.233 216.223 467.198 216.303 467.155L216.493 467.91C216.356 467.983 216.201 468.042 216.028 468.085C215.854 468.128 215.678 468.15 215.498 468.15ZM212.858 463.88V463.1H214.118V463.88H212.858ZM217.701 468V460.8H218.621V464.065L218.431 463.87C218.651 463.553 218.916 463.322 219.226 463.175C219.54 463.025 219.865 462.95 220.201 462.95C220.645 462.95 221.013 463.04 221.306 463.22C221.603 463.397 221.825 463.625 221.971 463.905C222.118 464.185 222.191 464.473 222.191 464.77V468H221.271V465.035C221.271 464.672 221.155 464.377 220.921 464.15C220.688 463.92 220.375 463.805 219.981 463.805C219.721 463.805 219.488 463.863 219.281 463.98C219.078 464.093 218.916 464.255 218.796 464.465C218.68 464.672 218.621 464.915 218.621 465.195V468H217.701ZM225.922 468.15C225.415 468.15 224.963 468.032 224.567 467.795C224.17 467.558 223.858 467.243 223.632 466.85C223.405 466.457 223.292 466.023 223.292 465.55C223.292 465.2 223.357 464.868 223.487 464.555C223.617 464.242 223.8 463.965 224.037 463.725C224.273 463.482 224.552 463.292 224.872 463.155C225.192 463.018 225.542 462.95 225.922 462.95C226.432 462.95 226.885 463.068 227.282 463.305C227.678 463.542 227.99 463.857 228.217 464.25C228.443 464.643 228.557 465.077 228.557 465.55C228.557 465.9 228.492 466.232 228.362 466.545C228.232 466.858 228.048 467.135 227.812 467.375C227.575 467.615 227.297 467.805 226.977 467.945C226.657 468.082 226.305 468.15 225.922 468.15ZM225.922 467.32C226.252 467.32 226.543 467.248 226.797 467.105C227.053 466.958 227.255 466.753 227.402 466.49C227.548 466.223 227.622 465.91 227.622 465.55C227.622 465.187 227.548 464.873 227.402 464.61C227.258 464.343 227.058 464.138 226.802 463.995C226.545 463.852 226.252 463.78 225.922 463.78C225.592 463.78 225.298 463.852 225.042 463.995C224.788 464.138 224.588 464.343 224.442 464.61C224.298 464.873 224.227 465.187 224.227 465.55C224.227 465.91 224.298 466.223 224.442 466.49C224.588 466.753 224.79 466.958 225.047 467.105C225.303 467.248 225.595 467.32 225.922 467.32ZM229.713 468V463.1H230.633V463.81C230.83 463.49 231.063 463.267 231.333 463.14C231.606 463.01 231.896 462.945 232.203 462.945C232.3 462.945 232.393 462.95 232.483 462.96C232.573 462.97 232.661 462.983 232.748 463L232.613 463.955C232.52 463.928 232.425 463.908 232.328 463.895C232.231 463.878 232.136 463.87 232.043 463.87C231.633 463.87 231.295 463.998 231.028 464.255C230.765 464.508 230.633 464.848 230.633 465.275V468H229.713ZM233.717 468V463.1H234.637V468H233.717ZM234.177 462.175C234.004 462.175 233.854 462.117 233.727 462C233.6 461.883 233.537 461.737 233.537 461.56C233.537 461.377 233.6 461.228 233.727 461.115C233.854 460.998 234.004 460.94 234.177 460.94C234.354 460.94 234.504 460.998 234.627 461.115C234.754 461.228 234.817 461.377 234.817 461.56C234.817 461.737 234.754 461.883 234.627 462C234.504 462.117 234.354 462.175 234.177 462.175ZM235.902 468V467.315L238.577 463.925H235.947V463.1H239.707V463.785L237.072 467.17H239.747V468H235.902ZM243.217 468.15C242.697 468.15 242.238 468.042 241.842 467.825C241.445 467.608 241.135 467.307 240.912 466.92C240.688 466.53 240.577 466.077 240.577 465.56C240.577 465.187 240.64 464.84 240.767 464.52C240.897 464.2 241.077 463.923 241.307 463.69C241.54 463.457 241.812 463.275 242.122 463.145C242.435 463.015 242.775 462.95 243.142 462.95C243.538 462.95 243.892 463.02 244.202 463.16C244.515 463.3 244.773 463.497 244.977 463.75C245.183 464 245.332 464.295 245.422 464.635C245.512 464.972 245.53 465.338 245.477 465.735H241.487C241.477 466.062 241.543 466.348 241.687 466.595C241.83 466.838 242.037 467.028 242.307 467.165C242.58 467.302 242.903 467.37 243.277 467.37C243.55 467.37 243.817 467.327 244.077 467.24C244.337 467.153 244.567 467.025 244.767 466.855L245.157 467.54C244.997 467.67 244.807 467.782 244.587 467.875C244.37 467.965 244.143 468.033 243.907 468.08C243.67 468.127 243.44 468.15 243.217 468.15ZM241.537 465.02H244.557C244.543 464.607 244.415 464.285 244.172 464.055C243.928 463.822 243.58 463.705 243.127 463.705C242.687 463.705 242.323 463.822 242.037 464.055C241.75 464.285 241.583 464.607 241.537 465.02ZM248.745 468.15C248.262 468.15 247.833 468.035 247.46 467.805C247.09 467.575 246.8 467.265 246.59 466.875C246.383 466.482 246.28 466.04 246.28 465.55C246.28 465.19 246.34 464.853 246.46 464.54C246.58 464.227 246.748 463.952 246.965 463.715C247.185 463.475 247.447 463.288 247.75 463.155C248.053 463.018 248.388 462.95 248.755 462.95C249.225 462.95 249.627 463.045 249.96 463.235C250.297 463.425 250.573 463.68 250.79 464L250.605 464.205V460.8H251.525V468H250.68V466.85L250.815 467.06C250.625 467.373 250.363 467.633 250.03 467.84C249.7 468.047 249.272 468.15 248.745 468.15ZM248.91 467.32C249.24 467.32 249.532 467.248 249.785 467.105C250.042 466.958 250.243 466.753 250.39 466.49C250.537 466.223 250.61 465.91 250.61 465.55C250.61 465.187 250.537 464.873 250.39 464.61C250.247 464.343 250.047 464.138 249.79 463.995C249.533 463.852 249.24 463.78 248.91 463.78C248.58 463.78 248.287 463.852 248.03 463.995C247.777 464.138 247.577 464.343 247.43 464.61C247.287 464.873 247.215 465.187 247.215 465.55C247.215 465.91 247.287 466.223 247.43 466.49C247.577 466.753 247.778 466.958 248.035 467.105C248.292 467.248 248.583 467.32 248.91 467.32ZM256.966 468.15C256.62 468.15 256.318 468.087 256.061 467.96C255.805 467.833 255.606 467.655 255.466 467.425C255.326 467.192 255.256 466.917 255.256 466.6C255.256 466.34 255.323 466.103 255.456 465.89C255.59 465.673 255.8 465.495 256.086 465.355C256.373 465.212 256.745 465.117 257.201 465.07C257.658 465.02 258.21 465.028 258.856 465.095L258.881 465.77C258.381 465.703 257.956 465.678 257.606 465.695C257.256 465.708 256.973 465.755 256.756 465.835C256.54 465.912 256.38 466.015 256.276 466.145C256.176 466.272 256.126 466.415 256.126 466.575C256.126 466.832 256.218 467.033 256.401 467.18C256.588 467.323 256.843 467.395 257.166 467.395C257.443 467.395 257.69 467.345 257.906 467.245C258.126 467.142 258.3 467 258.426 466.82C258.556 466.637 258.621 466.425 258.621 466.185V464.815C258.621 464.585 258.57 464.385 258.466 464.215C258.366 464.045 258.218 463.913 258.021 463.82C257.825 463.727 257.583 463.68 257.296 463.68C257.04 463.68 256.785 463.718 256.531 463.795C256.278 463.872 256.035 463.997 255.801 464.17L255.521 463.46C255.825 463.253 256.138 463.108 256.461 463.025C256.785 462.942 257.095 462.9 257.391 462.9C257.841 462.9 258.225 462.972 258.541 463.115C258.858 463.255 259.1 463.467 259.266 463.75C259.433 464.033 259.516 464.387 259.516 464.81V468H258.671V467.4C258.501 467.643 258.266 467.83 257.966 467.96C257.666 468.087 257.333 468.15 256.966 468.15ZM263.261 468.15C262.744 468.15 262.286 468.037 261.886 467.81C261.486 467.583 261.173 467.275 260.946 466.885C260.719 466.492 260.606 466.047 260.606 465.55C260.606 465.173 260.673 464.827 260.806 464.51C260.943 464.193 261.134 463.918 261.381 463.685C261.628 463.452 261.916 463.272 262.246 463.145C262.579 463.015 262.943 462.95 263.336 462.95C263.656 462.95 263.951 462.992 264.221 463.075C264.491 463.158 264.741 463.287 264.971 463.46L264.501 464.17C264.351 464.04 264.176 463.943 263.976 463.88C263.776 463.813 263.564 463.78 263.341 463.78C262.974 463.78 262.656 463.85 262.386 463.99C262.119 464.127 261.913 464.327 261.766 464.59C261.619 464.853 261.546 465.17 261.546 465.54C261.546 466.097 261.706 466.533 262.026 466.85C262.349 467.163 262.786 467.32 263.336 467.32C263.589 467.32 263.826 467.275 264.046 467.185C264.266 467.092 264.446 466.972 264.586 466.825L265.061 467.525C264.804 467.718 264.523 467.872 264.216 467.985C263.909 468.095 263.591 468.15 263.261 468.15ZM268.251 468.15C267.735 468.15 267.276 468.037 266.876 467.81C266.476 467.583 266.163 467.275 265.936 466.885C265.71 466.492 265.596 466.047 265.596 465.55C265.596 465.173 265.663 464.827 265.796 464.51C265.933 464.193 266.125 463.918 266.371 463.685C266.618 463.452 266.906 463.272 267.236 463.145C267.57 463.015 267.933 462.95 268.326 462.95C268.646 462.95 268.941 462.992 269.211 463.075C269.481 463.158 269.731 463.287 269.961 463.46L269.491 464.17C269.341 464.04 269.166 463.943 268.966 463.88C268.766 463.813 268.555 463.78 268.331 463.78C267.965 463.78 267.646 463.85 267.376 463.99C267.11 464.127 266.903 464.327 266.756 464.59C266.61 464.853 266.536 465.17 266.536 465.54C266.536 466.097 266.696 466.533 267.016 466.85C267.34 467.163 267.776 467.32 268.326 467.32C268.58 467.32 268.816 467.275 269.036 467.185C269.256 467.092 269.436 466.972 269.576 466.825L270.051 467.525C269.795 467.718 269.513 467.872 269.206 467.985C268.9 468.095 268.581 468.15 268.251 468.15ZM273.227 468.15C272.707 468.15 272.248 468.042 271.852 467.825C271.455 467.608 271.145 467.307 270.922 466.92C270.698 466.53 270.587 466.077 270.587 465.56C270.587 465.187 270.65 464.84 270.777 464.52C270.907 464.2 271.087 463.923 271.317 463.69C271.55 463.457 271.822 463.275 272.132 463.145C272.445 463.015 272.785 462.95 273.152 462.95C273.548 462.95 273.902 463.02 274.212 463.16C274.525 463.3 274.783 463.497 274.987 463.75C275.193 464 275.342 464.295 275.432 464.635C275.522 464.972 275.54 465.338 275.487 465.735H271.497C271.487 466.062 271.553 466.348 271.697 466.595C271.84 466.838 272.047 467.028 272.317 467.165C272.59 467.302 272.913 467.37 273.287 467.37C273.56 467.37 273.827 467.327 274.087 467.24C274.347 467.153 274.577 467.025 274.777 466.855L275.167 467.54C275.007 467.67 274.817 467.782 274.597 467.875C274.38 467.965 274.153 468.033 273.917 468.08C273.68 468.127 273.45 468.15 273.227 468.15ZM271.547 465.02H274.567C274.553 464.607 274.425 464.285 274.182 464.055C273.938 463.822 273.59 463.705 273.137 463.705C272.697 463.705 272.333 463.822 272.047 464.055C271.76 464.285 271.593 464.607 271.547 465.02ZM278.261 468.145C277.874 468.145 277.508 468.088 277.161 467.975C276.818 467.858 276.531 467.703 276.301 467.51L276.681 466.815C276.898 466.995 277.144 467.137 277.421 467.24C277.701 467.34 277.981 467.39 278.261 467.39C278.608 467.39 278.878 467.328 279.071 467.205C279.264 467.078 279.361 466.9 279.361 466.67C279.361 466.457 279.278 466.298 279.111 466.195C278.944 466.092 278.634 465.985 278.181 465.875C277.581 465.738 277.144 465.555 276.871 465.325C276.601 465.095 276.466 464.778 276.466 464.375C276.466 464.088 276.546 463.835 276.706 463.615C276.866 463.392 277.084 463.217 277.361 463.09C277.641 462.963 277.963 462.9 278.326 462.9C278.686 462.9 279.021 462.952 279.331 463.055C279.644 463.155 279.916 463.302 280.146 463.495L279.791 464.195C279.674 464.085 279.536 463.99 279.376 463.91C279.219 463.83 279.051 463.768 278.871 463.725C278.691 463.678 278.511 463.655 278.331 463.655C278.034 463.655 277.791 463.715 277.601 463.835C277.414 463.955 277.321 464.122 277.321 464.335C277.321 464.558 277.411 464.722 277.591 464.825C277.774 464.928 278.078 465.03 278.501 465.13C279.114 465.267 279.554 465.45 279.821 465.68C280.088 465.907 280.221 466.22 280.221 466.62C280.221 466.93 280.139 467.2 279.976 467.43C279.813 467.657 279.584 467.833 279.291 467.96C278.998 468.083 278.654 468.145 278.261 468.145ZM283.017 468.145C282.63 468.145 282.263 468.088 281.917 467.975C281.573 467.858 281.287 467.703 281.057 467.51L281.437 466.815C281.653 466.995 281.9 467.137 282.177 467.24C282.457 467.34 282.737 467.39 283.017 467.39C283.363 467.39 283.633 467.328 283.827 467.205C284.02 467.078 284.117 466.9 284.117 466.67C284.117 466.457 284.033 466.298 283.867 466.195C283.7 466.092 283.39 465.985 282.937 465.875C282.337 465.738 281.9 465.555 281.627 465.325C281.357 465.095 281.222 464.778 281.222 464.375C281.222 464.088 281.302 463.835 281.462 463.615C281.622 463.392 281.84 463.217 282.117 463.09C282.397 462.963 282.718 462.9 283.082 462.9C283.442 462.9 283.777 462.952 284.087 463.055C284.4 463.155 284.672 463.302 284.902 463.495L284.547 464.195C284.43 464.085 284.292 463.99 284.132 463.91C283.975 463.83 283.807 463.768 283.627 463.725C283.447 463.678 283.267 463.655 283.087 463.655C282.79 463.655 282.547 463.715 282.357 463.835C282.17 463.955 282.077 464.122 282.077 464.335C282.077 464.558 282.167 464.722 282.347 464.825C282.53 464.928 282.833 465.03 283.257 465.13C283.87 465.267 284.31 465.45 284.577 465.68C284.843 465.907 284.977 466.22 284.977 466.62C284.977 466.93 284.895 467.2 284.732 467.43C284.568 467.657 284.34 467.833 284.047 467.96C283.753 468.083 283.41 468.145 283.017 468.145ZM290.14 468.15C289.794 468.15 289.492 468.087 289.235 467.96C288.979 467.833 288.78 467.655 288.64 467.425C288.5 467.192 288.43 466.917 288.43 466.6C288.43 466.34 288.497 466.103 288.63 465.89C288.764 465.673 288.974 465.495 289.26 465.355C289.547 465.212 289.919 465.117 290.375 465.07C290.832 465.02 291.384 465.028 292.03 465.095L292.055 465.77C291.555 465.703 291.13 465.678 290.78 465.695C290.43 465.708 290.147 465.755 289.93 465.835C289.714 465.912 289.554 466.015 289.45 466.145C289.35 466.272 289.3 466.415 289.3 466.575C289.3 466.832 289.392 467.033 289.575 467.18C289.762 467.323 290.017 467.395 290.34 467.395C290.617 467.395 290.864 467.345 291.08 467.245C291.3 467.142 291.474 467 291.6 466.82C291.73 466.637 291.795 466.425 291.795 466.185V464.815C291.795 464.585 291.744 464.385 291.64 464.215C291.54 464.045 291.392 463.913 291.195 463.82C290.999 463.727 290.757 463.68 290.47 463.68C290.214 463.68 289.959 463.718 289.705 463.795C289.452 463.872 289.209 463.997 288.975 464.17L288.695 463.46C288.999 463.253 289.312 463.108 289.635 463.025C289.959 462.942 290.269 462.9 290.565 462.9C291.015 462.9 291.399 462.972 291.715 463.115C292.032 463.255 292.274 463.467 292.44 463.75C292.607 464.033 292.69 464.387 292.69 464.81V468H291.845V467.4C291.675 467.643 291.44 467.83 291.14 467.96C290.84 468.087 290.507 468.15 290.14 468.15ZM296.142 468.15C295.686 468.15 295.317 468.017 295.037 467.75C294.761 467.483 294.622 467.072 294.622 466.515V461.66H295.542V463.1H296.977V463.88H295.542V466.285C295.542 466.658 295.609 466.922 295.742 467.075C295.879 467.225 296.077 467.3 296.337 467.3C296.454 467.3 296.564 467.287 296.667 467.26C296.774 467.233 296.867 467.198 296.947 467.155L297.137 467.91C297.001 467.983 296.846 468.042 296.672 468.085C296.499 468.128 296.322 468.15 296.142 468.15ZM293.502 463.88V463.1H294.762V463.88H293.502ZM300.371 468.15C299.914 468.15 299.546 468.017 299.266 467.75C298.989 467.483 298.851 467.072 298.851 466.515V461.66H299.771V463.1H301.206V463.88H299.771V466.285C299.771 466.658 299.837 466.922 299.971 467.075C300.107 467.225 300.306 467.3 300.566 467.3C300.682 467.3 300.792 467.287 300.896 467.26C301.002 467.233 301.096 467.198 301.176 467.155L301.366 467.91C301.229 467.983 301.074 468.042 300.901 468.085C300.727 468.128 300.551 468.15 300.371 468.15ZM297.731 463.88V463.1H298.991V463.88H297.731ZM304.74 468.15C304.22 468.15 303.762 468.042 303.365 467.825C302.969 467.608 302.659 467.307 302.435 466.92C302.212 466.53 302.1 466.077 302.1 465.56C302.1 465.187 302.164 464.84 302.29 464.52C302.42 464.2 302.6 463.923 302.83 463.69C303.064 463.457 303.335 463.275 303.645 463.145C303.959 463.015 304.299 462.95 304.665 462.95C305.062 462.95 305.415 463.02 305.725 463.16C306.039 463.3 306.297 463.497 306.5 463.75C306.707 464 306.855 464.295 306.945 464.635C307.035 464.972 307.054 465.338 307 465.735H303.01C303 466.062 303.067 466.348 303.21 466.595C303.354 466.838 303.56 467.028 303.83 467.165C304.104 467.302 304.427 467.37 304.8 467.37C305.074 467.37 305.34 467.327 305.6 467.24C305.86 467.153 306.09 467.025 306.29 466.855L306.68 467.54C306.52 467.67 306.33 467.782 306.11 467.875C305.894 467.965 305.667 468.033 305.43 468.08C305.194 468.127 304.964 468.15 304.74 468.15ZM303.06 465.02H306.08C306.067 464.607 305.939 464.285 305.695 464.055C305.452 463.822 305.104 463.705 304.65 463.705C304.21 463.705 303.847 463.822 303.56 464.055C303.274 464.285 303.107 464.607 303.06 465.02ZM308.19 468V463.1H309.11V463.795C309.246 463.595 309.401 463.433 309.575 463.31C309.751 463.187 309.936 463.097 310.13 463.04C310.326 462.98 310.525 462.95 310.725 462.95C311.138 462.95 311.478 463.04 311.745 463.22C312.015 463.4 312.206 463.627 312.32 463.9C312.58 463.527 312.871 463.275 313.195 463.145C313.518 463.015 313.836 462.95 314.15 462.95C314.596 462.95 314.955 463.04 315.225 463.22C315.495 463.397 315.69 463.623 315.81 463.9C315.933 464.177 315.995 464.46 315.995 464.75V468H315.075V465.02C315.075 464.657 314.975 464.363 314.775 464.14C314.575 463.917 314.281 463.805 313.895 463.805C313.641 463.805 313.413 463.862 313.21 463.975C313.006 464.085 312.845 464.24 312.725 464.44C312.608 464.64 312.55 464.87 312.55 465.13V468H311.63V465.02C311.63 464.657 311.53 464.363 311.33 464.14C311.133 463.917 310.84 463.805 310.45 463.805C310.2 463.805 309.973 463.862 309.77 463.975C309.566 464.085 309.405 464.24 309.285 464.44C309.168 464.64 309.11 464.87 309.11 465.13V468H308.19ZM317.535 470.1V463.1H318.38V463.835C318.584 463.575 318.839 463.363 319.145 463.2C319.455 463.033 319.845 462.95 320.315 462.95C320.802 462.95 321.23 463.065 321.6 463.295C321.97 463.522 322.259 463.832 322.465 464.225C322.675 464.618 322.78 465.06 322.78 465.55C322.78 465.907 322.72 466.243 322.6 466.56C322.484 466.873 322.315 467.15 322.095 467.39C321.875 467.627 321.614 467.813 321.31 467.95C321.01 468.083 320.675 468.15 320.305 468.15C319.892 468.15 319.53 468.073 319.22 467.92C318.914 467.763 318.657 467.558 318.45 467.305V470.1H317.535ZM320.15 467.32C320.48 467.32 320.772 467.248 321.025 467.105C321.282 466.958 321.482 466.753 321.625 466.49C321.772 466.223 321.845 465.91 321.845 465.55C321.845 465.187 321.772 464.873 321.625 464.61C321.482 464.343 321.282 464.138 321.025 463.995C320.772 463.852 320.48 463.78 320.15 463.78C319.82 463.78 319.527 463.852 319.27 463.995C319.017 464.138 318.817 464.343 318.67 464.61C318.524 464.873 318.45 465.187 318.45 465.55C318.45 465.91 318.524 466.223 318.67 466.49C318.817 466.753 319.017 466.958 319.27 467.105C319.527 467.248 319.82 467.32 320.15 467.32ZM325.908 468.15C325.451 468.15 325.083 468.017 324.803 467.75C324.526 467.483 324.388 467.072 324.388 466.515V461.66H325.308V463.1H326.743V463.88H325.308V466.285C325.308 466.658 325.375 466.922 325.508 467.075C325.645 467.225 325.843 467.3 326.103 467.3C326.22 467.3 326.33 467.287 326.433 467.26C326.54 467.233 326.633 467.198 326.713 467.155L326.903 467.91C326.766 467.983 326.611 468.042 326.438 468.085C326.265 468.128 326.088 468.15 325.908 468.15ZM323.268 463.88V463.1H324.528V463.88H323.268Z" fill="#838383"/>
<path d="M188.94 482V475H189.88V482H188.94ZM191.762 482V475H194.207C194.697 475 195.129 475.083 195.502 475.25C195.876 475.417 196.167 475.658 196.377 475.975C196.591 476.288 196.697 476.665 196.697 477.105C196.697 477.555 196.599 477.935 196.402 478.245C196.206 478.555 195.921 478.792 195.547 478.955C195.174 479.115 194.721 479.195 194.187 479.195H192.702V482H191.762ZM192.702 478.37H194.217C194.707 478.37 195.086 478.267 195.352 478.06C195.622 477.853 195.757 477.542 195.757 477.125C195.757 476.718 195.619 476.402 195.342 476.175C195.069 475.948 194.697 475.835 194.227 475.835H192.702V478.37ZM201.807 482V475.97L199.922 476.67L199.677 475.945L202.617 474.85H202.687V482H201.807ZM205.18 482.15L204.85 481.41C205.383 481.35 205.855 481.23 206.265 481.05C206.675 480.87 207.025 480.645 207.315 480.375C207.608 480.105 207.843 479.807 208.02 479.48C208.197 479.15 208.322 478.808 208.395 478.455C208.208 478.732 207.963 478.953 207.66 479.12C207.36 479.283 207.028 479.365 206.665 479.365C206.228 479.365 205.833 479.27 205.48 479.08C205.127 478.89 204.847 478.627 204.64 478.29C204.437 477.953 204.335 477.567 204.335 477.13C204.335 476.7 204.442 476.313 204.655 475.97C204.872 475.627 205.17 475.355 205.55 475.155C205.933 474.952 206.368 474.85 206.855 474.85C207.365 474.85 207.817 474.96 208.21 475.18C208.603 475.4 208.912 475.72 209.135 476.14C209.362 476.557 209.475 477.065 209.475 477.665C209.475 478.262 209.368 478.813 209.155 479.32C208.942 479.827 208.64 480.275 208.25 480.665C207.863 481.055 207.408 481.377 206.885 481.63C206.365 481.883 205.797 482.057 205.18 482.15ZM206.855 478.57C207.158 478.57 207.43 478.507 207.67 478.38C207.91 478.253 208.1 478.08 208.24 477.86C208.38 477.64 208.45 477.392 208.45 477.115C208.45 476.835 208.382 476.587 208.245 476.37C208.112 476.153 207.925 475.983 207.685 475.86C207.445 475.733 207.168 475.67 206.855 475.67C206.548 475.67 206.273 475.733 206.03 475.86C205.79 475.983 205.602 476.153 205.465 476.37C205.328 476.587 205.26 476.835 205.26 477.115C205.26 477.392 205.33 477.64 205.47 477.86C205.613 478.08 205.805 478.253 206.045 478.38C206.288 478.507 206.558 478.57 206.855 478.57ZM210.534 482V481.295L212.059 479.89C212.546 479.443 212.941 479.055 213.244 478.725C213.548 478.392 213.771 478.088 213.914 477.815C214.058 477.538 214.129 477.26 214.129 476.98C214.129 476.573 213.988 476.253 213.704 476.02C213.424 475.787 213.036 475.67 212.539 475.67C212.233 475.67 211.936 475.722 211.649 475.825C211.363 475.928 211.123 476.078 210.929 476.275L210.574 475.585C210.848 475.345 211.161 475.163 211.514 475.04C211.871 474.913 212.249 474.85 212.649 474.85C213.119 474.85 213.533 474.935 213.889 475.105C214.246 475.272 214.523 475.51 214.719 475.82C214.919 476.127 215.019 476.488 215.019 476.905C215.019 477.195 214.961 477.487 214.844 477.78C214.728 478.073 214.519 478.403 214.219 478.77C213.923 479.133 213.501 479.57 212.954 480.08L211.754 481.185H215.194V482H210.534ZM217.108 482.15C216.915 482.15 216.748 482.088 216.608 481.965C216.471 481.842 216.403 481.68 216.403 481.48C216.403 481.347 216.433 481.23 216.493 481.13C216.556 481.03 216.641 480.952 216.748 480.895C216.858 480.838 216.978 480.81 217.108 480.81C217.305 480.81 217.471 480.872 217.608 480.995C217.745 481.118 217.813 481.28 217.813 481.48C217.813 481.613 217.781 481.73 217.718 481.83C217.655 481.93 217.57 482.008 217.463 482.065C217.356 482.122 217.238 482.15 217.108 482.15ZM219.34 482L222.37 475.85H218.935V475H223.415V475.72L220.355 482H219.34ZM227.233 482V480.52H223.698V479.795L226.303 475H227.283L224.698 479.72H227.233V478.105H228.063V479.72H229.188V480.52H228.063V482H227.233ZM230.829 482.15C230.635 482.15 230.469 482.088 230.329 481.965C230.192 481.842 230.124 481.68 230.124 481.48C230.124 481.347 230.154 481.23 230.214 481.13C230.277 481.03 230.362 480.952 230.469 480.895C230.579 480.838 230.699 480.81 230.829 480.81C231.025 480.81 231.192 480.872 231.329 480.995C231.465 481.118 231.534 481.28 231.534 481.48C231.534 481.613 231.502 481.73 231.439 481.83C231.375 481.93 231.29 482.008 231.184 482.065C231.077 482.122 230.959 482.15 230.829 482.15ZM233.467 482V475.97L231.582 476.67L231.337 475.945L234.277 474.85H234.347V482H233.467ZM236.84 482.15L236.51 481.41C237.044 481.35 237.515 481.23 237.925 481.05C238.335 480.87 238.685 480.645 238.975 480.375C239.269 480.105 239.504 479.807 239.68 479.48C239.857 479.15 239.982 478.808 240.055 478.455C239.869 478.732 239.624 478.953 239.32 479.12C239.02 479.283 238.689 479.365 238.325 479.365C237.889 479.365 237.494 479.27 237.14 479.08C236.787 478.89 236.507 478.627 236.3 478.29C236.097 477.953 235.995 477.567 235.995 477.13C235.995 476.7 236.102 476.313 236.315 475.97C236.532 475.627 236.83 475.355 237.21 475.155C237.594 474.952 238.029 474.85 238.515 474.85C239.025 474.85 239.477 474.96 239.87 475.18C240.264 475.4 240.572 475.72 240.795 476.14C241.022 476.557 241.135 477.065 241.135 477.665C241.135 478.262 241.029 478.813 240.815 479.32C240.602 479.827 240.3 480.275 239.91 480.665C239.524 481.055 239.069 481.377 238.545 481.63C238.025 481.883 237.457 482.057 236.84 482.15ZM238.515 478.57C238.819 478.57 239.09 478.507 239.33 478.38C239.57 478.253 239.76 478.08 239.9 477.86C240.04 477.64 240.11 477.392 240.11 477.115C240.11 476.835 240.042 476.587 239.905 476.37C239.772 476.153 239.585 475.983 239.345 475.86C239.105 475.733 238.829 475.67 238.515 475.67C238.209 475.67 237.934 475.733 237.69 475.86C237.45 475.983 237.262 476.153 237.125 476.37C236.989 476.587 236.92 476.835 236.92 477.115C236.92 477.392 236.99 477.64 237.13 477.86C237.274 478.08 237.465 478.253 237.705 478.38C237.949 478.507 238.219 478.57 238.515 478.57ZM243.11 482.15L242.78 481.41C243.313 481.35 243.785 481.23 244.195 481.05C244.605 480.87 244.955 480.645 245.245 480.375C245.538 480.105 245.773 479.807 245.95 479.48C246.126 479.15 246.251 478.808 246.325 478.455C246.138 478.732 245.893 478.953 245.59 479.12C245.29 479.283 244.958 479.365 244.595 479.365C244.158 479.365 243.763 479.27 243.41 479.08C243.056 478.89 242.776 478.627 242.57 478.29C242.366 477.953 242.265 477.567 242.265 477.13C242.265 476.7 242.371 476.313 242.585 475.97C242.801 475.627 243.1 475.355 243.48 475.155C243.863 474.952 244.298 474.85 244.785 474.85C245.295 474.85 245.746 474.96 246.14 475.18C246.533 475.4 246.841 475.72 247.065 476.14C247.291 476.557 247.405 477.065 247.405 477.665C247.405 478.262 247.298 478.813 247.085 479.32C246.871 479.827 246.57 480.275 246.18 480.665C245.793 481.055 245.338 481.377 244.815 481.63C244.295 481.883 243.726 482.057 243.11 482.15ZM244.785 478.57C245.088 478.57 245.36 478.507 245.6 478.38C245.84 478.253 246.03 478.08 246.17 477.86C246.31 477.64 246.38 477.392 246.38 477.115C246.38 476.835 246.311 476.587 246.175 476.37C246.041 476.153 245.855 475.983 245.615 475.86C245.375 475.733 245.098 475.67 244.785 475.67C244.478 475.67 244.203 475.733 243.96 475.86C243.72 475.983 243.531 476.153 243.395 476.37C243.258 476.587 243.19 476.835 243.19 477.115C243.19 477.392 243.26 477.64 243.4 477.86C243.543 478.08 243.735 478.253 243.975 478.38C244.218 478.507 244.488 478.57 244.785 478.57ZM249.247 482.15C249.053 482.15 248.887 482.088 248.747 481.965C248.61 481.842 248.542 481.68 248.542 481.48C248.542 481.347 248.572 481.23 248.632 481.13C248.695 481.03 248.78 480.952 248.887 480.895C248.997 480.838 249.117 480.81 249.247 480.81C249.443 480.81 249.61 480.872 249.747 480.995C249.883 481.118 249.952 481.28 249.952 481.48C249.952 481.613 249.92 481.73 249.857 481.83C249.793 481.93 249.708 482.008 249.602 482.065C249.495 482.122 249.377 482.15 249.247 482.15ZM253.184 482.15C252.9 482.15 252.62 482.122 252.344 482.065C252.07 482.008 251.817 481.93 251.584 481.83C251.35 481.727 251.157 481.608 251.004 481.475L251.334 480.685C251.554 480.878 251.827 481.032 252.154 481.145C252.48 481.255 252.805 481.31 253.129 481.31C253.465 481.31 253.759 481.253 254.009 481.14C254.259 481.023 254.452 480.86 254.589 480.65C254.725 480.44 254.794 480.192 254.794 479.905C254.794 479.475 254.635 479.14 254.319 478.9C254.005 478.657 253.587 478.535 253.064 478.535C252.93 478.535 252.794 478.543 252.654 478.56C252.517 478.577 252.375 478.6 252.229 478.63L251.944 478L254.254 475.805H251.049V475H255.409V475.745L253.184 477.895C253.63 477.882 254.047 477.948 254.434 478.095C254.82 478.238 255.132 478.465 255.369 478.775C255.605 479.082 255.724 479.472 255.724 479.945C255.724 480.385 255.615 480.772 255.399 481.105C255.182 481.435 254.882 481.692 254.499 481.875C254.115 482.058 253.677 482.15 253.184 482.15ZM262.434 482.15C262.104 482.15 261.806 482.1 261.539 482C261.273 481.903 261.041 481.768 260.844 481.595C260.651 481.422 260.491 481.223 260.364 481L260.499 480.8V482H259.654V474.8H260.569V478.235L260.389 478.03C260.606 477.71 260.881 477.45 261.214 477.25C261.551 477.05 261.954 476.95 262.424 476.95C262.914 476.95 263.344 477.067 263.714 477.3C264.088 477.533 264.378 477.847 264.584 478.24C264.794 478.633 264.899 479.07 264.899 479.55C264.899 479.917 264.839 480.258 264.719 480.575C264.599 480.888 264.429 481.163 264.209 481.4C263.993 481.637 263.734 481.822 263.434 481.955C263.134 482.085 262.801 482.15 262.434 482.15ZM262.269 481.32C262.599 481.32 262.891 481.248 263.144 481.105C263.401 480.958 263.601 480.753 263.744 480.49C263.891 480.223 263.964 479.91 263.964 479.55C263.964 479.187 263.891 478.873 263.744 478.61C263.601 478.343 263.401 478.138 263.144 477.995C262.891 477.852 262.599 477.78 262.269 477.78C261.939 477.78 261.646 477.852 261.389 477.995C261.136 478.138 260.936 478.343 260.789 478.61C260.643 478.873 260.569 479.187 260.569 479.55C260.569 479.91 260.643 480.223 260.789 480.49C260.936 480.753 261.136 480.958 261.389 481.105C261.646 481.248 261.939 481.32 262.269 481.32ZM266.051 482V474.8H266.971V482H266.051ZM270.756 482.15C270.249 482.15 269.797 482.032 269.401 481.795C269.004 481.558 268.692 481.243 268.466 480.85C268.239 480.457 268.126 480.023 268.126 479.55C268.126 479.2 268.191 478.868 268.321 478.555C268.451 478.242 268.634 477.965 268.871 477.725C269.107 477.482 269.386 477.292 269.706 477.155C270.026 477.018 270.376 476.95 270.756 476.95C271.266 476.95 271.719 477.068 272.116 477.305C272.512 477.542 272.824 477.857 273.051 478.25C273.277 478.643 273.391 479.077 273.391 479.55C273.391 479.9 273.326 480.232 273.196 480.545C273.066 480.858 272.882 481.135 272.646 481.375C272.409 481.615 272.131 481.805 271.811 481.945C271.491 482.082 271.139 482.15 270.756 482.15ZM270.756 481.32C271.086 481.32 271.377 481.248 271.631 481.105C271.887 480.958 272.089 480.753 272.236 480.49C272.382 480.223 272.456 479.91 272.456 479.55C272.456 479.187 272.382 478.873 272.236 478.61C272.092 478.343 271.892 478.138 271.636 477.995C271.379 477.852 271.086 477.78 270.756 477.78C270.426 477.78 270.132 477.852 269.876 477.995C269.622 478.138 269.422 478.343 269.276 478.61C269.132 478.873 269.061 479.187 269.061 479.55C269.061 479.91 269.132 480.223 269.276 480.49C269.422 480.753 269.624 480.958 269.881 481.105C270.137 481.248 270.429 481.32 270.756 481.32ZM276.816 482.15C276.299 482.15 275.841 482.037 275.441 481.81C275.041 481.583 274.727 481.275 274.501 480.885C274.274 480.492 274.161 480.047 274.161 479.55C274.161 479.173 274.227 478.827 274.361 478.51C274.497 478.193 274.689 477.918 274.936 477.685C275.182 477.452 275.471 477.272 275.801 477.145C276.134 477.015 276.497 476.95 276.891 476.95C277.211 476.95 277.506 476.992 277.776 477.075C278.046 477.158 278.296 477.287 278.526 477.46L278.056 478.17C277.906 478.04 277.731 477.943 277.531 477.88C277.331 477.813 277.119 477.78 276.896 477.78C276.529 477.78 276.211 477.85 275.941 477.99C275.674 478.127 275.467 478.327 275.321 478.59C275.174 478.853 275.101 479.17 275.101 479.54C275.101 480.097 275.261 480.533 275.581 480.85C275.904 481.163 276.341 481.32 276.891 481.32C277.144 481.32 277.381 481.275 277.601 481.185C277.821 481.092 278.001 480.972 278.141 480.825L278.616 481.525C278.359 481.718 278.077 481.872 277.771 481.985C277.464 482.095 277.146 482.15 276.816 482.15ZM279.684 482V474.8H280.604V479.215L282.689 477.1H283.789L282.054 478.94L284.079 482H282.969L281.384 479.535L280.604 480.32V482H279.684ZM287.221 482.15C286.701 482.15 286.242 482.042 285.846 481.825C285.449 481.608 285.139 481.307 284.916 480.92C284.692 480.53 284.581 480.077 284.581 479.56C284.581 479.187 284.644 478.84 284.771 478.52C284.901 478.2 285.081 477.923 285.311 477.69C285.544 477.457 285.816 477.275 286.126 477.145C286.439 477.015 286.779 476.95 287.146 476.95C287.542 476.95 287.896 477.02 288.206 477.16C288.519 477.3 288.777 477.497 288.981 477.75C289.187 478 289.336 478.295 289.426 478.635C289.516 478.972 289.534 479.338 289.481 479.735H285.491C285.481 480.062 285.547 480.348 285.691 480.595C285.834 480.838 286.041 481.028 286.311 481.165C286.584 481.302 286.907 481.37 287.281 481.37C287.554 481.37 287.821 481.327 288.081 481.24C288.341 481.153 288.571 481.025 288.771 480.855L289.161 481.54C289.001 481.67 288.811 481.782 288.591 481.875C288.374 481.965 288.147 482.033 287.911 482.08C287.674 482.127 287.444 482.15 287.221 482.15ZM285.541 479.02H288.561C288.547 478.607 288.419 478.285 288.176 478.055C287.932 477.822 287.584 477.705 287.131 477.705C286.691 477.705 286.327 477.822 286.041 478.055C285.754 478.285 285.587 478.607 285.541 479.02ZM292.749 482.15C292.265 482.15 291.837 482.035 291.464 481.805C291.094 481.575 290.804 481.265 290.594 480.875C290.387 480.482 290.284 480.04 290.284 479.55C290.284 479.19 290.344 478.853 290.464 478.54C290.584 478.227 290.752 477.952 290.969 477.715C291.189 477.475 291.45 477.288 291.754 477.155C292.057 477.018 292.392 476.95 292.759 476.95C293.229 476.95 293.63 477.045 293.964 477.235C294.3 477.425 294.577 477.68 294.794 478L294.609 478.205V474.8H295.529V482H294.684V480.85L294.819 481.06C294.629 481.373 294.367 481.633 294.034 481.84C293.704 482.047 293.275 482.15 292.749 482.15ZM292.914 481.32C293.244 481.32 293.535 481.248 293.789 481.105C294.045 480.958 294.247 480.753 294.394 480.49C294.54 480.223 294.614 479.91 294.614 479.55C294.614 479.187 294.54 478.873 294.394 478.61C294.25 478.343 294.05 478.138 293.794 477.995C293.537 477.852 293.244 477.78 292.914 477.78C292.584 477.78 292.29 477.852 292.034 477.995C291.78 478.138 291.58 478.343 291.434 478.61C291.29 478.873 291.219 479.187 291.219 479.55C291.219 479.91 291.29 480.223 291.434 480.49C291.58 480.753 291.782 480.958 292.039 481.105C292.295 481.248 292.587 481.32 292.914 481.32Z" fill="#FDAC76"/>
<defs>
<filter id="filter0_d_85_31190" x="240" y="224" width="140.168" height="132.039" filterUnits="userSpaceOnUse" color-interpolation-filters="sRGB">
<feFlood flood-opacity="0" result="BackgroundImageFix"/>
<feColorMatrix in="SourceAlpha" type="matrix" values="0 0 0 0 0 0 0 0 0 0 0 0 0 0 0 0 0 0 127 0" result="hardAlpha"/>
<feOffset/>
<feGaussianBlur stdDeviation="24"/>
<feComposite in2="hardAlpha" operator="out"/>
<feColorMatrix type="matrix" values="0 0 0 0 0.898039 0 0 0 0 1 0 0 0 0 0.364706 0 0 0 0.3 0"/>
<feBlend mode="normal" in2="BackgroundImageFix" result="effect1_dropShadow_85_31190"/>
<feBlend mode="normal" in="SourceGraphic" in2="effect1_dropShadow_85_31190" result="shape"/>
</filter>
<filter id="filter1_f_85_31190" x="87" y="67" width="445" height="445" filterUnits="userSpaceOnUse" color-interpolation-filters="sRGB">
<feFlood flood-opacity="0" result="BackgroundImageFix"/>
<feBlend mode="normal" in="SourceGraphic" in2="BackgroundImageFix" result="shape"/>
<feGaussianBlur stdDeviation="64" result="effect1_foregroundBlur_85_31190"/>
</filter>
<filter id="filter2_d_85_31190" x="138" y="122" width="343" height="343" filterUnits="userSpaceOnUse" color-interpolation-filters="sRGB">
<feFlood flood-opacity="0" result="BackgroundImageFix"/>
<feColorMatrix in="SourceAlpha" type="matrix" values="0 0 0 0 0 0 0 0 0 0 0 0 0 0 0 0 0 0 127 0" result="hardAlpha"/>
<feOffset dy="4"/>
<feGaussianBlur stdDeviation="64"/>
<feComposite in2="hardAlpha" operator="out"/>
<feColorMatrix type="matrix" values="0 0 0 0 0.898039 0 0 0 0 1 0 0 0 0 0.364706 0 0 0 0.3 0"/>
<feBlend mode="normal" in2="BackgroundImageFix" result="effect1_dropShadow_85_31190"/>
<feBlend mode="normal" in="SourceGraphic" in2="effect1_dropShadow_85_31190" result="shape"/>
</filter>
<filter id="filter3_d_85_31190" x="105.5" y="395.5" width="116.854" height="115.853" filterUnits="userSpaceOnUse" color-interpolation-filters="sRGB">
<feFlood flood-opacity="0" result="BackgroundImageFix"/>
<feColorMatrix in="SourceAlpha" type="matrix" values="0 0 0 0 0 0 0 0 0 0 0 0 0 0 0 0 0 0 127 0" result="hardAlpha"/>
<feOffset/>
<feGaussianBlur stdDeviation="23"/>
<feComposite in2="hardAlpha" operator="out"/>
<feColorMatrix type="matrix" values="0 0 0 0 1 0 0 0 0 1 0 0 0 0 1 0 0 0 0.2 0"/>
<feBlend mode="normal" in2="BackgroundImageFix" result="effect1_dropShadow_85_31190"/>
<feBlend mode="normal" in="SourceGraphic" in2="effect1_dropShadow_85_31190" result="shape"/>
</filter>
<filter id="filter4_d_85_31190" x="121" y="154" width="360" height="253" filterUnits="userSpaceOnUse" color-interpolation-filters="sRGB">
<feFlood flood-opacity="0" result="BackgroundImageFix"/>
<feColorMatrix in="SourceAlpha" type="matrix" values="0 0 0 0 0 0 0 0 0 0 0 0 0 0 0 0 0 0 127 0" result="hardAlpha"/>
<feOffset/>
<feGaussianBlur stdDeviation="24"/>
<feComposite in2="hardAlpha" operator="out"/>
<feColorMatrix type="matrix" values="0 0 0 0 0.898039 0 0 0 0 1 0 0 0 0 0.364706 0 0 0 1 0"/>
<feBlend mode="normal" in2="BackgroundImageFix" result="effect1_dropShadow_85_31190"/>
<feBlend mode="normal" in="SourceGraphic" in2="effect1_dropShadow_85_31190" result="shape"/>
</filter>
<linearGradient id="paint0_linear_85_31190" x1="235.358" y1="323.209" x2="405.376" y2="286.66" gradientUnits="userSpaceOnUse">
<stop stop-color="#5DA8FF" stop-opacity="0.3"/>
<stop offset="1" stop-color="#899938"/>
</linearGradient>
<linearGradient id="paint1_linear_85_31190" x1="353" y1="319.615" x2="261.468" y2="313.467" gradientUnits="userSpaceOnUse">
<stop stop-color="#E5FF5D"/>
<stop offset="1" stop-color="#5DFFFF"/>
</linearGradient>
</defs>
</svg>
