<svg width="576" height="560" viewBox="0 0 576 560" fill="none" xmlns="http://www.w3.org/2000/svg">
<g clip-path="url(#clip0_85_31136)">
<path d="M436.333 154C436.333 155.473 437.527 156.667 439 156.667C440.473 156.667 441.667 155.473 441.667 154C441.667 152.527 440.473 151.333 439 151.333C437.527 151.333 436.333 152.527 436.333 154ZM438.5 154V220H439.5V154H438.5ZM407 251.5H387V252.5H407V251.5ZM438.5 220C438.5 237.397 424.397 251.5 407 251.5V252.5C424.949 252.5 439.5 237.949 439.5 220H438.5Z" fill="#E5FF5D"/>
<path d="M153.667 413C153.667 414.473 152.473 415.667 151 415.667C149.527 415.667 148.333 414.473 148.333 413C148.333 411.527 149.527 410.333 151 410.333C152.473 410.333 153.667 411.527 153.667 413ZM184 321.5H183V320.5H184V321.5ZM151.5 353V413H150.5V353H151.5ZM183 321.5C165.603 321.5 151.5 335.603 151.5 353H150.5C150.5 335.051 165.051 320.5 183 320.5V321.5Z" fill="white" fill-opacity="0.2"/>
<path d="M448.333 339C448.333 340.473 449.527 341.667 451 341.667C452.473 341.667 453.667 340.473 453.667 339C453.667 337.527 452.473 336.333 451 336.333C449.527 336.333 448.333 337.527 448.333 339ZM390 286.5H419V285.5H390V286.5ZM450.5 318V339H451.5V318H450.5ZM419 286.5C436.397 286.5 450.5 300.603 450.5 318H451.5C451.5 300.051 436.949 285.5 419 285.5V286.5Z" fill="white" fill-opacity="0.2"/>
<path d="M98.6667 139C98.6667 140.473 97.4728 141.667 96 141.667C94.5272 141.667 93.3333 140.473 93.3333 139C93.3333 137.527 94.5272 136.333 96 136.333C97.4728 136.333 98.6667 137.527 98.6667 139ZM96.5 139V220H95.5V139H96.5ZM128 251.5H174V252.5H128V251.5ZM96.5 220C96.5 237.397 110.603 251.5 128 251.5V252.5C110.051 252.5 95.5 237.949 95.5 220H96.5Z" fill="white" fill-opacity="0.2"/>
<g filter="url(#filter0_d_85_31136)">
<circle cx="280.5" cy="272.5" r="109" stroke="url(#paint0_linear_85_31136)" shape-rendering="crispEdges"/>
</g>
<g opacity="0.5" filter="url(#filter1_f_85_31136)">
<circle cx="280.5" cy="272.5" r="140.5" fill="url(#paint1_linear_85_31136)"/>
</g>
<g opacity="0.6" filter="url(#filter2_d_85_31136)">
<path d="M189 272.5C189 323.034 229.966 364 280.5 364C331.034 364 372 323.034 372 272.5C372 221.966 331.034 181 280.5 181" stroke="url(#paint2_linear_85_31136)"/>
</g>
<g opacity="0.4" filter="url(#filter3_d_85_31136)">
<path d="M353 272.5C353 232.459 320.541 200 280.5 200C240.459 200 208 232.459 208 272.5C208 312.541 240.459 345 280.5 345" stroke="url(#paint3_linear_85_31136)"/>
</g>
<g opacity="0.2" filter="url(#filter4_d_85_31136)">
<path d="M280.5 216C249.296 216 224 241.296 224 272.5C224 303.704 249.296 329 280.5 329" stroke="url(#paint4_linear_85_31136)"/>
</g>
<g filter="url(#filter5_d_85_31136)">
<path fill-rule="evenodd" clip-rule="evenodd" d="M252.615 243.597C251.819 242.801 250.529 242.801 249.734 243.597C248.938 244.392 248.938 245.682 249.734 246.477L258.374 255.117C252.135 258.961 246.963 264.573 243.841 271.909C250.524 291.134 275.922 298.776 295.71 292.249L306.364 302.903C307.16 303.699 308.45 303.699 309.245 302.903C310.041 302.108 310.041 300.818 309.245 300.023L290.912 281.689C290.116 280.894 288.827 280.894 288.031 281.689C287.236 282.485 287.236 283.774 288.031 284.57L288.818 285.357C286.452 286.787 283.678 287.611 280.712 287.611C272.049 287.611 265.027 280.588 265.027 271.926C265.027 269.013 265.821 266.285 267.204 263.948L268.067 264.811C268.863 265.606 270.153 265.606 270.948 264.811C271.744 264.015 271.744 262.726 270.948 261.93L252.615 243.597ZM317.99 271.909C314.924 279.703 309.465 285.399 302.83 289.127L293.987 280.283C295.514 277.864 296.397 274.998 296.397 271.926C296.397 263.263 289.374 256.241 280.712 256.241C277.64 256.241 274.774 257.124 272.354 258.65L265.393 251.689C284.327 244.582 308.706 251.013 317.99 271.909ZM282.544 274.642C284.451 273.906 285.804 272.055 285.804 269.889C285.804 267.077 283.523 264.797 280.711 264.797C277.898 264.797 275.618 267.077 275.618 269.889C275.618 272.055 276.971 273.906 278.878 274.642V277.223C278.878 278.235 279.698 279.056 280.711 279.056C281.723 279.056 282.544 278.235 282.544 277.223V274.642Z" fill="#E5FF5D"/>
</g>
<rect x="435.5" y="361.5" width="29" height="24" rx="1.5" fill="#E5FF5D" stroke="#E5FF5D"/>
<path d="M454 372.286C454 374.653 452.209 376.571 450 376.571C447.791 376.571 446 374.653 446 372.286C446 369.919 447.791 368 450 368C452.209 368 454 369.919 454 372.286Z" fill="#2D2D2D"/>
<path d="M448.56 374.686C448.56 373.834 449.205 373.143 450 373.143C450.795 373.143 451.44 373.834 451.44 374.686V378.457C451.44 379.309 450.795 380 450 380C449.205 380 448.56 379.309 448.56 378.457V374.686Z" fill="#2D2D2D"/>
<path d="M459 370.5V354C459 349.029 454.971 345 450 345V345C445.029 345 441 349.029 441 354V370.5" stroke="#E5FF5D" stroke-width="2"/>
<path d="M144.649 84C144.649 84.0824 144.648 84.1647 144.648 84.247C155.911 84.3781 165 93.4504 165 104.623C165 115.795 155.911 124.867 144.649 124.999V125H57.2862C41.1119 125 28 112.03 28 96.0299C28 80.0302 41.1119 67.0599 57.2862 67.0599C59.9547 67.0599 62.5399 67.4129 64.9965 68.0744C71.2805 53.3411 86.02 43 103.201 43C126.092 43 144.649 61.3563 144.649 84Z" stroke="white" stroke-opacity="0.3"/>
<path d="M178 95.7761L180 97.7761C184.97 92.8061 193.03 92.8061 198 97.7761L200 95.7761C193.93 89.7061 184.08 89.7061 178 95.7761ZM186 103.776L189 106.776L192 103.776C190.35 102.116 187.66 102.116 186 103.776ZM182 99.7761L184 101.776C186.76 99.0161 191.24 99.0161 194 101.776L196 99.7761C192.14 95.9161 185.87 95.9161 182 99.7761Z" fill="#E5FF5D"/>
<path d="M213.591 442C213.591 442.058 213.59 442.116 213.59 442.175C221.564 442.267 228 448.684 228 456.587C228 464.489 221.565 470.906 213.591 470.999V471H151.736C140.284 471 131 461.826 131 450.509C131 439.192 140.284 430.018 151.736 430.018C153.625 430.018 155.455 430.268 157.195 430.736C161.644 420.314 172.08 413 184.245 413C200.452 413 213.591 425.984 213.591 442Z" stroke="white" stroke-opacity="0.3"/>
<path d="M456.641 130C456.641 130.038 456.641 130.076 456.641 130.114C461.82 130.175 466 134.379 466 139.557C466 144.734 461.82 148.938 456.641 148.999V149H416.467C409.03 149 403 142.989 403 135.575C403 128.16 409.03 122.15 416.467 122.15C417.695 122.15 418.883 122.313 420.013 122.62C422.903 115.792 429.681 111 437.582 111C448.108 111 456.641 119.507 456.641 130Z" stroke="white" stroke-opacity="0.3"/>
<g filter="url(#filter6_d_85_31136)">
<path d="M471.252 135.12C471.252 137.656 470.318 139.975 468.776 141.75C466.92 143.888 464.181 145.24 461.126 145.24C455.534 145.24 451 140.709 451 135.12C451 129.531 455.534 125 461.126 125C466.718 125 471.252 129.531 471.252 135.12Z" fill="#E5FF5D" fill-opacity="0.3" shape-rendering="crispEdges"/>
<path d="M468.776 141.75C470.318 139.975 471.252 137.656 471.252 135.12C471.252 129.531 466.718 125 461.126 125C455.534 125 451 129.531 451 135.12C451 140.709 455.534 145.24 461.126 145.24C464.181 145.24 466.92 143.888 468.776 141.75ZM468.776 141.75L475 148" stroke="#E5FF5D" shape-rendering="crispEdges"/>
</g>
<path opacity="0.5" d="M149.63 455V454.295L151.155 452.89C151.642 452.443 152.037 452.055 152.34 451.725C152.643 451.392 152.867 451.088 153.01 450.815C153.153 450.538 153.225 450.26 153.225 449.98C153.225 449.573 153.083 449.253 152.8 449.02C152.52 448.787 152.132 448.67 151.635 448.67C151.328 448.67 151.032 448.722 150.745 448.825C150.458 448.928 150.218 449.078 150.025 449.275L149.67 448.585C149.943 448.345 150.257 448.163 150.61 448.04C150.967 447.913 151.345 447.85 151.745 447.85C152.215 447.85 152.628 447.935 152.985 448.105C153.342 448.272 153.618 448.51 153.815 448.82C154.015 449.127 154.115 449.488 154.115 449.905C154.115 450.195 154.057 450.487 153.94 450.78C153.823 451.073 153.615 451.403 153.315 451.77C153.018 452.133 152.597 452.57 152.05 453.08L150.85 454.185H154.29V455H149.63ZM157.114 455V448.97L155.229 449.67L154.984 448.945L157.924 447.85H157.994V455H157.114ZM160.452 455.15C160.258 455.15 160.092 455.088 159.952 454.965C159.815 454.842 159.747 454.68 159.747 454.48C159.747 454.347 159.777 454.23 159.837 454.13C159.9 454.03 159.985 453.952 160.092 453.895C160.202 453.838 160.322 453.81 160.452 453.81C160.648 453.81 160.815 453.872 160.952 453.995C161.088 454.118 161.157 454.28 161.157 454.48C161.157 454.613 161.125 454.73 161.062 454.83C160.998 454.93 160.913 455.008 160.807 455.065C160.7 455.122 160.582 455.15 160.452 455.15ZM163.09 455V448.97L161.205 449.67L160.96 448.945L163.9 447.85H163.97V455H163.09ZM168.413 455.15C167.893 455.15 167.432 455.038 167.028 454.815C166.625 454.588 166.308 454.262 166.078 453.835C165.848 453.405 165.733 452.885 165.733 452.275C165.733 451.685 165.842 451.142 166.058 450.645C166.275 450.145 166.58 449.702 166.973 449.315C167.367 448.928 167.827 448.612 168.353 448.365C168.883 448.115 169.458 447.943 170.078 447.85L170.408 448.59C169.868 448.643 169.39 448.757 168.973 448.93C168.56 449.103 168.205 449.32 167.908 449.58C167.615 449.84 167.378 450.128 167.198 450.445C167.018 450.758 166.89 451.085 166.813 451.425C167.007 451.145 167.26 450.923 167.573 450.76C167.887 450.593 168.23 450.51 168.603 450.51C169.053 450.51 169.458 450.605 169.818 450.795C170.182 450.985 170.468 451.248 170.678 451.585C170.888 451.922 170.993 452.31 170.993 452.75C170.993 453.087 170.93 453.402 170.803 453.695C170.677 453.985 170.498 454.238 170.268 454.455C170.038 454.672 169.765 454.842 169.448 454.965C169.135 455.088 168.79 455.15 168.413 455.15ZM168.413 454.325C168.733 454.325 169.017 454.262 169.263 454.135C169.513 454.005 169.71 453.827 169.853 453.6C169.997 453.373 170.068 453.113 170.068 452.82C170.068 452.533 169.995 452.277 169.848 452.05C169.702 451.823 169.503 451.643 169.253 451.51C169.003 451.377 168.723 451.31 168.413 451.31C168.1 451.31 167.818 451.377 167.568 451.51C167.322 451.643 167.125 451.823 166.978 452.05C166.832 452.277 166.758 452.533 166.758 452.82C166.758 453.113 166.828 453.373 166.968 453.6C167.112 453.827 167.307 454.005 167.553 454.135C167.803 454.262 168.09 454.325 168.413 454.325ZM172.815 455.15C172.622 455.15 172.455 455.088 172.315 454.965C172.178 454.842 172.11 454.68 172.11 454.48C172.11 454.347 172.14 454.23 172.2 454.13C172.263 454.03 172.348 453.952 172.455 453.895C172.565 453.838 172.685 453.81 172.815 453.81C173.012 453.81 173.178 453.872 173.315 453.995C173.452 454.118 173.52 454.28 173.52 454.48C173.52 454.613 173.488 454.73 173.425 454.83C173.362 454.93 173.277 455.008 173.17 455.065C173.063 455.122 172.945 455.15 172.815 455.15ZM174.757 455V454.295L176.282 452.89C176.769 452.443 177.164 452.055 177.467 451.725C177.77 451.392 177.994 451.088 178.137 450.815C178.28 450.538 178.352 450.26 178.352 449.98C178.352 449.573 178.21 449.253 177.927 449.02C177.647 448.787 177.259 448.67 176.762 448.67C176.455 448.67 176.159 448.722 175.872 448.825C175.585 448.928 175.345 449.078 175.152 449.275L174.797 448.585C175.07 448.345 175.384 448.163 175.737 448.04C176.094 447.913 176.472 447.85 176.872 447.85C177.342 447.85 177.755 447.935 178.112 448.105C178.469 448.272 178.745 448.51 178.942 448.82C179.142 449.127 179.242 449.488 179.242 449.905C179.242 450.195 179.184 450.487 179.067 450.78C178.95 451.073 178.742 451.403 178.442 451.77C178.145 452.133 177.724 452.57 177.177 453.08L175.977 454.185H179.417V455H174.757ZM180.646 455V454.295L182.171 452.89C182.657 452.443 183.052 452.055 183.356 451.725C183.659 451.392 183.882 451.088 184.026 450.815C184.169 450.538 184.241 450.26 184.241 449.98C184.241 449.573 184.099 449.253 183.816 449.02C183.536 448.787 183.147 448.67 182.651 448.67C182.344 448.67 182.047 448.722 181.761 448.825C181.474 448.928 181.234 449.078 181.041 449.275L180.686 448.585C180.959 448.345 181.272 448.163 181.626 448.04C181.982 447.913 182.361 447.85 182.761 447.85C183.231 447.85 183.644 447.935 184.001 448.105C184.357 448.272 184.634 448.51 184.831 448.82C185.031 449.127 185.131 449.488 185.131 449.905C185.131 450.195 185.072 450.487 184.956 450.78C184.839 451.073 184.631 451.403 184.331 451.77C184.034 452.133 183.612 452.57 183.066 453.08L181.866 454.185H185.306V455H180.646ZM187.219 455.15C187.026 455.15 186.859 455.088 186.719 454.965C186.583 454.842 186.514 454.68 186.514 454.48C186.514 454.347 186.544 454.23 186.604 454.13C186.668 454.03 186.753 453.952 186.859 453.895C186.969 453.838 187.089 453.81 187.219 453.81C187.416 453.81 187.583 453.872 187.719 453.995C187.856 454.118 187.924 454.28 187.924 454.48C187.924 454.613 187.893 454.73 187.829 454.83C187.766 454.93 187.681 455.008 187.574 455.065C187.468 455.122 187.349 455.15 187.219 455.15ZM189.161 455V454.295L190.686 452.89C191.173 452.443 191.568 452.055 191.871 451.725C192.175 451.392 192.398 451.088 192.541 450.815C192.685 450.538 192.756 450.26 192.756 449.98C192.756 449.573 192.615 449.253 192.331 449.02C192.051 448.787 191.663 448.67 191.166 448.67C190.86 448.67 190.563 448.722 190.276 448.825C189.99 448.928 189.75 449.078 189.556 449.275L189.201 448.585C189.475 448.345 189.788 448.163 190.141 448.04C190.498 447.913 190.876 447.85 191.276 447.85C191.746 447.85 192.16 447.935 192.516 448.105C192.873 448.272 193.15 448.51 193.346 448.82C193.546 449.127 193.646 449.488 193.646 449.905C193.646 450.195 193.588 450.487 193.471 450.78C193.355 451.073 193.146 451.403 192.846 451.77C192.55 452.133 192.128 452.57 191.581 453.08L190.381 454.185H193.821V455H189.161ZM197.045 455.15C196.625 455.15 196.218 455.09 195.825 454.97C195.435 454.85 195.115 454.69 194.865 454.49L195.19 453.705C195.42 453.898 195.697 454.048 196.02 454.155C196.347 454.258 196.672 454.31 196.995 454.31C197.348 454.31 197.653 454.252 197.91 454.135C198.167 454.015 198.365 453.845 198.505 453.625C198.645 453.402 198.715 453.133 198.715 452.82C198.715 452.53 198.64 452.282 198.49 452.075C198.343 451.865 198.14 451.705 197.88 451.595C197.623 451.482 197.332 451.425 197.005 451.425C196.802 451.425 196.59 451.45 196.37 451.5C196.15 451.547 195.927 451.62 195.7 451.72L195.305 451.31L195.67 448.015L199.465 448.005V448.835H196.35L196.115 450.865C196.308 450.798 196.498 450.748 196.685 450.715C196.875 450.678 197.062 450.66 197.245 450.66C197.695 450.66 198.1 450.747 198.46 450.92C198.823 451.093 199.11 451.343 199.32 451.67C199.533 451.997 199.64 452.388 199.64 452.845C199.64 453.312 199.53 453.718 199.31 454.065C199.09 454.408 198.785 454.675 198.395 454.865C198.008 455.055 197.558 455.15 197.045 455.15ZM203.965 455V453.52H200.43V452.795L203.035 448H204.015L201.43 452.72H203.965V451.105H204.795V452.72H205.92V453.52H204.795V455H203.965Z" fill="white"/>
</g>
<defs>
<filter id="filter0_d_85_31136" x="43" y="39" width="475" height="475" filterUnits="userSpaceOnUse" color-interpolation-filters="sRGB">
<feFlood flood-opacity="0" result="BackgroundImageFix"/>
<feColorMatrix in="SourceAlpha" type="matrix" values="0 0 0 0 0 0 0 0 0 0 0 0 0 0 0 0 0 0 127 0" result="hardAlpha"/>
<feOffset dy="4"/>
<feGaussianBlur stdDeviation="64"/>
<feComposite in2="hardAlpha" operator="out"/>
<feColorMatrix type="matrix" values="0 0 0 0 0.898039 0 0 0 0 1 0 0 0 0 0.364706 0 0 0 0.3 0"/>
<feBlend mode="normal" in2="BackgroundImageFix" result="effect1_dropShadow_85_31136"/>
<feBlend mode="normal" in="SourceGraphic" in2="effect1_dropShadow_85_31136" result="shape"/>
</filter>
<filter id="filter1_f_85_31136" x="-116" y="-124" width="793" height="793" filterUnits="userSpaceOnUse" color-interpolation-filters="sRGB">
<feFlood flood-opacity="0" result="BackgroundImageFix"/>
<feBlend mode="normal" in="SourceGraphic" in2="BackgroundImageFix" result="shape"/>
<feGaussianBlur stdDeviation="128" result="effect1_foregroundBlur_85_31136"/>
</filter>
<filter id="filter2_d_85_31136" x="60.5" y="56.5" width="440" height="440" filterUnits="userSpaceOnUse" color-interpolation-filters="sRGB">
<feFlood flood-opacity="0" result="BackgroundImageFix"/>
<feColorMatrix in="SourceAlpha" type="matrix" values="0 0 0 0 0 0 0 0 0 0 0 0 0 0 0 0 0 0 127 0" result="hardAlpha"/>
<feOffset dy="4"/>
<feGaussianBlur stdDeviation="64"/>
<feComposite in2="hardAlpha" operator="out"/>
<feColorMatrix type="matrix" values="0 0 0 0 0.898039 0 0 0 0 1 0 0 0 0 0.364706 0 0 0 0.3 0"/>
<feBlend mode="normal" in2="BackgroundImageFix" result="effect1_dropShadow_85_31136"/>
<feBlend mode="normal" in="SourceGraphic" in2="effect1_dropShadow_85_31136" result="shape"/>
</filter>
<filter id="filter3_d_85_31136" x="79.5" y="75.5" width="402" height="402" filterUnits="userSpaceOnUse" color-interpolation-filters="sRGB">
<feFlood flood-opacity="0" result="BackgroundImageFix"/>
<feColorMatrix in="SourceAlpha" type="matrix" values="0 0 0 0 0 0 0 0 0 0 0 0 0 0 0 0 0 0 127 0" result="hardAlpha"/>
<feOffset dy="4"/>
<feGaussianBlur stdDeviation="64"/>
<feComposite in2="hardAlpha" operator="out"/>
<feColorMatrix type="matrix" values="0 0 0 0 0.898039 0 0 0 0 1 0 0 0 0 0.364706 0 0 0 0.3 0"/>
<feBlend mode="normal" in2="BackgroundImageFix" result="effect1_dropShadow_85_31136"/>
<feBlend mode="normal" in="SourceGraphic" in2="effect1_dropShadow_85_31136" result="shape"/>
</filter>
<filter id="filter4_d_85_31136" x="95.5" y="91.5" width="313" height="370" filterUnits="userSpaceOnUse" color-interpolation-filters="sRGB">
<feFlood flood-opacity="0" result="BackgroundImageFix"/>
<feColorMatrix in="SourceAlpha" type="matrix" values="0 0 0 0 0 0 0 0 0 0 0 0 0 0 0 0 0 0 127 0" result="hardAlpha"/>
<feOffset dy="4"/>
<feGaussianBlur stdDeviation="64"/>
<feComposite in2="hardAlpha" operator="out"/>
<feColorMatrix type="matrix" values="0 0 0 0 0.898039 0 0 0 0 1 0 0 0 0 0.364706 0 0 0 0.3 0"/>
<feBlend mode="normal" in2="BackgroundImageFix" result="effect1_dropShadow_85_31136"/>
<feBlend mode="normal" in="SourceGraphic" in2="effect1_dropShadow_85_31136" result="shape"/>
</filter>
<filter id="filter5_d_85_31136" x="195.841" y="195" width="170.148" height="156.5" filterUnits="userSpaceOnUse" color-interpolation-filters="sRGB">
<feFlood flood-opacity="0" result="BackgroundImageFix"/>
<feColorMatrix in="SourceAlpha" type="matrix" values="0 0 0 0 0 0 0 0 0 0 0 0 0 0 0 0 0 0 127 0" result="hardAlpha"/>
<feOffset/>
<feGaussianBlur stdDeviation="24"/>
<feComposite in2="hardAlpha" operator="out"/>
<feColorMatrix type="matrix" values="0 0 0 0 0.898039 0 0 0 0 1 0 0 0 0 0.364706 0 0 0 0.3 0"/>
<feBlend mode="normal" in2="BackgroundImageFix" result="effect1_dropShadow_85_31136"/>
<feBlend mode="normal" in="SourceGraphic" in2="effect1_dropShadow_85_31136" result="shape"/>
</filter>
<filter id="filter6_d_85_31136" x="404.5" y="78.5" width="116.854" height="115.853" filterUnits="userSpaceOnUse" color-interpolation-filters="sRGB">
<feFlood flood-opacity="0" result="BackgroundImageFix"/>
<feColorMatrix in="SourceAlpha" type="matrix" values="0 0 0 0 0 0 0 0 0 0 0 0 0 0 0 0 0 0 127 0" result="hardAlpha"/>
<feOffset/>
<feGaussianBlur stdDeviation="23"/>
<feComposite in2="hardAlpha" operator="out"/>
<feColorMatrix type="matrix" values="0 0 0 0 1 0 0 0 0 1 0 0 0 0 1 0 0 0 0.2 0"/>
<feBlend mode="normal" in2="BackgroundImageFix" result="effect1_dropShadow_85_31136"/>
<feBlend mode="normal" in="SourceGraphic" in2="effect1_dropShadow_85_31136" result="shape"/>
</filter>
<linearGradient id="paint0_linear_85_31136" x1="390" y1="348.308" x2="159.592" y2="332.831" gradientUnits="userSpaceOnUse">
<stop stop-color="#E5FF5D"/>
<stop offset="1" stop-color="#5DFFFF"/>
</linearGradient>
<linearGradient id="paint1_linear_85_31136" x1="170.268" y1="322.617" x2="423.046" y2="268.277" gradientUnits="userSpaceOnUse">
<stop stop-color="#5DA8FF" stop-opacity="0.3"/>
<stop offset="1" stop-color="#899938"/>
</linearGradient>
<linearGradient id="paint2_linear_85_31136" x1="372" y1="335.846" x2="179.467" y2="322.913" gradientUnits="userSpaceOnUse">
<stop stop-color="#E5FF5D"/>
<stop offset="1" stop-color="#5DFFFF"/>
</linearGradient>
<linearGradient id="paint3_linear_85_31136" x1="208" y1="222.308" x2="360.553" y2="232.555" gradientUnits="userSpaceOnUse">
<stop stop-color="#E5FF5D"/>
<stop offset="1" stop-color="#5DFFFF"/>
</linearGradient>
<linearGradient id="paint4_linear_85_31136" x1="224" y1="233.385" x2="283.644" y2="235.388" gradientUnits="userSpaceOnUse">
<stop stop-color="#E5FF5D"/>
<stop offset="1" stop-color="#5DFFFF"/>
</linearGradient>
<clipPath id="clip0_85_31136">
<rect width="576" height="560" fill="white"/>
</clipPath>
</defs>
</svg>
