<svg width="576" height="560" viewBox="0 0 576 560" fill="none" xmlns="http://www.w3.org/2000/svg">
<g clip-path="url(#clip0_85_31033)">
<g opacity="0.2" filter="url(#filter0_f_85_31033)">
<circle cx="288.5" cy="309.5" r="128.5" fill="url(#paint0_linear_85_31033)"/>
</g>
<path d="M288 372L288 282" stroke="#FDAC76" stroke-dasharray="4 4"/>
<path d="M257 248H242.853C226.47 248 212.733 235.626 211.027 219.332L203.001 142.668C201.295 126.374 187.558 114 171.175 114H170.5" stroke="white" stroke-opacity="0.3"/>
<path d="M257 248H242.797C226.333 248 212.555 260.494 210.95 276.88L202.5 363.12C200.895 379.507 187.117 392 170.653 392H170" stroke="white" stroke-opacity="0.3"/>
<path d="M320 248H334.147C350.53 248 364.267 235.626 365.973 219.332L373.999 142.668C375.705 126.374 389.442 114 405.825 114H406.5" stroke="white" stroke-opacity="0.3"/>
<path d="M155 202L228.611 169.676C247.321 176.859 291.181 187.634 291.181 187.634C291.181 187.634 338.721 171.592 359.271 165.366C379.821 159.141 420 151 420 151" stroke="url(#paint1_linear_85_31033)" stroke-width="3" stroke-linejoin="round"/>
<path d="M155 172.453L199.029 197.726C237.952 208.165 290.381 151 290.381 151C290.381 151 339.806 194.383 360.375 188.186C380.943 181.988 423 191.761 423 191.761" stroke="url(#paint2_linear_85_31033)" stroke-width="3" stroke-linejoin="round"/>
<path d="M320 248H334.203C350.667 248 364.445 260.494 366.05 276.88L374.5 363.12C376.105 379.507 389.883 392 406.347 392H407" stroke="white" stroke-opacity="0.3"/>
<g filter="url(#filter1_d_85_31033)">
<circle cx="288" cy="245" r="32" fill="white" fill-opacity="0.02" shape-rendering="crispEdges"/>
<circle cx="288" cy="245" r="32" stroke="white" stroke-opacity="0.3" shape-rendering="crispEdges"/>
</g>
<path d="M299.167 254C300.633 254 301.833 252.8 301.833 251.333V238C301.833 236.533 300.633 235.333 299.167 235.333H277.833C276.367 235.333 275.167 236.533 275.167 238V251.333C275.167 252.8 276.367 254 277.833 254H272.5V256.667H304.5V254H299.167ZM277.833 238H299.167V251.333H277.833V238Z" fill="#E5FF5D"/>
<path d="M159.196 106C159.196 106.04 159.196 106.08 159.195 106.12C164.621 106.184 169 110.61 169 116.06C169 121.51 164.621 125.935 159.196 125.999V126H117.109C109.317 126 103 119.673 103 111.868C103 104.064 109.317 97.7365 117.109 97.7365C118.394 97.7365 119.64 97.9087 120.823 98.2314C123.85 91.0444 130.951 86 139.228 86C150.256 86 159.196 94.9543 159.196 106Z" stroke="white" stroke-opacity="0.3"/>
<path d="M154.293 379C154.293 379.06 154.293 379.121 154.293 379.181C162.432 379.277 169 385.915 169 394.09C169 402.265 162.432 408.903 154.293 408.999V409H91.163C79.475 409 70 399.51 70 387.802C70 376.095 79.475 366.605 91.163 366.605C93.0914 366.605 94.9595 366.863 96.7347 367.347C101.276 356.567 111.927 349 124.342 349C140.884 349 154.293 362.431 154.293 379Z" stroke="white" stroke-opacity="0.3"/>
<g filter="url(#filter2_d_85_31033)">
<path d="M119.252 129.12C119.252 131.656 118.318 133.975 116.776 135.75C114.92 137.888 112.181 139.24 109.126 139.24C103.534 139.24 99 134.709 99 129.12C99 123.531 103.534 119 109.126 119C114.718 119 119.252 123.531 119.252 129.12Z" fill="#E5FF5D" fill-opacity="0.3" shape-rendering="crispEdges"/>
<path d="M116.776 135.75C118.318 133.975 119.252 131.656 119.252 129.12C119.252 123.531 114.718 119 109.126 119C103.534 119 99 123.531 99 129.12C99 134.709 103.534 139.24 109.126 139.24C112.181 139.24 114.92 137.888 116.776 135.75ZM116.776 135.75L123 142" stroke="#E5FF5D" shape-rendering="crispEdges"/>
</g>
<rect x="109.5" y="378.233" width="21" height="17.3333" rx="1.5" fill="#E5FF5D" stroke="#E5FF5D"/>
<path d="M122.933 386.01C122.933 387.745 121.62 389.152 120 389.152C118.38 389.152 117.067 387.745 117.067 386.01C117.067 384.274 118.38 382.867 120 382.867C121.62 382.867 122.933 384.274 122.933 386.01Z" fill="#2D2D2D"/>
<path d="M118.944 387.77C118.944 387.145 119.417 386.638 120 386.638C120.583 386.638 121.056 387.145 121.056 387.77V390.535C121.056 391.16 120.583 391.667 120 391.667C119.417 391.667 118.944 391.16 118.944 390.535V387.77Z" fill="#2D2D2D"/>
<path d="M126.6 384.7V372.6C126.6 368.955 123.645 366 120 366V366C116.355 366 113.4 368.955 113.4 372.6V384.7" stroke="#E5FF5D" stroke-width="2"/>
<path d="M461.196 106C461.196 106.04 461.196 106.08 461.195 106.12C466.621 106.184 471 110.61 471 116.06C471 121.51 466.621 125.935 461.196 125.999V126H419.109C411.317 126 405 119.673 405 111.868C405 104.064 411.317 97.7365 419.109 97.7365C420.394 97.7365 421.64 97.9087 422.823 98.2314C425.85 91.0444 432.951 86 441.228 86C452.256 86 461.196 94.9543 461.196 106Z" stroke="white" stroke-opacity="0.3"/>
<rect x="438.5" y="119.5" width="53" height="12" rx="6" fill="#181818" stroke="#5C5C5C"/>
<path d="M448.424 128L447.602 127.344L448.696 125.847L447 125.333L447.324 124.247L448.956 124.947L448.858 123H449.882L449.79 124.928L451.422 124.24L451.746 125.326L450.05 125.828L451.161 127.344L450.322 127.994L449.379 126.368L448.424 128Z" fill="white"/>
<path d="M454.675 128L453.853 127.344L454.947 125.847L453.251 125.333L453.575 124.247L455.207 124.947L455.109 123H456.133L456.04 124.928L457.672 124.24L457.997 125.326L456.301 125.828L457.412 127.344L456.573 127.994L455.629 126.368L454.675 128Z" fill="white"/>
<path d="M460.925 128L460.104 127.344L461.197 125.847L459.502 125.333L459.826 124.247L461.458 124.947L461.359 123H462.384L462.291 124.928L463.923 124.24L464.247 125.326L462.552 125.828L463.663 127.344L462.824 127.994L461.88 126.368L460.925 128Z" fill="white"/>
<path d="M467.176 128L466.354 127.344L467.448 125.847L465.753 125.333L466.077 124.247L467.709 124.947L467.61 123H468.635L468.542 124.928L470.174 124.24L470.498 125.326L468.803 125.828L469.914 127.344L469.075 127.994L468.131 126.368L467.176 128Z" fill="white"/>
<path d="M473.427 128L472.605 127.344L473.699 125.847L472.003 125.333L472.328 124.247L473.96 124.947L473.861 123H474.886L474.793 124.928L476.425 124.24L476.749 125.326L475.053 125.828L476.165 127.344L475.325 127.994L474.382 126.368L473.427 128Z" fill="white"/>
<path d="M479.678 128L478.856 127.344L479.95 125.847L478.254 125.333L478.578 124.247L480.21 124.947L480.112 123H481.136L481.044 124.928L482.676 124.24L483 125.326L481.304 125.828L482.415 127.344L481.576 127.994L480.633 126.368L479.678 128Z" fill="white"/>
<path d="M422.707 379C422.707 379.06 422.707 379.121 422.707 379.181C414.568 379.277 408 385.915 408 394.09C408 402.265 414.568 408.903 422.707 408.999V409H485.837C497.525 409 507 399.51 507 387.802C507 376.095 497.525 366.605 485.837 366.605C483.909 366.605 482.041 366.863 480.265 367.347C475.724 356.567 465.073 349 452.658 349C436.116 349 422.707 362.431 422.707 379Z" stroke="white" stroke-opacity="0.3"/>
<path d="M458.953 407C458.953 407.04 458.953 407.08 458.953 407.12C453.445 407.184 449 411.61 449 417.06C449 422.51 453.445 426.935 458.953 426.999V427H501.678C509.588 427 516 420.673 516 412.868C516 405.064 509.588 398.737 501.678 398.737C500.373 398.737 499.108 398.909 497.907 399.231C494.834 392.044 487.625 387 479.223 387C468.028 387 458.953 395.954 458.953 407Z" fill="#161616" stroke="white" stroke-opacity="0.3"/>
<g filter="url(#filter3_d_85_31033)">
<rect x="239" y="374" width="162" height="99" rx="12" fill="#1A1A1A" shape-rendering="crispEdges"/>
<rect x="239" y="374" width="162" height="99" rx="12" stroke="#FDAC76" stroke-opacity="0.2" shape-rendering="crispEdges"/>
</g>
<rect x="289" y="451" width="63" height="4" rx="2" fill="#5C5C5C"/>
<path d="M263.274 436V426.2H266.823C267.518 426.2 268.132 426.321 268.664 426.564C269.201 426.802 269.621 427.147 269.924 427.6C270.227 428.048 270.379 428.587 270.379 429.217C270.379 429.866 270.239 430.414 269.959 430.862C269.679 431.305 269.271 431.644 268.734 431.877C268.202 432.106 267.553 432.22 266.788 432.22H264.842V436H263.274ZM264.842 430.876H266.809C267.444 430.876 267.936 430.743 268.286 430.477C268.636 430.206 268.811 429.798 268.811 429.252C268.811 428.711 268.631 428.295 268.272 428.006C267.913 427.717 267.43 427.572 266.823 427.572H264.842V430.876ZM274.882 436.21C274.159 436.21 273.513 436.044 272.943 435.713C272.379 435.377 271.935 434.931 271.613 434.376C271.291 433.816 271.13 433.202 271.13 432.535C271.13 432.04 271.221 431.574 271.403 431.135C271.59 430.692 271.851 430.3 272.187 429.959C272.528 429.618 272.927 429.35 273.384 429.154C273.842 428.958 274.343 428.86 274.889 428.86C275.613 428.86 276.257 429.028 276.821 429.364C277.391 429.695 277.836 430.141 278.158 430.701C278.48 431.256 278.641 431.868 278.641 432.535C278.641 433.025 278.548 433.492 278.361 433.935C278.179 434.378 277.92 434.77 277.584 435.111C277.248 435.452 276.852 435.72 276.394 435.916C275.937 436.112 275.433 436.21 274.882 436.21ZM274.882 434.845C275.312 434.845 275.692 434.752 276.023 434.565C276.359 434.374 276.623 434.105 276.814 433.76C277.006 433.415 277.101 433.006 277.101 432.535C277.101 432.064 277.006 431.655 276.814 431.31C276.623 430.96 276.359 430.692 276.023 430.505C275.692 430.318 275.312 430.225 274.882 430.225C274.453 430.225 274.07 430.318 273.734 430.505C273.403 430.692 273.142 430.96 272.95 431.31C272.764 431.655 272.67 432.064 272.67 432.535C272.67 433.006 272.766 433.415 272.957 433.76C273.149 434.105 273.41 434.374 273.741 434.565C274.077 434.752 274.458 434.845 274.882 434.845ZM283.032 436.21C282.355 436.21 281.814 436.014 281.408 435.622C281.002 435.23 280.799 434.63 280.799 433.823V427.047H282.339V429.07H284.264V430.344H282.339V433.487C282.339 433.972 282.43 434.315 282.612 434.516C282.798 434.712 283.06 434.81 283.396 434.81C283.559 434.81 283.713 434.791 283.858 434.754C284.002 434.717 284.133 434.668 284.25 434.607L284.523 435.853C284.322 435.956 284.091 436.04 283.83 436.105C283.573 436.175 283.307 436.21 283.032 436.21ZM279.28 430.344V429.07H281.002V430.344H279.28ZM289.258 436.21C288.512 436.21 287.856 436.058 287.291 435.755C286.727 435.447 286.286 435.018 285.968 434.467C285.656 433.916 285.499 433.277 285.499 432.549C285.499 432.017 285.59 431.527 285.772 431.079C285.954 430.626 286.211 430.234 286.542 429.903C286.874 429.572 287.261 429.315 287.704 429.133C288.152 428.951 288.64 428.86 289.167 428.86C289.741 428.86 290.252 428.963 290.7 429.168C291.148 429.369 291.519 429.651 291.813 430.015C292.112 430.379 292.322 430.806 292.443 431.296C292.569 431.781 292.59 432.309 292.506 432.878H286.976C286.967 433.293 287.058 433.657 287.249 433.97C287.441 434.278 287.714 434.518 288.068 434.691C288.428 434.864 288.85 434.95 289.335 434.95C289.727 434.95 290.105 434.892 290.469 434.775C290.838 434.654 291.172 434.476 291.47 434.243L292.065 435.349C291.841 435.531 291.571 435.687 291.253 435.818C290.936 435.944 290.605 436.04 290.259 436.105C289.914 436.175 289.58 436.21 289.258 436.21ZM287.067 431.744H290.994C290.98 431.221 290.812 430.811 290.49 430.512C290.173 430.213 289.72 430.064 289.132 430.064C288.563 430.064 288.089 430.213 287.711 430.512C287.338 430.811 287.123 431.221 287.067 431.744ZM294.106 436V429.07H295.646V429.952C295.935 429.565 296.271 429.287 296.654 429.119C297.037 428.946 297.433 428.86 297.844 428.86C298.479 428.86 299.004 428.986 299.419 429.238C299.834 429.49 300.142 429.814 300.343 430.211C300.548 430.608 300.651 431.016 300.651 431.436V436H299.111V431.912C299.111 431.417 298.962 431.021 298.663 430.722C298.369 430.423 297.958 430.274 297.431 430.274C297.086 430.274 296.778 430.351 296.507 430.505C296.241 430.659 296.031 430.874 295.877 431.149C295.723 431.42 295.646 431.737 295.646 432.101V436H294.106ZM305.495 436.21C304.818 436.21 304.277 436.014 303.871 435.622C303.465 435.23 303.262 434.63 303.262 433.823V427.047H304.802V429.07H306.727V430.344H304.802V433.487C304.802 433.972 304.893 434.315 305.075 434.516C305.261 434.712 305.523 434.81 305.859 434.81C306.022 434.81 306.176 434.791 306.321 434.754C306.465 434.717 306.596 434.668 306.713 434.607L306.986 435.853C306.785 435.956 306.554 436.04 306.293 436.105C306.036 436.175 305.77 436.21 305.495 436.21ZM301.743 430.344V429.07H303.465V430.344H301.743ZM308.598 436V429.07H310.138V436H308.598ZM309.368 427.831C309.093 427.831 308.855 427.742 308.654 427.565C308.454 427.388 308.353 427.154 308.353 426.865C308.353 426.58 308.454 426.349 308.654 426.172C308.855 425.99 309.093 425.899 309.368 425.899C309.644 425.899 309.882 425.99 310.082 426.172C310.283 426.349 310.383 426.58 310.383 426.865C310.383 427.154 310.283 427.388 310.082 427.565C309.882 427.742 309.644 427.831 309.368 427.831ZM314.201 436.21C313.72 436.21 313.298 436.121 312.934 435.944C312.57 435.762 312.285 435.508 312.08 435.181C311.879 434.85 311.779 434.46 311.779 434.012C311.779 433.634 311.875 433.293 312.066 432.99C312.257 432.682 312.554 432.428 312.955 432.227C313.361 432.026 313.881 431.893 314.516 431.828C315.151 431.758 315.914 431.767 316.805 431.856L316.833 432.92C316.198 432.831 315.652 432.794 315.195 432.808C314.738 432.822 314.362 432.88 314.068 432.983C313.779 433.081 313.564 433.214 313.424 433.382C313.289 433.545 313.221 433.734 313.221 433.949C313.221 434.285 313.34 434.544 313.578 434.726C313.821 434.908 314.152 434.999 314.572 434.999C314.931 434.999 315.253 434.934 315.538 434.803C315.823 434.672 316.047 434.488 316.21 434.25C316.378 434.012 316.462 433.732 316.462 433.41V431.569C316.462 431.261 316.397 430.995 316.266 430.771C316.135 430.542 315.937 430.365 315.671 430.239C315.405 430.113 315.074 430.05 314.677 430.05C314.313 430.05 313.954 430.106 313.599 430.218C313.244 430.325 312.906 430.496 312.584 430.729L312.15 429.595C312.584 429.301 313.037 429.093 313.508 428.972C313.979 428.851 314.432 428.79 314.866 428.79C315.51 428.79 316.061 428.893 316.518 429.098C316.98 429.299 317.335 429.604 317.582 430.015C317.829 430.421 317.953 430.934 317.953 431.555V436H316.567V435.181C316.334 435.512 316.009 435.767 315.594 435.944C315.179 436.121 314.714 436.21 314.201 436.21ZM320.001 436V425.92H321.541V436H320.001ZM326.186 436L329.994 426.2H331.695L335.601 436H333.83L332.927 433.662H328.776L327.908 436H326.186ZM329.182 432.311H332.507L330.813 428.041L329.182 432.311ZM339.305 436.21C338.629 436.21 338.087 436.014 337.681 435.622C337.275 435.23 337.072 434.63 337.072 433.823V427.047H338.612V429.07H340.537V430.344H338.612V433.487C338.612 433.972 338.703 434.315 338.885 434.516C339.072 434.712 339.333 434.81 339.669 434.81C339.833 434.81 339.987 434.791 340.131 434.754C340.276 434.717 340.407 434.668 340.523 434.607L340.796 435.853C340.596 435.956 340.365 436.04 340.103 436.105C339.847 436.175 339.581 436.21 339.305 436.21ZM335.553 430.344V429.07H337.275V430.344H335.553ZM345.321 436.21C344.644 436.21 344.103 436.014 343.697 435.622C343.291 435.23 343.088 434.63 343.088 433.823V427.047H344.628V429.07H346.553V430.344H344.628V433.487C344.628 433.972 344.719 434.315 344.901 434.516C345.088 434.712 345.349 434.81 345.685 434.81C345.848 434.81 346.002 434.791 346.147 434.754C346.292 434.717 346.422 434.668 346.539 434.607L346.812 435.853C346.611 435.956 346.38 436.04 346.119 436.105C345.862 436.175 345.596 436.21 345.321 436.21ZM341.569 430.344V429.07H343.291V430.344H341.569ZM350.35 436.21C349.869 436.21 349.447 436.121 349.083 435.944C348.719 435.762 348.434 435.508 348.229 435.181C348.028 434.85 347.928 434.46 347.928 434.012C347.928 433.634 348.023 433.293 348.215 432.99C348.406 432.682 348.702 432.428 349.104 432.227C349.51 432.026 350.03 431.893 350.665 431.828C351.299 431.758 352.062 431.767 352.954 431.856L352.982 432.92C352.347 432.831 351.801 432.794 351.344 432.808C350.886 432.822 350.511 432.88 350.217 432.983C349.927 433.081 349.713 433.214 349.573 433.382C349.437 433.545 349.37 433.734 349.37 433.949C349.37 434.285 349.489 434.544 349.727 434.726C349.969 434.908 350.301 434.999 350.721 434.999C351.08 434.999 351.402 434.934 351.687 434.803C351.971 434.672 352.195 434.488 352.359 434.25C352.527 434.012 352.611 433.732 352.611 433.41V431.569C352.611 431.261 352.545 430.995 352.415 430.771C352.284 430.542 352.086 430.365 351.82 430.239C351.554 430.113 351.222 430.05 350.826 430.05C350.462 430.05 350.102 430.106 349.748 430.218C349.393 430.325 349.055 430.496 348.733 430.729L348.299 429.595C348.733 429.301 349.185 429.093 349.657 428.972C350.128 428.851 350.581 428.79 351.015 428.79C351.659 428.79 352.209 428.893 352.667 429.098C353.129 429.299 353.483 429.604 353.731 430.015C353.978 430.421 354.102 430.934 354.102 431.555V436H352.716V435.181C352.482 435.512 352.158 435.767 351.743 435.944C351.327 436.121 350.863 436.21 350.35 436.21ZM359.327 436.21C358.599 436.21 357.95 436.051 357.381 435.734C356.812 435.412 356.364 434.976 356.037 434.425C355.715 433.87 355.554 433.24 355.554 432.535C355.554 432.003 355.65 431.515 355.841 431.072C356.032 430.624 356.303 430.234 356.653 429.903C357.003 429.572 357.414 429.315 357.885 429.133C358.361 428.951 358.877 428.86 359.432 428.86C359.899 428.86 360.33 428.923 360.727 429.049C361.128 429.17 361.497 429.359 361.833 429.616L361.091 430.792C360.876 430.601 360.629 430.458 360.349 430.365C360.074 430.272 359.78 430.225 359.467 430.225C358.982 430.225 358.564 430.316 358.214 430.498C357.864 430.68 357.591 430.944 357.395 431.289C357.204 431.63 357.108 432.043 357.108 432.528C357.108 433.251 357.318 433.818 357.738 434.229C358.163 434.64 358.739 434.845 359.467 434.845C359.812 434.845 360.139 434.782 360.447 434.656C360.755 434.525 361.012 434.355 361.217 434.145L361.952 435.314C361.583 435.594 361.173 435.813 360.72 435.972C360.267 436.131 359.803 436.21 359.327 436.21ZM363.368 436V425.92H364.908V431.884L367.638 429.07H369.458L367.008 431.723L369.815 436H367.974L365.888 432.724L364.908 433.718V436H363.368ZM373.513 436.203C372.939 436.203 372.402 436.121 371.903 435.958C371.403 435.795 370.983 435.575 370.643 435.3L371.224 434.173C371.546 434.425 371.907 434.623 372.309 434.768C372.715 434.913 373.114 434.985 373.506 434.985C373.958 434.985 374.311 434.906 374.563 434.747C374.815 434.588 374.941 434.367 374.941 434.082C374.941 433.811 374.831 433.613 374.612 433.487C374.397 433.356 373.986 433.221 373.38 433.081C372.507 432.899 371.872 432.642 371.476 432.311C371.084 431.975 370.888 431.511 370.888 430.918C370.888 430.503 371.002 430.136 371.231 429.819C371.464 429.497 371.784 429.245 372.19 429.063C372.596 428.881 373.065 428.79 373.597 428.79C374.115 428.79 374.602 428.865 375.06 429.014C375.517 429.159 375.914 429.364 376.25 429.63L375.704 430.764C375.531 430.61 375.33 430.477 375.102 430.365C374.873 430.253 374.63 430.167 374.374 430.106C374.122 430.041 373.87 430.008 373.618 430.008C373.226 430.008 372.906 430.085 372.659 430.239C372.416 430.388 372.295 430.596 372.295 430.862C372.295 431.137 372.411 431.34 372.645 431.471C372.878 431.602 373.279 431.732 373.849 431.863C374.745 432.059 375.386 432.32 375.774 432.647C376.161 432.974 376.355 433.426 376.355 434.005C376.355 434.448 376.236 434.836 375.998 435.167C375.76 435.494 375.426 435.748 374.997 435.93C374.572 436.112 374.077 436.203 373.513 436.203Z" fill="white"/>
<path d="M320 390.325L330.04 407.672H309.96L320 390.325ZM307.653 406.338C306.627 408.112 307.907 410.338 309.96 410.338H330.04C332.093 410.338 333.373 408.112 332.347 406.338L322.307 388.992C321.28 387.218 318.72 387.218 317.693 388.992L307.653 406.338ZM318.667 397.005V399.672C318.667 400.405 319.267 401.005 320 401.005C320.733 401.005 321.333 400.405 321.333 399.672V397.005C321.333 396.272 320.733 395.672 320 395.672C319.267 395.672 318.667 396.272 318.667 397.005ZM318.667 403.672H321.333V406.338H318.667V403.672Z" fill="#FDAC76"/>
</g>
<defs>
<filter id="filter0_f_85_31033" x="32" y="53" width="513" height="513" filterUnits="userSpaceOnUse" color-interpolation-filters="sRGB">
<feFlood flood-opacity="0" result="BackgroundImageFix"/>
<feBlend mode="normal" in="SourceGraphic" in2="BackgroundImageFix" result="shape"/>
<feGaussianBlur stdDeviation="64" result="effect1_foregroundBlur_85_31033"/>
</filter>
<filter id="filter1_d_85_31033" x="209.5" y="166.5" width="157" height="157" filterUnits="userSpaceOnUse" color-interpolation-filters="sRGB">
<feFlood flood-opacity="0" result="BackgroundImageFix"/>
<feColorMatrix in="SourceAlpha" type="matrix" values="0 0 0 0 0 0 0 0 0 0 0 0 0 0 0 0 0 0 127 0" result="hardAlpha"/>
<feOffset/>
<feGaussianBlur stdDeviation="23"/>
<feComposite in2="hardAlpha" operator="out"/>
<feColorMatrix type="matrix" values="0 0 0 0 0.898039 0 0 0 0 1 0 0 0 0 0.364706 0 0 0 0.5 0"/>
<feBlend mode="normal" in2="BackgroundImageFix" result="effect1_dropShadow_85_31033"/>
<feBlend mode="normal" in="SourceGraphic" in2="effect1_dropShadow_85_31033" result="shape"/>
</filter>
<filter id="filter2_d_85_31033" x="52.5" y="72.5" width="116.854" height="115.853" filterUnits="userSpaceOnUse" color-interpolation-filters="sRGB">
<feFlood flood-opacity="0" result="BackgroundImageFix"/>
<feColorMatrix in="SourceAlpha" type="matrix" values="0 0 0 0 0 0 0 0 0 0 0 0 0 0 0 0 0 0 127 0" result="hardAlpha"/>
<feOffset/>
<feGaussianBlur stdDeviation="23"/>
<feComposite in2="hardAlpha" operator="out"/>
<feColorMatrix type="matrix" values="0 0 0 0 1 0 0 0 0 1 0 0 0 0 1 0 0 0 0.2 0"/>
<feBlend mode="normal" in2="BackgroundImageFix" result="effect1_dropShadow_85_31033"/>
<feBlend mode="normal" in="SourceGraphic" in2="effect1_dropShadow_85_31033" result="shape"/>
</filter>
<filter id="filter3_d_85_31033" x="192.5" y="327.5" width="255" height="192" filterUnits="userSpaceOnUse" color-interpolation-filters="sRGB">
<feFlood flood-opacity="0" result="BackgroundImageFix"/>
<feColorMatrix in="SourceAlpha" type="matrix" values="0 0 0 0 0 0 0 0 0 0 0 0 0 0 0 0 0 0 127 0" result="hardAlpha"/>
<feOffset/>
<feGaussianBlur stdDeviation="23"/>
<feComposite in2="hardAlpha" operator="out"/>
<feColorMatrix type="matrix" values="0 0 0 0 0.992157 0 0 0 0 0.67451 0 0 0 0 0.462745 0 0 0 0.5 0"/>
<feBlend mode="normal" in2="BackgroundImageFix" result="effect1_dropShadow_85_31033"/>
<feBlend mode="normal" in="SourceGraphic" in2="effect1_dropShadow_85_31033" result="shape"/>
</filter>
<linearGradient id="paint0_linear_85_31033" x1="187.683" y1="355.337" x2="418.871" y2="305.638" gradientUnits="userSpaceOnUse">
<stop stop-color="#5DA8FF" stop-opacity="0.3"/>
<stop offset="1" stop-color="#899938"/>
</linearGradient>
<linearGradient id="paint1_linear_85_31033" x1="155" y1="176.5" x2="420" y2="176.5" gradientUnits="userSpaceOnUse">
<stop stop-color="#E5FF5D" stop-opacity="0"/>
<stop offset="0.545" stop-color="#E5FF5D"/>
<stop offset="1" stop-color="#E5FF5D" stop-opacity="0"/>
</linearGradient>
<linearGradient id="paint2_linear_85_31033" x1="155" y1="171.381" x2="423" y2="171.381" gradientUnits="userSpaceOnUse">
<stop stop-color="#5DFFFF" stop-opacity="0"/>
<stop offset="0.46" stop-color="#5DFFFF"/>
<stop offset="1" stop-color="#5DFFFF" stop-opacity="0"/>
</linearGradient>
<clipPath id="clip0_85_31033">
<rect width="576" height="560" fill="white"/>
</clipPath>
</defs>
</svg>
