<svg width="576" height="560" fill="none" xmlns="http://www.w3.org/2000/svg"><g clip-path="url(#a)"><path d="M436.333 154a2.667 2.667 0 1 0 5.334 0 2.667 2.667 0 0 0-5.334 0Zm2.167 0v66h1v-66h-1ZM407 251.5h-20v1h20v-1Zm31.5-31.5c0 17.397-14.103 31.5-31.5 31.5v1c17.949 0 32.5-14.551 32.5-32.5h-1Z" fill="#E5FF5D"/><path d="M153.667 413a2.667 2.667 0 1 1-5.334 0 2.667 2.667 0 0 1 5.334 0ZM184 321.5h-1v-1h1v1ZM151.5 353v60h-1v-60h1Zm31.5-31.5c-17.397 0-31.5 14.103-31.5 31.5h-1c0-17.949 14.551-32.5 32.5-32.5v1ZM448.333 339a2.667 2.667 0 1 0 5.334 0 2.667 2.667 0 0 0-5.334 0ZM390 286.5h29v-1h-29v1Zm60.5 31.5v21h1v-21h-1ZM419 286.5c17.397 0 31.5 14.103 31.5 31.5h1c0-17.949-14.551-32.5-32.5-32.5v1ZM98.667 139a2.667 2.667 0 1 1-5.334 0 2.667 2.667 0 0 1 5.334 0Zm-2.167 0v81h-1v-81h1ZM128 251.5h46v1h-46v-1ZM96.5 220c0 17.397 14.103 31.5 31.5 31.5v1c-17.949 0-32.5-14.551-32.5-32.5h1Z" fill="#fff" fill-opacity=".2"/><g filter="url(#b)"><circle cx="280.5" cy="272.5" r="109" stroke="url(#c)" shape-rendering="crispEdges"/></g><g opacity=".5" filter="url(#d)"><circle cx="280.5" cy="272.5" r="140.5" fill="url(#e)"/></g><g opacity=".6" filter="url(#f)"><path d="M189 272.5c0 50.534 40.966 91.5 91.5 91.5s91.5-40.966 91.5-91.5-40.966-91.5-91.5-91.5" stroke="url(#g)"/></g><g opacity=".4" filter="url(#h)"><path d="M353 272.5c0-40.041-32.459-72.5-72.5-72.5S208 232.459 208 272.5s32.459 72.5 72.5 72.5" stroke="url(#i)"/></g><g opacity=".2" filter="url(#j)"><path d="M280.5 216c-31.204 0-56.5 25.296-56.5 56.5s25.296 56.5 56.5 56.5" stroke="url(#k)"/></g><g filter="url(#l)"><path fill-rule="evenodd" clip-rule="evenodd" d="M252.615 243.597a2.036 2.036 0 1 0-2.881 2.88l8.64 8.64c-6.239 3.844-11.411 9.456-14.533 16.792 6.683 19.225 32.081 26.867 51.869 20.34l10.654 10.654a2.036 2.036 0 1 0 2.881-2.88l-18.333-18.334a2.038 2.038 0 0 0-2.881 2.881l.787.787a15.621 15.621 0 0 1-8.106 2.254c-8.663 0-15.685-7.023-15.685-15.685 0-2.913.794-5.641 2.177-7.978l.863.863a2.038 2.038 0 0 0 2.881-2.881l-18.333-18.333Zm65.375 28.312c-3.066 7.794-8.525 13.49-15.16 17.218l-8.843-8.844a15.604 15.604 0 0 0 2.41-8.357c0-8.663-7.023-15.685-15.685-15.685-3.072 0-5.938.883-8.358 2.409l-6.961-6.961c18.934-7.107 43.313-.676 52.597 20.22Zm-35.446 2.733a5.093 5.093 0 1 0-3.666 0v2.581a1.833 1.833 0 1 0 3.666 0v-2.581Z" fill="#E5FF5D"/></g><rect x="435.5" y="361.5" width="29" height="24" rx="1.5" fill="#E5FF5D" stroke="#E5FF5D"/><path d="M454 372.286c0 2.367-1.791 4.285-4 4.285s-4-1.918-4-4.285 1.791-4.286 4-4.286 4 1.919 4 4.286Z" fill="#2D2D2D"/><path d="M448.56 374.686c0-.852.645-1.543 1.44-1.543.795 0 1.44.691 1.44 1.543v3.771c0 .852-.645 1.543-1.44 1.543-.795 0-1.44-.691-1.44-1.543v-3.771Z" fill="#2D2D2D"/><path d="M459 370.5V354a9 9 0 0 0-9-9 9 9 0 0 0-9 9v16.5" stroke="#E5FF5D" stroke-width="2"/><path d="m144.649 84-.001.247C155.911 84.378 165 93.45 165 104.623c0 11.172-9.089 20.244-20.351 20.376V125H57.286C41.112 125 28 112.03 28 96.03c0-16 13.112-28.97 29.286-28.97 2.669 0 5.254.353 7.71 1.014C71.281 53.341 86.02 43 103.201 43c22.891 0 41.448 18.356 41.448 41Z" stroke="#fff" stroke-opacity=".3"/><path d="m178 95.776 2 2c4.97-4.97 13.03-4.97 18 0l2-2c-6.07-6.07-15.92-6.07-22 0Zm8 8 3 3 3-3a4.237 4.237 0 0 0-6 0Zm-4-4 2 2a7.074 7.074 0 0 1 10 0l2-2c-3.86-3.86-10.13-3.86-14 0Z" fill="#E5FF5D"/><path d="m213.591 442-.001.175c7.974.092 14.41 6.509 14.41 14.412 0 7.902-6.435 14.319-14.409 14.412V471h-61.855C140.284 471 131 461.826 131 450.509s9.284-20.491 20.736-20.491c1.889 0 3.719.25 5.459.718C161.644 420.314 172.08 413 184.245 413c16.207 0 29.346 12.984 29.346 29Zm243.05-312v.114c5.179.061 9.359 4.265 9.359 9.443 0 5.177-4.18 9.381-9.359 9.442V149h-40.174C409.03 149 403 142.989 403 135.575c0-7.415 6.03-13.425 13.467-13.425 1.228 0 2.416.163 3.546.47A19.066 19.066 0 0 1 437.582 111c10.526 0 19.059 8.507 19.059 19Z" stroke="#fff" stroke-opacity=".3"/><g filter="url(#m)" shape-rendering="crispEdges"><path d="M471.252 135.12c0 2.536-.934 4.855-2.476 6.63a10.103 10.103 0 0 1-7.65 3.49c-5.592 0-10.126-4.531-10.126-10.12 0-5.589 4.534-10.12 10.126-10.12s10.126 4.531 10.126 10.12Z" fill="#E5FF5D" fill-opacity=".3"/><path d="M468.776 141.75a10.077 10.077 0 0 0 2.476-6.63c0-5.589-4.534-10.12-10.126-10.12S451 129.531 451 135.12c0 5.589 4.534 10.12 10.126 10.12 3.055 0 5.794-1.352 7.65-3.49Zm0 0L475 148" stroke="#E5FF5D"/></g><path opacity=".5" d="M149.63 455v-.705l1.525-1.405c.487-.447.882-.835 1.185-1.165.303-.333.527-.637.67-.91.143-.277.215-.555.215-.835 0-.407-.142-.727-.425-.96-.28-.233-.668-.35-1.165-.35-.307 0-.603.052-.89.155a1.878 1.878 0 0 0-.72.45l-.355-.69a2.81 2.81 0 0 1 .94-.545 3.36 3.36 0 0 1 1.135-.19c.47 0 .883.085 1.24.255.357.167.633.405.83.715.2.307.3.668.3 1.085 0 .29-.058.582-.175.875-.117.293-.325.623-.625.99-.297.363-.718.8-1.265 1.31l-1.2 1.105h3.44V455h-4.66Zm7.484 0v-6.03l-1.885.7-.245-.725 2.94-1.095h.07V455h-.88Zm3.338.15a.732.732 0 0 1-.5-.185.62.62 0 0 1-.205-.485c0-.133.03-.25.09-.35a.664.664 0 0 1 .255-.235.77.77 0 0 1 .36-.085c.196 0 .363.062.5.185a.624.624 0 0 1 .205.485.644.644 0 0 1-.35.585.742.742 0 0 1-.355.085Zm2.638-.15v-6.03l-1.885.7-.245-.725 2.94-1.095h.07V455h-.88Zm5.323.15c-.52 0-.981-.112-1.385-.335a2.406 2.406 0 0 1-.95-.98c-.23-.43-.345-.95-.345-1.56 0-.59.109-1.133.325-1.63.217-.5.522-.943.915-1.33a4.955 4.955 0 0 1 1.38-.95 6.163 6.163 0 0 1 1.725-.515l.33.74a5.012 5.012 0 0 0-1.435.34c-.413.173-.768.39-1.065.65-.293.26-.53.548-.71.865-.18.313-.308.64-.385.98.194-.28.447-.502.76-.665.314-.167.657-.25 1.03-.25.45 0 .855.095 1.215.285.364.19.65.453.86.79.21.337.315.725.315 1.165a2.29 2.29 0 0 1-.725 1.705c-.23.217-.503.387-.82.51a2.807 2.807 0 0 1-1.035.185Zm0-.825c.32 0 .604-.063.85-.19.25-.13.447-.308.59-.535.144-.227.215-.487.215-.78 0-.287-.073-.543-.22-.77a1.569 1.569 0 0 0-.595-.54 1.76 1.76 0 0 0-.84-.2c-.313 0-.595.067-.845.2a1.591 1.591 0 0 0-.59.54c-.146.227-.22.483-.22.77 0 .293.07.553.21.78.144.227.339.405.585.535.25.127.537.19.86.19Zm4.402.825a.733.733 0 0 1-.5-.185.62.62 0 0 1-.205-.485c0-.133.03-.25.09-.35a.664.664 0 0 1 .255-.235.77.77 0 0 1 .36-.085c.197 0 .363.062.5.185a.62.62 0 0 1 .205.485.644.644 0 0 1-.35.585.742.742 0 0 1-.355.085Zm1.942-.15v-.705l1.525-1.405c.487-.447.882-.835 1.185-1.165.303-.333.527-.637.67-.91.143-.277.215-.555.215-.835 0-.407-.142-.727-.425-.96-.28-.233-.668-.35-1.165-.35-.307 0-.603.052-.89.155a1.878 1.878 0 0 0-.72.45l-.355-.69a2.81 2.81 0 0 1 .94-.545 3.36 3.36 0 0 1 1.135-.19c.47 0 .883.085 1.24.255.357.167.633.405.83.715.2.307.3.668.3 1.085 0 .29-.058.582-.175.875-.117.293-.325.623-.625.99-.297.363-.718.8-1.265 1.31l-1.2 1.105h3.44V455h-4.66Zm5.889 0v-.705l1.525-1.405c.486-.447.881-.835 1.185-1.165a4.58 4.58 0 0 0 .67-.91c.143-.277.215-.555.215-.835 0-.407-.142-.727-.425-.96-.28-.233-.669-.35-1.165-.35-.307 0-.604.052-.89.155a1.878 1.878 0 0 0-.72.45l-.355-.69a2.8 2.8 0 0 1 .94-.545c.356-.127.735-.19 1.135-.19.47 0 .883.085 1.24.255.356.167.633.405.83.715.2.307.3.668.3 1.085 0 .29-.059.582-.175.875-.117.293-.325.623-.625.99-.297.363-.719.8-1.265 1.31l-1.2 1.105h3.44V455h-4.66Zm6.573.15a.733.733 0 0 1-.5-.185.624.624 0 0 1-.205-.485c0-.133.03-.25.09-.35a.678.678 0 0 1 .255-.235.77.77 0 0 1 .36-.085.72.72 0 0 1 .5.185.62.62 0 0 1 .205.485.635.635 0 0 1-.35.585.739.739 0 0 1-.355.085Zm1.942-.15v-.705l1.525-1.405c.487-.447.882-.835 1.185-1.165.304-.333.527-.637.67-.91.144-.277.215-.555.215-.835 0-.407-.141-.727-.425-.96-.28-.233-.668-.35-1.165-.35-.306 0-.603.052-.89.155a1.893 1.893 0 0 0-.72.45l-.355-.69a2.82 2.82 0 0 1 .94-.545 3.36 3.36 0 0 1 1.135-.19c.47 0 .884.085 1.24.255.357.167.634.405.83.715.2.307.3.668.3 1.085 0 .29-.058.582-.175.875-.116.293-.325.623-.625.99-.296.363-.718.8-1.265 1.31l-1.2 1.105h3.44V455h-4.66Zm7.884.15c-.42 0-.827-.06-1.22-.18-.39-.12-.71-.28-.96-.48l.325-.785c.23.193.507.343.83.45.327.103.652.155.975.155.353 0 .658-.058.915-.175.257-.12.455-.29.595-.51.14-.223.21-.492.21-.805 0-.29-.075-.538-.225-.745a1.38 1.38 0 0 0-.61-.48 2.151 2.151 0 0 0-.875-.17c-.203 0-.415.025-.635.075-.22.047-.443.12-.67.22l-.395-.41.365-3.295 3.795-.01v.83h-3.115l-.235 2.03a3.698 3.698 0 0 1 1.13-.205c.45 0 .855.087 1.215.26.363.173.65.423.86.75.213.327.32.718.32 1.175 0 .467-.11.873-.33 1.22a2.21 2.21 0 0 1-.915.8c-.387.19-.837.285-1.35.285Zm6.92-.15v-1.48h-3.535v-.725l2.605-4.795h.98l-2.585 4.72h2.535v-1.615h.83v1.615h1.125v.8h-1.125V455h-.83Z" fill="#fff"/></g><defs><filter id="b" x="43" y="39" width="475" height="475" filterUnits="userSpaceOnUse" color-interpolation-filters="sRGB"><feFlood flood-opacity="0" result="BackgroundImageFix"/><feColorMatrix in="SourceAlpha" values="0 0 0 0 0 0 0 0 0 0 0 0 0 0 0 0 0 0 127 0" result="hardAlpha"/><feOffset dy="4"/><feGaussianBlur stdDeviation="64"/><feComposite in2="hardAlpha" operator="out"/><feColorMatrix values="0 0 0 0 0.898039 0 0 0 0 1 0 0 0 0 0.364706 0 0 0 0.3 0"/><feBlend in2="BackgroundImageFix" result="effect1_dropShadow_85_31136"/><feBlend in="SourceGraphic" in2="effect1_dropShadow_85_31136" result="shape"/></filter><filter id="d" x="-116" y="-124" width="793" height="793" filterUnits="userSpaceOnUse" color-interpolation-filters="sRGB"><feFlood flood-opacity="0" result="BackgroundImageFix"/><feBlend in="SourceGraphic" in2="BackgroundImageFix" result="shape"/><feGaussianBlur stdDeviation="128" result="effect1_foregroundBlur_85_31136"/></filter><filter id="f" x="60.5" y="56.5" width="440" height="440" filterUnits="userSpaceOnUse" color-interpolation-filters="sRGB"><feFlood flood-opacity="0" result="BackgroundImageFix"/><feColorMatrix in="SourceAlpha" values="0 0 0 0 0 0 0 0 0 0 0 0 0 0 0 0 0 0 127 0" result="hardAlpha"/><feOffset dy="4"/><feGaussianBlur stdDeviation="64"/><feComposite in2="hardAlpha" operator="out"/><feColorMatrix values="0 0 0 0 0.898039 0 0 0 0 1 0 0 0 0 0.364706 0 0 0 0.3 0"/><feBlend in2="BackgroundImageFix" result="effect1_dropShadow_85_31136"/><feBlend in="SourceGraphic" in2="effect1_dropShadow_85_31136" result="shape"/></filter><filter id="h" x="79.5" y="75.5" width="402" height="402" filterUnits="userSpaceOnUse" color-interpolation-filters="sRGB"><feFlood flood-opacity="0" result="BackgroundImageFix"/><feColorMatrix in="SourceAlpha" values="0 0 0 0 0 0 0 0 0 0 0 0 0 0 0 0 0 0 127 0" result="hardAlpha"/><feOffset dy="4"/><feGaussianBlur stdDeviation="64"/><feComposite in2="hardAlpha" operator="out"/><feColorMatrix values="0 0 0 0 0.898039 0 0 0 0 1 0 0 0 0 0.364706 0 0 0 0.3 0"/><feBlend in2="BackgroundImageFix" result="effect1_dropShadow_85_31136"/><feBlend in="SourceGraphic" in2="effect1_dropShadow_85_31136" result="shape"/></filter><filter id="j" x="95.5" y="91.5" width="313" height="370" filterUnits="userSpaceOnUse" color-interpolation-filters="sRGB"><feFlood flood-opacity="0" result="BackgroundImageFix"/><feColorMatrix in="SourceAlpha" values="0 0 0 0 0 0 0 0 0 0 0 0 0 0 0 0 0 0 127 0" result="hardAlpha"/><feOffset dy="4"/><feGaussianBlur stdDeviation="64"/><feComposite in2="hardAlpha" operator="out"/><feColorMatrix values="0 0 0 0 0.898039 0 0 0 0 1 0 0 0 0 0.364706 0 0 0 0.3 0"/><feBlend in2="BackgroundImageFix" result="effect1_dropShadow_85_31136"/><feBlend in="SourceGraphic" in2="effect1_dropShadow_85_31136" result="shape"/></filter><filter id="l" x="195.841" y="195" width="170.148" height="156.5" filterUnits="userSpaceOnUse" color-interpolation-filters="sRGB"><feFlood flood-opacity="0" result="BackgroundImageFix"/><feColorMatrix in="SourceAlpha" values="0 0 0 0 0 0 0 0 0 0 0 0 0 0 0 0 0 0 127 0" result="hardAlpha"/><feOffset/><feGaussianBlur stdDeviation="24"/><feComposite in2="hardAlpha" operator="out"/><feColorMatrix values="0 0 0 0 0.898039 0 0 0 0 1 0 0 0 0 0.364706 0 0 0 0.3 0"/><feBlend in2="BackgroundImageFix" result="effect1_dropShadow_85_31136"/><feBlend in="SourceGraphic" in2="effect1_dropShadow_85_31136" result="shape"/></filter><filter id="m" x="404.5" y="78.5" width="116.854" height="115.853" filterUnits="userSpaceOnUse" color-interpolation-filters="sRGB"><feFlood flood-opacity="0" result="BackgroundImageFix"/><feColorMatrix in="SourceAlpha" values="0 0 0 0 0 0 0 0 0 0 0 0 0 0 0 0 0 0 127 0" result="hardAlpha"/><feOffset/><feGaussianBlur stdDeviation="23"/><feComposite in2="hardAlpha" operator="out"/><feColorMatrix values="0 0 0 0 1 0 0 0 0 1 0 0 0 0 1 0 0 0 0.2 0"/><feBlend in2="BackgroundImageFix" result="effect1_dropShadow_85_31136"/><feBlend in="SourceGraphic" in2="effect1_dropShadow_85_31136" result="shape"/></filter><linearGradient id="c" x1="390" y1="348.308" x2="159.592" y2="332.831" gradientUnits="userSpaceOnUse"><stop stop-color="#E5FF5D"/><stop offset="1" stop-color="#5DFFFF"/></linearGradient><linearGradient id="e" x1="170.268" y1="322.617" x2="423.046" y2="268.277" gradientUnits="userSpaceOnUse"><stop stop-color="#5DA8FF" stop-opacity=".3"/><stop offset="1" stop-color="#899938"/></linearGradient><linearGradient id="g" x1="372" y1="335.846" x2="179.467" y2="322.913" gradientUnits="userSpaceOnUse"><stop stop-color="#E5FF5D"/><stop offset="1" stop-color="#5DFFFF"/></linearGradient><linearGradient id="i" x1="208" y1="222.308" x2="360.553" y2="232.555" gradientUnits="userSpaceOnUse"><stop stop-color="#E5FF5D"/><stop offset="1" stop-color="#5DFFFF"/></linearGradient><linearGradient id="k" x1="224" y1="233.385" x2="283.644" y2="235.388" gradientUnits="userSpaceOnUse"><stop stop-color="#E5FF5D"/><stop offset="1" stop-color="#5DFFFF"/></linearGradient><clipPath id="a"><path fill="#fff" d="M0 0h576v560H0z"/></clipPath></defs></svg>