<svg width="576" height="560" viewBox="0 0 576 560" fill="none" xmlns="http://www.w3.org/2000/svg">
<g clip-path="url(#clip0_85_31089)">
<path d="M94.5 162C94.5 157.858 97.8579 154.5 102 154.5H324C328.142 154.5 331.5 157.858 331.5 162V173.5H94.5V162Z" stroke="#5C5C5C"/>
<rect x="101" y="162" width="4" height="4" rx="2" fill="#FDAC76"/>
<rect x="109" y="162" width="4" height="4" rx="2" fill="#A1FFB0"/>
<rect x="117" y="162" width="4" height="4" rx="2" fill="#5C5C5C"/>
<path d="M94.5 173.5H331.5V303C331.5 307.142 328.142 310.5 324 310.5H102C97.8579 310.5 94.5 307.142 94.5 303V173.5Z" stroke="#5C5C5C"/>
<path d="M94.5 173.5H146.5V310.5H102C97.8579 310.5 94.5 307.142 94.5 303V173.5Z" stroke="#5C5C5C"/>
<rect x="94.5" y="321.5" width="91" height="24" rx="6.5" fill="white" fill-opacity="0.1" stroke="#5C5C5C"/>
<g opacity="0.5" filter="url(#filter0_f_85_31089)">
<circle cx="280.5" cy="272.5" r="117.5" fill="url(#paint0_linear_85_31089)"/>
</g>
<path d="M106.847 338L105.204 336.82L107.391 334.125L104 333.199L104.648 331.244L107.912 332.505L107.716 329H109.764L109.579 332.47L112.843 331.233L113.491 333.188L110.1 334.09L112.322 336.82L110.644 337.988L108.757 335.062L106.847 338Z" fill="#E5FF5D"/>
<path d="M119.349 338L117.706 336.82L119.893 334.125L116.502 333.199L117.15 331.244L120.414 332.505L120.217 329H122.266L122.081 332.47L125.345 331.233L125.993 333.188L122.602 334.09L124.824 336.82L123.146 337.988L121.259 335.062L119.349 338Z" fill="#E5FF5D"/>
<path d="M131.851 338L130.207 336.82L132.395 334.125L129.003 333.199L129.652 331.244L132.916 332.505L132.719 329H134.768L134.583 332.47L137.847 331.233L138.495 333.188L135.103 334.09L137.326 336.82L135.647 337.988L133.761 335.062L131.851 338Z" fill="#E5FF5D"/>
<path d="M144.353 338L142.709 336.82L144.897 334.125L141.505 333.199L142.153 331.244L145.417 332.505L145.221 329H147.269L147.084 332.47L150.348 331.233L150.997 333.188L147.605 334.09L149.827 336.82L148.149 337.988L146.262 335.062L144.353 338Z" fill="#E5FF5D"/>
<path d="M156.854 338L155.211 336.82L157.398 334.125L154.007 333.199L154.655 331.244L157.919 332.505L157.722 329H159.771L159.586 332.47L162.85 331.233L163.498 333.188L160.107 334.09L162.329 336.82L160.651 337.988L158.764 335.062L156.854 338Z" fill="#E5FF5D"/>
<path d="M169.356 338L167.712 336.82L169.9 334.125L166.509 333.199L167.157 331.244L170.421 332.505L170.224 329H172.273L172.088 332.47L175.352 331.233L176 333.188L172.609 334.09L174.831 336.82L173.153 337.988L171.266 335.062L169.356 338Z" fill="#E5FF5D"/>
<g filter="url(#filter1_d_85_31089)">
<circle cx="330" cy="155" r="32" fill="#E5FF5D"/>
</g>
<path d="M323.333 149.667C322.6 149.667 322 150.267 322 151V159C322 160.467 323.2 161.667 324.667 161.667H335.333C336.067 161.667 336.667 161.067 336.667 160.333C336.667 159.6 336.067 159 335.333 159H324.667V151C324.667 150.267 324.067 149.667 323.333 149.667Z" fill="#0D0D0D"/>
<path d="M340.667 143H330C328.533 143 327.333 144.2 327.333 145.667V153.667C327.333 155.133 328.533 156.333 330 156.333H340.667C342.133 156.333 343.333 155.133 343.333 153.667V145.667C343.333 144.2 342.133 143 340.667 143ZM340.667 153.667H330V148.333H340.667V153.667Z" fill="#0D0D0D"/>
<path d="M318 155C317.267 155 316.667 155.6 316.667 156.333V164.333C316.667 165.8 317.867 167 319.333 167H330C330.733 167 331.333 166.4 331.333 165.667C331.333 164.933 330.733 164.333 330 164.333H319.333V156.333C319.333 155.6 318.733 155 318 155Z" fill="#0D0D0D"/>
<rect x="157" y="183" width="63" height="4" rx="2" fill="#5C5C5C"/>
<rect x="157" y="190" width="31" height="4" rx="2" fill="#5C5C5C"/>
<rect x="157" y="197" width="20" height="4" rx="2" fill="#5C5C5C"/>
<rect x="180" y="197" width="55" height="4" rx="2" fill="#5C5C5C"/>
<rect x="191" y="190" width="59" height="4" rx="2" fill="#5C5C5C"/>
<g filter="url(#filter2_d_85_31089)">
<rect x="271" y="242" width="182" height="138" rx="12" fill="#1A1A1A" shape-rendering="crispEdges"/>
<rect x="271" y="242" width="182" height="138" rx="12" stroke="#FDAC76" stroke-opacity="0.2" shape-rendering="crispEdges"/>
</g>
<rect x="330" y="349" width="63" height="4" rx="2" fill="#5C5C5C"/>
<rect x="342" y="359" width="39" height="4" rx="2" fill="#5C5C5C"/>
<path d="M313.466 334.21C312.789 334.21 312.127 334.114 311.478 333.923C310.834 333.727 310.29 333.447 309.847 333.083L310.617 331.886C310.85 332.087 311.121 332.259 311.429 332.404C311.742 332.549 312.073 332.661 312.423 332.74C312.773 332.815 313.123 332.852 313.473 332.852C314.112 332.852 314.628 332.731 315.02 332.488C315.417 332.245 315.615 331.891 315.615 331.424C315.615 331.074 315.48 330.778 315.209 330.535C314.943 330.292 314.448 330.068 313.725 329.863L312.717 329.569C311.793 329.303 311.119 328.951 310.694 328.512C310.274 328.073 310.064 327.527 310.064 326.874C310.064 326.44 310.15 326.048 310.323 325.698C310.5 325.348 310.748 325.045 311.065 324.788C311.387 324.531 311.765 324.335 312.199 324.2C312.633 324.065 313.109 323.997 313.627 323.997C314.285 323.997 314.896 324.093 315.461 324.284C316.026 324.475 316.492 324.732 316.861 325.054L316.063 326.216C315.862 326.034 315.627 325.878 315.356 325.747C315.09 325.616 314.803 325.516 314.495 325.446C314.187 325.376 313.874 325.341 313.557 325.341C313.165 325.341 312.817 325.399 312.514 325.516C312.215 325.628 311.982 325.791 311.814 326.006C311.646 326.221 311.562 326.482 311.562 326.79C311.562 327.014 311.618 327.21 311.73 327.378C311.842 327.546 312.033 327.7 312.304 327.84C312.579 327.975 312.957 328.113 313.438 328.253L314.502 328.568C315.407 328.834 316.07 329.182 316.49 329.611C316.91 330.036 317.12 330.589 317.12 331.27C317.12 331.853 316.975 332.367 316.686 332.81C316.401 333.249 315.986 333.592 315.44 333.839C314.894 334.086 314.236 334.21 313.466 334.21ZM319.457 337.136C319.205 337.136 318.958 337.108 318.715 337.052C318.472 336.996 318.234 336.9 318.001 336.765L318.351 335.449C318.496 335.542 318.654 335.612 318.827 335.659C319 335.706 319.154 335.729 319.289 335.729C319.616 335.729 319.872 335.652 320.059 335.498C320.246 335.344 320.393 335.106 320.5 334.784L320.731 334.112L318.001 327.07H319.688L321.606 332.446L323.475 327.07H325.106L322.11 335.001C321.895 335.556 321.655 335.988 321.389 336.296C321.123 336.609 320.829 336.826 320.507 336.947C320.185 337.073 319.835 337.136 319.457 337.136ZM328.651 334.203C328.077 334.203 327.541 334.121 327.041 333.958C326.542 333.795 326.122 333.575 325.781 333.3L326.362 332.173C326.684 332.425 327.046 332.623 327.447 332.768C327.853 332.913 328.252 332.985 328.644 332.985C329.097 332.985 329.449 332.906 329.701 332.747C329.953 332.588 330.079 332.367 330.079 332.082C330.079 331.811 329.97 331.613 329.75 331.487C329.536 331.356 329.125 331.221 328.518 331.081C327.646 330.899 327.011 330.642 326.614 330.311C326.222 329.975 326.026 329.511 326.026 328.918C326.026 328.503 326.141 328.136 326.369 327.819C326.603 327.497 326.922 327.245 327.328 327.063C327.734 326.881 328.203 326.79 328.735 326.79C329.253 326.79 329.741 326.865 330.198 327.014C330.656 327.159 331.052 327.364 331.388 327.63L330.842 328.764C330.67 328.61 330.469 328.477 330.24 328.365C330.012 328.253 329.769 328.167 329.512 328.106C329.26 328.041 329.008 328.008 328.756 328.008C328.364 328.008 328.045 328.085 327.797 328.239C327.555 328.388 327.433 328.596 327.433 328.862C327.433 329.137 327.55 329.34 327.783 329.471C328.017 329.602 328.418 329.732 328.987 329.863C329.883 330.059 330.525 330.32 330.912 330.647C331.3 330.974 331.493 331.426 331.493 332.005C331.493 332.448 331.374 332.836 331.136 333.167C330.898 333.494 330.565 333.748 330.135 333.93C329.711 334.112 329.216 334.203 328.651 334.203ZM336.143 334.21C335.466 334.21 334.925 334.014 334.519 333.622C334.113 333.23 333.91 332.63 333.91 331.823V325.047H335.45V327.07H337.375V328.344H335.45V331.487C335.45 331.972 335.541 332.315 335.723 332.516C335.91 332.712 336.171 332.81 336.507 332.81C336.67 332.81 336.824 332.791 336.969 332.754C337.114 332.717 337.244 332.668 337.361 332.607L337.634 333.853C337.433 333.956 337.202 334.04 336.941 334.105C336.684 334.175 336.418 334.21 336.143 334.21ZM332.391 328.344V327.07H334.113V328.344H332.391ZM342.37 334.21C341.623 334.21 340.967 334.058 340.403 333.755C339.838 333.447 339.397 333.018 339.08 332.467C338.767 331.916 338.611 331.277 338.611 330.549C338.611 330.017 338.702 329.527 338.884 329.079C339.066 328.626 339.322 328.234 339.654 327.903C339.985 327.572 340.372 327.315 340.816 327.133C341.264 326.951 341.751 326.86 342.279 326.86C342.853 326.86 343.364 326.963 343.812 327.168C344.26 327.369 344.631 327.651 344.925 328.015C345.223 328.379 345.433 328.806 345.555 329.296C345.681 329.781 345.702 330.309 345.618 330.878H340.088C340.078 331.293 340.169 331.657 340.361 331.97C340.552 332.278 340.825 332.518 341.18 332.691C341.539 332.864 341.961 332.95 342.447 332.95C342.839 332.95 343.217 332.892 343.581 332.775C343.949 332.654 344.283 332.476 344.582 332.243L345.177 333.349C344.953 333.531 344.682 333.687 344.365 333.818C344.047 333.944 343.716 334.04 343.371 334.105C343.025 334.175 342.692 334.21 342.37 334.21ZM340.179 329.744H344.106C344.092 329.221 343.924 328.811 343.602 328.512C343.284 328.213 342.832 328.064 342.244 328.064C341.674 328.064 341.201 328.213 340.823 328.512C340.449 328.811 340.235 329.221 340.179 329.744ZM347.217 334V327.07H348.757V328.022C348.944 327.751 349.159 327.532 349.401 327.364C349.644 327.191 349.901 327.065 350.171 326.986C350.442 326.902 350.717 326.86 350.997 326.86C351.562 326.86 352.031 326.984 352.404 327.231C352.782 327.478 353.048 327.796 353.202 328.183C353.548 327.679 353.949 327.334 354.406 327.147C354.864 326.956 355.323 326.86 355.785 326.86C356.425 326.86 356.936 326.986 357.318 327.238C357.701 327.49 357.976 327.814 358.144 328.211C358.317 328.608 358.403 329.016 358.403 329.436V334H356.863V329.884C356.863 329.403 356.73 329.016 356.464 328.722C356.203 328.423 355.82 328.274 355.316 328.274C354.985 328.274 354.689 328.346 354.427 328.491C354.166 328.636 353.958 328.836 353.804 329.093C353.655 329.345 353.58 329.637 353.58 329.968V334H352.04V329.884C352.04 329.403 351.91 329.016 351.648 328.722C351.387 328.423 351.002 328.274 350.493 328.274C350.167 328.274 349.87 328.346 349.604 328.491C349.343 328.636 349.135 328.836 348.981 329.093C348.832 329.345 348.757 329.637 348.757 329.968V334H347.217ZM364.114 334V324.2H365.682V328.092H370.428V324.2H371.996V334H370.428V329.534H365.682V334H364.114ZM376.267 334.21C375.787 334.21 375.364 334.121 375 333.944C374.636 333.762 374.352 333.508 374.146 333.181C373.946 332.85 373.845 332.46 373.845 332.012C373.845 331.634 373.941 331.293 374.132 330.99C374.324 330.682 374.62 330.428 375.021 330.227C375.427 330.026 375.948 329.893 376.582 329.828C377.217 329.758 377.98 329.767 378.871 329.856L378.899 330.92C378.265 330.831 377.719 330.794 377.261 330.808C376.804 330.822 376.428 330.88 376.134 330.983C375.845 331.081 375.63 331.214 375.49 331.382C375.355 331.545 375.287 331.734 375.287 331.949C375.287 332.285 375.406 332.544 375.644 332.726C375.887 332.908 376.218 332.999 376.638 332.999C376.998 332.999 377.32 332.934 377.604 332.803C377.889 332.672 378.113 332.488 378.276 332.25C378.444 332.012 378.528 331.732 378.528 331.41V329.569C378.528 329.261 378.463 328.995 378.332 328.771C378.202 328.542 378.003 328.365 377.737 328.239C377.471 328.113 377.14 328.05 376.743 328.05C376.379 328.05 376.02 328.106 375.665 328.218C375.311 328.325 374.972 328.496 374.65 328.729L374.216 327.595C374.65 327.301 375.103 327.093 375.574 326.972C376.046 326.851 376.498 326.79 376.932 326.79C377.576 326.79 378.127 326.893 378.584 327.098C379.046 327.299 379.401 327.604 379.648 328.015C379.896 328.421 380.019 328.934 380.019 329.555V334H378.633V333.181C378.4 333.512 378.076 333.767 377.66 333.944C377.245 334.121 376.781 334.21 376.267 334.21ZM385.245 334.21C384.517 334.21 383.868 334.051 383.299 333.734C382.73 333.412 382.282 332.976 381.955 332.425C381.633 331.87 381.472 331.24 381.472 330.535C381.472 330.003 381.568 329.515 381.759 329.072C381.95 328.624 382.221 328.234 382.571 327.903C382.921 327.572 383.332 327.315 383.803 327.133C384.279 326.951 384.795 326.86 385.35 326.86C385.817 326.86 386.248 326.923 386.645 327.049C387.046 327.17 387.415 327.359 387.751 327.616L387.009 328.792C386.794 328.601 386.547 328.458 386.267 328.365C385.992 328.272 385.698 328.225 385.385 328.225C384.9 328.225 384.482 328.316 384.132 328.498C383.782 328.68 383.509 328.944 383.313 329.289C383.122 329.63 383.026 330.043 383.026 330.528C383.026 331.251 383.236 331.818 383.656 332.229C384.081 332.64 384.657 332.845 385.385 332.845C385.73 332.845 386.057 332.782 386.365 332.656C386.673 332.525 386.93 332.355 387.135 332.145L387.87 333.314C387.501 333.594 387.091 333.813 386.638 333.972C386.185 334.131 385.721 334.21 385.245 334.21ZM389.286 334V323.92H390.826V329.884L393.556 327.07H395.376L392.926 329.723L395.733 334H393.892L391.806 330.724L390.826 331.718V334H389.286ZM400.12 334.21C399.373 334.21 398.717 334.058 398.153 333.755C397.588 333.447 397.147 333.018 396.83 332.467C396.517 331.916 396.361 331.277 396.361 330.549C396.361 330.017 396.452 329.527 396.634 329.079C396.816 328.626 397.072 328.234 397.404 327.903C397.735 327.572 398.122 327.315 398.566 327.133C399.014 326.951 399.501 326.86 400.029 326.86C400.603 326.86 401.114 326.963 401.562 327.168C402.01 327.369 402.381 327.651 402.675 328.015C402.973 328.379 403.183 328.806 403.305 329.296C403.431 329.781 403.452 330.309 403.368 330.878H397.838C397.828 331.293 397.919 331.657 398.111 331.97C398.302 332.278 398.575 332.518 398.93 332.691C399.289 332.864 399.711 332.95 400.197 332.95C400.589 332.95 400.967 332.892 401.331 332.775C401.699 332.654 402.033 332.476 402.332 332.243L402.927 333.349C402.703 333.531 402.432 333.687 402.115 333.818C401.797 333.944 401.466 334.04 401.121 334.105C400.775 334.175 400.442 334.21 400.12 334.21ZM397.929 329.744H401.856C401.842 329.221 401.674 328.811 401.352 328.512C401.034 328.213 400.582 328.064 399.994 328.064C399.424 328.064 398.951 328.213 398.573 328.512C398.199 328.811 397.985 329.221 397.929 329.744ZM407.913 334.21C407.236 334.21 406.637 334.051 406.114 333.734C405.591 333.412 405.181 332.976 404.882 332.425C404.588 331.87 404.441 331.24 404.441 330.535C404.441 330.026 404.525 329.55 404.693 329.107C404.861 328.659 405.099 328.267 405.407 327.931C405.72 327.595 406.088 327.334 406.513 327.147C406.942 326.956 407.416 326.86 407.934 326.86C408.564 326.86 409.11 326.986 409.572 327.238C410.034 327.49 410.419 327.84 410.727 328.288L410.405 328.631V323.92H411.945V334H410.559V332.334L410.783 332.684C410.531 333.123 410.169 333.487 409.698 333.776C409.231 334.065 408.636 334.21 407.913 334.21ZM408.193 332.845C408.622 332.845 409.003 332.752 409.334 332.565C409.67 332.374 409.934 332.105 410.125 331.76C410.316 331.415 410.412 331.006 410.412 330.535C410.412 330.064 410.316 329.655 410.125 329.31C409.934 328.96 409.67 328.692 409.334 328.505C409.003 328.318 408.622 328.225 408.193 328.225C407.764 328.225 407.383 328.318 407.052 328.505C406.721 328.692 406.459 328.96 406.268 329.31C406.077 329.655 405.981 330.064 405.981 330.535C405.981 331.006 406.077 331.415 406.268 331.76C406.459 332.105 406.721 332.374 407.052 332.565C407.388 332.752 407.768 332.845 408.193 332.845Z" fill="white"/>
<path d="M362 273.988L377.06 300.008H346.94L362 273.988ZM343.48 298.008C341.94 300.668 343.86 304.008 346.94 304.008H377.06C380.14 304.008 382.06 300.668 380.52 298.008L365.46 271.988C363.92 269.328 360.08 269.328 358.54 271.988L343.48 298.008ZM360 284.008V288.008C360 289.108 360.9 290.008 362 290.008C363.1 290.008 364 289.108 364 288.008V284.008C364 282.908 363.1 282.008 362 282.008C360.9 282.008 360 282.908 360 284.008ZM360 294.008H364V298.008H360V294.008Z" fill="#FDAC76"/>
<path d="M157.696 214L157 213.73L160.3 206L161 206.265L157.696 214Z" fill="white"/>
<path d="M184 484L219.937 463.798C233.435 456.21 249.869 455.668 264.445 460.895C267.642 462.042 270.808 463.144 273.771 464.157C284.446 467.807 296.065 467.168 306.445 462.748C318.502 457.615 334.438 450.905 343.562 447.366C359.615 441.141 391 433 391 433" stroke="url(#paint1_linear_85_31089)" stroke-width="3"/>
<path d="M183 454.579L211.714 475.737C215.549 478.562 219.786 481.123 224.547 481.269C236.437 481.632 249.262 473.811 260.322 464.364C276.925 450.184 302.635 449.134 320.332 461.921C329.221 468.345 338.069 472.67 343.928 470.404C360.045 464.17 393 474 393 474" stroke="url(#paint2_linear_85_31089)" stroke-width="3"/>
</g>
<defs>
<filter id="filter0_f_85_31089" x="-93" y="-101" width="747" height="747" filterUnits="userSpaceOnUse" color-interpolation-filters="sRGB">
<feFlood flood-opacity="0" result="BackgroundImageFix"/>
<feBlend mode="normal" in="SourceGraphic" in2="BackgroundImageFix" result="shape"/>
<feGaussianBlur stdDeviation="128" result="effect1_foregroundBlur_85_31089"/>
</filter>
<filter id="filter1_d_85_31089" x="266" y="95" width="128" height="128" filterUnits="userSpaceOnUse" color-interpolation-filters="sRGB">
<feFlood flood-opacity="0" result="BackgroundImageFix"/>
<feColorMatrix in="SourceAlpha" type="matrix" values="0 0 0 0 0 0 0 0 0 0 0 0 0 0 0 0 0 0 127 0" result="hardAlpha"/>
<feOffset dy="4"/>
<feGaussianBlur stdDeviation="16"/>
<feComposite in2="hardAlpha" operator="out"/>
<feColorMatrix type="matrix" values="0 0 0 0 0.898039 0 0 0 0 1 0 0 0 0 0.364706 0 0 0 1 0"/>
<feBlend mode="normal" in2="BackgroundImageFix" result="effect1_dropShadow_85_31089"/>
<feBlend mode="normal" in="SourceGraphic" in2="effect1_dropShadow_85_31089" result="shape"/>
</filter>
<filter id="filter2_d_85_31089" x="224.5" y="195.5" width="275" height="231" filterUnits="userSpaceOnUse" color-interpolation-filters="sRGB">
<feFlood flood-opacity="0" result="BackgroundImageFix"/>
<feColorMatrix in="SourceAlpha" type="matrix" values="0 0 0 0 0 0 0 0 0 0 0 0 0 0 0 0 0 0 127 0" result="hardAlpha"/>
<feOffset/>
<feGaussianBlur stdDeviation="23"/>
<feComposite in2="hardAlpha" operator="out"/>
<feColorMatrix type="matrix" values="0 0 0 0 0.992157 0 0 0 0 0.67451 0 0 0 0 0.462745 0 0 0 0.5 0"/>
<feBlend mode="normal" in2="BackgroundImageFix" result="effect1_dropShadow_85_31089"/>
<feBlend mode="normal" in="SourceGraphic" in2="effect1_dropShadow_85_31089" result="shape"/>
</filter>
<linearGradient id="paint0_linear_85_31089" x1="188.313" y1="314.413" x2="399.711" y2="268.968" gradientUnits="userSpaceOnUse">
<stop stop-color="#5DA8FF" stop-opacity="0.3"/>
<stop offset="1" stop-color="#899938"/>
</linearGradient>
<linearGradient id="paint1_linear_85_31089" x1="184" y1="458.5" x2="391" y2="458.5" gradientUnits="userSpaceOnUse">
<stop stop-color="#E5FF5D" stop-opacity="0"/>
<stop offset="0.545" stop-color="#E5FF5D"/>
<stop offset="1" stop-color="#E5FF5D" stop-opacity="0"/>
</linearGradient>
<linearGradient id="paint2_linear_85_31089" x1="183" y1="453.5" x2="393" y2="453.5" gradientUnits="userSpaceOnUse">
<stop stop-color="#5DFFFF" stop-opacity="0"/>
<stop offset="0.46" stop-color="#5DFFFF"/>
<stop offset="1" stop-color="#5DFFFF" stop-opacity="0"/>
</linearGradient>
<clipPath id="clip0_85_31089">
<rect width="576" height="560" fill="white"/>
</clipPath>
</defs>
</svg>
