<svg width="576" height="560" fill="none" xmlns="http://www.w3.org/2000/svg"><g filter="url(#a)" shape-rendering="crispEdges"><path fill="url(#b)" fill-opacity=".1" d="M177 176h222v222H177z"/><path stroke="#fff" stroke-opacity=".1" d="M177.5 176.5h221v221h-221z"/></g><path fill="#E5FF5D" d="M135 374h4v4h-4z"/><path fill="#fff" fill-opacity=".1" d="M143 374h4v4h-4z"/><path fill="#E5FF5D" d="M151 374h4v4h-4zm-16 8h4v4h-4z"/><path fill="#fff" fill-opacity=".1" d="M143 382h4v4h-4zm8 0h4v4h-4z"/><path fill="#E5FF5D" d="M135 390h4v4h-4zm8 0h4v4h-4z"/><path fill="#fff" fill-opacity=".1" d="M151 390h4v4h-4z"/><g opacity=".2" fill="#000"><path d="M304 282.071c0 8.876-7.163 16.072-16 16.072s-16-7.196-16-16.072S279.163 266 288 266s16 7.195 16 16.071Z"/><path d="M282.24 291.071c0-3.195 2.579-5.785 5.76-5.785 3.181 0 5.76 2.59 5.76 5.785v14.143c0 3.196-2.579 5.786-5.76 5.786-3.181 0-5.76-2.59-5.76-5.786v-14.143Z"/></g><rect x="272.5" y="122.5" width="31" height="31" rx="15.5" fill="#E5FF5D" stroke="#E5FF5D"/><path opacity=".5" d="M254.27 82.21c-.709 0-1.325-.13-1.848-.392a2.998 2.998 0 0 1-1.204-1.057c-.28-.443-.42-.94-.42-1.491 0-.593.159-1.09.476-1.491.322-.401.77-.714 1.344-.938a2.515 2.515 0 0 1-1.036-.784c-.299-.369-.448-.833-.448-1.393 0-.513.135-.97.406-1.372a2.738 2.738 0 0 1 1.12-.952c.476-.233 1.02-.35 1.631-.35.621 0 1.169.117 1.645.35.481.233.856.553 1.127.959.275.401.413.856.413 1.365 0 .56-.149 1.024-.448 1.393a2.5 2.5 0 0 1-1.043.784c.541.224.975.539 1.302.945.327.401.49.896.49 1.484 0 .55-.145 1.048-.434 1.491-.289.443-.698.796-1.225 1.057-.523.261-1.139.392-1.848.392Zm.035-5.929c.565 0 1.029-.14 1.393-.42.364-.285.546-.667.546-1.148 0-.476-.18-.875-.539-1.197-.355-.322-.821-.483-1.4-.483s-1.048.161-1.407.483a1.544 1.544 0 0 0-.539 1.197c0 .48.182.863.546 1.148.364.28.831.42 1.4.42Zm-.014 4.802a2.83 2.83 0 0 0 1.078-.203c.336-.14.604-.348.805-.623.205-.275.308-.616.308-1.022 0-.602-.212-1.062-.637-1.379-.425-.317-.943-.476-1.554-.476-.635 0-1.16.161-1.575.483-.415.317-.623.775-.623 1.372 0 .406.1.747.301 1.022.201.275.467.483.798.623a2.92 2.92 0 0 0 1.099.203Zm6.185 1.127-.462-1.036c.999-.107 1.841-.364 2.527-.77.691-.406 1.234-.903 1.631-1.491a5.19 5.19 0 0 0 .805-1.876 2.904 2.904 0 0 1-1.029.931 2.86 2.86 0 0 1-1.393.343 3.448 3.448 0 0 1-1.659-.399 3.043 3.043 0 0 1-1.176-1.106c-.285-.471-.427-1.013-.427-1.624 0-.602.149-1.143.448-1.624a3.22 3.22 0 0 1 1.253-1.141c.532-.285 1.141-.427 1.827-.427.709 0 1.339.154 1.89.462.555.308.989.756 1.302 1.344.317.583.476 1.295.476 2.135 0 .835-.152 1.608-.455 2.317a6.02 6.02 0 0 1-1.26 1.883 6.885 6.885 0 0 1-1.911 1.351 8.23 8.23 0 0 1-2.387.728Zm2.345-5.012c.42 0 .798-.089 1.134-.266.341-.177.609-.42.805-.728.196-.308.294-.656.294-1.043 0-.588-.21-1.071-.63-1.449-.415-.383-.95-.574-1.603-.574-.649 0-1.183.191-1.603.574-.42.378-.63.861-.63 1.449 0 .387.098.735.294 1.043.201.308.469.55.805.728.336.177.714.266 1.134.266Zm6.247 5.012c-.276 0-.509-.086-.7-.259a.87.87 0 0 1-.287-.679.87.87 0 0 1 .287-.679c.191-.173.424-.259.7-.259a1 1 0 0 1 .693.259.862.862 0 0 1 .294.679c0 .28-.098.506-.294.679a1 1 0 0 1-.693.259Zm3.693-.21v-8.442l-2.639.98-.343-1.015 4.116-1.533h.098V82h-1.232Zm8.048 0v-2.072h-4.949v-1.015l3.647-6.713h1.372l-3.619 6.608h3.549v-2.261h1.162v2.261h1.575v1.12h-1.575V82h-1.162Zm5.034.21c-.275 0-.509-.086-.7-.259a.872.872 0 0 1-.287-.679c0-.28.096-.506.287-.679.191-.173.425-.259.7-.259.271 0 .502.086.693.259a.862.862 0 0 1 .294.679c0 .28-.098.506-.294.679a.997.997 0 0 1-.693.259Zm3.694-.21v-8.442l-2.639.98-.343-1.015 4.116-1.533h.098V82h-1.232Zm3.714 0v-.987l2.135-1.967a28.376 28.376 0 0 0 1.659-1.631c.425-.467.737-.891.938-1.274.201-.387.301-.777.301-1.169 0-.57-.198-1.017-.595-1.344-.392-.327-.936-.49-1.631-.49-.434 0-.852.072-1.253.217-.397.145-.73.355-1.001.63l-.497-.966c.779-.686 1.748-1.029 2.905-1.029.658 0 1.234.119 1.729.357a2.73 2.73 0 0 1 1.169 1.001c.28.43.42.936.42 1.519 0 .406-.082.814-.245 1.225-.163.41-.455.873-.875 1.386-.415.509-1.006 1.12-1.771 1.834l-1.68 1.547h4.816V82h-6.524Zm9.203.21c-.275 0-.508-.086-.7-.259a.872.872 0 0 1-.287-.679c0-.28.096-.506.287-.679.192-.173.425-.259.7-.259.271 0 .502.086.693.259a.862.862 0 0 1 .294.679c0 .28-.098.506-.294.679a.997.997 0 0 1-.693.259Zm3.694-.21v-8.442l-2.639.98-.343-1.015 4.116-1.533h.098V82h-1.232Zm3.714 0v-.987l2.135-1.967a27.757 27.757 0 0 0 1.659-1.631c.425-.467.738-.891.938-1.274.201-.387.301-.777.301-1.169 0-.57-.198-1.017-.595-1.344-.392-.327-.935-.49-1.631-.49-.434 0-.851.072-1.253.217-.396.145-.73.355-1.001.63l-.497-.966c.78-.686 1.748-1.029 2.905-1.029.658 0 1.235.119 1.729.357.5.233.889.567 1.169 1.001.28.43.42.936.42 1.519 0 .406-.081.814-.245 1.225-.163.41-.455.873-.875 1.386-.415.509-1.005 1.12-1.771 1.834l-1.68 1.547h4.816V82h-6.524Zm11.038.21a5.854 5.854 0 0 1-1.736-.259c-.556-.177-.994-.406-1.316-.686l.462-1.106c.308.27.69.485 1.148.644.457.154.912.231 1.365.231.709 0 1.274-.177 1.694-.532.424-.355.637-.833.637-1.435 0-.602-.222-1.071-.665-1.407-.439-.34-1.025-.511-1.757-.511a5.39 5.39 0 0 0-1.169.133l-.399-.882 3.234-3.073h-4.487V72.2h6.104v1.043l-3.115 3.01a4.51 4.51 0 0 1 1.75.28c.541.2.977.518 1.309.952.331.43.497.975.497 1.638 0 .616-.154 1.157-.462 1.624a3.044 3.044 0 0 1-1.26 1.078c-.532.257-1.144.385-1.834.385Z" fill="#fff"/><path d="M297 125.5V109a9 9 0 0 0-9-9 9 9 0 0 0-9 9v16.5" stroke="#E5FF5D"/><rect x="283.5" y="133.5" width="9" height="9" rx="4.5" fill="#000" stroke="#E5FF5D"/><path d="M26.667 246a2.667 2.667 0 1 1-5.334 0 2.667 2.667 0 0 1 5.334 0ZM174.5 284.334H74.997v-1H174.5v1Zm-122.521-9.556-28.333-28.425.708-.706 28.333 28.425-.708.706Zm23.018 9.556a32.502 32.502 0 0 1-23.018-9.556l.708-.706a31.502 31.502 0 0 0 22.31 9.262v1Z" fill="#fff" fill-opacity=".07"/><path d="M77.667 300.336a2.667 2.667 0 1 1-5.334 0 2.667 2.667 0 0 1 5.334 0Zm96.833.5H75v-1h99.5v1Z" fill="#E5FF5D"/><path d="M26.667 350.284a2.667 2.667 0 1 1-5.334-.001 2.667 2.667 0 0 1 5.334.001Zm17.369-20.214.355.352-.355-.352Zm130.464-8.973H66.763v-1H174.5v1Zm-130.11 9.325-20.035 20.214-.71-.704 20.036-20.214.71.704Zm22.373-9.325a31.499 31.499 0 0 0-22.372 9.325l-.71-.704a32.5 32.5 0 0 1 23.082-9.621v1ZM60.667 224a2.667 2.667 0 1 1-5.334 0 2.667 2.667 0 0 1 5.334 0Zm-2.315-.355 19.315 19.153-.704.711-19.315-19.154.704-.71Zm41.495 28.286H174.5v1H99.847v-1Zm-22.18-9.133a31.497 31.497 0 0 0 22.18 9.133v1a32.503 32.503 0 0 1-22.884-9.422l.704-.711Zm-17 .202a2.667 2.667 0 1 1-5.334 0 2.667 2.667 0 0 1 5.334 0ZM174.5 268.066H95.706v-1H174.5v1ZM72.639 258.46l-14.994-15.108.71-.704 14.993 15.107-.71.705Zm23.067 9.606a32.5 32.5 0 0 1-23.067-9.606l.71-.705a31.5 31.5 0 0 0 22.357 9.311v1ZM546.833 247a2.667 2.667 0 1 0 5.334 0 2.667 2.667 0 0 0-5.334 0ZM399 285.334h99.503v-1H399v1Zm122.521-9.556 28.333-28.425-.708-.706-28.333 28.425.708.706Zm-23.018 9.556c8.638 0 16.92-3.439 23.018-9.556l-.708-.706a31.501 31.501 0 0 1-22.31 9.262v1ZM495.833 301a2.667 2.667 0 1 0 5.334 0 2.667 2.667 0 0 0-5.334 0Zm-96.833.5h99.5v-1H399v1Zm147.833 45.187a2.667 2.667 0 1 0 5.333-.001 2.667 2.667 0 0 0-5.333.001Zm-17.369-20.214-.355.352.355-.352ZM399 317.5h107.737v-1H399v1Zm130.109 9.325 20.036 20.214.71-.704-20.036-20.214-.71.704Zm-22.372-9.325a31.498 31.498 0 0 1 22.372 9.325l.71-.704a32.5 32.5 0 0 0-23.082-9.621v1Z" fill="#fff" fill-opacity=".07"/><rect x="479" y="390" width="32" height="32" rx="16" fill="#E5FF5D"/><rect opacity=".3" x="471.5" y="382.5" width="47" height="47" rx="23.5" stroke="#E5FF5D"/><rect opacity=".1" x="463.5" y="374.5" width="63" height="63" rx="31.5" stroke="#E5FF5D"/><path d="m492.543 409.629-3.6-3.6-1.2 1.2 4.8 4.8 10.286-10.286-1.2-1.2-9.086 9.086Z" fill="#2B2C39"/><path d="M512.833 224a2.667 2.667 0 1 0 5.334 0 2.667 2.667 0 0 0-5.334 0Zm2.315-.355-19.315 19.153.704.711 19.315-19.154-.704-.71Zm-41.495 28.286H399v1h74.653v-1Zm22.18-9.133a31.498 31.498 0 0 1-22.18 9.133v1a32.504 32.504 0 0 0 22.884-9.422l-.704-.711Z" fill="#E5FF5D"/><path d="M512.833 244a2.667 2.667 0 1 0 5.334 0 2.667 2.667 0 0 0-5.334 0ZM399 269.066h78.794v-1H399v1Zm101.861-9.606 14.994-15.108-.71-.704-14.993 15.107.709.705Zm-23.067 9.606a32.5 32.5 0 0 0 23.067-9.606l-.709-.705a31.503 31.503 0 0 1-22.358 9.311v1Z" fill="#fff" fill-opacity=".07"/><path d="m124 501 68.526-38.968c13.598-7.733 30.168-8.202 44.766-2.581 12.619 4.858 26.463 9.672 36.936 13.204 10.806 3.643 22.53 3.015 32.996-1.513 19.157-8.288 50.542-21.752 67.297-28.325C399.723 432.93 449 420 449 420" stroke="url(#c)"/><path d="m125 455.211 80.982 11.484c4.949.702 9.805 2.644 14.803 2.536 9.218-.199 20.96-6.473 32.224-14.434 22.56-15.946 54.306-15.664 75.369 2.213 17.659 14.987 37.547 27.956 49.509 23.288C403.213 470.415 455 486 455 486" stroke="url(#d)"/><defs><linearGradient id="b" x1="288" y1="176" x2="288" y2="398" gradientUnits="userSpaceOnUse"><stop stop-color="#fff"/><stop offset="1" stop-color="#737373"/></linearGradient><linearGradient id="c" x1="124" y1="460.5" x2="449" y2="460.5" gradientUnits="userSpaceOnUse"><stop stop-color="#E5FF5D" stop-opacity="0"/><stop offset=".545" stop-color="#E5FF5D"/><stop offset="1" stop-color="#E5FF5D" stop-opacity="0"/></linearGradient><linearGradient id="d" x1="125" y1="453.5" x2="455" y2="453.5" gradientUnits="userSpaceOnUse"><stop stop-color="#5DFFFF" stop-opacity="0"/><stop offset=".46" stop-color="#5DFFFF"/><stop offset="1" stop-color="#5DFFFF" stop-opacity="0"/></linearGradient><filter id="a" x="49" y="52" width="478" height="478" filterUnits="userSpaceOnUse" color-interpolation-filters="sRGB"><feFlood flood-opacity="0" result="BackgroundImageFix"/><feColorMatrix in="SourceAlpha" values="0 0 0 0 0 0 0 0 0 0 0 0 0 0 0 0 0 0 127 0" result="hardAlpha"/><feOffset dy="4"/><feGaussianBlur stdDeviation="64"/><feComposite in2="hardAlpha" operator="out"/><feColorMatrix values="0 0 0 0 0.898039 0 0 0 0 1 0 0 0 0 0.364706 0 0 0 0.3 0"/><feBlend in2="BackgroundImageFix" result="effect1_dropShadow_2_1111"/><feBlend in="SourceGraphic" in2="effect1_dropShadow_2_1111" result="shape"/></filter></defs></svg>