<svg width="576" height="560" fill="none" xmlns="http://www.w3.org/2000/svg"><g clip-path="url(#a)"><g opacity=".2" filter="url(#b)"><circle cx="288.5" cy="309.5" r="128.5" fill="url(#c)"/></g><path d="M288 372v-90" stroke="#FDAC76" stroke-dasharray="4 4"/><path d="M257 248h-14.147c-16.383 0-30.12-12.374-31.826-28.668l-8.026-76.664C201.295 126.374 187.558 114 171.175 114h-.675M257 248h-14.203c-16.464 0-30.242 12.494-31.847 28.88l-8.45 86.24c-1.605 16.387-15.383 28.88-31.847 28.88H170m150-144h14.147c16.383 0 30.12-12.374 31.826-28.668l8.026-76.664C375.705 126.374 389.442 114 405.825 114h.675" stroke="#fff" stroke-opacity=".3"/><path d="m155 202 73.611-32.324c18.71 7.183 62.57 17.958 62.57 17.958s47.54-16.042 68.09-22.268C379.821 159.141 420 151 420 151" stroke="url(#d)" stroke-width="3" stroke-linejoin="round"/><path d="m155 172.453 44.029 25.273C237.952 208.165 290.381 151 290.381 151s49.425 43.383 69.994 37.186c20.568-6.198 62.625 3.575 62.625 3.575" stroke="url(#e)" stroke-width="3" stroke-linejoin="round"/><path d="M320 248h14.203c16.464 0 30.242 12.494 31.847 28.88l8.45 86.24c1.605 16.387 15.383 28.88 31.847 28.88H407" stroke="#fff" stroke-opacity=".3"/><g filter="url(#f)" shape-rendering="crispEdges"><circle cx="288" cy="245" r="32" fill="#fff" fill-opacity=".02"/><circle cx="288" cy="245" r="32" stroke="#fff" stroke-opacity=".3"/></g><path d="M299.167 254c1.466 0 2.666-1.2 2.666-2.667V238c0-1.467-1.2-2.667-2.666-2.667h-21.334a2.674 2.674 0 0 0-2.666 2.667v13.333c0 1.467 1.2 2.667 2.666 2.667H272.5v2.667h32V254h-5.333Zm-21.334-16h21.334v13.333h-21.334V238Z" fill="#E5FF5D"/><path d="m159.196 106-.001.12c5.426.064 9.805 4.49 9.805 9.94 0 5.45-4.379 9.875-9.804 9.939V126h-42.087c-7.792 0-14.109-6.327-14.109-14.132 0-7.804 6.317-14.131 14.109-14.131 1.285 0 2.531.172 3.714.494C123.85 91.044 130.951 86 139.228 86c11.028 0 19.968 8.954 19.968 20Zm-4.903 273v.181c8.139.096 14.707 6.734 14.707 14.909s-6.568 14.813-14.707 14.909V409h-63.13C79.475 409 70 399.51 70 387.802c0-11.707 9.475-21.197 21.163-21.197 1.928 0 3.797.258 5.572.742 4.541-10.78 15.192-18.347 27.607-18.347 16.542 0 29.951 13.431 29.951 30Z" stroke="#fff" stroke-opacity=".3"/><g filter="url(#g)" shape-rendering="crispEdges"><path d="M119.252 129.12c0 2.536-.934 4.855-2.476 6.63a10.103 10.103 0 0 1-7.65 3.49c-5.592 0-10.126-4.531-10.126-10.12 0-5.589 4.534-10.12 10.126-10.12s10.126 4.531 10.126 10.12Z" fill="#E5FF5D" fill-opacity=".3"/><path d="M116.776 135.75a10.077 10.077 0 0 0 2.476-6.63c0-5.589-4.534-10.12-10.126-10.12S99 123.531 99 129.12c0 5.589 4.534 10.12 10.126 10.12 3.055 0 5.794-1.352 7.65-3.49Zm0 0L123 142" stroke="#E5FF5D"/></g><rect x="109.5" y="378.233" width="21" height="17.333" rx="1.5" fill="#E5FF5D" stroke="#E5FF5D"/><path d="M122.933 386.01c0 1.735-1.313 3.142-2.933 3.142-1.62 0-2.933-1.407-2.933-3.142 0-1.736 1.313-3.143 2.933-3.143 1.62 0 2.933 1.407 2.933 3.143Z" fill="#2D2D2D"/><path d="M118.944 387.77c0-.625.473-1.132 1.056-1.132.583 0 1.056.507 1.056 1.132v2.765c0 .625-.473 1.132-1.056 1.132-.583 0-1.056-.507-1.056-1.132v-2.765Z" fill="#2D2D2D"/><path d="M126.6 384.7v-12.1a6.6 6.6 0 0 0-13.2 0v12.1" stroke="#E5FF5D" stroke-width="2"/><path d="m461.196 106-.001.12c5.426.064 9.805 4.49 9.805 9.94 0 5.45-4.379 9.875-9.804 9.939V126h-42.087c-7.792 0-14.109-6.327-14.109-14.132 0-7.804 6.317-14.131 14.109-14.131 1.285 0 2.531.172 3.714.494C425.85 91.044 432.951 86 441.228 86c11.028 0 19.968 8.954 19.968 20Z" stroke="#fff" stroke-opacity=".3"/><rect x="438.5" y="119.5" width="53" height="12" rx="6" fill="#181818" stroke="#5C5C5C"/><path d="m448.424 128-.822-.656 1.094-1.497-1.696-.514.324-1.086 1.632.7-.098-1.947h1.024l-.092 1.928 1.632-.688.324 1.086-1.696.502 1.111 1.516-.839.65-.943-1.626-.955 1.632Zm6.251 0-.822-.656 1.094-1.497-1.696-.514.324-1.086 1.632.7-.098-1.947h1.024l-.093 1.928 1.632-.688.325 1.086-1.696.502 1.111 1.516-.839.65-.944-1.626-.954 1.632Zm6.25 0-.821-.656 1.093-1.497-1.695-.514.324-1.086 1.632.7-.099-1.947h1.025l-.093 1.928 1.632-.688.324 1.086-1.695.502 1.111 1.516-.839.65-.944-1.626-.955 1.632Zm6.251 0-.822-.656 1.094-1.497-1.695-.514.324-1.086 1.632.7-.099-1.947h1.025l-.093 1.928 1.632-.688.324 1.086-1.695.502 1.111 1.516-.839.65-.944-1.626-.955 1.632Zm6.251 0-.822-.656 1.094-1.497-1.696-.514.325-1.086 1.632.7-.099-1.947h1.025l-.093 1.928 1.632-.688.324 1.086-1.696.502 1.112 1.516-.84.65-.943-1.626-.955 1.632Zm6.251 0-.822-.656 1.094-1.497-1.696-.514.324-1.086 1.632.7-.098-1.947h1.024l-.092 1.928 1.632-.688.324 1.086-1.696.502 1.111 1.516-.839.65-.943-1.626-.955 1.632Z" fill="#fff"/><path d="M422.707 379v.181c-8.139.096-14.707 6.734-14.707 14.909s6.568 14.813 14.707 14.909V409h63.13c11.688 0 21.163-9.49 21.163-21.198 0-11.707-9.475-21.197-21.163-21.197-1.928 0-3.796.258-5.572.742-4.541-10.78-15.192-18.347-27.607-18.347-16.542 0-29.951 13.431-29.951 30Z" stroke="#fff" stroke-opacity=".3"/><path d="M458.953 407v.12c-5.508.064-9.953 4.49-9.953 9.94 0 5.45 4.445 9.875 9.953 9.939V427h42.725c7.91 0 14.322-6.327 14.322-14.132 0-7.804-6.412-14.131-14.322-14.131-1.305 0-2.57.172-3.771.494-3.073-7.187-10.282-12.231-18.684-12.231-11.195 0-20.27 8.954-20.27 20Z" fill="#161616" stroke="#fff" stroke-opacity=".3"/><g filter="url(#h)" shape-rendering="crispEdges"><rect x="239" y="374" width="162" height="99" rx="12" fill="#1A1A1A"/><rect x="239" y="374" width="162" height="99" rx="12" stroke="#FDAC76" stroke-opacity=".2"/></g><rect x="289" y="451" width="63" height="4" rx="2" fill="#5C5C5C"/><path d="M263.274 436v-9.8h3.549c.695 0 1.309.121 1.841.364.537.238.957.583 1.26 1.036.303.448.455.987.455 1.617 0 .649-.14 1.197-.42 1.645-.28.443-.688.782-1.225 1.015-.532.229-1.181.343-1.946.343h-1.946V436h-1.568Zm1.568-5.124h1.967c.635 0 1.127-.133 1.477-.399.35-.271.525-.679.525-1.225 0-.541-.18-.957-.539-1.246-.359-.289-.842-.434-1.449-.434h-1.981v3.304Zm10.04 5.334c-.723 0-1.369-.166-1.939-.497a3.697 3.697 0 0 1-1.33-1.337 3.63 3.63 0 0 1-.483-1.841 3.617 3.617 0 0 1 1.057-2.576c.341-.341.74-.609 1.197-.805a3.783 3.783 0 0 1 1.505-.294c.724 0 1.368.168 1.932.504.57.331 1.015.777 1.337 1.337a3.59 3.59 0 0 1 .483 1.834c0 .49-.093.957-.28 1.4a3.62 3.62 0 0 1-.777 1.176 3.686 3.686 0 0 1-1.19.805 3.797 3.797 0 0 1-1.512.294Zm0-1.365c.43 0 .81-.093 1.141-.28.336-.191.6-.46.791-.805.192-.345.287-.754.287-1.225 0-.471-.095-.88-.287-1.225a1.991 1.991 0 0 0-.791-.805 2.278 2.278 0 0 0-1.141-.28c-.429 0-.812.093-1.148.28a2.013 2.013 0 0 0-.784.805c-.186.345-.28.754-.28 1.225 0 .471.096.88.287 1.225.192.345.453.614.784.805.336.187.717.28 1.141.28Zm8.15 1.365c-.677 0-1.218-.196-1.624-.588-.406-.392-.609-.992-.609-1.799v-6.776h1.54v2.023h1.925v1.274h-1.925v3.143c0 .485.091.828.273 1.029.186.196.448.294.784.294a1.862 1.862 0 0 0 .854-.203l.273 1.246a3.228 3.228 0 0 1-.693.252c-.257.07-.523.105-.798.105Zm-3.752-5.866v-1.274h1.722v1.274h-1.722Zm9.978 5.866c-.746 0-1.402-.152-1.967-.455a3.352 3.352 0 0 1-1.323-1.288c-.312-.551-.469-1.19-.469-1.918 0-.532.091-1.022.273-1.47a3.475 3.475 0 0 1 1.932-1.946 3.852 3.852 0 0 1 1.463-.273c.574 0 1.085.103 1.533.308.448.201.819.483 1.113.847.299.364.509.791.63 1.281.126.485.147 1.013.063 1.582h-5.53a1.97 1.97 0 0 0 .273 1.092c.192.308.465.548.819.721.36.173.782.259 1.267.259.392 0 .77-.058 1.134-.175a3.264 3.264 0 0 0 1.001-.532l.595 1.106a3.225 3.225 0 0 1-.812.469 5.365 5.365 0 0 1-.994.287c-.345.07-.679.105-1.001.105Zm-2.191-4.466h3.927c-.014-.523-.182-.933-.504-1.232-.317-.299-.77-.448-1.358-.448-.569 0-1.043.149-1.421.448-.373.299-.588.709-.644 1.232Zm7.039 4.256v-6.93h1.54v.882c.289-.387.625-.665 1.008-.833a2.858 2.858 0 0 1 1.19-.259c.635 0 1.16.126 1.575.378a2.4 2.4 0 0 1 .924.973c.205.397.308.805.308 1.225V436h-1.54v-4.088c0-.495-.149-.891-.448-1.19-.294-.299-.705-.448-1.232-.448-.345 0-.653.077-.924.231a1.674 1.674 0 0 0-.63.644 1.893 1.893 0 0 0-.231.952V436h-1.54Zm11.389.21c-.677 0-1.218-.196-1.624-.588-.406-.392-.609-.992-.609-1.799v-6.776h1.54v2.023h1.925v1.274h-1.925v3.143c0 .485.091.828.273 1.029.186.196.448.294.784.294a1.862 1.862 0 0 0 .854-.203l.273 1.246a3.228 3.228 0 0 1-.693.252c-.257.07-.523.105-.798.105Zm-3.752-5.866v-1.274h1.722v1.274h-1.722Zm6.855 5.656v-6.93h1.54V436h-1.54Zm.77-8.169c-.275 0-.513-.089-.714-.266a.891.891 0 0 1-.301-.7c0-.285.101-.516.301-.693.201-.182.439-.273.714-.273.276 0 .514.091.714.273a.88.88 0 0 1 .301.693c0 .289-.1.523-.301.7-.2.177-.438.266-.714.266Zm4.833 8.379c-.481 0-.903-.089-1.267-.266a2.082 2.082 0 0 1-.854-.763c-.201-.331-.301-.721-.301-1.169 0-.378.096-.719.287-1.022.191-.308.488-.562.889-.763.406-.201.926-.334 1.561-.399.635-.07 1.398-.061 2.289.028l.028 1.064a9.862 9.862 0 0 0-1.638-.112c-.457.014-.833.072-1.127.175-.289.098-.504.231-.644.399a.863.863 0 0 0-.203.567c0 .336.119.595.357.777.243.182.574.273.994.273.359 0 .681-.065.966-.196.285-.131.509-.315.672-.553a1.42 1.42 0 0 0 .252-.84v-1.841c0-.308-.065-.574-.196-.798a1.304 1.304 0 0 0-.595-.532c-.266-.126-.597-.189-.994-.189-.364 0-.723.056-1.078.168a3.402 3.402 0 0 0-1.015.511l-.434-1.134a4.34 4.34 0 0 1 1.358-.623 5.458 5.458 0 0 1 1.358-.182c.644 0 1.195.103 1.652.308.462.201.817.506 1.064.917.247.406.371.919.371 1.54V436h-1.386v-.819a2.225 2.225 0 0 1-.973.763 3.52 3.52 0 0 1-1.393.266Zm5.8-.21v-10.08h1.54V436h-1.54Zm6.185 0 3.808-9.8h1.701l3.906 9.8h-1.771l-.903-2.338h-4.151l-.868 2.338h-1.722Zm2.996-3.689h3.325l-1.694-4.27-1.631 4.27Zm10.123 3.899c-.676 0-1.218-.196-1.624-.588-.406-.392-.609-.992-.609-1.799v-6.776h1.54v2.023h1.925v1.274h-1.925v3.143c0 .485.091.828.273 1.029.187.196.448.294.784.294a1.85 1.85 0 0 0 .854-.203l.273 1.246a3.19 3.19 0 0 1-.693.252c-.256.07-.522.105-.798.105Zm-3.752-5.866v-1.274h1.722v1.274h-1.722Zm9.768 5.866c-.677 0-1.218-.196-1.624-.588-.406-.392-.609-.992-.609-1.799v-6.776h1.54v2.023h1.925v1.274h-1.925v3.143c0 .485.091.828.273 1.029.187.196.448.294.784.294a1.862 1.862 0 0 0 .854-.203l.273 1.246a3.228 3.228 0 0 1-.693.252c-.257.07-.523.105-.798.105Zm-3.752-5.866v-1.274h1.722v1.274h-1.722Zm8.781 5.866c-.481 0-.903-.089-1.267-.266a2.082 2.082 0 0 1-.854-.763c-.201-.331-.301-.721-.301-1.169 0-.378.095-.719.287-1.022.191-.308.487-.562.889-.763.406-.201.926-.334 1.561-.399.634-.07 1.397-.061 2.289.028l.028 1.064a9.862 9.862 0 0 0-1.638-.112c-.458.014-.833.072-1.127.175-.29.098-.504.231-.644.399a.858.858 0 0 0-.203.567c0 .336.119.595.357.777.242.182.574.273.994.273.359 0 .681-.065.966-.196.284-.131.508-.315.672-.553a1.42 1.42 0 0 0 .252-.84v-1.841c0-.308-.066-.574-.196-.798a1.304 1.304 0 0 0-.595-.532c-.266-.126-.598-.189-.994-.189-.364 0-.724.056-1.078.168a3.402 3.402 0 0 0-1.015.511l-.434-1.134a4.33 4.33 0 0 1 1.358-.623 5.458 5.458 0 0 1 1.358-.182c.644 0 1.194.103 1.652.308.462.201.816.506 1.064.917.247.406.371.919.371 1.54V436h-1.386v-.819a2.23 2.23 0 0 1-.973.763c-.416.177-.88.266-1.393.266Zm8.977 0c-.728 0-1.377-.159-1.946-.476a3.587 3.587 0 0 1-1.344-1.309c-.322-.555-.483-1.185-.483-1.89 0-.532.096-1.02.287-1.463a3.46 3.46 0 0 1 .812-1.169c.35-.331.761-.588 1.232-.77a4.297 4.297 0 0 1 1.547-.273c.467 0 .898.063 1.295.189.401.121.77.31 1.106.567l-.742 1.176a2.104 2.104 0 0 0-.742-.427 2.735 2.735 0 0 0-.882-.14c-.485 0-.903.091-1.253.273a1.97 1.97 0 0 0-.819.791c-.191.341-.287.754-.287 1.239 0 .723.21 1.29.63 1.701.425.411 1.001.616 1.729.616.345 0 .672-.063.98-.189.308-.131.565-.301.77-.511l.735 1.169c-.369.28-.779.499-1.232.658a4.175 4.175 0 0 1-1.393.238Zm4.041-.21v-10.08h1.54v5.964l2.73-2.814h1.82l-2.45 2.653 2.807 4.277h-1.841l-2.086-3.276-.98.994V436h-1.54Zm10.145.203a5.157 5.157 0 0 1-1.61-.245 3.91 3.91 0 0 1-1.26-.658l.581-1.127c.322.252.683.45 1.085.595.406.145.805.217 1.197.217.452 0 .805-.079 1.057-.238.252-.159.378-.38.378-.665 0-.271-.11-.469-.329-.595-.215-.131-.626-.266-1.232-.406-.873-.182-1.508-.439-1.904-.77-.392-.336-.588-.8-.588-1.393 0-.415.114-.782.343-1.099.233-.322.553-.574.959-.756.406-.182.875-.273 1.407-.273.518 0 1.005.075 1.463.224.457.145.854.35 1.19.616l-.546 1.134a2.67 2.67 0 0 0-.602-.399 3.496 3.496 0 0 0-.728-.259 3.017 3.017 0 0 0-.756-.098c-.392 0-.712.077-.959.231-.243.149-.364.357-.364.623a.65.65 0 0 0 .35.609c.233.131.634.261 1.204.392.896.196 1.537.457 1.925.784.387.327.581.779.581 1.358 0 .443-.119.831-.357 1.162-.238.327-.572.581-1.001.763-.425.182-.92.273-1.484.273Z" fill="#fff"/><path d="m320 390.325 10.04 17.347h-20.08L320 390.325Zm-12.347 16.013c-1.026 1.774.254 4 2.307 4h20.08c2.053 0 3.333-2.226 2.307-4l-10.04-17.346c-1.027-1.774-3.587-1.774-4.614 0l-10.04 17.346Zm11.014-9.333v2.667c0 .733.6 1.333 1.333 1.333s1.333-.6 1.333-1.333v-2.667c0-.733-.6-1.333-1.333-1.333s-1.333.6-1.333 1.333Zm0 6.667h2.666v2.666h-2.666v-2.666Z" fill="#FDAC76"/></g><defs><filter id="b" x="32" y="53" width="513" height="513" filterUnits="userSpaceOnUse" color-interpolation-filters="sRGB"><feFlood flood-opacity="0" result="BackgroundImageFix"/><feBlend in="SourceGraphic" in2="BackgroundImageFix" result="shape"/><feGaussianBlur stdDeviation="64" result="effect1_foregroundBlur_85_31033"/></filter><filter id="f" x="209.5" y="166.5" width="157" height="157" filterUnits="userSpaceOnUse" color-interpolation-filters="sRGB"><feFlood flood-opacity="0" result="BackgroundImageFix"/><feColorMatrix in="SourceAlpha" values="0 0 0 0 0 0 0 0 0 0 0 0 0 0 0 0 0 0 127 0" result="hardAlpha"/><feOffset/><feGaussianBlur stdDeviation="23"/><feComposite in2="hardAlpha" operator="out"/><feColorMatrix values="0 0 0 0 0.898039 0 0 0 0 1 0 0 0 0 0.364706 0 0 0 0.5 0"/><feBlend in2="BackgroundImageFix" result="effect1_dropShadow_85_31033"/><feBlend in="SourceGraphic" in2="effect1_dropShadow_85_31033" result="shape"/></filter><filter id="g" x="52.5" y="72.5" width="116.854" height="115.853" filterUnits="userSpaceOnUse" color-interpolation-filters="sRGB"><feFlood flood-opacity="0" result="BackgroundImageFix"/><feColorMatrix in="SourceAlpha" values="0 0 0 0 0 0 0 0 0 0 0 0 0 0 0 0 0 0 127 0" result="hardAlpha"/><feOffset/><feGaussianBlur stdDeviation="23"/><feComposite in2="hardAlpha" operator="out"/><feColorMatrix values="0 0 0 0 1 0 0 0 0 1 0 0 0 0 1 0 0 0 0.2 0"/><feBlend in2="BackgroundImageFix" result="effect1_dropShadow_85_31033"/><feBlend in="SourceGraphic" in2="effect1_dropShadow_85_31033" result="shape"/></filter><filter id="h" x="192.5" y="327.5" width="255" height="192" filterUnits="userSpaceOnUse" color-interpolation-filters="sRGB"><feFlood flood-opacity="0" result="BackgroundImageFix"/><feColorMatrix in="SourceAlpha" values="0 0 0 0 0 0 0 0 0 0 0 0 0 0 0 0 0 0 127 0" result="hardAlpha"/><feOffset/><feGaussianBlur stdDeviation="23"/><feComposite in2="hardAlpha" operator="out"/><feColorMatrix values="0 0 0 0 0.992157 0 0 0 0 0.67451 0 0 0 0 0.462745 0 0 0 0.5 0"/><feBlend in2="BackgroundImageFix" result="effect1_dropShadow_85_31033"/><feBlend in="SourceGraphic" in2="effect1_dropShadow_85_31033" result="shape"/></filter><linearGradient id="c" x1="187.683" y1="355.337" x2="418.871" y2="305.638" gradientUnits="userSpaceOnUse"><stop stop-color="#5DA8FF" stop-opacity=".3"/><stop offset="1" stop-color="#899938"/></linearGradient><linearGradient id="d" x1="155" y1="176.5" x2="420" y2="176.5" gradientUnits="userSpaceOnUse"><stop stop-color="#E5FF5D" stop-opacity="0"/><stop offset=".545" stop-color="#E5FF5D"/><stop offset="1" stop-color="#E5FF5D" stop-opacity="0"/></linearGradient><linearGradient id="e" x1="155" y1="171.381" x2="423" y2="171.381" gradientUnits="userSpaceOnUse"><stop stop-color="#5DFFFF" stop-opacity="0"/><stop offset=".46" stop-color="#5DFFFF"/><stop offset="1" stop-color="#5DFFFF" stop-opacity="0"/></linearGradient><clipPath id="a"><path fill="#fff" d="M0 0h576v560H0z"/></clipPath></defs></svg>