<svg width="576" height="560" fill="none" xmlns="http://www.w3.org/2000/svg"><path d="M433 152.667a2.667 2.667 0 1 1 0-5.334 2.667 2.667 0 0 1 0 5.334Zm0-2.167h-66v-1h66v1ZM335.5 182v20h-1v-20h1Zm31.5-31.5c-17.397 0-31.5 14.103-31.5 31.5h-1c0-17.949 14.551-32.5 32.5-32.5v1Zm85-10.5-9 4v6c0 5.55 3.84 10.74 9 12 5.16-1.26 9-6.45 9-12v-6l-9-4Zm0 10.99h7c-.53 4.12-3.28 7.79-7 8.94V151h-7v-5.7l7-3.11v8.8Z" fill="#E5FF5D"/><path d="M138.667 454a2.667 2.667 0 1 1-5.334 0 2.667 2.667 0 0 1 5.334 0ZM169 321.5h-1v-1h1v1ZM136.5 353v101h-1V353h1Zm31.5-31.5c-17.397 0-31.5 14.103-31.5 31.5h-1c0-17.949 14.551-32.5 32.5-32.5v1ZM98.667 139a2.667 2.667 0 1 1-5.334 0 2.667 2.667 0 0 1 5.334 0Zm-2.167 0v81h-1v-81h1ZM128 251.5h41v1h-41v-1ZM96.5 220c0 17.397 14.103 31.5 31.5 31.5v1c-17.949 0-32.5-14.551-32.5-32.5h1Z" fill="#fff" fill-opacity=".2"/><g filter="url(#a)"><path fill-rule="evenodd" clip-rule="evenodd" d="M293.226 272.355a1.213 1.213 0 1 0-1.716 1.716l5.147 5.147c-3.717 2.29-6.797 5.633-8.657 10.002 3.98 11.452 19.109 16.004 30.897 12.117l6.346 6.346a1.213 1.213 0 1 0 1.716-1.716l-10.921-10.921a1.213 1.213 0 1 0-1.716 1.716l.469.469a9.345 9.345 0 0 1-12.874-12.753l.514.514a1.213 1.213 0 1 0 1.716-1.716l-10.921-10.921Zm38.942 16.865c-1.826 4.643-5.078 8.036-9.03 10.256l-5.267-5.267a9.305 9.305 0 0 0 1.435-4.979 9.343 9.343 0 0 0-9.343-9.343c-1.83 0-3.537.526-4.979 1.435l-4.146-4.146c11.278-4.234 25.8-.403 31.33 12.044Zm-21.113 1.628a3.035 3.035 0 0 0-1.093-5.864 3.033 3.033 0 0 0-1.092 5.864v1.537a1.092 1.092 0 0 0 2.185 0v-1.537Z" fill="#E5FF5D"/></g><g opacity=".5" filter="url(#b)"><circle cx="309.5" cy="289.5" r="94.5" fill="url(#c)"/></g><g filter="url(#d)"><circle cx="309.5" cy="289.5" r="43" stroke="url(#e)" shape-rendering="crispEdges"/></g><g filter="url(#f)" shape-rendering="crispEdges"><path d="M172.252 452.12c0 2.536-.934 4.855-2.476 6.63a10.103 10.103 0 0 1-7.65 3.49c-5.592 0-10.126-4.531-10.126-10.12 0-5.589 4.534-10.12 10.126-10.12s10.126 4.531 10.126 10.12Z" fill="#E5FF5D" fill-opacity=".3"/><path d="M169.776 458.75a10.077 10.077 0 0 0 2.476-6.63c0-5.589-4.534-10.12-10.126-10.12S152 446.531 152 452.12c0 5.589 4.534 10.12 10.126 10.12 3.055 0 5.794-1.352 7.65-3.49Zm0 0L176 465" stroke="#E5FF5D"/></g><path opacity=".5" d="M73.05 96.15c-.507 0-.947-.093-1.32-.28a2.14 2.14 0 0 1-.86-.755c-.2-.317-.3-.672-.3-1.065 0-.283.05-.535.15-.755.103-.22.252-.412.445-.575a2.54 2.54 0 0 1 .705-.405 1.795 1.795 0 0 1-.74-.56c-.213-.263-.32-.595-.32-.995 0-.367.097-.693.29-.98.193-.29.46-.517.8-.68.34-.167.728-.25 1.165-.25.443 0 .837.083 1.18.25.343.167.612.395.805.685.193.287.29.612.29.975a1.61 1.61 0 0 1-.54 1.235 1.75 1.75 0 0 1-.525.32c.387.157.697.38.93.67.233.287.35.642.35 1.065 0 .393-.103.748-.31 1.065a2.163 2.163 0 0 1-.875.755c-.373.187-.813.28-1.32.28Zm.015-.805c.277 0 .533-.048.77-.145.24-.1.432-.248.575-.445.147-.197.22-.44.22-.73 0-.287-.07-.528-.21-.725a1.262 1.262 0 0 0-.56-.445 1.968 1.968 0 0 0-.795-.155c-.45 0-.825.115-1.125.345-.297.227-.445.553-.445.98 0 .29.072.533.215.73.143.197.333.345.57.445.24.097.502.145.785.145Zm.01-3.43c.27 0 .51-.045.72-.135a1.15 1.15 0 0 0 .49-.39 1.01 1.01 0 0 0 .175-.595c0-.34-.128-.625-.385-.855-.253-.23-.587-.345-1-.345-.277 0-.52.053-.73.16a1.193 1.193 0 0 0-.485.43c-.117.18-.175.383-.175.61 0 .343.13.617.39.82.263.2.597.3 1 .3Zm4.408 4.235-.33-.74a4.861 4.861 0 0 0 1.415-.36c.41-.18.76-.405 1.05-.675.293-.27.528-.568.705-.895a3.78 3.78 0 0 0 .375-1.025 2.08 2.08 0 0 1-.735.665c-.3.163-.632.245-.995.245a2.46 2.46 0 0 1-1.185-.285 2.177 2.177 0 0 1-.84-.79 2.2 2.2 0 0 1-.305-1.16c0-.43.106-.817.32-1.16a2.3 2.3 0 0 1 .895-.815 2.742 2.742 0 0 1 1.305-.305c.51 0 .962.11 1.355.33.393.22.701.54.925.96.227.417.34.925.34 1.525 0 .597-.107 1.148-.32 1.655a4.177 4.177 0 0 1-.905 1.345c-.387.39-.842.712-1.365.965a5.875 5.875 0 0 1-1.705.52Zm1.675-3.58c.303 0 .575-.063.815-.19s.43-.3.57-.52c.14-.22.21-.468.21-.745 0-.28-.069-.528-.205-.745a1.383 1.383 0 0 0-.56-.51 1.752 1.752 0 0 0-.83-.19 1.76 1.76 0 0 0-.825.19 1.366 1.366 0 0 0-.77 1.255c0 .277.07.525.21.745.143.22.335.393.575.52.243.127.513.19.81.19Zm4.462 3.58a.731.731 0 0 1-.5-.185.622.622 0 0 1-.205-.485c0-.133.03-.25.09-.35a.666.666 0 0 1 .255-.235.774.774 0 0 1 .36-.085.72.72 0 0 1 .5.185.622.622 0 0 1 .205.485.64.64 0 0 1-.35.585.744.744 0 0 1-.355.085Zm2.638-.15v-6.03l-1.885.7-.245-.725 2.94-1.095h.07V96h-.88Zm5.748 0v-1.48h-3.535v-.725L91.076 89h.98l-2.585 4.72h2.535v-1.615h.83v1.615h1.125v.8h-1.125V96h-.83Zm3.596.15a.731.731 0 0 1-.5-.185.622.622 0 0 1-.205-.485c0-.133.03-.25.09-.35a.666.666 0 0 1 .255-.235.774.774 0 0 1 .36-.085.72.72 0 0 1 .5.185.622.622 0 0 1 .205.485.64.64 0 0 1-.35.585.744.744 0 0 1-.355.085Zm2.639-.15v-6.03l-1.885.7-.245-.725 2.94-1.095h.07V96h-.88Zm2.653 0v-.705l1.525-1.405c.486-.447.881-.835 1.185-1.165a4.58 4.58 0 0 0 .67-.91c.143-.277.215-.555.215-.835 0-.407-.142-.727-.425-.96-.28-.233-.669-.35-1.165-.35-.307 0-.604.052-.89.155a1.885 1.885 0 0 0-.72.45l-.355-.69a2.8 2.8 0 0 1 .94-.545c.356-.127.735-.19 1.135-.19.47 0 .883.085 1.24.255.356.167.633.405.83.715.2.307.3.668.3 1.085 0 .29-.059.582-.175.875-.117.293-.325.623-.625.99-.297.363-.719.8-1.265 1.31l-1.2 1.105h3.44V96h-4.66Zm6.573.15a.732.732 0 0 1-.5-.185.624.624 0 0 1-.205-.485c0-.133.03-.25.09-.35a.676.676 0 0 1 .255-.235.774.774 0 0 1 .36-.085.72.72 0 0 1 .5.185.621.621 0 0 1 .205.485.635.635 0 0 1-.35.585.742.742 0 0 1-.355.085Zm2.639-.15v-6.03l-1.885.7-.245-.725 2.94-1.095h.07V96h-.88Zm2.653 0v-.705l1.525-1.405a19.93 19.93 0 0 0 1.185-1.165c.303-.333.527-.637.67-.91.143-.277.215-.555.215-.835 0-.407-.142-.727-.425-.96-.28-.233-.668-.35-1.165-.35-.307 0-.603.052-.89.155a1.885 1.885 0 0 0-.72.45l-.355-.69a2.81 2.81 0 0 1 .94-.545 3.36 3.36 0 0 1 1.135-.19c.47 0 .883.085 1.24.255.357.167.633.405.83.715.2.307.3.668.3 1.085 0 .29-.058.582-.175.875-.117.293-.325.623-.625.99-.297.363-.718.8-1.265 1.31l-1.2 1.105h3.44V96h-4.66Zm7.884.15a4.163 4.163 0 0 1-1.6-.32 2.276 2.276 0 0 1-.58-.355l.33-.79c.22.193.493.347.82.46.326.11.651.165.975.165.336 0 .63-.057.88-.17.25-.117.443-.28.58-.49a1.34 1.34 0 0 0 .205-.745c0-.43-.159-.765-.475-1.005-.314-.243-.732-.365-1.255-.365-.134 0-.27.008-.41.025-.137.017-.279.04-.425.07l-.285-.63 2.31-2.195h-3.205V89h4.36v.745l-2.225 2.15c.446-.013.863.053 1.25.2.386.143.698.37.935.68.236.307.355.697.355 1.17 0 .44-.109.827-.325 1.16a2.17 2.17 0 0 1-.9.77 3.016 3.016 0 0 1-1.315.275Z" fill="#fff"/><path d="m85 113.776 2 2c4.97-4.97 13.03-4.97 18 0l2-2c-6.07-6.07-15.92-6.07-22 0Zm8 8 3 3 3-3a4.237 4.237 0 0 0-6 0Zm-4-4 2 2a7.074 7.074 0 0 1 10 0l2-2c-3.86-3.86-10.13-3.86-14 0Z" fill="#E5FF5D"/><g filter="url(#g)"><path d="M169.5 210a7.5 7.5 0 0 1 7.5-7.5h222a7.5 7.5 0 0 1 7.5 7.5v11.5h-237V210Z" stroke="#5C5C5C"/><rect x="176" y="210" width="4" height="4" rx="2" fill="#FDAC76"/><rect x="184" y="210" width="4" height="4" rx="2" fill="#A1FFB0"/><rect x="192" y="210" width="4" height="4" rx="2" fill="#5C5C5C"/><path d="M169.5 221.5h52v137H177a7.5 7.5 0 0 1-7.5-7.5V221.5Z" stroke="#5C5C5C"/><path d="M169.5 221.5h237V351a7.5 7.5 0 0 1-7.5 7.5H177a7.5 7.5 0 0 1-7.5-7.5V221.5Z" stroke="#5C5C5C"/><rect x="365.5" y="319.5" width="67" height="18" rx="6.5" fill="#1A1B1A" stroke="#5C5C5C"/><path d="m374.136 332-1.233-.918 1.641-2.096-2.544-.72.486-1.52 2.448.98-.147-2.726h1.536l-.139 2.699 2.448-.962.487 1.52-2.544.702 1.667 2.123-1.259.909-1.415-2.276-1.432 2.285Zm9.376 0-1.233-.918 1.641-2.096-2.544-.72.486-1.52 2.449.98-.148-2.726h1.536l-.138 2.699 2.448-.962.486 1.52-2.544.702 1.667 2.123-1.259.909-1.415-2.276-1.432 2.285Zm9.376 0-1.233-.918 1.641-2.096-2.543-.72.486-1.52 2.448.98-.148-2.726h1.537l-.139 2.699 2.448-.962.486 1.52-2.543.702 1.666 2.123-1.258.909-1.415-2.276-1.433 2.285Zm9.376 0-1.232-.918 1.64-2.096-2.543-.72.486-1.52 2.448.98-.147-2.726h1.536l-.139 2.699 2.448-.962.486 1.52-2.543.702 1.667 2.123-1.259.909-1.415-2.276-1.433 2.285Zm9.377 0-1.233-.918 1.641-2.096-2.544-.72.486-1.52 2.448.98-.147-2.726h1.536l-.139 2.699 2.449-.962.486 1.52-2.544.702 1.667 2.123-1.259.909-1.415-2.276-1.432 2.285Zm9.376 0-1.233-.918 1.641-2.096-2.544-.72.487-1.52 2.448.98-.148-2.726h1.537l-.139 2.699 2.448-.962.486 1.52-2.544.702 1.667 2.123-1.259.909-1.415-2.276-1.432 2.285Z" fill="#898989"/></g><path d="M188.63 454v-.705l1.525-1.405c.487-.447.882-.835 1.185-1.165.303-.333.527-.637.67-.91.143-.277.215-.555.215-.835 0-.407-.142-.727-.425-.96-.28-.233-.668-.35-1.165-.35-.307 0-.603.052-.89.155a1.878 1.878 0 0 0-.72.45l-.355-.69a2.81 2.81 0 0 1 .94-.545 3.36 3.36 0 0 1 1.135-.19c.47 0 .883.085 1.24.255.357.167.633.405.83.715.2.307.3.668.3 1.085 0 .29-.058.582-.175.875-.117.293-.325.623-.625.99-.297.363-.718.8-1.265 1.31l-1.2 1.105h3.44V454h-4.66Zm8.649.15c-.44 0-.837-.095-1.19-.285a2.687 2.687 0 0 1-.895-.79 3.804 3.804 0 0 1-.56-1.165c-.13-.44-.195-.91-.195-1.41 0-.503.065-.975.195-1.415.13-.44.316-.827.56-1.16.246-.337.545-.6.895-.79.353-.19.75-.285 1.19-.285.436 0 .83.095 1.18.285.35.19.648.453.895.79.246.333.435.72.565 1.16.13.44.195.912.195 1.415 0 .5-.065.97-.195 1.41-.13.44-.319.828-.565 1.165-.247.337-.545.6-.895.79-.35.19-.744.285-1.18.285Zm0-.85c.283 0 .54-.063.77-.19.233-.13.433-.317.6-.56.17-.243.3-.537.39-.88.093-.347.14-.737.14-1.17 0-.577-.08-1.075-.24-1.495-.16-.42-.384-.743-.67-.97a1.54 1.54 0 0 0-.99-.34c-.284 0-.542.065-.775.195-.234.13-.435.317-.605.56a2.784 2.784 0 0 0-.385.885c-.09.343-.135.732-.135 1.165 0 .577.078 1.075.235 1.495.16.42.381.743.665.97.286.223.62.335 1 .335Zm3.822.7v-.705l1.525-1.405c.486-.447.881-.835 1.185-1.165a4.58 4.58 0 0 0 .67-.91c.143-.277.215-.555.215-.835 0-.407-.142-.727-.425-.96-.28-.233-.669-.35-1.165-.35-.307 0-.604.052-.89.155a1.878 1.878 0 0 0-.72.45l-.355-.69a2.8 2.8 0 0 1 .94-.545c.356-.127.735-.19 1.135-.19.47 0 .883.085 1.24.255.356.167.633.405.83.715.2.307.3.668.3 1.085 0 .29-.059.582-.175.875-.117.293-.325.623-.625.99-.297.363-.719.8-1.265 1.31l-1.2 1.105h3.44V454h-4.66Zm7.883.15a4.156 4.156 0 0 1-1.6-.32 2.312 2.312 0 0 1-.58-.355l.33-.79c.22.193.494.347.82.46.327.11.652.165.975.165.337 0 .63-.057.88-.17.25-.117.444-.28.58-.49.137-.21.205-.458.205-.745 0-.43-.158-.765-.475-1.005-.313-.243-.731-.365-1.255-.365-.133 0-.27.008-.41.025-.136.017-.278.04-.425.07l-.285-.63 2.31-2.195h-3.205V447h4.36v.745l-2.225 2.15c.447-.013.864.053 1.25.2.387.143.699.37.935.68.237.307.355.697.355 1.17 0 .44-.108.827-.325 1.16-.216.33-.516.587-.9.77a3.014 3.014 0 0 1-1.315.275Zm3.801-2.56v-.8h2.62v.8h-2.62Zm6.632 2.56c-.44 0-.836-.095-1.19-.285a2.696 2.696 0 0 1-.895-.79 3.828 3.828 0 0 1-.56-1.165c-.13-.44-.195-.91-.195-1.41 0-.503.065-.975.195-1.415.13-.44.317-.827.56-1.16.247-.337.545-.6.895-.79.354-.19.75-.285 1.19-.285.437 0 .83.095 1.18.285.35.19.649.453.895.79.247.333.435.72.565 1.16.13.44.195.912.195 1.415 0 .5-.065.97-.195 1.41-.13.44-.318.828-.565 1.165-.246.337-.545.6-.895.79-.35.19-.743.285-1.18.285Zm0-.85c.284 0 .54-.063.77-.19.234-.13.434-.317.6-.56.17-.243.3-.537.39-.88a4.48 4.48 0 0 0 .14-1.17c0-.577-.08-1.075-.24-1.495-.16-.42-.383-.743-.67-.97a1.535 1.535 0 0 0-.99-.34c-.283 0-.541.065-.775.195-.233.13-.435.317-.605.56a2.806 2.806 0 0 0-.385.885c-.09.343-.135.732-.135 1.165 0 .577.079 1.075.235 1.495.16.42.382.743.665.97.287.223.62.335 1 .335Zm4.738.85-.33-.74a4.864 4.864 0 0 0 1.415-.36c.41-.18.76-.405 1.05-.675.293-.27.528-.568.705-.895.176-.33.301-.672.375-1.025a2.051 2.051 0 0 1-1.73.91 2.46 2.46 0 0 1-1.185-.285 2.165 2.165 0 0 1-.84-.79 2.193 2.193 0 0 1-.305-1.16c0-.43.106-.817.32-1.16a2.3 2.3 0 0 1 .895-.815 2.744 2.744 0 0 1 1.305-.305c.51 0 .961.11 1.355.33.393.22.701.54.925.96.226.417.34.925.34 1.525 0 .597-.107 1.148-.32 1.655a4.185 4.185 0 0 1-.905 1.345c-.387.39-.842.712-1.365.965a5.882 5.882 0 0 1-1.705.52Zm1.675-3.58c.303 0 .575-.063.815-.19s.43-.3.57-.52c.14-.22.21-.468.21-.745a1.373 1.373 0 0 0-.765-1.255 1.749 1.749 0 0 0-.83-.19c-.307 0-.582.063-.825.19a1.365 1.365 0 0 0-.77 1.255c0 .277.07.525.21.745.143.22.335.393.575.52.243.127.513.19.81.19Zm3.869 1.02v-.8h2.62v.8h-2.62Zm4.569 2.41v-6.03l-1.885.7-.245-.725 2.94-1.095h.07V454h-.88Zm4.248 0v-6.03l-1.885.7-.245-.725 2.94-1.095h.07V454h-.88Zm6.748 0v-6.03l-1.885.7-.245-.725 2.94-1.095h.07V454h-.88Zm4.648.15c-.42 0-.827-.06-1.22-.18-.39-.12-.71-.28-.96-.48l.325-.785c.23.193.507.343.83.45.327.103.652.155.975.155.353 0 .658-.058.915-.175.257-.12.455-.29.595-.51.14-.223.21-.492.21-.805 0-.29-.075-.538-.225-.745a1.38 1.38 0 0 0-.61-.48 2.151 2.151 0 0 0-.875-.17c-.203 0-.415.025-.635.075-.22.047-.443.12-.67.22l-.395-.41.365-3.295 3.795-.01v.83h-3.115l-.235 2.03a3.698 3.698 0 0 1 1.13-.205c.45 0 .855.087 1.215.26.363.173.65.423.86.75.213.327.32.718.32 1.175 0 .467-.11.873-.33 1.22a2.21 2.21 0 0 1-.915.8c-.387.19-.837.285-1.35.285Zm4.645-3.915a.733.733 0 0 1-.5-.185.624.624 0 0 1-.205-.485c0-.133.03-.25.09-.35a.678.678 0 0 1 .255-.235.77.77 0 0 1 .36-.085.72.72 0 0 1 .5.185.62.62 0 0 1 .205.485.635.635 0 0 1-.35.585.739.739 0 0 1-.355.085Zm0 3.915a.733.733 0 0 1-.5-.185.624.624 0 0 1-.205-.485c0-.133.03-.25.09-.35a.678.678 0 0 1 .255-.235.77.77 0 0 1 .36-.085.72.72 0 0 1 .5.185.62.62 0 0 1 .205.485.635.635 0 0 1-.35.585.739.739 0 0 1-.355.085Zm5.166-.15v-1.48h-3.535v-.725l2.605-4.795h.98l-2.585 4.72h2.535v-1.615h.83v1.615h1.125v.8h-1.125V454h-.83Zm4.906.15c-.42 0-.827-.06-1.22-.18-.39-.12-.71-.28-.96-.48l.325-.785c.23.193.507.343.83.45.327.103.652.155.975.155.353 0 .658-.058.915-.175.257-.12.455-.29.595-.51.14-.223.21-.492.21-.805 0-.29-.075-.538-.225-.745a1.38 1.38 0 0 0-.61-.48 2.151 2.151 0 0 0-.875-.17c-.203 0-.415.025-.635.075-.22.047-.443.12-.67.22l-.395-.41.365-3.295 3.795-.01v.83h-3.115l-.235 2.03a3.698 3.698 0 0 1 1.13-.205c.45 0 .855.087 1.215.26.363.173.65.423.86.75.213.327.32.718.32 1.175 0 .467-.11.873-.33 1.22a2.21 2.21 0 0 1-.915.8c-.387.19-.837.285-1.35.285Zm4.645-3.915a.733.733 0 0 1-.5-.185.624.624 0 0 1-.205-.485c0-.133.03-.25.09-.35a.678.678 0 0 1 .255-.235.77.77 0 0 1 .36-.085.72.72 0 0 1 .5.185.62.62 0 0 1 .205.485.635.635 0 0 1-.35.585.739.739 0 0 1-.355.085Zm0 3.915a.733.733 0 0 1-.5-.185.624.624 0 0 1-.205-.485c0-.133.03-.25.09-.35a.678.678 0 0 1 .255-.235.77.77 0 0 1 .36-.085.72.72 0 0 1 .5.185.62.62 0 0 1 .205.485.635.635 0 0 1-.35.585.739.739 0 0 1-.355.085Zm4.831 0c-.44 0-.837-.095-1.19-.285a2.696 2.696 0 0 1-.895-.79 3.828 3.828 0 0 1-.56-1.165c-.13-.44-.195-.91-.195-1.41 0-.503.065-.975.195-1.415.13-.44.317-.827.56-1.16.247-.337.545-.6.895-.79.353-.19.75-.285 1.19-.285.437 0 .83.095 1.18.285.35.19.648.453.895.79.247.333.435.72.565 1.16.13.44.195.912.195 1.415 0 .5-.065.97-.195 1.41-.13.44-.318.828-.565 1.165-.247.337-.545.6-.895.79-.35.19-.743.285-1.18.285Zm0-.85c.283 0 .54-.063.77-.19.233-.13.433-.317.6-.56.17-.243.3-.537.39-.88.093-.347.14-.737.14-1.17 0-.577-.08-1.075-.24-1.495-.16-.42-.383-.743-.67-.97a1.535 1.535 0 0 0-.99-.34c-.283 0-.542.065-.775.195-.233.13-.435.317-.605.56a2.784 2.784 0 0 0-.385.885c-.09.343-.135.732-.135 1.165 0 .577.078 1.075.235 1.495.16.42.382.743.665.97.287.223.62.335 1 .335Zm6.437.85c-.506 0-.946-.093-1.32-.28a2.144 2.144 0 0 1-.86-.755c-.2-.317-.3-.672-.3-1.065 0-.283.05-.535.15-.755.104-.22.252-.412.445-.575.197-.163.432-.298.705-.405a1.802 1.802 0 0 1-.74-.56c-.213-.263-.32-.595-.32-.995 0-.367.097-.693.29-.98.194-.29.46-.517.8-.68.34-.167.729-.25 1.165-.25.444 0 .837.083 1.18.25.344.167.612.395.805.685a1.7 1.7 0 0 1 .29.975 1.61 1.61 0 0 1-.54 1.235c-.16.14-.335.247-.525.32.387.157.697.38.93.67.234.287.35.642.35 1.065 0 .393-.103.748-.31 1.065a2.156 2.156 0 0 1-.875.755c-.373.187-.813.28-1.32.28Zm.015-.805c.277 0 .534-.048.77-.145.24-.1.432-.248.575-.445.147-.197.22-.44.22-.73 0-.287-.07-.528-.21-.725a1.254 1.254 0 0 0-.56-.445 1.968 1.968 0 0 0-.795-.155c-.45 0-.825.115-1.125.345-.296.227-.445.553-.445.98 0 .29.072.533.215.73.144.197.334.345.57.445.24.097.502.145.785.145Zm.01-3.43c.27 0 .51-.045.72-.135.21-.093.374-.223.49-.39a1.01 1.01 0 0 0 .175-.595c0-.34-.128-.625-.385-.855-.253-.23-.586-.345-1-.345-.276 0-.52.053-.73.16a1.2 1.2 0 0 0-.485.43c-.116.18-.175.383-.175.61 0 .343.13.617.39.82.264.2.597.3 1 .3ZM191.67 468.15c-.617 0-1.13-.125-1.54-.375a2.415 2.415 0 0 1-.925-1.02 3.264 3.264 0 0 1-.31-1.435V461h.94v4.285c0 .663.165 1.158.495 1.485.333.323.78.485 1.34.485.557 0 1-.162 1.33-.485.333-.327.5-.822.5-1.485V461h.94v4.32c0 .527-.103 1.003-.31 1.43a2.415 2.415 0 0 1-.925 1.02c-.41.253-.922.38-1.535.38Zm4.459-.15v-4.9h.92v.66a1.87 1.87 0 0 1 .735-.62c.28-.127.567-.19.86-.19.443 0 .81.09 1.1.27.293.177.512.403.655.68.147.277.22.56.22.85V468h-.92v-2.965c0-.37-.115-.667-.345-.89-.23-.227-.543-.34-.94-.34-.26 0-.493.058-.7.175a1.256 1.256 0 0 0-.485.485c-.12.21-.18.452-.18.725V468h-.92Zm7.38.15c-.346 0-.648-.063-.905-.19a1.413 1.413 0 0 1-.595-.535 1.571 1.571 0 0 1-.21-.825c0-.26.067-.497.2-.71.134-.217.344-.395.63-.535.287-.143.659-.238 1.115-.285.457-.05 1.009-.042 1.655.025l.025.675a7.2 7.2 0 0 0-1.275-.075c-.35.013-.633.06-.85.14-.216.077-.376.18-.48.31-.1.127-.15.27-.15.43 0 .257.092.458.275.605.187.143.442.215.765.215.277 0 .524-.05.74-.15.22-.103.394-.245.52-.425a1.07 1.07 0 0 0 .195-.635v-1.37c0-.23-.051-.43-.155-.6a.99.99 0 0 0-.445-.395 1.686 1.686 0 0 0-.725-.14c-.256 0-.511.038-.765.115a2.403 2.403 0 0 0-.73.375l-.28-.71c.304-.207.617-.352.94-.435.324-.083.634-.125.93-.125.45 0 .834.072 1.15.215.317.14.559.352.725.635.167.283.25.637.25 1.06V468h-.845v-.6c-.17.243-.405.43-.705.56-.3.127-.633.19-1 .19Zm5.906 0c-.436 0-.798-.088-1.085-.265a1.689 1.689 0 0 1-.635-.69 2.027 2.027 0 0 1-.21-.91V463.1h.92v2.99c0 .36.109.652.325.875.22.22.522.33.905.33.247 0 .47-.057.67-.17.2-.113.359-.272.475-.475.12-.207.18-.445.18-.715V463.1h.92v4.9h-.845v-.6a2.014 2.014 0 0 1-1.62.75Zm6.083 0c-.457 0-.825-.133-1.105-.4-.277-.267-.415-.678-.415-1.235v-4.855h.92v1.44h1.435v.78h-1.435v2.405c0 .373.066.637.2.79.136.15.335.225.595.225a1.309 1.309 0 0 0 .61-.145l.19.755a2.198 2.198 0 0 1-.995.24Zm-2.64-4.27v-.78h1.26v.78h-1.26Zm4.843 4.12v-7.2h.92v3.265l-.19-.195c.22-.317.485-.548.795-.695.314-.15.639-.225.975-.225.444 0 .812.09 1.105.27.297.177.519.405.665.685.147.28.22.568.22.865V468h-.92v-2.965c0-.363-.116-.658-.35-.885-.233-.23-.546-.345-.94-.345-.26 0-.493.058-.7.175a1.256 1.256 0 0 0-.485.485c-.116.207-.175.45-.175.73V468h-.92Zm8.221.15a2.588 2.588 0 0 1-2.29-1.3 2.554 2.554 0 0 1-.34-1.3 2.57 2.57 0 0 1 .745-1.825 2.55 2.55 0 0 1 .835-.57 2.64 2.64 0 0 1 1.05-.205 2.6 2.6 0 0 1 1.36.355c.396.237.708.552.935.945.226.393.34.827.34 1.3a2.57 2.57 0 0 1-.745 1.825c-.237.24-.515.43-.835.57-.32.137-.672.205-1.055.205Zm0-.83c.33 0 .621-.072.875-.215a1.59 1.59 0 0 0 .605-.615c.146-.267.22-.58.22-.94a1.91 1.91 0 0 0-.22-.94 1.507 1.507 0 0 0-.6-.615 1.778 1.778 0 0 0-.88-.215c-.33 0-.624.072-.88.215a1.532 1.532 0 0 0-.6.615c-.144.263-.215.577-.215.94 0 .36.071.673.215.94.146.263.348.468.605.615.256.143.548.215.875.215Zm3.791.68v-4.9h.92v.71c.197-.32.43-.543.7-.67.273-.13.563-.195.87-.195.097 0 .19.005.28.015.09.01.178.023.265.04l-.135.955a1.95 1.95 0 0 0-.285-.06 1.648 1.648 0 0 0-.285-.025c-.41 0-.748.128-1.015.385-.263.253-.395.593-.395 1.02V468h-.92Zm4.004 0v-4.9h.92v4.9h-.92Zm.46-5.825a.642.642 0 0 1-.45-.175.572.572 0 0 1-.19-.44c0-.183.063-.332.19-.445a.642.642 0 0 1 .45-.175c.177 0 .327.058.45.175.127.113.19.262.19.445a.572.572 0 0 1-.19.44.628.628 0 0 1-.45.175Zm1.725 5.825v-.685l2.675-3.39h-2.63v-.825h3.76v.685l-2.635 3.385h2.675v.83h-3.845Zm7.315.15c-.52 0-.979-.108-1.375-.325a2.354 2.354 0 0 1-.93-.905c-.224-.39-.335-.843-.335-1.36 0-.373.063-.72.19-1.04.13-.32.31-.597.54-.83.233-.233.505-.415.815-.545.313-.13.653-.195 1.02-.195.396 0 .75.07 1.06.21.313.14.571.337.775.59.206.25.355.545.445.885.09.337.108.703.055 1.1h-3.99c-.01.327.056.613.2.86.143.243.35.433.62.57.273.137.596.205.97.205.273 0 .54-.043.8-.13.26-.087.49-.215.69-.385l.39.685c-.16.13-.35.242-.57.335a3.613 3.613 0 0 1-1.37.275Zm-1.68-3.13h3.02c-.014-.413-.142-.735-.385-.965-.244-.233-.592-.35-1.045-.35-.44 0-.804.117-1.09.35-.287.23-.454.552-.5.965Zm7.208 3.13a2.4 2.4 0 0 1-1.285-.345c-.37-.23-.66-.54-.87-.93a2.8 2.8 0 0 1-.31-1.325c0-.36.06-.697.18-1.01a2.57 2.57 0 0 1 .505-.825c.22-.24.482-.427.785-.56a2.411 2.411 0 0 1 1.005-.205c.47 0 .872.095 1.205.285.337.19.613.445.83.765l-.185.205V460.8h.92v7.2h-.845v-1.15l.135.21c-.19.313-.452.573-.785.78-.33.207-.758.31-1.285.31Zm.165-.83c.33 0 .622-.072.875-.215.257-.147.458-.352.605-.615.147-.267.22-.58.22-.94 0-.363-.073-.677-.22-.94a1.495 1.495 0 0 0-.6-.615 1.778 1.778 0 0 0-.88-.215c-.33 0-.623.072-.88.215a1.545 1.545 0 0 0-.6.615 1.942 1.942 0 0 0-.215.94c0 .36.072.673.215.94.147.263.348.468.605.615.257.143.548.215.875.215Zm8.056.83c-.346 0-.648-.063-.905-.19a1.413 1.413 0 0 1-.595-.535 1.571 1.571 0 0 1-.21-.825c0-.26.067-.497.2-.71.134-.217.344-.395.63-.535.287-.143.659-.238 1.115-.285.457-.05 1.009-.042 1.655.025l.025.675a7.2 7.2 0 0 0-1.275-.075c-.35.013-.633.06-.85.14-.216.077-.376.18-.48.31-.1.127-.15.27-.15.43 0 .257.092.458.275.605.187.143.442.215.765.215.277 0 .524-.05.74-.15.22-.103.394-.245.52-.425a1.07 1.07 0 0 0 .195-.635v-1.37c0-.23-.051-.43-.155-.6a.99.99 0 0 0-.445-.395 1.686 1.686 0 0 0-.725-.14c-.256 0-.511.038-.765.115a2.403 2.403 0 0 0-.73.375l-.28-.71c.304-.207.617-.352.94-.435.324-.083.634-.125.93-.125.45 0 .834.072 1.15.215.317.14.559.352.725.635.167.283.25.637.25 1.06V468h-.845v-.6c-.17.243-.405.43-.705.56-.3.127-.633.19-1 .19Zm6.295 0c-.517 0-.975-.113-1.375-.34a2.485 2.485 0 0 1-.94-.925 2.62 2.62 0 0 1-.34-1.335c0-.377.067-.723.2-1.04.137-.317.328-.592.575-.825.247-.233.535-.413.865-.54.333-.13.697-.195 1.09-.195a3 3 0 0 1 .885.125c.27.083.52.212.75.385l-.47.71a1.463 1.463 0 0 0-.525-.29c-.2-.067-.412-.1-.635-.1-.367 0-.685.07-.955.21a1.459 1.459 0 0 0-.62.6c-.147.263-.22.58-.22.95 0 .557.16.993.48 1.31.323.313.76.47 1.31.47.253 0 .49-.045.71-.135.22-.093.4-.213.54-.36l.475.7a3.294 3.294 0 0 1-.845.46c-.307.11-.625.165-.955.165Zm4.99 0c-.516 0-.975-.113-1.375-.34a2.485 2.485 0 0 1-.94-.925 2.63 2.63 0 0 1-.34-1.335c0-.377.067-.723.2-1.04.137-.317.329-.592.575-.825.247-.233.535-.413.865-.54.334-.13.697-.195 1.09-.195a3 3 0 0 1 .885.125c.27.083.52.212.75.385l-.47.71a1.463 1.463 0 0 0-.525-.29c-.2-.067-.411-.1-.635-.1-.366 0-.685.07-.955.21a1.464 1.464 0 0 0-.62.6c-.146.263-.22.58-.22.95 0 .557.16.993.48 1.31.324.313.76.47 1.31.47.254 0 .49-.045.71-.135.22-.093.4-.213.54-.36l.475.7a3.278 3.278 0 0 1-.845.46c-.306.11-.625.165-.955.165Zm4.976 0c-.52 0-.979-.108-1.375-.325a2.354 2.354 0 0 1-.93-.905c-.224-.39-.335-.843-.335-1.36 0-.373.063-.72.19-1.04.13-.32.31-.597.54-.83.233-.233.505-.415.815-.545.313-.13.653-.195 1.02-.195.396 0 .75.07 1.06.21.313.14.571.337.775.59.206.25.355.545.445.885.09.337.108.703.055 1.1h-3.99c-.01.327.056.613.2.86.143.243.35.433.62.57.273.137.596.205.97.205.273 0 .54-.043.8-.13.26-.087.49-.215.69-.385l.39.685c-.16.13-.35.242-.57.335a3.613 3.613 0 0 1-1.37.275Zm-1.68-3.13h3.02c-.014-.413-.142-.735-.385-.965-.244-.233-.592-.35-1.045-.35-.44 0-.804.117-1.09.35-.287.23-.454.552-.5.965Zm6.714 3.125c-.387 0-.753-.057-1.1-.17a2.658 2.658 0 0 1-.86-.465l.38-.695a2.483 2.483 0 0 0 1.58.575c.347 0 .617-.062.81-.185a.605.605 0 0 0 .29-.535c0-.213-.083-.372-.25-.475-.167-.103-.477-.21-.93-.32-.6-.137-1.037-.32-1.31-.55-.27-.23-.405-.547-.405-.95 0-.287.08-.54.24-.76.16-.223.378-.398.655-.525.28-.127.602-.19.965-.19.36 0 .695.052 1.005.155.313.1.585.247.815.44l-.355.7a1.73 1.73 0 0 0-.415-.285 2.268 2.268 0 0 0-.505-.185c-.18-.047-.36-.07-.54-.07-.297 0-.54.06-.73.18a.564.564 0 0 0-.28.5c0 .223.09.387.27.49.183.103.487.205.91.305.613.137 1.053.32 1.32.55.267.227.4.54.4.94 0 .31-.082.58-.245.81a1.604 1.604 0 0 1-.685.53 2.65 2.65 0 0 1-1.03.185Zm4.756 0c-.387 0-.754-.057-1.1-.17a2.648 2.648 0 0 1-.86-.465l.38-.695a2.483 2.483 0 0 0 1.58.575c.346 0 .616-.062.81-.185a.605.605 0 0 0 .29-.535.522.522 0 0 0-.25-.475c-.167-.103-.477-.21-.93-.32-.6-.137-1.037-.32-1.31-.55-.27-.23-.405-.547-.405-.95 0-.287.08-.54.24-.76.16-.223.378-.398.655-.525.28-.127.601-.19.965-.19.36 0 .695.052 1.005.155.313.1.585.247.815.44l-.355.7a1.73 1.73 0 0 0-.415-.285 2.268 2.268 0 0 0-.505-.185c-.18-.047-.36-.07-.54-.07-.297 0-.54.06-.73.18a.564.564 0 0 0-.28.5c0 .223.09.387.27.49.183.103.486.205.91.305.613.137 1.053.32 1.32.55.266.227.4.54.4.94 0 .31-.082.58-.245.81a1.61 1.61 0 0 1-.685.53 2.653 2.653 0 0 1-1.03.185Zm7.123.005c-.346 0-.648-.063-.905-.19a1.413 1.413 0 0 1-.595-.535 1.571 1.571 0 0 1-.21-.825c0-.26.067-.497.2-.71.134-.217.344-.395.63-.535.287-.143.659-.238 1.115-.285.457-.05 1.009-.042 1.655.025l.025.675a7.2 7.2 0 0 0-1.275-.075c-.35.013-.633.06-.85.14-.216.077-.376.18-.48.31-.1.127-.15.27-.15.43 0 .257.092.458.275.605.187.143.442.215.765.215.277 0 .524-.05.74-.15.22-.103.394-.245.52-.425a1.07 1.07 0 0 0 .195-.635v-1.37c0-.23-.051-.43-.155-.6a.99.99 0 0 0-.445-.395 1.686 1.686 0 0 0-.725-.14c-.256 0-.511.038-.765.115a2.403 2.403 0 0 0-.73.375l-.28-.71c.304-.207.617-.352.94-.435.324-.083.634-.125.93-.125.45 0 .834.072 1.15.215.317.14.559.352.725.635.167.283.25.637.25 1.06V468h-.845v-.6c-.17.243-.405.43-.705.56-.3.127-.633.19-1 .19Zm6.002 0c-.456 0-.825-.133-1.105-.4-.276-.267-.415-.678-.415-1.235v-4.855h.92v1.44h1.435v.78h-1.435v2.405c0 .373.067.637.2.79.137.15.335.225.595.225a1.298 1.298 0 0 0 .61-.145l.19.755a2.191 2.191 0 0 1-.995.24Zm-2.64-4.27v-.78h1.26v.78h-1.26Zm6.869 4.27c-.457 0-.825-.133-1.105-.4-.277-.267-.415-.678-.415-1.235v-4.855h.92v1.44h1.435v.78h-1.435v2.405c0 .373.066.637.2.79.136.15.335.225.595.225a1.309 1.309 0 0 0 .61-.145l.19.755a2.198 2.198 0 0 1-.995.24Zm-2.64-4.27v-.78h1.26v.78h-1.26Zm7.009 4.27c-.52 0-.978-.108-1.375-.325a2.367 2.367 0 0 1-.93-.905c-.223-.39-.335-.843-.335-1.36 0-.373.064-.72.19-1.04.13-.32.31-.597.54-.83a2.53 2.53 0 0 1 1.835-.74c.397 0 .75.07 1.06.21.314.14.572.337.775.59.207.25.355.545.445.885.09.337.109.703.055 1.1h-3.99c-.01.327.057.613.2.86.144.243.35.433.62.57.274.137.597.205.97.205.274 0 .54-.043.8-.13.26-.087.49-.215.69-.385l.39.685c-.16.13-.35.242-.57.335-.216.09-.443.158-.68.205-.236.047-.466.07-.69.07Zm-1.68-3.13h3.02c-.013-.413-.141-.735-.385-.965-.243-.233-.591-.35-1.045-.35-.44 0-.803.117-1.09.35-.286.23-.453.552-.5.965Zm5.13 2.98v-4.9h.92v.695c.136-.2.291-.362.465-.485a2.026 2.026 0 0 1 1.15-.36c.413 0 .753.09 1.02.27.27.18.461.407.575.68.26-.373.551-.625.875-.755.323-.13.641-.195.955-.195.446 0 .805.09 1.075.27.27.177.465.403.585.68.123.277.185.56.185.85V468h-.92v-2.98c0-.363-.1-.657-.3-.88-.2-.223-.494-.335-.88-.335-.254 0-.482.057-.685.17-.204.11-.365.265-.485.465-.117.2-.175.43-.175.69V468h-.92v-2.98c0-.363-.1-.657-.3-.88-.197-.223-.49-.335-.88-.335-.25 0-.477.057-.68.17-.204.11-.365.265-.485.465-.117.2-.175.43-.175.69V468h-.92Zm9.345 2.1v-7h.845v.735c.204-.26.459-.472.765-.635.31-.167.7-.25 1.17-.25a2.35 2.35 0 0 1 2.15 1.275c.21.393.315.835.315 1.325 0 .357-.06.693-.18 1.01a2.405 2.405 0 0 1-1.29 1.39c-.3.133-.635.2-1.005.2-.413 0-.775-.077-1.085-.23a2.392 2.392 0 0 1-.77-.615v2.795h-.915Zm2.615-2.78c.33 0 .622-.072.875-.215.257-.147.457-.352.6-.615.147-.267.22-.58.22-.94 0-.363-.073-.677-.22-.94a1.495 1.495 0 0 0-.6-.615 1.749 1.749 0 0 0-.875-.215c-.33 0-.623.072-.88.215a1.545 1.545 0 0 0-.6.615 1.91 1.91 0 0 0-.22.94c0 .36.074.673.22.94.147.263.347.468.6.615.257.143.55.215.88.215Zm5.758.83c-.457 0-.825-.133-1.105-.4-.277-.267-.415-.678-.415-1.235v-4.855h.92v1.44h1.435v.78h-1.435v2.405c0 .373.067.637.2.79.137.15.335.225.595.225a1.298 1.298 0 0 0 .61-.145l.19.755a2.191 2.191 0 0 1-.995.24Zm-2.64-4.27v-.78h1.26v.78h-1.26Z" fill="#838383"/><path d="M188.94 482v-7h.94v7h-.94Zm2.822 0v-7h2.445c.49 0 .922.083 1.295.25.374.167.665.408.875.725.214.313.32.69.32 1.13 0 .45-.098.83-.295 1.14-.196.31-.481.547-.855.71-.373.16-.826.24-1.36.24h-1.485V482h-.94Zm.94-3.63h1.515c.49 0 .869-.103 1.135-.31.27-.207.405-.518.405-.935 0-.407-.138-.723-.415-.95-.273-.227-.645-.34-1.115-.34h-1.525v2.535Zm9.105 3.63v-6.03l-1.885.7-.245-.725 2.94-1.095h.07V482h-.88Zm3.373.15-.33-.74a4.864 4.864 0 0 0 1.415-.36c.41-.18.76-.405 1.05-.675.293-.27.528-.568.705-.895a3.78 3.78 0 0 0 .375-1.025 2.051 2.051 0 0 1-1.73.91 2.46 2.46 0 0 1-1.185-.285 2.179 2.179 0 0 1-.84-.79 2.202 2.202 0 0 1-.305-1.16c0-.43.107-.817.32-1.16.217-.343.515-.615.895-.815a2.744 2.744 0 0 1 1.305-.305c.51 0 .962.11 1.355.33.393.22.702.54.925.96.227.417.34.925.34 1.525 0 .597-.107 1.148-.32 1.655a4.169 4.169 0 0 1-.905 1.345c-.387.39-.842.712-1.365.965a5.873 5.873 0 0 1-1.705.52Zm1.675-3.58c.303 0 .575-.063.815-.19s.43-.3.57-.52c.14-.22.21-.468.21-.745a1.377 1.377 0 0 0-.765-1.255 1.749 1.749 0 0 0-.83-.19c-.307 0-.582.063-.825.19a1.365 1.365 0 0 0-.77 1.255c0 .277.07.525.21.745.143.22.335.393.575.52.243.127.513.19.81.19Zm3.679 3.43v-.705l1.525-1.405c.487-.447.882-.835 1.185-1.165.304-.333.527-.637.67-.91.144-.277.215-.555.215-.835 0-.407-.141-.727-.425-.96-.28-.233-.668-.35-1.165-.35-.306 0-.603.052-.89.155a1.893 1.893 0 0 0-.72.45l-.355-.69a2.82 2.82 0 0 1 .94-.545 3.36 3.36 0 0 1 1.135-.19c.47 0 .884.085 1.24.255.357.167.634.405.83.715.2.307.3.668.3 1.085 0 .29-.058.582-.175.875-.116.293-.325.623-.625.99-.296.363-.718.8-1.265 1.31l-1.2 1.105h3.44V482h-4.66Zm6.574.15a.733.733 0 0 1-.5-.185.62.62 0 0 1-.205-.485c0-.133.03-.25.09-.35a.664.664 0 0 1 .255-.235.77.77 0 0 1 .36-.085c.197 0 .363.062.5.185a.62.62 0 0 1 .205.485.644.644 0 0 1-.35.585.742.742 0 0 1-.355.085Zm2.232-.15 3.03-6.15h-3.435V475h4.48v.72l-3.06 6.28h-1.015Zm7.893 0v-1.48h-3.535v-.725l2.605-4.795h.98l-2.585 4.72h2.535v-1.615h.83v1.615h1.125v.8h-1.125V482h-.83Zm3.596.15a.732.732 0 0 1-.5-.185.62.62 0 0 1-.205-.485c0-.133.03-.25.09-.35a.664.664 0 0 1 .255-.235.77.77 0 0 1 .36-.085c.196 0 .363.062.5.185a.624.624 0 0 1 .205.485.644.644 0 0 1-.35.585.742.742 0 0 1-.355.085Zm2.638-.15v-6.03l-1.885.7-.245-.725 2.94-1.095h.07V482h-.88Zm3.373.15-.33-.74a4.856 4.856 0 0 0 1.415-.36c.41-.18.76-.405 1.05-.675.294-.27.529-.568.705-.895a3.78 3.78 0 0 0 .375-1.025 2.067 2.067 0 0 1-1.73.91c-.436 0-.831-.095-1.185-.285a2.179 2.179 0 0 1-.84-.79 2.202 2.202 0 0 1-.305-1.16c0-.43.107-.817.32-1.16.217-.343.515-.615.895-.815a2.75 2.75 0 0 1 1.305-.305c.51 0 .962.11 1.355.33.394.22.702.54.925.96.227.417.34.925.34 1.525a4.21 4.21 0 0 1-.32 1.655 4.169 4.169 0 0 1-.905 1.345c-.386.39-.841.712-1.365.965a5.873 5.873 0 0 1-1.705.52Zm1.675-3.58c.304 0 .575-.063.815-.19s.43-.3.57-.52c.14-.22.21-.468.21-.745a1.377 1.377 0 0 0-.765-1.255 1.746 1.746 0 0 0-.83-.19 1.76 1.76 0 0 0-.825.19c-.24.123-.428.293-.565.51a1.373 1.373 0 0 0-.205.745c0 .277.07.525.21.745.144.22.335.393.575.52.244.127.514.19.81.19Zm4.595 3.58-.33-.74a4.864 4.864 0 0 0 1.415-.36c.41-.18.76-.405 1.05-.675.293-.27.528-.568.705-.895.176-.33.301-.672.375-1.025a2.051 2.051 0 0 1-1.73.91 2.46 2.46 0 0 1-1.185-.285 2.165 2.165 0 0 1-.84-.79 2.193 2.193 0 0 1-.305-1.16c0-.43.106-.817.32-1.16a2.3 2.3 0 0 1 .895-.815 2.744 2.744 0 0 1 1.305-.305c.51 0 .961.11 1.355.33.393.22.701.54.925.96.226.417.34.925.34 1.525 0 .597-.107 1.148-.32 1.655a4.185 4.185 0 0 1-.905 1.345c-.387.39-.842.712-1.365.965a5.882 5.882 0 0 1-1.705.52Zm1.675-3.58c.303 0 .575-.063.815-.19s.43-.3.57-.52c.14-.22.21-.468.21-.745a1.373 1.373 0 0 0-.765-1.255 1.749 1.749 0 0 0-.83-.19c-.307 0-.582.063-.825.19a1.365 1.365 0 0 0-.77 1.255c0 .277.07.525.21.745.143.22.335.393.575.52.243.127.513.19.81.19Zm4.462 3.58a.732.732 0 0 1-.5-.185.62.62 0 0 1-.205-.485c0-.133.03-.25.09-.35a.664.664 0 0 1 .255-.235.77.77 0 0 1 .36-.085c.196 0 .363.062.5.185a.624.624 0 0 1 .205.485.644.644 0 0 1-.35.585.742.742 0 0 1-.355.085Zm3.937 0a4.142 4.142 0 0 1-1.6-.32 2.276 2.276 0 0 1-.58-.355l.33-.79c.22.193.493.347.82.46.326.11.651.165.975.165.336 0 .63-.057.88-.17.25-.117.443-.28.58-.49a1.34 1.34 0 0 0 .205-.745c0-.43-.159-.765-.475-1.005-.314-.243-.732-.365-1.255-.365-.134 0-.27.008-.41.025-.137.017-.279.04-.425.07l-.285-.63 2.31-2.195h-3.205V475h4.36v.745l-2.225 2.15c.446-.013.863.053 1.25.2.386.143.698.37.935.68.236.307.355.697.355 1.17 0 .44-.109.827-.325 1.16a2.17 2.17 0 0 1-.9.77 3.02 3.02 0 0 1-1.315.275Zm9.25 0c-.33 0-.628-.05-.895-.15a2.166 2.166 0 0 1-.695-.405 2.37 2.37 0 0 1-.48-.595l.135-.2v1.2h-.845v-7.2h.915v3.435l-.18-.205c.217-.32.492-.58.825-.78.337-.2.74-.3 1.21-.3.49 0 .92.117 1.29.35a2.4 2.4 0 0 1 .87.94c.21.393.315.83.315 1.31 0 .367-.06.708-.18 1.025-.12.313-.29.588-.51.825a2.294 2.294 0 0 1-.775.555c-.3.13-.633.195-1 .195Zm-.165-.83c.33 0 .622-.072.875-.215.257-.147.457-.352.6-.615.147-.267.22-.58.22-.94 0-.363-.073-.677-.22-.94a1.495 1.495 0 0 0-.6-.615 1.749 1.749 0 0 0-.875-.215c-.33 0-.623.072-.88.215a1.545 1.545 0 0 0-.6.615 1.91 1.91 0 0 0-.22.94c0 .36.074.673.22.94.147.263.347.468.6.615.257.143.55.215.88.215Zm3.782.68v-7.2h.92v7.2h-.92Zm4.705.15a2.588 2.588 0 0 1-2.29-1.3 2.554 2.554 0 0 1-.34-1.3 2.57 2.57 0 0 1 .745-1.825 2.55 2.55 0 0 1 .835-.57 2.64 2.64 0 0 1 1.05-.205 2.6 2.6 0 0 1 1.36.355c.396.237.708.552.935.945.226.393.34.827.34 1.3a2.57 2.57 0 0 1-.745 1.825c-.237.24-.515.43-.835.57-.32.137-.672.205-1.055.205Zm0-.83c.33 0 .621-.072.875-.215a1.59 1.59 0 0 0 .605-.615c.146-.267.22-.58.22-.94a1.91 1.91 0 0 0-.22-.94 1.507 1.507 0 0 0-.6-.615 1.778 1.778 0 0 0-.88-.215c-.33 0-.624.072-.88.215a1.532 1.532 0 0 0-.6.615c-.144.263-.215.577-.215.94 0 .36.071.673.215.94.146.263.348.468.605.615.256.143.548.215.875.215Zm6.06.83c-.517 0-.975-.113-1.375-.34a2.478 2.478 0 0 1-.94-.925 2.62 2.62 0 0 1-.34-1.335c0-.377.066-.723.2-1.04a2.45 2.45 0 0 1 .575-.825c.246-.233.535-.413.865-.54a2.97 2.97 0 0 1 1.09-.195 3 3 0 0 1 .885.125c.27.083.52.212.75.385l-.47.71a1.463 1.463 0 0 0-.525-.29c-.2-.067-.412-.1-.635-.1-.367 0-.685.07-.955.21a1.453 1.453 0 0 0-.62.6c-.147.263-.22.58-.22.95 0 .557.16.993.48 1.31.323.313.76.47 1.31.47.253 0 .49-.045.71-.135.22-.093.4-.213.54-.36l.475.7a3.31 3.31 0 0 1-.845.46c-.307.11-.625.165-.955.165Zm2.868-.15v-7.2h.92v4.415l2.085-2.115h1.1l-1.735 1.84 2.025 3.06h-1.11l-1.585-2.465-.78.785V482h-.92Zm7.537.15c-.52 0-.979-.108-1.375-.325a2.354 2.354 0 0 1-.93-.905c-.224-.39-.335-.843-.335-1.36 0-.373.063-.72.19-1.04.13-.32.31-.597.54-.83.233-.233.505-.415.815-.545.313-.13.653-.195 1.02-.195.396 0 .75.07 1.06.21.313.14.571.337.775.59.206.25.355.545.445.885.09.337.108.703.055 1.1h-3.99c-.01.327.056.613.2.86.143.243.35.433.62.57.273.137.596.205.97.205.273 0 .54-.043.8-.13.26-.087.49-.215.69-.385l.39.685c-.16.13-.35.242-.57.335a3.613 3.613 0 0 1-1.37.275Zm-1.68-3.13h3.02c-.014-.413-.142-.735-.385-.965-.244-.233-.592-.35-1.045-.35-.44 0-.804.117-1.09.35-.287.23-.454.552-.5.965Zm7.208 3.13c-.484 0-.912-.115-1.285-.345-.37-.23-.66-.54-.87-.93a2.8 2.8 0 0 1-.31-1.325c0-.36.06-.697.18-1.01a2.57 2.57 0 0 1 .505-.825c.22-.24.481-.427.785-.56a2.411 2.411 0 0 1 1.005-.205c.47 0 .871.095 1.205.285.336.19.613.445.83.765l-.185.205V474.8h.92v7.2h-.845v-1.15l.135.21c-.19.313-.452.573-.785.78-.33.207-.759.31-1.285.31Zm.165-.83c.33 0 .621-.072.875-.215a1.59 1.59 0 0 0 .605-.615c.146-.267.22-.58.22-.94a1.91 1.91 0 0 0-.22-.94 1.507 1.507 0 0 0-.6-.615 1.778 1.778 0 0 0-.88-.215c-.33 0-.624.072-.88.215a1.532 1.532 0 0 0-.6.615c-.144.263-.215.577-.215.94 0 .36.071.673.215.94.146.263.348.468.605.615.256.143.548.215.875.215Z" fill="#FDAC76"/><defs><filter id="a" x="240" y="224" width="140.168" height="132.039" filterUnits="userSpaceOnUse" color-interpolation-filters="sRGB"><feFlood flood-opacity="0" result="BackgroundImageFix"/><feColorMatrix in="SourceAlpha" values="0 0 0 0 0 0 0 0 0 0 0 0 0 0 0 0 0 0 127 0" result="hardAlpha"/><feOffset/><feGaussianBlur stdDeviation="24"/><feComposite in2="hardAlpha" operator="out"/><feColorMatrix values="0 0 0 0 0.898039 0 0 0 0 1 0 0 0 0 0.364706 0 0 0 0.3 0"/><feBlend in2="BackgroundImageFix" result="effect1_dropShadow_85_31190"/><feBlend in="SourceGraphic" in2="effect1_dropShadow_85_31190" result="shape"/></filter><filter id="b" x="87" y="67" width="445" height="445" filterUnits="userSpaceOnUse" color-interpolation-filters="sRGB"><feFlood flood-opacity="0" result="BackgroundImageFix"/><feBlend in="SourceGraphic" in2="BackgroundImageFix" result="shape"/><feGaussianBlur stdDeviation="64" result="effect1_foregroundBlur_85_31190"/></filter><filter id="d" x="138" y="122" width="343" height="343" filterUnits="userSpaceOnUse" color-interpolation-filters="sRGB"><feFlood flood-opacity="0" result="BackgroundImageFix"/><feColorMatrix in="SourceAlpha" values="0 0 0 0 0 0 0 0 0 0 0 0 0 0 0 0 0 0 127 0" result="hardAlpha"/><feOffset dy="4"/><feGaussianBlur stdDeviation="64"/><feComposite in2="hardAlpha" operator="out"/><feColorMatrix values="0 0 0 0 0.898039 0 0 0 0 1 0 0 0 0 0.364706 0 0 0 0.3 0"/><feBlend in2="BackgroundImageFix" result="effect1_dropShadow_85_31190"/><feBlend in="SourceGraphic" in2="effect1_dropShadow_85_31190" result="shape"/></filter><filter id="f" x="105.5" y="395.5" width="116.854" height="115.853" filterUnits="userSpaceOnUse" color-interpolation-filters="sRGB"><feFlood flood-opacity="0" result="BackgroundImageFix"/><feColorMatrix in="SourceAlpha" values="0 0 0 0 0 0 0 0 0 0 0 0 0 0 0 0 0 0 127 0" result="hardAlpha"/><feOffset/><feGaussianBlur stdDeviation="23"/><feComposite in2="hardAlpha" operator="out"/><feColorMatrix values="0 0 0 0 1 0 0 0 0 1 0 0 0 0 1 0 0 0 0.2 0"/><feBlend in2="BackgroundImageFix" result="effect1_dropShadow_85_31190"/><feBlend in="SourceGraphic" in2="effect1_dropShadow_85_31190" result="shape"/></filter><filter id="g" x="121" y="154" width="360" height="253" filterUnits="userSpaceOnUse" color-interpolation-filters="sRGB"><feFlood flood-opacity="0" result="BackgroundImageFix"/><feColorMatrix in="SourceAlpha" values="0 0 0 0 0 0 0 0 0 0 0 0 0 0 0 0 0 0 127 0" result="hardAlpha"/><feOffset/><feGaussianBlur stdDeviation="24"/><feComposite in2="hardAlpha" operator="out"/><feColorMatrix values="0 0 0 0 0.898039 0 0 0 0 1 0 0 0 0 0.364706 0 0 0 1 0"/><feBlend in2="BackgroundImageFix" result="effect1_dropShadow_85_31190"/><feBlend in="SourceGraphic" in2="effect1_dropShadow_85_31190" result="shape"/></filter><linearGradient id="c" x1="235.358" y1="323.209" x2="405.376" y2="286.66" gradientUnits="userSpaceOnUse"><stop stop-color="#5DA8FF" stop-opacity=".3"/><stop offset="1" stop-color="#899938"/></linearGradient><linearGradient id="e" x1="353" y1="319.615" x2="261.468" y2="313.467" gradientUnits="userSpaceOnUse"><stop stop-color="#E5FF5D"/><stop offset="1" stop-color="#5DFFFF"/></linearGradient></defs></svg>