<svg width="576" height="560" viewBox="0 0 576 560" fill="none" xmlns="http://www.w3.org/2000/svg">
<path d="M450 133L441 137V143C441 148.55 444.84 153.74 450 155C455.16 153.74 459 148.55 459 143V137L450 133ZM450 143.99H457C456.47 148.11 453.72 151.78 450 152.93V144H443V138.3L450 135.19V143.99Z" fill="#E5FF5D"/>
<rect x="170.5" y="235.233" width="21" height="17.3333" rx="1.5" fill="#E5FF5D" stroke="#E5FF5D"/>
<path d="M183.933 243.009C183.933 244.745 182.62 246.152 181 246.152C179.38 246.152 178.067 244.745 178.067 243.009C178.067 241.273 179.38 239.866 181 239.866C182.62 239.866 183.933 241.273 183.933 243.009Z" fill="#2D2D2D"/>
<path d="M179.944 244.769C179.944 244.144 180.417 243.638 181 243.638C181.583 243.638 182.056 244.144 182.056 244.769V247.535C182.056 248.16 181.583 248.666 181 248.666C180.417 248.666 179.944 248.16 179.944 247.535V244.769Z" fill="#2D2D2D"/>
<path d="M187.6 241.7V229.6C187.6 225.955 184.645 223 181 223V223C177.355 223 174.4 225.955 174.4 229.6V241.7" stroke="#E5FF5D" stroke-width="2"/>
<g filter="url(#filter0_d_85_31235)">
<path d="M172.252 452.12C172.252 454.656 171.318 456.975 169.776 458.75C167.92 460.888 165.181 462.24 162.126 462.24C156.534 462.24 152 457.709 152 452.12C152 446.531 156.534 442 162.126 442C167.718 442 172.252 446.531 172.252 452.12Z" fill="#E5FF5D" fill-opacity="0.3" shape-rendering="crispEdges"/>
<path d="M169.776 458.75C171.318 456.975 172.252 454.656 172.252 452.12C172.252 446.531 167.718 442 162.126 442C156.534 442 152 446.531 152 452.12C152 457.709 156.534 462.24 162.126 462.24C165.181 462.24 167.92 460.888 169.776 458.75ZM169.776 458.75L176 465" stroke="#E5FF5D" shape-rendering="crispEdges"/>
</g>
<path opacity="0.5" d="M254.05 150.15C253.543 150.15 253.103 150.057 252.73 149.87C252.36 149.683 252.073 149.432 251.87 149.115C251.67 148.798 251.57 148.443 251.57 148.05C251.57 147.767 251.62 147.515 251.72 147.295C251.823 147.075 251.972 146.883 252.165 146.72C252.362 146.557 252.597 146.422 252.87 146.315C252.59 146.205 252.343 146.018 252.13 145.755C251.917 145.492 251.81 145.16 251.81 144.76C251.81 144.393 251.907 144.067 252.1 143.78C252.293 143.49 252.56 143.263 252.9 143.1C253.24 142.933 253.628 142.85 254.065 142.85C254.508 142.85 254.902 142.933 255.245 143.1C255.588 143.267 255.857 143.495 256.05 143.785C256.243 144.072 256.34 144.397 256.34 144.76C256.34 145.027 256.29 145.263 256.19 145.47C256.093 145.677 255.963 145.852 255.8 145.995C255.64 146.135 255.465 146.242 255.275 146.315C255.662 146.472 255.972 146.695 256.205 146.985C256.438 147.272 256.555 147.627 256.555 148.05C256.555 148.443 256.452 148.798 256.245 149.115C256.038 149.432 255.747 149.683 255.37 149.87C254.997 150.057 254.557 150.15 254.05 150.15ZM254.065 149.345C254.342 149.345 254.598 149.297 254.835 149.2C255.075 149.1 255.267 148.952 255.41 148.755C255.557 148.558 255.63 148.315 255.63 148.025C255.63 147.738 255.56 147.497 255.42 147.3C255.283 147.103 255.097 146.955 254.86 146.855C254.623 146.752 254.358 146.7 254.065 146.7C253.615 146.7 253.24 146.815 252.94 147.045C252.643 147.272 252.495 147.598 252.495 148.025C252.495 148.315 252.567 148.558 252.71 148.755C252.853 148.952 253.043 149.1 253.28 149.2C253.52 149.297 253.782 149.345 254.065 149.345ZM254.075 145.915C254.345 145.915 254.585 145.87 254.795 145.78C255.005 145.687 255.168 145.557 255.285 145.39C255.402 145.223 255.46 145.025 255.46 144.795C255.46 144.455 255.332 144.17 255.075 143.94C254.822 143.71 254.488 143.595 254.075 143.595C253.798 143.595 253.555 143.648 253.345 143.755C253.138 143.858 252.977 144.002 252.86 144.185C252.743 144.365 252.685 144.568 252.685 144.795C252.685 145.138 252.815 145.412 253.075 145.615C253.338 145.815 253.672 145.915 254.075 145.915ZM258.483 150.15L258.153 149.41C258.686 149.35 259.158 149.23 259.568 149.05C259.978 148.87 260.328 148.645 260.618 148.375C260.911 148.105 261.146 147.807 261.323 147.48C261.499 147.15 261.624 146.808 261.698 146.455C261.511 146.732 261.266 146.953 260.963 147.12C260.663 147.283 260.331 147.365 259.968 147.365C259.531 147.365 259.136 147.27 258.783 147.08C258.429 146.89 258.149 146.627 257.943 146.29C257.739 145.953 257.638 145.567 257.638 145.13C257.638 144.7 257.744 144.313 257.958 143.97C258.174 143.627 258.473 143.355 258.853 143.155C259.236 142.952 259.671 142.85 260.158 142.85C260.668 142.85 261.119 142.96 261.513 143.18C261.906 143.4 262.214 143.72 262.438 144.14C262.664 144.557 262.778 145.065 262.778 145.665C262.778 146.262 262.671 146.813 262.458 147.32C262.244 147.827 261.943 148.275 261.553 148.665C261.166 149.055 260.711 149.377 260.188 149.63C259.668 149.883 259.099 150.057 258.483 150.15ZM260.158 146.57C260.461 146.57 260.733 146.507 260.973 146.38C261.213 146.253 261.403 146.08 261.543 145.86C261.683 145.64 261.753 145.392 261.753 145.115C261.753 144.835 261.684 144.587 261.548 144.37C261.414 144.153 261.228 143.983 260.988 143.86C260.748 143.733 260.471 143.67 260.158 143.67C259.851 143.67 259.576 143.733 259.333 143.86C259.093 143.983 258.904 144.153 258.768 144.37C258.631 144.587 258.563 144.835 258.563 145.115C258.563 145.392 258.633 145.64 258.773 145.86C258.916 146.08 259.108 146.253 259.348 146.38C259.591 146.507 259.861 146.57 260.158 146.57ZM264.62 150.15C264.426 150.15 264.26 150.088 264.12 149.965C263.983 149.842 263.915 149.68 263.915 149.48C263.915 149.347 263.945 149.23 264.005 149.13C264.068 149.03 264.153 148.952 264.26 148.895C264.37 148.838 264.49 148.81 264.62 148.81C264.816 148.81 264.983 148.872 265.12 148.995C265.256 149.118 265.325 149.28 265.325 149.48C265.325 149.613 265.293 149.73 265.23 149.83C265.166 149.93 265.081 150.008 264.975 150.065C264.868 150.122 264.75 150.15 264.62 150.15ZM267.258 150V143.97L265.373 144.67L265.128 143.945L268.068 142.85H268.138V150H267.258ZM273.006 150V148.52H269.471V147.795L272.076 143H273.056L270.471 147.72H273.006V146.105H273.836V147.72H274.961V148.52H273.836V150H273.006ZM276.602 150.15C276.409 150.15 276.242 150.088 276.102 149.965C275.965 149.842 275.897 149.68 275.897 149.48C275.897 149.347 275.927 149.23 275.987 149.13C276.05 149.03 276.135 148.952 276.242 148.895C276.352 148.838 276.472 148.81 276.602 148.81C276.799 148.81 276.965 148.872 277.102 148.995C277.239 149.118 277.307 149.28 277.307 149.48C277.307 149.613 277.275 149.73 277.212 149.83C277.149 149.93 277.064 150.008 276.957 150.065C276.85 150.122 276.732 150.15 276.602 150.15ZM279.241 150V143.97L277.356 144.67L277.111 143.945L280.051 142.85H280.121V150H279.241ZM281.894 150V149.295L283.419 147.89C283.905 147.443 284.3 147.055 284.604 146.725C284.907 146.392 285.13 146.088 285.274 145.815C285.417 145.538 285.489 145.26 285.489 144.98C285.489 144.573 285.347 144.253 285.064 144.02C284.784 143.787 284.395 143.67 283.899 143.67C283.592 143.67 283.295 143.722 283.009 143.825C282.722 143.928 282.482 144.078 282.289 144.275L281.934 143.585C282.207 143.345 282.52 143.163 282.874 143.04C283.23 142.913 283.609 142.85 284.009 142.85C284.479 142.85 284.892 142.935 285.249 143.105C285.605 143.272 285.882 143.51 286.079 143.82C286.279 144.127 286.379 144.488 286.379 144.905C286.379 145.195 286.32 145.487 286.204 145.78C286.087 146.073 285.879 146.403 285.579 146.77C285.282 147.133 284.86 147.57 284.314 148.08L283.114 149.185H286.554V150H281.894ZM288.467 150.15C288.274 150.15 288.107 150.088 287.967 149.965C287.831 149.842 287.762 149.68 287.762 149.48C287.762 149.347 287.792 149.23 287.852 149.13C287.916 149.03 288.001 148.952 288.107 148.895C288.217 148.838 288.337 148.81 288.467 148.81C288.664 148.81 288.831 148.872 288.967 148.995C289.104 149.118 289.172 149.28 289.172 149.48C289.172 149.613 289.141 149.73 289.077 149.83C289.014 149.93 288.929 150.008 288.822 150.065C288.716 150.122 288.597 150.15 288.467 150.15ZM291.106 150V143.97L289.221 144.67L288.976 143.945L291.916 142.85H291.986V150H291.106ZM293.759 150V149.295L295.284 147.89C295.771 147.443 296.166 147.055 296.469 146.725C296.772 146.392 296.996 146.088 297.139 145.815C297.282 145.538 297.354 145.26 297.354 144.98C297.354 144.573 297.212 144.253 296.929 144.02C296.649 143.787 296.261 143.67 295.764 143.67C295.457 143.67 295.161 143.722 294.874 143.825C294.587 143.928 294.347 144.078 294.154 144.275L293.799 143.585C294.072 143.345 294.386 143.163 294.739 143.04C295.096 142.913 295.474 142.85 295.874 142.85C296.344 142.85 296.757 142.935 297.114 143.105C297.471 143.272 297.747 143.51 297.944 143.82C298.144 144.127 298.244 144.488 298.244 144.905C298.244 145.195 298.186 145.487 298.069 145.78C297.952 146.073 297.744 146.403 297.444 146.77C297.147 147.133 296.726 147.57 296.179 148.08L294.979 149.185H298.419V150H293.759ZM301.643 150.15C301.359 150.15 301.079 150.122 300.803 150.065C300.529 150.008 300.276 149.93 300.043 149.83C299.809 149.727 299.616 149.608 299.463 149.475L299.793 148.685C300.013 148.878 300.286 149.032 300.613 149.145C300.939 149.255 301.264 149.31 301.588 149.31C301.924 149.31 302.218 149.253 302.468 149.14C302.718 149.023 302.911 148.86 303.048 148.65C303.184 148.44 303.253 148.192 303.253 147.905C303.253 147.475 303.094 147.14 302.778 146.9C302.464 146.657 302.046 146.535 301.523 146.535C301.389 146.535 301.253 146.543 301.113 146.56C300.976 146.577 300.834 146.6 300.688 146.63L300.403 146L302.713 143.805H299.508V143H303.868V143.745L301.643 145.895C302.089 145.882 302.506 145.948 302.893 146.095C303.279 146.238 303.591 146.465 303.828 146.775C304.064 147.082 304.183 147.472 304.183 147.945C304.183 148.385 304.074 148.772 303.858 149.105C303.641 149.435 303.341 149.692 302.958 149.875C302.574 150.058 302.136 150.15 301.643 150.15Z" fill="white"/>
<path d="M266 167.776L268 169.776C272.97 164.806 281.03 164.806 286 169.776L288 167.776C281.93 161.706 272.08 161.706 266 167.776ZM274 175.776L277 178.776L280 175.776C278.35 174.116 275.66 174.116 274 175.776ZM270 171.776L272 173.776C274.76 171.016 279.24 171.016 282 173.776L284 171.776C280.14 167.916 273.87 167.916 270 171.776Z" fill="#E5FF5D"/>
<path opacity="0.5" d="M180.63 457V456.295L182.155 454.89C182.642 454.443 183.037 454.055 183.34 453.725C183.643 453.392 183.867 453.088 184.01 452.815C184.153 452.538 184.225 452.26 184.225 451.98C184.225 451.573 184.083 451.253 183.8 451.02C183.52 450.787 183.132 450.67 182.635 450.67C182.328 450.67 182.032 450.722 181.745 450.825C181.458 450.928 181.218 451.078 181.025 451.275L180.67 450.585C180.943 450.345 181.257 450.163 181.61 450.04C181.967 449.913 182.345 449.85 182.745 449.85C183.215 449.85 183.628 449.935 183.985 450.105C184.342 450.272 184.618 450.51 184.815 450.82C185.015 451.127 185.115 451.488 185.115 451.905C185.115 452.195 185.057 452.487 184.94 452.78C184.823 453.073 184.615 453.403 184.315 453.77C184.018 454.133 183.597 454.57 183.05 455.08L181.85 456.185H185.29V457H180.63ZM188.114 457V450.97L186.229 451.67L185.984 450.945L188.924 449.85H188.994V457H188.114ZM191.452 457.15C191.258 457.15 191.092 457.088 190.952 456.965C190.815 456.842 190.747 456.68 190.747 456.48C190.747 456.347 190.777 456.23 190.837 456.13C190.9 456.03 190.985 455.952 191.092 455.895C191.202 455.838 191.322 455.81 191.452 455.81C191.648 455.81 191.815 455.872 191.952 455.995C192.088 456.118 192.157 456.28 192.157 456.48C192.157 456.613 192.125 456.73 192.062 456.83C191.998 456.93 191.913 457.008 191.807 457.065C191.7 457.122 191.582 457.15 191.452 457.15ZM194.09 457V450.97L192.205 451.67L191.96 450.945L194.9 449.85H194.97V457H194.09ZM199.413 457.15C198.893 457.15 198.432 457.038 198.028 456.815C197.625 456.588 197.308 456.262 197.078 455.835C196.848 455.405 196.733 454.885 196.733 454.275C196.733 453.685 196.842 453.142 197.058 452.645C197.275 452.145 197.58 451.702 197.973 451.315C198.367 450.928 198.827 450.612 199.353 450.365C199.883 450.115 200.458 449.943 201.078 449.85L201.408 450.59C200.868 450.643 200.39 450.757 199.973 450.93C199.56 451.103 199.205 451.32 198.908 451.58C198.615 451.84 198.378 452.128 198.198 452.445C198.018 452.758 197.89 453.085 197.813 453.425C198.007 453.145 198.26 452.923 198.573 452.76C198.887 452.593 199.23 452.51 199.603 452.51C200.053 452.51 200.458 452.605 200.818 452.795C201.182 452.985 201.468 453.248 201.678 453.585C201.888 453.922 201.993 454.31 201.993 454.75C201.993 455.087 201.93 455.402 201.803 455.695C201.677 455.985 201.498 456.238 201.268 456.455C201.038 456.672 200.765 456.842 200.448 456.965C200.135 457.088 199.79 457.15 199.413 457.15ZM199.413 456.325C199.733 456.325 200.017 456.262 200.263 456.135C200.513 456.005 200.71 455.827 200.853 455.6C200.997 455.373 201.068 455.113 201.068 454.82C201.068 454.533 200.995 454.277 200.848 454.05C200.702 453.823 200.503 453.643 200.253 453.51C200.003 453.377 199.723 453.31 199.413 453.31C199.1 453.31 198.818 453.377 198.568 453.51C198.322 453.643 198.125 453.823 197.978 454.05C197.832 454.277 197.758 454.533 197.758 454.82C197.758 455.113 197.828 455.373 197.968 455.6C198.112 455.827 198.307 456.005 198.553 456.135C198.803 456.262 199.09 456.325 199.413 456.325ZM203.815 457.15C203.622 457.15 203.455 457.088 203.315 456.965C203.178 456.842 203.11 456.68 203.11 456.48C203.11 456.347 203.14 456.23 203.2 456.13C203.263 456.03 203.348 455.952 203.455 455.895C203.565 455.838 203.685 455.81 203.815 455.81C204.012 455.81 204.178 455.872 204.315 455.995C204.452 456.118 204.52 456.28 204.52 456.48C204.52 456.613 204.488 456.73 204.425 456.83C204.362 456.93 204.277 457.008 204.17 457.065C204.063 457.122 203.945 457.15 203.815 457.15ZM205.757 457V456.295L207.282 454.89C207.769 454.443 208.164 454.055 208.467 453.725C208.77 453.392 208.994 453.088 209.137 452.815C209.28 452.538 209.352 452.26 209.352 451.98C209.352 451.573 209.21 451.253 208.927 451.02C208.647 450.787 208.259 450.67 207.762 450.67C207.455 450.67 207.159 450.722 206.872 450.825C206.585 450.928 206.345 451.078 206.152 451.275L205.797 450.585C206.07 450.345 206.384 450.163 206.737 450.04C207.094 449.913 207.472 449.85 207.872 449.85C208.342 449.85 208.755 449.935 209.112 450.105C209.469 450.272 209.745 450.51 209.942 450.82C210.142 451.127 210.242 451.488 210.242 451.905C210.242 452.195 210.184 452.487 210.067 452.78C209.95 453.073 209.742 453.403 209.442 453.77C209.145 454.133 208.724 454.57 208.177 455.08L206.977 456.185H210.417V457H205.757ZM211.646 457V456.295L213.171 454.89C213.657 454.443 214.052 454.055 214.356 453.725C214.659 453.392 214.882 453.088 215.026 452.815C215.169 452.538 215.241 452.26 215.241 451.98C215.241 451.573 215.099 451.253 214.816 451.02C214.536 450.787 214.147 450.67 213.651 450.67C213.344 450.67 213.047 450.722 212.761 450.825C212.474 450.928 212.234 451.078 212.041 451.275L211.686 450.585C211.959 450.345 212.272 450.163 212.626 450.04C212.982 449.913 213.361 449.85 213.761 449.85C214.231 449.85 214.644 449.935 215.001 450.105C215.357 450.272 215.634 450.51 215.831 450.82C216.031 451.127 216.131 451.488 216.131 451.905C216.131 452.195 216.072 452.487 215.956 452.78C215.839 453.073 215.631 453.403 215.331 453.77C215.034 454.133 214.612 454.57 214.066 455.08L212.866 456.185H216.306V457H211.646ZM218.219 457.15C218.026 457.15 217.859 457.088 217.719 456.965C217.583 456.842 217.514 456.68 217.514 456.48C217.514 456.347 217.544 456.23 217.604 456.13C217.668 456.03 217.753 455.952 217.859 455.895C217.969 455.838 218.089 455.81 218.219 455.81C218.416 455.81 218.583 455.872 218.719 455.995C218.856 456.118 218.924 456.28 218.924 456.48C218.924 456.613 218.893 456.73 218.829 456.83C218.766 456.93 218.681 457.008 218.574 457.065C218.468 457.122 218.349 457.15 218.219 457.15ZM220.161 457V456.295L221.686 454.89C222.173 454.443 222.568 454.055 222.871 453.725C223.175 453.392 223.398 453.088 223.541 452.815C223.685 452.538 223.756 452.26 223.756 451.98C223.756 451.573 223.615 451.253 223.331 451.02C223.051 450.787 222.663 450.67 222.166 450.67C221.86 450.67 221.563 450.722 221.276 450.825C220.99 450.928 220.75 451.078 220.556 451.275L220.201 450.585C220.475 450.345 220.788 450.163 221.141 450.04C221.498 449.913 221.876 449.85 222.276 449.85C222.746 449.85 223.16 449.935 223.516 450.105C223.873 450.272 224.15 450.51 224.346 450.82C224.546 451.127 224.646 451.488 224.646 451.905C224.646 452.195 224.588 452.487 224.471 452.78C224.355 453.073 224.146 453.403 223.846 453.77C223.55 454.133 223.128 454.57 222.581 455.08L221.381 456.185H224.821V457H220.161ZM228.045 457.15C227.625 457.15 227.218 457.09 226.825 456.97C226.435 456.85 226.115 456.69 225.865 456.49L226.19 455.705C226.42 455.898 226.697 456.048 227.02 456.155C227.347 456.258 227.672 456.31 227.995 456.31C228.348 456.31 228.653 456.252 228.91 456.135C229.167 456.015 229.365 455.845 229.505 455.625C229.645 455.402 229.715 455.133 229.715 454.82C229.715 454.53 229.64 454.282 229.49 454.075C229.343 453.865 229.14 453.705 228.88 453.595C228.623 453.482 228.332 453.425 228.005 453.425C227.802 453.425 227.59 453.45 227.37 453.5C227.15 453.547 226.927 453.62 226.7 453.72L226.305 453.31L226.67 450.015L230.465 450.005V450.835H227.35L227.115 452.865C227.308 452.798 227.498 452.748 227.685 452.715C227.875 452.678 228.062 452.66 228.245 452.66C228.695 452.66 229.1 452.747 229.46 452.92C229.823 453.093 230.11 453.343 230.32 453.67C230.533 453.997 230.64 454.388 230.64 454.845C230.64 455.312 230.53 455.718 230.31 456.065C230.09 456.408 229.785 456.675 229.395 456.865C229.008 457.055 228.558 457.15 228.045 457.15ZM234.965 457V455.52H231.43V454.795L234.035 450H235.015L232.43 454.72H234.965V453.105H235.795V454.72H236.92V455.52H235.795V457H234.965Z" fill="white"/>
<rect x="226.5" y="231.5" width="142" height="137" rx="7.5" fill="#171717" stroke="#272626"/>
<rect x="216.5" y="221.5" width="142" height="137" rx="7.5" fill="#171717" stroke="#3C3B3B"/>
<path d="M206.5 200C206.5 195.858 209.858 192.5 214 192.5H341C345.142 192.5 348.5 195.858 348.5 200V211.5H206.5V200Z" stroke="#5C5C5C"/>
<rect x="213" y="200" width="4" height="4" rx="2" fill="#FDAC76"/>
<rect x="221" y="200" width="4" height="4" rx="2" fill="#A1FFB0"/>
<rect x="229" y="200" width="4" height="4" rx="2" fill="#5C5C5C"/>
<path d="M206.5 211.5H348.5V341C348.5 345.142 345.142 348.5 341 348.5H214C209.858 348.5 206.5 345.142 206.5 341V211.5Z" fill="#171717" stroke="#5C5C5C"/>
<path d="M248 323L261.081 315.109C267.961 310.959 279.355 311.744 286.909 314.481V314.481C292.433 316.483 295.675 315.14 301.022 312.705C305.836 310.512 311.61 307.916 315.063 306.479C321.809 303.671 335 300 335 300" stroke="url(#paint0_linear_85_31235)" stroke-width="3"/>
<path d="M248 309.833L258.208 318.012C261.023 320.267 264.274 322.463 267.82 321.801C269.052 321.571 270.296 321.15 271.537 320.58C284.883 314.446 301.897 322.738 315.436 317.044V317.044C322.19 314.203 336 318.682 336 318.682" stroke="url(#paint1_linear_85_31235)" stroke-width="3"/>
<rect x="248" y="228" width="63" height="4" rx="2" fill="#5C5C5C"/>
<rect x="248" y="249" width="43" height="4" rx="2" fill="#5C5C5C"/>
<rect x="248" y="256" width="73" height="4" rx="2" fill="#5C5C5C"/>
<rect x="248" y="263" width="54" height="4" rx="2" fill="#5C5C5C"/>
<rect x="248" y="235" width="31" height="4" rx="2" fill="#5C5C5C"/>
<rect x="248" y="242" width="20" height="4" rx="2" fill="#5C5C5C"/>
<rect x="271" y="242" width="55" height="4" rx="2" fill="#5C5C5C"/>
<rect x="282" y="235" width="59" height="4" rx="2" fill="#5C5C5C"/>
<path d="M206.5 211.5H241.5V348.5H214C209.858 348.5 206.5 345.142 206.5 341V211.5Z" stroke="#5C5C5C"/>
<rect x="302.5" y="204.5" width="67" height="18" rx="6.5" fill="#1A1B1A" stroke="#E5FF5D"/>
<path d="M311.136 217L309.903 216.082L311.544 213.986L309 213.266L309.486 211.746L311.934 212.726L311.787 210H313.323L313.184 212.699L315.632 211.737L316.119 213.257L313.575 213.959L315.242 216.082L313.983 216.991L312.568 214.715L311.136 217Z" fill="#898989"/>
<path d="M320.512 217L319.279 216.082L320.92 213.986L318.376 213.266L318.862 211.746L321.311 212.726L321.163 210H322.699L322.561 212.699L325.009 211.737L325.495 213.257L322.951 213.959L324.618 216.082L323.359 216.991L321.944 214.715L320.512 217Z" fill="#898989"/>
<path d="M329.888 217L328.655 216.082L330.296 213.986L327.753 213.266L328.239 211.746L330.687 212.726L330.539 210H332.076L331.937 212.699L334.385 211.737L334.871 213.257L332.328 213.959L333.994 216.082L332.736 216.991L331.321 214.715L329.888 217Z" fill="#898989"/>
<path d="M339.264 217L338.032 216.082L339.672 213.986L337.129 213.266L337.615 211.746L340.063 212.726L339.916 210H341.452L341.313 212.699L343.761 211.737L344.247 213.257L341.704 213.959L343.371 216.082L342.112 216.991L340.697 214.715L339.264 217Z" fill="#898989"/>
<path d="M348.641 217L347.408 216.082L349.049 213.986L346.505 213.266L346.991 211.746L349.439 212.726L349.292 210H350.828L350.689 212.699L353.138 211.737L353.624 213.257L351.08 213.959L352.747 216.082L351.488 216.991L350.073 214.715L348.641 217Z" fill="#898989"/>
<path d="M358.017 217L356.784 216.082L358.425 213.986L355.881 213.266L356.368 211.746L358.816 212.726L358.668 210H360.205L360.066 212.699L362.514 211.737L363 213.257L360.456 213.959L362.123 216.082L360.864 216.991L359.449 214.715L358.017 217Z" fill="#898989"/>
<g opacity="0.5" filter="url(#filter1_f_85_31235)">
<circle cx="287.5" cy="280.5" r="125.5" fill="url(#paint2_linear_85_31235)"/>
</g>
<path d="M447.333 162C447.333 160.527 448.527 159.333 450 159.333C451.473 159.333 452.667 160.527 452.667 162C452.667 163.473 451.473 164.667 450 164.667C448.527 164.667 447.333 163.473 447.333 162ZM343 236.5H418V237.5H343V236.5ZM449.5 205V162H450.5V205H449.5ZM418 236.5C435.397 236.5 449.5 222.397 449.5 205H450.5C450.5 222.949 435.949 237.5 418 237.5V236.5Z" fill="white" fill-opacity="0.2"/>
<rect x="391" y="71" width="118" height="55" rx="4" fill="white" fill-opacity="0.07"/>
<rect x="391.5" y="71.5" width="117" height="54" rx="3.5" stroke="white" stroke-opacity="0.1"/>
<path d="M400.252 79.7516H399.988L399.895 79.6616C400.222 79.2816 400.418 78.7883 400.418 78.2516C400.418 77.055 399.448 76.085 398.252 76.085C397.055 76.085 396.085 77.055 396.085 78.2516C396.085 79.4483 397.055 80.4183 398.252 80.4183C398.788 80.4183 399.282 80.2216 399.662 79.895L399.752 79.9883V80.2516L401.418 81.915L401.915 81.4183L400.252 79.7516ZM398.252 79.7516C397.422 79.7516 396.752 79.0816 396.752 78.2516C396.752 77.4216 397.422 76.7516 398.252 76.7516C399.082 76.7516 399.752 77.4216 399.752 78.2516C399.752 79.0816 399.082 79.7516 398.252 79.7516Z" fill="#E5FF5D"/>
<path d="M405.455 81V77.5H406.015V81H405.455ZM406.93 81V77.5H408.197C408.445 77.5 408.665 77.5433 408.855 77.63C409.046 77.715 409.196 77.8383 409.305 78C409.413 78.16 409.467 78.3525 409.467 78.5775C409.467 78.8092 409.417 79.005 409.317 79.165C409.217 79.3233 409.071 79.4442 408.88 79.5275C408.69 79.6092 408.458 79.65 408.185 79.65H407.49V81H406.93ZM407.49 79.17H408.192C408.419 79.17 408.595 79.1225 408.72 79.0275C408.845 78.9308 408.907 78.785 408.907 78.59C408.907 78.3967 408.843 78.2483 408.715 78.145C408.586 78.0417 408.414 77.99 408.197 77.99H407.49V79.17ZM411.252 81V77.4H411.802V81H411.252ZM413.693 81.075C413.434 81.075 413.203 81.0158 413 80.8975C412.798 80.7775 412.64 80.6183 412.525 80.42C412.41 80.22 412.353 80.0008 412.353 79.7625C412.353 79.5858 412.385 79.4192 412.45 79.2625C412.517 79.1042 412.61 78.9642 412.73 78.8425C412.852 78.7208 412.994 78.625 413.158 78.555C413.321 78.485 413.5 78.45 413.695 78.45C413.953 78.45 414.183 78.51 414.385 78.63C414.588 78.7483 414.748 78.9075 414.863 79.1075C414.978 79.3058 415.035 79.5242 415.035 79.7625C415.035 79.9375 415.002 80.1042 414.935 80.2625C414.87 80.4208 414.778 80.5608 414.658 80.6825C414.538 80.8042 414.396 80.9 414.233 80.97C414.069 81.04 413.889 81.075 413.693 81.075ZM413.693 80.5875C413.846 80.5875 413.982 80.5542 414.1 80.4875C414.22 80.4192 414.314 80.3233 414.383 80.2C414.451 80.0767 414.485 79.9308 414.485 79.7625C414.485 79.5942 414.451 79.4483 414.383 79.325C414.314 79.2 414.22 79.1042 414.1 79.0375C413.982 78.9708 413.846 78.9375 413.693 78.9375C413.539 78.9375 413.403 78.9708 413.283 79.0375C413.164 79.1042 413.071 79.2 413.003 79.325C412.936 79.4483 412.903 79.5942 412.903 79.7625C412.903 79.9308 412.937 80.0767 413.005 80.2C413.073 80.3233 413.167 80.4192 413.285 80.4875C413.405 80.5542 413.541 80.5875 413.693 80.5875ZM416.747 81.075C416.487 81.075 416.255 81.0183 416.052 80.905C415.849 80.79 415.689 80.6342 415.572 80.4375C415.457 80.2392 415.399 80.0142 415.399 79.7625C415.399 79.5725 415.434 79.3983 415.502 79.24C415.57 79.08 415.667 78.9408 415.792 78.8225C415.917 78.7042 416.064 78.6125 416.232 78.5475C416.402 78.4825 416.586 78.45 416.784 78.45C416.951 78.45 417.105 78.4725 417.247 78.5175C417.39 78.5608 417.522 78.6283 417.642 78.72L417.377 79.14C417.3 79.0717 417.212 79.0208 417.112 78.9875C417.014 78.9542 416.909 78.9375 416.797 78.9375C416.624 78.9375 416.474 78.97 416.349 79.035C416.224 79.1 416.127 79.1942 416.057 79.3175C415.989 79.4392 415.954 79.5867 415.954 79.76C415.954 80.0183 416.029 80.2208 416.179 80.3675C416.331 80.5142 416.537 80.5875 416.797 80.5875C416.92 80.5875 417.037 80.565 417.147 80.52C417.257 80.4733 417.349 80.4125 417.422 80.3375L417.684 80.755C417.553 80.855 417.406 80.9333 417.244 80.99C417.083 81.0467 416.917 81.075 416.747 81.075ZM418.878 81.075C418.706 81.075 418.555 81.0433 418.425 80.98C418.295 80.915 418.193 80.8242 418.12 80.7075C418.048 80.5892 418.013 80.45 418.013 80.29C418.013 80.155 418.047 80.0333 418.115 79.925C418.183 79.815 418.289 79.7242 418.433 79.6525C418.578 79.5808 418.763 79.5333 418.99 79.51C419.217 79.485 419.489 79.4883 419.808 79.52L419.818 79.9C419.591 79.8683 419.396 79.855 419.233 79.86C419.069 79.865 418.935 79.8858 418.83 79.9225C418.727 79.9575 418.65 80.005 418.6 80.065C418.552 80.1233 418.528 80.1908 418.528 80.2675C418.528 80.3875 418.57 80.48 418.655 80.545C418.742 80.61 418.86 80.6425 419.01 80.6425C419.138 80.6425 419.253 80.6192 419.355 80.5725C419.457 80.5258 419.537 80.46 419.595 80.375C419.655 80.29 419.685 80.19 419.685 80.075V79.4175C419.685 79.3075 419.662 79.2125 419.615 79.1325C419.568 79.0508 419.498 78.9875 419.403 78.9425C419.308 78.8975 419.189 78.875 419.048 78.875C418.918 78.875 418.789 78.895 418.663 78.935C418.536 78.9733 418.415 79.0342 418.3 79.1175L418.145 78.7125C418.3 78.6075 418.462 78.5333 418.63 78.49C418.798 78.4467 418.96 78.425 419.115 78.425C419.345 78.425 419.542 78.4617 419.705 78.535C419.87 78.6067 419.997 78.7158 420.085 78.8625C420.173 79.0075 420.218 79.1908 420.218 79.4125V81H419.723V80.7075C419.639 80.8258 419.523 80.9167 419.375 80.98C419.227 81.0433 419.061 81.075 418.878 81.075ZM421.94 81.075C421.698 81.075 421.505 81.005 421.36 80.865C421.215 80.725 421.143 80.5108 421.143 80.2225V77.8025H421.693V78.525H422.38V78.98H421.693V80.1025C421.693 80.2758 421.725 80.3983 421.79 80.47C421.857 80.54 421.95 80.575 422.07 80.575C422.128 80.575 422.183 80.5683 422.235 80.555C422.287 80.5417 422.333 80.5242 422.375 80.5025L422.473 80.9475C422.401 80.9842 422.318 81.0142 422.225 81.0375C422.133 81.0625 422.038 81.075 421.94 81.075ZM420.6 78.98V78.525H421.215V78.98H420.6ZM423.049 81V78.525H423.599V81H423.049ZM423.324 78.0825C423.225 78.0825 423.14 78.0508 423.069 77.9875C422.997 77.9242 422.961 77.8408 422.961 77.7375C422.961 77.6358 422.997 77.5533 423.069 77.49C423.14 77.425 423.225 77.3925 423.324 77.3925C423.422 77.3925 423.507 77.425 423.579 77.49C423.65 77.5533 423.686 77.6358 423.686 77.7375C423.686 77.8408 423.65 77.9242 423.579 77.9875C423.507 78.0508 423.422 78.0825 423.324 78.0825ZM425.489 81.075C425.231 81.075 425 81.0158 424.797 80.8975C424.595 80.7775 424.437 80.6183 424.322 80.42C424.207 80.22 424.149 80.0008 424.149 79.7625C424.149 79.5858 424.182 79.4192 424.247 79.2625C424.314 79.1042 424.407 78.9642 424.527 78.8425C424.649 78.7208 424.791 78.625 424.954 78.555C425.118 78.485 425.297 78.45 425.492 78.45C425.75 78.45 425.98 78.51 426.182 78.63C426.385 78.7483 426.544 78.9075 426.659 79.1075C426.774 79.3058 426.832 79.5242 426.832 79.7625C426.832 79.9375 426.799 80.1042 426.732 80.2625C426.667 80.4208 426.574 80.5608 426.454 80.6825C426.334 80.8042 426.193 80.9 426.029 80.97C425.866 81.04 425.686 81.075 425.489 81.075ZM425.489 80.5875C425.643 80.5875 425.779 80.5542 425.897 80.4875C426.017 80.4192 426.111 80.3233 426.179 80.2C426.248 80.0767 426.282 79.9308 426.282 79.7625C426.282 79.5942 426.248 79.4483 426.179 79.325C426.111 79.2 426.017 79.1042 425.897 79.0375C425.779 78.9708 425.643 78.9375 425.489 78.9375C425.336 78.9375 425.199 78.9708 425.079 79.0375C424.961 79.1042 424.868 79.2 424.799 79.325C424.733 79.4483 424.699 79.5942 424.699 79.7625C424.699 79.9308 424.734 80.0767 424.802 80.2C424.87 80.3233 424.964 80.4192 425.082 80.4875C425.202 80.5542 425.338 80.5875 425.489 80.5875ZM427.384 81V78.525H427.934V78.84C428.038 78.7017 428.158 78.6025 428.294 78.5425C428.431 78.4808 428.573 78.45 428.719 78.45C428.946 78.45 429.134 78.495 429.282 78.585C429.43 78.675 429.54 78.7908 429.612 78.9325C429.685 79.0742 429.722 79.22 429.722 79.37V81H429.172V79.54C429.172 79.3633 429.119 79.2217 429.012 79.115C428.907 79.0083 428.76 78.955 428.572 78.955C428.449 78.955 428.339 78.9825 428.242 79.0375C428.147 79.0925 428.072 79.1692 428.017 79.2675C427.962 79.3642 427.934 79.4775 427.934 79.6075V81H427.384ZM430.813 79.1675C430.706 79.1675 430.614 79.1333 430.536 79.065C430.459 78.9967 430.421 78.9075 430.421 78.7975C430.421 78.7225 430.438 78.6575 430.473 78.6025C430.508 78.5458 430.556 78.5025 430.616 78.4725C430.676 78.4408 430.741 78.425 430.813 78.425C430.921 78.425 431.013 78.4592 431.088 78.5275C431.165 78.5942 431.203 78.6842 431.203 78.7975C431.203 78.8708 431.186 78.9358 431.151 78.9925C431.116 79.0475 431.068 79.0908 431.008 79.1225C430.95 79.1525 430.885 79.1675 430.813 79.1675ZM430.813 81.075C430.706 81.075 430.614 81.0408 430.536 80.9725C430.459 80.9042 430.421 80.815 430.421 80.705C430.421 80.63 430.438 80.565 430.473 80.51C430.508 80.4533 430.556 80.41 430.616 80.38C430.676 80.3483 430.741 80.3325 430.813 80.3325C430.921 80.3325 431.013 80.3667 431.088 80.435C431.165 80.5017 431.203 80.5917 431.203 80.705C431.203 80.7783 431.186 80.8433 431.151 80.9C431.116 80.955 431.068 80.9975 431.008 81.0275C430.95 81.0592 430.885 81.075 430.813 81.075Z" fill="white" fill-opacity="0.6"/>
<path d="M434.443 81V77.5H435.073L436.73 79.91V77.5H437.363V81H436.733L435.075 78.56V81H434.443ZM439.329 81.075C439.057 81.075 438.819 81.02 438.614 80.91C438.409 80.7983 438.249 80.6433 438.134 80.445C438.02 80.2467 437.964 80.0158 437.964 79.7525C437.964 79.5592 437.996 79.3817 438.061 79.22C438.128 79.0583 438.221 78.9183 438.341 78.8C438.463 78.68 438.605 78.5875 438.766 78.5225C438.93 78.4575 439.108 78.425 439.301 78.425C439.511 78.425 439.699 78.4625 439.864 78.5375C440.029 78.6108 440.165 78.715 440.274 78.85C440.384 78.9833 440.46 79.14 440.504 79.32C440.549 79.4983 440.555 79.6933 440.521 79.905H438.566C438.565 80.0367 438.595 80.1517 438.659 80.25C438.724 80.3483 438.815 80.4258 438.934 80.4825C439.054 80.5375 439.195 80.565 439.356 80.565C439.5 80.565 439.637 80.5442 439.769 80.5025C439.9 80.4608 440.023 80.3992 440.136 80.3175L440.361 80.765C440.283 80.8283 440.185 80.8833 440.069 80.93C439.952 80.9767 439.829 81.0125 439.699 81.0375C439.57 81.0625 439.447 81.075 439.329 81.075ZM438.604 79.45H439.901C439.896 79.2817 439.84 79.15 439.734 79.055C439.627 78.9583 439.478 78.91 439.286 78.91C439.096 78.91 438.94 78.9583 438.816 79.055C438.693 79.15 438.622 79.2817 438.604 79.45ZM441.51 81L440.737 78.5H441.367L441.857 80.2625L442.402 78.5H443.012L443.527 80.2625L444.022 78.5H444.625L443.852 81H443.202L442.692 79.3L442.16 81H441.51ZM447.132 81V79.505L445.9 77.5H446.637L447.472 78.88L448.3 77.5H449.017L447.785 79.51V81H447.132ZM450.23 81.075C449.963 81.075 449.726 81.015 449.52 80.895C449.315 80.7733 449.154 80.6125 449.037 80.4125C448.92 80.2108 448.862 79.99 448.862 79.75C448.862 79.5733 448.895 79.405 448.962 79.245C449.029 79.085 449.123 78.9442 449.245 78.8225C449.368 78.6992 449.513 78.6025 449.68 78.5325C449.846 78.4608 450.03 78.425 450.23 78.425C450.495 78.425 450.73 78.485 450.935 78.605C451.141 78.725 451.303 78.8858 451.42 79.0875C451.538 79.2892 451.597 79.51 451.597 79.75C451.597 79.9267 451.563 80.095 451.495 80.255C451.428 80.4133 451.334 80.5542 451.212 80.6775C451.09 80.8008 450.946 80.8983 450.78 80.97C450.613 81.04 450.43 81.075 450.23 81.075ZM450.227 80.515C450.369 80.515 450.495 80.4842 450.605 80.4225C450.716 80.3592 450.804 80.2708 450.867 80.1575C450.93 80.0425 450.962 79.9067 450.962 79.75C450.962 79.5933 450.93 79.4575 450.867 79.3425C450.804 79.2275 450.717 79.1392 450.607 79.0775C450.497 79.0158 450.371 78.985 450.23 78.985C450.088 78.985 449.961 79.0158 449.85 79.0775C449.74 79.1392 449.653 79.2275 449.59 79.3425C449.528 79.4575 449.497 79.5933 449.497 79.75C449.497 79.9067 449.529 80.0425 449.592 80.1575C449.655 80.2708 449.742 80.3592 449.852 80.4225C449.962 80.4842 450.087 80.515 450.227 80.515ZM452.124 81V78.5H452.764V78.8275C452.851 78.6808 452.959 78.5767 453.089 78.515C453.221 78.4533 453.362 78.4225 453.514 78.4225C453.567 78.4225 453.616 78.425 453.661 78.43C453.706 78.435 453.75 78.4425 453.791 78.4525L453.711 79.1125C453.66 79.0942 453.606 79.0808 453.549 79.0725C453.494 79.0625 453.439 79.0575 453.384 79.0575C453.204 79.0575 453.056 79.1117 452.939 79.22C452.822 79.3267 452.764 79.4767 452.764 79.67V81H452.124ZM454.233 81V77.4H454.873V79.4525L455.778 78.5H456.528L455.648 79.475L456.641 81H455.878L455.183 79.8925L454.873 80.21V81H454.233ZM459.976 81.075C459.612 81.075 459.294 81 459.021 80.85C458.747 80.7 458.535 80.4892 458.383 80.2175C458.231 79.9442 458.156 79.6233 458.156 79.255C458.156 78.9867 458.2 78.7417 458.288 78.52C458.378 78.2967 458.505 78.1033 458.668 77.94C458.833 77.775 459.026 77.6483 459.248 77.56C459.471 77.47 459.716 77.425 459.983 77.425C460.258 77.425 460.493 77.46 460.688 77.53C460.883 77.5983 461.056 77.6958 461.208 77.8225L460.876 78.355C460.769 78.2533 460.644 78.1783 460.501 78.13C460.359 78.08 460.201 78.055 460.028 78.055C459.843 78.055 459.677 78.0825 459.531 78.1375C459.384 78.1925 459.259 78.2725 459.156 78.3775C459.052 78.4808 458.973 78.6058 458.918 78.7525C458.863 78.8992 458.836 79.0642 458.836 79.2475C458.836 79.4992 458.885 79.7142 458.983 79.8925C459.081 80.0692 459.221 80.205 459.403 80.3C459.585 80.395 459.801 80.4425 460.051 80.4425C460.219 80.4425 460.383 80.4167 460.543 80.365C460.705 80.3133 460.857 80.2308 461.001 80.1175L461.301 80.665C461.134 80.795 460.941 80.8958 460.721 80.9675C460.502 81.0392 460.254 81.075 459.976 81.075ZM461.792 81V78.5H462.432V81H461.792ZM462.112 78.08C462.002 78.08 461.907 78.045 461.827 77.975C461.747 77.905 461.707 77.8125 461.707 77.6975C461.707 77.5825 461.747 77.49 461.827 77.42C461.907 77.35 462.002 77.315 462.112 77.315C462.222 77.315 462.317 77.35 462.397 77.42C462.477 77.49 462.517 77.5825 462.517 77.6975C462.517 77.8125 462.477 77.905 462.397 77.975C462.317 78.045 462.222 78.08 462.112 78.08ZM464.236 81.075C463.98 81.075 463.776 81.0017 463.626 80.855C463.476 80.7083 463.401 80.4867 463.401 80.19V77.775H464.041V78.5H464.699V79.02H464.041V80.0625C464.041 80.2225 464.073 80.3358 464.136 80.4025C464.2 80.4675 464.287 80.5 464.399 80.5C464.455 80.5 464.509 80.4933 464.559 80.48C464.61 80.4667 464.658 80.4492 464.701 80.4275L464.801 80.9375C464.728 80.9758 464.642 81.0083 464.544 81.035C464.445 81.0617 464.343 81.075 464.236 81.075ZM462.874 79.02V78.5H463.474V79.02H462.874ZM465.614 82.12C465.516 82.12 465.419 82.1092 465.324 82.0875C465.229 82.0658 465.137 82.0308 465.049 81.9825L465.192 81.44C465.243 81.4717 465.301 81.4958 465.364 81.5125C465.427 81.5292 465.485 81.5375 465.537 81.5375C465.643 81.5375 465.73 81.5125 465.797 81.4625C465.863 81.4142 465.914 81.3367 465.949 81.23L466.017 81.03L465.037 78.5H465.734L466.379 80.3625L467.007 78.5H467.684L466.619 81.3225C466.539 81.5258 466.448 81.685 466.347 81.8C466.245 81.9167 466.132 81.9992 466.009 82.0475C465.887 82.0958 465.756 82.12 465.614 82.12ZM467.883 81.8025L467.673 81.5175C467.805 81.4575 467.921 81.3833 468.023 81.295C468.125 81.2067 468.196 81.12 468.236 81.035C468.152 81.04 468.076 81.0275 468.008 80.9975C467.94 80.9675 467.885 80.9233 467.843 80.865C467.803 80.8067 467.783 80.7383 467.783 80.66C467.783 80.54 467.821 80.4433 467.898 80.37C467.976 80.295 468.076 80.2575 468.198 80.2575C468.335 80.2575 468.446 80.3033 468.531 80.395C468.616 80.485 468.658 80.6083 468.658 80.765C468.658 80.8867 468.629 81.0075 468.571 81.1275C468.514 81.2492 468.428 81.3667 468.313 81.48C468.198 81.5933 468.055 81.7008 467.883 81.8025ZM470.541 81V77.5H471.171L472.829 79.91V77.5H473.461V81H472.831L471.174 78.56V81H470.541ZM475.427 81.075C475.156 81.075 474.917 81.02 474.712 80.91C474.507 80.7983 474.347 80.6433 474.232 80.445C474.119 80.2467 474.062 80.0158 474.062 79.7525C474.062 79.5592 474.095 79.3817 474.16 79.22C474.227 79.0583 474.32 78.9183 474.44 78.8C474.562 78.68 474.703 78.5875 474.865 78.5225C475.028 78.4575 475.207 78.425 475.4 78.425C475.61 78.425 475.797 78.4625 475.962 78.5375C476.127 78.6108 476.264 78.715 476.372 78.85C476.482 78.9833 476.559 79.14 476.602 79.32C476.647 79.4983 476.653 79.6933 476.62 79.905H474.665C474.663 80.0367 474.694 80.1517 474.757 80.25C474.822 80.3483 474.914 80.4258 475.032 80.4825C475.152 80.5375 475.293 80.565 475.455 80.565C475.598 80.565 475.736 80.5442 475.867 80.5025C475.999 80.4608 476.122 80.3992 476.235 80.3175L476.46 80.765C476.382 80.8283 476.284 80.8833 476.167 80.93C476.051 80.9767 475.927 81.0125 475.797 81.0375C475.669 81.0625 475.546 81.075 475.427 81.075ZM474.702 79.45H476C475.995 79.2817 475.939 79.15 475.832 79.055C475.726 78.9583 475.577 78.91 475.385 78.91C475.195 78.91 475.038 78.9583 474.915 79.055C474.792 79.15 474.721 79.2817 474.702 79.45ZM477.608 81L476.836 78.5H477.466L477.956 80.2625L478.501 78.5H479.111L479.626 80.2625L480.121 78.5H480.723L479.951 81H479.301L478.791 79.3L478.258 81H477.608ZM483.231 81V79.505L481.998 77.5H482.736L483.571 78.88L484.398 77.5H485.116L483.883 79.51V81H483.231ZM486.328 81.075C486.062 81.075 485.825 81.015 485.618 80.895C485.413 80.7733 485.252 80.6125 485.136 80.4125C485.019 80.2108 484.961 79.99 484.961 79.75C484.961 79.5733 484.994 79.405 485.061 79.245C485.127 79.085 485.222 78.9442 485.343 78.8225C485.467 78.6992 485.612 78.6025 485.778 78.5325C485.945 78.4608 486.128 78.425 486.328 78.425C486.593 78.425 486.828 78.485 487.033 78.605C487.24 78.725 487.402 78.8858 487.518 79.0875C487.637 79.2892 487.696 79.51 487.696 79.75C487.696 79.9267 487.662 80.095 487.593 80.255C487.527 80.4133 487.432 80.5542 487.311 80.6775C487.189 80.8008 487.045 80.8983 486.878 80.97C486.712 81.04 486.528 81.075 486.328 81.075ZM486.326 80.515C486.467 80.515 486.593 80.4842 486.703 80.4225C486.815 80.3592 486.902 80.2708 486.966 80.1575C487.029 80.0425 487.061 79.9067 487.061 79.75C487.061 79.5933 487.029 79.4575 486.966 79.3425C486.902 79.2275 486.816 79.1392 486.706 79.0775C486.596 79.0158 486.47 78.985 486.328 78.985C486.187 78.985 486.06 79.0158 485.948 79.0775C485.838 79.1392 485.752 79.2275 485.688 79.3425C485.627 79.4575 485.596 79.5933 485.596 79.75C485.596 79.9067 485.627 80.0425 485.691 80.1575C485.754 80.2708 485.841 80.3592 485.951 80.4225C486.061 80.4842 486.186 80.515 486.326 80.515ZM488.223 81V78.5H488.863V78.8275C488.949 78.6808 489.058 78.5767 489.188 78.515C489.319 78.4533 489.461 78.4225 489.613 78.4225C489.666 78.4225 489.715 78.425 489.76 78.43C489.805 78.435 489.848 78.4425 489.89 78.4525L489.81 79.1125C489.758 79.0942 489.704 79.0808 489.648 79.0725C489.593 79.0625 489.538 79.0575 489.483 79.0575C489.303 79.0575 489.154 79.1117 489.038 79.22C488.921 79.3267 488.863 79.4767 488.863 79.67V81H488.223ZM490.332 81V77.4H490.972V79.4525L491.877 78.5H492.627L491.747 79.475L492.739 81H491.977L491.282 79.8925L490.972 80.21V81H490.332ZM495.017 81.575C494.81 81.2233 494.655 80.8517 494.552 80.46C494.448 80.0667 494.397 79.67 494.397 79.27C494.397 79.0033 494.419 78.7383 494.464 78.475C494.511 78.2117 494.58 77.9542 494.672 77.7025C494.763 77.4492 494.878 77.2067 495.017 76.975L495.509 77.1675C495.419 77.3125 495.339 77.4675 495.269 77.6325C495.201 77.7975 495.143 77.9692 495.097 78.1475C495.052 78.3258 495.018 78.5092 494.994 78.6975C494.973 78.8842 494.962 79.0717 494.962 79.26C494.962 79.6383 495.008 80.0117 495.099 80.38C495.193 80.7483 495.329 81.0825 495.509 81.3825L495.017 81.575ZM497.64 81.075C497.323 81.075 497.057 81.0108 496.842 80.8825C496.629 80.7542 496.468 80.58 496.36 80.36C496.252 80.1383 496.197 79.8883 496.197 79.61V77.5H496.847V79.6175C496.847 79.9008 496.918 80.1125 497.06 80.2525C497.202 80.3925 497.395 80.4625 497.64 80.4625C497.885 80.4625 498.077 80.3925 498.217 80.2525C498.359 80.1125 498.43 79.9008 498.43 79.6175V77.5H499.082V79.61C499.082 79.8883 499.028 80.1383 498.92 80.36C498.812 80.58 498.651 80.7542 498.437 80.8825C498.224 81.0108 497.958 81.075 497.64 81.075ZM501.113 81.075C500.863 81.075 500.619 81.0392 500.38 80.9675C500.144 80.8942 499.944 80.79 499.78 80.655L500.095 80.1625C500.175 80.2358 500.271 80.2992 500.383 80.3525C500.495 80.4058 500.613 80.4475 500.738 80.4775C500.865 80.5058 500.99 80.52 501.115 80.52C501.324 80.52 501.493 80.4817 501.623 80.405C501.753 80.3267 501.818 80.2142 501.818 80.0675C501.818 79.9525 501.773 79.8567 501.683 79.78C501.593 79.7017 501.427 79.6283 501.185 79.56L500.845 79.4625C500.504 79.3658 500.256 79.2367 500.103 79.075C499.951 78.9117 499.875 78.7117 499.875 78.475C499.875 78.32 499.907 78.1783 499.97 78.05C500.034 77.9217 500.123 77.8108 500.238 77.7175C500.355 77.6242 500.492 77.5525 500.65 77.5025C500.809 77.4525 500.981 77.4275 501.168 77.4275C501.413 77.4275 501.64 77.4633 501.85 77.535C502.06 77.605 502.232 77.7008 502.365 77.8225L502.043 78.3C501.973 78.235 501.89 78.1783 501.795 78.13C501.7 78.0817 501.598 78.045 501.488 78.02C501.378 77.9933 501.267 77.98 501.155 77.98C501.024 77.98 500.909 77.9983 500.81 78.035C500.712 78.0717 500.635 78.1242 500.58 78.1925C500.525 78.2608 500.498 78.3442 500.498 78.4425C500.498 78.5142 500.516 78.5767 500.553 78.63C500.591 78.6833 500.656 78.7325 500.748 78.7775C500.84 78.8208 500.966 78.8667 501.128 78.915L501.483 79.02C501.818 79.1183 502.062 79.245 502.215 79.4C502.369 79.5533 502.445 79.7533 502.445 80C502.445 80.2117 502.392 80.3983 502.285 80.56C502.179 80.7217 502.025 80.8483 501.825 80.94C501.627 81.03 501.39 81.075 501.113 81.075ZM503.422 81.575L502.93 81.3825C503.021 81.2358 503.101 81.08 503.17 80.915C503.238 80.75 503.295 80.5783 503.34 80.4C503.386 80.2217 503.42 80.0392 503.442 79.8525C503.465 79.6658 503.477 79.4783 503.477 79.29C503.477 78.9083 503.431 78.5342 503.34 78.1675C503.248 77.8008 503.111 77.4675 502.93 77.1675L503.422 76.975C503.63 77.325 503.785 77.6967 503.887 78.09C503.99 78.4817 504.042 78.8783 504.042 79.28C504.042 79.5467 504.019 79.8117 503.972 80.075C503.927 80.3383 503.859 80.5958 503.767 80.8475C503.675 81.0992 503.56 81.3417 503.422 81.575Z" fill="white"/>
<rect opacity="0.5" x="395" y="85" width="110" height="1" fill="white" fill-opacity="0.1"/>
<path d="M400.333 90.3333C400.333 89.5967 399.737 89 399 89C398.263 89 397.667 89.5967 397.667 90.3333C397.667 91.07 398.263 91.6667 399 91.6667C399.737 91.6667 400.333 91.07 400.333 90.3333ZM399 91C398.633 91 398.333 90.7 398.333 90.3333C398.333 89.9667 398.633 89.6667 399 89.6667C399.367 89.6667 399.667 89.9667 399.667 90.3333C399.667 90.7 399.367 91 399 91ZM397.333 92.3333C396.597 92.3333 396 92.93 396 93.6667C396 94.4033 396.597 95 397.333 95C398.07 95 398.667 94.4033 398.667 93.6667C398.667 92.93 398.07 92.3333 397.333 92.3333ZM397.333 94.3333C396.967 94.3333 396.667 94.0333 396.667 93.6667C396.667 93.3 396.967 93 397.333 93C397.7 93 398 93.3 398 93.6667C398 94.0333 397.7 94.3333 397.333 94.3333ZM400.667 92.3333C399.93 92.3333 399.333 92.93 399.333 93.6667C399.333 94.4033 399.93 95 400.667 95C401.403 95 402 94.4033 402 93.6667C402 92.93 401.403 92.3333 400.667 92.3333ZM400.667 94.3333C400.3 94.3333 400 94.0333 400 93.6667C400 93.3 400.3 93 400.667 93C401.033 93 401.333 93.3 401.333 93.6667C401.333 94.0333 401.033 94.3333 400.667 94.3333Z" fill="#FF8B36"/>
<path d="M405.455 94V90.5H406.015V94H405.455ZM408.07 94.075C407.828 94.075 407.591 94.0408 407.36 93.9725C407.13 93.9025 406.935 93.8025 406.777 93.6725L407.052 93.245C407.135 93.3167 407.232 93.3783 407.342 93.43C407.454 93.4817 407.572 93.5217 407.697 93.55C407.822 93.5767 407.947 93.59 408.072 93.59C408.3 93.59 408.485 93.5467 408.625 93.46C408.766 93.3733 408.837 93.2467 408.837 93.08C408.837 92.955 408.789 92.8492 408.692 92.7625C408.597 92.6758 408.42 92.5958 408.162 92.5225L407.802 92.4175C407.472 92.3225 407.231 92.1967 407.08 92.04C406.93 91.8833 406.855 91.6883 406.855 91.455C406.855 91.3 406.885 91.16 406.947 91.035C407.01 90.91 407.099 90.8017 407.212 90.71C407.327 90.6183 407.462 90.5483 407.617 90.5C407.772 90.4517 407.942 90.4275 408.127 90.4275C408.362 90.4275 408.58 90.4617 408.782 90.53C408.984 90.5983 409.15 90.69 409.282 90.805L408.997 91.22C408.925 91.155 408.841 91.0992 408.745 91.0525C408.65 91.0058 408.547 90.97 408.437 90.945C408.327 90.92 408.215 90.9075 408.102 90.9075C407.962 90.9075 407.838 90.9283 407.73 90.97C407.623 91.01 407.54 91.0683 407.48 91.145C407.42 91.2217 407.39 91.315 407.39 91.425C407.39 91.505 407.41 91.575 407.45 91.635C407.49 91.695 407.558 91.75 407.655 91.8C407.753 91.8483 407.888 91.8975 408.06 91.9475L408.44 92.06C408.763 92.155 409 92.2792 409.15 92.4325C409.3 92.5842 409.375 92.7817 409.375 93.025C409.375 93.2333 409.323 93.4167 409.22 93.575C409.118 93.7317 408.97 93.8542 408.775 93.9425C408.58 94.0308 408.345 94.075 408.07 94.075ZM410.069 94V90.5H411.337C411.585 90.5 411.804 90.5433 411.994 90.63C412.186 90.715 412.336 90.8383 412.444 91C412.553 91.16 412.607 91.3525 412.607 91.5775C412.607 91.8092 412.557 92.005 412.457 92.165C412.357 92.3233 412.211 92.4442 412.019 92.5275C411.829 92.6092 411.598 92.65 411.324 92.65H410.629V94H410.069ZM410.629 92.17H411.332C411.558 92.17 411.734 92.1225 411.859 92.0275C411.984 91.9308 412.047 91.785 412.047 91.59C412.047 91.3967 411.983 91.2483 411.854 91.145C411.726 91.0417 411.553 90.99 411.337 90.99H410.629V92.17ZM413.518 92.1675C413.412 92.1675 413.319 92.1333 413.241 92.065C413.164 91.9967 413.126 91.9075 413.126 91.7975C413.126 91.7225 413.143 91.6575 413.178 91.6025C413.213 91.5458 413.261 91.5025 413.321 91.4725C413.381 91.4408 413.447 91.425 413.518 91.425C413.627 91.425 413.718 91.4592 413.793 91.5275C413.87 91.5942 413.908 91.6842 413.908 91.7975C413.908 91.8708 413.891 91.9358 413.856 91.9925C413.821 92.0475 413.773 92.0908 413.713 92.1225C413.655 92.1525 413.59 92.1675 413.518 92.1675ZM413.518 94.075C413.412 94.075 413.319 94.0408 413.241 93.9725C413.164 93.9042 413.126 93.815 413.126 93.705C413.126 93.63 413.143 93.565 413.178 93.51C413.213 93.4533 413.261 93.41 413.321 93.38C413.381 93.3483 413.447 93.3325 413.518 93.3325C413.627 93.3325 413.718 93.3667 413.793 93.435C413.87 93.5017 413.908 93.5917 413.908 93.705C413.908 93.7783 413.891 93.8433 413.856 93.9C413.821 93.955 413.773 93.9975 413.713 94.0275C413.655 94.0592 413.59 94.075 413.518 94.075Z" fill="white" fill-opacity="0.6"/>
<path d="M417.443 94V90.5H418.07L419.465 92.785L419.21 92.7875L420.548 90.5H421.168V94H420.535L420.545 91.35L420.665 91.3925L419.535 93.2775H419.078L417.92 91.3925L418.028 91.35L418.038 94H417.443ZM421.889 94V93.5525L422.642 92.8675C422.879 92.6508 423.068 92.4675 423.209 92.3175C423.351 92.1658 423.453 92.03 423.514 91.91C423.576 91.7883 423.607 91.6667 423.607 91.545C423.607 91.365 423.546 91.2258 423.424 91.1275C423.304 91.0275 423.134 90.9775 422.914 90.9775C422.761 90.9775 422.614 91.005 422.472 91.06C422.332 91.115 422.209 91.1967 422.104 91.305L421.874 90.8325C422.023 90.7008 422.193 90.6 422.384 90.53C422.576 90.46 422.775 90.425 422.982 90.425C423.23 90.425 423.446 90.4683 423.629 90.555C423.814 90.6417 423.958 90.7642 424.059 90.9225C424.161 91.0792 424.212 91.2633 424.212 91.475C424.212 91.6183 424.184 91.7608 424.127 91.9025C424.07 92.0442 423.969 92.2033 423.822 92.38C423.677 92.5567 423.471 92.77 423.204 93.02L422.732 93.4575H424.302V94H421.889ZM426.368 94V93.3025H424.653V92.825L425.858 90.5H426.511L425.328 92.77H426.368V92.025H426.918V92.77H427.438V93.3025H426.918V94H426.368ZM427.847 94L429.282 91.0825H427.66V90.5H430.005V90.9725L428.537 94H427.847ZM431.871 94V90.5H434.199V91.07H432.521V91.9175H433.956V92.45H432.521V93.425H434.216V94H431.871ZM435.869 94.075C435.644 94.075 435.458 94.03 435.309 93.94C435.163 93.85 435.053 93.73 434.982 93.58C434.91 93.4283 434.874 93.2592 434.874 93.0725V91.5H435.514V92.9625C435.514 93.1225 435.56 93.2508 435.652 93.3475C435.743 93.4425 435.873 93.49 436.039 93.49C436.146 93.49 436.242 93.4658 436.327 93.4175C436.412 93.3675 436.478 93.2992 436.527 93.2125C436.575 93.1258 436.599 93.025 436.599 92.91V91.5H437.239V94H436.674V93.715C436.583 93.8233 436.471 93.9108 436.339 93.9775C436.209 94.0425 436.053 94.075 435.869 94.075ZM437.975 94V91.5H438.615V91.8275C438.702 91.6808 438.81 91.5767 438.94 91.515C439.072 91.4533 439.214 91.4225 439.365 91.4225C439.419 91.4225 439.468 91.425 439.513 91.43C439.558 91.435 439.601 91.4425 439.643 91.4525L439.563 92.1125C439.511 92.0942 439.457 92.0808 439.4 92.0725C439.345 92.0625 439.29 92.0575 439.235 92.0575C439.055 92.0575 438.907 92.1117 438.79 92.22C438.674 92.3267 438.615 92.4767 438.615 92.67V94H437.975ZM441.194 94.075C440.927 94.075 440.69 94.015 440.484 93.895C440.279 93.7733 440.118 93.6125 440.001 93.4125C439.884 93.2108 439.826 92.99 439.826 92.75C439.826 92.5733 439.859 92.405 439.926 92.245C439.993 92.085 440.087 91.9442 440.209 91.8225C440.332 91.6992 440.477 91.6025 440.644 91.5325C440.81 91.4608 440.994 91.425 441.194 91.425C441.459 91.425 441.694 91.485 441.899 91.605C442.105 91.725 442.267 91.8858 442.384 92.0875C442.502 92.2892 442.561 92.51 442.561 92.75C442.561 92.9267 442.527 93.095 442.459 93.255C442.392 93.4133 442.298 93.5542 442.176 93.6775C442.054 93.8008 441.91 93.8983 441.744 93.97C441.577 94.04 441.394 94.075 441.194 94.075ZM441.191 93.515C441.333 93.515 441.459 93.4842 441.569 93.4225C441.68 93.3592 441.768 93.2708 441.831 93.1575C441.894 93.0425 441.926 92.9067 441.926 92.75C441.926 92.5933 441.894 92.4575 441.831 92.3425C441.768 92.2275 441.681 92.1392 441.571 92.0775C441.461 92.0158 441.335 91.985 441.194 91.985C441.052 91.985 440.925 92.0158 440.814 92.0775C440.704 92.1392 440.617 92.2275 440.554 92.3425C440.492 92.4575 440.461 92.5933 440.461 92.75C440.461 92.9067 440.493 93.0425 440.556 93.1575C440.619 93.2708 440.706 93.3592 440.816 93.4225C440.926 93.4842 441.051 93.515 441.191 93.515ZM443.088 95.05V91.5H443.653V91.83C443.749 91.7083 443.874 91.6108 444.025 91.5375C444.177 91.4625 444.36 91.425 444.575 91.425C444.817 91.425 445.032 91.4817 445.22 91.595C445.409 91.7083 445.556 91.865 445.663 92.065C445.771 92.2633 445.825 92.4917 445.825 92.75C445.825 92.935 445.794 93.1075 445.733 93.2675C445.671 93.4275 445.584 93.5683 445.473 93.69C445.361 93.81 445.228 93.9042 445.073 93.9725C444.919 94.0408 444.75 94.075 444.565 94.075C444.385 94.075 444.225 94.0442 444.085 93.9825C443.947 93.9192 443.827 93.8333 443.725 93.725V95.05H443.088ZM444.458 93.515C444.599 93.515 444.725 93.4842 444.835 93.4225C444.945 93.3592 445.032 93.2708 445.095 93.1575C445.159 93.0425 445.19 92.9067 445.19 92.75C445.19 92.5933 445.159 92.4575 445.095 92.3425C445.032 92.2275 444.944 92.1392 444.833 92.0775C444.723 92.0158 444.598 91.985 444.458 91.985C444.316 91.985 444.19 92.0158 444.08 92.0775C443.97 92.1392 443.884 92.2275 443.82 92.3425C443.757 92.4575 443.725 92.5933 443.725 92.75C443.725 92.9067 443.756 93.0425 443.818 93.1575C443.881 93.2708 443.968 93.3592 444.078 93.4225C444.189 93.4842 444.316 93.515 444.458 93.515ZM447.534 94.075C447.262 94.075 447.024 94.02 446.819 93.91C446.614 93.7983 446.454 93.6433 446.339 93.445C446.225 93.2467 446.169 93.0158 446.169 92.7525C446.169 92.5592 446.201 92.3817 446.266 92.22C446.333 92.0583 446.426 91.9183 446.546 91.8C446.668 91.68 446.81 91.5875 446.971 91.5225C447.135 91.4575 447.313 91.425 447.506 91.425C447.716 91.425 447.904 91.4625 448.069 91.5375C448.234 91.6108 448.37 91.715 448.479 91.85C448.589 91.9833 448.665 92.14 448.709 92.32C448.754 92.4983 448.76 92.6933 448.726 92.905H446.771C446.77 93.0367 446.8 93.1517 446.864 93.25C446.929 93.3483 447.02 93.4258 447.139 93.4825C447.259 93.5375 447.4 93.565 447.561 93.565C447.705 93.565 447.842 93.5442 447.974 93.5025C448.105 93.4608 448.228 93.3992 448.341 93.3175L448.566 93.765C448.488 93.8283 448.39 93.8833 448.274 93.93C448.157 93.9767 448.034 94.0125 447.904 94.0375C447.775 94.0625 447.652 94.075 447.534 94.075ZM446.809 92.45H448.106C448.101 92.2817 448.045 92.15 447.939 92.055C447.832 91.9583 447.683 91.91 447.491 91.91C447.301 91.91 447.145 91.9583 447.021 92.055C446.898 92.15 446.827 92.2817 446.809 92.45ZM451.715 94.075C451.465 94.075 451.221 94.0392 450.983 93.9675C450.746 93.8942 450.546 93.79 450.383 93.655L450.698 93.1625C450.778 93.2358 450.874 93.2992 450.985 93.3525C451.097 93.4058 451.215 93.4475 451.34 93.4775C451.467 93.5058 451.593 93.52 451.718 93.52C451.926 93.52 452.095 93.4817 452.225 93.405C452.355 93.3267 452.42 93.2142 452.42 93.0675C452.42 92.9525 452.375 92.8567 452.285 92.78C452.195 92.7017 452.03 92.6283 451.788 92.56L451.448 92.4625C451.106 92.3658 450.859 92.2367 450.705 92.075C450.554 91.9117 450.478 91.7117 450.478 91.475C450.478 91.32 450.51 91.1783 450.573 91.05C450.636 90.9217 450.725 90.8108 450.84 90.7175C450.957 90.6242 451.095 90.5525 451.253 90.5025C451.411 90.4525 451.584 90.4275 451.77 90.4275C452.015 90.4275 452.243 90.4633 452.453 90.535C452.663 90.605 452.835 90.7008 452.968 90.8225L452.645 91.3C452.575 91.235 452.493 91.1783 452.398 91.13C452.303 91.0817 452.2 91.045 452.09 91.02C451.98 90.9933 451.87 90.98 451.758 90.98C451.626 90.98 451.511 90.9983 451.413 91.035C451.315 91.0717 451.238 91.1242 451.183 91.1925C451.128 91.2608 451.1 91.3442 451.1 91.4425C451.1 91.5142 451.119 91.5767 451.155 91.63C451.194 91.6833 451.259 91.7325 451.35 91.7775C451.442 91.8208 451.569 91.8667 451.73 91.915L452.085 92.02C452.42 92.1183 452.665 92.245 452.818 92.4C452.971 92.5533 453.048 92.7533 453.048 93C453.048 93.2117 452.995 93.3983 452.888 93.56C452.781 93.7217 452.628 93.8483 452.428 93.94C452.23 94.03 451.992 94.075 451.715 94.075ZM453.707 94V90.5H455.062C455.31 90.5 455.526 90.5425 455.71 90.6275C455.893 90.7108 456.035 90.8308 456.135 90.9875C456.235 91.1442 456.285 91.3308 456.285 91.5475C456.285 91.7208 456.249 91.8733 456.177 92.005C456.105 92.1367 456.006 92.2458 455.88 92.3325C455.755 92.4192 455.61 92.48 455.445 92.515L456.462 94H455.682L454.777 92.63H454.357V94H453.707ZM454.357 92.0975H454.967C455.175 92.0975 455.338 92.0542 455.455 91.9675C455.571 91.8792 455.63 91.7508 455.63 91.5825C455.63 91.4075 455.576 91.2742 455.47 91.1825C455.363 91.0908 455.206 91.045 455 91.045H454.357V92.0975ZM457.067 94V90.5H457.717V93.405H459.202V94H457.067Z" fill="white"/>
<rect opacity="0.5" x="395" y="98" width="110" height="1" fill="white" fill-opacity="0.1"/>
<path d="M401.333 106V107.333H396.667V106H401.333ZM401.667 105.333H396.333C396.15 105.333 396 105.483 396 105.667V107.667C396 107.85 396.15 108 396.333 108H401.667C401.85 108 402 107.85 402 107.667V105.667C402 105.483 401.85 105.333 401.667 105.333ZM397.333 107.167C397.06 107.167 396.833 106.943 396.833 106.667C396.833 106.39 397.06 106.167 397.333 106.167C397.607 106.167 397.833 106.39 397.833 106.667C397.833 106.943 397.61 107.167 397.333 107.167ZM401.333 102.667V104H396.667V102.667H401.333ZM401.667 102H396.333C396.15 102 396 102.15 396 102.333V104.333C396 104.517 396.15 104.667 396.333 104.667H401.667C401.85 104.667 402 104.517 402 104.333V102.333C402 102.15 401.85 102 401.667 102ZM397.333 103.833C397.06 103.833 396.833 103.61 396.833 103.333C396.833 103.057 397.06 102.833 397.333 102.833C397.607 102.833 397.833 103.06 397.833 103.333C397.833 103.607 397.61 103.833 397.333 103.833Z" fill="#5DA8FF"/>
<path d="M405.455 107V103.5H406.723C406.971 103.5 407.19 103.543 407.38 103.63C407.572 103.715 407.722 103.838 407.83 104C407.938 104.16 407.993 104.352 407.993 104.577C407.993 104.809 407.943 105.005 407.843 105.165C407.743 105.323 407.597 105.444 407.405 105.527C407.215 105.609 406.983 105.65 406.71 105.65H406.015V107H405.455ZM406.015 105.17H406.718C406.944 105.17 407.12 105.122 407.245 105.027C407.37 104.931 407.433 104.785 407.433 104.59C407.433 104.397 407.368 104.248 407.24 104.145C407.112 104.042 406.939 103.99 406.723 103.99H406.015V105.17ZM408.551 107V104.525H409.101V104.867C409.195 104.712 409.308 104.604 409.441 104.542C409.575 104.479 409.718 104.447 409.871 104.447C409.921 104.447 409.969 104.45 410.014 104.455C410.059 104.46 410.102 104.467 410.144 104.477L410.071 105.045C410.021 105.03 409.971 105.018 409.919 105.01C409.867 105.002 409.816 104.997 409.764 104.997C409.572 104.997 409.414 105.057 409.289 105.175C409.164 105.292 409.101 105.451 409.101 105.652V107H408.551ZM411.681 107.075C411.423 107.075 411.192 107.016 410.988 106.897C410.787 106.777 410.628 106.618 410.513 106.42C410.398 106.22 410.341 106.001 410.341 105.762C410.341 105.586 410.373 105.419 410.438 105.262C410.505 105.104 410.598 104.964 410.718 104.842C410.84 104.721 410.983 104.625 411.146 104.555C411.309 104.485 411.488 104.45 411.683 104.45C411.942 104.45 412.172 104.51 412.373 104.63C412.577 104.748 412.736 104.907 412.851 105.107C412.966 105.306 413.023 105.524 413.023 105.762C413.023 105.937 412.99 106.104 412.923 106.262C412.858 106.421 412.766 106.561 412.646 106.682C412.526 106.804 412.384 106.9 412.221 106.97C412.058 107.04 411.878 107.075 411.681 107.075ZM411.681 106.587C411.834 106.587 411.97 106.554 412.088 106.487C412.208 106.419 412.303 106.323 412.371 106.2C412.439 106.077 412.473 105.931 412.473 105.762C412.473 105.594 412.439 105.448 412.371 105.325C412.303 105.2 412.208 105.104 412.088 105.037C411.97 104.971 411.834 104.937 411.681 104.937C411.528 104.937 411.391 104.971 411.271 105.037C411.153 105.104 411.059 105.2 410.991 105.325C410.924 105.448 410.891 105.594 410.891 105.762C410.891 105.931 410.925 106.077 410.993 106.2C411.062 106.323 411.155 106.419 411.273 106.487C411.393 106.554 411.529 106.587 411.681 106.587ZM413.234 107.003L414.129 105.757L413.287 104.525H413.979L414.507 105.362L415.017 104.525H415.692L414.874 105.742L415.762 107H415.057L414.487 106.13L413.909 106.995L413.234 107.003ZM416.435 108.12C416.345 108.12 416.257 108.11 416.17 108.09C416.083 108.07 415.998 108.036 415.915 107.988L416.04 107.518C416.092 107.551 416.148 107.576 416.21 107.593C416.272 107.609 416.327 107.618 416.375 107.618C416.492 107.618 416.583 107.59 416.65 107.535C416.717 107.48 416.769 107.395 416.807 107.28L416.89 107.04L415.915 104.525H416.517L417.202 106.445L417.87 104.525H418.452L417.382 107.358C417.306 107.556 417.22 107.71 417.125 107.82C417.03 107.932 416.925 108.009 416.81 108.053C416.695 108.098 416.57 108.12 416.435 108.12ZM419.236 105.167C419.129 105.167 419.037 105.133 418.958 105.065C418.882 104.997 418.843 104.907 418.843 104.797C418.843 104.722 418.861 104.657 418.896 104.602C418.931 104.546 418.978 104.502 419.038 104.472C419.098 104.441 419.164 104.425 419.236 104.425C419.344 104.425 419.436 104.459 419.511 104.527C419.588 104.594 419.626 104.684 419.626 104.797C419.626 104.871 419.608 104.936 419.573 104.992C419.538 105.047 419.491 105.091 419.431 105.122C419.373 105.152 419.308 105.167 419.236 105.167ZM419.236 107.075C419.129 107.075 419.037 107.041 418.958 106.972C418.882 106.904 418.843 106.815 418.843 106.705C418.843 106.63 418.861 106.565 418.896 106.51C418.931 106.453 418.978 106.41 419.038 106.38C419.098 106.348 419.164 106.332 419.236 106.332C419.344 106.332 419.436 106.367 419.511 106.435C419.588 106.502 419.626 106.592 419.626 106.705C419.626 106.778 419.608 106.843 419.573 106.9C419.538 106.955 419.491 106.998 419.431 107.028C419.373 107.059 419.308 107.075 419.236 107.075Z" fill="white" fill-opacity="0.6"/>
<path d="M422.443 107V103.5H423.073L424.73 105.91V103.5H425.363V107H424.733L423.075 104.56V107H422.443ZM427.331 107.075C427.065 107.075 426.828 107.015 426.621 106.895C426.416 106.773 426.255 106.612 426.139 106.412C426.022 106.211 425.964 105.99 425.964 105.75C425.964 105.573 425.997 105.405 426.064 105.245C426.13 105.085 426.225 104.944 426.346 104.822C426.47 104.699 426.615 104.602 426.781 104.532C426.948 104.461 427.131 104.425 427.331 104.425C427.596 104.425 427.831 104.485 428.036 104.605C428.243 104.725 428.405 104.886 428.521 105.087C428.64 105.289 428.699 105.51 428.699 105.75C428.699 105.927 428.665 106.095 428.596 106.255C428.53 106.413 428.435 106.554 428.314 106.677C428.192 106.801 428.048 106.898 427.881 106.97C427.715 107.04 427.531 107.075 427.331 107.075ZM427.329 106.515C427.47 106.515 427.596 106.484 427.706 106.422C427.818 106.359 427.905 106.271 427.969 106.157C428.032 106.042 428.064 105.907 428.064 105.75C428.064 105.593 428.032 105.457 427.969 105.342C427.905 105.227 427.819 105.139 427.709 105.077C427.599 105.016 427.473 104.985 427.331 104.985C427.19 104.985 427.063 105.016 426.951 105.077C426.841 105.139 426.755 105.227 426.691 105.342C426.63 105.457 426.599 105.593 426.599 105.75C426.599 105.907 426.63 106.042 426.694 106.157C426.757 106.271 426.844 106.359 426.954 106.422C427.064 106.484 427.189 106.515 427.329 106.515ZM430.269 107.075C430.012 107.075 429.809 107.002 429.659 106.855C429.509 106.708 429.434 106.487 429.434 106.19V103.775H430.074V104.5H430.731V105.02H430.074V106.062C430.074 106.222 430.105 106.336 430.169 106.402C430.232 106.467 430.319 106.5 430.431 106.5C430.488 106.5 430.541 106.493 430.591 106.48C430.643 106.467 430.69 106.449 430.734 106.427L430.834 106.937C430.76 106.976 430.674 107.008 430.576 107.035C430.478 107.062 430.375 107.075 430.269 107.075ZM428.906 105.02V104.5H429.506V105.02H428.906ZM433.62 107.075C433.377 107.075 433.161 107.018 432.972 106.905C432.784 106.792 432.637 106.635 432.53 106.435C432.423 106.235 432.37 106.007 432.37 105.75C432.37 105.565 432.4 105.392 432.46 105.232C432.522 105.071 432.608 104.93 432.72 104.81C432.833 104.688 432.967 104.594 433.12 104.527C433.273 104.459 433.443 104.425 433.63 104.425C433.845 104.425 434.033 104.468 434.195 104.555C434.357 104.64 434.494 104.761 434.607 104.917L434.467 105.062V103.4H435.107V107H434.542V106.382L434.632 106.527C434.547 106.686 434.421 106.817 434.252 106.92C434.084 107.023 433.873 107.075 433.62 107.075ZM433.737 106.515C433.877 106.515 434.002 106.484 434.112 106.422C434.224 106.359 434.312 106.271 434.375 106.157C434.438 106.042 434.47 105.907 434.47 105.75C434.47 105.593 434.438 105.457 434.375 105.342C434.312 105.227 434.225 105.139 434.115 105.077C434.005 105.016 433.879 104.985 433.737 104.985C433.596 104.985 433.469 105.016 433.357 105.077C433.247 105.139 433.161 105.227 433.097 105.342C433.036 105.457 433.005 105.593 433.005 105.75C433.005 105.907 433.037 106.042 433.1 106.157C433.163 106.271 433.25 106.359 433.36 106.422C433.47 106.484 433.596 106.515 433.737 106.515ZM437.002 107.075C436.73 107.075 436.492 107.02 436.287 106.91C436.082 106.798 435.922 106.643 435.807 106.445C435.693 106.247 435.637 106.016 435.637 105.752C435.637 105.559 435.669 105.382 435.734 105.22C435.801 105.058 435.894 104.918 436.014 104.8C436.136 104.68 436.277 104.587 436.439 104.522C436.602 104.457 436.781 104.425 436.974 104.425C437.184 104.425 437.372 104.462 437.537 104.537C437.702 104.611 437.838 104.715 437.947 104.85C438.057 104.983 438.133 105.14 438.177 105.32C438.222 105.498 438.227 105.693 438.194 105.905H436.239C436.237 106.037 436.268 106.152 436.332 106.25C436.397 106.348 436.488 106.426 436.607 106.482C436.727 106.537 436.867 106.565 437.029 106.565C437.172 106.565 437.31 106.544 437.442 106.502C437.573 106.461 437.696 106.399 437.809 106.317L438.034 106.765C437.956 106.828 437.858 106.883 437.742 106.93C437.625 106.977 437.502 107.013 437.372 107.038C437.243 107.063 437.12 107.075 437.002 107.075ZM436.277 105.45H437.574C437.569 105.282 437.513 105.15 437.407 105.055C437.3 104.958 437.151 104.91 436.959 104.91C436.769 104.91 436.612 104.958 436.489 105.055C436.366 105.15 436.295 105.282 436.277 105.45ZM439.785 107.075C439.528 107.075 439.325 107.002 439.175 106.855C439.025 106.708 438.95 106.487 438.95 106.19V103.775H439.59V104.5H440.248V105.02H439.59V106.062C439.59 106.222 439.622 106.336 439.685 106.402C439.748 106.467 439.836 106.5 439.948 106.5C440.004 106.5 440.058 106.493 440.108 106.48C440.159 106.467 440.207 106.449 440.25 106.427L440.35 106.937C440.277 106.976 440.191 107.008 440.093 107.035C439.994 107.062 439.892 107.075 439.785 107.075ZM438.423 105.02V104.5H439.023V105.02H438.423ZM442.041 107.075C441.769 107.075 441.531 107.02 441.326 106.91C441.121 106.798 440.961 106.643 440.846 106.445C440.732 106.247 440.676 106.016 440.676 105.752C440.676 105.559 440.708 105.382 440.773 105.22C440.84 105.058 440.933 104.918 441.053 104.8C441.175 104.68 441.316 104.587 441.478 104.522C441.641 104.457 441.82 104.425 442.013 104.425C442.223 104.425 442.411 104.462 442.576 104.537C442.741 104.611 442.877 104.715 442.986 104.85C443.096 104.983 443.172 105.14 443.216 105.32C443.261 105.498 443.266 105.693 443.233 105.905H441.278C441.276 106.037 441.307 106.152 441.371 106.25C441.436 106.348 441.527 106.426 441.646 106.482C441.766 106.537 441.906 106.565 442.068 106.565C442.211 106.565 442.349 106.544 442.481 106.502C442.612 106.461 442.735 106.399 442.848 106.317L443.073 106.765C442.995 106.828 442.897 106.883 442.781 106.93C442.664 106.977 442.541 107.013 442.411 107.038C442.282 107.063 442.159 107.075 442.041 107.075ZM441.316 105.45H442.613C442.608 105.282 442.552 105.15 442.446 105.055C442.339 104.958 442.19 104.91 441.998 104.91C441.808 104.91 441.651 104.958 441.528 105.055C441.405 105.15 441.334 105.282 441.316 105.45ZM444.966 107.075C444.701 107.075 444.465 107.018 444.258 106.902C444.053 106.786 443.891 106.628 443.773 106.43C443.655 106.23 443.596 106.003 443.596 105.75C443.596 105.558 443.631 105.382 443.701 105.222C443.771 105.061 443.869 104.921 443.996 104.802C444.122 104.682 444.271 104.59 444.441 104.525C444.612 104.458 444.799 104.425 445.001 104.425C445.176 104.425 445.338 104.448 445.488 104.495C445.638 104.542 445.776 104.613 445.901 104.71L445.603 105.192C445.525 105.122 445.436 105.071 445.336 105.037C445.237 105.002 445.134 104.985 445.026 104.985C444.862 104.985 444.721 105.015 444.603 105.075C444.486 105.135 444.396 105.222 444.333 105.335C444.27 105.448 444.238 105.586 444.238 105.747C444.238 105.987 444.308 106.176 444.448 106.312C444.59 106.447 444.782 106.515 445.026 106.515C445.147 106.515 445.262 106.492 445.371 106.447C445.479 106.402 445.573 106.341 445.653 106.262L445.938 106.747C445.801 106.849 445.649 106.929 445.481 106.987C445.312 107.046 445.141 107.075 444.966 107.075ZM447.485 107.075C447.229 107.075 447.025 107.002 446.875 106.855C446.725 106.708 446.65 106.487 446.65 106.19V103.775H447.29V104.5H447.948V105.02H447.29V106.062C447.29 106.222 447.322 106.336 447.385 106.402C447.449 106.467 447.536 106.5 447.648 106.5C447.705 106.5 447.758 106.493 447.808 106.48C447.86 106.467 447.907 106.449 447.95 106.427L448.05 106.937C447.977 106.976 447.891 107.008 447.793 107.035C447.695 107.062 447.592 107.075 447.485 107.075ZM446.123 105.02V104.5H446.723V105.02H446.123ZM449.741 107.075C449.469 107.075 449.231 107.02 449.026 106.91C448.821 106.798 448.661 106.643 448.546 106.445C448.432 106.247 448.376 106.016 448.376 105.752C448.376 105.559 448.408 105.382 448.473 105.22C448.54 105.058 448.633 104.918 448.753 104.8C448.875 104.68 449.017 104.587 449.178 104.522C449.342 104.457 449.52 104.425 449.713 104.425C449.923 104.425 450.111 104.462 450.276 104.537C450.441 104.611 450.577 104.715 450.686 104.85C450.796 104.983 450.872 105.14 450.916 105.32C450.961 105.498 450.967 105.693 450.933 105.905H448.978C448.977 106.037 449.007 106.152 449.071 106.25C449.136 106.348 449.227 106.426 449.346 106.482C449.466 106.537 449.607 106.565 449.768 106.565C449.912 106.565 450.049 106.544 450.181 106.502C450.312 106.461 450.435 106.399 450.548 106.317L450.773 106.765C450.695 106.828 450.597 106.883 450.481 106.93C450.364 106.977 450.241 107.013 450.111 107.038C449.982 107.063 449.859 107.075 449.741 107.075ZM449.016 105.45H450.313C450.308 105.282 450.252 105.15 450.146 105.055C450.039 104.958 449.89 104.91 449.698 104.91C449.508 104.91 449.352 104.958 449.228 105.055C449.105 105.15 449.034 105.282 449.016 105.45ZM452.546 107.075C452.302 107.075 452.087 107.018 451.898 106.905C451.71 106.792 451.562 106.635 451.456 106.435C451.349 106.235 451.296 106.007 451.296 105.75C451.296 105.565 451.326 105.392 451.386 105.232C451.447 105.071 451.534 104.93 451.646 104.81C451.759 104.688 451.892 104.594 452.046 104.527C452.199 104.459 452.369 104.425 452.556 104.425C452.771 104.425 452.959 104.468 453.121 104.555C453.282 104.64 453.42 104.761 453.533 104.917L453.393 105.062V103.4H454.033V107H453.468V106.382L453.558 106.527C453.473 106.686 453.347 106.817 453.178 106.92C453.01 107.023 452.799 107.075 452.546 107.075ZM452.663 106.515C452.803 106.515 452.928 106.484 453.038 106.422C453.15 106.359 453.237 106.271 453.301 106.157C453.364 106.042 453.396 105.907 453.396 105.75C453.396 105.593 453.364 105.457 453.301 105.342C453.237 105.227 453.151 105.139 453.041 105.077C452.931 105.016 452.805 104.985 452.663 104.985C452.522 104.985 452.395 105.016 452.283 105.077C452.173 105.139 452.087 105.227 452.023 105.342C451.962 105.457 451.931 105.593 451.931 105.75C451.931 105.907 451.962 106.042 452.026 106.157C452.089 106.271 452.176 106.359 452.286 106.422C452.396 106.484 452.522 106.515 452.663 106.515Z" fill="white"/>
<rect opacity="0.5" x="395" y="111" width="110" height="1" fill="white" fill-opacity="0.1"/>
<path d="M399.333 121.333H402V119H401V117.667H399.333V117H400.333V114.667H397.667V117H398.667V117.667H397V119H396V121.333H398.667V119H397.667V118.333H400.333V119H399.333V121.333ZM398.333 116.333V115.333H399.667V116.333H398.333ZM398 119.667V120.667H396.667V119.667H398ZM401.333 119.667V120.667H400V119.667H401.333Z" fill="#A1FFB0"/>
<path d="M405.455 120V116.5H406.015V119.485H407.54V120H405.455ZM408.839 120.075C408.667 120.075 408.516 120.043 408.386 119.98C408.256 119.915 408.154 119.824 408.081 119.707C408.009 119.589 407.974 119.45 407.974 119.29C407.974 119.155 408.008 119.033 408.076 118.925C408.144 118.815 408.25 118.724 408.394 118.652C408.539 118.581 408.724 118.533 408.951 118.51C409.178 118.485 409.45 118.488 409.769 118.52L409.779 118.9C409.552 118.868 409.357 118.855 409.194 118.86C409.03 118.865 408.896 118.886 408.791 118.922C408.688 118.957 408.611 119.005 408.561 119.065C408.513 119.123 408.489 119.191 408.489 119.267C408.489 119.387 408.531 119.48 408.616 119.545C408.703 119.61 408.821 119.642 408.971 119.642C409.099 119.642 409.214 119.619 409.316 119.572C409.418 119.526 409.498 119.46 409.556 119.375C409.616 119.29 409.646 119.19 409.646 119.075V118.417C409.646 118.307 409.623 118.212 409.576 118.132C409.529 118.051 409.459 117.987 409.364 117.942C409.269 117.897 409.15 117.875 409.009 117.875C408.879 117.875 408.75 117.895 408.624 117.935C408.497 117.973 408.376 118.034 408.261 118.117L408.106 117.712C408.261 117.607 408.423 117.533 408.591 117.49C408.759 117.447 408.921 117.425 409.076 117.425C409.306 117.425 409.503 117.462 409.666 117.535C409.831 117.607 409.958 117.716 410.046 117.862C410.134 118.007 410.179 118.191 410.179 118.412V120H409.684V119.707C409.6 119.826 409.484 119.917 409.336 119.98C409.188 120.043 409.022 120.075 408.839 120.075ZM411.901 120.075C411.659 120.075 411.466 120.005 411.321 119.865C411.176 119.725 411.104 119.511 411.104 119.222V116.802H411.654V117.525H412.341V117.98H411.654V119.102C411.654 119.276 411.686 119.398 411.751 119.47C411.818 119.54 411.911 119.575 412.031 119.575C412.089 119.575 412.144 119.568 412.196 119.555C412.248 119.542 412.294 119.524 412.336 119.502L412.434 119.947C412.362 119.984 412.279 120.014 412.186 120.038C412.094 120.063 411.999 120.075 411.901 120.075ZM410.561 117.98V117.525H411.176V117.98H410.561ZM413.009 120V117.525H413.559V120H413.009ZM413.284 117.082C413.186 117.082 413.101 117.051 413.029 116.987C412.958 116.924 412.922 116.841 412.922 116.737C412.922 116.636 412.958 116.553 413.029 116.49C413.101 116.425 413.186 116.392 413.284 116.392C413.383 116.392 413.468 116.425 413.539 116.49C413.611 116.553 413.647 116.636 413.647 116.737C413.647 116.841 413.611 116.924 413.539 116.987C413.468 117.051 413.383 117.082 413.284 117.082ZM415.363 120.075C415.121 120.075 414.928 120.005 414.783 119.865C414.638 119.725 414.565 119.511 414.565 119.222V116.802H415.115V117.525H415.803V117.98H415.115V119.102C415.115 119.276 415.148 119.398 415.213 119.47C415.28 119.54 415.373 119.575 415.493 119.575C415.551 119.575 415.606 119.568 415.658 119.555C415.71 119.542 415.756 119.524 415.798 119.502L415.895 119.947C415.824 119.984 415.741 120.014 415.648 120.038C415.556 120.063 415.461 120.075 415.363 120.075ZM414.023 117.98V117.525H414.638V117.98H414.023ZM417.426 120.075C417.205 120.075 417.021 120.031 416.876 119.942C416.733 119.852 416.626 119.734 416.554 119.587C416.482 119.441 416.446 119.281 416.446 119.107V117.525H416.996V119.005C416.996 119.175 417.046 119.312 417.146 119.415C417.248 119.517 417.388 119.567 417.566 119.567C417.683 119.567 417.787 119.542 417.879 119.49C417.971 119.437 418.043 119.362 418.096 119.267C418.151 119.172 418.179 119.062 418.179 118.937V117.525H418.729V120H418.234V119.707C418.137 119.824 418.022 119.915 417.889 119.98C417.757 120.043 417.603 120.075 417.426 120.075ZM420.521 120.075C420.28 120.075 420.065 120.018 419.879 119.905C419.692 119.79 419.545 119.634 419.439 119.437C419.334 119.239 419.281 119.014 419.281 118.762C419.281 118.581 419.311 118.411 419.371 118.252C419.431 118.092 419.516 117.952 419.626 117.832C419.738 117.712 419.87 117.619 420.021 117.552C420.175 117.484 420.344 117.45 420.529 117.45C420.754 117.45 420.949 117.495 421.114 117.585C421.279 117.675 421.416 117.8 421.526 117.96L421.411 118.082V116.4H421.961V120H421.466V119.405L421.546 119.53C421.456 119.687 421.327 119.817 421.159 119.92C420.992 120.023 420.78 120.075 420.521 120.075ZM420.621 119.587C420.775 119.587 420.91 119.554 421.029 119.487C421.149 119.419 421.243 119.323 421.311 119.2C421.38 119.077 421.414 118.931 421.414 118.762C421.414 118.594 421.38 118.448 421.311 118.325C421.243 118.2 421.149 118.104 421.029 118.037C420.91 117.971 420.775 117.937 420.621 117.937C420.468 117.937 420.332 117.971 420.214 118.037C420.095 118.104 420.002 118.2 419.934 118.325C419.865 118.448 419.831 118.594 419.831 118.762C419.831 118.931 419.865 119.077 419.934 119.2C420.002 119.323 420.095 119.419 420.214 119.487C420.334 119.554 420.47 119.587 420.621 119.587ZM423.856 120.075C423.59 120.075 423.355 120.021 423.154 119.912C422.952 119.802 422.795 119.649 422.681 119.452C422.57 119.256 422.514 119.027 422.514 118.767C422.514 118.577 422.546 118.402 422.611 118.242C422.676 118.081 422.768 117.941 422.886 117.822C423.005 117.704 423.143 117.612 423.301 117.547C423.461 117.482 423.635 117.45 423.824 117.45C424.029 117.45 424.211 117.487 424.371 117.56C424.531 117.632 424.664 117.732 424.769 117.862C424.875 117.992 424.95 118.145 424.994 118.32C425.039 118.493 425.046 118.682 425.016 118.885H423.041C423.038 119.033 423.07 119.163 423.139 119.275C423.207 119.385 423.305 119.471 423.431 119.532C423.56 119.594 423.71 119.625 423.884 119.625C424.024 119.625 424.159 119.604 424.289 119.562C424.42 119.519 424.54 119.456 424.646 119.372L424.859 119.767C424.779 119.832 424.682 119.888 424.569 119.935C424.455 119.98 424.337 120.014 424.214 120.038C424.09 120.063 423.971 120.075 423.856 120.075ZM423.074 118.48H424.476C424.471 118.293 424.411 118.147 424.296 118.04C424.183 117.933 424.021 117.88 423.811 117.88C423.608 117.88 423.439 117.933 423.304 118.04C423.17 118.147 423.094 118.293 423.074 118.48ZM425.94 118.167C425.833 118.167 425.741 118.133 425.663 118.065C425.586 117.997 425.548 117.907 425.548 117.797C425.548 117.722 425.565 117.657 425.6 117.602C425.635 117.546 425.683 117.502 425.743 117.472C425.803 117.441 425.868 117.425 425.94 117.425C426.048 117.425 426.14 117.459 426.215 117.527C426.292 117.594 426.33 117.684 426.33 117.797C426.33 117.871 426.313 117.936 426.278 117.992C426.243 118.047 426.195 118.091 426.135 118.122C426.077 118.152 426.012 118.167 425.94 118.167ZM425.94 120.075C425.833 120.075 425.741 120.041 425.663 119.972C425.586 119.904 425.548 119.815 425.548 119.705C425.548 119.63 425.565 119.565 425.6 119.51C425.635 119.453 425.683 119.41 425.743 119.38C425.803 119.348 425.868 119.332 425.94 119.332C426.048 119.332 426.14 119.367 426.215 119.435C426.292 119.502 426.33 119.592 426.33 119.705C426.33 119.778 426.313 119.843 426.278 119.9C426.243 119.955 426.195 119.998 426.135 120.028C426.077 120.059 426.012 120.075 425.94 120.075Z" fill="white" fill-opacity="0.6"/>
<path d="M430.795 120V119.302H429.08V118.825L430.285 116.5H430.938L429.755 118.77H430.795V118.025H431.345V118.77H431.865V119.302H431.345V120H430.795ZM433.71 120.075C433.482 120.075 433.278 120.028 433.098 119.932C432.918 119.837 432.765 119.706 432.64 119.537C432.517 119.369 432.422 119.175 432.355 118.955C432.29 118.735 432.258 118.5 432.258 118.25C432.258 117.998 432.29 117.762 432.355 117.542C432.422 117.322 432.517 117.129 432.64 116.962C432.765 116.794 432.918 116.662 433.098 116.567C433.278 116.472 433.482 116.425 433.71 116.425C433.939 116.425 434.142 116.472 434.32 116.567C434.5 116.662 434.653 116.794 434.778 116.962C434.903 117.129 434.998 117.322 435.063 117.542C435.129 117.762 435.163 117.998 435.163 118.25C435.163 118.5 435.129 118.735 435.063 118.955C434.998 119.175 434.903 119.369 434.778 119.537C434.653 119.706 434.5 119.837 434.32 119.932C434.142 120.028 433.939 120.075 433.71 120.075ZM433.71 119.507C433.835 119.507 433.948 119.479 434.048 119.422C434.149 119.366 434.236 119.283 434.308 119.175C434.381 119.067 434.437 118.935 434.475 118.78C434.515 118.625 434.535 118.448 434.535 118.25C434.535 117.985 434.501 117.759 434.433 117.572C434.364 117.384 434.268 117.241 434.143 117.142C434.019 117.042 433.875 116.992 433.71 116.992C433.587 116.992 433.474 117.021 433.373 117.077C433.273 117.134 433.186 117.217 433.113 117.325C433.039 117.432 432.983 117.563 432.943 117.72C432.904 117.875 432.885 118.052 432.885 118.25C432.885 118.513 432.919 118.739 432.988 118.927C433.058 119.114 433.154 119.257 433.278 119.358C433.401 119.457 433.545 119.507 433.71 119.507ZM436.05 120.075C435.933 120.075 435.832 120.038 435.747 119.965C435.662 119.89 435.62 119.791 435.62 119.667C435.62 119.584 435.639 119.512 435.677 119.45C435.717 119.388 435.77 119.341 435.835 119.307C435.9 119.274 435.971 119.257 436.05 119.257C436.168 119.257 436.269 119.295 436.352 119.37C436.437 119.443 436.48 119.542 436.48 119.667C436.48 119.749 436.46 119.821 436.42 119.882C436.381 119.944 436.33 119.992 436.265 120.025C436.2 120.058 436.128 120.075 436.05 120.075ZM437.157 120L438.592 117.082H436.969V116.5H439.314V116.972L437.847 120H437.157ZM440.656 120V117.192L439.788 117.507L439.618 117.002L441.211 116.425H441.256V120H440.656ZM443.115 120.075C442.967 120.075 442.821 120.059 442.678 120.028C442.535 119.996 442.403 119.953 442.283 119.9C442.165 119.845 442.069 119.782 441.995 119.712L442.203 119.187C442.305 119.287 442.435 119.367 442.595 119.427C442.755 119.487 442.915 119.517 443.075 119.517C443.222 119.517 443.35 119.493 443.458 119.445C443.566 119.395 443.65 119.326 443.708 119.237C443.768 119.149 443.798 119.046 443.798 118.927C443.798 118.742 443.73 118.599 443.595 118.497C443.462 118.396 443.285 118.345 443.065 118.345C443.002 118.345 442.935 118.349 442.865 118.357C442.795 118.366 442.725 118.379 442.653 118.397L442.47 117.98L443.505 117.037H442.028V116.5H444.26V116.995L443.283 117.942C443.48 117.944 443.664 117.983 443.835 118.06C444.009 118.135 444.149 118.248 444.255 118.4C444.362 118.552 444.415 118.741 444.415 118.967C444.415 119.186 444.36 119.378 444.248 119.545C444.138 119.71 443.985 119.84 443.79 119.935C443.595 120.028 443.37 120.075 443.115 120.075ZM444.993 120V119.552L445.745 118.867C445.982 118.651 446.171 118.467 446.313 118.317C446.455 118.166 446.556 118.03 446.618 117.91C446.68 117.788 446.71 117.667 446.71 117.545C446.71 117.365 446.65 117.226 446.528 117.127C446.408 117.027 446.238 116.977 446.018 116.977C445.865 116.977 445.717 117.005 445.575 117.06C445.435 117.115 445.313 117.197 445.208 117.305L444.978 116.832C445.126 116.701 445.296 116.6 445.488 116.53C445.68 116.46 445.879 116.425 446.085 116.425C446.334 116.425 446.55 116.468 446.733 116.555C446.918 116.642 447.061 116.764 447.163 116.922C447.265 117.079 447.315 117.263 447.315 117.475C447.315 117.618 447.287 117.761 447.23 117.902C447.174 118.044 447.072 118.203 446.925 118.38C446.78 118.557 446.575 118.77 446.308 119.02L445.835 119.457H447.405V120H444.993Z" fill="white"/>
<path d="M138.667 454C138.667 455.473 137.473 456.667 136 456.667C134.527 456.667 133.333 455.473 133.333 454C133.333 452.527 134.527 451.333 136 451.333C137.473 451.333 138.667 452.527 138.667 454ZM248 265.5H168V264.5H248V265.5ZM136.5 297V454H135.5V297H136.5ZM168 265.5C150.603 265.5 136.5 279.603 136.5 297H135.5C135.5 279.051 150.051 264.5 168 264.5V265.5Z" fill="white" fill-opacity="0.2"/>
<path d="M336 429.333C337.473 429.333 338.667 430.527 338.667 432C338.667 433.473 337.473 434.667 336 434.667C334.527 434.667 333.333 433.473 333.333 432C333.333 430.527 334.527 429.333 336 429.333ZM285.5 320L285.5 400L284.5 400L284.5 320L285.5 320ZM317 431.5L336 431.5L336 432.5L317 432.5L317 431.5ZM285.5 400C285.5 417.397 299.603 431.5 317 431.5L317 432.5C299.051 432.5 284.5 417.949 284.5 400L285.5 400Z" fill="white" fill-opacity="0.2"/>
<rect x="345.5" y="418.5" width="118" height="27" rx="13.5" fill="#1B1C1C" fill-opacity="0.96" stroke="url(#paint3_linear_85_31235)"/>
<path d="M355.436 435.12C355.012 435.12 354.647 435.045 354.34 434.896C354.036 434.747 353.803 434.545 353.64 434.292C353.477 434.039 353.396 433.755 353.396 433.44C353.396 433.216 353.436 433.015 353.516 432.836C353.596 432.657 353.712 432.503 353.864 432.372C354.016 432.239 354.199 432.131 354.412 432.048C354.199 431.96 354.008 431.813 353.84 431.608C353.675 431.4 353.592 431.137 353.592 430.82C353.592 430.521 353.672 430.256 353.832 430.024C353.992 429.792 354.212 429.611 354.492 429.48C354.772 429.347 355.093 429.28 355.456 429.28C355.821 429.28 356.145 429.347 356.428 429.48C356.713 429.613 356.936 429.796 357.096 430.028C357.256 430.26 357.336 430.524 357.336 430.82C357.336 431.033 357.296 431.221 357.216 431.384C357.139 431.544 357.037 431.68 356.912 431.792C356.787 431.904 356.655 431.989 356.516 432.048C356.815 432.173 357.056 432.353 357.24 432.588C357.424 432.823 357.516 433.107 357.516 433.44C357.516 433.755 357.428 434.039 357.252 434.292C357.079 434.545 356.836 434.747 356.524 434.896C356.212 435.045 355.849 435.12 355.436 435.12ZM355.456 434.284C355.643 434.284 355.817 434.249 355.98 434.18C356.145 434.108 356.279 434.004 356.38 433.868C356.481 433.732 356.532 433.564 356.532 433.364C356.532 433.164 356.483 432.996 356.384 432.86C356.288 432.721 356.159 432.617 355.996 432.548C355.833 432.479 355.653 432.444 355.456 432.444C355.149 432.444 354.893 432.523 354.688 432.68C354.483 432.837 354.38 433.065 354.38 433.364C354.38 433.564 354.429 433.732 354.528 433.868C354.627 434.004 354.757 434.108 354.92 434.18C355.083 434.249 355.261 434.284 355.456 434.284ZM355.464 431.632C355.648 431.632 355.811 431.6 355.952 431.536C356.096 431.469 356.208 431.377 356.288 431.26C356.371 431.143 356.412 431.005 356.412 430.848C356.412 430.613 356.324 430.419 356.148 430.264C355.972 430.107 355.744 430.028 355.464 430.028C355.277 430.028 355.112 430.064 354.968 430.136C354.827 430.208 354.716 430.307 354.636 430.432C354.556 430.555 354.516 430.693 354.516 430.848C354.516 431.085 354.605 431.276 354.784 431.42C354.963 431.561 355.189 431.632 355.464 431.632ZM359.014 435.12L358.658 434.336C359.037 434.288 359.374 434.205 359.67 434.088C359.966 433.968 360.222 433.821 360.438 433.648C360.657 433.472 360.837 433.276 360.978 433.06C361.122 432.844 361.232 432.619 361.306 432.384C361.173 432.547 361.006 432.676 360.806 432.772C360.606 432.868 360.39 432.916 360.158 432.916C359.806 432.916 359.489 432.84 359.206 432.688C358.926 432.533 358.705 432.321 358.542 432.052C358.38 431.78 358.298 431.469 358.298 431.12C358.298 430.773 358.385 430.461 358.558 430.184C358.734 429.907 358.978 429.687 359.29 429.524C359.602 429.361 359.961 429.28 360.366 429.28C360.782 429.28 361.15 429.369 361.47 429.548C361.793 429.727 362.046 429.984 362.23 430.32C362.417 430.653 362.51 431.056 362.51 431.528C362.51 432.005 362.421 432.447 362.242 432.852C362.066 433.255 361.82 433.612 361.502 433.924C361.185 434.236 360.814 434.495 360.39 434.7C359.966 434.903 359.508 435.043 359.014 435.12ZM360.366 432.096C360.572 432.096 360.754 432.053 360.914 431.968C361.077 431.883 361.206 431.765 361.302 431.616C361.398 431.467 361.446 431.3 361.446 431.116C361.446 430.924 361.4 430.756 361.306 430.612C361.213 430.465 361.085 430.351 360.922 430.268C360.762 430.183 360.577 430.14 360.366 430.14C360.158 430.14 359.972 430.183 359.806 430.268C359.644 430.351 359.516 430.465 359.422 430.612C359.332 430.756 359.286 430.924 359.286 431.116C359.286 431.3 359.333 431.467 359.426 431.616C359.522 431.765 359.652 431.883 359.814 431.968C359.98 432.053 360.164 432.096 360.366 432.096ZM363.975 435.12C363.788 435.12 363.627 435.061 363.491 434.944C363.355 434.824 363.287 434.665 363.287 434.468C363.287 434.335 363.318 434.219 363.379 434.12C363.443 434.021 363.527 433.945 363.631 433.892C363.735 433.839 363.85 433.812 363.975 433.812C364.164 433.812 364.326 433.872 364.459 433.992C364.595 434.109 364.663 434.268 364.663 434.468C364.663 434.599 364.631 434.713 364.567 434.812C364.506 434.911 364.423 434.987 364.319 435.04C364.215 435.093 364.1 435.12 363.975 435.12ZM366.071 435V430.508L364.683 431.012L364.411 430.204L366.959 429.28H367.031V435H366.071ZM370.77 435V433.884H368.026V433.12L369.954 429.4H370.998L369.106 433.032H370.77V431.84H371.65V433.032H372.482V433.884H371.65V435H370.77ZM373.811 435.12C373.624 435.12 373.463 435.061 373.327 434.944C373.191 434.824 373.123 434.665 373.123 434.468C373.123 434.335 373.154 434.219 373.215 434.12C373.279 434.021 373.363 433.945 373.467 433.892C373.571 433.839 373.686 433.812 373.811 433.812C374 433.812 374.162 433.872 374.295 433.992C374.431 434.109 374.499 434.268 374.499 434.468C374.499 434.599 374.467 434.713 374.403 434.812C374.342 434.911 374.259 434.987 374.155 435.04C374.051 435.093 373.936 435.12 373.811 435.12ZM375.907 435V430.508L374.519 431.012L374.247 430.204L376.795 429.28H376.867V435H375.907ZM378.182 435V434.284L379.386 433.188C379.765 432.841 380.068 432.548 380.294 432.308C380.521 432.065 380.684 431.848 380.782 431.656C380.881 431.461 380.93 431.267 380.93 431.072C380.93 430.784 380.833 430.561 380.638 430.404C380.446 430.244 380.174 430.164 379.822 430.164C379.577 430.164 379.341 430.208 379.114 430.296C378.89 430.384 378.694 430.515 378.526 430.688L378.158 429.932C378.396 429.721 378.668 429.56 378.974 429.448C379.281 429.336 379.6 429.28 379.93 429.28C380.328 429.28 380.673 429.349 380.966 429.488C381.262 429.627 381.492 429.823 381.654 430.076C381.817 430.327 381.898 430.621 381.898 430.96C381.898 431.189 381.853 431.417 381.762 431.644C381.672 431.871 381.509 432.125 381.274 432.408C381.042 432.691 380.713 433.032 380.286 433.432L379.53 434.132H382.042V435H378.182ZM383.577 435.12C383.39 435.12 383.229 435.061 383.093 434.944C382.957 434.824 382.889 434.665 382.889 434.468C382.889 434.335 382.919 434.219 382.981 434.12C383.045 434.021 383.129 433.945 383.233 433.892C383.337 433.839 383.451 433.812 383.577 433.812C383.766 433.812 383.927 433.872 384.061 433.992C384.197 434.109 384.265 434.268 384.265 434.468C384.265 434.599 384.233 434.713 384.169 434.812C384.107 434.911 384.025 434.987 383.921 435.04C383.817 435.093 383.702 435.12 383.577 435.12ZM385.673 435V430.508L384.285 431.012L384.013 430.204L386.561 429.28H386.633V435H385.673ZM387.948 435V434.284L389.152 433.188C389.531 432.841 389.833 432.548 390.06 432.308C390.287 432.065 390.449 431.848 390.548 431.656C390.647 431.461 390.696 431.267 390.696 431.072C390.696 430.784 390.599 430.561 390.404 430.404C390.212 430.244 389.94 430.164 389.588 430.164C389.343 430.164 389.107 430.208 388.88 430.296C388.656 430.384 388.46 430.515 388.292 430.688L387.924 429.932C388.161 429.721 388.433 429.56 388.74 429.448C389.047 429.336 389.365 429.28 389.696 429.28C390.093 429.28 390.439 429.349 390.732 429.488C391.028 429.627 391.257 429.823 391.42 430.076C391.583 430.327 391.664 430.621 391.664 430.96C391.664 431.189 391.619 431.417 391.528 431.644C391.437 431.871 391.275 432.125 391.04 432.408C390.808 432.691 390.479 433.032 390.052 433.432L389.296 434.132H391.808V435H387.948ZM394.35 435.12C394.113 435.12 393.88 435.095 393.65 435.044C393.421 434.993 393.21 434.925 393.018 434.84C392.829 434.752 392.676 434.652 392.558 434.54L392.89 433.7C393.053 433.86 393.262 433.988 393.518 434.084C393.774 434.18 394.03 434.228 394.286 434.228C394.521 434.228 394.725 434.189 394.898 434.112C395.072 434.032 395.205 433.921 395.298 433.78C395.394 433.639 395.442 433.473 395.442 433.284C395.442 432.988 395.334 432.759 395.118 432.596C394.905 432.433 394.622 432.352 394.27 432.352C394.169 432.352 394.062 432.359 393.95 432.372C393.838 432.385 393.725 432.407 393.61 432.436L393.318 431.768L394.974 430.26H392.61V429.4H396.182V430.192L394.618 431.708C394.933 431.711 395.228 431.773 395.502 431.896C395.78 432.016 396.004 432.197 396.174 432.44C396.345 432.683 396.43 432.985 396.43 433.348C396.43 433.697 396.341 434.005 396.162 434.272C395.986 434.536 395.742 434.744 395.43 434.896C395.118 435.045 394.758 435.12 394.35 435.12Z" fill="white"/>
<path d="M451.503 433.503H450.977L450.79 433.323C451.443 432.563 451.837 431.577 451.837 430.503C451.837 428.11 449.897 426.17 447.503 426.17C445.11 426.17 443.17 428.11 443.17 430.503C443.17 432.897 445.11 434.837 447.503 434.837C448.577 434.837 449.563 434.443 450.323 433.79L450.503 433.977V434.503L453.837 437.83L454.83 436.837L451.503 433.503ZM447.503 433.503C445.843 433.503 444.503 432.163 444.503 430.503C444.503 428.843 445.843 427.503 447.503 427.503C449.163 427.503 450.503 428.843 450.503 430.503C450.503 432.163 449.163 433.503 447.503 433.503Z" fill="#E5FF5D"/>
<defs>
<filter id="filter0_d_85_31235" x="105.5" y="395.5" width="116.854" height="115.853" filterUnits="userSpaceOnUse" color-interpolation-filters="sRGB">
<feFlood flood-opacity="0" result="BackgroundImageFix"/>
<feColorMatrix in="SourceAlpha" type="matrix" values="0 0 0 0 0 0 0 0 0 0 0 0 0 0 0 0 0 0 127 0" result="hardAlpha"/>
<feOffset/>
<feGaussianBlur stdDeviation="23"/>
<feComposite in2="hardAlpha" operator="out"/>
<feColorMatrix type="matrix" values="0 0 0 0 1 0 0 0 0 1 0 0 0 0 1 0 0 0 0.2 0"/>
<feBlend mode="normal" in2="BackgroundImageFix" result="effect1_dropShadow_85_31235"/>
<feBlend mode="normal" in="SourceGraphic" in2="effect1_dropShadow_85_31235" result="shape"/>
</filter>
<filter id="filter1_f_85_31235" x="34" y="27" width="507" height="507" filterUnits="userSpaceOnUse" color-interpolation-filters="sRGB">
<feFlood flood-opacity="0" result="BackgroundImageFix"/>
<feBlend mode="normal" in="SourceGraphic" in2="BackgroundImageFix" result="shape"/>
<feGaussianBlur stdDeviation="64" result="effect1_foregroundBlur_85_31235"/>
</filter>
<linearGradient id="paint0_linear_85_31235" x1="248" y1="311.5" x2="335" y2="311.5" gradientUnits="userSpaceOnUse">
<stop stop-color="#E5FF5D" stop-opacity="0"/>
<stop offset="0.545" stop-color="#E5FF5D"/>
<stop offset="1" stop-color="#E5FF5D" stop-opacity="0"/>
</linearGradient>
<linearGradient id="paint1_linear_85_31235" x1="248" y1="309.341" x2="336" y2="309.341" gradientUnits="userSpaceOnUse">
<stop stop-color="#5DFFFF" stop-opacity="0"/>
<stop offset="0.46" stop-color="#5DFFFF"/>
<stop offset="1" stop-color="#5DFFFF" stop-opacity="0"/>
</linearGradient>
<linearGradient id="paint2_linear_85_31235" x1="189.037" y1="325.267" x2="414.828" y2="276.728" gradientUnits="userSpaceOnUse">
<stop stop-color="#5DA8FF" stop-opacity="0.3"/>
<stop offset="1" stop-color="#899938"/>
</linearGradient>
<linearGradient id="paint3_linear_85_31235" x1="464" y1="441.692" x2="347.714" y2="408.495" gradientUnits="userSpaceOnUse">
<stop stop-color="#E5FF5D"/>
<stop offset="1" stop-color="#5DFFFF"/>
</linearGradient>
</defs>
</svg>
