<svg width="576" height="560" fill="none" xmlns="http://www.w3.org/2000/svg"><path d="m450 133-9 4v6c0 5.55 3.84 10.74 9 12 5.16-1.26 9-6.45 9-12v-6l-9-4Zm0 10.99h7c-.53 4.12-3.28 7.79-7 8.94V144h-7v-5.7l7-3.11v8.8Z" fill="#E5FF5D"/><rect x="170.5" y="235.233" width="21" height="17.333" rx="1.5" fill="#E5FF5D" stroke="#E5FF5D"/><path d="M183.933 243.009c0 1.736-1.313 3.143-2.933 3.143-1.62 0-2.933-1.407-2.933-3.143 0-1.736 1.313-3.143 2.933-3.143 1.62 0 2.933 1.407 2.933 3.143Z" fill="#2D2D2D"/><path d="M179.944 244.769c0-.625.473-1.131 1.056-1.131.583 0 1.056.506 1.056 1.131v2.766c0 .625-.473 1.131-1.056 1.131-.583 0-1.056-.506-1.056-1.131v-2.766Z" fill="#2D2D2D"/><path d="M187.6 241.7v-12.1a6.6 6.6 0 0 0-13.2 0v12.1" stroke="#E5FF5D" stroke-width="2"/><g filter="url(#a)" shape-rendering="crispEdges"><path d="M172.252 452.12c0 2.536-.934 4.855-2.476 6.63a10.103 10.103 0 0 1-7.65 3.49c-5.592 0-10.126-4.531-10.126-10.12 0-5.589 4.534-10.12 10.126-10.12s10.126 4.531 10.126 10.12Z" fill="#E5FF5D" fill-opacity=".3"/><path d="M169.776 458.75a10.077 10.077 0 0 0 2.476-6.63c0-5.589-4.534-10.12-10.126-10.12S152 446.531 152 452.12c0 5.589 4.534 10.12 10.126 10.12 3.055 0 5.794-1.352 7.65-3.49Zm0 0L176 465" stroke="#E5FF5D"/></g><path opacity=".5" d="M254.05 150.15c-.507 0-.947-.093-1.32-.28a2.138 2.138 0 0 1-.86-.755c-.2-.317-.3-.672-.3-1.065 0-.283.05-.535.15-.755.103-.22.252-.412.445-.575.197-.163.432-.298.705-.405a1.796 1.796 0 0 1-.74-.56c-.213-.263-.32-.595-.32-.995 0-.367.097-.693.29-.98.193-.29.46-.517.8-.68.34-.167.728-.25 1.165-.25.443 0 .837.083 1.18.25.343.167.612.395.805.685.193.287.29.612.29.975a1.61 1.61 0 0 1-.54 1.235c-.16.14-.335.247-.525.32.387.157.697.38.93.67.233.287.35.642.35 1.065 0 .393-.103.748-.31 1.065a2.163 2.163 0 0 1-.875.755c-.373.187-.813.28-1.32.28Zm.015-.805c.277 0 .533-.048.77-.145.24-.1.432-.248.575-.445.147-.197.22-.44.22-.73 0-.287-.07-.528-.21-.725a1.26 1.26 0 0 0-.56-.445 1.975 1.975 0 0 0-.795-.155c-.45 0-.825.115-1.125.345-.297.227-.445.553-.445.98 0 .29.072.533.215.73.143.197.333.345.57.445.24.097.502.145.785.145Zm.01-3.43c.27 0 .51-.045.72-.135a1.15 1.15 0 0 0 .49-.39 1.01 1.01 0 0 0 .175-.595c0-.34-.128-.625-.385-.855-.253-.23-.587-.345-1-.345-.277 0-.52.053-.73.16a1.193 1.193 0 0 0-.485.43c-.117.18-.175.383-.175.61 0 .343.13.617.39.82.263.2.597.3 1 .3Zm4.408 4.235-.33-.74a4.864 4.864 0 0 0 1.415-.36c.41-.18.76-.405 1.05-.675.293-.27.528-.568.705-.895.176-.33.301-.672.375-1.025a2.051 2.051 0 0 1-1.73.91 2.46 2.46 0 0 1-1.185-.285 2.165 2.165 0 0 1-.84-.79 2.193 2.193 0 0 1-.305-1.16c0-.43.106-.817.32-1.16a2.3 2.3 0 0 1 .895-.815 2.744 2.744 0 0 1 1.305-.305c.51 0 .961.11 1.355.33.393.22.701.54.925.96.226.417.34.925.34 1.525 0 .597-.107 1.148-.32 1.655a4.185 4.185 0 0 1-.905 1.345c-.387.39-.842.712-1.365.965a5.882 5.882 0 0 1-1.705.52Zm1.675-3.58c.303 0 .575-.063.815-.19s.43-.3.57-.52c.14-.22.21-.468.21-.745a1.373 1.373 0 0 0-.765-1.255 1.749 1.749 0 0 0-.83-.19c-.307 0-.582.063-.825.19a1.365 1.365 0 0 0-.77 1.255c0 .277.07.525.21.745.143.22.335.393.575.52.243.127.513.19.81.19Zm4.462 3.58a.732.732 0 0 1-.5-.185.62.62 0 0 1-.205-.485c0-.133.03-.25.09-.35a.664.664 0 0 1 .255-.235.77.77 0 0 1 .36-.085c.196 0 .363.062.5.185a.624.624 0 0 1 .205.485.644.644 0 0 1-.35.585.742.742 0 0 1-.355.085Zm2.638-.15v-6.03l-1.885.7-.245-.725 2.94-1.095h.07V150h-.88Zm5.748 0v-1.48h-3.535v-.725l2.605-4.795h.98l-2.585 4.72h2.535v-1.615h.83v1.615h1.125v.8h-1.125V150h-.83Zm3.596.15a.733.733 0 0 1-.5-.185.62.62 0 0 1-.205-.485c0-.133.03-.25.09-.35a.664.664 0 0 1 .255-.235.77.77 0 0 1 .36-.085c.197 0 .363.062.5.185a.62.62 0 0 1 .205.485.644.644 0 0 1-.35.585.742.742 0 0 1-.355.085Zm2.639-.15v-6.03l-1.885.7-.245-.725 2.94-1.095h.07V150h-.88Zm2.653 0v-.705l1.525-1.405c.486-.447.881-.835 1.185-1.165a4.58 4.58 0 0 0 .67-.91c.143-.277.215-.555.215-.835 0-.407-.142-.727-.425-.96-.28-.233-.669-.35-1.165-.35-.307 0-.604.052-.89.155a1.878 1.878 0 0 0-.72.45l-.355-.69a2.8 2.8 0 0 1 .94-.545c.356-.127.735-.19 1.135-.19.47 0 .883.085 1.24.255.356.167.633.405.83.715.2.307.3.668.3 1.085 0 .29-.059.582-.175.875-.117.293-.325.623-.625.99-.297.363-.719.8-1.265 1.31l-1.2 1.105h3.44V150h-4.66Zm6.573.15a.733.733 0 0 1-.5-.185.624.624 0 0 1-.205-.485c0-.133.03-.25.09-.35a.678.678 0 0 1 .255-.235.77.77 0 0 1 .36-.085.72.72 0 0 1 .5.185.62.62 0 0 1 .205.485.635.635 0 0 1-.35.585.739.739 0 0 1-.355.085Zm2.639-.15v-6.03l-1.885.7-.245-.725 2.94-1.095h.07V150h-.88Zm2.653 0v-.705l1.525-1.405c.487-.447.882-.835 1.185-1.165.303-.333.527-.637.67-.91.143-.277.215-.555.215-.835 0-.407-.142-.727-.425-.96-.28-.233-.668-.35-1.165-.35-.307 0-.603.052-.89.155a1.878 1.878 0 0 0-.72.45l-.355-.69a2.81 2.81 0 0 1 .94-.545 3.36 3.36 0 0 1 1.135-.19c.47 0 .883.085 1.24.255.357.167.633.405.83.715.2.307.3.668.3 1.085 0 .29-.058.582-.175.875-.117.293-.325.623-.625.99-.297.363-.718.8-1.265 1.31l-1.2 1.105h3.44V150h-4.66Zm7.884.15a4.142 4.142 0 0 1-1.6-.32 2.276 2.276 0 0 1-.58-.355l.33-.79c.22.193.493.347.82.46.326.11.651.165.975.165.336 0 .63-.057.88-.17.25-.117.443-.28.58-.49a1.34 1.34 0 0 0 .205-.745c0-.43-.159-.765-.475-1.005-.314-.243-.732-.365-1.255-.365-.134 0-.27.008-.41.025-.137.017-.279.04-.425.07l-.285-.63 2.31-2.195h-3.205V143h4.36v.745l-2.225 2.15c.446-.013.863.053 1.25.2.386.143.698.37.935.68.236.307.355.697.355 1.17 0 .44-.109.827-.325 1.16a2.17 2.17 0 0 1-.9.77 3.02 3.02 0 0 1-1.315.275Z" fill="#fff"/><path d="m266 167.776 2 2c4.97-4.97 13.03-4.97 18 0l2-2c-6.07-6.07-15.92-6.07-22 0Zm8 8 3 3 3-3a4.237 4.237 0 0 0-6 0Zm-4-4 2 2a7.074 7.074 0 0 1 10 0l2-2c-3.86-3.86-10.13-3.86-14 0Z" fill="#E5FF5D"/><path opacity=".5" d="M180.63 457v-.705l1.525-1.405c.487-.447.882-.835 1.185-1.165.303-.333.527-.637.67-.91.143-.277.215-.555.215-.835 0-.407-.142-.727-.425-.96-.28-.233-.668-.35-1.165-.35-.307 0-.603.052-.89.155a1.878 1.878 0 0 0-.72.45l-.355-.69a2.81 2.81 0 0 1 .94-.545 3.36 3.36 0 0 1 1.135-.19c.47 0 .883.085 1.24.255.357.167.633.405.83.715.2.307.3.668.3 1.085 0 .29-.058.582-.175.875-.117.293-.325.623-.625.99-.297.363-.718.8-1.265 1.31l-1.2 1.105h3.44V457h-4.66Zm7.484 0v-6.03l-1.885.7-.245-.725 2.94-1.095h.07V457h-.88Zm3.338.15a.732.732 0 0 1-.5-.185.62.62 0 0 1-.205-.485c0-.133.03-.25.09-.35a.664.664 0 0 1 .255-.235.77.77 0 0 1 .36-.085c.196 0 .363.062.5.185a.624.624 0 0 1 .205.485.644.644 0 0 1-.35.585.742.742 0 0 1-.355.085Zm2.638-.15v-6.03l-1.885.7-.245-.725 2.94-1.095h.07V457h-.88Zm5.323.15c-.52 0-.981-.112-1.385-.335a2.406 2.406 0 0 1-.95-.98c-.23-.43-.345-.95-.345-1.56 0-.59.109-1.133.325-1.63.217-.5.522-.943.915-1.33a4.955 4.955 0 0 1 1.38-.95 6.163 6.163 0 0 1 1.725-.515l.33.74a5.012 5.012 0 0 0-1.435.34c-.413.173-.768.39-1.065.65-.293.26-.53.548-.71.865-.18.313-.308.64-.385.98.194-.28.447-.502.76-.665.314-.167.657-.25 1.03-.25.45 0 .855.095 1.215.285.364.19.65.453.86.79.21.337.315.725.315 1.165a2.29 2.29 0 0 1-.725 1.705c-.23.217-.503.387-.82.51a2.807 2.807 0 0 1-1.035.185Zm0-.825c.32 0 .604-.063.85-.19.25-.13.447-.308.59-.535.144-.227.215-.487.215-.78 0-.287-.073-.543-.22-.77a1.569 1.569 0 0 0-.595-.54 1.76 1.76 0 0 0-.84-.2c-.313 0-.595.067-.845.2a1.591 1.591 0 0 0-.59.54c-.146.227-.22.483-.22.77 0 .293.07.553.21.78.144.227.339.405.585.535.25.127.537.19.86.19Zm4.402.825a.733.733 0 0 1-.5-.185.62.62 0 0 1-.205-.485c0-.133.03-.25.09-.35a.664.664 0 0 1 .255-.235.77.77 0 0 1 .36-.085c.197 0 .363.062.5.185a.62.62 0 0 1 .205.485.644.644 0 0 1-.35.585.742.742 0 0 1-.355.085Zm1.942-.15v-.705l1.525-1.405c.487-.447.882-.835 1.185-1.165.303-.333.527-.637.67-.91.143-.277.215-.555.215-.835 0-.407-.142-.727-.425-.96-.28-.233-.668-.35-1.165-.35-.307 0-.603.052-.89.155a1.878 1.878 0 0 0-.72.45l-.355-.69a2.81 2.81 0 0 1 .94-.545 3.36 3.36 0 0 1 1.135-.19c.47 0 .883.085 1.24.255.357.167.633.405.83.715.2.307.3.668.3 1.085 0 .29-.058.582-.175.875-.117.293-.325.623-.625.99-.297.363-.718.8-1.265 1.31l-1.2 1.105h3.44V457h-4.66Zm5.889 0v-.705l1.525-1.405c.486-.447.881-.835 1.185-1.165a4.58 4.58 0 0 0 .67-.91c.143-.277.215-.555.215-.835 0-.407-.142-.727-.425-.96-.28-.233-.669-.35-1.165-.35-.307 0-.604.052-.89.155a1.878 1.878 0 0 0-.72.45l-.355-.69a2.8 2.8 0 0 1 .94-.545c.356-.127.735-.19 1.135-.19.47 0 .883.085 1.24.255.356.167.633.405.83.715.2.307.3.668.3 1.085 0 .29-.059.582-.175.875-.117.293-.325.623-.625.99-.297.363-.719.8-1.265 1.31l-1.2 1.105h3.44V457h-4.66Zm6.573.15a.733.733 0 0 1-.5-.185.624.624 0 0 1-.205-.485c0-.133.03-.25.09-.35a.678.678 0 0 1 .255-.235.77.77 0 0 1 .36-.085.72.72 0 0 1 .5.185.62.62 0 0 1 .205.485.635.635 0 0 1-.35.585.739.739 0 0 1-.355.085Zm1.942-.15v-.705l1.525-1.405c.487-.447.882-.835 1.185-1.165.304-.333.527-.637.67-.91.144-.277.215-.555.215-.835 0-.407-.141-.727-.425-.96-.28-.233-.668-.35-1.165-.35-.306 0-.603.052-.89.155a1.893 1.893 0 0 0-.72.45l-.355-.69a2.82 2.82 0 0 1 .94-.545 3.36 3.36 0 0 1 1.135-.19c.47 0 .884.085 1.24.255.357.167.634.405.83.715.2.307.3.668.3 1.085 0 .29-.058.582-.175.875-.116.293-.325.623-.625.99-.296.363-.718.8-1.265 1.31l-1.2 1.105h3.44V457h-4.66Zm7.884.15c-.42 0-.827-.06-1.22-.18-.39-.12-.71-.28-.96-.48l.325-.785c.23.193.507.343.83.45.327.103.652.155.975.155.353 0 .658-.058.915-.175.257-.12.455-.29.595-.51.14-.223.21-.492.21-.805 0-.29-.075-.538-.225-.745a1.38 1.38 0 0 0-.61-.48 2.151 2.151 0 0 0-.875-.17c-.203 0-.415.025-.635.075-.22.047-.443.12-.67.22l-.395-.41.365-3.295 3.795-.01v.83h-3.115l-.235 2.03a3.698 3.698 0 0 1 1.13-.205c.45 0 .855.087 1.215.26.363.173.65.423.86.75.213.327.32.718.32 1.175 0 .467-.11.873-.33 1.22a2.21 2.21 0 0 1-.915.8c-.387.19-.837.285-1.35.285Zm6.92-.15v-1.48h-3.535v-.725l2.605-4.795h.98l-2.585 4.72h2.535v-1.615h.83v1.615h1.125v.8h-1.125V457h-.83Z" fill="#fff"/><rect x="226.5" y="231.5" width="142" height="137" rx="7.5" fill="#171717" stroke="#272626"/><rect x="216.5" y="221.5" width="142" height="137" rx="7.5" fill="#171717" stroke="#3C3B3B"/><path d="M206.5 200a7.5 7.5 0 0 1 7.5-7.5h127a7.5 7.5 0 0 1 7.5 7.5v11.5h-142V200Z" stroke="#5C5C5C"/><rect x="213" y="200" width="4" height="4" rx="2" fill="#FDAC76"/><rect x="221" y="200" width="4" height="4" rx="2" fill="#A1FFB0"/><rect x="229" y="200" width="4" height="4" rx="2" fill="#5C5C5C"/><path d="M206.5 211.5h142V341a7.5 7.5 0 0 1-7.5 7.5H214a7.5 7.5 0 0 1-7.5-7.5V211.5Z" fill="#171717" stroke="#5C5C5C"/><path d="m248 323 13.081-7.891c6.88-4.15 18.274-3.365 25.828-.628 5.524 2.002 8.766.659 14.113-1.776 4.814-2.193 10.588-4.789 14.041-6.226C321.809 303.671 335 300 335 300" stroke="url(#b)" stroke-width="3"/><path d="m248 309.833 10.208 8.179c2.815 2.255 6.066 4.451 9.612 3.789 1.232-.23 2.476-.651 3.717-1.221 13.346-6.134 30.36 2.158 43.899-3.536 6.754-2.841 20.564 1.638 20.564 1.638" stroke="url(#c)" stroke-width="3"/><rect x="248" y="228" width="63" height="4" rx="2" fill="#5C5C5C"/><rect x="248" y="249" width="43" height="4" rx="2" fill="#5C5C5C"/><rect x="248" y="256" width="73" height="4" rx="2" fill="#5C5C5C"/><rect x="248" y="263" width="54" height="4" rx="2" fill="#5C5C5C"/><rect x="248" y="235" width="31" height="4" rx="2" fill="#5C5C5C"/><rect x="248" y="242" width="20" height="4" rx="2" fill="#5C5C5C"/><rect x="271" y="242" width="55" height="4" rx="2" fill="#5C5C5C"/><rect x="282" y="235" width="59" height="4" rx="2" fill="#5C5C5C"/><path d="M206.5 211.5h35v137H214a7.5 7.5 0 0 1-7.5-7.5V211.5Z" stroke="#5C5C5C"/><rect x="302.5" y="204.5" width="67" height="18" rx="6.5" fill="#1A1B1A" stroke="#E5FF5D"/><path d="m311.136 217-1.233-.918 1.641-2.096-2.544-.72.486-1.52 2.448.98-.147-2.726h1.536l-.139 2.699 2.448-.962.487 1.52-2.544.702 1.667 2.123-1.259.909-1.415-2.276-1.432 2.285Zm9.376 0-1.233-.918 1.641-2.096-2.544-.72.486-1.52 2.449.98-.148-2.726h1.536l-.138 2.699 2.448-.962.486 1.52-2.544.702 1.667 2.123-1.259.909-1.415-2.276-1.432 2.285Zm9.376 0-1.233-.918 1.641-2.096-2.543-.72.486-1.52 2.448.98-.148-2.726h1.537l-.139 2.699 2.448-.962.486 1.52-2.543.702 1.666 2.123-1.258.909-1.415-2.276-1.433 2.285Zm9.376 0-1.232-.918 1.64-2.096-2.543-.72.486-1.52 2.448.98-.147-2.726h1.536l-.139 2.699 2.448-.962.486 1.52-2.543.702 1.667 2.123-1.259.909-1.415-2.276-1.433 2.285Zm9.377 0-1.233-.918 1.641-2.096-2.544-.72.486-1.52 2.448.98-.147-2.726h1.536l-.139 2.699 2.449-.962.486 1.52-2.544.702 1.667 2.123-1.259.909-1.415-2.276-1.432 2.285Zm9.376 0-1.233-.918 1.641-2.096-2.544-.72.487-1.52 2.448.98-.148-2.726h1.537l-.139 2.699 2.448-.962.486 1.52-2.544.702 1.667 2.123-1.259.909-1.415-2.276-1.432 2.285Z" fill="#898989"/><g opacity=".5" filter="url(#d)"><circle cx="287.5" cy="280.5" r="125.5" fill="url(#e)"/></g><path d="M447.333 162a2.667 2.667 0 1 1 5.334 0 2.667 2.667 0 0 1-5.334 0ZM343 236.5h75v1h-75v-1ZM449.5 205v-43h1v43h-1ZM418 236.5c17.397 0 31.5-14.103 31.5-31.5h1c0 17.949-14.551 32.5-32.5 32.5v-1Z" fill="#fff" fill-opacity=".2"/><rect x="391" y="71" width="118" height="55" rx="4" fill="#fff" fill-opacity=".07"/><rect x="391.5" y="71.5" width="117" height="54" rx="3.5" stroke="#fff" stroke-opacity=".1"/><path d="M400.252 79.752h-.264l-.093-.09a2.166 2.166 0 1 0-.233.233l.09.093v.264l1.666 1.663.497-.497-1.663-1.666Zm-2 0c-.83 0-1.5-.67-1.5-1.5s.67-1.5 1.5-1.5 1.5.67 1.5 1.5-.67 1.5-1.5 1.5Z" fill="#E5FF5D"/><path d="M405.455 81v-3.5h.56V81h-.56Zm1.475 0v-3.5h1.267c.248 0 .468.043.658.13.191.085.341.208.45.37.108.16.162.353.162.578 0 .231-.05.427-.15.587a.949.949 0 0 1-.437.362c-.19.082-.422.123-.695.123h-.695V81h-.56Zm.56-1.83h.702c.227 0 .403-.047.528-.142.125-.097.187-.243.187-.438 0-.193-.064-.342-.192-.445-.129-.103-.301-.155-.518-.155h-.707v1.18Zm3.762 1.83v-3.6h.55V81h-.55Zm2.441.075c-.259 0-.49-.06-.693-.178a1.296 1.296 0 0 1-.647-1.135 1.291 1.291 0 0 1 .805-1.207c.163-.07.342-.105.537-.105a1.325 1.325 0 0 1 1.168.657c.115.199.172.417.172.656 0 .174-.033.341-.1.5a1.29 1.29 0 0 1-.702.707c-.164.07-.344.105-.54.105Zm0-.487a.814.814 0 0 0 .407-.1.738.738 0 0 0 .283-.288.892.892 0 0 0 .102-.438.892.892 0 0 0-.102-.437.717.717 0 0 0-.283-.288.814.814 0 0 0-.407-.1.828.828 0 0 0-.41.1.71.71 0 0 0-.28.288.903.903 0 0 0-.1.438.89.89 0 0 0 .102.437.737.737 0 0 0 .688.388Zm3.054.487c-.26 0-.492-.057-.695-.17a1.285 1.285 0 0 1-.48-.468 1.321 1.321 0 0 1-.173-.674c0-.19.035-.365.103-.523.068-.16.165-.3.29-.417.125-.119.272-.21.44-.275.17-.066.354-.098.552-.098.167 0 .321.022.463.067.143.044.275.111.395.203l-.265.42a.753.753 0 0 0-.265-.153.973.973 0 0 0-.315-.05.962.962 0 0 0-.448.098.702.702 0 0 0-.292.282.895.895 0 0 0-.103.443c0 .258.075.46.225.608.152.146.358.22.618.22.123 0 .24-.023.35-.068a.832.832 0 0 0 .275-.182l.262.417a1.58 1.58 0 0 1-.937.32Zm2.131 0c-.172 0-.323-.032-.453-.095a.743.743 0 0 1-.305-.273.787.787 0 0 1-.107-.417c0-.135.034-.257.102-.365.068-.11.174-.2.318-.272.145-.072.33-.12.557-.143.227-.025.499-.022.818.01l.01.38a3.534 3.534 0 0 0-.585-.04 1.368 1.368 0 0 0-.403.063.502.502 0 0 0-.23.142.31.31 0 0 0-.072.203c0 .12.042.212.127.277a.58.58 0 0 0 .355.097.82.82 0 0 0 .345-.07.57.57 0 0 0 .24-.197.507.507 0 0 0 .09-.3v-.657a.553.553 0 0 0-.07-.286.466.466 0 0 0-.212-.19.83.83 0 0 0-.355-.067 1.268 1.268 0 0 0-.748.243l-.155-.405c.155-.105.317-.18.485-.223.168-.043.33-.065.485-.065.23 0 .427.037.59.11.165.072.292.18.38.328.088.144.133.328.133.55V81h-.495v-.293a.802.802 0 0 1-.348.273 1.253 1.253 0 0 1-.497.095Zm3.062 0c-.242 0-.435-.07-.58-.21-.145-.14-.217-.354-.217-.642v-2.42h.55v.722h.687v.455h-.687v1.123c0 .173.032.295.097.367.067.07.16.105.28.105a.664.664 0 0 0 .305-.073l.098.446a1.176 1.176 0 0 1-.248.09 1.082 1.082 0 0 1-.285.037Zm-1.34-2.095v-.455h.615v.455h-.615Zm2.449 2.02v-2.475h.55V81h-.55Zm.275-2.918a.37.37 0 0 1-.255-.094.317.317 0 0 1-.108-.25c0-.102.036-.185.108-.248a.365.365 0 0 1 .255-.097c.098 0 .183.032.255.097a.316.316 0 0 1 .107.248.32.32 0 0 1-.107.25.374.374 0 0 1-.255.094Zm2.165 2.993a1.35 1.35 0 0 1-.692-.178 1.296 1.296 0 0 1-.648-1.135 1.292 1.292 0 0 1 .378-.92 1.355 1.355 0 0 1 .965-.392 1.325 1.325 0 0 1 1.167.657c.115.199.173.417.173.656 0 .174-.033.341-.1.5a1.292 1.292 0 0 1-.703.707c-.163.07-.343.105-.54.105Zm0-.487c.154 0 .29-.034.408-.1a.729.729 0 0 0 .282-.288.882.882 0 0 0 .103-.438.882.882 0 0 0-.103-.437.708.708 0 0 0-.282-.288.815.815 0 0 0-.408-.1.83.83 0 0 0-.41.1.723.723 0 0 0-.28.288.915.915 0 0 0-.1.438.89.89 0 0 0 .103.437.737.737 0 0 0 .687.388Zm1.895.412v-2.475h.55v.315a.914.914 0 0 1 .36-.297c.137-.062.279-.093.425-.093.227 0 .415.045.563.135a.86.86 0 0 1 .33.348.94.94 0 0 1 .11.437V81h-.55v-1.46a.573.573 0 0 0-.16-.425c-.105-.107-.252-.16-.44-.16a.657.657 0 0 0-.33.082.597.597 0 0 0-.225.23.676.676 0 0 0-.083.34V81h-.55Zm3.429-1.832a.406.406 0 0 1-.277-.103.34.34 0 0 1-.115-.267.355.355 0 0 1 .195-.326.413.413 0 0 1 .197-.047c.108 0 .2.034.275.103a.339.339 0 0 1 .115.27.363.363 0 0 1-.052.195.372.372 0 0 1-.143.13.418.418 0 0 1-.195.044Zm0 1.907a.406.406 0 0 1-.277-.103.34.34 0 0 1-.115-.267.355.355 0 0 1 .195-.325.413.413 0 0 1 .197-.047c.108 0 .2.034.275.102a.339.339 0 0 1 .115.27.363.363 0 0 1-.052.195.353.353 0 0 1-.143.127.4.4 0 0 1-.195.048Z" fill="#fff" fill-opacity=".6"/><path d="M434.443 81v-3.5h.63l1.657 2.41V77.5h.633V81h-.63l-1.658-2.44V81h-.632Zm4.886.075c-.272 0-.51-.055-.715-.165a1.216 1.216 0 0 1-.48-.465 1.365 1.365 0 0 1-.17-.692c0-.194.032-.371.097-.533a1.259 1.259 0 0 1 .705-.698c.164-.065.342-.097.535-.097.21 0 .398.038.563.112.165.074.301.178.41.313.11.133.186.29.23.47.045.178.051.373.017.585h-1.955a.608.608 0 0 0 .093.345.66.66 0 0 0 .275.233c.12.054.261.082.422.082a1.321 1.321 0 0 0 .78-.247l.225.447a1.134 1.134 0 0 1-.292.165 2.027 2.027 0 0 1-.74.145Zm-.725-1.625h1.297a.526.526 0 0 0-.167-.395c-.107-.097-.256-.145-.448-.145a.74.74 0 0 0-.47.145.55.55 0 0 0-.212.395ZM441.51 81l-.773-2.5h.63l.49 1.763.545-1.763h.61l.515 1.763.495-1.763h.603l-.773 2.5h-.65l-.51-1.7-.532 1.7h-.65Zm5.622 0v-1.495L445.9 77.5h.737l.835 1.38.828-1.38h.717l-1.232 2.01V81h-.653Zm3.098.075c-.267 0-.504-.06-.71-.18a1.343 1.343 0 0 1-.483-.483 1.296 1.296 0 0 1-.175-.662 1.294 1.294 0 0 1 .383-.927 1.375 1.375 0 0 1 .985-.398c.265 0 .5.06.705.18a1.315 1.315 0 0 1 .277 2.072 1.353 1.353 0 0 1-.432.293c-.167.07-.35.105-.55.105Zm-.003-.56a.76.76 0 0 0 .378-.093.681.681 0 0 0 .262-.264.836.836 0 0 0 .095-.408.836.836 0 0 0-.095-.407.661.661 0 0 0-.26-.266.758.758 0 0 0-.377-.092.77.77 0 0 0-.38.093.661.661 0 0 0-.26.264.846.846 0 0 0-.093.408.83.83 0 0 0 .095.407.686.686 0 0 0 .635.358Zm1.897.485v-2.5h.64v.328a.76.76 0 0 1 .325-.313.989.989 0 0 1 .425-.093 1.336 1.336 0 0 1 .277.03l-.08.66a.835.835 0 0 0-.162-.04.92.92 0 0 0-.165-.014.629.629 0 0 0-.445.162c-.117.107-.175.257-.175.45V81h-.64Zm2.109 0v-3.6h.64v2.052l.905-.952h.75l-.88.975.993 1.525h-.763l-.695-1.108-.31.318V81h-.64Zm5.743.075c-.364 0-.682-.075-.955-.225a1.594 1.594 0 0 1-.638-.632 1.949 1.949 0 0 1-.227-.963c0-.268.044-.513.132-.735a1.698 1.698 0 0 1 .96-.96c.223-.09.468-.135.735-.135.275 0 .51.035.705.105.195.068.368.166.52.293l-.332.532a1.003 1.003 0 0 0-.375-.225c-.142-.05-.3-.075-.473-.075-.185 0-.351.027-.497.082a1.016 1.016 0 0 0-.613.615 1.402 1.402 0 0 0-.082.496c0 .251.049.466.147.644a.997.997 0 0 0 .42.408c.182.095.398.142.648.142.168 0 .332-.025.492-.077a1.45 1.45 0 0 0 .458-.247l.3.547c-.167.13-.36.23-.58.302a2.388 2.388 0 0 1-.745.108Zm1.816-.075v-2.5h.64V81h-.64Zm.32-2.92a.419.419 0 0 1-.285-.105.35.35 0 0 1-.12-.277.35.35 0 0 1 .12-.278.419.419 0 0 1 .285-.105c.11 0 .205.035.285.105.08.07.12.162.12.278a.35.35 0 0 1-.12.277.419.419 0 0 1-.285.105Zm2.124 2.995c-.256 0-.46-.073-.61-.22-.15-.147-.225-.368-.225-.665v-2.415h.64v.725h.658v.52h-.658v1.043c0 .16.032.273.095.34a.351.351 0 0 0 .263.097.719.719 0 0 0 .302-.073l.1.51a1.278 1.278 0 0 1-.565.138Zm-1.362-2.055v-.52h.6v.52h-.6Zm2.74 3.1a1.3 1.3 0 0 1-.29-.032 1.061 1.061 0 0 1-.275-.105l.143-.543a.682.682 0 0 0 .345.097.424.424 0 0 0 .26-.075.452.452 0 0 0 .152-.232l.068-.2-.98-2.53h.697l.645 1.862.628-1.862h.677l-1.065 2.823c-.08.203-.171.362-.272.477a.877.877 0 0 1-.338.248 1.06 1.06 0 0 1-.395.072Zm2.269-.318-.21-.285c.132-.06.248-.134.35-.222a.823.823 0 0 0 .213-.26.486.486 0 0 1-.228-.037.354.354 0 0 1-.225-.338c0-.12.038-.217.115-.29a.415.415 0 0 1 .3-.113c.137 0 .248.046.333.138.085.09.127.213.127.37a.826.826 0 0 1-.087.362 1.23 1.23 0 0 1-.258.353 2.24 2.24 0 0 1-.43.322Zm2.658-.802v-3.5h.63l1.658 2.41V77.5h.632V81h-.63l-1.657-2.44V81h-.633Zm4.886.075c-.271 0-.51-.055-.715-.165a1.216 1.216 0 0 1-.48-.465 1.375 1.375 0 0 1-.17-.692c0-.194.033-.371.098-.533a1.259 1.259 0 0 1 .705-.698c.163-.065.342-.097.535-.097.21 0 .397.038.562.112.165.074.302.178.41.313.11.133.187.29.23.47.045.178.051.373.018.585h-1.955a.608.608 0 0 0 .092.345.667.667 0 0 0 .275.233c.12.054.261.082.423.082a1.315 1.315 0 0 0 .78-.247l.225.447a1.124 1.124 0 0 1-.293.165 1.98 1.98 0 0 1-.37.107 1.927 1.927 0 0 1-.37.038Zm-.725-1.625H476a.523.523 0 0 0-.168-.395c-.106-.097-.255-.145-.447-.145a.738.738 0 0 0-.47.145.555.555 0 0 0-.213.395Zm2.906 1.55-.772-2.5h.63l.49 1.763.545-1.763h.61l.515 1.763.495-1.763h.602l-.772 2.5h-.65l-.51-1.7-.533 1.7h-.65Zm5.623 0v-1.495l-1.233-2.005h.738l.835 1.38.827-1.38h.718l-1.233 2.01V81h-.652Zm3.097.075a1.39 1.39 0 0 1-.71-.18 1.333 1.333 0 0 1-.482-.483 1.296 1.296 0 0 1-.175-.662 1.294 1.294 0 0 1 .382-.927 1.378 1.378 0 0 1 .985-.398c.265 0 .5.06.705.18.207.12.369.28.485.483.119.201.178.422.178.662a1.332 1.332 0 0 1-.818 1.22c-.166.07-.35.105-.55.105Zm-.002-.56c.141 0 .267-.03.377-.093a.684.684 0 0 0 .263-.264.836.836 0 0 0 .095-.408.836.836 0 0 0-.095-.407.668.668 0 0 0-.26-.266.76.76 0 0 0-.378-.092.775.775 0 0 0-.38.093.668.668 0 0 0-.26.264.858.858 0 0 0-.092.408.82.82 0 0 0 .095.407.686.686 0 0 0 .635.358Zm1.897.485v-2.5h.64v.328a.754.754 0 0 1 .325-.313.986.986 0 0 1 .425-.093 1.336 1.336 0 0 1 .277.03l-.08.66a.872.872 0 0 0-.162-.04.92.92 0 0 0-.165-.014.627.627 0 0 0-.445.162c-.117.107-.175.257-.175.45V81h-.64Zm2.109 0v-3.6h.64v2.052l.905-.952h.75l-.88.975.992 1.525h-.762l-.695-1.108-.31.318V81h-.64Zm4.685.575a4.389 4.389 0 0 1-.465-1.115 4.635 4.635 0 0 1 .12-2.757c.091-.254.206-.496.345-.728l.492.193a3.392 3.392 0 0 0-.412.98 4.646 4.646 0 0 0-.103.55 4.653 4.653 0 0 0 .105 1.682c.094.368.23.702.41 1.002l-.492.193Zm2.623-.5c-.317 0-.583-.064-.798-.193a1.235 1.235 0 0 1-.482-.522 1.69 1.69 0 0 1-.163-.75V77.5h.65v2.118c0 .283.071.495.213.635.142.14.335.21.58.21.245 0 .437-.07.577-.21.142-.14.213-.352.213-.635V77.5h.652v2.11c0 .278-.054.528-.162.75-.108.22-.269.394-.483.522-.213.129-.479.193-.797.193Zm3.473 0c-.25 0-.494-.036-.733-.108a1.748 1.748 0 0 1-.6-.312l.315-.493c.08.074.176.137.288.19a1.8 1.8 0 0 0 .355.126c.127.028.252.042.377.042a.99.99 0 0 0 .508-.115.373.373 0 0 0 .195-.338.362.362 0 0 0-.135-.287c-.09-.078-.256-.152-.498-.22l-.34-.097c-.341-.097-.589-.226-.742-.388a.848.848 0 0 1-.228-.6.951.951 0 0 1 .363-.757c.117-.094.254-.166.412-.216.159-.05.331-.075.518-.075.245 0 .472.036.682.108.21.07.382.166.515.288l-.322.477a1.084 1.084 0 0 0-.248-.17 1.318 1.318 0 0 0-.307-.11 1.407 1.407 0 0 0-.333-.04.99.99 0 0 0-.345.055.523.523 0 0 0-.23.157.386.386 0 0 0-.082.25.32.32 0 0 0 .055.188.509.509 0 0 0 .195.148c.092.043.218.089.38.137l.355.105c.335.098.579.225.732.38.154.153.23.353.23.6a.99.99 0 0 1-.16.56c-.106.162-.26.288-.46.38a1.71 1.71 0 0 1-.712.135Zm2.309.5-.492-.193a3.3 3.3 0 0 0 .24-.467 4.118 4.118 0 0 0 .272-1.063 4.597 4.597 0 0 0-.102-1.684 3.636 3.636 0 0 0-.41-1l.492-.193c.208.35.363.722.465 1.115a4.66 4.66 0 0 1 .085 1.985 4.408 4.408 0 0 1-.55 1.5Z" fill="#fff"/><path opacity=".5" fill="#fff" fill-opacity=".1" d="M395 85h110v1H395z"/><path d="M400.333 90.333a1.332 1.332 0 1 0-2.665-.001 1.332 1.332 0 0 0 2.665.001ZM399 91a.669.669 0 0 1-.667-.667c0-.366.3-.666.667-.666.367 0 .667.3.667.666 0 .367-.3.667-.667.667Zm-1.667 1.333a1.333 1.333 0 1 0 0 2.667 1.333 1.333 0 0 0 0-2.667Zm0 2a.668.668 0 0 1-.666-.666c0-.367.3-.667.666-.667.367 0 .667.3.667.667 0 .366-.3.666-.667.666Zm3.334-2a1.333 1.333 0 1 0-.001 2.667 1.333 1.333 0 0 0 .001-2.667Zm0 2a.669.669 0 0 1-.667-.666c0-.367.3-.667.667-.667.366 0 .666.3.666.667 0 .366-.3.666-.666.666Z" fill="#FF8B36"/><path d="M405.455 94v-3.5h.56V94h-.56Zm2.615.075c-.242 0-.479-.034-.71-.103-.23-.07-.425-.17-.583-.3l.275-.427c.083.072.18.133.29.185a1.745 1.745 0 0 0 .73.16c.228 0 .413-.043.553-.13a.42.42 0 0 0 .212-.38.41.41 0 0 0-.145-.317c-.095-.087-.272-.167-.53-.24l-.36-.105c-.33-.096-.571-.221-.722-.378a.813.813 0 0 1-.225-.585c0-.155.03-.295.092-.42a.991.991 0 0 1 .265-.325c.115-.092.25-.162.405-.21.155-.048.325-.073.51-.073.235 0 .453.035.655.103.202.068.368.16.5.275l-.285.415a1.075 1.075 0 0 0-.252-.168 1.51 1.51 0 0 0-.643-.145c-.14 0-.264.021-.372.063a.554.554 0 0 0-.25.175.44.44 0 0 0-.09.28c0 .08.02.15.06.21.04.06.108.115.205.165.098.048.233.097.405.148l.38.112c.323.095.56.22.71.373.15.151.225.349.225.592a.986.986 0 0 1-.155.55 1 1 0 0 1-.445.367 1.69 1.69 0 0 1-.705.133Zm1.999-.075v-3.5h1.268c.248 0 .467.043.657.13.192.085.342.208.45.37a1 1 0 0 1 .163.578c0 .231-.05.427-.15.587a.946.946 0 0 1-.438.362 1.75 1.75 0 0 1-.695.123h-.695V94h-.56Zm.56-1.83h.703c.226 0 .402-.047.527-.142.125-.097.188-.243.188-.438 0-.193-.064-.342-.193-.445-.128-.103-.301-.155-.517-.155h-.708v1.18Zm2.889-.002a.408.408 0 0 1-.277-.103.34.34 0 0 1-.115-.267.355.355 0 0 1 .195-.326.416.416 0 0 1 .197-.047c.109 0 .2.034.275.103a.339.339 0 0 1 .115.27.363.363 0 0 1-.052.195.372.372 0 0 1-.143.13.418.418 0 0 1-.195.044Zm0 1.907a.408.408 0 0 1-.277-.103.34.34 0 0 1-.115-.267.355.355 0 0 1 .195-.325.416.416 0 0 1 .197-.047c.109 0 .2.034.275.102a.339.339 0 0 1 .115.27.363.363 0 0 1-.052.195.353.353 0 0 1-.143.127.4.4 0 0 1-.195.048Z" fill="#fff" fill-opacity=".6"/><path d="M417.443 94v-3.5h.627l1.395 2.285-.255.002 1.338-2.287h.62V94h-.633l.01-2.65.12.043-1.13 1.885h-.457l-1.158-1.886.108-.042.01 2.65h-.595Zm4.446 0v-.448l.753-.684c.237-.217.426-.4.567-.55a1.87 1.87 0 0 0 .305-.408.798.798 0 0 0 .093-.365c0-.18-.061-.32-.183-.418-.12-.1-.29-.15-.51-.15-.153 0-.3.028-.442.083-.14.055-.263.137-.368.245l-.23-.473c.149-.131.319-.232.51-.302.192-.07.391-.105.598-.105.248 0 .464.043.647.13.185.087.329.21.43.367a.99.99 0 0 1 .153.553c0 .143-.028.286-.085.428-.057.141-.158.3-.305.477-.145.177-.351.39-.618.64l-.472.438h1.57V94h-2.413Zm4.479 0v-.698h-1.715v-.477l1.205-2.325h.653l-1.183 2.27h1.04v-.745h.55v.745h.52v.532h-.52V94h-.55Zm1.479 0 1.435-2.918h-1.622V90.5h2.345v.472L428.537 94h-.69Zm4.024 0v-3.5h2.328v.57h-1.678v.848h1.435v.532h-1.435v.975h1.695V94h-2.345Zm3.998.075c-.225 0-.411-.045-.56-.135a.84.84 0 0 1-.327-.36 1.169 1.169 0 0 1-.108-.507V91.5h.64v1.463c0 .16.046.288.138.385a.516.516 0 0 0 .387.142.573.573 0 0 0 .288-.072.542.542 0 0 0 .2-.206.614.614 0 0 0 .072-.302V91.5h.64V94h-.565v-.285a1.051 1.051 0 0 1-.335.263 1.04 1.04 0 0 1-.47.097Zm2.106-.075v-2.5h.64v.328a.76.76 0 0 1 .325-.313.992.992 0 0 1 .425-.093 1.342 1.342 0 0 1 .278.03l-.08.66a.863.863 0 0 0-.163-.04.92.92 0 0 0-.165-.014.629.629 0 0 0-.445.162c-.116.107-.175.257-.175.45V94h-.64Zm3.219.075c-.267 0-.504-.06-.71-.18a1.343 1.343 0 0 1-.483-.483 1.296 1.296 0 0 1-.175-.662 1.294 1.294 0 0 1 .383-.927 1.375 1.375 0 0 1 .985-.398c.265 0 .5.06.705.18a1.315 1.315 0 0 1 .277 2.072 1.353 1.353 0 0 1-.432.293c-.167.07-.35.105-.55.105Zm-.003-.56a.76.76 0 0 0 .378-.093.681.681 0 0 0 .262-.264.836.836 0 0 0 .095-.408.836.836 0 0 0-.095-.407.661.661 0 0 0-.26-.266.758.758 0 0 0-.377-.092.77.77 0 0 0-.38.093.661.661 0 0 0-.26.264.846.846 0 0 0-.093.408.83.83 0 0 0 .095.407.686.686 0 0 0 .635.358Zm1.897 1.535V91.5h.565v.33a1.05 1.05 0 0 1 .372-.293c.152-.075.335-.112.55-.112a1.19 1.19 0 0 1 1.088.64c.108.198.162.427.162.685 0 .185-.031.358-.092.517-.062.16-.149.301-.26.423a1.238 1.238 0 0 1-.908.385c-.18 0-.34-.03-.48-.092a1.146 1.146 0 0 1-.36-.258v1.325h-.637Zm1.37-1.535c.141 0 .267-.03.377-.093a.683.683 0 0 0 .26-.264.825.825 0 0 0 .095-.408.825.825 0 0 0-.095-.407.66.66 0 0 0-.262-.266.753.753 0 0 0-.375-.092.76.76 0 0 0-.378.093.668.668 0 0 0-.26.264.836.836 0 0 0-.095.408.84.84 0 0 0 .093.407c.063.114.15.202.26.266a.77.77 0 0 0 .38.092Zm3.076.56c-.272 0-.51-.055-.715-.165a1.216 1.216 0 0 1-.48-.465 1.365 1.365 0 0 1-.17-.692c0-.194.032-.371.097-.533a1.259 1.259 0 0 1 .705-.698c.164-.065.342-.097.535-.097.21 0 .398.038.563.112.165.074.301.178.41.313.11.133.186.29.23.47.045.178.051.373.017.585h-1.955a.608.608 0 0 0 .093.345.66.66 0 0 0 .275.233c.12.054.261.082.422.082a1.321 1.321 0 0 0 .78-.247l.225.447a1.134 1.134 0 0 1-.292.165 2.027 2.027 0 0 1-.74.145Zm-.725-1.625h1.297a.526.526 0 0 0-.167-.395c-.107-.097-.256-.145-.448-.145a.74.74 0 0 0-.47.145.55.55 0 0 0-.212.395Zm4.906 1.625c-.25 0-.494-.036-.732-.108a1.73 1.73 0 0 1-.6-.312l.315-.493c.08.074.176.137.287.19a1.8 1.8 0 0 0 .355.126c.127.028.253.042.378.042a.99.99 0 0 0 .507-.115.373.373 0 0 0 .195-.338.362.362 0 0 0-.135-.287c-.09-.078-.255-.152-.497-.22l-.34-.097c-.342-.097-.589-.226-.743-.388a.852.852 0 0 1-.227-.6.951.951 0 0 1 .362-.757 1.27 1.27 0 0 1 .413-.216c.158-.05.331-.075.517-.075.245 0 .473.036.683.108.21.07.382.166.515.288l-.323.477a1.077 1.077 0 0 0-.247-.17 1.326 1.326 0 0 0-.308-.11c-.11-.027-.22-.04-.332-.04a.982.982 0 0 0-.345.055.523.523 0 0 0-.23.157.386.386 0 0 0-.083.25c0 .072.019.135.055.188a.525.525 0 0 0 .195.148c.092.043.219.089.38.137l.355.105c.335.098.58.225.733.38.153.153.23.353.23.6a.99.99 0 0 1-.16.56c-.107.162-.26.288-.46.38-.198.09-.436.135-.713.135Zm1.992-.075v-3.5h1.355c.248 0 .464.043.648.127a.963.963 0 0 1 .425.36c.1.157.15.344.15.56a.939.939 0 0 1-.108.458.94.94 0 0 1-.297.328c-.125.086-.27.147-.435.182L456.462 94h-.78l-.905-1.37h-.42V94h-.65Zm.65-1.903h.61c.208 0 .371-.043.488-.13a.455.455 0 0 0 .175-.385c0-.174-.054-.308-.16-.4-.107-.091-.264-.137-.47-.137h-.643v1.052Zm2.71 1.903v-3.5h.65v2.905h1.485V94h-2.135Z" fill="#fff"/><path opacity=".5" fill="#fff" fill-opacity=".1" d="M395 98h110v1H395z"/><path d="M401.333 106v1.333h-4.666V106h4.666Zm.334-.667h-5.334a.334.334 0 0 0-.333.334v2c0 .183.15.333.333.333h5.334c.183 0 .333-.15.333-.333v-2a.334.334 0 0 0-.333-.334Zm-4.334 1.834a.502.502 0 0 1-.5-.5.5.5 0 1 1 .5.5Zm4-4.5V104h-4.666v-1.333h4.666Zm.334-.667h-5.334a.334.334 0 0 0-.333.333v2c0 .184.15.334.333.334h5.334c.183 0 .333-.15.333-.334v-2a.334.334 0 0 0-.333-.333Zm-4.334 1.833a.501.501 0 0 1-.5-.5c0-.276.227-.5.5-.5a.5.5 0 0 1 0 1Z" fill="#5DA8FF"/><path d="M405.455 107v-3.5h1.268c.248 0 .467.043.657.13.192.085.342.208.45.37.108.16.163.352.163.577 0 .232-.05.428-.15.588a.945.945 0 0 1-.438.362c-.19.082-.422.123-.695.123h-.695V107h-.56Zm.56-1.83h.703c.226 0 .402-.048.527-.143.125-.096.188-.242.188-.437 0-.193-.065-.342-.193-.445-.128-.103-.301-.155-.517-.155h-.708v1.18Zm2.536 1.83v-2.475h.55v.342a.798.798 0 0 1 .34-.325.997.997 0 0 1 .43-.095 1.297 1.297 0 0 1 .273.03l-.073.568a1.117 1.117 0 0 0-.307-.048c-.192 0-.35.06-.475.178a.622.622 0 0 0-.188.477V107h-.55Zm3.13.075a1.35 1.35 0 0 1-.693-.178 1.296 1.296 0 0 1-.647-1.135 1.295 1.295 0 0 1 .805-1.207c.163-.07.342-.105.537-.105.259 0 .489.06.69.18a1.285 1.285 0 0 1 .65 1.132c0 .175-.033.342-.1.5a1.32 1.32 0 0 1-1.242.813Zm0-.488a.81.81 0 0 0 .407-.1.73.73 0 0 0 .283-.287.892.892 0 0 0 .102-.438.89.89 0 0 0-.102-.437.714.714 0 0 0-.283-.288.82.82 0 0 0-.407-.1.838.838 0 0 0-.41.1.72.72 0 0 0-.28.288.901.901 0 0 0-.1.437c0 .169.034.315.102.438a.743.743 0 0 0 .28.287c.12.067.256.1.408.1Zm1.553.416.895-1.246-.842-1.232h.692l.528.837.51-.837h.675l-.818 1.217.888 1.258h-.705l-.57-.87-.578.865-.675.008Zm3.201 1.117c-.09 0-.178-.01-.265-.03a.92.92 0 0 1-.255-.102l.125-.47a.676.676 0 0 0 .335.1.42.42 0 0 0 .275-.083.539.539 0 0 0 .157-.255l.083-.24-.975-2.515h.602l.685 1.92.668-1.92h.582l-1.07 2.833a1.566 1.566 0 0 1-.257.462.78.78 0 0 1-.315.233 1.02 1.02 0 0 1-.375.067Zm2.801-2.953a.412.412 0 0 1-.278-.102.344.344 0 0 1-.115-.268.356.356 0 0 1 .195-.325.425.425 0 0 1 .198-.047c.108 0 .2.034.275.102a.34.34 0 0 1 .115.27.36.36 0 0 1-.053.195.364.364 0 0 1-.142.13.418.418 0 0 1-.195.045Zm0 1.908a.408.408 0 0 1-.278-.103.342.342 0 0 1-.115-.267.356.356 0 0 1 .195-.325.414.414 0 0 1 .198-.048c.108 0 .2.035.275.103a.34.34 0 0 1 .115.27.352.352 0 0 1-.195.323.407.407 0 0 1-.195.047Z" fill="#fff" fill-opacity=".6"/><path d="M422.443 107v-3.5h.63l1.657 2.41v-2.41h.633v3.5h-.63l-1.658-2.44V107h-.632Zm4.888.075a1.39 1.39 0 0 1-.71-.18 1.336 1.336 0 0 1-.482-.483 1.293 1.293 0 0 1-.175-.662 1.301 1.301 0 0 1 .817-1.218 1.39 1.39 0 0 1 .55-.107c.265 0 .5.06.705.18.207.12.369.281.485.482.119.202.178.423.178.663a1.33 1.33 0 0 1-.818 1.22c-.166.07-.35.105-.55.105Zm-.002-.56a.755.755 0 0 0 .377-.093.677.677 0 0 0 .263-.265.833.833 0 0 0 .095-.407.837.837 0 0 0-.095-.408.67.67 0 0 0-.26-.265.767.767 0 0 0-.378-.092.783.783 0 0 0-.38.092.67.67 0 0 0-.26.265.86.86 0 0 0-.092.408c0 .157.031.292.095.407.063.114.15.202.26.265a.75.75 0 0 0 .375.093Zm2.94.56c-.257 0-.46-.073-.61-.22-.15-.147-.225-.368-.225-.665v-2.415h.64v.725h.657v.52h-.657v1.042c0 .16.031.274.095.34.063.065.15.098.262.098a.693.693 0 0 0 .303-.073l.1.51a1.287 1.287 0 0 1-.565.138Zm-1.363-2.055v-.52h.6v.52h-.6Zm4.714 2.055c-.243 0-.459-.057-.648-.17a1.192 1.192 0 0 1-.442-.47c-.107-.2-.16-.428-.16-.685 0-.185.03-.358.09-.518a1.29 1.29 0 0 1 .26-.422 1.19 1.19 0 0 1 .4-.283c.153-.068.323-.102.51-.102.215 0 .403.043.565.13.162.085.299.206.412.362l-.14.145V103.4h.64v3.6h-.565v-.618l.09.145c-.085.159-.211.29-.38.393a1.191 1.191 0 0 1-.632.155Zm.117-.56a.75.75 0 0 0 .375-.093.67.67 0 0 0 .263-.265.833.833 0 0 0 .095-.407.837.837 0 0 0-.095-.408.663.663 0 0 0-.26-.265.767.767 0 0 0-.378-.092.783.783 0 0 0-.38.092.67.67 0 0 0-.26.265.86.86 0 0 0-.092.408c0 .157.032.292.095.407.063.114.15.202.26.265.11.062.236.093.377.093Zm3.265.56c-.272 0-.51-.055-.715-.165a1.22 1.22 0 0 1-.48-.465 1.364 1.364 0 0 1-.17-.693c0-.193.032-.37.097-.532a1.253 1.253 0 0 1 .705-.698c.163-.065.342-.097.535-.097.21 0 .398.037.563.112.165.074.301.178.41.313.11.133.186.29.23.47.045.178.05.373.017.585h-1.955a.6.6 0 0 0 .368.577c.12.055.26.083.422.083.143 0 .281-.021.413-.063.131-.041.254-.103.367-.185l.225.448a1.152 1.152 0 0 1-.292.165 2.004 2.004 0 0 1-.74.145Zm-.725-1.625h1.297a.526.526 0 0 0-.167-.395c-.107-.097-.256-.145-.448-.145a.736.736 0 0 0-.47.145.55.55 0 0 0-.212.395Zm3.508 1.625c-.257 0-.46-.073-.61-.22-.15-.147-.225-.368-.225-.665v-2.415h.64v.725h.658v.52h-.658v1.042c0 .16.032.274.095.34a.35.35 0 0 0 .263.098.638.638 0 0 0 .302-.073l.1.51a1.254 1.254 0 0 1-.565.138Zm-1.362-2.055v-.52h.6v.52h-.6Zm3.618 2.055c-.272 0-.51-.055-.715-.165a1.22 1.22 0 0 1-.48-.465 1.364 1.364 0 0 1-.17-.693c0-.193.032-.37.097-.532a1.253 1.253 0 0 1 .705-.698c.163-.065.342-.097.535-.097.21 0 .398.037.563.112.165.074.301.178.41.313.11.133.186.29.23.47.045.178.05.373.017.585h-1.955a.6.6 0 0 0 .368.577c.12.055.26.083.422.083.143 0 .281-.021.413-.063.131-.041.254-.103.367-.185l.225.448a1.152 1.152 0 0 1-.292.165 2.004 2.004 0 0 1-.74.145Zm-.725-1.625h1.297a.526.526 0 0 0-.167-.395c-.107-.097-.256-.145-.448-.145a.736.736 0 0 0-.47.145.55.55 0 0 0-.212.395Zm3.65 1.625c-.265 0-.501-.057-.708-.173a1.3 1.3 0 0 1-.485-.472 1.314 1.314 0 0 1-.177-.68c0-.192.035-.368.105-.528.07-.161.168-.301.295-.42.126-.12.275-.212.445-.277.171-.067.358-.1.56-.1.175 0 .337.023.487.07.15.047.288.118.413.215l-.298.482a.761.761 0 0 0-.267-.155.921.921 0 0 0-.31-.052.923.923 0 0 0-.423.09.633.633 0 0 0-.27.26.836.836 0 0 0-.095.412c0 .24.07.429.21.565.142.135.334.203.578.203a.896.896 0 0 0 .627-.253l.285.485a1.674 1.674 0 0 1-.972.328Zm2.519 0c-.256 0-.46-.073-.61-.22-.15-.147-.225-.368-.225-.665v-2.415h.64v.725h.658v.52h-.658v1.042c0 .16.032.274.095.34a.352.352 0 0 0 .263.098.632.632 0 0 0 .302-.073l.1.51a1.254 1.254 0 0 1-.565.138Zm-1.362-2.055v-.52h.6v.52h-.6Zm3.618 2.055c-.272 0-.51-.055-.715-.165a1.22 1.22 0 0 1-.48-.465 1.364 1.364 0 0 1-.17-.693c0-.193.032-.37.097-.532a1.253 1.253 0 0 1 .705-.698c.164-.065.342-.097.535-.097.21 0 .398.037.563.112.165.074.301.178.41.313.11.133.186.29.23.47.045.178.051.373.017.585h-1.955a.607.607 0 0 0 .093.345.657.657 0 0 0 .275.232c.12.055.261.083.422.083.144 0 .281-.021.413-.063.131-.041.254-.103.367-.185l.225.448a1.152 1.152 0 0 1-.292.165 2.004 2.004 0 0 1-.74.145Zm-.725-1.625h1.297a.526.526 0 0 0-.167-.395c-.107-.097-.256-.145-.448-.145a.738.738 0 0 0-.47.145.55.55 0 0 0-.212.395Zm3.53 1.625a1.185 1.185 0 0 1-1.09-.64c-.107-.2-.16-.428-.16-.685 0-.185.03-.358.09-.518.061-.161.148-.302.26-.422a1.18 1.18 0 0 1 .4-.283c.153-.068.323-.102.51-.102.215 0 .403.043.565.13.161.085.299.206.412.362l-.14.145V103.4h.64v3.6h-.565v-.618l.09.145c-.085.159-.211.29-.38.393a1.191 1.191 0 0 1-.632.155Zm.117-.56a.75.75 0 0 0 .375-.093.677.677 0 0 0 .263-.265.833.833 0 0 0 .095-.407.837.837 0 0 0-.095-.408.67.67 0 0 0-.26-.265.767.767 0 0 0-.378-.092.783.783 0 0 0-.38.092.67.67 0 0 0-.26.265.86.86 0 0 0-.092.408c0 .157.031.292.095.407.063.114.15.202.26.265.11.062.236.093.377.093Z" fill="#fff"/><path opacity=".5" fill="#fff" fill-opacity=".1" d="M395 111h110v1H395z"/><path d="M399.333 121.333H402V119h-1v-1.333h-1.667V117h1v-2.333h-2.666V117h1v.667H397V119h-1v2.333h2.667V119h-1v-.667h2.666V119h-1v2.333Zm-1-5v-1h1.334v1h-1.334Zm-.333 3.334v1h-1.333v-1H398Zm3.333 0v1H400v-1h1.333Z" fill="#A1FFB0"/><path d="M405.455 120v-3.5h.56v2.985h1.525V120h-2.085Zm3.384.075c-.172 0-.323-.032-.453-.095a.742.742 0 0 1-.305-.273.784.784 0 0 1-.107-.417c0-.135.034-.257.102-.365a.76.76 0 0 1 .318-.273 1.65 1.65 0 0 1 .557-.142c.227-.025.499-.022.818.01l.01.38a3.502 3.502 0 0 0-.585-.04 1.393 1.393 0 0 0-.403.062.502.502 0 0 0-.23.143.309.309 0 0 0-.072.202c0 .12.042.213.127.278a.58.58 0 0 0 .355.097.815.815 0 0 0 .345-.07.564.564 0 0 0 .24-.197.507.507 0 0 0 .09-.3v-.658a.553.553 0 0 0-.07-.285.47.47 0 0 0-.212-.19.83.83 0 0 0-.355-.067 1.268 1.268 0 0 0-.748.242l-.155-.405c.155-.105.317-.179.485-.222.168-.043.33-.065.485-.065.23 0 .427.037.59.11a.808.808 0 0 1 .38.327c.088.145.133.329.133.55V120h-.495v-.293a.796.796 0 0 1-.348.273 1.258 1.258 0 0 1-.497.095Zm3.062 0c-.242 0-.435-.07-.58-.21-.145-.14-.217-.354-.217-.643v-2.42h.55v.723h.687v.455h-.687v1.122c0 .174.032.296.097.368.067.07.16.105.28.105a.678.678 0 0 0 .305-.073l.098.445a1.198 1.198 0 0 1-.533.128Zm-1.34-2.095v-.455h.615v.455h-.615Zm2.448 2.02v-2.475h.55V120h-.55Zm.275-2.918a.37.37 0 0 1-.255-.095.318.318 0 0 1-.107-.25c0-.101.036-.184.107-.247a.368.368 0 0 1 .255-.098c.099 0 .184.033.255.098a.314.314 0 0 1 .108.247.315.315 0 0 1-.108.25.367.367 0 0 1-.255.095Zm2.079 2.993c-.242 0-.435-.07-.58-.21-.145-.14-.218-.354-.218-.643v-2.42h.55v.723h.688v.455h-.688v1.122c0 .174.033.296.098.368.067.07.16.105.28.105a.678.678 0 0 0 .305-.073l.097.445a1.168 1.168 0 0 1-.247.091 1.082 1.082 0 0 1-.285.037Zm-1.34-2.095v-.455h.615v.455h-.615Zm3.403 2.095c-.221 0-.405-.044-.55-.133a.86.86 0 0 1-.322-.355 1.07 1.07 0 0 1-.108-.48v-1.582h.55v1.48c0 .17.05.307.15.41.102.102.242.152.42.152a.575.575 0 0 0 .53-.3.647.647 0 0 0 .083-.33v-1.412h.55V120h-.495v-.293a1.034 1.034 0 0 1-.345.273 1.063 1.063 0 0 1-.463.095Zm3.095 0c-.241 0-.456-.057-.642-.17a1.216 1.216 0 0 1-.44-.468 1.419 1.419 0 0 1-.158-.675c0-.181.03-.351.09-.51a1.2 1.2 0 0 1 1.158-.802c.225 0 .42.045.585.135.165.09.302.215.412.375l-.115.122V116.4h.55v3.6h-.495v-.595l.08.125c-.09.157-.219.287-.387.39-.167.103-.379.155-.638.155Zm.1-.488a.814.814 0 0 0 .408-.1.728.728 0 0 0 .282-.287.881.881 0 0 0 .103-.438.88.88 0 0 0-.103-.437.711.711 0 0 0-.282-.288.825.825 0 0 0-.408-.1.82.82 0 0 0-.407.1.713.713 0 0 0-.28.288.88.88 0 0 0-.103.437c0 .169.034.315.103.438a.73.73 0 0 0 .28.287c.12.067.256.1.407.1Zm3.235.488c-.266 0-.501-.054-.702-.163a1.196 1.196 0 0 1-.473-.46 1.368 1.368 0 0 1-.167-.685c0-.19.032-.365.097-.525a1.26 1.26 0 0 1 .275-.42 1.27 1.27 0 0 1 .415-.275c.16-.065.334-.097.523-.097.205 0 .387.037.547.11.16.072.293.172.398.302.106.13.181.283.225.458.045.173.052.362.022.565h-1.975a.7.7 0 0 0 .098.39c.068.11.166.196.292.257.129.062.279.093.453.093.14 0 .275-.021.405-.063.131-.043.251-.106.357-.19l.213.395a1.17 1.17 0 0 1-.29.168 2.013 2.013 0 0 1-.713.14Zm-.782-1.595h1.402a.594.594 0 0 0-.18-.44c-.113-.107-.275-.16-.485-.16a.79.79 0 0 0-.507.16.62.62 0 0 0-.23.44Zm2.866-.313a.407.407 0 0 1-.277-.102.34.34 0 0 1-.115-.268.355.355 0 0 1 .195-.325.421.421 0 0 1 .197-.047c.108 0 .2.034.275.102a.34.34 0 0 1 .115.27.36.36 0 0 1-.052.195.367.367 0 0 1-.143.13.418.418 0 0 1-.195.045Zm0 1.908a.403.403 0 0 1-.277-.103.339.339 0 0 1-.115-.267.355.355 0 0 1 .195-.325.41.41 0 0 1 .197-.048c.108 0 .2.035.275.103a.34.34 0 0 1 .115.27.365.365 0 0 1-.052.195.407.407 0 0 1-.338.175Z" fill="#fff" fill-opacity=".6"/><path d="M430.795 120v-.698h-1.715v-.477l1.205-2.325h.653l-1.183 2.27h1.04v-.745h.55v.745h.52v.532h-.52V120h-.55Zm2.915.075a1.28 1.28 0 0 1-.612-.143 1.343 1.343 0 0 1-.458-.395 1.926 1.926 0 0 1-.285-.582 2.477 2.477 0 0 1-.097-.705c0-.252.032-.488.097-.708.067-.22.162-.413.285-.58a1.29 1.29 0 0 1 1.07-.537c.229 0 .432.047.61.142.18.095.333.227.458.395.125.167.22.36.285.58.066.22.1.456.1.708 0 .25-.034.485-.1.705-.065.22-.16.414-.285.582-.125.169-.278.3-.458.395a1.263 1.263 0 0 1-.61.143Zm0-.568a.67.67 0 0 0 .338-.085.753.753 0 0 0 .26-.247 1.22 1.22 0 0 0 .167-.395c.04-.155.06-.332.06-.53 0-.265-.034-.491-.102-.678a.947.947 0 0 0-.29-.43.669.669 0 0 0-.433-.15.686.686 0 0 0-.597.333c-.074.107-.13.238-.17.395a2.183 2.183 0 0 0-.058.53c0 .263.034.489.103.677.07.187.166.33.29.431a.669.669 0 0 0 .432.149Zm2.34.568a.45.45 0 0 1-.303-.11.377.377 0 0 1-.127-.298c0-.083.019-.155.057-.217a.41.41 0 0 1 .158-.143.466.466 0 0 1 .215-.05c.118 0 .219.038.302.113a.372.372 0 0 1 .128.297c0 .082-.02.154-.06.215a.388.388 0 0 1-.155.143.47.47 0 0 1-.215.05Zm1.107-.075 1.435-2.918h-1.623v-.582h2.345v.472L437.847 120h-.69Zm3.499 0v-2.808l-.868.315-.17-.505 1.593-.577h.045V120h-.6Zm2.459.075a2.06 2.06 0 0 1-.832-.175 1.08 1.08 0 0 1-.288-.188l.208-.525c.102.1.232.18.392.24s.32.09.48.09a.938.938 0 0 0 .383-.072.58.58 0 0 0 .25-.208.536.536 0 0 0 .09-.31.508.508 0 0 0-.203-.43c-.133-.101-.31-.152-.53-.152a1.769 1.769 0 0 0-.412.052l-.183-.417 1.035-.943h-1.477v-.537h2.232v.495l-.977.947c.197.002.381.041.552.118a.968.968 0 0 1 .42.34.96.96 0 0 1 .16.567c0 .219-.055.411-.167.578-.11.165-.263.295-.458.39a1.55 1.55 0 0 1-.675.14Zm1.878-.075v-.448l.752-.685c.237-.216.426-.4.568-.55.142-.151.243-.287.305-.407a.796.796 0 0 0 .092-.365c0-.18-.06-.319-.182-.418-.12-.1-.29-.15-.51-.15-.153 0-.301.028-.443.083-.14.055-.262.137-.367.245l-.23-.473c.148-.131.318-.232.51-.302a1.73 1.73 0 0 1 .597-.105c.249 0 .465.043.648.13.185.087.328.209.43.367a.991.991 0 0 1 .152.553c0 .143-.028.286-.085.427a1.843 1.843 0 0 1-.305.478 7 7 0 0 1-.617.64l-.473.437h1.57V120h-2.412Z" fill="#fff"/><path d="M138.667 454a2.667 2.667 0 1 1-5.334 0 2.667 2.667 0 0 1 5.334 0ZM248 265.5h-80v-1h80v1ZM136.5 297v157h-1V297h1Zm31.5-31.5c-17.397 0-31.5 14.103-31.5 31.5h-1c0-17.949 14.551-32.5 32.5-32.5v1Zm168 163.833a2.667 2.667 0 1 1 0 5.334 2.667 2.667 0 0 1 0-5.334ZM285.5 320v80h-1v-80h1ZM317 431.5h19v1h-19v-1ZM285.5 400c0 17.397 14.103 31.5 31.5 31.5v1c-17.949 0-32.5-14.551-32.5-32.5h1Z" fill="#fff" fill-opacity=".2"/><rect x="345.5" y="418.5" width="118" height="27" rx="13.5" fill="#1B1C1C" fill-opacity=".96" stroke="url(#f)"/><path d="M355.436 435.12c-.424 0-.789-.075-1.096-.224a1.698 1.698 0 0 1-.7-.604 1.539 1.539 0 0 1-.244-.852c0-.224.04-.425.12-.604.08-.179.196-.333.348-.464.152-.133.335-.241.548-.324a1.465 1.465 0 0 1-.572-.44c-.165-.208-.248-.471-.248-.788 0-.299.08-.564.24-.796.16-.232.38-.413.66-.544.28-.133.601-.2.964-.2.365 0 .689.067.972.2.285.133.508.316.668.548.16.232.24.496.24.792a1.265 1.265 0 0 1-.424.972 1.431 1.431 0 0 1-.396.256c.299.125.54.305.724.54.184.235.276.519.276.852 0 .315-.088.599-.264.852a1.797 1.797 0 0 1-.728.604 2.5 2.5 0 0 1-1.088.224Zm.02-.836c.187 0 .361-.035.524-.104a.972.972 0 0 0 .4-.312.822.822 0 0 0 .152-.504c0-.2-.049-.368-.148-.504a.874.874 0 0 0-.388-.312 1.372 1.372 0 0 0-.54-.104c-.307 0-.563.079-.768.236-.205.157-.308.385-.308.684 0 .2.049.368.148.504.099.136.229.24.392.312.163.069.341.104.536.104Zm.008-2.652c.184 0 .347-.032.488-.096a.81.81 0 0 0 .336-.276.695.695 0 0 0 .124-.412.744.744 0 0 0-.264-.584c-.176-.157-.404-.236-.684-.236-.187 0-.352.036-.496.108a.838.838 0 0 0-.332.296.745.745 0 0 0-.12.416c0 .237.089.428.268.572.179.141.405.212.68.212Zm3.55 3.488-.356-.784a4.178 4.178 0 0 0 1.012-.248c.296-.12.552-.267.768-.44a2.653 2.653 0 0 0 .868-1.264 1.478 1.478 0 0 1-1.148.532c-.352 0-.669-.076-.952-.228a1.757 1.757 0 0 1-.664-.636 1.788 1.788 0 0 1-.244-.932c0-.347.087-.659.26-.936.176-.277.42-.497.732-.66a2.29 2.29 0 0 1 1.076-.244c.416 0 .784.089 1.104.268.323.179.576.436.76.772.187.333.28.736.28 1.208 0 .477-.089.919-.268 1.324-.176.403-.422.76-.74 1.072a4.141 4.141 0 0 1-1.112.776 4.92 4.92 0 0 1-1.376.42Zm1.352-3.024c.206 0 .388-.043.548-.128.163-.085.292-.203.388-.352a.904.904 0 0 0 .144-.5.9.9 0 0 0-.14-.504.956.956 0 0 0-.384-.344 1.167 1.167 0 0 0-.556-.128 1.21 1.21 0 0 0-.56.128.97.97 0 0 0-.384.344.932.932 0 0 0-.136.504c0 .184.047.351.14.5.096.149.226.267.388.352.166.085.35.128.552.128Zm3.609 3.024a.718.718 0 0 1-.484-.176.604.604 0 0 1-.204-.476.65.65 0 0 1 .092-.348.643.643 0 0 1 .252-.228.748.748 0 0 1 .344-.08c.189 0 .351.06.484.18a.596.596 0 0 1 .204.476.618.618 0 0 1-.096.344.613.613 0 0 1-.248.228.748.748 0 0 1-.344.08Zm2.096-.12v-4.492l-1.388.504-.272-.808 2.548-.924h.072V435h-.96Zm4.699 0v-1.116h-2.744v-.764l1.928-3.72h1.044l-1.892 3.632h1.664v-1.192h.88v1.192h.832v.852h-.832V435h-.88Zm3.041.12a.718.718 0 0 1-.484-.176.604.604 0 0 1-.204-.476.65.65 0 0 1 .092-.348.643.643 0 0 1 .252-.228.748.748 0 0 1 .344-.08c.189 0 .351.06.484.18a.596.596 0 0 1 .204.476.618.618 0 0 1-.096.344.613.613 0 0 1-.248.228.748.748 0 0 1-.344.08Zm2.096-.12v-4.492l-1.388.504-.272-.808 2.548-.924h.072V435h-.96Zm2.275 0v-.716l1.204-1.096c.379-.347.682-.64.908-.88.227-.243.39-.46.488-.652.099-.195.148-.389.148-.584 0-.288-.097-.511-.292-.668-.192-.16-.464-.24-.816-.24-.245 0-.481.044-.708.132-.224.088-.42.219-.588.392l-.368-.756c.238-.211.51-.372.816-.484a2.77 2.77 0 0 1 .956-.168c.398 0 .743.069 1.036.208.296.139.526.335.688.588.163.251.244.545.244.884 0 .229-.045.457-.136.684-.09.227-.253.481-.488.764a11.28 11.28 0 0 1-.988 1.024l-.756.7h2.512V435h-3.86Zm5.395.12a.718.718 0 0 1-.484-.176.604.604 0 0 1-.204-.476c0-.133.03-.249.092-.348a.643.643 0 0 1 .252-.228.745.745 0 0 1 .344-.08.7.7 0 0 1 .484.18.596.596 0 0 1 .204.476.618.618 0 0 1-.096.344.619.619 0 0 1-.248.228.748.748 0 0 1-.344.08Zm2.096-.12v-4.492l-1.388.504-.272-.808 2.548-.924h.072V435h-.96Zm2.275 0v-.716l1.204-1.096c.379-.347.681-.64.908-.88.227-.243.389-.46.488-.652.099-.195.148-.389.148-.584 0-.288-.097-.511-.292-.668-.192-.16-.464-.24-.816-.24-.245 0-.481.044-.708.132-.224.088-.42.219-.588.392l-.368-.756c.237-.211.509-.372.816-.484.307-.112.625-.168.956-.168.397 0 .743.069 1.036.208.296.139.525.335.688.588.163.251.244.545.244.884 0 .229-.045.457-.136.684-.091.227-.253.481-.488.764a11.28 11.28 0 0 1-.988 1.024l-.756.7h2.512V435h-3.86Zm6.402.12a3.368 3.368 0 0 1-1.332-.28 1.711 1.711 0 0 1-.46-.3l.332-.84c.163.16.372.288.628.384.256.096.512.144.768.144.235 0 .439-.039.612-.116a.93.93 0 0 0 .4-.332.861.861 0 0 0 .144-.496c0-.296-.108-.525-.324-.688-.213-.163-.496-.244-.848-.244a2.789 2.789 0 0 0-.66.084l-.292-.668 1.656-1.508h-2.364v-.86h3.572v.792l-1.564 1.516c.315.003.61.065.884.188.278.12.502.301.672.544.171.243.256.545.256.908 0 .349-.089.657-.268.924a1.81 1.81 0 0 1-.732.624 2.478 2.478 0 0 1-1.08.224Z" fill="#fff"/><path d="M451.503 433.503h-.526l-.187-.18a4.315 4.315 0 0 0 1.047-2.82 4.333 4.333 0 1 0-4.334 4.334c1.074 0 2.06-.394 2.82-1.047l.18.187v.526l3.334 3.327.993-.993-3.327-3.334Zm-4 0c-1.66 0-3-1.34-3-3s1.34-3 3-3 3 1.34 3 3-1.34 3-3 3Z" fill="#E5FF5D"/><defs><linearGradient id="b" x1="248" y1="311.5" x2="335" y2="311.5" gradientUnits="userSpaceOnUse"><stop stop-color="#E5FF5D" stop-opacity="0"/><stop offset=".545" stop-color="#E5FF5D"/><stop offset="1" stop-color="#E5FF5D" stop-opacity="0"/></linearGradient><linearGradient id="c" x1="248" y1="309.341" x2="336" y2="309.341" gradientUnits="userSpaceOnUse"><stop stop-color="#5DFFFF" stop-opacity="0"/><stop offset=".46" stop-color="#5DFFFF"/><stop offset="1" stop-color="#5DFFFF" stop-opacity="0"/></linearGradient><linearGradient id="e" x1="189.037" y1="325.267" x2="414.828" y2="276.728" gradientUnits="userSpaceOnUse"><stop stop-color="#5DA8FF" stop-opacity=".3"/><stop offset="1" stop-color="#899938"/></linearGradient><linearGradient id="f" x1="464" y1="441.692" x2="347.714" y2="408.495" gradientUnits="userSpaceOnUse"><stop stop-color="#E5FF5D"/><stop offset="1" stop-color="#5DFFFF"/></linearGradient><filter id="a" x="105.5" y="395.5" width="116.854" height="115.853" filterUnits="userSpaceOnUse" color-interpolation-filters="sRGB"><feFlood flood-opacity="0" result="BackgroundImageFix"/><feColorMatrix in="SourceAlpha" values="0 0 0 0 0 0 0 0 0 0 0 0 0 0 0 0 0 0 127 0" result="hardAlpha"/><feOffset/><feGaussianBlur stdDeviation="23"/><feComposite in2="hardAlpha" operator="out"/><feColorMatrix values="0 0 0 0 1 0 0 0 0 1 0 0 0 0 1 0 0 0 0.2 0"/><feBlend in2="BackgroundImageFix" result="effect1_dropShadow_85_31235"/><feBlend in="SourceGraphic" in2="effect1_dropShadow_85_31235" result="shape"/></filter><filter id="d" x="34" y="27" width="507" height="507" filterUnits="userSpaceOnUse" color-interpolation-filters="sRGB"><feFlood flood-opacity="0" result="BackgroundImageFix"/><feBlend in="SourceGraphic" in2="BackgroundImageFix" result="shape"/><feGaussianBlur stdDeviation="64" result="effect1_foregroundBlur_85_31235"/></filter></defs></svg>