<svg width="41" height="30" viewBox="0 0 41 30" fill="none" xmlns="http://www.w3.org/2000/svg">
<path d="M8.832 29.664C6.208 29.664 4.08 28.784 2.448 27.024C0.816 25.264 0 22.88 0 19.872C0 16.384 1.232 12.928 3.696 9.504C6.192 6.048 9.92 2.88 14.88 0L18.912 5.424C16.352 6.576 14.096 8.016 12.144 9.744C10.192 11.44 8.832 13.104 8.064 14.736C10.464 14.576 12.512 15.168 14.208 16.512C15.936 17.856 16.8 19.648 16.8 21.888C16.8 24.192 16.048 26.064 14.544 27.504C13.04 28.944 11.136 29.664 8.832 29.664ZM30.336 29.664C27.712 29.664 25.584 28.784 23.952 27.024C22.32 25.264 21.504 22.88 21.504 19.872C21.504 16.384 22.736 12.928 25.2 9.504C27.696 6.048 31.424 2.88 36.384 0L40.416 5.424C37.856 6.576 35.6 8.016 33.648 9.744C31.696 11.44 30.336 13.104 29.568 14.736C31.968 14.576 34.016 15.168 35.712 16.512C37.44 17.856 38.304 19.648 38.304 21.888C38.304 24.192 37.552 26.064 36.048 27.504C34.544 28.944 32.64 29.664 30.336 29.664Z" fill="url(#paint0_linear_749_12293)"/>
<defs>
<linearGradient id="paint0_linear_749_12293" x1="40.416" y1="25.1003" x2="-1.94238" y2="21.2237" gradientUnits="userSpaceOnUse">
<stop stop-color="#E5FF5D"/>
<stop offset="1" stop-color="#5DFFFF"/>
</linearGradient>
</defs>
</svg>
