<svg width="127" height="126" viewBox="0 0 127 126" fill="none" xmlns="http://www.w3.org/2000/svg">
<g filter="url(#filter0_d_641_1507)">
<ellipse cx="63.5" cy="59.0002" rx="31.5" ry="31" fill="#A1FFF9"/>
</g>
<circle cx="63.5" cy="59" r="32" fill="#A1FFF9"/>
<path d="M74.1667 48.3333H52.8334C51.3667 48.3333 50.1667 49.5333 50.1667 51V67C50.1667 68.4667 51.3667 69.6667 52.8334 69.6667H74.1667C75.6334 69.6667 76.8334 68.4667 76.8334 67V51C76.8334 49.5333 75.6334 48.3333 74.1667 48.3333ZM58.1667 57.6667H52.8334V51H58.1667V57.6667ZM66.1667 57.6667H60.8334V51H66.1667V57.6667ZM74.1667 57.6667H68.8334V51H74.1667V57.6667ZM58.1667 67H52.8334V60.3333H58.1667V67ZM66.1667 67H60.8334V60.3333H66.1667V67ZM74.1667 67H68.8334V60.3333H74.1667V67Z" fill="#0D0D0D"/>
<defs>
<filter id="filter0_d_641_1507" x="0" y="0.000244141" width="127" height="126" filterUnits="userSpaceOnUse" color-interpolation-filters="sRGB">
<feFlood flood-opacity="0" result="BackgroundImageFix"/>
<feColorMatrix in="SourceAlpha" type="matrix" values="0 0 0 0 0 0 0 0 0 0 0 0 0 0 0 0 0 0 127 0" result="hardAlpha"/>
<feOffset dy="4"/>
<feGaussianBlur stdDeviation="16"/>
<feComposite in2="hardAlpha" operator="out"/>
<feColorMatrix type="matrix" values="0 0 0 0 0.631373 0 0 0 0 1 0 0 0 0 0.976471 0 0 0 1 0"/>
<feBlend mode="normal" in2="BackgroundImageFix" result="effect1_dropShadow_641_1507"/>
<feBlend mode="normal" in="SourceGraphic" in2="effect1_dropShadow_641_1507" result="shape"/>
</filter>
</defs>
</svg>
