<svg width="868" height="445" fill="none" xmlns="http://www.w3.org/2000/svg"><path d="M434.771 331.453h-.5v.002l.5-.002Zm.229 56.119h.5v-.002l-.5.002Zm0 51.401a2.667 2.667 0 1 0 0 5.334 2.667 2.667 0 0 0 0-5.334Zm430.25-123.64a2.667 2.667 0 1 0 0 5.334 2.667 2.667 0 0 0 0-5.334Zm-862.5-94.5a2.667 2.667 0 1 0 0 5.334 2.667 2.667 0 0 0 0-5.334Zm48-103.354v-.5.5ZM482.771 198.5v-.5.5Zm-48.5 132.955.229 56.119 1-.004-.229-56.12-1 .005Zm.229 56.117v54.068h1v-54.068h-1Zm-.229-321.11v264.991h1V66.463h-1Zm0 0V150.5h1V66.462h-1ZM482.771 199H817.25v-1H482.771v1Zm381.979 47.5V318h1v-71.5h-1ZM434.271 0v46h1V0h-1Zm0 46v20.462h1V46h-1ZM2.251 165.479V223.5h1v-58.021h-1Zm432.02-99.017v3.017h1v-3.017h-1Zm-47.5 50.517H50.751v1h336.02v-1Zm-383.52 48.5c0-26.233 21.266-47.5 47.5-47.5v-1c-26.786 0-48.5 21.715-48.5 48.5h1Zm431.02-96c0 26.234-21.266 47.5-47.5 47.5v1c26.786 0 48.5-21.714 48.5-48.5h-1ZM817.25 199c26.233 0 47.5 21.266 47.5 47.5h1c0-26.786-21.715-48.5-48.5-48.5v1Zm-382.979-48.5c0 26.786 21.714 48.5 48.5 48.5v-1c-26.234 0-47.5-21.266-47.5-47.5h-1Z" fill="url(#a)"/><defs><linearGradient id="a" x1="135.443" y1="441.64" x2="151.477" y2="-24.55" gradientUnits="userSpaceOnUse"><stop stop-color="#E5FF5D"/><stop offset="1" stop-color="#5DFFFF"/></linearGradient></defs></svg>