<svg width="129" height="128" fill="none" xmlns="http://www.w3.org/2000/svg"><g filter="url(#a)"><circle cx="64.5" cy="60" r="32" fill="#7DC1C1"/></g><path d="M74.333 64v5.333H55.667V64h18.666Zm1.334-2.667H54.333c-.733 0-1.333.6-1.333 1.334v8C53 71.4 53.6 72 54.333 72h21.334C76.4 72 77 71.4 77 70.667v-8c0-.734-.6-1.334-1.333-1.334Zm-17.334 7.334c-1.093 0-2-.894-2-2 0-1.107.907-2 2-2 1.094 0 2 .893 2 2 0 1.106-.893 2-2 2Zm16-18V56H55.667v-5.333h18.666ZM75.667 48H54.333C53.6 48 53 48.6 53 49.333v8c0 .734.6 1.334 1.333 1.334h21.334c.733 0 1.333-.6 1.333-1.334v-8C77 48.6 76.4 48 75.667 48Zm-17.334 7.333c-1.093 0-2-.893-2-2 0-1.106.907-2 2-2 1.094 0 2 .907 2 2 0 1.094-.893 2-2 2Z" fill="#fff"/><defs><filter id="a" x=".5" y="0" width="128" height="128" filterUnits="userSpaceOnUse" color-interpolation-filters="sRGB"><feFlood flood-opacity="0" result="BackgroundImageFix"/><feColorMatrix in="SourceAlpha" values="0 0 0 0 0 0 0 0 0 0 0 0 0 0 0 0 0 0 127 0" result="hardAlpha"/><feOffset dy="4"/><feGaussianBlur stdDeviation="16"/><feComposite in2="hardAlpha" operator="out"/><feColorMatrix values="0 0 0 0 0.364706 0 0 0 0 1 0 0 0 0 1 0 0 0 1 0"/><feBlend in2="BackgroundImageFix" result="effect1_dropShadow_2_1224"/><feBlend in="SourceGraphic" in2="effect1_dropShadow_2_1224" result="shape"/></filter></defs></svg>