<svg width="1920" height="578" viewBox="0 0 1920 578" fill="none" xmlns="http://www.w3.org/2000/svg">
<path opacity="0.2" d="M1022 183.86L1022 184.36L1022 183.86ZM1232.5 329.333C1231.03 329.333 1229.83 330.527 1229.83 332C1229.83 333.473 1231.03 334.667 1232.5 334.667C1233.97 334.667 1235.17 333.473 1235.17 332C1235.17 330.527 1233.97 329.333 1232.5 329.333ZM811 136.162L811 135.662L811 136.162ZM842 458.833C840.527 458.833 839.333 460.027 839.333 461.5C839.333 462.973 840.527 464.167 842 464.167C843.473 464.167 844.667 462.973 844.667 461.5C844.667 460.027 843.473 458.833 842 458.833ZM838.098 295.169L838.098 294.669L838.098 295.169ZM1508 257L1508.5 257L1508 257ZM1721 353L1721.5 353L1721 353ZM1508 231.86L1507.5 231.86L1508 231.86ZM960.66 106.127L960.66 135.86L961.66 135.86L961.66 106.127L960.66 106.127ZM1507.5 231.86L1507.5 257L1508.5 257L1508.5 231.86L1507.5 231.86ZM960.66 67L960.66 94.0808L961.66 94.0808L961.66 67L960.66 67ZM960.66 94.0808L960.66 106.127L961.66 106.127L961.66 94.0808L960.66 94.0808ZM232.5 264.162L232.5 487.5L233.5 487.5L233.5 264.162L232.5 264.162ZM1009.16 184.36L1022 184.36L1022 183.36L1009.16 183.36L1009.16 184.36ZM1022 184.36L1460 184.36L1460 183.36L1022 183.36L1022 184.36ZM1022 184.36L1110.93 184.36L1110.93 183.36L1022 183.36L1022 184.36ZM1164.07 237.5L1185 237.5L1185 236.5L1164.07 236.5L1164.07 237.5ZM1232 284.5L1232 332L1233 332L1233 284.5L1232 284.5ZM1556 305.5L1673 305.5L1673 304.5L1556 304.5L1556 305.5ZM1720.5 353L1720.5 489L1721.5 489L1721.5 353L1720.5 353ZM1769 537.5L1934 537.5L1934 536.5L1769 536.5L1769 537.5ZM185 535L-28 535L-28 536L185 536L185 535ZM931.126 135.662L811 135.662L811 136.662L931.126 136.662L931.126 135.662ZM811 135.662L361 135.662L361 136.662L811 136.662L811 135.662ZM811 136.662L838.08 136.662L838.08 135.662L811 135.662L811 136.662ZM885.58 184.162L885.58 247.169L886.58 247.169L886.58 184.162L885.58 184.162ZM838.098 294.669C812.591 294.669 783.09 294.669 760.408 294.669L760.408 295.669C783.09 295.669 812.591 295.669 838.098 295.669L838.098 294.669ZM760.415 369.5L794 369.5L794 368.5L760.415 368.5L760.415 369.5ZM841.5 417L841.5 461.5L842.5 461.5L842.5 417L841.5 417ZM794 369.5C820.234 369.5 841.5 390.766 841.5 417L842.5 417C842.5 390.214 820.786 368.5 794 368.5L794 369.5ZM723 332.085C723 352.749 739.751 369.5 760.415 369.5L760.415 368.5C740.304 368.5 724 352.196 724 332.085L723 332.085ZM760.408 294.669C739.744 294.669 723 311.421 723 332.085L724 332.085C724 311.973 740.297 295.669 760.408 295.669L760.408 294.669ZM885.58 247.169C885.58 273.403 864.332 294.669 838.098 294.669L838.098 295.669C864.884 295.669 886.58 273.955 886.58 247.169L885.58 247.169ZM838.08 136.662C864.314 136.662 885.58 157.928 885.58 184.162L886.58 184.162C886.58 157.376 864.866 135.662 838.08 135.662L838.08 136.662ZM1185 237.5C1210.96 237.5 1232 258.543 1232 284.5L1233 284.5C1233 257.99 1211.51 236.5 1185 236.5L1185 237.5ZM1137 210.43C1137 225.38 1149.12 237.5 1164.07 237.5L1164.07 236.5C1149.67 236.5 1138 224.828 1138 210.43L1137 210.43ZM1110.93 184.36C1125.33 184.36 1137 196.032 1137 210.43L1138 210.43C1138 195.48 1125.88 183.36 1110.93 183.36L1110.93 184.36ZM960.66 106.127C960.66 122.439 947.437 135.662 931.126 135.662L931.126 136.662C947.989 136.662 961.66 122.991 961.66 106.127L960.66 106.127ZM233.5 264.162C233.5 193.746 290.584 136.662 361 136.662L361 135.662C290.031 135.662 232.5 193.193 232.5 264.162L233.5 264.162ZM1720.5 489C1720.5 515.786 1742.21 537.5 1769 537.5L1769 536.5C1742.77 536.5 1721.5 515.234 1721.5 489L1720.5 489ZM1507.5 257C1507.5 283.786 1529.21 305.5 1556 305.5L1556 304.5C1529.77 304.5 1508.5 283.234 1508.5 257L1507.5 257ZM1673 305.5C1699.23 305.5 1720.5 326.766 1720.5 353L1721.5 353C1721.5 326.214 1699.79 304.5 1673 304.5L1673 305.5ZM1508.5 231.86C1508.5 205.074 1486.79 183.36 1460 183.36L1460 184.36C1486.23 184.36 1507.5 205.626 1507.5 231.86L1508.5 231.86ZM232.5 487.5C232.5 513.733 211.234 535 185 535L185 536C211.786 536 233.5 514.286 233.5 487.5L232.5 487.5ZM960.66 135.86C960.66 162.646 982.374 184.36 1009.16 184.36L1009.16 183.36C982.927 183.36 961.66 162.093 961.66 135.86L960.66 135.86Z" fill="url(#paint0_linear_737_1583)"/>
<path d="M960.771 0.333345C959.298 0.333345 958.104 1.52725 958.104 3.00001C958.104 4.47277 959.298 5.66668 960.771 5.66668C962.244 5.66668 963.438 4.47277 963.438 3.00001C963.438 1.52725 962.244 0.333345 960.771 0.333345ZM960.771 223.833C959.298 223.833 958.104 225.027 958.104 226.5C958.104 227.973 959.298 229.167 960.771 229.167C962.244 229.167 963.438 227.973 963.438 226.5C963.438 225.027 962.244 223.833 960.771 223.833ZM1391.25 223.833C1389.78 223.833 1388.58 225.027 1388.58 226.5C1388.58 227.973 1389.78 229.167 1391.25 229.167C1392.72 229.167 1393.92 227.973 1393.92 226.5C1393.92 225.027 1392.72 223.833 1391.25 223.833ZM528.75 223.833C527.277 223.833 526.084 225.027 526.084 226.5C526.084 227.973 527.277 229.167 528.75 229.167C530.223 229.167 531.417 227.973 531.417 226.5C531.417 225.027 530.223 223.833 528.75 223.833ZM719.5 120.479L719.5 119.979L719.5 120.479ZM746.5 572.333C745.027 572.333 743.833 573.527 743.833 575C743.833 576.473 745.027 577.667 746.5 577.667C747.973 577.667 749.167 576.473 749.167 575C749.167 573.527 747.973 572.333 746.5 572.333ZM1175 572.333C1173.53 572.333 1172.33 573.527 1172.33 575C1172.33 576.473 1173.53 577.667 1175 577.667C1176.47 577.667 1177.67 576.473 1177.67 575C1177.67 573.527 1176.47 572.333 1175 572.333ZM1130 171.5L1130 171L1130 171.5ZM1175 216.5L1175.5 216.5L1175 216.5ZM576.75 120.479L576.75 119.979L576.75 120.479ZM1008.77 171.5L1008.77 171L1008.77 171.5ZM960.271 69.4624L960.271 123.5L961.271 123.5L961.271 69.4624L960.271 69.4624ZM1390.75 219.5L1390.75 226.5L1391.75 226.5L1391.75 219.5L1390.75 219.5ZM960.271 3.00001L960.271 48.9999L961.271 48.9999L961.271 3.00001L960.271 3.00001ZM960.271 48.9999L960.271 69.4624L961.271 69.4624L961.271 48.9999L960.271 48.9999ZM528.25 168.479L528.25 226.5L529.25 226.5L529.25 168.479L528.25 168.479ZM960.271 69.4624L960.271 72.4794L961.271 72.4794L961.271 69.4624L960.271 69.4624ZM960.271 69.4624L960.271 171.957L961.271 171.957L961.271 69.4624L960.271 69.4624ZM960.271 171.957L960.271 226.5L961.271 226.5L961.271 171.957L960.271 171.957ZM719.5 119.979L576.75 119.979L576.75 120.979L719.5 120.979L719.5 119.979ZM747 575L747 156.761L746 156.761L746 575L747 575ZM912.771 119.979L782.781 119.979L782.781 120.979L912.771 120.979L912.771 119.979ZM782.781 119.979L719.5 119.979L719.5 120.979L782.781 120.979L782.781 119.979ZM1272 172L1343.25 172L1343.25 171L1272 171L1272 172ZM1175.5 575L1175.5 216.5L1174.5 216.5L1174.5 575L1175.5 575ZM1008.77 172L1130 172L1130 171L1008.77 171L1008.77 172ZM1130 172L1272 172L1272 171L1130 171L1130 172ZM1175.5 216.5C1175.5 191.371 1155.13 171 1130 171L1130 172C1154.58 172 1174.5 191.923 1174.5 216.5L1175.5 216.5ZM529.25 168.479C529.25 142.246 550.517 120.979 576.75 120.979L576.75 119.979C549.964 119.979 528.25 141.694 528.25 168.479L529.25 168.479ZM960.271 72.4794C960.271 98.7129 939.004 119.979 912.771 119.979L912.771 120.979C939.557 120.979 961.271 99.2652 961.271 72.4794L960.271 72.4794ZM1391.75 219.5C1391.75 192.714 1370.04 171 1343.25 171L1343.25 172C1369.48 172 1390.75 193.267 1390.75 219.5L1391.75 219.5ZM747 156.761C747 136.999 763.02 120.979 782.781 120.979L782.781 119.979C762.467 119.979 746 136.447 746 156.761L747 156.761ZM960.271 123.5C960.271 150.286 981.985 172 1008.77 172L1008.77 171C982.537 171 961.271 149.734 961.271 123.5L960.271 123.5Z" fill="url(#paint1_linear_737_1583)"/>
<defs>
<linearGradient id="paint0_linear_737_1583" x1="273.846" y1="537" x2="281.837" y2="40.4146" gradientUnits="userSpaceOnUse">
<stop stop-color="#E5FF5D"/>
<stop offset="1" stop-color="#5DFFFF"/>
</linearGradient>
<linearGradient id="paint1_linear_737_1583" x1="661.442" y1="444.64" x2="677.477" y2="-21.5505" gradientUnits="userSpaceOnUse">
<stop stop-color="#E5FF5D"/>
<stop offset="1" stop-color="#5DFFFF"/>
</linearGradient>
</defs>
</svg>
