<svg width="360" height="875" fill="none" xmlns="http://www.w3.org/2000/svg"><path opacity=".2" d="M178.58 364.522h-.5v.002l.5-.002Zm.277 61.718h.5v-.002l-.5.002Zm0 56.796a2.667 2.667 0 1 0 0 5.333 2.667 2.667 0 0 0 0-5.333Zm48.779-264.732v.5-.5Zm169.73 274.072a2.667 2.667 0 1 0 .001 5.333 2.667 2.667 0 0 0-.001-5.333ZM57.503 129.2v-.5.5Zm24.996 605.093a2.667 2.667 0 1 0 0 5.334 2.667 2.667 0 0 0 0-5.334ZM34.935 426.24v-.5.5Zm35.107 0v-.5.5Zm202.724-207.936v-.5.5ZM-280.55 129.2v-.5.5ZM791.254 830h.5-.5Zm0-337.396h.5-.5Zm-171.747-226.3h.5-.5Zm-48-48v-.5.5ZM178.08 364.524l.277 61.718 1-.004-.277-61.719-1 .005Zm.277 61.716v59.462h1V426.24h-1Zm-.277-353.147v291.429h1V73.093h-1Zm0 0v97.211h1v-97.21h-1Zm440.927 193.211v130.3h1v-130.3h-1ZM178.08 0v50.59h1V0h-1Zm0 50.59v22.503h1V50.59h-1ZM-409.05 257.2v569.998h1V257.2h-1ZM178.08 73.093V81.2h1v-8.107h-1Zm48.5 145.711h1.056v-1h-1.056v1Zm1.056 0h343.871v-1H227.636v1Zm0 0h45.13v-1h-45.13v1Zm92.63 47.5v12.97h1v-12.97h-1Zm76.6 89.571v139.168h1V355.875h-1Zm270.641 89.229h75.747v-1h-75.747v1Zm123.247 47.5V830h1V492.604h-1Zm48.5 385.896H963v-1H839.254v1Zm-1295.804-3.802H-619v1h162.45v-1ZM130.58 128.7H57.503v1h73.077v-1Zm-73.077 0H-280.55v1H57.503v-1Zm0 1H70.04v-1H57.503v1Zm60.038 47.5v201.04h1V177.2h-1ZM70.042 425.74H34.935v1h35.107v-1Zm-83.593 48.5v42.148h1V474.24h-1ZM82 611.936V736.96h1V611.936h-1Zm-47.275-47.274c26.109 0 47.275 21.165 47.275 47.274h1c0-26.661-21.614-48.274-48.275-48.274v1Zm-48.274-48.274c0 26.661 21.613 48.274 48.274 48.274v-1c-26.109 0-47.274-21.166-47.274-47.274h-1Zm48.485-90.648c-26.786 0-48.486 21.715-48.486 48.5h1c0-26.234 21.253-47.5 47.486-47.5v-1Zm82.606-47.5c0 26.234-21.265 47.5-47.499 47.5v1c26.786 0 48.499-21.714 48.499-48.5h-1Zm-47.5-248.54c26.234 0 47.5 21.267 47.5 47.5h1c0-26.785-21.714-48.5-48.5-48.5v1Zm289.025 188.375c20.877 0 37.8 16.923 37.8 37.8h1c0-21.429-17.371-38.8-38.8-38.8v1Zm-38.8-38.801c0 21.429 17.371 38.801 38.8 38.801v-1c-20.876 0-37.8-16.924-37.8-37.801h-1Zm-47.5-60.47c26.233 0 47.5 21.267 47.5 47.5h1c0-26.785-21.714-48.5-48.5-48.5v1ZM178.08 81.2c0 26.234-21.267 47.5-47.5 47.5v1c26.785 0 48.5-21.714 48.5-48.5h-1Zm-586.13 176c0-70.416 57.083-127.5 127.5-127.5v-1c-70.969 0-128.5 57.532-128.5 128.5h1ZM790.754 830c0 26.786 21.714 48.5 48.5 48.5v-1c-26.234 0-47.5-21.266-47.5-47.5h-1ZM619.007 396.604c0 26.786 21.715 48.5 48.5 48.5v-1c-26.233 0-47.5-21.266-47.5-47.5h-1Zm124.247 48.5c26.233 0 47.5 21.267 47.5 47.5h1c0-26.785-21.714-48.5-48.5-48.5v1Zm-123.247-178.8c0-26.785-21.714-48.5-48.5-48.5v1c26.234 0 47.5 21.267 47.5 47.5h1ZM-409.05 827.198c0 26.234-21.267 47.5-47.5 47.5v1c26.785 0 48.5-21.714 48.5-48.5h-1Zm587.13-656.894c0 26.786 21.714 48.5 48.5 48.5v-1c-26.234 0-47.5-21.266-47.5-47.5h-1Z" fill="url(#a)"/><defs><linearGradient id="a" x1="-375.615" y1="878" x2="-341.071" y2="-48.616" gradientUnits="userSpaceOnUse"><stop stop-color="#E5FF5D"/><stop offset="1" stop-color="#5DFFFF"/></linearGradient></defs></svg>