<svg width="1962" height="535" fill="none" xmlns="http://www.w3.org/2000/svg"><path d="M988.771 331.453h-.5v.002l.5-.002Zm.229 56.119h.5v-.002l-.5.002Zm0 51.401a2.667 2.667 0 1 0 0 5.334 2.667 2.667 0 0 0 0-5.334Zm430.25-123.64a2.671 2.671 0 0 0-2.67 2.667c0 1.473 1.2 2.667 2.67 2.667s2.67-1.194 2.67-2.667c0-1.473-1.2-2.667-2.67-2.667Zm-862.5-94.5a2.667 2.667 0 1 0 .001 5.333 2.667 2.667 0 0 0-.001-5.333Zm48-103.354v-.5.5Zm432.02 81.021v-.5.5Zm-48.499 132.955.229 56.119 1-.004-.229-56.12-1 .005Zm.229 56.117v54.068h1v-54.068h-1Zm-.229-321.11v264.991h1V66.463h-1Zm0 0V150.5h1V66.462h-1ZM1036.77 199h334.48v-1h-334.48v1Zm381.98 47.5V318h1v-71.5h-1ZM988.271 0v46h1V0h-1Zm0 46v20.462h1V46h-1ZM556.25 165.479V223.5h1v-58.021h-1Zm432.021-99.017v3.017h1v-3.017h-1Zm-47.5 50.517H604.75v1h336.021v-1Zm-383.521 48.5c0-26.233 21.267-47.5 47.5-47.5v-1c-26.785 0-48.5 21.715-48.5 48.5h1Zm431.021-96c0 26.234-21.266 47.5-47.5 47.5v1c26.786 0 48.5-21.714 48.5-48.5h-1ZM1371.25 199c26.23 0 47.5 21.266 47.5 47.5h1c0-26.786-21.71-48.5-48.5-48.5v1Zm-382.979-48.5c0 26.786 21.719 48.5 48.499 48.5v-1c-26.23 0-47.499-21.267-47.499-47.5h-1Z" fill="url(#a)"/><path opacity=".2" d="M989.16 259.131h-.5v.005l.5-.005Zm.344 33.038h.5v-.005l-.5.005Zm0 29.164a2.666 2.666 0 1 0 0 5.332 2.666 2.666 0 0 0 0-5.332ZM1050 180.86v.5-.5Zm210.5 145.473a2.671 2.671 0 0 0-2.67 2.667c0 1.473 1.2 2.667 2.67 2.667s2.67-1.194 2.67-2.667c0-1.473-1.2-2.667-2.67-2.667ZM839 133.162v-.5.5Zm31 322.671a2.667 2.667 0 1 0 0 5.334 2.667 2.667 0 0 0 0-5.334Zm-3.902-163.664v-.5.5ZM1536 254h.5-.5Zm213 96h.5-.5Zm-213-121.14h-.5.5Zm-547.34 30.276.344 33.039 1-.011-.344-33.038-1 .01Zm.344 33.033V324h1v-31.831h-1Zm-.344-189.042v156.004h1V103.127h-1Zm0 0v29.733h1v-29.733h-1ZM1535.5 228.86V254h1v-25.14h-1ZM988.66 64v27.08h1V64h-1Zm0 27.08v12.047h1V91.081h-1ZM260.5 261.163V484.5h1V261.162h-1Zm776.66-79.802H1050v-1h-12.84v1Zm12.84 0h438v-1h-438v1Zm0 0h88.93v-1H1050v1Zm142.07 53.14H1213v-1h-20.93v1Zm67.93 47V329h1v-47.5h-1Zm324 21h117v-1h-117v1Zm164.5 47.5v136h1V350h-1Zm48.5 184.5h165v-1h-165v1ZM213 532H0v1h213v-1Zm746.126-399.338H839v1h120.126v-1Zm-120.126 0H389v1h450v-1Zm0 1h27.08v-1H839v1Zm74.58 47.5v63.007h1v-63.007h-1Zm-47.482 110.507h-77.69v1h77.69v-1ZM788.415 366.5H822v-1h-33.585v1ZM869.5 414v44.5h1V414h-1ZM822 366.5c26.234 0 47.5 21.266 47.5 47.5h1c0-26.786-21.714-48.5-48.5-48.5v1Zm-71-37.415c0 20.664 16.751 37.415 37.415 37.415v-1c-20.111 0-36.415-16.304-36.415-36.415h-1Zm37.408-37.416c-20.664 0-37.408 16.752-37.408 37.416h1c0-20.112 16.297-36.416 36.408-36.416v-1Zm125.172-47.5c0 26.234-21.248 47.5-47.482 47.5v1c26.786 0 48.482-21.714 48.482-48.5h-1Zm-47.5-110.507c26.234 0 47.5 21.266 47.5 47.5h1c0-26.786-21.714-48.5-48.5-48.5v1ZM1213 234.5c25.96 0 47 21.043 47 47h1c0-26.51-21.49-48-48-48v1Zm-48-27.07c0 14.95 12.12 27.07 27.07 27.07v-1c-14.4 0-26.07-11.672-26.07-26.07h-1Zm-26.07-26.07c14.4 0 26.07 11.672 26.07 26.07h1c0-14.95-12.12-27.07-27.07-27.07v1Zm-150.27-78.233c0 16.312-13.223 29.535-29.534 29.535v1c16.863 0 30.534-13.671 30.534-30.535h-1ZM261.5 261.162c0-70.416 57.084-127.5 127.5-127.5v-1c-70.969 0-128.5 57.531-128.5 128.5h1ZM1748.5 486c0 26.786 21.71 48.5 48.5 48.5v-1c-26.23 0-47.5-21.266-47.5-47.5h-1Zm-213-232c0 26.786 21.71 48.5 48.5 48.5v-1c-26.23 0-47.5-21.266-47.5-47.5h-1Zm165.5 48.5c26.23 0 47.5 21.266 47.5 47.5h1c0-26.786-21.71-48.5-48.5-48.5v1Zm-164.5-73.64c0-26.786-21.71-48.5-48.5-48.5v1c26.23 0 47.5 21.266 47.5 47.5h1ZM260.5 484.5c0 26.233-21.266 47.5-47.5 47.5v1c26.786 0 48.5-21.714 48.5-48.5h-1Zm728.16-351.64c0 26.786 21.71 48.5 48.5 48.5v-1c-26.23 0-47.5-21.267-47.5-47.5h-1Z" fill="url(#b)"/><defs><linearGradient id="a" x1="689.443" y1="441.64" x2="705.477" y2="-24.55" gradientUnits="userSpaceOnUse"><stop stop-color="#E5FF5D"/><stop offset="1" stop-color="#5DFFFF"/></linearGradient><linearGradient id="b" x1="301.846" y1="534" x2="309.837" y2="37.415" gradientUnits="userSpaceOnUse"><stop stop-color="#E5FF5D"/><stop offset="1" stop-color="#5DFFFF"/></linearGradient></defs></svg>