<svg width="1920" height="471" fill="none" xmlns="http://www.w3.org/2000/svg"><path opacity=".2" d="M961.16 195.131h-.5v.005l.5-.005Zm.344 33.038h.5v-.005l-.5.005Zm0 29.164a2.666 2.666 0 1 0 0 5.332 2.666 2.666 0 0 0 0-5.332ZM1022 116.86v.5-.5Zm210.5 145.473a2.671 2.671 0 0 0-2.67 2.667c0 1.473 1.2 2.667 2.67 2.667s2.67-1.194 2.67-2.667c0-1.473-1.2-2.667-2.67-2.667ZM811 69.162v-.5.5Zm31 322.671a2.667 2.667 0 1 0 0 5.334 2.667 2.667 0 0 0 0-5.334Zm-3.902-163.664v-.5.5ZM1508 190h.5-.5Zm213 96h.5-.5Zm-213-121.14h-.5.5Zm-547.34 30.276.344 33.039 1-.011-.344-33.038-1 .01Zm.344 33.033V260h1v-31.831h-1Zm-.344-189.042v156.004h1V39.127h-1Zm0 0V68.86h1V39.127h-1ZM1507.5 164.86V190h1v-25.14h-1ZM960.66 0v27.08h1V0h-1Zm0 27.08v12.047h1V27.081h-1ZM232.5 197.163V420.5h1V197.162h-1Zm776.66-79.802H1022v-1h-12.84v1Zm12.84 0h438v-1h-438v1Zm0 0h88.93v-1H1022v1Zm142.07 53.14H1185v-1h-20.93v1Zm67.93 47V265h1v-47.5h-1Zm324 21h117v-1h-117v1Zm164.5 47.5v136h1V286h-1Zm48.5 184.5h165v-1h-165v1ZM185 468H-28v1h213v-1ZM931.126 68.662H811v1h120.126v-1Zm-120.126 0H361v1h450v-1Zm0 1h27.08v-1H811v1Zm74.58 47.5v63.007h1v-63.007h-1Zm-47.482 110.507h-77.69v1h77.69v-1ZM760.415 302.5H794v-1h-33.585v1ZM841.5 350v44.5h1V350h-1ZM794 302.5c26.234 0 47.5 21.266 47.5 47.5h1c0-26.786-21.714-48.5-48.5-48.5v1Zm-71-37.415c0 20.664 16.751 37.415 37.415 37.415v-1c-20.111 0-36.415-16.304-36.415-36.415h-1Zm37.408-37.416c-20.664 0-37.408 16.752-37.408 37.416h1c0-20.112 16.297-36.416 36.408-36.416v-1Zm125.172-47.5c0 26.234-21.248 47.5-47.482 47.5v1c26.786 0 48.482-21.714 48.482-48.5h-1Zm-47.5-110.507c26.234 0 47.5 21.266 47.5 47.5h1c0-26.786-21.714-48.5-48.5-48.5v1ZM1185 170.5c25.96 0 47 21.043 47 47h1c0-26.51-21.49-48-48-48v1Zm-48-27.07c0 14.95 12.12 27.07 27.07 27.07v-1c-14.4 0-26.07-11.672-26.07-26.07h-1Zm-26.07-26.07c14.4 0 26.07 11.672 26.07 26.07h1c0-14.95-12.12-27.07-27.07-27.07v1ZM960.66 39.127c0 16.312-13.223 29.535-29.534 29.535v1c16.863 0 30.534-13.67 30.534-30.535h-1ZM233.5 197.162c0-70.416 57.084-127.5 127.5-127.5v-1c-70.969 0-128.5 57.531-128.5 128.5h1ZM1720.5 422c0 26.786 21.71 48.5 48.5 48.5v-1c-26.23 0-47.5-21.266-47.5-47.5h-1Zm-213-232c0 26.786 21.71 48.5 48.5 48.5v-1c-26.23 0-47.5-21.266-47.5-47.5h-1Zm165.5 48.5c26.23 0 47.5 21.266 47.5 47.5h1c0-26.786-21.71-48.5-48.5-48.5v1Zm-164.5-73.64c0-26.786-21.71-48.5-48.5-48.5v1c26.23 0 47.5 21.266 47.5 47.5h1ZM232.5 420.5c0 26.233-21.266 47.5-47.5 47.5v1c26.786 0 48.5-21.714 48.5-48.5h-1ZM960.66 68.86c0 26.786 21.714 48.5 48.5 48.5v-1c-26.233 0-47.5-21.267-47.5-47.5h-1Z" fill="url(#a)"/><defs><linearGradient id="a" x1="273.846" y1="470" x2="281.837" y2="-26.585" gradientUnits="userSpaceOnUse"><stop stop-color="#E5FF5D"/><stop offset="1" stop-color="#5DFFFF"/></linearGradient></defs></svg>