<?xml version="1.0" standalone="no"?>
<!DOCTYPE svg PUBLIC "-//W3C//DTD SVG 20010904//EN"
 "http://www.w3.org/TR/2001/REC-SVG-20010904/DTD/svg10.dtd">
<svg version="1.0" xmlns="http://www.w3.org/2000/svg"
 width="120.000000pt" height="120.000000pt" viewBox="0 0 120.000000 120.000000"
 preserveAspectRatio="xMidYMid meet">
<metadata>
Created by potrace 1.14, written by Peter Selinger 2001-2017
</metadata>
<g transform="translate(0.000000,120.000000) scale(0.100000,-0.100000)"
fill="#000000" stroke="none">
<path d="M175 1191 c-74 -24 -139 -87 -163 -160 -8 -24 -12 -156 -12 -430 1
-440 3 -457 67 -524 69 -73 58 -72 538 -72 l430 0 45 28 c53 34 93 86 109 142
9 28 11 157 9 445 -3 446 -2 440 -69 508 -66 68 -60 67 -519 68 -228 1 -424
-1 -435 -5z"/>
</g>
</svg>
