<?xml version="1.0" standalone="no"?>
<!DOCTYPE svg PUBLIC "-//W3C//DTD SVG 20010904//EN"
 "http://www.w3.org/TR/2001/REC-SVG-20010904/DTD/svg10.dtd">
<svg version="1.0" xmlns="http://www.w3.org/2000/svg"
 width="120.000000pt" height="120.000000pt" viewBox="0 0 120.000000 120.000000"
 preserveAspectRatio="xMidYMid meet">
<metadata>
Created by potrace 1.14, written by Peter Selinger 2001-2017
</metadata>
<g transform="translate(0.000000,120.000000) scale(0.100000,-0.100000)"
fill="#000000" stroke="none">
<path d="M376 1070 c-53 -16 -105 -61 -131 -113 l-25 -51 0 -302 c0 -188 4
-313 11 -331 21 -56 61 -102 112 -128 49 -24 59 -25 224 -25 l173 0 0 75 0 75
-45 0 c-35 0 -52 6 -70 25 -35 34 -34 86 1 114 64 50 171 9 162 -63 -4 -32 -3
-33 28 -26 72 16 134 84 134 147 0 11 6 26 14 32 7 6 16 34 20 61 8 60 -9 100
-54 127 -17 10 -39 32 -50 50 -10 18 -36 45 -57 60 -21 15 -46 41 -54 58 -9
17 -33 39 -59 53 l-44 22 37 0 37 0 0 75 0 75 -167 -1 c-93 0 -181 -5 -197 -9z
m319 -199 c17 -9 36 -30 43 -47 8 -16 32 -40 54 -53 24 -14 45 -36 54 -57 8
-19 19 -34 24 -34 13 0 80 -60 80 -71 0 -5 -13 -9 -30 -9 -16 0 -30 -4 -30
-10 0 -5 9 -10 19 -10 25 0 34 -15 27 -44 -6 -24 -43 -46 -76 -46 -25 0 -25 9
-2 26 15 12 14 13 -11 14 -42 0 -67 17 -67 45 0 36 -25 22 -47 -26 -16 -35
-21 -38 -48 -33 -52 10 -73 30 -77 71 l-4 38 -13 -30 c-12 -29 -11 -80 5 -120
6 -18 4 -17 -19 4 -15 13 -30 34 -34 45 -6 19 -8 18 -14 -9 -17 -76 -4 -204
28 -270 l15 -30 -26 30 c-13 17 -37 55 -53 85 -24 48 -28 66 -28 145 0 74 4
97 23 133 12 23 19 42 15 42 -13 -1 -59 -73 -74 -115 -14 -43 -17 -161 -6
-210 l8 -30 -21 25 c-40 50 -62 129 -57 203 2 37 2 67 0 67 -12 0 -43 -91 -44
-130 l-1 -45 -13 40 c-20 58 -18 143 4 190 30 68 87 104 181 117 l25 3 -25 15
c-15 8 -54 14 -99 14 l-74 0 53 24 c67 31 160 39 218 19 35 -12 42 -13 42 -1
0 8 -13 22 -30 33 -16 10 -27 21 -23 25 12 11 94 -3 128 -23z m215 -421 c0 -5
-11 -22 -25 -37 -20 -23 -24 -25 -25 -10 0 9 -11 22 -25 29 -13 6 -22 14 -20
19 7 10 95 9 95 -1z"/>
</g>
</svg>
