<svg width="160" height="36" fill="none" xmlns="http://www.w3.org/2000/svg"><path fill-rule="evenodd" clip-rule="evenodd" d="M19.54 17.593v5.33h5.435v4.219l-3.865 4.541h2.96l3.373-3.795v-7.204h-5.008v-3.091h-2.896Zm-17.628 5.33V35.5h2.84V20.684H.907v2.238h1.005Zm6.412 0v4.036h2.896v-6.275H6.59v2.238h1.734Zm6.214 4.036v-4.037h-1.733v-2.238h4.629v6.275h-2.896Zm16.969 4.908a7.717 7.717 0 0 1-1.024-.065c-.32-.042-.682-.107-1.088-.192l.01-2.165c.443.061.89.092 1.337.092a1.21 1.21 0 0 0 .945-.344c.206-.23.309-.586.309-1.07v-5.2H30.05v-2.239h4.841v7.67c0 1.106-.298 1.969-.894 2.586-.596.618-1.426.927-2.49.927Zm6.669-8.945v8.761h2.895V20.684h-3.863v2.238h.968Zm12.778 8.761-4.116-5.9a1.539 1.539 0 0 0-.32 1.02v4.88h-2.794v-3.642c0-1.125.197-2.007.59-2.646.313-.508.782-.913 1.406-1.215l-2.438-3.496h3.227l3.877 5.564c.085-.208.123-.433.112-.659v-4.88h2.794v3.642c0 1.125-.197 2.007-.59 2.646a3.11 3.11 0 0 1-1.073 1.035l2.544 3.651h-3.219Zm22.288-8.76v4.036h2.895v-6.275h-4.629v2.238h1.734Zm6.365 8.944a7.715 7.715 0 0 1-1.024-.065c-.32-.042-.682-.107-1.088-.192l.01-2.165c.442.061.89.092 1.337.092a1.21 1.21 0 0 0 .945-.344c.206-.23.309-.586.309-1.07v-5.2H78.15v-2.239h4.841v7.67c0 1.106-.298 1.969-.894 2.586-.596.618-1.426.927-2.49.927Zm6.334-8.945v8.761h2.896V20.684h-3.864v2.238h.968Zm13.243 6.517v-8.755h-7.672v2.238h4.777v6.514h-5.386v2.247h9.517v-2.242l-1.236-.002Zm23.023-8.73h4.384l.009 10.96h-2.876v-8.73h-3.437v8.73h-2.877l.01-10.96h4.787Zm-10.218 0v7.24a1.453 1.453 0 0 1-.409 1.11c-.273.254-.669.38-1.19.38h-.924v-8.73h-2.885v8.73h-.999c-.521 0-.917-.126-1.19-.38a1.453 1.453 0 0 1-.409-1.11v-7.24h-2.886v7.094c0 1.219.379 2.168 1.135 2.848.757.679 1.803 1.019 3.139 1.019h5.23c1.336 0 2.382-.34 3.139-1.02.756-.68 1.135-1.628 1.135-2.847v-7.094h-2.886Zm-51.372 0h8.86l.009 10.96H66.61l-.06-8.73h-3.107l-.002 5.385c0 1.115-.296 1.978-.887 2.587-.592.61-1.414.914-2.468.914a6.97 6.97 0 0 1-.707-.032c-.215-.021-.444-.05-.69-.087v-2.212a8.64 8.64 0 0 0 .607.018 1.352 1.352 0 0 0 .992-.338c.227-.225.34-.579.34-1.06l-.01-7.405Z" fill="url(#a)"/><path fill-rule="evenodd" clip-rule="evenodd" d="M138.977 0h-1.979v1.969h1.979V0Zm-7.348 2.886h3.299v3.282h-3.299V2.886Zm12.536 4.594H160v24.285h-24.412V19.95h4.619v-7.876h3.958V7.48Zm-.659 7.877h8.577v8.532h-8.577v-8.532Zm-3.299-7.877h-4.619v4.595h4.619V7.48Zm-8.578 4.595h3.959v3.938h-3.959v-3.938Z" fill="url(#b)"/><path d="M98.03 11.99V9.293h-.698V7.797h2.632v4.193H98.03Zm9.535-4.193h-6.15l-.006 7.35h1.929V9.293h2.305v5.854h1.929l-.007-7.35Zm2.286 7.35V9.293h-.647V7.797h2.582v7.35h-1.935Zm4.055 0V9.293h-.647V7.797h2.582v7.35h-1.935Zm4.069-3.157V9.293h-.877V7.797h2.812v4.193h-1.935Zm6.689 3.157v-4.855a.964.964 0 0 0-.275-.745 1.133 1.133 0 0 0-.798-.254h-2.231V7.797h2.373c.895 0 1.597.228 2.104.683.508.456.762 1.093.762 1.91v4.757h-1.935ZM95.89 7.797h-5.941l.008 4.966a.967.967 0 0 1-.229.71.903.903 0 0 1-.665.228 6.354 6.354 0 0 1-.407-.013v1.484c.164.024.319.044.462.058.144.014.302.022.475.022.706 0 1.258-.205 1.654-.613.397-.41.595-.987.595-1.735l.002-3.611h2.083l.04 5.854h1.93l-.007-7.35Z" fill="#fff"/><defs><linearGradient id="a" x1="63.753" y1="35.5" x2="63.753" y2="17.593" gradientUnits="userSpaceOnUse"><stop stop-color="#F54639"/><stop offset="1" stop-color="#FF8314"/></linearGradient><linearGradient id="b" x1="145.815" y1="31.765" x2="145.815" y2="0" gradientUnits="userSpaceOnUse"><stop stop-color="#F54639"/><stop offset="1" stop-color="#FF8314"/></linearGradient></defs></svg>