<svg width="636" height="543" fill="none" xmlns="http://www.w3.org/2000/svg"><g clip-path="url(#a)"><circle opacity=".1" cx="327.014" cy="282.706" r="260.387" fill="#B5E3FF"/><circle opacity=".4" cx="327.014" cy="282.706" r="206.45" fill="#B5E3FF"/><path opacity=".23" d="M259.671 491.826c-4.19-1.274-10.185 16.914-17.236 15.884l-11.701 8.384c10.651-.735 24.389-10.104 28.937-11.174 21.321-5.015 8.63-1.156 28.429 11.174 8.63 5.375 31.046.702 39.597 6.879 6.84 4.942 9.039 3.009 13.199 3.009 6.45-1.618 15.838-13.241 19.798-16.065 8.664-6.178 34.013 0 49.607 0 10.496 0 25.353 2.353 30.603 4.853l-1.8-12.354c-2.7.147-.791-2.38-8.353-7.525-5.076-3.455-5.041-11.334-12.691-13.54-7.651-2.206-118.605-1.765-133.006 0-14.402 1.765-18.784 12.48-25.383 10.475Z" fill="#070707"/><path d="M213.993 448.804a15.261 15.261 0 0 0-.947-6.352 15.229 15.229 0 0 0-3.476-5.396c-2.271-2.255-37.042-15.189-48.888-42.146-11.847-26.957-11.61-31.071-11.215-47.862.395-16.791 2.882-11.095 2.882-11.095s-35.777-30.042-31.591-47.842c4.186-17.8 56.588-19.777 56.588-19.777s41.089-44.5 87.213-51.857c46.124-7.357 93.966 9.058 93.966 9.058s34.079-8.326 41.148-7.318c7.069 1.009 21.581 5.558 24.898 11.867 3.317 6.309 5.923 20.924 4.66 27.886-1.264 6.962-5.548 27.689-5.548 27.689l5.923 3.204s29.815-1.246 52.501 17.186c22.687 18.433 17.771 53.4 3.949 68.549-13.821 15.15-18.895 16.534-18.895 16.534s12.597 35.343 10.326 45.805a250.064 250.064 0 0 1-8.056 28.163c-1.974 5.558-7.897 15.644-7.897 19.778 0 4.133-1.047 14.813-3.772 17.918-2.725 3.105-8.47 10.166-12.814 10.384-4.344.217-10.129 1.977-10.129-1.286s3.416-12.875 2.764-17.681c-.652-4.806-11.057-10.858-11.057-10.858s-18.995 10.7-28.255 10.601c-9.26-.099-36.548 2.591-36.548 2.591s-5.192 18.116-13.821 25.196c-8.628 7.081-17.948 0-17.948 0l5.074-10.244-6.239-10.225-4.383-5.301s-25.293-2.254-32.796-3.955-31.592-9.612-31.592-9.612-4.462 14.418-7.898 18.709c-3.436 4.292-17.533 15.269-21.107 14.833-3.574-.435-9.873-4.489-9.873-4.489l8.668-8.069-4.62-11.629-9.872-21.222-1.323-21.735Z" fill="#fff"/><path d="M160.116 361.982a99.008 99.008 0 0 1-.455-17.798c.514-10.165-12.034-28.438-6.6-42.875 4.229-11.272 25.076-18.391 34.62-29.545 14.543-17.008 36.457-32.472 69.298-42.143 34.067-10.026 63.233-7.159 87.3 1.978 17.784 6.803 47.247 7.91 59.518 18.945 14.721 13.23 11.085 36.724 17.784 47.661 4.861 7.91 7.548 14.1 8.022 16.611-48.471-20.606-88.92-13.329-137.826 30.752-65.564-17.62-110.459-4.232-131.661 16.414Z" fill="#B5E3FF"/><path d="M463.925 383.736s23.1-10.916 24.641-38.385c1.541-27.469-18.179-42.697-34.383-45.663-16.203-2.967-20.807 0-20.807 0s5.928 16.157 6.185 22.96c.257 6.803-1.798 33.283-1.798 33.283l4.406 5.933 21.756 21.872Z" fill="#1EA6F9"/><path d="M323.076 456.909s1.008-14.892 18.416-24.503c17.409-9.611 91.707-46.493 94.592-64.055 11.619 7.515 29.383 30.04 29.324 44.279-13.18 2.61-39.915 48.056-39.915 48.056v7.02s-27.19 8.643-37.545 10.66a75.723 75.723 0 0 1-22.704 0s-11.362-12.617-18.93-13.132c-7.568-.514-23.238-8.325-23.238-8.325Z" fill="#B5E3FF"/><path d="M219.396 458.985c3.418 3.401 15.511 30.158 15.511 36.605 0 6.447 0 11.49-3.774 14.516-3.774 3.025-2.154 4.805-1.759 4.805s9.584.495 9.88 0c.297-.494 10.117-10.54 10.414-10.936.296-.395 8.042-14.614 8.2-15.069.158-.455.672-7.001.672-7.001s-25.846-12.815-28.869-15.722a75.505 75.505 0 0 0-10.275-7.198Zm207.619-1.009s10.077-22.466 16.895-30.811a65.214 65.214 0 0 1 21.499-16.157 76.46 76.46 0 0 1 2.964 23.494c-.238 13.843-6.798 45.94-6.798 45.94l.119 12.933-6.165 13.29-10.098 7.277-7.904-1.7-2.529-5.3 3.023-5.3s-2.351-9.216-2.351-10.462c0-1.246-7.272-11.866-7.272-11.866l-1.383-21.338Zm-106.705-1.068s19.167.751 32.287 9.077c13.121 8.326 15.631 14.14 15.631 14.14s-14.643 37.08-19.069 40.501c-4.426 3.422-12.251 6.171-15.432 3.778-3.182-2.393-1.818-7.159-1.818-7.673 0-.515 3.537-1.266 3.537-4.549 0-3.283-12.37-21.061-13.654-44.476-.159-2.65-1.482-10.798-1.482-10.798ZM159.364 340.783s-34.304-38.741-28.751-50.31c6.481-13.587 58.134-19.203 58.134-19.203l1.146.89a91.217 91.217 0 0 0-8.576 10.6c-1.976 3.54-6.817 13.962-6.817 13.962s-20.175 3.204-20.175 4.469c0 1.266 10.592 12.459 10.71 13.547a73.614 73.614 0 0 0-3.399 13.072c-.514 4.944-1.976 14.595-1.976 14.595l-.296-1.622ZM340.09 235.555a41.158 41.158 0 0 1 15.808-5.814c19.345-2.947 50.487-3.639 58.015.474 13.378 7.337 6.541 65.775 6.541 65.775s-8.339-10.421-10.611-14.219c-2.272-3.797-15.808-10.105-15.808-10.105l7.074-15.406-10.888-5.794-14.168 4.726s-10.591-9.097-16.658-11.608l-19.305-8.029Zm-140.356 74.279c7.588 6.289 24.937-.218 32.802-6.862 7.864-6.645 16.638-21.22 8.299-29.289-8.339-8.068-23.198-1.265-33.039 6.566-9.84 7.831-17.152 22.07-8.062 29.585Zm112.176-49.797c1.976-11.965 20.609-14.377 33.592-10.857 12.982 3.52 23.712 14.199 21.993 20.864-1.719 6.664-12.548 15.049-25.412 14.1-12.863-.949-32.88-7.436-30.173-24.107Z" fill="#1EA6F9"/><path d="M441.38 516.632c-3.735 0-6.146-.989-7.371-2.986-1.976-3.283.218-7.614 1.976-11.095.532-.908.969-1.869 1.304-2.867.534-2.472-3.833-8.207-7.034-12.4l-.396-.514c-4.327-5.696-4.92-26.401-4.979-28.754a2.115 2.115 0 0 1 1.976-2.136 2.092 2.092 0 0 1 2.094 1.977c.198 8.326 1.483 22.842 4.111 26.302l.395.515c4.485 5.932 8.754 11.47 7.904 15.821a18.137 18.137 0 0 1-1.66 3.955c-1.027 1.977-2.944 5.715-2.174 6.981.139.217.83.969 3.794.969 10.453 0 18.357-13.389 18.595-22.426.237-9.453 6.224-20.528 9.109-25.848l.711-1.344c2.134-3.956 6.264-24.562 4.822-35.874-1.087-8.543-4.407-34.569-17.369-48.57-12.153-13.132-21.025-17.799-21.124-17.917a2.117 2.117 0 0 1 .366-3.89 2.109 2.109 0 0 1 1.61.152c.395.198 9.564 5.063 22.27 18.807 13.832 14.99 17.329 42.004 18.456 50.884 1.541 12.063-2.648 33.402-5.276 38.365l-.731 1.385c-2.727 5.023-8.398 15.504-8.616 23.949-.237 10.58-9.465 26.559-22.763 26.559Zm-224.75-74.378c-.19.028-.383.028-.573 0-1.581-.455-38.927-11.352-57.304-46.593-18.377-35.24-8.793-57.943-8.378-58.893a2.096 2.096 0 1 1 3.833 1.701c0 .218-9.149 21.754 8.26 55.235 17.408 33.481 54.34 44.397 54.716 44.496a2.116 2.116 0 0 1-.574 4.133l.02-.079Z" fill="#070707"/><path d="M160.629 346.162a2.154 2.154 0 0 1-1.225-.396c-1.976-1.364-45.981-33.421-40.172-58.24 5.928-25.215 71.136-19.539 73.883-19.282.275.026.542.106.787.235a2.114 2.114 0 0 1 1.11 2.059 2.11 2.11 0 0 1-1.476 1.815c-.264.081-.541.11-.816.084-17.784-1.642-65.208-1.978-69.397 16.058-5.178 22.09 38.097 53.534 38.532 53.85.355.263.619.631.754 1.053a2.114 2.114 0 0 1-1.98 2.764Zm264.863 39.434a2.094 2.094 0 0 1-1.6-3.441c.118-.158 12.725-15.623 15.156-46.79 2.43-31.167-14.86-48.669-15.038-48.847a2.1 2.1 0 0 1 0-2.967 2.098 2.098 0 0 1 2.964 0c.771.772 18.832 19.242 16.263 52.15-2.569 32.907-15.571 48.491-16.124 49.143a2.098 2.098 0 0 1-1.621.752Z" fill="#070707"/><path d="M175.767 271.805a2.151 2.151 0 0 1-1.343-.475 2.117 2.117 0 0 1-.277-2.966c.277-.317 27.921-33.402 78.684-49.441 57.66-18.213 105.875 5.399 106.349 5.637a2.131 2.131 0 0 1-1.976 3.777c-.454-.238-47.226-23.099-103.207-5.399-49.598 15.682-76.451 47.799-76.708 48.115a1.974 1.974 0 0 1-1.522.752Z" fill="#070707"/><path d="M421.461 300.262a1.766 1.766 0 0 1-.632 0 2.088 2.088 0 0 1-1.238-1.028 2.102 2.102 0 0 1-.145-1.602c5.118-16.395 15.097-60.93 0-69.751-30.786-17.956-79.159 8.821-79.633 9.097a2.084 2.084 0 0 1-1.692.34 2.1 2.1 0 0 1-1.619-1.894 2.097 2.097 0 0 1 1.335-2.104c1.976-1.167 50.941-28.26 83.822-9.077 21.124 12.32 2.747 72.103 1.976 74.654a2.094 2.094 0 0 1-2.174 1.365ZM167.426 317.19a1.975 1.975 0 0 1-1.146-.356c-3.616-2.393-15.156-10.659-12.35-16.77 3.004-6.565 17.784-5.517 20.768-5.26a2.099 2.099 0 0 1 1.813 1.477 2.109 2.109 0 0 1-.669 2.241 2.102 2.102 0 0 1-1.539.474c-5.928-.553-15.255 0-16.559 2.828-.79 1.701 4.485 7.298 10.848 11.51a2.1 2.1 0 0 1 .1 3.452c-.367.269-.811.41-1.266.404Z" fill="#070707"/><path d="M393.956 273.761a1.97 1.97 0 0 1-1.265-.435 2.103 2.103 0 0 1-.81-1.391 2.114 2.114 0 0 1 .052-.819c.072-.267.195-.517.363-.736 1.699-2.255 5.928-9.038 5.355-13.448a3.947 3.947 0 0 0-1.64-2.769c-5.316-3.856-15.472.257-18.95 2.176a2.118 2.118 0 0 1-1.486-.004 2.118 2.118 0 0 1-.49-3.694c.593-.317 14.859-8.089 23.435-1.978a8.177 8.177 0 0 1 3.34 5.557c1.008 6.941-5.454 15.643-6.185 16.612a2.136 2.136 0 0 1-1.719.929Zm-71.768 225.843c-6.204 0-19.028-1.384-43.59-8.563-68.587-20.073-69.911-51.615-69.931-52.94a2.096 2.096 0 1 1 4.189 0c0 .375 1.798 29.921 66.927 48.985 36.26 10.62 46.14 8.108 46.239 8.088a2.097 2.097 0 0 1 1.245 3.956 17.787 17.787 0 0 1-5.079.474Zm47.919.139c-4.703 0-7.904-.139-8.28-.158a2.116 2.116 0 0 1-1.976-2.196 2.155 2.155 0 0 1 2.194-1.977c.276 0 27.446 1.186 43.195-3.56 15.749-4.746 23.712-10.936 23.712-11.015a2.115 2.115 0 0 1 2.589 3.322c-.336.277-8.695 6.744-25.155 11.708-10.967 3.302-26.716 3.876-36.279 3.876Z" fill="#070707"/><path d="M231.251 518.906c-5.553 0-8.814-1.087-11.204-3.737-2.391-2.65 1.126-6.23 4.09-8.959a22.69 22.69 0 0 0 2.806-2.867c.731-1.246-2.095-6.863-4.841-12.301l-1.561-3.105c-4.881-9.789-8.379-37.12-8.517-38.286a2.114 2.114 0 0 1 .422-1.554 2.114 2.114 0 0 1 1.396-.8 2.09 2.09 0 0 1 1.552.422 2.114 2.114 0 0 1 .799 1.398c0 .276 3.537 27.785 8.122 36.941l1.541 3.085c4.406 8.741 6.619 13.132 4.683 16.355a20.201 20.201 0 0 1-3.557 3.797 26.492 26.492 0 0 0-3.379 3.5c1.265 1.148 3.221 1.978 7.648 1.978 3.952 0 20.076-7.91 26.715-32.769a2.1 2.1 0 0 1 1.723-1.937 2.085 2.085 0 0 1 1.738.478 2.088 2.088 0 0 1 .723 1.652c-.01.312-.089.618-.232.895-7.193 27.212-24.996 35.814-30.667 35.814Zm110.302 8.582a27.157 27.157 0 0 1-10.314-1.661 3.953 3.953 0 0 1-2.629-2.511c-.632-1.978.712-3.956 2.115-5.933a13.093 13.093 0 0 0 1.976-3.421c.395-1.484-1.818-6.111-3.597-9.889a80.868 80.868 0 0 1-4.446-10.481c-2.608-8.405-6.422-35.261-6.422-36.724a2.114 2.114 0 0 1 4.209 0c0 1.661 3.774 27.686 6.225 35.597a79.715 79.715 0 0 0 4.209 9.888c2.608 5.438 4.663 9.73 3.952 12.716a15.34 15.34 0 0 1-2.628 4.786 20.043 20.043 0 0 0-1.344 1.977 23.411 23.411 0 0 0 8.754 1.345c3.043-.356 17.211-9.453 24.68-44.793a2.098 2.098 0 0 1 3.815-.711c.304.467.41 1.036.295 1.582-8.477 39.67-25.214 48.233-28.85 48.233ZM467.739 393.13a2.092 2.092 0 0 1-2.052-1.587 2.101 2.101 0 0 1 1.064-2.368 55.107 55.107 0 0 0 27.072-34.133 46.97 46.97 0 0 0-6.778-38.049c-18.456-28.32-53.036-24.859-53.352-24.819a2.102 2.102 0 0 1-1.544-.444 2.1 2.1 0 0 1 1.07-3.729c.375 0 37.544-3.837 57.304 26.678a51.159 51.159 0 0 1 7.311 41.411 59.343 59.343 0 0 1-10.792 21.402 59.283 59.283 0 0 1-18.374 15.381 2.22 2.22 0 0 1-.929.257Z" fill="#070707"/><path d="M447.131 367.916a2.113 2.113 0 0 1-1.886-1.663 2.122 2.122 0 0 1 1.036-2.292s9.425-4.39 14.524-19.025c4.505-12.953-7.351-20.033-7.904-20.329a2.106 2.106 0 0 1 .519-3.854 2.098 2.098 0 0 1 1.595.215c.158 0 15.353 9.176 9.722 25.353-5.632 16.177-16.362 21.298-16.796 21.496a2.18 2.18 0 0 1-.81.099Z" fill="#070707"/><path d="M260.397 362.893s-.633 13.566 4.92 13.843a85.349 85.349 0 0 0 15.512-1.78l9.149-6.506 3.754-3.777 3.201 1.977 11.145 4.786s1.976 1.009 8.635-.89c6.659-1.898 11.658-14.555 11.658-14.555l-4.92-6.862-61.256 6.921-1.798 6.843Z" fill="#fff"/><path d="M280.829 377.013a2.116 2.116 0 0 1-.494-4.153c7.588-1.819 10.987-12.894 11.026-13.013l1.542-5.141 2.371 4.825s4.703 9.374 12.883 9.75a2.078 2.078 0 0 1 1.455.676 2.098 2.098 0 0 1-1.632 3.516c-6.857-.316-11.58-4.984-14.168-8.425-1.976 4.173-5.928 10.324-12.489 11.866l-.494.099Z" fill="#070707"/><path d="M278.181 348.911c0-3.956 2.825-9.671 13.298-9.73 10.473-.059 13.318 3.797 13.318 6.704 0 6.684-8.457 11.233-8.457 11.233v4.865h-5.809l-.178-3.956s-12.172-3.045-12.172-9.116Z" fill="#070707"/><path d="M285.494 348.14c.257-1.582 4.229-2.888 6.245-2.67 2.015.217 6.56-.771 6.738.771.178 1.543-2.925 4.509-6.541 4.608-3.616.099-6.896.119-6.442-2.709Z" fill="#4B4B4B"/><path d="M231.251 360.322c11.667 0 21.124-9.465 21.124-21.141 0-11.675-9.457-21.14-21.124-21.14-11.666 0-21.123 9.465-21.123 21.14 0 11.676 9.457 21.141 21.123 21.141Zm117.061-22.782c11.982 0 21.696-9.722 21.696-21.714 0-11.993-9.714-21.714-21.696-21.714-11.983 0-21.697 9.721-21.697 21.714 0 11.992 9.714 21.714 21.697 21.714Z" fill="#000100"/><path d="M215.82 341.139c1.601-5.933 9.604-7.159 16.855-3.738 7.252 3.421 12.015 7.476 10.039 12.558-1.977 5.082-12.173 4.726-16.006 3.461-3.834-1.266-12.548-6.131-10.888-12.281Zm116.07-24.226c1.699-6.249 10.196-7.594 17.903-3.955 7.706 3.639 12.745 7.91 10.651 13.349-2.095 5.438-12.924 5.023-16.994 3.658-4.071-1.364-13.338-6.526-11.56-13.052Z" fill="#4B4B4B"/><path d="M225.522 342.405a4.052 4.052 0 0 0 4.051-4.054 4.052 4.052 0 0 0-4.051-4.054 4.052 4.052 0 0 0-4.05 4.054 4.052 4.052 0 0 0 4.05 4.054Zm13.496-1.622a6.485 6.485 0 0 0 6.482-6.487 6.485 6.485 0 0 0-6.482-6.487 6.485 6.485 0 0 0-6.481 6.487 6.485 6.485 0 0 0 6.481 6.487Zm106.465-22.051a3.992 3.992 0 0 0 3.991-3.994 3.993 3.993 0 1 0-7.983 0 3.993 3.993 0 0 0 3.992 3.994Zm13.32-1.601a6.405 6.405 0 0 0 6.402-6.408 6.404 6.404 0 0 0-6.402-6.407 6.405 6.405 0 0 0-6.403 6.407 6.406 6.406 0 0 0 6.403 6.408Z" fill="#fff"/><path d="M229.375 367.599c3.063 6.704-2.905 18.293-19.246 22.96-11.343 3.244-28.613 1.009-31.617-7.791-2.647-7.911 8.3-18.016 19.484-21.754 15.353-5.082 28.336-.138 31.379 6.585Zm187.265-31.562c0 10.343-14.543 16.671-26.478 17.66-11.935.988-25.688-5.518-26.479-12.914-1.126-10.818 12.094-18.708 26.202-19.321 12.923-.574 26.755 3.975 26.755 14.575Z" fill="#FFDCD9"/><path d="M153.746 92.974c-5.147 46.036 67.153 67.277 109.26 71.426 58.892 6.584 75.826 3.439 90.579 2.569l-9.661 26.474 43.032-32.821c20.18-4.462 108.61-10.952 106.683-62.817C491.547 41.47 369.715 30.199 327.16 28.8c-42.554-1.399-166.59 3.15-173.414 64.174Z" fill="#fff" stroke="#6ABDEC" stroke-width="2.835" stroke-linecap="round" stroke-dasharray="5.67 11.34"/><path d="m227.901 77.61-.594-.196c-.296-.081-.502-.122-.618-.122a.898.898 0 0 1-.494-.317.942.942 0 0 1-.173-.561c0-.114.008-.204.024-.269.05-.049.091-.179.124-.39.049-.196.074-.375.074-.537.05-.098.091-.196.124-.293.033-.114.074-.269.123-.464.132-.716.437-1.92.915-3.612.478-1.692.775-2.595.89-2.71v-.268c0-.048.017-.146.05-.292.033-.147.107-.302.222-.464.066-.195.116-.383.149-.562.049-.195.082-.341.098-.439.066-.081.173-.325.322-.732.165-.407.272-.675.321-.806.116-.309.256-.667.421-1.073.181-.423.304-.7.37-.83v-.122c.033-.033.116-.196.248-.488.148-.31.272-.57.37-.781.116-.26.421-.936.915-2.026.033-.065.124-.252.272-.562.149-.309.223-.504.223-.585.165-.18.346-.269.544-.269.247 0 .478.114.692.342.231.212.412.44.544.683l.247.39-.915 1.758c-.247.44-.469.854-.667 1.245-.198.374-.297.594-.297.659-.049.114-.14.35-.272.708l-.395 1.22a18.275 18.275 0 0 1-.569 1.391c-.132.26-.198.415-.198.464 0-.065.915-.098 2.744-.098.281 0 .792-.008 1.533-.024.742-.017 1.212-.04 1.41-.073l1.285-.123.692-2.172c.165-.57.528-1.676 1.088-3.319.231-.683.495-1.188.791-1.513.297-.342.561-.513.792-.513.065 0 .23.098.494.293.28.18.445.334.495.464.181.179.271.366.271.561 0 .228-.131.545-.395.952-.198.342-.478.985-.841 1.928-.148.44-.239.692-.272.757 0 .342-.082.594-.247.756-.066.066-.181.302-.346.708-.165.39-.247.618-.247.684 0 .13-.025.276-.074.439a.817.817 0 0 1-.174.317l-.173.586c-.576 2.066-1.03 3.498-1.359 4.296 0 .08-.042.227-.124.439-.082.211-.124.358-.124.44-.033.113-.107.34-.222.683-.116.341-.173.545-.173.61a31.121 31.121 0 0 0-.346 1.781 34.49 34.49 0 0 0-.223 1.44c-.28.033-.511.017-.692-.048a2.25 2.25 0 0 1-.519-.269 6.298 6.298 0 0 0-.346-.195c-.396-.212-.594-.505-.594-.879 0-.211.074-.464.223-.756.049-.082.206-.61.469-1.587l.223-.903c.132-.358.247-.7.346-1.025.099-.342.19-.635.272-.879.264-.943.429-1.448.495-1.513v-.244c-.05-.081-.536-.122-1.459-.122-1.006 0-2.052.065-3.14.195h-2.126c-.083.18-.322.895-.717 2.148-.396 1.237-.618 2.026-.668 2.368a52.78 52.78 0 0 1-.544 2.22 60.89 60.89 0 0 1-.568 2.1Zm12.145-1.416a1.81 1.81 0 0 1-.396-.269.488.488 0 0 1-.099-.317c0-.163.066-.39.198-.683.149-.31.396-.79.742-1.44.099-.212.288-.586.569-1.123.708-1.334 1.063-2.319 1.063-2.953a.328.328 0 0 1-.025-.147c0-.162.132-.309.396-.439.049-.049.222-.187.519-.415.313-.228.56-.488.741-.78.215-.489.487-1.026.816-1.612.33-.602.899-1.578 1.706-2.928a30.566 30.566 0 0 1 2.522-3.881 2.11 2.11 0 0 1 .544-.537c.214-.13.396-.195.544-.195.511 0 1.03.195 1.558.586.543.39.898.78 1.063 1.171.066.114.099.358.099.732 0 .505-.058 1.359-.174 2.563-.033.212-.065.545-.098 1a46.68 46.68 0 0 1-.223 2.344 250.681 250.681 0 0 0-.396 4.27 36.24 36.24 0 0 0-.123 2.88c0 .456.008.79.025 1.001v.171l-.025.562c-.099.097-.297.146-.594.146-.329 0-.659-.057-.988-.17-.33-.098-.511-.22-.544-.367a.307.307 0 0 0-.075-.049c-.033-.016-.049-.09-.049-.22l.025-.536.074-1.367.124-3.734-.322.024c-.33 0-1.03.065-2.101.195-1.055.13-1.723.236-2.003.318-.148 0-.33.097-.544.293a2.788 2.788 0 0 0-.569.756c-.049.163-.164.399-.346.708-.181.293-.272.464-.272.513a1.066 1.066 0 0 0-.272.268 2.173 2.173 0 0 0-.123.195c0 .18-.165.643-.495 1.391-.313.733-.626 1.335-.939 1.806l-.668.928-.865-.66Zm5.909-8.396.692-.097c.346-.066.651-.106.915-.122.791-.196 1.335-.293 1.632-.293.164 0 .28.016.346.048a.623.623 0 0 0 .148.147.741.741 0 0 0 .124.024c.033-.13.165-1.017.395-2.66.231-1.643.346-2.652.346-3.026 0-.26-.008-.48-.024-.66a2.104 2.104 0 0 0-.05-.366c-.148 0-.486.391-1.013 1.172a22.39 22.39 0 0 0-1.533 2.611c-.379.668-.643 1.001-.791 1.001-.116.114-.363.496-.742 1.147s-.528 1.009-.445 1.074Zm30.903 9.006c-.495-.211-1.014-.586-1.558-1.123a9.443 9.443 0 0 1-1.384-1.733c-.396-.65-.668-1.244-.816-1.781-.033-.212-.132-.513-.297-.903a8.428 8.428 0 0 1-.198-.561l-.148-.44c-.231-.96-.396-1.594-.495-1.904a61.769 61.769 0 0 0-1.186 3.686 92.662 92.662 0 0 0-1.063 4.076 1.11 1.11 0 0 1-.371.61.845.845 0 0 1-.618.244c-.066 0-.182-.016-.347-.049-.692-.211-1.079-.586-1.162-1.123l2.25-7.712c-.049.146-.42.643-1.112 1.489a46.08 46.08 0 0 1-1.607 1.928c-.396.456-.932.952-1.607 1.489-.66.52-1.55 1.188-2.671 2.001-.692.504-1.26.927-1.705 1.27-.05.048-.19.17-.421.365-.23.196-.428.293-.593.293a.236.236 0 0 1-.198-.097l-.816-.977a1.873 1.873 0 0 1-.024-.341c0-.245.041-.44.123-.586.099-.147.264-.26.495-.342.115-.049.305-.187.568-.415.264-.228.635-.496 1.113-.805a13.497 13.497 0 0 0 1.928-1.513c.594-.488.907-.749.94-.781l1.162-.952a2.57 2.57 0 0 0 .618-.635c.198-.228.354-.39.47-.488.857-.7 1.557-1.456 2.101-2.27a1.244 1.244 0 0 0-.124-.195 3.33 3.33 0 0 0-.123-.269 61.38 61.38 0 0 0-1.162-1.952c-.28-.472-.602-.928-.964-1.367a6.508 6.508 0 0 0-.272-.415 7.379 7.379 0 0 1-.124-.22 82.384 82.384 0 0 0-1.681-2.464l-.025-.464c0-.098.008-.171.025-.22.066-.407.346-.61.84-.61.297 0 .602.073.915.22.313.146.528.325.643.537a68.758 68.758 0 0 0 2.052 3.148c.066.098.14.228.223.39.099.163.189.285.272.367.197.227.412.585.642 1.074.149.341.305.626.47.854.066.081.148.195.247.341.116.13.206.253.272.367l.643-1.66a74.783 74.783 0 0 1 1.632-3.978c.478-1.058.931-1.774 1.36-2.148l.618.097c.379.05.643.147.791.293.165.13.371.407.618.83a115.899 115.899 0 0 0-2.151 3.905 32.91 32.91 0 0 0-1.459 3.246l.643-.512a301.12 301.12 0 0 1 4.178-3.393c.363-.293.891-.78 1.583-1.464a32.877 32.877 0 0 1 1.533-1.44c.412-.342.84-.602 1.285-.781l.346-.147c.412.066.684.139.816.22.132.065.297.269.495.61 0 .537-.198.968-.594 1.294l-1.236 1c-1.351 1.074-2.357 1.904-3.016 2.49-.527.44-1.08.887-1.657 1.342-1.005.781-1.788 1.448-2.348 2.002.132.797.321 1.619.568 2.465.248.83.503 1.497.767 2.001.066.114.132.252.198.415.082.163.14.293.173.39.099.196.28.44.544.733.247.276.403.48.469.61.313.293.676.512 1.088.659.495.211.742.512.742.903 0 .374-.214.773-.643 1.196l-.321.024-.346.073-.816-.317Zm15.646.708c-.082 0-.206-.033-.371-.098a1.118 1.118 0 0 1-.371-.22c-.197-.195-.296-.487-.296-.878 0-.879-.017-1.456-.05-1.733l-.024-1.464c0-.374.024-.602.074-.684a1.944 1.944 0 0 1-.025-.366c0-.146.008-.317.025-.512.033-.212.049-.374.049-.488l-.099-.66h-1.335a5.119 5.119 0 0 1-.643.025c-.445 0-1.508-.049-3.189-.146l-.321.512a7.193 7.193 0 0 0-.248.317c-.131.196-.271.489-.42.879-.148.39-.346.838-.593 1.342-.231.505-.445.895-.643 1.172-.247.456-.478.789-.692 1-.198.212-.346.318-.445.318h-.124a.812.812 0 0 1-.297-.049c-.066-.016-.164-.073-.296-.17-.445-.196-.668-.489-.668-.88 0-.276.132-.602.396-.976l.321-.512c0-.098.239-.61.717-1.538.495-.944.816-1.448.964-1.513.149-.147.223-.293.223-.44 0-.162-.099-.325-.297-.487a.417.417 0 0 1-.173-.196.985.985 0 0 1-.049-.317c0-.228.082-.423.247-.586.165-.163.42-.236.766-.22.083-.048.157-.089.223-.121a2.7 2.7 0 0 0 .173-.074c.049-.032.074-.073.074-.122 0-.081.132-.374.396-.878.28-.521.527-.911.741-1.172.165-.44.305-.757.421-.952.132-.195.214-.333.247-.415.082-.081.247-.35.494-.805.033-.049.141-.228.322-.537a5.87 5.87 0 0 0 .494-.561c.182-.228.297-.375.346-.44a3.41 3.41 0 0 1 .297-.415c.083-.195.231-.43.445-.707.214-.293.346-.472.396-.537.247-.293.544-.53.89-.708.346-.195.667-.293.964-.293.165 0 .305.024.42.073.412.18.775.513 1.088 1 .313.489.495 1.059.544 1.71.017.113.049.365.099.756.066.39.099.732.099 1.025 0 .212-.025.382-.074.513v1.073c0 .537.016.936.049 1.196-.049.18-.074.472-.074.879l.025.952c0 .244-.009.447-.025.61l-.025.903-.025.903c-.016.407-.024.92-.024 1.538l.024 1.928c0 1.106-.098 1.912-.296 2.416-.182.504-.462.781-.841.83Zm-4.994-9.128a9.029 9.029 0 0 1 1.681-.098c.462-.032.767-.049.915-.049.214 0 .429.009.643.025.231 0 .362-.008.395-.025.314.017.47-.268.47-.854a43.41 43.41 0 0 1-.173-3.71l.025-.756c0-.26-.025-.537-.074-.83a12.233 12.233 0 0 0-.075-.586c-.065-.081-.304.187-.717.806a41.38 41.38 0 0 0-1.013 1.66c-.099.13-.231.357-.396.683-.082.13-.173.284-.272.463a5.264 5.264 0 0 1-.321.586c-.808 1.27-1.212 2.083-1.212 2.44 0 .115.042.196.124.245Zm20.804-3.295c.033-.163.123-.545.272-1.147.148-.602.272-1.155.371-1.66.098-.52.173-1.009.222-1.464-.626.016-1.327.098-2.101.244l-.198.146a27.977 27.977 0 0 1-1.508 3.466c-.544 1.09-.899 1.847-1.063 2.27-1.171 2.766-2.819 5.426-4.945 7.98-.28.342-.618.7-1.014 1.075-.395.374-.733.61-1.013.708a1.013 1.013 0 0 1-.396.073c-.363 0-.717-.147-1.063-.44-.33-.293-.511-.618-.544-.976.082-.244.214-.44.395-.586a.933.933 0 0 1 .643-.244c.165 0 .668-.496 1.508-1.489.841-1.008 1.401-1.716 1.682-2.123a9.13 9.13 0 0 0 .568-.976c.412-.749.783-1.285 1.113-1.61.066-.326.165-.587.297-.782l.469-.976c.066-.147.19-.415.371-.806.181-.39.338-.7.47-.927.132-.228.239-.366.321-.415.215-.797.561-1.676 1.039-2.636l-.915.44a7.794 7.794 0 0 1-.964.488 2.554 2.554 0 0 1-.89.146c-.215 0-.487-.04-.816-.122-.198-.44-.297-.814-.297-1.123 0-.455.165-.789.495-1 .346-.228.873-.456 1.582-.684l.618-.195c.297-.114.816-.277 1.558-.488a25.404 25.404 0 0 0 1.705-.562 11.2 11.2 0 0 0 1.162-.097c.544-.065.882-.13 1.014-.195.363 0 .767.057 1.212.17.445.114.733.277.865.489.049.065.115.138.198.22.099.064.165.13.197.194l.52.391c.033.114.082.31.148.586.082.26.124.488.124.683 0 .342-.107.976-.322 1.904-.198.927-.354 1.521-.47 1.781-.082.228-.173.627-.271 1.196-.132.749-.264 1.286-.396 1.611a5.03 5.03 0 0 0-.247.83c-.198.976-.594 2.286-1.187 3.93-.033.08-.066.17-.099.268a.995.995 0 0 1-.099.293 19.59 19.59 0 0 0-.643 2.001c-.066.082-.148.236-.247.464-.115.26-.214.431-.297.513-.28.276-.585.414-.914.414-.297 0-.569-.114-.816-.341a1.828 1.828 0 0 1-.519-.879c.527-1.025 1.038-2.31 1.532-3.856.083-.244.141-.456.174-.635.049-.195.09-.35.123-.464.165-.715.322-1.252.47-1.61.066-.18.115-.383.148-.61.05-.244.083-.415.099-.513l.124-.61.445-1.733Zm15.203 3.441c.017.44.009.83-.024 1.172a3.11 3.11 0 0 1-.272.976c-.379.895-.816 1.668-1.311 2.319a8.801 8.801 0 0 1-1.755 1.733 8.85 8.85 0 0 1-1.211.83c-.429.243-.767.39-1.014.439-.396.146-.857.22-1.385.22-.511 0-.989-.074-1.434-.22-.445-.13-.782-.326-1.013-.586l-.396-.39a4.65 4.65 0 0 1-.346-.464.936.936 0 0 1-.099-.684c.066-.162.132-.374.198-.634.082-.26.148-.464.198-.61l2.719-7.273c.231-.603.536-1.384.915-2.344s.676-1.684.89-2.172a7.52 7.52 0 0 0 .247-.659c.017-.065.083-.244.198-.537.116-.309.272-.585.47-.83a.63.63 0 0 1 .346-.268c.165-.049.33-.065.495-.049.412.082.692.195.84.342.165.13.313.374.445.732a4.188 4.188 0 0 1-.247.83c-.082.212-.239.496-.47.854a1.69 1.69 0 0 1-.123.342.527.527 0 0 1-.099.195c-.314.586-.651 1.343-1.014 2.27.198.033.462.106.791.22.099.032.305.105.618.22.313.113.594.251.841.414.247.163.494.374.742.635.362.358.626.748.791 1.171.165.423.272.806.321 1.147.066.326.115.545.148.66Zm-3.164 2.758c.362-.57.618-1.041.766-1.415.149-.39.223-.79.223-1.196 0-.326-.066-.765-.198-1.318a1.075 1.075 0 0 0-.198-.39.978.978 0 0 0-.371-.294c-.296-.195-.717-.358-1.261-.488-.016 0-.107-.016-.272-.049a1.252 1.252 0 0 1-.469-.268c-.132.212-.346.74-.643 1.586a9.223 9.223 0 0 1-.297.757c-.082.179-.478 1.245-1.186 3.197a22.25 22.25 0 0 1-.421 1.147c-.198.554-.321.863-.371.928v.366c.429.211.783.317 1.063.317.198 0 .371-.04.52-.122.164-.098.379-.252.642-.464.413-.26.874-.634 1.385-1.122.511-.505.874-.895 1.088-1.172Zm3.432 6.199c-.346 0-.593-.138-.742-.414a.52.52 0 0 1 .099-.293c.066-.098.157-.196.272-.293.396-.374.832-1.009 1.31-1.904.083-.244.215-.724.396-1.44 0-.325.041-.529.124-.61.296-.244.527-.366.692-.366.379 0 .643.44.791 1.318.033.228.05.39.05.488 0 .423-.157.944-.47 1.562-.066.163-.297.472-.692.927-.38.456-.602.684-.668.684-.066 0-.14.032-.223.097a2.966 2.966 0 0 0-.148.123c-.049.048-.148.08-.297.097a4.546 4.546 0 0 1-.494.025Zm23.127-11.153c-.049.081-.181.187-.395.317.28.179.527.374.741.586.231.211.371.398.421.561.478.749.717 1.627.717 2.636a7.23 7.23 0 0 1-.173 1.562c-.413.781-.66 1.237-.742 1.367-.346.65-.874 1.212-1.582 1.684-.709.472-1.36.78-1.954.927a7.316 7.316 0 0 1-2.101.318c-.165 0-.396-.017-.692-.05a4.862 4.862 0 0 1-1.138-.219c-.329-.097-.75-.285-1.261-.561a4.438 4.438 0 0 1-1.285-1.025c-.346-.407-.676-.87-.989-1.391a1.234 1.234 0 0 1-.198-.708c0-.31.099-.61.297-.903.197-.293.436-.53.717-.708.214-.13.42-.195.618-.195a.77.77 0 0 1 .346.073c.115.049.198.081.247.097.313.05.511.212.594.489.082.276.131.423.148.439a6.265 6.265 0 0 1-.272.708.636.636 0 0 1-.272.317c.247.374.552.692.915.952.197.146.478.276.84.39.379.114.643.155.791.122.017-.016.058-.024.124-.024.082 0 .165.016.247.049.099.016.157.016.173 0 .083-.033.231-.049.445-.049a1.49 1.49 0 0 0 .544-.122c.528-.147.998-.35 1.41-.61a5.485 5.485 0 0 0 1.162-1.074c.247-.342.412-.643.494-.903.099-.277.165-.643.198-1.098.033-.245 0-.521-.099-.83a12.94 12.94 0 0 1-.198-.66l-.321-.243-.544-.147c-.429-.13-.734-.195-.915-.195-.198 0-.404.033-.618.098-.28.081-.47.122-.569.122-.181 0-.346-.041-.494-.122a2.56 2.56 0 0 0-.247-.171c-.231-.082-.437-.252-.618-.513-.165-.276-.248-.545-.248-.805 0-.147.041-.285.124-.415a.976.976 0 0 1 .47-.415c.214-.114.453-.154.717-.122.066.016.156.024.272.024.23 0 .511-.065.84-.195.198-.065.511-.244.94-.537.428-.293.643-.431.643-.415.543-.683.931-1.196 1.162-1.537.247-.358.445-.749.593-1.172.181-.325.272-.675.272-1.05 0-.21-.041-.414-.124-.61-.016-.097-.132-.178-.346-.243a2.05 2.05 0 0 0-.593-.098.621.621 0 0 0-.223.024c-.263.017-.651.114-1.162.293-.511.163-.816.285-.915.366-.89.749-1.425 1.253-1.607 1.513a.659.659 0 0 1-.346.269 1.215 1.215 0 0 1-.494.097c-.313 0-.519-.08-.618-.243a1.728 1.728 0 0 1-.272-.928c0-.374.14-.732.42-1.074.313-.39.585-.7.816-.927a3.52 3.52 0 0 1 .816-.635l.47-.268c.065-.033.214-.114.445-.244.247-.13.478-.228.692-.293.066-.017.255-.082.569-.196a3.15 3.15 0 0 1 1.038-.17c.148 0 .264.008.346.024.56.049.972.146 1.236.293.28.146.709.464 1.286.952.247.163.445.447.593.854.149.407.223.87.223 1.391 0 .781-.149 1.489-.445 2.123a5.454 5.454 0 0 0-.272.513c-.033.065-.14.26-.322.586a4.383 4.383 0 0 1-.568.83c-.149.195-.462.577-.94 1.147Zm2.632 9.86a1.761 1.761 0 0 1-.396-.269.488.488 0 0 1-.099-.317c0-.163.066-.39.198-.683.148-.31.395-.79.742-1.44.098-.212.288-.586.568-1.123.709-1.334 1.063-2.319 1.063-2.953a.345.345 0 0 1-.024-.147c0-.162.131-.309.395-.439.05-.049.223-.187.519-.415.314-.228.561-.488.742-.78.214-.489.486-1.026.816-1.612.33-.602.898-1.578 1.706-2.928a30.566 30.566 0 0 1 2.522-3.881 2.1 2.1 0 0 1 .544-.537c.214-.13.395-.195.544-.195.51 0 1.03.195 1.557.586.544.39.898.78 1.063 1.171.066.114.099.358.099.732 0 .505-.058 1.359-.173 2.563-.033.212-.066.545-.099 1a45.482 45.482 0 0 1-.222 2.344 231.46 231.46 0 0 0-.396 4.27 36.262 36.262 0 0 0-.124 2.88c0 .456.009.79.025 1.001v.171l-.025.562c-.098.097-.296.146-.593.146-.33 0-.659-.057-.989-.17-.33-.098-.511-.22-.544-.367a.28.28 0 0 0-.074-.049c-.033-.016-.049-.09-.049-.22l.024-.536.074-1.367.124-3.734-.321.024c-.33 0-1.03.065-2.102.195-1.055.13-1.722.236-2.002.318-.149 0-.33.097-.544.293a2.768 2.768 0 0 0-.569.756c-.049.163-.165.399-.346.708-.181.293-.272.464-.272.513a1.05 1.05 0 0 0-.272.268 2.572 2.572 0 0 0-.124.195c0 .18-.164.643-.494 1.391-.313.733-.626 1.335-.94 1.806l-.667.928-.865-.66Zm5.908-8.396.693-.097c.346-.066.651-.106.914-.122.792-.196 1.336-.293 1.632-.293.165 0 .28.016.346.048.05.066.099.114.149.147a.757.757 0 0 0 .123.024c.033-.13.165-1.017.396-2.66.231-1.643.346-2.652.346-3.026 0-.26-.008-.48-.025-.66a2.144 2.144 0 0 0-.049-.366c-.148 0-.486.391-1.014 1.172a22.676 22.676 0 0 0-1.533 2.611c-.379.668-.642 1.001-.791 1.001-.115.114-.362.496-.742 1.147-.379.651-.527 1.009-.445 1.074Zm25.093 12.667c-.082-.244-.123-.44-.123-.586 0-.162.024-.317.074-.463l.123-.245c.132-.244.215-.471.248-.683a2.41 2.41 0 0 1 .346-.805c.181-.228.346-.554.494-.977.165-.423.256-.789.272-1.098a7.86 7.86 0 0 0-.643.025c-.956.032-1.475.04-1.557.024-.577.114-1.245.212-2.003.293-.758.081-1.45.122-2.077.122a8.51 8.51 0 0 1-.791-.025 8.53 8.53 0 0 1-.816-.097l-.593-.073a5.379 5.379 0 0 0-.618-.05 9.124 9.124 0 0 0-.594-.39c-.263-.162-.428-.252-.494-.268a7.413 7.413 0 0 0-.346-.561 10.758 10.758 0 0 1-.569-1.001 1.866 1.866 0 0 1-.173-.806c0-.178.025-.35.074-.512.083-.505.198-1 .346-1.489.149-.504.355-1.123.619-1.855l.247-.732.148-.464c.148-.423.28-.773.396-1.05.478-1.252 1.121-2.773 1.928-4.563l.346-.732c.05-.114.215-.456.495-1.026.28-.585.42-.943.42-1.073 0-.244.107-.44.321-.586.215-.163.437-.212.668-.147.214.033.404.114.569.244.181.13.453.375.816.733a1.874 1.874 0 0 1-.099.952 7.67 7.67 0 0 1-.371.78c-.05.114-.099.22-.149.318a2.915 2.915 0 0 1-.098.22 3.419 3.419 0 0 1-.322.658 6.693 6.693 0 0 0-.222.391 1.814 1.814 0 0 0-.173.635c-.116.13-.206.292-.272.488a2.32 2.32 0 0 1-.149.415l-.272.634a112.2 112.2 0 0 0-1.706 4.296 24.047 24.047 0 0 0-.989 3.417 1.07 1.07 0 0 0-.049.341c0 .293.074.464.222.513.314.097.783.146 1.41.146l1.409-.024c.181 0 .346-.025.494-.073.05 0 .132-.009.248-.025a1.14 1.14 0 0 1 .296-.049c.297 0 .528-.024.693-.073.181-.049.42-.065.717-.049h.618l.42-1.537.371-1.318c.033-.114.107-.35.222-.708.05-.114.099-.252.149-.415.066-.179.115-.317.148-.415.082-.358.173-.634.272-.83.165-.358.28-.683.346-.976.066-.309.116-.545.149-.708.131-.57.387-1.358.766-2.367.396-1.009.626-1.61.692-1.806l.371-.976c.017-.05.082-.285.198-.708.132-.423.297-.814.494-1.172.215-.358.421-.561.618-.61.182-.049.487.033.915.244.429.212.684.407.767.586a.985.985 0 0 1 .049.317c0 .586-.214 1.367-.643 2.343a315.85 315.85 0 0 0-.667 1.587c-.758 1.887-1.302 3.563-1.632 5.027-.049.228-.181.619-.396 1.172a11.93 11.93 0 0 0-.346.879 2.627 2.627 0 0 0-.148.732 3.724 3.724 0 0 0-.272.878c-.05.26-.107.464-.173.61.412 0 .865.09 1.36.269.84.31 1.261.879 1.261 1.708 0 .407-.083.838-.248 1.294a14.06 14.06 0 0 1-.692 1.562l-.247.537c-.05.098-.19.39-.42.879a7.705 7.705 0 0 0-.495 1.293 3.86 3.86 0 0 1-.915.122c-.148 0-.263-.008-.346-.024l-.717-.464Zm19.55-3.661c-.379-.032-.799-.211-1.261-.537-.445-.309-.675-.642-.692-1l.05-.635c.313-.879.642-2.107.989-3.686.082-.309.164-.658.247-1.049.099-.39.206-.805.321-1.245.28-1.041.791-2.725 1.533-5.052l.42-1.342c-2.933 3.66-5.356 6.744-7.268 9.25-.412.553-1.138 1.407-2.176 2.563-1.038 1.155-1.739 1.855-2.102 2.099-.214.146-.469.22-.766.22-.313 0-.593-.082-.841-.245a.887.887 0 0 1-.42-.659l-.025-.268c0-.619.173-1.562.52-2.832.362-1.285.815-2.782 1.359-4.49l.445-1.391a42.43 42.43 0 0 1 1.706-4.564.426.426 0 0 1-.024-.171c0-.147.057-.277.173-.39-.017-.066.066-.302.247-.709.198-.423.321-.691.371-.805.132-.26.247-.513.346-.757.115-.374.28-.65.494-.83.231-.178.47-.268.717-.268.347 0 .643.13.89.39.264.26.396.586.396.977 0 .276-.082.57-.247.879a4.75 4.75 0 0 0-.346.756 4.746 4.746 0 0 1-.198.513 77.789 77.789 0 0 0-2.077 5.296c-.659 1.855-1.187 3.53-1.582 5.028.412-.505.849-1.01 1.31-1.514a61.852 61.852 0 0 0 1.953-2.294 153.084 153.084 0 0 1 6.428-8.03c.297-.358.684-.756 1.162-1.196.495-.439.907-.724 1.237-.854a.934.934 0 0 1 .42-.097c.379 0 .725.179 1.038.537.313.341.47.707.47 1.098 0 .163-.016.285-.049.366l-.544 1.367c-1.022 2.408-1.533 3.79-1.533 4.149 0 .179-.47 1.88-1.409 5.1-.33 1.14-.487 1.685-.47 1.636a25.847 25.847 0 0 0-.445 2.099c-.116.749-.223 1.48-.322 2.197l-.445.39Zm22.023-15.864c0 .081-.025.138-.075.17-.049.017-.074.033-.074.05 0 .016.033.048.099.097l-.173.806c-.066.341-.206 1.025-.42 2.05a73.124 73.124 0 0 0-.445 2.49l-.346 2.61a130.757 130.757 0 0 0-.322 2.661c-.049.618-.074 1.27-.074 1.953 0 .78.025 1.374.074 1.781.066.423.099.667.099.732 0 .098-.115.244-.346.44a1.159 1.159 0 0 1-.767.293c-.428 0-.741-.18-.939-.537-.198-.342-.313-.879-.346-1.611 0-1.09.082-2.547.247-4.369.05-.114.074-.334.074-.659 0-.195-.016-.342-.049-.44-.017-.162.008-.39.074-.683a2.787 2.787 0 0 0 .074-.585c0-.082.033-.253.099-.513.099-.293.148-.52.148-.683v-.171c.05-.147.099-.326.149-.537.066-.228.099-.366.099-.415a1.368 1.368 0 0 1-.025-.342c0-.179-.017-.3-.05-.366.099-.276.215-.7.347-1.269l.296-1.171c-.016 0-.198.325-.544.976a14.707 14.707 0 0 1-1.211 1.928c-.379.602-.75 1.123-1.113 1.562-.346.44-.544.691-.593.757-.214.276-.42.537-.618.78a3.032 3.032 0 0 0-.396.684c-.346.846-.75 1.464-1.211 1.855-.445.39-.898.61-1.36.659l-.396.049h-.148c-.313 0-.577-.204-.791-.61-.198-.407-.297-1.164-.297-2.27l.025-.66.074-1.366c.05-.277.091-.732.124-1.367.033-.65.058-1.082.074-1.293-.082.081-.231.382-.445.903-.198.52-.321.854-.371 1l-.222.562c-.083.114-.206.423-.371.927-.132.374-.313.83-.544 1.367-.363 1.171-.692 2.099-.989 2.782a16.49 16.49 0 0 0-.396.903 12.78 12.78 0 0 0-.296.781c-.231.586-.379.936-.445 1.05-.709 1.578-1.303 2.367-1.781 2.367-.263 0-.527-.138-.791-.415-.247-.26-.371-.545-.371-.854 0-.228.091-.529.272-.903.182-.39.445-.895.792-1.513l.519-.952c0-.081.198-.635.593-1.66l.346-.903 1.533-4.002.025-.098.148-.366c.05-.13.14-.326.272-.586.231-.52.346-.822.346-.903v-.049c0-.049.017-.081.05-.097a.403.403 0 0 1 .099-.025c.066-.179.181-.455.346-.83.181-.39.321-.683.42-.878l-.025-.098c0-.163.025-.293.075-.39.065-.098.131-.188.197-.269a2.02 2.02 0 0 0 .198-.22c0-.097.05-.227.148-.39a4.92 4.92 0 0 1 .347-.537c.263-.358.436-.626.519-.805.165-.31.42-.464.766-.464.247 0 .495.098.742.293.247.195.453.415.618.659.165.228.247.382.247.464 0 .048-.024.08-.074.097-.049.016-.074.057-.074.122v.098a.64.64 0 0 1 .025.195c0 .293-.042.52-.124.683a7.463 7.463 0 0 0-.223 1.88l.025.708c0 .13-.033.227-.099.292-.049.066-.09.122-.123.171v.049l-.025.195.025.147c0 .146-.042.325-.124.537a6.883 6.883 0 0 0-.148.61c-.066.537-.099 1.09-.099 1.66 0 .846.074 1.31.222 1.39l1.78-2.61c1.517-2.214 2.283-3.344 2.3-3.393.115-.065.222-.188.321-.366-.016 0-.025-.017-.025-.05 0-.08.215-.43.643-1.049a12.12 12.12 0 0 1 1.385-1.708c.494-.52.898-.781 1.211-.781.149 0 .346.097.594.293.263.195.494.439.692.732.198.276.297.537.297.78ZM190.815 89.715c.314.049.586.203.816.464.231.26.346.545.346.854 0 .098-.008.17-.024.22a1.414 1.414 0 0 1-.198.39.371.371 0 0 1-.272.098c-.165 0-.412-.082-.742-.244-.165.276-.255.455-.272.537a6.242 6.242 0 0 1-.272.78c-.148.18-.371.7-.667 1.563-.28.862-.421 1.424-.421 1.684-.082.228-.206.642-.37 1.245a90.338 90.338 0 0 1-.569 1.977c-.956 3.254-1.426 4.856-1.409 4.808-.017.26-.058.577-.124.951-.033.244-.066.594-.099 1.05a.402.402 0 0 1 .025.171.395.395 0 0 1-.074.244.329.329 0 0 1-.149.122c-.214.179-.511.268-.89.268-.412 0-.7-.105-.865-.317-.247-.423-.346-.748-.297-.976.05-.57.182-1.481.396-2.734a12.4 12.4 0 0 1 .321-1.244c.116-.375.19-.537.223-.489l.494-1.757a5.42 5.42 0 0 0 .223-.805c.066-.277.115-.464.148-.562.132-.618.289-1.196.47-1.733.231-.537.47-1.342.717-2.416.099-.358.231-.764.396-1.22.181-.456.296-.692.346-.708-.577.065-1.014.13-1.311.195-.478.098-.956.171-1.434.22l-1.681.244c-.923.13-1.417.195-1.483.195l-1.78 4.076-1.261 3.246a67.71 67.71 0 0 1-1.113 3.393c-.049.163-.156.488-.321.976a12.3 12.3 0 0 0-.421 1.538l-.173.854c-.115.244-.247.423-.395.537-.132.114-.313.171-.544.171-.511 0-.882-.09-1.113-.269-.214-.179-.321-.464-.321-.854.066-.212.165-.48.297-.805.098-.261.173-.497.222-.708.115-.456.231-.863.346-1.221l.198-.585c.527-1.79.972-3.124 1.335-4.003l.668-1.855c.049-.098.14-.333.272-.708l.865-2.538c.395-.78.676-1.489.841-2.123a1.097 1.097 0 0 1-.174-.61 1 1 0 0 1 .223-.66.834.834 0 0 1 .643-.268c.115 0 .198.008.247.025.28.08.758.138 1.434.17.676.017 1.022.017 1.038 0 .165-.081.948-.22 2.349-.415 1.418-.195 2.81-.374 4.178-.536l.272-.025c.149 0 .445.04.89.122Zm3.722 17.597c-.248 0-.627-.097-1.138-.293a7.691 7.691 0 0 1-1.409-.732c-.445-.293-.733-.586-.865-.878l-.05-.098a3.346 3.346 0 0 1-.37-2.514c.065-.277.107-.447.123-.513.149-.504.223-.919.223-1.244.082-.098.206-.261.371-.488.181-.244.288-.399.321-.464a.59.59 0 0 0 .049-.22v-.366a.58.58 0 0 1 .124-.341 1.34 1.34 0 0 1 .247-.269c.099-.081.165-.13.198-.146l.099.024c.033 0 .157-.236.371-.708.214-.488.42-1 .618-1.537.824-1.497 1.747-2.742 2.769-3.735 1.022-1.008 1.928-1.684 2.72-2.025a2.9 2.9 0 0 1 .37-.05l.52-.048c.313.016.692.09 1.137.22.445.13.684.227.717.293 0 .065.016.105.049.122.05.016.083.024.099.024.149-.016.412.22.791.708.396.472.684.92.866 1.342.197.31.296.83.296 1.562 0 .618-.09 1.391-.272 2.319-.181.91-.362 1.562-.544 1.952a34.4 34.4 0 0 1-1.631 3.71c-.66 1.302-1.261 1.969-1.805 2.001-.017 0-.033.017-.05.049-.016.016-.024.049-.024.098s-.223.26-.668.634c-.428.375-.807.684-1.137.928l-.47.171c-.395.146-.849.26-1.36.341a9.327 9.327 0 0 1-1.285.171Zm.024-2.221c.709 0 1.22-.016 1.533-.049.313-.032.643-.138.989-.317.363-.195.75-.529 1.162-1.001.165-.292.297-.488.396-.585.016-.033.148-.261.395-.684.248-.423.478-.634.693-.634 0-.082.066-.301.197-.659.132-.374.231-.586.297-.635.033-.016.116-.195.247-.537.132-.358.256-.748.371-1.171.116-.423.173-.773.173-1.05.297-.309.429-.48.396-.512a.377.377 0 0 1-.025-.098v-.244c0-.472.033-.716.099-.732.082-.033.124-.057.124-.073a.288.288 0 0 0-.099-.098c-.033-.032-.05-.065-.05-.098 0-.016.025-.048.074-.097a.26.26 0 0 0 .075-.195c-.033-.407-.264-1.115-.693-2.124a1.442 1.442 0 0 1-.197-.17.611.611 0 0 0-.272-.196.576.576 0 0 0-.297-.073c-.066 0-.181.016-.346.049-.066-.065-.132-.098-.198-.098a.554.554 0 0 0-.173.024l-.124.05c-.346.08-.618.194-.816.34-.181.147-.445.408-.791.782l-.42.44c-.132.439-.404.82-.816 1.146-.066.05-.165.171-.297.367-.131.178-.23.3-.296.366l-.149.292c-.362.586-.75 1.367-1.162 2.344a39.77 39.77 0 0 0-1.063 2.733c-.296.862-.445 1.407-.445 1.635 0 .456.149.822.445 1.099.313.276.668.431 1.063.463Zm15.985 2.783c-.494.032-1.087-.025-1.78-.171a5.043 5.043 0 0 1-1.978-.855c-.609-.423-.997-1.025-1.162-1.806a9.002 9.002 0 0 1-.173-1.83c0-1.351.215-2.791.643-4.32.165-.57.594-1.448 1.286-2.636.709-1.188 1.368-2.156 1.978-2.904.395-.472 1.013-1.05 1.854-1.733.857-.7 1.426-1.107 1.706-1.22.231-.114.494-.171.791-.171.198 0 .404.024.618.073.33.032.692.179 1.088.44.412.26.635.496.667.707 0 .065.033.098.099.098.083 0 .231-.041.445-.122.099-.114.264-.212.495-.293.231-.082.445-.122.643-.122.214 0 .329.049.346.146a.298.298 0 0 0-.05.171c0 .098.033.17.099.22.083-.033.066.22-.049.756-.116.52-.247.911-.396 1.172l-.074.244v.073c0 .114-.074.244-.222.39-.099.147-.239.594-.421 1.343-.181.748-.263 1.204-.247 1.367.017.065-.025.113-.124.146a.97.97 0 0 1-.346.049c-.313 0-.601-.049-.865-.147-.264-.097-.453-.203-.569-.317-.115-.114-.173-.276-.173-.488 0-.195.066-.513.198-.952.264-.878.396-1.464.396-1.757 0-.325-.099-.561-.297-.708-.05-.097-.148-.17-.297-.22a1.275 1.275 0 0 0-.445-.073c-.165 0-.329.04-.494.122-.379.147-.94.57-1.681 1.27a14.803 14.803 0 0 0-1.904 2.098c-.808 1.107-1.418 2.221-1.83 3.344-.395 1.107-.593 2.172-.593 3.197 0 .814.124 1.579.371 2.295.033.081.132.227.296.439.165.195.297.325.396.39a4.35 4.35 0 0 0 1.014.098c.329 0 .725-.024 1.186-.073.66-.114 1.154-.293 1.484-.537.346-.244.7-.618 1.063-1.123.148-.211.321-.317.519-.317.214 0 .412.114.594.342.181.227.296.496.346.805 0 .146-.149.447-.445.903-.281.439-.495.675-.643.708-.066.016-.107.04-.124.073 0 .016.008.057.025.122 0 .098-.181.236-.544.415a7.57 7.57 0 0 1-1.335.537 6.61 6.61 0 0 1-1.385.342Zm23.465-18.037c.362-.032.659.081.89.342.247.26.371.561.371.903 0 .146-.025.285-.075.415-.214.423-.692 1.57-1.434 3.441a769.594 769.594 0 0 0-2.151 5.443l-1.78 5.076c-.082.228-.255.651-.519 1.269a3.903 3.903 0 0 0-.445 1.27 1.57 1.57 0 0 1-.395.683c-.182.195-.371.293-.569.293a.409.409 0 0 1-.247-.073c-.759-.277-1.138-.716-1.138-1.318 0-.049.017-.155.05-.318-.033.212.198-.284.692-1.488a95.617 95.617 0 0 0 1.236-3.076c1.22-3.01 1.83-4.572 1.83-4.686.198-.504.329-.862.395-1.074.198-.634.396-1.138.594-1.513l.42-1.098-8.727 9.958a63.66 63.66 0 0 0-.965.854c-.445.439-.791.749-1.038.927-.115.082-.313.228-.593.44a6.987 6.987 0 0 1-.717.512c-.215.147-.388.22-.52.22-.939-.163-1.409-.537-1.409-1.123 0-.26.066-.553.198-.878.132-.342.214-.562.247-.659.198-.619.322-1.115.371-1.489.181-.732.437-1.611.767-2.636.033-.13.115-.431.247-.903a6.48 6.48 0 0 0 .272-1.342c.231-.44.544-1.156.939-2.148l.346-.879c.066-.13.215-.529.445-1.196.149-.504.305-.927.47-1.269l.247-.464c.314-.602.553-1.09.717-1.464.182-.39.281-.716.297-.976 0-.212.074-.366.223-.464a.864.864 0 0 1 .543-.17 1.3 1.3 0 0 1 .767.243.982.982 0 0 1 .445.586c.066.179.099.382.099.61 0 .212-.033.407-.099.586l-2.052 5.15-2.25 5.857-.593 1.465 4.994-4.93c.56-.57 1.088-1.18 1.582-1.83.429-.554.841-1.042 1.236-1.465.396-.423.882-.92 1.459-1.49l.569-.585 3.14-3.295c.214-.163.42-.244.618-.244Zm11.912 6.493c.033-.163.124-.546.272-1.148.149-.602.272-1.155.371-1.66.099-.52.173-1.008.223-1.464-.627.016-1.327.098-2.102.244l-.198.147a27.827 27.827 0 0 1-1.508 3.465c-.544 1.09-.898 1.847-1.063 2.27-1.17 2.766-2.818 5.427-4.945 7.981-.28.342-.618.7-1.013 1.074-.396.374-.734.61-1.014.708a1.001 1.001 0 0 1-.395.073c-.363 0-.717-.146-1.064-.439-.329-.293-.511-.619-.544-.977.083-.244.215-.439.396-.585a.93.93 0 0 1 .643-.244c.165 0 .667-.497 1.508-1.489.841-1.009 1.401-1.717 1.681-2.124.198-.292.388-.618.569-.976.412-.748.783-1.285 1.112-1.61.066-.326.165-.586.297-.782l.47-.976c.066-.146.189-.415.371-.805.181-.39.338-.7.469-.928.132-.228.239-.366.322-.415.214-.797.56-1.676 1.038-2.636l-.915.44a7.725 7.725 0 0 1-.964.488 2.56 2.56 0 0 1-.89.146c-.214 0-.486-.04-.816-.122-.197-.439-.296-.813-.296-1.122 0-.456.164-.79.494-1.001.346-.228.874-.456 1.582-.683l.619-.196c.296-.114.815-.276 1.557-.488a25.461 25.461 0 0 0 1.706-.561 11.3 11.3 0 0 0 1.162-.098c.544-.065.882-.13 1.014-.195.362 0 .766.057 1.211.17.445.115.734.277.865.489.05.065.116.138.198.22.099.065.165.13.198.195l.519.39c.033.114.083.31.149.586.082.26.123.488.123.683 0 .342-.107.977-.321 1.904-.198.928-.355 1.522-.47 1.782-.082.228-.173.626-.272 1.196-.132.748-.264 1.285-.395 1.61a5.055 5.055 0 0 0-.248.83c-.197.977-.593 2.286-1.186 3.93a4.9 4.9 0 0 0-.099.268c-.017.098-.05.196-.099.293-.28.749-.495 1.416-.643 2.002-.066.081-.148.235-.247.463-.116.261-.215.431-.297.513-.28.276-.585.415-.915.415-.296 0-.568-.114-.816-.342a1.83 1.83 0 0 1-.519-.879c.528-1.025 1.039-2.31 1.533-3.856.082-.244.14-.455.173-.634.05-.196.091-.35.124-.464.165-.716.321-1.253.469-1.611a3.01 3.01 0 0 0 .149-.61c.049-.244.082-.415.099-.513l.123-.61.445-1.733Zm15.179 12.422c-.082 0-.206-.032-.371-.097a1.124 1.124 0 0 1-.37-.22c-.198-.195-.297-.488-.297-.879 0-.878-.017-1.456-.05-1.733l-.024-1.464c0-.374.024-.602.074-.683a1.954 1.954 0 0 1-.025-.366c0-.147.008-.318.025-.513.033-.211.049-.374.049-.488l-.099-.659h-1.335a5.19 5.19 0 0 1-.642.024c-.445 0-1.509-.048-3.19-.146l-.321.512a7.066 7.066 0 0 0-.247.318c-.132.195-.272.488-.421.878a16.06 16.06 0 0 1-.593 1.343c-.231.504-.445.895-.643 1.171-.247.456-.478.789-.692 1.001-.198.211-.346.317-.445.317h-.124a.794.794 0 0 1-.296-.049c-.066-.016-.165-.073-.297-.171-.445-.195-.668-.488-.668-.878 0-.277.132-.602.396-.976l.321-.513c0-.098.239-.61.717-1.538.495-.943.816-1.448.965-1.513.148-.146.222-.293.222-.439 0-.163-.099-.325-.297-.488a.422.422 0 0 1-.173-.195.99.99 0 0 1-.049-.318c0-.227.082-.423.247-.585.165-.163.42-.236.766-.22a3.55 3.55 0 0 1 .223-.122 2.7 2.7 0 0 0 .173-.073c.05-.033.074-.074.074-.122 0-.082.132-.375.396-.88.28-.52.527-.91.742-1.17.164-.44.304-.757.42-.952.132-.196.214-.334.247-.415.082-.082.247-.35.495-.806.033-.049.14-.227.321-.537.165-.162.33-.35.494-.561.182-.228.297-.374.347-.44a3.28 3.28 0 0 1 .296-.414 3.41 3.41 0 0 1 .445-.708c.215-.293.346-.472.396-.537.247-.293.544-.529.89-.708.346-.195.667-.293.964-.293.165 0 .305.025.42.074.412.178.775.512 1.088 1 .313.488.495 1.058.544 1.709.017.114.05.366.099.756.066.39.099.733.099 1.025 0 .212-.025.383-.074.513v1.074c0 .537.016.935.049 1.196-.049.179-.074.472-.074.878l.025.952c0 .244-.008.448-.025.61l-.025.903-.024.903c-.017.407-.025.92-.025 1.538l.025 1.928c0 1.107-.099 1.912-.297 2.416-.181.505-.462.781-.841.83Zm-4.994-9.128c.083-.016.289-.04.618-.073.33-.033.684-.04 1.063-.024.462-.033.767-.05.915-.05.214 0 .429.009.643.025.231 0 .363-.008.396-.024.313.016.469-.269.469-.854a43.41 43.41 0 0 1-.173-3.71l.025-.757c0-.26-.025-.537-.074-.83a14.313 14.313 0 0 0-.074-.585c-.066-.082-.305.187-.717.805a40.365 40.365 0 0 0-1.014 1.66c-.099.13-.231.358-.396.683a9.56 9.56 0 0 0-.272.464 5.264 5.264 0 0 1-.321.585c-.808 1.27-1.211 2.083-1.211 2.441 0 .114.041.195.123.244Zm10.148 9.226a164.28 164.28 0 0 0-.593-.195c-.297-.082-.503-.122-.618-.122a.901.901 0 0 1-.495-.318.947.947 0 0 1-.173-.561c0-.114.008-.203.025-.269.049-.048.09-.179.123-.39.05-.195.075-.374.075-.537.049-.098.09-.195.123-.293.033-.114.074-.268.124-.464.132-.716.437-1.92.915-3.612.478-1.692.774-2.595.89-2.709v-.268c0-.05.016-.147.049-.293.033-.147.107-.301.223-.464.066-.195.115-.382.148-.561.049-.196.082-.342.099-.44.066-.081.173-.325.321-.732.165-.407.272-.675.322-.805.115-.31.255-.667.42-1.074.181-.423.305-.7.371-.83v-.122c.033-.032.115-.195.247-.488.148-.31.272-.57.371-.781.115-.26.42-.936.915-2.026.033-.065.123-.252.272-.561.148-.31.222-.505.222-.586.165-.179.346-.268.544-.268.247 0 .478.114.692.341.231.212.412.44.544.684l.247.39-.914 1.757c-.248.44-.47.855-.668 1.245-.198.374-.297.594-.297.66-.049.113-.14.349-.272.707l-.395 1.22c-.231.619-.42 1.082-.569 1.391-.132.26-.198.415-.198.464 0-.065.915-.097 2.745-.097.28 0 .791-.009 1.533-.025.741-.016 1.211-.04 1.409-.073l1.286-.122.692-2.172c.165-.57.527-1.676 1.088-3.32.23-.683.494-1.187.791-1.513.296-.341.56-.512.791-.512.066 0 .231.097.494.293.281.178.445.333.495.463.181.18.272.366.272.562 0 .227-.132.545-.396.951-.198.342-.478.985-.84 1.929-.149.439-.239.691-.272.756 0 .342-.083.594-.248.757-.065.065-.181.3-.346.708-.164.39-.247.618-.247.683 0 .13-.025.276-.074.44a.817.817 0 0 1-.173.317l-.173.585c-.577 2.067-1.03 3.499-1.36 4.296 0 .081-.041.228-.124.439-.082.212-.123.358-.123.439-.033.114-.107.342-.223.684-.115.342-.173.545-.173.61a31.851 31.851 0 0 0-.346 1.782 35.221 35.221 0 0 0-.222 1.44c-.281.032-.511.016-.693-.049a2.249 2.249 0 0 1-.519-.269 6.994 6.994 0 0 0-.346-.195c-.396-.211-.593-.504-.593-.879 0-.211.074-.463.222-.756.05-.081.206-.61.47-1.587l.222-.903c.132-.358.248-.699.347-1.025.098-.341.189-.634.271-.878.264-.944.429-1.448.495-1.513v-.245c-.05-.08-.536-.122-1.459-.122-1.005 0-2.052.066-3.14.196h-2.126c-.082.179-.321.895-.717 2.147-.395 1.237-.618 2.026-.667 2.368a56.194 56.194 0 0 1-.544 2.221c-.248.96-.437 1.66-.569 2.099Zm15.013.024a7.89 7.89 0 0 0-.371-.073 1.416 1.416 0 0 0-.445-.024c-.28-.049-.552-.187-.816-.415-.247-.228-.346-.464-.296-.708.049-.049.09-.179.123-.391.033-.195.05-.374.05-.537a7.37 7.37 0 0 0 .222-.781c.099-.732.355-1.944.767-3.636.428-1.709.7-2.62.816-2.734l-.025-.268a1.889 1.889 0 0 1 .247-.781c.066-.195.116-.382.149-.561.049-.196.074-.342.074-.44.033-.049.148-.342.346-.878l.247-.684c.099-.309.231-.675.396-1.098.164-.423.272-.7.321-.83v-.122c.066-.081.247-.513.544-1.293.148-.326.288-.66.42-1.001.149-.358.297-.708.445-1.05.05-.097.124-.236.223-.415.099-.178.148-.3.148-.366.066-.13.231-.195.495-.195.214 0 .428.049.642.147.215.097.363.227.445.39l.569.39-.84 1.782c-.215.423-.413.838-.594 1.245-.165.39-.247.618-.247.683-.033.114-.107.35-.223.708-.115.358-.239.765-.37 1.22-.066.228-.231.708-.495 1.44-.115.277-.173.432-.173.464 0-.065.89-.13 2.67-.195.297-.016.841-.04 1.632-.073.808-.05 1.31-.098 1.508-.147l1.261-.17.593-2.173c.198-.797.52-1.92.965-3.368.214-.7.469-1.237.766-1.61.297-.391.552-.586.766-.586.412 0 .75.292 1.014.878.198.163.297.35.297.562 0 .211-.124.528-.371.951-.214.39-.47 1.042-.767 1.953a5.455 5.455 0 0 1-.247.757v.097c0 .31-.074.537-.222.683-.05.05-.157.277-.322.684-.148.407-.222.643-.222.708.016.114 0 .26-.05.439-.049.163-.107.277-.173.342l-.469 1.952c-.297 1.237-.594 2.229-.89 2.978.016.081-.017.228-.099.439-.066.212-.099.358-.099.439-.248.781-.363 1.221-.346 1.318-.083.375-.239 1.05-.47 2.026-.148.651-.223.985-.223 1.001-.016.032-.09.049-.222.049a2.35 2.35 0 0 1-.841-.171 1.56 1.56 0 0 1-.593-.537 1.232 1.232 0 0 1-.099-1.245c.066-.114.19-.602.371-1.464l.247-1.05c.082-.26.173-.642.272-1.147.115-.521.198-.887.247-1.098.149-.846.247-1.294.297-1.343v-.244c-.05-.048-.346-.073-.89-.073-.561 0-1.22.033-1.978.098-.758.049-1.434.122-2.027.22l-.693.024c-.346 0-.568.008-.667.024a2.94 2.94 0 0 0-.42.025h-.223c-.066.146-.255.846-.569 2.099-.313 1.253-.494 2.058-.544 2.416a71.04 71.04 0 0 1-.519 2.392 42.49 42.49 0 0 1-.445 1.952Zm15.622-.317a2.396 2.396 0 0 1-1.064-.391 1.402 1.402 0 0 1-.642-1.098c0-.423.173-.887.519-1.391a9.84 9.84 0 0 1 1.162-1.391c.214-.212.428-.464.643-.757.329-.407.527-.642.593-.708a56.284 56.284 0 0 1 1.656-1.659c.478-.44.973-.83 1.484-1.172a1.833 1.833 0 0 1-.519-.317 74.856 74.856 0 0 1-.297-.293 5.064 5.064 0 0 1-1.236-1.635 4.862 4.862 0 0 1-.396-1.928 5.7 5.7 0 0 1 .618-2.563 3.64 3.64 0 0 1 .569-.854l.494-.732a7.56 7.56 0 0 1 1.286-.903 5.314 5.314 0 0 1 1.385-.537 3.15 3.15 0 0 1 .618-.147c.247-.049.42-.081.519-.097l.766-.147c.132-.032.346-.049.643-.049a3.1 3.1 0 0 0 .791-.097c.264.081.585.122.965.122.362 0 .634.024.815.073.231-.163.404-.244.52-.244.131 0 .337.09.618.268a.905.905 0 0 1 .469.171c.132.098.289.252.47.464l.05.488.123.317c-1.763 3.287-3.041 6.68-3.832 10.178l-.47 1.879-.123.537a79.96 79.96 0 0 1-.742 2.904c-.198.782-.354 1.213-.47 1.294a.37.37 0 0 1-.296.073h-.272c-.412 0-.792-.081-1.138-.244-.346-.146-.519-.366-.519-.659 0-.032.017-.114.05-.244l.296-.854c.083-.244.297-.903.643-1.977.363-1.074.585-1.871.668-2.392a.842.842 0 0 1 .074-.219 1.15 1.15 0 0 0 .099-.196c.099-.26.214-.756.346-1.489-.429.196-.725.358-.89.489a3.93 3.93 0 0 1-.421.268 2.236 2.236 0 0 0-.42.293 9.487 9.487 0 0 1-.742.635 7.79 7.79 0 0 0-.791.707 43.915 43.915 0 0 0-2.348 2.758c-.808 1.009-1.336 1.847-1.583 2.514a.954.954 0 0 0-.074.293 2.296 2.296 0 0 1-.074.39c-.132.049-.33.139-.593.269Zm6.131-10.056c.923 0 1.648-.26 2.176-.78.049-.147.09-.293.123-.44.05-.146.099-.285.149-.415.461-1.35.824-2.4 1.087-3.148a21.32 21.32 0 0 1 .94-2.148l-.297.024c-.379.033-.643.057-.791.074l-.816.097a3.293 3.293 0 0 1-.445.025c-.181 0-.329.024-.445.073-.692.31-1.228.594-1.607.854-.379.244-.725.61-1.038 1.098-.561.895-.841 1.7-.841 2.417 0 .455.132.886.396 1.293.214.31.428.553.643.732.214.163.469.244.766.244Zm24.715-6.321c0 .082-.025.138-.074.171-.05.016-.074.033-.074.049s.033.049.099.097l-.173.806a160.93 160.93 0 0 1-.421 2.05 73.124 73.124 0 0 0-.445 2.49l-.346 2.611a136.924 136.924 0 0 0-.321 2.66c-.05.619-.074 1.269-.074 1.953 0 .781.024 1.375.074 1.781.066.424.099.668.099.733 0 .097-.116.244-.347.439-.23.195-.486.293-.766.293-.429 0-.742-.179-.939-.537-.198-.342-.314-.879-.347-1.611 0-1.09.083-2.546.248-4.369.049-.114.074-.333.074-.659 0-.195-.017-.341-.05-.439-.016-.163.009-.39.075-.683a2.814 2.814 0 0 0 .074-.586c0-.081.033-.252.099-.513.099-.292.148-.52.148-.683v-.171a5.95 5.95 0 0 0 .148-.537c.066-.228.099-.366.099-.415a1.42 1.42 0 0 1-.025-.341c0-.18-.016-.301-.049-.367.099-.276.214-.7.346-1.269l.297-1.171c-.017 0-.198.325-.544.976a14.81 14.81 0 0 1-1.212 1.928 15.04 15.04 0 0 1-1.112 1.562c-.346.44-.544.692-.593.757-.215.276-.421.537-.619.78a2.999 2.999 0 0 0-.395.684c-.346.846-.75 1.465-1.212 1.855-.445.391-.898.61-1.359.659l-.396.049h-.148c-.313 0-.577-.203-.791-.61-.198-.407-.297-1.164-.297-2.27l.025-.659.074-1.367c.049-.276.09-.732.123-1.367.033-.65.058-1.082.075-1.293-.083.081-.231.382-.445.903-.198.52-.322.854-.371 1l-.223.562c-.082.114-.206.423-.371.927-.132.375-.313.83-.544 1.367-.362 1.172-.692 2.099-.989 2.783-.131.276-.263.577-.395.903-.033.065-.132.325-.297.781-.231.585-.379.935-.445 1.049-.709 1.578-1.302 2.367-1.78 2.367-.264 0-.527-.138-.791-.414-.247-.261-.371-.546-.371-.855 0-.227.091-.528.272-.903.181-.39.445-.895.791-1.513l.519-.952c0-.081.198-.634.594-1.659l.346-.903 1.533-4.003.024-.098.149-.366c.049-.13.14-.325.272-.586.23-.52.346-.821.346-.903v-.048c0-.05.016-.082.049-.098a.424.424 0 0 1 .099-.024c.066-.18.181-.456.346-.83.182-.39.322-.684.421-.879l-.025-.098c0-.162.025-.292.074-.39a3.81 3.81 0 0 1 .198-.269c.082-.08.148-.154.198-.22 0-.097.049-.227.148-.39.099-.179.214-.358.346-.537.264-.358.437-.626.519-.805a.815.815 0 0 1 .767-.464c.247 0 .494.098.741.293.248.195.454.415.619.66.164.227.247.381.247.463 0 .049-.025.081-.074.097-.05.017-.075.057-.075.123v.097a.611.611 0 0 1 .025.195c0 .293-.041.521-.123.684a7.417 7.417 0 0 0-.223 1.879l.025.708c0 .13-.033.228-.099.293-.05.065-.091.122-.124.17v.05l-.024.195.024.146c0 .147-.041.326-.123.537a7.126 7.126 0 0 0-.149.61c-.066.537-.099 1.09-.099 1.66 0 .846.075 1.31.223 1.391l1.78-2.611c1.516-2.213 2.283-3.344 2.299-3.393.116-.065.223-.187.322-.366-.017 0-.025-.016-.025-.049 0-.081.214-.431.643-1.05.428-.634.89-1.204 1.384-1.708.495-.52.899-.78 1.212-.78.148 0 .346.097.593.292.264.195.495.44.692.732.198.277.297.537.297.781Zm22.189-2.831c.379.049.659.147.84.293.181.13.297.293.346.488.05.179.099.456.149.83l-.272.659a107.094 107.094 0 0 0-1.78 4.686l-.866 2.904-.296.513-.569 2.587c-.198.83-.379 1.627-.544 2.392a27.322 27.322 0 0 0-.321 1.659c0 .163-.009.293-.025.391a1.696 1.696 0 0 0-.025.293c-.148.341-.214.561-.198.659 0 .423-.09.699-.272.83-.164.13-.511.195-1.038.195a3.628 3.628 0 0 1-.742-.537 1.535 1.535 0 0 1-.371-.61c.017-.277.083-.7.198-1.269.066-.391.099-.611.099-.659l.297-2.051a3.76 3.76 0 0 1 .173-.292c.099-.131.173-.22.222-.269.05-.179.108-.447.173-.805l.124-.537c.066-.212.148-.553.247-1.025.116-.472.198-.814.248-1.025l-.223.244c-.198.358-.569.854-1.113 1.488-.329.423-.56.733-.692.928-.214.325-1.557 1.627-4.03 3.905-.412.407-.75.724-1.013.952-.281.293-.52.472-.717.537-.182.065-.52.114-1.014.146-.593-.472-.89-.911-.89-1.318l.099-.341c.033-.131.082-.22.148-.269.066-.065.157-.138.272-.22.214-.13.684-.504 1.409-1.122a51.837 51.837 0 0 0 1.632-1.44l1.286-1.269 1.31-1.416a7.572 7.572 0 0 1-.964-.439c-.297-.163-.511-.326-.643-.488-.709-.781-1.063-1.774-1.063-2.978 0-.879.165-1.709.494-2.49.182-.471.355-.821.52-1.049.181-.244.428-.52.741-.83.231-.195.396-.358.495-.488.478-.52.98-.911 1.508-1.171.544-.26 1.475-.61 2.794-1.05.082 0 .404-.032.964-.097a13.37 13.37 0 0 1 1.533-.098c.165.065.305.122.42.17.132.05.239.09.321.123a1.53 1.53 0 0 1 .272-.195.753.753 0 0 1 .347-.025Zm-2.226 4.613c.066-.26.19-.618.371-1.074.05-.114.124-.301.223-.561.099-.277.189-.57.272-.879a1.009 1.009 0 0 0-.272-.024c-.297 0-.692.048-1.187.146-1.071.195-2.093.635-3.066 1.318-.972.667-1.623 1.383-1.953 2.148-.165.39-.28.724-.346 1a2.93 2.93 0 0 0-.074.855c0 .211.016.382.049.512s.091.293.173.488l.198.562a3 3 0 0 0 .371.048c.198.017.338.017.42 0l.594-.195c.725-.211 1.269-.431 1.631-.659.297-.146.569-.22.816-.22.215 0 .388.033.52.098l.074-.195 1.186-3.368Zm10.779 14.888a164.28 164.28 0 0 0-.593-.195c-.297-.082-.503-.122-.618-.122a.901.901 0 0 1-.495-.318.947.947 0 0 1-.173-.561c0-.114.008-.203.025-.269.049-.048.09-.179.123-.39.05-.195.074-.374.074-.537.05-.098.091-.195.124-.293.033-.114.074-.268.124-.464.132-.716.437-1.92.914-3.612.478-1.692.775-2.595.891-2.709v-.268c0-.05.016-.147.049-.293a1.32 1.32 0 0 1 .222-.464c.066-.195.116-.382.149-.561.049-.196.082-.342.099-.44.066-.081.173-.325.321-.732.165-.407.272-.675.322-.805.115-.31.255-.667.42-1.074.181-.423.305-.7.371-.83v-.122c.033-.032.115-.195.247-.488.148-.31.272-.57.371-.781.115-.26.42-.936.915-2.026.033-.065.123-.252.272-.561.148-.31.222-.505.222-.586.165-.179.346-.268.544-.268.247 0 .478.114.692.341.231.212.412.44.544.684l.247.39-.914 1.757c-.248.44-.47.855-.668 1.245-.198.374-.297.594-.297.66-.049.113-.14.349-.272.707l-.395 1.22c-.231.619-.42 1.082-.569 1.391-.132.26-.198.415-.198.464 0-.065.915-.097 2.745-.097.28 0 .791-.009 1.533-.025.741-.016 1.211-.04 1.409-.073l1.285-.122.693-2.172c.165-.57.527-1.676 1.088-3.32.23-.683.494-1.187.791-1.513.296-.341.56-.512.791-.512.066 0 .231.097.494.293.281.178.445.333.495.463.181.18.272.366.272.562 0 .227-.132.545-.396.951-.198.342-.478.985-.84 1.929-.149.439-.239.691-.272.756 0 .342-.083.594-.248.757-.066.065-.181.3-.346.708-.165.39-.247.618-.247.683 0 .13-.025.276-.074.44a.817.817 0 0 1-.173.317l-.173.585c-.577 2.067-1.03 3.499-1.36 4.296 0 .081-.041.228-.124.439-.082.212-.123.358-.123.439-.033.114-.107.342-.223.684-.115.342-.173.545-.173.61a31.851 31.851 0 0 0-.346 1.782c-.115.683-.19 1.163-.223 1.44-.28.032-.51.016-.692-.049a2.249 2.249 0 0 1-.519-.269 6.994 6.994 0 0 0-.346-.195c-.396-.211-.593-.504-.593-.879 0-.211.074-.463.222-.756.049-.081.206-.61.47-1.587l.222-.903c.132-.358.248-.699.346-1.025.099-.341.19-.634.272-.878.264-.944.429-1.448.495-1.513v-.245c-.05-.08-.536-.122-1.459-.122-1.005 0-2.052.066-3.14.196h-2.126c-.082.179-.321.895-.717 2.147-.396 1.237-.618 2.026-.667 2.368a56.194 56.194 0 0 1-.544 2.221c-.248.96-.437 1.66-.569 2.099Zm15.112-1.22c-.115-.163-.313-.277-.593-.342-.264-.049-.693-.057-1.286-.025-.346.049-.7-.008-1.063-.17-.346-.163-.486-.35-.42-.562.016-.211.255-.423.717-.634.478-.228 1.046-.35 1.706-.366l1.038-.025.247-.488a.995.995 0 0 0 .099-.293c.017-.114.041-.211.074-.293l.223-.878.371-1.172c.494-1.481.816-2.522.964-3.124.082-.195.214-.586.395-1.171.182-.586.322-1.066.421-1.44.758-2.295 1.071-3.458.939-3.49-.165-.017-.601.016-1.31.097-.709.065-1.104.122-1.187.17-.082.115-.222.099-.42-.048-.198-.146-.322-.309-.371-.488a.861.861 0 0 1-.025-.244c0-.228.058-.374.173-.44.165-.146.585-.308 1.261-.487.693-.18 1.335-.31 1.929-.391.28-.033.56-.09.84-.17.297-.099.519-.212.668-.343.346-.114.634-.162.865-.146.116.081.396.122.841.122.379 0 .667-.008.865-.024.429-.033.725-.05.89-.05.989 0 1.582.229 1.78.684.033.163.05.285.05.366a.688.688 0 0 1-.198.513c-.115.13-.28.187-.495.17-.296.082-.848.13-1.656.147-1.088.098-1.673.212-1.755.342a2.02 2.02 0 0 0-.198.22c-.033.065-.074.13-.124.195.017.146-.132.675-.445 1.586l-.445 1.294c-.461 1.415-.758 2.286-.89 2.611a3.893 3.893 0 0 0-.247.854c-.132.44-.256.863-.371 1.27-.099.39-.206.764-.321 1.122l-.965 3.393 1.484-.122c.972-.098 1.557-.147 1.755-.147.165 0 .272.017.322.049.049.033.082.09.098.171a.728.728 0 0 0 .05.146c.148.196.222.383.222.562 0 .293-.197.529-.593.707-.396.179-.939.261-1.632.245-.741.032-1.343.057-1.805.073-.461.032-.75.073-.865.122-.115.049-.173.13-.173.244a.343.343 0 0 1-.148.342.67.67 0 0 1-.445.146c-.313 0-.594-.13-.841-.39Zm22.701-16.524c.231.277.346.562.346.855 0 .13-.033.309-.099.537l-.89 1.952-.42 1.318a9.8 9.8 0 0 1-.173.513c-.05.178-.108.366-.173.56a22.424 22.424 0 0 1-.569 1.734c-.247.553-.577 1.399-.989 2.538l-.495 1.367c-.164.407-.412 1.285-.741 2.636a67.147 67.147 0 0 1-.47 1.806c.017.114-.016.284-.099.512a6.062 6.062 0 0 0-.123.513c.016.26-.099.488-.347.683a1.19 1.19 0 0 1-.791.293.831.831 0 0 1-.42-.098c-.495-.195-.742-.512-.742-.951 0-.261.091-.659.272-1.196.099-.261.165-.456.198-.586l.222-.952c.314-1.562.536-2.441.668-2.636l1.038-2.709a19.137 19.137 0 0 1-2.348 1.611c-.742.423-1.335.634-1.78.634-.825.033-1.542-.154-2.151-.561-.594-.423-.948-.984-1.064-1.684-.065-.635.009-1.4.223-2.294.231-.895.354-1.383.371-1.465.132-.423.305-.968.519-1.635a65.64 65.64 0 0 1 .544-1.562c.445-.862.758-1.537.939-2.026a31.96 31.96 0 0 0 .544-1.66c.017-.325.215-.487.594-.487.412 0 .791.162 1.137.488.346.325.519.659.519 1a.766.766 0 0 1-.123.415c-.231.407-.511.968-.841 1.684l-.519 1.074-.816 2.026a9.242 9.242 0 0 0-.297 1.025c-.165.651-.305 1.09-.42 1.318a9.47 9.47 0 0 1-.173.513 6.1 6.1 0 0 0-.198.585c-.033.18-.025.318.025.415.082.212.181.35.297.415.131.065.379.098.741.098.709 0 1.607-.374 2.695-1.123 1.088-.765 2.027-1.554 2.819-2.367l.89-2.514c.049-.342.181-.773.395-1.294.182-.472.264-.773.247-.903 0-.244.108-.44.322-.585a1.3 1.3 0 0 1 .766-.245c.182 0 .355.041.519.122.165.066.305.163.421.293Zm1.941 16.377c-.643-.472-1.137-.895-1.483-1.269-.346-.374-.528-.732-.544-1.074a2.523 2.523 0 0 1-.025-.439c0-.456.041-1.025.124-1.709.082-.683.165-1.228.247-1.635.066-.065.099-.163.099-.293.016-.13.016-.211 0-.244 0-.049.041-.211.123-.488.198-.602.338-1.106.421-1.513.445-1.335.882-2.4 1.31-3.198.429-.797.907-1.545 1.434-2.245 1.121-1.139 2.316-2.001 3.585-2.587.643-.374 1.104-.561 1.385-.561a.78.78 0 0 1 .222.049c2.027.439 3.239 1.708 3.634 3.807.149.992.223 1.74.223 2.245 0 .814-.148 1.636-.445 2.465-.297.83-.832 1.872-1.607 3.124-.659 1.302-1.409 2.417-2.25 3.344-.824.911-1.656 1.595-2.497 2.05-.824.456-1.599.684-2.324.684-.643 0-1.187-.171-1.632-.513Zm1.978-1.611c.396-.049.701-.122.915-.219.231-.098.461-.261.692-.489.247-.244.643-.675 1.187-1.293a42.664 42.664 0 0 0 1.459-1.709c.28-.374.535-.838.766-1.391.247-.553.519-1.35.816-2.392l.148-.56c.099-.343.165-.62.198-.83.049-.229.074-.473.074-.733l-.025-1.537a4.281 4.281 0 0 0-.173-.952c-.099-.342-.214-.586-.346-.733a1.51 1.51 0 0 0-.544-.366 1.4 1.4 0 0 0-.667-.17c-.165 0-.355.04-.569.121-.313.13-.75.48-1.31 1.05a15.972 15.972 0 0 0-1.508 1.708c-.429.586-.643.977-.643 1.172 0 .016-.008.065-.025.146a.52.52 0 0 1-.099.22c-.428.456-.865 1.416-1.31 2.88-.429 1.464-.676 2.742-.742 3.832a9.426 9.426 0 0 0 0 .976c.033.179.124.382.272.61.115.179.322.35.618.513.313.146.585.195.816.146Zm10.925.708.198-1.147c.148-1.058.313-2.018.494-2.88.198-.862.33-1.294.396-1.294.066-.032.099-.122.099-.268.016-.163.024-.277.024-.342l.05-.61.816-2.392c.016-.163.14-.488.371-.976.247-.488.527-1.025.84-1.61.182-.603.272-.985.272-1.148.132-.472.198-.732.198-.781l.099-.244c0-.065-.05-.098-.148-.098-.05 0-.174.017-.371.05a1.145 1.145 0 0 1-.272.048 2.03 2.03 0 0 1-.445 0c-.198.049-.355.016-.47-.098a1.357 1.357 0 0 1-.223-.341 3.65 3.65 0 0 0-.098-.244c-.132-.13-.198-.269-.198-.415a.26.26 0 0 1 .074-.196.185.185 0 0 1 .198-.073h.049c.099 0 .214-.065.346-.195.083-.081.256-.179.519-.293.264-.114.553-.179.866-.195.247-.016.643-.09 1.187-.22.543-.13.848-.228.914-.293 0-.081.058-.122.173-.122h.198a7.35 7.35 0 0 1 .396-.049c.181-.032.296-.04.346-.024.346-.146 1.31-.212 2.893-.195l.618.049c.214 0 .321-.033.321-.098.049 0 .173.016.371.049.214.032.437.081.667.146.462.033.816.09 1.064.171.247.065.436.228.568.488.132.26.19.651.173 1.172l-.099.561-.667-.22a45.361 45.361 0 0 0-1.434-.17 14.594 14.594 0 0 0-1.484-.098c-.181 0-.304.008-.37.024a3.63 3.63 0 0 0-.52.05 3.026 3.026 0 0 1-.544 0 2.995 2.995 0 0 1-.766.097l-.297-.025a3.278 3.278 0 0 1-.42.098c-.165.033-.28.073-.346.122a2.978 2.978 0 0 0-.173.098.578.578 0 0 1-.198.049c-.033 0-.058.024-.074.073a1.53 1.53 0 0 0-.05.244c0 .097-.008.22-.024.366.016.195.008.333-.025.415a1.639 1.639 0 0 1-.148.366 31.87 31.87 0 0 0-.52 1.196 3.208 3.208 0 0 1-.197.415c-.05.114-.091.211-.124.293-.148.26-.239.463-.272.61-.181.488-.354.862-.519 1.122l-.42 2.27c-.099 0-.149.122-.149.366 0 .049-.024.106-.074.171a.582.582 0 0 1-.074.122.624.624 0 0 0-.148.147.514.514 0 0 0-.025.171c0 .048-.008.17-.025.366a2.153 2.153 0 0 1-.123.561c-.215.7-.404 1.399-.569 2.099-.165.683-.214 1.066-.148 1.147.049.049.164.081.346.098h.395c.017-.017.041-.025.074-.025.066 0 .124.057.173.171.05.098.091.22.124.366-.016.049-.173.236-.47.562l-.544.61c-.28.683-.585 1.025-.914 1.025-.165 0-.371-.106-.618-.318l-1.113-.927Zm15.439.268c-.758-.26-1.368-.748-1.83-1.464-.445-.716-.667-1.562-.667-2.538 0-.391.033-.749.099-1.074.033-.423.131-.919.296-1.489a5.62 5.62 0 0 0 .223-.903.54.54 0 0 1 .049-.17c.033-.082.041-.147.025-.196.099-.244.239-.586.42-1.025.198-.44.322-.683.371-.732.066-.033.099-.074.099-.122a.425.425 0 0 0 .025-.098c0-.211.222-.667.667-1.367.462-.7.956-1.383 1.484-2.05.527-.667.84-1 .939-1 .033 0 .074-.033.124-.098.049-.082.082-.122.099-.122.115-.13.577-.366 1.384-.708.808-.358 1.451-.594 1.929-.708.329-.114.667-.17 1.013-.17.841 0 1.525.39 2.052 1.17.528.766.8 1.831.816 3.198-.049.244-.09.602-.123 1.074-.033.374-.058.586-.075.635-.016.488-.123 1.098-.321 1.83-.181.716-.305 1.082-.371 1.098a.388.388 0 0 1-.049.171.388.388 0 0 0-.05.171c.017.147-.198.659-.643 1.538-.445.862-.7 1.301-.766 1.318a.196.196 0 0 0-.074.024c-.017.016-.017.049 0 .098.016.049-.116.195-.396.439-.263.244-.453.366-.568.366-.017 0-.033.008-.05.025 0 .016.017.048.05.097s-.206.26-.717.635c-.495.374-1.03.74-1.607 1.098-.577.342-1.014.545-1.311.61a.431.431 0 0 1-.222.122.808.808 0 0 1-.124.025c-.115.114-.329.211-.643.292a3.322 3.322 0 0 1-.89.123c-.247 0-.469-.041-.667-.123Zm2.497-2.562a5.45 5.45 0 0 0 1.483-.781c.495-.374.791-.716.89-1.025.083-.293.198-.497.346-.61.281-.277.652-.912 1.113-1.904.478-1.009.725-1.692.742-2.05 0-.098.024-.252.074-.464.049-.228.107-.39.173-.488.033-.049.041-.155.025-.317a8.574 8.574 0 0 1-.025-.757c0-.423.008-.79.025-1.098-.05-1.058-.215-1.668-.495-1.83-.132-.098-.354-.147-.667-.147-.083 0-.19.016-.322.049a1.82 1.82 0 0 0-.346.122 1.2 1.2 0 0 1-.346.073c-.231.13-.346.276-.346.44a.44.44 0 0 1-.198.365c-.115.098-.239.106-.371.025-.296.016-.486.057-.568.122-.083.065-.19.22-.322.463a8.579 8.579 0 0 1-.321.586c-.412.31-.725.635-.94.976-.214.342-.346.627-.395.855-.511.878-.833 1.497-.965 1.855-.115.341-.214.813-.296 1.415a3.736 3.736 0 0 0-.322.854c-.066.326-.123.537-.173.635-.033.13-.049.301-.049.512 0 .358.025.733.074 1.123.049.374.115.627.198.757.132.439.42.659.865.659.363 0 .849-.139 1.459-.415Zm24.569 4.759c-.198-.065-.413-.26-.643-.586a3.81 3.81 0 0 1-.495-.903c.676-2.831 1.203-4.783 1.583-5.857.082-.44.123-.684.123-.732a.232.232 0 0 0-.099-.196c-.165-.097-.783-.236-1.854-.415a64.709 64.709 0 0 0-2.621-.439c-.148.016-.371-.008-.667-.073a2.895 2.895 0 0 0-.643-.073c-.264 0-.429-.008-.495-.025-.065-.016-.123-.065-.173-.146a.745.745 0 0 0-.024-.122c0-.082-.074.097-.223.537a1173.9 1173.9 0 0 0-.519 1.733c-.462 1.366-.766 2.587-.915 3.661l-.099.512a28.646 28.646 0 0 1-.667 2.05c-.165.472-.305.716-.421.732-.032.065-.156.074-.37.025a4.29 4.29 0 0 1-.594-.195c-.313-.212-.469-.537-.469-.977 0-.26.049-.626.148-1.098.099-.488.222-1.041.371-1.66a6.01 6.01 0 0 1 .123-.561 53.89 53.89 0 0 1 .396-2.026c.115-.455.231-.724.346-.805.033-.13.124-.505.272-1.123.165-.618.363-1.18.593-1.684.198-.716.52-1.619.965-2.709.445-1.09.997-2.376 1.656-3.856l.42-.952c.132-.114.206-.285.223-.513.033-.244.058-.398.074-.463.115-.228.33-.456.643-.684.313-.227.536-.333.667-.317.198.032.404.155.619.366.23.212.403.44.519.683.115.245.14.448.074.61-.099.098-.256.391-.47.88a80.796 80.796 0 0 0-.717 1.78l-.297.465c-.28.423-.453.724-.519.903a2.14 2.14 0 0 0-.222.537c-.05.211-.099.341-.149.39-.148.31-.321.692-.519 1.147-.198.44-.28.692-.247.757.033.049.297.106.791.17.495.066.808.106.94.123l.593.073c.115-.016.709.04 1.78.17l1.063.147c.478.147.874.252 1.187.318.33.048.511.04.544-.025l.445-1.05.124-.536c.23-.977.395-1.62.494-1.928.445-.749.808-1.863 1.088-3.344.082-.326.198-.602.346-.83a5.52 5.52 0 0 1 .42-.61c.149-.18.247-.301.297-.366a2.7 2.7 0 0 0 .173.073c.099.033.206.065.321.098.594.114.89.52.89 1.22 0 .553-.164 1.31-.494 2.27l-.396 1.025c-.428.96-.675 1.619-.741 1.977a7.577 7.577 0 0 0-.099.317 7.57 7.57 0 0 0-.099.317c-.247.814-.486 1.473-.717 1.977v.025c0 .114.165.284.494.512.182.114.272.269.272.464s-.09.374-.272.537a.783.783 0 0 1-.568.244c-.247 0-.421.049-.519.146-.083.082-.149.31-.198.684-.363.813-.775 2.017-1.236 3.612-.462 1.594-.684 2.603-.668 3.026-.082.244-.173.407-.272.488a.427.427 0 0 1-.346.147c-.049 0-.157-.016-.321-.049Zm11.231-1.391c-.561-.13-1.212-.366-1.953-.708-.742-.325-1.138-.594-1.187-.805a.232.232 0 0 0-.099-.196.31.31 0 0 0-.223-.097v-.366c0-.114-.032-.187-.098-.22-.083-.163-.124-.399-.124-.708 0-.504.082-1.139.247-1.903.182-.765.379-1.449.594-2.051 0-.113.024-.26.074-.439.066-.179.099-.293.099-.342.132-.374.395-.968.791-1.781.395-.814.725-1.383.989-1.709 0-.048.057-.154.173-.317.132-.179.222-.358.272-.537.263-.26.618-.765 1.063-1.513.577-.472.816-.895.717-1.27.016-.341.156-.585.42-.731.28-.163.775-.326 1.484-.489a6.62 6.62 0 0 1 1.582-.39c.544-.081 1.261-.138 2.151-.17.214-.05.395-.082.544-.099a5.01 5.01 0 0 1 .296-.024c.05-.049.297-.024.742.073a4.1 4.1 0 0 1 1.236.415c.379.18.561.382.544.61-.016.13-.387.301-1.112.513-.709.195-1.36.325-1.953.39l-.619.074c-.956.097-1.648.203-2.076.317a2.722 2.722 0 0 0-1.138.586c-.346.293-.741.78-1.186 1.464-.594.911-.89 1.53-.89 1.855 0 .211.115.317.346.317.148 0 .371-.016.667-.049a5.01 5.01 0 0 1 .668-.073c.082-.032.272-.098.568-.195.314-.098.66-.17 1.039-.22l1.088-.22c.329-.08.577-.121.741-.121.577 0 .866.195.866.585 0 .212-.107.44-.322.684a1.875 1.875 0 0 1-.791.561 14.49 14.49 0 0 1-1.013.342c-.38.114-.619.17-.717.17a1.026 1.026 0 0 1-.248.05 3.283 3.283 0 0 1-.445.024l-1.112.146-.816.098c-.132.032-.445.114-.94.244-.494.13-.816.276-.964.44-.148.146-.288.39-.42.731a8.348 8.348 0 0 0-.519 1.733 9.2 9.2 0 0 0-.198 1.758c0 .504.074.829.222.976.363.407.932.61 1.706.61a4.89 4.89 0 0 0 1.261-.171 4.46 4.46 0 0 0 1.162-.512 3.544 3.544 0 0 1 1.039-.562c.148-.097.272-.146.37-.146.083 0 .173.032.272.097.099.049.19.106.272.171.099.065.182.122.248.171a.937.937 0 0 1 .197.561c0 .537-.692 1.091-2.076 1.66a24.56 24.56 0 0 1-1.855.561 5.297 5.297 0 0 1-1.261.171l-.395-.024Zm-232.407 21.16c-.049.082-.181.187-.396.318.281.179.528.374.742.585.231.212.371.399.42.562.478.748.717 1.627.717 2.636 0 .52-.057 1.041-.173 1.562a34.674 34.674 0 0 1-.741 1.366c-.346.651-.874 1.213-1.583 1.684-.708.472-1.359.781-1.953.928a7.338 7.338 0 0 1-2.101.317c-.165 0-.396-.016-.693-.049a4.818 4.818 0 0 1-1.137-.219c-.329-.098-.75-.285-1.261-.562a4.423 4.423 0 0 1-1.285-1.025c-.347-.406-.676-.87-.989-1.391a1.233 1.233 0 0 1-.198-.708c0-.309.099-.61.297-.903.197-.293.436-.529.717-.707.214-.131.42-.196.618-.196.132 0 .247.025.346.073.115.049.198.082.247.098.313.049.511.212.593.488.083.277.132.423.149.44a6.282 6.282 0 0 1-.272.707.637.637 0 0 1-.272.318 3.6 3.6 0 0 0 .915.951c.197.147.478.277.84.391.379.114.643.155.791.122.017-.016.058-.024.124-.024.082 0 .165.016.247.048.099.017.157.017.173 0 .083-.032.231-.048.445-.048.231-.017.412-.057.544-.122a5.24 5.24 0 0 0 1.409-.611c.413-.276.8-.634 1.162-1.073.248-.342.413-.643.495-.904.099-.276.165-.642.198-1.098.033-.244 0-.52-.099-.83a12.605 12.605 0 0 1-.198-.659l-.321-.244-.544-.146c-.429-.13-.734-.195-.915-.195-.198 0-.404.032-.618.097-.28.082-.47.122-.569.122-.181 0-.346-.04-.494-.122a2.82 2.82 0 0 0-.248-.171c-.23-.081-.436-.252-.618-.512-.164-.277-.247-.545-.247-.806 0-.146.041-.284.124-.414a.972.972 0 0 1 .47-.415c.214-.114.453-.155.717-.122.065.016.156.024.271.024.231 0 .511-.065.841-.195.198-.065.511-.244.94-.537.428-.293.642-.431.642-.415.544-.683.932-1.196 1.162-1.538.248-.358.445-.748.594-1.171.181-.326.272-.675.272-1.05 0-.211-.041-.415-.124-.61-.016-.097-.132-.179-.346-.244a2.055 2.055 0 0 0-.593-.098.624.624 0 0 0-.223.025c-.264.016-.651.114-1.162.293-.511.162-.816.284-.915.366-.89.748-1.425 1.253-1.607 1.513-.066.114-.181.203-.346.269a1.217 1.217 0 0 1-.494.097c-.313 0-.52-.081-.618-.244a1.728 1.728 0 0 1-.272-.927c0-.375.14-.733.42-1.074.313-.391.585-.7.816-.928a3.52 3.52 0 0 1 .816-.634l.469-.269c.066-.032.215-.114.445-.244a4.01 4.01 0 0 1 .693-.293c.066-.016.255-.081.568-.195.33-.114.676-.171 1.039-.171.148 0 .263.008.346.025.56.048.972.146 1.236.293.28.146.709.463 1.286.951.247.163.445.448.593.855.148.406.223.87.223 1.391 0 .781-.149 1.489-.445 2.123a5.46 5.46 0 0 0-.272.513c-.033.065-.141.26-.322.585-.165.31-.354.586-.568.83-.149.195-.462.578-.94 1.147Zm21.273-5.393c0 .211-.058.488-.173.829a13.593 13.593 0 0 0-.396 1.562 7.991 7.991 0 0 0-.123 1.221l.024.244c-.098.211-.181.537-.247.976a5.5 5.5 0 0 1-.099.537.394.394 0 0 1-.173.244c0 .065.008.171.025.317.033.147.049.269.049.366v.293c-.313 1.774-.469 3.344-.469 4.711 0 .716.049 1.277.148 1.684.115.407.264.626.445.659.033 0 .058.008.074.024.017.016.025.057.025.122 0 .212-.058.407-.173.586a2.601 2.601 0 0 1-.346.488 4.565 4.565 0 0 1-.297.342 3.382 3.382 0 0 1-.124.171c-.033.065-.09.097-.173.097-.115 0-.321-.04-.618-.122-.049-.097-.206-.219-.469-.366-.264-.13-.478-.407-.643-.83-.165-.423-.248-1.139-.248-2.147 0-.277.009-.497.025-.659v-.074a2.416 2.416 0 0 1-.025-.415c0-.748.083-1.692.248-2.831a59.49 59.49 0 0 1 .568-3.124c.132-.553.305-1.236.52-2.05.214-.846.321-1.302.321-1.367l-.025-.024c.033.049-.329.708-1.088 1.977-.758 1.253-1.219 1.993-1.384 2.221-.083.114-.239.407-.47.878l-.692 1.416c-1.352 1.985-2.39 2.978-3.115 2.978-.693 0-1.146-.244-1.36-.733-.198-.488-.305-.919-.322-1.293a24.48 24.48 0 0 1-.024-.683c.033-.179.049-.391.049-.635v-.269c0-.048.017-.179.05-.39.049-.228.09-.48.123-.757 0-.097.083-.602.248-1.513.23-1.106.346-1.814.346-2.123 0-.065-.009-.106-.025-.122v.049c0 .048-.099.227-.297.537-.247.309-.535.764-.865 1.366-.313.602-.767 1.505-1.36 2.709-.115.212-.288.562-.519 1.05-.05.504-.396 1.424-1.038 2.758l-.223.561c-.494 1.22-.89 2.115-1.187 2.685-.28.553-.494.822-.643.805-.082 0-.255-.081-.519-.244a3.174 3.174 0 0 1-.717-.61c-.214-.244-.321-.488-.321-.732 0-.033.14-.326.42-.879.462-.927.717-1.48.767-1.659a2.79 2.79 0 0 0 .049-.269c.033-.114.214-.407.544-.879 0-.097.074-.341.222-.732.165-.406.38-.87.643-1.391.132-.195.198-.382.198-.561.148-.179.338-.578.569-1.196.082-.228.165-.448.247-.659a2.12 2.12 0 0 1 .297-.488c.049-.033.131-.147.247-.342a49.096 49.096 0 0 1 1.533-2.587l.296-.537c.066-.179.124-.277.173-.293.066-.016.338-.464.816-1.342.742-1.025 1.171-1.538 1.286-1.538.099 0 .272.057.519.171.264.114.495.252.692.415.215.163.322.309.322.439 0 .049.008.187.025.415.016.228.024.472.024.732 0 .635-.272 2.75-.816 6.346l-.123.781c.016.049.041.146.074.293.033.13.049.277.049.439.215-.325.404-.586.569-.781.429-.618.734-1.106.915-1.464 0-.082.025-.163.074-.244a3.92 3.92 0 0 0 .198-.269c.132-.162.231-.309.296-.439a.757.757 0 0 0 .124-.415c.462-.651.874-1.269 1.236-1.855 1.385-2.131 2.242-3.343 2.572-3.636.115-.098.288-.179.519-.244.247-.066.478-.098.692-.098.462 0 .816.138 1.063.415.247.26.371.594.371 1.001Zm4.105 15.449c-.115-.163-.313-.277-.593-.342-.264-.049-.693-.057-1.286-.024-.346.049-.7-.008-1.063-.171-.346-.163-.486-.35-.42-.561.016-.212.255-.424.717-.635.478-.228 1.046-.35 1.706-.366l1.038-.025.247-.488a.986.986 0 0 0 .099-.293c.017-.113.041-.211.074-.292l.223-.879.371-1.172c.494-1.48.815-2.522.964-3.124.082-.195.214-.585.395-1.171.182-.586.322-1.066.421-1.44.758-2.294 1.071-3.458.939-3.49-.165-.016-.601.016-1.31.097-.709.065-1.104.122-1.187.171-.082.114-.222.098-.42-.049-.198-.146-.322-.309-.371-.488a.825.825 0 0 1-.025-.244c0-.228.058-.374.173-.439.165-.147.585-.309 1.261-.488a17.062 17.062 0 0 1 1.929-.391c.28-.032.56-.089.84-.171.297-.097.519-.211.668-.341.346-.114.634-.163.865-.147.116.082.396.122.841.122.379 0 .667-.008.865-.024.429-.033.725-.049.89-.049.989 0 1.582.228 1.78.684.033.162.05.284.05.366a.687.687 0 0 1-.198.512c-.116.13-.28.187-.495.171-.296.081-.848.13-1.656.146-1.088.098-1.673.212-1.755.342a1.992 1.992 0 0 0-.198.22c-.033.065-.074.13-.124.195.017.146-.132.675-.445 1.586l-.445 1.294c-.461 1.416-.758 2.286-.89 2.611a3.904 3.904 0 0 0-.247.855 79.38 79.38 0 0 0-.371 1.269c-.099.39-.206.765-.321 1.123l-.965 3.392 1.484-.122c.972-.098 1.557-.146 1.755-.146.165 0 .272.016.322.048.049.033.082.09.098.171a.765.765 0 0 0 .05.147c.148.195.222.382.222.561 0 .293-.197.529-.593.708-.396.179-.94.26-1.632.244-.741.032-1.343.057-1.805.073-.461.033-.75.073-.865.122-.115.049-.173.13-.173.244a.342.342 0 0 1-.148.342.665.665 0 0 1-.445.146c-.314 0-.594-.13-.841-.39Zm8.509-.122c-.247-.098-.412-.195-.494-.293-.066-.098-.14-.285-.223-.561.116-.716.215-1.204.297-1.465.099-.342.206-.805.322-1.391.115-.537.197-.895.247-1.074l.568-1.147c.116-.537.363-1.294.742-2.27.28-.781.528-1.424.742-1.928l.42-1.049c.264-.749.511-1.351.742-1.806-.297-.033-.511-.082-.643-.147a.953.953 0 0 1-.297-.39c-.082-.277-.14-.668-.173-1.172.231-.195.462-.325.693-.39.23-.082.412-.122.543-.122l1.434-.464c2.291-.521 3.585-.781 3.882-.781.231-.016.404-.016.519 0h.198l1.533-.22c.132-.049.313-.073.544-.073.231-.016.387-.041.47-.073a.658.658 0 0 1 .296-.074c.083 0 .173.009.272.025l.371.049c.214.114.371.244.47.39.099.13.189.326.272.586l-.124.903c-.049.033-.214.138-.494.317a6.245 6.245 0 0 1-.866.488c-.313.131-.593.196-.84.196-.149 0-.28-.025-.396-.074-.198-.113-.33-.179-.395-.195a.396.396 0 0 1-.149-.097 96.97 96.97 0 0 0-.321-.318c-.149.098-.346.147-.594.147-.263 0-.469.032-.618.097-.346.017-.881.106-1.607.269-.725.146-1.162.252-1.31.317l-.494 1.172c-.446.911-.8 1.741-1.064 2.489l-1.31 3.49c-.099.212-.288.724-.569 1.538-.263.797-.403 1.293-.42 1.489-.033.227-.156.716-.371 1.464-.214.732-.329 1.253-.346 1.562a.557.557 0 0 1-.074.293.905.905 0 0 1-.099.171 1.403 1.403 0 0 1-.667.171c-.083 0-.289-.017-.619-.049Zm24.85-.195a7.188 7.188 0 0 1-2.25.341 8.014 8.014 0 0 1-3.585-.854 1.092 1.092 0 0 0-.223-.488c-.115-.163-.247-.252-.395-.269-.05-.016-.132-.097-.248-.244a13.272 13.272 0 0 0-.247-.341c-.066-.326-.099-.521-.099-.586 0-.147.025-.374.075-.683.049-.31.09-.537.123-.684l.247-.659a39.512 39.512 0 0 1 1.311-3.295l.494-1.244a152.156 152.156 0 0 0 1.459-3.637c.231-.618.346-1.058.346-1.318 0-.146-.041-.317-.124-.513a1.304 1.304 0 0 1-.074-.414c0-.456.239-.773.717-.952a14.942 14.942 0 0 1 1.805-.781c.709-.261 1.261-.415 1.657-.464.082-.016.214-.024.395-.024a7.37 7.37 0 0 1 1.879.268c.692.163 1.071.35 1.137.561l.149.049a.43.43 0 0 1 .123.049c.066.033.157.098.272.195.165.114.305.326.421.635.115.293.173.569.173.83a.861.861 0 0 1-.025.244c0 .049.016.171.049.366l.124.439c.016.098.025.244.025.439 0 .912-.429 1.823-1.286 2.734l-.321.415a4.088 4.088 0 0 1-.272.317c-.132.163-.231.236-.297.22-.28.244-.42.447-.42.61 0 .081.049.138.148.171l.198.293c.115.146.264.325.445.537.428.651.643 1.415.643 2.294 0 .455-.058.862-.173 1.22-.116.423-.396.911-.841 1.465a9.99 9.99 0 0 1-1.632 1.586 8.283 8.283 0 0 1-1.903 1.172Zm-2.226-8.445a3.66 3.66 0 0 0 .693-.22 12.9 12.9 0 0 1 .84-.268c.907-.277 1.69-.692 2.349-1.245a4.608 4.608 0 0 0 1.409-2.001c.066-.13.124-.334.173-.61.066-.277.099-.521.099-.733a.996.996 0 0 0-.024-.268v-.195c-.215-.537-.759-.806-1.632-.806-.61 0-1.253.13-1.929.391a.676.676 0 0 0-.371.366 3.062 3.062 0 0 0-.173.537l-.074.488a5.888 5.888 0 0 1-.321 1.098l-.198.586c0 .032-.041.089-.124.171a.39.39 0 0 0-.098.244c-.033.065-.099.211-.198.439a4.415 4.415 0 0 0-.247.659 6.637 6.637 0 0 0-.248.659l-.099.391c0 .048.017.13.05.244.033.114.074.138.123.073Zm-.346 6.492c.281.049.552.073.816.073 1.385 0 2.522-.683 3.412-2.05.445-.553.668-1.033.668-1.44 0-.325-.141-.7-.421-1.123-.197-.276-.379-.471-.544-.585a.852.852 0 0 0-.544-.196c-.164 0-.42.057-.766.171l-.494.147c-.396.065-.989.236-1.781.512-.543.179-.857.269-.939.269a3.198 3.198 0 0 0-.346.341c-.165.179-.256.301-.272.366-.099.033-.198.155-.297.367-.082.211-.14.423-.173.634-.033.212-.025.326.025.342.066.016.058.154-.025.415-.082.26-.14.455-.173.586-.033.13-.049.211-.049.244 0 .292.173.512.519.659.362.146.824.235 1.384.268Zm11.827 2.27c-.116-.163-.314-.277-.594-.342-.264-.049-.692-.057-1.285-.024a1.909 1.909 0 0 1-1.064-.171c-.346-.163-.486-.35-.42-.561.017-.212.256-.424.717-.635.478-.228 1.047-.35 1.706-.366l1.038-.025.248-.488c.049-.097.082-.195.099-.293.016-.113.041-.211.074-.292l.222-.879.371-1.172c.495-1.48.816-2.522.964-3.124.083-.195.215-.585.396-1.171.181-.586.321-1.066.42-1.44.758-2.294 1.072-3.458.94-3.49-.165-.016-.602.016-1.311.097-.708.065-1.104.122-1.186.171-.083.114-.223.098-.421-.049-.198-.146-.321-.309-.371-.488a.87.87 0 0 1-.024-.244c0-.228.057-.374.173-.439.165-.147.585-.309 1.261-.488a17.092 17.092 0 0 1 1.928-.391 5.02 5.02 0 0 0 .841-.171c.296-.097.519-.211.667-.341.346-.114.635-.163.866-.147.115.082.395.122.84.122.379 0 .668-.008.866-.024.428-.033.725-.049.89-.049.989 0 1.582.228 1.78.684.033.162.049.284.049.366a.687.687 0 0 1-.198.512c-.115.13-.28.187-.494.171-.297.081-.849.13-1.657.146-1.087.098-1.673.212-1.755.342a2.219 2.219 0 0 0-.198.22 1.31 1.31 0 0 1-.123.195c.016.146-.132.675-.445 1.586l-.445 1.294c-.462 1.416-.759 2.286-.891 2.611a3.96 3.96 0 0 0-.247.855c-.132.439-.255.862-.371 1.269-.098.39-.206.765-.321 1.123l-.964 3.392 1.483-.122c.973-.098 1.558-.146 1.756-.146.164 0 .272.016.321.048.049.033.082.09.099.171a.776.776 0 0 0 .049.147c.149.195.223.382.223.561 0 .293-.198.529-.594.708-.395.179-.939.26-1.631.244-.742.032-1.344.057-1.805.073-.462.033-.75.073-.865.122-.116.049-.174.13-.174.244a.34.34 0 0 1-.148.342.663.663 0 0 1-.445.146c-.313 0-.593-.13-.84-.39Zm23.566-3.832c.329.098.585.285.766.561.181.261.272.545.272.855-.049.732-.264 1.537-.643 2.416a41.86 41.86 0 0 1-1.434 2.953l-.395.903a.62.62 0 0 1-.445.195c-.363 0-.783-.341-1.261-1.025a2.035 2.035 0 0 1-.05-.366c0-.342.14-.756.421-1.245l.519-.951.346-.684c.181-.325.321-.602.42-.83a3.35 3.35 0 0 0 .198-.634l-3.362.317-.099-.049a.393.393 0 0 0-.124.025 2.354 2.354 0 0 1-.173.048l-1.558.049h-.272a.73.73 0 0 0-.222.025c-.297.065-.61.097-.94.097-.247 0-.461.017-.642.049l-4.08.391-1.088.146c-.23.781-.535 1.977-.914 3.588l-.149.561c-.016.163-.082.277-.198.342-.098.081-.288.163-.568.244h-.445c-.544 0-.816-.309-.816-.928a2.6 2.6 0 0 1 .074-.634l.544-2.026.42-1.879.346-1.001 1.929-.366c.264-.065.643-.317 1.137-.756.495-.44.931-.92 1.31-1.44.858-1.156 1.525-2.27 2.003-3.344.478-1.074 1.055-2.62 1.731-4.637l.544-1.636.099-.17.247-.806a.947.947 0 0 0-.223-.024.621.621 0 0 1-.197-.025 1.396 1.396 0 0 1-.668-.561 1.654 1.654 0 0 1-.223-.83c0-.179.017-.309.05-.39l.297-.269a.765.765 0 0 1 .321.025c.132.016.255.024.371.024.181 0 .321-.016.42-.049l1.137-.171c.643-.097 1.039-.171 1.187-.219a57.33 57.33 0 0 1 2.769-.22 31.996 31.996 0 0 1 2.25-.073c.33 0 .651.106.964.317.313.212.503.456.569.732.033.57-.305 1.953-1.014 4.149-.692 2.197-1.368 4.044-2.027 5.541-.181.553-.552 1.521-1.113 2.904l-.469 1.196c.016 0 .23-.073.642-.22a3.44 3.44 0 0 1 1.212-.244c.099 0 .198.016.297.049Zm-4.179.366c.247-1.074.421-1.773.519-2.099.099-.325.272-.756.52-1.293l1.631-4.296.495-1.464c.626-1.79 1.005-2.97 1.137-3.539l-.593-.025c-.692 0-1.409.049-2.151.147-.742.081-1.269.195-1.582.341l-.297.903c-.148.456-.536 1.449-1.162 2.978a61.373 61.373 0 0 1-2.275 4.881c-.873 1.709-1.747 3.043-2.62 4.003.642-.016 1.837-.098 3.585-.244 1.763-.163 2.694-.26 2.793-.293Zm11.674 4.344a5.027 5.027 0 0 1-1.929-.366c-.395-.179-.774-.472-1.137-.878-.346-.407-.544-.814-.593-1.221a3 3 0 0 1-.025-.463c0-.456.091-1.042.272-1.758.099-.488.511-1.732 1.236-3.734.742-2.017 1.228-3.23 1.459-3.636.148-.375.247-.684.297-.928.148-.325.379-.813.692-1.464.329-.667.593-1.196.791-1.587.099-.195.165-.349.198-.463.329-.7.56-1.156.692-1.367.066-.212.14-.374.223-.488.098-.114.247-.22.445-.318.181.017.329.057.445.123.115.048.247.13.395.244.05.032.132.089.247.17.132.082.256.139.371.171.099.358.149.635.149.83 0 .293-.075.578-.223.854a74.47 74.47 0 0 0-2.596 5.345l-.272.611c-1.615 4.067-2.423 6.597-2.423 7.59 0 .114.008.187.025.22.049.211.297.317.742.317.461-.016.708-.025.741-.025a.503.503 0 0 1 .347-.073h.271l2.844-.732v-.195c0-.195.024-.391.074-.586.247-.96.527-1.757.84-2.392.099-.179.198-.48.297-.903.264-.944.717-2.172 1.36-3.685a49.52 49.52 0 0 0 .989-2.514c.758-2.262 1.294-3.62 1.607-4.076.461.098.808.155 1.038.171.066.179.149.293.248.342.313.179.576.593.791 1.244-.215.261-.709 1.383-1.484 3.368-.758 1.969-1.31 3.458-1.656 4.467a10.46 10.46 0 0 1-.223.634 4.278 4.278 0 0 1-.346.781c-.132.212-.321.659-.568 1.343-.231.667-.355 1.122-.371 1.366l.568-.146c.379-.065.915-.179 1.607-.342.445-.097.899-.187 1.36-.268.462-.081.898-.13 1.31-.147.116-.634.322-1.35.619-2.147l.173-.513.222-.708a30.67 30.67 0 0 1 1.113-3.172l.469-1.074c.314-1.139.66-2.124 1.039-2.954.049-.097.132-.292.247-.585.132-.293.231-.562.297-.806v-.244c.016-.163.016-.252 0-.268-.017-.065.082-.309.296-.732.149-.049.314-.074.495-.074.478 0 .906.139 1.286.415.395.277.56.627.494 1.05a4.649 4.649 0 0 1-.297.952c-.132.358-.272.699-.42 1.025a8.18 8.18 0 0 0-.494 1.122l-.594 1.611c-.511 1.302-.84 2.262-.989 2.88-.049.179-.14.448-.272.806a5.234 5.234 0 0 0-.247.683c-.082.293-.239.732-.47 1.318-.033.114-.107.325-.222.634-.116.31-.206.594-.272.855.313.114.552.268.717.463.181.196.272.399.272.611 0 .244-.107.455-.322.634-.214.163-.527.252-.939.269l-.47.512h-1.137l-.322-.39c-1.302.162-2.398.366-3.288.61a4.6 4.6 0 0 1-.371.049c-.164.016-.288.04-.371.073-.692.195-1.368.366-2.027.512l-1.112.293-.495.147c-.577.179-.989.276-1.236.293-.165.016-.527.081-1.088.195-.56.146-1.03.219-1.409.219Zm31.446-18.646c.297.081.544.252.742.512a1.321 1.321 0 0 1 .222 1.27c-.033.162-.14.431-.321.805l-.94 2.148c-.544 1.285-.873 2.017-.989 2.196-.412.83-.774 1.489-1.087 1.977-.396.7-.981 1.644-1.756 2.831-.148.228-.461.659-.939 1.294a28.512 28.512 0 0 1-.965 1.245c-.28.406-.576.773-.89 1.098-.296.325-.725.765-1.285 1.318l-.594.61a5.302 5.302 0 0 1-.692.708c-.198.26-.445.39-.742.39-.181 0-.362-.057-.544-.17-.445-.277-.667-.578-.667-.904 0-.097.025-.211.074-.341.05-.114.346-.448.89-1.001.544-.569.997-1.017 1.36-1.342a45.023 45.023 0 0 0 1.236-1.44 10.02 10.02 0 0 1-1.014-1.66c-.296-.634-.486-1.139-.568-1.513l-.42-2.148a1.546 1.546 0 0 0 0-.537l-.05-.293-.074-4.32.173-2.147v-.366c0-.212.058-.407.173-.586.115-.179.305-.269.569-.269.329-.048.667.09 1.013.415.346.309.52.627.52.952 0 .114-.025.22-.075.317a.652.652 0 0 0-.074.293v.293c0 .163-.008.293-.025.391-.032.325-.065.781-.098 1.366a62.34 62.34 0 0 0-.025 1.806c0 .489.008.806.025.952l.222 2.124c.017.341.124.87.322 1.586.214.7.42 1.302.618 1.806l.321-.415c.247-.276.412-.512.494-.707.116-.261.305-.594.569-1.001.198-.293.33-.513.396-.659.181-.326.354-.618.519-.879.231-.358.387-.618.47-.781l1.607-3.002c.115-.374.239-.732.371-1.074.148-.423.288-.87.42-1.342.148-.472.247-.887.297-1.245.098-.374.321-.561.667-.561h.223c.115-.016.222-.016.321 0Zm.87 17.451a1.23 1.23 0 0 1-.914-.464c-.248-.277-.388-.553-.421-.83.05-.081.099-.236.149-.464.049-.244.098-.382.148-.415.016-.13.066-.349.148-.659.083-.325.14-.626.173-.903.083-.179.19-.463.322-.854.082-.293.165-.521.247-.683.049-.13.107-.293.173-.488.066-.196.124-.334.173-.415.033-.114.107-.342.223-.684.115-.341.206-.626.272-.854.066-.244.107-.472.123-.683.165-.293.28-.602.346-.928.017-.032.099-.203.248-.512.164-.326.296-.708.395-1.147a104.656 104.656 0 0 1 1.014-2.392c.099-.195.198-.431.296-.708l.322-.952c0-.13.173-.504.519-1.123.115-.211.239-.398.371-.561.132-.179.222-.277.272-.293a1.64 1.64 0 0 1 .569-.122c.346 0 .634.114.865.342.231.228.346.464.346.708 0 .13-.033.236-.099.317-.066.098-.412.887-1.038 2.367l-.618 1.392c-.017.048-.099.26-.248.634a10.68 10.68 0 0 1-.247.61 7.824 7.824 0 0 0-.272.806 4.198 4.198 0 0 0-.47 1.049c-.115.407-.189.643-.222.708a7.982 7.982 0 0 1-.297.61l-.247.537c0 .423-.066.716-.198.879a3.993 3.993 0 0 1-.148.415l-.099.195a2.78 2.78 0 0 1-.074.317 1.85 1.85 0 0 0-.074.293c-.116.325-.346 1.09-.693 2.294-.28 1.042-.519 1.741-.717 2.099-.197.374-.403.562-.618.562Zm9.717-.83c-.033.065-.173.065-.421 0a4.348 4.348 0 0 1-.815-.318 2.937 2.937 0 0 1-.693-.537c-.445-.309-.931-.781-1.458-1.415a13.077 13.077 0 0 1-1.311-1.953l-.272-.561a4.26 4.26 0 0 0-.198-.39c-.065-.114-.14-.171-.222-.171-.165.016-.338-.187-.519-.61-.165-.44-.305-.879-.421-1.318.017-.163.066-.318.149-.464.099-.163.214-.236.346-.22.016-.081.338-.455.964-1.122a59.042 59.042 0 0 1 2.052-2.026c.742-.7 1.286-1.172 1.632-1.416.132-.179.264-.333.396-.464.033-.016.107-.048.222-.097.115-.065.223-.147.321-.244.132-.065.248-.155.347-.269.115-.13.197-.244.247-.341.099-.049.239-.139.42-.269s.387-.26.618-.39c.231-.131.421-.244.569-.342.148-.098.239-.163.272-.195.214 0 .437.04.667.122.248.081.445.228.594.439a.765.765 0 0 1 .099.391.902.902 0 0 1-.099.414.849.849 0 0 1-.223.293c-.115.244-.247.423-.395.537a3.84 3.84 0 0 1-.618.366 31.46 31.46 0 0 0-.322.171 1.632 1.632 0 0 0-.47.366c-.214.228-.552.488-1.013.781a3.935 3.935 0 0 1-.396.269c-.231.13-.437.301-.618.512-.379.375-.651.659-.816.855-.395.488-.766.862-1.112 1.122a.798.798 0 0 0-.173.073c-.099.033-.264.147-.495.342a9.211 9.211 0 0 0-.89.83l.495 1.049c.923 1.27 1.648 2.213 2.175 2.832.544.618 1.039.984 1.484 1.098.247.081.453.268.618.561.115.049.173.196.173.44 0 .292-.083.577-.247.854-.149.26-.363.398-.643.415Zm13.301 2.27c-.083 0-.206-.033-.371-.098a1.097 1.097 0 0 1-.371-.22c-.198-.195-.297-.488-.297-.878 0-.879-.016-1.457-.049-1.733l-.025-1.465c0-.374.025-.602.074-.683a2.05 2.05 0 0 1-.024-.366c0-.147.008-.317.024-.513a3.42 3.42 0 0 0 .05-.488l-.099-.659h-1.335a4.94 4.94 0 0 1-.643.025c-.445 0-1.508-.049-3.189-.147l-.322.513a7.561 7.561 0 0 0-.247.317c-.132.195-.272.488-.42.879-.149.39-.346.838-.594 1.342-.23.504-.445.895-.642 1.172-.248.455-.478.789-.693 1-.197.212-.346.317-.445.317h-.123a.818.818 0 0 1-.297-.048 1.034 1.034 0 0 1-.297-.171c-.445-.195-.667-.488-.667-.879 0-.276.132-.602.395-.976l.322-.513c0-.097.239-.61.717-1.537.494-.944.816-1.448.964-1.513.148-.147.223-.293.223-.44 0-.162-.099-.325-.297-.488a.407.407 0 0 1-.173-.195.989.989 0 0 1-.05-.317c0-.228.083-.423.248-.586.164-.163.42-.236.766-.22.082-.049.157-.089.223-.122.082-.032.14-.057.173-.073.049-.033.074-.073.074-.122 0-.081.132-.374.395-.879.281-.52.528-.911.742-1.171.165-.44.305-.757.42-.952.132-.195.215-.334.248-.415.082-.081.247-.35.494-.805.033-.049.14-.228.321-.537.165-.163.33-.35.495-.562.181-.228.297-.374.346-.439a3.41 3.41 0 0 1 .297-.415c.082-.195.23-.431.445-.708.214-.293.346-.472.395-.537.248-.293.544-.528.89-.707.347-.196.668-.293.965-.293.164 0 .305.024.42.073.412.179.775.512 1.088 1.001.313.488.494 1.057.544 1.708.016.114.049.366.099.757.065.39.098.732.098 1.025 0 .211-.024.382-.074.512v1.074c0 .537.017.936.05 1.196-.05.179-.074.472-.074.879l.024.951c0 .245-.008.448-.024.611l-.025.903-.025.903c-.016.407-.025.919-.025 1.537l.025 1.928c0 1.107-.099 1.912-.297 2.417-.181.504-.461.781-.84.83Zm-4.994-9.129c.082-.016.288-.04.618-.073.329-.032.684-.04 1.063-.024.461-.033.766-.049.915-.049.214 0 .428.008.642.024.231 0 .363-.008.396-.024.313.016.47-.268.47-.854a43.006 43.006 0 0 1-.173-3.71l.024-.757c0-.26-.024-.537-.074-.829a12.563 12.563 0 0 0-.074-.586c-.066-.081-.305.187-.717.805a43.311 43.311 0 0 0-1.014 1.66c-.098.13-.23.358-.395.683-.083.13-.173.285-.272.464-.083.179-.19.374-.322.586-.807 1.269-1.211 2.082-1.211 2.44 0 .114.041.196.124.244Zm22.658-7.151c.016.065.024.147.024.244a.486.486 0 0 1-.296.464l-.594.195c-.28.082-.511.122-.692.122a.989.989 0 0 1-.346-.048 1.484 1.484 0 0 0-.593-.318c-.231-.065-.709-.122-1.434-.17a3.913 3.913 0 0 1-.569.048c-.165 0-.297.008-.396.025a6.97 6.97 0 0 1-.494 1.196 3.804 3.804 0 0 1-.272.829c-.115.326-.165.513-.148.562-.05.065-.206.48-.47 1.245-.264.748-.511 1.48-.742 2.196-.165.505-.288.871-.371 1.098a8.262 8.262 0 0 0-.321.781l-.247.733-.618 1.684c-.132.244-.297.634-.495 1.171-.181.521-.33.993-.445 1.416-.181.634-.346 1.09-.494 1.367-.132.276-.248.447-.347.512-.098.065-.239.098-.42.098-.264 0-.494-.13-.692-.391-.198-.26-.297-.504-.297-.732 0-.358.124-.96.371-1.806.264-.846.511-1.521.742-2.026.066-.293.123-.529.173-.708.066-.179.107-.309.123-.39.05-.065.124-.236.223-.513.115-.293.206-.561.272-.805.049-.293.56-1.928 1.533-4.906l.173-.512c.148-.244.288-.554.42-.928.132-.081.198-.252.198-.512 0-.049.025-.114.074-.196.066-.081.099-.138.099-.17.017-.017.041-.025.074-.025.017 0 .033.008.05.025.033 0 .082-.033.148-.098h-.025l-1.211.122-.544.049c-.973.081-1.525.138-1.657.171l-.346.024c-.511 0-.873-.098-1.088-.293-.197-.211-.263-.447-.197-.708a.823.823 0 0 1 .371-.512c.214-.13.56-.244 1.038-.342.148-.032.437-.081.865-.146l.668-.122.84-.098a28.92 28.92 0 0 1 3.041-.293c.445-.016.816-.032 1.113-.049.313-.032.519-.057.618-.073.231.016.602.057 1.113.122.527.065.906.139 1.137.22.363.081.659.228.89.439.231.212.387.456.47.732Zm.272 15.474c-.149.147-.363.22-.643.22-.396 0-.775-.147-1.137-.44-.346-.276-.519-.626-.519-1.049 0-.146.024-.301.074-.464l3.115-10.031.371-1.196c.296-.927.519-1.684.667-2.27.165-.602.305-1.285.421-2.05l.321-.341c.132-.033.239-.049.321-.049.429 0 .816.171 1.162.512.347.326.52.692.52 1.099 0 .13-.009.227-.025.293-.148.634-.429 1.529-.841 2.684l-.296.83a212.057 212.057 0 0 0-2.423 7.249 94.621 94.621 0 0 1 2.423-3.197c1.582-2.018 3.494-4.028 5.735-6.029.198-.179.61-.618 1.237-1.318a55.971 55.971 0 0 0 1.409-1.659 3.85 3.85 0 0 0 .247-.293c.115-.163.239-.277.371-.342a.833.833 0 0 1 .445-.122c.346 0 .692.187 1.038.561.363.358.544.724.544 1.099 0 .065-.016.162-.049.292l-.816 2.197a284.912 284.912 0 0 0-2.126 6.126c-.05.13-.099.269-.149.415-.049.146-.107.309-.173.488-.461 1.22-.741 2.164-.84 2.831l-.124.757c-.198 1.236-.387 2.139-.569 2.709-.115.358-.346.537-.692.537-.264 0-.552-.098-.865-.293-.297-.195-.511-.399-.643-.61-.115-.212-.148-.415-.099-.61.198-.96.495-2.189.89-3.686.149-.553.379-1.22.693-2.001.313-.781.626-1.505.939-2.172.115-.244.231-.57.346-.976.132-.489.256-.847.371-1.074.363-.716.61-1.587.742-2.612a6.2 6.2 0 0 1-.594.903c-.197.228-.461.521-.791.879l-1.112 1.123-.248.195c-.066.065-.14.13-.222.195-.033.033-.355.391-.964 1.074-.363.423-.61.7-.742.83-.412.423-.964 1.074-1.657 1.952a65.078 65.078 0 0 1-1.137 1.343 75.563 75.563 0 0 0-1.656 2.001 7.609 7.609 0 0 0-1.261 2.245 1.689 1.689 0 0 1-.544.781l-.445.464Zm15.628-2.587c-.346.114-.61.171-.791.171-.281 0-.561-.106-.841-.317-.247-.244-.371-.489-.371-.733 0-.406.305-.821.915-1.244.33-.212.585-.318.766-.318.132 0 .355.065.668.196.494.325.742.659.742 1 0 .456-.363.871-1.088 1.245Zm5.148 0c-.346.114-.609.171-.791.171-.28 0-.56-.106-.84-.317-.248-.244-.371-.489-.371-.733 0-.406.305-.821.915-1.244.329-.212.585-.318.766-.318.132 0 .354.065.667.196.495.325.742.659.742 1 0 .456-.362.871-1.088 1.245Z" fill="#1EA6F9"/></g><defs><clipPath id="a"><path fill="#fff" d="M0 0h636v543H0z"/></clipPath></defs></svg>