<svg width="263" height="45" fill="none" xmlns="http://www.w3.org/2000/svg"><g clip-path="url(#a)" fill-rule="evenodd" clip-rule="evenodd"><path d="m250.182.5-25.146 8.585v24.037l9.061-3.093V15.197l16.085-5.491V.5Z" fill="#F56311"/><path d="m237.855 17.453 25.146-8.585v24.038l-25.146 8.584V17.453Z" fill="#59C3F0"/><path d="M12.081 34.246c-6.2 0-11.7-4.475-11.7-11.327 0-6.898 5.5-11.372 11.7-11.372 6.2 0 11.7 4.474 11.7 11.372 0 6.852-5.5 11.327-11.7 11.327Zm0-5.687c3.03 0 5.5-2.284 5.5-5.64 0-3.402-2.47-5.686-5.5-5.686s-5.5 2.284-5.5 5.686c0 3.356 2.47 5.64 5.5 5.64Zm27.305-17.012c5.593 0 10.673 4.381 10.673 11.372 0 6.992-5.08 11.327-10.673 11.327-2.47 0-5.454-.932-6.992-3.123V44.5h-6.106V12.106h6.106v2.61c1.538-2.19 4.521-3.17 6.992-3.17ZM38.22 28.513c3.077 0 5.593-2.377 5.593-5.594 0-3.169-2.517-5.64-5.593-5.64-2.983 0-5.64 2.331-5.64 5.64 0 3.356 2.797 5.594 5.64 5.594Zm35.928-5.92c0 .606-.047 1.352-.093 2.33H57.648c.652 2.518 2.703 3.916 5.64 3.916 2.19 0 4.38-.886 5.686-2.424l3.589 3.59c-2.05 2.75-5.873 4.24-9.695 4.24-6.665 0-11.56-4.567-11.56-11.279 0-7.038 5.314-11.42 11.56-11.42 6.2 0 11.28 4.382 11.28 11.047Zm-16.5-1.631h10.394c-.187-2.564-2.33-4.102-5.08-4.102-2.471 0-4.662 1.165-5.314 4.102Zm31.546-9.415c-2.144 0-5.594 1.258-6.526 4.194v-3.635h-6.106v21.72h6.106v-11.14c0-3.961 2.704-5.127 4.894-5.127 2.098 0 4.149 1.538 4.149 4.988v11.28h6.106V21.893c.046-6.525-2.937-10.347-8.623-10.347Zm24.924.046c5.593 0 10.674 4.335 10.674 11.326 0 6.992-5.081 11.327-10.674 11.327-2.47 0-5.453-.932-6.991-3.123v2.703h-6.106V.5h6.106v14.216c1.538-2.19 4.521-3.123 6.991-3.123Zm-1.165 16.966c3.076 0 5.593-2.47 5.593-5.64 0-3.216-2.517-5.593-5.593-5.593-2.843 0-5.64 2.238-5.64 5.593 0 3.31 2.657 5.64 5.64 5.64Zm30.707-16.453h6.106v21.72h-6.106v-2.703c-1.538 2.144-4.568 3.123-6.992 3.123-5.593 0-10.673-4.335-10.673-11.327 0-6.991 5.08-11.326 10.673-11.326 2.517 0 5.454.932 6.992 3.123v-2.61Zm-5.826 16.453c2.983 0 5.64-2.33 5.64-5.64 0-3.355-2.797-5.593-5.64-5.593-3.077 0-5.64 2.377-5.64 5.593 0 3.17 2.563 5.64 5.64 5.64Zm29.821-16.453h6.572L160.804 44.5h-6.526l5.127-12.725-8.576-19.67h6.712l5.127 12.54 4.987-12.54Zm28.517 10.487c0 .606-.047 1.352-.094 2.33h-16.406c.652 2.518 2.703 3.916 5.639 3.916 2.191 0 4.382-.886 5.687-2.424l3.589 3.59c-2.051 2.75-5.873 4.24-9.695 4.24-6.665 0-11.559-4.567-11.559-11.279 0-7.038 5.313-11.42 11.559-11.42 6.199 0 11.28 4.382 11.28 11.047Zm-16.5-1.631h10.394c-.187-2.564-2.331-4.102-5.081-4.102-2.47 0-4.661 1.165-5.313 4.102Zm26.605 13.284c4.475 0 9.136-2.238 9.136-6.805 0-1.771-.653-5.034-5.873-6.432l-3.589-.933c-1.212-.326-2.144-.839-2.144-1.864 0-1.119 1.118-1.818 2.517-1.818 1.445 0 2.656.792 2.656 2.237h5.827c.046-5.127-4.615-7.084-8.577-7.084-5.034 0-8.529 3.122-8.529 6.478 0 2.284.745 5.407 6.339 6.899l2.89.699c1.631.42 2.377.886 2.377 1.818 0 1.258-1.352 2.004-3.123 2.004-2.144 0-3.216-1.352-3.216-2.61h-5.733c.046 4.8 4.474 7.41 9.042 7.41Z" fill="#2E2F35"/></g><defs><clipPath id="a"><path fill="#fff" transform="translate(.382 .5)" d="M0 0h262.619v44H0z"/></clipPath></defs></svg>