<svg width="25" height="24" fill="none" xmlns="http://www.w3.org/2000/svg"><path d="M15.5 15h2.8c1.12 0 1.68 0 2.108-.218a2 2 0 0 0 .874-.874c.218-.428.218-.988.218-2.108V6.2c0-1.12 0-1.68-.218-2.108a2 2 0 0 0-.874-.874C19.98 3 19.42 3 18.3 3h-5.6c-1.12 0-1.68 0-2.108.218a2 2 0 0 0-.874.874C9.5 4.52 9.5 5.08 9.5 6.2V9m-6 8.8v-5.6c0-1.12 0-1.68.218-2.108a2 2 0 0 1 .874-.874C5.02 9 5.58 9 6.7 9h5.6c1.12 0 1.68 0 2.108.218a2 2 0 0 1 .874.874c.218.428.218.988.218 2.108v5.6c0 1.12 0 1.68-.218 2.108a2 2 0 0 1-.874.874C13.98 21 13.42 21 12.3 21H6.7c-1.12 0-1.68 0-2.108-.218a2 2 0 0 1-.874-.874C3.5 19.48 3.5 18.92 3.5 17.8Z" stroke="#fff" stroke-width="1.5" stroke-linecap="round" stroke-linejoin="round"/></svg>