<svg width="25" height="24" fill="none" xmlns="http://www.w3.org/2000/svg"><path d="M10.296 5.133a1.778 1.778 0 0 0-1.65-1.118H6.2c-.93 0-1.684.754-1.684 1.684 0 7.907 6.41 14.316 14.316 14.316.93 0 1.684-.754 1.684-1.684v-2.446c0-.726-.443-1.38-1.118-1.65l-2.343-.937a1.778 1.778 0 0 0-1.798.284l-.605.505a1.778 1.778 0 0 1-2.395-.109l-1.705-1.704a1.778 1.778 0 0 1-.108-2.395l.504-.605a1.778 1.778 0 0 0 .285-1.799l-.937-2.342Z" stroke="#8C8D92" stroke-width="1.5" stroke-linecap="round" stroke-linejoin="round"/></svg>