<svg width="16" height="20" fill="none" xmlns="http://www.w3.org/2000/svg"><path d="M5 15h6m-6-3h6m4-5h-4.4c-.56 0-.84 0-1.054-.109a1 1 0 0 1-.437-.437C9 6.24 9 5.96 9 5.4V1m6 14.8V7.654c0-.464 0-.695-.05-.915a2 2 0 0 0-.217-.554c-.112-.195-.27-.365-.585-.705L10.95 2.026c-.35-.378-.525-.567-.733-.703a2.003 2.003 0 0 0-.602-.262C9.375 1 9.117 1 8.602 1H4.2c-1.12 0-1.68 0-2.108.218a2 2 0 0 0-.874.874C1 2.52 1 3.08 1 4.2v11.6c0 1.12 0 1.68.218 2.108a2 2 0 0 0 .874.874C2.52 19 3.08 19 4.2 19h7.6c1.12 0 1.68 0 2.108-.218a2 2 0 0 0 .874-.874C15 17.48 15 16.92 15 15.8Z" stroke="#fff" stroke-width="2" stroke-linecap="round" stroke-linejoin="round"/></svg>