<svg width="32" height="32" fill="none" xmlns="http://www.w3.org/2000/svg"><path fill-rule="evenodd" clip-rule="evenodd" d="M11.369 8.005c-.026.006-.153.027-.282.048-1.315.213-2.486 1.228-2.904 2.518-.187.576-.178.309-.178 5.429 0 5.11-.008 4.854.174 5.418.305.942 1 1.745 1.902 2.2.265.133.676.271.99.334.326.064 8.345.064 8.668 0a3.845 3.845 0 0 0 1.366-.568c.275-.183 2.049-1.951 2.252-2.244a3.77 3.77 0 0 0 .595-1.4c.064-.324.064-8.343 0-8.668-.297-1.5-1.379-2.624-2.883-2.998-.264-.066-.294-.066-4.96-.072a598.05 598.05 0 0 0-4.74.003ZM20.85 9.31c.509.154.862.356 1.174.672.22.222.457.576.547.818.182.486.17.213.18 4.08l.009 3.556-1.088.013c-1 .012-1.11.02-1.339.082-.89.243-1.56.915-1.804 1.804-.063.23-.07.34-.082 1.338l-.013 1.089-3.556-.01c-3.867-.01-3.594.003-4.08-.18-.555-.207-1.163-.815-1.371-1.37-.183-.489-.171-.132-.171-5.201s-.012-4.712.17-5.2c.218-.581.826-1.172 1.436-1.395.45-.164.278-.16 5.215-.153 4.197.005 4.615.01 4.773.057Zm-8.756 2.408c-.148.043-.34.248-.384.409a.645.645 0 0 0 .274.718l.12.074h7.791l.12-.074a.8.8 0 0 0 .203-.202c.07-.105.084-.161.084-.334 0-.174-.014-.23-.084-.335a.803.803 0 0 0-.204-.201l-.12-.075-3.848-.005c-2.373-.003-3.888.006-3.952.025Zm0 3.692c-.148.043-.34.248-.384.41a.645.645 0 0 0 .274.717l.12.074h7.791l.12-.074a.804.804 0 0 0 .203-.201c.07-.106.084-.162.084-.335 0-.173-.014-.23-.084-.335a.802.802 0 0 0-.204-.2l-.12-.075-3.848-.005c-2.373-.004-3.888.006-3.952.024Zm0 3.693c-.148.043-.34.248-.384.409a.645.645 0 0 0 .274.717l.12.075h4.103l.127-.084c.195-.13.275-.283.275-.527 0-.244-.08-.396-.275-.526l-.127-.084-2.005-.005c-1.21-.003-2.046.006-2.108.024Zm10.556.677c-.038.16-.227.523-.37.712-.187.245-1.685 1.728-1.877 1.858a2.76 2.76 0 0 1-.625.302l-.087.021v-.874c0-.496.015-.953.035-1.058.09-.492.483-.9.967-1.005.11-.024.5-.038 1.075-.04l.903-.003-.02.087Z" fill="#8C8D92"/></svg>