<svg width="20" height="20" fill="none" xmlns="http://www.w3.org/2000/svg"><path d="M6.666 3.333v10A1.667 1.667 0 0 0 8.333 15h6.666a1.667 1.667 0 0 0 1.667-1.667V6.035a1.665 1.665 0 0 0-.502-1.192l-2.762-2.701a1.666 1.666 0 0 0-1.165-.475H8.333a1.667 1.667 0 0 0-1.667 1.666v0Z" stroke="#F56311" stroke-width="1.5" stroke-linecap="round" stroke-linejoin="round"/><path d="M13.333 15v1.667a1.667 1.667 0 0 1-1.667 1.666H5a1.667 1.667 0 0 1-1.667-1.666V7.5A1.667 1.667 0 0 1 5 5.833h1.666" stroke="#F56311" stroke-width="1.5" stroke-linecap="round" stroke-linejoin="round"/></svg>