<svg width="18" height="18" fill="none" xmlns="http://www.w3.org/2000/svg"><path d="M17 5v8.8c0 1.12 0 1.68-.218 2.108a2.001 2.001 0 0 1-.874.874C15.48 17 14.92 17 13.8 17H4.2c-1.12 0-1.68 0-2.108-.218a2 2 0 0 1-.874-.874C1 15.48 1 14.92 1 13.8V5m16 0H1m16 0-1.364-2.388c-.336-.587-.504-.88-.74-1.094a2 2 0 0 0-.722-.42C13.872 1 13.534 1 12.857 1H5.143c-.677 0-1.014 0-1.317.099-.267.087-.514.23-.723.419-.235.214-.403.507-.739 1.094L1 5m8 3v6m0 0 3-2m-3 2-3-2" stroke="#5D5D62" stroke-width="2" stroke-linecap="round" stroke-linejoin="round"/></svg>