<svg width="25" height="24" fill="none" xmlns="http://www.w3.org/2000/svg"><path d="M4.5 20h-.75c0 .414.336.75.75.75V20Zm16 .75a.75.75 0 0 0 0-1.5v1.5ZM4.5 16l-.53-.53a.75.75 0 0 0-.22.53h.75ZM15.369 5.131l-.53-.53.53.53Zm2.262 0-.53.53.53-.53ZM19.37 6.87l.53-.53-.53.53Zm0 2.262-.53-.53.53.53ZM8.5 20.001v.75a.75.75 0 0 0 .53-.22L8.5 20ZM20.037 7.69l.713-.232-.713.232Zm0 .618-.713-.232.713.232ZM16.19 4.463l-.232-.713.232.713Zm.618 0 .232-.713-.232.713ZM13.03 7.47a.75.75 0 1 0-1.06 1.06l1.06-1.06Zm2.94 5.06a.75.75 0 1 0 1.06-1.06l-1.06 1.06ZM4.5 20.75h16v-1.5h-16v1.5Zm.75-.75v-4h-1.5v4h1.5Zm-.22-3.47L15.9 5.662l-1.06-1.06L3.968 15.47l1.061 1.06ZM17.101 5.662l1.737 1.737 1.06-1.06L18.163 4.6 17.1 5.661Zm1.737 2.94L7.97 19.47l1.06 1.06L19.9 9.662l-1.06-1.06ZM8.5 19.25h-4v1.5h4v-1.5ZM18.838 7.4c.207.207.33.33.414.43.078.091.077.111.072.094l1.426-.464a1.774 1.774 0 0 0-.355-.602 9.676 9.676 0 0 0-.496-.519L18.839 7.4ZM19.9 9.662c.19-.19.363-.363.496-.52a1.75 1.75 0 0 0 .355-.601l-1.426-.464c.005-.017.006.003-.072.095a8.342 8.342 0 0 1-.414.43l1.061 1.06Zm-.575-1.74a.25.25 0 0 1 0 .155l1.426.464a1.75 1.75 0 0 0 0-1.082l-1.426.464ZM15.9 5.662c.207-.207.33-.33.43-.414.091-.078.111-.077.094-.071L15.96 3.75c-.246.08-.439.217-.602.355-.156.133-.33.307-.519.496l1.061 1.06Zm2.263-1.06c-.19-.19-.363-.364-.52-.497a1.774 1.774 0 0 0-.601-.355l-.464 1.427c-.017-.006.003-.007.095.071.099.084.222.207.429.414l1.06-1.06Zm-1.74.575a.25.25 0 0 1 .155 0l.464-1.427a1.75 1.75 0 0 0-1.082 0l.464 1.427ZM11.97 8.53l4 4 1.06-1.06-4-4-1.06 1.06Z" fill="#8C8D92"/></svg>