<svg width="24" height="24" fill="none" xmlns="http://www.w3.org/2000/svg"><path d="M6.46 13.56V6.54c0-1.31 1.06-2.37 2.37-2.37h7.52c1.31 0 2.37 1.06 2.37 2.37v10.78c0 1.31-1.06 2.37-2.37 2.37h-1.74M11.68 7.85h4.53m-4.53 2.84h4.53m-4.53 2.85h4.53M8.87 7.85h.45m-.45 2.84h.45m-.45 2.85h.45" stroke="#8C8D92" stroke-width="1.35" stroke-miterlimit="10" stroke-linecap="round"/><path d="M6.21 19.87h-1c-.83 0-1.5-.67-1.5-1.5s.67-1.5 1.5-1.5h1c.28 0 .5-.22.5-.5s-.22-.5-.5-.5h-1a2.5 2.5 0 0 0 0 5h1c.28 0 .5-.22.5-.5s-.22-.5-.5-.5Zm4-4h-1c-.28 0-.5.22-.5.5s.22.5.5.5h1c.83 0 1.5.67 1.5 1.5s-.67 1.5-1.5 1.5h-1c-.28 0-.5.22-.5.5s.22.5.5.5h1a2.5 2.5 0 0 0 0-5Z" fill="#8B8C91" stroke="#8B8C91" stroke-width=".35" stroke-miterlimit="10"/><path d="M5.21 18.37c0 .28.22.5.5.5h4c.28 0 .5-.22.5-.5s-.22-.5-.5-.5h-4c-.28 0-.5.22-.5.5Z" fill="#8B8C91" stroke="#8B8C91" stroke-width=".35" stroke-miterlimit="10"/></svg>