<svg width="24" height="24" fill="none" xmlns="http://www.w3.org/2000/svg"><path d="M6.46 13.62V6.61c0-1.31 1.06-2.37 2.37-2.37h7.52c1.31 0 2.37 1.06 2.37 2.37v10.78c0 1.31-1.06 2.37-2.37 2.37h-3.51M11.68 7.92h4.53m-4.53 2.84h4.53m-4.53 2.85h4.53M8.87 7.92h.45m-.45 2.84h.45m-.45 2.85h.45" stroke="#8C8D92" stroke-width="1.35" stroke-miterlimit="10" stroke-linecap="round"/><path d="M11.35 16.1a.806.806 0 0 0-.34-.43.812.812 0 0 0-.35-.1h-5.4l-.06-.34c-.02-.08-.03-.17-.05-.24a.766.766 0 0 0-.11-.25.79.79 0 0 0-.33-.27.651.651 0 0 0-.26-.06H3.6a.39.39 0 0 0-.39.39c0 .22.17.39.39.39h.79c0 .04.02.09.04.18l.84 4.55c.03.18.19.32.38.32h4.29c.08 0 .16-.02.25-.06a.74.74 0 0 0 .43-.5c.02-.07.04-.15.06-.23l.61-2.64c.03-.12.06-.24.07-.34.01-.1.02-.23-.02-.36l.01-.01Zm-1.42 3.17c-.02.09-.03.14-.04.17H5.98l-.57-3.11h5.19c0 .06-.03.13-.06.27l-.61 2.64v.03Z" fill="#8B8C91" stroke="#8B8C91" stroke-width=".5" stroke-miterlimit="10"/><path d="M6.04 22.12a.5.5 0 1 0 0-1 .5.5 0 0 0 0 1Zm3.63 0a.5.5 0 1 0 0-1 .5.5 0 0 0 0 1Z" fill="#8B8C91" stroke="#8B8C91" stroke-width=".35" stroke-miterlimit="10"/></svg>