<svg width="24" height="24" fill="none" xmlns="http://www.w3.org/2000/svg"><path d="M21 10.2h1-1Zm0 3.8h-1 1Zm-.152 1.765-.924-.382.924.382ZM18 16a1 1 0 1 0 0 2v-2Zm1.765.848-.382-.924.382.924Zm.143-9.63.454-.891-.454.891Zm.874.874.891-.454-.89.454Zm-17.564 0-.891-.454.891.454Zm.874-.874.454.891-.454-.891ZM6 18a1 1 0 1 0 0-2v2Zm-1.765-1.152-.383.924.383-.924Zm-1.083-1.083.924-.382-.924.382ZM15 21v1-1Zm-6 0v-1 1Zm9-3h1-1Zm-.152 1.765.924.383-.924-.383Zm-1.083 1.083-.382-.924.382.924Zm0-5.696.383-.924-.383.924Zm1.083 1.083-.924.382.924-.382Zm-11.696 0-.924-.383.924.383Zm1.083-1.083.383.924-.383-.924Zm-1.083 4.613.924-.382-.924.382Zm1.083 1.083.383-.924-.383.924ZM10 10a1 1 0 1 0 0 2v-2Zm4 2a1 1 0 1 0 0-2v2ZM6 7H5a1 1 0 0 0 1 1V7Zm12-.8h1-1Zm0 .8v1a1 1 0 0 0 1-1h-1Zm-1.092-3.782.454-.891-.454.891Zm.874.874.891-.454-.89.454Zm-11.564 0-.891-.454.891.454Zm.874-.874.454.891-.454-.891ZM4 14v-3.8H2V14h2Zm2.2-6h11.6V6H6.2v2ZM20 10.2V14h2v-3.8h-2Zm0 3.8c0 .48 0 .79-.017 1.026-.015.228-.042.315-.06.357l1.849.765c.135-.326.184-.656.207-.986.021-.32.021-.71.021-1.162h-2Zm-2 4c.452 0 .841 0 1.162-.021.33-.023.66-.072.986-.207l-.765-1.848c-.042.017-.129.044-.357.06-.237.015-.546.016-1.026.016v2Zm1.924-2.617a1 1 0 0 1-.541.54l.765 1.849a3 3 0 0 0 1.623-1.624l-1.847-.765ZM17.8 8c.577 0 .949 0 1.232.024.272.022.372.06.422.085l.908-1.782c-.379-.193-.772-.264-1.167-.296C18.811 5.999 18.344 6 17.8 6v2Zm4.2 2.2c0-.543 0-1.011-.03-1.395-.033-.395-.104-.788-.297-1.167l-1.782.908c.025.05.063.15.085.422C20 9.25 20 9.623 20 10.2h2Zm-2.546-2.091a1 1 0 0 1 .437.437l1.782-.908a3.001 3.001 0 0 0-1.311-1.311l-.908 1.782ZM4 10.2c0-.577 0-.949.024-1.232.022-.272.06-.373.085-.422l-1.782-.908c-.193.378-.264.772-.296 1.167C1.999 9.189 2 9.656 2 10.2h2ZM6.2 6c-.543 0-1.011 0-1.395.03-.395.033-.789.104-1.167.297l.908 1.782c.05-.025.15-.063.422-.085C5.25 8 5.624 8 6.2 8V6ZM4.11 8.546a1 1 0 0 1 .437-.437l-.908-1.782a3 3 0 0 0-1.311 1.311l1.782.908ZM6 16c-.48 0-.789 0-1.026-.017-.228-.015-.315-.042-.356-.06l-.766 1.849c.326.135.656.184.986.207C5.158 18 5.548 18 6 18v-2Zm-4-2c0 .452 0 .841.021 1.162.023.33.072.66.207.986l1.848-.765c-.017-.042-.044-.129-.06-.357A16.908 16.908 0 0 1 4 14H2Zm2.618 1.924a1 1 0 0 1-.542-.541l-1.848.765a3 3 0 0 0 1.624 1.624l.766-1.848ZM9 16h6v-2H9v2Zm6 4H9v2h6v-2Zm2-2c0 .48 0 .79-.017 1.026-.015.228-.042.315-.06.357l1.849.765a3.07 3.07 0 0 0 .207-.986c.021-.32.02-.71.02-1.162h-2Zm-2 4c.452 0 .841 0 1.162-.021.33-.023.66-.072.986-.207l-.765-1.848c-.042.017-.129.044-.357.06A16.89 16.89 0 0 1 15 20v2Zm1.924-2.617a1 1 0 0 1-.541.54l.765 1.849a3 3 0 0 0 1.623-1.624l-1.847-.765ZM15 16c.48 0 .79 0 1.026.017.228.015.315.042.357.06l.765-1.849a3.072 3.072 0 0 0-.986-.207C15.842 14 15.452 14 15 14v2Zm4 2c0-.452 0-.841-.021-1.162a3.07 3.07 0 0 0-.207-.986l-1.848.765c.017.042.044.129.06.357.015.237.016.546.016 1.026h2Zm-2.617-1.924a1 1 0 0 1 .54.541l1.849-.765a3 3 0 0 0-1.624-1.624l-.765 1.848ZM7 18c0-.48 0-.79.017-1.026.015-.228.042-.315.06-.357l-1.849-.765a3.07 3.07 0 0 0-.207.986C5 17.158 5 17.548 5 18h2Zm2-4c-.452 0-.841 0-1.162.021-.33.023-.66.072-.986.207l.766 1.848c.041-.017.128-.044.356-.06C8.21 16.002 8.52 16 9 16v-2Zm-1.924 2.617a1 1 0 0 1 .542-.54l-.766-1.849a3 3 0 0 0-1.624 1.624l1.848.765ZM5 18c0 .452 0 .841.021 1.162.023.33.072.66.207.986l1.848-.765c-.017-.042-.044-.129-.06-.357A16.908 16.908 0 0 1 7 18H5Zm4 2c-.48 0-.79 0-1.026-.017-.228-.015-.315-.042-.356-.06l-.766 1.849c.326.135.656.184.986.207C8.158 22 8.548 22 9 22v-2Zm-3.772.148a3 3 0 0 0 1.624 1.624l.766-1.848a1 1 0 0 1-.542-.541l-1.848.765ZM10 12h4v-2h-4v2ZM7 7v-.8H5V7h2Zm2.2-3h5.6V2H9.2v2ZM17 6.2V7h2v-.8h-2Zm1-.2H6v2h12V6Zm-3.2-2c.577 0 .949 0 1.232.024.272.022.372.06.422.085l.908-1.782c-.378-.193-.772-.264-1.167-.296C15.812 1.999 15.344 2 14.8 2v2ZM19 6.2c0-.543 0-1.011-.03-1.395-.033-.395-.104-.788-.297-1.167l-1.782.908c.025.05.063.15.085.422C17 5.25 17 5.623 17 6.2h2Zm-2.546-2.091a1 1 0 0 1 .437.437l1.782-.908a3 3 0 0 0-1.311-1.311l-.908 1.782ZM7 6.2c0-.577 0-.949.024-1.232.022-.272.06-.373.085-.422l-1.782-.908c-.193.378-.264.772-.296 1.167C4.999 5.189 5 5.656 5 6.2h2ZM9.2 2c-.543 0-1.011 0-1.395.03-.395.033-.789.104-1.167.297l.908 1.782c.05-.025.15-.063.422-.085C8.25 4 8.624 4 9.2 4V2ZM7.11 4.546a1 1 0 0 1 .437-.437l-.908-1.782a3 3 0 0 0-1.311 1.311l1.782.908Z" fill="#8C8D92"/></svg>