<svg width="24" height="24" fill="none" xmlns="http://www.w3.org/2000/svg"><path d="M12 20a8 8 0 0 1-8-8H2c0 5.523 4.477 10 10 10v-2Zm-8-8a8 8 0 0 1 8-8V2C6.477 2 2 6.477 2 12h2Zm8-8a8 8 0 0 1 8 8h2c0-5.523-4.477-10-10-10v2Zm8 8a8 8 0 0 1-8 8v2c5.523 0 10-4.477 10-10h-2Zm-8.222 1.45c-.536 0-.989-.438-.907-.967.013-.083.027-.156.044-.214.071-.248.177-.446.317-.595.14-.152.31-.289.513-.41.176-.106.332-.209.469-.308.14-.098.249-.203.329-.315a.623.623 0 0 0 .123-.38.577.577 0 0 0-.099-.333.655.655 0 0 0-.267-.224.863.863 0 0 0-.374-.08.903.903 0 0 0-.41.095.803.803 0 0 0-.3.262c-.126.188-.295.387-.52.387h-.686c-.556 0-1.043-.476-.819-.984a1.77 1.77 0 0 1 .22-.37c.268-.35.625-.605 1.069-.767A4.181 4.181 0 0 1 11.942 8c.586 0 1.11.08 1.57.24.46.156.823.394 1.088.713.266.316.399.712.399 1.187a1.79 1.79 0 0 1-.645 1.419c-.2.175-.434.335-.703.479a2.878 2.878 0 0 0-.497.33c-.134.111-.236.24-.304.383-.17.353-.42.699-.813.699h-.26Zm.033 2.55a1.18 1.18 0 0 1-.818-.307.977.977 0 0 1-.333-.756.953.953 0 0 1 .333-.74c.227-.205.5-.307.818-.307.301 0 .567.102.797.307a.97.97 0 0 1 .354.74.966.966 0 0 1-.169.54 1.162 1.162 0 0 1-.982.524Z" fill="#8C8D92"/></svg>