<svg width="368" height="222" fill="none" xmlns="http://www.w3.org/2000/svg"><g clip-path="url(#a)"><path d="M47 50.98 178.461 172l-91.469-9.96M326 50.98 195.169 172l87.69-9.96m-95.729 4.482V46" stroke="url(#b)" stroke-linejoin="round"/><rect x="80.5" y="157.5" width="7" height="7" rx="3.5" stroke="#5D6061"/><rect x="282.5" y="157.5" width="7" height="7" rx="3.5" stroke="#5D6061"/><rect x="184" y="38.5" width="7" height="7" rx="3.5" stroke="#5D6061"/><g filter="url(#c)" shape-rendering="crispEdges"><rect x="60" y="83" width="249" height="40" rx="20" fill="#1B1C1C" fill-opacity=".96"/><rect x="60.5" y="83.5" width="248" height="39" rx="19.5" stroke="#323638"/></g><rect opacity=".2" x="51.5" y="74.5" width="266" height="57" rx="28.5" stroke="url(#d)"/><path d="M80.654 107.18c-.636 0-1.184-.11-1.644-.33-.456-.224-.806-.526-1.05-.906a2.345 2.345 0 0 1-.366-1.284c0-.504.134-.93.402-1.278.268-.352.642-.622 1.122-.81a2.19 2.19 0 0 1-.858-.66c-.248-.312-.372-.706-.372-1.182 0-.448.12-.844.36-1.188.24-.348.57-.622.99-.822.42-.2.902-.3 1.446-.3.548 0 1.034.1 1.458.3.424.2.756.474.996.822.244.348.366.744.366 1.188 0 .48-.128.874-.384 1.182a2.214 2.214 0 0 1-.846.66c.444.188.804.458 1.08.81.28.352.42.778.42 1.278 0 .472-.132.9-.396 1.284-.26.38-.624.682-1.092.906-.468.22-1.012.33-1.632.33Zm.042-5.232c.412 0 .752-.106 1.02-.318.268-.216.402-.502.402-.858 0-.348-.132-.64-.396-.876s-.606-.354-1.026-.354c-.424 0-.768.118-1.032.354-.26.236-.39.528-.39.876 0 .356.132.642.396.858.268.212.61.318 1.026.318Zm-.012 3.978c.28 0 .542-.052.786-.156.248-.108.448-.264.6-.468.152-.204.228-.456.228-.756 0-.452-.158-.794-.474-1.026-.316-.236-.696-.354-1.14-.354-.46 0-.844.12-1.152.36-.308.236-.462.576-.462 1.02 0 .448.16.79.48 1.026.32.236.698.354 1.134.354Zm5.337 1.254-.534-1.176c.756-.092 1.402-.278 1.938-.558.54-.284.976-.632 1.308-1.044.336-.412.578-.854.726-1.326a2.227 2.227 0 0 1-.756.582 2.178 2.178 0 0 1-.966.216 2.944 2.944 0 0 1-1.428-.342 2.624 2.624 0 0 1-.996-.954 2.67 2.67 0 0 1-.366-1.398c0-.52.13-.988.39-1.404a2.815 2.815 0 0 1 1.092-.99c.468-.244 1.008-.366 1.62-.366.62 0 1.172.134 1.656.402s.864.654 1.14 1.158c.28.5.42 1.104.42 1.812 0 .716-.134 1.378-.402 1.986a5.103 5.103 0 0 1-1.11 1.608 6.23 6.23 0 0 1-1.668 1.164 7.424 7.424 0 0 1-2.064.63Zm2.028-4.536c.456 0 .84-.14 1.152-.42.312-.28.468-.63.468-1.05 0-.428-.154-.778-.462-1.05-.304-.276-.69-.414-1.158-.414-.472 0-.86.138-1.164.414a1.345 1.345 0 0 0-.456 1.05c0 .42.154.77.462 1.05.312.28.698.42 1.158.42Zm5.413 4.536a1.07 1.07 0 0 1-.725-.264.906.906 0 0 1-.306-.714c0-.3.102-.538.306-.714.204-.18.446-.27.726-.27.284 0 .526.09.726.27.204.176.306.414.306.714a.906.906 0 0 1-.306.714 1.06 1.06 0 0 1-.726.264Zm3.145-.18v-6.738l-2.082.756-.408-1.212 3.822-1.386h.108V107h-1.44Zm7.049 0v-1.674H99.54v-1.146l2.892-5.58h1.566l-2.838 5.448h2.496v-1.788h1.32v1.788h1.248v1.278h-1.248V107h-1.32Zm4.56.18c-.28 0-.522-.088-.726-.264a.906.906 0 0 1-.306-.714c0-.3.102-.538.306-.714.204-.18.446-.27.726-.27.284 0 .526.09.726.27.204.176.306.414.306.714a.906.906 0 0 1-.306.714 1.06 1.06 0 0 1-.726.264Zm3.145-.18v-6.738l-2.082.756-.408-1.212 3.822-1.386h.108V107h-1.44Zm3.413 0v-1.074l1.806-1.644c.568-.52 1.02-.96 1.356-1.32.34-.364.584-.69.732-.978.152-.292.228-.584.228-.876 0-.428-.146-.762-.438-1.002-.292-.24-.7-.36-1.224-.36a2.91 2.91 0 0 0-1.062.198c-.34.132-.634.328-.882.588l-.552-1.134a3.777 3.777 0 0 1 1.224-.726c.46-.168.938-.252 1.434-.252.596 0 1.114.106 1.554.318.444.208.788.5 1.032.876s.366.818.366 1.326c0 .344-.07.686-.21 1.026-.136.34-.378.722-.726 1.146-.348.424-.842.936-1.482 1.536l-1.134 1.05h3.768V107h-5.79Zm8.091.18c-.28 0-.522-.088-.726-.264a.906.906 0 0 1-.306-.714c0-.3.102-.538.306-.714.204-.18.446-.27.726-.27.284 0 .526.09.726.27.204.176.306.414.306.714a.906.906 0 0 1-.306.714 1.06 1.06 0 0 1-.726.264Zm3.144-.18v-6.738l-2.082.756-.408-1.212 3.822-1.386h.108V107h-1.44Zm3.413 0v-1.074l1.806-1.644c.568-.52 1.02-.96 1.356-1.32.34-.364.584-.69.732-.978.152-.292.228-.584.228-.876 0-.428-.146-.762-.438-1.002-.292-.24-.7-.36-1.224-.36a2.91 2.91 0 0 0-1.062.198c-.34.132-.634.328-.882.588l-.552-1.134a3.777 3.777 0 0 1 1.224-.726c.46-.168.938-.252 1.434-.252.596 0 1.114.106 1.554.318.444.208.788.5 1.032.876s.366.818.366 1.326c0 .344-.07.686-.21 1.026-.136.34-.378.722-.726 1.146-.348.424-.842.936-1.482 1.536l-1.134 1.05h3.768V107h-5.79Zm9.603.18a4.935 4.935 0 0 1-1.548-.246c-.496-.164-.876-.372-1.14-.624l.498-1.26c.244.244.556.438.936.582.384.14.77.21 1.158.21.524 0 .944-.128 1.26-.384.316-.26.474-.604.474-1.032 0-.44-.162-.782-.486-1.026-.32-.248-.744-.372-1.272-.372-.316 0-.646.042-.99.126l-.438-1.002 2.484-2.262h-3.546V98.6h5.358v1.188l-2.346 2.274c.472.004.914.098 1.326.282.412.18.746.452 1.002.816.26.364.39.818.39 1.362 0 .524-.134.986-.402 1.386-.264.4-.63.712-1.098.936-.468.224-1.008.336-1.62.336Z" fill="#fff"/><circle cx="289" cy="103" r="14" fill="#fff" fill-opacity=".07"/><g filter="url(#e)"><path d="M291.503 104.503h-.526l-.187-.18a4.315 4.315 0 0 0 1.047-2.82 4.333 4.333 0 1 0-4.334 4.334c1.074 0 2.06-.394 2.82-1.047l.18.187v.526l3.334 3.327.993-.993-3.327-3.334Zm-4 0c-1.66 0-3-1.34-3-3s1.34-3 3-3 3 1.34 3 3-1.34 3-3 3Z" fill="#fff"/></g><circle cx="42" cy="46" r="18" fill="#5DA8FF"/><path d="M48 48.571V52H36v-3.43h12Zm.857-1.714H35.142a.86.86 0 0 0-.857.857v5.143a.86.86 0 0 0 .857.857h13.715a.86.86 0 0 0 .857-.857v-5.143a.86.86 0 0 0-.857-.857Zm-11.143 4.714a1.29 1.29 0 0 1-1.286-1.285A1.29 1.29 0 0 1 37.714 49 1.29 1.29 0 0 1 39 50.286c0 .711-.575 1.285-1.286 1.285ZM48 40v3.428H36V40h12Zm.857-1.714H35.142a.86.86 0 0 0-.857.857v5.143a.86.86 0 0 0 .857.857h13.715a.86.86 0 0 0 .857-.857v-5.143a.86.86 0 0 0-.857-.857ZM37.714 43a1.29 1.29 0 0 1-1.286-1.286 1.29 1.29 0 0 1 1.286-1.285c.703 0 1.286.582 1.286 1.285A1.29 1.29 0 0 1 37.714 43Z" fill="#fff"/><circle cx="326" cy="46" r="18" fill="#E5FF5D"/><g filter="url(#f)"><path d="M326 37.428 319.142 40v5.22c0 4.328 2.923 8.366 6.858 9.351 3.934-.985 6.857-5.023 6.857-9.351V40L326 37.428Zm5.142 7.792c0 3.428-2.185 6.6-5.142 7.569-2.958-.97-5.143-4.132-5.143-7.57v-4.028L326 39.263l5.142 1.928v4.029Z" fill="#0D0D0D"/></g><circle cx="184" cy="172" r="17" fill="#A1FFB0"/><path d="M184.81 180.095h6.476v-5.666h-2.428v-3.238h-4.048v-1.62h2.429v-5.666h-6.477v5.666h2.429v1.62h-4.048v3.238h-2.428v5.666h6.476v-5.666h-2.429v-1.619h6.477v1.619h-2.429v5.666Zm-2.429-12.143v-2.428h3.238v2.428h-3.238Zm-.809 8.096v2.428h-3.238v-2.428h3.238Zm8.095 0v2.428h-3.238v-2.428h3.238Z" fill="#0D0D0D"/></g><defs><filter id="c" x="-4" y="23" width="377" height="168" filterUnits="userSpaceOnUse" color-interpolation-filters="sRGB"><feFlood flood-opacity="0" result="BackgroundImageFix"/><feColorMatrix in="SourceAlpha" values="0 0 0 0 0 0 0 0 0 0 0 0 0 0 0 0 0 0 127 0" result="hardAlpha"/><feOffset dy="4"/><feGaussianBlur stdDeviation="32"/><feComposite in2="hardAlpha" operator="out"/><feColorMatrix values="0 0 0 0 0.898039 0 0 0 0 1 0 0 0 0 0.364706 0 0 0 0.3 0"/><feBlend in2="BackgroundImageFix" result="effect1_dropShadow_2_979"/><feColorMatrix in="SourceAlpha" values="0 0 0 0 0 0 0 0 0 0 0 0 0 0 0 0 0 0 127 0" result="hardAlpha"/><feOffset/><feGaussianBlur stdDeviation="16"/><feComposite in2="hardAlpha" operator="out"/><feColorMatrix values="0 0 0 0 0.363818 0 0 0 0 1 0 0 0 0 1 0 0 0 0.2 0"/><feBlend in2="effect1_dropShadow_2_979" result="effect2_dropShadow_2_979"/><feBlend in="SourceGraphic" in2="effect2_dropShadow_2_979" result="shape"/></filter><filter id="e" x="265" y="83" width="48" height="48" filterUnits="userSpaceOnUse" color-interpolation-filters="sRGB"><feFlood flood-opacity="0" result="BackgroundImageFix"/><feColorMatrix in="SourceAlpha" values="0 0 0 0 0 0 0 0 0 0 0 0 0 0 0 0 0 0 127 0" result="hardAlpha"/><feOffset dy="4"/><feGaussianBlur stdDeviation="8"/><feComposite in2="hardAlpha" operator="out"/><feColorMatrix values="0 0 0 0 0.607433 0 0 0 0 0.708431 0 0 0 0 0.0791335 0 0 0 1 0"/><feBlend in2="BackgroundImageFix" result="effect1_dropShadow_2_979"/><feBlend in="SourceGraphic" in2="effect1_dropShadow_2_979" result="shape"/></filter><filter id="f" x="299.714" y="23.714" width="52.571" height="52.571" filterUnits="userSpaceOnUse" color-interpolation-filters="sRGB"><feFlood flood-opacity="0" result="BackgroundImageFix"/><feColorMatrix in="SourceAlpha" values="0 0 0 0 0 0 0 0 0 0 0 0 0 0 0 0 0 0 127 0" result="hardAlpha"/><feOffset dy="4"/><feGaussianBlur stdDeviation="8"/><feComposite in2="hardAlpha" operator="out"/><feColorMatrix values="0 0 0 0 0.607433 0 0 0 0 0.708431 0 0 0 0 0.0791335 0 0 0 1 0"/><feBlend in2="BackgroundImageFix" result="effect1_dropShadow_2_979"/><feBlend in="SourceGraphic" in2="effect1_dropShadow_2_979" result="shape"/></filter><linearGradient id="b" x1="47" y1="106.261" x2="326" y2="106.261" gradientUnits="userSpaceOnUse"><stop stop-color="#5D6061" stop-opacity="0"/><stop offset=".5" stop-color="#5D6061"/><stop offset="1" stop-color="#5D6061" stop-opacity="0"/></linearGradient><linearGradient id="d" x1="318" y1="123.077" x2="60.451" y2="43.436" gradientUnits="userSpaceOnUse"><stop stop-color="#E5FF5D"/><stop offset="1" stop-color="#5DFFFF"/></linearGradient><clipPath id="a"><path fill="#fff" d="M0 0h368v222H0z"/></clipPath></defs></svg>