<svg width="282" height="170" viewBox="0 0 282 170" fill="none" xmlns="http://www.w3.org/2000/svg">
<g clip-path="url(#clip0_641_1104)">
<path d="M280.734 199.099C280.734 277.486 217.144 341.031 138.701 341.031C60.2583 341.031 -3.33154 277.486 -3.33154 199.099C-3.33154 120.712 60.2583 57.1666 138.701 57.1666C217.144 57.1666 280.734 120.712 280.734 199.099Z" stroke="url(#paint0_radial_641_1104)" stroke-opacity="0.1"/>
<path d="M286.098 199.099C286.098 246.19 247.896 284.365 200.772 284.365C153.647 284.365 115.446 246.19 115.446 199.099C115.446 152.008 153.647 113.833 200.772 113.833C247.896 113.833 286.098 152.008 286.098 199.099Z" stroke="url(#paint1_radial_641_1104)" stroke-opacity="0.1"/>
<path d="M396.446 199.099C396.446 307.09 308.84 394.635 200.772 394.635C92.7038 394.635 5.0979 307.09 5.0979 199.099C5.0979 91.1079 92.7038 3.56311 200.772 3.56311C308.84 3.56311 396.446 91.1079 396.446 199.099Z" stroke="url(#paint2_radial_641_1104)" stroke-opacity="0.1"/>
<g opacity="0.5" filter="url(#filter0_f_641_1104)">
<ellipse cx="141.383" cy="206.374" rx="180.465" ry="106.059" fill="url(#paint3_linear_641_1104)"/>
</g>
<rect x="53.6414" y="41" width="177.016" height="82" rx="12" fill="white" fill-opacity="0.07"/>
<rect x="54.1414" y="41.5" width="176.016" height="81" rx="11.5" stroke="white" stroke-opacity="0.1"/>
<path d="M72.1446 58.5034H71.6179L71.4313 58.3234C72.0846 57.5634 72.4779 56.5767 72.4779 55.5034C72.4779 53.11 70.5379 51.17 68.1446 51.17C65.7513 51.17 63.8113 53.11 63.8113 55.5034C63.8113 57.8967 65.7513 59.8367 68.1446 59.8367C69.2179 59.8367 70.2046 59.4434 70.9646 58.79L71.1446 58.9767V59.5034L74.4779 62.83L75.4713 61.8367L72.1446 58.5034ZM68.1446 58.5034C66.4846 58.5034 65.1446 57.1634 65.1446 55.5034C65.1446 53.8434 66.4846 52.5034 68.1446 52.5034C69.8046 52.5034 71.1446 53.8434 71.1446 55.5034C71.1446 57.1634 69.8046 58.5034 68.1446 58.5034Z" fill="#E5FF5D"/>
<path d="M85.6414 59.2387V52.9387H86.6494V55.4407H89.7004V52.9387H90.7084V59.2387H89.7004V56.3677H86.6494V59.2387H85.6414Z" fill="white" fill-opacity="0.6"/>
<path d="M93.9359 59.3737C93.5369 59.3737 93.2069 59.2942 92.9459 59.1352C92.6879 58.9732 92.4944 58.7602 92.3654 58.4962C92.2364 58.2322 92.1719 57.9442 92.1719 57.6322V54.7837H93.1619V57.4477C93.1619 57.7537 93.2519 57.9997 93.4319 58.1857C93.6149 58.3687 93.8669 58.4602 94.1879 58.4602C94.3979 58.4602 94.5854 58.4137 94.7504 58.3207C94.9154 58.2247 95.0459 58.0912 95.1419 57.9202C95.2409 57.7492 95.2904 57.5512 95.2904 57.3262V54.7837H96.2804V59.2387H95.3894V58.7122C95.2154 58.9222 95.0084 59.0857 94.7684 59.2027C94.5314 59.3167 94.2539 59.3737 93.9359 59.3737Z" fill="white" fill-opacity="0.6"/>
<path d="M97.6573 59.2387V54.7837H98.6473V55.3957C98.7673 55.2217 98.9053 55.0807 99.0613 54.9727C99.2173 54.8617 99.3823 54.7807 99.5563 54.7297C99.7303 54.6757 99.9073 54.6487 100.087 54.6487C100.45 54.6487 100.752 54.7282 100.992 54.8872C101.235 55.0462 101.406 55.2502 101.505 55.4992C101.727 55.1752 101.985 54.9532 102.279 54.8332C102.573 54.7102 102.868 54.6487 103.165 54.6487C103.576 54.6487 103.905 54.7297 104.151 54.8917C104.397 55.0537 104.574 55.2622 104.682 55.5172C104.793 55.7722 104.848 56.0347 104.848 56.3047V59.2387H103.858V56.5927C103.858 56.2837 103.773 56.0347 103.602 55.8457C103.434 55.6537 103.188 55.5577 102.864 55.5577C102.651 55.5577 102.46 55.6042 102.292 55.6972C102.124 55.7902 101.991 55.9192 101.892 56.0842C101.796 56.2462 101.748 56.4337 101.748 56.6467V59.2387H100.758V56.5927C100.758 56.2837 100.674 56.0347 100.506 55.8457C100.338 55.6537 100.09 55.5577 99.7633 55.5577C99.5533 55.5577 99.3628 55.6042 99.1918 55.6972C99.0238 55.7902 98.8903 55.9192 98.7913 56.0842C98.6953 56.2462 98.6473 56.4337 98.6473 56.6467V59.2387H97.6573Z" fill="white" fill-opacity="0.6"/>
<path d="M107.42 59.3737C107.111 59.3737 106.84 59.3167 106.606 59.2027C106.372 59.0857 106.189 58.9222 106.057 58.7122C105.928 58.4992 105.863 58.2487 105.863 57.9607C105.863 57.7177 105.925 57.4987 106.048 57.3037C106.171 57.1057 106.361 56.9422 106.619 56.8132C106.88 56.6842 107.215 56.5987 107.623 56.5567C108.031 56.5117 108.521 56.5177 109.094 56.5747L109.112 57.2587C108.704 57.2017 108.353 57.1777 108.059 57.1867C107.765 57.1957 107.524 57.2332 107.335 57.2992C107.149 57.3622 107.011 57.4477 106.921 57.5557C106.834 57.6607 106.79 57.7822 106.79 57.9202C106.79 58.1362 106.867 58.3027 107.02 58.4197C107.176 58.5367 107.389 58.5952 107.659 58.5952C107.89 58.5952 108.097 58.5532 108.28 58.4692C108.463 58.3852 108.607 58.2667 108.712 58.1137C108.82 57.9607 108.874 57.7807 108.874 57.5737V56.3902C108.874 56.1922 108.832 56.0212 108.748 55.8772C108.664 55.7302 108.536 55.6162 108.365 55.5352C108.194 55.4542 107.981 55.4137 107.726 55.4137C107.492 55.4137 107.261 55.4497 107.033 55.5217C106.805 55.5907 106.588 55.7002 106.381 55.8502L106.102 55.1212C106.381 54.9322 106.672 54.7987 106.975 54.7207C107.278 54.6427 107.569 54.6037 107.848 54.6037C108.262 54.6037 108.616 54.6697 108.91 54.8017C109.207 54.9307 109.435 55.1272 109.594 55.3912C109.753 55.6522 109.832 55.9822 109.832 56.3812V59.2387H108.941V58.7122C108.791 58.9252 108.583 59.0887 108.316 59.2027C108.049 59.3167 107.75 59.3737 107.42 59.3737Z" fill="white" fill-opacity="0.6"/>
<path d="M111.149 59.2387V54.7837H112.139V55.3507C112.325 55.1017 112.541 54.9232 112.787 54.8152C113.033 54.7042 113.288 54.6487 113.552 54.6487C113.96 54.6487 114.297 54.7297 114.564 54.8917C114.831 55.0537 115.029 55.2622 115.158 55.5172C115.29 55.7722 115.356 56.0347 115.356 56.3047V59.2387H114.366V56.6107C114.366 56.2927 114.27 56.0377 114.078 55.8457C113.889 55.6537 113.625 55.5577 113.286 55.5577C113.064 55.5577 112.866 55.6072 112.692 55.7062C112.521 55.8052 112.386 55.9432 112.287 56.1202C112.188 56.2942 112.139 56.4982 112.139 56.7322V59.2387H111.149Z" fill="white" fill-opacity="0.6"/>
<path d="M120.129 59.3737C119.82 59.3737 119.549 59.3167 119.315 59.2027C119.081 59.0857 118.898 58.9222 118.766 58.7122C118.637 58.4992 118.572 58.2487 118.572 57.9607C118.572 57.7177 118.634 57.4987 118.757 57.3037C118.88 57.1057 119.07 56.9422 119.328 56.8132C119.589 56.6842 119.924 56.5987 120.332 56.5567C120.74 56.5117 121.23 56.5177 121.803 56.5747L121.821 57.2587C121.413 57.2017 121.062 57.1777 120.768 57.1867C120.474 57.1957 120.233 57.2332 120.044 57.2992C119.858 57.3622 119.72 57.4477 119.63 57.5557C119.543 57.6607 119.499 57.7822 119.499 57.9202C119.499 58.1362 119.576 58.3027 119.729 58.4197C119.885 58.5367 120.098 58.5952 120.368 58.5952C120.599 58.5952 120.806 58.5532 120.989 58.4692C121.172 58.3852 121.316 58.2667 121.421 58.1137C121.529 57.9607 121.583 57.7807 121.583 57.5737V56.3902C121.583 56.1922 121.541 56.0212 121.457 55.8772C121.373 55.7302 121.245 55.6162 121.074 55.5352C120.903 55.4542 120.69 55.4137 120.435 55.4137C120.201 55.4137 119.97 55.4497 119.742 55.5217C119.514 55.5907 119.297 55.7002 119.09 55.8502L118.811 55.1212C119.09 54.9322 119.381 54.7987 119.684 54.7207C119.987 54.6427 120.278 54.6037 120.557 54.6037C120.971 54.6037 121.325 54.6697 121.619 54.8017C121.916 54.9307 122.144 55.1272 122.303 55.3912C122.462 55.6522 122.541 55.9822 122.541 56.3812V59.2387H121.65V58.7122C121.5 58.9252 121.292 59.0887 121.025 59.2027C120.758 59.3167 120.459 59.3737 120.129 59.3737Z" fill="white" fill-opacity="0.6"/>
<path d="M125.901 59.3737C125.433 59.3737 125.016 59.2717 124.65 59.0677C124.284 58.8607 123.996 58.5802 123.786 58.2262C123.579 57.8692 123.475 57.4642 123.475 57.0112C123.475 56.6692 123.537 56.3557 123.66 56.0707C123.783 55.7827 123.957 55.5322 124.182 55.3192C124.407 55.1062 124.671 54.9412 124.974 54.8242C125.28 54.7072 125.611 54.6487 125.968 54.6487C126.268 54.6487 126.546 54.6892 126.801 54.7702C127.059 54.8482 127.296 54.9697 127.512 55.1347L127.035 55.8907C126.897 55.7677 126.738 55.6762 126.558 55.6162C126.381 55.5562 126.192 55.5262 125.991 55.5262C125.679 55.5262 125.41 55.5847 125.185 55.7017C124.96 55.8187 124.785 55.9882 124.659 56.2102C124.536 56.4292 124.474 56.6947 124.474 57.0067C124.474 57.4717 124.609 57.8362 124.879 58.1002C125.152 58.3642 125.523 58.4962 125.991 58.4962C126.213 58.4962 126.423 58.4557 126.621 58.3747C126.819 58.2907 126.984 58.1812 127.116 58.0462L127.588 58.7977C127.351 58.9777 127.087 59.1187 126.796 59.2207C126.505 59.3227 126.207 59.3737 125.901 59.3737Z" fill="white" fill-opacity="0.6"/>
<path d="M130.37 59.3737C129.935 59.3737 129.587 59.2477 129.326 58.9957C129.065 58.7437 128.935 58.3582 128.935 57.8392V53.4832H129.925V54.7837H131.162V55.6027H129.925V57.6232C129.925 57.9352 129.983 58.1557 130.1 58.2847C130.22 58.4107 130.388 58.4737 130.604 58.4737C130.709 58.4737 130.808 58.4617 130.901 58.4377C130.994 58.4137 131.078 58.3822 131.153 58.3432L131.329 59.1442C131.2 59.2102 131.051 59.2642 130.883 59.3062C130.718 59.3512 130.547 59.3737 130.37 59.3737ZM127.958 55.6027V54.7837H129.065V55.6027H127.958Z" fill="white" fill-opacity="0.6"/>
<path d="M132.365 59.2387V54.7837H133.355V59.2387H132.365ZM132.86 53.9872C132.683 53.9872 132.53 53.9302 132.401 53.8162C132.272 53.7022 132.208 53.5522 132.208 53.3662C132.208 53.1832 132.272 53.0347 132.401 52.9207C132.53 52.8037 132.683 52.7452 132.86 52.7452C133.037 52.7452 133.19 52.8037 133.319 52.9207C133.448 53.0347 133.513 53.1832 133.513 53.3662C133.513 53.5522 133.448 53.7022 133.319 53.8162C133.19 53.9302 133.037 53.9872 132.86 53.9872Z" fill="white" fill-opacity="0.6"/>
<path d="M135.837 59.2387L134.172 54.7837H135.256L136.489 58.3882H136.341L137.551 54.7837H138.604L136.971 59.2387H135.837Z" fill="white" fill-opacity="0.6"/>
<path d="M139.423 59.2387V54.7837H140.413V59.2387H139.423ZM139.918 53.9872C139.741 53.9872 139.588 53.9302 139.459 53.8162C139.33 53.7022 139.265 53.5522 139.265 53.3662C139.265 53.1832 139.33 53.0347 139.459 52.9207C139.588 52.8037 139.741 52.7452 139.918 52.7452C140.095 52.7452 140.248 52.8037 140.377 52.9207C140.506 53.0347 140.57 53.1832 140.57 53.3662C140.57 53.5522 140.506 53.7022 140.377 53.8162C140.248 53.9302 140.095 53.9872 139.918 53.9872Z" fill="white" fill-opacity="0.6"/>
<path d="M143.659 59.3737C143.224 59.3737 142.876 59.2477 142.615 58.9957C142.354 58.7437 142.224 58.3582 142.224 57.8392V53.4832H143.214V54.7837H144.451V55.6027H143.214V57.6232C143.214 57.9352 143.272 58.1557 143.389 58.2847C143.509 58.4107 143.677 58.4737 143.893 58.4737C143.998 58.4737 144.097 58.4617 144.19 58.4377C144.283 58.4137 144.367 58.3822 144.442 58.3432L144.618 59.1442C144.489 59.2102 144.34 59.2642 144.172 59.3062C144.007 59.3512 143.836 59.3737 143.659 59.3737ZM141.247 55.6027V54.7837H142.354V55.6027H141.247Z" fill="white" fill-opacity="0.6"/>
<path d="M146.037 61.2547C145.875 61.2547 145.716 61.2367 145.56 61.2007C145.404 61.1647 145.251 61.1032 145.101 61.0162L145.326 60.1702C145.419 60.2302 145.521 60.2752 145.632 60.3052C145.743 60.3352 145.842 60.3502 145.929 60.3502C146.139 60.3502 146.304 60.3007 146.424 60.2017C146.544 60.1027 146.638 59.9497 146.707 59.7427L146.856 59.3107L145.101 54.7837H146.185L147.418 58.2397L148.62 54.7837H149.668L147.742 59.8822C147.604 60.2392 147.45 60.5167 147.279 60.7147C147.108 60.9157 146.919 61.0552 146.712 61.1332C146.505 61.2142 146.28 61.2547 146.037 61.2547Z" fill="white" fill-opacity="0.6"/>
<path d="M151.079 55.9402C150.887 55.9402 150.72 55.8787 150.579 55.7557C150.441 55.6327 150.372 55.4722 150.372 55.2742C150.372 55.1392 150.404 55.0222 150.467 54.9232C150.53 54.8212 150.615 54.7432 150.723 54.6892C150.831 54.6322 150.95 54.6037 151.079 54.6037C151.274 54.6037 151.439 54.6652 151.574 54.7882C151.712 54.9082 151.781 55.0702 151.781 55.2742C151.781 55.4062 151.749 55.5232 151.686 55.6252C151.623 55.7242 151.538 55.8022 151.43 55.8592C151.325 55.9132 151.208 55.9402 151.079 55.9402ZM151.079 59.3737C150.887 59.3737 150.72 59.3122 150.579 59.1892C150.441 59.0662 150.372 58.9057 150.372 58.7077C150.372 58.5727 150.404 58.4557 150.467 58.3567C150.53 58.2547 150.615 58.1767 150.723 58.1227C150.831 58.0657 150.95 58.0372 151.079 58.0372C151.274 58.0372 151.439 58.0987 151.574 58.2217C151.712 58.3417 151.781 58.5037 151.781 58.7077C151.781 58.8397 151.749 58.9567 151.686 59.0587C151.623 59.1577 151.538 59.2342 151.43 59.2882C151.325 59.3452 151.208 59.3737 151.079 59.3737Z" fill="white" fill-opacity="0.6"/>
<path d="M159.781 60.1725V53.8725H161.815C162.448 53.8725 163.008 54.006 163.494 54.273C163.98 54.54 164.359 54.9105 164.632 55.3845C164.905 55.8585 165.042 56.406 165.042 57.027C165.042 57.489 164.964 57.9135 164.808 58.3005C164.652 58.6845 164.43 59.016 164.142 59.295C163.857 59.574 163.516 59.79 163.12 59.943C162.727 60.096 162.292 60.1725 161.815 60.1725H159.781ZM160.951 59.0835H161.707C162.022 59.0835 162.309 59.037 162.567 58.944C162.825 58.851 163.047 58.716 163.233 58.539C163.422 58.362 163.566 58.146 163.665 57.891C163.767 57.636 163.818 57.348 163.818 57.027C163.818 56.592 163.729 56.2215 163.552 55.9155C163.378 55.6065 163.132 55.371 162.814 55.209C162.499 55.044 162.13 54.9615 161.707 54.9615H160.951V59.0835Z" fill="white"/>
<path d="M168.189 60.3075C167.7 60.3075 167.271 60.2085 166.902 60.0105C166.533 59.8095 166.245 59.5305 166.038 59.1735C165.834 58.8165 165.732 58.401 165.732 57.927C165.732 57.579 165.791 57.2595 165.908 56.9685C166.028 56.6775 166.196 56.4255 166.412 56.2125C166.631 55.9965 166.886 55.83 167.177 55.713C167.471 55.596 167.792 55.5375 168.14 55.5375C168.518 55.5375 168.855 55.605 169.152 55.74C169.449 55.872 169.695 56.0595 169.89 56.3025C170.088 56.5425 170.226 56.8245 170.304 57.1485C170.385 57.4695 170.396 57.8205 170.336 58.2015H166.817C166.814 58.4385 166.869 58.6455 166.983 58.8225C167.1 58.9995 167.265 59.139 167.478 59.241C167.694 59.34 167.948 59.3895 168.239 59.3895C168.497 59.3895 168.744 59.352 168.981 59.277C169.218 59.202 169.439 59.091 169.643 58.944L170.048 59.7495C169.907 59.8635 169.731 59.9625 169.521 60.0465C169.311 60.1305 169.089 60.195 168.855 60.24C168.624 60.285 168.402 60.3075 168.189 60.3075ZM166.884 57.3825H169.22C169.211 57.0795 169.11 56.8425 168.918 56.6715C168.726 56.4975 168.458 56.4105 168.113 56.4105C167.771 56.4105 167.489 56.4975 167.267 56.6715C167.045 56.8425 166.917 57.0795 166.884 57.3825Z" fill="white"/>
<path d="M173.2 60.3075C172.738 60.3075 172.372 60.1755 172.102 59.9115C171.832 59.6475 171.697 59.2485 171.697 58.7145V54.3675H172.849V55.6725H174.032V56.6085H172.849V58.485C172.849 58.773 172.906 58.977 173.02 59.097C173.134 59.214 173.291 59.2725 173.492 59.2725C173.594 59.2725 173.69 59.2605 173.78 59.2365C173.873 59.2125 173.959 59.181 174.037 59.142L174.217 60.06C174.085 60.129 173.93 60.1875 173.753 60.2355C173.576 60.2835 173.392 60.3075 173.2 60.3075ZM170.747 56.6085V55.6725H171.827V56.6085H170.747Z" fill="white"/>
<path d="M177.26 60.3075C176.771 60.3075 176.342 60.2085 175.973 60.0105C175.604 59.8095 175.316 59.5305 175.109 59.1735C174.905 58.8165 174.803 58.401 174.803 57.927C174.803 57.579 174.861 57.2595 174.978 56.9685C175.098 56.6775 175.266 56.4255 175.482 56.2125C175.701 55.9965 175.956 55.83 176.247 55.713C176.541 55.596 176.862 55.5375 177.21 55.5375C177.588 55.5375 177.926 55.605 178.223 55.74C178.52 55.872 178.766 56.0595 178.961 56.3025C179.159 56.5425 179.297 56.8245 179.375 57.1485C179.456 57.4695 179.466 57.8205 179.406 58.2015H175.887C175.884 58.4385 175.94 58.6455 176.054 58.8225C176.171 58.9995 176.336 59.139 176.549 59.241C176.765 59.34 177.018 59.3895 177.309 59.3895C177.567 59.3895 177.815 59.352 178.052 59.277C178.289 59.202 178.509 59.091 178.713 58.944L179.118 59.7495C178.977 59.8635 178.802 59.9625 178.592 60.0465C178.382 60.1305 178.16 60.195 177.926 60.24C177.695 60.285 177.473 60.3075 177.26 60.3075ZM175.955 57.3825H178.29C178.281 57.0795 178.181 56.8425 177.989 56.6715C177.797 56.4975 177.528 56.4105 177.183 56.4105C176.841 56.4105 176.559 56.4975 176.337 56.6715C176.115 56.8425 175.988 57.0795 175.955 57.3825Z" fill="white"/>
<path d="M182.525 60.3075C182.048 60.3075 181.623 60.204 181.251 59.997C180.882 59.787 180.591 59.5035 180.378 59.1465C180.165 58.7865 180.059 58.3785 180.059 57.9225C180.059 57.5775 180.122 57.261 180.248 56.973C180.374 56.682 180.551 56.43 180.779 56.217C181.007 56.001 181.274 55.8345 181.58 55.7175C181.889 55.5975 182.225 55.5375 182.588 55.5375C182.903 55.5375 183.195 55.5795 183.465 55.6635C183.735 55.7475 183.983 55.8765 184.208 56.0505L183.672 56.919C183.531 56.793 183.371 56.7 183.191 56.64C183.014 56.577 182.828 56.5455 182.633 56.5455C182.339 56.5455 182.085 56.5995 181.872 56.7075C181.662 56.8155 181.5 56.9715 181.386 57.1755C181.272 57.3795 181.215 57.627 181.215 57.918C181.215 58.35 181.341 58.689 181.593 58.935C181.848 59.178 182.195 59.2995 182.633 59.2995C182.852 59.2995 183.059 59.259 183.254 59.178C183.449 59.097 183.618 58.986 183.762 58.845L184.275 59.718C184.029 59.901 183.755 60.045 183.452 60.15C183.149 60.255 182.84 60.3075 182.525 60.3075Z" fill="white"/>
<path d="M187.06 60.3075C186.598 60.3075 186.232 60.1755 185.962 59.9115C185.692 59.6475 185.557 59.2485 185.557 58.7145V54.3675H186.709V55.6725H187.893V56.6085H186.709V58.485C186.709 58.773 186.766 58.977 186.88 59.097C186.994 59.214 187.152 59.2725 187.353 59.2725C187.455 59.2725 187.551 59.2605 187.641 59.2365C187.734 59.2125 187.819 59.181 187.897 59.142L188.077 60.06C187.945 60.129 187.791 60.1875 187.614 60.2355C187.437 60.2835 187.252 60.3075 187.06 60.3075ZM184.608 56.6085V55.6725H185.688V56.6085H184.608Z" fill="white"/>
<path d="M191.12 60.3075C190.631 60.3075 190.202 60.2085 189.833 60.0105C189.464 59.8095 189.176 59.5305 188.969 59.1735C188.765 58.8165 188.663 58.401 188.663 57.927C188.663 57.579 188.722 57.2595 188.839 56.9685C188.959 56.6775 189.127 56.4255 189.343 56.2125C189.562 55.9965 189.817 55.83 190.108 55.713C190.402 55.596 190.723 55.5375 191.071 55.5375C191.449 55.5375 191.786 55.605 192.083 55.74C192.38 55.872 192.626 56.0595 192.821 56.3025C193.019 56.5425 193.157 56.8245 193.235 57.1485C193.316 57.4695 193.327 57.8205 193.267 58.2015H189.748C189.745 58.4385 189.8 58.6455 189.914 58.8225C190.031 58.9995 190.196 59.139 190.409 59.241C190.625 59.34 190.879 59.3895 191.17 59.3895C191.428 59.3895 191.675 59.352 191.912 59.277C192.149 59.202 192.37 59.091 192.574 58.944L192.979 59.7495C192.838 59.8635 192.662 59.9625 192.452 60.0465C192.242 60.1305 192.02 60.195 191.786 60.24C191.555 60.285 191.333 60.3075 191.12 60.3075ZM189.815 57.3825H192.151C192.142 57.0795 192.041 56.8425 191.849 56.6715C191.657 56.4975 191.389 56.4105 191.044 56.4105C190.702 56.4105 190.42 56.4975 190.198 56.6715C189.976 56.8425 189.848 57.0795 189.815 57.3825Z" fill="white"/>
<path d="M196.169 60.3075C195.731 60.3075 195.342 60.2055 195.003 60.0015C194.664 59.7975 194.399 59.5155 194.207 59.1555C194.015 58.7955 193.919 58.3845 193.919 57.9225C193.919 57.5895 193.973 57.279 194.081 56.991C194.192 56.7 194.348 56.4465 194.549 56.2305C194.753 56.0115 194.993 55.842 195.269 55.722C195.545 55.599 195.851 55.5375 196.187 55.5375C196.574 55.5375 196.913 55.6155 197.204 55.7715C197.495 55.9245 197.742 56.142 197.946 56.424L197.694 56.685V53.6925H198.846V60.1725H197.829V59.061L197.991 59.322C197.838 59.607 197.61 59.8425 197.307 60.0285C197.004 60.2145 196.625 60.3075 196.169 60.3075ZM196.38 59.2995C196.632 59.2995 196.857 59.244 197.055 59.133C197.256 59.019 197.414 58.86 197.528 58.656C197.642 58.449 197.699 58.2045 197.699 57.9225C197.699 57.6405 197.642 57.396 197.528 57.189C197.414 56.982 197.258 56.823 197.06 56.712C196.862 56.601 196.635 56.5455 196.38 56.5455C196.125 56.5455 195.897 56.601 195.696 56.712C195.498 56.823 195.342 56.982 195.228 57.189C195.117 57.396 195.062 57.6405 195.062 57.9225C195.062 58.2045 195.119 58.449 195.233 58.656C195.347 58.86 195.503 59.019 195.701 59.133C195.899 59.244 196.125 59.2995 196.38 59.2995Z" fill="white"/>
<rect opacity="0.5" x="61.6414" y="69" width="161.016" height="1" fill="white" fill-opacity="0.1"/>
<path d="M72.308 78.6667C72.308 77.1933 71.1147 76 69.6414 76C68.168 76 66.9747 77.1933 66.9747 78.6667C66.9747 80.14 68.168 81.3333 69.6414 81.3333C71.1147 81.3333 72.308 80.14 72.308 78.6667ZM69.6414 80C68.908 80 68.308 79.4 68.308 78.6667C68.308 77.9333 68.908 77.3333 69.6414 77.3333C70.3747 77.3333 70.9747 77.9333 70.9747 78.6667C70.9747 79.4 70.3747 80 69.6414 80ZM66.308 82.6667C64.8347 82.6667 63.6414 83.86 63.6414 85.3333C63.6414 86.8067 64.8347 88 66.308 88C67.7814 88 68.9747 86.8067 68.9747 85.3333C68.9747 83.86 67.7814 82.6667 66.308 82.6667ZM66.308 86.6667C65.5747 86.6667 64.9747 86.0667 64.9747 85.3333C64.9747 84.6 65.5747 84 66.308 84C67.0414 84 67.6414 84.6 67.6414 85.3333C67.6414 86.0667 67.0414 86.6667 66.308 86.6667ZM72.9747 82.6667C71.5014 82.6667 70.308 83.86 70.308 85.3333C70.308 86.8067 71.5014 88 72.9747 88C74.448 88 75.6414 86.8067 75.6414 85.3333C75.6414 83.86 74.448 82.6667 72.9747 82.6667ZM72.9747 86.6667C72.2414 86.6667 71.6414 86.0667 71.6414 85.3333C71.6414 84.6 72.2414 84 72.9747 84C73.708 84 74.308 84.6 74.308 85.3333C74.308 86.0667 73.708 86.6667 72.9747 86.6667Z" fill="#FF8B36"/>
<path d="M85.6414 85.1478V78.8478H86.6494V85.1478H85.6414Z" fill="white" fill-opacity="0.6"/>
<path d="M90.3477 85.2828C89.9127 85.2828 89.4867 85.2213 89.0697 85.0983C88.6557 84.9753 88.3062 84.7953 88.0212 84.5583L88.5162 83.7888C88.7412 83.9838 89.0187 84.1368 89.3487 84.2478C89.6787 84.3558 90.0132 84.4098 90.3522 84.4098C90.7632 84.4098 91.0947 84.3318 91.3467 84.1758C91.6017 84.0198 91.7292 83.7918 91.7292 83.4918C91.7292 83.2668 91.6422 83.0763 91.4682 82.9203C91.2972 82.7643 90.9792 82.6203 90.5142 82.4883L89.8662 82.2993C89.2692 82.1283 88.8357 81.9018 88.5657 81.6198C88.2957 81.3378 88.1607 80.9868 88.1607 80.5668C88.1607 80.1978 88.2582 79.8753 88.4532 79.5993C88.6512 79.3203 88.9227 79.1043 89.2677 78.9513C89.6127 78.7953 90.0072 78.7173 90.4512 78.7173C90.8742 78.7173 91.2672 78.7788 91.6302 78.9018C91.9932 79.0248 92.2932 79.1898 92.5302 79.3968L92.0172 80.1438C91.8222 79.9698 91.5807 79.8333 91.2927 79.7343C91.0077 79.6323 90.7122 79.5813 90.4062 79.5813C90.0252 79.5813 89.7162 79.6623 89.4792 79.8243C89.2422 79.9863 89.1237 80.2158 89.1237 80.5128C89.1237 80.7288 89.2077 80.9058 89.3757 81.0438C89.5467 81.1818 89.8647 81.3183 90.3297 81.4533L91.0137 81.6558C91.5957 81.8298 92.0217 82.0533 92.2917 82.3263C92.5617 82.5993 92.6967 82.9548 92.6967 83.3928C92.6967 83.9538 92.4897 84.4098 92.0757 84.7608C91.6647 85.1088 91.0887 85.2828 90.3477 85.2828Z" fill="white" fill-opacity="0.6"/>
<path d="M93.947 85.1478V78.8478H96.2285C96.6755 78.8478 97.07 78.9258 97.412 79.0818C97.757 79.2348 98.027 79.4568 98.222 79.7478C98.417 80.0358 98.5145 80.3823 98.5145 80.7873C98.5145 81.4113 98.3135 81.8898 97.9115 82.2228C97.5125 82.5528 96.944 82.7178 96.206 82.7178H94.955V85.1478H93.947ZM94.955 81.8538H96.2195C96.6245 81.8538 96.9395 81.7683 97.1645 81.5973C97.3925 81.4263 97.5065 81.1638 97.5065 80.8098C97.5065 80.4618 97.391 80.1948 97.16 80.0088C96.929 79.8228 96.6185 79.7298 96.2285 79.7298H94.955V81.8538Z" fill="white" fill-opacity="0.6"/>
<path d="M100.155 81.8493C99.9601 81.8493 99.7936 81.7893 99.6556 81.6693C99.5176 81.5463 99.4486 81.3843 99.4486 81.1833C99.4486 80.9793 99.5176 80.8173 99.6556 80.6973C99.7936 80.5743 99.9601 80.5128 100.155 80.5128C100.347 80.5128 100.512 80.5743 100.65 80.6973C100.788 80.8173 100.857 80.9793 100.857 81.1833C100.857 81.3843 100.788 81.5463 100.65 81.6693C100.512 81.7893 100.347 81.8493 100.155 81.8493ZM100.155 85.2828C99.9601 85.2828 99.7936 85.2228 99.6556 85.1028C99.5176 84.9798 99.4486 84.8178 99.4486 84.6168C99.4486 84.4128 99.5176 84.2508 99.6556 84.1308C99.7936 84.0078 99.9601 83.9463 100.155 83.9463C100.347 83.9463 100.512 84.0078 100.65 84.1308C100.788 84.2508 100.857 84.4128 100.857 84.6168C100.857 84.8178 100.788 84.9798 100.65 85.1028C100.512 85.2228 100.347 85.2828 100.155 85.2828Z" fill="white" fill-opacity="0.6"/>
<path d="M108.857 84.2725V77.9725H109.987L112.264 81.703L114.446 77.9725H115.562V84.2725H114.424L114.437 79.9435L112.624 82.972H111.8L109.91 79.8985L109.928 84.2725H108.857Z" fill="white"/>
<path d="M116.862 84.2725V83.467L118.216 82.234C118.642 81.844 118.981 81.514 119.233 81.244C119.488 80.971 119.671 80.7265 119.782 80.5105C119.896 80.2915 119.953 80.0725 119.953 79.8535C119.953 79.5325 119.844 79.282 119.625 79.102C119.406 78.922 119.1 78.832 118.707 78.832C118.431 78.832 118.165 78.8815 117.91 78.9805C117.655 79.0795 117.435 79.2265 117.249 79.4215L116.835 78.571C117.102 78.334 117.408 78.1525 117.753 78.0265C118.098 77.9005 118.456 77.8375 118.828 77.8375C119.275 77.8375 119.664 77.917 119.994 78.076C120.327 78.232 120.585 78.451 120.768 78.733C120.951 79.015 121.042 79.3465 121.042 79.7275C121.042 79.9855 120.99 80.242 120.885 80.497C120.783 80.752 120.601 81.0385 120.34 81.3565C120.079 81.6745 119.709 82.0585 119.229 82.5085L118.378 83.296H121.204V84.2725H116.862Z" fill="white"/>
<path d="M124.924 84.2725V83.017H121.837V82.1575L124.006 77.9725H125.18L123.052 82.0585H124.924V80.7175H125.914V82.0585H126.85V83.017H125.914V84.2725H124.924Z" fill="white"/>
<path d="M127.586 84.2725L130.169 79.021H127.248V77.9725H131.469V78.823L128.828 84.2725H127.586Z" fill="white"/>
<path d="M134.829 84.2725V77.9725H139.018V78.9985H135.999V80.524H138.582V81.4825H135.999V83.2375H139.05V84.2725H134.829Z" fill="white"/>
<path d="M142.025 84.4075C141.62 84.4075 141.284 84.328 141.017 84.169C140.753 84.007 140.557 83.7895 140.428 83.5165C140.299 83.2435 140.234 82.939 140.234 82.603V79.7725H141.386V82.405C141.386 82.693 141.467 82.924 141.629 83.098C141.794 83.269 142.028 83.3545 142.331 83.3545C142.619 83.3545 142.859 83.2585 143.051 83.0665C143.243 82.8715 143.339 82.6195 143.339 82.3105V79.7725H144.491V84.2725H143.474V83.7595C143.306 83.9545 143.105 84.112 142.871 84.232C142.637 84.349 142.355 84.4075 142.025 84.4075Z" fill="white"/>
<path d="M145.817 84.2725V79.7725H146.969V80.362C147.125 80.098 147.32 79.9105 147.554 79.7995C147.791 79.6885 148.046 79.633 148.319 79.633C148.412 79.633 148.499 79.6375 148.58 79.6465C148.661 79.6555 148.74 79.669 148.818 79.687L148.674 80.875C148.476 80.809 148.28 80.776 148.085 80.776C147.761 80.776 147.494 80.8735 147.284 81.0685C147.074 81.2605 146.969 81.5305 146.969 81.8785V84.2725H145.817Z" fill="white"/>
<path d="M151.609 84.4075C151.129 84.4075 150.703 84.2995 150.331 84.0835C149.962 83.8645 149.673 83.575 149.463 83.215C149.253 82.852 149.148 82.4545 149.148 82.0225C149.148 81.5965 149.253 81.2035 149.463 80.8435C149.673 80.4805 149.962 80.1895 150.331 79.9705C150.703 79.7485 151.129 79.6375 151.609 79.6375C152.086 79.6375 152.509 79.747 152.878 79.966C153.25 80.182 153.541 80.47 153.751 80.83C153.964 81.19 154.071 81.5875 154.071 82.0225C154.071 82.4455 153.964 82.8385 153.751 83.2015C153.541 83.5645 153.25 83.857 152.878 84.079C152.509 84.298 152.086 84.4075 151.609 84.4075ZM151.609 83.3995C151.987 83.3995 152.301 83.2765 152.55 83.0305C152.802 82.7815 152.928 82.4455 152.928 82.0225C152.928 81.5995 152.803 81.265 152.554 81.019C152.305 80.77 151.99 80.6455 151.609 80.6455C151.225 80.6455 150.909 80.77 150.66 81.019C150.414 81.265 150.291 81.5995 150.291 82.0225C150.291 82.4455 150.415 82.7815 150.664 83.0305C150.913 83.2765 151.228 83.3995 151.609 83.3995Z" fill="white"/>
<path d="M155.019 86.1625V79.7725H156.036V80.3665C156.21 80.1505 156.433 79.975 156.706 79.84C156.979 79.705 157.309 79.6375 157.696 79.6375C158.131 79.6375 158.518 79.7395 158.857 79.9435C159.196 80.1475 159.462 80.4295 159.654 80.7895C159.849 81.1465 159.946 81.5575 159.946 82.0225C159.946 82.4665 159.849 82.8685 159.654 83.2285C159.462 83.5885 159.195 83.875 158.853 84.088C158.514 84.301 158.122 84.4075 157.678 84.4075C157.354 84.4075 157.066 84.352 156.814 84.241C156.562 84.127 156.346 83.9725 156.166 83.7775V86.1625H155.019ZM157.485 83.3995C157.866 83.3995 158.181 83.2765 158.43 83.0305C158.679 82.7815 158.803 82.4455 158.803 82.0225C158.803 81.5995 158.677 81.265 158.425 81.019C158.176 80.77 157.863 80.6455 157.485 80.6455C157.104 80.6455 156.789 80.77 156.54 81.019C156.291 81.265 156.166 81.5995 156.166 82.0225C156.166 82.4455 156.289 82.7815 156.535 83.0305C156.784 83.2765 157.101 83.3995 157.485 83.3995Z" fill="white"/>
<path d="M163.021 84.4075C162.533 84.4075 162.103 84.3085 161.734 84.1105C161.365 83.9125 161.077 83.635 160.87 83.278C160.667 82.918 160.564 82.501 160.564 82.027C160.564 81.565 160.668 81.154 160.875 80.794C161.082 80.434 161.367 80.152 161.73 79.948C162.093 79.741 162.507 79.6375 162.972 79.6375C163.476 79.6375 163.906 79.7545 164.263 79.9885C164.62 80.2225 164.88 80.5405 165.042 80.9425C165.204 81.3415 165.246 81.7945 165.168 82.3015H161.649C161.643 82.6555 161.769 82.942 162.027 83.161C162.288 83.38 162.636 83.4895 163.071 83.4895C163.602 83.4895 164.07 83.341 164.475 83.044L164.88 83.8495C164.736 83.9635 164.559 84.0625 164.349 84.1465C164.142 84.2305 163.922 84.295 163.688 84.34C163.457 84.385 163.235 84.4075 163.021 84.4075ZM161.716 81.4825H164.052C164.043 81.1795 163.941 80.9425 163.746 80.7715C163.554 80.5975 163.287 80.5105 162.945 80.5105C162.603 80.5105 162.319 80.5975 162.094 80.7715C161.872 80.9425 161.746 81.1795 161.716 81.4825Z" fill="white"/>
<path d="M170.549 84.4075C170.099 84.4075 169.659 84.343 169.23 84.214C168.804 84.085 168.444 83.8975 168.15 83.6515L168.717 82.765C168.933 82.966 169.209 83.1235 169.545 83.2375C169.881 83.3515 170.217 83.4085 170.553 83.4085C170.928 83.4085 171.233 83.3395 171.467 83.2015C171.701 83.0605 171.818 82.858 171.818 82.594C171.818 82.39 171.737 82.2175 171.575 82.0765C171.413 81.9355 171.114 81.8035 170.679 81.6805L170.067 81.505C169.452 81.331 169.007 81.0985 168.731 80.8075C168.458 80.5135 168.321 80.1535 168.321 79.7275C168.321 79.3555 168.42 79.0285 168.618 78.7465C168.819 78.4615 169.095 78.2395 169.446 78.0805C169.797 77.9215 170.198 77.842 170.648 77.842C171.086 77.842 171.494 77.9065 171.872 78.0355C172.253 78.1615 172.563 78.334 172.803 78.553L172.223 79.4125C172.034 79.2355 171.795 79.096 171.507 78.994C171.222 78.889 170.928 78.8365 170.625 78.8365C170.271 78.8365 169.985 78.91 169.766 79.057C169.55 79.201 169.442 79.405 169.442 79.669C169.442 79.864 169.521 80.023 169.68 80.146C169.842 80.266 170.141 80.3905 170.576 80.5195L171.215 80.7085C171.818 80.8855 172.257 81.1135 172.533 81.3925C172.809 81.6685 172.947 82.0285 172.947 82.4725C172.947 82.8535 172.851 83.1895 172.659 83.4805C172.467 83.7715 172.191 83.9995 171.831 84.1645C171.474 84.3265 171.047 84.4075 170.549 84.4075Z" fill="white"/>
<path d="M174.134 84.2725V77.9725H176.573C177.242 77.9725 177.776 78.1405 178.175 78.4765C178.574 78.8125 178.773 79.273 178.773 79.858C178.773 80.326 178.632 80.71 178.35 81.01C178.068 81.307 177.705 81.5035 177.261 81.5995L179.093 84.2725H177.689L176.06 81.8065H175.304V84.2725H174.134ZM175.304 80.848H176.402C176.774 80.848 177.065 80.77 177.275 80.614C177.488 80.458 177.594 80.227 177.594 79.921C177.594 79.276 177.216 78.9535 176.46 78.9535H175.304V80.848Z" fill="white"/>
<path d="M180.18 84.2725V77.9725H181.35V83.2015H184.023V84.2725H180.18Z" fill="white"/>
<rect opacity="0.5" x="61.6414" y="94" width="161.016" height="1" fill="white" fill-opacity="0.1"/>
<path d="M74.308 109V111.667H64.9747V109H74.308ZM74.9747 107.667H64.308C63.9414 107.667 63.6414 107.967 63.6414 108.333V112.333C63.6414 112.7 63.9414 113 64.308 113H74.9747C75.3414 113 75.6414 112.7 75.6414 112.333V108.333C75.6414 107.967 75.3414 107.667 74.9747 107.667ZM66.308 111.333C65.7614 111.333 65.308 110.887 65.308 110.333C65.308 109.78 65.7614 109.333 66.308 109.333C66.8547 109.333 67.308 109.78 67.308 110.333C67.308 110.887 66.8614 111.333 66.308 111.333ZM74.308 102.333V105H64.9747V102.333H74.308ZM74.9747 101H64.308C63.9414 101 63.6414 101.3 63.6414 101.667V105.667C63.6414 106.033 63.9414 106.333 64.308 106.333H74.9747C75.3414 106.333 75.6414 106.033 75.6414 105.667V101.667C75.6414 101.3 75.3414 101 74.9747 101ZM66.308 104.667C65.7614 104.667 65.308 104.22 65.308 103.667C65.308 103.113 65.7614 102.667 66.308 102.667C66.8547 102.667 67.308 103.12 67.308 103.667C67.308 104.213 66.8614 104.667 66.308 104.667Z" fill="#5DA8FF"/>
<path d="M85.6414 109.142V102.842H87.9229C88.3699 102.842 88.7644 102.92 89.1064 103.076C89.4514 103.229 89.7214 103.451 89.9164 103.742C90.1114 104.03 90.2089 104.377 90.2089 104.782C90.2089 105.406 90.0079 105.884 89.6059 106.217C89.2069 106.547 88.6384 106.712 87.9004 106.712H86.6494V109.142H85.6414ZM86.6494 105.848H87.9139C88.3189 105.848 88.6339 105.763 88.8589 105.592C89.0869 105.421 89.2009 105.158 89.2009 104.804C89.2009 104.456 89.0854 104.189 88.8544 104.003C88.6234 103.817 88.3129 103.724 87.9229 103.724H86.6494V105.848Z" fill="white" fill-opacity="0.6"/>
<path d="M91.215 109.142V104.687H92.205V105.304C92.373 105.028 92.577 104.833 92.817 104.719C93.057 104.605 93.315 104.548 93.591 104.548C93.762 104.548 93.9255 104.566 94.0815 104.602L93.951 105.623C93.762 105.566 93.5775 105.538 93.3975 105.538C93.0525 105.538 92.7675 105.644 92.5425 105.857C92.3175 106.067 92.205 106.354 92.205 106.717V109.142H91.215Z" fill="white" fill-opacity="0.6"/>
<path d="M96.848 109.277C96.383 109.277 95.9675 109.171 95.6015 108.958C95.2385 108.742 94.9535 108.455 94.7465 108.098C94.5395 107.738 94.436 107.344 94.436 106.915C94.436 106.492 94.5395 106.102 94.7465 105.745C94.9535 105.385 95.2385 105.097 95.6015 104.881C95.9675 104.662 96.383 104.552 96.848 104.552C97.316 104.552 97.7315 104.66 98.0945 104.876C98.4605 105.089 98.747 105.376 98.954 105.736C99.161 106.093 99.2645 106.486 99.2645 106.915C99.2645 107.338 99.161 107.729 98.954 108.089C98.747 108.446 98.462 108.734 98.099 108.953C97.736 109.169 97.319 109.277 96.848 109.277ZM96.848 108.4C97.262 108.4 97.6025 108.266 97.8695 107.999C98.1395 107.732 98.2745 107.371 98.2745 106.915C98.2745 106.459 98.1395 106.097 97.8695 105.83C97.6025 105.563 97.262 105.43 96.848 105.43C96.434 105.43 96.0935 105.563 95.8265 105.83C95.5595 106.097 95.426 106.459 95.426 106.915C95.426 107.371 95.5595 107.732 95.8265 107.999C96.0965 108.266 96.437 108.4 96.848 108.4Z" fill="white" fill-opacity="0.6"/>
<path d="M99.6439 109.147L101.255 106.906L99.7384 104.687H100.985L101.934 106.195L102.852 104.687H104.067L102.596 106.879L104.193 109.142H102.924L101.898 107.576L100.859 109.133L99.6439 109.147Z" fill="white" fill-opacity="0.6"/>
<path d="M105.405 111.158C105.243 111.158 105.084 111.14 104.928 111.104C104.772 111.071 104.619 111.01 104.469 110.92L104.694 110.074C104.787 110.134 104.888 110.179 104.996 110.209C105.107 110.239 105.207 110.254 105.297 110.254C105.507 110.254 105.672 110.204 105.792 110.105C105.912 110.009 106.007 109.856 106.076 109.646L106.224 109.214L104.469 104.687H105.554L106.787 108.143L107.988 104.687H109.037L107.111 109.786C106.904 110.32 106.659 110.681 106.377 110.87C106.095 111.062 105.771 111.158 105.405 111.158Z" fill="white" fill-opacity="0.6"/>
<path d="M110.447 105.844C110.252 105.844 110.086 105.784 109.948 105.664C109.81 105.541 109.741 105.379 109.741 105.178C109.741 104.974 109.81 104.812 109.948 104.692C110.086 104.569 110.252 104.507 110.447 104.507C110.639 104.507 110.804 104.569 110.942 104.692C111.08 104.812 111.149 104.974 111.149 105.178C111.149 105.379 111.08 105.541 110.942 105.664C110.804 105.784 110.639 105.844 110.447 105.844ZM110.447 109.277C110.252 109.277 110.086 109.217 109.948 109.097C109.81 108.974 109.741 108.812 109.741 108.611C109.741 108.407 109.81 108.245 109.948 108.125C110.086 108.002 110.252 107.941 110.447 107.941C110.639 107.941 110.804 108.002 110.942 108.125C111.08 108.245 111.149 108.407 111.149 108.611C111.149 108.812 111.08 108.974 110.942 109.097C110.804 109.217 110.639 109.277 110.447 109.277Z" fill="white" fill-opacity="0.6"/>
<path d="M119.149 110.173V103.873H120.283L123.267 108.211V103.873H124.405V110.173H123.271L120.288 105.781V110.173H119.149Z" fill="white"/>
<path d="M127.949 110.308C127.469 110.308 127.043 110.2 126.671 109.984C126.302 109.765 126.012 109.475 125.802 109.115C125.592 108.752 125.487 108.355 125.487 107.923C125.487 107.497 125.592 107.104 125.802 106.744C126.012 106.381 126.302 106.09 126.671 105.871C127.043 105.649 127.469 105.538 127.949 105.538C128.426 105.538 128.849 105.647 129.218 105.866C129.59 106.082 129.881 106.37 130.091 106.73C130.304 107.09 130.41 107.488 130.41 107.923C130.41 108.346 130.304 108.739 130.091 109.102C129.881 109.465 129.59 109.757 129.218 109.979C128.849 110.198 128.426 110.308 127.949 110.308ZM127.949 109.3C128.327 109.3 128.64 109.177 128.889 108.931C129.141 108.682 129.267 108.346 129.267 107.923C129.267 107.5 129.143 107.165 128.894 106.919C128.645 106.67 128.33 106.546 127.949 106.546C127.565 106.546 127.248 106.67 126.999 106.919C126.753 107.165 126.63 107.5 126.63 107.923C126.63 108.346 126.755 108.682 127.004 108.931C127.253 109.177 127.568 109.3 127.949 109.3Z" fill="white"/>
<path d="M133.236 110.308C132.774 110.308 132.408 110.176 132.138 109.912C131.868 109.648 131.733 109.249 131.733 108.715V106.609H130.784V105.673H131.733V104.368H132.885V105.673H134.069V106.609H132.885V108.485C132.885 108.776 132.942 108.98 133.056 109.097C133.17 109.214 133.328 109.273 133.529 109.273C133.727 109.273 133.908 109.229 134.073 109.142L134.253 110.06C134.118 110.132 133.962 110.191 133.785 110.236C133.608 110.284 133.425 110.308 133.236 110.308Z" fill="white"/>
<path d="M139.269 110.308C138.831 110.308 138.442 110.206 138.103 110.002C137.764 109.798 137.499 109.516 137.307 109.156C137.115 108.796 137.019 108.385 137.019 107.923C137.019 107.479 137.115 107.077 137.307 106.717C137.499 106.357 137.764 106.07 138.103 105.857C138.445 105.644 138.84 105.538 139.287 105.538C139.599 105.538 139.879 105.589 140.128 105.691C140.38 105.793 140.602 105.938 140.794 106.127V103.693H141.946V110.173H140.929V109.574C140.758 109.793 140.535 109.97 140.259 110.105C139.983 110.24 139.653 110.308 139.269 110.308ZM139.48 109.3C139.858 109.3 140.172 109.177 140.421 108.931C140.673 108.682 140.799 108.346 140.799 107.923C140.799 107.5 140.674 107.165 140.425 106.919C140.176 106.67 139.861 106.546 139.48 106.546C139.096 106.546 138.78 106.67 138.531 106.919C138.285 107.165 138.162 107.5 138.162 107.923C138.162 108.346 138.286 108.682 138.535 108.931C138.784 109.177 139.099 109.3 139.48 109.3Z" fill="white"/>
<path d="M145.355 110.308C144.866 110.308 144.437 110.209 144.068 110.011C143.699 109.813 143.411 109.535 143.204 109.178C143 108.818 142.898 108.401 142.898 107.927C142.898 107.465 143.002 107.054 143.209 106.694C143.416 106.334 143.701 106.052 144.064 105.848C144.427 105.641 144.841 105.538 145.306 105.538C145.81 105.538 146.24 105.655 146.597 105.889C146.954 106.123 147.214 106.441 147.376 106.843C147.538 107.242 147.58 107.695 147.502 108.202H143.983C143.977 108.556 144.103 108.842 144.361 109.061C144.622 109.28 144.97 109.39 145.405 109.39C145.936 109.39 146.404 109.241 146.809 108.944L147.214 109.75C147.07 109.864 146.893 109.963 146.683 110.047C146.476 110.131 146.255 110.195 146.021 110.24C145.79 110.285 145.568 110.308 145.355 110.308ZM144.05 107.383H146.386C146.377 107.08 146.275 106.843 146.08 106.672C145.888 106.498 145.621 106.411 145.279 106.411C144.937 106.411 144.653 106.498 144.428 106.672C144.206 106.843 144.08 107.08 144.05 107.383Z" fill="white"/>
<path d="M150.366 110.308C149.904 110.308 149.538 110.176 149.268 109.912C148.998 109.648 148.863 109.249 148.863 108.715V106.609H147.913V105.673H148.863V104.368H150.015V105.673H151.198V106.609H150.015V108.485C150.015 108.776 150.072 108.98 150.186 109.097C150.3 109.214 150.457 109.273 150.658 109.273C150.856 109.273 151.038 109.229 151.203 109.142L151.383 110.06C151.248 110.132 151.092 110.191 150.915 110.236C150.738 110.284 150.555 110.308 150.366 110.308Z" fill="white"/>
<path d="M154.417 110.308C153.928 110.308 153.499 110.209 153.13 110.011C152.761 109.813 152.473 109.535 152.266 109.178C152.062 108.818 151.96 108.401 151.96 107.927C151.96 107.465 152.064 107.054 152.271 106.694C152.478 106.334 152.763 106.052 153.126 105.848C153.489 105.641 153.903 105.538 154.368 105.538C154.872 105.538 155.302 105.655 155.659 105.889C156.016 106.123 156.276 106.441 156.438 106.843C156.6 107.242 156.642 107.695 156.564 108.202H153.045C153.039 108.556 153.165 108.842 153.423 109.061C153.684 109.28 154.032 109.39 154.467 109.39C154.998 109.39 155.466 109.241 155.871 108.944L156.276 109.75C156.132 109.864 155.955 109.963 155.745 110.047C155.538 110.131 155.317 110.195 155.083 110.24C154.852 110.285 154.63 110.308 154.417 110.308ZM153.112 107.383H155.448C155.439 107.08 155.337 106.843 155.142 106.672C154.95 106.498 154.683 106.411 154.341 106.411C153.999 106.411 153.715 106.498 153.49 106.672C153.268 106.843 153.142 107.08 153.112 107.383Z" fill="white"/>
<path d="M159.682 110.308C159.205 110.308 158.78 110.204 158.408 109.997C158.036 109.79 157.744 109.507 157.531 109.147C157.321 108.787 157.216 108.379 157.216 107.923C157.216 107.464 157.325 107.056 157.544 106.699C157.763 106.339 158.063 106.055 158.444 105.848C158.825 105.641 159.259 105.538 159.745 105.538C160.375 105.538 160.915 105.709 161.365 106.051L160.829 106.919C160.685 106.793 160.525 106.7 160.348 106.64C160.171 106.577 159.985 106.546 159.79 106.546C159.349 106.546 159.002 106.666 158.75 106.906C158.498 107.146 158.372 107.483 158.372 107.918C158.372 108.35 158.498 108.689 158.75 108.935C159.002 109.178 159.349 109.3 159.79 109.3C160.009 109.3 160.216 109.259 160.411 109.178C160.606 109.097 160.775 108.986 160.919 108.845L161.432 109.718C161.186 109.901 160.912 110.045 160.609 110.15C160.306 110.255 159.997 110.308 159.682 110.308Z" fill="white"/>
<path d="M164.218 110.308C163.756 110.308 163.39 110.176 163.12 109.912C162.85 109.648 162.715 109.249 162.715 108.715V106.609H161.765V105.673H162.715V104.368H163.867V105.673H165.05V106.609H163.867V108.485C163.867 108.776 163.924 108.98 164.038 109.097C164.152 109.214 164.309 109.273 164.51 109.273C164.708 109.273 164.89 109.229 165.055 109.142L165.235 110.06C165.1 110.132 164.944 110.191 164.767 110.236C164.59 110.284 164.407 110.308 164.218 110.308Z" fill="white"/>
<path d="M168.269 110.308C167.78 110.308 167.351 110.209 166.982 110.011C166.613 109.813 166.325 109.535 166.118 109.178C165.914 108.818 165.812 108.401 165.812 107.927C165.812 107.465 165.915 107.054 166.122 106.694C166.329 106.334 166.614 106.052 166.977 105.848C167.34 105.641 167.754 105.538 168.219 105.538C168.723 105.538 169.154 105.655 169.511 105.889C169.868 106.123 170.127 106.441 170.289 106.843C170.451 107.242 170.493 107.695 170.415 108.202H166.896C166.89 108.556 167.016 108.842 167.274 109.061C167.535 109.28 167.883 109.39 168.318 109.39C168.849 109.39 169.317 109.241 169.722 108.944L170.127 109.75C169.983 109.864 169.806 109.963 169.596 110.047C169.389 110.131 169.169 110.195 168.935 110.24C168.704 110.285 168.482 110.308 168.269 110.308ZM166.964 107.383H169.299C169.29 107.08 169.188 106.843 168.993 106.672C168.801 106.498 168.534 106.411 168.192 106.411C167.85 106.411 167.567 106.498 167.342 106.672C167.12 106.843 166.994 107.08 166.964 107.383Z" fill="white"/>
<path d="M173.317 110.308C172.879 110.308 172.491 110.206 172.152 110.002C171.813 109.798 171.547 109.516 171.355 109.156C171.163 108.796 171.067 108.385 171.067 107.923C171.067 107.479 171.163 107.077 171.355 106.717C171.547 106.357 171.813 106.07 172.152 105.857C172.494 105.644 172.888 105.538 173.335 105.538C173.647 105.538 173.928 105.589 174.177 105.691C174.429 105.793 174.651 105.938 174.843 106.127V103.693H175.995V110.173H174.978V109.574C174.807 109.793 174.583 109.97 174.307 110.105C174.031 110.24 173.701 110.308 173.317 110.308ZM173.529 109.3C173.907 109.3 174.22 109.177 174.469 108.931C174.721 108.682 174.847 108.346 174.847 107.923C174.847 107.5 174.723 107.165 174.474 106.919C174.225 106.67 173.91 106.546 173.529 106.546C173.145 106.546 172.828 106.67 172.579 106.919C172.333 107.165 172.21 107.5 172.21 107.923C172.21 108.346 172.335 108.682 172.584 108.931C172.833 109.177 173.148 109.3 173.529 109.3Z" fill="white"/>
<rect x="47.5" y="7.5" width="190" height="29" rx="14.5" fill="#1B1C1C" fill-opacity="0.96" stroke="url(#paint4_linear_641_1104)"/>
<path d="M61.8053 25.4081C61.318 25.4081 60.898 25.3223 60.5455 25.1508C60.1961 24.9792 59.9279 24.748 59.7409 24.457C59.5539 24.166 59.4604 23.8398 59.4604 23.4783C59.4604 23.221 59.5064 22.9898 59.5984 22.7845C59.6903 22.5793 59.8237 22.4017 59.9984 22.2516C60.1731 22.0984 60.3831 21.9744 60.6283 21.8794C60.3831 21.7783 60.1639 21.6099 59.9708 21.374C59.7808 21.1351 59.6857 20.8334 59.6857 20.4689C59.6857 20.1258 59.7777 19.821 59.9616 19.5545C60.1455 19.2881 60.3984 19.0798 60.7203 18.9297C61.0421 18.7765 61.4115 18.7 61.8283 18.7C62.2483 18.7 62.6207 18.7765 62.9456 18.9297C63.2736 19.0828 63.5295 19.2927 63.7134 19.5591C63.8974 19.8256 63.9893 20.1289 63.9893 20.4689C63.9893 20.7139 63.9433 20.9299 63.8514 21.1167C63.7625 21.3005 63.646 21.4567 63.5019 21.5854C63.3579 21.714 63.2061 21.812 63.0468 21.8794C63.3901 22.0234 63.6675 22.2301 63.879 22.4997C64.0905 22.7692 64.1962 23.0954 64.1962 23.4783C64.1962 23.8398 64.0951 24.166 63.8928 24.457C63.6935 24.748 63.4146 24.9792 63.0559 25.1508C62.6973 25.3223 62.2804 25.4081 61.8053 25.4081ZM61.8283 24.4478C62.0429 24.4478 62.2437 24.408 62.4306 24.3283C62.6207 24.2456 62.7739 24.1262 62.8904 23.97C63.0069 23.8137 63.0651 23.6208 63.0651 23.391C63.0651 23.1613 63.0084 22.9683 62.895 22.8121C62.7847 22.6528 62.636 22.5334 62.449 22.4537C62.2621 22.3741 62.0552 22.3343 61.8283 22.3343C61.4758 22.3343 61.1816 22.4246 60.9455 22.6054C60.7095 22.7861 60.5915 23.048 60.5915 23.391C60.5915 23.6208 60.6482 23.8137 60.7616 23.97C60.875 24.1262 61.0252 24.2456 61.2122 24.3283C61.3992 24.408 61.6046 24.4478 61.8283 24.4478ZM61.8375 21.4016C62.049 21.4016 62.236 21.3648 62.3985 21.2913C62.564 21.2147 62.6927 21.1091 62.7847 20.9743C62.8797 20.8395 62.9272 20.6818 62.9272 20.501C62.9272 20.2315 62.8261 20.0079 62.6238 19.8302C62.4214 19.6495 62.1594 19.5591 61.8375 19.5591C61.623 19.5591 61.4329 19.6005 61.2674 19.6832C61.1049 19.7659 60.9777 19.8792 60.8858 20.0232C60.7938 20.1641 60.7478 20.3234 60.7478 20.501C60.7478 20.7736 60.8505 20.9927 61.0559 21.1581C61.2613 21.3204 61.5218 21.4016 61.8375 21.4016Z" fill="white"/>
<path d="M65.9184 25.4081L65.5092 24.5075C65.9444 24.4524 66.3322 24.3574 66.6724 24.2227C67.0127 24.0848 67.3069 23.9163 67.5552 23.7172C67.8066 23.5151 68.0135 23.29 68.1759 23.0418C68.3414 22.7937 68.4671 22.5349 68.5529 22.2654C68.3997 22.4522 68.2081 22.6008 67.9782 22.711C67.7483 22.8213 67.5 22.8764 67.2334 22.8764C66.8288 22.8764 66.464 22.7891 66.1391 22.6145C65.8172 22.4369 65.5628 22.1934 65.3758 21.884C65.1889 21.5716 65.0954 21.2147 65.0954 20.8135C65.0954 20.4153 65.195 20.0569 65.3942 19.7383C65.5965 19.4198 65.877 19.1671 66.2356 18.9802C66.5943 18.7934 67.0065 18.7 67.4724 18.7C67.9506 18.7 68.3736 18.8026 68.7414 19.0078C69.1123 19.213 69.4035 19.5086 69.615 19.8945C69.8296 20.2774 69.9369 20.74 69.9369 21.2821C69.9369 21.8304 69.8342 22.3373 69.6288 22.8029C69.4265 23.2654 69.143 23.6759 68.7782 24.0343C68.4135 24.3927 67.9874 24.6898 67.5 24.9256C67.0127 25.1584 66.4854 25.3192 65.9184 25.4081ZM67.4724 21.9345C67.7085 21.9345 67.9184 21.8855 68.1024 21.7875C68.2893 21.6895 68.438 21.5547 68.5483 21.3832C68.6587 21.2117 68.7139 21.0202 68.7139 20.8089C68.7139 20.5883 68.6602 20.3954 68.5529 20.23C68.4457 20.0615 68.2985 19.9298 68.1115 19.8348C67.9276 19.7368 67.7146 19.6878 67.4724 19.6878C67.2334 19.6878 67.0188 19.7368 66.8288 19.8348C66.6418 19.9298 66.4946 20.0615 66.3874 20.23C66.2831 20.3954 66.231 20.5883 66.231 20.8089C66.231 21.0202 66.2847 21.2117 66.392 21.3832C66.5023 21.5547 66.651 21.6895 66.8379 21.7875C67.028 21.8855 67.2395 21.9345 67.4724 21.9345Z" fill="white"/>
<path d="M71.6206 25.4081C71.406 25.4081 71.2205 25.3407 71.0642 25.2059C70.9079 25.0681 70.8297 24.8858 70.8297 24.6591C70.8297 24.506 70.865 24.3727 70.9355 24.2594C71.009 24.1461 71.1056 24.0588 71.2251 23.9975C71.3447 23.9363 71.4765 23.9056 71.6206 23.9056C71.8382 23.9056 72.0236 23.9745 72.1769 24.1124C72.3332 24.2472 72.4114 24.4294 72.4114 24.6591C72.4114 24.8092 72.3746 24.9409 72.301 25.0543C72.2305 25.1676 72.1355 25.2549 72.016 25.3162C71.8964 25.3774 71.7646 25.4081 71.6206 25.4081Z" fill="white"/>
<path d="M74.0302 25.2702V20.1105L72.4348 20.6894L72.1221 19.7613L75.051 18.7H75.1337V25.2702H74.0302Z" fill="white"/>
<path d="M79.4316 25.2702V23.9883H76.2775V23.1108L78.4937 18.8378H79.6937L77.5189 23.0097H79.4316V21.6405H80.4431V23.0097H81.3995V23.9883H80.4431V25.2702H79.4316Z" fill="white"/>
<path d="M82.9265 25.4081C82.712 25.4081 82.5265 25.3407 82.3702 25.2059C82.2139 25.0681 82.1357 24.8858 82.1357 24.6591C82.1357 24.506 82.171 24.3727 82.2415 24.2594C82.315 24.1461 82.4116 24.0588 82.5311 23.9975C82.6507 23.9363 82.7825 23.9056 82.9265 23.9056C83.1442 23.9056 83.3296 23.9745 83.4829 24.1124C83.6392 24.2472 83.7174 24.4294 83.7174 24.6591C83.7174 24.8092 83.6806 24.9409 83.607 25.0543C83.5365 25.1676 83.4415 25.2549 83.3219 25.3162C83.2024 25.3774 83.0706 25.4081 82.9265 25.4081Z" fill="white"/>
<path d="M85.3362 25.2702V20.1105L83.7408 20.6894L83.4281 19.7613L86.3569 18.7H86.4397V25.2702H85.3362Z" fill="white"/>
<path d="M87.9513 25.2702V24.4478L89.3353 23.1889C89.7705 22.7907 90.1184 22.4537 90.379 22.1781C90.6395 21.8993 90.8265 21.6497 90.9399 21.4291C91.0533 21.2055 91.11 20.9819 91.11 20.7583C91.11 20.4275 90.9981 20.1718 90.7744 19.991C90.5537 19.8072 90.241 19.7154 89.8364 19.7154C89.5544 19.7154 89.2831 19.7659 89.0226 19.867C88.7651 19.9681 88.5398 20.1181 88.3467 20.3172L87.9237 19.4489C88.1965 19.2069 88.5092 19.0216 88.8617 18.8929C89.2142 18.7643 89.5805 18.7 89.9606 18.7C90.4173 18.7 90.8142 18.7796 91.1514 18.9389C91.4916 19.0981 91.7552 19.3233 91.9422 19.6143C92.1292 19.9022 92.2227 20.2407 92.2227 20.6297C92.2227 20.8931 92.1706 21.155 92.0664 21.4154C91.9622 21.6757 91.7752 21.9682 91.5054 22.2929C91.2388 22.6176 90.8602 23.0097 90.3698 23.4691L89.5008 24.2732H92.3882V25.2702H87.9513Z" fill="white"/>
<path d="M94.1517 25.4081C93.9371 25.4081 93.7517 25.3407 93.5954 25.2059C93.439 25.0681 93.3609 24.8858 93.3609 24.6591C93.3609 24.506 93.3961 24.3727 93.4666 24.2594C93.5402 24.1461 93.6367 24.0588 93.7563 23.9975C93.8758 23.9363 94.0076 23.9056 94.1517 23.9056C94.3693 23.9056 94.5548 23.9745 94.708 24.1124C94.8644 24.2472 94.9425 24.4294 94.9425 24.6591C94.9425 24.8092 94.9057 24.9409 94.8322 25.0543C94.7617 25.1676 94.6666 25.2549 94.5471 25.3162C94.4276 25.3774 94.2958 25.4081 94.1517 25.4081Z" fill="white"/>
<path d="M96.5614 25.2702V20.1105L94.9659 20.6894L94.6533 19.7613L97.5821 18.7H97.6649V25.2702H96.5614Z" fill="white"/>
<path d="M99.1765 25.2702V24.4478L100.56 23.1889C100.996 22.7907 101.344 22.4537 101.604 22.1781C101.865 21.8993 102.052 21.6497 102.165 21.4291C102.278 21.2055 102.335 20.9819 102.335 20.7583C102.335 20.4275 102.223 20.1718 102 19.991C101.779 19.8072 101.466 19.7154 101.062 19.7154C100.78 19.7154 100.508 19.7659 100.248 19.867C99.9903 19.9681 99.765 20.1181 99.5719 20.3172L99.1489 19.4489C99.4217 19.2069 99.7343 19.0216 100.087 18.8929C100.439 18.7643 100.806 18.7 101.186 18.7C101.642 18.7 102.039 18.7796 102.377 18.9389C102.717 19.0981 102.98 19.3233 103.167 19.6143C103.354 19.9022 103.448 20.2407 103.448 20.6297C103.448 20.8931 103.396 21.155 103.292 21.4154C103.187 21.6757 103 21.9682 102.731 22.2929C102.464 22.6176 102.085 23.0097 101.595 23.4691L100.726 24.2732H103.613V25.2702H99.1765Z" fill="white"/>
<path d="M106.536 25.4081C106.263 25.4081 105.994 25.379 105.731 25.3208C105.467 25.2626 105.225 25.1845 105.004 25.0864C104.787 24.9854 104.611 24.8705 104.476 24.7418L104.857 23.777C105.044 23.9608 105.285 24.1078 105.579 24.2181C105.873 24.3283 106.168 24.3835 106.462 24.3835C106.732 24.3835 106.966 24.3391 107.165 24.2502C107.365 24.1583 107.518 24.0312 107.625 23.8689C107.736 23.7065 107.791 23.5166 107.791 23.2991C107.791 22.9591 107.667 22.6957 107.418 22.5089C107.173 22.322 106.848 22.2286 106.444 22.2286C106.327 22.2286 106.204 22.2363 106.076 22.2516C105.947 22.2669 105.817 22.2914 105.685 22.3251L105.349 21.5578L107.253 19.8256H104.535V18.8378H108.641V19.7475L106.844 21.4889C107.205 21.4919 107.544 21.5639 107.86 21.7048C108.178 21.8427 108.436 22.0509 108.632 22.3297C108.828 22.6084 108.926 22.9561 108.926 23.3727C108.926 23.7739 108.824 24.1277 108.618 24.434C108.416 24.7372 108.136 24.9762 107.777 25.1508C107.418 25.3223 107.004 25.4081 106.536 25.4081Z" fill="white"/>
<circle cx="223" cy="22" r="11" fill="#E5FF5D"/>
<path d="M225.049 23.3584H224.645L224.502 23.2206C225.003 22.6386 225.304 21.883 225.304 21.0611C225.304 19.2284 223.818 17.7428 221.983 17.7428C220.149 17.7428 218.663 19.2284 218.663 21.0611C218.663 22.8938 220.149 24.3794 221.983 24.3794C222.806 24.3794 223.562 24.0782 224.144 23.5779L224.282 23.7209V24.1242L226.837 26.6716L227.598 25.911L225.049 23.3584ZM221.983 23.3584C220.711 23.3584 219.685 22.3323 219.685 21.0611C219.685 19.7899 220.711 18.7638 221.983 18.7638C223.256 18.7638 224.282 19.7899 224.282 21.0611C224.282 22.3323 223.256 23.3584 221.983 23.3584Z" fill="#090909"/>
</g>
<defs>
<filter id="filter0_f_641_1104" x="-167.082" y="-27.6847" width="616.929" height="468.117" filterUnits="userSpaceOnUse" color-interpolation-filters="sRGB">
<feFlood flood-opacity="0" result="BackgroundImageFix"/>
<feBlend mode="normal" in="SourceGraphic" in2="BackgroundImageFix" result="shape"/>
<feGaussianBlur stdDeviation="64" result="effect1_foregroundBlur_641_1104"/>
</filter>
<radialGradient id="paint0_radial_641_1104" cx="0" cy="0" r="1" gradientUnits="userSpaceOnUse" gradientTransform="translate(138.701 199.099) rotate(90) scale(142.432 142.533)">
<stop stop-color="#FFF0F0"/>
<stop offset="1" stop-color="#3B3B3B"/>
</radialGradient>
<radialGradient id="paint1_radial_641_1104" cx="0" cy="0" r="1" gradientUnits="userSpaceOnUse" gradientTransform="translate(200.772 199.099) rotate(90) scale(85.7658 85.8261)">
<stop stop-color="#FFF0F0"/>
<stop offset="1" stop-color="#3B3B3B"/>
</radialGradient>
<radialGradient id="paint2_radial_641_1104" cx="0" cy="0" r="1" gradientUnits="userSpaceOnUse" gradientTransform="translate(200.772 199.099) rotate(90) scale(196.036 196.174)">
<stop stop-color="#FFF0F0"/>
<stop offset="1" stop-color="#3B3B3B"/>
</radialGradient>
<linearGradient id="paint3_linear_641_1104" x1="-0.20389" y1="244.206" x2="299.394" y2="134.616" gradientUnits="userSpaceOnUse">
<stop stop-color="#5DA8FF" stop-opacity="0.3"/>
<stop offset="1" stop-color="#899938"/>
</linearGradient>
<linearGradient id="paint4_linear_641_1104" x1="238" y1="32.3846" x2="67.3544" y2="-40.5944" gradientUnits="userSpaceOnUse">
<stop stop-color="#E5FF5D"/>
<stop offset="1" stop-color="#5DFFFF"/>
</linearGradient>
<clipPath id="clip0_641_1104">
<rect width="282" height="170" fill="white"/>
</clipPath>
</defs>
</svg>
