<svg width="282" height="170" viewBox="0 0 282 170" fill="none" xmlns="http://www.w3.org/2000/svg">
<g clip-path="url(#clip0_641_1184)">
<g filter="url(#filter0_d_641_1184)">
<rect x="102.685" y="52.8379" width="75.0978" height="75.045" fill="url(#paint0_linear_641_1184)" fill-opacity="0.1" shape-rendering="crispEdges"/>
<rect x="103.185" y="53.3379" width="74.0978" height="74.045" stroke="white" stroke-opacity="0.1" shape-rendering="crispEdges"/>
</g>
<rect x="75.864" y="120.991" width="4" height="4" fill="#E5FF5D"/>
<rect x="83.864" y="120.991" width="4" height="4" fill="white" fill-opacity="0.1"/>
<rect x="75.864" y="128.991" width="4" height="4" fill="#E5FF5D"/>
<rect x="83.864" y="128.991" width="4" height="4" fill="#E5FF5D"/>
<rect x="75.864" y="136.991" width="4" height="4" fill="white" fill-opacity="0.1"/>
<rect x="83.864" y="136.991" width="4" height="4" fill="white" fill-opacity="0.1"/>
<rect x="75.864" y="144.991" width="4" height="4" fill="#E5FF5D"/>
<rect x="83.864" y="144.991" width="4" height="4" fill="#E5FF5D"/>
<rect x="75.864" y="152.991" width="4" height="4" fill="white" fill-opacity="0.1"/>
<g opacity="0.2">
<path d="M146.364 89.2117C146.364 92.3837 143.619 94.955 140.234 94.955C136.848 94.955 134.103 92.3837 134.103 89.2117C134.103 86.0398 136.848 83.4685 140.234 83.4685C143.619 83.4685 146.364 86.0398 146.364 89.2117Z" fill="black"/>
<path d="M138.027 92.428C138.027 91.2861 139.015 90.3604 140.234 90.3604C141.453 90.3604 142.441 91.2861 142.441 92.428V97.482C142.441 98.6239 141.453 99.5496 140.234 99.5496C139.015 99.5496 138.027 98.6239 138.027 97.482V92.428Z" fill="black"/>
</g>
<rect x="128.473" y="40.3198" width="23.5217" height="23.5045" rx="11.7523" fill="#E5FF5D" stroke="#E5FF5D"/>
<g opacity="0.5">
<path d="M117.75 16.9847C117.284 16.9847 116.88 16.899 116.536 16.7274C116.196 16.5559 115.933 16.3246 115.746 16.0336C115.562 15.7426 115.47 15.4164 115.47 15.055C115.47 14.666 115.574 14.3398 115.782 14.0763C115.994 13.8129 116.288 13.6077 116.665 13.4607C116.408 13.3596 116.181 13.1881 115.985 12.9461C115.789 12.7041 115.69 12.3993 115.69 12.0317C115.69 11.6948 115.779 11.3946 115.957 11.1312C116.135 10.8647 116.38 10.6564 116.693 10.5063C117.005 10.3532 117.362 10.2766 117.764 10.2766C118.172 10.2766 118.532 10.3532 118.845 10.5063C119.16 10.6595 119.407 10.8693 119.585 11.1358C119.766 11.3992 119.856 11.6979 119.856 12.0317C119.856 12.3993 119.758 12.7041 119.562 12.9461C119.366 13.1881 119.137 13.3596 118.877 13.4607C119.232 13.6077 119.517 13.8144 119.732 14.0809C119.946 14.3444 120.054 14.669 120.054 15.055C120.054 15.4164 119.959 15.7426 119.769 16.0336C119.579 16.3246 119.31 16.5559 118.964 16.7274C118.621 16.899 118.216 16.9847 117.75 16.9847ZM117.773 13.0931C118.144 13.0931 118.449 13.0012 118.688 12.8174C118.927 12.6306 119.047 12.3794 119.047 12.0639C119.047 11.7515 118.929 11.4896 118.693 11.2782C118.46 11.0669 118.153 10.9612 117.773 10.9612C117.393 10.9612 117.085 11.0669 116.849 11.2782C116.613 11.4896 116.495 11.7515 116.495 12.0639C116.495 12.3794 116.615 12.6306 116.854 12.8174C117.093 13.0012 117.399 13.0931 117.773 13.0931ZM117.764 16.245C118.018 16.245 118.254 16.2006 118.472 16.1117C118.693 16.0199 118.869 15.8835 119.001 15.7028C119.136 15.5221 119.203 15.2985 119.203 15.032C119.203 14.6369 119.064 14.3352 118.785 14.1269C118.506 13.9186 118.166 13.8144 117.764 13.8144C117.347 13.8144 117.002 13.9201 116.73 14.1315C116.457 14.3398 116.32 14.6399 116.32 15.032C116.32 15.2985 116.386 15.5221 116.518 15.7028C116.65 15.8835 116.825 16.0199 117.042 16.1117C117.263 16.2006 117.503 16.245 117.764 16.245Z" fill="white"/>
<path d="M121.827 16.9847L121.523 16.3047C122.179 16.2343 122.732 16.0658 123.183 15.7993C123.637 15.5328 123.994 15.2066 124.254 14.8207C124.518 14.4317 124.694 14.0212 124.783 13.5893C124.611 13.8435 124.386 14.0472 124.107 14.2004C123.831 14.3505 123.526 14.4255 123.192 14.4255C122.791 14.4255 122.427 14.3382 122.102 14.1636C121.777 13.989 121.52 13.7471 121.33 13.4377C121.143 13.1283 121.049 12.773 121.049 12.3717C121.049 11.9766 121.148 11.6213 121.344 11.3058C121.543 10.9903 121.817 10.7407 122.167 10.5569C122.516 10.37 122.916 10.2766 123.367 10.2766C123.833 10.2766 124.246 10.3777 124.608 10.5799C124.973 10.782 125.258 11.0761 125.463 11.462C125.672 11.8449 125.776 12.312 125.776 12.8634C125.776 13.4117 125.676 13.9186 125.477 14.3842C125.281 14.8467 125.005 15.2587 124.65 15.6201C124.294 15.9785 123.876 16.2741 123.394 16.5069C122.916 16.7397 122.394 16.899 121.827 16.9847ZM123.367 13.695C123.643 13.695 123.891 13.6368 124.112 13.5204C124.335 13.404 124.512 13.2447 124.64 13.0426C124.769 12.8404 124.833 12.6122 124.833 12.358C124.833 11.972 124.696 11.655 124.42 11.4069C124.147 11.1557 123.796 11.0301 123.367 11.0301C122.941 11.0301 122.59 11.1557 122.314 11.4069C122.038 11.655 121.9 11.972 121.9 12.358C121.9 12.6122 121.964 12.8404 122.093 13.0426C122.225 13.2447 122.401 13.404 122.622 13.5204C122.843 13.6368 123.091 13.695 123.367 13.695Z" fill="white"/>
<path d="M127.47 16.9847C127.289 16.9847 127.136 16.9281 127.01 16.8147C126.884 16.7014 126.821 16.5528 126.821 16.369C126.821 16.1853 126.884 16.0367 127.01 15.9234C127.136 15.81 127.289 15.7534 127.47 15.7534C127.648 15.7534 127.799 15.81 127.925 15.9234C128.054 16.0367 128.118 16.1853 128.118 16.369C128.118 16.5528 128.054 16.7014 127.925 16.8147C127.799 16.9281 127.648 16.9847 127.47 16.9847Z" fill="white"/>
<path d="M129.896 16.8469V11.3058L128.163 11.949L127.937 11.2828L130.641 10.2766H130.705V16.8469H129.896Z" fill="white"/>
<path d="M135.182 16.8469V15.4869H131.931V14.8207L134.327 10.4144H135.228L132.851 14.7517H135.182V13.2677H135.945V14.7517H136.98V15.4869H135.945V16.8469H135.182Z" fill="white"/>
<path d="M138.488 16.9847C138.308 16.9847 138.154 16.9281 138.029 16.8147C137.903 16.7014 137.84 16.5528 137.84 16.369C137.84 16.1853 137.903 16.0367 138.029 15.9234C138.154 15.81 138.308 15.7534 138.488 15.7534C138.666 15.7534 138.818 15.81 138.944 15.9234C139.072 16.0367 139.137 16.1853 139.137 16.369C139.137 16.5528 139.072 16.7014 138.944 16.8147C138.818 16.9281 138.666 16.9847 138.488 16.9847Z" fill="white"/>
<path d="M140.915 16.8469V11.3058L139.181 11.949L138.956 11.2828L141.66 10.2766H141.724V16.8469H140.915Z" fill="white"/>
<path d="M143.354 16.8469V16.199L144.757 14.908C145.204 14.4975 145.567 14.1407 145.846 13.8374C146.125 13.5311 146.331 13.2524 146.462 13.0012C146.594 12.747 146.66 12.4912 146.66 12.2339C146.66 11.8602 146.53 11.5662 146.269 11.3517C146.012 11.1373 145.655 11.0301 145.198 11.0301C144.913 11.0301 144.639 11.0776 144.375 11.1726C144.114 11.2675 143.895 11.4053 143.718 11.5861L143.391 10.952C143.903 10.5017 144.539 10.2766 145.299 10.2766C145.731 10.2766 146.11 10.3547 146.435 10.5109C146.763 10.6641 147.019 10.8831 147.203 11.168C147.387 11.4498 147.479 11.7821 147.479 12.165C147.479 12.4315 147.425 12.6995 147.318 12.969C147.21 13.2386 147.019 13.5418 146.743 13.8788C146.47 14.2126 146.082 14.6139 145.58 15.0826L144.476 16.098H147.639V16.8469H143.354Z" fill="white"/>
<path d="M149.399 16.9847C149.218 16.9847 149.065 16.9281 148.939 16.8147C148.814 16.7014 148.751 16.5528 148.751 16.369C148.751 16.1853 148.814 16.0367 148.939 15.9234C149.065 15.81 149.218 15.7534 149.399 15.7534C149.577 15.7534 149.729 15.81 149.854 15.9234C149.983 16.0367 150.048 16.1853 150.048 16.369C150.048 16.5528 149.983 16.7014 149.854 16.8147C149.729 16.9281 149.577 16.9847 149.399 16.9847Z" fill="white"/>
<path d="M151.826 16.8469V11.3058L150.092 11.949L149.867 11.2828L152.57 10.2766H152.635V16.8469H151.826Z" fill="white"/>
<path d="M154.265 16.8469V16.199L155.668 14.908C156.115 14.4975 156.478 14.1407 156.757 13.8374C157.036 13.5311 157.242 13.2524 157.373 13.0012C157.505 12.747 157.571 12.4912 157.571 12.2339C157.571 11.8602 157.441 11.5662 157.18 11.3517C156.923 11.1373 156.566 11.0301 156.109 11.0301C155.824 11.0301 155.549 11.0776 155.286 11.1726C155.025 11.2675 154.806 11.4053 154.628 11.5861L154.302 10.952C154.814 10.5017 155.45 10.2766 156.21 10.2766C156.642 10.2766 157.021 10.3547 157.346 10.5109C157.674 10.6641 157.93 10.8831 158.114 11.168C158.297 11.4498 158.389 11.7821 158.389 12.165C158.389 12.4315 158.336 12.6995 158.229 12.969C158.121 13.2386 157.93 13.5418 157.654 13.8788C157.381 14.2126 156.993 14.6139 156.491 15.0826L155.387 16.098H158.55V16.8469H154.265Z" fill="white"/>
<path d="M161.515 16.9847C161.122 16.9847 160.742 16.9281 160.374 16.8147C160.01 16.6983 159.722 16.5482 159.51 16.3644L159.814 15.6385C160.016 15.8162 160.267 15.9571 160.568 16.0612C160.868 16.1623 161.167 16.2128 161.464 16.2128C161.93 16.2128 162.301 16.0964 162.577 15.8636C162.856 15.6308 162.995 15.3169 162.995 14.9217C162.995 14.5266 162.85 14.2188 162.558 13.9982C162.27 13.7746 161.886 13.6628 161.404 13.6628C161.156 13.6628 160.9 13.6919 160.637 13.7501L160.374 13.1712L162.499 11.1542H159.551V10.4144H163.561V11.099L161.515 13.0747C161.925 13.0625 162.309 13.1237 162.664 13.2585C163.02 13.3902 163.306 13.5985 163.524 13.8834C163.742 14.1652 163.85 14.5235 163.85 14.9585C163.85 15.3628 163.749 15.7181 163.547 16.0244C163.348 16.3277 163.072 16.5635 162.719 16.732C162.37 16.9005 161.968 16.9847 161.515 16.9847Z" fill="white"/>
</g>
<path d="M147.13 42.5001V29.8698C147.13 26.0608 144.043 22.973 140.234 22.973V22.973C136.425 22.973 133.337 26.0608 133.337 29.8698V42.5001" stroke="#E5FF5D"/>
<rect x="136.902" y="48.7433" width="6.66304" height="6.65766" rx="3.32883" fill="black" stroke="#E5FF5D"/>
<path d="M19.5254 66.6217C19.5254 68.0945 18.3315 69.2884 16.8587 69.2884C15.386 69.2884 14.1921 68.0945 14.1921 66.6217C14.1921 65.1489 15.386 63.955 16.8587 63.955C18.3315 63.955 19.5254 65.1489 19.5254 66.6217ZM28.9338 79.0905L29.293 78.7427L28.9338 79.0905ZM102.685 89.3289H51.9212V88.3289H102.685V89.3289ZM28.5746 79.4383L16.4995 66.9695L17.2179 66.2739L29.293 78.7427L28.5746 79.4383ZM51.9212 89.3289C43.1209 89.3289 34.6968 85.7601 28.5746 79.4383L29.293 78.7427C35.2268 84.8699 43.3917 88.3289 51.9212 88.3289V89.3289Z" fill="white" fill-opacity="0.07"/>
<path d="M48.645 98.0181C48.645 99.4908 47.451 100.685 45.9783 100.685C44.5055 100.685 43.3116 99.4908 43.3116 98.0181C43.3116 96.5453 44.5055 95.3514 45.9783 95.3514C47.451 95.3514 48.645 96.5453 48.645 98.0181ZM102.685 98.5181H45.9783V97.5181H102.685V98.5181Z" fill="#E5FF5D"/>
<path d="M19.5254 126.351C19.5254 127.824 18.3315 129.018 16.8587 129.018C15.386 129.018 14.1921 127.824 14.1921 126.351C14.1921 124.879 15.386 123.685 16.8587 123.685C18.3315 123.685 19.5254 124.879 19.5254 126.351ZM24.2589 118.922L24.6132 119.275L24.2589 118.922ZM102.685 110.005H46.931V109.005H102.685V110.005ZM24.6132 119.275L17.213 126.704L16.5045 125.999L23.9047 118.569L24.6132 119.275ZM46.931 110.005C38.5551 110.005 30.5241 113.34 24.6132 119.275L23.9047 118.569C30.0033 112.446 38.2892 109.005 46.931 109.005V110.005Z" fill="white" fill-opacity="0.07"/>
<path d="M38.683 54.3694C38.683 55.8421 37.4891 57.0361 36.0163 57.0361C34.5436 57.0361 33.3497 55.8421 33.3497 54.3694C33.3497 52.8966 34.5436 51.7027 36.0163 51.7027C37.4891 51.7027 38.683 52.8966 38.683 54.3694ZM43.0917 61.304L43.4417 60.9469L43.0917 61.304ZM36.3663 54.0123L43.4417 60.9469L42.7417 61.6611L35.6664 54.7265L36.3663 54.0123ZM65.4907 69.9505H102.685V70.9505H65.4907V69.9505ZM43.4417 60.9469C49.3299 66.718 57.246 69.9505 65.4907 69.9505V70.9505C56.9842 70.9505 48.8168 67.6154 42.7417 61.6611L43.4417 60.9469Z" fill="white" fill-opacity="0.07"/>
<path d="M38.683 65.0901C38.683 66.5628 37.4891 67.7568 36.0163 67.7568C34.5436 67.7568 33.3497 66.5628 33.3497 65.0901C33.3497 63.6173 34.5436 62.4234 36.0163 62.4234C37.4891 62.4234 38.683 63.6173 38.683 65.0901ZM102.685 80.1396H63.6179V79.1396H102.685V80.1396ZM40.1603 70.1339L35.6554 65.4362L36.3772 64.744L40.8821 69.4418L40.1603 70.1339ZM63.6179 80.1396C54.762 80.1396 46.2897 76.5258 40.1603 70.1339L40.8821 69.4418C46.8229 75.637 55.0345 79.1396 63.6179 79.1396V80.1396Z" fill="white" fill-opacity="0.07"/>
<path d="M252.513 69.6847C252.513 71.1575 253.706 72.3514 255.179 72.3514C256.652 72.3514 257.846 71.1575 257.846 69.6847C257.846 68.2119 256.652 67.018 255.179 67.018C253.706 67.018 252.513 68.2119 252.513 69.6847ZM177.782 89.3288H222.652V88.3288H177.782V89.3288ZM245.483 79.9582L255.53 70.0405L254.828 69.3289L244.781 79.2465L245.483 79.9582ZM222.652 89.3288C231.198 89.3288 239.401 85.9623 245.483 79.9582L244.781 79.2465C238.886 85.0659 230.935 88.3288 222.652 88.3288V89.3288Z" fill="white" fill-opacity="0.07"/>
<path d="M226.458 97.2523C226.458 98.7251 227.652 99.919 229.125 99.919C230.598 99.919 231.792 98.7251 231.792 97.2523C231.792 95.7796 230.598 94.5857 229.125 94.5857C227.652 94.5857 226.458 95.7796 226.458 97.2523ZM177.782 97.7523H229.125V96.7523H177.782V97.7523Z" fill="white" fill-opacity="0.07"/>
<path d="M252.513 120.991C252.513 122.464 253.706 123.658 255.179 123.658C256.652 123.658 257.846 122.464 257.846 120.991C257.846 119.518 256.652 118.324 255.179 118.324C253.706 118.324 252.513 119.518 252.513 120.991ZM249.442 115.185L249.087 115.536L249.442 115.185ZM177.782 106.176H226.679V105.176H177.782V106.176ZM249.087 115.536L254.824 121.342L255.535 120.64L249.798 114.833L249.087 115.536ZM226.679 106.176C235.099 106.176 243.169 109.547 249.087 115.536L249.798 114.833C243.692 108.654 235.366 105.176 226.679 105.176V106.176Z" fill="white" fill-opacity="0.07"/>
<path d="M234.888 57.4325C234.888 58.9053 236.081 60.0992 237.554 60.0992C239.027 60.0992 240.221 58.9053 240.221 57.4325C240.221 55.9597 239.027 54.7658 237.554 54.7658C236.081 54.7658 234.888 55.9597 234.888 57.4325ZM237.203 57.077L231.843 62.3778L232.547 63.0888L237.906 57.788L237.203 57.077ZM209.692 71.482H177.782V72.482H209.692V71.482ZM231.843 62.3778C225.946 68.2106 217.986 71.482 209.692 71.482V72.482C218.25 72.482 226.462 69.1067 232.547 63.0888L231.843 62.3778Z" fill="#E5FF5D"/>
<path d="M234.888 67.3875C234.888 68.8602 236.081 70.0541 237.554 70.0541C239.027 70.0541 240.221 68.8602 240.221 67.3875C240.221 65.9147 239.027 64.7208 237.554 64.7208C236.081 64.7208 234.888 65.9147 234.888 67.3875ZM177.782 80.9055H211.415V79.9055H177.782V80.9055ZM234.85 70.9235L237.915 67.7339L237.194 67.041L234.129 70.2306L234.85 70.9235ZM211.415 80.9055C220.26 80.9055 228.722 77.3009 234.85 70.9235L234.129 70.2306C228.189 76.4118 219.987 79.9055 211.415 79.9055V80.9055Z" fill="white" fill-opacity="0.07"/>
<path d="M100.386 154.685L112.447 147.613C118.856 143.856 129.363 144.559 136.37 147.027V147.027C141.486 148.829 144.472 147.622 149.432 145.426C153.883 143.456 159.217 141.124 162.409 139.833C168.648 137.309 180.848 134.009 180.848 134.009" stroke="url(#paint1_linear_641_1184)"/>
<path d="M100.386 143.239L119.384 145.921C121.358 146.2 122.938 146.929 124.911 146.646V146.646C135.824 145.075 147.543 142.881 157.211 148.18C159.517 149.444 161.645 150.057 163.22 149.445C169.513 147 182.38 150.856 182.38 150.856" stroke="url(#paint2_linear_641_1184)"/>
</g>
<defs>
<filter id="filter0_d_641_1184" x="38.6848" y="-7.16211" width="203.098" height="203.045" filterUnits="userSpaceOnUse" color-interpolation-filters="sRGB">
<feFlood flood-opacity="0" result="BackgroundImageFix"/>
<feColorMatrix in="SourceAlpha" type="matrix" values="0 0 0 0 0 0 0 0 0 0 0 0 0 0 0 0 0 0 127 0" result="hardAlpha"/>
<feOffset dy="4"/>
<feGaussianBlur stdDeviation="32"/>
<feComposite in2="hardAlpha" operator="out"/>
<feColorMatrix type="matrix" values="0 0 0 0 0.898039 0 0 0 0 1 0 0 0 0 0.364706 0 0 0 0.3 0"/>
<feBlend mode="normal" in2="BackgroundImageFix" result="effect1_dropShadow_641_1184"/>
<feBlend mode="normal" in="SourceGraphic" in2="effect1_dropShadow_641_1184" result="shape"/>
</filter>
<linearGradient id="paint0_linear_641_1184" x1="140.234" y1="52.8379" x2="140.234" y2="127.883" gradientUnits="userSpaceOnUse">
<stop stop-color="white"/>
<stop offset="1" stop-color="#737373"/>
</linearGradient>
<linearGradient id="paint1_linear_641_1184" x1="100.386" y1="144.347" x2="180.848" y2="144.347" gradientUnits="userSpaceOnUse">
<stop stop-color="#E5FF5D" stop-opacity="0"/>
<stop offset="0.545" stop-color="#E5FF5D"/>
<stop offset="1" stop-color="#E5FF5D" stop-opacity="0"/>
</linearGradient>
<linearGradient id="paint2_linear_641_1184" x1="100.386" y1="142.815" x2="182.38" y2="142.815" gradientUnits="userSpaceOnUse">
<stop stop-color="#5DFFFF" stop-opacity="0"/>
<stop offset="0.46" stop-color="#5DFFFF"/>
<stop offset="1" stop-color="#5DFFFF" stop-opacity="0"/>
</linearGradient>
<clipPath id="clip0_641_1184">
<rect width="282" height="170" fill="white"/>
</clipPath>
</defs>
</svg>
