<svg width="368" height="222" viewBox="0 0 368 222" fill="none" xmlns="http://www.w3.org/2000/svg">
<g clip-path="url(#clip0_2_899)">
<circle cx="181" cy="260" r="185.5" stroke="url(#paint0_radial_2_899)" stroke-opacity="0.1"/>
<circle cx="262" cy="260" r="111.5" stroke="url(#paint1_radial_2_899)" stroke-opacity="0.1"/>
<circle cx="262" cy="260" r="255.5" stroke="url(#paint2_radial_2_899)" stroke-opacity="0.1"/>
<g opacity="0.5" filter="url(#filter0_f_2_899)">
<ellipse cx="184.5" cy="269.5" rx="235.5" ry="138.5" fill="url(#paint3_linear_2_899)"/>
</g>
<rect x="70" y="57" width="231" height="139" rx="16" fill="white" fill-opacity="0.07"/>
<rect x="70.5" y="57.5" width="230" height="138" rx="15.5" stroke="white" stroke-opacity="0.1"/>
<path d="M92.5034 78.5033H91.9767L91.79 78.3233C92.4434 77.5633 92.8367 76.5766 92.8367 75.5033C92.8367 73.11 90.8967 71.17 88.5034 71.17C86.11 71.17 84.17 73.11 84.17 75.5033C84.17 77.8966 86.11 79.8366 88.5034 79.8366C89.5767 79.8366 90.5634 79.4433 91.3234 78.79L91.5034 78.9766V79.5033L94.8367 82.83L95.83 81.8366L92.5034 78.5033ZM88.5034 78.5033C86.8434 78.5033 85.5034 77.1633 85.5034 75.5033C85.5034 73.8433 86.8434 72.5033 88.5034 72.5033C90.1634 72.5033 91.5034 73.8433 91.5034 75.5033C91.5034 77.1633 90.1634 78.5033 88.5034 78.5033Z" fill="#E5FF5D"/>
<path d="M106.819 80V73.7H107.827V80H106.819ZM109.473 80V73.7H111.755C112.202 73.7 112.596 73.778 112.938 73.934C113.283 74.087 113.553 74.309 113.748 74.6C113.943 74.888 114.041 75.2345 114.041 75.6395C114.041 76.2635 113.84 76.742 113.438 77.075C113.039 77.405 112.47 77.57 111.732 77.57H110.481V80H109.473ZM110.481 76.706H111.746C112.151 76.706 112.466 76.6205 112.691 76.4495C112.919 76.2785 113.033 76.016 113.033 75.662C113.033 75.314 112.917 75.047 112.686 74.861C112.455 74.675 112.145 74.582 111.755 74.582H110.481V76.706ZM117.253 80V73.52H118.243V80H117.253ZM121.647 80.135C121.182 80.135 120.766 80.0285 120.4 79.8155C120.037 79.5995 119.752 79.313 119.545 78.956C119.338 78.596 119.235 78.2015 119.235 77.7725C119.235 77.3495 119.338 76.9595 119.545 76.6025C119.752 76.2425 120.037 75.9545 120.4 75.7385C120.766 75.5195 121.182 75.41 121.647 75.41C122.115 75.41 122.53 75.518 122.893 75.734C123.259 75.947 123.546 76.2335 123.753 76.5935C123.96 76.9505 124.063 77.3435 124.063 77.7725C124.063 78.1955 123.96 78.587 123.753 78.947C123.546 79.304 123.261 79.592 122.898 79.811C122.535 80.027 122.118 80.135 121.647 80.135ZM121.647 79.2575C122.061 79.2575 122.401 79.124 122.668 78.857C122.938 78.59 123.073 78.2285 123.073 77.7725C123.073 77.3165 122.938 76.955 122.668 76.688C122.401 76.421 122.061 76.2875 121.647 76.2875C121.233 76.2875 120.892 76.421 120.625 76.688C120.358 76.955 120.225 77.3165 120.225 77.7725C120.225 78.2285 120.358 78.59 120.625 78.857C120.895 79.124 121.236 79.2575 121.647 79.2575ZM127.145 80.135C126.677 80.135 126.26 80.033 125.894 79.829C125.528 79.622 125.24 79.3415 125.03 78.9875C124.823 78.6305 124.719 78.2255 124.719 77.7725C124.719 77.3165 124.827 76.9115 125.043 76.5575C125.259 76.2005 125.555 75.92 125.93 75.716C126.305 75.512 126.732 75.41 127.212 75.41C127.809 75.41 128.324 75.572 128.756 75.896L128.279 76.652C128.141 76.529 127.982 76.4375 127.802 76.3775C127.622 76.3175 127.433 76.2875 127.235 76.2875C126.767 76.2875 126.396 76.418 126.123 76.679C125.853 76.937 125.718 77.3 125.718 77.768C125.718 78.233 125.853 78.5975 126.123 78.8615C126.396 79.1255 126.767 79.2575 127.235 79.2575C127.457 79.2575 127.665 79.217 127.86 79.136C128.058 79.055 128.225 78.9455 128.36 78.8075L128.832 79.559C128.592 79.739 128.327 79.88 128.036 79.982C127.748 80.084 127.451 80.135 127.145 80.135ZM130.98 80.135C130.515 80.135 130.138 80.0075 129.85 79.7525C129.565 79.4975 129.423 79.154 129.423 78.722C129.423 78.407 129.526 78.134 129.733 77.903C129.94 77.672 130.264 77.5025 130.705 77.3945C131.149 77.2865 131.725 77.261 132.433 77.318V77.1515C132.433 76.8545 132.337 76.6175 132.145 76.4405C131.956 76.2635 131.67 76.175 131.286 76.175C131.052 76.175 130.819 76.211 130.588 76.283C130.36 76.352 130.144 76.4615 129.94 76.6115L129.661 75.8825C129.937 75.6935 130.227 75.56 130.53 75.482C130.833 75.404 131.125 75.365 131.407 75.365C132.028 75.365 132.514 75.512 132.865 75.806C133.216 76.1 133.392 76.5455 133.392 77.1425V80H132.501V79.4735C132.348 79.6865 132.138 79.85 131.871 79.964C131.604 80.078 131.307 80.135 130.98 80.135ZM130.35 78.6815C130.35 78.8975 130.426 79.064 130.579 79.181C130.735 79.298 130.948 79.3565 131.218 79.3565C131.563 79.3565 131.851 79.2635 132.082 79.0775C132.316 78.8915 132.433 78.644 132.433 78.335V77.9885C131.701 77.9075 131.17 77.9375 130.84 78.0785C130.513 78.2195 130.35 78.4205 130.35 78.6815ZM136.492 80.135C136.057 80.135 135.709 80.009 135.448 79.757C135.187 79.505 135.057 79.1195 135.057 78.6005V76.364H134.08V75.545H135.057V74.2445H136.047V75.545H137.284V76.364H136.047V78.3845C136.047 78.6995 136.105 78.92 136.222 79.046C136.342 79.172 136.51 79.235 136.726 79.235C136.831 79.235 136.93 79.223 137.023 79.199C137.116 79.175 137.2 79.1435 137.275 79.1045L137.451 79.9055C137.322 79.9745 137.173 80.03 137.005 80.072C136.84 80.114 136.669 80.135 136.492 80.135ZM138.487 80V75.545H139.477V80H138.487ZM138.982 74.7485C138.805 74.7485 138.652 74.6915 138.523 74.5775C138.394 74.4635 138.33 74.3135 138.33 74.1275C138.33 73.9445 138.394 73.796 138.523 73.682C138.652 73.565 138.805 73.5065 138.982 73.5065C139.159 73.5065 139.312 73.565 139.441 73.682C139.57 73.796 139.635 73.9445 139.635 74.1275C139.635 74.3135 139.57 74.4635 139.441 74.5775C139.312 74.6915 139.159 74.7485 138.982 74.7485ZM142.881 80.135C142.416 80.135 142.001 80.0285 141.635 79.8155C141.272 79.5995 140.987 79.313 140.78 78.956C140.573 78.596 140.469 78.2015 140.469 77.7725C140.469 77.3495 140.573 76.9595 140.78 76.6025C140.987 76.2425 141.272 75.9545 141.635 75.7385C142.001 75.5195 142.416 75.41 142.881 75.41C143.349 75.41 143.765 75.518 144.128 75.734C144.494 75.947 144.78 76.2335 144.987 76.5935C145.194 76.9505 145.298 77.3435 145.298 77.7725C145.298 78.1955 145.194 78.587 144.987 78.947C144.78 79.304 144.495 79.592 144.132 79.811C143.769 80.027 143.352 80.135 142.881 80.135ZM142.881 79.2575C143.295 79.2575 143.636 79.124 143.903 78.857C144.173 78.59 144.308 78.2285 144.308 77.7725C144.308 77.3165 144.173 76.955 143.903 76.688C143.636 76.421 143.295 76.2875 142.881 76.2875C142.467 76.2875 142.127 76.421 141.86 76.688C141.593 76.955 141.459 77.3165 141.459 77.7725C141.459 78.2285 141.593 78.59 141.86 78.857C142.13 79.124 142.47 79.2575 142.881 79.2575ZM146.292 80V75.545H147.282V76.112C147.468 75.866 147.684 75.6875 147.93 75.5765C148.176 75.4655 148.431 75.41 148.695 75.41C149.103 75.41 149.441 75.4925 149.708 75.6575C149.975 75.8195 150.173 76.028 150.302 76.283C150.434 76.535 150.5 76.796 150.5 77.066V80H149.51V77.372C149.51 77.057 149.414 76.8035 149.222 76.6115C149.033 76.4165 148.769 76.319 148.43 76.319C148.1 76.319 147.825 76.4285 147.606 76.6475C147.39 76.8635 147.282 77.1455 147.282 77.4935V80H146.292ZM152.464 76.7015C152.269 76.7015 152.102 76.6415 151.964 76.5215C151.826 76.3985 151.757 76.2365 151.757 76.0355C151.757 75.8315 151.826 75.6695 151.964 75.5495C152.102 75.4265 152.269 75.365 152.464 75.365C152.656 75.365 152.821 75.4265 152.959 75.5495C153.097 75.6695 153.166 75.8315 153.166 76.0355C153.166 76.2365 153.097 76.3985 152.959 76.5215C152.821 76.6415 152.656 76.7015 152.464 76.7015ZM152.464 80.135C152.269 80.135 152.102 80.075 151.964 79.955C151.826 79.832 151.757 79.67 151.757 79.469C151.757 79.265 151.826 79.103 151.964 78.983C152.102 78.86 152.269 78.7985 152.464 78.7985C152.656 78.7985 152.821 78.86 152.959 78.983C153.097 79.103 153.166 79.265 153.166 79.469C153.166 79.67 153.097 79.832 152.959 79.955C152.821 80.075 152.656 80.135 152.464 80.135Z" fill="white" fill-opacity="0.6"/>
<path d="M162.797 80V73.7H163.931L166.914 78.038V73.7H168.053V80H166.919L163.935 75.608V80H162.797ZM171.592 80.135C171.103 80.135 170.674 80.036 170.305 79.838C169.936 79.64 169.648 79.3625 169.441 79.0055C169.237 78.6455 169.135 78.2285 169.135 77.7545C169.135 77.2925 169.238 76.8815 169.445 76.5215C169.652 76.1615 169.937 75.8795 170.3 75.6755C170.663 75.4685 171.077 75.365 171.542 75.365C172.046 75.365 172.477 75.482 172.834 75.716C173.191 75.95 173.45 76.268 173.612 76.67C173.774 77.069 173.816 77.522 173.738 78.029H170.219C170.213 78.383 170.339 78.6695 170.597 78.8885C170.858 79.1075 171.206 79.217 171.641 79.217C172.172 79.217 172.64 79.0685 173.045 78.7715L173.45 79.577C173.306 79.691 173.129 79.79 172.919 79.874C172.712 79.958 172.492 80.0225 172.258 80.0675C172.027 80.1125 171.805 80.135 171.592 80.135ZM170.287 77.21H172.622C172.613 76.907 172.511 76.67 172.316 76.499C172.124 76.325 171.857 76.238 171.515 76.238C171.173 76.238 170.89 76.325 170.665 76.499C170.443 76.67 170.317 76.907 170.287 77.21ZM175.518 80L174.127 75.5H175.261L176.143 78.6725L177.124 75.5H178.222L179.149 78.6725L180.04 75.5H181.125L179.734 80H178.564L177.646 76.94L176.688 80H175.518ZM185.638 80V77.309L183.42 73.7H184.747L186.25 76.184L187.74 73.7H189.031L186.813 77.318V80H185.638ZM191.213 80.135C190.733 80.135 190.307 80.027 189.935 79.811C189.566 79.592 189.277 79.3025 189.067 78.9425C188.857 78.5795 188.752 78.182 188.752 77.75C188.752 77.324 188.857 76.931 189.067 76.571C189.277 76.208 189.566 75.917 189.935 75.698C190.307 75.476 190.733 75.365 191.213 75.365C191.69 75.365 192.113 75.4745 192.482 75.6935C192.854 75.9095 193.145 76.1975 193.355 76.5575C193.568 76.9175 193.675 77.315 193.675 77.75C193.675 78.173 193.568 78.566 193.355 78.929C193.145 79.292 192.854 79.5845 192.482 79.8065C192.113 80.0255 191.69 80.135 191.213 80.135ZM191.213 79.127C191.591 79.127 191.905 79.004 192.154 78.758C192.406 78.509 192.532 78.173 192.532 77.75C192.532 77.327 192.407 76.9925 192.158 76.7465C191.909 76.4975 191.594 76.373 191.213 76.373C190.829 76.373 190.513 76.4975 190.264 76.7465C190.018 76.9925 189.895 77.327 189.895 77.75C189.895 78.173 190.019 78.509 190.268 78.758C190.517 79.004 190.832 79.127 191.213 79.127ZM194.623 80V75.5H195.775V76.0895C195.931 75.8255 196.126 75.638 196.36 75.527C196.597 75.416 196.852 75.3605 197.125 75.3605C197.218 75.3605 197.305 75.365 197.386 75.374C197.467 75.383 197.547 75.3965 197.625 75.4145L197.481 76.6025C197.283 76.5365 197.086 76.5035 196.891 76.5035C196.567 76.5035 196.3 76.601 196.09 76.796C195.88 76.988 195.775 77.258 195.775 77.606V80H194.623ZM198.42 80V73.52H199.572V77.2145L201.201 75.5H202.551L200.967 77.255L202.753 80H201.381L200.13 78.0065L199.572 78.578V80H198.42ZM208.756 80.135C208.102 80.135 207.529 80 207.037 79.73C206.545 79.46 206.163 79.0805 205.89 78.5915C205.617 78.0995 205.48 77.522 205.48 76.859C205.48 76.379 205.56 75.938 205.719 75.536C205.881 75.134 206.109 74.786 206.403 74.492C206.697 74.198 207.045 73.97 207.447 73.808C207.849 73.646 208.29 73.565 208.77 73.565C209.265 73.565 209.688 73.628 210.039 73.754C210.39 73.877 210.702 74.0525 210.975 74.2805L210.376 75.239C209.992 74.879 209.484 74.699 208.851 74.699C208.185 74.699 207.66 74.8925 207.276 75.2795C206.895 75.6635 206.704 76.1855 206.704 76.8455C206.704 77.5235 206.899 78.0515 207.289 78.4295C207.682 78.8075 208.216 78.9965 208.891 78.9965C209.194 78.9965 209.49 78.9515 209.778 78.8615C210.069 78.7685 210.343 78.6185 210.601 78.4115L211.141 79.397C210.838 79.631 210.49 79.8125 210.097 79.9415C209.704 80.0705 209.257 80.135 208.756 80.135ZM212.025 80V75.5H213.177V80H212.025ZM212.601 74.744C212.403 74.744 212.232 74.681 212.088 74.555C211.944 74.429 211.872 74.2625 211.872 74.0555C211.872 73.8485 211.944 73.682 212.088 73.556C212.232 73.43 212.403 73.367 212.601 73.367C212.799 73.367 212.97 73.43 213.114 73.556C213.258 73.682 213.33 73.8485 213.33 74.0555C213.33 74.2625 213.258 74.429 213.114 74.555C212.97 74.681 212.799 74.744 212.601 74.744ZM216.425 80.135C215.963 80.135 215.597 80.003 215.327 79.739C215.057 79.475 214.922 79.076 214.922 78.542V76.436H213.973V75.5H214.922V74.195H216.074V75.5H217.258V76.436H216.074V78.3125C216.074 78.6035 216.131 78.8075 216.245 78.9245C216.359 79.0415 216.517 79.1 216.718 79.1C216.916 79.1 217.097 79.0565 217.262 78.9695L217.442 79.8875C217.307 79.9595 217.151 80.018 216.974 80.063C216.797 80.111 216.614 80.135 216.425 80.135ZM218.905 82.016C218.725 82.016 218.55 81.9965 218.379 81.9575C218.208 81.9215 218.044 81.8585 217.888 81.7685L218.145 80.792C218.238 80.849 218.34 80.8925 218.451 80.9225C218.565 80.9525 218.67 80.9675 218.766 80.9675C219.138 80.9675 219.385 80.783 219.508 80.414L219.63 80.054L217.866 75.5H219.121L220.282 78.8525L221.412 75.5H222.631L220.714 80.5805C220.498 81.1325 220.237 81.509 219.931 81.71C219.628 81.914 219.286 82.016 218.905 82.016ZM222.989 81.4445L222.611 80.9315C222.848 80.8235 223.058 80.69 223.241 80.531C223.424 80.372 223.552 80.216 223.624 80.063C223.399 80.075 223.207 80.0195 223.048 79.8965C222.889 79.7705 222.809 79.601 222.809 79.388C222.809 79.172 222.878 78.998 223.016 78.866C223.157 78.731 223.337 78.6635 223.556 78.6635C223.799 78.6635 223.997 78.746 224.15 78.911C224.306 79.076 224.384 79.298 224.384 79.577C224.384 79.907 224.267 80.2325 224.033 80.5535C223.799 80.8775 223.451 81.1745 222.989 81.4445ZM227.774 80V73.7H228.908L231.892 78.038V73.7H233.03V80H231.896L228.913 75.608V80H227.774ZM236.569 80.135C236.08 80.135 235.651 80.036 235.282 79.838C234.913 79.64 234.625 79.3625 234.418 79.0055C234.214 78.6455 234.112 78.2285 234.112 77.7545C234.112 77.2925 234.216 76.8815 234.423 76.5215C234.63 76.1615 234.915 75.8795 235.278 75.6755C235.641 75.4685 236.055 75.365 236.52 75.365C237.024 75.365 237.454 75.482 237.811 75.716C238.168 75.95 238.428 76.268 238.59 76.67C238.752 77.069 238.794 77.522 238.716 78.029H235.197C235.191 78.383 235.317 78.6695 235.575 78.8885C235.836 79.1075 236.184 79.217 236.619 79.217C237.15 79.217 237.618 79.0685 238.023 78.7715L238.428 79.577C238.284 79.691 238.107 79.79 237.897 79.874C237.69 79.958 237.469 80.0225 237.235 80.0675C237.004 80.1125 236.782 80.135 236.569 80.135ZM235.264 77.21H237.6C237.591 76.907 237.489 76.67 237.294 76.499C237.102 76.325 236.835 76.238 236.493 76.238C236.151 76.238 235.867 76.325 235.642 76.499C235.42 76.67 235.294 76.907 235.264 77.21ZM240.495 80L239.105 75.5H240.239L241.121 78.6725L242.102 75.5H243.2L244.127 78.6725L245.018 75.5H246.102L244.712 80H243.542L242.624 76.94L241.665 80H240.495ZM250.616 80V77.309L248.397 73.7H249.725L251.228 76.184L252.717 73.7H254.009L251.79 77.318V80H250.616ZM256.191 80.135C255.711 80.135 255.285 80.027 254.913 79.811C254.544 79.592 254.254 79.3025 254.044 78.9425C253.834 78.5795 253.729 78.182 253.729 77.75C253.729 77.324 253.834 76.931 254.044 76.571C254.254 76.208 254.544 75.917 254.913 75.698C255.285 75.476 255.711 75.365 256.191 75.365C256.668 75.365 257.091 75.4745 257.46 75.6935C257.832 75.9095 258.123 76.1975 258.333 76.5575C258.546 76.9175 258.652 77.315 258.652 77.75C258.652 78.173 258.546 78.566 258.333 78.929C258.123 79.292 257.832 79.5845 257.46 79.8065C257.091 80.0255 256.668 80.135 256.191 80.135ZM256.191 79.127C256.569 79.127 256.882 79.004 257.131 78.758C257.383 78.509 257.509 78.173 257.509 77.75C257.509 77.327 257.385 76.9925 257.136 76.7465C256.887 76.4975 256.572 76.373 256.191 76.373C255.807 76.373 255.49 76.4975 255.241 76.7465C254.995 76.9925 254.872 77.327 254.872 77.75C254.872 78.173 254.997 78.509 255.246 78.758C255.495 79.004 255.81 79.127 256.191 79.127ZM259.601 80V75.5H260.753V76.0895C260.909 75.8255 261.104 75.638 261.338 75.527C261.575 75.416 261.83 75.3605 262.103 75.3605C262.196 75.3605 262.283 75.365 262.364 75.374C262.445 75.383 262.524 75.3965 262.602 75.4145L262.458 76.6025C262.26 76.5365 262.064 76.5035 261.869 76.5035C261.545 76.5035 261.278 76.601 261.068 76.796C260.858 76.988 260.753 77.258 260.753 77.606V80H259.601ZM263.397 80V73.52H264.549V77.2145L266.178 75.5H267.528L265.944 77.255L267.731 80H266.358L265.107 78.0065L264.549 78.578V80H263.397ZM271.83 81.035C271.458 80.402 271.179 79.733 270.993 79.028C270.807 78.323 270.714 77.609 270.714 76.886C270.714 76.166 270.807 75.455 270.993 74.753C271.179 74.048 271.458 73.382 271.83 72.755L272.717 73.1015C272.39 73.6265 272.144 74.216 271.979 74.87C271.814 75.521 271.731 76.187 271.731 76.868C271.731 77.552 271.814 78.2255 271.979 78.8885C272.144 79.5485 272.39 80.1485 272.717 80.6885L271.83 81.035ZM276.552 80.135C275.982 80.135 275.503 80.021 275.116 79.793C274.732 79.562 274.443 79.247 274.248 78.848C274.053 78.449 273.955 77.999 273.955 77.498V73.7H275.125V77.5115C275.125 78.0245 275.253 78.407 275.508 78.659C275.763 78.908 276.111 79.0325 276.552 79.0325C276.99 79.0325 277.336 78.908 277.591 78.659C277.846 78.407 277.974 78.0245 277.974 77.5115V73.7H279.148V77.498C279.148 77.999 279.051 78.449 278.856 78.848C278.661 79.244 278.371 79.5575 277.987 79.7885C277.603 80.0195 277.125 80.135 276.552 80.135ZM282.803 80.135C282.353 80.135 281.914 80.0705 281.485 79.9415C281.059 79.8125 280.699 79.625 280.405 79.379L280.972 78.4925C281.188 78.6935 281.464 78.851 281.8 78.965C282.136 79.079 282.472 79.136 282.808 79.136C283.183 79.136 283.487 79.067 283.721 78.929C283.955 78.788 284.072 78.5855 284.072 78.3215C284.072 78.1175 283.991 77.945 283.829 77.804C283.667 77.663 283.369 77.531 282.934 77.408L282.322 77.2325C281.707 77.0585 281.261 76.826 280.985 76.535C280.712 76.241 280.576 75.881 280.576 75.455C280.576 75.083 280.675 74.756 280.873 74.474C281.074 74.189 281.35 73.967 281.701 73.808C282.052 73.649 282.452 73.5695 282.902 73.5695C283.34 73.5695 283.748 73.634 284.126 73.763C284.507 73.889 284.818 74.0615 285.058 74.2805L284.477 75.14C284.288 74.963 284.05 74.8235 283.762 74.7215C283.477 74.6165 283.183 74.564 282.88 74.564C282.526 74.564 282.239 74.6375 282.02 74.7845C281.804 74.9285 281.696 75.1325 281.696 75.3965C281.696 75.5915 281.776 75.7505 281.935 75.8735C282.097 75.9935 282.395 76.118 282.83 76.247L283.469 76.436C284.072 76.613 284.512 76.841 284.788 77.12C285.064 77.396 285.202 77.756 285.202 78.2C285.202 78.581 285.106 78.917 284.914 79.208C284.722 79.499 284.446 79.727 284.086 79.892C283.729 80.054 283.301 80.135 282.803 80.135ZM286.96 81.035L286.073 80.6885C286.403 80.1635 286.649 79.574 286.811 78.92C286.976 78.266 287.059 77.6 287.059 76.922C287.059 76.238 286.976 75.566 286.811 74.906C286.646 74.243 286.4 73.6415 286.073 73.1015L286.96 72.755C287.335 73.388 287.614 74.057 287.797 74.762C287.983 75.467 288.076 76.181 288.076 76.904C288.076 77.624 287.983 78.3365 287.797 79.0415C287.614 79.7435 287.335 80.408 286.96 81.035Z" fill="white"/>
<rect opacity="0.5" x="82" y="93" width="207" height="1" fill="white" fill-opacity="0.1"/>
<path d="M92.6667 106.667C92.6667 105.193 91.4733 104 90 104C88.5267 104 87.3333 105.193 87.3333 106.667C87.3333 108.14 88.5267 109.333 90 109.333C91.4733 109.333 92.6667 108.14 92.6667 106.667ZM90 108C89.2667 108 88.6667 107.4 88.6667 106.667C88.6667 105.933 89.2667 105.333 90 105.333C90.7333 105.333 91.3333 105.933 91.3333 106.667C91.3333 107.4 90.7333 108 90 108ZM86.6667 110.667C85.1933 110.667 84 111.86 84 113.333C84 114.807 85.1933 116 86.6667 116C88.14 116 89.3333 114.807 89.3333 113.333C89.3333 111.86 88.14 110.667 86.6667 110.667ZM86.6667 114.667C85.9333 114.667 85.3333 114.067 85.3333 113.333C85.3333 112.6 85.9333 112 86.6667 112C87.4 112 88 112.6 88 113.333C88 114.067 87.4 114.667 86.6667 114.667ZM93.3333 110.667C91.86 110.667 90.6667 111.86 90.6667 113.333C90.6667 114.807 91.86 116 93.3333 116C94.8067 116 96 114.807 96 113.333C96 111.86 94.8067 110.667 93.3333 110.667ZM93.3333 114.667C92.6 114.667 92 114.067 92 113.333C92 112.6 92.6 112 93.3333 112C94.0667 112 94.6667 112.6 94.6667 113.333C94.6667 114.067 94.0667 114.667 93.3333 114.667Z" fill="#FF8B36"/>
<path d="M106.819 113V106.7H107.827V113H106.819ZM111.525 113.135C111.09 113.135 110.664 113.074 110.247 112.95C109.833 112.827 109.484 112.647 109.199 112.41L109.694 111.641C109.919 111.836 110.196 111.989 110.526 112.1C110.856 112.208 111.191 112.262 111.53 112.262C111.941 112.262 112.272 112.184 112.524 112.028C112.779 111.872 112.907 111.644 112.907 111.344C112.907 111.119 112.82 110.928 112.646 110.772C112.475 110.616 112.157 110.472 111.692 110.34L111.044 110.151C110.447 109.98 110.013 109.754 109.743 109.472C109.473 109.19 109.338 108.839 109.338 108.419C109.338 108.05 109.436 107.727 109.631 107.451C109.829 107.172 110.1 106.956 110.445 106.803C110.79 106.647 111.185 106.569 111.629 106.569C112.052 106.569 112.445 106.631 112.808 106.754C113.171 106.877 113.471 107.042 113.708 107.249L113.195 107.996C113 107.822 112.758 107.685 112.47 107.586C112.185 107.484 111.89 107.433 111.584 107.433C111.203 107.433 110.894 107.514 110.657 107.676C110.42 107.838 110.301 108.068 110.301 108.365C110.301 108.581 110.385 108.758 110.553 108.896C110.724 109.034 111.042 109.17 111.507 109.305L112.191 109.508C112.773 109.682 113.199 109.905 113.469 110.178C113.739 110.451 113.874 110.807 113.874 111.245C113.874 111.806 113.667 112.262 113.253 112.613C112.842 112.961 112.266 113.135 111.525 113.135ZM115.125 113V106.7H117.406C117.853 106.7 118.248 106.778 118.59 106.934C118.935 107.087 119.205 107.309 119.4 107.6C119.595 107.888 119.692 108.234 119.692 108.639C119.692 109.263 119.491 109.742 119.089 110.075C118.69 110.405 118.122 110.57 117.384 110.57H116.133V113H115.125ZM116.133 109.706H117.397C117.802 109.706 118.117 109.62 118.342 109.449C118.57 109.278 118.684 109.016 118.684 108.662C118.684 108.314 118.569 108.047 118.338 107.861C118.107 107.675 117.796 107.582 117.406 107.582H116.133V109.706ZM121.333 109.701C121.138 109.701 120.971 109.641 120.833 109.521C120.695 109.398 120.626 109.236 120.626 109.035C120.626 108.831 120.695 108.669 120.833 108.549C120.971 108.426 121.138 108.365 121.333 108.365C121.525 108.365 121.69 108.426 121.828 108.549C121.966 108.669 122.035 108.831 122.035 109.035C122.035 109.236 121.966 109.398 121.828 109.521C121.69 109.641 121.525 109.701 121.333 109.701ZM121.333 113.135C121.138 113.135 120.971 113.075 120.833 112.955C120.695 112.832 120.626 112.67 120.626 112.469C120.626 112.265 120.695 112.103 120.833 111.983C120.971 111.86 121.138 111.798 121.333 111.798C121.525 111.798 121.69 111.86 121.828 111.983C121.966 112.103 122.035 112.265 122.035 112.469C122.035 112.67 121.966 112.832 121.828 112.955C121.69 113.075 121.525 113.135 121.333 113.135Z" fill="white" fill-opacity="0.6"/>
<path d="M131.797 113V106.7H132.926L135.203 110.43L137.386 106.7H138.502V113H137.363L137.377 108.671L135.563 111.699H134.74L132.85 108.626L132.868 113H131.797ZM139.801 113V112.194L141.155 110.961C141.581 110.571 141.92 110.241 142.172 109.971C142.427 109.698 142.61 109.454 142.721 109.238C142.835 109.019 142.892 108.8 142.892 108.581C142.892 108.26 142.783 108.009 142.564 107.829C142.345 107.649 142.039 107.559 141.646 107.559C141.37 107.559 141.104 107.609 140.849 107.708C140.594 107.807 140.374 107.954 140.188 108.149L139.774 107.298C140.041 107.061 140.347 106.88 140.692 106.754C141.037 106.628 141.395 106.565 141.767 106.565C142.214 106.565 142.603 106.644 142.933 106.803C143.266 106.959 143.524 107.178 143.707 107.46C143.89 107.742 143.981 108.074 143.981 108.455C143.981 108.713 143.929 108.969 143.824 109.224C143.722 109.479 143.54 109.766 143.279 110.084C143.018 110.402 142.648 110.786 142.168 111.236L141.317 112.023H144.143V113H139.801ZM147.863 113V111.744H144.776V110.885L146.945 106.7H148.119L145.991 110.786H147.863V109.445H148.853V110.786H149.789V111.744H148.853V113H147.863ZM150.525 113L153.108 107.748H150.187V106.7H154.408V107.55L151.767 113H150.525ZM157.768 113V106.7H161.958V107.726H158.938V109.251H161.521V110.21H158.938V111.965H161.989V113H157.768ZM164.965 113.135C164.56 113.135 164.224 113.056 163.957 112.896C163.693 112.734 163.496 112.517 163.367 112.244C163.238 111.971 163.174 111.666 163.174 111.33V108.5H164.326V111.132C164.326 111.42 164.407 111.651 164.569 111.825C164.734 111.996 164.968 112.082 165.271 112.082C165.559 112.082 165.799 111.986 165.991 111.794C166.183 111.599 166.279 111.347 166.279 111.038V108.5H167.431V113H166.414V112.487C166.246 112.682 166.045 112.839 165.811 112.959C165.577 113.077 165.295 113.135 164.965 113.135ZM168.756 113V108.5H169.908V109.089C170.064 108.825 170.259 108.638 170.493 108.527C170.73 108.416 170.985 108.36 171.258 108.36C171.351 108.36 171.438 108.365 171.519 108.374C171.6 108.383 171.679 108.396 171.757 108.414L171.613 109.602C171.415 109.536 171.219 109.503 171.024 109.503C170.7 109.503 170.433 109.601 170.223 109.796C170.013 109.988 169.908 110.258 169.908 110.606V113H168.756ZM174.548 113.135C174.068 113.135 173.642 113.027 173.27 112.811C172.901 112.592 172.612 112.302 172.402 111.942C172.192 111.579 172.087 111.182 172.087 110.75C172.087 110.324 172.192 109.931 172.402 109.571C172.612 109.208 172.901 108.917 173.27 108.698C173.642 108.476 174.068 108.365 174.548 108.365C175.025 108.365 175.448 108.474 175.817 108.693C176.189 108.909 176.48 109.197 176.69 109.557C176.903 109.917 177.01 110.315 177.01 110.75C177.01 111.173 176.903 111.566 176.69 111.929C176.48 112.292 176.189 112.584 175.817 112.806C175.448 113.026 175.025 113.135 174.548 113.135ZM174.548 112.127C174.926 112.127 175.24 112.004 175.489 111.758C175.741 111.509 175.867 111.173 175.867 110.75C175.867 110.327 175.742 109.992 175.493 109.746C175.244 109.497 174.929 109.373 174.548 109.373C174.164 109.373 173.848 109.497 173.599 109.746C173.353 109.992 173.23 110.327 173.23 110.75C173.23 111.173 173.354 111.509 173.603 111.758C173.852 112.004 174.167 112.127 174.548 112.127ZM177.958 114.89V108.5H178.975V109.094C179.149 108.878 179.372 108.702 179.645 108.567C179.918 108.432 180.248 108.365 180.635 108.365C181.07 108.365 181.457 108.467 181.796 108.671C182.135 108.875 182.401 109.157 182.593 109.517C182.788 109.874 182.885 110.285 182.885 110.75C182.885 111.194 182.788 111.596 182.593 111.956C182.401 112.316 182.134 112.602 181.792 112.815C181.453 113.029 181.061 113.135 180.617 113.135C180.293 113.135 180.005 113.08 179.753 112.968C179.501 112.854 179.285 112.7 179.105 112.505V114.89H177.958ZM180.424 112.127C180.805 112.127 181.12 112.004 181.369 111.758C181.618 111.509 181.742 111.173 181.742 110.75C181.742 110.327 181.616 109.992 181.364 109.746C181.115 109.497 180.802 109.373 180.424 109.373C180.043 109.373 179.728 109.497 179.479 109.746C179.23 109.992 179.105 110.327 179.105 110.75C179.105 111.173 179.228 111.509 179.474 111.758C179.723 112.004 180.04 112.127 180.424 112.127ZM185.961 113.135C185.472 113.135 185.043 113.036 184.674 112.838C184.305 112.64 184.017 112.362 183.81 112.005C183.606 111.645 183.504 111.228 183.504 110.754C183.504 110.292 183.607 109.881 183.814 109.521C184.021 109.161 184.306 108.879 184.669 108.675C185.032 108.468 185.446 108.365 185.911 108.365C186.415 108.365 186.846 108.482 187.203 108.716C187.56 108.95 187.819 109.268 187.981 109.67C188.143 110.069 188.185 110.522 188.107 111.029H184.588C184.582 111.383 184.708 111.669 184.966 111.888C185.227 112.107 185.575 112.217 186.01 112.217C186.541 112.217 187.009 112.068 187.414 111.771L187.819 112.577C187.675 112.691 187.498 112.79 187.288 112.874C187.081 112.958 186.861 113.023 186.627 113.068C186.396 113.113 186.174 113.135 185.961 113.135ZM184.656 110.21H186.991C186.982 109.907 186.88 109.67 186.685 109.499C186.493 109.325 186.226 109.238 185.884 109.238C185.542 109.238 185.259 109.325 185.034 109.499C184.812 109.67 184.686 109.907 184.656 110.21ZM193.488 113.135C193.038 113.135 192.598 113.071 192.169 112.941C191.743 112.812 191.383 112.625 191.089 112.379L191.656 111.492C191.872 111.693 192.148 111.851 192.484 111.965C192.82 112.079 193.156 112.136 193.492 112.136C193.867 112.136 194.172 112.067 194.406 111.929C194.64 111.788 194.757 111.585 194.757 111.321C194.757 111.117 194.676 110.945 194.514 110.804C194.352 110.663 194.053 110.531 193.618 110.408L193.006 110.232C192.391 110.058 191.946 109.826 191.67 109.535C191.397 109.241 191.26 108.881 191.26 108.455C191.26 108.083 191.359 107.756 191.557 107.474C191.758 107.189 192.034 106.967 192.385 106.808C192.736 106.649 193.137 106.569 193.587 106.569C194.025 106.569 194.433 106.634 194.811 106.763C195.192 106.889 195.502 107.061 195.742 107.28L195.162 108.14C194.973 107.963 194.734 107.823 194.446 107.721C194.161 107.616 193.867 107.564 193.564 107.564C193.21 107.564 192.924 107.637 192.705 107.784C192.489 107.928 192.381 108.132 192.381 108.396C192.381 108.591 192.46 108.75 192.619 108.873C192.781 108.993 193.08 109.118 193.515 109.247L194.154 109.436C194.757 109.613 195.196 109.841 195.472 110.12C195.748 110.396 195.886 110.756 195.886 111.2C195.886 111.581 195.79 111.917 195.598 112.208C195.406 112.499 195.13 112.727 194.77 112.892C194.413 113.054 193.986 113.135 193.488 113.135ZM197.073 113V106.7H199.512C200.181 106.7 200.715 106.868 201.114 107.204C201.513 107.54 201.712 108 201.712 108.585C201.712 109.053 201.571 109.437 201.289 109.737C201.007 110.034 200.644 110.231 200.2 110.327L202.032 113H200.628L198.999 110.534H198.243V113H197.073ZM198.243 109.575H199.341C199.713 109.575 200.004 109.497 200.214 109.341C200.427 109.185 200.533 108.954 200.533 108.648C200.533 108.003 200.155 107.681 199.399 107.681H198.243V109.575ZM203.12 113V106.7H204.29V111.929H206.963V113H203.12Z" fill="white"/>
<rect opacity="0.5" x="82" y="126" width="207" height="1" fill="white" fill-opacity="0.1"/>
<path d="M94.6667 145V147.667H85.3333V145H94.6667ZM95.3333 143.667H84.6667C84.3 143.667 84 143.967 84 144.333V148.333C84 148.7 84.3 149 84.6667 149H95.3333C95.7 149 96 148.7 96 148.333V144.333C96 143.967 95.7 143.667 95.3333 143.667ZM86.6667 147.333C86.12 147.333 85.6667 146.887 85.6667 146.333C85.6667 145.78 86.12 145.333 86.6667 145.333C87.2133 145.333 87.6667 145.78 87.6667 146.333C87.6667 146.887 87.22 147.333 86.6667 147.333ZM94.6667 138.333V141H85.3333V138.333H94.6667ZM95.3333 137H84.6667C84.3 137 84 137.3 84 137.667V141.667C84 142.033 84.3 142.333 84.6667 142.333H95.3333C95.7 142.333 96 142.033 96 141.667V137.667C96 137.3 95.7 137 95.3333 137ZM86.6667 140.667C86.12 140.667 85.6667 140.22 85.6667 139.667C85.6667 139.113 86.12 138.667 86.6667 138.667C87.2133 138.667 87.6667 139.12 87.6667 139.667C87.6667 140.213 87.22 140.667 86.6667 140.667Z" fill="#5DA8FF"/>
<path d="M106.819 146V139.7H109.101C109.548 139.7 109.942 139.778 110.284 139.934C110.629 140.087 110.899 140.309 111.094 140.6C111.289 140.888 111.387 141.234 111.387 141.639C111.387 142.263 111.186 142.742 110.784 143.075C110.385 143.405 109.816 143.57 109.078 143.57H107.827V146H106.819ZM107.827 142.706H109.092C109.497 142.706 109.812 142.62 110.037 142.449C110.265 142.278 110.379 142.016 110.379 141.662C110.379 141.314 110.263 141.047 110.032 140.861C109.801 140.675 109.491 140.582 109.101 140.582H107.827V142.706ZM112.393 146V141.545H113.383V142.161C113.551 141.885 113.755 141.69 113.995 141.576C114.235 141.462 114.493 141.405 114.769 141.405C114.94 141.405 115.103 141.423 115.259 141.459L115.129 142.481C114.94 142.424 114.755 142.395 114.575 142.395C114.23 142.395 113.945 142.502 113.72 142.715C113.495 142.925 113.383 143.211 113.383 143.574V146H112.393ZM118.026 146.135C117.561 146.135 117.145 146.029 116.779 145.815C116.416 145.599 116.131 145.313 115.924 144.956C115.717 144.596 115.614 144.201 115.614 143.772C115.614 143.349 115.717 142.959 115.924 142.602C116.131 142.242 116.416 141.954 116.779 141.738C117.145 141.519 117.561 141.41 118.026 141.41C118.494 141.41 118.909 141.518 119.272 141.734C119.638 141.947 119.925 142.233 120.132 142.593C120.339 142.95 120.442 143.343 120.442 143.772C120.442 144.195 120.339 144.587 120.132 144.947C119.925 145.304 119.64 145.592 119.277 145.811C118.914 146.027 118.497 146.135 118.026 146.135ZM118.026 145.257C118.44 145.257 118.78 145.124 119.047 144.857C119.317 144.59 119.452 144.228 119.452 143.772C119.452 143.316 119.317 142.955 119.047 142.688C118.78 142.421 118.44 142.287 118.026 142.287C117.612 142.287 117.271 142.421 117.004 142.688C116.737 142.955 116.604 143.316 116.604 143.772C116.604 144.228 116.737 144.59 117.004 144.857C117.274 145.124 117.615 145.257 118.026 145.257ZM120.822 146.005L122.433 143.763L120.916 141.545H122.163L123.112 143.052L124.03 141.545H125.245L123.774 143.736L125.371 146H124.102L123.076 144.434L122.037 145.991L120.822 146.005ZM126.583 148.016C126.421 148.016 126.262 147.998 126.106 147.962C125.95 147.929 125.797 147.868 125.647 147.778L125.872 146.932C125.965 146.992 126.065 147.037 126.173 147.067C126.284 147.097 126.385 147.112 126.475 147.112C126.685 147.112 126.85 147.062 126.97 146.963C127.09 146.867 127.184 146.714 127.253 146.504L127.402 146.072L125.647 141.545H126.731L127.964 145.001L129.166 141.545H130.214L128.288 146.644C128.081 147.178 127.837 147.539 127.555 147.728C127.273 147.92 126.949 148.016 126.583 148.016ZM131.625 142.701C131.43 142.701 131.263 142.641 131.125 142.521C130.987 142.398 130.918 142.236 130.918 142.035C130.918 141.831 130.987 141.669 131.125 141.549C131.263 141.426 131.43 141.365 131.625 141.365C131.817 141.365 131.982 141.426 132.12 141.549C132.258 141.669 132.327 141.831 132.327 142.035C132.327 142.236 132.258 142.398 132.12 142.521C131.982 142.641 131.817 142.701 131.625 142.701ZM131.625 146.135C131.43 146.135 131.263 146.075 131.125 145.955C130.987 145.832 130.918 145.67 130.918 145.469C130.918 145.265 130.987 145.103 131.125 144.983C131.263 144.86 131.43 144.798 131.625 144.798C131.817 144.798 131.982 144.86 132.12 144.983C132.258 145.103 132.327 145.265 132.327 145.469C132.327 145.67 132.258 145.832 132.12 145.955C131.982 146.075 131.817 146.135 131.625 146.135Z" fill="white" fill-opacity="0.6"/>
<path d="M141.797 146V139.7H142.931L145.914 144.038V139.7H147.053V146H145.919L142.935 141.608V146H141.797ZM150.596 146.135C150.116 146.135 149.69 146.027 149.318 145.811C148.949 145.592 148.66 145.302 148.45 144.942C148.24 144.579 148.135 144.182 148.135 143.75C148.135 143.324 148.24 142.931 148.45 142.571C148.66 142.208 148.949 141.917 149.318 141.698C149.69 141.476 150.116 141.365 150.596 141.365C151.073 141.365 151.496 141.474 151.865 141.693C152.237 141.909 152.528 142.197 152.738 142.557C152.951 142.917 153.058 143.315 153.058 143.75C153.058 144.173 152.951 144.566 152.738 144.929C152.528 145.292 152.237 145.584 151.865 145.806C151.496 146.026 151.073 146.135 150.596 146.135ZM150.596 145.127C150.974 145.127 151.288 145.004 151.537 144.758C151.789 144.509 151.915 144.173 151.915 143.75C151.915 143.327 151.79 142.992 151.541 142.746C151.292 142.497 150.977 142.373 150.596 142.373C150.212 142.373 149.896 142.497 149.647 142.746C149.401 142.992 149.278 143.327 149.278 143.75C149.278 144.173 149.402 144.509 149.651 144.758C149.9 145.004 150.215 145.127 150.596 145.127ZM155.883 146.135C155.421 146.135 155.055 146.003 154.785 145.739C154.515 145.475 154.38 145.076 154.38 144.542V142.436H153.431V141.5H154.38V140.195H155.532V141.5H156.716V142.436H155.532V144.312C155.532 144.603 155.589 144.807 155.703 144.924C155.817 145.041 155.975 145.1 156.176 145.1C156.374 145.1 156.555 145.056 156.72 144.969L156.9 145.887C156.765 145.959 156.609 146.018 156.432 146.063C156.255 146.111 156.072 146.135 155.883 146.135ZM161.916 146.135C161.478 146.135 161.089 146.033 160.75 145.829C160.411 145.625 160.146 145.343 159.954 144.983C159.762 144.623 159.666 144.212 159.666 143.75C159.666 143.306 159.762 142.904 159.954 142.544C160.146 142.184 160.411 141.897 160.75 141.684C161.092 141.471 161.487 141.365 161.934 141.365C162.246 141.365 162.526 141.416 162.775 141.518C163.027 141.62 163.249 141.765 163.441 141.954V139.52H164.593V146H163.576V145.401C163.405 145.62 163.182 145.797 162.906 145.932C162.63 146.068 162.3 146.135 161.916 146.135ZM162.127 145.127C162.505 145.127 162.819 145.004 163.068 144.758C163.32 144.509 163.446 144.173 163.446 143.75C163.446 143.327 163.321 142.992 163.072 142.746C162.823 142.497 162.508 142.373 162.127 142.373C161.743 142.373 161.427 142.497 161.178 142.746C160.932 142.992 160.809 143.327 160.809 143.75C160.809 144.173 160.933 144.509 161.182 144.758C161.431 145.004 161.746 145.127 162.127 145.127ZM168.003 146.135C167.514 146.135 167.085 146.036 166.716 145.838C166.347 145.64 166.059 145.362 165.852 145.005C165.648 144.645 165.546 144.228 165.546 143.754C165.546 143.292 165.649 142.881 165.856 142.521C166.063 142.161 166.348 141.879 166.711 141.675C167.074 141.468 167.488 141.365 167.953 141.365C168.457 141.365 168.888 141.482 169.245 141.716C169.602 141.95 169.861 142.268 170.023 142.67C170.185 143.069 170.227 143.522 170.149 144.029H166.63C166.624 144.383 166.75 144.669 167.008 144.888C167.269 145.107 167.617 145.217 168.052 145.217C168.583 145.217 169.051 145.068 169.456 144.771L169.861 145.577C169.717 145.691 169.54 145.79 169.33 145.874C169.123 145.958 168.903 146.023 168.669 146.068C168.438 146.113 168.216 146.135 168.003 146.135ZM166.698 143.21H169.033C169.024 142.907 168.922 142.67 168.727 142.499C168.535 142.325 168.268 142.238 167.926 142.238C167.584 142.238 167.301 142.325 167.076 142.499C166.854 142.67 166.728 142.907 166.698 143.21ZM173.013 146.135C172.551 146.135 172.185 146.003 171.915 145.739C171.645 145.475 171.51 145.076 171.51 144.542V142.436H170.561V141.5H171.51V140.195H172.662V141.5H173.846V142.436H172.662V144.312C172.662 144.603 172.719 144.807 172.833 144.924C172.947 145.041 173.105 145.1 173.306 145.1C173.504 145.1 173.685 145.056 173.85 144.969L174.03 145.887C173.895 145.959 173.739 146.018 173.562 146.063C173.385 146.111 173.202 146.135 173.013 146.135ZM177.064 146.135C176.575 146.135 176.146 146.036 175.777 145.838C175.408 145.64 175.12 145.362 174.913 145.005C174.709 144.645 174.607 144.228 174.607 143.754C174.607 143.292 174.711 142.881 174.918 142.521C175.125 142.161 175.41 141.879 175.773 141.675C176.136 141.468 176.55 141.365 177.015 141.365C177.519 141.365 177.949 141.482 178.306 141.716C178.663 141.95 178.923 142.268 179.085 142.67C179.247 143.069 179.289 143.522 179.211 144.029H175.692C175.686 144.383 175.812 144.669 176.07 144.888C176.331 145.107 176.679 145.217 177.114 145.217C177.645 145.217 178.113 145.068 178.518 144.771L178.923 145.577C178.779 145.691 178.602 145.79 178.392 145.874C178.185 145.958 177.964 146.023 177.73 146.068C177.499 146.113 177.277 146.135 177.064 146.135ZM175.759 143.21H178.095C178.086 142.907 177.984 142.67 177.789 142.499C177.597 142.325 177.33 142.238 176.988 142.238C176.646 142.238 176.362 142.325 176.137 142.499C175.915 142.67 175.789 142.907 175.759 143.21ZM182.329 146.135C181.852 146.135 181.428 146.032 181.056 145.824C180.684 145.617 180.391 145.334 180.178 144.974C179.968 144.614 179.863 144.206 179.863 143.75C179.863 143.291 179.973 142.883 180.192 142.526C180.411 142.166 180.711 141.882 181.092 141.675C181.473 141.468 181.906 141.365 182.392 141.365C183.022 141.365 183.562 141.536 184.012 141.878L183.477 142.746C183.333 142.62 183.172 142.527 182.995 142.467C182.818 142.404 182.632 142.373 182.437 142.373C181.996 142.373 181.65 142.493 181.398 142.733C181.146 142.973 181.02 143.31 181.02 143.745C181.02 144.177 181.146 144.516 181.398 144.762C181.65 145.005 181.996 145.127 182.437 145.127C182.656 145.127 182.863 145.086 183.058 145.005C183.253 144.924 183.423 144.813 183.567 144.672L184.08 145.545C183.834 145.728 183.559 145.872 183.256 145.977C182.953 146.083 182.644 146.135 182.329 146.135ZM186.865 146.135C186.403 146.135 186.037 146.003 185.767 145.739C185.497 145.475 185.362 145.076 185.362 144.542V142.436H184.412V141.5H185.362V140.195H186.514V141.5H187.697V142.436H186.514V144.312C186.514 144.603 186.571 144.807 186.685 144.924C186.799 145.041 186.956 145.1 187.157 145.1C187.355 145.1 187.537 145.056 187.702 144.969L187.882 145.887C187.747 145.959 187.591 146.018 187.414 146.063C187.237 146.111 187.054 146.135 186.865 146.135ZM190.916 146.135C190.427 146.135 189.998 146.036 189.629 145.838C189.26 145.64 188.972 145.362 188.765 145.005C188.561 144.645 188.459 144.228 188.459 143.754C188.459 143.292 188.562 142.881 188.769 142.521C188.976 142.161 189.261 141.879 189.624 141.675C189.987 141.468 190.401 141.365 190.866 141.365C191.37 141.365 191.801 141.482 192.158 141.716C192.515 141.95 192.774 142.268 192.936 142.67C193.098 143.069 193.14 143.522 193.062 144.029H189.543C189.537 144.383 189.663 144.669 189.921 144.888C190.182 145.107 190.53 145.217 190.965 145.217C191.496 145.217 191.964 145.068 192.369 144.771L192.774 145.577C192.63 145.691 192.453 145.79 192.243 145.874C192.036 145.958 191.816 146.023 191.582 146.068C191.351 146.113 191.129 146.135 190.916 146.135ZM189.611 143.21H191.946C191.937 142.907 191.835 142.67 191.64 142.499C191.448 142.325 191.181 142.238 190.839 142.238C190.497 142.238 190.214 142.325 189.989 142.499C189.767 142.67 189.641 142.907 189.611 143.21ZM195.965 146.135C195.527 146.135 195.138 146.033 194.799 145.829C194.46 145.625 194.195 145.343 194.003 144.983C193.811 144.623 193.715 144.212 193.715 143.75C193.715 143.306 193.811 142.904 194.003 142.544C194.195 142.184 194.46 141.897 194.799 141.684C195.141 141.471 195.536 141.365 195.983 141.365C196.295 141.365 196.575 141.416 196.824 141.518C197.076 141.62 197.298 141.765 197.49 141.954V139.52H198.642V146H197.625V145.401C197.454 145.62 197.231 145.797 196.955 145.932C196.679 146.068 196.349 146.135 195.965 146.135ZM196.176 145.127C196.554 145.127 196.868 145.004 197.117 144.758C197.369 144.509 197.495 144.173 197.495 143.75C197.495 143.327 197.37 142.992 197.121 142.746C196.872 142.497 196.557 142.373 196.176 142.373C195.792 142.373 195.476 142.497 195.227 142.746C194.981 142.992 194.858 143.327 194.858 143.75C194.858 144.173 194.982 144.509 195.231 144.758C195.48 145.004 195.795 145.127 196.176 145.127Z" fill="white"/>
<rect opacity="0.5" x="82" y="159" width="207" height="1" fill="white" fill-opacity="0.1"/>
<path d="M90.6667 182.667H96V178H94V175.333H90.6667V174H92.6667V169.333H87.3333V174H89.3333V175.333H86V178H84V182.667H89.3333V178H87.3333V176.667H92.6667V178H90.6667V182.667ZM88.6667 172.667V170.667H91.3333V172.667H88.6667ZM88 179.333V181.333H85.3333V179.333H88ZM94.6667 179.333V181.333H92V179.333H94.6667Z" fill="#A1FFB0"/>
<path d="M106.819 179V172.7H107.827V178.073H110.572V179H106.819ZM112.909 179.135C112.444 179.135 112.068 179.007 111.78 178.752C111.495 178.497 111.352 178.154 111.352 177.722C111.352 177.407 111.456 177.134 111.663 176.903C111.87 176.672 112.194 176.502 112.635 176.394C113.079 176.286 113.655 176.261 114.363 176.318V176.151C114.363 175.854 114.267 175.617 114.075 175.44C113.886 175.263 113.599 175.175 113.215 175.175C112.981 175.175 112.749 175.211 112.518 175.283C112.29 175.352 112.074 175.461 111.87 175.611L111.591 174.882C111.867 174.693 112.156 174.56 112.459 174.482C112.762 174.404 113.055 174.365 113.337 174.365C113.958 174.365 114.444 174.512 114.795 174.806C115.146 175.1 115.321 175.545 115.321 176.142V179H114.43V178.473C114.277 178.686 114.067 178.85 113.8 178.964C113.533 179.078 113.236 179.135 112.909 179.135ZM112.279 177.681C112.279 177.897 112.356 178.064 112.509 178.181C112.665 178.298 112.878 178.356 113.148 178.356C113.493 178.356 113.781 178.263 114.012 178.077C114.246 177.891 114.363 177.644 114.363 177.335V176.988C113.631 176.907 113.1 176.937 112.77 177.078C112.443 177.219 112.279 177.42 112.279 177.681ZM118.422 179.135C117.987 179.135 117.639 179.009 117.378 178.757C117.117 178.505 116.986 178.119 116.986 177.6V175.364H116.01V174.545H116.986V173.244H117.976V174.545H119.214V175.364H117.976V177.384C117.976 177.699 118.035 177.92 118.152 178.046C118.272 178.172 118.44 178.235 118.656 178.235C118.761 178.235 118.86 178.223 118.953 178.199C119.046 178.175 119.13 178.143 119.205 178.104L119.38 178.905C119.251 178.974 119.103 179.03 118.935 179.072C118.77 179.114 118.599 179.135 118.422 179.135ZM120.417 179V174.545H121.407V179H120.417ZM120.912 173.748C120.735 173.748 120.582 173.691 120.453 173.577C120.324 173.463 120.26 173.313 120.26 173.127C120.26 172.944 120.324 172.796 120.453 172.682C120.582 172.565 120.735 172.506 120.912 172.506C121.089 172.506 121.242 172.565 121.371 172.682C121.5 172.796 121.565 172.944 121.565 173.127C121.565 173.313 121.5 173.463 121.371 173.577C121.242 173.691 121.089 173.748 120.912 173.748ZM124.653 179.135C124.218 179.135 123.87 179.009 123.609 178.757C123.348 178.505 123.218 178.119 123.218 177.6V175.364H122.241V174.545H123.218V173.244H124.208V174.545H125.445V175.364H124.208V177.384C124.208 177.699 124.266 177.92 124.383 178.046C124.503 178.172 124.671 178.235 124.887 178.235C124.992 178.235 125.091 178.223 125.184 178.199C125.277 178.175 125.361 178.143 125.436 178.104L125.612 178.905C125.483 178.974 125.334 179.03 125.166 179.072C125.001 179.114 124.83 179.135 124.653 179.135ZM128.367 179.135C127.968 179.135 127.638 179.056 127.377 178.896C127.119 178.734 126.926 178.521 126.797 178.257C126.668 177.993 126.603 177.705 126.603 177.393V174.545H127.593V177.209C127.593 177.515 127.683 177.761 127.863 177.947C128.043 178.13 128.295 178.221 128.619 178.221C128.931 178.221 129.192 178.118 129.402 177.911C129.615 177.701 129.722 177.426 129.722 177.087V174.545H130.712V179H129.821V178.473C129.647 178.683 129.44 178.847 129.2 178.964C128.96 179.078 128.682 179.135 128.367 179.135ZM133.938 179.135C133.503 179.135 133.118 179.033 132.782 178.829C132.446 178.622 132.182 178.341 131.99 177.987C131.801 177.63 131.706 177.225 131.706 176.772C131.706 176.334 131.801 175.937 131.99 175.58C132.179 175.223 132.443 174.939 132.782 174.729C133.121 174.516 133.511 174.41 133.952 174.41C134.291 174.41 134.592 174.468 134.856 174.585C135.12 174.699 135.348 174.86 135.54 175.067V172.52H136.53V179H135.639V178.365C135.468 178.593 135.242 178.779 134.96 178.923C134.681 179.065 134.34 179.135 133.938 179.135ZM134.118 178.257C134.532 178.257 134.873 178.124 135.14 177.857C135.41 177.59 135.545 177.228 135.545 176.772C135.545 176.316 135.41 175.955 135.14 175.688C134.873 175.421 134.532 175.287 134.118 175.287C133.704 175.287 133.364 175.421 133.097 175.688C132.83 175.955 132.696 176.316 132.696 176.772C132.696 177.228 132.83 177.59 133.097 177.857C133.367 178.124 133.707 178.257 134.118 178.257ZM139.941 179.135C139.461 179.135 139.04 179.038 138.677 178.842C138.314 178.644 138.03 178.368 137.826 178.014C137.625 177.66 137.525 177.249 137.525 176.781C137.525 176.322 137.627 175.914 137.831 175.557C138.035 175.2 138.314 174.92 138.668 174.716C139.025 174.512 139.43 174.41 139.883 174.41C140.372 174.41 140.789 174.524 141.134 174.752C141.482 174.977 141.735 175.284 141.894 175.674C142.053 176.064 142.098 176.504 142.029 176.993H138.474C138.465 177.392 138.599 177.714 138.875 177.96C139.151 178.203 139.523 178.325 139.991 178.325C140.243 178.325 140.486 178.287 140.72 178.212C140.957 178.134 141.171 178.02 141.363 177.87L141.746 178.581C141.527 178.758 141.248 178.895 140.909 178.991C140.573 179.087 140.25 179.135 139.941 179.135ZM138.533 176.264H141.057C141.048 175.928 140.94 175.664 140.733 175.472C140.526 175.28 140.235 175.184 139.86 175.184C139.491 175.184 139.187 175.28 138.947 175.472C138.707 175.664 138.569 175.928 138.533 176.264ZM143.692 175.701C143.497 175.701 143.331 175.641 143.193 175.521C143.055 175.398 142.986 175.236 142.986 175.035C142.986 174.831 143.055 174.669 143.193 174.549C143.331 174.426 143.497 174.365 143.692 174.365C143.884 174.365 144.049 174.426 144.187 174.549C144.325 174.669 144.394 174.831 144.394 175.035C144.394 175.236 144.325 175.398 144.187 175.521C144.049 175.641 143.884 175.701 143.692 175.701ZM143.692 179.135C143.497 179.135 143.331 179.075 143.193 178.955C143.055 178.832 142.986 178.67 142.986 178.469C142.986 178.265 143.055 178.103 143.193 177.983C143.331 177.86 143.497 177.798 143.692 177.798C143.884 177.798 144.049 177.86 144.187 177.983C144.325 178.103 144.394 178.265 144.394 178.469C144.394 178.67 144.325 178.832 144.187 178.955C144.049 179.075 143.884 179.135 143.692 179.135Z" fill="white" fill-opacity="0.6"/>
<path d="M157.231 179V177.744H154.144V176.885L156.313 172.7H157.488L155.359 176.786H157.231V175.445H158.221V176.786H159.157V177.744H158.221V179H157.231ZM162.479 179.135C162.068 179.135 161.7 179.05 161.376 178.878C161.052 178.707 160.778 178.47 160.553 178.167C160.328 177.864 160.157 177.515 160.04 177.119C159.923 176.723 159.864 176.3 159.864 175.85C159.864 175.397 159.923 174.972 160.04 174.576C160.157 174.18 160.328 173.832 160.553 173.532C160.778 173.229 161.052 172.992 161.376 172.821C161.7 172.65 162.068 172.565 162.479 172.565C162.89 172.565 163.256 172.65 163.577 172.821C163.901 172.992 164.175 173.229 164.4 173.532C164.625 173.832 164.796 174.18 164.913 174.576C165.033 174.972 165.093 175.397 165.093 175.85C165.093 176.3 165.033 176.723 164.913 177.119C164.796 177.515 164.625 177.864 164.4 178.167C164.175 178.47 163.901 178.707 163.577 178.878C163.256 179.05 162.89 179.135 162.479 179.135ZM162.479 178.113C162.926 178.113 163.284 177.915 163.554 177.519C163.827 177.12 163.964 176.564 163.964 175.85C163.964 175.136 163.827 174.581 163.554 174.185C163.284 173.786 162.926 173.586 162.479 173.586C162.035 173.586 161.676 173.786 161.403 174.185C161.13 174.581 160.994 175.136 160.994 175.85C160.994 176.564 161.13 177.12 161.403 177.519C161.676 177.915 162.035 178.113 162.479 178.113ZM166.69 179.135C166.48 179.135 166.298 179.069 166.145 178.937C165.992 178.802 165.916 178.623 165.916 178.401C165.916 178.176 165.992 177.998 166.145 177.866C166.298 177.731 166.48 177.663 166.69 177.663C166.903 177.663 167.084 177.731 167.234 177.866C167.387 177.998 167.464 178.176 167.464 178.401C167.464 178.623 167.387 178.802 167.234 178.937C167.084 179.069 166.903 179.135 166.69 179.135ZM168.682 179L171.265 173.748H168.345V172.7H172.566V173.55L169.924 179H168.682ZM174.981 179V173.946L173.419 174.513L173.113 173.604L175.98 172.565H176.061V179H174.981ZM179.408 179.135C179.009 179.135 178.622 179.074 178.247 178.95C177.875 178.827 177.59 178.671 177.392 178.482L177.765 177.537C177.948 177.72 178.182 177.866 178.467 177.974C178.755 178.079 179.045 178.131 179.336 178.131C179.729 178.131 180.044 178.035 180.281 177.844C180.518 177.648 180.636 177.39 180.636 177.069C180.636 176.739 180.515 176.483 180.272 176.3C180.032 176.114 179.714 176.021 179.318 176.021C179.081 176.021 178.833 176.052 178.575 176.115L178.247 175.364L180.11 173.667H177.45V172.7H181.469V173.591L179.709 175.296C180.063 175.299 180.395 175.37 180.704 175.508C181.013 175.643 181.263 175.847 181.455 176.12C181.65 176.393 181.748 176.733 181.748 177.141C181.748 177.534 181.647 177.881 181.446 178.181C181.248 178.481 180.974 178.715 180.623 178.883C180.272 179.051 179.867 179.135 179.408 179.135ZM182.787 179V178.194L184.142 176.961C184.568 176.571 184.907 176.241 185.159 175.971C185.414 175.698 185.597 175.454 185.708 175.238C185.822 175.019 185.879 174.8 185.879 174.581C185.879 174.26 185.769 174.009 185.55 173.829C185.331 173.649 185.025 173.559 184.632 173.559C184.356 173.559 184.091 173.609 183.836 173.708C183.581 173.807 183.36 173.954 183.174 174.149L182.76 173.298C183.027 173.061 183.333 172.88 183.678 172.754C184.023 172.628 184.382 172.565 184.754 172.565C185.201 172.565 185.589 172.644 185.919 172.803C186.252 172.959 186.51 173.178 186.693 173.46C186.876 173.742 186.968 174.074 186.968 174.455C186.968 174.713 186.915 174.969 186.81 175.224C186.708 175.479 186.527 175.766 186.266 176.084C186.005 176.402 185.634 176.786 185.154 177.236L184.304 178.023H187.13V179H182.787Z" fill="white"/>
<rect x="61.5" y="9.5" width="248" height="39" rx="19.5" fill="#1B1C1C" fill-opacity="0.96" stroke="url(#paint4_linear_2_899)"/>
<path d="M80.654 33.18C80.018 33.18 79.47 33.07 79.01 32.85C78.554 32.626 78.204 32.324 77.96 31.944C77.716 31.56 77.594 31.132 77.594 30.66C77.594 30.156 77.728 29.73 77.996 29.382C78.264 29.03 78.638 28.76 79.118 28.572C78.798 28.44 78.512 28.22 78.26 27.912C78.012 27.6 77.888 27.206 77.888 26.73C77.888 26.282 78.008 25.886 78.248 25.542C78.488 25.194 78.818 24.92 79.238 24.72C79.658 24.52 80.14 24.42 80.684 24.42C81.232 24.42 81.718 24.52 82.142 24.72C82.566 24.92 82.898 25.194 83.138 25.542C83.382 25.89 83.504 26.286 83.504 26.73C83.504 27.21 83.376 27.604 83.12 27.912C82.868 28.22 82.586 28.44 82.274 28.572C82.718 28.76 83.078 29.03 83.354 29.382C83.634 29.734 83.774 30.16 83.774 30.66C83.774 31.132 83.642 31.56 83.378 31.944C83.118 32.324 82.754 32.626 82.286 32.85C81.818 33.07 81.274 33.18 80.654 33.18ZM80.696 27.948C81.108 27.948 81.448 27.842 81.716 27.63C81.984 27.414 82.118 27.128 82.118 26.772C82.118 26.424 81.986 26.132 81.722 25.896C81.458 25.66 81.116 25.542 80.696 25.542C80.272 25.542 79.928 25.66 79.664 25.896C79.404 26.132 79.274 26.424 79.274 26.772C79.274 27.128 79.406 27.414 79.67 27.63C79.938 27.842 80.28 27.948 80.696 27.948ZM80.684 31.926C80.964 31.926 81.226 31.874 81.47 31.77C81.718 31.662 81.918 31.506 82.07 31.302C82.222 31.098 82.298 30.846 82.298 30.546C82.298 30.094 82.14 29.752 81.824 29.52C81.508 29.284 81.128 29.166 80.684 29.166C80.224 29.166 79.84 29.286 79.532 29.526C79.224 29.762 79.07 30.102 79.07 30.546C79.07 30.994 79.23 31.336 79.55 31.572C79.87 31.808 80.248 31.926 80.684 31.926ZM86.0214 33.18L85.4874 32.004C86.2434 31.912 86.8894 31.726 87.4254 31.446C87.9654 31.162 88.4014 30.814 88.7334 30.402C89.0694 29.99 89.3114 29.548 89.4594 29.076C89.2554 29.32 89.0034 29.514 88.7034 29.658C88.4074 29.802 88.0854 29.874 87.7374 29.874C87.2054 29.874 86.7294 29.76 86.3094 29.532C85.8894 29.3 85.5574 28.982 85.3134 28.578C85.0694 28.17 84.9474 27.704 84.9474 27.18C84.9474 26.66 85.0774 26.192 85.3374 25.776C85.6014 25.36 85.9654 25.03 86.4294 24.786C86.8974 24.542 87.4374 24.42 88.0494 24.42C88.6694 24.42 89.2214 24.554 89.7054 24.822C90.1894 25.09 90.5694 25.476 90.8454 25.98C91.1254 26.48 91.2654 27.084 91.2654 27.792C91.2654 28.508 91.1314 29.17 90.8634 29.778C90.5994 30.382 90.2294 30.918 89.7534 31.386C89.2774 31.854 88.7214 32.242 88.0854 32.55C87.4494 32.854 86.7614 33.064 86.0214 33.18ZM88.0494 28.644C88.5054 28.644 88.8894 28.504 89.2014 28.224C89.5134 27.944 89.6694 27.594 89.6694 27.174C89.6694 26.746 89.5154 26.396 89.2074 26.124C88.9034 25.848 88.5174 25.71 88.0494 25.71C87.5774 25.71 87.1894 25.848 86.8854 26.124C86.5814 26.396 86.4294 26.746 86.4294 27.174C86.4294 27.594 86.5834 27.944 86.8914 28.224C87.2034 28.504 87.5894 28.644 88.0494 28.644ZM93.4625 33.18C93.1825 33.18 92.9405 33.092 92.7365 32.916C92.5325 32.736 92.4305 32.498 92.4305 32.202C92.4305 31.902 92.5325 31.664 92.7365 31.488C92.9405 31.308 93.1825 31.218 93.4625 31.218C93.7465 31.218 93.9885 31.308 94.1885 31.488C94.3925 31.664 94.4945 31.902 94.4945 32.202C94.4945 32.498 94.3925 32.736 94.1885 32.916C93.9885 33.092 93.7465 33.18 93.4625 33.18ZM96.6071 33V26.262L94.5251 27.018L94.1171 25.806L97.9391 24.42H98.0471V33H96.6071ZM103.656 33V31.326H99.5397V30.18L102.432 24.6H103.998L101.16 30.048H103.656V28.26H104.976V30.048H106.224V31.326H104.976V33H103.656ZM108.216 33.18C107.936 33.18 107.694 33.092 107.49 32.916C107.286 32.736 107.184 32.498 107.184 32.202C107.184 31.902 107.286 31.664 107.49 31.488C107.694 31.308 107.936 31.218 108.216 31.218C108.5 31.218 108.742 31.308 108.942 31.488C109.146 31.664 109.248 31.902 109.248 32.202C109.248 32.498 109.146 32.736 108.942 32.916C108.742 33.092 108.5 33.18 108.216 33.18ZM111.361 33V26.262L109.279 27.018L108.871 25.806L112.693 24.42H112.801V33H111.361ZM114.774 33V31.926L116.58 30.282C117.148 29.762 117.6 29.322 117.936 28.962C118.276 28.598 118.52 28.272 118.668 27.984C118.82 27.692 118.896 27.4 118.896 27.108C118.896 26.68 118.75 26.346 118.458 26.106C118.166 25.866 117.758 25.746 117.234 25.746C116.866 25.746 116.512 25.812 116.172 25.944C115.832 26.076 115.538 26.272 115.29 26.532L114.738 25.398C115.094 25.082 115.502 24.84 115.962 24.672C116.422 24.504 116.9 24.42 117.396 24.42C117.992 24.42 118.51 24.526 118.95 24.738C119.394 24.946 119.738 25.238 119.982 25.614C120.226 25.99 120.348 26.432 120.348 26.94C120.348 27.284 120.278 27.626 120.138 27.966C120.002 28.306 119.76 28.688 119.412 29.112C119.064 29.536 118.57 30.048 117.93 30.648L116.796 31.698H120.564V33H114.774ZM122.865 33.18C122.585 33.18 122.343 33.092 122.139 32.916C121.935 32.736 121.833 32.498 121.833 32.202C121.833 31.902 121.935 31.664 122.139 31.488C122.343 31.308 122.585 31.218 122.865 31.218C123.149 31.218 123.391 31.308 123.591 31.488C123.795 31.664 123.897 31.902 123.897 32.202C123.897 32.498 123.795 32.736 123.591 32.916C123.391 33.092 123.149 33.18 122.865 33.18ZM126.009 33V26.262L123.927 27.018L123.519 25.806L127.341 24.42H127.449V33H126.009ZM129.422 33V31.926L131.228 30.282C131.796 29.762 132.248 29.322 132.584 28.962C132.924 28.598 133.168 28.272 133.316 27.984C133.468 27.692 133.544 27.4 133.544 27.108C133.544 26.68 133.398 26.346 133.106 26.106C132.814 25.866 132.406 25.746 131.882 25.746C131.514 25.746 131.16 25.812 130.82 25.944C130.48 26.076 130.186 26.272 129.938 26.532L129.386 25.398C129.742 25.082 130.15 24.84 130.61 24.672C131.07 24.504 131.548 24.42 132.044 24.42C132.64 24.42 133.158 24.526 133.598 24.738C134.042 24.946 134.386 25.238 134.63 25.614C134.874 25.99 134.996 26.432 134.996 26.94C134.996 27.284 134.926 27.626 134.786 27.966C134.65 28.306 134.408 28.688 134.06 29.112C133.712 29.536 133.218 30.048 132.578 30.648L131.444 31.698H135.212V33H129.422ZM139.025 33.18C138.493 33.18 137.977 33.098 137.477 32.934C136.981 32.77 136.601 32.562 136.337 32.31L136.835 31.05C137.079 31.294 137.391 31.488 137.771 31.632C138.155 31.772 138.541 31.842 138.929 31.842C139.453 31.842 139.873 31.714 140.189 31.458C140.505 31.198 140.663 30.854 140.663 30.426C140.663 29.986 140.501 29.644 140.177 29.4C139.857 29.152 139.433 29.028 138.905 29.028C138.589 29.028 138.259 29.07 137.915 29.154L137.477 28.152L139.961 25.89H136.415V24.6H141.773V25.788L139.427 28.062C139.899 28.066 140.341 28.16 140.753 28.344C141.165 28.524 141.499 28.796 141.755 29.16C142.015 29.524 142.145 29.978 142.145 30.522C142.145 31.046 142.011 31.508 141.743 31.908C141.479 32.308 141.113 32.62 140.645 32.844C140.177 33.068 139.637 33.18 139.025 33.18Z" fill="white"/>
<circle cx="290" cy="29" r="14" fill="#E5FF5D"/>
<g filter="url(#filter1_d_2_899)">
<path d="M292.503 30.5034H291.977L291.79 30.3234C292.443 29.5634 292.837 28.5767 292.837 27.5034C292.837 25.11 290.897 23.17 288.503 23.17C286.11 23.17 284.17 25.11 284.17 27.5034C284.17 29.8967 286.11 31.8367 288.503 31.8367C289.577 31.8367 290.563 31.4434 291.323 30.79L291.503 30.9767V31.5034L294.837 34.83L295.83 33.8367L292.503 30.5034ZM288.503 30.5034C286.843 30.5034 285.503 29.1634 285.503 27.5034C285.503 25.8434 286.843 24.5034 288.503 24.5034C290.163 24.5034 291.503 25.8434 291.503 27.5034C291.503 29.1634 290.163 30.5034 288.503 30.5034Z" fill="#090909"/>
</g>
</g>
<defs>
<filter id="filter0_f_2_899" x="-179" y="3" width="727" height="533" filterUnits="userSpaceOnUse" color-interpolation-filters="sRGB">
<feFlood flood-opacity="0" result="BackgroundImageFix"/>
<feBlend mode="normal" in="SourceGraphic" in2="BackgroundImageFix" result="shape"/>
<feGaussianBlur stdDeviation="64" result="effect1_foregroundBlur_2_899"/>
</filter>
<filter id="filter1_d_2_899" x="266" y="9" width="48" height="48" filterUnits="userSpaceOnUse" color-interpolation-filters="sRGB">
<feFlood flood-opacity="0" result="BackgroundImageFix"/>
<feColorMatrix in="SourceAlpha" type="matrix" values="0 0 0 0 0 0 0 0 0 0 0 0 0 0 0 0 0 0 127 0" result="hardAlpha"/>
<feOffset dy="4"/>
<feGaussianBlur stdDeviation="8"/>
<feComposite in2="hardAlpha" operator="out"/>
<feColorMatrix type="matrix" values="0 0 0 0 0.607433 0 0 0 0 0.708431 0 0 0 0 0.0791335 0 0 0 1 0"/>
<feBlend mode="normal" in2="BackgroundImageFix" result="effect1_dropShadow_2_899"/>
<feBlend mode="normal" in="SourceGraphic" in2="effect1_dropShadow_2_899" result="shape"/>
</filter>
<radialGradient id="paint0_radial_2_899" cx="0" cy="0" r="1" gradientUnits="userSpaceOnUse" gradientTransform="translate(181 260) rotate(90) scale(186)">
<stop stop-color="#FFF0F0"/>
<stop offset="1" stop-color="#3B3B3B"/>
</radialGradient>
<radialGradient id="paint1_radial_2_899" cx="0" cy="0" r="1" gradientUnits="userSpaceOnUse" gradientTransform="translate(262 260) rotate(90) scale(112)">
<stop stop-color="#FFF0F0"/>
<stop offset="1" stop-color="#3B3B3B"/>
</radialGradient>
<radialGradient id="paint2_radial_2_899" cx="0" cy="0" r="1" gradientUnits="userSpaceOnUse" gradientTransform="translate(262 260) rotate(90) scale(256)">
<stop stop-color="#FFF0F0"/>
<stop offset="1" stop-color="#3B3B3B"/>
</radialGradient>
<linearGradient id="paint3_linear_2_899" x1="-0.266042" y1="318.904" x2="390.763" y2="175.97" gradientUnits="userSpaceOnUse">
<stop stop-color="#5DA8FF" stop-opacity="0.3"/>
<stop offset="1" stop-color="#899938"/>
</linearGradient>
<linearGradient id="paint4_linear_2_899" x1="310" y1="42.8462" x2="86.0112" y2="-50.8143" gradientUnits="userSpaceOnUse">
<stop stop-color="#E5FF5D"/>
<stop offset="1" stop-color="#5DFFFF"/>
</linearGradient>
<clipPath id="clip0_2_899">
<rect width="368" height="222" fill="white"/>
</clipPath>
</defs>
</svg>
