<svg width="281" height="170" viewBox="0 0 281 170" fill="none" xmlns="http://www.w3.org/2000/svg">
<g clip-path="url(#clip0_641_1221)">
<path d="M35.8887 39.0389L136.271 131.712L66.4261 124.084M248.929 39.0389L149.029 131.712L215.987 124.084M142.89 127.517V35.2252" stroke="url(#paint0_linear_641_1221)" stroke-linejoin="round"/>
<rect x="61.5869" y="120.725" width="5.1087" height="5.12613" rx="2.55435" stroke="#5D6061"/>
<rect x="215.832" y="120.725" width="5.1087" height="5.12613" rx="2.55435" stroke="#5D6061"/>
<rect x="140.618" y="29.5991" width="5.1087" height="5.12613" rx="2.55435" stroke="#5D6061"/>
<g filter="url(#filter0_dd_641_1221)">
<rect x="45.8152" y="63.5585" width="190.133" height="30.6306" rx="15.3153" fill="#1B1C1C" fill-opacity="0.96" shape-rendering="crispEdges"/>
<rect x="46.3152" y="64.0585" width="189.133" height="29.6306" rx="14.8153" stroke="#323638" shape-rendering="crispEdges"/>
</g>
<rect opacity="0.2" x="39.4429" y="57.1666" width="202.878" height="43.4144" rx="21.7072" stroke="url(#paint1_linear_641_1221)"/>
<path d="M61.5863 82.0747C61.1007 82.0747 60.6822 81.9889 60.331 81.8174C59.9828 81.6459 59.7155 81.4146 59.5292 81.1236C59.3429 80.8326 59.2498 80.5064 59.2498 80.145C59.2498 79.8877 59.2956 79.6564 59.3872 79.4512C59.4788 79.2459 59.6117 79.0683 59.7858 78.9182C59.9599 78.765 60.1691 78.641 60.4135 78.546C60.1691 78.445 59.9507 78.2765 59.7583 78.0406C59.5689 77.8017 59.4743 77.5 59.4743 77.1355C59.4743 76.7924 59.5659 76.4877 59.7491 76.2212C59.9324 75.9547 60.1844 75.7464 60.5051 75.5963C60.8258 75.4432 61.1938 75.3666 61.6092 75.3666C62.0277 75.3666 62.3988 75.4432 62.7225 75.5963C63.0494 75.7495 63.3044 75.9593 63.4877 76.2258C63.6709 76.4923 63.7626 76.7955 63.7626 77.1355C63.7626 77.3805 63.7167 77.5965 63.6251 77.7833C63.5365 77.9671 63.4205 78.1233 63.2769 78.252C63.1334 78.3806 62.9822 78.4786 62.8233 78.546C63.1654 78.69 63.4418 78.8968 63.6526 79.1663C63.8633 79.4359 63.9687 79.7621 63.9687 80.145C63.9687 80.5064 63.8679 80.8326 63.6663 81.1236C63.4678 81.4146 63.1899 81.6459 62.8325 81.8174C62.4751 81.9889 62.0598 82.0747 61.5863 82.0747ZM61.6092 81.1144C61.823 81.1144 62.0231 81.0746 62.2094 80.995C62.3988 80.9123 62.5515 80.7928 62.6676 80.6366C62.7836 80.4804 62.8417 80.2874 62.8417 80.0577C62.8417 79.8279 62.7852 79.635 62.6722 79.4787C62.5622 79.3195 62.4141 79.2 62.2277 79.1204C62.0414 79.0407 61.8353 79.0009 61.6092 79.0009C61.258 79.0009 60.9648 79.0913 60.7296 79.272C60.4944 79.4527 60.3768 79.7146 60.3768 80.0577C60.3768 80.2874 60.4333 80.4804 60.5463 80.6366C60.6593 80.7928 60.809 80.9123 60.9953 80.995C61.1816 81.0746 61.3863 81.1144 61.6092 81.1144ZM61.6184 78.0682C61.8292 78.0682 62.0155 78.0314 62.1773 77.9579C62.3423 77.8814 62.4706 77.7757 62.5622 77.6409C62.6569 77.5061 62.7042 77.3484 62.7042 77.1677C62.7042 76.8981 62.6034 76.6745 62.4018 76.4968C62.2003 76.3161 61.9391 76.2258 61.6184 76.2258C61.4046 76.2258 61.2152 76.2671 61.0503 76.3498C60.8884 76.4325 60.7617 76.5459 60.67 76.6898C60.5784 76.8307 60.5326 76.99 60.5326 77.1677C60.5326 77.4403 60.6349 77.6593 60.8395 77.8247C61.0442 77.987 61.3038 78.0682 61.6184 78.0682Z" fill="white"/>
<path d="M65.6848 82.0747L65.277 81.1741C65.7108 81.119 66.0971 81.0241 66.4362 80.8893C66.7752 80.7514 67.0684 80.583 67.3158 80.3839C67.5663 80.1817 67.7724 79.9566 67.9343 79.7085C68.0993 79.4604 68.2245 79.2015 68.31 78.932C68.1573 79.1188 67.9664 79.2674 67.7373 79.3777C67.5082 79.4879 67.2608 79.5431 66.9951 79.5431C66.5919 79.5431 66.2285 79.4558 65.9047 79.2812C65.584 79.1035 65.3305 78.86 65.1442 78.5506C64.9579 78.2382 64.8647 77.8814 64.8647 77.4801C64.8647 77.0819 64.964 76.7235 65.1625 76.405C65.3641 76.0864 65.6436 75.8337 66.0009 75.6468C66.3583 75.46 66.7691 75.3666 67.2333 75.3666C67.7098 75.3666 68.1313 75.4692 68.4978 75.6744C68.8674 75.8796 69.1576 76.1752 69.3683 76.5612C69.5821 76.9441 69.689 77.4066 69.689 77.9487C69.689 78.497 69.5867 79.004 69.3821 79.4696C69.1805 79.9321 68.898 80.3425 68.5345 80.7009C68.171 81.0593 67.7465 81.3564 67.2608 81.5923C66.7752 81.825 66.2498 81.9859 65.6848 82.0747ZM67.2333 78.6012C67.4685 78.6012 67.6778 78.5522 67.861 78.4541C68.0473 78.3561 68.1955 78.2214 68.3054 78.0498C68.4154 77.8783 68.4704 77.6868 68.4704 77.4755C68.4704 77.255 68.4169 77.062 68.31 76.8966C68.2031 76.7281 68.0565 76.5964 67.8702 76.5014C67.6869 76.4034 67.4746 76.3544 67.2333 76.3544C66.9951 76.3544 66.7813 76.4034 66.5919 76.5014C66.4056 76.5964 66.259 76.7281 66.1521 76.8966C66.0483 77.062 65.9963 77.255 65.9963 77.4755C65.9963 77.6868 66.0498 77.8783 66.1567 78.0498C66.2666 78.2214 66.4148 78.3561 66.6011 78.4541C66.7905 78.5522 67.0012 78.6012 67.2333 78.6012Z" fill="white"/>
<path d="M71.3667 82.0747C71.1529 82.0747 70.9681 82.0073 70.8124 81.8725C70.6566 81.7347 70.5787 81.5524 70.5787 81.3258C70.5787 81.1726 70.6138 81.0394 70.6841 80.926C70.7574 80.8127 70.8536 80.7254 70.9727 80.6641C71.0918 80.6029 71.2232 80.5723 71.3667 80.5723C71.5836 80.5723 71.7684 80.6412 71.9211 80.779C72.0769 80.9138 72.1548 81.096 72.1548 81.3258C72.1548 81.4759 72.1181 81.6076 72.0448 81.7209C71.9746 81.8342 71.8799 81.9215 71.7607 81.9828C71.6416 82.0441 71.5103 82.0747 71.3667 82.0747Z" fill="white"/>
<path d="M73.7679 81.9368V76.7771L72.1781 77.356L71.8666 76.4279L74.785 75.3666H74.8674V81.9368H73.7679Z" fill="white"/>
<path d="M79.1501 81.9368V80.655H76.0072V79.7774L78.2155 75.5044H79.4112L77.2442 79.6763H79.1501V78.3071H80.158V79.6763H81.111V80.655H80.158V81.9368H79.1501Z" fill="white"/>
<path d="M82.6326 82.0747C82.4188 82.0747 82.234 82.0073 82.0783 81.8725C81.9225 81.7347 81.8446 81.5524 81.8446 81.3258C81.8446 81.1726 81.8797 81.0394 81.95 80.926C82.0233 80.8127 82.1195 80.7254 82.2386 80.6641C82.3577 80.6029 82.4891 80.5723 82.6326 80.5723C82.8495 80.5723 83.0343 80.6412 83.187 80.779C83.3428 80.9138 83.4206 81.096 83.4206 81.3258C83.4206 81.4759 83.384 81.6076 83.3107 81.7209C83.2404 81.8342 83.1458 81.9215 83.0266 81.9828C82.9075 82.0441 82.7762 82.0747 82.6326 82.0747Z" fill="white"/>
<path d="M85.0338 81.9368V76.7771L83.444 77.356L83.1324 76.4279L86.0509 75.3666H86.1333V81.9368H85.0338Z" fill="white"/>
<path d="M87.6396 81.9368V81.1144L89.0186 79.8555C89.4523 79.4573 89.799 79.1204 90.0586 78.8447C90.3182 78.5659 90.5046 78.3163 90.6176 78.0958C90.7306 77.8722 90.7871 77.6486 90.7871 77.425C90.7871 77.0941 90.6756 76.8384 90.4526 76.6577C90.2327 76.4739 89.9212 76.382 89.518 76.382C89.237 76.382 88.9667 76.4325 88.7071 76.5336C88.4505 76.6347 88.226 76.7848 88.0336 76.9839L87.6121 76.1155C87.8839 75.8735 88.1955 75.6882 88.5467 75.5596C88.898 75.4309 89.263 75.3666 89.6417 75.3666C90.0968 75.3666 90.4923 75.4462 90.8283 75.6055C91.1674 75.7648 91.43 75.9899 91.6163 76.2809C91.8027 76.5688 91.8958 76.9073 91.8958 77.2963C91.8958 77.5597 91.8439 77.8216 91.74 78.082C91.6362 78.3423 91.4499 78.6349 91.1811 78.9596C90.9154 79.2842 90.5382 79.6763 90.0495 80.1358L89.1836 80.9398H92.0608V81.9368H87.6396Z" fill="white"/>
<path d="M93.818 82.0747C93.6042 82.0747 93.4194 82.0073 93.2636 81.8725C93.1078 81.7347 93.03 81.5524 93.03 81.3258C93.03 81.1726 93.0651 81.0394 93.1353 80.926C93.2086 80.8127 93.3049 80.7254 93.424 80.6641C93.5431 80.6029 93.6744 80.5723 93.818 80.5723C94.0348 80.5723 94.2196 80.6412 94.3723 80.779C94.5281 80.9138 94.606 81.096 94.606 81.3258C94.606 81.4759 94.5694 81.6076 94.496 81.7209C94.4258 81.8342 94.3311 81.9215 94.212 81.9828C94.0929 82.0441 93.9615 82.0747 93.818 82.0747Z" fill="white"/>
<path d="M96.2191 81.9368V76.7771L94.6293 77.356L94.3178 76.4279L97.2362 75.3666H97.3187V81.9368H96.2191Z" fill="white"/>
<path d="M98.8249 81.9368V81.1144L100.204 79.8555C100.638 79.4573 100.984 79.1204 101.244 78.8447C101.504 78.5659 101.69 78.3163 101.803 78.0958C101.916 77.8722 101.972 77.6486 101.972 77.425C101.972 77.0941 101.861 76.8384 101.638 76.6577C101.418 76.4739 101.107 76.382 100.703 76.382C100.422 76.382 100.152 76.4325 99.8924 76.5336C99.6359 76.6347 99.4114 76.7848 99.219 76.9839L98.7975 76.1155C99.0693 75.8735 99.3808 75.6882 99.7321 75.5596C100.083 75.4309 100.448 75.3666 100.827 75.3666C101.282 75.3666 101.678 75.4462 102.014 75.6055C102.353 75.7648 102.615 75.9899 102.802 76.2809C102.988 76.5688 103.081 76.9073 103.081 77.2963C103.081 77.5597 103.029 77.8216 102.925 78.082C102.822 78.3423 102.635 78.6349 102.366 78.9596C102.101 79.2842 101.724 79.6763 101.235 80.1358L100.369 80.9398H103.246V81.9368H98.8249Z" fill="white"/>
<path d="M106.158 82.0747C105.886 82.0747 105.619 82.0456 105.356 81.9874C105.093 81.9292 104.852 81.8511 104.632 81.7531C104.415 81.652 104.24 81.5371 104.105 81.4085L104.486 80.4436C104.672 80.6274 104.912 80.7744 105.205 80.8847C105.498 80.995 105.791 81.0501 106.085 81.0501C106.353 81.0501 106.587 81.0057 106.786 80.9168C106.984 80.825 107.137 80.6978 107.244 80.5355C107.354 80.3732 107.409 80.1832 107.409 79.9658C107.409 79.6258 107.285 79.3623 107.038 79.1755C106.793 78.9886 106.469 78.8952 106.066 78.8952C105.95 78.8952 105.828 78.9029 105.7 78.9182C105.571 78.9335 105.442 78.958 105.31 78.9917L104.976 78.2244L106.873 76.4923H104.165V75.5044H108.256V76.4141L106.465 78.1555C106.825 78.1586 107.163 78.2305 107.477 78.3714C107.795 78.5093 108.052 78.7176 108.247 78.9963C108.443 79.275 108.54 79.6227 108.54 80.0393C108.54 80.4405 108.438 80.7943 108.233 81.1006C108.032 81.4039 107.752 81.6428 107.395 81.8174C107.038 81.9889 106.625 82.0747 106.158 82.0747Z" fill="white"/>
<ellipse cx="220.677" cy="78.8738" rx="10.6902" ry="10.7207" fill="white" fill-opacity="0.07"/>
<g filter="url(#filter1_d_641_1221)">
<path d="M222.588 80.025H222.186L222.043 79.8872C222.542 79.3052 222.843 78.5497 222.843 77.7277C222.843 75.895 221.361 74.4094 219.534 74.4094C217.706 74.4094 216.225 75.895 216.225 77.7277C216.225 79.5605 217.706 81.0461 219.534 81.0461C220.353 81.0461 221.107 80.7449 221.687 80.2446L221.824 80.3875V80.7908L224.37 83.3383L225.128 82.5776L222.588 80.025ZM219.534 80.025C218.266 80.025 217.243 78.9989 217.243 77.7277C217.243 76.4566 218.266 75.4304 219.534 75.4304C220.801 75.4304 221.824 76.4566 221.824 77.7277C221.824 78.9989 220.801 80.025 219.534 80.025Z" fill="white"/>
</g>
<ellipse cx="32.0707" cy="35.2252" rx="13.7446" ry="13.7838" fill="#5DA8FF"/>
<path d="M36.652 37.1943V39.8198H27.4889V37.1943H36.652ZM37.3065 35.8816H26.8344C26.4745 35.8816 26.1799 36.1769 26.1799 36.5379V40.4762C26.1799 40.8372 26.4745 41.1325 26.8344 41.1325H37.3065C37.6665 41.1325 37.961 40.8372 37.961 40.4762V36.5379C37.961 36.1769 37.6665 35.8816 37.3065 35.8816ZM28.7979 39.4916C28.2613 39.4916 27.8162 39.0518 27.8162 38.5071C27.8162 37.9623 28.2613 37.5225 28.7979 37.5225C29.3346 37.5225 29.7797 37.9623 29.7797 38.5071C29.7797 39.0518 29.3412 39.4916 28.7979 39.4916ZM36.652 30.6306V33.2561H27.4889V30.6306H36.652ZM37.3065 29.3179H26.8344C26.4745 29.3179 26.1799 29.6132 26.1799 29.9742V33.9125C26.1799 34.2735 26.4745 34.5688 26.8344 34.5688H37.3065C37.6665 34.5688 37.961 34.2735 37.961 33.9125V29.9742C37.961 29.6132 37.6665 29.3179 37.3065 29.3179ZM28.7979 32.9279C28.2613 32.9279 27.8162 32.4881 27.8162 31.9434C27.8162 31.3986 28.2613 30.9588 28.7979 30.9588C29.3346 30.9588 29.7797 31.4051 29.7797 31.9434C29.7797 32.4816 29.3412 32.9279 28.7979 32.9279Z" fill="white"/>
<ellipse cx="248.929" cy="35.2252" rx="13.7446" ry="13.7838" fill="#E5FF5D"/>
<path d="M248.929 28.6615L243.693 30.6306V34.6279C243.693 37.9426 245.925 41.0341 248.929 41.7889C251.933 41.0341 254.165 37.9426 254.165 34.6279V30.6306L248.929 28.6615ZM252.856 34.6279C252.856 37.2534 251.187 39.682 248.929 40.4237C246.671 39.682 245.002 37.26 245.002 34.6279V31.543L248.929 30.0661L252.856 31.543V34.6279Z" fill="#0D0D0D"/>
<ellipse cx="140.5" cy="131.712" rx="12.981" ry="13.018" fill="#A1FFB0"/>
<path d="M141.118 137.911H146.064V133.572H144.209V131.092H141.118V129.852H142.973V125.513H138.028V129.852H139.882V131.092H136.791V133.572H134.937V137.911H139.882V133.572H138.028V132.332H142.973V133.572H141.118V137.911ZM139.264 128.612V126.753H141.737V128.612H139.264ZM138.646 134.811V136.671H136.173V134.811H138.646ZM144.827 134.811V136.671H142.355V134.811H144.827Z" fill="#0D0D0D"/>
</g>
<defs>
<filter id="filter0_dd_641_1221" x="-18.1848" y="3.55847" width="318.133" height="158.631" filterUnits="userSpaceOnUse" color-interpolation-filters="sRGB">
<feFlood flood-opacity="0" result="BackgroundImageFix"/>
<feColorMatrix in="SourceAlpha" type="matrix" values="0 0 0 0 0 0 0 0 0 0 0 0 0 0 0 0 0 0 127 0" result="hardAlpha"/>
<feOffset dy="4"/>
<feGaussianBlur stdDeviation="32"/>
<feComposite in2="hardAlpha" operator="out"/>
<feColorMatrix type="matrix" values="0 0 0 0 0.898039 0 0 0 0 1 0 0 0 0 0.364706 0 0 0 0.3 0"/>
<feBlend mode="normal" in2="BackgroundImageFix" result="effect1_dropShadow_641_1221"/>
<feColorMatrix in="SourceAlpha" type="matrix" values="0 0 0 0 0 0 0 0 0 0 0 0 0 0 0 0 0 0 127 0" result="hardAlpha"/>
<feOffset/>
<feGaussianBlur stdDeviation="16"/>
<feComposite in2="hardAlpha" operator="out"/>
<feColorMatrix type="matrix" values="0 0 0 0 0.363818 0 0 0 0 1 0 0 0 0 1 0 0 0 0.2 0"/>
<feBlend mode="normal" in2="effect1_dropShadow_641_1221" result="effect2_dropShadow_641_1221"/>
<feBlend mode="normal" in="SourceGraphic" in2="effect2_dropShadow_641_1221" result="shape"/>
</filter>
<filter id="filter1_d_641_1221" x="198.568" y="60.7477" width="44.2173" height="44.2522" filterUnits="userSpaceOnUse" color-interpolation-filters="sRGB">
<feFlood flood-opacity="0" result="BackgroundImageFix"/>
<feColorMatrix in="SourceAlpha" type="matrix" values="0 0 0 0 0 0 0 0 0 0 0 0 0 0 0 0 0 0 127 0" result="hardAlpha"/>
<feOffset dy="4"/>
<feGaussianBlur stdDeviation="8"/>
<feComposite in2="hardAlpha" operator="out"/>
<feColorMatrix type="matrix" values="0 0 0 0 0.607433 0 0 0 0 0.708431 0 0 0 0 0.0791335 0 0 0 1 0"/>
<feBlend mode="normal" in2="BackgroundImageFix" result="effect1_dropShadow_641_1221"/>
<feBlend mode="normal" in="SourceGraphic" in2="effect1_dropShadow_641_1221" result="shape"/>
</filter>
<linearGradient id="paint0_linear_641_1221" x1="35.8887" y1="81.3709" x2="248.929" y2="81.3709" gradientUnits="userSpaceOnUse">
<stop stop-color="#5D6061" stop-opacity="0"/>
<stop offset="0.5" stop-color="#5D6061"/>
<stop offset="1" stop-color="#5D6061" stop-opacity="0"/>
</linearGradient>
<linearGradient id="paint1_linear_641_1221" x1="242.821" y1="94.2481" x2="46.062" y2="33.5786" gradientUnits="userSpaceOnUse">
<stop stop-color="#E5FF5D"/>
<stop offset="1" stop-color="#5DFFFF"/>
</linearGradient>
<clipPath id="clip0_641_1221">
<rect width="281" height="170" fill="white"/>
</clipPath>
</defs>
</svg>
