<svg width="282" height="170" viewBox="0 0 282 170" fill="none" xmlns="http://www.w3.org/2000/svg">
<g clip-path="url(#clip0_641_1290)">
<path d="M195.333 57C195.333 58.4728 196.527 59.6667 198 59.6667C199.473 59.6667 200.667 58.4728 200.667 57C200.667 55.5272 199.473 54.3333 198 54.3333C196.527 54.3333 195.333 55.5272 195.333 57ZM197.551 56.7792L194.566 62.845L195.463 63.2866L198.449 57.2208L197.551 56.7792ZM180.659 71.5H168V72.5H180.659V71.5ZM194.566 62.845C191.958 68.1438 186.565 71.5 180.659 71.5V72.5C186.946 72.5 192.687 68.9273 195.463 63.2866L194.566 62.845Z" fill="white" fill-opacity="0.07"/>
<rect x="165.5" y="33.5" width="67" height="18" rx="6.5" fill="#1A1B1A" stroke="#E5FF5D"/>
<path d="M174.136 46L172.903 45.0823L174.544 42.9859L172 42.2661L172.486 40.7455L174.934 41.7262L174.787 39H176.323L176.184 41.6992L178.632 40.7365L179.119 42.2571L176.575 42.9589L178.242 45.0823L176.983 45.991L175.568 43.7147L174.136 46Z" fill="#898989"/>
<path d="M183.512 46L182.279 45.0823L183.92 42.9859L181.376 42.2661L181.862 40.7455L184.311 41.7262L184.163 39H185.699L185.561 41.6992L188.009 40.7365L188.495 42.2571L185.951 42.9589L187.618 45.0823L186.359 45.991L184.944 43.7147L183.512 46Z" fill="#898989"/>
<path d="M192.888 46L191.655 45.0823L193.296 42.9859L190.753 42.2661L191.239 40.7455L193.687 41.7262L193.539 39H195.076L194.937 41.6992L197.385 40.7365L197.871 42.2571L195.328 42.9589L196.994 45.0823L195.736 45.991L194.321 43.7147L192.888 46Z" fill="#898989"/>
<path d="M202.264 46L201.032 45.0823L202.672 42.9859L200.129 42.2661L200.615 40.7455L203.063 41.7262L202.916 39H204.452L204.313 41.6992L206.761 40.7365L207.247 42.2571L204.704 42.9589L206.371 45.0823L205.112 45.991L203.697 43.7147L202.264 46Z" fill="#898989"/>
<path d="M211.641 46L210.408 45.0823L212.049 42.9859L209.505 42.2661L209.991 40.7455L212.439 41.7262L212.292 39H213.828L213.689 41.6992L216.138 40.7365L216.624 42.2571L214.08 42.9589L215.747 45.0823L214.488 45.991L213.073 43.7147L211.641 46Z" fill="#898989"/>
<path d="M221.017 46L219.784 45.0823L221.425 42.9859L218.881 42.2661L219.368 40.7455L221.816 41.7262L221.668 39H223.205L223.066 41.6992L225.514 40.7365L226 42.2571L223.456 42.9589L225.123 45.0823L223.864 45.991L222.449 43.7147L221.017 46Z" fill="#898989"/>
<g filter="url(#filter0_d_641_1290)">
<rect x="106" y="57" width="68" height="68" rx="34" fill="url(#paint0_linear_641_1290)" fill-opacity="0.1" shape-rendering="crispEdges"/>
<rect x="106.5" y="57.5" width="67" height="67" rx="33.5" stroke="white" stroke-opacity="0.1" shape-rendering="crispEdges"/>
</g>
<g filter="url(#filter1_d_641_1290)">
<circle cx="141" cy="127" r="11.625" fill="#E5FF5D"/>
</g>
<circle cx="141" cy="127" r="12" fill="#E5FF5D"/>
<path d="M138.5 125C138.225 125 138 125.225 138 125.5V128.5C138 129.05 138.45 129.5 139 129.5H143C143.275 129.5 143.5 129.275 143.5 129C143.5 128.725 143.275 128.5 143 128.5H139V125.5C139 125.225 138.775 125 138.5 125Z" fill="#0D0D0D"/>
<path d="M145 122.5H141C140.45 122.5 140 122.95 140 123.5V126.5C140 127.05 140.45 127.5 141 127.5H145C145.55 127.5 146 127.05 146 126.5V123.5C146 122.95 145.55 122.5 145 122.5ZM145 126.5H141V124.5H145V126.5Z" fill="#0D0D0D"/>
<path d="M136.5 127C136.225 127 136 127.225 136 127.5V130.5C136 131.05 136.45 131.5 137 131.5H141C141.275 131.5 141.5 131.275 141.5 131C141.5 130.725 141.275 130.5 141 130.5H137V127.5C137 127.225 136.775 127 136.5 127Z" fill="#0D0D0D"/>
<path d="M123.533 61C123.533 61.0342 123.533 61.0683 123.532 61.1024C128.218 61.1568 132 64.9185 132 69.5509C132 74.1832 128.218 77.9449 123.533 77.9994V78H87.1848C80.4553 78 75 72.6221 75 65.988C75 59.354 80.4553 53.976 87.1848 53.976C88.295 53.976 89.3706 54.1224 90.3927 54.3967C93.0072 48.2878 99.1397 44 106.288 44C115.812 44 123.533 51.6112 123.533 61Z" fill="#151515" stroke="#5DFFFF"/>
<path d="M57.6667 67C57.6667 68.4728 56.4728 69.6667 55 69.6667C53.5272 69.6667 52.3333 68.4728 52.3333 67C52.3333 65.5272 53.5272 64.3333 55 64.3333C56.4728 64.3333 57.6667 65.5272 57.6667 67ZM107 89.5H77.1494V88.5H107V89.5ZM62.9526 81.4084L54.5698 67.2548L55.4302 66.7452L63.813 80.8988L62.9526 81.4084ZM77.1494 89.5C71.32 89.5 65.9232 86.424 62.9526 81.4084L63.813 80.8988C66.6036 85.6105 71.6733 88.5 77.1494 88.5V89.5Z" fill="white" fill-opacity="0.07"/>
<path d="M107 98L2 98" stroke="white" stroke-opacity="0.07"/>
<path d="M59.6667 123C59.6667 124.473 58.4728 125.667 57 125.667C55.5272 125.667 54.3333 124.473 54.3333 123C54.3333 121.527 55.5272 120.333 57 120.333C58.4728 120.333 59.6667 121.527 59.6667 123ZM62.633 114.302L63.0527 114.574L62.633 114.302ZM110 107.5H76.0625V106.5H110V107.5ZM63.0527 114.574L57.4197 123.272L56.5803 122.728L62.2133 114.031L63.0527 114.574ZM76.0625 107.5C70.807 107.5 65.9095 110.163 63.0527 114.574L62.2133 114.031C65.2545 109.335 70.4679 106.5 76.0625 106.5V107.5Z" fill="white" fill-opacity="0.07"/>
<path d="M174 89H201.729H280.5" stroke="white" stroke-opacity="0.07"/>
<path d="M170 106H212.638" stroke="white" stroke-opacity="0.07"/>
<circle cx="206" cy="106" r="12" fill="#5DA8FF"/>
<path d="M208.777 108.283C209.452 107.511 209.86 106.503 209.86 105.4C209.86 102.97 207.877 101 205.43 101C202.983 101 201 102.97 201 105.4C201 107.83 202.983 109.8 205.43 109.8C206.767 109.8 207.965 109.212 208.777 108.283ZM208.777 108.283L211.5 111" stroke="white"/>
<path d="M148 91C148 86.5817 144.418 83 140 83" stroke="#E5FF5D"/>
<path d="M140 72C150.493 72 159 80.5066 159 91C159 96.1373 156.961 100.798 153.648 104.218" stroke="#E5FF5D"/>
<path d="M140 121C156.569 121 170 107.569 170 91C170 74.4315 156.569 61 140 61" stroke="#E5FF5D"/>
<path d="M140 90V61C148.761 61 156.625 64.7972 162 70.8178L140 90Z" fill="url(#paint1_linear_641_1290)"/>
</g>
<defs>
<filter id="filter0_d_641_1290" x="42" y="-3" width="196" height="196" filterUnits="userSpaceOnUse" color-interpolation-filters="sRGB">
<feFlood flood-opacity="0" result="BackgroundImageFix"/>
<feColorMatrix in="SourceAlpha" type="matrix" values="0 0 0 0 0 0 0 0 0 0 0 0 0 0 0 0 0 0 127 0" result="hardAlpha"/>
<feOffset dy="4"/>
<feGaussianBlur stdDeviation="32"/>
<feComposite in2="hardAlpha" operator="out"/>
<feColorMatrix type="matrix" values="0 0 0 0 0.898039 0 0 0 0 1 0 0 0 0 0.364706 0 0 0 0.3 0"/>
<feBlend mode="normal" in2="BackgroundImageFix" result="effect1_dropShadow_641_1290"/>
<feBlend mode="normal" in="SourceGraphic" in2="effect1_dropShadow_641_1290" result="shape"/>
</filter>
<filter id="filter1_d_641_1290" x="97.375" y="87.375" width="87.25" height="87.25" filterUnits="userSpaceOnUse" color-interpolation-filters="sRGB">
<feFlood flood-opacity="0" result="BackgroundImageFix"/>
<feColorMatrix in="SourceAlpha" type="matrix" values="0 0 0 0 0 0 0 0 0 0 0 0 0 0 0 0 0 0 127 0" result="hardAlpha"/>
<feOffset dy="4"/>
<feGaussianBlur stdDeviation="16"/>
<feComposite in2="hardAlpha" operator="out"/>
<feColorMatrix type="matrix" values="0 0 0 0 0.898039 0 0 0 0 1 0 0 0 0 0.364706 0 0 0 1 0"/>
<feBlend mode="normal" in2="BackgroundImageFix" result="effect1_dropShadow_641_1290"/>
<feBlend mode="normal" in="SourceGraphic" in2="effect1_dropShadow_641_1290" result="shape"/>
</filter>
<linearGradient id="paint0_linear_641_1290" x1="140" y1="57" x2="140" y2="125" gradientUnits="userSpaceOnUse">
<stop stop-color="white"/>
<stop offset="1" stop-color="#737373"/>
</linearGradient>
<linearGradient id="paint1_linear_641_1290" x1="140" y1="59.1875" x2="154.521" y2="72.0395" gradientUnits="userSpaceOnUse">
<stop stop-color="#E5FF5D"/>
<stop offset="1" stop-color="#E5FF5D" stop-opacity="0"/>
</linearGradient>
<clipPath id="clip0_641_1290">
<rect width="282" height="170" fill="white"/>
</clipPath>
</defs>
</svg>
