<svg width="368" height="222" fill="none" xmlns="http://www.w3.org/2000/svg"><g clip-path="url(#a)"><g filter="url(#b)" shape-rendering="crispEdges"><path fill="url(#c)" fill-opacity=".1" d="M134 69h98v98h-98z"/><path stroke="#fff" stroke-opacity=".1" d="M134.5 69.5h97v97h-97z"/></g><path fill="#E5FF5D" d="M99 158h4v4h-4z"/><path fill="#fff" fill-opacity=".1" d="M107 158h4v4h-4z"/><path fill="#E5FF5D" d="M115 158h4v4h-4zm-16 8h4v4h-4z"/><path fill="#fff" fill-opacity=".1" d="M107 166h4v4h-4zm8 0h4v4h-4z"/><path fill="#E5FF5D" d="M99 174h4v4h-4zm8 0h4v4h-4z"/><path fill="#fff" fill-opacity=".1" d="M115 174h4v4h-4z"/><g opacity=".2" fill="#000"><path d="M191 116.5c0 4.142-3.582 7.5-8 7.5s-8-3.358-8-7.5c0-4.142 3.582-7.5 8-7.5s8 3.358 8 7.5Z"/><path d="M180.12 120.7c0-1.491 1.289-2.7 2.88-2.7s2.88 1.209 2.88 2.7v6.6c0 1.491-1.289 2.7-2.88 2.7s-2.88-1.209-2.88-2.7v-6.6Z"/></g><rect x="167.5" y="52.5" width="31" height="31" rx="15.5" fill="#E5FF5D" stroke="#E5FF5D"/><path opacity=".5" d="M153.66 22.18c-.608 0-1.136-.112-1.584-.336a2.568 2.568 0 0 1-1.032-.906c-.24-.38-.36-.806-.36-1.278 0-.508.136-.934.408-1.278.276-.344.66-.612 1.152-.804a2.154 2.154 0 0 1-.888-.672c-.256-.316-.384-.714-.384-1.194 0-.44.116-.832.348-1.176.232-.348.552-.62.96-.816.408-.2.874-.3 1.398-.3.532 0 1.002.1 1.41.3.412.2.734.474.966.822.236.344.354.734.354 1.17 0 .48-.128.878-.384 1.194-.256.316-.554.54-.894.672.464.192.836.462 1.116.81.28.344.42.768.42 1.272 0 .472-.124.898-.372 1.278s-.598.682-1.05.906c-.448.224-.976.336-1.584.336Zm.03-5.082c.484 0 .882-.12 1.194-.36.312-.244.468-.572.468-.984 0-.408-.154-.75-.462-1.026-.304-.276-.704-.414-1.2-.414s-.898.138-1.206.414a1.322 1.322 0 0 0-.462 1.026c0 .412.156.74.468.984.312.24.712.36 1.2.36Zm-.012 4.116c.332 0 .64-.058.924-.174a1.59 1.59 0 0 0 .69-.534c.176-.236.264-.528.264-.876 0-.516-.182-.91-.546-1.182-.364-.272-.808-.408-1.332-.408-.544 0-.994.138-1.35.414-.356.272-.534.664-.534 1.176 0 .348.086.64.258.876.172.236.4.414.684.534.288.116.602.174.942.174Zm5.301.966-.396-.888c.856-.092 1.578-.312 2.166-.66.592-.348 1.058-.774 1.398-1.278a4.449 4.449 0 0 0 .69-1.608 2.494 2.494 0 0 1-.882.798c-.36.196-.758.294-1.194.294-.524 0-.998-.114-1.422-.342a2.612 2.612 0 0 1-1.008-.948 2.64 2.64 0 0 1-.366-1.392c0-.516.128-.98.384-1.392.26-.412.618-.738 1.074-.978.456-.244.978-.366 1.566-.366.608 0 1.148.132 1.62.396a2.77 2.77 0 0 1 1.116 1.152c.272.5.408 1.11.408 1.83 0 .716-.13 1.378-.39 1.986a5.15 5.15 0 0 1-1.08 1.614 5.91 5.91 0 0 1-1.638 1.158 7.05 7.05 0 0 1-2.046.624Zm2.01-4.296c.36 0 .684-.076.972-.228.292-.152.522-.36.69-.624a1.63 1.63 0 0 0 .252-.894c0-.504-.18-.918-.54-1.242-.356-.328-.814-.492-1.374-.492-.556 0-1.014.164-1.374.492-.36.324-.54.738-.54 1.242 0 .332.084.63.252.894.172.264.402.472.69.624.288.152.612.228.972.228Zm5.355 4.296a.863.863 0 0 1-.6-.222.747.747 0 0 1-.246-.582c0-.24.082-.434.246-.582a.863.863 0 0 1 .6-.222c.232 0 .43.074.594.222a.738.738 0 0 1 .252.582c0 .24-.084.434-.252.582a.855.855 0 0 1-.594.222Zm3.166-.18v-7.236l-2.262.84-.294-.87 3.528-1.314h.084V22h-1.056Zm6.898 0v-1.776h-4.242v-.87l3.126-5.754h1.176l-3.102 5.664h3.042v-1.938h.996v1.938h1.35v.96h-1.35V22h-.996Zm4.315.18a.863.863 0 0 1-.6-.222.747.747 0 0 1-.246-.582c0-.24.082-.434.246-.582a.863.863 0 0 1 .6-.222c.232 0 .43.074.594.222a.738.738 0 0 1 .252.582c0 .24-.084.434-.252.582a.855.855 0 0 1-.594.222Zm3.166-.18v-7.236l-2.262.84-.294-.87 3.528-1.314h.084V22h-1.056Zm3.183 0v-.846l1.83-1.686a24.152 24.152 0 0 0 1.422-1.398c.364-.4.632-.764.804-1.092a2.16 2.16 0 0 0 .258-1.002c0-.488-.17-.872-.51-1.152-.336-.28-.802-.42-1.398-.42-.372 0-.73.062-1.074.186-.34.124-.626.304-.858.54l-.426-.828c.668-.588 1.498-.882 2.49-.882.564 0 1.058.102 1.482.306.428.2.762.486 1.002.858.24.368.36.802.36 1.302 0 .348-.07.698-.21 1.05-.14.352-.39.748-.75 1.188-.356.436-.862.96-1.518 1.572l-1.44 1.326h4.128V22h-5.592Zm7.889.18a.863.863 0 0 1-.6-.222.747.747 0 0 1-.246-.582c0-.24.082-.434.246-.582a.863.863 0 0 1 .6-.222c.232 0 .43.074.594.222a.738.738 0 0 1 .252.582c0 .24-.084.434-.252.582a.855.855 0 0 1-.594.222Zm3.166-.18v-7.236l-2.262.84-.294-.87 3.528-1.314h.084V22h-1.056Zm3.184 0v-.846l1.83-1.686a24.152 24.152 0 0 0 1.422-1.398c.364-.4.632-.764.804-1.092a2.16 2.16 0 0 0 .258-1.002c0-.488-.17-.872-.51-1.152-.336-.28-.802-.42-1.398-.42-.372 0-.73.062-1.074.186-.34.124-.626.304-.858.54l-.426-.828c.668-.588 1.498-.882 2.49-.882.564 0 1.058.102 1.482.306.428.2.762.486 1.002.858.24.368.36.802.36 1.302 0 .348-.07.698-.21 1.05-.14.352-.39.748-.75 1.188-.356.436-.862.96-1.518 1.572l-1.44 1.326h4.128V22h-5.592Zm9.46.18a5.021 5.021 0 0 1-1.488-.222c-.476-.152-.852-.348-1.128-.588l.396-.948c.264.232.592.416.984.552.392.132.782.198 1.17.198.608 0 1.092-.152 1.452-.456.364-.304.546-.714.546-1.23s-.19-.918-.57-1.206c-.376-.292-.878-.438-1.506-.438a4.64 4.64 0 0 0-1.002.114l-.342-.756 2.772-2.634h-3.846V13.6h5.232v.894l-2.67 2.58a3.864 3.864 0 0 1 1.5.24c.464.172.838.444 1.122.816.284.368.426.836.426 1.404 0 .528-.132.992-.396 1.392-.26.396-.62.704-1.08.924-.456.22-.98.33-1.572.33Z" fill="#fff"/><path d="M192 55.5V39a9 9 0 0 0-9-9 9 9 0 0 0-9 9v16.5" stroke="#E5FF5D"/><rect x="178.5" y="63.5" width="9" height="9" rx="4.5" fill="#000" stroke="#E5FF5D"/><path d="M24.667 87a2.667 2.667 0 1 1-5.334 0 2.667 2.667 0 0 1 5.334 0ZM134 116.5H63.628v-1H134v1Zm-93.727-9.899L21.641 87.348l.718-.696 18.633 19.254-.719.695Zm23.355 9.899a32.5 32.5 0 0 1-23.355-9.899l.719-.695a31.5 31.5 0 0 0 22.636 9.594v1Z" fill="#fff" fill-opacity=".07"/><path d="M62.667 128a2.667 2.667 0 1 1-5.334 0 2.667 2.667 0 0 1 5.334 0Zm71.333.5H60v-1h74v1Z" fill="#E5FF5D"/><path d="M24.667 165a2.667 2.667 0 1 1-5.334 0 2.667 2.667 0 0 1 5.334 0ZM134 143.5H57.196v-1H134v1Zm-99.13 9.278-12.516 12.575-.708-.706 12.516-12.574.709.705Zm22.326-9.278a31.5 31.5 0 0 0-22.325 9.278l-.71-.705a32.5 32.5 0 0 1 23.035-9.573v1ZM49.667 71a2.667 2.667 0 1 1-5.334 0 2.667 2.667 0 0 1 5.334 0Zm9.41 11.846.35-.357-.35.357ZM47.35 70.643l12.078 11.846-.7.714L46.65 71.357l.7-.714ZM81.485 91.5H134v1H81.485v-1Zm-22.057-9.011A31.5 31.5 0 0 0 81.485 91.5v1a32.5 32.5 0 0 1-22.758-9.297l.7-.714ZM49.667 85a2.667 2.667 0 1 1-5.334 0 2.667 2.667 0 0 1 5.334 0ZM134 104.5H78.863v-1H134v1ZM55.398 94.486l-8.759-9.14.722-.692 8.759 9.14-.722.692ZM78.863 104.5a32.5 32.5 0 0 1-23.465-10.014l.722-.692a31.5 31.5 0 0 0 22.743 9.706v1ZM330.333 91a2.667 2.667 0 1 0 5.334 0 2.667 2.667 0 0 0-5.334 0ZM232 116.5h62.552v-1H232v1Zm85.391-9.379 15.96-15.765-.702-.712-15.96 15.766.702.711Zm-22.839 9.379a32.5 32.5 0 0 0 22.839-9.379l-.702-.711a31.501 31.501 0 0 1-22.137 9.09v1Zm1.781 10.5a2.667 2.667 0 1 0 5.334 0 2.667 2.667 0 0 0-5.334 0Zm-64.333.5h67v-1h-67v1Zm98.333 30.5a2.667 2.667 0 1 0 5.334 0 2.667 2.667 0 0 0-5.334 0Zm-7.683-10.483-.356.351.356-.351ZM232 138.5h67.879v-1H232v1Zm90.294 9.368 10.35 10.483.712-.702-10.351-10.483-.711.702Zm-22.415-9.368a31.503 31.503 0 0 1 22.415 9.368l.711-.702a32.497 32.497 0 0 0-23.126-9.666v1Z" fill="#fff" fill-opacity=".07"/><path d="M307.333 75a2.667 2.667 0 1 0 5.334 0 2.667 2.667 0 0 0-5.334 0Zm-7.177 9.743-.352-.355.352.355Zm9.492-10.098-9.844 9.743.704.71 9.844-9.743-.704-.71ZM277.645 93.5H232v1h45.645v-1Zm22.159-9.112a31.499 31.499 0 0 1-22.159 9.112v1a32.5 32.5 0 0 0 22.863-9.401l-.704-.711Z" fill="#E5FF5D"/><path d="M307.333 88a2.667 2.667 0 1 0 5.334 0 2.667 2.667 0 0 0-5.334 0Zm-4.211 7.163-.361-.346.361.347ZM232 105.5h48.04v-1H232v1Zm71.482-9.99 6.879-7.164-.722-.692-6.878 7.163.721.693Zm-23.442 9.99a32.5 32.5 0 0 0 23.442-9.99l-.721-.693a31.5 31.5 0 0 1-22.721 9.683v1Z" fill="#fff" fill-opacity=".07"/><path d="m131 202 15.741-9.235c8.361-4.906 22.074-3.988 31.218-.765 6.676 2.352 10.572.776 17.044-2.091 5.808-2.573 12.77-5.618 16.935-7.303C220.08 179.31 236 175 236 175" stroke="url(#d)"/><path d="m131 187.053 24.791 3.503c2.577.364 4.638 1.317 7.213.946 14.241-2.05 29.535-4.917 42.149 2.003 3.01 1.651 5.788 2.452 7.844 1.653C221.208 191.965 238 197 238 197" stroke="url(#e)"/></g><defs><linearGradient id="c" x1="183" y1="69" x2="183" y2="167" gradientUnits="userSpaceOnUse"><stop stop-color="#fff"/><stop offset="1" stop-color="#737373"/></linearGradient><linearGradient id="d" x1="131" y1="188.5" x2="236" y2="188.5" gradientUnits="userSpaceOnUse"><stop stop-color="#E5FF5D" stop-opacity="0"/><stop offset=".545" stop-color="#E5FF5D"/><stop offset="1" stop-color="#E5FF5D" stop-opacity="0"/></linearGradient><linearGradient id="e" x1="131" y1="186.5" x2="238" y2="186.5" gradientUnits="userSpaceOnUse"><stop stop-color="#5DFFFF" stop-opacity="0"/><stop offset=".46" stop-color="#5DFFFF"/><stop offset="1" stop-color="#5DFFFF" stop-opacity="0"/></linearGradient><clipPath id="a"><path fill="#fff" d="M0 0h368v222H0z"/></clipPath><filter id="b" x="70" y="9" width="226" height="226" filterUnits="userSpaceOnUse" color-interpolation-filters="sRGB"><feFlood flood-opacity="0" result="BackgroundImageFix"/><feColorMatrix in="SourceAlpha" values="0 0 0 0 0 0 0 0 0 0 0 0 0 0 0 0 0 0 127 0" result="hardAlpha"/><feOffset dy="4"/><feGaussianBlur stdDeviation="32"/><feComposite in2="hardAlpha" operator="out"/><feColorMatrix values="0 0 0 0 0.898039 0 0 0 0 1 0 0 0 0 0.364706 0 0 0 0.3 0"/><feBlend in2="BackgroundImageFix" result="effect1_dropShadow_2_1048"/><feBlend in="SourceGraphic" in2="effect1_dropShadow_2_1048" result="shape"/></filter></defs></svg>