<svg width="368" height="222" fill="none" xmlns="http://www.w3.org/2000/svg"><g clip-path="url(#a)"><circle cx="181" cy="260" r="185.5" stroke="url(#b)" stroke-opacity=".1"/><circle cx="262" cy="260" r="111.5" stroke="url(#c)" stroke-opacity=".1"/><circle cx="262" cy="260" r="255.5" stroke="url(#d)" stroke-opacity=".1"/><g opacity=".5" filter="url(#e)"><ellipse cx="184.5" cy="269.5" rx="235.5" ry="138.5" fill="url(#f)"/></g><rect x="70" y="57" width="231" height="139" rx="16" fill="#fff" fill-opacity=".07"/><rect x="70.5" y="57.5" width="230" height="138" rx="15.5" stroke="#fff" stroke-opacity=".1"/><path d="M92.503 78.503h-.526l-.187-.18a4.314 4.314 0 0 0 1.047-2.82 4.333 4.333 0 1 0-1.514 3.287l.18.187v.526l3.334 3.327.993-.993-3.327-3.334Zm-4 0c-1.66 0-3-1.34-3-3s1.34-3 3-3 3 1.34 3 3-1.34 3-3 3Z" fill="#E5FF5D"/><path d="M106.819 80v-6.3h1.008V80h-1.008Zm2.654 0v-6.3h2.282c.447 0 .841.078 1.183.234.345.153.615.375.81.666.195.288.293.635.293 1.04 0 .623-.201 1.102-.603 1.435-.399.33-.968.495-1.706.495h-1.251V80h-1.008Zm1.008-3.294h1.265c.405 0 .72-.085.945-.257.228-.17.342-.433.342-.787 0-.348-.116-.615-.347-.801-.231-.186-.541-.279-.931-.279h-1.274v2.124ZM117.253 80v-6.48h.99V80h-.99Zm4.394.135c-.465 0-.881-.107-1.247-.32a2.332 2.332 0 0 1-1.165-2.043 2.361 2.361 0 0 1 1.165-2.034 2.382 2.382 0 0 1 1.247-.328 2.389 2.389 0 0 1 2.106 1.184c.207.357.31.75.31 1.178 0 .423-.103.815-.31 1.175a2.407 2.407 0 0 1-.855.864 2.4 2.4 0 0 1-1.251.324Zm0-.878c.414 0 .754-.133 1.021-.4.27-.267.405-.629.405-1.085 0-.456-.135-.817-.405-1.084-.267-.267-.607-.4-1.021-.4-.414 0-.755.133-1.022.4s-.4.629-.4 1.084c0 .456.133.818.4 1.085.27.267.611.4 1.022.4Zm5.498.878c-.468 0-.885-.102-1.251-.306a2.304 2.304 0 0 1-.864-.841 2.378 2.378 0 0 1-.311-1.216c0-.456.108-.86.324-1.215.216-.356.512-.637.887-.841a2.638 2.638 0 0 1 1.282-.306c.597 0 1.112.162 1.544.486l-.477.756a1.35 1.35 0 0 0-.477-.275c-.18-.06-.369-.09-.567-.09-.468 0-.839.131-1.112.392-.27.258-.405.621-.405 1.089 0 .465.135.83.405 1.094.273.264.644.395 1.112.395a1.612 1.612 0 0 0 1.125-.45l.472.752c-.24.18-.505.321-.796.423a2.65 2.65 0 0 1-.891.153Zm3.835 0c-.465 0-.842-.128-1.13-.383-.285-.254-.427-.598-.427-1.03 0-.315.103-.588.31-.819.207-.231.531-.4.972-.509.444-.108 1.02-.133 1.728-.076v-.166c0-.297-.096-.534-.288-.712-.189-.177-.475-.265-.859-.265-.234 0-.467.036-.698.108a2.132 2.132 0 0 0-.648.329l-.279-.73c.276-.189.566-.322.869-.4.303-.078.595-.117.877-.117.621 0 1.107.147 1.458.441.351.294.527.74.527 1.337V80h-.891v-.526a1.461 1.461 0 0 1-.63.49 2.247 2.247 0 0 1-.891.171Zm-.63-1.454c0 .216.076.383.229.5.156.117.369.175.639.175.345 0 .633-.093.864-.278a.9.9 0 0 0 .351-.743v-.346c-.732-.082-1.263-.052-1.593.09-.327.14-.49.342-.49.603Zm6.142 1.454c-.435 0-.783-.126-1.044-.378s-.391-.638-.391-1.157v-2.236h-.977v-.819h.977v-1.3h.99v1.3h1.237v.819h-1.237v2.02c0 .316.058.536.175.662.12.126.288.189.504.189a1.185 1.185 0 0 0 .549-.13l.176.8a1.944 1.944 0 0 1-.446.167 2.072 2.072 0 0 1-.513.063Zm1.995-.135v-4.455h.99V80h-.99Zm.495-5.251a.67.67 0 0 1-.459-.171.571.571 0 0 1-.193-.45c0-.183.064-.332.193-.446a.66.66 0 0 1 .459-.175.66.66 0 0 1 .459.175.567.567 0 0 1 .194.445.572.572 0 0 1-.194.45.67.67 0 0 1-.459.172Zm3.899 5.386a2.43 2.43 0 0 1-1.246-.32 2.372 2.372 0 0 1-.855-.859 2.333 2.333 0 0 1-.311-1.184 2.361 2.361 0 0 1 1.166-2.034 2.379 2.379 0 0 1 1.246-.328 2.392 2.392 0 0 1 2.106 1.184c.207.357.311.75.311 1.178 0 .423-.104.815-.311 1.175a2.407 2.407 0 0 1-.855.864 2.4 2.4 0 0 1-1.251.324Zm0-.878c.414 0 .755-.133 1.022-.4.27-.267.405-.629.405-1.085 0-.456-.135-.817-.405-1.084-.267-.267-.608-.4-1.022-.4-.414 0-.754.133-1.021.4-.267.267-.401.629-.401 1.084 0 .456.134.818.401 1.085.27.267.61.4 1.021.4Zm3.411.743v-4.455h.99v.567a1.68 1.68 0 0 1 .648-.535 1.84 1.84 0 0 1 .765-.167c.408 0 .746.083 1.013.248.267.162.465.37.594.625.132.252.198.513.198.783V80h-.99v-2.628c0-.315-.096-.569-.288-.76-.189-.195-.453-.293-.792-.293-.33 0-.605.11-.824.328-.216.216-.324.498-.324.846V80h-.99Zm6.172-3.299a.737.737 0 0 1-.5-.18.62.62 0 0 1-.207-.486c0-.203.069-.365.207-.486a.726.726 0 0 1 .5-.184c.192 0 .357.062.495.184.138.12.207.282.207.486a.62.62 0 0 1-.207.487.73.73 0 0 1-.495.18Zm0 3.434a.737.737 0 0 1-.5-.18.62.62 0 0 1-.207-.486c0-.204.069-.366.207-.486a.726.726 0 0 1 .5-.184c.192 0 .357.061.495.184.138.12.207.282.207.486a.62.62 0 0 1-.207.486.73.73 0 0 1-.495.18Z" fill="#fff" fill-opacity=".6"/><path d="M162.797 80v-6.3h1.134l2.983 4.338V73.7h1.139V80h-1.134l-2.984-4.392V80h-1.138Zm8.795.135c-.489 0-.918-.099-1.287-.297a2.157 2.157 0 0 1-.864-.832c-.204-.36-.306-.778-.306-1.252 0-.462.103-.873.31-1.233.207-.36.492-.642.855-.846.363-.206.777-.31 1.242-.31.504 0 .935.117 1.292.351.357.234.616.552.778.954.162.399.204.852.126 1.359h-3.519c-.006.354.12.64.378.86.261.219.609.328 1.044.328.531 0 .999-.148 1.404-.445l.405.805a2.118 2.118 0 0 1-.531.297 3.52 3.52 0 0 1-.661.194 3.483 3.483 0 0 1-.666.067Zm-1.305-2.925h2.335c-.009-.303-.111-.54-.306-.711-.192-.174-.459-.261-.801-.261s-.625.087-.85.261a.977.977 0 0 0-.378.711Zm5.231 2.79-1.391-4.5h1.134l.882 3.172.981-3.172h1.098l.927 3.172.891-3.172h1.085l-1.391 4.5h-1.17l-.918-3.06-.958 3.06h-1.17Zm10.12 0v-2.691L183.42 73.7h1.327l1.503 2.484 1.49-2.484h1.291l-2.218 3.618V80h-1.175Zm5.575.135c-.48 0-.906-.108-1.278-.324a2.409 2.409 0 0 1-.868-.869 2.34 2.34 0 0 1-.315-1.192c0-.426.105-.819.315-1.179.21-.363.499-.654.868-.873a2.445 2.445 0 0 1 1.278-.333 2.439 2.439 0 0 1 2.142 1.193c.213.36.32.757.32 1.192 0 .423-.107.816-.32 1.179-.21.363-.501.656-.873.877a2.439 2.439 0 0 1-1.269.329Zm0-1.008c.378 0 .692-.123.941-.369.252-.249.378-.585.378-1.008 0-.423-.125-.757-.374-1.004a1.284 1.284 0 0 0-.945-.373c-.384 0-.7.124-.949.373-.246.247-.369.581-.369 1.004 0 .423.124.759.373 1.008.249.246.564.369.945.369Zm3.41.873v-4.5h1.152v.59c.156-.264.351-.452.585-.563a1.78 1.78 0 0 1 .765-.166 2.369 2.369 0 0 1 .5.053l-.144 1.189a1.858 1.858 0 0 0-.59-.1c-.324 0-.591.098-.801.293-.21.192-.315.462-.315.81V80h-1.152Zm3.797 0v-6.48h1.152v3.695l1.629-1.715h1.35l-1.584 1.755L202.753 80h-1.372l-1.251-1.993-.558.571V80h-1.152Zm10.336.135c-.654 0-1.227-.135-1.719-.405a2.87 2.87 0 0 1-1.147-1.139c-.273-.491-.41-1.069-.41-1.732 0-.48.08-.921.239-1.323.162-.402.39-.75.684-1.044a3.093 3.093 0 0 1 1.044-.684 3.508 3.508 0 0 1 1.323-.243c.495 0 .918.063 1.269.189.351.123.663.298.936.526l-.599.959c-.384-.36-.892-.54-1.525-.54-.666 0-1.191.194-1.575.58-.381.385-.572.907-.572 1.567 0 .677.195 1.206.585 1.584.393.377.927.566 1.602.566.303 0 .599-.044.887-.134.291-.093.565-.243.823-.45l.54.985a3.454 3.454 0 0 1-1.044.544c-.393.13-.84.194-1.341.194Zm3.269-.135v-4.5h1.152V80h-1.152Zm.576-5.256a.753.753 0 0 1-.513-.189.631.631 0 0 1-.216-.5.63.63 0 0 1 .216-.499.753.753 0 0 1 .513-.189c.198 0 .369.063.513.189a.631.631 0 0 1 .216.5.631.631 0 0 1-.216.499.753.753 0 0 1-.513.189Zm3.824 5.391c-.462 0-.828-.132-1.098-.396-.27-.264-.405-.663-.405-1.197v-2.106h-.949V75.5h.949v-1.305h1.152V75.5h1.184v.936h-1.184v1.876c0 .291.057.496.171.612.114.117.272.176.473.176.198 0 .379-.043.544-.13l.18.918c-.135.072-.291.13-.468.175-.177.048-.36.072-.549.072Zm2.48 1.881c-.18 0-.355-.02-.526-.059a1.664 1.664 0 0 1-.491-.188l.257-.977a1.245 1.245 0 0 0 .621.175c.372 0 .619-.184.742-.553l.122-.36-1.764-4.554h1.255l1.161 3.353 1.13-3.353h1.219l-1.917 5.08c-.216.552-.477.929-.783 1.13a1.795 1.795 0 0 1-1.026.306Zm4.084-.572-.378-.513a2.59 2.59 0 0 0 .63-.4c.183-.159.311-.315.383-.468a.837.837 0 0 1-.576-.166.615.615 0 0 1-.239-.509.69.69 0 0 1 .207-.522.749.749 0 0 1 .54-.203c.243 0 .441.083.594.248.156.165.234.387.234.666 0 .33-.117.656-.351.977-.234.323-.582.62-1.044.89ZM227.774 80v-6.3h1.134l2.984 4.338V73.7h1.138V80h-1.134l-2.983-4.392V80h-1.139Zm8.795.135c-.489 0-.918-.099-1.287-.297a2.157 2.157 0 0 1-.864-.832c-.204-.36-.306-.778-.306-1.252 0-.462.104-.873.311-1.233.207-.36.492-.642.855-.846.363-.206.777-.31 1.242-.31.504 0 .934.117 1.291.351.357.234.617.552.779.954.162.399.204.852.126 1.359h-3.519c-.006.354.12.64.378.86.261.219.609.328 1.044.328.531 0 .999-.148 1.404-.445l.405.805a2.118 2.118 0 0 1-.531.297 3.53 3.53 0 0 1-.662.194 3.483 3.483 0 0 1-.666.067Zm-1.305-2.925h2.336c-.009-.303-.111-.54-.306-.711-.192-.174-.459-.261-.801-.261s-.626.087-.851.261a.977.977 0 0 0-.378.711Zm5.231 2.79-1.39-4.5h1.134l.882 3.172.981-3.172h1.098l.927 3.172.891-3.172h1.084l-1.39 4.5h-1.17l-.918-3.06-.959 3.06h-1.17Zm10.121 0v-2.691l-2.219-3.609h1.328l1.503 2.484 1.489-2.484h1.292l-2.219 3.618V80h-1.174Zm5.575.135c-.48 0-.906-.108-1.278-.324a2.412 2.412 0 0 1-.869-.869 2.34 2.34 0 0 1-.315-1.192c0-.426.105-.819.315-1.179a2.4 2.4 0 0 1 .869-.873 2.445 2.445 0 0 1 1.278-.333 2.439 2.439 0 0 1 2.142 1.193c.213.36.319.757.319 1.192 0 .423-.106.816-.319 1.179-.21.363-.501.656-.873.877a2.439 2.439 0 0 1-1.269.329Zm0-1.008c.378 0 .691-.123.94-.369.252-.249.378-.585.378-1.008 0-.423-.124-.757-.373-1.004a1.284 1.284 0 0 0-.945-.373c-.384 0-.701.124-.95.373-.246.247-.369.581-.369 1.004 0 .423.125.759.374 1.008.249.246.564.369.945.369Zm3.41.873v-4.5h1.152v.59c.156-.264.351-.452.585-.563a1.78 1.78 0 0 1 .765-.166 2.074 2.074 0 0 1 .499.054l-.144 1.188a1.853 1.853 0 0 0-.589-.1c-.324 0-.591.098-.801.293-.21.192-.315.462-.315.81V80h-1.152Zm3.796 0v-6.48h1.152v3.695l1.629-1.715h1.35l-1.584 1.755L267.731 80h-1.373l-1.251-1.993-.558.571V80h-1.152Zm8.433 1.035a7.943 7.943 0 0 1-.837-2.007 8.363 8.363 0 0 1 0-4.275 7.793 7.793 0 0 1 .837-1.998l.887.347a6.18 6.18 0 0 0-.738 1.768 8.1 8.1 0 0 0-.248 1.998c0 .684.083 1.358.248 2.02.165.66.411 1.26.738 1.8l-.887.347Zm4.722-.9c-.57 0-1.049-.114-1.436-.342a2.218 2.218 0 0 1-.868-.945 3.035 3.035 0 0 1-.293-1.35V73.7h1.17v3.811c0 .514.128.896.383 1.148.255.249.603.373 1.044.373.438 0 .784-.124 1.039-.373.255-.252.383-.635.383-1.148V73.7h1.174v3.798c0 .501-.097.951-.292 1.35a2.22 2.22 0 0 1-.869.94c-.384.231-.862.347-1.435.347Zm6.251 0a4.55 4.55 0 0 1-1.318-.194 3.027 3.027 0 0 1-1.08-.562l.567-.886c.216.2.492.358.828.472a3.12 3.12 0 0 0 1.008.171c.375 0 .679-.069.913-.207a.67.67 0 0 0 .351-.608.66.66 0 0 0-.243-.517c-.162-.141-.46-.273-.895-.396l-.612-.175c-.615-.175-1.061-.407-1.337-.698a1.528 1.528 0 0 1-.409-1.08c0-.372.099-.699.297-.981.201-.285.477-.507.828-.666a2.88 2.88 0 0 1 1.201-.239c.438 0 .846.065 1.224.194.381.126.692.298.932.517l-.581.86a2.012 2.012 0 0 0-.715-.418 2.532 2.532 0 0 0-.882-.158c-.354 0-.641.074-.86.22a.693.693 0 0 0-.324.612c0 .195.08.355.239.478.162.12.46.244.895.373l.639.189c.603.177 1.043.405 1.319.684.276.276.414.636.414 1.08 0 .381-.096.717-.288 1.008a1.92 1.92 0 0 1-.828.684c-.357.162-.785.243-1.283.243Zm4.157.9-.887-.346c.33-.525.576-1.115.738-1.769a8.281 8.281 0 0 0 0-4.014 6.482 6.482 0 0 0-.738-1.804l.887-.347a7.73 7.73 0 0 1 .837 2.007 8.363 8.363 0 0 1 0 4.28 7.6 7.6 0 0 1-.837 1.993Z" fill="#fff"/><path opacity=".5" fill="#fff" fill-opacity=".1" d="M82 93h207v1H82z"/><path d="M92.667 106.667a2.666 2.666 0 1 0-5.334 0A2.666 2.666 0 0 0 90 109.333a2.666 2.666 0 0 0 2.667-2.666ZM90 108c-.733 0-1.333-.6-1.333-1.333 0-.734.6-1.334 1.333-1.334s1.333.6 1.333 1.334c0 .733-.6 1.333-1.333 1.333Zm-3.333 2.667a2.666 2.666 0 1 0 0 5.333 2.666 2.666 0 1 0 0-5.333Zm0 4c-.734 0-1.334-.6-1.334-1.334 0-.733.6-1.333 1.334-1.333.733 0 1.333.6 1.333 1.333 0 .734-.6 1.334-1.333 1.334Zm6.666-4a2.666 2.666 0 1 0 0 5.333 2.666 2.666 0 1 0 0-5.333Zm0 4c-.733 0-1.333-.6-1.333-1.334 0-.733.6-1.333 1.333-1.333.734 0 1.334.6 1.334 1.333 0 .734-.6 1.334-1.334 1.334Z" fill="#FF8B36"/><path d="M106.819 113v-6.3h1.008v6.3h-1.008Zm4.706.135a4.46 4.46 0 0 1-1.278-.185 2.914 2.914 0 0 1-1.048-.54l.495-.769c.225.195.502.348.832.459.33.108.665.162 1.004.162.411 0 .742-.078.994-.234a.754.754 0 0 0 .383-.684.74.74 0 0 0-.261-.572c-.171-.156-.489-.3-.954-.432l-.648-.189c-.597-.171-1.031-.397-1.301-.679-.27-.282-.405-.633-.405-1.053 0-.369.098-.692.293-.968.198-.279.469-.495.814-.648.345-.156.74-.234 1.184-.234.423 0 .816.062 1.179.185.363.123.663.288.9.495l-.513.747a2.1 2.1 0 0 0-.725-.41 2.608 2.608 0 0 0-.886-.153c-.381 0-.69.081-.927.243a.787.787 0 0 0-.356.689c0 .216.084.393.252.531.171.138.489.274.954.409l.684.203c.582.174 1.008.397 1.278.67s.405.629.405 1.067c0 .561-.207 1.017-.621 1.368-.411.348-.987.522-1.728.522Zm3.6-.135v-6.3h2.281c.447 0 .842.078 1.184.234.345.153.615.375.81.666.195.288.292.634.292 1.039 0 .624-.201 1.103-.603 1.436-.399.33-.967.495-1.705.495h-1.251V113h-1.008Zm1.008-3.294h1.264c.405 0 .72-.086.945-.257.228-.171.342-.433.342-.787 0-.348-.115-.615-.346-.801-.231-.186-.542-.279-.932-.279h-1.273v2.124Zm5.2-.005a.737.737 0 0 1-.5-.18.62.62 0 0 1-.207-.486c0-.204.069-.366.207-.486a.725.725 0 0 1 .5-.184c.192 0 .357.061.495.184.138.12.207.282.207.486a.62.62 0 0 1-.207.486.73.73 0 0 1-.495.18Zm0 3.434a.737.737 0 0 1-.5-.18.62.62 0 0 1-.207-.486c0-.204.069-.366.207-.486a.726.726 0 0 1 .5-.185.72.72 0 0 1 .495.185c.138.12.207.282.207.486a.62.62 0 0 1-.207.486.73.73 0 0 1-.495.18Z" fill="#fff" fill-opacity=".6"/><path d="M131.797 113v-6.3h1.129l2.277 3.73 2.183-3.73h1.116v6.3h-1.139l.014-4.329-1.814 3.028h-.823l-1.89-3.073.018 4.374h-1.071Zm8.004 0v-.806l1.354-1.233c.426-.39.765-.72 1.017-.99.255-.273.438-.517.549-.733.114-.219.171-.438.171-.657 0-.321-.109-.572-.328-.752-.219-.18-.525-.27-.918-.27-.276 0-.542.05-.797.149a1.803 1.803 0 0 0-.661.441l-.414-.851c.267-.237.573-.418.918-.544a3.108 3.108 0 0 1 1.075-.189c.447 0 .836.079 1.166.238.333.156.591.375.774.657.183.282.274.614.274.995 0 .258-.052.514-.157.769-.102.255-.284.542-.545.86-.261.318-.631.702-1.111 1.152l-.851.787h2.826V113h-4.342Zm8.062 0v-1.256h-3.087v-.859l2.169-4.185h1.174l-2.128 4.086h1.872v-1.341h.99v1.341h.936v.958h-.936V113h-.99Zm2.662 0 2.583-5.252h-2.921V106.7h4.221v.85l-2.641 5.45h-1.242Zm7.243 0v-6.3h4.19v1.026h-3.02v1.525h2.583v.959h-2.583v1.755h3.051V113h-4.221Zm7.197.135c-.405 0-.741-.079-1.008-.239a1.509 1.509 0 0 1-.59-.652 2.114 2.114 0 0 1-.193-.914v-2.83h1.152v2.632c0 .288.081.519.243.693.165.171.399.257.702.257a.977.977 0 0 0 .72-.288c.192-.195.288-.447.288-.756V108.5h1.152v4.5h-1.017v-.513a1.978 1.978 0 0 1-.603.472c-.234.118-.516.176-.846.176Zm3.791-.135v-4.5h1.152v.589c.156-.264.351-.451.585-.562.237-.111.492-.167.765-.167a2.364 2.364 0 0 1 .499.054l-.144 1.188a1.853 1.853 0 0 0-.589-.099c-.324 0-.591.098-.801.293-.21.192-.315.462-.315.81V113h-1.152Zm5.792.135c-.48 0-.906-.108-1.278-.324a2.41 2.41 0 0 1-.868-.869 2.338 2.338 0 0 1-.315-1.192c0-.426.105-.819.315-1.179.21-.363.499-.654.868-.873a2.445 2.445 0 0 1 1.278-.333 2.438 2.438 0 0 1 2.142 1.192c.213.36.32.758.32 1.193 0 .423-.107.816-.32 1.179-.21.363-.501.655-.873.877a2.43 2.43 0 0 1-1.269.329Zm0-1.008c.378 0 .692-.123.941-.369.252-.249.378-.585.378-1.008 0-.423-.125-.758-.374-1.004-.249-.249-.564-.373-.945-.373-.384 0-.7.124-.949.373-.246.246-.369.581-.369 1.004 0 .423.124.759.373 1.008.249.246.564.369.945.369Zm3.41 2.763v-6.39h1.017v.594c.174-.216.397-.392.67-.527s.603-.202.99-.202c.435 0 .822.102 1.161.306.339.204.605.486.797.846.195.357.292.768.292 1.233 0 .444-.097.846-.292 1.206a2.23 2.23 0 0 1-.801.859c-.339.214-.731.32-1.175.32-.324 0-.612-.055-.864-.167a1.982 1.982 0 0 1-.648-.463v2.385h-1.147Zm2.466-2.763c.381 0 .696-.123.945-.369.249-.249.373-.585.373-1.008 0-.423-.126-.758-.378-1.004a1.274 1.274 0 0 0-.94-.373c-.381 0-.696.124-.945.373-.249.246-.374.581-.374 1.004 0 .423.123.759.369 1.008.249.246.566.369.95.369Zm5.537 1.008c-.489 0-.918-.099-1.287-.297a2.159 2.159 0 0 1-.864-.833c-.204-.36-.306-.777-.306-1.251 0-.462.103-.873.31-1.233.207-.36.492-.642.855-.846.363-.207.777-.31 1.242-.31.504 0 .935.117 1.292.351.357.234.616.552.778.954.162.399.204.852.126 1.359h-3.519c-.006.354.12.64.378.859.261.219.609.329 1.044.329.531 0 .999-.149 1.404-.446l.405.806a2.118 2.118 0 0 1-.531.297 3.52 3.52 0 0 1-.661.194 3.481 3.481 0 0 1-.666.067Zm-1.305-2.925h2.335c-.009-.303-.111-.54-.306-.711-.192-.174-.459-.261-.801-.261s-.625.087-.85.261a.977.977 0 0 0-.378.711Zm8.832 2.925c-.45 0-.89-.064-1.319-.194a3.026 3.026 0 0 1-1.08-.562l.567-.887c.216.201.492.359.828.473a3.12 3.12 0 0 0 1.008.171c.375 0 .68-.069.914-.207a.671.671 0 0 0 .351-.608.66.66 0 0 0-.243-.517c-.162-.141-.461-.273-.896-.396l-.612-.176c-.615-.174-1.06-.406-1.336-.697a1.529 1.529 0 0 1-.41-1.08c0-.372.099-.699.297-.981.201-.285.477-.507.828-.666a2.885 2.885 0 0 1 1.202-.239c.438 0 .846.065 1.224.194.381.126.691.298.931.517l-.58.86a2.017 2.017 0 0 0-.716-.419 2.531 2.531 0 0 0-.882-.157c-.354 0-.64.073-.859.22a.693.693 0 0 0-.324.612c0 .195.079.354.238.477.162.12.461.245.896.374l.639.189c.603.177 1.042.405 1.318.684.276.276.414.636.414 1.08 0 .381-.096.717-.288 1.008a1.92 1.92 0 0 1-.828.684c-.357.162-.784.243-1.282.243Zm3.585-.135v-6.3h2.439c.669 0 1.203.168 1.602.504.399.336.598.796.598 1.381 0 .468-.141.852-.423 1.152a2.06 2.06 0 0 1-1.089.59l1.832 2.673h-1.404l-1.629-2.466h-.756V113h-1.17Zm1.17-3.425h1.098c.372 0 .663-.078.873-.234.213-.156.319-.387.319-.693 0-.645-.378-.967-1.134-.967h-1.156v1.894ZM203.12 113v-6.3h1.17v5.229h2.673V113h-3.843Z" fill="#fff"/><path opacity=".5" fill="#fff" fill-opacity=".1" d="M82 126h207v1H82z"/><path d="M94.667 145v2.667h-9.334V145h9.334Zm.666-1.333H84.667c-.367 0-.667.3-.667.666v4c0 .367.3.667.667.667h10.666c.367 0 .667-.3.667-.667v-4c0-.366-.3-.666-.667-.666Zm-8.666 3.666c-.547 0-1-.446-1-1 0-.553.453-1 1-1 .546 0 1 .447 1 1 0 .554-.447 1-1 1Zm8-9V141h-9.334v-2.667h9.334Zm.666-1.333H84.667c-.367 0-.667.3-.667.667v4c0 .366.3.666.667.666h10.666c.367 0 .667-.3.667-.666v-4c0-.367-.3-.667-.667-.667Zm-8.666 3.667c-.547 0-1-.447-1-1 0-.554.453-1 1-1 .546 0 1 .453 1 1 0 .546-.447 1-1 1Z" fill="#5DA8FF"/><path d="M106.819 146v-6.3h2.282c.447 0 .841.078 1.183.234.345.153.615.375.81.666.195.288.293.634.293 1.039 0 .624-.201 1.103-.603 1.436-.399.33-.968.495-1.706.495h-1.251V146h-1.008Zm1.008-3.294h1.265c.405 0 .72-.086.945-.257.228-.171.342-.433.342-.787 0-.348-.116-.615-.347-.801-.231-.186-.541-.279-.931-.279h-1.274v2.124Zm4.566 3.294v-4.455h.99v.616c.168-.276.372-.471.612-.585a1.78 1.78 0 0 1 .774-.171c.171 0 .334.018.49.054l-.13 1.022a1.916 1.916 0 0 0-.554-.086c-.345 0-.63.107-.855.32-.225.21-.337.496-.337.859V146h-.99Zm5.633.135c-.465 0-.881-.106-1.247-.32a2.334 2.334 0 0 1-1.165-2.043 2.361 2.361 0 0 1 1.165-2.034 2.382 2.382 0 0 1 1.247-.328 2.389 2.389 0 0 1 2.106 1.183c.207.357.31.75.31 1.179 0 .423-.103.815-.31 1.175a2.407 2.407 0 0 1-.855.864 2.4 2.4 0 0 1-1.251.324Zm0-.878c.414 0 .754-.133 1.021-.4.27-.267.405-.629.405-1.085 0-.456-.135-.817-.405-1.084-.267-.267-.607-.401-1.021-.401-.414 0-.755.134-1.022.401s-.4.628-.4 1.084c0 .456.133.818.4 1.085.27.267.611.4 1.022.4Zm2.796.748 1.611-2.242-1.517-2.218h1.247l.949 1.507.918-1.507h1.215l-1.471 2.191 1.597 2.264h-1.269l-1.026-1.566-1.039 1.557-1.215.014Zm5.761 2.011c-.162 0-.321-.018-.477-.054a1.488 1.488 0 0 1-.459-.184l.225-.846a1.17 1.17 0 0 0 .603.18c.21 0 .375-.05.495-.149.12-.096.214-.249.283-.459l.149-.432-1.755-4.527h1.084l1.233 3.456 1.202-3.456h1.048l-1.926 5.099c-.207.534-.451.895-.733 1.084a1.686 1.686 0 0 1-.972.288Zm5.042-5.315a.737.737 0 0 1-.5-.18.62.62 0 0 1-.207-.486c0-.204.069-.366.207-.486a.725.725 0 0 1 .5-.184c.192 0 .357.061.495.184.138.12.207.282.207.486a.62.62 0 0 1-.207.486.73.73 0 0 1-.495.18Zm0 3.434a.737.737 0 0 1-.5-.18.62.62 0 0 1-.207-.486c0-.204.069-.366.207-.486a.726.726 0 0 1 .5-.185.72.72 0 0 1 .495.185c.138.12.207.282.207.486a.62.62 0 0 1-.207.486.73.73 0 0 1-.495.18Z" fill="#fff" fill-opacity=".6"/><path d="M141.797 146v-6.3h1.134l2.983 4.338V139.7h1.139v6.3h-1.134l-2.984-4.392V146h-1.138Zm8.799.135c-.48 0-.906-.108-1.278-.324a2.41 2.41 0 0 1-.868-.869 2.338 2.338 0 0 1-.315-1.192c0-.426.105-.819.315-1.179.21-.363.499-.654.868-.873a2.445 2.445 0 0 1 1.278-.333 2.438 2.438 0 0 1 2.142 1.192c.213.36.32.758.32 1.193 0 .423-.107.816-.32 1.179-.21.363-.501.655-.873.877a2.43 2.43 0 0 1-1.269.329Zm0-1.008c.378 0 .692-.123.941-.369.252-.249.378-.585.378-1.008 0-.423-.125-.758-.374-1.004-.249-.249-.564-.373-.945-.373-.384 0-.7.124-.949.373-.246.246-.369.581-.369 1.004 0 .423.124.759.373 1.008.249.246.564.369.945.369Zm5.287 1.008c-.462 0-.828-.132-1.098-.396-.27-.264-.405-.663-.405-1.197v-2.106h-.949v-.936h.949v-1.305h1.152v1.305h1.184v.936h-1.184v1.876c0 .291.057.495.171.612.114.117.272.176.473.176.198 0 .379-.044.544-.131l.18.918a2.084 2.084 0 0 1-.468.176c-.177.048-.36.072-.549.072Zm6.033 0c-.438 0-.827-.102-1.166-.306a2.142 2.142 0 0 1-.796-.846 2.58 2.58 0 0 1-.288-1.233c0-.444.096-.846.288-1.206.192-.36.457-.647.796-.86a2.193 2.193 0 0 1 1.184-.319 2.2 2.2 0 0 1 .841.153c.252.102.474.247.666.436v-2.434h1.152V146h-1.017v-.599a1.882 1.882 0 0 1-.67.531c-.276.136-.606.203-.99.203Zm.211-1.008c.378 0 .692-.123.941-.369.252-.249.378-.585.378-1.008 0-.423-.125-.758-.374-1.004-.249-.249-.564-.373-.945-.373-.384 0-.7.124-.949.373-.246.246-.369.581-.369 1.004 0 .423.124.759.373 1.008.249.246.564.369.945.369Zm5.876 1.008c-.489 0-.918-.099-1.287-.297a2.159 2.159 0 0 1-.864-.833c-.204-.36-.306-.777-.306-1.251 0-.462.103-.873.31-1.233.207-.36.492-.642.855-.846.363-.207.777-.31 1.242-.31.504 0 .935.117 1.292.351.357.234.616.552.778.954.162.399.204.852.126 1.359h-3.519c-.006.354.12.64.378.859.261.219.609.329 1.044.329.531 0 .999-.149 1.404-.446l.405.806a2.118 2.118 0 0 1-.531.297 3.52 3.52 0 0 1-.661.194 3.481 3.481 0 0 1-.666.067Zm-1.305-2.925h2.335c-.009-.303-.111-.54-.306-.711-.192-.174-.459-.261-.801-.261s-.625.087-.85.261a.977.977 0 0 0-.378.711Zm6.315 2.925c-.462 0-.828-.132-1.098-.396-.27-.264-.405-.663-.405-1.197v-2.106h-.949v-.936h.949v-1.305h1.152v1.305h1.184v.936h-1.184v1.876c0 .291.057.495.171.612.114.117.272.176.473.176.198 0 .379-.044.544-.131l.18.918a2.084 2.084 0 0 1-.468.176c-.177.048-.36.072-.549.072Zm4.051 0c-.489 0-.918-.099-1.287-.297a2.159 2.159 0 0 1-.864-.833c-.204-.36-.306-.777-.306-1.251 0-.462.104-.873.311-1.233.207-.36.492-.642.855-.846.363-.207.777-.31 1.242-.31.504 0 .934.117 1.291.351.357.234.617.552.779.954.162.399.204.852.126 1.359h-3.519c-.006.354.12.64.378.859.261.219.609.329 1.044.329.531 0 .999-.149 1.404-.446l.405.806a2.118 2.118 0 0 1-.531.297 3.531 3.531 0 0 1-.662.194 3.481 3.481 0 0 1-.666.067Zm-1.305-2.925h2.336c-.009-.303-.111-.54-.306-.711-.192-.174-.459-.261-.801-.261s-.626.087-.851.261a.977.977 0 0 0-.378.711Zm6.57 2.925c-.477 0-.901-.103-1.273-.311a2.299 2.299 0 0 1-.878-.85 2.384 2.384 0 0 1-.315-1.224c0-.459.11-.867.329-1.224a2.34 2.34 0 0 1 .9-.851c.381-.207.814-.31 1.3-.31.63 0 1.17.171 1.62.513l-.535.868a1.417 1.417 0 0 0-.482-.279 1.651 1.651 0 0 0-.558-.094c-.441 0-.787.12-1.039.36-.252.24-.378.577-.378 1.012 0 .432.126.771.378 1.017.252.243.598.365 1.039.365.219 0 .426-.041.621-.122.195-.081.365-.192.509-.333l.513.873a3.037 3.037 0 0 1-.824.432 2.787 2.787 0 0 1-.927.158Zm4.536 0c-.462 0-.828-.132-1.098-.396-.27-.264-.405-.663-.405-1.197v-2.106h-.95v-.936h.95v-1.305h1.152v1.305h1.183v.936h-1.183v1.876c0 .291.057.495.171.612.114.117.271.176.472.176.198 0 .38-.044.545-.131l.18.918a2.084 2.084 0 0 1-.468.176c-.177.048-.36.072-.549.072Zm4.051 0c-.489 0-.918-.099-1.287-.297a2.159 2.159 0 0 1-.864-.833c-.204-.36-.306-.777-.306-1.251 0-.462.103-.873.31-1.233.207-.36.492-.642.855-.846.363-.207.777-.31 1.242-.31.504 0 .935.117 1.292.351.357.234.616.552.778.954.162.399.204.852.126 1.359h-3.519c-.006.354.12.64.378.859.261.219.609.329 1.044.329.531 0 .999-.149 1.404-.446l.405.806a2.118 2.118 0 0 1-.531.297 3.52 3.52 0 0 1-.661.194 3.481 3.481 0 0 1-.666.067Zm-1.305-2.925h2.335c-.009-.303-.111-.54-.306-.711-.192-.174-.459-.261-.801-.261s-.625.087-.85.261a.977.977 0 0 0-.378.711Zm6.354 2.925c-.438 0-.827-.102-1.166-.306a2.142 2.142 0 0 1-.796-.846 2.58 2.58 0 0 1-.288-1.233c0-.444.096-.846.288-1.206.192-.36.457-.647.796-.86a2.193 2.193 0 0 1 1.184-.319 2.2 2.2 0 0 1 .841.153c.252.102.474.247.666.436v-2.434h1.152V146h-1.017v-.599a1.882 1.882 0 0 1-.67.531c-.276.136-.606.203-.99.203Zm.211-1.008c.378 0 .692-.123.941-.369.252-.249.378-.585.378-1.008 0-.423-.125-.758-.374-1.004-.249-.249-.564-.373-.945-.373-.384 0-.7.124-.949.373-.246.246-.369.581-.369 1.004 0 .423.124.759.373 1.008.249.246.564.369.945.369Z" fill="#fff"/><path opacity=".5" fill="#fff" fill-opacity=".1" d="M82 159h207v1H82z"/><path d="M90.667 182.667H96V178h-2v-2.667h-3.333V174h2v-4.667h-5.334V174h2v1.333H86V178h-2v4.667h5.333V178h-2v-1.333h5.334V178h-2v4.667Zm-2-10v-2h2.666v2h-2.666ZM88 179.333v2h-2.667v-2H88Zm6.667 0v2H92v-2h2.667Z" fill="#A1FFB0"/><path d="M106.819 179v-6.3h1.008v5.373h2.745V179h-3.753Zm6.09.135c-.465 0-.841-.128-1.129-.383-.285-.255-.428-.598-.428-1.03 0-.315.104-.588.311-.819.207-.231.531-.401.972-.509.444-.108 1.02-.133 1.728-.076v-.167c0-.297-.096-.534-.288-.711-.189-.177-.476-.265-.86-.265-.234 0-.466.036-.697.108a2.13 2.13 0 0 0-.648.328l-.279-.729c.276-.189.565-.322.868-.4a3.52 3.52 0 0 1 .878-.117c.621 0 1.107.147 1.458.441.351.294.526.739.526 1.336V179h-.891v-.527a1.462 1.462 0 0 1-.63.491 2.247 2.247 0 0 1-.891.171Zm-.63-1.454c0 .216.077.383.23.5.156.117.369.175.639.175.345 0 .633-.093.864-.279a.9.9 0 0 0 .351-.742v-.347c-.732-.081-1.263-.051-1.593.09-.327.141-.491.342-.491.603Zm6.143 1.454c-.435 0-.783-.126-1.044-.378s-.392-.638-.392-1.157v-2.236h-.976v-.819h.976v-1.301h.99v1.301h1.238v.819h-1.238v2.02c0 .315.059.536.176.662.12.126.288.189.504.189a1.185 1.185 0 0 0 .549-.131l.175.801a2.072 2.072 0 0 1-.958.23Zm1.995-.135v-4.455h.99V179h-.99Zm.495-5.252a.67.67 0 0 1-.459-.171.571.571 0 0 1-.193-.45c0-.183.064-.331.193-.445a.66.66 0 0 1 .459-.176.66.66 0 0 1 .459.176.566.566 0 0 1 .194.445.572.572 0 0 1-.194.45.67.67 0 0 1-.459.171Zm3.741 5.387c-.435 0-.783-.126-1.044-.378s-.391-.638-.391-1.157v-2.236h-.977v-.819h.977v-1.301h.99v1.301h1.237v.819h-1.237v2.02c0 .315.058.536.175.662.12.126.288.189.504.189a1.185 1.185 0 0 0 .549-.131l.176.801a1.944 1.944 0 0 1-.446.167 2.072 2.072 0 0 1-.513.063Zm3.714 0c-.399 0-.729-.079-.99-.239a1.544 1.544 0 0 1-.58-.639 1.942 1.942 0 0 1-.194-.864v-2.848h.99v2.664c0 .306.09.552.27.738.18.183.432.274.756.274.312 0 .573-.103.783-.31.213-.21.32-.485.32-.824v-2.542h.99V179h-.891v-.527c-.174.21-.381.374-.621.491-.24.114-.518.171-.833.171Zm5.571 0c-.435 0-.82-.102-1.156-.306a2.205 2.205 0 0 1-.792-.842 2.557 2.557 0 0 1-.284-1.215c0-.438.095-.835.284-1.192.189-.357.453-.641.792-.851a2.152 2.152 0 0 1 1.17-.319c.339 0 .64.058.904.175.264.114.492.275.684.482v-2.547h.99V179h-.891v-.635a1.926 1.926 0 0 1-.679.558c-.279.142-.62.212-1.022.212Zm.18-.878c.414 0 .755-.133 1.022-.4.27-.267.405-.629.405-1.085 0-.456-.135-.817-.405-1.084-.267-.267-.608-.401-1.022-.401-.414 0-.754.134-1.021.401-.267.267-.401.628-.401 1.084 0 .456.134.818.401 1.085.27.267.61.4 1.021.4Zm5.823.878c-.48 0-.901-.097-1.264-.293a2.152 2.152 0 0 1-.851-.828c-.201-.354-.301-.765-.301-1.233 0-.459.102-.867.306-1.224a2.23 2.23 0 0 1 .837-.841 2.405 2.405 0 0 1 1.215-.306c.489 0 .906.114 1.251.342.348.225.601.532.76.922.159.39.204.83.135 1.319h-3.555c-.009.399.125.721.401.967.276.243.648.365 1.116.365.252 0 .495-.038.729-.113.237-.078.451-.192.643-.342l.383.711a2.323 2.323 0 0 1-.837.41 3.523 3.523 0 0 1-.968.144Zm-1.408-2.871h2.524c-.009-.336-.117-.6-.324-.792-.207-.192-.498-.288-.873-.288-.369 0-.673.096-.913.288-.24.192-.378.456-.414.792Zm5.159-.563a.734.734 0 0 1-.499-.18.62.62 0 0 1-.207-.486c0-.204.069-.366.207-.486a.723.723 0 0 1 .499-.184c.192 0 .357.061.495.184.138.12.207.282.207.486a.62.62 0 0 1-.207.486.73.73 0 0 1-.495.18Zm0 3.434a.734.734 0 0 1-.499-.18.62.62 0 0 1-.207-.486c0-.204.069-.366.207-.486a.724.724 0 0 1 .499-.185.72.72 0 0 1 .495.185c.138.12.207.282.207.486a.62.62 0 0 1-.207.486.73.73 0 0 1-.495.18Z" fill="#fff" fill-opacity=".6"/><path d="M157.231 179v-1.256h-3.087v-.859l2.169-4.185h1.175l-2.129 4.086h1.872v-1.341h.99v1.341h.936v.958h-.936V179h-.99Zm5.248.135c-.411 0-.779-.085-1.103-.257a2.426 2.426 0 0 1-.823-.711 3.315 3.315 0 0 1-.513-1.048 4.458 4.458 0 0 1-.176-1.269c0-.453.059-.878.176-1.274.117-.396.288-.744.513-1.044.225-.303.499-.54.823-.711a2.328 2.328 0 0 1 1.103-.256c.411 0 .777.085 1.098.256.324.171.598.408.823.711.225.3.396.648.513 1.044.12.396.18.821.18 1.274 0 .45-.06.873-.18 1.269a3.315 3.315 0 0 1-.513 1.048c-.225.303-.499.54-.823.711a2.288 2.288 0 0 1-1.098.257Zm0-1.022c.447 0 .805-.198 1.075-.594.273-.399.41-.955.41-1.669 0-.714-.137-1.269-.41-1.665-.27-.399-.628-.599-1.075-.599-.444 0-.803.2-1.076.599-.273.396-.409.951-.409 1.665 0 .714.136 1.27.409 1.669.273.396.632.594 1.076.594Zm4.211 1.022a.808.808 0 0 1-.545-.198.68.68 0 0 1-.229-.536.67.67 0 0 1 .229-.535.797.797 0 0 1 .545-.203c.213 0 .394.068.544.203a.67.67 0 0 1 .23.535.68.68 0 0 1-.23.536.794.794 0 0 1-.544.198Zm1.992-.135 2.583-5.252h-2.92V172.7h4.221v.85l-2.642 5.45h-1.242Zm6.299 0v-5.054l-1.562.567-.306-.909 2.867-1.039h.081V179h-1.08Zm4.427.135c-.399 0-.786-.061-1.161-.185-.372-.123-.657-.279-.855-.468l.373-.945c.183.183.417.329.702.437.288.105.578.157.869.157.393 0 .708-.096.945-.287a.955.955 0 0 0 .355-.775c0-.33-.121-.586-.364-.769-.24-.186-.558-.279-.954-.279-.237 0-.485.031-.743.094l-.328-.751 1.863-1.697h-2.66v-.967h4.019v.891l-1.76 1.705c.354.003.686.074.995.212.309.135.559.339.751.612.195.273.293.613.293 1.021 0 .393-.101.74-.302 1.04a1.99 1.99 0 0 1-.823.702 2.783 2.783 0 0 1-1.215.252Zm3.379-.135v-.806l1.355-1.233c.426-.39.765-.72 1.017-.99.255-.273.438-.517.549-.733.114-.219.171-.438.171-.657 0-.321-.11-.572-.329-.752-.219-.18-.525-.27-.918-.27-.276 0-.541.05-.796.149a1.807 1.807 0 0 0-.662.441l-.414-.851c.267-.237.573-.418.918-.544a3.114 3.114 0 0 1 1.076-.189c.447 0 .835.079 1.165.238.333.156.591.375.774.657.183.282.275.614.275.995 0 .258-.053.514-.158.769-.102.255-.283.542-.544.86-.261.318-.632.702-1.112 1.152l-.85.787h2.826V179h-4.343Z" fill="#fff"/><rect x="61.5" y="9.5" width="248" height="39" rx="19.5" fill="#1B1C1C" fill-opacity=".96" stroke="url(#g)"/><path d="M80.654 33.18c-.636 0-1.184-.11-1.644-.33-.456-.224-.806-.526-1.05-.906a2.345 2.345 0 0 1-.366-1.284c0-.504.134-.93.402-1.278.268-.352.642-.622 1.122-.81a2.19 2.19 0 0 1-.858-.66c-.248-.312-.372-.706-.372-1.182 0-.448.12-.844.36-1.188.24-.348.57-.622.99-.822.42-.2.902-.3 1.446-.3.548 0 1.034.1 1.458.3.424.2.756.474.996.822.244.348.366.744.366 1.188 0 .48-.128.874-.384 1.182a2.214 2.214 0 0 1-.846.66c.444.188.804.458 1.08.81.28.352.42.778.42 1.278 0 .472-.132.9-.396 1.284-.26.38-.624.682-1.092.906-.468.22-1.012.33-1.632.33Zm.042-5.232c.412 0 .752-.106 1.02-.318.268-.216.402-.502.402-.858 0-.348-.132-.64-.396-.876s-.606-.354-1.026-.354c-.424 0-.768.118-1.032.354-.26.236-.39.528-.39.876 0 .356.132.642.396.858.268.212.61.318 1.026.318Zm-.012 3.978c.28 0 .542-.052.786-.156.248-.108.448-.264.6-.468.152-.204.228-.456.228-.756 0-.452-.158-.794-.474-1.026-.316-.236-.696-.354-1.14-.354-.46 0-.844.12-1.152.36-.308.236-.462.576-.462 1.02 0 .448.16.79.48 1.026.32.236.698.354 1.134.354Zm5.337 1.254-.534-1.176c.756-.092 1.402-.278 1.938-.558.54-.284.976-.632 1.308-1.044.336-.412.578-.854.726-1.326a2.227 2.227 0 0 1-.756.582 2.178 2.178 0 0 1-.966.216 2.944 2.944 0 0 1-1.428-.342 2.624 2.624 0 0 1-.996-.954 2.67 2.67 0 0 1-.366-1.398c0-.52.13-.988.39-1.404a2.815 2.815 0 0 1 1.092-.99c.468-.244 1.008-.366 1.62-.366.62 0 1.172.134 1.656.402s.864.654 1.14 1.158c.28.5.42 1.104.42 1.812 0 .716-.134 1.378-.402 1.986a5.103 5.103 0 0 1-1.11 1.608 6.23 6.23 0 0 1-1.668 1.164 7.424 7.424 0 0 1-2.064.63Zm2.028-4.536c.456 0 .84-.14 1.152-.42.312-.28.468-.63.468-1.05 0-.428-.154-.778-.462-1.05-.304-.276-.69-.414-1.158-.414-.472 0-.86.138-1.164.414a1.345 1.345 0 0 0-.456 1.05c0 .42.154.77.462 1.05.312.28.698.42 1.158.42Zm5.413 4.536a1.07 1.07 0 0 1-.725-.264.906.906 0 0 1-.306-.714c0-.3.102-.538.306-.714.204-.18.446-.27.726-.27.284 0 .526.09.726.27.204.176.306.414.306.714a.906.906 0 0 1-.306.714 1.06 1.06 0 0 1-.726.264Zm3.145-.18v-6.738l-2.082.756-.408-1.212 3.822-1.386h.108V33h-1.44Zm7.049 0v-1.674H99.54V30.18l2.892-5.58h1.566l-2.838 5.448h2.496V28.26h1.32v1.788h1.248v1.278h-1.248V33h-1.32Zm4.56.18c-.28 0-.522-.088-.726-.264a.906.906 0 0 1-.306-.714c0-.3.102-.538.306-.714.204-.18.446-.27.726-.27.284 0 .526.09.726.27.204.176.306.414.306.714a.906.906 0 0 1-.306.714 1.06 1.06 0 0 1-.726.264Zm3.145-.18v-6.738l-2.082.756-.408-1.212 3.822-1.386h.108V33h-1.44Zm3.413 0v-1.074l1.806-1.644c.568-.52 1.02-.96 1.356-1.32.34-.364.584-.69.732-.978.152-.292.228-.584.228-.876 0-.428-.146-.762-.438-1.002-.292-.24-.7-.36-1.224-.36a2.91 2.91 0 0 0-1.062.198c-.34.132-.634.328-.882.588l-.552-1.134a3.777 3.777 0 0 1 1.224-.726c.46-.168.938-.252 1.434-.252.596 0 1.114.106 1.554.318.444.208.788.5 1.032.876s.366.818.366 1.326c0 .344-.07.686-.21 1.026-.136.34-.378.722-.726 1.146-.348.424-.842.936-1.482 1.536l-1.134 1.05h3.768V33h-5.79Zm8.091.18c-.28 0-.522-.088-.726-.264a.906.906 0 0 1-.306-.714c0-.3.102-.538.306-.714.204-.18.446-.27.726-.27.284 0 .526.09.726.27.204.176.306.414.306.714a.906.906 0 0 1-.306.714 1.06 1.06 0 0 1-.726.264Zm3.144-.18v-6.738l-2.082.756-.408-1.212 3.822-1.386h.108V33h-1.44Zm3.413 0v-1.074l1.806-1.644c.568-.52 1.02-.96 1.356-1.32.34-.364.584-.69.732-.978.152-.292.228-.584.228-.876 0-.428-.146-.762-.438-1.002-.292-.24-.7-.36-1.224-.36a2.91 2.91 0 0 0-1.062.198c-.34.132-.634.328-.882.588l-.552-1.134a3.777 3.777 0 0 1 1.224-.726c.46-.168.938-.252 1.434-.252.596 0 1.114.106 1.554.318.444.208.788.5 1.032.876s.366.818.366 1.326c0 .344-.07.686-.21 1.026-.136.34-.378.722-.726 1.146-.348.424-.842.936-1.482 1.536l-1.134 1.05h3.768V33h-5.79Zm9.603.18a4.935 4.935 0 0 1-1.548-.246c-.496-.164-.876-.372-1.14-.624l.498-1.26c.244.244.556.438.936.582.384.14.77.21 1.158.21.524 0 .944-.128 1.26-.384.316-.26.474-.604.474-1.032 0-.44-.162-.782-.486-1.026-.32-.248-.744-.372-1.272-.372-.316 0-.646.042-.99.126l-.438-1.002 2.484-2.262h-3.546V24.6h5.358v1.188l-2.346 2.274c.472.004.914.098 1.326.282.412.18.746.452 1.002.816.26.364.39.818.39 1.362 0 .524-.134.986-.402 1.386-.264.4-.63.712-1.098.936-.468.224-1.008.336-1.62.336Z" fill="#fff"/><circle cx="290" cy="29" r="14" fill="#E5FF5D"/><g filter="url(#h)"><path d="M292.503 30.503h-.526l-.187-.18a4.316 4.316 0 0 0 1.047-2.82 4.333 4.333 0 1 0-4.334 4.334c1.074 0 2.06-.394 2.82-1.047l.18.187v.526l3.334 3.327.993-.993-3.327-3.334Zm-4 0c-1.66 0-3-1.34-3-3s1.34-3 3-3 3 1.34 3 3-1.34 3-3 3Z" fill="#090909"/></g></g><defs><radialGradient id="b" cx="0" cy="0" r="1" gradientUnits="userSpaceOnUse" gradientTransform="matrix(0 186 -186 0 181 260)"><stop stop-color="#FFF0F0"/><stop offset="1" stop-color="#3B3B3B"/></radialGradient><radialGradient id="c" cx="0" cy="0" r="1" gradientUnits="userSpaceOnUse" gradientTransform="rotate(90 1 261) scale(112)"><stop stop-color="#FFF0F0"/><stop offset="1" stop-color="#3B3B3B"/></radialGradient><radialGradient id="d" cx="0" cy="0" r="1" gradientUnits="userSpaceOnUse" gradientTransform="rotate(90 1 261) scale(256)"><stop stop-color="#FFF0F0"/><stop offset="1" stop-color="#3B3B3B"/></radialGradient><linearGradient id="f" x1="-.266" y1="318.904" x2="390.763" y2="175.97" gradientUnits="userSpaceOnUse"><stop stop-color="#5DA8FF" stop-opacity=".3"/><stop offset="1" stop-color="#899938"/></linearGradient><linearGradient id="g" x1="310" y1="42.846" x2="86.011" y2="-50.814" gradientUnits="userSpaceOnUse"><stop stop-color="#E5FF5D"/><stop offset="1" stop-color="#5DFFFF"/></linearGradient><filter id="e" x="-179" y="3" width="727" height="533" filterUnits="userSpaceOnUse" color-interpolation-filters="sRGB"><feFlood flood-opacity="0" result="BackgroundImageFix"/><feBlend in="SourceGraphic" in2="BackgroundImageFix" result="shape"/><feGaussianBlur stdDeviation="64" result="effect1_foregroundBlur_2_899"/></filter><filter id="h" x="266" y="9" width="48" height="48" filterUnits="userSpaceOnUse" color-interpolation-filters="sRGB"><feFlood flood-opacity="0" result="BackgroundImageFix"/><feColorMatrix in="SourceAlpha" values="0 0 0 0 0 0 0 0 0 0 0 0 0 0 0 0 0 0 127 0" result="hardAlpha"/><feOffset dy="4"/><feGaussianBlur stdDeviation="8"/><feComposite in2="hardAlpha" operator="out"/><feColorMatrix values="0 0 0 0 0.607433 0 0 0 0 0.708431 0 0 0 0 0.0791335 0 0 0 1 0"/><feBlend in2="BackgroundImageFix" result="effect1_dropShadow_2_899"/><feBlend in="SourceGraphic" in2="effect1_dropShadow_2_899" result="shape"/></filter><clipPath id="a"><path fill="#fff" d="M0 0h368v222H0z"/></clipPath></defs></svg>