<svg width="52" height="52" fill="none" xmlns="http://www.w3.org/2000/svg"><path d="M24.54 35.374a1 1 0 0 0-1.414-1.414l1.414 1.414Zm-7.207 5.793-.707.707a1 1 0 0 0 1.414 0l-.707-.707ZM11.54 33.96a1 1 0 1 0-1.414 1.414l1.414-1.414Zm15.92-17.334a1 1 0 0 0 1.413 1.415l-1.414-1.415Zm7.206-5.793.707-.707a1 1 0 0 0-1.414 0l.707.707Zm5.793 7.208a1 1 0 0 0 1.414-1.415l-1.414 1.415Zm-6.793 23.126a1 1 0 0 0 2 0h-2ZM18.333 10.833a1 1 0 0 0-2 0h2Zm4.793 23.127-6.5 6.5 1.414 1.414 6.5-6.5-1.414-1.414Zm-5.086 6.5-6.5-6.5-1.414 1.414 6.5 6.5 1.414-1.414Zm10.833-22.42 6.5-6.5-1.414-1.414-6.5 6.5 1.414 1.415Zm5.086-6.5 6.5 6.5 1.414-1.414-6.5-6.5-1.414 1.415Zm1.707 29.627V10.833h-2v30.334h2ZM16.333 10.833v30.334h2V10.833h-2Z" fill="#F56311"/></svg>