<svg width="53" height="52" fill="none" xmlns="http://www.w3.org/2000/svg"><path d="M39.255 40.762a1 1 0 0 0 1.47-1.357l-1.47 1.357ZM26.99 26h-1a1 1 0 0 0 .265.678L26.99 26Zm0 18.5c-10.217 0-18.5-8.283-18.5-18.5h-2c0 11.322 9.178 20.5 20.5 20.5v-2ZM8.49 26c0-10.217 8.283-18.5 18.5-18.5v-2c-11.322 0-20.5 9.178-20.5 20.5h2Zm18.5-18.5c10.218 0 18.5 8.283 18.5 18.5h2c0-11.322-9.178-20.5-20.5-20.5v2ZM45.49 26c0 10.217-8.282 18.5-18.5 18.5v2c11.322 0 20.5-9.178 20.5-20.5h-2Zm-4.765 13.405-13-14.083-1.47 1.356 13 14.084 1.47-1.357ZM27.99 26V6.5h-2V26h2Zm-1 1h19.5v-2h-19.5v2Z" fill="#F56311"/></svg>