<svg width="20" height="20" fill="none" xmlns="http://www.w3.org/2000/svg"><path d="M3.5 7.5a1 1 0 0 0-2 0h2Zm9 11a1 1 0 1 0 0-2v2Zm-9.91-1.455-.89.454.89-.454Zm.365.364.454-.89-.454.89Zm11.879-3.242v-1 1Zm-6.334 0v1-1Zm9-2.667h1-1Zm-.181 1.757.89.454-.89-.454Zm-.73.728.455.891-.454-.891Zm0-11.303.455-.891-.454.89Zm.911 2.485h-1 1Zm-.18-1.757.89-.454-.89.454Zm-11.304 0-.891-.454.891.454Zm.728-.728.454.89-.454-.89Zm-.728 10.575.891-.454-.891.454Zm.728.728.454-.891-.454.891Zm3.924-3.152a1 1 0 1 0 2 0h-2Zm2-5a1 1 0 1 0-2 0h2Zm-3.5 1.5a1 1 0 1 0 0 2v-2Zm5 2a1 1 0 1 0 0-2v2ZM1.5 7.5v8.667h2V7.5h-2Zm2.333 11H12.5v-2H3.833v2ZM1.5 16.167c0 .216 0 .44.015.628.016.201.056.45.185.704l1.782-.908c.038.075.032.119.026.042a2.744 2.744 0 0 1-.007-.173 19.74 19.74 0 0 1-.001-.293h-2Zm2.333.333-.293-.001a2.775 2.775 0 0 1-.173-.007c-.077-.006-.033-.012.042.026L2.5 18.3c.254.13.503.169.704.185.189.016.412.015.628.015v-2Zm-2.133.999c.176.345.456.625.8.801l.909-1.782a.167.167 0 0 1 .073.073l-1.782.908ZM6.833 11.5V5.167h-2V11.5h2Zm1.667-8h6.334v-2H8.5v2Zm6.334 9.667H8.5v2h6.334v-2ZM16.5 11.5c0 .483 0 .786-.02 1.013-.017.216-.046.276-.053.29l1.782.908c.175-.343.237-.695.265-1.035.027-.328.026-.726.026-1.176h-2Zm-1.666 3.667c.45 0 .847 0 1.175-.026.34-.028.692-.09 1.035-.265l-.908-1.782c-.014.007-.074.036-.29.053-.227.019-.53.02-1.012.02v2Zm1.593-2.364a.668.668 0 0 1-.291.291l.908 1.782a2.66 2.66 0 0 0 1.165-1.165l-1.782-.908ZM14.834 3.5c.483 0 .785 0 1.013.02.216.017.275.046.289.053l.908-1.782c-.343-.175-.695-.237-1.035-.265-.328-.027-.725-.026-1.175-.026v2ZM18.5 5.167c0-.45.001-.848-.026-1.176-.028-.34-.09-.692-.265-1.035l-1.782.908c.008.014.036.073.054.29.018.227.02.53.02 1.013h2Zm-2.364-1.594a.667.667 0 0 1 .291.291l1.782-.908a2.667 2.667 0 0 0-1.165-1.165l-.908 1.782ZM6.833 5.167c0-.484.001-.786.02-1.014.017-.216.046-.275.053-.289l-1.782-.908c-.175.343-.237.695-.265 1.035-.026.328-.026.725-.026 1.176h2ZM8.5 1.5c-.45 0-.848 0-1.176.026-.34.028-.692.09-1.035.265l.908 1.782c.014-.007.073-.036.29-.054.228-.018.53-.019 1.013-.019v-2ZM6.906 3.864a.666.666 0 0 1 .291-.291L6.29 1.79a2.66 2.66 0 0 0-1.165 1.165l1.782.908ZM4.833 11.5c0 .45 0 .848.026 1.176.028.34.09.692.265 1.035l1.782-.908c-.007-.014-.036-.074-.053-.29-.019-.227-.02-.53-.02-1.013h-2ZM8.5 13.167c-.483 0-.785-.001-1.013-.02-.216-.017-.276-.046-.29-.053l-.908 1.782c.343.175.695.237 1.035.265.328.026.726.026 1.176.026v-2Zm-3.376.544c.256.501.663.91 1.165 1.165l.908-1.782a.666.666 0 0 1-.291-.291l-1.782.908ZM16.5 5.167V11.5h2V5.167h-2Zm-3.833 5.666v-5h-2v5h2Zm-3.5-1.5h5v-2h-5v2Z" fill="#8C8D92"/></svg>