<svg width="24" height="24" fill="none" xmlns="http://www.w3.org/2000/svg"><path d="m6.667 8 5.485 4 5.181-4M18 9.467v5.066c0 .747 0 1.12-.145 1.406-.128.25-.332.454-.583.582-.285.146-.659.146-1.405.146H8.133c-.746 0-1.12 0-1.405-.146a1.333 1.333 0 0 1-.583-.582C6 15.653 6 15.28 6 14.533V9.467c0-.747 0-1.12.145-1.406.128-.25.332-.455.583-.582.285-.146.659-.146 1.405-.146h7.734c.746 0 1.12 0 1.405.146.25.127.455.331.583.582.145.286.145.659.145 1.406Z" stroke="#8C8D92" stroke-width="2" stroke-linecap="round" stroke-linejoin="round"/></svg>