<svg width="25" height="25" fill="none" xmlns="http://www.w3.org/2000/svg"><path d="M12.2 17.207a1 1 0 0 0-1.415-1.414l1.414 1.414ZM8.491 19.5l-.707.707a1 1 0 0 0 1.414 0l-.707-.707ZM6.2 15.793a1 1 0 0 0-1.414 1.414L6.2 15.793Zm6.586-8A1 1 0 0 0 14.2 9.207l-1.414-1.414ZM16.492 5.5l.707-.707a1 1 0 0 0-1.414 0l.707.707Zm2.293 3.707A1 1 0 1 0 20.2 7.793l-1.414 1.414ZM15.492 19.5a1 1 0 1 0 2 0h-2Zm-6-14a1 1 0 0 0-2 0h2Zm1.293 10.293-3 3L9.2 20.207l3-3-1.414-1.414Zm-1.586 3-3-3-1.414 1.414 3 3L9.2 18.793Zm5-9.586 3-3-1.414-1.414-3 3L14.2 9.207Zm1.586-3 3 3L20.2 7.793l-3-3-1.414 1.414ZM17.492 19.5v-14h-2v14h2Zm-10-14v14h2v-14h-2Z" fill="#F56311"/></svg>