<svg width="8" height="15" fill="none" xmlns="http://www.w3.org/2000/svg"><path d="M2.414 14.952a48.933 48.933 0 0 1-.36-1.968c-.096-.688-.184-1.36-.264-2.016a53.483 53.483 0 0 1-.192-1.872 18.08 18.08 0 0 1-.072-1.464c0-.528.072-1.072.216-1.632.144-.56.416-1.088.816-1.584.416-.496 1.024-.912 1.824-1.248l2.928.048c-.832.256-1.448.6-1.848 1.032a3.118 3.118 0 0 0-.744 1.44 6.349 6.349 0 0 0-.096 1.56c.016.4.064.936.144 1.608.096.672.2 1.384.312 2.136.128.752.24 1.48.336 2.184.112.704.208 1.296.288 1.776H2.414ZM.638 3.216V.6h7.008L7.31 3.216H.638Z" fill="#F56311"/></svg>