<svg width="24" height="24" fill="none" xmlns="http://www.w3.org/2000/svg"><path d="M10.335 6.838A1.333 1.333 0 0 0 9.097 6H7.263C6.566 6 6 6.566 6 7.263 6 13.193 10.807 18 16.737 18c.698 0 1.263-.566 1.263-1.263v-1.834c0-.546-.332-1.036-.838-1.238l-1.757-.703a1.333 1.333 0 0 0-1.349.213l-.454.379a1.333 1.333 0 0 1-1.796-.082l-1.278-1.278a1.333 1.333 0 0 1-.082-1.796l.379-.454c.313-.376.395-.894.213-1.349l-.703-1.757Z" stroke="#8C8D92" stroke-width="2" stroke-linecap="round" stroke-linejoin="round"/></svg>