<svg width="533" height="245" fill="none" xmlns="http://www.w3.org/2000/svg"><path stroke="#EDEDED" d="M50.637 223.5h481.366m-481.366-36h481.366m-481.366-36h481.366m-481.366-36h481.366m-481.366-36 481.366-.001M50.637 43.5l481.366-.001M50.637 7.5h481.366"/><path d="M74.65 183.154a4 4 0 0 1 8 0v39.85h-8v-39.85Zm38.721-140.15a4 4 0 0 1 8 0v180h-8v-180Zm193.831 157.65a4 4 0 0 1 8 0v22.35h-8v-22.35Zm38.759-23.965a4 4 0 0 1 8 0v46.315h-8v-46.315Zm-193.794-8.535a4 4 0 0 1 8 0v54.85h-8v-54.85Zm232.553-41a4 4 0 0 1 8 0v95.85h-8v-95.85Zm-193.794 5a4 4 0 0 1 8 0v90.85h-8v-90.85Zm232.553 12.5a4 4 0 1 1 8 0v78.35h-8v-78.35Zm-193.794 20a4 4 0 1 1 8 0v58.35h-8v-58.35Zm232.552-31.036a4 4 0 0 1 8 0v89.386h-8v-89.386Zm-193.794 13.536a4 4 0 0 1 8 0v75.85h-8v-75.85Zm232.553 65.535a4 4 0 0 1 8 0v10.315h-8v-10.315Z" fill="#F56311"/><path d="M29.01 226.072v-4.12H30v3.16h.53a5.52 5.52 0 0 0 1.04-.08c.273-.053.483-.153.63-.3.153-.153.26-.373.32-.66.06-.287.09-.663.09-1.13v-2.82h1.08v2.82c0 .78-.097 1.4-.29 1.86a1.77 1.77 0 0 1-.98.98c-.46.193-1.09.29-1.89.29h-1.52Zm-1.86 0v-5.95h2.54c.473 0 .863.07 1.17.21.313.133.546.347.7.64.153.287.23.657.23 1.11v2.09h-.99v-1.91c0-.3-.047-.533-.14-.7a.76.76 0 0 0-.38-.37 1.338 1.338 0 0 0-.56-.11h-1.5v4.99h-1.07Zm15.191-3.58c0 .58-.046 1.097-.14 1.55-.086.453-.226.84-.42 1.16a1.903 1.903 0 0 1-.75.72c-.306.167-.676.25-1.11.25-.546 0-.996-.147-1.35-.44-.353-.293-.616-.713-.79-1.26-.173-.553-.26-1.213-.26-1.98 0-.773.077-1.433.23-1.98.16-.547.417-.963.77-1.25.354-.293.82-.44 1.4-.44.547 0 .997.147 1.35.44.36.287.627.703.8 1.25.18.547.27 1.207.27 1.98Zm-3.76 0c0 .62.044 1.137.13 1.55.087.413.227.723.42.93.2.207.464.31.79.31.327 0 .587-.1.78-.3.2-.207.344-.517.43-.93.094-.42.14-.94.14-1.56 0-.62-.046-1.133-.14-1.54-.086-.413-.23-.723-.43-.93-.193-.207-.453-.31-.78-.31-.326 0-.59.103-.79.31-.193.207-.333.517-.42.93-.086.407-.13.92-.13 1.54ZM6.119 190.154v-4.12h.99v3.16h.53c.427 0 .773-.027 1.04-.08.273-.054.483-.154.63-.3.153-.154.26-.374.32-.66.06-.287.09-.664.09-1.13v-2.82h1.08v2.82c0 .78-.097 1.4-.29 1.86a1.77 1.77 0 0 1-.98.98c-.46.193-1.09.29-1.89.29h-1.52Zm-1.86 0v-5.95h2.54c.473 0 .863.07 1.17.21.313.133.547.346.7.64.153.286.23.656.23 1.11v2.09h-.99v-1.91c0-.3-.047-.534-.14-.7a.755.755 0 0 0-.38-.37 1.322 1.322 0 0 0-.56-.11h-1.5v4.99h-1.07Zm13.642 0h-1.05v-5.2a76.909 76.909 0 0 1 .04-.82 5.08 5.08 0 0 1-.27.25c-.094.08-.2.173-.32.28l-.78.63-.54-.68 2.04-1.6h.88v7.14Zm7.272-3.58c0 .58-.046 1.096-.14 1.55a3.5 3.5 0 0 1-.42 1.16 1.902 1.902 0 0 1-.75.72c-.306.166-.676.25-1.11.25-.546 0-.996-.147-1.35-.44-.353-.294-.616-.714-.79-1.26-.173-.554-.26-1.214-.26-1.98 0-.774.077-1.434.23-1.98.16-.547.417-.964.77-1.25.354-.294.82-.44 1.4-.44.547 0 .997.146 1.35.44.36.286.627.703.8 1.25.18.546.27 1.206.27 1.98Zm-3.76 0c0 .62.044 1.136.13 1.55.087.413.227.723.42.93.2.206.464.31.79.31.327 0 .587-.1.78-.3.2-.207.344-.517.43-.93.094-.42.14-.94.14-1.56 0-.62-.046-1.134-.14-1.54-.086-.414-.23-.724-.43-.93-.193-.207-.453-.31-.78-.31-.326 0-.59.103-.79.31-.193.206-.333.516-.42.93-.086.406-.13.92-.13 1.54Zm9.483 0a7.74 7.74 0 0 1-.14 1.55c-.087.453-.227.84-.42 1.16a1.903 1.903 0 0 1-.75.72c-.307.166-.677.25-1.11.25-.547 0-.997-.147-1.35-.44-.353-.294-.617-.714-.79-1.26-.173-.554-.26-1.214-.26-1.98 0-.774.077-1.434.23-1.98.16-.547.417-.964.77-1.25.353-.294.82-.44 1.4-.44.547 0 .997.146 1.35.44.36.286.627.703.8 1.25.18.546.27 1.206.27 1.98Zm-3.76 0c0 .62.043 1.136.13 1.55.087.413.227.723.42.93.2.206.463.31.79.31s.587-.1.78-.3c.2-.207.343-.517.43-.93.093-.42.14-.94.14-1.56 0-.62-.047-1.134-.14-1.54-.087-.414-.23-.724-.43-.93-.193-.207-.453-.31-.78-.31s-.59.103-.79.31c-.193.206-.333.516-.42.93-.087.406-.13.92-.13 1.54Zm9.483 0c0 .58-.047 1.096-.14 1.55a3.5 3.5 0 0 1-.42 1.16 1.902 1.902 0 0 1-.75.72c-.307.166-.677.25-1.11.25-.547 0-.997-.147-1.35-.44-.354-.294-.617-.714-.79-1.26-.174-.554-.26-1.214-.26-1.98 0-.774.076-1.434.23-1.98.16-.547.416-.964.77-1.25.353-.294.82-.44 1.4-.44.546 0 .996.146 1.35.44.36.286.626.703.8 1.25.18.546.27 1.206.27 1.98Zm-3.76 0c0 .62.043 1.136.13 1.55.086.413.226.723.42.93.2.206.463.31.79.31.326 0 .586-.1.78-.3.2-.207.343-.517.43-.93.093-.42.14-.94.14-1.56 0-.62-.047-1.134-.14-1.54-.087-.414-.23-.724-.43-.93-.194-.207-.454-.31-.78-.31-.327 0-.59.103-.79.31-.194.206-.334.516-.42.93-.087.406-.13.92-.13 1.54Zm9.482 0a7.74 7.74 0 0 1-.14 1.55c-.086.453-.226.84-.42 1.16a1.903 1.903 0 0 1-.75.72c-.306.166-.676.25-1.11.25-.546 0-.996-.147-1.35-.44-.353-.294-.616-.714-.79-1.26-.173-.554-.26-1.214-.26-1.98 0-.774.077-1.434.23-1.98.16-.547.417-.964.77-1.25.354-.294.82-.44 1.4-.44.547 0 .997.146 1.35.44.36.286.627.703.8 1.25.18.546.27 1.206.27 1.98Zm-3.76 0c0 .62.044 1.136.13 1.55.087.413.227.723.42.93.2.206.464.31.79.31.327 0 .587-.1.78-.3.2-.207.344-.517.43-.93.094-.42.14-.94.14-1.56 0-.62-.046-1.134-.14-1.54-.086-.414-.23-.724-.43-.93-.193-.207-.453-.31-.78-.31-.326 0-.59.103-.79.31-.193.206-.333.516-.42.93-.086.406-.13.92-.13 1.54ZM6.119 155v-4.12h.99v3.16h.53c.427 0 .773-.027 1.04-.08.273-.054.483-.154.63-.3.153-.154.26-.374.32-.66.06-.287.09-.664.09-1.13v-2.82h1.08v2.82c0 .78-.097 1.4-.29 1.86a1.77 1.77 0 0 1-.98.98c-.46.193-1.09.29-1.89.29h-1.52Zm-1.86 0v-5.95h2.54c.473 0 .863.07 1.17.21.313.133.547.346.7.64.153.286.23.656.23 1.11v2.09h-.99v-1.91c0-.3-.047-.534-.14-.7a.755.755 0 0 0-.38-.37 1.322 1.322 0 0 0-.56-.11h-1.5V155h-1.07Zm13.642 0h-1.05v-5.2a76.909 76.909 0 0 1 .04-.82 5.08 5.08 0 0 1-.27.25c-.094.08-.2.173-.32.28l-.78.63-.54-.68 2.04-1.6h.88V155Zm4.822-4.43c.474 0 .887.083 1.24.25.354.166.627.406.82.72.2.313.3.696.3 1.15 0 .5-.106.93-.32 1.29-.213.36-.523.636-.93.83-.4.193-.89.29-1.47.29-.366 0-.713-.034-1.04-.1a2.911 2.911 0 0 1-.83-.29v-.97c.24.14.53.253.87.34.347.086.677.13.99.13.34 0 .63-.05.87-.15.247-.107.437-.264.57-.47.14-.214.21-.48.21-.8 0-.434-.136-.764-.41-.99-.266-.234-.69-.35-1.27-.35a4.4 4.4 0 0 0-.63.05c-.226.033-.41.066-.55.1l-.49-.29.27-3.45h3.67v.94h-2.75l-.16 1.87c.114-.02.257-.04.43-.06a4.03 4.03 0 0 1 .61-.04Zm8.173.85a7.74 7.74 0 0 1-.14 1.55c-.087.453-.227.84-.42 1.16a1.903 1.903 0 0 1-.75.72c-.307.166-.677.25-1.11.25-.547 0-.997-.147-1.35-.44-.353-.294-.617-.714-.79-1.26-.173-.554-.26-1.214-.26-1.98 0-.774.077-1.434.23-1.98.16-.547.417-.964.77-1.25.353-.294.82-.44 1.4-.44.547 0 .997.146 1.35.44.36.286.627.703.8 1.25.18.546.27 1.206.27 1.98Zm-3.76 0c0 .62.043 1.136.13 1.55.087.413.227.723.42.93.2.206.463.31.79.31s.587-.1.78-.3c.2-.207.343-.517.43-.93.093-.42.14-.94.14-1.56 0-.62-.047-1.134-.14-1.54-.087-.414-.23-.724-.43-.93-.193-.207-.453-.31-.78-.31s-.59.103-.79.31c-.193.206-.333.516-.42.93-.087.406-.13.92-.13 1.54Zm9.483 0c0 .58-.047 1.096-.14 1.55a3.5 3.5 0 0 1-.42 1.16 1.902 1.902 0 0 1-.75.72c-.307.166-.677.25-1.11.25-.547 0-.997-.147-1.35-.44-.354-.294-.617-.714-.79-1.26-.174-.554-.26-1.214-.26-1.98 0-.774.076-1.434.23-1.98.16-.547.416-.964.77-1.25.353-.294.82-.44 1.4-.44.546 0 .996.146 1.35.44.36.286.626.703.8 1.25.18.546.27 1.206.27 1.98Zm-3.76 0c0 .62.043 1.136.13 1.55.086.413.226.723.42.93.2.206.463.31.79.31.326 0 .586-.1.78-.3.2-.207.343-.517.43-.93.093-.42.14-.94.14-1.56 0-.62-.047-1.134-.14-1.54-.087-.414-.23-.724-.43-.93-.194-.207-.454-.31-.78-.31-.327 0-.59.103-.79.31-.194.206-.334.516-.42.93-.087.406-.13.92-.13 1.54Zm9.482 0a7.74 7.74 0 0 1-.14 1.55c-.086.453-.226.84-.42 1.16a1.903 1.903 0 0 1-.75.72c-.306.166-.676.25-1.11.25-.546 0-.996-.147-1.35-.44-.353-.294-.616-.714-.79-1.26-.173-.554-.26-1.214-.26-1.98 0-.774.077-1.434.23-1.98.16-.547.417-.964.77-1.25.354-.294.82-.44 1.4-.44.547 0 .997.146 1.35.44.36.286.627.703.8 1.25.18.546.27 1.206.27 1.98Zm-3.76 0c0 .62.044 1.136.13 1.55.087.413.227.723.42.93.2.206.464.31.79.31.327 0 .587-.1.78-.3.2-.207.344-.517.43-.93.094-.42.14-.94.14-1.56 0-.62-.046-1.134-.14-1.54-.086-.414-.23-.724-.43-.93-.193-.207-.453-.31-.78-.31-.326 0-.59.103-.79.31-.193.206-.333.516-.42.93-.086.406-.13.92-.13 1.54ZM6.119 120v-4.12h.99v3.16h.53c.427 0 .773-.027 1.04-.08.273-.053.483-.153.63-.3.153-.153.26-.373.32-.66.06-.287.09-.663.09-1.13v-2.82h1.08v2.82c0 .78-.097 1.4-.29 1.86-.193.46-.52.787-.98.98-.46.193-1.09.29-1.89.29h-1.52Zm-1.86 0v-5.95h2.54c.473 0 .863.07 1.17.21.313.133.547.347.7.64.153.287.23.657.23 1.11v2.09h-.99v-1.91c0-.3-.047-.533-.14-.7a.76.76 0 0 0-.38-.37 1.338 1.338 0 0 0-.56-.11h-1.5V120h-1.07Zm15.182 0h-4.8v-.82l1.84-1.87c.36-.367.66-.683.9-.95.24-.273.42-.533.54-.78.12-.253.18-.527.18-.82 0-.367-.107-.64-.32-.82-.214-.187-.49-.28-.83-.28-.327 0-.62.063-.88.19-.26.12-.53.29-.81.51l-.57-.71c.193-.167.4-.317.62-.45a3.29 3.29 0 0 1 .75-.32c.28-.08.586-.12.92-.12.453 0 .843.08 1.17.24.326.153.576.373.75.66.18.287.27.623.27 1.01 0 .38-.077.733-.23 1.06a4.18 4.18 0 0 1-.65.97c-.28.313-.61.653-.99 1.02l-1.33 1.29v.05h3.47v.94Zm5.732-3.58c0 .58-.046 1.097-.14 1.55a3.5 3.5 0 0 1-.42 1.16 1.902 1.902 0 0 1-.75.72c-.306.167-.676.25-1.11.25-.546 0-.996-.147-1.35-.44-.353-.293-.616-.713-.79-1.26-.173-.553-.26-1.213-.26-1.98 0-.773.077-1.433.23-1.98.16-.547.417-.963.77-1.25.354-.293.82-.44 1.4-.44.547 0 .997.147 1.35.44.36.287.627.703.8 1.25.18.547.27 1.207.27 1.98Zm-3.76 0c0 .62.044 1.137.13 1.55.087.413.227.723.42.93.2.207.464.31.79.31.327 0 .587-.1.78-.3.2-.207.344-.517.43-.93.094-.42.14-.94.14-1.56 0-.62-.046-1.133-.14-1.54-.086-.413-.23-.723-.43-.93-.193-.207-.453-.31-.78-.31-.326 0-.59.103-.79.31-.193.207-.333.517-.42.93-.086.407-.13.92-.13 1.54Zm9.483 0c0 .58-.047 1.097-.14 1.55-.087.453-.227.84-.42 1.16a1.903 1.903 0 0 1-.75.72c-.307.167-.677.25-1.11.25-.547 0-.997-.147-1.35-.44-.353-.293-.617-.713-.79-1.26-.173-.553-.26-1.213-.26-1.98 0-.773.077-1.433.23-1.98.16-.547.417-.963.77-1.25.353-.293.82-.44 1.4-.44.547 0 .997.147 1.35.44.36.287.627.703.8 1.25.18.547.27 1.207.27 1.98Zm-3.76 0c0 .62.043 1.137.13 1.55.087.413.227.723.42.93.2.207.463.31.79.31s.587-.1.78-.3c.2-.207.343-.517.43-.93.093-.42.14-.94.14-1.56 0-.62-.047-1.133-.14-1.54-.087-.413-.23-.723-.43-.93-.193-.207-.453-.31-.78-.31s-.59.103-.79.31c-.193.207-.333.517-.42.93-.087.407-.13.92-.13 1.54Zm9.483 0c0 .58-.047 1.097-.14 1.55a3.5 3.5 0 0 1-.42 1.16 1.902 1.902 0 0 1-.75.72c-.307.167-.677.25-1.11.25-.547 0-.997-.147-1.35-.44-.354-.293-.617-.713-.79-1.26-.174-.553-.26-1.213-.26-1.98 0-.773.076-1.433.23-1.98.16-.547.416-.963.77-1.25.353-.293.82-.44 1.4-.44.546 0 .996.147 1.35.44.36.287.626.703.8 1.25.18.547.27 1.207.27 1.98Zm-3.76 0c0 .62.043 1.137.13 1.55.086.413.226.723.42.93.2.207.463.31.79.31.326 0 .586-.1.78-.3.2-.207.343-.517.43-.93.093-.42.14-.94.14-1.56 0-.62-.047-1.133-.14-1.54-.087-.413-.23-.723-.43-.93-.194-.207-.454-.31-.78-.31-.327 0-.59.103-.79.31-.194.207-.334.517-.42.93-.087.407-.13.92-.13 1.54Zm9.482 0c0 .58-.046 1.097-.14 1.55-.086.453-.226.84-.42 1.16a1.903 1.903 0 0 1-.75.72c-.306.167-.676.25-1.11.25-.546 0-.996-.147-1.35-.44-.353-.293-.616-.713-.79-1.26-.173-.553-.26-1.213-.26-1.98 0-.773.077-1.433.23-1.98.16-.547.417-.963.77-1.25.354-.293.82-.44 1.4-.44.547 0 .997.147 1.35.44.36.287.627.703.8 1.25.18.547.27 1.207.27 1.98Zm-3.76 0c0 .62.044 1.137.13 1.55.087.413.227.723.42.93.2.207.464.31.79.31.327 0 .587-.1.78-.3.2-.207.344-.517.43-.93.094-.42.14-.94.14-1.56 0-.62-.046-1.133-.14-1.54-.086-.413-.23-.723-.43-.93-.193-.207-.453-.31-.78-.31-.326 0-.59.103-.79.31-.193.207-.333.517-.42.93-.086.407-.13.92-.13 1.54ZM6.119 84v-4.12h.99v3.16h.53c.427 0 .773-.027 1.04-.08.273-.054.483-.154.63-.3.153-.154.26-.374.32-.66.06-.287.09-.664.09-1.13v-2.82h1.08v2.82c0 .78-.097 1.4-.29 1.86a1.77 1.77 0 0 1-.98.98c-.46.193-1.09.29-1.89.29h-1.52Zm-1.86 0v-5.95h2.54c.473 0 .863.07 1.17.21.313.133.547.346.7.64.153.286.23.656.23 1.11v2.09h-.99v-1.91c0-.3-.047-.534-.14-.7a.759.759 0 0 0-.38-.37 1.331 1.331 0 0 0-.56-.11h-1.5V84h-1.07Zm15.182 0h-4.8v-.82l1.84-1.87c.36-.367.66-.684.9-.95.24-.274.42-.534.54-.78.12-.254.18-.527.18-.82 0-.367-.107-.64-.32-.82-.214-.187-.49-.28-.83-.28-.327 0-.62.063-.88.19-.26.12-.53.29-.81.51l-.57-.71c.193-.167.4-.317.62-.45.226-.134.476-.24.75-.32.28-.08.586-.12.92-.12.453 0 .843.08 1.17.24.326.153.576.373.75.66.18.286.27.623.27 1.01 0 .38-.077.733-.23 1.06a4.22 4.22 0 0 1-.65.97c-.28.313-.61.653-.99 1.02l-1.33 1.29v.05h3.47V84Zm3.282-4.43c.474 0 .887.083 1.24.25.354.166.627.406.82.72.2.313.3.696.3 1.15 0 .5-.106.93-.32 1.29-.213.36-.523.636-.93.83-.4.193-.89.29-1.47.29a5.2 5.2 0 0 1-1.04-.1 2.884 2.884 0 0 1-.83-.29v-.97c.24.14.53.253.87.34.347.086.677.13.99.13.34 0 .63-.05.87-.15.247-.107.437-.264.57-.47.14-.214.21-.48.21-.8 0-.434-.136-.764-.41-.99-.266-.234-.69-.35-1.27-.35a4.49 4.49 0 0 0-.63.05c-.226.033-.41.066-.55.1l-.49-.29.27-3.45h3.67v.94h-2.75l-.16 1.87c.114-.02.257-.04.43-.06a4.03 4.03 0 0 1 .61-.04Zm8.173.85c0 .58-.047 1.096-.14 1.55-.087.453-.227.84-.42 1.16a1.899 1.899 0 0 1-.75.72c-.307.166-.677.25-1.11.25-.547 0-.997-.147-1.35-.44-.353-.294-.617-.714-.79-1.26-.173-.554-.26-1.214-.26-1.98 0-.774.077-1.434.23-1.98.16-.547.417-.964.77-1.25.353-.294.82-.44 1.4-.44.547 0 .997.146 1.35.44.36.286.627.703.8 1.25.18.546.27 1.206.27 1.98Zm-3.76 0c0 .62.043 1.136.13 1.55.087.413.227.723.42.93.2.206.463.31.79.31s.587-.1.78-.3c.2-.207.343-.517.43-.93.093-.42.14-.94.14-1.56 0-.62-.047-1.134-.14-1.54-.087-.414-.23-.724-.43-.93-.193-.207-.453-.31-.78-.31s-.59.103-.79.31c-.193.206-.333.516-.42.93-.087.406-.13.92-.13 1.54Zm9.483 0c0 .58-.047 1.096-.14 1.55-.087.453-.227.84-.42 1.16a1.898 1.898 0 0 1-.75.72c-.307.166-.677.25-1.11.25-.547 0-.997-.147-1.35-.44-.354-.294-.617-.714-.79-1.26-.174-.554-.26-1.214-.26-1.98 0-.774.076-1.434.23-1.98.16-.547.416-.964.77-1.25.353-.294.82-.44 1.4-.44.546 0 .996.146 1.35.44.36.286.626.703.8 1.25.18.546.27 1.206.27 1.98Zm-3.76 0c0 .62.043 1.136.13 1.55.086.413.226.723.42.93.2.206.463.31.79.31.326 0 .586-.1.78-.3.2-.207.343-.517.43-.93.093-.42.14-.94.14-1.56 0-.62-.047-1.134-.14-1.54-.087-.414-.23-.724-.43-.93-.194-.207-.454-.31-.78-.31-.327 0-.59.103-.79.31-.194.206-.334.516-.42.93-.087.406-.13.92-.13 1.54Zm9.482 0c0 .58-.046 1.096-.14 1.55-.086.453-.226.84-.42 1.16a1.899 1.899 0 0 1-.75.72c-.306.166-.676.25-1.11.25-.546 0-.996-.147-1.35-.44-.353-.294-.616-.714-.79-1.26-.173-.554-.26-1.214-.26-1.98 0-.774.077-1.434.23-1.98.16-.547.417-.964.77-1.25.354-.294.82-.44 1.4-.44.547 0 .997.146 1.35.44.36.286.627.703.8 1.25.18.546.27 1.206.27 1.98Zm-3.76 0c0 .62.044 1.136.13 1.55.087.413.227.723.42.93.2.206.464.31.79.31.327 0 .587-.1.78-.3.2-.207.344-.517.43-.93.094-.42.14-.94.14-1.56 0-.62-.046-1.134-.14-1.54-.086-.414-.23-.724-.43-.93-.193-.207-.453-.31-.78-.31-.326 0-.59.103-.79.31-.193.206-.333.516-.42.93-.086.406-.13.92-.13 1.54ZM6.119 48v-4.12h.99v3.16h.53c.427 0 .773-.027 1.04-.08.273-.054.483-.154.63-.3.153-.154.26-.374.32-.66.06-.287.09-.664.09-1.13v-2.82h1.08v2.82c0 .78-.097 1.4-.29 1.86a1.77 1.77 0 0 1-.98.98c-.46.193-1.09.29-1.89.29h-1.52Zm-1.86 0v-5.95h2.54c.473 0 .863.07 1.17.21.313.133.547.346.7.64.153.286.23.656.23 1.11v2.09h-.99v-1.91c0-.3-.047-.534-.14-.7a.759.759 0 0 0-.38-.37 1.331 1.331 0 0 0-.56-.11h-1.5V48h-1.07Zm14.902-5.49c0 .32-.064.6-.19.84-.12.233-.294.423-.52.57a2.405 2.405 0 0 1-.78.32v.04c.573.066 1 .246 1.28.54.286.286.43.666.43 1.14 0 .413-.1.783-.3 1.11-.194.32-.497.573-.91.76-.407.18-.93.27-1.57.27-.38 0-.734-.03-1.06-.09a3.7 3.7 0 0 1-.93-.3v-.96a4.405 4.405 0 0 0 1.95.47c.606 0 1.043-.114 1.31-.34.266-.234.4-.557.4-.97 0-.267-.07-.484-.21-.65-.14-.174-.354-.3-.64-.38-.287-.087-.644-.13-1.07-.13h-.65v-.87h.66c.406 0 .736-.05.99-.15.253-.107.44-.254.56-.44.12-.187.18-.4.18-.64 0-.32-.107-.567-.32-.74-.207-.18-.507-.27-.9-.27-.24 0-.464.026-.67.08-.2.053-.384.123-.55.21-.167.086-.33.183-.49.29l-.52-.73c.26-.2.576-.37.95-.51a3.62 3.62 0 0 1 1.31-.22c.74 0 1.3.163 1.68.49.386.32.58.74.58 1.26Zm6.012 1.91c0 .58-.046 1.096-.14 1.55-.086.453-.226.84-.42 1.16a1.898 1.898 0 0 1-.75.72c-.306.166-.676.25-1.11.25-.546 0-.996-.147-1.35-.44-.353-.294-.616-.714-.79-1.26-.173-.554-.26-1.214-.26-1.98 0-.774.077-1.434.23-1.98.16-.547.417-.964.77-1.25.354-.294.82-.44 1.4-.44.547 0 .997.146 1.35.44.36.286.627.703.8 1.25.18.546.27 1.206.27 1.98Zm-3.76 0c0 .62.044 1.136.13 1.55.087.413.227.723.42.93.2.206.464.31.79.31.327 0 .587-.1.78-.3.2-.207.344-.517.43-.93.094-.42.14-.94.14-1.56 0-.62-.046-1.134-.14-1.54-.086-.414-.23-.724-.43-.93-.193-.207-.453-.31-.78-.31-.326 0-.59.103-.79.31-.193.206-.333.516-.42.93-.086.406-.13.92-.13 1.54Zm9.483 0c0 .58-.047 1.096-.14 1.55-.087.453-.227.84-.42 1.16a1.899 1.899 0 0 1-.75.72c-.307.166-.677.25-1.11.25-.547 0-.997-.147-1.35-.44-.353-.294-.617-.714-.79-1.26-.173-.554-.26-1.214-.26-1.98 0-.774.077-1.434.23-1.98.16-.547.417-.964.77-1.25.353-.294.82-.44 1.4-.44.547 0 .997.146 1.35.44.36.286.627.703.8 1.25.18.546.27 1.206.27 1.98Zm-3.76 0c0 .62.043 1.136.13 1.55.087.413.227.723.42.93.2.206.463.31.79.31s.587-.1.78-.3c.2-.207.343-.517.43-.93.093-.42.14-.94.14-1.56 0-.62-.047-1.134-.14-1.54-.087-.414-.23-.724-.43-.93-.193-.207-.453-.31-.78-.31s-.59.103-.79.31c-.193.206-.333.516-.42.93-.087.406-.13.92-.13 1.54Zm9.483 0c0 .58-.047 1.096-.14 1.55-.087.453-.227.84-.42 1.16a1.898 1.898 0 0 1-.75.72c-.307.166-.677.25-1.11.25-.547 0-.997-.147-1.35-.44-.354-.294-.617-.714-.79-1.26-.174-.554-.26-1.214-.26-1.98 0-.774.076-1.434.23-1.98.16-.547.416-.964.77-1.25.353-.294.82-.44 1.4-.44.546 0 .996.146 1.35.44.36.286.626.703.8 1.25.18.546.27 1.206.27 1.98Zm-3.76 0c0 .62.043 1.136.13 1.55.086.413.226.723.42.93.2.206.463.31.79.31.326 0 .586-.1.78-.3.2-.207.343-.517.43-.93.093-.42.14-.94.14-1.56 0-.62-.047-1.134-.14-1.54-.087-.414-.23-.724-.43-.93-.194-.207-.454-.31-.78-.31-.327 0-.59.103-.79.31-.194.206-.334.516-.42.93-.087.406-.13.92-.13 1.54Zm9.482 0c0 .58-.046 1.096-.14 1.55-.086.453-.226.84-.42 1.16a1.899 1.899 0 0 1-.75.72c-.306.166-.676.25-1.11.25-.546 0-.996-.147-1.35-.44-.353-.294-.616-.714-.79-1.26-.173-.554-.26-1.214-.26-1.98 0-.774.077-1.434.23-1.98.16-.547.417-.964.77-1.25.354-.294.82-.44 1.4-.44.547 0 .997.146 1.35.44.36.286.627.703.8 1.25.18.546.27 1.206.27 1.98Zm-3.76 0c0 .62.044 1.136.13 1.55.087.413.227.723.42.93.2.206.464.31.79.31.327 0 .587-.1.78-.3.2-.207.344-.517.43-.93.094-.42.14-.94.14-1.56 0-.62-.046-1.134-.14-1.54-.086-.414-.23-.724-.43-.93-.193-.207-.453-.31-.78-.31-.326 0-.59.103-.79.31-.193.206-.333.516-.42.93-.086.406-.13.92-.13 1.54ZM6.119 11.795v-4.12h.99v3.16h.53a5.48 5.48 0 0 0 1.04-.08c.273-.054.483-.154.63-.3.153-.154.26-.374.32-.66.06-.287.09-.664.09-1.13v-2.82h1.08v2.82c0 .78-.097 1.4-.29 1.86a1.77 1.77 0 0 1-.98.98c-.46.193-1.09.29-1.89.29h-1.52Zm-1.86 0v-5.95h2.54c.473 0 .863.07 1.17.21.313.133.547.346.7.64.153.286.23.656.23 1.11v2.09h-.99v-1.91c0-.3-.047-.534-.14-.7a.76.76 0 0 0-.38-.37 1.332 1.332 0 0 0-.56-.11h-1.5v4.99h-1.07Zm14.902-5.49c0 .32-.064.6-.19.84-.12.233-.294.423-.52.57a2.403 2.403 0 0 1-.78.32v.04c.573.066 1 .246 1.28.54.286.286.43.666.43 1.14 0 .413-.1.783-.3 1.11-.194.32-.497.573-.91.76-.407.18-.93.27-1.57.27-.38 0-.734-.03-1.06-.09a3.7 3.7 0 0 1-.93-.3v-.96a4.405 4.405 0 0 0 1.95.47c.606 0 1.043-.114 1.31-.34.266-.234.4-.557.4-.97 0-.267-.07-.484-.21-.65-.14-.174-.354-.3-.64-.38-.287-.087-.644-.13-1.07-.13h-.65v-.87h.66c.406 0 .736-.05.99-.15.253-.107.44-.254.56-.44.12-.187.18-.4.18-.64 0-.32-.107-.567-.32-.74-.207-.18-.507-.27-.9-.27-.24 0-.464.026-.67.08a2.69 2.69 0 0 0-.55.21c-.167.086-.33.183-.49.29l-.52-.73c.26-.2.576-.37.95-.51.38-.147.816-.22 1.31-.22.74 0 1.3.163 1.68.49.386.32.58.74.58 1.26Zm3.562 1.06c.474 0 .887.083 1.24.25.354.166.627.406.82.72.2.313.3.696.3 1.15 0 .5-.106.93-.32 1.29-.213.36-.523.636-.93.83-.4.193-.89.29-1.47.29-.366 0-.713-.034-1.04-.1a2.878 2.878 0 0 1-.83-.29v-.97c.24.14.53.253.87.34.347.086.677.13.99.13.34 0 .63-.05.87-.15.247-.107.437-.264.57-.47.14-.214.21-.48.21-.8 0-.434-.136-.764-.41-.99-.266-.234-.69-.35-1.27-.35-.186 0-.396.016-.63.05-.226.033-.41.066-.55.1l-.49-.29.27-3.45h3.67v.94h-2.75l-.16 1.87c.114-.02.257-.04.43-.06a4.03 4.03 0 0 1 .61-.04Zm8.173.85c0 .58-.047 1.096-.14 1.55a3.5 3.5 0 0 1-.42 1.16 1.897 1.897 0 0 1-.75.72c-.307.166-.677.25-1.11.25-.547 0-.997-.147-1.35-.44-.353-.294-.617-.714-.79-1.26-.173-.554-.26-1.214-.26-1.98 0-.774.077-1.434.23-1.98.16-.547.417-.964.77-1.25.353-.294.82-.44 1.4-.44.547 0 .997.146 1.35.44.36.286.627.703.8 1.25.18.546.27 1.206.27 1.98Zm-3.76 0c0 .62.043 1.136.13 1.55.087.413.227.723.42.93.2.206.463.31.79.31s.587-.1.78-.3c.2-.207.343-.517.43-.93.093-.42.14-.94.14-1.56 0-.62-.047-1.134-.14-1.54-.087-.414-.23-.724-.43-.93-.193-.207-.453-.31-.78-.31s-.59.103-.79.31c-.193.206-.333.516-.42.93-.087.406-.13.92-.13 1.54Zm9.483 0c0 .58-.047 1.096-.14 1.55-.087.453-.227.84-.42 1.16a1.896 1.896 0 0 1-.75.72c-.307.166-.677.25-1.11.25-.547 0-.997-.147-1.35-.44-.354-.294-.617-.714-.79-1.26-.174-.554-.26-1.214-.26-1.98 0-.774.076-1.434.23-1.98.16-.547.416-.964.77-1.25.353-.294.82-.44 1.4-.44.546 0 .996.146 1.35.44.36.286.626.703.8 1.25.18.546.27 1.206.27 1.98Zm-3.76 0c0 .62.043 1.136.13 1.55.086.413.226.723.42.93.2.206.463.31.79.31.326 0 .586-.1.78-.3.2-.207.343-.517.43-.93.093-.42.14-.94.14-1.56 0-.62-.047-1.134-.14-1.54-.087-.414-.23-.724-.43-.93-.194-.207-.454-.31-.78-.31-.327 0-.59.103-.79.31-.194.206-.334.516-.42.93-.087.406-.13.92-.13 1.54Zm9.482 0c0 .58-.046 1.096-.14 1.55a3.5 3.5 0 0 1-.42 1.16 1.897 1.897 0 0 1-.75.72c-.306.166-.676.25-1.11.25-.546 0-.996-.147-1.35-.44-.353-.294-.616-.714-.79-1.26-.173-.554-.26-1.214-.26-1.98 0-.774.077-1.434.23-1.98.16-.547.417-.964.77-1.25.354-.294.82-.44 1.4-.44.547 0 .997.146 1.35.44.36.286.627.703.8 1.25.18.546.27 1.206.27 1.98Zm-3.76 0c0 .62.044 1.136.13 1.55.087.413.227.723.42.93.2.206.464.31.79.31.327 0 .587-.1.78-.3.2-.207.344-.517.43-.93.094-.42.14-.94.14-1.56 0-.62-.046-1.134-.14-1.54-.086-.414-.23-.724-.43-.93-.193-.207-.453-.31-.78-.31-.326 0-.59.103-.79.31-.193.206-.333.516-.42.93-.086.406-.13.92-.13 1.54Zm70.946 229.934c0 .58-.043 1.097-.13 1.55-.087.454-.227.84-.42 1.16a1.908 1.908 0 0 1-.74.72c-.3.167-.663.25-1.09.25-.533 0-.977-.146-1.33-.44-.347-.293-.607-.713-.78-1.26-.167-.553-.25-1.213-.25-1.98 0-.773.077-1.433.23-1.98.16-.546.413-.963.76-1.25.347-.293.803-.44 1.37-.44.533 0 .977.147 1.33.44.353.287.617.704.79 1.25.173.547.26 1.207.26 1.98Zm-3.86 0c0 .654.047 1.197.14 1.63.1.434.257.76.47.98.22.214.51.32.87.32s.647-.106.86-.32c.22-.213.38-.536.48-.97.1-.44.15-.986.15-1.64 0-.653-.05-1.193-.15-1.62-.1-.433-.26-.756-.48-.97-.213-.22-.5-.33-.86-.33s-.65.11-.87.33c-.213.214-.37.537-.47.97-.093.427-.14.967-.14 1.62Zm9.553 3.58h-4.72v-.73l1.87-1.89c.36-.36.663-.68.91-.96.246-.28.433-.553.56-.82a2.1 2.1 0 0 0 .19-.89c0-.393-.117-.69-.35-.89-.234-.206-.537-.31-.91-.31-.347 0-.654.06-.92.18-.26.12-.527.287-.8.5l-.47-.59c.186-.16.39-.303.61-.43.226-.126.47-.226.73-.3.266-.073.55-.11.85-.11.446 0 .83.077 1.15.23.32.154.566.374.74.66.18.28.27.617.27 1.01 0 .28-.044.547-.13.8a3.28 3.28 0 0 1-.37.73c-.16.24-.354.484-.58.73-.227.247-.477.504-.75.77l-1.49 1.47v.04h3.61v.8Zm4.142-7.14-2.66 7.14h-.86l2.66-7.14h.86Zm5.301 7.14h-4.72v-.73l1.87-1.89c.36-.36.663-.68.91-.96.247-.28.433-.553.56-.82.127-.273.19-.57.19-.89 0-.393-.117-.69-.35-.89-.233-.206-.537-.31-.91-.31-.347 0-.653.06-.92.18-.26.12-.527.287-.8.5l-.47-.59c.187-.16.39-.303.61-.43.227-.126.47-.226.73-.3.267-.073.55-.11.85-.11.447 0 .83.077 1.15.23.32.154.567.374.74.66.18.28.27.617.27 1.01 0 .28-.043.547-.13.8a3.28 3.28 0 0 1-.37.73c-.16.24-.353.484-.58.73-.227.247-.477.504-.75.77l-1.49 1.47v.04h3.61v.8Zm5.723 0h-4.72v-.73l1.87-1.89c.36-.36.663-.68.91-.96.246-.28.433-.553.56-.82a2.1 2.1 0 0 0 .19-.89c0-.393-.117-.69-.35-.89-.234-.206-.537-.31-.91-.31-.347 0-.654.06-.92.18-.26.12-.527.287-.8.5l-.47-.59c.186-.16.39-.303.61-.43.226-.126.47-.226.73-.3.266-.073.55-.11.85-.11.446 0 .83.077 1.15.23.32.154.566.374.74.66.18.28.27.617.27 1.01 0 .28-.044.547-.13.8a3.28 3.28 0 0 1-.37.73c-.16.24-.354.484-.58.73-.227.247-.477.504-.75.77l-1.49 1.47v.04h3.61v.8Zm-59.618-3.58c0 .58-.043 1.097-.13 1.55-.087.454-.227.84-.42 1.16a1.908 1.908 0 0 1-.74.72c-.3.167-.663.25-1.09.25-.533 0-.977-.146-1.33-.44-.347-.293-.607-.713-.78-1.26-.167-.553-.25-1.213-.25-1.98 0-.773.077-1.433.23-1.98.16-.546.413-.963.76-1.25.347-.293.803-.44 1.37-.44.533 0 .977.147 1.33.44.353.287.617.704.79 1.25.173.547.26 1.207.26 1.98Zm-3.86 0c0 .654.047 1.197.14 1.63.1.434.257.76.47.98.22.214.51.32.87.32s.647-.106.86-.32c.22-.213.38-.536.48-.97.1-.44.15-.986.15-1.64 0-.653-.05-1.193-.15-1.62-.1-.433-.26-.756-.48-.97-.213-.22-.5-.33-.86-.33s-.65.11-.87.33c-.213.214-.37.537-.47.97-.093.427-.14.967-.14 1.62Zm7.903 3.58h-.86v-5.48a95.791 95.791 0 0 0 .04-.74 4.6 4.6 0 0 1-.29.27l-.33.28-.76.62-.46-.59 1.93-1.5h.73v7.14Zm5.792-7.14-2.66 7.14h-.86l2.66-7.14h.86Zm5.301 7.14h-4.72v-.73l1.87-1.89c.36-.36.663-.68.91-.96.247-.28.433-.553.56-.82.127-.273.19-.57.19-.89 0-.393-.117-.69-.35-.89-.233-.206-.537-.31-.91-.31-.347 0-.653.06-.92.18-.26.12-.527.287-.8.5l-.47-.59c.187-.16.39-.303.61-.43.227-.126.47-.226.73-.3.267-.073.55-.11.85-.11.447 0 .83.077 1.15.23.32.154.567.374.74.66.18.28.27.617.27 1.01 0 .28-.043.547-.13.8-.087.247-.21.49-.37.73s-.353.484-.58.73c-.227.247-.477.504-.75.77l-1.49 1.47v.04h3.61v.8Zm5.723 0h-4.72v-.73l1.87-1.89c.36-.36.663-.68.91-.96a3.59 3.59 0 0 0 .56-.82 2.1 2.1 0 0 0 .19-.89c0-.393-.117-.69-.35-.89-.234-.206-.537-.31-.91-.31-.347 0-.654.06-.92.18-.26.12-.527.287-.8.5l-.47-.59c.186-.16.39-.303.61-.43.226-.126.47-.226.73-.3.266-.073.55-.11.85-.11.446 0 .83.077 1.15.23.32.154.566.374.74.66.18.28.27.617.27 1.01 0 .28-.044.547-.13.8-.087.247-.21.49-.37.73s-.354.484-.58.73c-.227.247-.477.504-.75.77l-1.49 1.47v.04h3.61v.8Zm56.659-3.58c0 .58-.044 1.097-.13 1.55-.087.454-.227.84-.42 1.16a1.915 1.915 0 0 1-.74.72c-.3.167-.664.25-1.09.25-.534 0-.977-.146-1.33-.44-.347-.293-.607-.713-.78-1.26-.167-.553-.25-1.213-.25-1.98 0-.773.076-1.433.23-1.98.16-.546.413-.963.76-1.25.346-.293.803-.44 1.37-.44.533 0 .976.147 1.33.44.353.287.616.704.79 1.25.173.547.26 1.207.26 1.98Zm-3.86 0c0 .654.046 1.197.14 1.63.1.434.256.76.47.98.22.214.51.32.87.32s.646-.106.86-.32c.22-.213.38-.536.48-.97.1-.44.15-.986.15-1.64 0-.653-.05-1.193-.15-1.62-.1-.433-.26-.756-.48-.97-.214-.22-.5-.33-.86-.33s-.65.11-.87.33c-.214.214-.37.537-.47.97-.094.427-.14.967-.14 1.62Zm9.282-1.89c0 .32-.06.597-.18.83a1.46 1.46 0 0 1-.52.57c-.22.147-.48.25-.78.31v.04c.574.067 1 .247 1.28.54.28.294.42.677.42 1.15 0 .414-.096.784-.29 1.11-.193.32-.493.57-.9.75-.4.18-.916.27-1.55.27-.373 0-.72-.03-1.04-.09a3.222 3.222 0 0 1-.92-.3v-.82c.3.147.624.264.97.35.347.08.68.12 1 .12.64 0 1.1-.123 1.38-.37.287-.253.43-.6.43-1.04 0-.3-.08-.54-.24-.72-.153-.186-.38-.323-.68-.41-.3-.086-.66-.13-1.08-.13h-.69v-.75h.7c.394 0 .72-.056.98-.17.267-.113.467-.27.6-.47.14-.206.21-.443.21-.71 0-.346-.116-.613-.35-.8-.233-.193-.55-.29-.95-.29-.253 0-.483.027-.69.08-.206.047-.4.117-.58.21-.173.087-.35.19-.53.31l-.44-.6c.174-.133.37-.256.59-.37a3.607 3.607 0 0 1 1.64-.37c.747 0 1.3.167 1.66.5.367.334.55.757.55 1.27Zm4.413-1.67-2.66 7.14h-.86l2.66-7.14h.86Zm5.301 7.14h-4.72v-.73l1.87-1.89c.36-.36.663-.68.91-.96.246-.28.433-.553.56-.82a2.1 2.1 0 0 0 .19-.89c0-.393-.117-.69-.35-.89-.234-.206-.537-.31-.91-.31-.347 0-.654.06-.92.18-.26.12-.527.287-.8.5l-.47-.59c.186-.16.39-.303.61-.43.226-.126.47-.226.73-.3.266-.073.55-.11.85-.11.446 0 .83.077 1.15.23.32.154.566.374.74.66.18.28.27.617.27 1.01 0 .28-.044.547-.13.8a3.28 3.28 0 0 1-.37.73c-.16.24-.354.484-.58.73-.227.247-.477.504-.75.77l-1.49 1.47v.04h3.61v.8Zm5.722 0h-4.72v-.73l1.87-1.89c.36-.36.664-.68.91-.96.247-.28.434-.553.56-.82.127-.273.19-.57.19-.89 0-.393-.116-.69-.35-.89-.233-.206-.536-.31-.91-.31-.346 0-.653.06-.92.18-.26.12-.526.287-.8.5l-.47-.59c.187-.16.39-.303.61-.43.227-.126.47-.226.73-.3.267-.073.55-.11.85-.11.447 0 .83.077 1.15.23.32.154.567.374.74.66.18.28.27.617.27 1.01 0 .28-.043.547-.13.8-.086.247-.21.49-.37.73s-.353.484-.58.73c-.226.247-.476.504-.75.77l-1.49 1.47v.04h3.61v.8Zm17.9-3.58c0 .58-.043 1.097-.13 1.55-.086.454-.226.84-.42 1.16a1.901 1.901 0 0 1-.74.72c-.3.167-.663.25-1.09.25-.533 0-.976-.146-1.33-.44-.346-.293-.606-.713-.78-1.26-.166-.553-.25-1.213-.25-1.98 0-.773.077-1.433.23-1.98.16-.546.414-.963.76-1.25.347-.293.804-.44 1.37-.44.534 0 .977.147 1.33.44.354.287.617.704.79 1.25.174.547.26 1.207.26 1.98Zm-3.86 0c0 .654.047 1.197.14 1.63.1.434.257.76.47.98.22.214.51.32.87.32s.647-.106.86-.32c.22-.213.38-.536.48-.97.1-.44.15-.986.15-1.64 0-.653-.05-1.193-.15-1.62-.1-.433-.26-.756-.48-.97-.213-.22-.5-.33-.86-.33s-.65.11-.87.33c-.213.214-.37.537-.47.97-.093.427-.14.967-.14 1.62Zm9.873 1.96h-1.04v1.62h-.85v-1.62h-3.42v-.75l3.36-4.81h.91v4.77h1.04v.79Zm-1.89-3.04v-.47l.02-.41c.007-.126.01-.246.01-.36l.02-.34h-.04a4.346 4.346 0 0 1-.43.78l-2.14 3.05h2.56v-2.25Zm5.713-2.48-2.66 7.14h-.86l2.66-7.14h.86Zm5.3 7.14h-4.72v-.73l1.87-1.89c.36-.36.664-.68.91-.96.247-.28.434-.553.56-.82.127-.273.19-.57.19-.89 0-.393-.116-.69-.35-.89-.233-.206-.536-.31-.91-.31-.346 0-.653.06-.92.18-.26.12-.526.287-.8.5l-.47-.59c.187-.16.39-.303.61-.43.227-.126.47-.226.73-.3.267-.073.55-.11.85-.11.447 0 .83.077 1.15.23.32.154.567.374.74.66.18.28.27.617.27 1.01 0 .28-.043.547-.13.8-.086.247-.21.49-.37.73s-.353.484-.58.73c-.226.247-.476.504-.75.77l-1.49 1.47v.04h3.61v.8Zm5.723 0h-4.72v-.73l1.87-1.89c.36-.36.663-.68.91-.96.247-.28.433-.553.56-.82.127-.273.19-.57.19-.89 0-.393-.117-.69-.35-.89-.233-.206-.537-.31-.91-.31-.347 0-.653.06-.92.18-.26.12-.527.287-.8.5l-.47-.59c.187-.16.39-.303.61-.43.227-.126.47-.226.73-.3.267-.073.55-.11.85-.11.447 0 .83.077 1.15.23.32.154.567.374.74.66.18.28.27.617.27 1.01 0 .28-.043.547-.13.8a3.28 3.28 0 0 1-.37.73c-.16.24-.353.484-.58.73-.227.247-.477.504-.75.77l-1.49 1.47v.04h3.61v.8Zm17.9-3.58c0 .58-.043 1.097-.13 1.55-.086.454-.226.84-.42 1.16a1.901 1.901 0 0 1-.74.72c-.3.167-.663.25-1.09.25-.533 0-.976-.146-1.33-.44-.346-.293-.606-.713-.78-1.26-.166-.553-.25-1.213-.25-1.98 0-.773.077-1.433.23-1.98.16-.546.414-.963.76-1.25.347-.293.804-.44 1.37-.44.534 0 .977.147 1.33.44.354.287.617.704.79 1.25.174.547.26 1.207.26 1.98Zm-3.86 0c0 .654.047 1.197.14 1.63.1.434.257.76.47.98.22.214.51.32.87.32s.647-.106.86-.32c.22-.213.38-.536.48-.97.1-.44.15-.986.15-1.64 0-.653-.05-1.193-.15-1.62-.1-.433-.26-.756-.48-.97-.213-.22-.5-.33-.86-.33s-.65.11-.87.33c-.213.214-.37.537-.47.97-.093.427-.14.967-.14 1.62Zm7.103-.8c.487 0 .91.084 1.27.25.36.167.637.407.83.72.2.307.3.684.3 1.13 0 .494-.107.92-.32 1.28-.213.354-.52.627-.92.82-.393.187-.87.28-1.43.28a5.17 5.17 0 0 1-1.04-.1 2.713 2.713 0 0 1-.81-.29v-.83c.24.147.53.264.87.35.347.08.677.12.99.12.353 0 .66-.053.92-.16.267-.113.473-.283.62-.51.147-.233.22-.523.22-.87 0-.466-.143-.823-.43-1.07-.287-.253-.74-.38-1.36-.38-.187 0-.4.017-.64.05a7.69 7.69 0 0 0-.58.1l-.44-.28.27-3.37h3.58v.8h-2.83l-.17 2.07c.113-.02.267-.043.46-.07.193-.026.407-.04.64-.04Zm6.593-2.76-2.66 7.14h-.86l2.66-7.14h.86Zm5.3 7.14h-4.72v-.73l1.87-1.89c.36-.36.664-.68.91-.96.247-.28.434-.553.56-.82.127-.273.19-.57.19-.89 0-.393-.116-.69-.35-.89-.233-.206-.536-.31-.91-.31-.346 0-.653.06-.92.18-.26.12-.526.287-.8.5l-.47-.59c.187-.16.39-.303.61-.43.227-.126.47-.226.73-.3.267-.073.55-.11.85-.11.447 0 .83.077 1.15.23.32.154.567.374.74.66.18.28.27.617.27 1.01 0 .28-.043.547-.13.8-.086.247-.21.49-.37.73s-.353.484-.58.73c-.226.247-.476.504-.75.77l-1.49 1.47v.04h3.61v.8Zm5.723 0h-4.72v-.73l1.87-1.89c.36-.36.663-.68.91-.96.247-.28.433-.553.56-.82.127-.273.19-.57.19-.89 0-.393-.117-.69-.35-.89-.233-.206-.537-.31-.91-.31-.347 0-.653.06-.92.18-.26.12-.527.287-.8.5l-.47-.59c.187-.16.39-.303.61-.43.227-.126.47-.226.73-.3.267-.073.55-.11.85-.11.447 0 .83.077 1.15.23.32.154.567.374.74.66.18.28.27.617.27 1.01 0 .28-.043.547-.13.8a3.28 3.28 0 0 1-.37.73c-.16.24-.353.484-.58.73-.227.247-.477.504-.75.77l-1.49 1.47v.04h3.61v.8Zm17.9-3.58c0 .58-.043 1.097-.13 1.55-.087.454-.227.84-.42 1.16a1.908 1.908 0 0 1-.74.72c-.3.167-.663.25-1.09.25-.533 0-.977-.146-1.33-.44-.347-.293-.607-.713-.78-1.26-.167-.553-.25-1.213-.25-1.98 0-.773.077-1.433.23-1.98.16-.546.413-.963.76-1.25.347-.293.803-.44 1.37-.44.533 0 .977.147 1.33.44.353.287.617.704.79 1.25.173.547.26 1.207.26 1.98Zm-3.86 0c0 .654.047 1.197.14 1.63.1.434.257.76.47.98.22.214.51.32.87.32s.647-.106.86-.32c.22-.213.38-.536.48-.97.1-.44.15-.986.15-1.64 0-.653-.05-1.193-.15-1.62-.1-.433-.26-.756-.48-.97-.213-.22-.5-.33-.86-.33s-.65.11-.87.33c-.213.214-.37.537-.47.97-.093.427-.14.967-.14 1.62Zm4.903.53c0-.413.026-.82.08-1.22.06-.4.16-.776.3-1.13.14-.36.333-.676.58-.95.246-.28.556-.496.93-.65.38-.16.84-.24 1.38-.24.14 0 .293.007.46.02.173.014.313.037.42.07v.75c-.12-.04-.257-.07-.41-.09a3.335 3.335 0 0 0-.45-.03c-.46 0-.844.077-1.15.23-.307.154-.55.364-.73.63-.174.267-.3.574-.38.92-.08.347-.13.717-.15 1.11h.06c.1-.16.226-.303.38-.43a1.76 1.76 0 0 1 .55-.3c.22-.073.473-.11.76-.11.413 0 .773.087 1.08.26.313.167.556.414.73.74.173.32.26.71.26 1.17 0 .494-.094.92-.28 1.28a1.98 1.98 0 0 1-.79.83c-.334.194-.734.29-1.2.29-.34 0-.657-.063-.95-.19a2.153 2.153 0 0 1-.78-.58 2.833 2.833 0 0 1-.52-.98c-.12-.4-.18-.866-.18-1.4Zm2.42 2.41c.42 0 .76-.133 1.02-.4.26-.273.39-.693.39-1.26 0-.453-.117-.813-.35-1.08-.227-.266-.57-.4-1.03-.4-.314 0-.587.067-.82.2-.234.127-.417.29-.55.49-.127.2-.19.407-.19.62 0 .22.03.437.09.65.066.214.163.41.29.59.133.18.293.324.48.43.193.107.416.16.67.16Zm6.372-6.5-2.66 7.14h-.86l2.66-7.14h.86Zm5.301 7.14h-4.72v-.73l1.87-1.89c.36-.36.663-.68.91-.96.247-.28.433-.553.56-.82.127-.273.19-.57.19-.89 0-.393-.117-.69-.35-.89-.233-.206-.537-.31-.91-.31-.347 0-.653.06-.92.18-.26.12-.527.287-.8.5l-.47-.59c.187-.16.39-.303.61-.43.227-.126.47-.226.73-.3.267-.073.55-.11.85-.11.447 0 .83.077 1.15.23.32.154.567.374.74.66.18.28.27.617.27 1.01 0 .28-.043.547-.13.8a3.28 3.28 0 0 1-.37.73c-.16.24-.353.484-.58.73-.227.247-.477.504-.75.77l-1.49 1.47v.04h3.61v.8Zm5.723 0h-4.72v-.73l1.87-1.89c.36-.36.663-.68.91-.96.246-.28.433-.553.56-.82a2.1 2.1 0 0 0 .19-.89c0-.393-.117-.69-.35-.89-.234-.206-.537-.31-.91-.31-.347 0-.654.06-.92.18-.26.12-.527.287-.8.5l-.47-.59c.186-.16.39-.303.61-.43.226-.126.47-.226.73-.3.266-.073.55-.11.85-.11.446 0 .83.077 1.15.23.32.154.566.374.74.66.18.28.27.617.27 1.01 0 .28-.044.547-.13.8a3.28 3.28 0 0 1-.37.73c-.16.24-.354.484-.58.73-.227.247-.477.504-.75.77l-1.49 1.47v.04h3.61v.8Zm17.9-3.58c0 .58-.044 1.097-.13 1.55-.087.454-.227.84-.42 1.16a1.915 1.915 0 0 1-.74.72c-.3.167-.664.25-1.09.25-.534 0-.977-.146-1.33-.44-.347-.293-.607-.713-.78-1.26-.167-.553-.25-1.213-.25-1.98 0-.773.076-1.433.23-1.98.16-.546.413-.963.76-1.25.346-.293.803-.44 1.37-.44.533 0 .976.147 1.33.44.353.287.616.704.79 1.25.173.547.26 1.207.26 1.98Zm-3.86 0c0 .654.046 1.197.14 1.63.1.434.256.76.47.98.22.214.51.32.87.32s.646-.106.86-.32c.22-.213.38-.536.48-.97.1-.44.15-.986.15-1.64 0-.653-.05-1.193-.15-1.62-.1-.433-.26-.756-.48-.97-.214-.22-.5-.33-.86-.33s-.65.11-.87.33c-.214.214-.37.537-.47.97-.094.427-.14.967-.14 1.62Zm5.712 3.58 2.93-6.34h-3.85v-.8h4.79v.68l-2.9 6.46h-.97Zm7.983-7.14-2.66 7.14h-.86l2.66-7.14h.86Zm5.301 7.14h-4.72v-.73l1.87-1.89c.36-.36.663-.68.91-.96.247-.28.433-.553.56-.82.127-.273.19-.57.19-.89 0-.393-.117-.69-.35-.89-.233-.206-.537-.31-.91-.31-.347 0-.653.06-.92.18-.26.12-.527.287-.8.5l-.47-.59c.187-.16.39-.303.61-.43.227-.126.47-.226.73-.3.267-.073.55-.11.85-.11.447 0 .83.077 1.15.23.32.154.567.374.74.66.18.28.27.617.27 1.01 0 .28-.043.547-.13.8a3.28 3.28 0 0 1-.37.73c-.16.24-.353.484-.58.73-.227.247-.477.504-.75.77l-1.49 1.47v.04h3.61v.8Zm5.722 0h-4.72v-.73l1.87-1.89c.36-.36.664-.68.91-.96.247-.28.434-.553.56-.82.127-.273.19-.57.19-.89 0-.393-.116-.69-.35-.89-.233-.206-.536-.31-.91-.31-.346 0-.653.06-.92.18-.26.12-.526.287-.8.5l-.47-.59c.187-.16.39-.303.61-.43.227-.126.47-.226.73-.3.267-.073.55-.11.85-.11.447 0 .83.077 1.15.23.32.154.567.374.74.66.18.28.27.617.27 1.01 0 .28-.043.547-.13.8-.086.247-.21.49-.37.73s-.353.484-.58.73c-.226.247-.476.504-.75.77l-1.49 1.47v.04h3.61v.8Zm17.901-3.58c0 .58-.044 1.097-.13 1.55-.087.454-.227.84-.42 1.16a1.915 1.915 0 0 1-.74.72c-.3.167-.664.25-1.09.25-.534 0-.977-.146-1.33-.44-.347-.293-.607-.713-.78-1.26-.167-.553-.25-1.213-.25-1.98 0-.773.076-1.433.23-1.98.16-.546.413-.963.76-1.25.346-.293.803-.44 1.37-.44.533 0 .976.147 1.33.44.353.287.616.704.79 1.25.173.547.26 1.207.26 1.98Zm-3.86 0c0 .654.046 1.197.14 1.63.1.434.256.76.47.98.22.214.51.32.87.32s.646-.106.86-.32c.22-.213.38-.536.48-.97.1-.44.15-.986.15-1.64 0-.653-.05-1.193-.15-1.62-.1-.433-.26-.756-.48-.97-.214-.22-.5-.33-.86-.33s-.65.11-.87.33c-.214.214-.37.537-.47.97-.094.427-.14.967-.14 1.62Zm7.202-3.66c.42 0 .79.067 1.11.2.32.127.57.317.75.57.187.254.28.567.28.94 0 .287-.063.537-.19.75-.12.214-.283.404-.49.57-.206.16-.433.304-.68.43.294.14.56.3.8.48.24.174.43.377.57.61.147.234.22.514.22.84 0 .4-.096.747-.29 1.04-.193.287-.466.51-.82.67-.346.16-.756.24-1.23.24-.513 0-.95-.076-1.31-.23a1.807 1.807 0 0 1-.81-.65c-.18-.286-.27-.633-.27-1.04 0-.326.067-.61.2-.85.14-.24.324-.446.55-.62.227-.173.47-.32.73-.44a4.07 4.07 0 0 1-.64-.45 2.156 2.156 0 0 1-.45-.59 1.753 1.753 0 0 1-.16-.77c0-.366.094-.673.28-.92a1.77 1.77 0 0 1 .76-.58c.32-.133.684-.2 1.09-.2Zm-1.5 5.43c0 .347.124.637.37.87.247.227.627.34 1.14.34.327 0 .6-.053.82-.16.22-.106.387-.253.5-.44.12-.186.18-.4.18-.64 0-.233-.063-.436-.19-.61-.12-.18-.293-.34-.52-.48a4.187 4.187 0 0 0-.79-.38l-.16-.06c-.293.127-.54.264-.74.41-.2.147-.353.314-.46.5-.1.187-.15.404-.15.65Zm1.49-4.72c-.366 0-.67.09-.91.27-.233.174-.35.427-.35.76 0 .247.057.454.17.62.12.167.28.31.48.43.2.114.42.224.66.33.234-.1.44-.21.62-.33.187-.12.334-.263.44-.43.114-.173.17-.38.17-.62 0-.333-.116-.586-.35-.76-.233-.18-.543-.27-.93-.27Zm6.503-.61-2.66 7.14h-.86l2.66-7.14h.86Zm5.301 7.14h-4.72v-.73l1.87-1.89c.36-.36.663-.68.91-.96.246-.28.433-.553.56-.82a2.1 2.1 0 0 0 .19-.89c0-.393-.117-.69-.35-.89-.234-.206-.537-.31-.91-.31-.347 0-.654.06-.92.18-.26.12-.527.287-.8.5l-.47-.59c.186-.16.39-.303.61-.43.226-.126.47-.226.73-.3.266-.073.55-.11.85-.11.446 0 .83.077 1.15.23.32.154.566.374.74.66.18.28.27.617.27 1.01 0 .28-.044.547-.13.8a3.28 3.28 0 0 1-.37.73c-.16.24-.354.484-.58.73-.227.247-.477.504-.75.77l-1.49 1.47v.04h3.61v.8Zm5.722 0h-4.72v-.73l1.87-1.89c.36-.36.664-.68.91-.96.247-.28.434-.553.56-.82.127-.273.19-.57.19-.89 0-.393-.116-.69-.35-.89-.233-.206-.536-.31-.91-.31-.346 0-.653.06-.92.18-.26.12-.526.287-.8.5l-.47-.59c.187-.16.39-.303.61-.43.227-.126.47-.226.73-.3.267-.073.55-.11.85-.11.447 0 .83.077 1.15.23.32.154.567.374.74.66.18.28.27.617.27 1.01 0 .28-.043.547-.13.8-.086.247-.21.49-.37.73s-.353.484-.58.73c-.226.247-.476.504-.75.77l-1.49 1.47v.04h3.61v.8Zm17.9-3.58c0 .58-.043 1.097-.13 1.55-.086.454-.226.84-.42 1.16a1.901 1.901 0 0 1-.74.72c-.3.167-.663.25-1.09.25-.533 0-.976-.146-1.33-.44-.346-.293-.606-.713-.78-1.26-.166-.553-.25-1.213-.25-1.98 0-.773.077-1.433.23-1.98.16-.546.414-.963.76-1.25.347-.293.804-.44 1.37-.44.534 0 .977.147 1.33.44.354.287.617.704.79 1.25.174.547.26 1.207.26 1.98Zm-3.86 0c0 .654.047 1.197.14 1.63.1.434.257.76.47.98.22.214.51.32.87.32s.647-.106.86-.32c.22-.213.38-.536.48-.97.1-.44.15-.986.15-1.64 0-.653-.05-1.193-.15-1.62-.1-.433-.26-.756-.48-.97-.213-.22-.5-.33-.86-.33s-.65.11-.87.33c-.213.214-.37.537-.47.97-.093.427-.14.967-.14 1.62Zm9.553-.51c0 .407-.03.814-.09 1.22-.053.4-.15.78-.29 1.14-.14.354-.333.67-.58.95a2.6 2.6 0 0 1-.94.65c-.38.154-.84.23-1.38.23-.133 0-.29-.01-.47-.03a2.07 2.07 0 0 1-.43-.07v-.75c.12.04.26.074.42.1.16.02.313.03.46.03.467 0 .85-.076 1.15-.23.307-.153.55-.36.73-.62.18-.266.31-.573.39-.92a5.91 5.91 0 0 0 .14-1.11h-.06c-.1.154-.227.294-.38.42a1.71 1.71 0 0 1-.56.3c-.213.074-.467.11-.76.11a2.26 2.26 0 0 1-1.08-.25 1.827 1.827 0 0 1-.72-.74c-.167-.32-.25-.71-.25-1.17 0-.5.093-.93.28-1.29.193-.36.46-.636.8-.83.34-.193.74-.29 1.2-.29.34 0 .657.067.95.2.293.127.55.32.77.58.22.26.39.587.51.98.127.394.19.857.19 1.39Zm-2.42-2.41c-.413 0-.753.137-1.02.41-.26.274-.39.69-.39 1.25 0 .46.11.824.33 1.09.227.26.573.39 1.04.39.32 0 .597-.063.83-.19.233-.133.413-.3.54-.5.133-.2.2-.406.2-.62a2.13 2.13 0 0 0-.1-.64c-.06-.22-.153-.42-.28-.6a1.425 1.425 0 0 0-.48-.43 1.372 1.372 0 0 0-.67-.16Zm6.563-.64-2.66 7.14h-.86l2.66-7.14h.86Zm5.3 7.14h-4.72v-.73l1.87-1.89c.36-.36.664-.68.91-.96.247-.28.434-.553.56-.82.127-.273.19-.57.19-.89 0-.393-.116-.69-.35-.89-.233-.206-.536-.31-.91-.31-.346 0-.653.06-.92.18-.26.12-.526.287-.8.5l-.47-.59c.187-.16.39-.303.61-.43.227-.126.47-.226.73-.3.267-.073.55-.11.85-.11.447 0 .83.077 1.15.23.32.154.567.374.74.66.18.28.27.617.27 1.01 0 .28-.043.547-.13.8-.086.247-.21.49-.37.73s-.353.484-.58.73c-.226.247-.476.504-.75.77l-1.49 1.47v.04h3.61v.8Zm5.723 0h-4.72v-.73l1.87-1.89c.36-.36.663-.68.91-.96.247-.28.433-.553.56-.82.127-.273.19-.57.19-.89 0-.393-.117-.69-.35-.89-.233-.206-.537-.31-.91-.31-.347 0-.653.06-.92.18-.26.12-.527.287-.8.5l-.47-.59c.187-.16.39-.303.61-.43.227-.126.47-.226.73-.3.267-.073.55-.11.85-.11.447 0 .83.077 1.15.23.32.154.567.374.74.66.18.28.27.617.27 1.01 0 .28-.043.547-.13.8a3.28 3.28 0 0 1-.37.73c-.16.24-.353.484-.58.73-.227.247-.477.504-.75.77l-1.49 1.47v.04h3.61v.8Zm16.22 0h-.86v-5.48l.02-.37.02-.37a4.365 4.365 0 0 1-.29.27 46.86 46.86 0 0 1-.33.28l-.76.62-.46-.59 1.93-1.5h.73v7.14Zm7.403-3.58c0 .58-.043 1.097-.13 1.55-.087.454-.227.84-.42 1.16a1.908 1.908 0 0 1-.74.72c-.3.167-.663.25-1.09.25-.533 0-.977-.146-1.33-.44-.347-.293-.607-.713-.78-1.26-.167-.553-.25-1.213-.25-1.98 0-.773.077-1.433.23-1.98.16-.546.413-.963.76-1.25.347-.293.803-.44 1.37-.44.533 0 .977.147 1.33.44.353.287.617.704.79 1.25.173.547.26 1.207.26 1.98Zm-3.86 0c0 .654.047 1.197.14 1.63.1.434.257.76.47.98.22.214.51.32.87.32s.647-.106.86-.32c.22-.213.38-.536.48-.97.1-.44.15-.986.15-1.64 0-.653-.05-1.193-.15-1.62-.1-.433-.26-.756-.48-.97-.213-.22-.5-.33-.86-.33s-.65.11-.87.33c-.213.214-.37.537-.47.97-.093.427-.14.967-.14 1.62Zm7.973-3.56-2.66 7.14h-.86l2.66-7.14h.86Zm5.3 7.14h-4.72v-.73l1.87-1.89c.36-.36.664-.68.91-.96.247-.28.434-.553.56-.82.127-.273.19-.57.19-.89 0-.393-.116-.69-.35-.89-.233-.206-.536-.31-.91-.31-.346 0-.653.06-.92.18-.26.12-.526.287-.8.5l-.47-.59c.187-.16.39-.303.61-.43.227-.126.47-.226.73-.3.267-.073.55-.11.85-.11.447 0 .83.077 1.15.23.32.154.567.374.74.66.18.28.27.617.27 1.01 0 .28-.043.547-.13.8-.086.247-.21.49-.37.73s-.353.484-.58.73c-.226.247-.476.504-.75.77l-1.49 1.47v.04h3.61v.8Zm5.723 0h-4.72v-.73l1.87-1.89c.36-.36.663-.68.91-.96.247-.28.433-.553.56-.82.127-.273.19-.57.19-.89 0-.393-.117-.69-.35-.89-.233-.206-.537-.31-.91-.31-.347 0-.653.06-.92.18-.26.12-.527.287-.8.5l-.47-.59c.187-.16.39-.303.61-.43.227-.126.47-.226.73-.3.267-.073.55-.11.85-.11.447 0 .83.077 1.15.23.32.154.567.374.74.66.18.28.27.617.27 1.01 0 .28-.043.547-.13.8a3.28 3.28 0 0 1-.37.73c-.16.24-.353.484-.58.73-.227.247-.477.504-.75.77l-1.49 1.47v.04h3.61v.8Zm16.22 0h-.86v-5.48l.02-.37.02-.37a4.628 4.628 0 0 1-.29.27l-.33.28-.76.62-.46-.59 1.93-1.5h.73v7.14Zm5.723 0h-.86v-5.48c.006-.133.013-.256.02-.37l.02-.37a4.925 4.925 0 0 1-.29.27l-.33.28-.76.62-.46-.59 1.93-1.5h.73v7.14Zm5.792-7.14-2.66 7.14h-.86l2.66-7.14h.86Zm5.301 7.14h-4.72v-.73l1.87-1.89c.36-.36.663-.68.91-.96.247-.28.433-.553.56-.82.127-.273.19-.57.19-.89 0-.393-.117-.69-.35-.89-.233-.206-.537-.31-.91-.31-.347 0-.653.06-.92.18-.26.12-.527.287-.8.5l-.47-.59c.187-.16.39-.303.61-.43.227-.126.47-.226.73-.3.267-.073.55-.11.85-.11.447 0 .83.077 1.15.23.32.154.567.374.74.66.18.28.27.617.27 1.01 0 .28-.043.547-.13.8a3.28 3.28 0 0 1-.37.73c-.16.24-.353.484-.58.73-.227.247-.477.504-.75.77l-1.49 1.47v.04h3.61v.8Zm5.723 0h-4.72v-.73l1.87-1.89c.36-.36.663-.68.91-.96.246-.28.433-.553.56-.82a2.1 2.1 0 0 0 .19-.89c0-.393-.117-.69-.35-.89-.234-.206-.537-.31-.91-.31-.347 0-.654.06-.92.18-.26.12-.527.287-.8.5l-.47-.59c.186-.16.39-.303.61-.43.226-.126.47-.226.73-.3.266-.073.55-.11.85-.11.446 0 .83.077 1.15.23.32.154.566.374.74.66.18.28.27.617.27 1.01 0 .28-.044.547-.13.8a3.28 3.28 0 0 1-.37.73c-.16.24-.354.484-.58.73-.227.247-.477.504-.75.77l-1.49 1.47v.04h3.61v.8Zm16.22 0h-.86v-5.48c.006-.133.013-.256.02-.37l.02-.37a4.925 4.925 0 0 1-.29.27l-.33.28-.76.62-.46-.59 1.93-1.5h.73v7.14Zm7.372 0h-4.72v-.73l1.87-1.89c.36-.36.664-.68.91-.96.247-.28.434-.553.56-.82.127-.273.19-.57.19-.89 0-.393-.116-.69-.35-.89-.233-.206-.536-.31-.91-.31-.346 0-.653.06-.92.18-.26.12-.526.287-.8.5l-.47-.59c.187-.16.39-.303.61-.43.227-.126.47-.226.73-.3.267-.073.55-.11.85-.11.447 0 .83.077 1.15.23.32.154.567.374.74.66.18.28.27.617.27 1.01 0 .28-.043.547-.13.8-.086.247-.21.49-.37.73s-.353.484-.58.73c-.226.247-.476.504-.75.77l-1.49 1.47v.04h3.61v.8Zm4.143-7.14-2.66 7.14h-.86l2.66-7.14h.86Zm5.301 7.14h-4.72v-.73l1.87-1.89c.36-.36.663-.68.91-.96.246-.28.433-.553.56-.82a2.1 2.1 0 0 0 .19-.89c0-.393-.117-.69-.35-.89-.234-.206-.537-.31-.91-.31-.347 0-.654.06-.92.18-.26.12-.527.287-.8.5l-.47-.59c.186-.16.39-.303.61-.43.226-.126.47-.226.73-.3.266-.073.55-.11.85-.11.446 0 .83.077 1.15.23.32.154.566.374.74.66.18.28.27.617.27 1.01 0 .28-.044.547-.13.8a3.28 3.28 0 0 1-.37.73c-.16.24-.354.484-.58.73-.227.247-.477.504-.75.77l-1.49 1.47v.04h3.61v.8Zm5.722 0h-4.72v-.73l1.87-1.89c.36-.36.664-.68.91-.96.247-.28.434-.553.56-.82.127-.273.19-.57.19-.89 0-.393-.116-.69-.35-.89-.233-.206-.536-.31-.91-.31-.346 0-.653.06-.92.18-.26.12-.526.287-.8.5l-.47-.59c.187-.16.39-.303.61-.43.227-.126.47-.226.73-.3.267-.073.55-.11.85-.11.447 0 .83.077 1.15.23.32.154.567.374.74.66.18.28.27.617.27 1.01 0 .28-.043.547-.13.8-.086.247-.21.49-.37.73s-.353.484-.58.73c-.226.247-.476.504-.75.77l-1.49 1.47v.04h3.61v.8Z" fill="#63646A"/></svg>