<svg width="497" height="300" fill="none" xmlns="http://www.w3.org/2000/svg"><path d="M42.572 108.559c0 7.193-3.775 10.789-11.324 10.789l-2.867-.17V77.206h5.406c3.262 0 5.547 1.124 6.834 3.364 1.298 2.256 1.95 5.565 1.95 9.952v18.037Zm-14.19-86.307h6.08c4.165 0 6.245 2.357 6.245 7.076v14.494c0 3.372-.45 5.985-1.351 7.845-.9 1.852-2.587 2.776-5.064 2.776h-5.91V22.252Zm26.345 41.972c9.911-2.698 14.866-10.961 14.866-24.781v-6.41c0-11.68-2.392-20.113-7.176-25.283C57.633 2.58 49.943 0 39.356 0H0v144.802h21.857c5.53-6.92 10.508-10.935 15.207-12.254a13.38 13.38 0 0 1 3.582-.489c1.787 0 3.581.365 5.327 1.086 2.285.938 4.614 2.333 7.123 4.263 2.625 2.031 3.472 2.464 3.557 2.503l.048.024.037.023c.22.109.429.218.639.342 2.88-1.876 5.203-4.341 6.98-7.387 4.616-7.922 6.93-19.58 6.93-34.972 0-9.44-1.243-17.03-3.72-22.758-2.478-5.735-6.757-9.387-12.84-10.959Zm23.986 80.578h41.299c2.696-6.093 5.417-11.711 8.099-16.742 2.728-5.108 4.99-8.828 6.962-11.41h-27.274V83.438h26.931V56.133h-26.931V27.98h28.092V0H78.713v144.802Zm80.24-29.006c.441.202.819.38 1.142.543 1.089.549 2.107 1.316 3.142 2.364.269.27.516.557.756.851.347-.666.695-1.318 1.042-1.96 3.659-6.797 6.492-11.12 8.915-13.608a10.808 10.808 0 0 1 5.11-3.138 9.67 9.67 0 0 1 2.632-.348c1.768 0 3.775.418 6.137 1.294V27.803h17.121V0h-63.118v27.803h17.121v87.993Zm67.574 29.006h28.876V27.811h17.122V0h-63.119v27.81h17.121v116.992Zm112.087-28.152h-30.119V83.438h27.111V56.13h-27.111V27.98h28.28V0h-57.567v144.802h59.406V116.65Zm43.702-63.045h-6.881V26.802h6.718c1.676 0 2.966.364 3.862 1.094.895.735 1.514 2.054 1.846 3.961.339 1.913.502 4.782.502 8.594 0 8.767-2.015 13.154-6.047 13.154Zm31.08 6.068c2.123-4.61 3.188-11.013 3.188-19.222 0-8.983-.672-16.377-2.015-22.166-1.345-5.783-3.947-10.278-7.809-13.48C402.898 1.597 397.438 0 390.38 0h-44.34v144.802h29.225V78.718c4.139 0 6.997.566 8.564 1.69 1.568 1.124 2.356 3.704 2.356 7.75v56.644h28.214l.34-54.792c0-5.952-.982-10.672-2.943-14.152-1.962-3.489-5.121-5.674-9.492-6.581 5.268-1.79 8.958-5 11.092-9.604ZM212.3 164.493c-5.157-5.699-12.886-8.552-23.2-8.552h-5.024a100.86 100.86 0 0 1-4.166 4.248c-3.009 2.9-6.016 5.499-8.977 7.751-1.669 7.456-1.754 11.713-1.475 14.049 1.259-.639 3.239-2.021 6.03-4.996 3.216-3.418 6.245-8.136 9.013-14.028l.022-.06.032-.054c1.206-2.422 2.876-3.941 4.97-4.526a7.595 7.595 0 0 1 2.065-.293c5.264.007 7.089 5.035 7.521 6.577.752 2.675.534 5.343-.624 7.71-2.359 5.252-4.948 9.832-7.739 13.696.354 1.588.541 3.747.541 6.485v74.296c0 5.143-2.636 7.712-7.901 7.712h-5.048v-76.402c-2.133 1.356-4.237 2.321-6.324 2.907-1.585.439-3.138.664-4.614.664-2.351 0-4.538-.557-6.472-1.644-.123-.07-.764-.385-3.664-1.68a38.33 38.33 0 0 1-3.749-1.89 49.352 49.352 0 0 1-4.26 5.166V300h38.838c11.651 0 20.007-3.578 25.047-10.733 5.048-7.156 7.506-17.829 7.399-32.033l-.332-67.418c-.117-11.174-2.752-19.618-7.909-25.323Zm44.569 89.217 5.367-73.287h1.342l6.379 73.287h-13.088Zm-17.948-97.769L225 300h28.012l1.673-23.311h17.447L274.146 300h27.339l-13.752-144.059h-48.812Zm106.266 53.33h-6.881v-26.666h6.719c1.675 0 2.965.363 3.862 1.089.895.731 1.513 2.043 1.845 3.948.34 1.895.502 4.749.502 8.55 0 8.721-2.015 13.079-6.047 13.079Zm31.08 6.037c2.124-4.58 3.188-10.956 3.188-19.116 0-8.945-.671-16.294-2.015-22.053-1.345-5.761-3.947-10.232-7.809-13.418-3.862-3.185-9.322-4.78-16.38-4.78h-44.34V300h29.225v-65.738c4.139 0 6.997.556 8.564 1.675 1.569 1.118 2.357 3.692 2.357 7.717V300h28.214l.339-54.502c0-5.93-.981-10.626-2.943-14.088-1.962-3.464-5.121-5.645-9.492-6.54 5.268-1.789 8.959-4.973 11.092-9.562ZM386.139 300h27.475V155.941h-27.475V300Zm66.027-46.29 5.367-73.287h1.342l6.379 73.287h-13.088Zm30.864-97.769h-48.812L420.297 300h28.012l1.675-23.311h17.445L469.443 300h27.339L483.03 155.941Z" fill="#fff"/><path d="M90.806 184.133c-1.836 4.831-4.32 10.428-7.45 16.79-3.132 6.371-5.653 9.817-7.565 10.359a1.414 1.414 0 0 1-.332.046c-.547 0-.942-.435-1.181-1.309-.647-2.322.063-6.625 2.145-12.904a97.613 97.613 0 0 1 7.967-17.92c3.24-5.659 5.937-8.794 8.089-9.399.278-.076.556-.115.825-.115.803 0 1.566.348 2.283 1.06-1.358 4.095-2.954 8.554-4.781 13.392Zm51.809-43.714c3.502-6.253 6.449-9.893 8.831-10.906l.123-.032a.346.346 0 0 1 .117-.022c.176 0 .3.139.377.401.555 1.998-1.22 6.967-5.328 14.902-4.111 7.943-8.684 13.695-13.705 17.263 2.883-8.151 6.084-15.351 9.585-21.606Zm30.3 3.832c2.13-5.21 4.397-9.963 6.803-14.267 3.285-5.859 6.077-9.421 8.375-10.673.154-.087.309-.165.455-.226l.123-.038a.586.586 0 0 1 .116-.015c.177 0 .301.131.378.394.293 1.061-.061 2.942-1.072 5.652-.894 2.423-2.32 5.511-4.257 9.256-1.966 3.803-4.048 7.115-6.239 9.917-2.36 3.043-4.851 5.489-7.466 7.346a183.19 183.19 0 0 1 2.784-7.346Zm3.286 11.992c.123-.124.254-.248.379-.372 3.262-3.197 6.516-6.828 9.77-10.908.186-.231.37-.471.556-.712.409-.518.801-1.045 1.187-1.587 2.614-3.606 4.836-7.516 6.671-11.727 2.23-5.118 3.394-10.102 3.501-14.972.017-.867-.07-1.625-.247-2.267a4.842 4.842 0 0 0-1.232-2.114c-.603-.603-1.174-1.045-1.729-1.324-.547-.278-1.38-.649-2.498-1.114a117.955 117.955 0 0 1-2.414-1.006 34.774 34.774 0 0 0-2.052-.967c-2.584-1.154-4.627-1.727-6.131-1.727-.44 0-.832.046-1.179.148a5.464 5.464 0 0 0-2.638 1.647c-2.012 2.037-4.704 6.178-8.074 12.44-3.378 6.255-6.757 13.346-10.142 21.25-.232.542-.462 1.092-.687 1.641a121.436 121.436 0 0 0-4.603 13.299 127.611 127.611 0 0 0-2.368 9.877c-.941 4.738-1.381 8.971-1.35 12.743a78.153 78.153 0 0 1-1.55 2.872c-2.191 3.869-4.527 7.128-6.994 9.776-3.61 3.862-6.818 6.192-9.611 6.974-.654.185-1.249.28-1.789.28-1.765 0-2.922-.984-3.47-2.943-1.179-4.25-.655-10.999 1.574-20.266 3.293-2.392 6.631-5.232 10.018-8.515 3.385-3.281 6.771-7.043 10.149-11.278 3.377-4.226 6.185-8.902 8.413-14.019.61-1.4 1.135-2.795 1.581-4.173 1.203-3.669 1.844-7.268 1.922-10.806.014-.868-.07-1.619-.247-2.26a4.77 4.77 0 0 0-1.235-2.114 11.366 11.366 0 0 0-.44-.418c-.446-.402-.872-.705-1.288-.914-.547-.277-1.388-.649-2.506-1.106-1.118-.464-1.92-.797-2.406-1.006-3.579-1.803-6.3-2.702-8.183-2.702-.439 0-.833.046-1.179.148a5.505 5.505 0 0 0-2.637 1.648c-.91.913-1.951 2.26-3.132 4.041-1.451 2.167-3.092 4.962-4.944 8.398-2.329 4.328-4.665 9.042-7.002 14.143a370.008 370.008 0 0 0-3.139 7.108c-3.393 7.903-5.946 16.177-7.658 24.823-1.341 6.736-1.688 12.488-1.056 17.287-3.825 6.975-7.427 10.946-10.805 11.891-.2.053-.409.085-.617.085-.532 0-1.08-.187-1.643-.55-.787-.512-1.373-1.448-1.75-2.811-.34-1.198 1.326-6.726 4.989-16.565 3.672-9.84 6.202-15.947 7.604-18.331.571-1.022.702-2.097.394-3.22-.54-1.919-2.006-3.538-4.389-4.854-1.697-.929-3.27-1.4-4.728-1.4-.6 0-1.172.085-1.726.24-1.119.309-1.983 1.075-2.59 2.282-.364.875-.889 2.532-1.584 4.979-1.595-2.316-3.198-3.771-4.827-4.343-2.745-1.302-5.043-1.951-6.893-1.951a6.3 6.3 0 0 0-1.714.224c-.639.178-1.534.69-2.675 1.526-1.75 1.446-3.879 4.048-6.401 7.825-2.513 3.771-4.958 8.067-7.311 12.874a59.054 59.054 0 0 0-1.296 2.834c-.293.456-.532.935-.779 1.416-.208.411-.416.827-.663 1.223-1.01 1.64-2.228 3.181-3.332 4.753-2.29 3.266-4.58 6.532-6.87 9.793-3.533 5.047-7.072 10.092-10.612 15.14-2.977 4.242-6.023 8.818-10.766 11.241-1.513.773-2.546 1.23-3.1 1.392a7.88 7.88 0 0 1-2.138.311c-1.511 0-2.877-.512-4.08-1.55-1.75-1.485-3.06-3.8-3.932-6.919-1.52-5.45-.956-13.377 1.688-23.797 2.639-10.41 6.525-20.102 11.638-29.051 5.122-8.957 10.073-14.104 14.862-15.451.154-.039.293-.063.416-.063.393 0 .656.209.77.637.155.564.124 1.353-.114 2.367-.232 1.015-1.072 2.717-2.508 5.11A52.47 52.47 0 0 0 42.975 168c-1.003 2.44-1.233 4.622-.693 6.542.625 2.245 1.927 4.141 3.91 5.706 1.433 1.122 2.9 1.679 4.418 1.679a6.54 6.54 0 0 0 1.79-.255 6.943 6.943 0 0 0 3.408-2.122c2.075-2.136 4.057-6.216 5.946-12.23 1.89-6.015 2.445-10.428 1.666-13.23-1.119-4.002-4.187-7.285-9.2-9.846-.617-.302-1.511-.882-2.685-1.742a57.135 57.135 0 0 1-1.789-1.347c-2.09-1.611-4.033-2.794-5.83-3.538-1.087-.449-2.16-.673-3.232-.673-.702 0-1.404.092-2.104.294-2.776.782-5.938 3.12-9.463 7.013a64.944 64.944 0 0 0-3.2 3.801c-4.852 6.201-9.278 13.385-13.28 21.544-4.004 8.166-6.98 16.945-8.916 26.342-1.935 9.398-1.99 17.38-.162 23.951.363 1.276.71 2.392 1.065 3.329a11.04 11.04 0 0 0 1.365 2.593c.562.79 1.049 1.432 1.441 1.927.394.496 1.05 1.069 1.968 1.719.91.651 1.573 1.107 1.997 1.377.417.272 1.31.775 2.675 1.519 1.373.734 2.376 1.315 3.008 1.74 3.418 2.068 6.533 3.222 9.354 3.46.525.047 1.073.071 1.636.071 2.436 0 5.174-.426 8.222-1.286 4.464-1.254 8.559-3.699 12.277-7.338 3.716-3.638 6.663-7.726 8.839-12.262 1.44-3.004 2.905-6.1 4.225-9.227.147 1.239.363 2.422.67 3.545.424 1.526 1.535 2.787 3.317 3.793 1.789 1.014 3.077 2.013 3.871 2.997 1.736 2.128 3.634 3.197 5.708 3.197a6.69 6.69 0 0 0 1.828-.264c3.03-.851 6.893-5.047 11.582-12.586 1.712 3.065 3.794 5.434 6.249 7.121 1.61 1.107 3.368 1.664 5.266 1.664.987 0 2.013-.146 3.077-.449 2.791-.781 5.839-3.429 9.139-7.942 1.711-2.345 3.3-4.938 4.759-7.788.046.046.085.094.131.133 1.172.96 2.915 1.966 5.227 2.994 2.307 1.038 3.672 1.672 4.081 1.898 1.141.649 2.422.975 3.833.975.978 0 2.029-.163 3.145-.472 3.588-1.006 7.466-3.677 11.638-8.005 1.457-1.509 2.861-3.219 4.219-5.124a58.37 58.37 0 0 0 3.162-4.931 7.125 7.125 0 0 0 1.797 2.23c1.171.968 2.915 1.966 5.229 3.004 2.305 1.036 3.67 1.663 4.079 1.896 1.143.641 2.421.967 3.833.967.987 0 2.036-.156 3.147-.464 2.452-.698 5.043-2.161 7.766-4.397a45.104 45.104 0 0 0 3.871-3.608c1.712-1.764 3.346-3.815 4.929-6.138 2.274-3.344 4.411-7.261 6.409-11.752.608-1.208.716-2.53.315-3.978-.494-1.757-1.264-2.639-2.305-2.639a2.07 2.07 0 0 0-.603.092c-.562.156-1.087.736-1.581 1.742-3.014 6.464-6.331 11.619-9.94 15.49-.131.138-.262.279-.393.41-.232.248-.472.496-.702.727-3.169 3.191-5.999 5.125-8.507 5.837a6.58 6.58 0 0 1-1.796.272c-1.767 0-2.923-.977-3.47-2.943-1.181-4.24-.656-10.998 1.581-20.257 3.285-2.393 6.624-5.234 10.009-8.515Z" fill="#fff"/></svg>