<svg width="226" height="35" viewBox="0 0 226 35" fill="none" xmlns="http://www.w3.org/2000/svg">
<path d="M84.6867 34V0H95.2886C97.0556 0 98.3906 0.399242 99.2937 1.19773C100.197 1.98333 100.799 3.09091 101.1 4.52045C101.414 5.93712 101.571 7.60492 101.571 9.52386C101.571 11.3784 101.329 12.8595 100.845 13.967C100.374 15.0746 99.477 15.8409 98.155 16.2659C99.2414 16.4848 100.001 17.0193 100.432 17.8693C100.877 18.7064 101.1 19.7947 101.1 21.1341V34H94.2873V20.6898C94.2873 19.6981 94.0779 19.0864 93.659 18.8545C93.2533 18.6098 92.5923 18.4875 91.6761 18.4875V34H84.6867ZM91.7154 12.5955H93.3842C94.3396 12.5955 94.8174 11.5716 94.8174 9.52386C94.8174 8.19735 94.7127 7.32803 94.5033 6.91591C94.2938 6.50379 93.9012 6.29773 93.3253 6.29773H91.7154V12.5955Z" fill="#E93325"/>
<path d="M68.1171 34V0H81.9388V6.56818H75.1458V13.1943H81.664V19.5886H75.1458V27.3739H82.3904V34H68.1171Z" fill="#E93325"/>
<path d="M55.1785 34V6.52955H51.0752V0H66.1927V6.52955H62.0894V34H55.1785Z" fill="#E93325"/>
<path d="M39.2749 34V6.52955H35.1716V0H50.2891V6.52955H46.1858V34H39.2749Z" fill="#E93325"/>
<path d="M19.7405 34V0H33.5622V6.56818H26.7692V13.1943H33.2874V19.5886H26.7692V27.3739H34.0138V34H19.7405Z" fill="#E93325"/>
<path d="M0.5 34V0H9.86499C12.378 0 14.2039 0.605303 15.3426 1.81591C16.4944 3.01364 17.0703 4.99697 17.0703 7.76591V9.25341C17.0703 10.8504 16.7758 12.1447 16.1868 13.1364C15.6109 14.128 14.7275 14.7784 13.5364 15.0875C15.0939 15.4739 16.1345 16.3818 16.658 17.8114C17.1947 19.228 17.463 20.9602 17.463 23.008C17.463 25.2102 17.2536 27.1356 16.8347 28.7841C16.4159 30.4326 15.6567 31.714 14.5573 32.6284C13.4578 33.5428 11.8937 34 9.86499 34H0.5ZM7.25379 12.808H8.66737C9.30872 12.808 9.72101 12.5633 9.90425 12.0739C10.0875 11.5845 10.1791 10.9985 10.1791 10.3159V6.89659C10.1791 5.80189 9.68829 5.25455 8.70663 5.25455H7.25379V12.808ZM7.94094 28.0114C9.7341 28.0114 10.6307 27.1742 10.6307 25.5V21.25C10.6307 20.2841 10.4802 19.5242 10.1791 18.9705C9.89116 18.4038 9.34144 18.1205 8.52994 18.1205H7.25379V27.9727C7.54174 27.9985 7.77079 28.0114 7.94094 28.0114Z" fill="#E93325"/>
<path d="M207.163 34L210.5 0H222.221L225.5 34H218.962L218.471 28.5136H214.309L213.877 34H207.163ZM214.8 23.0852H217.941L216.43 5.79545H216.115L214.8 23.0852Z" fill="#E93325"/>
<path d="M198.682 34V0H205.357V34H198.682Z" fill="#E93325"/>
<path d="M179.834 34V0H190.436C192.203 0 193.538 0.399242 194.441 1.19773C195.344 1.98333 195.946 3.09091 196.247 4.52045C196.561 5.93712 196.718 7.60492 196.718 9.52386C196.718 11.3784 196.476 12.8595 195.992 13.967C195.521 15.0746 194.624 15.8409 193.302 16.2659C194.388 16.4848 195.148 17.0193 195.58 17.8693C196.025 18.7064 196.247 19.7947 196.247 21.1341V34H189.434V20.6898C189.434 19.6981 189.225 19.0864 188.806 18.8545C188.4 18.6098 187.739 18.4875 186.823 18.4875V34H179.834ZM186.862 12.5955H188.531C189.487 12.5955 189.964 11.5716 189.964 9.52386C189.964 8.19735 189.86 7.32803 189.65 6.91591C189.441 6.50379 189.048 6.29773 188.472 6.29773H186.862V12.5955Z" fill="#E93325"/>
<path d="M159.377 34L162.714 0H174.435L177.714 34H171.176L170.685 28.5136H166.523L166.091 34H159.377ZM167.014 23.0852H170.155L168.643 5.79545H168.329L167.014 23.0852Z" fill="#E93325"/>
<path d="M140.489 34V0H149.991C152.478 0 154.35 0.682576 155.606 2.04773C156.863 3.4 157.491 5.38333 157.491 7.99773V23.9159C157.491 27.1356 156.915 29.6212 155.764 31.3727C154.625 33.1242 152.622 34 149.756 34H140.489ZM147.439 27.992H148.637C149.906 27.992 150.541 27.3867 150.541 26.1761V8.63523C150.541 7.50189 150.384 6.77424 150.07 6.45227C149.769 6.11742 149.147 5.95 148.205 5.95H147.439V27.992Z" fill="#E93325"/>
<mask id="path-12-outside-1_1_1583" maskUnits="userSpaceOnUse" x="94.9876" y="-0.193619" width="52" height="35" fill="black">
<rect fill="white" x="94.9876" y="-0.193619" width="52" height="35"/>
<path d="M118.309 20.413C117.867 21.5322 117.269 22.8289 116.516 24.303C115.762 25.7792 115.155 26.5775 114.695 26.7031C114.667 26.7099 114.639 26.7138 114.615 26.7138C114.483 26.7138 114.388 26.6131 114.331 26.4104C114.175 25.8726 114.346 24.8755 114.847 23.4207C115.346 21.9642 115.985 20.5814 116.765 19.2688C117.544 17.9576 118.194 17.2313 118.712 17.0911C118.779 17.0736 118.846 17.0646 118.91 17.0646C119.104 17.0646 119.287 17.1451 119.46 17.3101C119.133 18.2588 118.749 19.292 118.309 20.413ZM130.78 10.2847C131.623 8.83586 132.332 7.99255 132.906 7.75772L132.935 7.75044C132.945 7.74701 132.954 7.7453 132.963 7.7453C133.006 7.7453 133.035 7.77744 133.054 7.83829C133.188 8.30108 132.761 9.45249 131.771 11.2908C130.782 13.1313 129.681 14.4639 128.473 15.2905C129.167 13.4021 129.937 11.7339 130.78 10.2847ZM138.073 11.1725C138.586 9.96542 139.132 8.86414 139.711 7.867C140.502 6.50947 141.174 5.68416 141.727 5.39405C141.764 5.37391 141.801 5.35592 141.836 5.34178L141.866 5.33278C141.875 5.33106 141.885 5.32935 141.894 5.32935C141.936 5.32935 141.966 5.35977 141.985 5.42062C142.055 5.66659 141.97 6.10238 141.727 6.73015C141.512 7.2915 141.168 8.00712 140.702 8.87486C140.229 9.75588 139.728 10.5233 139.2 11.1725C138.632 11.8774 138.033 12.4444 137.403 12.8746C137.621 12.2862 137.843 11.7197 138.073 11.1725ZM138.864 13.951C138.894 13.9223 138.925 13.8936 138.956 13.8649C139.741 13.124 140.524 12.2828 141.307 11.3375C141.352 11.2839 141.396 11.2282 141.441 11.1725C141.539 11.0526 141.634 10.9304 141.727 10.8049C142.356 9.96927 142.891 9.0634 143.333 8.08768C143.869 6.90199 144.15 5.74715 144.175 4.61888C144.179 4.41791 144.158 4.24222 144.116 4.09352C144.062 3.90883 143.964 3.74557 143.819 3.60373C143.674 3.46404 143.537 3.36162 143.403 3.29692C143.271 3.23264 143.071 3.14651 142.802 3.03896C142.531 2.93311 142.337 2.85427 142.221 2.80584C142.048 2.72143 141.883 2.64601 141.727 2.58173C141.105 2.31434 140.613 2.1815 140.251 2.1815C140.145 2.1815 140.051 2.19221 139.967 2.21578C139.718 2.2822 139.507 2.41118 139.332 2.59759C138.848 3.06938 138.2 4.02882 137.389 5.47976C136.576 6.92898 135.762 8.5719 134.947 10.4034C134.892 10.5289 134.836 10.6562 134.782 10.7834C134.351 11.7862 133.984 12.812 133.674 13.8649C133.453 14.6161 133.264 15.3784 133.104 16.1531C132.878 17.251 132.772 18.2318 132.779 19.1056C132.657 19.3348 132.533 19.5572 132.406 19.7711C131.879 20.6675 131.316 21.4225 130.723 22.0362C129.854 22.9309 129.082 23.4708 128.409 23.6521C128.252 23.6949 128.108 23.7168 127.979 23.7168C127.554 23.7168 127.275 23.4888 127.143 23.035C126.86 22.0503 126.985 20.4867 127.522 18.3394C128.315 17.7853 129.118 17.1271 129.934 16.3665C130.748 15.6063 131.563 14.7348 132.376 13.7535C133.189 12.7743 133.865 11.691 134.402 10.5053C134.548 10.181 134.675 9.85786 134.782 9.53862C135.072 8.68845 135.226 7.85457 135.245 7.03483C135.248 6.83385 135.228 6.65988 135.185 6.51118C135.131 6.32478 135.033 6.16152 134.888 6.0214C134.853 5.98754 134.818 5.9554 134.782 5.92455C134.675 5.83156 134.572 5.76129 134.472 5.71287C134.34 5.64859 134.138 5.56246 133.869 5.45662C133.6 5.34906 133.407 5.27193 133.29 5.22351C132.428 4.80571 131.773 4.59745 131.32 4.59745C131.214 4.59745 131.119 4.60816 131.036 4.63173C130.787 4.69987 130.576 4.82713 130.401 5.01354C130.182 5.22522 129.932 5.53718 129.647 5.94983C129.298 6.45205 128.903 7.09953 128.458 7.8957C127.897 8.89842 127.335 9.9907 126.772 11.1725C126.522 11.7035 126.269 12.2524 126.016 12.8193C125.2 14.6503 124.585 16.5675 124.173 18.5708C123.85 20.1314 123.767 21.4641 123.919 22.5761C122.998 24.192 122.131 25.112 121.318 25.331C121.27 25.3434 121.22 25.3507 121.17 25.3507C121.041 25.3507 120.91 25.3074 120.774 25.2234C120.585 25.1047 120.444 24.8879 120.353 24.5721C120.271 24.2944 120.672 23.0136 121.554 20.7339C122.438 18.4542 123.047 17.0393 123.384 16.4869C123.522 16.25 123.553 16.001 123.479 15.7409C123.349 15.2961 122.996 14.9212 122.423 14.6161C122.014 14.4009 121.635 14.2917 121.285 14.2917C121.14 14.2917 121.002 14.3114 120.869 14.3474C120.6 14.4189 120.392 14.5963 120.245 14.8762C120.158 15.0788 120.032 15.4628 119.864 16.0297C119.48 15.4932 119.094 15.156 118.702 15.0236C118.042 14.7219 117.488 14.5715 117.043 14.5715C116.893 14.5715 116.755 14.5895 116.631 14.6233C116.477 14.6645 116.261 14.7832 115.987 14.9769C115.565 15.312 115.053 15.9149 114.446 16.7899C113.841 17.6636 113.252 18.6591 112.686 19.7728C112.577 19.9879 112.473 20.2068 112.374 20.4292C112.304 20.5351 112.246 20.6461 112.187 20.7575C112.137 20.8526 112.086 20.949 112.027 21.0407C111.784 21.4208 111.491 21.7778 111.225 22.142C110.674 22.8988 110.123 23.6555 109.571 24.411C108.721 25.5804 107.869 26.7494 107.017 27.9188C106.3 28.9018 105.567 29.9619 104.426 30.5233C104.061 30.7024 103.813 30.8082 103.679 30.8459C103.501 30.8944 103.328 30.9179 103.165 30.9179C102.801 30.9179 102.472 30.7992 102.183 30.5588C101.761 30.2147 101.446 29.6782 101.236 28.9558C100.87 27.693 101.006 25.8563 101.642 23.4421C102.278 21.03 103.213 18.7846 104.444 16.7111C105.677 14.6358 106.868 13.4432 108.021 13.1313C108.058 13.1223 108.092 13.1167 108.121 13.1167C108.216 13.1167 108.279 13.1651 108.307 13.2641C108.344 13.3948 108.336 13.5778 108.279 13.8126C108.223 14.0478 108.021 14.4421 107.676 14.9966C107.329 15.5506 107.035 16.1103 106.796 16.6751C106.554 17.2403 106.499 17.7459 106.629 18.1907C106.779 18.7109 107.093 19.1501 107.57 19.5127C107.915 19.7728 108.268 19.9017 108.634 19.9017C108.776 19.9017 108.92 19.882 109.064 19.8426C109.391 19.7548 109.664 19.5915 109.885 19.3511C110.384 18.8562 110.861 17.9109 111.316 16.5174C111.771 15.1238 111.905 14.1014 111.717 13.4522C111.448 12.5249 110.709 11.7643 109.502 11.1708C109.354 11.101 109.139 10.9664 108.856 10.7672C108.726 10.6776 108.584 10.5735 108.426 10.4552C107.923 10.082 107.455 9.80773 107.022 9.63547C106.761 9.53134 106.503 9.47949 106.244 9.47949C106.075 9.47949 105.906 9.50091 105.738 9.54762C105.07 9.72888 104.308 10.2705 103.46 11.1725C103.209 11.4365 102.953 11.7287 102.69 12.0531C101.522 13.4899 100.457 15.1543 99.4932 17.0449C98.5294 18.9367 97.8132 20.9709 97.347 23.1482C96.8813 25.3254 96.868 27.1749 97.308 28.6974C97.3954 28.9931 97.4788 29.2514 97.5644 29.4687C97.6477 29.6855 97.7573 29.8865 97.893 30.0695C98.0283 30.2525 98.1454 30.4011 98.2398 30.516C98.3347 30.6308 98.4926 30.7637 98.7135 30.9141C98.9326 31.0649 99.0923 31.1708 99.1943 31.2333C99.2945 31.2963 99.5096 31.4129 99.8383 31.5851C100.169 31.7552 100.41 31.8898 100.562 31.9884C101.385 32.4674 102.135 32.7348 102.814 32.7901C102.94 32.8008 103.072 32.8064 103.208 32.8064C103.794 32.8064 104.453 32.7078 105.187 32.5086C106.261 32.218 107.247 31.6515 108.142 30.8082C109.036 29.9653 109.746 29.0183 110.269 27.9672C110.616 27.2713 110.969 26.554 111.286 25.8294C111.322 26.1165 111.374 26.3907 111.448 26.6508C111.55 27.0043 111.817 27.2966 112.246 27.5297C112.677 27.7645 112.987 27.9959 113.178 28.2239C113.596 28.7171 114.053 28.9648 114.552 28.9648C114.695 28.9648 114.842 28.9446 114.992 28.9035C115.721 28.7064 116.651 27.7341 117.78 25.9875C118.192 26.6975 118.693 27.2464 119.284 27.6372C119.671 27.8939 120.095 28.0229 120.551 28.0229C120.789 28.0229 121.036 27.9891 121.292 27.9188C121.964 27.7379 122.698 27.1243 123.492 26.0787C123.904 25.5354 124.286 24.9346 124.637 24.2743C124.649 24.285 124.658 24.2961 124.669 24.3051C124.951 24.5275 125.371 24.7606 125.927 24.9989C126.483 25.2393 126.811 25.3863 126.91 25.4385C127.184 25.589 127.492 25.6644 127.832 25.6644C128.068 25.6644 128.32 25.6267 128.589 25.5551C129.453 25.322 130.386 24.7032 131.39 23.7005C131.741 23.3508 132.079 22.9545 132.406 22.5131C132.668 22.1617 132.922 21.7816 133.167 21.3707C133.273 21.5661 133.414 21.7401 133.6 21.8875C133.882 22.1116 134.301 22.343 134.858 22.5834C135.413 22.8233 135.742 22.9686 135.84 23.0226C136.115 23.1713 136.423 23.2467 136.763 23.2467C137.001 23.2467 137.253 23.2107 137.52 23.1392C138.111 22.9776 138.734 22.6387 139.39 22.1206C139.694 21.8802 140.004 21.6021 140.322 21.2846C140.734 20.8758 141.127 20.4005 141.508 19.8623C142.055 19.0876 142.57 18.18 143.051 17.1396C143.197 16.8597 143.223 16.5534 143.126 16.2178C143.008 15.8107 142.822 15.6063 142.572 15.6063C142.525 15.6063 142.477 15.6132 142.427 15.6278C142.291 15.6638 142.165 15.7983 142.046 16.0314C141.32 17.5291 140.522 18.7233 139.653 19.6202C139.622 19.6524 139.59 19.6849 139.559 19.7153C139.503 19.7728 139.445 19.8302 139.39 19.8838C138.627 20.6229 137.946 21.0712 137.342 21.2361C137.184 21.2794 137.04 21.2991 136.91 21.2991C136.484 21.2991 136.206 21.0729 136.074 20.6174C135.79 19.6348 135.917 18.069 136.455 15.9239C137.246 15.3694 138.049 14.7112 138.864 13.951Z"/>
</mask>
<path d="M118.309 20.413C117.867 21.5322 117.269 22.8289 116.516 24.303C115.762 25.7792 115.155 26.5775 114.695 26.7031C114.667 26.7099 114.639 26.7138 114.615 26.7138C114.483 26.7138 114.388 26.6131 114.331 26.4104C114.175 25.8726 114.346 24.8755 114.847 23.4207C115.346 21.9642 115.985 20.5814 116.765 19.2688C117.544 17.9576 118.194 17.2313 118.712 17.0911C118.779 17.0736 118.846 17.0646 118.91 17.0646C119.104 17.0646 119.287 17.1451 119.46 17.3101C119.133 18.2588 118.749 19.292 118.309 20.413ZM130.78 10.2847C131.623 8.83586 132.332 7.99255 132.906 7.75772L132.935 7.75044C132.945 7.74701 132.954 7.7453 132.963 7.7453C133.006 7.7453 133.035 7.77744 133.054 7.83829C133.188 8.30108 132.761 9.45249 131.771 11.2908C130.782 13.1313 129.681 14.4639 128.473 15.2905C129.167 13.4021 129.937 11.7339 130.78 10.2847ZM138.073 11.1725C138.586 9.96542 139.132 8.86414 139.711 7.867C140.502 6.50947 141.174 5.68416 141.727 5.39405C141.764 5.37391 141.801 5.35592 141.836 5.34178L141.866 5.33278C141.875 5.33106 141.885 5.32935 141.894 5.32935C141.936 5.32935 141.966 5.35977 141.985 5.42062C142.055 5.66659 141.97 6.10238 141.727 6.73015C141.512 7.2915 141.168 8.00712 140.702 8.87486C140.229 9.75588 139.728 10.5233 139.2 11.1725C138.632 11.8774 138.033 12.4444 137.403 12.8746C137.621 12.2862 137.843 11.7197 138.073 11.1725ZM138.864 13.951C138.894 13.9223 138.925 13.8936 138.956 13.8649C139.741 13.124 140.524 12.2828 141.307 11.3375C141.352 11.2839 141.396 11.2282 141.441 11.1725C141.539 11.0526 141.634 10.9304 141.727 10.8049C142.356 9.96927 142.891 9.0634 143.333 8.08768C143.869 6.90199 144.15 5.74715 144.175 4.61888C144.179 4.41791 144.158 4.24222 144.116 4.09352C144.062 3.90883 143.964 3.74557 143.819 3.60373C143.674 3.46404 143.537 3.36162 143.403 3.29692C143.271 3.23264 143.071 3.14651 142.802 3.03896C142.531 2.93311 142.337 2.85427 142.221 2.80584C142.048 2.72143 141.883 2.64601 141.727 2.58173C141.105 2.31434 140.613 2.1815 140.251 2.1815C140.145 2.1815 140.051 2.19221 139.967 2.21578C139.718 2.2822 139.507 2.41118 139.332 2.59759C138.848 3.06938 138.2 4.02882 137.389 5.47976C136.576 6.92898 135.762 8.5719 134.947 10.4034C134.892 10.5289 134.836 10.6562 134.782 10.7834C134.351 11.7862 133.984 12.812 133.674 13.8649C133.453 14.6161 133.264 15.3784 133.104 16.1531C132.878 17.251 132.772 18.2318 132.779 19.1056C132.657 19.3348 132.533 19.5572 132.406 19.7711C131.879 20.6675 131.316 21.4225 130.723 22.0362C129.854 22.9309 129.082 23.4708 128.409 23.6521C128.252 23.6949 128.108 23.7168 127.979 23.7168C127.554 23.7168 127.275 23.4888 127.143 23.035C126.86 22.0503 126.985 20.4867 127.522 18.3394C128.315 17.7853 129.118 17.1271 129.934 16.3665C130.748 15.6063 131.563 14.7348 132.376 13.7535C133.189 12.7743 133.865 11.691 134.402 10.5053C134.548 10.181 134.675 9.85786 134.782 9.53862C135.072 8.68845 135.226 7.85457 135.245 7.03483C135.248 6.83385 135.228 6.65988 135.185 6.51118C135.131 6.32478 135.033 6.16152 134.888 6.0214C134.853 5.98754 134.818 5.9554 134.782 5.92455C134.675 5.83156 134.572 5.76129 134.472 5.71287C134.34 5.64859 134.138 5.56246 133.869 5.45662C133.6 5.34906 133.407 5.27193 133.29 5.22351C132.428 4.80571 131.773 4.59745 131.32 4.59745C131.214 4.59745 131.119 4.60816 131.036 4.63173C130.787 4.69987 130.576 4.82713 130.401 5.01354C130.182 5.22522 129.932 5.53718 129.647 5.94983C129.298 6.45205 128.903 7.09953 128.458 7.8957C127.897 8.89842 127.335 9.9907 126.772 11.1725C126.522 11.7035 126.269 12.2524 126.016 12.8193C125.2 14.6503 124.585 16.5675 124.173 18.5708C123.85 20.1314 123.767 21.4641 123.919 22.5761C122.998 24.192 122.131 25.112 121.318 25.331C121.27 25.3434 121.22 25.3507 121.17 25.3507C121.041 25.3507 120.91 25.3074 120.774 25.2234C120.585 25.1047 120.444 24.8879 120.353 24.5721C120.271 24.2944 120.672 23.0136 121.554 20.7339C122.438 18.4542 123.047 17.0393 123.384 16.4869C123.522 16.25 123.553 16.001 123.479 15.7409C123.349 15.2961 122.996 14.9212 122.423 14.6161C122.014 14.4009 121.635 14.2917 121.285 14.2917C121.14 14.2917 121.002 14.3114 120.869 14.3474C120.6 14.4189 120.392 14.5963 120.245 14.8762C120.158 15.0788 120.032 15.4628 119.864 16.0297C119.48 15.4932 119.094 15.156 118.702 15.0236C118.042 14.7219 117.488 14.5715 117.043 14.5715C116.893 14.5715 116.755 14.5895 116.631 14.6233C116.477 14.6645 116.261 14.7832 115.987 14.9769C115.565 15.312 115.053 15.9149 114.446 16.7899C113.841 17.6636 113.252 18.6591 112.686 19.7728C112.577 19.9879 112.473 20.2068 112.374 20.4292C112.304 20.5351 112.246 20.6461 112.187 20.7575C112.137 20.8526 112.086 20.949 112.027 21.0407C111.784 21.4208 111.491 21.7778 111.225 22.142C110.674 22.8988 110.123 23.6555 109.571 24.411C108.721 25.5804 107.869 26.7494 107.017 27.9188C106.3 28.9018 105.567 29.9619 104.426 30.5233C104.061 30.7024 103.813 30.8082 103.679 30.8459C103.501 30.8944 103.328 30.9179 103.165 30.9179C102.801 30.9179 102.472 30.7992 102.183 30.5588C101.761 30.2147 101.446 29.6782 101.236 28.9558C100.87 27.693 101.006 25.8563 101.642 23.4421C102.278 21.03 103.213 18.7846 104.444 16.7111C105.677 14.6358 106.868 13.4432 108.021 13.1313C108.058 13.1223 108.092 13.1167 108.121 13.1167C108.216 13.1167 108.279 13.1651 108.307 13.2641C108.344 13.3948 108.336 13.5778 108.279 13.8126C108.223 14.0478 108.021 14.4421 107.676 14.9966C107.329 15.5506 107.035 16.1103 106.796 16.6751C106.554 17.2403 106.499 17.7459 106.629 18.1907C106.779 18.7109 107.093 19.1501 107.57 19.5127C107.915 19.7728 108.268 19.9017 108.634 19.9017C108.776 19.9017 108.92 19.882 109.064 19.8426C109.391 19.7548 109.664 19.5915 109.885 19.3511C110.384 18.8562 110.861 17.9109 111.316 16.5174C111.771 15.1238 111.905 14.1014 111.717 13.4522C111.448 12.5249 110.709 11.7643 109.502 11.1708C109.354 11.101 109.139 10.9664 108.856 10.7672C108.726 10.6776 108.584 10.5735 108.426 10.4552C107.923 10.082 107.455 9.80773 107.022 9.63547C106.761 9.53134 106.503 9.47949 106.244 9.47949C106.075 9.47949 105.906 9.50091 105.738 9.54762C105.07 9.72888 104.308 10.2705 103.46 11.1725C103.209 11.4365 102.953 11.7287 102.69 12.0531C101.522 13.4899 100.457 15.1543 99.4932 17.0449C98.5294 18.9367 97.8132 20.9709 97.347 23.1482C96.8813 25.3254 96.868 27.1749 97.308 28.6974C97.3954 28.9931 97.4788 29.2514 97.5644 29.4687C97.6477 29.6855 97.7573 29.8865 97.893 30.0695C98.0283 30.2525 98.1454 30.4011 98.2398 30.516C98.3347 30.6308 98.4926 30.7637 98.7135 30.9141C98.9326 31.0649 99.0923 31.1708 99.1943 31.2333C99.2945 31.2963 99.5096 31.4129 99.8383 31.5851C100.169 31.7552 100.41 31.8898 100.562 31.9884C101.385 32.4674 102.135 32.7348 102.814 32.7901C102.94 32.8008 103.072 32.8064 103.208 32.8064C103.794 32.8064 104.453 32.7078 105.187 32.5086C106.261 32.218 107.247 31.6515 108.142 30.8082C109.036 29.9653 109.746 29.0183 110.269 27.9672C110.616 27.2713 110.969 26.554 111.286 25.8294C111.322 26.1165 111.374 26.3907 111.448 26.6508C111.55 27.0043 111.817 27.2966 112.246 27.5297C112.677 27.7645 112.987 27.9959 113.178 28.2239C113.596 28.7171 114.053 28.9648 114.552 28.9648C114.695 28.9648 114.842 28.9446 114.992 28.9035C115.721 28.7064 116.651 27.7341 117.78 25.9875C118.192 26.6975 118.693 27.2464 119.284 27.6372C119.671 27.8939 120.095 28.0229 120.551 28.0229C120.789 28.0229 121.036 27.9891 121.292 27.9188C121.964 27.7379 122.698 27.1243 123.492 26.0787C123.904 25.5354 124.286 24.9346 124.637 24.2743C124.649 24.285 124.658 24.2961 124.669 24.3051C124.951 24.5275 125.371 24.7606 125.927 24.9989C126.483 25.2393 126.811 25.3863 126.91 25.4385C127.184 25.589 127.492 25.6644 127.832 25.6644C128.068 25.6644 128.32 25.6267 128.589 25.5551C129.453 25.322 130.386 24.7032 131.39 23.7005C131.741 23.3508 132.079 22.9545 132.406 22.5131C132.668 22.1617 132.922 21.7816 133.167 21.3707C133.273 21.5661 133.414 21.7401 133.6 21.8875C133.882 22.1116 134.301 22.343 134.858 22.5834C135.413 22.8233 135.742 22.9686 135.84 23.0226C136.115 23.1713 136.423 23.2467 136.763 23.2467C137.001 23.2467 137.253 23.2107 137.52 23.1392C138.111 22.9776 138.734 22.6387 139.39 22.1206C139.694 21.8802 140.004 21.6021 140.322 21.2846C140.734 20.8758 141.127 20.4005 141.508 19.8623C142.055 19.0876 142.57 18.18 143.051 17.1396C143.197 16.8597 143.223 16.5534 143.126 16.2178C143.008 15.8107 142.822 15.6063 142.572 15.6063C142.525 15.6063 142.477 15.6132 142.427 15.6278C142.291 15.6638 142.165 15.7983 142.046 16.0314C141.32 17.5291 140.522 18.7233 139.653 19.6202C139.622 19.6524 139.59 19.6849 139.559 19.7153C139.503 19.7728 139.445 19.8302 139.39 19.8838C138.627 20.6229 137.946 21.0712 137.342 21.2361C137.184 21.2794 137.04 21.2991 136.91 21.2991C136.484 21.2991 136.206 21.0729 136.074 20.6174C135.79 19.6348 135.917 18.069 136.455 15.9239C137.246 15.3694 138.049 14.7112 138.864 13.951Z" fill="#F9E16D"/>
<path d="M118.309 20.413C117.867 21.5322 117.269 22.8289 116.516 24.303C115.762 25.7792 115.155 26.5775 114.695 26.7031C114.667 26.7099 114.639 26.7138 114.615 26.7138C114.483 26.7138 114.388 26.6131 114.331 26.4104C114.175 25.8726 114.346 24.8755 114.847 23.4207C115.346 21.9642 115.985 20.5814 116.765 19.2688C117.544 17.9576 118.194 17.2313 118.712 17.0911C118.779 17.0736 118.846 17.0646 118.91 17.0646C119.104 17.0646 119.287 17.1451 119.46 17.3101C119.133 18.2588 118.749 19.292 118.309 20.413ZM130.78 10.2847C131.623 8.83586 132.332 7.99255 132.906 7.75772L132.935 7.75044C132.945 7.74701 132.954 7.7453 132.963 7.7453C133.006 7.7453 133.035 7.77744 133.054 7.83829C133.188 8.30108 132.761 9.45249 131.771 11.2908C130.782 13.1313 129.681 14.4639 128.473 15.2905C129.167 13.4021 129.937 11.7339 130.78 10.2847ZM138.073 11.1725C138.586 9.96542 139.132 8.86414 139.711 7.867C140.502 6.50947 141.174 5.68416 141.727 5.39405C141.764 5.37391 141.801 5.35592 141.836 5.34178L141.866 5.33278C141.875 5.33106 141.885 5.32935 141.894 5.32935C141.936 5.32935 141.966 5.35977 141.985 5.42062C142.055 5.66659 141.97 6.10238 141.727 6.73015C141.512 7.2915 141.168 8.00712 140.702 8.87486C140.229 9.75588 139.728 10.5233 139.2 11.1725C138.632 11.8774 138.033 12.4444 137.403 12.8746C137.621 12.2862 137.843 11.7197 138.073 11.1725ZM138.864 13.951C138.894 13.9223 138.925 13.8936 138.956 13.8649C139.741 13.124 140.524 12.2828 141.307 11.3375C141.352 11.2839 141.396 11.2282 141.441 11.1725C141.539 11.0526 141.634 10.9304 141.727 10.8049C142.356 9.96927 142.891 9.0634 143.333 8.08768C143.869 6.90199 144.15 5.74715 144.175 4.61888C144.179 4.41791 144.158 4.24222 144.116 4.09352C144.062 3.90883 143.964 3.74557 143.819 3.60373C143.674 3.46404 143.537 3.36162 143.403 3.29692C143.271 3.23264 143.071 3.14651 142.802 3.03896C142.531 2.93311 142.337 2.85427 142.221 2.80584C142.048 2.72143 141.883 2.64601 141.727 2.58173C141.105 2.31434 140.613 2.1815 140.251 2.1815C140.145 2.1815 140.051 2.19221 139.967 2.21578C139.718 2.2822 139.507 2.41118 139.332 2.59759C138.848 3.06938 138.2 4.02882 137.389 5.47976C136.576 6.92898 135.762 8.5719 134.947 10.4034C134.892 10.5289 134.836 10.6562 134.782 10.7834C134.351 11.7862 133.984 12.812 133.674 13.8649C133.453 14.6161 133.264 15.3784 133.104 16.1531C132.878 17.251 132.772 18.2318 132.779 19.1056C132.657 19.3348 132.533 19.5572 132.406 19.7711C131.879 20.6675 131.316 21.4225 130.723 22.0362C129.854 22.9309 129.082 23.4708 128.409 23.6521C128.252 23.6949 128.108 23.7168 127.979 23.7168C127.554 23.7168 127.275 23.4888 127.143 23.035C126.86 22.0503 126.985 20.4867 127.522 18.3394C128.315 17.7853 129.118 17.1271 129.934 16.3665C130.748 15.6063 131.563 14.7348 132.376 13.7535C133.189 12.7743 133.865 11.691 134.402 10.5053C134.548 10.181 134.675 9.85786 134.782 9.53862C135.072 8.68845 135.226 7.85457 135.245 7.03483C135.248 6.83385 135.228 6.65988 135.185 6.51118C135.131 6.32478 135.033 6.16152 134.888 6.0214C134.853 5.98754 134.818 5.9554 134.782 5.92455C134.675 5.83156 134.572 5.76129 134.472 5.71287C134.34 5.64859 134.138 5.56246 133.869 5.45662C133.6 5.34906 133.407 5.27193 133.29 5.22351C132.428 4.80571 131.773 4.59745 131.32 4.59745C131.214 4.59745 131.119 4.60816 131.036 4.63173C130.787 4.69987 130.576 4.82713 130.401 5.01354C130.182 5.22522 129.932 5.53718 129.647 5.94983C129.298 6.45205 128.903 7.09953 128.458 7.8957C127.897 8.89842 127.335 9.9907 126.772 11.1725C126.522 11.7035 126.269 12.2524 126.016 12.8193C125.2 14.6503 124.585 16.5675 124.173 18.5708C123.85 20.1314 123.767 21.4641 123.919 22.5761C122.998 24.192 122.131 25.112 121.318 25.331C121.27 25.3434 121.22 25.3507 121.17 25.3507C121.041 25.3507 120.91 25.3074 120.774 25.2234C120.585 25.1047 120.444 24.8879 120.353 24.5721C120.271 24.2944 120.672 23.0136 121.554 20.7339C122.438 18.4542 123.047 17.0393 123.384 16.4869C123.522 16.25 123.553 16.001 123.479 15.7409C123.349 15.2961 122.996 14.9212 122.423 14.6161C122.014 14.4009 121.635 14.2917 121.285 14.2917C121.14 14.2917 121.002 14.3114 120.869 14.3474C120.6 14.4189 120.392 14.5963 120.245 14.8762C120.158 15.0788 120.032 15.4628 119.864 16.0297C119.48 15.4932 119.094 15.156 118.702 15.0236C118.042 14.7219 117.488 14.5715 117.043 14.5715C116.893 14.5715 116.755 14.5895 116.631 14.6233C116.477 14.6645 116.261 14.7832 115.987 14.9769C115.565 15.312 115.053 15.9149 114.446 16.7899C113.841 17.6636 113.252 18.6591 112.686 19.7728C112.577 19.9879 112.473 20.2068 112.374 20.4292C112.304 20.5351 112.246 20.6461 112.187 20.7575C112.137 20.8526 112.086 20.949 112.027 21.0407C111.784 21.4208 111.491 21.7778 111.225 22.142C110.674 22.8988 110.123 23.6555 109.571 24.411C108.721 25.5804 107.869 26.7494 107.017 27.9188C106.3 28.9018 105.567 29.9619 104.426 30.5233C104.061 30.7024 103.813 30.8082 103.679 30.8459C103.501 30.8944 103.328 30.9179 103.165 30.9179C102.801 30.9179 102.472 30.7992 102.183 30.5588C101.761 30.2147 101.446 29.6782 101.236 28.9558C100.87 27.693 101.006 25.8563 101.642 23.4421C102.278 21.03 103.213 18.7846 104.444 16.7111C105.677 14.6358 106.868 13.4432 108.021 13.1313C108.058 13.1223 108.092 13.1167 108.121 13.1167C108.216 13.1167 108.279 13.1651 108.307 13.2641C108.344 13.3948 108.336 13.5778 108.279 13.8126C108.223 14.0478 108.021 14.4421 107.676 14.9966C107.329 15.5506 107.035 16.1103 106.796 16.6751C106.554 17.2403 106.499 17.7459 106.629 18.1907C106.779 18.7109 107.093 19.1501 107.57 19.5127C107.915 19.7728 108.268 19.9017 108.634 19.9017C108.776 19.9017 108.92 19.882 109.064 19.8426C109.391 19.7548 109.664 19.5915 109.885 19.3511C110.384 18.8562 110.861 17.9109 111.316 16.5174C111.771 15.1238 111.905 14.1014 111.717 13.4522C111.448 12.5249 110.709 11.7643 109.502 11.1708C109.354 11.101 109.139 10.9664 108.856 10.7672C108.726 10.6776 108.584 10.5735 108.426 10.4552C107.923 10.082 107.455 9.80773 107.022 9.63547C106.761 9.53134 106.503 9.47949 106.244 9.47949C106.075 9.47949 105.906 9.50091 105.738 9.54762C105.07 9.72888 104.308 10.2705 103.46 11.1725C103.209 11.4365 102.953 11.7287 102.69 12.0531C101.522 13.4899 100.457 15.1543 99.4932 17.0449C98.5294 18.9367 97.8132 20.9709 97.347 23.1482C96.8813 25.3254 96.868 27.1749 97.308 28.6974C97.3954 28.9931 97.4788 29.2514 97.5644 29.4687C97.6477 29.6855 97.7573 29.8865 97.893 30.0695C98.0283 30.2525 98.1454 30.4011 98.2398 30.516C98.3347 30.6308 98.4926 30.7637 98.7135 30.9141C98.9326 31.0649 99.0923 31.1708 99.1943 31.2333C99.2945 31.2963 99.5096 31.4129 99.8383 31.5851C100.169 31.7552 100.41 31.8898 100.562 31.9884C101.385 32.4674 102.135 32.7348 102.814 32.7901C102.94 32.8008 103.072 32.8064 103.208 32.8064C103.794 32.8064 104.453 32.7078 105.187 32.5086C106.261 32.218 107.247 31.6515 108.142 30.8082C109.036 29.9653 109.746 29.0183 110.269 27.9672C110.616 27.2713 110.969 26.554 111.286 25.8294C111.322 26.1165 111.374 26.3907 111.448 26.6508C111.55 27.0043 111.817 27.2966 112.246 27.5297C112.677 27.7645 112.987 27.9959 113.178 28.2239C113.596 28.7171 114.053 28.9648 114.552 28.9648C114.695 28.9648 114.842 28.9446 114.992 28.9035C115.721 28.7064 116.651 27.7341 117.78 25.9875C118.192 26.6975 118.693 27.2464 119.284 27.6372C119.671 27.8939 120.095 28.0229 120.551 28.0229C120.789 28.0229 121.036 27.9891 121.292 27.9188C121.964 27.7379 122.698 27.1243 123.492 26.0787C123.904 25.5354 124.286 24.9346 124.637 24.2743C124.649 24.285 124.658 24.2961 124.669 24.3051C124.951 24.5275 125.371 24.7606 125.927 24.9989C126.483 25.2393 126.811 25.3863 126.91 25.4385C127.184 25.589 127.492 25.6644 127.832 25.6644C128.068 25.6644 128.32 25.6267 128.589 25.5551C129.453 25.322 130.386 24.7032 131.39 23.7005C131.741 23.3508 132.079 22.9545 132.406 22.5131C132.668 22.1617 132.922 21.7816 133.167 21.3707C133.273 21.5661 133.414 21.7401 133.6 21.8875C133.882 22.1116 134.301 22.343 134.858 22.5834C135.413 22.8233 135.742 22.9686 135.84 23.0226C136.115 23.1713 136.423 23.2467 136.763 23.2467C137.001 23.2467 137.253 23.2107 137.52 23.1392C138.111 22.9776 138.734 22.6387 139.39 22.1206C139.694 21.8802 140.004 21.6021 140.322 21.2846C140.734 20.8758 141.127 20.4005 141.508 19.8623C142.055 19.0876 142.57 18.18 143.051 17.1396C143.197 16.8597 143.223 16.5534 143.126 16.2178C143.008 15.8107 142.822 15.6063 142.572 15.6063C142.525 15.6063 142.477 15.6132 142.427 15.6278C142.291 15.6638 142.165 15.7983 142.046 16.0314C141.32 17.5291 140.522 18.7233 139.653 19.6202C139.622 19.6524 139.59 19.6849 139.559 19.7153C139.503 19.7728 139.445 19.8302 139.39 19.8838C138.627 20.6229 137.946 21.0712 137.342 21.2361C137.184 21.2794 137.04 21.2991 136.91 21.2991C136.484 21.2991 136.206 21.0729 136.074 20.6174C135.79 19.6348 135.917 18.069 136.455 15.9239C137.246 15.3694 138.049 14.7112 138.864 13.951Z" stroke="#040404" stroke-width="4" mask="url(#path-12-outside-1_1_1583)"/>
</svg>
