<svg width="226" height="35" fill="none" xmlns="http://www.w3.org/2000/svg"><path d="M84.687 34V0h10.602c1.767 0 3.102.4 4.005 1.198.903.785 1.505 1.893 1.806 3.322.314 1.417.471 3.085.471 5.004 0 1.854-.242 3.336-.726 4.443-.471 1.108-1.368 1.874-2.69 2.299 1.086.219 1.846.753 2.277 1.603.445.837.668 1.926.668 3.265V34h-6.813V20.69c0-.992-.21-1.604-.628-1.835-.406-.245-1.067-.367-1.983-.367V34h-6.99Zm7.028-21.404h1.67c.955 0 1.432-1.024 1.432-3.072 0-1.327-.104-2.196-.314-2.608-.21-.412-.602-.618-1.178-.618h-1.61v6.297ZM68.117 34V0H81.94v6.568h-6.793v6.626h6.518v6.395h-6.518v7.785h7.244V34H68.117Zm-12.939 0V6.53h-4.103V0h15.118v6.53h-4.104V34h-6.91Zm-15.903 0V6.53h-4.103V0h15.117v6.53h-4.103V34h-6.911ZM19.74 34V0h13.822v6.568H26.77v6.626h6.518v6.395H26.77v7.785h7.245V34H19.74ZM.5 34V0h9.365c2.513 0 4.339.605 5.478 1.816 1.151 1.198 1.727 3.181 1.727 5.95v1.487c0 1.597-.294 2.892-.883 3.883-.576.992-1.46 1.642-2.65 1.952 1.557.386 2.597 1.294 3.121 2.723.537 1.417.805 3.15.805 5.197 0 2.202-.21 4.128-.628 5.776-.42 1.649-1.178 2.93-2.278 3.844-1.1.915-2.663 1.372-4.692 1.372H.5Zm6.754-21.192h1.413c.642 0 1.054-.245 1.237-.734.184-.49.275-1.075.275-1.758v-3.42c0-1.094-.49-1.641-1.472-1.641H7.254v7.553Zm.687 15.203c1.793 0 2.69-.837 2.69-2.511v-4.25c0-.966-.15-1.726-.452-2.28-.288-.566-.838-.85-1.65-.85H7.255v9.853c.288.026.517.038.687.038ZM207.163 34 210.5 0h11.721l3.279 34h-6.538l-.491-5.486h-4.162L213.877 34h-6.714Zm7.637-10.915h3.141l-1.511-17.29h-.315l-1.315 17.29ZM198.682 34V0h6.675v34h-6.675Zm-18.848 0V0h10.602c1.767 0 3.102.4 4.005 1.198.903.785 1.505 1.893 1.806 3.322.314 1.417.471 3.085.471 5.004 0 1.854-.242 3.336-.726 4.443-.471 1.108-1.368 1.874-2.69 2.299 1.086.219 1.846.753 2.278 1.603.445.837.667 1.926.667 3.265V34h-6.813V20.69c0-.992-.209-1.604-.628-1.835-.406-.245-1.067-.367-1.983-.367V34h-6.989Zm7.028-21.404h1.669c.956 0 1.433-1.024 1.433-3.072 0-1.327-.104-2.196-.314-2.608-.209-.412-.602-.618-1.178-.618h-1.61v6.297ZM159.377 34l3.337-34h11.721l3.279 34h-6.538l-.491-5.486h-4.162L166.091 34h-6.714Zm7.637-10.915h3.141l-1.512-17.29h-.314l-1.315 17.29ZM140.489 34V0h9.502c2.487 0 4.359.683 5.615 2.048 1.257 1.352 1.885 3.335 1.885 5.95v15.918c0 3.22-.576 5.705-1.727 7.457-1.139 1.751-3.142 2.627-6.008 2.627h-9.267Zm6.95-6.008h1.198c1.269 0 1.904-.605 1.904-1.816V8.636c0-1.134-.157-1.862-.471-2.184-.301-.335-.923-.502-1.865-.502h-.766v22.042Z" fill="#E93325"/><mask id="a" maskUnits="userSpaceOnUse" x="94.988" y="-.194" width="52" height="35" fill="#000"><path fill="#fff" d="M94.988-.194h52v35h-52z"/><path d="M118.309 20.413c-.442 1.12-1.04 2.416-1.793 3.89-.754 1.476-1.361 2.274-1.821 2.4a.35.35 0 0 1-.08.01c-.132 0-.227-.1-.284-.303-.156-.537.015-1.535.516-2.99a22.162 22.162 0 0 1 1.918-4.151c.779-1.311 1.429-2.038 1.947-2.178a.788.788 0 0 1 .198-.026c.194 0 .377.08.55.245a79.174 79.174 0 0 1-1.151 3.103Zm12.471-10.128c.843-1.45 1.552-2.292 2.126-2.527l.029-.008a.085.085 0 0 1 .028-.005c.043 0 .072.032.091.093.134.463-.293 1.614-1.283 3.453-.989 1.84-2.09 3.173-3.298 4 .694-1.889 1.464-3.557 2.307-5.006Zm7.293.887a29.774 29.774 0 0 1 1.638-3.305c.791-1.358 1.463-2.183 2.016-2.473.037-.02.074-.038.109-.052l.03-.01a.156.156 0 0 1 .028-.003c.042 0 .072.03.091.092.07.246-.015.681-.258 1.31-.215.56-.559 1.276-1.025 2.144a14.532 14.532 0 0 1-1.502 2.297c-.568.705-1.167 1.272-1.797 1.703.218-.589.44-1.155.67-1.703Zm.791 2.779.092-.086a28.229 28.229 0 0 0 2.351-2.527l.134-.165a14.34 14.34 0 0 0 1.892-3.085c.536-1.186.817-2.34.842-3.47a1.81 1.81 0 0 0-.059-.524 1.112 1.112 0 0 0-.297-.49 1.655 1.655 0 0 0-.416-.307 9.724 9.724 0 0 0-.601-.258 28.341 28.341 0 0 1-.581-.233 8.667 8.667 0 0 0-.494-.224c-.622-.268-1.114-.4-1.476-.4-.106 0-.2.01-.284.034-.249.066-.46.195-.635.382-.484.471-1.132 1.43-1.943 2.882a59.809 59.809 0 0 0-2.442 4.923c-.055.126-.111.253-.165.38a27.349 27.349 0 0 0-1.108 3.082c-.221.751-.41 1.513-.57 2.288-.226 1.098-.332 2.079-.325 2.953-.122.229-.246.451-.373.665-.527.896-1.09 1.651-1.683 2.265-.869.895-1.641 1.435-2.314 1.616a1.653 1.653 0 0 1-.43.065c-.425 0-.704-.228-.836-.682-.283-.985-.158-2.548.379-4.696a22.278 22.278 0 0 0 2.412-1.973 28.103 28.103 0 0 0 2.442-2.612 14.287 14.287 0 0 0 2.026-3.249c.146-.324.273-.647.38-.966.29-.85.444-1.684.463-2.504a1.795 1.795 0 0 0-.06-.524 1.093 1.093 0 0 0-.297-.49 2.373 2.373 0 0 0-.106-.096 1.43 1.43 0 0 0-.31-.212 9.088 9.088 0 0 0-.603-.256l-.579-.233c-.862-.418-1.517-.627-1.97-.627-.106 0-.201.011-.284.035-.249.068-.46.195-.635.382-.219.211-.469.523-.754.936a24.07 24.07 0 0 0-1.189 1.946 56.43 56.43 0 0 0-1.686 3.276c-.25.531-.503 1.08-.756 1.647a27.885 27.885 0 0 0-1.843 5.752c-.323 1.56-.406 2.893-.254 4.005-.921 1.616-1.788 2.536-2.601 2.755a.594.594 0 0 1-.148.02.753.753 0 0 1-.396-.128c-.189-.118-.33-.335-.421-.65-.082-.279.319-1.56 1.201-3.84.884-2.279 1.493-3.694 1.83-4.246a.924.924 0 0 0 .095-.746c-.13-.445-.483-.82-1.056-1.125-.409-.215-.788-.324-1.138-.324-.145 0-.283.02-.416.055-.269.072-.477.25-.624.53-.087.202-.213.586-.381 1.153-.384-.537-.77-.874-1.162-1.006-.66-.302-1.214-.452-1.659-.452-.15 0-.288.018-.412.051-.154.042-.37.16-.644.354-.422.335-.934.938-1.541 1.813a25.692 25.692 0 0 0-1.76 2.983c-.109.215-.213.434-.312.656-.07.106-.128.217-.187.329a3.71 3.71 0 0 1-.16.283c-.243.38-.536.737-.802 1.101-.551.757-1.102 1.514-1.654 2.269-.85 1.17-1.702 2.338-2.554 3.508-.717.983-1.45 2.043-2.591 2.604-.365.18-.613.285-.747.323a1.96 1.96 0 0 1-.514.072c-.364 0-.693-.119-.982-.36-.422-.343-.737-.88-.947-1.602-.366-1.263-.23-3.1.406-5.514a26.205 26.205 0 0 1 2.802-6.73c1.233-2.076 2.424-3.269 3.577-3.58a.439.439 0 0 1 .1-.015c.095 0 .158.048.186.147.037.13.029.314-.028.549-.056.235-.258.63-.603 1.184a11.91 11.91 0 0 0-.88 1.678c-.242.565-.297 1.07-.167 1.516.15.52.464.96.941 1.322.345.26.698.389 1.064.389.142 0 .286-.02.43-.06.327-.087.6-.25.821-.49.499-.496.976-1.441 1.431-2.835.455-1.393.589-2.416.401-3.065-.269-.927-1.008-1.688-2.215-2.281a4.905 4.905 0 0 1-.646-.404c-.13-.09-.272-.194-.43-.312-.503-.373-.971-.647-1.404-.82a2.082 2.082 0 0 0-.778-.156 1.88 1.88 0 0 0-.506.069c-.668.18-1.43.723-2.278 1.624-.251.264-.507.557-.77.881-1.168 1.437-2.233 3.101-3.197 4.992a24.834 24.834 0 0 0-2.146 6.103c-.466 2.177-.479 4.027-.039 5.55.087.295.17.553.256.77.084.218.193.419.329.602.135.183.252.331.347.446.095.115.253.248.474.398.219.15.378.257.48.32.1.062.316.179.644.351.331.17.572.305.724.403.823.48 1.573.747 2.252.802.126.01.258.016.394.016.586 0 1.245-.098 1.979-.297 1.074-.291 2.06-.858 2.955-1.7a10.032 10.032 0 0 0 2.127-2.842c.347-.696.7-1.413 1.017-2.138.036.287.088.562.162.822.102.353.369.646.798.879.431.235.741.466.932.694.418.493.875.74 1.374.74.143 0 .29-.02.44-.06.729-.198 1.659-1.17 2.788-2.916.412.71.913 1.258 1.504 1.65a2.25 2.25 0 0 0 1.267.385c.238 0 .485-.034.741-.104.672-.181 1.406-.795 2.2-1.84.412-.544.794-1.144 1.145-1.805.012.011.021.022.032.031.282.223.702.456 1.258.694.556.24.884.387.983.44.274.15.582.225.922.225.236 0 .488-.037.757-.109.864-.233 1.797-.852 2.801-1.854.351-.35.689-.747 1.016-1.188.262-.351.516-.731.761-1.142.106.195.247.37.433.517.282.224.701.455 1.258.695.555.24.884.386.982.44.275.148.583.224.923.224.238 0 .49-.036.757-.108.591-.161 1.214-.5 1.87-1.018a10.725 10.725 0 0 0 2.118-2.258 17.322 17.322 0 0 0 1.543-2.723c.146-.28.172-.587.075-.922-.118-.407-.304-.612-.554-.612a.514.514 0 0 0-.145.022c-.136.036-.262.17-.381.403-.726 1.498-1.524 2.692-2.393 3.59a9.234 9.234 0 0 1-.263.264c-.763.738-1.444 1.186-2.048 1.351a1.639 1.639 0 0 1-.432.063c-.426 0-.704-.226-.836-.682-.284-.982-.157-2.548.381-4.693a22.452 22.452 0 0 0 2.409-1.973Z"/></mask><path d="M118.309 20.413c-.442 1.12-1.04 2.416-1.793 3.89-.754 1.476-1.361 2.274-1.821 2.4a.35.35 0 0 1-.08.01c-.132 0-.227-.1-.284-.303-.156-.537.015-1.535.516-2.99a22.162 22.162 0 0 1 1.918-4.151c.779-1.311 1.429-2.038 1.947-2.178a.788.788 0 0 1 .198-.026c.194 0 .377.08.55.245a79.174 79.174 0 0 1-1.151 3.103Zm12.471-10.128c.843-1.45 1.552-2.292 2.126-2.527l.029-.008a.085.085 0 0 1 .028-.005c.043 0 .072.032.091.093.134.463-.293 1.614-1.283 3.453-.989 1.84-2.09 3.173-3.298 4 .694-1.889 1.464-3.557 2.307-5.006Zm7.293.887a29.774 29.774 0 0 1 1.638-3.305c.791-1.358 1.463-2.183 2.016-2.473.037-.02.074-.038.109-.052l.03-.01a.156.156 0 0 1 .028-.003c.042 0 .072.03.091.092.07.246-.015.681-.258 1.31-.215.56-.559 1.276-1.025 2.144a14.532 14.532 0 0 1-1.502 2.297c-.568.705-1.167 1.272-1.797 1.703.218-.589.44-1.155.67-1.703Zm.791 2.779.092-.086a28.229 28.229 0 0 0 2.351-2.527l.134-.165a14.34 14.34 0 0 0 1.892-3.085c.536-1.186.817-2.34.842-3.47a1.81 1.81 0 0 0-.059-.524 1.112 1.112 0 0 0-.297-.49 1.655 1.655 0 0 0-.416-.307 9.724 9.724 0 0 0-.601-.258 28.341 28.341 0 0 1-.581-.233 8.667 8.667 0 0 0-.494-.224c-.622-.268-1.114-.4-1.476-.4-.106 0-.2.01-.284.034-.249.066-.46.195-.635.382-.484.471-1.132 1.43-1.943 2.882a59.809 59.809 0 0 0-2.442 4.923c-.055.126-.111.253-.165.38a27.349 27.349 0 0 0-1.108 3.082c-.221.751-.41 1.513-.57 2.288-.226 1.098-.332 2.079-.325 2.953-.122.229-.246.451-.373.665-.527.896-1.09 1.651-1.683 2.265-.869.895-1.641 1.435-2.314 1.616a1.653 1.653 0 0 1-.43.065c-.425 0-.704-.228-.836-.682-.283-.985-.158-2.548.379-4.696a22.278 22.278 0 0 0 2.412-1.973 28.103 28.103 0 0 0 2.442-2.612 14.287 14.287 0 0 0 2.026-3.249c.146-.324.273-.647.38-.966.29-.85.444-1.684.463-2.504a1.795 1.795 0 0 0-.06-.524 1.093 1.093 0 0 0-.297-.49 2.373 2.373 0 0 0-.106-.096 1.43 1.43 0 0 0-.31-.212 9.088 9.088 0 0 0-.603-.256l-.579-.233c-.862-.418-1.517-.627-1.97-.627-.106 0-.201.011-.284.035-.249.068-.46.195-.635.382-.219.211-.469.523-.754.936a24.07 24.07 0 0 0-1.189 1.946 56.43 56.43 0 0 0-1.686 3.276c-.25.531-.503 1.08-.756 1.647a27.885 27.885 0 0 0-1.843 5.752c-.323 1.56-.406 2.893-.254 4.005-.921 1.616-1.788 2.536-2.601 2.755a.594.594 0 0 1-.148.02.753.753 0 0 1-.396-.128c-.189-.118-.33-.335-.421-.65-.082-.279.319-1.56 1.201-3.84.884-2.279 1.493-3.694 1.83-4.246a.924.924 0 0 0 .095-.746c-.13-.445-.483-.82-1.056-1.125-.409-.215-.788-.324-1.138-.324-.145 0-.283.02-.416.055-.269.072-.477.25-.624.53-.087.202-.213.586-.381 1.153-.384-.537-.77-.874-1.162-1.006-.66-.302-1.214-.452-1.659-.452-.15 0-.288.018-.412.051-.154.042-.37.16-.644.354-.422.335-.934.938-1.541 1.813a25.692 25.692 0 0 0-1.76 2.983c-.109.215-.213.434-.312.656-.07.106-.128.217-.187.329a3.71 3.71 0 0 1-.16.283c-.243.38-.536.737-.802 1.101-.551.757-1.102 1.514-1.654 2.269-.85 1.17-1.702 2.338-2.554 3.508-.717.983-1.45 2.043-2.591 2.604-.365.18-.613.285-.747.323a1.96 1.96 0 0 1-.514.072c-.364 0-.693-.119-.982-.36-.422-.343-.737-.88-.947-1.602-.366-1.263-.23-3.1.406-5.514a26.205 26.205 0 0 1 2.802-6.73c1.233-2.076 2.424-3.269 3.577-3.58a.439.439 0 0 1 .1-.015c.095 0 .158.048.186.147.037.13.029.314-.028.549-.056.235-.258.63-.603 1.184a11.91 11.91 0 0 0-.88 1.678c-.242.565-.297 1.07-.167 1.516.15.52.464.96.941 1.322.345.26.698.389 1.064.389.142 0 .286-.02.43-.06.327-.087.6-.25.821-.49.499-.496.976-1.441 1.431-2.835.455-1.393.589-2.416.401-3.065-.269-.927-1.008-1.688-2.215-2.281a4.905 4.905 0 0 1-.646-.404c-.13-.09-.272-.194-.43-.312-.503-.373-.971-.647-1.404-.82a2.082 2.082 0 0 0-.778-.156 1.88 1.88 0 0 0-.506.069c-.668.18-1.43.723-2.278 1.624-.251.264-.507.557-.77.881-1.168 1.437-2.233 3.101-3.197 4.992a24.834 24.834 0 0 0-2.146 6.103c-.466 2.177-.479 4.027-.039 5.55.087.295.17.553.256.77.084.218.193.419.329.602.135.183.252.331.347.446.095.115.253.248.474.398.219.15.378.257.48.32.1.062.316.179.644.351.331.17.572.305.724.403.823.48 1.573.747 2.252.802.126.01.258.016.394.016.586 0 1.245-.098 1.979-.297 1.074-.291 2.06-.858 2.955-1.7a10.032 10.032 0 0 0 2.127-2.842c.347-.696.7-1.413 1.017-2.138.036.287.088.562.162.822.102.353.369.646.798.879.431.235.741.466.932.694.418.493.875.74 1.374.74.143 0 .29-.02.44-.06.729-.198 1.659-1.17 2.788-2.916.412.71.913 1.258 1.504 1.65a2.25 2.25 0 0 0 1.267.385c.238 0 .485-.034.741-.104.672-.181 1.406-.795 2.2-1.84.412-.544.794-1.144 1.145-1.805.012.011.021.022.032.031.282.223.702.456 1.258.694.556.24.884.387.983.44.274.15.582.225.922.225.236 0 .488-.037.757-.109.864-.233 1.797-.852 2.801-1.854.351-.35.689-.747 1.016-1.188.262-.351.516-.731.761-1.142.106.195.247.37.433.517.282.224.701.455 1.258.695.555.24.884.386.982.44.275.148.583.224.923.224.238 0 .49-.036.757-.108.591-.161 1.214-.5 1.87-1.018a10.725 10.725 0 0 0 2.118-2.258 17.322 17.322 0 0 0 1.543-2.723c.146-.28.172-.587.075-.922-.118-.407-.304-.612-.554-.612a.514.514 0 0 0-.145.022c-.136.036-.262.17-.381.403-.726 1.498-1.524 2.692-2.393 3.59a9.234 9.234 0 0 1-.263.264c-.763.738-1.444 1.186-2.048 1.351a1.639 1.639 0 0 1-.432.063c-.426 0-.704-.226-.836-.682-.284-.982-.157-2.548.381-4.693a22.452 22.452 0 0 0 2.409-1.973Z" fill="#F9E16D"/><path d="M118.309 20.413c-.442 1.12-1.04 2.416-1.793 3.89-.754 1.476-1.361 2.274-1.821 2.4a.35.35 0 0 1-.08.01c-.132 0-.227-.1-.284-.303-.156-.537.015-1.535.516-2.99a22.162 22.162 0 0 1 1.918-4.151c.779-1.311 1.429-2.038 1.947-2.178a.788.788 0 0 1 .198-.026c.194 0 .377.08.55.245a79.174 79.174 0 0 1-1.151 3.103Zm12.471-10.128c.843-1.45 1.552-2.292 2.126-2.527l.029-.008a.085.085 0 0 1 .028-.005c.043 0 .072.032.091.093.134.463-.293 1.614-1.283 3.453-.989 1.84-2.09 3.173-3.298 4 .694-1.889 1.464-3.557 2.307-5.006Zm7.293.887a29.774 29.774 0 0 1 1.638-3.305c.791-1.358 1.463-2.183 2.016-2.473.037-.02.074-.038.109-.052l.03-.01a.156.156 0 0 1 .028-.003c.042 0 .072.03.091.092.07.246-.015.681-.258 1.31-.215.56-.559 1.276-1.025 2.144a14.532 14.532 0 0 1-1.502 2.297c-.568.705-1.167 1.272-1.797 1.703.218-.589.44-1.155.67-1.703Zm.791 2.779.092-.086a28.229 28.229 0 0 0 2.351-2.527l.134-.165a14.34 14.34 0 0 0 1.892-3.085c.536-1.186.817-2.34.842-3.47a1.81 1.81 0 0 0-.059-.524 1.112 1.112 0 0 0-.297-.49 1.655 1.655 0 0 0-.416-.307 9.724 9.724 0 0 0-.601-.258 28.341 28.341 0 0 1-.581-.233 8.667 8.667 0 0 0-.494-.224c-.622-.268-1.114-.4-1.476-.4-.106 0-.2.01-.284.034-.249.066-.46.195-.635.382-.484.471-1.132 1.43-1.943 2.882a59.809 59.809 0 0 0-2.442 4.923c-.055.126-.111.253-.165.38a27.349 27.349 0 0 0-1.108 3.082c-.221.751-.41 1.513-.57 2.288-.226 1.098-.332 2.079-.325 2.953-.122.229-.246.451-.373.665-.527.896-1.09 1.651-1.683 2.265-.869.895-1.641 1.435-2.314 1.616a1.653 1.653 0 0 1-.43.065c-.425 0-.704-.228-.836-.682-.283-.985-.158-2.548.379-4.696a22.278 22.278 0 0 0 2.412-1.973 28.103 28.103 0 0 0 2.442-2.612 14.287 14.287 0 0 0 2.026-3.249c.146-.324.273-.647.38-.966.29-.85.444-1.684.463-2.504a1.795 1.795 0 0 0-.06-.524 1.093 1.093 0 0 0-.297-.49 2.373 2.373 0 0 0-.106-.096 1.43 1.43 0 0 0-.31-.212 9.088 9.088 0 0 0-.603-.256l-.579-.233c-.862-.418-1.517-.627-1.97-.627-.106 0-.201.011-.284.035-.249.068-.46.195-.635.382-.219.211-.469.523-.754.936a24.07 24.07 0 0 0-1.189 1.946 56.43 56.43 0 0 0-1.686 3.276c-.25.531-.503 1.08-.756 1.647a27.885 27.885 0 0 0-1.843 5.752c-.323 1.56-.406 2.893-.254 4.005-.921 1.616-1.788 2.536-2.601 2.755a.594.594 0 0 1-.148.02.753.753 0 0 1-.396-.128c-.189-.118-.33-.335-.421-.65-.082-.279.319-1.56 1.201-3.84.884-2.279 1.493-3.694 1.83-4.246a.924.924 0 0 0 .095-.746c-.13-.445-.483-.82-1.056-1.125-.409-.215-.788-.324-1.138-.324-.145 0-.283.02-.416.055-.269.072-.477.25-.624.53-.087.202-.213.586-.381 1.153-.384-.537-.77-.874-1.162-1.006-.66-.302-1.214-.452-1.659-.452-.15 0-.288.018-.412.051-.154.042-.37.16-.644.354-.422.335-.934.938-1.541 1.813a25.692 25.692 0 0 0-1.76 2.983c-.109.215-.213.434-.312.656-.07.106-.128.217-.187.329a3.71 3.71 0 0 1-.16.283c-.243.38-.536.737-.802 1.101-.551.757-1.102 1.514-1.654 2.269-.85 1.17-1.702 2.338-2.554 3.508-.717.983-1.45 2.043-2.591 2.604-.365.18-.613.285-.747.323a1.96 1.96 0 0 1-.514.072c-.364 0-.693-.119-.982-.36-.422-.343-.737-.88-.947-1.602-.366-1.263-.23-3.1.406-5.514a26.205 26.205 0 0 1 2.802-6.73c1.233-2.076 2.424-3.269 3.577-3.58a.439.439 0 0 1 .1-.015c.095 0 .158.048.186.147.037.13.029.314-.028.549-.056.235-.258.63-.603 1.184a11.91 11.91 0 0 0-.88 1.678c-.242.565-.297 1.07-.167 1.516.15.52.464.96.941 1.322.345.26.698.389 1.064.389.142 0 .286-.02.43-.06.327-.087.6-.25.821-.49.499-.496.976-1.441 1.431-2.835.455-1.393.589-2.416.401-3.065-.269-.927-1.008-1.688-2.215-2.281a4.905 4.905 0 0 1-.646-.404c-.13-.09-.272-.194-.43-.312-.503-.373-.971-.647-1.404-.82a2.082 2.082 0 0 0-.778-.156 1.88 1.88 0 0 0-.506.069c-.668.18-1.43.723-2.278 1.624-.251.264-.507.557-.77.881-1.168 1.437-2.233 3.101-3.197 4.992a24.834 24.834 0 0 0-2.146 6.103c-.466 2.177-.479 4.027-.039 5.55.087.295.17.553.256.77.084.218.193.419.329.602.135.183.252.331.347.446.095.115.253.248.474.398.219.15.378.257.48.32.1.062.316.179.644.351.331.17.572.305.724.403.823.48 1.573.747 2.252.802.126.01.258.016.394.016.586 0 1.245-.098 1.979-.297 1.074-.291 2.06-.858 2.955-1.7a10.032 10.032 0 0 0 2.127-2.842c.347-.696.7-1.413 1.017-2.138.036.287.088.562.162.822.102.353.369.646.798.879.431.235.741.466.932.694.418.493.875.74 1.374.74.143 0 .29-.02.44-.06.729-.198 1.659-1.17 2.788-2.916.412.71.913 1.258 1.504 1.65a2.25 2.25 0 0 0 1.267.385c.238 0 .485-.034.741-.104.672-.181 1.406-.795 2.2-1.84.412-.544.794-1.144 1.145-1.805.012.011.021.022.032.031.282.223.702.456 1.258.694.556.24.884.387.983.44.274.15.582.225.922.225.236 0 .488-.037.757-.109.864-.233 1.797-.852 2.801-1.854.351-.35.689-.747 1.016-1.188.262-.351.516-.731.761-1.142.106.195.247.37.433.517.282.224.701.455 1.258.695.555.24.884.386.982.44.275.148.583.224.923.224.238 0 .49-.036.757-.108.591-.161 1.214-.5 1.87-1.018a10.725 10.725 0 0 0 2.118-2.258 17.322 17.322 0 0 0 1.543-2.723c.146-.28.172-.587.075-.922-.118-.407-.304-.612-.554-.612a.514.514 0 0 0-.145.022c-.136.036-.262.17-.381.403-.726 1.498-1.524 2.692-2.393 3.59a9.234 9.234 0 0 1-.263.264c-.763.738-1.444 1.186-2.048 1.351a1.639 1.639 0 0 1-.432.063c-.426 0-.704-.226-.836-.682-.284-.982-.157-2.548.381-4.693a22.452 22.452 0 0 0 2.409-1.973Z" stroke="#040404" stroke-width="4" mask="url(#a)"/></svg>