<svg width="565" height="104" fill="none" xmlns="http://www.w3.org/2000/svg"><g clip-path="url(#a)"><circle cx="46.862" cy="59.006" r="35.03" fill="#306DF1"/><circle opacity=".9" cx="33.629" cy="66.946" r="27.09" fill="#8C37FE"/><circle opacity=".9" cx="63.832" cy="47.952" r="20.551" fill="#FF6975"/><circle opacity=".9" cx="38.611" cy="34.252" r="22.108" fill="#FFB552"/><circle cx="5.293" cy="37.988" r="5.293" fill="#FB828C"/><circle cx="66.323" cy="19.617" r="2.802" fill="#FB828C"/><circle cx="63.833" cy="100.575" r="3.114" fill="#F8BC6E"/><circle cx="32.695" cy="101.509" r="2.491" fill="#8D5AD1"/><circle cx="59.784" cy="5.916" r="5.916" fill="#487DF2"/><circle opacity=".2" cx="42.97" cy="57.916" r="32.383" fill="#fff"/><circle opacity=".15" cx="39.856" cy="54.18" r="29.27" fill="#000"/><circle cx="39.545" cy="57.916" r="29.581" fill="#000"/><path fill-rule="evenodd" clip-rule="evenodd" d="M69.113 57.054c-.45 15.514-13.167 27.952-28.79 27.952-15.907 0-28.802-12.895-28.802-28.802 0-8.355 3.557-15.88 9.24-21.14-6.593 5.425-10.797 13.648-10.797 22.852 0 16.337 13.244 29.581 29.58 29.581 16.338 0 29.582-13.244 29.582-29.58 0-.29-.005-.577-.013-.863Z" fill="#2E2E2E"/><path fill-rule="evenodd" clip-rule="evenodd" d="M44.922 41.19c.366.17.58.556.533.957l-1.588 13.278h7.822a.934.934 0 0 1 .698 1.555C51.129 58.395 41.31 68.94 35.858 74.6a.934.934 0 0 1-1.6-.759l1.588-13.278h-7.822a.934.934 0 0 1-.681-1.573l16.503-17.593a.934.934 0 0 1 1.076-.208Zm-14.74 17.505h6.716a.934.934 0 0 1 .928 1.045l-1.38 11.546a1454.647 1454.647 0 0 0 13.122-13.992h-6.754a.934.934 0 0 1-.927-1.046l1.375-11.498-13.08 13.945Z" fill="#fff"/><path d="M203.869 26.514a6.62 6.62 0 0 1 7.274 1.463l14.192 14.352 14.192-14.352a6.62 6.62 0 0 1 7.274-1.463c2.494 1.045 4.12 3.506 4.12 6.236v40.499c0 3.727-2.988 6.75-6.675 6.75-3.686 0-6.674-3.023-6.674-6.75V49.045l-7.517 7.602a6.623 6.623 0 0 1-9.44 0l-7.517-7.602V73.25c0 3.727-2.988 6.75-6.675 6.75-3.686 0-6.674-3.023-6.674-6.75v-40.5c0-2.73 1.626-5.191 4.12-6.236Z" fill="#000"/><path fill-rule="evenodd" clip-rule="evenodd" d="M170.161 26c2.647.032 5.026 1.642 6.064 4.105l17.057 40.498c1.445 3.43-.134 7.395-3.525 8.855-3.392 1.461-7.312-.135-8.757-3.564l-2.377-5.645h-18.034l-2.597 5.788c-1.523 3.395-5.479 4.898-8.836 3.358-3.357-1.54-4.843-5.54-3.32-8.935l18.169-40.499a6.67 6.67 0 0 1 6.156-3.96Zm-3.515 30.75h6.291l-3.046-7.233-3.245 7.232Z" fill="#000"/><path d="M100 53c0-14.912 11.953-27 26.699-27h5.562c3.686 0 6.674 3.022 6.674 6.75s-2.988 6.75-6.674 6.75h-5.562c-7.373 0-13.35 6.044-13.35 13.5 0 7.076 5.385 12.88 12.237 13.453v-8.954c0-3.728 2.988-6.75 6.675-6.75 3.686 0 6.674 3.022 6.674 6.75v15.75c0 3.727-2.988 6.75-6.674 6.75h-5.562c-14.746 0-26.699-12.089-26.699-27Zm165.754-27h24.844c3.686 0 6.675 3.022 6.675 6.75s-2.989 6.75-6.675 6.75h-18.17v6.75h13.35c3.686 0 6.674 3.021 6.674 6.75 0 3.727-2.988 6.749-6.674 6.749h-13.35v6.75h18.17c3.686 0 6.675 3.022 6.675 6.75 0 3.727-2.989 6.75-6.675 6.75h-24.844c-3.687 0-6.675-3.023-6.675-6.75V32.75c0-3.728 2.988-6.75 6.675-6.75ZM469.5 27.888c.853-.824 2.435-1.888 4.651-1.888h14.611c9.781 0 19.133 6.87 19.133 18.304 0 5.864-3.015 12.064-8.002 15.681l5.243 9.12c1.853 3.223.772 7.354-2.415 9.228-3.187 1.873-7.272.78-9.125-2.443l-9.271-16.124a6.816 6.816 0 0 1-.015-6.758 6.662 6.662 0 0 1 5.786-3.384h.222c1.586 0 4.227-2.155 4.227-5.32 0-2.483-1.802-4.805-5.783-4.805h-8.332a521.79 521.79 0 0 0 .061 7.781c.037 2.687.087 5.581.137 8.48v.009c.099 5.705.197 12.423.197 16.604 0 3.727-2.988 6.75-6.674 6.75-3.687 0-6.675-3.023-6.675-6.75 0-4.068-.095-10.565-.192-16.185v-.004c-.051-2.933-.102-5.9-.141-8.716-.056-4.049-.085-7.794-.042-10.549.022-1.352.062-2.608.143-3.582.036-.442.1-1.094.242-1.744a7.78 7.78 0 0 1 .606-1.765 6.96 6.96 0 0 1 1.408-1.94Zm48.448-.249a6.62 6.62 0 0 1 7.274 1.463l14.192 14.351 14.192-14.35a6.62 6.62 0 0 1 7.274-1.464c2.494 1.045 4.12 3.506 4.12 6.236v38.623c0 3.727-2.988 6.75-6.675 6.75-3.686 0-6.674-3.023-6.674-6.75V50.17l-7.517 7.601a6.639 6.639 0 0 1-4.72 1.977 6.639 6.639 0 0 1-4.72-1.977l-7.517-7.601v22.328c0 3.727-2.988 6.75-6.675 6.75-3.686 0-6.674-3.023-6.674-6.75V33.875c0-2.73 1.626-5.191 4.12-6.236ZM322.488 44c0-9.32 7.471-16.875 16.687-16.875h11.866c3.686 0 6.674 3.022 6.674 6.75 0 3.727-2.988 6.75-6.674 6.75h-11.866c-1.844 0-3.338 1.51-3.338 3.374s1.494 3.375 3.338 3.375h5.747c8.704 0 15.76 7.135 15.76 15.937 0 8.801-7.056 15.936-15.76 15.936h-15.759c-3.687 0-6.675-3.022-6.675-6.75 0-3.727 2.988-6.749 6.675-6.749h15.759c1.331 0 2.411-1.091 2.411-2.437 0-1.346-1.08-2.438-2.411-2.438h-5.747c-9.216 0-16.687-7.554-16.687-16.874Zm41.902-11.125c0-3.728 2.988-6.75 6.675-6.75h27.069c3.686 0 6.675 3.022 6.675 6.75 0 3.727-2.989 6.75-6.675 6.75h-6.304v32.873c0 3.727-2.988 6.75-6.674 6.75-3.687 0-6.675-3.023-6.675-6.75V39.624h-7.416c-3.687 0-6.675-3.022-6.675-6.75Z" fill="#000"/><path fill-rule="evenodd" clip-rule="evenodd" d="M432.99 26.75c-14.335 0-25.956 11.752-25.956 26.25 0 14.496 11.621 26.248 25.956 26.248 14.336 0 25.957-11.752 25.957-26.249 0-14.497-11.621-26.249-25.957-26.249ZM419.661 53c0-7.445 5.968-13.48 13.329-13.48 7.362 0 13.33 6.035 13.33 13.48 0 7.444-5.968 13.478-13.33 13.478-7.361 0-13.329-6.034-13.329-13.479Z" fill="#000"/></g><defs><clipPath id="a"><path fill="#fff" d="M0 0h565v104H0z"/></clipPath></defs></svg>