<svg width="64" height="64" fill="none" xmlns="http://www.w3.org/2000/svg"><g clip-path="url(#a)"><path fill="#F98D33" d="M5 6h55v54H5z"/><path fill="#F98D33" d="M5 6h55v54H5z"/><path d="M59.55 60.34c-16.54.46-40.4 1.24-57.24 1.78l-.04-2.06-1.2-55L1 1.91l3.27-.05 55-.8L63.52 1c-1.16 19.9-2.95 39.84-3.97 59.34Zm-.57-.57c-.71-16.42-2.57-38.32-3.72-54.72l4 4-54.99-.79 3.2-3.2-1.2 55-2-2c16.3.47 38.54 1.37 54.72 1.72l-.01-.01Z" fill="#FFF8EA"/><path d="M45.68 16.95c-4.16.1-6.2 2.48-5.98 6.47.13 1.47.62 5.54.78 7.07.16 1.63.01 3.26.27 4.9.55 3.33.41 6.59-.64 9.79-.57 1.63-1.28 3.26-2.43 4.9h-.8c-2.87-4.43-3.57-9.54-2.88-14.69.54-2.82.33-6.9.62-9.79.16-1.27.44-2.87.87-4.12 1.39-4.6 5.92-7.09 10.39-5.3l-.18.78-.02-.01Z" fill="#FFF8EA"/><path d="M49 28.836a113.25 113.25 0 0 1-12 2.35c-1.954.268-3.923 1.158-6 .67-2.515-.545-4.305-1.443-6-3.02v-.672c1.695-1.57 3.485-2.475 6-3.02 2.077-.488 4.046.402 6 .67.998.143 1.995.286 2.993.454 2.966.545 6.123 1.141 8.993 1.896v.672H49Z" fill="#FFF8EA"/></g><defs><clipPath id="a"><path fill="#fff" transform="translate(1 1)" d="M0 0h62.52v61.12H0z"/></clipPath></defs></svg>