<svg width="326" height="326" fill="none" xmlns="http://www.w3.org/2000/svg"><path d="M152.825 157.417c-1.389 5.557-1.385-10.303-11.084-25.532-.797-1.252-.476-1.549.949-.758a17.399 17.399 0 0 1 5.542 6.562c3.92 7.148 5.428 16.388 4.593 19.728Zm4.47-9.219c-.938 3.001-2.592-4.507-5.311-9.637-1.16-2.187-3.33-5.34-1.023-4.438a8.982 8.982 0 0 1 3.603 3.224c2.654 3.744 3.383 8.805 2.731 10.851Z" fill="#000"/><path d="M72.78 27.787c9.19-5.715-15.322-7.968-68.667.417 0 0 43.925 20.7 71.131 40.289a3.86 3.86 0 0 0 5.844-1.663l6.865-16.73 7.474 1.1a1.582 1.582 0 0 0 1.63-2.282l-4.933-9.674c.002.039-23.628-8.796-19.344-11.457Z" fill="#F87000"/><path d="M99.41 25.244c-2.212-6.673-10.696-6.804-16.502-7.661a149.377 149.377 0 0 0-67.87 6.56c-2.156.711-10.92 4.005-10.92 4.516-.327.228.606.102 34.105 9.256C97.599 54.14 84.121 51.037 94.257 52.597c2.429.373 5.728-1.063 4.362-4.136-1.555-3.035-3.155-6.065-4.704-9.142-.19-.378 2.58-3.912 2.921-4.364 1.788-3.033 3.845-5.879 2.575-9.711ZM64.584 42.24C53.23 39.23 19.28 30.416 7.716 28.924c12.12-.118 24.234.54 36.27 1.973a288.27 288.27 0 0 1 47.002 9.711 88.28 88.28 0 0 1 4.59 8.991 21.412 21.412 0 0 1-5.576-.683c-8.575-1.504-16.994-4.441-25.418-6.676Zm31.749-11.38c-1.467 2.496-2.883 4.74-4.212 6.865-24.939-7.544-60.186-12.47-85.249-9.521a224.135 224.135 0 0 1 37.065-7.853 159.996 159.996 0 0 1 37.861.151c4.745.616 13.48.197 15.099 6.031a5.614 5.614 0 0 1-.564 4.326Zm9.224 15.743c-4.619-1.92-4.042-2.231.796-.986 22.494 5.783 36.97 21.508 47.99 41.427 1.439 2.608 2.35 5.921 4.97 7.625 2.047 1.33 6.753 2.2 6.753-1.48 0-1.024-.489-2.86-1.708-3.11-.757-.155-2.999 1.525-1.365-.343a1.995 1.995 0 0 1 2.618-.378 5.123 5.123 0 0 1 2.199 4.059c.347 4.4-4.934 5.355-8.08 4.098-6.544-2.616-6.29-9.968-18.931-25.647-10.355-12.844-21.056-19.369-35.242-25.265Zm-.228 8.612c-4.476-3.205-3.84-3.286 1.024-.72a80.683 80.683 0 0 1 17.564 13.163c14.9 14.108 18.26 21.666 23.256 32.098a33.304 33.304 0 0 1 3.26 9.826 16.42 16.42 0 0 1-1.215 9.9 7.449 7.449 0 0 1-8.459 3.984c-3.718-1.097-6.421-6.72-4.25-10.129 1.285-2.015 5.464-2.732 6.07.266a4.19 4.19 0 0 0-1.972-1.063c-2.808-.409-3.795 2.504-2.96 4.704a5.923 5.923 0 0 0 4.287 4.212c6.256.828 6.357-8.684 5.501-12.52-1.123-5.04-3.834-9.672-6.145-14.264-7.529-14.965-22.232-29.627-35.961-39.457Zm3.984 83.081c3.533 1.876-1.674.846-4.592.683-1.141-.064-3.912-.303-4.021 1.366-.356 5.216 15.048 8.771 19.234 10.471 4.293 1.744-3.586 1.569-10.921-.683-4.68-1.438-10.74-4.065-11.19-8.954-.277-2.991 1.966-5.402 7.359-4.287 1.435.274 2.826.747 4.131 1.404Zm-19.348-10.735c2.591 1.716-6.534 1.825-9.675 2.009-2.735.163-4.51.828-3.912-.643a5.427 5.427 0 0 1 3.793-2.201c3.987-.839 8.398-.09 9.794.835Zm-.343 9.939c2.608 1.21-4.61 2.551-9.066 3.793-1.516.422-2.538.89-3.224 1.063-1.612.403-.978-2.236 2.504-3.832 3.73-1.713 8.246-1.738 9.786-1.024Zm2.921 8.118c1.977 1.507-4.579 2.298-7.283 2.771-1.173.205-1.972.417-2.542.456-.57 0-.894-.298-.652-.988a4.752 4.752 0 0 1 2.694-2.277c3.084-1.242 6.683-.8 7.783.038Zm130.2 47.99c.687.17 1.35.425 1.974.76.699.836-4.89.272-6.45.264a62.64 62.64 0 0 0-32.55 9.561 120.565 120.565 0 0 0-12.785 9.104c-2.369 1.876-2.525 1.389-.652-1.024 4.49-5.76 13.424-12.611 23.217-16.427a43.783 43.783 0 0 1 27.246-2.238Zm22.42-36.95c-1.175.489-1.289-1.141-.264-3.681 1.026-2.539 2.762-4.984 3.945-5.499 1.183-.516 1.289 1.141.266 3.678-1.024 2.538-2.77 5.008-3.947 5.502Zm14.985-5.35a5.875 5.875 0 0 0-2.771.456 22.979 22.979 0 0 0-1.328-2.282c-1.176-1.388-1.904.802-1.556 2.695.683 3.698 2.421 3.838 5.045 1.517.421-.489 1.938-2.042.61-2.386Zm-17.829-5.956c-1.205.403-.8.111-1.594-.949-2.647-3.128-2.771 1.277-1.555 3.187a2.771 2.771 0 0 0 3.869.489c1.158-.742 3.829-4.243-.72-2.727Zm-2.769 21.777c-.729-1.423 2.717-.373 5.767-1.898.526-.288 1.07-.541 1.63-.757 3.502-1.21 1.654 2.608-1.213 3.868-2.67 1.178-5.451.218-6.184-1.213Z" fill="#000"/><path d="M184.2 254.422c-12.52 11.152-25.798 22.686-42.148 26.365 8.15-25.113 8.042-52.049 7.853-78.453a412.32 412.32 0 0 1 10.813 44.197c.304-19.234-7.52-37.557-11.229-56.45-3.247-16.54-4.653-40.447-14.688-51.368a37.264 37.264 0 0 0-6.259-4.665 100.91 100.91 0 0 0-24.287-12.254c-7.204-2.473-15.213-4.098-22.344-1.329 10.774-2.047 21.62 2.396 31.449 7.247 19.753 9.748 25.428 16.985 29.401 37.671 5.631 29.36 5.053 59.596 1.859 89.342-.759 7.055-3.633 16.862-8.119 12.215-10.564-10.944-15.59-45.012-17.604-60.091a1059.35 1059.35 0 0 1-4.35-37.899c-.644 34.37 6.465 68.359 14.949 101.671 1.141 4.476 2.662 9.433 6.751 11.684 4.181 2.301 9.374.766 13.772-1.176a89.592 89.592 0 0 0 34.37-26.86c-.075.076-.151.114-.189.153Zm116.428-72.188c-19.766-1.09-16.054-21.625-13.77-35.85 2.192-13.66-13.318-31.759-26.025-30.426-17.301 1.814-27.087 11.533-30.54 23.027 0 0-2.471 6.975.835 11.458.815 1.106-2.026 3.075-1.48 12.551.433 7.515 3.219 13.48 10.699 14.567a80.513 80.513 0 0 0-3.869 7.853c-3.512 6.939-4.644 7.397-4.25 9.257a32.88 32.88 0 0 0 1.783 6.297c1.938 4.476 6.292 7.576 11.192 5.615a14.46 14.46 0 0 0 7.359-5.842c1.559-2.996.832-6.564.38-9.902-.497-3.679-.652-7.474-2.163-10.849-1.195 7.106 1.496 15.485-.834 19.537-1.427 2.481-6.123 5.199-8.954 4.476-3.902-.996-6.399-8.965-5.879-9.943a113.983 113.983 0 0 0 7.131-16.313 12.313 12.313 0 0 0 4.515-.682c1.607-.613 2.2-1.405 2.163-1.556-.039-.227-.686.06-2.201.342-4.448.826-9.749-.652-12.177-4.704-3.821-6.387-1.684-18.683 1.327-25.493a37.852 37.852 0 0 1 3.338-5.919c6.147-.759 22.389-4.675 23.597-3.643 1.141.978-1.304 7.858 1.215 13.012 4.534 9.304 3.652 15.875-3.073 20.639-9.617 6.814-8.67 21.265-.683 30.235a49.927 49.927 0 0 0 4.856 4.704c0 1.984-1.606 3.643-14.344 27.384-1.12 2.088-2.282 2.529-4.553.683a1831.06 1831.06 0 0 0-6.601-5.349 73.946 73.946 0 0 0 .153-16.882 310.868 310.868 0 0 0-2.504 16.769c-2.049.872-4.093 1.756-6.146 2.608-2.817 1.184-4.264.802-5.159-2.541a227.35 227.35 0 0 0-9.409-27.731 245.955 245.955 0 0 0 6.563 27.769 9.53 9.53 0 0 0 2.282 4.629 6.354 6.354 0 0 0 5.727 1.214 20.89 20.89 0 0 0 5.542-2.543c-14.894 72.72-14.789 71.15-14.947 75.533a44.19 44.19 0 0 0 3.073-8.536 553.733 553.733 0 0 0 14.378-66.993c3.143 1.956 5.658 6.86 9.902 6.298 2.845-.378 4.516-3.26 5.766-5.842 11.594-23.909 11.604-23.472 11.837-25.115 3.718 3.26 4.821 4.971.569 12.937-6.141 11.498-5.542 28.832 10.053 29.401 8.313.303 14.948-.152 21.207-3.26-1.565 26.213-9.047 69.938-4.742 52.96a329.47 329.47 0 0 0 7.891-54.781 51.727 51.727 0 0 0 13.315-13.961c12.4-17.717 8.569-45.842-14.345-47.099Zm8.119 46.585c-1.63.622-.153-1.858.151-2.312a24.854 24.854 0 0 0 2.884-5.464c3.586-9.977.352-24.354-9.598-28.186-.797-.307-3.954-.682-4.174-1.594-.117-.489.489-.838 1.025-.949 11.096-2.321 22.419 11.583 17.604 28.339-1.25 4.331-3.654 8.545-7.892 10.16v.006Z" fill="#000"/><path d="M267.244 218.875c4.319-8.061 3.064-9.635-.569-12.823-.233 1.63-.243 1.206-11.837 25.115-1.25 2.578-2.921 5.463-5.765 5.842-4.238.562-6.76-4.343-9.903-6.299a556.929 556.929 0 0 1-14.127 66.105 54.158 54.158 0 0 1-2.934 8.639 35.268 35.268 0 0 1 18.582-6.947 37.678 37.678 0 0 1 13.884 1.141 405.316 405.316 0 0 0 16.771-52.54c-9.828-4.349-9.222-18.683-4.102-28.233Zm-30.706 11.91a20.333 20.333 0 0 1-5.404 2.468 6.367 6.367 0 0 1-3.012.092 6.366 6.366 0 0 1-2.715-1.306 9.541 9.541 0 0 1-2.282-4.63c-7.264-26.428-5.479-23.512-6.488-27.048-7.891 13.77-18.582 41.277-23.558 67.414-2.008 10.547-.455 26.895-1.1 34.523.076.075.189.113.265.189 5.576 3.87 8.954 6.556 15.485 7.208a18.456 18.456 0 0 0 13.544-3.718c1.045-.784-.326 1.368 1.858-9.291 4.496-21.994 8.981-43.911 13.407-65.901Z" fill="#F87000"/></svg>