<svg width="311" height="137" fill="none" xmlns="http://www.w3.org/2000/svg"><path d="M95.008 117.44h-9.9V135H55.964v-17.56H.857V88.298L44.944 1.994h33.625L34.483 88.298h21.482v-17.56h29.142v17.56h9.901v29.142Zm103.241-22.79c0 13.076-4.172 23.288-12.516 30.636-8.344 7.223-18.431 10.835-30.262 10.835s-21.919-3.612-30.263-10.835c-8.344-7.348-12.516-17.56-12.516-30.636V42.344c0-13.077 4.172-23.226 12.516-30.45C133.552 4.547 143.64.873 155.471.873c11.831 0 21.918 3.674 30.262 11.021 8.344 7.224 12.516 17.373 12.516 30.45V94.65Zm-30.636.187V42.344c0-4.483-1.183-7.908-3.549-10.275-2.242-2.366-5.106-3.549-8.593-3.549s-6.414 1.183-8.78 3.55c-2.242 2.366-3.363 5.79-3.363 10.274v52.493c0 4.483 1.121 7.908 3.363 10.274 2.366 2.242 5.293 3.362 8.78 3.362 3.487 0 6.351-1.12 8.593-3.362 2.366-2.366 3.549-5.791 3.549-10.274Zm142.471 22.603h-9.901V135h-29.142v-17.56h-55.108V88.298L260.02 1.994h33.625l-44.087 86.304h21.483v-17.56h29.142v17.56h9.901v29.142Z" fill="#1E1E1E"/></svg>