<svg width="1112" height="302" fill="none" xmlns="http://www.w3.org/2000/svg"><g clip-path="url(#a)" fill="#080808"><path d="M84.768 193.384c-.358 15.538-4.65 27.325-13.055 35.005-7.153 6.251-15.916 9.465-26.647 9.465-12.34 0-22.175-4.107-29.508-12.501-5.543-6.251-8.941-14.109-10.372-23.575-1.43-9.465-2.146-26.611-2.146-51.614 0-25.003.715-42.148 2.146-51.614 1.43-9.465 4.829-17.323 10.373-23.574 7.153-8.394 16.989-12.502 29.507-12.502 11.088 0 20.209 3.393 27.362 10.18 7.869 7.68 11.982 19.11 12.34 33.933H64.202c-.358-8.751-2.146-15.36-5.544-19.467-3.22-3.929-7.69-6.072-13.592-6.072-6.259 0-11.087 2.143-14.306 6.43-2.862 4.107-4.829 10.18-5.723 18.573-.894 8.394-1.252 23.039-1.252 44.113 0 21.074.358 35.719 1.252 44.113.894 8.394 2.861 14.466 5.723 18.574 3.219 4.286 8.047 6.429 14.306 6.429 5.723 0 10.373-1.964 13.592-6.072 3.398-4.465 5.186-11.073 5.544-19.824h20.566Zm170.967-95.01c1.609 9.644 2.325 26.967 2.325 51.792 0 24.825-.716 41.97-2.325 51.793-1.61 9.644-5.008 17.502-10.194 23.574-7.511 8.394-17.347 12.502-29.508 12.502-12.161 0-21.818-4.108-29.508-12.502-5.365-5.894-8.763-13.752-10.193-23.574-1.61-9.645-2.325-26.968-2.325-51.793s.715-41.97 2.325-51.792c1.609-9.645 5.007-17.503 10.193-23.575 7.511-8.394 17.347-12.502 29.508-12.502 12.161 0 21.818 4.108 29.508 12.502 5.365 5.894 8.763 13.752 10.194 23.575ZM235.884 194.1c.894-8.394 1.431-23.038 1.431-43.934 0-20.896-.537-35.54-1.431-43.934-.894-8.394-2.861-14.645-5.723-18.753-3.219-4.286-7.869-6.43-13.949-6.43-6.259 0-11.088 2.144-14.307 6.43-2.861 4.108-4.828 10.18-5.723 18.574-.894 8.394-1.251 23.039-1.251 44.113 0 21.074.357 35.719 1.251 44.113.895 8.394 2.862 14.466 5.723 18.574 3.219 4.286 8.048 6.429 14.307 6.429 6.08 0 10.73-2.143 13.949-6.429 2.862-4.108 4.829-10.359 5.723-18.753Zm200.653 41.791H417.76l-44.351-117.336v117.336h-20.745V64.261h19.314L415.971 181.6V64.262h20.745V235.89h-.179Zm179.015-46.077c0 17.859-3.576 30.361-10.551 37.326-7.332 6.966-17.347 10.359-30.402 10.359-13.234 0-23.249-3.393-30.223-10.359-3.935-3.929-6.617-8.572-8.227-13.93-1.609-5.537-2.503-12.859-2.503-22.146h20.744c0 10.894 1.968 18.395 5.723 22.503 3.219 3.572 8.048 5.358 14.307 5.358 6.438 0 11.267-1.786 14.665-5.536 3.755-3.93 5.544-11.609 5.544-22.861 0-10.001-1.073-16.966-3.219-21.074-2.146-4.108-6.796-7.679-13.592-10.537l-19.493-8.037c-8.942-3.75-15.022-8.572-18.42-14.644-3.398-6.073-5.008-15.538-5.008-28.397 0-15.538 4.292-27.325 13.055-35.183 7.154-6.608 16.096-9.823 27.362-9.823 12.161 0 21.639 3.215 28.435 9.823 7.511 7.322 11.267 19.11 11.267 35.183h-20.745c0-9.466-1.788-16.43-5.365-20.717-3.04-3.93-7.69-5.715-13.949-5.715-5.723 0-10.015 1.786-13.234 5.358-4.113 4.465-6.081 11.251-6.081 20.538 0 8.573 1.073 14.466 3.219 18.038 2.146 3.572 6.438 6.787 13.234 9.644l19.315 8.037c9.478 3.929 15.916 9.108 19.135 15.895 3.398 6.608 5.007 16.967 5.007 30.897Zm171.146-91.44c1.609 9.644 2.325 26.967 2.325 51.792 0 24.825-.716 41.97-2.325 51.793-1.61 9.644-5.008 17.502-10.194 23.574-7.511 8.394-17.347 12.502-29.508 12.502-12.161 0-21.818-4.108-29.508-12.502-5.365-5.894-8.763-13.752-10.193-23.574-1.61-9.645-2.325-26.968-2.325-51.793s.715-41.97 2.325-51.792c1.609-9.645 5.007-17.503 10.193-23.575 7.511-8.394 17.347-12.502 29.508-12.502 12.161 0 21.818 4.108 29.508 12.502 5.186 5.894 8.584 13.752 10.194 23.575ZM766.847 194.1c.894-8.394 1.431-23.038 1.431-43.934 0-20.896-.537-35.54-1.431-43.934-.894-8.394-2.861-14.645-5.723-18.753-3.219-4.286-7.869-6.43-13.949-6.43-6.259 0-11.088 2.144-14.307 6.43-2.861 4.108-4.828 10.18-5.723 18.574-.894 8.394-1.252 23.039-1.252 44.113 0 21.074.358 35.719 1.252 44.113.895 8.394 2.862 14.466 5.723 18.574 3.219 4.286 8.048 6.429 14.307 6.429 6.08 0 10.73-2.143 13.949-6.429 2.683-4.108 4.65-10.359 5.723-18.753Zm182.949 41.791h-66.348V64.261h20.745v153.057h45.603v18.573Zm154.694 0h-66.35V64.261h66.35v18.575h-45.6v57.686h39.34v18.574h-39.34v58.4h45.6v18.395ZM514.152 26.576c-3.219 0-6.259-.357-9.12-1.25-2.862-.893-5.186-1.965-7.154-3.393v-5.18c1.789 1.43 4.114 2.858 6.796 3.93 3.04 1.071 6.081 1.607 9.121 1.607 3.398 0 6.259-.715 8.584-2.322 2.146-1.429 3.398-3.572 3.398-6.072.179-2.322-.894-4.286-3.577-5.894a9.461 9.461 0 0 0-2.682-1.25l-2.683-.893c-.179 0-.358-.178-.715-.178-.358 0-.716-.18-1.252-.358-.358-.178-.894-.357-1.431-.357a107.065 107.065 0 0 1-4.65-1.429c-1.251-.535-2.682-.893-3.934-1.607-1.431-.714-2.504-1.429-3.219-2.143-1.788-1.965-2.683-4.286-2.683-7.144 0-3.215 1.252-6.072 3.935-8.037 2.682-2.143 6.438-3.214 11.088-3.214 5.186 0 9.836 1.25 13.591 3.572v4.822c-4.292-2.68-8.763-4.108-13.591-4.108-3.398 0-5.902.714-7.869 1.964-1.788 1.25-2.683 3.037-2.683 5.18-.179 1.607.716 3.393 2.862 5 .357.358 1.073.536 2.146 1.072l2.146.893 2.682.714 2.683.715c2.325.714 3.755 1.25 4.292 1.428 1.252.358 2.504.893 3.755 1.608 1.431.714 2.504 1.429 3.398 2.321 1.967 1.786 3.04 4.287 3.04 7.502 0 3.928-1.609 6.965-4.828 9.286-3.04 2.143-6.975 3.215-11.446 3.215Zm113.561-.712h-30.939v-43.756h30.045v4.108h-25.395V.146h20.924v4.108h-20.924V21.4h26.289v4.465Zm71.356 0h-4.65v-43.756h19.672c4.292 0 7.69 1.072 10.194 3.215 2.503 2.143 3.755 5 3.755 8.573 0 3.214-.894 5.715-2.682 7.858-1.789 2.143-4.292 3.393-7.69 3.929l14.128 20.181h-5.365L712.66 6.22h-13.412v19.645h-.179Zm0-39.648V1.932h14.664c3.041 0 5.365-.714 6.975-1.964 1.609-1.429 2.504-3.215 2.504-5.715s-.895-4.465-2.504-5.894c-1.61-1.428-3.934-2.143-6.975-2.143h-14.664Zm115.706 39.827h-4.292l-19.314-43.935h5.007l16.453 37.684 16.453-37.684h5.007l-19.314 43.935Zm90.312-.179h-4.649v-43.756h4.649v43.756Zm89.597.714c-6.438 0-11.803-2.143-16.095-6.43-4.293-4.286-6.439-9.644-6.439-16.252 0-6.608 2.146-11.965 6.439-16.252 4.292-4.286 9.657-6.43 16.095-6.43 4.828 0 8.766 1.072 12.336 3.216v4.822c-3.75-2.5-7.865-3.75-12.158-3.75-5.007 0-9.299 1.785-12.697 5.178-3.398 3.394-5.186 7.859-5.186 13.038 0 5.358 1.788 9.644 5.186 13.037 3.398 3.393 7.69 5.18 12.876 5.18 5.189 0 9.479-1.43 13.059-4.465v4.822c-3.76 3.036-8.23 4.286-13.416 4.286Zm109.806-.714h-30.94v-43.756h30.05v4.108h-25.4V.146h20.92v4.108h-20.92V21.4h26.29v4.465Z"/></g><defs><clipPath id="a"><path fill="#fff" transform="translate(0 .123)" d="M0 0h1112v301.16H0z"/></clipPath></defs></svg>