<svg width="40" height="40" fill="none" xmlns="http://www.w3.org/2000/svg"><path d="M13.335 20a6.666 6.666 0 1 1 13.333 0 6.666 6.666 0 1 1-13.333 0Zm-3.604 0c0 5.672 4.598 10.27 10.27 10.27s10.27-4.598 10.27-10.27S25.673 9.73 20 9.73 9.731 14.328 9.731 20ZM28.277 9.323a2.4 2.4 0 1 0 2.401-2.399 2.401 2.401 0 0 0-2.4 2.399ZM11.921 36.279c-1.95-.088-3.01-.413-3.714-.688-.934-.363-1.6-.796-2.3-1.495a6.174 6.174 0 0 1-1.497-2.3c-.274-.703-.599-1.764-.688-3.713-.097-2.109-.116-2.742-.116-8.083 0-5.34.021-5.972.116-8.082.09-1.95.416-3.008.688-3.714.364-.934.797-1.6 1.496-2.3a6.174 6.174 0 0 1 2.3-1.497c.705-.274 1.765-.6 3.715-.688 2.108-.097 2.741-.116 8.08-.116 5.338 0 5.973.02 8.082.116 1.95.089 3.008.416 3.715.688.933.362 1.6.797 2.3 1.496.7.7 1.132 1.367 1.496 2.3.274.705.6 1.765.688 3.715.097 2.11.116 2.741.116 8.082 0 5.341-.02 5.973-.116 8.083-.089 1.95-.415 3.01-.688 3.714-.364.933-.797 1.6-1.496 2.299-.7.698-1.367 1.132-2.3 1.496-.704.274-1.765.599-3.715.688-2.108.096-2.741.116-8.082.116-5.341 0-5.973-.02-8.08-.117ZM11.755.121c-2.129.097-3.584.435-4.854.93a9.81 9.81 0 0 0-3.543 2.306A9.772 9.772 0 0 0 1.05 6.9C.557 8.17.22 9.625.122 11.754.024 13.887.001 14.57.001 20c0 5.431.023 6.113.121 8.246.097 2.129.435 3.583.93 4.854a9.776 9.776 0 0 0 2.306 3.543A9.833 9.833 0 0 0 6.9 38.95c1.273.494 2.725.832 4.854.929 2.134.097 2.815.121 8.246.121 5.431 0 6.113-.023 8.246-.121 2.129-.097 3.583-.435 4.854-.93a9.834 9.834 0 0 0 3.543-2.306c1.113-1.111 1.795-2.228 2.307-3.543.494-1.271.834-2.725.929-4.854.097-2.134.12-2.815.12-8.246 0-5.431-.023-6.113-.12-8.246-.097-2.129-.435-3.584-.93-4.854a9.835 9.835 0 0 0-2.306-3.543 9.785 9.785 0 0 0-3.541-2.307C31.83.556 30.376.216 28.248.121 26.116.024 25.434 0 20.003 0c-5.432 0-6.114.023-8.248.121Z" fill="#464646"/></svg>