<svg width="40" height="40" fill="none" xmlns="http://www.w3.org/2000/svg"><path d="M37.435 23.292c-1.111 8.954-7.776 9.513-8.887 10.073-.555 0-4.998 1.12-11.108.56-.555 1.119-1.11 2.238-1.666 2.797-1.11 1.12-2.221 2.239-3.332 1.68-1.111 0-1.111-1.68-1.111-1.68v-3.917C3 30.567 3 21.613 3 16.577c0-5.036 1.11-8.394 3.888-11.192 4.443-3.917 14.44-3.357 14.44-3.357 8.331 0 11.664 2.798 12.774 3.357 2.777 2.798 4.444 8.394 3.333 17.907ZM31.88 7.624c-.556-.56-3.888-2.798-11.108-2.798 0 0-8.331-.56-12.219 3.357-2.222 2.239-2.777 5.596-2.777 9.513s-.555 11.752 6.665 13.43v6.156c0 .56.555.56.555.56 1.111-1.12 4.999-5.596 4.999-5.596 4.998.56 8.886-.56 9.442-.56 1.11-.56 6.664-.56 7.22-8.394 1.11-8.394 0-13.43-2.777-15.668ZM29.104 25.53c-1.111 1.678-2.222 2.798-3.888 2.238-1.666 0-4.999-2.238-7.22-3.917-1.111-.56-2.222-1.679-2.777-2.798-1.111-1.12-1.666-2.238-2.222-3.358-1.666-2.798-2.221-3.917-2.221-3.917-.556-1.679 1.11-3.357 2.777-3.917.555-.56 1.11 0 1.666 0 0 0 1.11 1.12 1.11 1.679.556.56.556 1.119 1.111 1.678.556.56 0 1.68 0 1.68l-1.11 1.118c-.556.56-.556 1.12-.556 1.12s1.111 5.036 6.11 6.155c0 0 .555 0 1.11-.56l.556-1.119c.555-.56 1.11-.56 1.666 0 1.11.56 2.777 1.68 3.332 2.239.556.56.556 1.119.556 1.679Zm0-6.715c0-5.596-3.888-8.954-8.331-8.954-.556 0-.556-1.12 0-1.12 4.998 0 9.442 3.918 9.442 10.073-.556.56-1.111.56-1.111 0ZM21.328 12.1c-.555 0-.555-1.119 0-1.119 3.888.56 6.11 3.358 6.11 6.715 0 .56-1.111.56-1.111 0 0-3.357-1.666-5.596-4.999-5.596Zm2.777 4.477c0-1.679-.555-2.238-2.221-2.238-.556 0-.556-1.12 0-1.12 2.221 0 3.332 1.12 3.332 3.358 0 .56-1.11 1.12-1.11 0Z" fill="#fff"/></svg>