<svg width="40" height="40" fill="none" xmlns="http://www.w3.org/2000/svg"><path d="M18.617 2.087c-7.485 1.02-13.31 6.469-14.734 13.776-.708 3.665-.182 7.399 1.53 10.85l.618 1.227-1.53 4.518C3.654 34.935 2.984 36.984 3 37c.015.015 2.146-.64 4.728-1.463l4.705-1.501.9.426c3.677 1.722 7.758 2.141 11.642 1.181 5.962-1.478 10.759-6.11 12.411-11.993.693-2.483.807-5.44.297-7.962-1.172-5.783-5.3-10.592-10.888-12.672-.845-.32-2.224-.678-3.267-.86-.998-.168-3.884-.214-4.912-.07Zm4.265 2.75C28.493 5.6 33.26 9.782 34.76 15.268c.64 2.34.67 4.953.084 7.27-1.204 4.74-4.79 8.587-9.45 10.134-3.982 1.326-8.399.868-11.94-1.242-.327-.19-.624-.35-.655-.35-.022 0-1.271.388-2.771.868-1.493.472-2.718.838-2.718.8 0-.03.396-1.227.883-2.651l.883-2.591-.396-.595c-.495-.746-1.295-2.37-1.592-3.23-2.321-6.736.747-14.188 7.189-17.45 2.658-1.34 5.543-1.805 8.605-1.394Z" fill="#fff"/><path d="M13.925 11.102c-.628.307-1.495 1.505-1.813 2.506-.063.197-.143.717-.167 1.15-.055 1.01.143 1.885.692 3.02.405.835 1.344 2.238 2.275 3.388 1.63 2.025 3.642 3.68 5.55 4.587 1.488.701 3.778 1.45 4.748 1.552 1.329.135 3.349-.74 4.056-1.765.462-.662.716-2.285.406-2.569-.159-.142-3.173-1.6-3.77-1.828-.206-.079-.461-.118-.564-.087-.12.024-.43.34-.78.772-.859 1.071-1.28 1.481-1.511 1.481-.31 0-1.853-.74-2.72-1.308-1.105-.725-2.529-2.143-3.3-3.286-.318-.465-.573-.938-.573-1.04 0-.11.207-.418.557-.82.509-.591.954-1.292.954-1.513 0-.048-.366-.962-.811-2.034-.525-1.245-.89-2.017-1.026-2.159-.207-.205-.246-.213-1.042-.213-.676 0-.882.032-1.16.166Z" fill="#fff"/></svg>