<svg width="24" height="24" fill="none" xmlns="http://www.w3.org/2000/svg"><path d="m3.218 6.092.891.454-.891-.454Zm.874-.874.454.891-.454-.891Zm0 13.564.454-.891-.454.891Zm-.874-.874-.891.454.891-.454Zm17.564 0-.89-.454.89.454Zm-.874.874-.454-.891.454.891Zm.874-12.69-.89.454.89-.454Zm-.874-.874.454-.891-.454.891ZM7 14a1 1 0 1 0 0 2v-2Zm4 2a1 1 0 1 0 0-2v2Zm-8-6a1 1 0 1 0 0 2v-2Zm18 2a1 1 0 1 0 0-2v2ZM3 8a1 1 0 0 0 0 2V8Zm18 2a1 1 0 1 0 0-2v2Zm-1-1.8v7.6h2V8.2h-2ZM17.8 18H6.2v2h11.6v-2ZM4 15.8V8.2H2v7.6h2ZM6.2 6h11.6V4H6.2v2ZM4 8.2c0-.577 0-.949.024-1.232.022-.272.06-.373.085-.422l-1.782-.908c-.193.378-.264.772-.296 1.167C1.999 7.189 2 7.656 2 8.2h2ZM6.2 4c-.543 0-1.011 0-1.395.03-.395.033-.789.104-1.167.297l.908 1.782c.05-.025.15-.063.422-.085C5.25 6 5.624 6 6.2 6V4ZM4.11 6.546a1 1 0 0 1 .437-.437l-.908-1.782a3 3 0 0 0-1.311 1.311l1.782.908ZM6.2 18c-.576 0-.949 0-1.232-.024-.272-.022-.373-.06-.422-.085l-.908 1.782c.378.193.772.264 1.167.296.384.032.852.031 1.395.031v-2ZM2 15.8c0 .543 0 1.011.03 1.395.033.395.104.789.297 1.167l1.782-.908c-.025-.05-.063-.15-.085-.422C4 16.75 4 16.377 4 15.8H2Zm2.546 2.091a1 1 0 0 1-.437-.437l-1.782.908a3 3 0 0 0 1.31 1.311l.909-1.782ZM20 15.8c0 .577 0 .949-.024 1.232-.022.272-.06.373-.085.422l1.782.908c.193-.378.264-.772.297-1.167.03-.384.03-.852.03-1.395h-2ZM17.8 20c.544 0 1.011 0 1.395-.03.395-.033.788-.104 1.167-.297l-.908-1.782c-.05.025-.15.063-.422.085C18.75 18 18.377 18 17.8 18v2Zm2.091-2.546a1 1 0 0 1-.437.437l.908 1.782a3 3 0 0 0 1.311-1.311l-1.782-.908ZM22 8.2c0-.543 0-1.011-.03-1.395-.033-.395-.104-.788-.297-1.167l-1.782.908c.025.05.063.15.085.422C20 7.25 20 7.623 20 8.2h2ZM17.8 6c.577 0 .949 0 1.232.024.272.022.372.06.422.085l.908-1.782c-.378-.193-.772-.264-1.167-.296C18.811 3.999 18.344 4 17.8 4v2Zm3.873-.362a3 3 0 0 0-1.311-1.311l-.908 1.782a1 1 0 0 1 .437.437l1.782-.908ZM7 16h4v-2H7v2Zm-4-4h18v-2H3v2Zm0-2h18V8H3v2Z" fill="#5D5D62"/></svg>