<svg width="17" height="16" fill="none" xmlns="http://www.w3.org/2000/svg"><path fill-rule="evenodd" clip-rule="evenodd" d="m4.793.062-.236.052a.2.2 0 0 0-.027.008l-.237.09L4.058.3a.2.2 0 0 0-.03.014L3.75.476l-.27.158a.2.2 0 0 0-.04.03l-.316.317-.316.316a.2.2 0 0 0-.031.04l-.167.284-.17.29a.2.2 0 0 0-.016.035l-.127.363-.122.35a.2.2 0 0 0-.011.066v10.532a.2.2 0 0 0 .01.06l.088.283.093.296.012.03.119.237.12.238a.135.135 0 0 0 .015.026l.169.238.165.234a.2.2 0 0 0 .027.03l.189.176.192.179a.197.197 0 0 0 .023.019l.176.12.187.128.252.127.237.119.03.012.296.093.283.089a.2.2 0 0 0 .06.009h7.823a.2.2 0 0 0 .06-.01l.283-.088.296-.093a.2.2 0 0 0 .03-.012l.237-.119.238-.12a.215.215 0 0 0 .026-.015l.238-.169.234-.165a.2.2 0 0 0 .03-.027l.176-.189.179-.192a.203.203 0 0 0 .019-.023l.12-.176.128-.188.126-.25.126-.25.098-.292.088-.261a.198.198 0 0 0 .011-.064l.013-3.66.012-3.663a.198.198 0 0 0-.007-.056l-.04-.14-.034-.117a.2.2 0 0 0-.05-.086l-2.64-2.649-2.663-2.67a.199.199 0 0 0-.032-.027L9.865.12 9.729.032A.2.2 0 0 0 9.62 0L7.363.003 5.065.007a.2.2 0 0 0-.042.004l-.23.05ZM8.83 2.66l.015 1.293a.2.2 0 0 0 .01.06l.087.263.092.278.011.028.12.237.126.25.128.188.12.175a.2.2 0 0 0 .018.024l.18.192.175.188c.01.01.02.02.03.027l.234.166.238.169a.202.202 0 0 0 .027.015l.236.119.237.119a.201.201 0 0 0 .027.01l.278.093.263.086a.2.2 0 0 0 .06.01l1.296.016 1.128.013a.2.2 0 0 1 .197.2l-.011 2.98-.012 3.144a.202.202 0 0 1-.012.067l-.085.237-.089.246a.207.207 0 0 1-.021.043l-.133.2-.13.196a.202.202 0 0 1-.036.04l-.126.11-.134.119a.201.201 0 0 1-.025.019l-.14.088-.136.086a.199.199 0 0 1-.038.018l-.251.093-.238.088a.2.2 0 0 1-.069.012H5.162a.202.202 0 0 1-.068-.012l-.236-.085-.246-.09a.196.196 0 0 1-.043-.02l-.201-.135-.199-.131a.198.198 0 0 1-.041-.037l-.146-.17-.147-.172a.2.2 0 0 1-.027-.042l-.1-.202-.098-.203a.202.202 0 0 1-.016-.046l-.054-.254-.055-.258a.2.2 0 0 1-.004-.041V3.254a.2.2 0 0 1 .004-.041l.055-.258.054-.254a.2.2 0 0 1 .016-.047l.099-.202.099-.202a.2.2 0 0 1 .027-.042l.147-.172.145-.17a.2.2 0 0 1 .042-.037l.196-.129.201-.132a.2.2 0 0 1 .04-.02l.168-.063.17-.064a.2.2 0 0 1 .038-.01l.188-.031.191-.032a.2.2 0 0 1 .033-.003l1.701-.005 1.52-.004a.2.2 0 0 1 .2.197L8.83 2.66Zm4.257 2.675-.05.01a.2.2 0 0 1-.048.005l-.58-.02-.576-.02a.2.2 0 0 1-.058-.01l-.24-.083-.245-.083a.203.203 0 0 1-.046-.023l-.2-.133-.199-.132a.2.2 0 0 1-.041-.036l-.145-.17-.147-.172a.201.201 0 0 1-.028-.042l-.099-.202-.1-.203a.2.2 0 0 1-.015-.046l-.054-.255-.055-.258a.203.203 0 0 1-.004-.04v-.623a.2.2 0 0 1 .34-.141l1.161 1.16 1.45 1.448a.04.04 0 0 1-.02.069Zm-7.276.763-.105.06a.2.2 0 0 0-.074.076l-.061.108-.062.111a.2.2 0 0 0-.026.098V6.8a.2.2 0 0 0 .026.098l.062.112.061.108a.2.2 0 0 0 .076.077l.109.06.111.063a.2.2 0 0 0 .098.026h1.582a.2.2 0 0 0 .098-.026l.112-.063.108-.06a.2.2 0 0 0 .077-.077l.06-.108.063-.112a.2.2 0 0 0 .026-.098v-.248a.2.2 0 0 0-.026-.098l-.062-.111-.061-.109a.2.2 0 0 0-.077-.076l-.108-.06-.111-.063a.2.2 0 0 0-.099-.026h-.797l-.796.002a.2.2 0 0 0-.1.027l-.105.06Zm0 2.67-.105.06a.2.2 0 0 0-.074.076l-.061.109-.062.11a.2.2 0 0 0-.026.098v.248a.2.2 0 0 0 .026.098l.062.112.061.108a.2.2 0 0 0 .076.077l.109.06.111.063a.2.2 0 0 0 .098.026h5.589a.2.2 0 0 0 .098-.026l.111-.062.109-.061a.2.2 0 0 0 .076-.077l.06-.108.064-.112a.2.2 0 0 0 .025-.098v-.248a.2.2 0 0 0-.025-.098l-.063-.111-.061-.108a.2.2 0 0 0-.076-.077l-.109-.06-.111-.063a.2.2 0 0 0-.098-.026h-2.8l-2.799.002a.2.2 0 0 0-.1.027l-.105.061Zm0 2.67-.105.06a.2.2 0 0 0-.074.076l-.061.109-.062.11a.2.2 0 0 0-.026.099v.248a.2.2 0 0 0 .026.098l.062.111.061.108a.2.2 0 0 0 .076.077l.109.06.111.064a.2.2 0 0 0 .098.025h5.589a.2.2 0 0 0 .098-.025l.111-.063.109-.061a.2.2 0 0 0 .076-.077l.06-.108.064-.111a.2.2 0 0 0 .025-.098v-.248a.2.2 0 0 0-.025-.098l-.063-.112-.061-.108a.2.2 0 0 0-.076-.077l-.109-.06-.111-.063a.2.2 0 0 0-.098-.026l-2.8.001-2.799.001a.2.2 0 0 0-.1.027l-.105.061Z" fill="#F56311"/></svg>