<svg width="24" height="24" fill="none" xmlns="http://www.w3.org/2000/svg"><path d="m20.905 16.631.112.193c.155.328.23.681.23 1.036 0 .153-.016.308-.049.463a2.64 2.64 0 0 1-.29.76c-.122.2-.258.377-.405.523l-.008.009-.008.009a1.785 1.785 0 0 1-.256.223c-.418.3-.925.473-1.464.473a2.44 2.44 0 0 1-2.137-1.23v-.001l-1.31-2.269-.144-.25H8.818l-.144.25-1.31 2.269a2.44 2.44 0 0 1-2.137 1.23 2.44 2.44 0 0 1-2.138-1.23v-.002a2.407 2.407 0 0 1 0-2.456A2.44 2.44 0 0 1 5.227 15.4h2.909l.144-.25 2.89-5.01.144-.25-.144-.25-1.31-2.27-.002-.003A2.407 2.407 0 0 1 9.86 4.91a2.44 2.44 0 0 1 2.138-1.231 2.44 2.44 0 0 1 2.138 1.231v.002c.449.763.45 1.68 0 2.456l-.001.001-1.31 2.27-.144.25.144.25 2.89 5.01.144.25h2.908a2.44 2.44 0 0 1 2.138 1.231ZM7.03 17.33l.432-.75H5.237c-.672 0-1.005.454-1.112.638a1.29 1.29 0 0 0-.002 1.29 1.27 1.27 0 0 0 1.114.642c.211 0 .782-.06 1.114-.641v-.001l.68-1.178Zm6.09-10.54.004-.007c.322-.58.108-1.09-.005-1.285a1.268 1.268 0 0 0-1.112-.638c-.672 0-1.005.454-1.112.638a1.29 1.29 0 0 0-.002 1.29v.002l.68 1.18.434.751.433-.751.68-1.18Zm-3.176 7.86-.432.75h4.99l-.432-.75-1.63-2.83-.433-.752-.433.752-1.63 2.83Zm9.947 3.858.003-.005c.322-.58.109-1.09-.005-1.285a1.268 1.268 0 0 0-1.112-.638h-2.225l.432.75.679 1.178a1.27 1.27 0 0 0 1.114.642c.211 0 .782-.06 1.114-.642Z" fill="#F56311" stroke="#F56311"/></svg>