<svg width="24" height="24" fill="none" xmlns="http://www.w3.org/2000/svg"><path d="M19 9h-2.8c-1.12 0-1.68 0-2.108-.218a2 2 0 0 1-.874-.874C13 7.48 13 6.92 13 5.8V3m6 14.8V9.325c0-.489 0-.733-.056-.963-.049-.205-.13-.4-.239-.579-.124-.201-.296-.374-.642-.72l-3.125-3.126c-.346-.346-.52-.519-.721-.642a2 2 0 0 0-.578-.24C13.409 3 13.164 3 12.675 3H8.2c-1.12 0-1.68 0-2.108.218a2 2 0 0 0-.874.874C5 4.52 5 5.08 5 6.2v11.6c0 1.12 0 1.68.218 2.108a2 2 0 0 0 .874.874C6.52 21 7.08 21 8.2 21h7.6c1.12 0 1.68 0 2.108-.218.376-.192.682-.498.874-.874C19 19.48 19 18.92 19 17.8Z" stroke="#8C8D92" stroke-width="2" stroke-linecap="round" stroke-linejoin="round"/><path d="M7.8 13.2a.6.6 0 0 0-.6.6v2.4a.6.6 0 0 0 1.2 0V16h.4a1.4 1.4 0 0 0 0-2.8h-1Zm1 1.6h-.4v-.4h.4a.2.2 0 1 1 0 .4Zm5.601-1a.6.6 0 0 1 .6-.6h1.198a.6.6 0 0 1 0 1.2H15.6v.401h.599a.6.6 0 1 1 0 1.2H15.6l.001.197a.6.6 0 0 1-1.2.003l-.002-.8.002-1.602Zm-3.003-.6a.6.6 0 0 0-.6.6v2.4a.6.6 0 0 0 .6.6H12a1.8 1.8 0 0 0 0-3.6h-.602Zm.6 2.4v-1.2H12a.6.6 0 0 1 0 1.2h-.002Z" fill="#8C8D92"/></svg>