<svg width="18" height="18" fill="none" xmlns="http://www.w3.org/2000/svg"><path d="m1.218 2.092.891.454-.891-.454Zm.874-.874.454.891-.454-.891Zm0 15.564.454-.891-.454.891Zm-.874-.874-.891.454.891-.454Zm15.564 0-.89-.454.89.454Zm-.874.874-.454-.891.454.891Zm.874-14.69-.89.454.89-.454Zm-.874-.874.454-.891-.454.891ZM9 7a1 1 0 0 0 0 2V7Zm4 2a1 1 0 1 0 0-2v2ZM9 4a1 1 0 0 0 0 2V4Zm4 2a1 1 0 1 0 0-2v2ZM4 17a1 1 0 1 0 2 0H4ZM6 1a1 1 0 1 0-2 0h2Zm10 3.2v9.6h2V4.2h-2ZM13.8 16H4.2v2h9.6v-2ZM2 13.8V4.2H0v9.6h2ZM4.2 2h9.6V0H4.2v2ZM2 4.2c0-.577 0-.949.024-1.232.022-.272.06-.373.085-.422L.327 1.638c-.193.378-.264.772-.296 1.167C-.001 3.189 0 3.656 0 4.2h2ZM4.2 0c-.543 0-1.01 0-1.395.03-.395.033-.789.104-1.167.297l.908 1.782c.05-.025.15-.063.422-.085C3.25 2 3.624 2 4.2 2V0ZM2.11 2.546a1 1 0 0 1 .437-.437L1.638.327A3 3 0 0 0 .327 1.638l1.782.908ZM4.2 16c-.576 0-.949 0-1.232-.024-.272-.022-.373-.06-.422-.085l-.908 1.782c.378.193.772.264 1.167.296.384.032.852.031 1.395.031v-2ZM0 13.8c0 .544 0 1.011.03 1.395.033.395.104.789.297 1.167l1.782-.908c-.025-.05-.063-.15-.085-.422C2 14.75 2 14.377 2 13.8H0Zm2.546 2.091a1 1 0 0 1-.437-.437l-1.782.908a3 3 0 0 0 1.31 1.311l.909-1.782ZM16 13.8c0 .577 0 .949-.024 1.232-.022.272-.06.373-.085.422l1.782.908c.193-.378.264-.772.297-1.167.03-.384.03-.851.03-1.395h-2ZM13.8 18c.544 0 1.011 0 1.395-.03.395-.033.788-.104 1.167-.297l-.908-1.782c-.05.025-.15.063-.422.085C14.75 16 14.377 16 13.8 16v2Zm2.091-2.546a1 1 0 0 1-.437.437l.908 1.782a3 3 0 0 0 1.311-1.311l-1.782-.908ZM18 4.2c0-.543 0-1.011-.03-1.395-.033-.395-.104-.788-.297-1.167l-1.782.908c.025.05.063.15.085.422C16 3.25 16 3.623 16 4.2h2ZM13.8 2c.577 0 .949 0 1.232.024.272.022.372.06.422.085l.908-1.782c-.378-.193-.772-.264-1.167-.296C14.812-.001 14.344 0 13.8 0v2Zm3.873-.362A3 3 0 0 0 16.362.327l-.908 1.782a1 1 0 0 1 .437.437l1.782-.908ZM9 9h4V7H9v2Zm0-3h4V4H9v2ZM6 17V1H4v16h2Z" fill="#fff"/></svg>