<svg width="24" height="24" fill="none" xmlns="http://www.w3.org/2000/svg"><path d="M19 9h-2.8c-1.12 0-1.68 0-2.108-.218a2 2 0 0 1-.874-.874C13 7.48 13 6.92 13 5.8V3m6 14.8V9.325c0-.489 0-.733-.056-.963-.049-.205-.13-.4-.239-.579-.124-.201-.296-.374-.642-.72l-3.125-3.126c-.346-.346-.52-.519-.721-.642a2 2 0 0 0-.578-.24C13.409 3 13.164 3 12.675 3H8.2c-1.12 0-1.68 0-2.108.218a2 2 0 0 0-.874.874C5 4.52 5 5.08 5 6.2v11.6c0 1.12 0 1.68.218 2.108a2 2 0 0 0 .874.874C6.52 21 7.08 21 8.2 21h7.6c1.12 0 1.68 0 2.108-.218.376-.192.682-.498.874-.874C19 19.48 19 18.92 19 17.8Z" stroke="#8C8D92" stroke-width="2" stroke-linecap="round" stroke-linejoin="round"/><path fill-rule="evenodd" clip-rule="evenodd" d="M16.322 15.711c.163.189.24.417.24.671 0 .22-.058.423-.178.603-.118.174-.28.308-.475.402h-.001a1.52 1.52 0 0 1-.66.137c-.172 0-.344-.038-.49-.08a1.13 1.13 0 0 1-.254-.101 1.688 1.688 0 0 1-.399-.31.386.386 0 0 1-.062-.483.52.52 0 0 1 .448-.232c.12 0 .227.041.32.093.072.04.141.09.204.134l.05.035c.074.051.17.08.3.04.055-.017.083-.047.095-.08a.198.198 0 0 0-.012-.147c-.05-.117-.198-.254-.463-.294-.29-.044-.465-.079-.585-.127a.633.633 0 0 1-.27-.208l-.001-.001a1.032 1.032 0 0 1-.239-.677c0-.218.054-.42.168-.599l.002-.003a1.14 1.14 0 0 1 .463-.4 1.5 1.5 0 0 1 .65-.136c.207 0 .404.036.589.11a1.382 1.382 0 0 1 .61.475c.015.024.034.053.073.105a.346.346 0 0 1-.282.554l-.285-.004a.346.346 0 0 1-.277-.152.89.89 0 0 0-.212-.226.354.354 0 0 0-.227-.027c-.1.016-.182.059-.222.117-.031.045-.028.123.021.193a.472.472 0 0 0 .014.019c.12.155.335.212.572.229.127.009.263.03.39.084.163.07.27.152.385.286Zm-8.076-.025-.585.894a.548.548 0 0 0 .917.601l.312-.475.309.473a.548.548 0 0 0 .919-.599l-.583-.894.582-.89a.548.548 0 0 0-.918-.6l-.31.473-.311-.474a.548.548 0 0 0-.916.601l.584.89Zm2.82 1.279v-2.457a.56.56 0 0 1 1.12 0v1.77c0 .06.048.11.11.11h.63a.52.52 0 1 1 0 1.04h-1.398a.463.463 0 0 1-.463-.463Z" fill="#8C8D92"/></svg>