<svg width="24" height="24" fill="none" xmlns="http://www.w3.org/2000/svg"><path d="m4.414 14.586.39-.39A.67.67 0 0 0 5 13.722V10a7 7 0 0 1 14 0v3.722c0 .178.07.349.196.474l.39.39c.12.12.179.179.226.245.09.125.15.27.175.421.013.08.013.165.013.334 0 .385 0 .578-.052.734a1 1 0 0 1-.628.628c-.156.052-.349.052-.734.052H5.414c-.385 0-.578 0-.734-.052a1 1 0 0 1-.628-.628C4 16.164 4 15.97 4 15.586c0-.169 0-.253.013-.334a1 1 0 0 1 .175-.421c.047-.066.107-.126.226-.245ZM15 17v1a3 3 0 1 1-6 0v-1h6Z" stroke="#8C8D92" stroke-width="2" stroke-linecap="round" stroke-linejoin="round"/></svg>