<svg width="24" height="24" fill="none" xmlns="http://www.w3.org/2000/svg"><path fill-rule="evenodd" clip-rule="evenodd" d="M11.66 4.006c-.978.146-1.695.498-2.348 1.151a3.902 3.902 0 0 0-1.095 2.02c-.069.32-.078 1.126-.017 1.434.113.57.324 1.086.634 1.55.169.251.557.67.807.87l.139.111-.28.141a6.926 6.926 0 0 0-1.092.71 9.3 9.3 0 0 0-1.152 1.157c-1.269 1.589-2.017 3.756-2.034 5.896-.004.509-.001.536.07.65a.79.79 0 0 0 .2.204l.128.084 6.432.008 6.433.008.167-.087a.499.499 0 0 0 .258-.259l.09-.17-.02-.485c-.102-2.486-.896-4.57-2.372-6.228-.506-.568-1.28-1.17-1.91-1.487l-.282-.142.139-.11c.228-.183.61-.593.78-.84a3.937 3.937 0 0 0-.39-4.98 3.887 3.887 0 0 0-1.127-.82c-.582-.277-.964-.37-1.61-.387a6.121 6.121 0 0 0-.548.001Zm1.126 1.324c.741.196 1.39.732 1.724 1.425.208.43.27.704.27 1.188 0 .318-.015.462-.067.657a2.752 2.752 0 0 1-2.026 1.975c-.287.07-.892.07-1.178 0a2.76 2.76 0 0 1-1.283-.704 2.675 2.675 0 0 1-.409-3.372 2.97 2.97 0 0 1 .882-.865c.268-.16.664-.312.947-.362.268-.048.852-.018 1.14.058Zm-.006 7.205.319.62-.174.334-.175.334-.655.008-.656.009-.17-.345-.17-.345.181-.367c.1-.202.245-.484.322-.626l.14-.26.36.01.358.008.32.62Zm-2.844.144c-.1.193-.15.33-.161.444-.016.161-.007.184.307.796l.323.63-.321 1.325-.51 2.1-.187.774H6.475l.022-.289c.078-1.027.404-2.201.879-3.166.595-1.21 1.359-2.084 2.373-2.719.153-.096.29-.174.306-.174.015 0-.039.125-.119.279Zm4.548-.082c1.685 1.053 2.88 3.154 3.18 5.588.026.214.047.429.047.477v.087H16.26c-1.356 0-1.453-.004-1.468-.055a321.85 321.85 0 0 1-.989-4.128c0-.027.135-.31.3-.63.388-.748.391-.772.171-1.22-.182-.368-.185-.367.211-.119Zm-1.42 4.283c.239.985.44 1.808.449 1.83.011.03-.284.038-1.414.038-1.346 0-1.427-.003-1.412-.054.032-.11.864-3.558.864-3.581 0-.013.242-.024.54-.024h.539l.434 1.79Z" fill="#8C8D92"/></svg>