<svg width="24" height="24" fill="none" xmlns="http://www.w3.org/2000/svg"><path fill-rule="evenodd" clip-rule="evenodd" d="M8.096 4.033a.634.634 0 0 0-.356.315c-.055.114-.066.194-.066.496v.36l-.493.02c-.685.027-1.039.11-1.519.353-.787.4-1.351 1.115-1.594 2.025L4 7.857v9.505l.071.28c.077.302.284.769.446 1.004.141.205.48.559.695.723.399.308.957.537 1.466.604.183.024 1.832.031 5.483.025l5.222-.01.242-.068c.557-.159.976-.385 1.34-.723.544-.506.86-1.076.982-1.774.071-.41.07-9.218 0-9.629a3.012 3.012 0 0 0-.876-1.657c-.657-.657-1.36-.919-2.474-.922h-.287l-.01-.404c-.011-.39-.015-.409-.105-.537a.613.613 0 0 0-1.055.062c-.08.153-.087.194-.087.522v.356H8.925v-.356c0-.328-.007-.369-.087-.522a.616.616 0 0 0-.742-.303Zm-.422 3.105c0 .72.017.82.166.98.319.341.93.203 1.052-.239.018-.064.033-.408.033-.765v-.649h6.128v.649c0 .357.015.701.033.765.123.442.733.58 1.053.238.148-.16.165-.26.165-.983v-.678l.446.018c.25.01.527.04.63.068a1.89 1.89 0 0 1 1.175.978c.137.281.187.55.188 1.001v.383H5.235v-.383c.001-.451.052-.72.189-1 .272-.56.788-.932 1.42-1.025.087-.013.31-.025.494-.027l.336-.004v.673Zm11.07 6.498c0 3.382-.003 3.489-.064 3.727a1.866 1.866 0 0 1-1.22 1.299l-.233.076H6.752l-.233-.076a2.15 2.15 0 0 1-.816-.526 1.932 1.932 0 0 1-.405-.774c-.061-.237-.063-.348-.063-3.726v-3.481h13.508v3.481Zm-3.91 2.103a.62.62 0 0 0 .007 1.153c.094.039.257.048.845.047.82 0 .892-.016 1.078-.228a.6.6 0 0 0-.192-.944c-.152-.076-.17-.078-.891-.076-.588 0-.76.01-.846.048Z" fill="#8C8D92"/></svg>