<svg width="20" height="16" fill="none" xmlns="http://www.w3.org/2000/svg"><path d="m1.218 2.092.891.454-.891-.454Zm.874-.874.454.891-.454-.891Zm0 13.564.454-.891-.454.891Zm-.874-.874-.891.454.891-.454Zm17.564 0-.89-.454.89.454Zm-.874.874-.454-.891.454.891Zm.874-12.69-.89.454.89-.454Zm-.874-.874.454-.891-.454.891ZM5 10a1 1 0 1 0 0 2v-2Zm4 2a1 1 0 1 0 0-2v2ZM1 6a1 1 0 0 0 0 2V6Zm18 2a1 1 0 1 0 0-2v2ZM1 4a1 1 0 0 0 0 2V4Zm18 2a1 1 0 1 0 0-2v2Zm-1-1.8v7.6h2V4.2h-2ZM15.8 14H4.2v2h11.6v-2ZM2 11.8V4.2H0v7.6h2ZM4.2 2h11.6V0H4.2v2ZM2 4.2c0-.577 0-.949.024-1.232.022-.272.06-.373.085-.422L.327 1.638c-.193.378-.264.772-.296 1.167C-.001 3.189 0 3.656 0 4.2h2ZM4.2 0c-.543 0-1.01 0-1.395.03-.395.033-.789.104-1.167.297l.908 1.782c.05-.025.15-.063.422-.085C3.25 2 3.624 2 4.2 2V0ZM2.11 2.546a1 1 0 0 1 .437-.437L1.638.327A3 3 0 0 0 .327 1.638l1.782.908ZM4.2 14c-.576 0-.949 0-1.232-.024-.272-.022-.373-.06-.422-.085l-.908 1.782c.378.193.772.264 1.167.296.384.032.852.031 1.395.031v-2ZM0 11.8c0 .543 0 1.011.03 1.395.033.395.104.789.297 1.167l1.782-.908c-.025-.05-.063-.15-.085-.422C2 12.75 2 12.377 2 11.8H0Zm2.546 2.091a1 1 0 0 1-.437-.437l-1.782.908a3 3 0 0 0 1.31 1.311l.909-1.782ZM18 11.8c0 .577 0 .949-.024 1.232-.022.272-.06.373-.085.422l1.782.908c.193-.379.264-.772.297-1.167.03-.384.03-.852.03-1.395h-2ZM15.8 16c.544 0 1.011 0 1.395-.03.395-.033.788-.104 1.167-.297l-.908-1.782c-.05.025-.15.063-.422.085C16.75 14 16.377 14 15.8 14v2Zm2.091-2.546a1 1 0 0 1-.437.437l.908 1.782a3 3 0 0 0 1.311-1.311l-1.782-.908ZM20 4.2c0-.544 0-1.011-.03-1.395-.033-.395-.104-.788-.297-1.167l-1.782.908c.025.05.063.15.085.422C18 3.25 18 3.623 18 4.2h2ZM15.8 2c.577 0 .949 0 1.232.024.272.022.372.06.422.085l.908-1.782c-.378-.193-.772-.264-1.167-.296C16.811-.001 16.344 0 15.8 0v2Zm3.873-.362A3 3 0 0 0 18.362.327l-.908 1.782a1 1 0 0 1 .437.437l1.782-.908ZM5 12h4v-2H5v2ZM1 8h18V6H1v2Zm0-2h18V4H1v2Z" fill="#5D5D62"/></svg>