<svg width="24" height="24" fill="none" xmlns="http://www.w3.org/2000/svg"><path d="m20.35 8.923-.366-.204a2 2 0 0 1-.85-.836h0a1.998 1.998 0 0 1-.3-1.138v-.019l.007-.417c.012-.686.018-1.029-.078-1.336a2 2 0 0 0-.417-.736c-.214-.24-.511-.411-1.104-.752l-.003-.002-.494-.285c-.592-.341-.889-.512-1.204-.577a2 2 0 0 0-.843.007c-.313.07-.605.245-1.19.595l-.004.002-.354.212-.112.066a2 2 0 0 1-.908.251l-.13.001h0-.13a2.001 2.001 0 0 1-.91-.253l-.105-.062-.006-.004-.357-.214-.002-.001c-.588-.353-.882-.53-1.196-.6a2.001 2.001 0 0 0-.847-.006c-.316.066-.613.238-1.208.583l-.488.283c-.591.343-.886.515-1.1.755a2 2 0 0 0-.414.734c-.096.307-.09.649-.079 1.333l.007.424.002.128a2 2 0 0 1-.3 1.027 2 2 0 0 1-.851.837l-.363.2h0c-.601.334-.902.5-1.12.738a2 2 0 0 0-.43.73c-.101.306-.1.65-.099 1.336v.002l.002.563v.006c.001.679.002 1.02.103 1.323a2 2 0 0 0 .427.726c.218.235.516.401 1.112.733h.002l.358.2.005.003.116.066a2 2 0 0 1 .739.78h0l.067.12a2 2 0 0 1 .23 1.038l-.006.407v.002c-.012.685-.018 1.028.078 1.335a2 2 0 0 0 .417.736c.215.24.512.411 1.106.754l.494.285c.593.341.89.512 1.204.577a2 2 0 0 0 .844-.007c.313-.07.605-.245 1.19-.596l.003-.002.354-.212c.056-.033.084-.05.112-.065a2 2 0 0 1 .908-.251c.032-.002.065-.002.13-.002s.098 0 .13.002a1.998 1.998 0 0 1 1.022.318l.356.213h.001c.589.354.883.531 1.198.602a2 2 0 0 0 .847.006c.315-.066.613-.238 1.208-.583l.487-.283c.592-.344.887-.515 1.1-.755a2 2 0 0 0 .415-.735c.095-.306.09-.648.078-1.332l-.007-.424v-.022l-.001-.107a2.001 2.001 0 0 1 .3-1.026h0l.066-.111a2 2 0 0 1 .674-.663l.107-.06.005-.003.362-.2c.601-.334.902-.5 1.12-.738a2 2 0 0 0 .43-.73c.1-.307.1-.65.099-1.339l-.002-.562c-.001-.683-.002-1.025-.103-1.33a2 2 0 0 0-.428-.725c-.218-.236-.516-.402-1.113-.734Z" stroke="#5D5D62" stroke-width="2" stroke-linecap="round" stroke-linejoin="round"/><path d="M8 12a4 4 0 1 0 8 0 4 4 0 0 0-8 0Z" stroke="#5D5D62" stroke-width="2" stroke-linecap="round" stroke-linejoin="round"/></svg>