<svg width="24" height="24" fill="none" xmlns="http://www.w3.org/2000/svg"><path d="M3.587 13.779C5.367 15.548 8.47 18 12 18c3.53 0 6.634-2.452 8.413-4.221l.001-.001c.47-.466.704-.7.853-1.158.107-.327.107-.913 0-1.24-.149-.458-.384-.692-.853-1.158h0C18.633 8.451 15.53 6 12 6c-3.53 0-6.634 2.452-8.413 4.221-.47.467-.705.7-.854 1.159-.107.327-.107.913 0 1.24.15.459.384.692.854 1.159h0Z" stroke="#F56311" stroke-width="2" stroke-linecap="round" stroke-linejoin="round"/><path d="M10 12a2 2 0 1 0 4 0 2 2 0 0 0-4 0Z" stroke="#F56311" stroke-width="2" stroke-linecap="round" stroke-linejoin="round"/></svg>