<svg width="20" height="20" fill="none" xmlns="http://www.w3.org/2000/svg"><path d="M7.5 14.167h5m-5-2.5h5M15.833 7.5h-3.667c-.466 0-.7 0-.878-.09a.833.833 0 0 1-.364-.365c-.09-.178-.09-.412-.09-.878V2.5m5 12.333V8.045c0-.386 0-.58-.042-.762a1.666 1.666 0 0 0-.181-.462c-.094-.163-.225-.304-.488-.588l-2.665-2.878c-.291-.315-.437-.473-.61-.585a1.669 1.669 0 0 0-.502-.22c-.2-.05-.415-.05-.844-.05H6.833c-.933 0-1.4 0-1.757.182-.313.16-.568.414-.728.728-.181.357-.181.823-.181 1.757v9.666c0 .934 0 1.4.181 1.757.16.314.415.569.728.728.357.182.824.182 1.757.182h6.334c.933 0 1.4 0 1.756-.182.314-.16.569-.414.729-.728.181-.357.181-.823.181-1.757Z" stroke="#8C8D92" stroke-width="2" stroke-linecap="round" stroke-linejoin="round"/></svg>