<svg width="20" height="20" fill="none" xmlns="http://www.w3.org/2000/svg"><path d="m3.333 5 6.857 5 6.477-5m.833 1.833v6.334c0 .933 0 1.4-.181 1.756a1.67 1.67 0 0 1-.73.729c-.356.181-.822.181-1.755.181H5.167c-.934 0-1.4 0-1.757-.181a1.666 1.666 0 0 1-.728-.729C2.5 14.567 2.5 14.1 2.5 13.167V6.833c0-.933 0-1.4.182-1.756.16-.314.414-.569.728-.729.356-.181.823-.181 1.757-.181h9.666c.934 0 1.4 0 1.757.181.313.16.569.415.729.729.181.356.181.823.181 1.756Z" stroke="#8C8D92" stroke-width="2" stroke-linecap="round" stroke-linejoin="round"/></svg>