<svg width="177" height="74" fill="none" xmlns="http://www.w3.org/2000/svg"><path opacity=".1" fill-rule="evenodd" clip-rule="evenodd" d="M4.084 72a2 2 0 1 1-4 0 2 2 0 0 1 4 0Zm-2-12a2 2 0 1 0 0-4 2 2 0 0 0 0 4Zm0-42a2 2 0 1 0 0-4 2 2 0 0 0 0 4Zm24-16a2 2 0 1 1-4 0 2 2 0 0 1 4 0Zm11 0a2 2 0 1 1-4 0 2 2 0 0 1 4 0Zm-22 14a2 2 0 1 1-4 0 2 2 0 0 1 4 0Zm9 2a2 2 0 1 0 0-4 2 2 0 0 0 0 4Zm13-2a2 2 0 1 1-4 0 2 2 0 0 1 4 0Zm-35 16a2 2 0 1 0 0-4 2 2 0 0 0 0 4Zm13-2a2 2 0 1 1-4 0 2 2 0 0 1 4 0Zm9 2a2 2 0 1 0 0-4 2 2 0 0 0 0 4Zm13-2a2 2 0 1 1-4 0 2 2 0 0 1 4 0Zm-35 16a2 2 0 1 0 0-4 2 2 0 0 0 0 4Zm13-2a2 2 0 1 1-4 0 2 2 0 0 1 4 0Zm9 2a2 2 0 1 0 0-4 2 2 0 0 0 0 4Zm13-2a2 2 0 1 1-4 0 2 2 0 0 1 4 0Zm-22 14a2 2 0 1 1-4 0 2 2 0 0 1 4 0Zm-2 16a2 2 0 1 0 0-4 2 2 0 0 0 0 4Zm11-14a2 2 0 1 0 0-4 2 2 0 0 0 0 4Zm2 12a2 2 0 1 1-4 0 2 2 0 0 1 4 0Zm11-14a2 2 0 1 1-4 0 2 2 0 0 1 4 0Zm-2 16a2 2 0 1 0 0-4 2 2 0 0 0 0 4Zm-22-70a2 2 0 1 0 0-4 2 2 0 0 0 0 4Zm-9-2a2 2 0 1 1-4 0 2 2 0 0 1 4 0Zm43 70a2 2 0 1 1-4 0 2 2 0 0 1 4 0Zm-2-12a2 2 0 1 0 0-4 2 2 0 0 0 0 4Zm0-42a2 2 0 1 0 0-4 2 2 0 0 0 0 4Zm24-16a2 2 0 1 1-4 0 2 2 0 0 1 4 0Zm11 0a2 2 0 1 1-4 0 2 2 0 0 1 4 0Zm-22 14a2 2 0 1 1-4 0 2 2 0 0 1 4 0Zm9 2a2 2 0 1 0 0-4 2 2 0 0 0 0 4Zm13-2a2 2 0 1 1-4 0 2 2 0 0 1 4 0Zm-35 16a2 2 0 1 0 0-4 2 2 0 0 0 0 4Zm13-2a2 2 0 1 1-4 0 2 2 0 0 1 4 0Zm9 2a2 2 0 1 0 0-4 2 2 0 0 0 0 4Zm13-2a2 2 0 1 1-4 0 2 2 0 0 1 4 0Zm-35 16a2 2 0 1 0 0-4 2 2 0 0 0 0 4Zm13-2a2 2 0 1 1-4 0 2 2 0 0 1 4 0Zm9 2a2 2 0 1 0 0-4 2 2 0 0 0 0 4Zm13-2a2 2 0 1 1-4 0 2 2 0 0 1 4 0Zm-22 14a2 2 0 1 1-4 0 2 2 0 0 1 4 0Zm-2 16a2 2 0 1 0 0-4 2 2 0 0 0 0 4Zm11-14a2 2 0 1 0 0-4 2 2 0 0 0 0 4Zm2 12a2 2 0 1 1-4 0 2 2 0 0 1 4 0Zm11-14a2 2 0 1 1-4 0 2 2 0 0 1 4 0Zm-2 16a2 2 0 1 0 0-4 2 2 0 0 0 0 4Zm-22-70a2 2 0 1 0 0-4 2 2 0 0 0 0 4Zm-9-2a2 2 0 1 1-4 0 2 2 0 0 1 4 0Zm41 72a2 2 0 1 0 0-4 2 2 0 0 0 0 4Zm2-16a2 2 0 1 1-4 0 2 2 0 0 1 4 0Zm0-42a2 2 0 1 1-4 0 2 2 0 0 1 4 0Zm20-12a2 2 0 1 0 0-4 2 2 0 0 0 0 4Zm11 0a2 2 0 1 0 0-4 2 2 0 0 0 0 4Zm-22 14a2 2 0 1 0 0-4 2 2 0 0 0 0 4Zm13-2a2 2 0 1 1-4 0 2 2 0 0 1 4 0Zm9 2a2 2 0 1 0 0-4 2 2 0 0 0 0 4Zm-31 12a2 2 0 1 1-4 0 2 2 0 0 1 4 0Zm9 2a2 2 0 1 0 0-4 2 2 0 0 0 0 4Zm13-2a2 2 0 1 1-4 0 2 2 0 0 1 4 0Zm9 2a2 2 0 1 0 0-4 2 2 0 0 0 0 4Zm-31 12a2 2 0 1 1-4 0 2 2 0 0 1 4 0Zm9 2a2 2 0 1 0 0-4 2 2 0 0 0 0 4Zm13-2a2 2 0 1 1-4 0 2 2 0 0 1 4 0Zm9 2a2 2 0 1 0 0-4 2 2 0 0 0 0 4Zm-22 14a2 2 0 1 0 0-4 2 2 0 0 0 0 4Zm2 12a2 2 0 1 1-4 0 2 2 0 0 1 4 0Zm11-14a2 2 0 1 1-4 0 2 2 0 0 1 4 0Zm-2 16a2 2 0 1 0 0-4 2 2 0 0 0 0 4Zm11-14a2 2 0 1 0 0-4 2 2 0 0 0 0 4Zm2 12a2 2 0 1 1-4 0 2 2 0 0 1 4 0Zm-22-70a2 2 0 1 1-4 0 2 2 0 0 1 4 0Zm-13 2a2 2 0 1 0 0-4 2 2 0 0 0 0 4Zm45 68a2 2 0 1 1-4 0 2 2 0 0 1 4 0Zm-2-12a2 2 0 1 0 0-4 2 2 0 0 0 0 4Zm0-42a2 2 0 1 0 0-4 2 2 0 0 0 0 4Zm24-16a2 2 0 1 1-4 0 2 2 0 0 1 4 0Zm11 0a2 2 0 1 1-4 0 2 2 0 0 1 4 0Zm-22 14a2 2 0 1 1-4 0 2 2 0 0 1 4 0Zm9 2a2 2 0 1 0 0-4 2 2 0 0 0 0 4Zm13-2a2 2 0 1 1-4 0 2 2 0 0 1 4 0Zm-35 16a2 2 0 1 0 0-4 2 2 0 0 0 0 4Zm13-2a2 2 0 1 1-4 0 2 2 0 0 1 4 0Zm9 2a2 2 0 1 0 0-4 2 2 0 0 0 0 4Zm13-2a2 2 0 1 1-4 0 2 2 0 0 1 4 0Zm-35 16a2 2 0 1 0 0-4 2 2 0 0 0 0 4Zm13-2a2 2 0 1 1-4 0 2 2 0 0 1 4 0Zm9 2a2 2 0 1 0 0-4 2 2 0 0 0 0 4Zm13-2a2 2 0 1 1-4 0 2 2 0 0 1 4 0Zm-22 14a2 2 0 1 1-4 0 2 2 0 0 1 4 0Zm-2 16a2 2 0 1 0 0-4 2 2 0 0 0 0 4Zm11-14a2 2 0 1 0 0-4 2 2 0 0 0 0 4Zm2 12a2 2 0 1 1-4 0 2 2 0 0 1 4 0Zm11-14a2 2 0 1 1-4 0 2 2 0 0 1 4 0Zm-2 16a2 2 0 1 0 0-4 2 2 0 0 0 0 4Zm-22-70a2 2 0 1 0 0-4 2 2 0 0 0 0 4Zm-9-2a2 2 0 1 1-4 0 2 2 0 0 1 4 0Zm41 72a2 2 0 1 0 0-4 2 2 0 0 0 0 4Zm2-16a2 2 0 1 1-4 0 2 2 0 0 1 4 0Zm0-42a2 2 0 1 1-4 0 2 2 0 0 1 4 0Zm0 14a2 2 0 1 1-4 0 2 2 0 0 1 4 0Zm0 14a2 2 0 1 1-4 0 2 2 0 0 1 4 0Zm-2-40a2 2 0 1 0 0-4 2 2 0 0 0 0 4Z" fill="#1860FD"/></svg>