<svg width="74" height="37" fill="none" xmlns="http://www.w3.org/2000/svg"><path opacity=".1" fill-rule="evenodd" clip-rule="evenodd" d="M72 33a2 2 0 1 1 0 4 2 2 0 0 1 0-4Zm-12 2a2 2 0 1 0-4 0 2 2 0 0 0 4 0Zm-42 0a2 2 0 1 0-4 0 2 2 0 0 0 4 0ZM2 11a2 2 0 1 1 0 4 2 2 0 0 1 0-4ZM2 0a2 2 0 1 1 0 4 2 2 0 0 1 0-4Zm14 22a2 2 0 1 1 0 4 2 2 0 0 1 0-4Zm2-9a2 2 0 1 0-4 0 2 2 0 0 0 4 0ZM16 0a2 2 0 1 1 0 4 2 2 0 0 1 0-4Zm16 35a2 2 0 1 0-4 0 2 2 0 0 0 4 0Zm-2-13a2 2 0 1 1 0 4 2 2 0 0 1 0-4Zm2-9a2 2 0 1 0-4 0 2 2 0 0 0 4 0ZM30 0a2 2 0 1 1 0 4 2 2 0 0 1 0-4Zm16 35a2 2 0 1 0-4 0 2 2 0 0 0 4 0Zm-2-13a2 2 0 1 1 0 4 2 2 0 0 1 0-4Zm2-9a2 2 0 1 0-4 0 2 2 0 0 0 4 0ZM44 0a2 2 0 1 1 0 4 2 2 0 0 1 0-4Zm14 22a2 2 0 1 1 0 4 2 2 0 0 1 0-4Zm16 2a2 2 0 1 0-4 0 2 2 0 0 0 4 0ZM60 13a2 2 0 1 0-4 0 2 2 0 0 0 4 0Zm12-2a2 2 0 1 1 0 4 2 2 0 0 1 0-4ZM58 0a2 2 0 1 1 0 4 2 2 0 0 1 0-4Zm16 2a2 2 0 1 0-4 0 2 2 0 0 0 4 0ZM4 24a2 2 0 1 0-4 0 2 2 0 0 0 4 0Zm-2 9a2 2 0 1 1 0 4 2 2 0 0 1 0-4Z" fill="#1860FD"/></svg>