<svg width="83" height="146" fill="none" xmlns="http://www.w3.org/2000/svg"><path opacity=".1" fill-rule="evenodd" clip-rule="evenodd" d="M2 46a2 2 0 1 0 0-4 2 2 0 0 0 0 4Zm2-16a2 2 0 1 1-4 0 2 2 0 0 1 4 0ZM2 18a2 2 0 1 0 0-4 2 2 0 0 0 0 4ZM2 4a2 2 0 1 0 0-4 2 2 0 0 0 0 4Zm13-2a2 2 0 1 1-4 0 2 2 0 0 1 4 0Zm9 2a2 2 0 1 0 0-4 2 2 0 0 0 0 4Zm13-2a2 2 0 1 1-4 0 2 2 0 0 1 4 0ZM15 16a2 2 0 1 1-4 0 2 2 0 0 1 4 0Zm-2 16a2 2 0 1 0 0-4 2 2 0 0 0 0 4Zm2 12a2 2 0 1 1-4 0 2 2 0 0 1 4 0Zm9-26a2 2 0 1 0 0-4 2 2 0 0 0 0 4Zm2 12a2 2 0 1 1-4 0 2 2 0 0 1 4 0Zm-2 16a2 2 0 1 0 0-4 2 2 0 0 0 0 4Zm13-30a2 2 0 1 1-4 0 2 2 0 0 1 4 0Zm-2 16a2 2 0 1 0 0-4 2 2 0 0 0 0 4Zm2 12a2 2 0 1 1-4 0 2 2 0 0 1 4 0ZM4 144a2 2 0 1 1-4 0 2 2 0 0 1 4 0Zm-2-12a2 2 0 1 0 0-4 2 2 0 0 0 0 4Zm2-16a2 2 0 1 1-4 0 2 2 0 0 1 4 0Zm0-42a2 2 0 1 1-4 0 2 2 0 0 1 4 0Zm20-12a2 2 0 1 0 0-4 2 2 0 0 0 0 4Zm11 0a2 2 0 1 0 0-4 2 2 0 0 0 0 4ZM13 76a2 2 0 1 0 0-4 2 2 0 0 0 0 4Zm13-2a2 2 0 1 1-4 0 2 2 0 0 1 4 0Zm9 2a2 2 0 1 0 0-4 2 2 0 0 0 0 4ZM4 88a2 2 0 1 1-4 0 2 2 0 0 1 4 0Zm9 2a2 2 0 1 0 0-4 2 2 0 0 0 0 4Zm13-2a2 2 0 1 1-4 0 2 2 0 0 1 4 0Zm9 2a2 2 0 1 0 0-4 2 2 0 0 0 0 4ZM4 102a2 2 0 1 1-4 0 2 2 0 0 1 4 0Zm9 2a2 2 0 1 0 0-4 2 2 0 0 0 0 4Zm13-2a2 2 0 1 1-4 0 2 2 0 0 1 4 0Zm9 2a2 2 0 1 0 0-4 2 2 0 0 0 0 4Zm-22 14a2 2 0 1 0 0-4 2 2 0 0 0 0 4Zm2 12a2 2 0 1 1-4 0 2 2 0 0 1 4 0Zm-2 16a2 2 0 1 0 0-4 2 2 0 0 0 0 4Zm13-30a2 2 0 1 1-4 0 2 2 0 0 1 4 0Zm-2 16a2 2 0 1 0 0-4 2 2 0 0 0 0 4Zm2 12a2 2 0 1 1-4 0 2 2 0 0 1 4 0Zm9-26a2 2 0 1 0 0-4 2 2 0 0 0 0 4Zm2 12a2 2 0 1 1-4 0 2 2 0 0 1 4 0Zm-2 16a2 2 0 1 0 0-4 2 2 0 0 0 0 4ZM15 60a2 2 0 1 1-4 0 2 2 0 0 1 4 0ZM2 62a2 2 0 1 0 0-4 2 2 0 0 0 0 4Zm48 82a2 2 0 1 1-4 0 2 2 0 0 1 4 0Zm-2-12a2 2 0 1 0 0-4 2 2 0 0 0 0 4Zm2-16a2 2 0 1 1-4 0 2 2 0 0 1 4 0Zm0-42a2 2 0 1 1-4 0 2 2 0 0 1 4 0Zm20-12a2 2 0 1 0 0-4 2 2 0 0 0 0 4Zm11 0a2 2 0 1 0 0-4 2 2 0 0 0 0 4ZM59 76a2 2 0 1 0 0-4 2 2 0 0 0 0 4Zm13-2a2 2 0 1 1-4 0 2 2 0 0 1 4 0Zm9 2a2 2 0 1 0 0-4 2 2 0 0 0 0 4ZM50 88a2 2 0 1 1-4 0 2 2 0 0 1 4 0Zm9 2a2 2 0 1 0 0-4 2 2 0 0 0 0 4Zm13-2a2 2 0 1 1-4 0 2 2 0 0 1 4 0Zm9 2a2 2 0 1 0 0-4 2 2 0 0 0 0 4Zm-31 12a2 2 0 1 1-4 0 2 2 0 0 1 4 0Zm9 2a2 2 0 1 0 0-4 2 2 0 0 0 0 4Zm13-2a2 2 0 1 1-4 0 2 2 0 0 1 4 0Zm9 2a2 2 0 1 0 0-4 2 2 0 0 0 0 4Zm-22 14a2 2 0 1 0 0-4 2 2 0 0 0 0 4Zm2 12a2 2 0 1 1-4 0 2 2 0 0 1 4 0Zm-2 16a2 2 0 1 0 0-4 2 2 0 0 0 0 4Zm13-30a2 2 0 1 1-4 0 2 2 0 0 1 4 0Zm-2 16a2 2 0 1 0 0-4 2 2 0 0 0 0 4Zm2 12a2 2 0 1 1-4 0 2 2 0 0 1 4 0Zm9-26a2 2 0 1 0 0-4 2 2 0 0 0 0 4Zm2 12a2 2 0 1 1-4 0 2 2 0 0 1 4 0Zm-2 16a2 2 0 1 0 0-4 2 2 0 0 0 0 4ZM61 60a2 2 0 1 1-4 0 2 2 0 0 1 4 0Zm-13 2a2 2 0 1 0 0-4 2 2 0 0 0 0 4Zm2-18a2 2 0 1 1-4 0 2 2 0 0 1 4 0Zm-2-12a2 2 0 1 0 0-4 2 2 0 0 0 0 4Zm2-16a2 2 0 1 1-4 0 2 2 0 0 1 4 0Zm0-14a2 2 0 1 1-4 0 2 2 0 0 1 4 0Zm9 2a2 2 0 1 0 0-4 2 2 0 0 0 0 4Zm13-2a2 2 0 1 1-4 0 2 2 0 0 1 4 0Zm9 2a2 2 0 1 0 0-4 2 2 0 0 0 0 4ZM59 18a2 2 0 1 0 0-4 2 2 0 0 0 0 4Zm2 12a2 2 0 1 1-4 0 2 2 0 0 1 4 0Zm-2 16a2 2 0 1 0 0-4 2 2 0 0 0 0 4Zm13-30a2 2 0 1 1-4 0 2 2 0 0 1 4 0Zm-2 16a2 2 0 1 0 0-4 2 2 0 0 0 0 4Zm2 12a2 2 0 1 1-4 0 2 2 0 0 1 4 0Zm9-26a2 2 0 1 0 0-4 2 2 0 0 0 0 4Zm2 12a2 2 0 1 1-4 0 2 2 0 0 1 4 0Zm-2 16a2 2 0 1 0 0-4 2 2 0 0 0 0 4Z" fill="#1860FD"/></svg>