<svg width="83" height="46" fill="none" xmlns="http://www.w3.org/2000/svg"><path opacity=".1" fill-rule="evenodd" clip-rule="evenodd" d="M4 2a2 2 0 1 0-4 0 2 2 0 0 0 4 0ZM2 14a2 2 0 1 1 0 4 2 2 0 0 1 0-4Zm2 16a2 2 0 1 0-4 0 2 2 0 0 0 4 0Zm0 14a2 2 0 1 0-4 0 2 2 0 0 0 4 0Zm9-2a2 2 0 1 1 0 4 2 2 0 0 1 0-4Zm13 2a2 2 0 1 0-4 0 2 2 0 0 0 4 0Zm9-2a2 2 0 1 1 0 4 2 2 0 0 1 0-4ZM13 28a2 2 0 1 1 0 4 2 2 0 0 1 0-4Zm2-12a2 2 0 1 0-4 0 2 2 0 0 0 4 0ZM13 0a2 2 0 1 1 0 4 2 2 0 0 1 0-4Zm13 30a2 2 0 1 0-4 0 2 2 0 0 0 4 0Zm-2-16a2 2 0 1 1 0 4 2 2 0 0 1 0-4Zm2-12a2 2 0 1 0-4 0 2 2 0 0 0 4 0Zm9 26a2 2 0 1 1 0 4 2 2 0 0 1 0-4Zm2-12a2 2 0 1 0-4 0 2 2 0 0 0 4 0ZM35 0a2 2 0 1 1 0 4 2 2 0 0 1 0-4Zm15 2a2 2 0 1 0-4 0 2 2 0 0 0 4 0Zm-2 12a2 2 0 1 1 0 4 2 2 0 0 1 0-4Zm2 16a2 2 0 1 0-4 0 2 2 0 0 0 4 0Zm0 14a2 2 0 1 0-4 0 2 2 0 0 0 4 0Zm9-2a2 2 0 1 1 0 4 2 2 0 0 1 0-4Zm13 2a2 2 0 1 0-4 0 2 2 0 0 0 4 0Zm9-2a2 2 0 1 1 0 4 2 2 0 0 1 0-4ZM59 28a2 2 0 1 1 0 4 2 2 0 0 1 0-4Zm2-12a2 2 0 1 0-4 0 2 2 0 0 0 4 0ZM59 0a2 2 0 1 1 0 4 2 2 0 0 1 0-4Zm13 30a2 2 0 1 0-4 0 2 2 0 0 0 4 0Zm-2-16a2 2 0 1 1 0 4 2 2 0 0 1 0-4Zm2-12a2 2 0 1 0-4 0 2 2 0 0 0 4 0Zm9 26a2 2 0 1 1 0 4 2 2 0 0 1 0-4Zm2-12a2 2 0 1 0-4 0 2 2 0 0 0 4 0ZM81 0a2 2 0 1 1 0 4 2 2 0 0 1 0-4Z" fill="#1860FD"/></svg>