<svg width="60" height="43" fill="none" xmlns="http://www.w3.org/2000/svg"><path opacity=".1" fill-rule="evenodd" clip-rule="evenodd" d="M2 4a2 2 0 1 0 0-4 2 2 0 0 0 0 4Zm0 13a2 2 0 1 0 0-4 2 2 0 0 0 0 4Zm2 11a2 2 0 1 1-4 0 2 2 0 0 1 4 0ZM2 43a2 2 0 1 0 0-4 2 2 0 0 0 0 4ZM18 2a2 2 0 1 1-4 0 2 2 0 0 1 4 0Zm-2 15a2 2 0 1 0 0-4 2 2 0 0 0 0 4Zm2 11a2 2 0 1 1-4 0 2 2 0 0 1 4 0Zm-2 15a2 2 0 1 0 0-4 2 2 0 0 0 0 4ZM32 2a2 2 0 1 1-4 0 2 2 0 0 1 4 0Zm-2 15a2 2 0 1 0 0-4 2 2 0 0 0 0 4Zm2 11a2 2 0 1 1-4 0 2 2 0 0 1 4 0Zm-2 15a2 2 0 1 0 0-4 2 2 0 0 0 0 4ZM46 2a2 2 0 1 1-4 0 2 2 0 0 1 4 0Zm-2 15a2 2 0 1 0 0-4 2 2 0 0 0 0 4Zm2 11a2 2 0 1 1-4 0 2 2 0 0 1 4 0Zm-2 15a2 2 0 1 0 0-4 2 2 0 0 0 0 4ZM60 2a2 2 0 1 1-4 0 2 2 0 0 1 4 0Zm-2 15a2 2 0 1 0 0-4 2 2 0 0 0 0 4Zm2 11a2 2 0 1 1-4 0 2 2 0 0 1 4 0Zm-2 15a2 2 0 1 0 0-4 2 2 0 0 0 0 4Z" fill="#1EA6F9"/></svg>