<svg width="218" height="235" fill="none" xmlns="http://www.w3.org/2000/svg"><path d="M197 224.135h-51.108l-16.107-19.268c-5.163 4.351-9.603 7.77-13.32 10.256-3.717 2.279-9.602 4.662-17.655 7.148C90.963 224.757 82.29 226 72.79 226c-23.953 0-42.125-5.905-54.515-17.714C6.092 196.477 0 180.006 0 158.873c0-21.961 13.216-41.747 39.648-59.358-14.662-16.782-21.992-32.424-21.992-46.927 0-15.331 5.265-27.762 15.797-37.292C43.984 5.766 58.336 1 76.508 1c17.14 0 30.768 4.869 40.887 14.606 10.325 9.738 15.487 22.273 15.487 37.604 0 14.71-7.537 27.555-22.612 38.536l-15.797 11.498 37.17 44.13c6.815-9.116 10.532-22.065 11.151-38.846h38.099c-1.652 30.041-9.499 52.935-23.541 68.681L197 224.135Zm-91.686-47.859L61.33 124.377c-7.64 5.387-13.319 10.566-17.036 15.539-3.51 4.972-5.266 11.084-5.266 18.335 0 9.116 3.201 16.575 9.602 22.376 6.402 5.801 14.352 8.702 23.851 8.702 11.977 0 22.922-4.351 32.833-13.053ZM94.783 53.521c0-5.18-1.652-9.427-4.956-12.742-3.304-3.522-7.744-5.283-13.32-5.283-5.781 0-10.324 1.657-13.628 4.972-3.098 3.315-4.646 7.666-4.646 13.053 0 2.486.723 5.283 2.168 8.39 1.652 3.108 3.2 5.698 4.646 7.77 1.652 1.865 4.233 4.765 7.744 8.702l9.292-6.216c8.467-6.008 12.7-12.224 12.7-18.646Z" fill="#1EA6F9"/><path d="M207 230.635h5.385l-3.475-4.113-38.268-45.294c13.646-16.237 21.132-39.197 22.747-68.563l.145-2.637h-43.149l-.089 2.407c-.55 14.887-3.573 26.42-8.855 34.818l-33.327-39.567 13.628-9.919c15.529-11.312 23.64-24.837 23.64-40.557 0-15.954-5.4-29.164-16.263-39.414C118.437 7.522 104.138 2.5 86.508 2.5c-18.613 0-33.624 4.89-44.733 14.942-11.1 10.045-16.62 23.172-16.62 39.146 0 14.714 7.117 30.207 20.773 46.43C20.658 120.493 7.5 140.423 7.5 162.873c0 21.633 6.252 38.818 19.035 51.208l.008.007.007.008C39.564 226.499 58.453 232.5 82.79 232.5c9.714 0 18.643-1.271 26.766-3.843 8.1-2.501 14.226-4.956 18.216-7.403l.042-.026.041-.027c3.342-2.235 7.216-5.179 11.614-8.813l14.504 17.351.75.896H207ZM98.004 46.489l.026.028.026.027c2.785 2.794 4.227 6.381 4.227 10.977 0 5.206-3.42 10.762-11.618 16.588l-7.456 4.986a3531.572 3531.572 0 0 1-6.193-6.962c-1.34-1.933-2.799-4.372-4.376-7.335-1.327-2.87-1.907-5.28-1.907-7.277 0-4.862 1.377-8.552 3.945-11.316 2.728-2.72 6.565-4.21 11.83-4.21 5.001 0 8.739 1.555 11.496 4.494Zm-41.687 98.896c3.207-4.282 8.041-8.831 14.598-13.631l40.873 48.227c-8.99 7.279-18.74 10.848-29.307 10.848-8.945 0-16.277-2.713-22.172-8.054-5.846-5.299-8.78-12.069-8.78-20.524 0-6.822 1.641-12.396 4.788-16.866Z" stroke="#1E1E1E" stroke-width="5"/></svg>