<svg width="563" height="297" fill="none" xmlns="http://www.w3.org/2000/svg"><g clip-path="url(#a)"><g opacity=".63"><path d="M437.354 129.745h-97.69l-25.071 25.279H184.916l-25.071-25.279h-80.4" stroke="#107DFF" stroke-width=".198" stroke-miterlimit="10"/><path d="M75.987 129.745c0-1.743 1.73-3.487 3.458-3.487 1.73 0 3.458 1.744 3.458 3.487 0 1.744-1.729 3.487-3.458 3.487s-3.458-1.743-3.458-3.487Zm34.581 82.81c0-1.743 1.729-3.487 3.458-3.487s3.458 1.744 3.458 3.487-1.729 3.487-3.458 3.487c-2.593 0-3.458-1.744-3.458-3.487Zm.865-89.783c-2.865 0-5.188-2.342-5.188-5.231 0-2.888 2.323-5.23 5.188-5.23 2.864 0 5.187 2.342 5.187 5.23 0 2.889-2.323 5.231-5.187 5.231Zm-37.175 35.739c0-2.615 2.594-5.23 5.187-5.23 2.594 0 5.187 2.615 5.187 5.23s-2.593 5.23-5.187 5.23c-2.593 0-5.187-2.615-5.187-5.23Zm11.239 28.765c0-2.615 1.729-4.358 4.323-4.358 2.593 0 4.322 1.743 4.322 4.358 0 2.615-1.729 4.359-4.322 4.359-2.594 0-4.323-1.744-4.323-4.359Zm49.278-6.973c-2.388 0-4.323-1.952-4.323-4.359s1.935-4.358 4.323-4.358c2.387 0 4.322 1.951 4.322 4.358 0 2.407-1.935 4.359-4.322 4.359Zm-46.684 57.531c0-1.743 1.73-3.487 3.458-3.487 1.73 0 3.458 1.744 3.458 3.487s-1.729 3.487-3.458 3.487c-2.593 0-3.458-1.744-3.458-3.487Z" fill="#1073EB"/><path d="M440.813 139.334H286.929l-47.548 47.942H89.82" stroke="#3382E2" stroke-width=".099" stroke-miterlimit="10"/><path d="M434.762 161.997H254.943l-27.665-27.893h-19.019l-68.297 78.451h-28.529" stroke="#3382E2" stroke-width=".099" stroke-miterlimit="10"/><path d="M434.762 151.537H303.355l-23.341 24.407H134.775m299.987 5.23H299.033l-63.974 56.66H91.549" stroke="#107DFF" stroke-width=".198" stroke-miterlimit="10"/><path d="M412.284 105.338H239.381l-11.239 12.203H111.433m276.645.001H248.891l-29.393 30.509h-75.213l-10.374 10.46H79.446" stroke="#3382E2" stroke-width=".099" stroke-miterlimit="10"/></g><g opacity=".63"><path d="M372.516 32.116H243.703l-25.071 25.279h-98.554L95.007 32.116H44.865" stroke="#107DFF" stroke-width=".198" stroke-miterlimit="10"/><path d="M44.865 39.961c-4.297 0-7.78-3.512-7.78-7.845 0-4.332 3.483-7.845 7.78-7.845 4.297 0 7.78 3.512 7.78 7.845s-3.483 7.845-7.78 7.845ZM24.98 116.67a1.737 1.737 0 0 1-1.728-1.744c0-.962.774-1.743 1.729-1.743.955 0 1.729.781 1.729 1.743 0 .963-.774 1.744-1.73 1.744Zm.001-22.664c-2.387 0-4.322-1.951-4.322-4.359 0-2.407 1.935-4.358 4.322-4.358s4.323 1.951 4.323 4.358c0 2.407-1.936 4.359-4.323 4.359Zm40.633-15.69c0-2.615 1.729-4.359 4.322-4.359 2.594 0 4.323 1.744 4.323 4.359s-1.73 4.358-4.323 4.358c-2.593 0-4.322-1.743-4.322-4.358ZM22.388 137.59c0-1.743 1.729-3.487 3.458-3.487s3.458 1.744 3.458 3.487-1.73 3.487-3.458 3.487c-1.73 0-3.458-1.744-3.458-3.487Z" fill="#1073EB"/><path d="M375.109 41.705H197.884l-47.548 47.942H24.981" stroke="#3382E2" stroke-width=".099" stroke-miterlimit="10"/><path d="M369.923 64.369H260.129l-27.664-27.894h-97.69l-77.806 78.451H24.98" stroke="#3382E2" stroke-width=".099" stroke-miterlimit="10"/><path d="M369.923 53.908H238.517L214.31 78.316H69.936" stroke="#107DFF" stroke-width=".198" stroke-miterlimit="10"/><path d="M369.923 83.546H233.33l-42.362 42.712H170.22l-52.735-52.3H89.82L25.846 137.59" stroke="#107DFF" stroke-width=".198" stroke-miterlimit="10"/></g><path d="M286.929 8.58c0-1.743 1.729-2.614 3.458-2.614s2.593 1.743 2.593 3.487c0 1.743-1.729 2.615-3.458 2.615-.864-.872-2.593-1.744-2.593-3.487Zm8.645 208.334c0-1.744.865-2.616 2.594-2.616 1.729 0 2.593.872 2.593 2.616 0 1.743-.864 2.615-2.593 2.615-.865.871-2.594-.872-2.594-2.615Zm31.122-152.545c0-1.744.865-2.615 2.594-2.615 1.729 0 2.593.871 2.593 2.615 0 1.743-.864 2.615-2.593 2.615-.865 0-2.594-1.744-2.594-2.615Zm-46.684 115.934c-2.387 0-4.322-1.951-4.322-4.359 0-2.407 1.935-4.358 4.322-4.358 2.388 0 4.323 1.951 4.323 4.358 0 2.408-1.935 4.359-4.323 4.359ZM181.458 57.395c0-1.743.864-2.615 2.593-2.615 1.73 0 2.594.872 2.594 2.615 0 1.744-.864 2.615-2.594 2.615-1.729 0-2.593-.871-2.593-2.615Zm155.613 55.788c0-1.743.864-2.615 2.593-2.615s2.594.872 2.594 2.615c0 1.743-.865 2.615-2.594 2.615-.864 0-2.593-.872-2.593-2.615ZM232.465 82.674c0-1.743.864-2.615 2.593-2.615s2.594.872 2.594 2.615c0 1.743-.865 2.615-2.594 2.615-1.729.872-2.593-.872-2.593-2.615Zm-20.749 104.602c0-1.743.865-2.615 2.594-2.615 1.729 0 2.593.872 2.593 2.615 0 1.743-.864 2.615-2.593 2.615s-2.594-.872-2.594-2.615Zm102.013 7.845c0-1.743.864-2.615 2.593-2.615 1.73 0 2.594.872 2.594 2.615 0 1.744-.864 2.615-2.594 2.615-1.729 0-2.593-1.743-2.593-2.615Zm-51.006-81.938c-3.342 0-6.052-2.732-6.052-6.102s2.71-6.102 6.052-6.102c3.342 0 6.051 2.732 6.051 6.102s-2.709 6.102-6.051 6.102Zm-87.317 115.934c-3.342 0-6.051-2.732-6.051-6.102s2.709-6.101 6.051-6.101c3.343 0 6.052 2.731 6.052 6.101s-2.709 6.102-6.052 6.102ZM45.73 195.121c0-2.615 1.729-4.358 4.322-4.358 2.594 0 4.323 1.743 4.323 4.358 0 2.616-1.729 4.359-4.323 4.359-1.729-.872-4.322-2.615-4.322-4.359Z" opacity=".63" fill="#1073EB"/><path d="M446.433 22.05s-24.643-3.446-70.506-4.136c-4.792 0-7.53 4.825-5.476 8.96l1.369 2.069c1.369 2.067.684 3.446 0 4.824l-17.798 20.678c-6.845 7.582-6.845 18.61-1.369 26.881l15.06 20.678c2.738 4.136 2.738 9.65 0 13.785-.685.69-1.369 1.379-1.369 2.068h54.077c11.637 0 21.905-6.892 24.643-17.231l15.06-61.345c2.053-10.338-3.423-15.853-13.691-17.231Z" fill="#6190FE"/><path d="m454.912 24.445 1.375-7.657s9.628-4.872 28.197-1.392c15.818 3.48 26.134 11.833 26.134 11.833l.688 7.657-56.394-10.441Z" fill="#292A2D" stroke="#0030C9" stroke-width=".04"/><path d="M522.763 287.231c-2.048-3.437-47.783-158.799-76.453-170.485 0 0-8.191-31.622-16.383-30.935-1.365 8.25-4.778 15.811-8.874 20.623-1.365 2.063-8.191 8.25-16.382 8.25H367.81c-8.192 10.311-23.209 30.934-34.131 53.62-6.143 13.061 3.413 28.185 17.748 28.185 0 0 51.879-.688 55.292 0 3.413.687 6.826 1.375 16.382.687 4.096 0 10.922-2.749 17.748-2.749 9.557.687 23.209 8.936 24.574 13.748 6.144 16.499 25.257 70.807 38.227 86.618 1.365 1.375 4.095-2.063 12.287-2.75 6.143-.687 12.287-1.375 12.287-2.062 0 2.062-2.731 1.375-5.461-2.75Z" fill="#292A2D"/><path d="M435.442 57.522c5.48-24.76 6.165-26.823 13.015-31.638 6.85-4.814 41.786 4.127 69.187 10.317 27.401 46.08 43.841 141.679 45.211 159.561.685 18.57-.685 66.714-12.33 82.532-12.331 16.507-21.236 15.819-26.716 11.004-5.48-4.814-10.275-35.076-30.826-82.531-20.55-47.456-32.881-60.524-39.046-70.152-6.165-8.941-20.55-20.633-24.66-36.452-2.055-6.19.685-18.57 6.165-42.641Z" fill="#fff" stroke="#6190FE" stroke-width=".316"/><path d="M506.36 295.638c-4.962-8.171-24.099-63.328-41.11-84.438 2.127 6.81 7.088 17.705 21.264 51.071C500.689 295.638 504.233 297 506.36 297c1.417 0 2.126-1.362 2.126-1.362h-2.126Z" fill="#fff" stroke="#6190FE" stroke-width=".158"/><path d="M366.561 124.457a1.883 1.883 0 0 1-1.88-1.886c0-1.041.842-1.885 1.88-1.885 1.038 0 1.88.844 1.88 1.885a1.883 1.883 0 0 1-1.88 1.886Zm-4.23 6.6c-1.297 0-2.349-.844-2.349-1.886 0-1.041 1.052-1.885 2.349-1.885 1.298 0 2.35.844 2.35 1.885 0 1.042-1.052 1.886-2.35 1.886Z" fill="#000" stroke="#6190FE" stroke-width=".04"/><path d="M419.315 189.764c-19.63 0-35.543-16.045-35.543-35.838s15.913-35.838 35.543-35.838 35.543 16.045 35.543 35.838-15.913 35.838-35.543 35.838Z" fill="#363B42" stroke="#2F52E1" stroke-width=".039"/><path d="M419.315 175.981c-12.08 0-21.873-9.874-21.873-22.055 0-12.18 9.793-22.054 21.873-22.054 12.08 0 21.873 9.874 21.873 22.054 0 12.181-9.793 22.055-21.873 22.055Z" fill="#191919" stroke="#2F52E1" stroke-width=".79"/><path d="M419.315 169.778c-8.682 0-15.721-7.097-15.721-15.852 0-8.754 7.039-15.851 15.721-15.851 8.683 0 15.721 7.097 15.721 15.851 0 8.755-7.038 15.852-15.721 15.852Z" stroke="#2F52E1" stroke-width=".158" stroke-miterlimit="10"/><path d="M355.79 125.049c44.596-5.517 85.762 7.586 102.228-32.412 20.583-51.031-5.489-69.651-43.91-78.616-34.305-7.586-51.457 9.655-63.121 44.825-13.036 37.24-33.619 70.341 4.803 66.203Z" fill="url(#b)"/><path d="M425.297 21.37s-17.152-2.765-48.713-3.456c-5.489 0-8.92 4.837-6.175 9.674 1.372 2.763 1.372 5.527 0 7.6L356.001 51.08c-8.234 8.982-8.234 22.11-1.373 31.784l16.467 22.801c1.372 1.382 3.43 2.764 5.489 2.764h28.13c9.606 0 17.153-6.219 19.211-15.892l11.664-55.967c2.058-8.982-2.059-14.51-10.292-15.2Z" fill="#fff" stroke="#6190FE" stroke-width=".316"/><path d="m454.175 55.372 2.051-9.65c.683-2.756-.684-4.823-3.418-5.513h-.683c-2.051-.689-4.785.69-5.469 3.446l-2.05 9.65c-.684 2.067.683 4.823 3.417 5.513h.684c2.734.689 4.785-1.379 5.468-3.446Z" fill="#fff" stroke="#0030C9" stroke-width=".118"/><path d="m450.074 36.074-2.051-2.067m3.418 2.067V31.94m2.734 4.134 1.367-2.067" stroke="#161616" stroke-width=".12"/><path d="M482.883 59.507c2.734 0 7.518 0 10.253 2.757 3.417 3.446 1.367 14.473.683 17.23-.683 1.378-8.886 10.337-10.936 10.337-2.051 0-10.937-8.96-10.937-10.338-.683-2.756-2.734-14.473.684-17.23 2.734-2.756 7.519-2.756 10.253-2.756Zm0 72.365c2.734 0 7.518 0 10.253-2.757 3.417-3.446 1.367-14.473.683-17.229-.683-1.379-8.886-10.338-10.936-10.338-2.051 0-10.937 8.959-10.937 10.338-.683 2.756-2.734 14.473.684 17.229 2.734 2.757 7.519 2.757 10.253 2.757Zm35.543-35.838c0 2.757 0 7.581-2.734 10.338-3.418 3.446-14.354 1.378-17.088.689-1.367-.689-10.253-8.96-10.253-11.027 0-2.068 8.886-11.027 10.253-11.027 2.734-.69 14.354-2.757 17.088.69 3.418 2.756 2.734 7.58 2.734 10.337Zm-71.087 0c0 2.757 0 7.581 2.735 10.338 3.417 3.446 14.354 1.378 17.088.689 1.367-.689 10.253-8.96 10.253-11.027 0-2.068-8.886-11.027-10.253-11.027-2.734-.69-14.354-2.757-17.088.69-2.735 2.756-2.735 7.58-2.735 10.337Z" fill="#fff" stroke="#0030C9" stroke-width=".158"/><path d="m482.883 67.088 3.418 3.446h-6.152l2.734-3.446Zm-28.025 28.946 3.418-3.446v6.203l-3.418-2.757Zm56.733 0-3.417 2.757v-6.203l3.417 3.446Zm-28.708 28.257-2.734-3.446h6.152l-3.418 3.446Z" fill="#161616"/></g><defs><radialGradient id="b" cx="0" cy="0" r="1" gradientUnits="userSpaceOnUse" gradientTransform="matrix(-22.7202 55.26018 -38.07955 -15.6564 401.726 75.24)"><stop stop-color="#1860FD" stop-opacity=".8"/><stop offset=".436" stop-color="#1A62FD" stop-opacity=".451"/><stop offset=".69" stop-color="#2367FE" stop-opacity=".248"/><stop offset=".897" stop-color="#3170FE" stop-opacity=".082"/><stop offset="1" stop-color="#3B77FF" stop-opacity="0"/></radialGradient><clipPath id="a"><path fill="#fff" transform="matrix(-1 0 0 1 563 0)" d="M0 0h563v297H0z"/></clipPath></defs></svg>