<svg width="739" height="185" fill="none" xmlns="http://www.w3.org/2000/svg"><g opacity=".55"><path d="M342.64 35.59c-2.139 0-4.16-.242-6.061-.85-1.902-.607-3.447-1.336-4.754-2.307V28.91a17.963 17.963 0 0 0 4.516 2.672c2.02.73 4.041 1.094 6.061 1.094 2.258 0 4.16-.486 5.705-1.58 1.426-.971 2.258-2.429 2.258-4.13.119-1.579-.594-2.915-2.377-4.008a6.222 6.222 0 0 0-1.783-.85l-1.782-.608c-.119 0-.238-.121-.476-.121-.237 0-.475-.122-.832-.243a2.196 2.196 0 0 0-.95-.243 70.376 70.376 0 0 1-3.091-.972c-.832-.364-1.782-.607-2.614-1.093-.951-.486-1.664-.972-2.14-1.458-1.188-1.336-1.782-2.915-1.782-4.859 0-2.186.832-4.13 2.614-5.466 1.783-1.457 4.279-2.186 7.369-2.186 3.447 0 6.537.85 9.033 2.43v3.279c-2.853-1.822-5.824-2.794-9.033-2.794-2.258 0-3.922.486-5.229 1.336-1.189.85-1.783 2.065-1.783 3.523-.119 1.093.475 2.308 1.902 3.401.237.243.713.364 1.426.729l1.426.607 1.783.486 1.782.486c1.545.486 2.496.85 2.853.972.832.243 1.664.607 2.496 1.093.95.486 1.663.972 2.258 1.58 1.307 1.214 2.02 2.914 2.02 5.1 0 2.673-1.069 4.738-3.209 6.317-2.02 1.458-4.635 2.187-7.606 2.187Z" fill="url(#a)"/><path d="M418.109 35.106h-20.561V5.346h19.966v2.793h-16.876v9.475h13.905v3.037h-13.905v11.66h17.471v2.795Z" fill="url(#b)"/><path d="M465.529 35.106h-3.09V5.346h13.074c2.852 0 5.11.728 6.774 2.186 1.664 1.457 2.496 3.4 2.496 5.83 0 2.187-.595 3.887-1.783 5.345-1.189 1.458-2.852 2.308-5.11 2.672l9.389 13.727h-3.566l-9.151-13.362h-8.914v13.362h-.119Zm0-26.845V18.95h9.746c2.02 0 3.565-.486 4.635-1.336 1.07-.972 1.664-2.187 1.664-3.887 0-1.7-.594-3.037-1.664-4.009-1.07-.972-2.615-1.457-4.635-1.457h-9.746Z" fill="url(#c)"/><path d="M542.424 35.349h-2.852L526.736 5.345h3.328l10.934 25.63 10.934-25.63h3.328L542.424 35.35Z" fill="url(#d)"/><path d="M602.443 35.106h-3.09V5.346h3.09v29.76Z" fill="url(#e)"/><path d="M661.986 35.59c-4.279 0-7.844-1.457-10.697-4.372-2.852-2.915-4.278-6.56-4.278-11.054 0-4.494 1.426-8.138 4.278-11.054 2.853-2.915 6.418-4.373 10.697-4.373 3.209 0 5.823.73 8.2 2.187v3.28c-2.496-1.701-5.229-2.551-8.081-2.551-3.328 0-6.18 1.214-8.439 3.522-2.258 2.308-3.446 5.345-3.446 8.868 0 3.644 1.188 6.559 3.446 8.867 2.259 2.308 5.111 3.523 8.557 3.523 3.447 0 6.299-.972 8.676-3.037v3.28c-2.495 2.065-5.467 2.915-8.913 2.915Z" fill="url(#f)"/><path d="M734.959 35.106h-20.561V5.346h19.967v2.793h-16.877v9.475h13.905v3.037h-13.905v11.66h17.471v2.795Z" fill="url(#g)"/><path d="M58.061 80.695h-19.85v98.807H19.685V80.695H0V64.362h58.061v16.333Z" fill="url(#h)"/><path d="M122.504 179.502h-49.46V64.362h49.46v16.333H91.571v32.666h26.632v16.333H91.571v33.475h30.933v16.333Z" fill="url(#i)"/><path d="M189.743 179.502h-49.459V64.362h18.526v98.807h30.933v16.333Z" fill="url(#j)"/><path d="M254.721 179.502h-49.46V64.362h49.46v16.333h-30.933v32.666h26.632v16.333h-26.632v33.475h30.933v16.333Z" fill="url(#k)"/><path d="M336.186 179.502h-19.354l-15.383-47.22h-10.422v47.22h-18.526V64.362h29.775c10.697 0 18.361 2.695 22.993 8.086 4.742 5.282 7.113 13.907 7.113 25.874 0 7.654-1.048 13.907-3.143 18.758-1.985 4.852-5.514 8.625-10.587 11.32l17.534 51.102Zm-24.647-68.081c1.544-3.127 2.316-7.493 2.316-13.1 0-5.605-.772-9.918-2.316-12.936-1.544-3.127-4.576-4.69-9.098-4.69h-11.414v35.253h11.414c4.522 0 7.554-1.509 9.098-4.527Z" fill="url(#l)"/><path d="M402.608 179.502h-49.46V64.362h49.46v16.333h-30.933v32.666h26.632v16.333h-26.632v33.475h30.933v16.333Z" fill="url(#m)"/><path d="M499.456 179.502H480.93v-71.801l-16.046 47.22h-10.256l-15.714-46.411v70.992h-18.527V64.362h16.707l22.828 60.481 22.662-60.481h16.872v115.14Z" fill="url(#n)"/><path d="M579.13 89.427c.993 6.685 1.489 17.519 1.489 32.505 0 14.985-.496 25.874-1.489 32.666-.992 6.684-3.363 12.128-7.112 16.333-5.625 6.576-13.234 9.865-22.828 9.865s-17.203-3.289-22.828-9.865c-3.639-4.312-6.01-9.811-7.112-16.495-.993-6.792-1.489-17.627-1.489-32.504 0-14.878.496-25.659 1.489-32.343 1.102-6.792 3.473-12.344 7.112-16.656 5.625-6.577 13.234-9.865 22.828-9.865s17.203 3.288 22.828 9.865c3.749 4.204 6.12 9.702 7.112 16.494Zm-17.865 58.379c.552-5.714.828-14.339.828-25.874 0-11.536-.276-20.106-.828-25.713-.441-5.713-1.488-9.864-3.143-12.451-1.874-2.911-4.852-4.367-8.932-4.367-3.97 0-6.892 1.456-8.767 4.367-2.757 4.312-4.135 17.033-4.135 38.164 0 21.13 1.378 33.852 4.135 38.164 1.875 2.911 4.797 4.366 8.767 4.366 4.08 0 7.058-1.455 8.932-4.366 1.655-2.587 2.702-6.684 3.143-12.29Z" fill="url(#o)"/><path d="M661.659 179.502h-16.376l-27.79-68.405v68.405h-18.527V64.362h16.542l27.625 68.405V64.362h18.526v115.14Z" fill="url(#p)"/><path d="M734.777 80.695h-19.85v98.807h-18.526V80.695h-19.685V64.362h58.061v16.333Z" fill="url(#q)"/></g><defs><linearGradient id="a" x1="363.84" y1="-17.291" x2="320.168" y2="-17.029" gradientUnits="userSpaceOnUse"><stop stop-color="#F3F3F3"/><stop offset="1" stop-color="#F8F8F8"/><stop offset="1" stop-color="#F8F8F8" stop-opacity="0"/></linearGradient><linearGradient id="b" x1="427.98" y1="-16.104" x2="386.467" y2="-15.86" gradientUnits="userSpaceOnUse"><stop stop-color="#F3F3F3"/><stop offset="1" stop-color="#F8F8F8"/><stop offset="1" stop-color="#F8F8F8" stop-opacity="0"/></linearGradient><linearGradient id="c" x1="499.204" y1="-16.104" x2="449.053" y2="-15.748" gradientUnits="userSpaceOnUse"><stop stop-color="#F3F3F3"/><stop offset="1" stop-color="#F8F8F8"/><stop offset="1" stop-color="#F8F8F8" stop-opacity="0"/></linearGradient><linearGradient id="d" x1="568.954" y1="-16.279" x2="511.366" y2="-15.813" gradientUnits="userSpaceOnUse"><stop stop-color="#F3F3F3"/><stop offset="1" stop-color="#F8F8F8"/><stop offset="1" stop-color="#F8F8F8" stop-opacity="0"/></linearGradient><linearGradient id="e" x1="603.926" y1="-16.104" x2="597.687" y2="-16.099" gradientUnits="userSpaceOnUse"><stop stop-color="#F3F3F3"/><stop offset="1" stop-color="#F8F8F8"/><stop offset="1" stop-color="#F8F8F8" stop-opacity="0"/></linearGradient><linearGradient id="f" x1="682.368" y1="-17.5" x2="634.137" y2="-17.182" gradientUnits="userSpaceOnUse"><stop stop-color="#F3F3F3"/><stop offset="1" stop-color="#F8F8F8"/><stop offset="1" stop-color="#F8F8F8" stop-opacity="0"/></linearGradient><linearGradient id="g" x1="744.83" y1="-16.104" x2="703.317" y2="-15.86" gradientUnits="userSpaceOnUse"><stop stop-color="#F3F3F3"/><stop offset="1" stop-color="#F8F8F8"/><stop offset="1" stop-color="#F8F8F8" stop-opacity="0"/></linearGradient><linearGradient id="h" x1="1070" y1="15.5" x2="-218.5" y2="189" gradientUnits="userSpaceOnUse"><stop stop-color="#F4F4F4"/><stop offset="1" stop-color="#F4F4F4" stop-opacity=".62"/></linearGradient><linearGradient id="i" x1="1070" y1="15.5" x2="-218.5" y2="189" gradientUnits="userSpaceOnUse"><stop stop-color="#F4F4F4"/><stop offset="1" stop-color="#F4F4F4" stop-opacity=".62"/></linearGradient><linearGradient id="j" x1="1070" y1="15.5" x2="-218.5" y2="189" gradientUnits="userSpaceOnUse"><stop stop-color="#F4F4F4"/><stop offset="1" stop-color="#F4F4F4" stop-opacity=".62"/></linearGradient><linearGradient id="k" x1="1070" y1="15.5" x2="-218.5" y2="189" gradientUnits="userSpaceOnUse"><stop stop-color="#F4F4F4"/><stop offset="1" stop-color="#F4F4F4" stop-opacity=".62"/></linearGradient><linearGradient id="l" x1="1070" y1="15.5" x2="-218.5" y2="189" gradientUnits="userSpaceOnUse"><stop stop-color="#F4F4F4"/><stop offset="1" stop-color="#F4F4F4" stop-opacity=".62"/></linearGradient><linearGradient id="m" x1="1070" y1="15.5" x2="-218.5" y2="189" gradientUnits="userSpaceOnUse"><stop stop-color="#F4F4F4"/><stop offset="1" stop-color="#F4F4F4" stop-opacity=".62"/></linearGradient><linearGradient id="n" x1="1070" y1="15.5" x2="-218.5" y2="189" gradientUnits="userSpaceOnUse"><stop stop-color="#F4F4F4"/><stop offset="1" stop-color="#F4F4F4" stop-opacity=".62"/></linearGradient><linearGradient id="o" x1="1070" y1="15.5" x2="-218.5" y2="189" gradientUnits="userSpaceOnUse"><stop stop-color="#F4F4F4"/><stop offset="1" stop-color="#F4F4F4" stop-opacity=".62"/></linearGradient><linearGradient id="p" x1="1070" y1="15.5" x2="-218.5" y2="189" gradientUnits="userSpaceOnUse"><stop stop-color="#F4F4F4"/><stop offset="1" stop-color="#F4F4F4" stop-opacity=".62"/></linearGradient><linearGradient id="q" x1="1070" y1="15.5" x2="-218.5" y2="189" gradientUnits="userSpaceOnUse"><stop stop-color="#F4F4F4"/><stop offset="1" stop-color="#F4F4F4" stop-opacity=".62"/></linearGradient></defs></svg>