<svg width="38" height="17" fill="none" xmlns="http://www.w3.org/2000/svg"><path opacity=".1" fill-rule="evenodd" clip-rule="evenodd" d="M35.338 0c-1.104 0-2 .842-2 1.88 0 1.038.896 1.88 2 1.88 1.105 0 2-.842 2-1.88 0-1.038-.895-1.88-2-1.88Zm-2 15.04c0-1.038.896-1.88 2-1.88 1.105 0 2 .842 2 1.88 0 1.038-.895 1.88-2 1.88-1.104 0-2-.842-2-1.88Zm-9-1.88c-1.104 0-2 .842-2 1.88 0 1.038.896 1.88 2 1.88 1.105 0 2-.842 2-1.88 0-1.038-.895-1.88-2-1.88Zm-2-11.28c0-1.038.896-1.88 2-1.88 1.105 0 2 .842 2 1.88 0 1.038-.895 1.88-2 1.88-1.104 0-2-.842-2-1.88Zm-11 13.16c0-1.038.896-1.88 2-1.88 1.105 0 2 .842 2 1.88 0 1.038-.895 1.88-2 1.88-1.104 0-2-.842-2-1.88Zm2-15.04c-1.104 0-2 .842-2 1.88 0 1.038.896 1.88 2 1.88 1.105 0 2-.842 2-1.88 0-1.038-.895-1.88-2-1.88Zm-11 13.16c-1.104 0-2 .842-2 1.88 0 1.038.896 1.88 2 1.88 1.105 0 2-.842 2-1.88 0-1.038-.895-1.88-2-1.88Zm-2-11.28c0-1.038.896-1.88 2-1.88 1.105 0 2 .842 2 1.88 0 1.038-.895 1.88-2 1.88-1.104 0-2-.842-2-1.88Z" fill="#1860FD"/></svg>