<svg width="45" height="37" fill="none" xmlns="http://www.w3.org/2000/svg"><path d="M27.418 2c0 1.105.842 2 1.88 2 1.039 0 1.88-.895 1.88-2s-.841-2-1.88-2c-1.038 0-1.88.895-1.88 2Zm15.04 2c-1.038 0-1.88-.895-1.88-2s.842-2 1.88-2c1.039 0 1.88.895 1.88 2s-.841 2-1.88 2Zm-1.88 9c0 1.105.842 2 1.88 2 1.039 0 1.88-.895 1.88-2 0-1.104-.841-2-1.88-2-1.038 0-1.88.896-1.88 2Zm-11.28 2c-1.038 0-1.88-.895-1.88-2 0-1.104.842-2 1.88-2 1.039 0 1.88.896 1.88 2 0 1.105-.841 2-1.88 2Zm13.16 11c-1.038 0-1.88-.895-1.88-2s.842-2 1.88-2c1.039 0 1.88.895 1.88 2s-.841 2-1.88 2Zm-15.04-2c0 1.105.842 2 1.88 2 1.039 0 1.88-.895 1.88-2s-.841-2-1.88-2c-1.038 0-1.88.895-1.88 2Zm13.16 11c0 1.105.842 2 1.88 2 1.039 0 1.88-.895 1.88-2s-.841-2-1.88-2c-1.038 0-1.88.895-1.88 2Zm-11.28 2c-1.038 0-1.88-.895-1.88-2s.842-2 1.88-2c1.039 0 1.88.895 1.88 2s-.841 2-1.88 2ZM.08 2c0 1.105.842 2 1.88 2 1.038 0 1.88-.895 1.88-2s-.842-2-1.88-2C.922 0 .08.895.08 2Zm15.04 2c-1.038 0-1.88-.895-1.88-2s.842-2 1.88-2C16.158 0 17 .895 17 2s-.842 2-1.88 2Zm-1.88 9c0 1.105.842 2 1.88 2 1.038 0 1.88-.895 1.88-2s-.842-2-1.88-2c-1.038 0-1.88.895-1.88 2ZM1.96 15C.922 15 .08 14.105.08 13s.842-2 1.88-2c1.038 0 1.88.895 1.88 2s-.842 2-1.88 2Zm13.16 11c-1.038 0-1.88-.895-1.88-2s.842-2 1.88-2c1.038 0 1.88.895 1.88 2s-.842 2-1.88 2ZM.08 24c0 1.105.842 2 1.88 2 1.038 0 1.88-.895 1.88-2s-.842-2-1.88-2c-1.038 0-1.88.895-1.88 2Zm13.16 11c0 1.105.842 2 1.88 2 1.038 0 1.88-.895 1.88-2s-.842-2-1.88-2c-1.038 0-1.88.895-1.88 2ZM1.96 37C.922 37 .08 36.105.08 35s.842-2 1.88-2c1.038 0 1.88.895 1.88 2s-.842 2-1.88 2Z" opacity=".1" fill-rule="evenodd" clip-rule="evenodd" fill="#1860FD"/></svg>