<svg width="526" height="501" fill="none" xmlns="http://www.w3.org/2000/svg"><circle opacity=".1" cx="262.824" cy="286.176" r="196.824" fill="#B5E3FF"/><circle opacity=".4" cx="262.823" cy="286.176" r="155.331" fill="#B5E3FF"/><path fill-rule="evenodd" clip-rule="evenodd" d="M220.281 397.509c-35.175-3.902-60.171-14.2-60.285-26.513-.15-16.028 41.918-29.399 93.962-29.866 36.972-.331 69.032 5.939 84.553 15.345 28.912 8.433 50.491 22.015 57.119 36.042 8.497 2.918 14.094 8.444 13.252 13.84-.871 5.579-8.354 9.268-17.79 9.333-12.89 12.436-43.099 18.759-78.446 15.815-3.168 7.268-12.397 11.308-21.901 9.175-8.699-1.951-14.898-8.46-15.604-15.603-24.311-6.425-43.991-16.475-54.86-27.568Z" fill="#BEBEBE" style="mix-blend-mode:multiply" opacity=".7"/><path d="M176.035 298.905a92.308 92.308 0 0 1-24.738-34.379 83.008 83.008 0 0 1-2.502-56.696c10.481-33.701 34.194-46.009 34.194-46.009s18.194-32.245 30.214-36.204c12.021-3.959 21.949 16.102 21.949 16.102s51.28 1.005 87.526 17.743a111.156 111.156 0 0 1 50.809 47.671s30.235 5.743 31.363 14.051c1.128 8.307-7.282 27.609-16.717 37.148 8.389 26.296-18.318 67.157-52.368 76.572.533 14.667-5.518 15.097-5.518 15.097l10.892 20.513 6.154 4.697-4.452 6.154-19.63-1.087-3.938 3.282-14.01-5.929s-25.005 2.667-50.153 2.647c-25.148-.021-58.665-8.616-66.255-9.436-7.589-.821-16.697 7.118-24.717 6.441-8.02-.677-10.851-3.651-9.949-9.108.903-5.456 8.492-3.63 8.492-3.63v-7.59s-30.173-1.744-34.05-6.584c-3.877-4.841-17.989-38.605 8.02-53.886 26.01-15.282 27.487-8.205 27.487-8.205l11.897 10.625Z" fill="#F5FCFF"/><path d="M202.948 371.826s-8.636-29.825 3.138-46.727c11.775-16.902 14.257-23.712 14.257-23.712l-32.328-14.912s-32.594-3.795-37.558-23.918c2.215 7.672 17.661 32.04 25.517 36.348-3.138 8.205.534 34.604.534 34.604l5.743 15.815 4.472 21.477 16.225 1.025Zm94.07-11.774s3.405 13.518 0 17.107c-3.405 3.59 8.205.431 8.205.431v-3.056l-8.205-14.482Zm83.526-81.967s-13.826-27.712-41.64-42.727c-23.692-12.78-63.588-6.769-63.588-6.769s-21.764-27.056-57.64-32.246c-35.876-5.189-62.604 19.384-65.086 30.153-.123-14.666 8.513-40.06 28.164-53.68 19.65-13.621 41.373-31.302 41.373-31.302s67.547 2.051 97.926 16.122c30.379 14.072 53.435 47.835 53.435 47.835l14.809 23.835-2.051 28.943s1.928 9.026.882 13.744c-1.046 4.717.534 7.856-1.559 10.461-2.092 2.605-2.687.123-5.025-4.369Z" fill="#B5E3FF"/><path d="M335.252 334.268s-24.615-4.595-40.061 9.026c1.559 18.584 12.698 37.865 19.097 38.83 6.4.964 7.467-1.888 7.467-1.888s-6.933-2.769-5.62-9.579c1.312-6.81 12.163-25.927 15.322-29.333a15.594 15.594 0 0 0 3.795-7.056Z" fill="#1EA6F9"/><path d="M323.212 379.17s11.938 4.307 18.461 2.051a6.438 6.438 0 0 0 4.717-8.205l-5.312-2.667s-7.2-15.691-11.918-17.025c-4.718-1.333-8.574 18.297-8.574 18.297l2.626 7.549Zm-146.643-45.66a22.03 22.03 0 0 1 12.964 20.902c-.657 11.261-.677 16.409-.677 16.409s-16.636 6.564-21.866 6.339c-5.231-.226-10.462-4.657-10.462-4.657-1.907-1.005 1.026-6.625 7.61-4.574 1.354.431 1.272-9.969 3.385-14.933 2.749-6.42 6.154-8.635 7.59-11.507a22.16 22.16 0 0 0 1.456-7.979Zm10.215-41.415s23.692-25.087 34.153-29.333c11.015-4.451 17.559-2.482 19.651-2.051a3.816 3.816 0 0 1 2.626 2.605s-11.015 7.343-12.718 11.795c-1.703 4.451-8.205 22.768-7.979 24.471.225 1.702-8.205 4.451-19.897 2.749a20.728 20.728 0 0 1-15.836-10.236Zm48.368-131.32c0 7.2 10.421 14.666 19.569 15.179 7.569.451 14.482-.718 17.148-7.261 2.236-5.477-2.42-13.436-12.307-16.821-9.436-3.158-24.348-1.784-24.41 8.903Zm99.834 35.876c6.789-2.441 22.912 9.949 21.21 24.882-1.703 14.933-15.713 12.43-22.564 3.528-6.851-8.903-9.907-24.348 1.354-28.41Zm-130.931-35.876s-16.758 7.077-21.209 12.041c8.512-22.728 23.609-37.456 28.532-38.83 6.154-1.703 22.277 7.938 24.882 10.42a20.519 20.519 0 0 1 3.61 4.369s-18.338 3.221-21.476 6.154a32.479 32.479 0 0 0-7.59-3.774l-6.749 9.62Zm173.247 80.203s3.016 6.605 2.749 10.523c-.267 3.918 0 11.056 0 11.056s20.143-25.579 19.22-34.215c-.923-8.635-28.532-20.163-28.532-20.163h-5.518s6.564 5.354 7.076 9.415a65.69 65.69 0 0 1 .39 8.902l12.061 3.405-7.446 11.077Z" fill="#1EA6F9"/><path d="M173.287 295.11s-37.455-6.748-44.655 25.805c-6.154 27.732 34.05 34.748 34.05 34.748s7.323-17.087 12.574-21.005c5.252-3.918-1.846-17.025-1.846-17.025l2.626-18.728-2.749-3.795Z" fill="#1EA6F9"/><path d="M179.174 214.722c0 6.503 8.205 12.964 17.907 12.964s17.579-3.282 17.907-10.871c.329-7.59-6.748-12.308-17.538-12.308-10.789 0-18.297 4.575-18.276 10.215Zm154.232 39.979c-6.051 5.477-.513 16.964 5.908 21.743 6.83 5.108 17.599 7.446 21.907 2.051 3.836-4.799 2.379-12.553-4.369-19.035-6.749-6.482-18.01-9.579-23.446-4.759Z" fill="#FFDCD9"/><path d="M230.455 214.292c6.389 0 11.569-5.18 11.569-11.569 0-6.39-5.18-11.569-11.569-11.569-6.39 0-11.569 5.179-11.569 11.569 0 6.389 5.179 11.569 11.569 11.569Zm94.788 33.783c6.389 0 11.569-5.179 11.569-11.569 0-6.389-5.18-11.568-11.569-11.568-6.39 0-11.569 5.179-11.569 11.568 0 6.39 5.179 11.569 11.569 11.569Z" fill="#070707"/><path d="M236.526 201.676a2.482 2.482 0 1 0 0-4.963 2.482 2.482 0 0 0 0 4.963Zm94.48 33.579a2.482 2.482 0 1 0 0-4.963 2.482 2.482 0 0 0 0 4.963Z" fill="#fff"/><path d="M262.31 245.163c3.877-1.149 4.985-8.328 4.985-10.421 0-2.092-5.231-7.056-2.544-11.651 1.847-3.179 9.826-2.051 13.764.575 3.939 2.625 5.539 7.302 5.149 8.574-.862 2.769-5.21 4.431-11.241 4.267 0 .205-4.595 7.384-4.718 10.01a5.167 5.167 0 0 0 1.559 4.102s1.169 1.415-.39 1.826a13.478 13.478 0 0 1-7.774-1.231c-3.036-1.456-5.723-4.103-4.41-5.333 1.313-1.231 4.246-.308 5.62-.718Z" fill="#070707"/><path d="M270.638 227.748c.883.677.472 1.436 1.457 1.62.984.185 1.251.8 1.723 1.354.472.554 4.8-.226 4.964-1.497.164-1.272-1.928-.759-2.831-1.436-.902-.677 0-1.539-1.231-1.58-1.23-.041-2.215.39-2.748 0-.534-.389-1.436-.205-1.539.37-.041.401.03.806.205 1.169Z" fill="#4B4B4B"/><path d="M323.392 76.237c5.748 4.9 11.356 3.123 15.722-.148 2.3-1.734 7.149-7.822 10.396-6.108 2.35 1.339 2.298 7.915-5.124 10.812-7.421 2.897-17.596 6.172-17.479 19.683.116 13.511 12.751 12.02 18.006 7.039 5.255-4.981 13.589-13.07 21.246-15.914 7.658-2.844 29.192-21.927 19.987-46.319-9.204-24.392-30.049-23.126-42.366-20.317-12.318 2.809-27.136 13.62-27.98 28.628-.845 15.01 7.592 22.644 7.592 22.644Z" fill="#1EA6F9"/><path d="M343.048 110.615a13.479 13.479 0 0 1-11.518 1.103c-2.756-1.16-6.036-4.051-6.185-11.158-.134-14.121 10.205-17.97 17.765-20.783l.646-.244c4.851-1.816 5.494-5.09 5.561-6.046a2.486 2.486 0 0 0-.642-2.194c-1.492-.826-4.845 2.365-6.662 4.061a23.56 23.56 0 0 1-2.13 1.916c-6.135 4.596-12.186 4.62-17.513.108-.365-.326-9.002-8.24-8.117-23.755.886-15.514 15.654-26.871 29.103-29.917 21.705-4.936 36.976 2.471 43.945 21.257a34.504 34.504 0 0 1-.951 27.288c-5.024 11.033-14.778 18.921-19.814 20.817-7.064 2.63-14.913 10.06-20.108 14.984l-.674.65a14.189 14.189 0 0 1-2.706 1.913Zm-6.203-25.068a15.35 15.35 0 0 0-8.554 14.942c.027 4.441 1.539 7.416 4.36 8.609 3.618 1.554 8.625-.188 11.23-2.574l.674-.649c5.358-5.084 13.457-12.767 21.052-15.6 4.578-1.688 13.537-9.02 18.243-19.302a31.828 31.828 0 0 0 .925-25.138c-6.601-17.542-20.263-24.119-40.658-19.473-12.442 2.832-26.103 13.37-26.884 27.332-.781 13.963 6.819 21.166 7.156 21.485 4.309 3.629 8.856 3.543 13.919-.252a23.121 23.121 0 0 0 1.906-1.7c2.818-2.664 6.709-6.337 9.999-4.463a4.926 4.926 0 0 1 2.087 4.884c-.102 1.39-.973 6.076-7.399 8.49l-.663.253a54.453 54.453 0 0 0-7.393 3.156Z" fill="#004FAB"/><path d="M335.846 133.008a9.122 9.122 0 1 0-8.845-15.952 9.122 9.122 0 0 0 8.845 15.952Z" fill="#1EA6F9"/><path d="M336.554 134.246c-.685.383-1.411.685-2.165.902a10.344 10.344 0 0 1-8.013-.864 10.526 10.526 0 0 1 2.089-19.351 10.542 10.542 0 0 1 11.205 3.46 10.502 10.502 0 0 1 1.572 10.61 10.502 10.502 0 0 1-4.636 5.214l-.052.029Zm-8.845-15.954a7.7 7.7 0 0 0-3.955 6.755 7.701 7.701 0 0 0 6.88 7.624 7.712 7.712 0 0 0 7.599-3.973 7.696 7.696 0 0 0-3.105-10.407 7.586 7.586 0 0 0-5.864-.632 7.135 7.135 0 0 0-1.59.653l.035-.02Z" fill="#004FAB"/><path d="M368.233 117.535c1.955 3.527 5.888 7.048 8.855 6.202 3.897-1.129 6.938-1.81 8.225.718.756 1.687-1.966 5.438-7.192 3.993-5.227-1.444-12.322-3.571-17.653 4.036-5.332 7.606 2.331 11.834 7.206 11.169 4.875-.666 12.841-1.902 18.255-.431 5.414 1.47 25.088-.609 29.699-17.931 4.61-17.322-7.575-24.961-15.564-28.25-7.99-3.288-20.637-3.213-27.112 4.84-6.474 8.052-6.608 12.273-4.719 15.654Z" fill="#1EA6F9"/><path d="M402.68 142.188a29.115 29.115 0 0 1-17.011 2.471c-4.981-1.291-12.236-.285-17.066.382l-.642.09a10.221 10.221 0 0 1-9.688-4.179c-.943-1.515-2.112-4.712 1.04-9.272 5.752-8.192 13.567-6.08 18.716-4.71l.472.119a4.803 4.803 0 0 0 4.927-.843 1.586 1.586 0 0 0 .607-1.153c-.575-1.283-2.16-1.233-6.593.026-3.742 1.083-8.202-2.73-10.5-6.875-2.582-4.632-1.113-9.804 4.907-17.3 6.75-8.419 19.892-8.914 28.748-5.265 14.358 6.005 20.042 16.38 16.459 30.05a24.342 24.342 0 0 1-11.747 15.104c-.849.502-1.727.954-2.629 1.355Zm-36.459-12.877a11.266 11.266 0 0 0-4.567 4.006c-1.665 2.375-2.004 4.42-.995 6.081a7.45 7.45 0 0 0 6.885 2.837l.624-.081c5.075-.711 12.719-1.781 18.196-.317a27.587 27.587 0 0 0 17.594-3.48 21.392 21.392 0 0 0 10.354-13.446c3.324-12.232-1.744-21.233-14.77-26.624-7.935-3.313-19.571-2.898-25.448 4.425-6.503 8.087-5.99 11.688-4.665 14.154 1.955 3.527 5.318 6.071 7.246 5.559 3.569-1.027 7.975-2.297 9.875 1.453a3.718 3.718 0 0 1-.718 3.998 7.592 7.592 0 0 1-8.098 2.022l-.453-.127c-3.555-1.005-7.466-2.07-11.06-.46Z" fill="#004FAB"/><path d="M355.795 153.796a6.269 6.269 0 1 0-5.128-11.44 6.269 6.269 0 0 0 5.128 11.44Z" fill="#1EA6F9"/><path d="M356.37 155.079a7.698 7.698 0 0 1-9.382-2.533 7.699 7.699 0 0 1 .582-9.701 7.697 7.697 0 0 1 9.617-1.394 7.691 7.691 0 0 1 3.313 9.136 7.668 7.668 0 0 1-4.13 4.492Zm-5.126-11.44a4.862 4.862 0 1 0 .019-.009l-.019.009Z" fill="#004FAB"/><path d="M280.241 97.81c2.929-.404 6.245-3.972 7.031-5.406 1.124-2.067 1.142-6.651 2.562-6.292 1.42.36 3.775 2.81 1.353 6.619-2.421 3.808-5.845 8.743-1.206 14.808 4.64 6.065 9.83 1.098 10.504-2.923.673-4.02 1.687-10.516 4.172-14.401 2.485-3.886 5.787-19.73-6.674-27.663s-21.349-.23-25.962 5.236c-4.614 5.466-7.633 15.357-2.847 22.479 4.787 7.121 7.716 8.016 11.067 7.542Z" fill="#1EA6F9"/><path d="M299.982 109.063a7.374 7.374 0 0 1-3.885 2.582c-1.489.39-4.395.449-7.145-3.262-5.113-6.661-1.479-12.359.92-16.108l.255-.31a3.659 3.659 0 0 0 .666-3.221 2.186 2.186 0 0 0-.663-.934c-.15.5-.297 1.186-.416 1.712a14.203 14.203 0 0 1-1.122 3.522c-.832 1.553-4.468 5.638-8.073 6.137-4.633.643-8.129-1.652-12.504-8.229-4.993-7.472-2.122-18.005 2.997-24.121 8.347-9.861 17.982-11.755 27.868-5.466a20.332 20.332 0 0 1 9.098 13.047 24.836 24.836 0 0 1-1.959 16.582c-2.175 3.412-3.237 9.427-3.89 13.36l-.078.507a9.422 9.422 0 0 1-2.069 4.202Zm-11.889-23.521c.171-.215.381-.395.618-.532a2.013 2.013 0 0 1 1.594-.2 4.926 4.926 0 0 1 3.092 2.977 6.209 6.209 0 0 1-.935 5.703l-.255.31c-2.325 3.628-4.958 7.756-1.072 12.84 1.377 1.805 2.805 2.535 4.241 2.179a5.874 5.874 0 0 0 3.694-4.505l.078-.508c.778-4.116 1.765-10.452 4.299-14.428a22.419 22.419 0 0 0 1.584-14.446 17.28 17.28 0 0 0-7.849-11.244c-8.622-5.486-16.737-3.828-24.139 4.912-4.484 5.468-6.83 14.665-2.821 20.707 4.646 7.006 7.404 7.32 9.817 7.038a11.552 11.552 0 0 0 5.962-4.672c.388-.902.674-1.845.85-2.81a8.433 8.433 0 0 1 1.211-3.347l.031.026Z" fill="#004FAB"/><path d="M304.394 120.346a5.143 5.143 0 1 0-7.955-6.522 5.143 5.143 0 0 0 7.955 6.522Z" fill="#1EA6F9"/><path d="M305.484 121.267a6.567 6.567 0 0 1-8.999 1.089 6.589 6.589 0 0 1-1.351-9.188 6.566 6.566 0 0 1 4.321-2.582 6.569 6.569 0 0 1 6.602 3.134 6.57 6.57 0 0 1-.369 7.298l-.204.249Zm-7.953-6.523-.115.14a3.719 3.719 0 0 0 2.068 5.831 3.71 3.71 0 0 0 2.818-.41c.42-.25.786-.58 1.078-.972a3.677 3.677 0 0 0 .717-2.759 3.682 3.682 0 0 0-1.46-2.449 3.736 3.736 0 0 0-5.093.603l-.013.016Z" fill="#004FAB"/><path d="M379.56 59.726c-.097.502-.26.974-.478 1.388a3.476 3.476 0 0 1-.79 1.024 2.15 2.15 0 0 1-.978.498 1.724 1.724 0 0 1-1.012-.105c-1.359-.545-1.374-2.373-.949-4.482.425-2.109 1.132-3.628 2.401-3.087.365.022.717.18 1.025.458.308.28.562.671.741 1.142.178.47.275 1.005.282 1.557a4.976 4.976 0 0 1-.242 1.607Zm-3.55 8.452c-.542 1.158-1.71 1.723-2.116 1.527-.406-.197-.132-1.243.541-2.372.674-1.128 1.188-2.016 1.594-1.82.405.197.641 1.29-.019 2.665Z" fill="#fff"/><path d="M182.435 174.211c-.211.03-.425.03-.636 0a2.178 2.178 0 0 1-1.456-2.708c.533-1.846 13.579-45.332 32.676-47.958 13.887-1.928 27.425 22.01 28.922 24.738a2.213 2.213 0 0 1-.861 2.974 2.165 2.165 0 0 1-2.412-.225 2.177 2.177 0 0 1-.542-.657c-3.672-6.687-15.179-23.794-24.615-22.563-13.558 1.764-25.599 32.983-29.025 44.84a2.177 2.177 0 0 1-2.051 1.559Z" fill="#070707"/><path d="M204.055 163.995a2.336 2.336 0 0 1-.636 0 2.192 2.192 0 0 1-1.456-2.728c.553-1.825 3.569-11.015 8.697-12.164 4.225-.964 7.897 4.821 8.902 6.626a2.173 2.173 0 0 1-2.516 2.902 2.171 2.171 0 0 1-1.279-.851c-1.394-2.482-3.425-4.574-4.102-4.513-1.682.37-4.226 5.129-5.436 9.169a2.179 2.179 0 0 1-2.174 1.559Zm177.72 100.736a2.169 2.169 0 0 1-2.02-1.404 2.173 2.173 0 0 1 .584-2.39c7.446-6.646 26.194-26.133 23.507-36.512-2.892-11.159-28.266-14.708-37.804-15.118a2.177 2.177 0 0 1-2.051-2.277 2.233 2.233 0 0 1 2.277-2.051c1.518 0 37.537 1.846 41.804 18.461 3.836 14.81-21.866 38.235-24.82 40.84a2.15 2.15 0 0 1-1.477.451Z" fill="#070707"/><path d="M377.302 243.152a2.172 2.172 0 0 1-1.579-3.671 51.81 51.81 0 0 0 6.81-8.615 39.507 39.507 0 0 0-9.334-2.195 2.186 2.186 0 0 1 .595-4.328c12.123 1.62 12.882 4.102 13.19 5.128.307 1.025 1.005 3.364-8.205 13.005-.386.408-.916.65-1.477.676Zm-201.267 91.301a2.196 2.196 0 0 1-2.051-1.436 60.89 60.89 0 0 1-.472-33.189c-22.953-14.769-35.937-59.075-26.809-92.572 9.066-33.169 37.784-48.963 39.035-49.702a2.175 2.175 0 0 1 2.051 3.836c-.287.144-28.369 15.692-36.922 47.015-8.861 32.512 3.877 75.588 26.235 88.613l1.436.861-.431 1.621a57.26 57.26 0 0 0 0 32.02 2.17 2.17 0 0 1-1.313 2.789c-.24.1-.498.149-.759.144Zm197.452-125.146a2.178 2.178 0 0 1-2.051-1.579c0-.226-7.774-24.615-49.722-46.317-39.835-20.615-85.947-17.477-86.419-17.477a2.163 2.163 0 0 1-1.587-.541 2.183 2.183 0 0 1-.731-1.51 2.05 2.05 0 0 1 2.052-2.318c.471 0 47.793-3.2 88.695 17.989 43.753 22.667 51.527 47.917 51.855 48.963a2.196 2.196 0 0 1-1.497 2.708 2.065 2.065 0 0 1-.595.082Zm-54.398 176.386a12.734 12.734 0 0 1-5.108-1.292c-9.292-4.226-19.671-16.882-20.984-39.446a2.212 2.212 0 0 1 2.051-2.318 2.2 2.2 0 0 1 2.318 2.052c1.272 22.338 11.548 31.425 15.897 34.296 3.405 2.236 5.764 2.441 6.154 2.277 1.21-.964 1.21-.964 0-3.179a17.729 17.729 0 0 1-1.6-3.795c-.985-3.282.943-6.749 4.102-12.533a126.363 126.363 0 0 0 11.836-27.466l.328-1.108 1.108-.348c55.711-17.826 51.096-71.999 50.87-74.296a2.175 2.175 0 1 1 4.328-.431c0 .595 5.19 59.24-52.778 78.521a132.124 132.124 0 0 1-11.877 27.241c-2.358 4.266-4.225 7.651-3.774 9.169.35 1.031.811 2.022 1.375 2.954 1.251 2.194 3.097 5.497-1.211 8.82a4.635 4.635 0 0 1-3.035.882Z" fill="#070707"/><path d="M257.449 382.411a246.966 246.966 0 0 1-56.737-7.159c-4.554-1.005-8.205-1.826-10.831-2.174-4.718-.616-9.661 1.353-14.461 3.261-5.559 2.236-10.81 4.328-15.487 2.195-8.533-3.939-8.43-8.656-8-10.502a8.412 8.412 0 0 1 7.692-5.744c.944-15.282 14.605-29.64 15.098-30.194a2.192 2.192 0 0 1 3.569.706 2.182 2.182 0 0 1 0 1.665c-.11.264-.27.504-.472.706-.144.164-14.154 14.871-13.907 29.23v2.297h-2.277c-3.118-.102-5.21 1.19-5.518 2.482-.308 1.293.984 3.426 5.579 5.539 2.974 1.353 7.385-.411 12.041-2.277 5.066-2.052 10.81-4.328 16.656-3.549 2.892.39 6.564 1.21 11.2 2.256a239.584 239.584 0 0 0 58.932 7.036c34.132-.513 44.122-2.564 44.224-2.584a2.183 2.183 0 1 1 .923 4.266c-.41 0-10.256 2.154-45.127 2.667l-3.097-.123Zm81.352 1.087h-1.866c-8.041-.513-13.867-1.026-13.928-1.026a2.183 2.183 0 1 1 .389-4.348s5.826.512 13.826 1.025c7.507.472 7.753-2.236 7.897-4.102 0-.451-1.682-1.662-4.533-2.421l-1.539-.389v-1.6c-.225-4.349-7.158-18.831-8.881-21.108a2.196 2.196 0 0 1-.985-1.456 2.171 2.171 0 0 1 1.743-2.523 2.6 2.6 0 0 1 1.929.492c2.051 1.641 8.984 16.185 10.256 22.79 4.266 1.435 6.605 3.835 6.379 6.584-.492 5.436-3.979 8.082-10.687 8.082Zm-116.142-79.916h-.184a2.195 2.195 0 0 1-.834-.215 2.187 2.187 0 0 1-1.218-2.123c2.052-27.918 15.672-35.61 22.174-39.302a19.113 19.113 0 0 0 2.339-1.436 1.414 1.414 0 0 0-.205-1.292c-.39-.534-2.339-2.195-9.908-2.236-26.071 0-45.989 35.445-46.173 35.794a2.195 2.195 0 0 1-3.625.316 2.163 2.163 0 0 1-.456-1.602c.034-.284.124-.558.265-.806.903-1.58 21.374-38.03 50.01-38.03h.328c6.83 0 11.117 1.313 13.107 4.102a5.872 5.872 0 0 1 .8 5.354c-.492 1.6-2.051 2.461-4.287 3.754-5.846 3.323-18.03 10.256-19.979 35.835a2.176 2.176 0 0 1-2.154 1.887Z" fill="#070707"/><path d="M161.246 359.129c-5.108 0-21.456-.841-32.369-10.892a31.988 31.988 0 0 1-10.03-23.528c-1.108-36.081 44.717-38.501 45.127-38.522a2.178 2.178 0 0 1 2.267 2.082 2.177 2.177 0 0 1-2.082 2.267c-1.723 0-41.989 2.256-41.025 34.05a27.754 27.754 0 0 0 8.615 20.513c11.487 10.584 30.564 9.743 30.769 9.722a2.197 2.197 0 0 1 2.277 2.052 2.175 2.175 0 0 1-2.052 2.297l-1.497-.041Z" fill="#070707"/></svg>