<svg width="56" height="52" fill="none" xmlns="http://www.w3.org/2000/svg"><path fill-rule="evenodd" clip-rule="evenodd" d="M16.917 9.624c0-.874.71-1.583 1.584-1.583h19c.874 0 1.583.709 1.583 1.583v34.834c0 .874-.709 1.583-1.583 1.583h-19a1.583 1.583 0 0 1-1.584-1.583V9.624ZM18.5 12.79c0-.874.71-1.583 1.584-1.583h6.334a1.583 1.583 0 0 1 3.166 0h6.333c.875 0 1.584.709 1.584 1.583v28.5c0 .875-.71 1.584-1.584 1.584H20.084A1.583 1.583 0 0 1 18.5 41.29v-28.5Z" fill="#fff"/><path fill-rule="evenodd" clip-rule="evenodd" d="M28.039 9.625a1.583 1.583 0 1 1-.076 0H23.25a1.583 1.583 0 0 0 0 3.167h9.5a1.583 1.583 0 1 0 0-3.167h-4.71Z" fill="#fff"/><path d="M7 17c-1.667 1.5-5 5.7-5 10.5s3.333 9 5 10.5m42-21c1.667 1.5 5 5.7 5 10.5s-3.333 9-5 10.5" stroke="#fff" stroke-width=".8" stroke-linecap="round"/><path d="M11 20c-1 1.071-3 4.071-3 7.5 0 3.429 2 6.429 3 7.5m34-15c1 1.071 3 4.071 3 7.5 0 3.429-2 6.429-3 7.5" stroke="#fff" stroke-width=".6" stroke-linecap="round"/></svg>