<svg width="277" height="68" fill="none" xmlns="http://www.w3.org/2000/svg"><path d="M21.116 55.095c-.09 3.885-1.159 6.831-3.252 8.751-1.782 1.563-3.965 2.367-6.638 2.367-3.074 0-5.524-1.027-7.35-3.126-1.381-1.562-2.228-3.527-2.584-5.893C.936 54.827.757 50.54.757 44.29s.179-10.537.535-12.903c.356-2.367 1.203-4.331 2.584-5.894 1.782-2.098 4.232-3.125 7.35-3.125 2.762 0 5.034.848 6.816 2.545 1.96 1.92 2.985 4.777 3.074 8.483h-5.123c-.09-2.188-.535-3.84-1.381-4.867-.802-.982-1.916-1.518-3.386-1.518-1.56 0-2.762.536-3.564 1.608-.712 1.026-1.203 2.544-1.425 4.643-.223 2.099-.312 5.76-.312 11.028 0 5.269.089 8.93.312 11.028.222 2.099.713 3.617 1.425 4.644.802 1.071 2.005 1.607 3.564 1.607 1.426 0 2.584-.49 3.386-1.518.846-1.116 1.292-2.768 1.38-4.956h5.124Zm42.588-23.752c.4 2.411.579 6.742.579 12.948 0 6.207-.178 10.493-.58 12.949-.4 2.41-1.247 4.375-2.539 5.893-1.87 2.099-4.32 3.126-7.35 3.126-3.03 0-5.435-1.027-7.35-3.126-1.337-1.473-2.183-3.438-2.54-5.894-.4-2.41-.579-6.741-.579-12.948 0-6.206.178-10.492.58-12.948.4-2.41 1.247-4.375 2.539-5.893 1.87-2.099 4.32-3.126 7.35-3.126 3.03 0 5.435 1.027 7.35 3.126 1.337 1.473 2.183 3.438 2.54 5.893Zm-4.945 23.932c.223-2.099.356-5.76.356-10.984 0-5.223-.133-8.885-.356-10.983-.223-2.099-.713-3.661-1.426-4.688-.801-1.072-1.96-1.608-3.474-1.608-1.56 0-2.762.536-3.564 1.608-.713 1.027-1.203 2.545-1.426 4.643-.223 2.099-.312 5.76-.312 11.028 0 5.269.09 8.93.312 11.029.223 2.098.713 3.616 1.426 4.643.802 1.072 2.004 1.607 3.564 1.607 1.514 0 2.672-.535 3.474-1.607.713-1.027 1.203-2.59 1.426-4.688Zm49.983 10.447h-4.678L93.016 36.388v29.334H87.85V22.815h4.81l10.96 29.334V22.815h5.167v42.907h-.044Zm44.593-11.519c0 4.465-.891 7.59-2.629 9.332-1.826 1.741-4.321 2.59-7.573 2.59-3.296 0-5.791-.849-7.528-2.59-.981-.982-1.649-2.143-2.05-3.483-.401-1.384-.623-3.215-.623-5.536h5.167c0 2.723.49 4.599 1.426 5.626.802.892 2.004 1.339 3.564 1.339 1.603 0 2.806-.447 3.653-1.384.935-.982 1.381-2.902 1.381-5.715 0-2.5-.268-4.242-.802-5.269-.535-1.027-1.693-1.92-3.386-2.634l-4.856-2.01c-2.227-.937-3.742-2.142-4.588-3.66-.847-1.518-1.248-3.885-1.248-7.1 0-3.884 1.07-6.83 3.252-8.795 1.782-1.652 4.01-2.456 6.816-2.456 3.03 0 5.391.804 7.084 2.456 1.871 1.83 2.806 4.777 2.806 8.795h-5.168c0-2.366-.445-4.107-1.336-5.179-.757-.982-1.916-1.428-3.475-1.428-1.425 0-2.494.446-3.296 1.339-1.025 1.116-1.515 2.813-1.515 5.134 0 2.144.267 3.617.802 4.51.535.893 1.604 1.697 3.296 2.411l4.812 2.01c2.361.982 3.964 2.276 4.766 3.973.847 1.652 1.248 4.242 1.248 7.724Zm42.632-22.86c.401 2.411.579 6.742.579 12.948 0 6.207-.178 10.493-.579 12.949-.401 2.41-1.247 4.375-2.539 5.893-1.871 2.099-4.322 3.126-7.351 3.126s-5.435-1.027-7.35-3.126c-1.337-1.473-2.183-3.438-2.539-5.894-.401-2.41-.58-6.741-.58-12.948 0-6.206.179-10.492.58-12.948.4-2.41 1.247-4.375 2.539-5.893 1.871-2.099 4.321-3.126 7.35-3.126s5.435 1.027 7.351 3.126c1.292 1.473 2.138 3.438 2.539 5.893Zm-4.945 23.932c.223-2.099.356-5.76.356-10.984 0-5.223-.133-8.885-.356-10.983-.223-2.099-.713-3.661-1.426-4.688-.801-1.072-1.96-1.608-3.474-1.608-1.559 0-2.762.536-3.564 1.608-.713 1.027-1.203 2.545-1.426 4.643-.222 2.099-.311 5.76-.311 11.028 0 5.269.089 8.93.311 11.029.223 2.098.713 3.616 1.426 4.643.802 1.072 2.005 1.607 3.564 1.607 1.514 0 2.673-.535 3.474-1.607.669-1.027 1.159-2.59 1.426-4.688Zm45.573 10.447h-16.528V22.815h5.168v38.264h11.36v4.643Zm38.534 0h-16.527V22.815h16.527v4.643h-11.36V41.88h9.801v4.643h-9.801v14.6h11.36v4.6ZM128.076 13.393c-.802 0-1.559-.089-2.272-.312-.713-.223-1.292-.491-1.782-.849v-1.294a6.765 6.765 0 0 0 1.693.982 6.77 6.77 0 0 0 2.272.402c.846 0 1.559-.179 2.138-.58.535-.358.846-.894.846-1.519.045-.58-.222-1.071-.89-1.473a2.362 2.362 0 0 0-.669-.313l-.668-.223c-.044 0-.089-.045-.178-.045s-.178-.044-.312-.089a.838.838 0 0 0-.356-.09c-.624-.178-1.025-.312-1.159-.356-.311-.134-.668-.224-.98-.402-.356-.179-.623-.357-.802-.536-.445-.491-.668-1.072-.668-1.786 0-.804.312-1.518.98-2.01.669-.535 1.604-.803 2.762-.803 1.292 0 2.45.313 3.386.893v1.206c-1.069-.67-2.183-1.027-3.386-1.027-.846 0-1.47.178-1.96.49a1.515 1.515 0 0 0-.668 1.296c-.045.402.178.848.713 1.25.089.09.267.134.534.268l.535.223.668.179.668.178c.579.179.936.313 1.069.357.312.09.624.224.936.402.356.179.624.357.846.58.49.447.758 1.072.758 1.876 0 .982-.401 1.741-1.203 2.322-.757.535-1.737.803-2.851.803Zm28.288-.177h-7.707V2.276h7.484v1.028h-6.326v3.482h5.213v1.027h-5.213V12.1h6.549v1.116Zm17.775 0h-1.159V2.276h4.901c1.069 0 1.915.269 2.539.805.624.535.936 1.25.936 2.143 0 .803-.223 1.428-.669 1.964-.445.536-1.069.849-1.915.982l3.519 5.046h-1.336l-3.431-4.912h-3.341v4.912h-.044Zm0-9.912v3.929h3.653c.757 0 1.336-.179 1.737-.491.401-.357.624-.804.624-1.429s-.223-1.116-.624-1.473c-.401-.358-.98-.536-1.737-.536h-3.653Zm28.822 9.956h-1.069l-4.811-10.983h1.247l4.099 9.42 4.098-9.42h1.248l-4.812 10.983Zm22.497-.044H224.3V2.276h1.158v10.94Zm22.319.179c-1.604 0-2.941-.536-4.01-1.608-1.069-1.071-1.603-2.41-1.603-4.063 0-1.652.534-2.991 1.603-4.063 1.069-1.071 2.406-1.607 4.01-1.607 1.202 0 2.182.268 3.073.803v1.206a5.382 5.382 0 0 0-3.029-.938c-1.247 0-2.316.447-3.163 1.295-.846.848-1.292 1.965-1.292 3.26 0 1.339.446 2.41 1.292 3.259.847.848 1.916 1.295 3.208 1.295 1.292 0 2.361-.358 3.252-1.117v1.206c-.936.759-2.049 1.072-3.341 1.072Zm27.352-.179h-7.707V2.276h7.484v1.028h-6.325v3.482h5.212v1.027h-5.212V12.1h6.548v1.116Z" fill="#fff"/></svg>