<svg width="175" height="44" fill="none" xmlns="http://www.w3.org/2000/svg"><path d="M13.566 35.477c-.057 2.514-.732 4.42-2.055 5.663-1.126 1.011-2.505 1.531-4.194 1.531-1.941 0-3.49-.664-4.643-2.022-.873-1.011-1.407-2.283-1.633-3.814-.225-1.531-.337-4.304-.337-8.35 0-4.044.112-6.817.337-8.348.226-1.532.76-2.803 1.633-3.814 1.125-1.358 2.673-2.022 4.643-2.022 1.745 0 3.18.549 4.306 1.646 1.239 1.243 1.886 3.092 1.943 5.49h-3.237c-.056-1.416-.338-2.485-.873-3.15-.506-.635-1.21-.982-2.139-.982-.985 0-1.744.347-2.251 1.04-.45.665-.76 1.647-.9 3.005-.141 1.358-.198 3.727-.198 7.136 0 3.409.057 5.778.197 7.136.141 1.358.45 2.34.9 3.004.508.694 1.267 1.04 2.252 1.04.901 0 1.633-.317 2.14-.982.534-.722.816-1.791.872-3.207h3.236Zm26.905-15.398c.254 1.56.366 4.362.366 8.378s-.113 6.79-.366 8.378c-.253 1.56-.788 2.831-1.604 3.814-1.182 1.358-2.73 2.022-4.644 2.022-1.914 0-3.433-.664-4.643-2.022-.845-.954-1.38-2.225-1.605-3.814-.253-1.56-.366-4.362-.366-8.378s.113-6.79.366-8.378c.253-1.56.788-2.832 1.604-3.814 1.183-1.358 2.73-2.022 4.644-2.022 1.914 0 3.434.664 4.644 2.022.844.982 1.38 2.254 1.604 3.814Zm-3.124 15.485c.141-1.358.225-3.727.225-7.107 0-3.38-.084-5.75-.225-7.107-.14-1.358-.45-2.37-.9-3.034-.507-.693-1.239-1.04-2.196-1.04-.985 0-1.745.347-2.251 1.04-.45.665-.76 1.647-.9 3.005-.142 1.358-.198 3.727-.198 7.136 0 3.409.056 5.778.197 7.136.141 1.358.45 2.34.9 3.004.507.694 1.267 1.04 2.252 1.04.957 0 1.689-.346 2.196-1.04.45-.664.76-1.646.9-3.033Zm31.578 6.76h-2.956l-6.98-18.98v18.98h-3.264V14.561h3.04l6.923 18.98v-18.98h3.265v27.763h-.028ZM97.097 34.9c0 2.889-.563 4.91-1.66 6.038-1.154 1.126-2.73 1.675-4.785 1.675-2.083 0-3.659-.549-4.756-1.675a5.288 5.288 0 0 1-1.295-2.254c-.253-.895-.394-2.08-.394-3.582h3.265c0 1.762.31 2.975.9 3.64.507.578 1.267.867 2.252.867 1.013 0 1.773-.29 2.308-.896.59-.636.872-1.878.872-3.698 0-1.618-.169-2.745-.506-3.41-.338-.663-1.07-1.241-2.14-1.704l-3.067-1.3c-1.407-.606-2.364-1.386-2.899-2.369-.535-.982-.788-2.513-.788-4.593 0-2.514.675-4.42 2.055-5.692 1.125-1.069 2.532-1.589 4.306-1.589 1.913 0 3.405.52 4.475 1.59 1.182 1.184 1.773 3.09 1.773 5.69h-3.265c0-1.53-.282-2.657-.844-3.35-.479-.636-1.21-.925-2.196-.925-.9 0-1.576.289-2.082.867-.648.722-.957 1.82-.957 3.322 0 1.387.169 2.34.506 2.918.338.578 1.014 1.098 2.083 1.56l3.04 1.3c1.491.636 2.504 1.474 3.011 2.571.535 1.04.788 2.716.788 4.998Zm26.934-14.821c.254 1.56.366 4.362.366 8.378s-.112 6.79-.366 8.378c-.253 1.56-.788 2.831-1.604 3.814-1.182 1.358-2.73 2.022-4.644 2.022-1.914 0-3.433-.664-4.643-2.022-.845-.954-1.38-2.225-1.605-3.814-.253-1.56-.366-4.362-.366-8.378s.113-6.79.366-8.378c.254-1.56.788-2.832 1.605-3.814 1.182-1.358 2.729-2.022 4.643-2.022 1.914 0 3.434.664 4.644 2.022.816.982 1.351 2.254 1.604 3.814Zm-3.124 15.485c.141-1.358.225-3.727.225-7.107 0-3.38-.084-5.75-.225-7.107-.14-1.358-.45-2.37-.9-3.034-.507-.693-1.239-1.04-2.196-1.04-.985 0-1.744.347-2.251 1.04-.45.665-.76 1.647-.901 3.005-.14 1.358-.197 3.727-.197 7.136 0 3.409.057 5.778.197 7.136.141 1.358.451 2.34.901 3.004.507.694 1.266 1.04 2.251 1.04.957 0 1.689-.346 2.196-1.04.422-.664.731-1.646.9-3.033Zm28.791 6.76h-10.441V14.561h3.265V39.32h7.176v3.004Zm24.345 0h-10.441V14.561h10.441v3.004h-7.177v9.332h6.192V29.9h-6.192v9.448h7.177v2.975ZM81.14 8.465c-.507 0-.986-.058-1.436-.202-.45-.145-.816-.318-1.126-.55v-.837c.282.23.647.462 1.07.635.478.174.957.26 1.435.26.535 0 .985-.115 1.35-.375a1.17 1.17 0 0 0 .536-.982c.028-.376-.141-.694-.563-.954a1.47 1.47 0 0 0-.422-.202l-.423-.144c-.028 0-.056-.03-.112-.03s-.113-.028-.197-.057a.52.52 0 0 0-.225-.058 16.667 16.667 0 0 1-.732-.231c-.197-.087-.422-.145-.62-.26a1.964 1.964 0 0 1-.506-.347c-.281-.318-.422-.693-.422-1.155 0-.52.197-.983.62-1.3.421-.347 1.012-.52 1.744-.52.816 0 1.548.202 2.139.577v.78c-.675-.433-1.379-.664-2.139-.664-.535 0-.929.115-1.238.318a.987.987 0 0 0-.422.838c-.029.26.112.548.45.808.056.058.169.087.338.174l.337.144.423.116.422.115c.365.116.59.203.675.231.197.058.394.145.591.26.225.116.394.232.535.376.31.289.478.693.478 1.213 0 .636-.253 1.127-.76 1.503-.478.346-1.097.52-1.8.52Zm17.87-.115h-4.868V1.27h4.728v.665h-3.997v2.253h3.293v.722h-3.293v2.774h4.137v.664Zm11.23 0h-.732V1.27h3.096c.676 0 1.21.174 1.604.52.394.347.591.81.591 1.387 0 .52-.14.924-.422 1.271-.281.347-.675.55-1.21.636l2.223 3.264h-.844l-2.167-3.178h-2.111v3.18h-.028Zm0-6.385v2.542h2.308c.478 0 .844-.116 1.097-.318.254-.231.394-.52.394-.924 0-.405-.14-.723-.394-.954-.253-.23-.619-.346-1.097-.346h-2.308Zm18.209 6.442h-.675l-3.04-7.136h.788l2.59 6.096 2.589-6.096h.788l-3.04 7.136Zm14.213-.057h-.731V1.27h.731v7.08Zm14.1.115c-1.013 0-1.857-.347-2.533-1.04-.675-.694-1.013-1.56-1.013-2.63 0-1.068.338-1.935 1.013-2.628.676-.694 1.52-1.04 2.533-1.04.76 0 1.379.173 1.942.52v.78a3.343 3.343 0 0 0-1.913-.607c-.788 0-1.464.289-1.999.838-.534.549-.816 1.271-.816 2.109 0 .867.282 1.56.816 2.109.535.549 1.211.838 2.027.838.816 0 1.491-.231 2.054-.723v.78c-.591.492-1.294.694-2.111.694Zm17.281-.115h-4.869V1.27h4.728v.665h-3.996v2.253h3.292v.722h-3.292v2.774h4.137v.664Z" fill="#1E1E1E"/></svg>