<svg width="37" height="88" fill="none" xmlns="http://www.w3.org/2000/svg"><path opacity=".1" fill-rule="evenodd" clip-rule="evenodd" d="M2 88a2 2 0 1 0 0-4 2 2 0 0 0 0 4Zm2-16a2 2 0 1 1-4 0 2 2 0 0 1 4 0ZM2 60a2 2 0 1 0 0-4 2 2 0 0 0 0 4Zm0-42a2 2 0 1 0 0-4 2 2 0 0 0 0 4ZM26 2a2 2 0 1 1-4 0 2 2 0 0 1 4 0Zm11 0a2 2 0 1 1-4 0 2 2 0 0 1 4 0ZM15 16a2 2 0 1 1-4 0 2 2 0 0 1 4 0Zm9 2a2 2 0 1 0 0-4 2 2 0 0 0 0 4Zm13-2a2 2 0 1 1-4 0 2 2 0 0 1 4 0ZM2 32a2 2 0 1 0 0-4 2 2 0 0 0 0 4Zm13-2a2 2 0 1 1-4 0 2 2 0 0 1 4 0Zm9 2a2 2 0 1 0 0-4 2 2 0 0 0 0 4Zm13-2a2 2 0 1 1-4 0 2 2 0 0 1 4 0ZM2 46a2 2 0 1 0 0-4 2 2 0 0 0 0 4Zm13-2a2 2 0 1 1-4 0 2 2 0 0 1 4 0Zm9 2a2 2 0 1 0 0-4 2 2 0 0 0 0 4Zm13-2a2 2 0 1 1-4 0 2 2 0 0 1 4 0ZM15 58a2 2 0 1 1-4 0 2 2 0 0 1 4 0Zm-2 16a2 2 0 1 0 0-4 2 2 0 0 0 0 4Zm2 12a2 2 0 1 1-4 0 2 2 0 0 1 4 0Zm9-26a2 2 0 1 0 0-4 2 2 0 0 0 0 4Zm2 12a2 2 0 1 1-4 0 2 2 0 0 1 4 0Zm-2 16a2 2 0 1 0 0-4 2 2 0 0 0 0 4Zm13-30a2 2 0 1 1-4 0 2 2 0 0 1 4 0Zm-2 16a2 2 0 1 0 0-4 2 2 0 0 0 0 4Zm2 12a2 2 0 1 1-4 0 2 2 0 0 1 4 0ZM13 4a2 2 0 1 0 0-4 2 2 0 0 0 0 4ZM4 2a2 2 0 1 1-4 0 2 2 0 0 1 4 0Z" fill="#1EA6F9"/></svg>