<svg width="37" height="60" fill="none" xmlns="http://www.w3.org/2000/svg"><path opacity=".1" fill-rule="evenodd" clip-rule="evenodd" d="M2 60a2 2 0 1 0 0-4 2 2 0 0 0 0 4Zm2-16a2 2 0 1 1-4 0 2 2 0 0 1 4 0ZM2 32a2 2 0 1 0 0-4 2 2 0 0 0 0 4ZM2 4a2 2 0 1 0 0-4 2 2 0 0 0 0 4Zm13-2a2 2 0 1 1-4 0 2 2 0 0 1 4 0Zm9 2a2 2 0 1 0 0-4 2 2 0 0 0 0 4Zm13-2a2 2 0 1 1-4 0 2 2 0 0 1 4 0ZM2 18a2 2 0 1 0 0-4 2 2 0 0 0 0 4Zm13-2a2 2 0 1 1-4 0 2 2 0 0 1 4 0Zm9 2a2 2 0 1 0 0-4 2 2 0 0 0 0 4Zm13-2a2 2 0 1 1-4 0 2 2 0 0 1 4 0ZM15 30a2 2 0 1 1-4 0 2 2 0 0 1 4 0Zm-2 16a2 2 0 1 0 0-4 2 2 0 0 0 0 4Zm2 12a2 2 0 1 1-4 0 2 2 0 0 1 4 0Zm9-26a2 2 0 1 0 0-4 2 2 0 0 0 0 4Zm2 12a2 2 0 1 1-4 0 2 2 0 0 1 4 0Zm-2 16a2 2 0 1 0 0-4 2 2 0 0 0 0 4Zm13-30a2 2 0 1 1-4 0 2 2 0 0 1 4 0Zm-2 16a2 2 0 1 0 0-4 2 2 0 0 0 0 4Zm2 12a2 2 0 1 1-4 0 2 2 0 0 1 4 0Z" fill="#fff"/></svg>