<svg width="379" height="384" fill="none" xmlns="http://www.w3.org/2000/svg"><path d="M.086 113.873c.429-3.291 2.145-6.009 5.005-8.011 6.865-4.721 15.16-6.724 18.162-7.296l5.864-4.435v-1.144c0-1.86.143-3.577.286-5.293 0-.287-.143-.43-.143-.716 0-.143 1.287-21.03 13.872-37.624.143-.143.285-.143.428-.286 3.433-4.72 7.437-9.155 12.013-12.875 16.875-14.162 39.042-20.17 61.065-16.308a78.613 78.613 0 0 1 15.588 4.578l20.021-19.885C155.25 1.574 159.254 0 163.402 0h.286c4.29 0 8.294 1.86 11.297 5.007 3.862 4.006 5.292 9.585 3.862 15.02l-9.868 38.483.572.572c.429.859.858 1.86 1.287 2.718 4.862 10.73 7.151 22.603 6.722 34.477-.572 14.162-5.006 27.181-13.443 38.482-2.002 2.575-3.146 5.293-3.575 8.011v.572a10.578 10.578 0 0 0 0 3.005c0 .429.143.858.286 1.287.143.858.429 1.574.858 2.432.143.429.286.858.572 1.288.429.715.858 1.43 1.43 2.288.286.43.715.859 1.001 1.288.715.858 1.573 1.717 2.431 2.575.429.286.858.715 1.287 1.001.858.573 1.716 1.288 2.574 1.86.572.429 1.144.715 1.859 1.144 8.581 4.864 21.738 8.441 40.615 8.441h30.89c6.435 0 12.298-1.002 17.304-2.718 7.436-2.718 15.302-3.72 23.31-3.004.715 0 1.43.143 2.145.286.286-.286.572-.716 1.001-1.002l18.734-17.166c2.718-2.003 6.15-2.289 9.153-.716 2.86 1.574 4.719 4.578 4.433 8.011v.287l-3.575 24.033c0 .286-.143.572-.143 1.001.143.143.286.143.429.286 8.724 8.584 14.301 19.885 15.588 31.902 1.001 9.156-.429 18.454-3.861 26.608l26.885 24.463c9.439 8.583 10.154 23.318 1.573 32.76l-23.739 26.322c1.287 4.292 2.145 8.727 2.145 13.448 0 24.605-20.021 44.633-44.619 44.633-24.597 0-44.618-20.028-44.618-44.633 0-24.606 20.021-44.634 44.618-44.634 2.718 0 5.435.286 8.009.715l6.149-6.723-11.297-10.3c-14.873 4.005-31.033.715-43.046-8.727-3.432-.429-7.007-.715-10.583-.715-9.295 0-18.162 1.43-26.742 4.149 7.293 8.726 7.293 21.744-.572 30.471l-41.473 45.778c-.143.143-.143.143-.286.143-4.719 19.598-22.309 34.333-43.331 34.333-24.598 0-44.62-20.028-44.62-44.633 0-24.606 20.022-44.634 44.62-44.634 1.001 0 2.002.143 2.86.143-12.299-3.29-23.597-9.871-32.75-19.456-13.442-14.162-20.163-32.616-19.162-52.215.143-3.577.715-7.01 1.43-10.443v-.572c1.859-8.584 5.148-16.595 10.01-23.748 1.001-1.43.858-3.29-.143-4.864a3.954 3.954 0 0 0-1.859-1.573h-.143c-.715-.286-1.573-.429-2.431-.286-2.145.429-4.147.858-6.15 1.144-.285.143-.714.286-1 .429-.286.143-.572.143-.858.286-7.58 1.145-14.73 1.86-20.022 1.86-2.002 0-3.718-.143-5.148-.286a5.288 5.288 0 0 1-1.573-.715c-26.743-4.578-46.764-27.038-48.051-54.219 0-.429 0-1.001.143-1.43-1.144-1.288-3.575-5.436-3.003-10.157Z" fill="#1EA6F9"/><path d="M323.858 189.587c-1.144 0-2.431-.287-3.432-.859l-14.873-7.439c-2.431-1.144-4.004-3.576-4.29-6.294-.286-2.718.858-5.293 3.146-6.867l18.305-16.881c2.717-2.002 5.864-2.288 8.438-.715 2.717 1.431 4.147 4.149 4.004 7.153v.286l-3.718 24.606c-.143 2.289-1.573 4.721-3.718 6.008-1.145.715-2.575 1.002-3.862 1.002Zm3.576-34.191c-.286 0-.716.143-1.145.429l-18.305 16.881c-1.001.715-1.001 1.574-1.001 1.86 0 .286.143 1.144 1.001 1.573l14.873 7.439a2.025 2.025 0 0 0 1.859 0c.286-.143.858-.572 1.001-1.573l3.719-24.749a1.979 1.979 0 0 0-1.001-1.717c-.143 0-.572-.143-1.001-.143Zm-288.305-46.35c-.858 0-1.716-.429-2.288-1.145-1.001-1.287-.715-3.147.572-4.005l6.721-5.007v-1.717c0-21.888 9.582-42.488 26.314-56.507 16.732-14.02 38.755-20.028 60.635-16.165 5.721 1 11.298 2.718 16.589 4.863 1.431.573 2.146 2.29 1.574 3.863-.573 1.43-2.289 2.146-3.862 1.574-4.862-2.146-10.01-3.577-15.302-4.578-20.164-3.577-40.614 1.86-56.059 14.734C58.578 57.975 49.712 76.858 49.712 97.03c0 1.001 0 2.003.142 3.004 0 1.002-.428 1.86-1.143 2.432l-7.866 6.008a2.744 2.744 0 0 1-1.716.573Zm128.707 201.423c-.715 0-1.43-.286-2.002-.715-1.144-1.145-1.287-2.861-.143-4.149l8.58-9.442c-3.432.573-6.864.716-10.296.716-19.306 0-37.325-7.725-50.625-21.745-13.3-14.019-20.021-32.474-19.02-51.786.572-12.16 4.576-24.034 11.44-34.334 1.144-1.716 1.144-4.148-.143-5.865-1.144-1.717-3.289-2.575-5.434-2.146-15.302 3.004-27.887 3.72-33.035 3.004-27.172-3.862-47.908-26.608-49.195-54.075-.143-1.574 1.144-3.004 2.717-3.004 1.716-.143 3.003 1.144 3.003 2.718 1.144 24.749 19.736 45.063 44.19 48.496 4.004.572 15.445.286 31.176-2.861 4.29-.858 8.723.858 11.298 4.578 2.574 3.719 2.717 8.583.143 12.302a62.505 62.505 0 0 0-10.44 31.473c-.858 17.739 5.291 34.619 17.447 47.495 12.156 12.875 28.745 20.027 46.478 20.027 5.148 0 10.439-.715 15.588-1.859 1.001-.286 1.859 0 2.574.715l1.001.858c.572.572.858 1.288 1.001 2.003 0 .715-.286 1.574-.715 2.146l-13.3 14.592c-.858.572-1.573.858-2.288.858Zm15.731 40.056c-.715 0-1.43-.287-2.002-.716-1.144-1.144-1.287-2.861-.143-4.148l41.615-46.064c6.15-6.867 5.721-17.453-1.144-23.605l-2.574-2.432c-.715-.715-1.144-1.716-.858-2.718.143-1.001.858-1.859 1.716-2.146 11.012-4.434 22.595-6.723 34.751-6.58 4.29 0 8.581.286 12.728.858.572.143 1.001.286 1.43.715 11.155 9.299 26.6 12.303 40.328 7.869 1.002-.287 2.003-.144 2.861.572l15.731 14.305c1.144 1.145 1.287 2.861.143 4.149l-10.154 11.158c-1.144 1.145-2.86 1.288-4.147.143-1.144-1.144-1.287-2.861-.143-4.148l8.151-9.013-12.442-11.301c-15.015 4.292-31.461.858-43.617-8.87-3.575-.429-7.294-.715-11.155-.715h-.286a87.008 87.008 0 0 0-27.887 4.578c8.295 8.44 8.724 22.031.716 30.9l-41.616 46.064c-.429.858-1.144 1.145-2.002 1.145Z" fill="#1E1E1E"/><path d="M345.023 328.351c-.715 0-1.43-.286-2.002-.715-1.144-1.145-1.287-2.861-.143-4.149l25.313-28.039c6.149-6.867 5.72-17.453-1.145-23.604l-28.744-26.18c-.858-.715-1.144-1.859-.858-2.861 0 0 .143-1.001.286-1.001 3.718-8.154 5.005-16.738 4.147-25.178-1.144-10.443-6.006-20.457-13.729-28.039a2.937 2.937 0 0 1 0-4.149 2.934 2.934 0 0 1 4.147 0c8.724 8.441 14.158 19.742 15.445 31.473 1.001 9.155-.429 18.454-4.004 26.894l27.458 25.035c9.152 8.297 9.867 22.603 1.573 31.759l-25.313 28.039c-.858.429-1.716.715-2.431.715Zm-85.518-147.348h-31.033c-29.174 0-50.768-8.44-57.775-22.746-3.719-7.582-2.574-16.022 3.003-23.318 7.436-10.157 11.584-21.888 12.013-34.906a70.822 70.822 0 0 0-6.15-31.758c-.429-.859-.715-1.717-1.144-2.575a2.868 2.868 0 0 1 1.287-3.863 2.865 2.865 0 0 1 3.861 1.288c.429.858.858 1.86 1.288 2.718 4.862 10.586 7.15 22.46 6.578 34.333-.572 14.163-5.005 26.895-13.157 38.196-4.29 5.579-5.148 11.588-2.431 17.31 4.576 9.442 20.879 19.456 52.484 19.456h31.033c6.578 0 12.585-1.002 17.733-2.861 7.437-2.718 15.159-3.72 23.167-3.005 1.145.143 2.432.287 3.576.43 1.573.286 2.574 1.716 2.431 3.29-.286 1.574-1.716 2.718-3.289 2.432-1.001-.143-2.145-.286-3.147-.429-7.15-.716-14.014.286-20.593 2.718-5.72 2.146-12.442 3.29-19.735 3.29ZM142.523 384c-24.169 0-43.904-19.742-43.904-43.918 0-24.32 19.735-43.919 43.904-43.919 24.168 0 43.903 19.742 43.903 43.919.143 24.176-19.592 43.918-43.903 43.918Zm0-82.114c-21.022 0-38.184 17.166-38.184 38.196 0 21.029 17.162 38.196 38.184 38.196s38.183-17.167 38.183-38.196c0-21.03-17.018-38.196-38.183-38.196Z" fill="#1E1E1E"/><path d="M142.523 362.828c-12.585 0-22.739-10.157-22.739-22.746 0-12.589 10.154-22.746 22.739-22.746 12.584 0 22.738 10.157 22.738 22.746.143 12.589-10.154 22.746-22.738 22.746Zm0-39.77a16.97 16.97 0 0 0-17.018 17.024 16.97 16.97 0 0 0 17.018 17.023 16.97 16.97 0 0 0 17.018-17.023 16.97 16.97 0 0 0-17.018-17.024ZM155.536 96.6c-2.86 0-5.72-.859-8.295-2.432l-15.587-10.014c-4.577-3.004-7.151-8.154-6.865-13.59l.858-14.592c.286-3.72 1.859-7.296 4.433-9.871l37.469-37.052c2.86-2.86 6.721-4.434 10.868-4.434 4.148 0 7.866 1.716 10.726 4.72 3.575 3.863 5.005 9.156 3.718 14.306l-14.587 56.793c-1.001 3.863-3.432 7.01-6.721 9.156l-8.152 5.007c-2.288 1.144-5.148 2.003-7.865 2.003Zm22.738-86.406c-2.431 0-4.862 1.001-6.578 2.718l-37.468 37.051c-1.716 1.574-2.574 3.863-2.717 6.152l-.858 14.592c-.144 3.433 1.43 6.58 4.29 8.44l15.588 10.014c3.003 2.003 7.007 2.003 10.01.143l8.152-5.007c2.145-1.288 3.575-3.29 4.147-5.722l14.587-56.65c.858-3.148 0-6.438-2.288-8.87-1.716-1.86-4.147-2.861-6.722-2.861h-.143Zm128.279 373.662c-24.168 0-43.904-19.741-43.904-43.918 0-24.319 19.736-43.918 43.904-43.918 24.169 0 43.904 19.742 43.904 43.918 0 24.177-19.735 43.918-43.904 43.918Zm0-82.114c-21.022 0-38.183 17.167-38.183 38.196 0 21.029 17.161 38.196 38.183 38.196s38.183-17.167 38.183-38.196c0-21.029-17.161-38.196-38.183-38.196Z" fill="#1E1E1E"/><path d="M306.553 362.684c-12.585 0-22.739-10.157-22.739-22.746 0-12.589 10.154-22.746 22.739-22.746s22.738 10.157 22.738 22.746c0 12.589-10.153 22.746-22.738 22.746Zm0-39.77a16.97 16.97 0 0 0-17.018 17.024 16.97 16.97 0 0 0 17.018 17.024 16.97 16.97 0 0 0 17.018-17.024c0-9.442-7.723-17.024-17.018-17.024ZM98.477 215.766c-.287 0-.573 0-.859-.143-1.43-.43-2.288-1.574-2.002-3.005 1.86-8.44 5.149-16.451 9.868-23.604 1.144-1.717 1.144-4.005-.143-5.865-1.001-1.431-2.574-2.289-4.29-2.289-.429 0-.858.143-1.287.143-1.573 0-2.86-1.001-3.147-2.432-.286-1.574.715-3.004 2.288-3.29.573-.143 1.145-.143 1.717-.143 29.459-3.72 69.788-34.62 70.217-34.906 1.144-.858 2.86-.715 3.861.286.715.858 1.001 2.003.572 3.004-3.289 8.727 1.43 17.453 12.728 23.604 1.144.573 1.716 1.86 1.43 3.148-.286 1.287-1.43 2.146-2.717 2.289-19.878 1.144-67.786 7.296-85.519 41.486-.429 1.001-1.573 1.717-2.718 1.717Zm11.154-36.623c.143.143.286.429.429.572 2.574 3.72 2.717 8.584.143 12.303-.429.716-1.001 1.431-1.43 2.289 20.021-19.026 50.196-25.178 69.216-27.037-6.292-5.294-9.581-11.731-9.581-18.312-11.012 8.012-36.181 24.463-58.777 30.185Zm112.404 95.562c-.572 0-1.287-.143-1.716-.572-24.168-18.168-23.453-42.774-15.445-58.51 8.724-17.024 29.031-30.614 55.059-22.46a2.999 2.999 0 0 1 1.859 1.86c.286.858.143 1.859-.429 2.575-9.439 12.875-13.014 27.323-10.011 41.057 2.431 11.015 9.01 20.314 17.876 25.178 1.287.715 1.859 2.145 1.287 3.433-.429 1.287-1.716 2.146-3.146 2.003-3.718-.572-7.722-.716-11.87-.716h-.286c-11.154 0-22.023 2.003-32.32 6.152-.143-.143-.572 0-.858 0Zm22.739-78.109c-16.303 0-28.888 9.871-34.894 21.745-6.865 13.304-7.437 34.333 12.584 50.212 10.44-4.005 21.595-5.865 32.892-5.865h2.718c-6.007-5.865-10.44-13.733-12.442-22.746-3.146-14.019 0-28.897 8.58-42.201-3.146-.859-6.435-1.145-9.438-1.145Z" fill="#1E1E1E"/><path d="M295.256 258.969c-18.734 0-34.036-15.307-34.036-34.048 0-18.74 15.302-34.047 34.036-34.047s34.036 15.307 34.036 34.047c0 18.741-15.302 34.048-34.036 34.048Zm0-62.373c-15.588 0-28.316 12.732-28.316 28.325s12.728 28.325 28.316 28.325 28.315-12.732 28.315-28.325-12.727-28.325-28.315-28.325Zm-145.44 76.249c-18.734 0-34.036-15.307-34.036-34.047 0-18.741 15.302-34.048 34.036-34.048s34.036 15.307 34.036 34.048c.143 18.74-15.159 34.047-34.036 34.047Zm0-62.372c-15.588 0-28.316 12.732-28.316 28.325s12.728 28.325 28.316 28.325 28.316-12.732 28.316-28.325c0-15.736-12.728-28.325-28.316-28.325Zm54.487 93.701a15.993 15.993 0 0 1-16.017-16.022 15.994 15.994 0 0 1 16.017-16.022 15.993 15.993 0 0 1 16.017 16.022c0 8.87-7.15 16.022-16.017 16.022Zm0-26.179c-5.577 0-10.297 4.578-10.297 10.3 0 5.579 4.577 10.3 10.297 10.3 5.577 0 10.297-4.578 10.297-10.3s-4.577-10.3-10.297-10.3Zm145.153 22.889a15.994 15.994 0 0 1-16.017-16.022c0-8.87 7.151-16.022 16.017-16.022a15.992 15.992 0 0 1 16.017 16.022c0 8.869-7.15 16.022-16.017 16.022Zm0-26.179c-5.577 0-10.296 4.578-10.296 10.3 0 5.579 4.576 10.3 10.296 10.3 5.578 0 10.297-4.578 10.297-10.3s-4.576-10.3-10.297-10.3ZM72.02 184.723a44.89 44.89 0 0 1-5.005-.287c-1.573-.286-2.718-1.716-2.431-3.29.285-1.573 1.716-2.718 3.289-2.432 3.432.572 12.012.286 23.024-1.43 30.461-12.589 48.051-39.198 41.044-61.658-5.149-16.88-23.025-28.182-46.335-29.612-1.573-.143-2.86-1.43-2.717-3.004.143-1.574 1.43-2.862 3.003-2.719 25.884 1.574 45.62 14.45 51.626 33.619 7.865 25.607-11.298 55.219-44.762 68.953-.143.143-.429.143-.715.143-7.436 1.001-14.73 1.717-20.021 1.717Z" fill="#1E1E1E"/><path d="M59.577 103.037H46.992c-1.573 0-2.86-1.287-2.86-2.718 0-1.001-.143-2.002-.143-3.004 0-18.883 7.15-36.765 20.021-50.499.715-.715 1.86-1.144 2.86-.858 12.728 3.433 21.738 14.878 21.738 28.039 0 15.88-13.014 29.04-29.03 29.04Zm-9.724-5.865h9.724c12.871 0 23.31-10.443 23.31-23.318 0-9.871-6.435-18.74-15.73-21.888-11.298 12.446-17.304 28.468-17.304 45.206Z" fill="#1E1E1E"/><path d="M55.717 93.882h-8.724c-1.573 0-2.86-1.288-2.86-2.718-.143-2.146 2.288-22.174 13.872-37.338.715-1.002 1.86-1.43 3.003-1.002 9.153 2.29 15.588 10.587 15.588 20.172 0 11.444-9.438 20.886-20.879 20.886Zm-5.434-5.866h5.434c8.294 0 15.159-6.866 15.159-15.164 0-6.151-3.861-11.73-9.439-14.02-7.722 11.016-10.296 23.605-11.154 29.184Zm-25.17 43.776c-2.717 0-5.148-1.145-7.294-3.577-1.287-1.43-3.575-5.436-3.003-9.87.43-3.005 2.002-5.58 4.72-7.439 8.151-5.58 18.59-7.439 19.02-7.439.715-.143 1.573 0 2.145.572.572.572 1 1.144 1.144 1.86.143.572 2.002 15.307-7.294 22.03-3.432 2.575-6.578 3.863-9.438 3.863Zm11.297-22.031c-3.432.859-9.009 2.718-13.585 5.866-1.287 1.001-2.145 2.002-2.288 3.433-.287 2.289 1.144 4.721 1.573 5.293 1.144 1.287 2.86 3.29 9.152-1.144 4.433-3.148 5.148-9.585 5.148-13.448Z" fill="#1E1E1E"/></svg>