<svg width="276" height="69" fill="none" xmlns="http://www.w3.org/2000/svg"><path d="M127.968 13.274c-.799 0-1.553-.09-2.263-.317-.711-.226-1.288-.498-1.776-.86v-1.314a6.715 6.715 0 0 0 1.687.996 6.636 6.636 0 0 0 2.264.408c.843 0 1.553-.181 2.13-.589.533-.362.844-.906.844-1.54.044-.59-.222-1.088-.888-1.495a2.322 2.322 0 0 0-.666-.317l-.666-.227c-.044 0-.089-.045-.177-.045-.089 0-.178-.046-.311-.09a.824.824 0 0 0-.355-.091c-.622-.182-1.021-.318-1.154-.363-.311-.136-.666-.226-.977-.408-.355-.18-.621-.362-.799-.543-.444-.499-.666-1.088-.666-1.813 0-.815.311-1.54.977-2.038.666-.544 1.598-.816 2.752-.816 1.287 0 2.441.317 3.373.906v1.224c-1.065-.68-2.175-1.042-3.373-1.042-.843 0-1.465.18-1.953.498-.444.317-.666.77-.666 1.314-.044.408.178.86.71 1.268.089.091.267.136.533.272l.533.227.665.18.666.182c.577.181.932.317 1.066.363.31.09.621.226.932.407.355.182.621.363.843.59.488.452.755 1.087.755 1.902 0 .997-.4 1.767-1.199 2.356-.754.544-1.731.816-2.841.816Zm28.186-.18h-7.679v-11.1h7.457v1.042h-6.303v3.533h5.194v1.133h-5.194v4.35h6.525v1.042Zm17.711 0h-1.154v-11.1h4.882c1.066 0 1.909.271 2.53.815.622.544.932 1.269.932 2.175 0 .815-.221 1.45-.665 1.993-.444.544-1.066.861-1.909.997l3.507 5.12h-1.332l-3.418-4.984h-3.329v4.984h-.044Zm0-10.013v3.987h3.64c.754 0 1.331-.181 1.731-.499.399-.362.621-.815.621-1.45 0-.634-.222-1.132-.621-1.494-.4-.363-.977-.544-1.731-.544h-3.64Zm28.718 10.103h-1.065l-4.794-11.19h1.243l4.084 9.56 4.083-9.56h1.243l-4.794 11.19Zm22.416-.09h-1.154v-11.1h1.154v11.1Zm22.238.18c-1.598 0-2.93-.543-3.995-1.63-1.065-1.088-1.598-2.447-1.598-4.123 0-1.677.533-3.036 1.598-4.123 1.065-1.087 2.397-1.631 3.995-1.631 1.198 0 2.175.272 3.063.815v1.224c-.932-.635-1.953-.952-3.019-.952-1.243 0-2.308.453-3.151 1.314-.844.86-1.287 1.993-1.287 3.307 0 1.36.443 2.447 1.287 3.308.843.86 1.908 1.314 3.196 1.314 1.287 0 2.352-.363 3.24-1.133v1.223c-.932.77-2.042 1.087-3.329 1.087Zm27.254-.18h-7.679v-11.1h7.457v1.042h-6.303v3.533h5.193v1.133h-5.193v4.35h6.525v1.042ZM21.685 30.097H14.27v36.852H7.35V30.097H0v-6.092h21.685v6.092ZM45.752 66.95H27.28V24.004h18.472v6.092H34.2V42.28h9.946v6.091H34.2v12.486h11.552v6.091Zm25.113 0H52.393V24.004h6.92v36.853h11.552v6.091Zm24.268 0H76.66V24.004h18.472v6.092H83.58V42.28h9.946v6.091H83.58v12.486h11.553v6.091Zm30.425 0h-7.228l-5.746-17.613h-3.892V66.95h-6.919V24.005h11.12c3.995 0 6.858 1.006 8.588 3.016 1.771 1.97 2.656 5.187 2.656 9.65 0 2.855-.391 5.187-1.174 6.997-.741 1.81-2.059 3.217-3.954 4.222l6.549 19.06Zm-9.205-25.393c.577-1.166.865-2.795.865-4.886 0-2.09-.288-3.699-.865-4.825-.577-1.166-1.709-1.749-3.398-1.749h-4.263v13.149h4.263c1.689 0 2.821-.563 3.398-1.69Zm34.012 25.393h-18.472V24.004h18.472v6.092h-11.553V42.28h9.947v6.091h-9.947v12.486h11.553v6.091Zm36.171 0h-6.919V40.17l-5.993 17.611h-3.83l-5.869-17.31V66.95h-6.92V24.005h6.24l8.526 22.558 8.463-22.558h6.302V66.95Zm29.756-33.596c.371 2.493.556 6.534.556 12.123 0 5.59-.185 9.65-.556 12.184-.37 2.493-1.256 4.523-2.656 6.092-2.101 2.452-4.943 3.679-8.526 3.679s-6.425-1.227-8.525-3.68c-1.36-1.608-2.245-3.659-2.657-6.152-.371-2.533-.556-6.574-.556-12.123 0-5.549.185-9.57.556-12.063.412-2.533 1.297-4.604 2.657-6.212 2.1-2.453 4.942-3.68 8.525-3.68s6.425 1.227 8.526 3.68c1.4 1.568 2.286 3.619 2.656 6.152Zm-6.672 21.774c.206-2.132.309-5.348.309-9.65 0-4.303-.103-7.5-.309-9.59-.165-2.132-.556-3.68-1.174-4.645-.7-1.086-1.812-1.628-3.336-1.628-1.483 0-2.574.542-3.274 1.628-1.03 1.608-1.545 6.353-1.545 14.234s.515 12.626 1.545 14.235c.7 1.085 1.791 1.628 3.274 1.628 1.524 0 2.636-.543 3.336-1.629.618-.965 1.009-2.492 1.174-4.583Zm37.495 11.822h-6.116L230.62 41.435V66.95h-6.92V24.005h6.178l10.318 25.513V24.005h6.919V66.95Zm27.308-36.853h-7.414v36.852h-6.919V30.097h-7.352v-6.092h21.685v6.092Z" fill="#fff"/></svg>