<svg width="175" height="44" fill="none" xmlns="http://www.w3.org/2000/svg"><path d="M81.14 8.465c-.507 0-.986-.058-1.436-.202-.45-.145-.816-.318-1.126-.55v-.837c.282.23.648.462 1.07.635.478.174.957.26 1.435.26.535 0 .985-.115 1.351-.375a1.17 1.17 0 0 0 .535-.982c.028-.376-.141-.694-.563-.954a1.47 1.47 0 0 0-.422-.202l-.422-.144c-.029 0-.057-.03-.113-.03s-.113-.028-.197-.057a.52.52 0 0 0-.225-.058 17.141 17.141 0 0 1-.732-.231c-.197-.087-.422-.145-.62-.26a1.96 1.96 0 0 1-.506-.347c-.281-.318-.422-.693-.422-1.155 0-.52.197-.983.62-1.3.421-.347 1.012-.52 1.744-.52.816 0 1.548.202 2.14.577v.78c-.676-.433-1.38-.664-2.14-.664-.535 0-.928.115-1.238.318a.987.987 0 0 0-.422.838c-.028.26.112.548.45.808.056.058.169.087.338.174l.337.144.423.116.422.115c.366.116.59.203.675.231.197.058.394.145.591.26.225.116.394.232.535.376.31.289.479.693.479 1.213 0 .636-.254 1.127-.76 1.503-.479.346-1.098.52-1.802.52Zm17.87-.115h-4.868V1.27h4.728v.665h-3.996v2.253h3.293v.722h-3.293v2.774h4.137v.664Zm11.23 0h-.731V1.27h3.095c.676 0 1.211.174 1.605.52.394.347.591.81.591 1.387 0 .52-.141.924-.422 1.271-.282.347-.676.55-1.211.636l2.224 3.264h-.845l-2.167-3.178h-2.111v3.18h-.028Zm0-6.385v2.542h2.308c.479 0 .844-.116 1.098-.318.253-.231.394-.52.394-.924 0-.405-.141-.723-.394-.954-.254-.23-.619-.346-1.098-.346h-2.308Zm18.21 6.442h-.676l-3.039-7.136h.788l2.589 6.096 2.589-6.096h.788l-3.039 7.136Zm14.212-.057h-.731V1.27h.731v7.08Zm14.101.115c-1.014 0-1.858-.347-2.533-1.04-.676-.694-1.014-1.56-1.014-2.63 0-1.068.338-1.935 1.014-2.628.675-.694 1.519-1.04 2.533-1.04.759 0 1.379.173 1.941.52v.78a3.343 3.343 0 0 0-1.913-.607c-.788 0-1.464.289-1.999.838-.534.549-.816 1.271-.816 2.109 0 .867.282 1.56.816 2.109.535.549 1.211.838 2.027.838.816 0 1.491-.231 2.054-.723v.78c-.591.492-1.294.694-2.11.694Zm17.28-.115h-4.869V1.27h4.728v.665h-3.996v2.253h3.293v.722h-3.293v2.774h4.137v.664Z" fill="#1E1E1E"/><path d="M13.75 19.192H9.048v23.5H4.66v-23.5H0v-3.884h13.75v3.884Zm15.26 23.5H17.297V15.308H29.01v3.884h-7.325v7.77h6.306v3.884h-6.306v7.962h7.325v3.884Zm15.922 0H33.22V15.308h4.387v23.5h7.325v3.884Zm15.388 0H48.607V15.308H60.32v3.884h-7.325v7.77H59.3v3.884h-6.306v7.962h7.325v3.884Zm19.291 0h-4.583l-3.643-11.23h-2.468v11.23H64.53V15.308h7.05c2.534 0 4.349.64 5.446 1.923 1.123 1.256 1.684 3.307 1.684 6.154 0 1.82-.248 3.307-.744 4.461-.47 1.154-1.306 2.051-2.507 2.692l4.152 12.154ZM73.774 26.5c.366-.744.549-1.782.549-3.115 0-1.334-.183-2.36-.548-3.077-.366-.744-1.084-1.116-2.155-1.116h-2.703v8.385h2.703c1.07 0 1.789-.36 2.154-1.077ZM95.34 42.692H83.628V15.308H95.34v3.884h-7.325v7.77h6.307v3.884h-6.307v7.962h7.325v3.884Zm22.935 0h-4.388V25.615l-3.799 11.231h-2.429l-3.721-11.038v16.884H99.55V15.308h3.957l5.405 14.384 5.367-14.384h3.996v27.384Zm18.867-21.422c.235 1.589.352 4.166.352 7.73s-.117 6.154-.352 7.77c-.235 1.589-.797 2.884-1.685 3.884-1.331 1.564-3.133 2.346-5.405 2.346-2.272 0-4.074-.782-5.406-2.346-.862-1.026-1.423-2.334-1.684-3.923-.235-1.616-.353-4.193-.353-7.731 0-3.538.118-6.103.353-7.692.261-1.616.822-2.936 1.684-3.962 1.332-1.564 3.134-2.346 5.406-2.346s4.074.782 5.405 2.346c.888 1 1.45 2.308 1.685 3.923Zm-4.231 13.884c.131-1.36.196-3.41.196-6.154 0-2.744-.065-4.782-.196-6.115-.104-1.36-.352-2.347-.744-2.962-.444-.692-1.149-1.038-2.115-1.038-.94 0-1.632.346-2.076 1.038-.653 1.026-.98 4.051-.98 9.077s.327 8.051.98 9.077c.444.692 1.136 1.038 2.076 1.038.966 0 1.671-.346 2.115-1.038.392-.615.64-1.59.744-2.923Zm23.774 7.538h-3.878l-6.581-16.269v16.27h-4.387V15.307h3.917l6.542 16.269v-16.27h4.387v27.385ZM174 19.192h-4.701v23.5h-4.387v-23.5h-4.661v-3.884H174v3.884Z" fill="#000"/></svg>