<svg width="20" height="20" fill="none" xmlns="http://www.w3.org/2000/svg"><path d="m8.333 14.167 3.333-3.334m-3.333 0 3.333 3.334M15.833 7.5H13.5c-.933 0-1.4 0-1.757-.182a1.666 1.666 0 0 1-.728-.728c-.182-.357-.182-.823-.182-1.757V2.5m5 12.333V7.771c0-.407 0-.611-.046-.803a1.665 1.665 0 0 0-.2-.482c-.103-.168-.246-.312-.535-.6L12.448 3.28c-.289-.288-.433-.432-.6-.535a1.668 1.668 0 0 0-.482-.2c-.192-.046-.396-.046-.804-.046H6.833c-.933 0-1.4 0-1.757.182-.313.16-.568.414-.728.728-.181.357-.181.823-.181 1.757v9.666c0 .934 0 1.4.181 1.757.16.314.415.569.728.728.357.182.824.182 1.757.182h6.334c.933 0 1.4 0 1.756-.182.314-.16.569-.414.729-.728.181-.357.181-.823.181-1.757Z" stroke="#8C8D92" stroke-width="2" stroke-linecap="round" stroke-linejoin="round"/></svg>