<svg width="20" height="20" fill="none" xmlns="http://www.w3.org/2000/svg"><path d="M7.5 7.5V5.1c0-1.436 1.084-2.6 2.42-2.6.687 0 1.306.307 1.746.8M3.334 14.834v-4.666c0-.934 0-1.4.181-1.757.16-.314.415-.569.728-.728C4.6 7.5 5.067 7.5 6 7.5h8c.934 0 1.4 0 1.757.182.313.16.569.414.728.728.182.357.182.823.182 1.757v4.666c0 .934 0 1.4-.182 1.757-.16.314-.415.569-.728.728-.357.182-.823.182-1.757.182H6c-.933 0-1.4 0-1.757-.182a1.666 1.666 0 0 1-.728-.728c-.182-.357-.182-.823-.182-1.757Z" stroke="#8C8D92" stroke-width="2" stroke-linecap="round" stroke-linejoin="round"/></svg>